<svg width="500" height="140" viewBox="0 0 500 140" fill="none" xmlns="http://www.w3.org/2000/svg">
<mask id="mask0_39_282" style="mask-type:luminance" maskUnits="userSpaceOnUse" x="3" y="3" width="494" height="133">
<path d="M3.93652 135.456H496.063V3.93721H3.93652V135.456Z" fill="white"/>
</mask>
<g mask="url(#mask0_39_282)">
<path d="M12.6201 99.3754C12.6201 99.3754 16.0892 105.794 23.3052 112.517L21.9481 102.628L12.6201 99.3754Z" fill="white"/>
<path d="M82.335 135.344C123.528 135.344 160.716 106.592 160.716 69.6695C160.716 32.7463 123.528 3.99464 82.335 3.99464C41.141 3.99464 3.95898 32.7463 3.95898 69.6695C3.95898 106.592 41.141 135.344 82.335 135.344Z" fill="white"/>
<path d="M344.165 110.74H330.181L329.981 65.9196C329.99 59.4974 323.26 59.3537 323.26 59.3537H317.121C317.121 59.3537 316.29 59.4974 315.315 59.6381C306.512 61.4966 303.72 68.3469 303.649 76.0554L303.772 110.74H289.641L289.615 66.0618C289.6 59.4974 282.723 59.3537 282.723 59.3537H276.586C276.586 59.3537 275.753 59.4974 274.781 59.6381C265.968 61.4966 263.182 68.3469 263.256 76.0554L263.237 110.74H249.104L249.08 73.3412L249.12 45.2241H263.246L263.277 51.0765C267.391 46.0813 273.496 45.082 276.496 45.082H281.632C287.914 45.082 293.402 47.0791 299.189 52.3613C305.134 47.2223 310.323 45.082 317.031 45.082H322.167C335.015 45.082 344.158 53.2169 344.241 66.6331L344.165 110.74Z" fill="#231F20"/>
<path d="M453.485 45.082H432.079L432.081 31.9266L417.952 23.3886L417.964 110.74H432.096L432.002 59.2115H453.839C455.266 59.2115 456.744 59.4974 458.008 60.2119C460.044 61.2113 461.563 63.3501 461.503 67.0621L461.498 110.74H475.625L475.533 66.4909C475.595 53.0748 466.34 45.082 453.485 45.082Z" fill="#231F20"/>
<path d="M398.116 31.2715L384.825 23.2439H384.271L384.157 59.2115H384.187L384.204 87.6154C384.244 99.1806 389.351 107.884 399.768 110.311C401.841 110.74 403.267 110.74 403.267 110.74H406.266L406.199 96.6101H404.201C398.064 96.6101 398.204 89.3268 398.204 89.3268L398.179 59.2115H406.311L406.246 45.082H398.114L398.116 31.2715Z" fill="#231F20"/>
<path d="M357.765 23.2439H357.131L357.179 38.087H371.027L371.068 31.2816L357.765 23.2439ZM357.144 110.74H371.134L371.117 45.082H357.129L357.144 110.74Z" fill="#231F20"/>
<path d="M179.062 86.6082C185.355 93.3012 194.19 97.9876 203.96 97.9876C215.737 97.8554 224.036 93.436 224.036 85.4058C224.036 66.666 169.83 84.7371 169.83 50.4683C169.83 35.477 185.49 25.1702 204.628 25.1702C218.553 25.1702 229.792 29.5882 238.088 38.0202L226.581 48.327C218.95 40.8341 211.99 38.2895 203.827 38.2895C190.977 38.2895 186.159 44.5824 186.159 49.67C186.159 68.5369 240.368 49.67 240.368 84.6039C240.368 102.136 222.567 112.709 203.291 112.709C191.513 112.709 177.858 108.294 167.286 97.1829L179.062 86.6082Z" fill="#231F20"/>
<path d="M489.093 102.816C489.915 102.816 490.477 102.675 490.477 101.754C490.477 100.932 489.594 100.831 488.912 100.831H487.69V102.816H489.093ZM485.967 99.5088H488.994C491.037 99.5088 492.2 100.11 492.2 101.914C492.2 103.377 491.318 103.958 490.076 104.059L492.2 107.547H490.437L488.512 104.139H487.69V107.547H485.967V99.5088ZM488.872 109.19C491.739 109.19 494.025 106.905 494.025 103.558C494.025 100.23 491.739 97.9251 488.872 97.9251C485.967 97.9251 483.721 100.23 483.721 103.558C483.721 106.905 485.967 109.19 488.872 109.19ZM488.872 96.3211C492.861 96.3211 496.109 99.5685 496.109 103.558C496.109 107.547 492.861 110.794 488.872 110.794C484.883 110.794 481.637 107.547 481.637 103.558C481.637 99.5685 484.883 96.3211 488.872 96.3211Z" fill="#231F20"/>
<path d="M120.727 95.4158C134.654 95.4158 147.229 83.7044 147.229 68.6657C147.229 53.6256 134.654 41.9143 120.727 41.9143C106.798 41.9143 94.2238 53.6256 94.2238 68.6657C94.2238 83.7044 106.798 95.4158 120.727 95.4158ZM120.727 28.3574C143.902 28.3574 162.267 45.983 162.267 68.6657C162.267 91.3495 143.902 108.975 120.727 108.975C97.5511 108.975 79.1836 91.3495 79.1836 68.6657C79.1836 45.983 97.5511 28.3574 120.727 28.3574Z" fill="white"/>
<path d="M94.2549 68.6481C94.2549 83.6794 106.824 95.3867 120.748 95.3867C134.671 95.3867 147.241 83.6794 147.241 68.6481C147.241 53.614 134.671 41.9082 120.748 41.9082C106.824 41.9082 94.2549 53.614 94.2549 68.6481ZM120.748 108.945C97.5817 108.945 79.2212 91.3219 79.2212 68.6481C79.2212 45.9729 97.5817 28.3533 120.748 28.3533C135.673 28.3533 148.593 35.6726 155.903 46.9384C144.46 21.5619 114.654 3.93721 82.3929 3.93721C41.1565 3.93721 3.93652 32.7254 3.93652 69.6969C3.93652 80.5885 7.18703 90.7592 12.7975 99.7049L43.2844 29.9439L51.9733 29.9564L84.7503 107.341H69.3469L63.4311 92.7997H30.6531L23.1328 112.365C37.8686 126.577 59.507 135.456 82.3929 135.456C117.313 135.456 149.348 114.807 158.345 86.0293C151.747 99.7173 137.507 108.945 120.748 108.945ZM35.8305 79.9848H58.3795L47.1661 52.2584L35.8305 79.9848Z" fill="#0D7A3F"/>
</g>
</svg>
