<svg width="500" height="93" viewBox="0 0 500 93" fill="none" xmlns="http://www.w3.org/2000/svg">
<g clip-path="url(#clip0_39_340)">
<path d="M418.248 57.3057V60.4683H389.785V32.0052H418.248V57.3057ZM482.259 32.0052H453.796V60.4683H482.259V32.0052ZM450.253 0H421.79V28.4631H450.253V0ZM418.248 0C402.435 0 389.785 12.7768 389.785 28.4631H418.248V0ZM482.259 28.4631C482.259 12.7768 469.482 0 453.796 0V28.4631H482.259ZM389.785 64.1369C389.785 79.8232 402.562 92.6 418.248 92.6V64.1369H389.785ZM421.79 92.6C437.477 92.6 450.253 79.8232 450.253 64.1369H421.79V92.6ZM453.796 64.1369C453.796 79.8232 466.572 92.6 482.259 92.6V64.1369H453.796Z" fill="#F86700"/>
<path d="M490.229 92.6V87.1604H488.205V86.4014H493.139V87.1604H491.115V92.6H490.229ZM494.024 92.6V86.4014H495.289L496.807 90.829C496.934 91.2085 497.06 91.588 497.06 91.7145C497.187 91.4615 497.187 91.2085 497.44 90.7025L498.958 86.4014H500.096V92.6H499.337V87.4134L497.566 92.6H496.807L494.783 87.2869V92.6H494.024Z" fill="#333F48"/>
<path d="M18.6266 32.0056H30.7709L48.7343 81.2151H36.9695L33.807 71.4744H14.5785L11.2895 81.2151H0.157227L18.6266 32.0056ZM31.0239 62.7457L24.3193 42.1258L17.4881 62.7457H31.0239ZM57.8425 32.0056H68.7217V72.4864H86.6851V81.2151H57.8425V32.0056ZM97.6908 32.0056H108.57V72.4864H126.533V81.2151H97.6908V32.0056ZM137.413 32.0056H167.394V40.9873H148.165V51.6135H164.611V59.8362H148.292V72.3599H167.52V81.3416H137.539V32.0056H137.413ZM176.755 57.3061C176.755 43.5173 184.219 31.4996 202.056 31.4996C208.507 31.4996 212.682 32.6381 215.844 34.0296V43.2643C211.923 41.4933 207.875 40.4812 202.562 40.4812C192.947 40.4812 188.14 46.4269 188.14 57.4326C188.14 68.0588 193.2 73.372 202.182 73.372C204.586 73.372 206.23 73.1189 207.875 72.4864V62.7457H200.158V54.6496H218.248V79.1911C213.947 80.7091 208.887 82.1006 201.55 82.1006C185.61 81.9741 176.755 71.8539 176.755 57.3061ZM232.416 32.0056H243.295V81.2151H232.416V32.0056ZM255.06 56.6736C255.06 43.1378 262.903 31.373 278.337 31.373C293.77 31.373 301.613 42.6318 301.613 56.5471C301.613 70.0829 293.77 81.8476 278.337 81.8476C262.903 81.9741 255.06 70.7154 255.06 56.6736ZM290.228 56.6736C290.228 46.3004 286.053 40.3547 278.337 40.3547C270.62 40.3547 266.445 46.3004 266.445 56.6736C266.445 67.0468 270.494 72.9925 278.337 72.9925C286.053 72.9925 290.228 67.0468 290.228 56.6736ZM345.636 32.0056V65.6553L324.257 32.0056H313.251V81.2151H322.866V48.0714L343.739 81.2151H355.124V32.0056H345.636ZM363.22 38.3307V32.8911H361.196V32.1321H366.13V32.8911H364.106V38.3307H363.22ZM367.015 38.3307V32.1321H368.28L369.798 36.5597C369.925 36.9392 370.051 37.3187 370.051 37.4452C370.178 37.1922 370.178 36.9392 370.431 36.4332L371.949 32.1321H373.087V38.3307H372.075V33.1441L370.304 38.3307H369.545L367.774 33.0176V38.3307H367.015Z" fill="#333F48"/>
</g>
<defs>
<clipPath id="clip0_39_340">
<rect width="500" height="92.6" fill="white"/>
</clipPath>
</defs>
</svg>
