<svg width="500" height="77" viewBox="0 0 500 77" fill="none" xmlns="http://www.w3.org/2000/svg">
<g clip-path="url(#clip0_39_339)">
<path d="M450.065 55.9742C448.734 52.695 455.195 44.8378 467.468 44.3184L493.994 76.5911H471.494C469.643 76.5911 462.63 76.721 458.247 69.5132L450.065 55.9742Z" fill="url(#paint0_linear_39_339)"/>
<path d="M450.065 56.0067C450.032 55.9417 449.351 54.3184 449.351 52.3703C449.351 45.0002 455.877 40.7794 463.247 39.2534L467.467 44.3508C455.195 44.8378 448.734 52.695 450.065 56.0067Z" fill="url(#paint1_linear_39_339)"/>
<path d="M474.611 39.1558C473.28 38.6688 471.591 38.5714 469.773 38.5714C467.63 38.5714 465.422 38.7987 463.247 39.2207C455.877 40.7467 449.351 44.9675 449.351 52.3376C449.351 54.3181 450.033 55.9415 450.065 55.974L442.63 43.7662C441.267 41.2987 440.747 39.9026 440.747 38.2792C440.747 33.8961 449.091 32.0454 460.293 32.0454C471.786 32.0454 473.832 36.3311 474.611 39.1558Z" fill="url(#paint2_linear_39_339)"/>
<path d="M416.039 0.0322266H426.494C430.39 0.0971616 432.857 1.07119 437.11 6.33093L456.396 30.7465H442.403C435.065 30.7465 433.929 29.4803 430.877 24.4153L416.039 0.0322266Z" fill="url(#paint3_linear_39_339)"/>
<path fill-rule="evenodd" clip-rule="evenodd" d="M217.045 61.2989V42.8898C217.045 39.3834 215.454 37.2405 212.435 37.2405C208.474 37.2405 205.844 41.4613 205.844 47.1756V61.2989H199.383C199.383 61.2989 199.383 40.9418 199.383 40.3898C199.383 38.0847 199.188 34.708 199.058 32.8249H204.253C204.837 32.8249 205 33.0847 205.032 33.6041C205.032 34.1885 205.097 37.1431 205.097 37.1431H205.259C206.038 35.8119 208.019 32.2405 213.961 32.2405C220.097 32.2405 223.538 36.4288 223.538 41.1366V61.2989H217.045ZM166.59 55.0327C166.753 55.0327 167.012 55.1626 167.045 55.6496C167.175 57.0132 167.207 59.221 167.24 59.9028C165.941 60.5846 163.149 61.8184 159.707 61.8184C151.103 61.8184 145.811 56.8184 145.811 47.0457C145.811 37.8574 150.519 32.208 159.707 32.208C162.759 32.208 165.584 33.2795 167.24 34.1236C167.24 35.1301 167.142 37.4353 167.045 38.4093C167.012 38.8314 166.818 39.0262 166.59 39.0262C166.331 39.0262 166.233 38.9613 166.071 38.8963C163.993 37.8574 162.045 37.3704 160.292 37.3704C154.805 37.3704 152.564 40.9743 152.564 47.0457C152.564 52.4678 154.35 56.721 160.292 56.721C162.564 56.721 164.61 55.9093 165.909 55.2924C166.233 55.0976 166.298 55.0327 166.59 55.0327ZM188.896 61.2989C188.376 61.2989 187.922 61.1366 187.889 60.3574C187.824 59.4483 187.694 57.6626 187.694 57.6626C187.24 58.1821 184.87 61.8509 178.961 61.8509C173.311 61.8509 170.064 57.4678 170.064 52.695C170.064 46.0392 176.493 42.7275 186.071 42.7275H187.337V41.6561C187.337 38.6691 185.227 37.0782 181.266 37.0782C177.727 37.0782 174.74 38.3444 173.603 38.9288C173.538 38.9613 173.311 39.0911 173.116 39.0911C172.824 39.0911 172.629 38.8963 172.629 38.5717C172.564 37.5002 172.435 35.4548 172.435 34.1236C173.603 33.6691 177.467 32.2405 181.72 32.2405C190.162 32.2405 193.798 36.1691 193.798 42.4353V53.5392C193.798 57.5976 194.155 60.26 194.285 61.2989C194.285 61.2989 189.35 61.2989 188.896 61.2989ZM187.337 46.8509C187.337 46.8509 186.363 46.8509 186.233 46.8509C178.149 46.8509 176.525 49.6756 176.525 52.5327C176.525 54.8704 178.084 57.1106 181.103 57.1106C185.129 57.1106 187.337 53.2145 187.337 49.1236V46.8509ZM106.363 55.0327C106.72 55.0327 106.818 55.3574 106.85 55.6821C106.948 56.8834 107.045 59.6431 107.045 60.3249C106.363 60.5522 102.889 61.8184 98.2138 61.8184C89.1554 61.8184 83.7333 57.1431 83.7333 47.0132C83.7333 38.3769 88.3761 32.208 96.7203 32.208C104.902 32.208 108.831 37.695 108.831 44.5132C108.831 45.3249 108.733 46.6561 108.571 48.4418H90.3567C90.3567 53.3119 93.4411 56.8184 99.1554 56.8184C102.305 56.8184 104.837 55.6821 105.811 55.195C106.006 55.0976 106.136 55.0327 106.363 55.0327ZM90.4216 44.1236H102.37C102.629 39.5457 100.227 36.9483 96.5904 36.9483C92.7917 36.9483 90.6164 39.708 90.4216 44.1236ZM72.5645 61.2989V43.0846C72.5645 39.8054 71.1684 37.2405 67.8567 37.2405C64.058 37.2405 61.9151 41.3963 61.9151 47.1756V61.2989H55.4541V43.0197C55.4541 40.0327 54.1878 37.2405 50.7463 37.2405C46.9151 37.2405 44.7722 41.3314 44.7722 47.3379V61.2665H38.3112C38.3112 61.2665 38.3112 43.2795 38.3112 40.5197C38.3112 37.8574 38.0839 34.0587 37.9865 32.7924H43.1489C43.7658 32.7924 43.9281 32.9872 43.9606 33.5717C43.9606 34.3509 44.0255 37.1106 44.0255 37.1106H44.1554C44.5774 36.2989 46.6878 32.208 52.5969 32.208C58.1164 32.208 60.2268 36.1691 60.7463 37.3704C61.2658 36.2989 63.7333 32.208 69.2852 32.208C75.0645 32.208 79.0255 35.2924 79.0255 41.5587V61.2665C79.0255 61.2665 72.5645 61.2665 72.5645 61.2989ZM120.259 47.4028V61.2989H113.798C113.798 61.2989 113.798 42.1106 113.798 40.1301C113.798 38.0846 113.538 34.221 113.474 32.7924H118.701C119.253 32.7924 119.415 33.0197 119.415 33.5717C119.448 34.4158 119.48 37.1106 119.48 37.1106H119.642C120.162 35.8769 121.98 32.208 127.337 32.208C129.123 32.208 130.487 32.76 130.681 32.8574C130.681 34.0911 130.551 36.7859 130.487 37.5002C130.454 37.9872 130.259 38.1171 130.032 38.1171C129.805 38.1171 129.707 38.0847 129.577 38.0197C129.155 37.8574 128.246 37.5652 126.948 37.5652C123.474 37.5976 120.259 40.0652 120.259 47.4028ZM134.09 32.8249H140.551V61.2989H134.09V32.8249ZM134.025 22.4028H140.616V28.6366H134.025V22.4028ZM28.5385 61.2989L25.5839 52.8898H9.77225L6.78523 61.2989H0.0644531L14.2203 23.8963H21.7528L35.6813 61.2989H28.5385ZM17.7268 30.7145H17.6294L11.5904 47.8249H23.7982L17.7268 30.7145ZM389.74 60.0002C389.74 59.0262 389.902 56.0717 389.935 55.7795C389.935 55.6496 389.935 55.0327 390.422 55.0327C390.649 55.0327 390.779 55.1301 390.974 55.195C391.883 55.6171 394.188 56.8509 397.5 56.8509C401.558 56.8509 403.928 55.7795 403.928 53.5392C403.928 51.8509 402.889 50.747 399.253 49.5457C398.376 49.2535 396.915 48.7665 396.103 48.5067C392.597 47.3379 389.448 45.2275 389.448 40.5847C389.448 35.8119 393.701 32.208 400.649 32.208C405.194 32.208 408.019 33.6691 408.798 34.0262C408.798 35.6821 408.701 37.4353 408.636 38.3769C408.603 38.8963 408.344 39.0262 408.149 39.0262C407.857 39.0262 407.727 38.8963 407.564 38.8314C406.623 38.3769 404.155 37.1431 401.168 37.1431C397.792 37.1431 396.201 38.4093 396.201 40.1626C396.201 41.8509 397.564 42.9872 400.129 43.8314C401.136 44.1885 402.175 44.5132 403.279 44.8704C407.077 46.1366 410.649 48.247 410.649 53.2795C410.649 58.3769 406.623 61.8184 398.214 61.8184C393.766 61.8184 390.487 60.3574 389.74 60.0002ZM383.084 55.0327C383.441 55.0327 383.571 55.3574 383.571 55.6821C383.701 56.8834 383.798 59.6431 383.798 60.3249C383.084 60.5522 379.61 61.8184 374.967 61.8184C365.909 61.8184 360.454 57.1431 360.454 47.0457C360.454 38.3769 365.129 32.208 373.441 32.208C381.655 32.208 385.551 37.695 385.551 44.5132C385.551 45.3249 385.454 46.6561 385.324 48.4743H367.077C367.077 53.3119 370.194 56.8184 375.876 56.8184C379.025 56.8184 381.525 55.6821 382.532 55.195C382.759 55.1301 382.857 55.0327 383.084 55.0327ZM367.175 44.1236H379.09C379.35 39.5457 376.948 36.9808 373.311 36.9808C369.513 36.9808 367.337 39.708 367.175 44.1236ZM349.285 61.2989V42.8898C349.285 39.3834 347.694 37.2405 344.707 37.2405C340.714 37.2405 338.084 41.4613 338.084 47.1756V61.2989H331.623C331.623 61.2989 331.623 40.9418 331.623 40.3898C331.623 38.0847 331.428 34.708 331.298 32.8249H336.493C337.077 32.8249 337.24 33.0522 337.24 33.6041C337.272 34.1885 337.305 37.1431 337.305 37.1431H337.467C338.246 35.8119 340.227 32.2405 346.168 32.2405C352.305 32.2405 355.746 36.4288 355.746 41.1366V61.2989H349.285ZM290.519 47.4028V61.2989H284.025C284.025 61.2989 284.025 42.1106 284.025 40.1301C284.025 38.0846 283.798 34.221 283.733 32.8249H288.928C289.513 32.8249 289.675 33.0522 289.675 33.6041C289.707 34.4483 289.74 37.1431 289.74 37.1431H289.87C290.389 35.9093 292.24 32.208 297.564 32.208C299.383 32.208 300.714 32.7924 300.909 32.8898C300.909 34.1236 300.779 36.7859 300.714 37.5002C300.649 37.9872 300.454 38.1171 300.259 38.1171C300.032 38.1171 299.935 38.0847 299.805 38.0197C299.415 37.8574 298.474 37.5652 297.142 37.5652C293.766 37.5976 290.519 40.0652 290.519 47.4028ZM304.642 22.4353H311.103V61.2989H304.642V22.4353ZM270.584 32.8249H277.013V61.2989H270.584V32.8249ZM270.487 22.4028H277.11V28.6366H270.487V22.4028ZM318.149 32.8249H324.61V61.2989H318.149V32.8249ZM318.051 22.4028H324.675V28.6691H318.051V22.4028ZM260.779 61.2665L257.824 52.8898H242.013L239.025 61.2665H232.305L246.461 23.8963H253.961L267.889 61.2665H260.779ZM249.967 30.7145H249.87L243.831 47.7924H256.038L249.967 30.7145ZM498.214 76.5911C497.272 76.5911 496.526 75.8444 496.526 74.9028C496.526 73.9613 497.272 73.182 498.214 73.182C499.155 73.182 499.935 73.9613 499.935 74.9028C499.935 75.8444 499.155 76.5911 498.214 76.5911ZM496.85 74.9028C496.85 75.6496 497.467 76.2665 498.214 76.2665C498.993 76.2665 499.61 75.6496 499.61 74.9028C499.61 74.1236 498.993 73.5067 498.214 73.5067C497.467 73.5067 496.85 74.1236 496.85 74.9028ZM498.181 75.0002H498.019V75.7145H497.727V73.9937H498.214C498.603 73.9937 498.831 74.1885 498.831 74.4808C498.831 74.8379 498.539 74.9353 498.506 74.9353L498.928 75.7145H498.571L498.181 75.0002ZM498.149 74.773C498.376 74.773 498.538 74.6756 498.538 74.5132C498.538 74.3184 498.376 74.221 498.149 74.221C498.051 74.221 498.019 74.221 498.019 74.221V74.773C498.019 74.773 498.084 74.773 498.149 74.773Z" fill="#36495A"/>
</g>
<defs>
<linearGradient id="paint0_linear_39_339" x1="471.948" y1="43.4742" x2="471.948" y2="93.182" gradientUnits="userSpaceOnUse">
<stop stop-color="#ED1C24"/>
<stop offset="0.1" stop-color="#E81B23"/>
<stop offset="0.3" stop-color="#DB1A21"/>
<stop offset="0.4" stop-color="#C4171D"/>
<stop offset="0.6" stop-color="#A41317"/>
<stop offset="0.7" stop-color="#7B0E10"/>
<stop offset="0.8" stop-color="#780E0F"/>
</linearGradient>
<linearGradient id="paint1_linear_39_339" x1="449.318" y1="47.63" x2="467.435" y2="47.63" gradientUnits="userSpaceOnUse">
<stop stop-color="#69231D"/>
<stop offset="0.3" stop-color="#8D2922"/>
<stop offset="0.6" stop-color="#B22F26"/>
<stop offset="0.8" stop-color="#C93329"/>
<stop offset="1" stop-color="#D1342A"/>
</linearGradient>
<linearGradient id="paint2_linear_39_339" x1="447.338" y1="44.9675" x2="467.533" y2="32.8246" gradientUnits="userSpaceOnUse">
<stop offset="0.1" stop-color="#E7EBEE"/>
<stop offset="0.4" stop-color="#D5DCE0"/>
<stop offset="0.9" stop-color="#A5B4BB"/>
<stop offset="1" stop-color="#96A7B0"/>
</linearGradient>
<linearGradient id="paint3_linear_39_339" x1="436.201" y1="34.74" x2="436.201" y2="0.389369" gradientUnits="userSpaceOnUse">
<stop stop-color="#1C2F72"/>
<stop offset="0.1" stop-color="#174687"/>
<stop offset="0.4" stop-color="#0D72AF"/>
<stop offset="0.7" stop-color="#0692CC"/>
<stop offset="0.9" stop-color="#02A6DE"/>
<stop offset="1" stop-color="#00ADE4"/>
</linearGradient>
<clipPath id="clip0_39_339">
<rect width="500" height="76.6234" fill="white"/>
</clipPath>
</defs>
</svg>
