<svg width="500" height="82" viewBox="0 0 500 82" fill="none" xmlns="http://www.w3.org/2000/svg">
<path fill-rule="evenodd" clip-rule="evenodd" d="M14.7958 54.9834H42.5375L28.2918 80.0259H1L14.7958 54.9834Z" fill="#EC2227"/>
<path fill-rule="evenodd" clip-rule="evenodd" d="M43.5875 0.999641L88.2741 79.876H57.0835L27.9922 28.8913L43.5875 0.999641Z" fill="black"/>
<path fill-rule="evenodd" clip-rule="evenodd" d="M88.124 7.89844H123.064L139.109 43.7377L155.604 7.89844H190.993V79.8768H165.201V47.1867L150.055 80.1768H128.762L114.066 47.1867V79.8768H88.124V7.89844Z" fill="black"/>
<path fill-rule="evenodd" clip-rule="evenodd" d="M198.94 7.74761H264.021V27.0918H225.033V32.1903H264.021V50.6347H225.033V59.4821H264.021V79.876H198.94V7.74761Z" fill="black"/>
<path fill-rule="evenodd" clip-rule="evenodd" d="M349.495 7.89757H414.876V27.0918H375.737V32.1903H414.876V50.7847H375.737V59.6321H414.876V79.876H349.495V7.89757Z" fill="black"/>
<path fill-rule="evenodd" clip-rule="evenodd" d="M268.67 7.74815H344.547V26.9424H319.505V79.7266H293.412V26.9424H268.67V7.74815Z" fill="black"/>
<path fill-rule="evenodd" clip-rule="evenodd" d="M422.073 7.74815H449.215V27.5422L466.91 7.74815H496.001L470.059 36.5395L499 79.7266H466.31L452.214 55.7338L449.215 59.4826V79.7266H422.073V7.74815Z" fill="black"/>
</svg>
