<svg width="500" height="227" viewBox="0 0 500 227" fill="none" xmlns="http://www.w3.org/2000/svg">
<g clip-path="url(#clip0_39_338)">
<mask id="mask0_39_338" style="mask-type:luminance" maskUnits="userSpaceOnUse" x="-22" y="-104" width="695" height="435">
<path d="M-21.333 330.143H672.394V-103.031H-21.333V330.143Z" fill="white"/>
</mask>
<g mask="url(#mask0_39_338)">
<mask id="mask1_39_338" style="mask-type:luminance" maskUnits="userSpaceOnUse" x="0" y="0" width="501" height="227">
<path d="M0 226.94H500.001V-0.000488281H0V226.94Z" fill="white"/>
</mask>
<g mask="url(#mask1_39_338)">
<path d="M436.918 207.167V201.86H440.814C443.407 201.86 444.108 202.66 444.108 204.212C444.108 205.8 443.407 207.081 440.353 207.167H436.918ZM439.652 210.405C440.771 210.504 441.849 210.405 442.662 211.255C443.592 212.24 443.591 213.889 443.825 215.675C443.973 216.894 444.299 218.211 444.533 219.381H448.67C447.962 217.509 447.728 215.343 447.445 213.373C447.113 211.119 446.792 209.851 443.924 209.285V209.186C446.7 208.62 448.153 206.748 448.153 204.347C448.153 199.657 444.2 198.622 440.402 198.622H433.679V219.381H436.918V210.405H439.652ZM440.68 226.94C450.462 226.94 458.298 219.061 458.298 209.235C458.298 199.508 450.462 191.617 440.68 191.617C430.86 191.617 422.968 199.508 422.968 209.235C422.968 219.061 430.86 226.94 440.68 226.94ZM440.68 223.85C432.602 223.85 426.077 217.313 426.077 209.235C426.077 201.257 432.602 194.719 440.68 194.719C448.72 194.719 455.208 201.257 455.208 209.235C455.208 217.313 448.72 223.85 440.68 223.85Z" fill="#EE2722"/>
<path d="M410.816 48.6425H382.443V76.9854H410.816C417.55 76.9854 422.968 82.4705 422.968 89.1652C422.968 95.9066 417.55 101.324 410.816 101.324H382.443V129.691H410.816C433.206 129.691 451.343 111.537 451.343 89.1652C451.343 66.7876 433.206 48.6425 410.816 48.6425ZM249.119 198.622C283.082 198.622 312.354 178.731 326.028 149.945H362.195V198.622H382.443V149.945H410.816C444.411 149.945 471.627 122.729 471.627 89.1652C471.627 55.5931 444.411 28.3671 410.816 28.3671H362.195V101.324H333.34C327.456 60.0929 291.99 28.3671 249.119 28.3671H149.339L50.0866 198.622H73.7636L102.131 149.945H204.129V198.622H249.119ZM500 89.1652C500 138.403 460.065 178.313 410.816 178.313V226.94H333.833V189.006C313.007 212.289 282.799 226.94 249.119 226.94H175.756V178.313H118.417L90.0497 226.94H0L132.364 -0.000488281H249.119C282.799 -0.000488281 313.007 14.6915 333.833 37.9769V-0.000488281H410.816C460.065 -0.000488281 500 39.9411 500 89.1652ZM175.756 48.6425V101.324H130.499L113.969 129.691H204.129V48.6425H175.756ZM313.98 113.47C313.98 149.286 284.929 178.313 249.119 178.313H224.388V149.945H249.119C269.28 149.945 285.618 133.637 285.618 113.47C285.618 93.3454 269.28 76.9854 249.119 76.9854H224.388V48.6425H249.119C284.929 48.6425 313.98 77.6688 313.98 113.47Z" fill="#EE2722"/>
<path d="M410.816 48.6425H382.443V76.9854H410.816C417.55 76.9854 422.968 82.4705 422.968 89.1652C422.968 95.9066 417.55 101.324 410.816 101.324H382.443V129.691H410.816C433.206 129.691 451.343 111.537 451.343 89.1652C451.343 66.7876 433.206 48.6425 410.816 48.6425ZM249.119 198.622C283.082 198.622 312.354 178.731 326.028 149.945H362.195V198.622H382.443V149.945H410.816C444.411 149.945 471.627 122.729 471.627 89.1652C471.627 55.5931 444.411 28.3671 410.816 28.3671H362.195V101.324H333.34C327.456 60.0929 291.99 28.3671 249.119 28.3671H149.339L50.0866 198.622H73.7636L102.131 149.945H204.129V198.622H249.119ZM500 89.1652C500 138.403 460.065 178.313 410.816 178.313V226.94H333.833V189.006C313.007 212.289 282.799 226.94 249.119 226.94H175.756V178.313H118.417L90.0497 226.94H0L132.364 -0.000488281H249.119C282.799 -0.000488281 313.007 14.6915 333.833 37.9769V-0.000488281H410.816C460.065 -0.000488281 500 39.9411 500 89.1652ZM175.756 48.6425V101.324H130.499L113.969 129.691H204.129V48.6425H175.756ZM313.98 113.47C313.98 149.286 284.929 178.313 249.119 178.313H224.388V149.945H249.119C269.28 149.945 285.618 133.637 285.618 113.47C285.618 93.3454 269.28 76.9854 249.119 76.9854H224.388V48.6425H249.119C284.929 48.6425 313.98 77.6688 313.98 113.47Z" fill="#EE2722"/>
<path d="M410.816 48.6425H382.443V76.9854H410.816C417.55 76.9854 422.968 82.4705 422.968 89.1652C422.968 95.9066 417.55 101.324 410.816 101.324H382.443V129.691H410.816C433.206 129.691 451.343 111.537 451.343 89.1652C451.343 66.7876 433.206 48.6425 410.816 48.6425ZM249.119 198.622C283.082 198.622 312.354 178.731 326.028 149.945H362.195V198.622H382.443V149.945H410.816C444.411 149.945 471.627 122.729 471.627 89.1652C471.627 55.5931 444.411 28.3671 410.816 28.3671H362.195V101.324H333.34C327.456 60.0929 291.99 28.3671 249.119 28.3671H149.339L50.0866 198.622H73.7636L102.131 149.945H204.129V198.622H249.119ZM500 89.1652C500 138.403 460.065 178.313 410.816 178.313V226.94H333.833V189.006C313.007 212.289 282.799 226.94 249.119 226.94H175.756V178.313H118.417L90.0497 226.94H0L132.364 -0.000488281H249.119C282.799 -0.000488281 313.007 14.6915 333.833 37.9769V-0.000488281H410.816C460.065 -0.000488281 500 39.9411 500 89.1652ZM175.756 48.6425V101.324H130.499L113.969 129.691H204.129V48.6425H175.756ZM313.98 113.47C313.98 149.286 284.929 178.313 249.119 178.313H224.388V149.945H249.119C269.28 149.945 285.618 133.637 285.618 113.47C285.618 93.3454 269.28 76.9854 249.119 76.9854H224.388V48.6425H249.119C284.929 48.6425 313.98 77.6688 313.98 113.47Z" fill="#EE2722"/>
</g>
</g>
</g>
<defs>
<clipPath id="clip0_39_338">
<rect width="500" height="226.941" fill="white"/>
</clipPath>
</defs>
</svg>
