<svg width="500" height="99" viewBox="0 0 500 99" fill="none" xmlns="http://www.w3.org/2000/svg">
<g clip-path="url(#clip0_39_341)">
<path d="M101.548 78.3268C101.877 78.6562 102.437 78.261 102.24 77.8328L64.6902 12.9447L57.5756 0.691783C57.312 0.131836 56.818 0.131836 56.5545 0.131836C56.258 0.131836 55.8628 0.263588 55.6322 0.823536L45.4873 34.9474C43.8733 40.3163 47.8259 45.6523 53.4254 45.6523H63.6362C69.565 45.6523 75.1974 48.2544 79.1171 52.701L101.548 78.3268ZM38.4385 37.1872L46.3766 10.672C46.5413 10.1779 45.8825 9.88151 45.619 10.3097L0.131544 89.0317C-0.131961 89.5916 0.0656675 90.0198 0.296234 90.2833C0.493862 90.5798 0.922057 90.8433 1.54788 90.5798L1.67963 90.5139L41.9958 75.6918C46.8048 73.8802 48.8799 68.2148 46.3107 63.7023L40.316 53.261C37.4833 48.3861 36.7916 42.5561 38.4385 37.1872ZM94.8614 96.5086H106.917C107.444 96.5086 107.74 96.0805 107.872 95.8499C107.938 95.6523 108.07 95.1582 107.74 94.7629L77.3713 59.9474C73.6164 55.6325 66.7982 56.3242 63.9326 61.2649L58.1684 71.2781C55.731 75.4612 51.9431 78.5903 47.4306 80.2702L5.17107 95.7181C4.74287 95.8499 4.80875 96.5086 5.30282 96.5086H94.8614Z" fill="black"/>
<path fill-rule="evenodd" clip-rule="evenodd" d="M180.006 9.55178L218.445 96.0801H208.564L194.038 63.4055L190.876 70.5202C190.448 71.5083 189.493 72.1341 188.373 72.1341H147.068L136.429 96.0801H126.548L164.987 9.55178C166.238 6.48854 169.236 4.51225 172.496 4.51225C175.823 4.51225 178.755 6.48854 180.006 9.55178ZM194.301 62.7797H193.774L194.038 63.4055L194.301 62.7797ZM193.742 62.7797L173.188 16.5346C172.925 15.9088 172.002 15.9088 171.739 16.5346L151.186 62.7797H193.742ZM354.282 98.1223C327.141 98.1223 305.204 76.1855 305.204 49.0445C305.204 21.9036 327.141 -0.0332031 354.282 -0.0332031C381.456 -0.0332031 403.392 21.9036 403.392 49.0445C403.392 76.1855 381.456 98.1223 354.282 98.1223ZM394.466 49.0445C394.466 26.8113 376.515 8.82714 354.249 8.82714C332.016 8.82714 314.031 26.8113 314.031 49.0445C314.031 71.3107 332.016 89.2949 354.249 89.2949C376.515 89.2949 394.466 71.3107 394.466 49.0445ZM271.772 48.0893C271.344 48.7151 271.344 49.4727 271.772 50.0986L302.635 95.9813H291.897L264.394 55.1051C263.834 54.2817 262.516 54.2817 261.956 55.1051L234.453 95.9813H223.715L254.644 50.0986C255.072 49.4727 255.072 48.7151 254.644 48.0893L223.715 2.20659H234.453L262.022 43.1486C262.582 43.9721 263.9 43.9721 264.46 43.1486L291.963 2.20659H302.701L271.772 48.0893ZM499.967 2.20659V95.9154H490.909L426.91 11.1328V95.9154H418.083V10.6387C418.083 6.19209 421.344 2.33834 425.659 1.84427C428.656 1.51489 431.587 2.70066 433.465 5.0722L491.139 81.4227V2.20659H499.967Z" fill="black"/>
</g>
<defs>
<clipPath id="clip0_39_341">
<rect width="500" height="98.1555" fill="white"/>
</clipPath>
</defs>
</svg>
