<svg width="500" height="108" viewBox="0 0 500 108" fill="none" xmlns="http://www.w3.org/2000/svg">
<g clip-path="url(#clip0_39_334)">
<path d="M141.369 82.4408H123.81V29.0182H141.667C151.488 29.0182 160.119 32.292 160.119 42.4111C160.119 49.2563 156.399 53.1254 150.595 54.7623V54.9111C156.994 55.8039 162.351 60.1194 162.351 67.7087C162.351 78.5718 153.571 82.4408 141.369 82.4408ZM140.476 37.6492H133.929V51.042H140.179C146.28 51.042 148.958 48.8099 148.958 44.1968C148.958 39.5837 146.131 37.6492 140.476 37.6492ZM140.327 59.0777H133.929V73.8099H139.881C146.429 73.8099 149.851 71.8754 149.851 66.667C149.851 61.6075 146.875 59.0777 140.327 59.0777ZM194.048 43.4527C193.155 43.0063 191.667 42.4111 188.691 42.4111C183.78 42.4111 180.506 45.8337 178.869 48.6611V43.3039H168.155V82.4408H178.869V57.7385C179.762 55.9528 182.589 51.7861 187.351 51.7861C189.583 51.7861 190.774 52.2325 191.518 52.6789L194.048 43.4527ZM213.095 83.3337C199.405 83.3337 193.452 72.917 193.452 62.9468C193.452 52.9766 199.256 42.2623 212.946 42.2623C226.637 42.2623 232.738 52.5301 232.738 62.6492C232.887 72.6194 226.786 83.3337 213.095 83.3337ZM212.946 50.298C206.994 50.298 204.911 55.3575 204.911 62.6492C204.911 69.9408 207.292 75.298 213.393 75.298C219.494 75.298 221.726 70.3873 221.726 62.9468C221.577 55.6551 219.048 50.298 212.946 50.298ZM259.077 82.4408C258.78 81.548 258.482 79.4647 258.482 78.2742C256.696 80.3575 252.976 83.3337 247.47 83.3337C240.774 83.3337 235.714 79.3158 235.714 72.3218C235.714 62.0539 246.28 58.4825 256.548 58.4825H257.887V56.2504C257.887 52.8278 256.548 50.7444 251.488 50.7444C246.429 50.7444 243.006 53.423 241.518 54.4647L236.905 47.917C239.286 45.8337 244.345 42.2623 252.679 42.2623C263.393 42.2623 268.452 46.4289 268.452 56.6968V70.6849C268.452 76.042 269.048 79.7623 269.494 82.292L259.077 82.4408ZM256.845 65.0301H255.506C249.256 65.0301 244.941 66.8158 244.941 71.4289C244.941 74.2563 247.321 75.4468 249.702 75.4468C253.571 75.4468 255.804 73.2147 256.994 72.0242L256.845 65.0301ZM291.518 42.4111C296.28 42.4111 299.107 44.048 300.595 45.0897V24.8516H311.31V71.2801C311.31 76.3397 311.905 80.2087 312.5 82.4408H301.935C301.637 81.548 301.191 79.4647 301.191 78.1254C298.81 80.9528 295.387 83.4825 290.179 83.4825C280.357 83.4825 274.107 76.042 274.107 62.9468C274.107 50.4468 281.548 42.4111 291.518 42.4111ZM293.304 74.8516C297.173 74.8516 299.702 72.173 300.595 70.8337V53.2742C299.256 52.0837 297.173 50.7444 293.75 50.7444C288.244 50.7444 285.268 55.3575 285.268 63.0956C285.417 70.5361 287.946 74.8516 293.304 74.8516ZM345.238 43.4527C344.345 43.0063 342.857 42.4111 339.881 42.4111C334.97 42.4111 331.696 45.8337 330.06 48.6611V43.3039H319.345V82.4408H330.06V57.7385C330.952 55.9528 333.78 51.7861 338.542 51.7861C340.774 51.7861 341.964 52.2325 342.708 52.6789L345.238 43.4527ZM354.762 38.2444C358.333 38.2444 360.863 35.417 360.863 32.292C360.863 29.167 358.185 26.4885 354.762 26.4885C351.339 26.4885 348.661 29.167 348.661 32.292C348.661 35.5658 351.191 38.2444 354.762 38.2444ZM349.405 82.4408H360.119V43.3039H349.405V82.4408ZM383.631 42.4111C388.393 42.4111 391.22 44.048 392.708 45.0897V24.8516H403.423V71.2801C403.423 76.3397 404.018 80.2087 404.613 82.4408H394.048C393.75 81.548 393.304 79.4647 393.304 78.1254C390.923 80.9528 387.5 83.4825 382.292 83.4825C372.47 83.4825 366.22 76.042 366.22 62.9468C366.072 50.4468 373.512 42.4111 383.631 42.4111ZM385.268 74.8516C389.137 74.8516 391.667 72.173 392.56 70.8337V53.2742C391.22 52.0837 389.137 50.7444 385.714 50.7444C380.208 50.7444 377.232 55.3575 377.232 63.0956C377.381 70.5361 379.911 74.8516 385.268 74.8516ZM447.322 42.4111V50.298H442.113C443.155 52.0837 443.601 54.3158 443.601 56.548C443.601 64.8813 437.649 70.6849 426.786 70.6849C425.149 70.6849 423.512 70.5361 422.173 70.2385C421.577 70.6849 420.685 71.4289 420.685 72.6194C420.685 74.7028 422.917 75.1492 428.572 75.4468C436.607 75.8932 447.024 75.8932 447.024 87.5004C447.024 95.8337 438.393 101.637 425.595 101.637C414.881 101.637 408.333 98.2147 408.333 91.2206C408.333 86.9051 411.012 83.7801 414.881 81.6968C412.649 80.3575 411.458 78.5718 411.458 75.7444C411.458 72.0242 413.542 69.792 415.923 68.3039C411.458 65.7742 408.929 61.7563 408.929 56.548C408.929 48.0658 415.476 42.4111 426.339 42.4111C428.72 42.4111 447.322 42.4111 447.322 42.4111ZM417.411 89.1373C417.411 92.2623 419.643 94.4944 425 94.4944C431.548 94.4944 435.119 91.9647 435.119 88.6908C435.119 84.5242 431.399 84.673 425.744 84.2266C423.958 84.0778 422.173 83.9289 420.387 83.6313C418.452 85.1194 417.411 86.9051 417.411 89.1373ZM433.333 56.548C433.333 51.9349 430.655 49.2563 426.191 49.2563C421.726 49.2563 419.048 51.9349 419.048 56.548C419.048 61.0123 421.726 63.8397 426.191 63.8397C430.655 63.8397 433.333 61.0123 433.333 56.548ZM470.685 75.4468C476.042 75.4468 479.018 73.6611 480.952 72.7682L484.375 79.6135C481.845 81.1016 477.827 83.3337 469.792 83.3337C456.697 83.3337 449.256 75.0004 449.256 62.6492C449.256 50.298 457.738 42.2623 468.601 42.2623C480.804 42.2623 486.756 50.7444 485.417 65.1789H460.566C461.012 71.4289 464.137 75.4468 470.685 75.4468ZM475.149 58.1849C475 53.7206 473.363 50.1492 468.452 50.1492C463.988 50.1492 461.458 52.9766 460.714 58.1849H475.149ZM494.494 53.423C491.518 53.423 488.988 51.042 488.988 47.917C488.988 44.792 491.369 42.4111 494.494 42.4111C497.47 42.4111 500 44.792 500 47.917C500 51.042 497.47 53.423 494.494 53.423ZM494.494 43.3039C491.816 43.3039 489.881 45.2385 489.881 47.917C489.881 50.5956 491.816 52.5301 494.494 52.5301C497.173 52.5301 499.107 50.5956 499.107 47.917C499.107 45.2385 497.173 43.3039 494.494 43.3039ZM495.982 51.1908L494.494 48.9587C494.196 48.5123 494.048 48.3635 493.452 48.3635V51.3397H492.56V44.6432H494.792C496.131 44.6432 496.875 45.5361 496.875 46.4289C496.875 47.4706 496.28 47.917 495.238 48.0659C495.536 48.2147 495.685 48.5123 495.982 48.9587L497.47 51.042L495.982 51.1908ZM494.494 45.5361H493.601V47.4706H494.197C494.941 47.4706 495.685 47.3218 495.685 46.4289C495.685 45.9825 495.387 45.5361 494.494 45.5361Z" fill="#001F5A"/>
<path d="M0 0V107.143H96.5774V0H0ZM92.4107 4.01786V53.5714H4.01786V12.6488H4.16667C4.31547 12.6488 22.3214 12.2024 34.2262 23.6607C38.8393 28.125 42.1131 33.9286 43.75 40.9226C38.9881 35.5655 30.2083 30.8036 15.3274 30.8036V34.8214C44.3452 34.8214 45.2381 53.2738 45.2381 53.4226H51.4881C51.4881 40.625 56.3988 31.6964 66.0714 26.6369C73.3631 22.9167 80.6548 22.7679 81.5476 22.7679V16.5179C80.506 16.5179 71.875 16.6667 63.244 21.131C58.1845 23.8095 52.5298 28.2738 48.9583 35.7143C46.875 29.1667 43.4524 23.5119 38.6905 18.8988C25.1488 5.95238 6.10119 6.10119 4.31548 6.10119V3.72024C4.01786 4.01786 92.4107 4.01786 92.4107 4.01786Z" fill="#001F5A"/>
<path d="M92.4108 100.744C90.6251 100.744 71.4287 101.042 58.0359 87.9467C53.2739 83.3336 49.8513 77.8276 47.768 71.1312C44.1966 78.7205 38.5418 83.1848 33.4823 85.7145C24.8513 90.1788 16.2204 90.3276 15.1787 90.3276V84.0776C15.9228 84.0776 23.3632 83.9288 30.6549 80.2086C40.3275 75.149 45.2382 66.2205 45.2382 53.4229H51.4882C51.4882 53.5717 52.2323 72.024 81.3989 72.024V76.0419C66.3692 76.0419 57.7382 71.28 52.9763 65.9229C54.6132 72.9169 57.887 78.7205 62.5001 83.1848C74.4049 94.7919 92.4108 94.1967 92.5597 94.1967H92.7085C92.4109 94.6431 92.4108 100.744 92.4108 100.744Z" fill="white"/>
</g>
<defs>
<clipPath id="clip0_39_334">
<rect width="500" height="107.143" fill="white"/>
</clipPath>
</defs>
</svg>
