<svg width="500" height="113" viewBox="0 0 500 113" fill="none" xmlns="http://www.w3.org/2000/svg">
<g clip-path="url(#clip0_39_342)">
<path fill-rule="evenodd" clip-rule="evenodd" d="M97.3167 28.0303V84.0278L48.8003 112.027L0.31543 84.0278V28.0303L48.8003 0L97.3167 28.0303ZM92.5187 30.7765L48.8318 5.52399L5.08184 30.7765V81.2816L48.8318 106.566L92.5187 81.2816V30.7765Z" fill="#00A3E0"/>
<path d="M35.9848 26.673L46.4014 20.644V45.7387L48.8004 47.096L51.1678 45.7387V20.644L61.6161 26.673L63.9835 22.5379L48.8004 13.7627L33.6173 22.5379L35.9848 26.673ZM29.7979 81.7867L19.3812 75.7576L41.0984 63.2261V60.4799L38.6994 59.091L16.9822 71.6225V59.596H12.2158V77.1465L27.4305 85.9218L29.7979 81.7867ZM67.8029 30.24L78.2196 36.269L48.8004 53.2513L19.3812 36.269L29.7979 30.24L27.4305 26.1049L12.2158 34.8801V52.4306H16.9822V40.4041L46.4014 57.3864V91.3826L35.9848 85.3536L33.6173 89.4887L48.8004 98.264L63.9835 89.4887L61.6161 85.3536L51.1678 91.3826V57.3864L80.6186 40.4041V52.4306H85.385V34.8801L70.1704 26.1049L67.8029 30.24ZM80.6186 59.596V71.6225L58.9014 59.091L56.5024 60.4483V63.2261L78.2196 75.7576L67.8029 81.7867L70.1704 85.9218L85.385 77.1465V59.596H80.6186Z" fill="#00A3E0"/>
<path fill-rule="evenodd" clip-rule="evenodd" d="M93.1504 90.6885H94.4761C95.2968 90.6885 95.7072 91.0252 95.7072 91.6986C95.7072 91.7617 95.6967 91.8248 95.6756 91.888C95.6756 91.9511 95.6651 92.0142 95.6441 92.0774C95.623 92.1405 95.5915 92.2036 95.5494 92.2668C95.5073 92.3088 95.4652 92.3509 95.4231 92.393C95.381 92.4351 95.3389 92.4667 95.2969 92.4877C95.2337 92.5298 95.1811 92.5614 95.139 92.5824C95.0759 92.6035 95.0128 92.6245 94.9496 92.6456C94.9075 92.6456 94.8549 92.6561 94.7918 92.6771L95.8019 94.2238H95.2337L94.2868 92.7087H93.687V94.2238H93.182L93.1504 90.6885ZM93.6554 92.2352H94.5708C94.5919 92.2352 94.6129 92.2352 94.634 92.2352C94.6761 92.2352 94.7076 92.2352 94.7287 92.2352C94.7497 92.2142 94.7708 92.2036 94.7918 92.2036C94.8128 92.2036 94.8339 92.1931 94.8549 92.1721C94.876 92.1721 94.897 92.1615 94.9181 92.1405C94.9391 92.1405 94.9602 92.13 94.9812 92.1089C95.0022 92.0879 95.0233 92.0668 95.0443 92.0458C95.0443 92.0458 95.0549 92.0353 95.0759 92.0142C95.0969 91.9722 95.1075 91.9406 95.1075 91.9195C95.1285 91.8985 95.139 91.8775 95.139 91.8564C95.139 91.8143 95.139 91.7828 95.139 91.7617C95.1601 91.7196 95.1601 91.6881 95.139 91.667C95.1601 91.646 95.1601 91.6249 95.139 91.6039C95.139 91.5828 95.139 91.5513 95.139 91.5092C95.139 91.4881 95.1285 91.4671 95.1075 91.4461C95.1075 91.425 95.0969 91.404 95.0759 91.3829C95.0759 91.3619 95.0654 91.3408 95.0443 91.3198C95.0233 91.3198 95.0128 91.3093 95.0128 91.2882C94.9917 91.2672 94.9707 91.2567 94.9496 91.2567C94.9286 91.2356 94.9075 91.2251 94.8865 91.2251C94.8655 91.2041 94.8444 91.1935 94.8234 91.1935C94.8023 91.1935 94.7813 91.183 94.7602 91.162C94.7392 91.162 94.7181 91.162 94.6971 91.162C94.6761 91.162 94.655 91.162 94.634 91.162C94.6129 91.1409 94.5919 91.1304 94.5708 91.1304C94.5498 91.1304 94.5288 91.1304 94.5077 91.1304C94.4867 91.1304 94.4656 91.1304 94.4446 91.1304C94.4235 91.1304 94.4025 91.1409 94.3814 91.162H93.6554V92.2352Z" fill="#00A3E0"/>
<path fill-rule="evenodd" clip-rule="evenodd" d="M94.2871 96.0229C92.835 96.0229 91.5408 95.1391 91.0042 93.8133C90.436 92.4876 90.7517 90.9408 91.7618 89.9307C92.8035 88.9206 94.3186 88.605 95.6444 89.1732C97.0017 89.7098 97.854 91.004 97.854 92.456C97.854 92.9295 97.7593 93.403 97.5699 93.8133C97.412 94.2552 97.128 94.634 96.8123 94.9812C96.4651 95.2969 96.0863 95.581 95.6444 95.7388C95.2025 95.9282 94.7605 96.0229 94.2871 96.0229ZM94.2871 89.4888C93.0876 89.4888 92.0143 90.2148 91.5408 91.3196C91.0989 92.4244 91.3514 93.7186 92.2037 94.5709C93.056 95.3916 94.3186 95.6441 95.4234 95.2022C96.5282 94.7287 97.2542 93.6555 97.2542 92.456C97.2542 92.0772 97.1911 91.6984 97.0333 91.3196C96.8754 90.9724 96.6545 90.6252 96.3704 90.3727C96.1179 90.0886 95.7706 89.8676 95.4234 89.7098C95.0762 89.5835 94.6658 89.4888 94.2871 89.4888Z" fill="#00A3E0"/>
<path fill-rule="evenodd" clip-rule="evenodd" d="M150.726 70.2655C149.021 72.5382 146.117 75.6316 142.519 75.6316H134.438C134.08 75.6316 133.733 75.6001 133.396 75.5369C133.039 75.4738 132.692 75.4001 132.355 75.316C132.018 75.2107 131.692 75.0845 131.376 74.9372C131.04 74.8109 130.724 74.6531 130.429 74.4637C129.987 74.148 129.545 73.8113 129.104 73.4536C128.683 73.0958 128.283 72.7276 127.904 72.3488C127.504 71.97 127.115 71.5702 126.736 71.1493C126.378 70.7495 126.031 70.3286 125.694 69.8867C125.526 69.6131 125.379 69.329 125.253 69.0344C125.126 68.7398 125.011 68.4347 124.905 68.119C124.821 67.8033 124.758 67.4877 124.716 67.172C124.674 66.8353 124.663 66.5091 124.684 66.1935V45.8336C124.663 45.518 124.674 45.2023 124.716 44.8867C124.758 44.571 124.821 44.2554 124.905 43.9397C125.011 43.6451 125.126 43.3505 125.253 43.0559C125.379 42.7612 125.526 42.4772 125.694 42.2036C126.484 41.0988 129.072 38.321 130.429 37.5634C130.724 37.374 131.04 37.2162 131.376 37.09C131.692 36.9426 132.018 36.8269 132.355 36.7427C132.692 36.6375 133.039 36.5533 133.396 36.4902C133.733 36.4481 134.08 36.4166 134.438 36.3955H142.519C146.117 36.3955 149.021 39.5836 150.726 41.7617C150.852 41.93 150.968 42.1089 151.073 42.2983C151.2 42.4877 151.315 42.6771 151.42 42.8665C151.547 43.0559 151.662 43.2453 151.768 43.4347C151.873 43.624 151.978 43.824 152.083 44.0344L145.486 45.8968C145.486 45.8968 143.561 43.4978 142.582 42.9296C142.561 42.9086 142.54 42.898 142.519 42.898C142.498 42.877 142.477 42.8665 142.456 42.8665C142.435 42.8665 142.414 42.8665 142.393 42.8665C142.372 42.8665 142.351 42.8665 142.33 42.8665H134.691C134.67 42.8665 134.649 42.8665 134.628 42.8665C134.606 42.8665 134.585 42.8665 134.564 42.8665C134.543 42.8665 134.522 42.877 134.501 42.898C134.48 42.898 134.459 42.9086 134.438 42.9296C134.144 43.0979 133.859 43.2979 133.586 43.5293C133.333 43.7398 133.081 43.9607 132.828 44.1922C132.597 44.4237 132.365 44.6762 132.134 44.9498C131.923 45.2023 131.723 45.4759 131.534 45.7705C131.513 45.8336 131.503 45.8862 131.503 45.9283C131.481 45.9915 131.471 46.0546 131.471 46.1177C131.471 46.1809 131.471 46.244 131.471 46.3071C131.45 46.3703 131.45 46.4229 131.471 46.465V66.1304C131.471 66.9195 133.46 68.5925 134.438 69.0975C134.501 69.1607 134.817 69.1607 134.88 69.1607H142.235C142.277 69.1607 142.309 69.1607 142.33 69.1607C142.351 69.1607 142.382 69.1607 142.424 69.1607C142.445 69.1607 142.466 69.1501 142.487 69.1291C142.529 69.1291 142.561 69.1186 142.582 69.0975C143.939 68.4662 145.486 66.0672 145.486 66.0672L152.083 67.8033C151.978 68.0138 151.883 68.2347 151.799 68.4662C151.694 68.6767 151.578 68.8766 151.452 69.066C151.347 69.2764 151.231 69.4868 151.105 69.6973C150.979 69.8867 150.852 70.0761 150.726 70.2655ZM158.018 67.172H165.972V75.316H158.018V67.172ZM193.624 75.316V59.3437H179.545V75.316H172.759V36.648H179.545V52.8728H193.624V36.648H200.41V75.316H193.624ZM207.165 67.172H215.12V75.316H207.165V67.172ZM262.879 55.2086C262.626 55.5243 262.363 55.84 262.09 56.1556C261.816 56.4502 261.532 56.7448 261.237 57.0394C260.943 57.3341 260.638 57.6181 260.322 57.8917C260.027 58.1653 259.722 58.4283 259.407 58.6809C259.28 58.765 259.144 58.8492 258.996 58.9334C258.87 59.0176 258.733 59.1017 258.586 59.1859C258.46 59.2701 258.323 59.3437 258.176 59.4069C258.028 59.47 257.87 59.5226 257.702 59.5647L265.372 75.3475H258.018L250.852 60.1013H243.434V75.3475H236.648V36.648H254.798C255.198 36.648 255.608 36.6796 256.029 36.7427C256.429 36.8059 256.818 36.9006 257.197 37.0268C257.597 37.1531 257.976 37.3004 258.333 37.4687C258.712 37.6581 259.07 37.858 259.407 38.0685C259.722 38.3421 260.038 38.6156 260.354 38.8892C260.648 39.1838 260.943 39.4784 261.237 39.773C261.532 40.0676 261.816 40.3728 262.09 40.6884C262.363 40.983 262.626 41.2987 262.879 41.6354C263.068 41.93 263.237 42.2352 263.384 42.5508C263.531 42.8665 263.657 43.1926 263.763 43.5293C263.847 43.866 263.92 44.2027 263.984 44.5394C264.026 44.8761 264.047 45.2234 264.047 45.5811V51.2629C264.047 51.6207 264.026 51.9679 263.984 52.3046C263.941 52.6413 263.868 52.978 263.763 53.3147C263.657 53.6514 263.531 53.9776 263.384 54.2932C263.237 54.6089 263.068 54.914 262.879 55.2086ZM257.26 45.6442C257.26 45.6022 257.26 45.5601 257.26 45.518C257.26 45.4759 257.25 45.4338 257.229 45.3917C257.229 45.3707 257.229 45.3391 257.229 45.297C257.208 45.2549 257.197 45.2128 257.197 45.1708C256.818 44.4763 255.777 43.1821 255.114 43.119H243.434V53.5672H254.798C255.366 53.5672 256.692 52.3362 257.197 51.4523C257.197 51.4313 257.208 51.4102 257.229 51.3892C257.229 51.3682 257.229 51.3471 257.229 51.3261C257.25 51.305 257.26 51.284 257.26 51.2629C257.26 51.2419 257.26 51.2208 257.26 51.1998V45.6442ZM299.968 69.8235C299.116 70.9283 296.622 73.7061 295.234 74.4637C294.939 74.6531 294.634 74.8109 294.318 74.9372C293.981 75.0845 293.645 75.2107 293.308 75.316C292.971 75.4001 292.635 75.4738 292.298 75.5369C291.94 75.6001 291.582 75.6316 291.225 75.6316H281.439C281.082 75.6316 280.724 75.6001 280.366 75.5369C280.029 75.4948 279.693 75.4212 279.356 75.316C279.019 75.2107 278.683 75.095 278.346 74.9687C278.03 74.8214 277.725 74.6531 277.431 74.4637C276.073 73.7061 273.485 70.9283 272.696 69.8235C272.527 69.55 272.38 69.2659 272.254 68.9713C272.106 68.6767 271.991 68.3715 271.907 68.0559C271.822 67.7402 271.759 67.4245 271.717 67.1089C271.675 66.7932 271.654 66.4671 271.654 66.1304V45.8968C271.654 45.5811 271.675 45.2549 271.717 44.9182C271.759 44.6026 271.822 44.2869 271.907 43.9713C271.991 43.6556 272.106 43.3505 272.254 43.0559C272.38 42.7612 272.527 42.4772 272.696 42.2036C273.485 41.1304 276.073 38.3526 277.431 37.5634C277.725 37.374 278.03 37.2162 278.346 37.09C278.683 36.9426 279.019 36.8164 279.356 36.7112C279.693 36.627 280.029 36.5533 280.366 36.4902C280.724 36.4271 281.082 36.3955 281.439 36.3955H291.225C291.582 36.4166 291.94 36.4481 292.298 36.4902C292.635 36.5533 292.971 36.627 293.308 36.7112C293.645 36.8164 293.981 36.9426 294.318 37.09C294.634 37.2162 294.939 37.374 295.234 37.5634C296.622 38.3526 299.116 41.1304 299.968 42.2036C300.137 42.4772 300.295 42.7612 300.442 43.0559C300.568 43.3505 300.673 43.6556 300.758 43.9713C300.842 44.2869 300.905 44.6026 300.947 44.9182C300.989 45.2549 301.01 45.5811 301.01 45.8968V66.1304C301.01 66.4671 300.989 66.7932 300.947 67.1089C300.905 67.4245 300.842 67.7402 300.758 68.0559C300.673 68.3715 300.568 68.6767 300.442 68.9713C300.295 69.2659 300.137 69.55 299.968 69.8235ZM278.441 66.0672C278.441 66.0672 278.441 66.2566 278.504 66.3198C278.693 66.5933 278.904 66.8564 279.135 67.1089C279.346 67.3825 279.567 67.635 279.798 67.8665C280.029 68.0979 280.282 68.3189 280.556 68.5293C280.808 68.7398 281.071 68.9292 281.345 69.0975C281.387 69.1186 281.418 69.1291 281.439 69.1291C281.46 69.1501 281.481 69.1607 281.503 69.1607C281.545 69.1607 281.576 69.1607 281.597 69.1607C281.618 69.1607 281.65 69.1607 281.692 69.1607H290.972C291.014 69.1607 291.046 69.1607 291.067 69.1607C291.088 69.1607 291.12 69.1607 291.162 69.1607C291.183 69.1607 291.204 69.1501 291.225 69.1291C291.246 69.1291 291.277 69.1186 291.319 69.0975C291.593 68.9292 291.856 68.7398 292.109 68.5293C292.382 68.3189 292.635 68.0979 292.866 67.8665C293.098 67.635 293.319 67.3825 293.529 67.1089C293.761 66.8564 293.971 66.5933 294.16 66.3198C294.16 66.2987 294.16 66.2777 294.16 66.2566C294.181 66.2356 294.192 66.2145 294.192 66.1935C294.192 66.1724 294.202 66.1514 294.223 66.1304C294.223 66.1093 294.223 66.0883 294.223 66.0672V46.0862C294.223 46.0862 294.223 45.8336 294.16 45.7705C293.971 45.4969 293.761 45.2234 293.529 44.9498C293.319 44.6973 293.098 44.4553 292.866 44.2238C292.635 43.9713 292.382 43.7398 292.109 43.5293C291.856 43.3189 291.593 43.119 291.319 42.9296C291.277 42.9086 291.246 42.898 291.225 42.898C291.204 42.877 291.183 42.8665 291.162 42.8665C291.12 42.8665 291.088 42.8665 291.067 42.8665C291.046 42.8665 291.014 42.8665 290.972 42.8665H281.692C281.692 42.8665 281.439 42.8665 281.345 42.9296C281.071 43.119 280.808 43.3189 280.556 43.5293C280.303 43.7398 280.061 43.9713 279.83 44.2238C279.577 44.4553 279.346 44.6973 279.135 44.9498C278.925 45.2234 278.725 45.4969 278.535 45.7705C278.535 45.7916 278.525 45.8231 278.504 45.8652C278.504 45.8862 278.504 45.9073 278.504 45.9283C278.483 45.9494 278.472 45.9809 278.472 46.023C278.472 46.0441 278.472 46.0651 278.472 46.0862L278.441 66.0672ZM335.574 70.3917C335.322 70.7284 335.059 71.0441 334.785 71.3387C334.512 71.6543 334.228 71.9595 333.933 72.2541C333.66 72.5487 333.365 72.8328 333.049 73.1064C332.755 73.3799 332.449 73.643 332.134 73.8955C331.797 74.127 331.439 74.3269 331.061 74.4953C330.682 74.6847 330.303 74.832 329.924 74.9372C329.524 75.0634 329.125 75.1581 328.725 75.2213C328.304 75.2844 327.894 75.316 327.494 75.316H309.312V36.648H327.494C327.894 36.6691 328.304 36.7112 328.725 36.7743C329.125 36.8374 329.524 36.9321 329.924 37.0584C330.324 37.1846 330.703 37.332 331.061 37.5003C331.439 37.6897 331.797 37.9001 332.134 38.1316C332.449 38.4052 332.765 38.6788 333.081 38.9523C333.375 39.2259 333.67 39.51 333.965 39.8046C334.238 40.0992 334.512 40.3938 334.785 40.6884C335.059 41.0041 335.322 41.3197 335.574 41.6354C335.764 41.93 335.922 42.2457 336.048 42.5824C336.195 42.898 336.322 43.2242 336.427 43.5609C336.511 43.8976 336.574 44.2448 336.616 44.6026C336.658 44.9393 336.679 45.2865 336.679 45.6442V50.4422C336.679 53.1569 335.638 54.5773 334.122 56.0609C335.606 57.5445 336.679 58.9018 336.679 61.6165V66.5407C336.679 66.8774 336.658 67.2141 336.616 67.5508C336.574 67.8875 336.5 68.2242 336.395 68.5609C336.311 68.8766 336.195 69.1922 336.048 69.5079C335.901 69.8235 335.743 70.1181 335.574 70.3917ZM329.861 50.316V45.7074C329.861 45.6863 329.861 45.6653 329.861 45.6442C329.861 45.6022 329.861 45.5706 329.861 45.5495C329.84 45.5285 329.83 45.4969 329.83 45.4549C329.83 45.4338 329.819 45.4128 329.798 45.3917C329.23 44.3501 327.999 43.119 327.431 43.119H316.098V52.8728H327.494C328.062 52.8728 329.356 51.7049 329.798 50.7579C329.819 50.7158 329.83 50.6737 329.83 50.6316C329.851 50.6106 329.861 50.579 329.861 50.5369C329.861 50.4948 329.861 50.4527 329.861 50.4107C329.882 50.3686 329.882 50.337 329.861 50.316ZM329.861 66.2566V61.6796C329.861 61.6586 329.861 61.627 329.861 61.5849C329.861 61.5639 329.861 61.5428 329.861 61.5218C329.861 61.4797 329.851 61.4481 329.83 61.4271C329.83 61.406 329.819 61.385 329.798 61.3639C329.23 60.3223 327.999 59.1543 327.431 59.1543H316.098V68.845H327.494C328.062 68.845 329.356 67.6771 329.798 66.7301C329.819 66.688 329.83 66.6459 329.83 66.6038C329.851 66.5618 329.861 66.5302 329.861 66.5091C329.861 66.4671 329.861 66.425 329.861 66.3829C329.861 66.3408 329.861 66.2987 329.861 66.2566ZM345.833 36.648H352.62V75.316H345.833V36.648ZM382.734 75.316L369.318 49.6531V75.316H362.563V36.648H369.855L383.112 62.6266V36.648H389.899V75.316H382.734ZM426.42 69.8235C425.631 70.9599 423.043 73.7061 421.686 74.4637C421.391 74.632 421.075 74.7899 420.739 74.9372C420.423 75.0634 420.097 75.1792 419.76 75.2844C419.423 75.3896 419.076 75.4633 418.718 75.5054C418.382 75.5685 418.035 75.6106 417.677 75.6316H406.439C402.62 75.6316 399.937 72.5382 398.232 70.2655C398.127 70.1182 398.022 69.9603 397.917 69.792C397.811 69.6236 397.717 69.4553 397.633 69.2869C397.527 69.1186 397.433 68.9502 397.349 68.7819C397.243 68.6135 397.159 68.4452 397.096 68.2768L403.472 66.1304C403.662 66.4039 403.872 66.6775 404.104 66.9511C404.314 67.2036 404.545 67.4561 404.798 67.7086C405.029 67.9612 405.271 68.2032 405.524 68.4347C405.777 68.6661 406.04 68.8871 406.313 69.0975C406.334 69.1186 406.366 69.1291 406.408 69.1291C406.45 69.1501 406.492 69.1607 406.534 69.1607C406.576 69.1607 406.608 69.1607 406.629 69.1607C406.671 69.1607 406.713 69.1607 406.755 69.1607H417.361C417.382 69.1607 417.414 69.1607 417.456 69.1607C417.477 69.1607 417.508 69.1607 417.551 69.1607C417.593 69.1607 417.624 69.1501 417.645 69.1291C417.687 69.1291 417.719 69.1186 417.74 69.0975C418.718 68.5925 420.644 66.6354 420.644 66.1304V62.3109C420.644 62.1846 420.623 62.0584 420.581 61.9321C420.56 61.8269 420.507 61.7217 420.423 61.6165C420.36 61.5323 420.276 61.4481 420.17 61.3639C420.086 61.3008 419.981 61.2482 419.855 61.2061L403.062 56.4081C399.779 55.5243 398.043 52.3362 398.043 49.4006V45.8968C398.022 45.5811 398.032 45.2549 398.074 44.9182C398.117 44.6026 398.18 44.2869 398.264 43.9713C398.348 43.6767 398.443 43.3715 398.548 43.0559C398.674 42.7612 398.822 42.4772 398.99 42.2036C399.327 41.7617 399.684 41.3303 400.063 40.9094C400.442 40.4885 400.831 40.0887 401.231 39.7099C401.631 39.3101 402.041 38.9313 402.462 38.5735C402.883 38.2158 403.325 37.8791 403.788 37.5634C404.082 37.374 404.398 37.2162 404.735 37.09C405.051 36.9426 405.377 36.8269 405.713 36.7427C406.05 36.6375 406.397 36.5533 406.755 36.4902C407.092 36.4481 407.439 36.4166 407.797 36.3955H417.361C421.244 36.3955 423.895 39.5836 425.568 41.7617C425.694 41.93 425.81 42.1089 425.915 42.2983C426.042 42.4877 426.157 42.6771 426.263 42.8665C426.368 43.0559 426.473 43.2453 426.578 43.4347C426.662 43.624 426.747 43.824 426.831 44.0344L420.328 45.8968C420.139 45.6232 419.939 45.3496 419.729 45.0761C419.497 44.8025 419.266 44.5394 419.034 44.2869C418.803 44.0344 418.55 43.8029 418.277 43.5925C418.024 43.361 417.761 43.14 417.487 42.9296C417.235 42.7086 417.424 42.8665 417.109 42.8665H407.986C407.965 42.8665 407.934 42.8665 407.891 42.8665C407.87 42.8665 407.839 42.8665 407.797 42.8665C407.776 42.8665 407.744 42.877 407.702 42.898C407.681 42.898 407.649 42.9086 407.607 42.9296C406.566 43.4346 404.83 45.2655 404.83 45.7705V48.9902C404.83 49.1165 404.84 49.2322 404.861 49.3374C404.903 49.4637 404.956 49.5689 405.019 49.6531C405.082 49.7583 405.156 49.853 405.24 49.9372C405.324 50.0003 405.419 50.0529 405.524 50.095L422.412 55.0192C425.694 55.9031 427.431 59.1543 427.431 62.0268V66.0988C427.452 66.4355 427.441 66.7617 427.399 67.0773C427.357 67.414 427.294 67.7402 427.21 68.0559C427.125 68.3715 427.02 68.6767 426.894 68.9713C426.747 69.2659 426.589 69.55 426.42 69.8235ZM463.037 69.8235C462.216 70.8968 459.691 73.7061 458.333 74.4637C458.039 74.6531 457.723 74.8109 457.386 74.9372C457.071 75.0845 456.745 75.2107 456.408 75.316C456.071 75.4001 455.724 75.4738 455.366 75.5369C455.029 75.579 454.682 75.6106 454.325 75.6316H444.508C444.15 75.6316 443.803 75.6001 443.466 75.5369C443.108 75.4948 442.761 75.4212 442.424 75.316C442.088 75.2107 441.761 75.0845 441.446 74.9372C441.109 74.8109 440.793 74.6531 440.499 74.4637C439.141 73.7061 436.553 70.8968 435.795 69.8235C435.606 69.55 435.448 69.2659 435.322 68.9713C435.196 68.6767 435.08 68.3715 434.975 68.0559C434.891 67.7402 434.827 67.4245 434.785 67.1089C434.743 66.7722 434.733 66.446 434.754 66.1304V45.8968C434.733 45.5811 434.743 45.2549 434.785 44.9182C434.827 44.6026 434.891 44.2869 434.975 43.9713C435.08 43.6556 435.196 43.3505 435.322 43.0559C435.448 42.7612 435.606 42.4772 435.795 42.2036C436.553 41.0988 439.141 38.321 440.499 37.5634C440.793 37.374 441.109 37.2057 441.446 37.0584C441.761 36.9321 442.088 36.8164 442.424 36.7112C442.761 36.6059 443.108 36.5323 443.466 36.4902C443.803 36.4271 444.15 36.3955 444.508 36.3955H454.325C454.682 36.3955 455.029 36.4271 455.366 36.4902C455.724 36.5533 456.071 36.627 456.408 36.7112C456.745 36.8164 457.071 36.9426 457.386 37.09C457.723 37.2162 458.039 37.374 458.333 37.5634C459.691 38.321 462.216 41.0988 463.037 42.2036C463.226 42.4772 463.384 42.7612 463.51 43.0559C463.636 43.3505 463.742 43.6556 463.826 43.9713C463.931 44.2869 464.005 44.6026 464.047 44.9182C464.068 45.2549 464.078 45.5811 464.078 45.8968V66.1304C464.078 66.446 464.068 66.7722 464.047 67.1089C464.005 67.4245 463.931 67.7402 463.826 68.0559C463.742 68.3715 463.636 68.6767 463.51 68.9713C463.384 69.2659 463.226 69.55 463.037 69.8235ZM441.54 66.0672C441.54 66.0672 441.54 66.2566 441.604 66.3198C441.793 66.5933 441.993 66.8564 442.203 67.1089C442.414 67.3614 442.645 67.6034 442.898 67.8349C443.129 68.0874 443.371 68.3189 443.624 68.5293C443.897 68.7398 444.171 68.9292 444.444 69.0975C444.465 69.1186 444.487 69.1291 444.508 69.1291C444.55 69.1501 444.581 69.1607 444.602 69.1607C444.623 69.1607 444.644 69.1607 444.665 69.1607C444.707 69.1607 444.739 69.1607 444.76 69.1607H454.04C454.061 69.1607 454.093 69.1607 454.135 69.1607C454.156 69.1607 454.177 69.1607 454.198 69.1607C454.219 69.1396 454.251 69.1291 454.293 69.1291C454.314 69.1291 454.335 69.1186 454.356 69.0975C454.651 68.9292 454.924 68.7398 455.177 68.5293C455.429 68.3189 455.682 68.0979 455.934 67.8665C456.166 67.635 456.397 67.3825 456.629 67.1089C456.839 66.8564 457.039 66.5933 457.229 66.3198C457.25 66.2987 457.26 66.2777 457.26 66.2566C457.26 66.2356 457.271 66.2145 457.292 66.1935C457.292 66.1724 457.292 66.1514 457.292 66.1304C457.292 66.1093 457.292 66.0883 457.292 66.0672V46.0862C457.292 46.0862 457.292 45.8336 457.229 45.7705C457.039 45.4969 456.839 45.2234 456.629 44.9498C456.418 44.6973 456.187 44.4553 455.934 44.2238C455.703 43.9713 455.461 43.7398 455.208 43.5293C454.935 43.3189 454.661 43.119 454.388 42.9296C454.367 42.9086 454.346 42.898 454.325 42.898C454.282 42.877 454.251 42.8665 454.23 42.8665C454.209 42.8665 454.177 42.8665 454.135 42.8665C454.114 42.8665 454.093 42.8665 454.072 42.8665H444.76C444.76 42.8665 444.508 42.8665 444.444 42.9296C444.171 43.119 443.897 43.3189 443.624 43.5293C443.371 43.7398 443.129 43.9713 442.898 44.2238C442.645 44.4553 442.414 44.6973 442.203 44.9498C441.993 45.2234 441.793 45.4969 441.604 45.7705C441.582 45.7916 441.572 45.8126 441.572 45.8336C441.551 45.8757 441.54 45.9073 441.54 45.9283C441.54 45.9494 441.54 45.9704 441.54 45.9915C441.54 46.0336 441.54 46.0651 441.54 46.0862V66.0672ZM492.582 75.316L479.167 49.6531V75.316H472.412V36.648H479.703L492.961 62.6266V36.648H499.747V75.316H492.582Z" fill="#101820"/>
</g>
<defs>
<clipPath id="clip0_39_342">
<rect width="500" height="112.058" fill="white"/>
</clipPath>
</defs>
</svg>
