<svg width="500" height="200" viewBox="0 0 500 200" fill="none" xmlns="http://www.w3.org/2000/svg">
<g clip-path="url(#clip0_39_335)">
<path d="M250 -0.00500488C111.759 -0.00500488 0 44.7988 0 99.9285C0 155.058 111.759 199.861 250 199.861C388.241 199.861 500 155.058 500 99.9285C500 44.7988 388.241 -0.00500488 250 -0.00500488Z" fill="#273270"/>
<path d="M394.736 128.242H383.576C383.576 128.242 392.904 101.76 395.736 92.4333C396.234 90.767 396.569 88.9345 396.569 88.1019C396.569 87.4359 396.234 86.7692 395.403 86.7692C394.238 86.7692 391.404 88.1019 386.243 95.4302H383.245C389.408 85.2704 397.069 78.4413 402.398 78.4413C405.896 78.4413 407.394 80.4406 407.394 83.6048C407.394 85.7696 406.396 89.9335 404.064 98.2614C414.057 80.1076 420.387 77.6092 424.384 77.776C428.549 77.776 430.88 80.6074 430.88 84.1047C430.88 87.7689 428.049 92.0996 423.719 92.0996C420.887 92.0996 418.887 89.9335 418.887 86.2701C418.887 85.9371 418.887 85.4366 418.887 85.1043C416.056 86.6031 408.727 93.0986 399.901 114.584L394.736 128.242ZM263.991 128.242H252.832C252.832 128.242 262.158 101.76 264.99 92.4333C265.49 90.767 265.823 88.9345 265.823 88.1019C265.823 87.4359 265.49 86.7692 264.656 86.7692C263.491 86.7692 260.66 88.1019 255.497 95.4302H252.498C258.66 85.2704 266.321 78.4413 271.653 78.4413C275.149 78.4413 276.649 80.4406 276.649 83.6048C276.649 85.7696 275.649 89.9335 273.318 98.2614C283.312 80.1076 289.641 77.6092 293.637 77.776C297.8 77.776 300.134 80.6074 300.134 84.1047C300.134 87.7689 297.302 92.0996 292.972 92.0996C290.139 92.0996 288.142 89.9335 288.142 86.2701C288.142 85.9371 288.142 85.4366 288.142 85.1043C285.311 86.6031 277.981 93.0986 269.153 114.584L263.991 128.242ZM327.283 64.1177C327.283 68.9475 323.285 73.6121 318.62 73.6121C315.955 73.6121 313.958 71.9465 313.958 68.4484C313.958 63.6185 317.955 58.9555 322.618 58.9555C325.283 58.9555 327.283 60.6198 327.283 64.1177ZM311.127 78.6081H322.286L308.96 116.084C308.793 116.582 308.127 118.581 308.127 120.248C308.127 121.413 308.628 121.913 309.46 121.913C312.458 121.913 317.622 117.083 320.785 112.753H323.785C318.788 121.081 309.96 129.741 301.965 129.741C298.135 129.741 295.635 127.409 295.635 123.746C295.635 121.579 296.302 118.081 298.3 112.753L311.127 78.6081ZM140.406 62.1198C138.74 61.6194 136.41 61.2864 134.077 61.2864C111.759 61.2864 92.4384 82.772 92.4384 104.591C92.4384 120.581 102.265 124.744 110.26 124.744C119.586 124.744 126.249 121.081 132.412 115.584H135.743C131.079 122.079 121.086 130.24 106.595 130.24C86.7757 130.24 79.1144 118.249 79.1144 104.425C79.1144 78.7743 106.429 57.1224 135.077 57.1224C146.236 57.1224 152.565 61.1203 152.565 66.783C152.565 70.4477 149.9 73.6121 145.403 73.6121C141.739 73.6121 138.907 71.446 138.907 67.4489C138.907 66.117 139.574 63.7847 140.406 62.1198ZM215.189 128.242H204.03C204.03 128.242 213.358 101.76 216.189 92.4333C216.689 90.767 217.023 88.9345 217.023 88.1019C217.023 87.4359 216.689 86.7692 215.856 86.7692C214.691 86.7692 211.859 88.1019 206.696 95.4302H203.698C209.859 85.2704 217.521 78.4413 222.851 78.4413C226.349 78.4413 227.849 80.4406 227.849 83.6048C227.849 85.7696 226.849 89.9335 224.517 98.2614C234.51 80.1076 240.84 77.6092 244.837 77.776C249 77.776 251.333 80.6074 251.333 84.1047C251.333 87.7689 248.502 92.0996 244.17 92.0996C241.339 92.0996 239.34 89.9335 239.34 86.2701C239.34 85.9371 239.34 85.4366 239.34 85.1043C236.509 86.6031 229.181 93.0986 220.352 114.584L215.189 128.242ZM361.592 80.9404C365.422 80.9404 366.924 83.7717 366.924 87.1029C366.924 92.2658 360.425 104.258 343.104 104.591C344.771 94.4312 352.764 80.9404 361.592 80.9404ZM350.934 123.912C344.604 123.912 341.771 119.247 341.771 114.085C341.771 112.252 341.939 109.587 342.271 108.088C366.589 107.256 377.415 98.5951 377.415 89.2675C377.415 82.439 371.752 77.7753 362.925 77.7753C342.937 77.7753 329.281 96.7626 329.281 112.586C329.281 123.912 336.109 129.741 347.436 129.741C358.26 129.741 368.92 121.081 373.585 113.918H370.753C366.589 118.081 359.594 123.912 350.934 123.912ZM181.045 92.2658C181.045 92.2658 177.382 101.093 173.719 108.088C170.719 113.752 164.058 122.245 159.227 122.245C155.73 122.245 153.897 119.748 153.897 115.584C153.897 101.427 169.054 81.7731 177.549 81.7731C180.38 81.7731 182.045 84.2708 182.045 87.4359C182.045 88.9345 181.712 90.434 181.045 92.2658ZM194.372 112.753C192.372 115.916 187.875 121.413 184.71 121.413C183.878 121.413 183.377 120.914 183.377 119.914C183.377 118.581 183.878 116.916 183.878 116.916L197.368 78.6081H186.043L184.543 82.772C182.545 79.6078 179.88 78.4413 176.549 78.4413C163.391 78.4413 141.905 97.2625 141.905 116.582C141.905 124.91 146.902 129.741 153.731 129.741C160.56 129.741 166.722 124.078 171.219 117.249H171.552C171.386 118.415 171.053 120.248 171.053 121.913C171.053 126.077 173.218 129.24 177.382 129.24C186.708 129.24 194.87 116.916 197.535 112.753H194.372ZM250 182.705C118.088 182.705 11.1593 145.398 11.1593 99.9277C11.1593 54.4579 118.088 17.1494 250 17.1494C381.911 17.1494 488.84 54.4579 488.84 99.9277C488.84 145.398 381.911 182.705 250 182.705ZM250 11.3196C116.256 11.3196 7.82812 51.1267 7.82812 99.9277C7.82812 148.727 116.256 188.535 250 188.535C383.745 188.535 492.172 148.727 492.172 99.9277C492.172 51.1267 383.745 11.3196 250 11.3196Z" fill="white"/>
</g>
<defs>
<clipPath id="clip0_39_335">
<rect width="500" height="199.861" fill="white"/>
</clipPath>
</defs>
</svg>
