<svg width="500" height="156" viewBox="0 0 500 156" fill="none" xmlns="http://www.w3.org/2000/svg">
<path d="M17.7018 106.522C12.4223 103.727 8.38506 99.3789 5.27947 94.0994C2.48444 88.8199 0.931641 82.9193 0.931641 76.7081C0.931641 70.8075 2.48444 64.5963 5.27947 59.6274C8.0745 54.3479 12.4223 50.3106 17.7018 47.205C23.2919 44.0994 29.5031 42.5466 35.7142 42.5466C43.1677 42.236 50.3105 44.7205 56.5217 48.7578L49.6894 59.3168C45.6521 56.2112 40.9937 54.3478 35.7142 54.3478C31.677 54.3478 27.6397 55.2795 24.2236 57.4534C21.118 59.3168 18.3229 62.4224 16.7701 65.8385C14.9068 69.2547 13.9751 73.2919 14.2857 77.3292C14.2857 81.3665 15.2174 85.0932 16.7701 88.5093C20.4969 95.6522 27.6397 100 35.7142 100C40.6832 100 45.6521 98.1367 49.6894 95.0311L56.5217 104.969C50.3105 109.317 43.1677 111.491 35.7142 111.491C29.5031 111.18 23.2919 109.627 17.7018 106.522Z" fill="#3067DB"/>
<path d="M86.646 54.9692V72.0499H110.559V81.9878H86.646V99.0685H115.528V109.628H73.6025V44.4102H115.217V54.9692H86.646Z" fill="#3067DB"/>
<path d="M151.552 83.23H147.515V109.628H134.782V44.4102H158.074C161.801 44.4102 165.838 45.0313 169.254 46.5841C172.67 48.1369 175.465 50.3108 177.639 53.4164C179.813 56.522 181.056 60.2487 180.745 63.9754C181.056 68.3232 179.503 72.671 176.397 75.7766C173.292 78.8822 169.254 81.3667 164.906 82.2984L186.335 109.628H170.807L151.552 83.23ZM147.515 73.6027H155.279C159.316 73.6027 162.111 72.671 164.285 71.1182C166.459 69.5654 167.701 66.7704 167.391 64.2859C167.391 61.4909 166.459 58.6959 164.285 57.1431C162.111 55.2797 159.006 54.6586 154.969 54.6586H147.826L147.515 73.6027Z" fill="#3067DB"/>
<path d="M212.733 109.628H200V44.4102H212.733V109.628Z" fill="#3067DB"/>
<path d="M275.155 48.7579C280.124 51.2423 284.472 55.2796 287.267 60.2485C290.062 65.2175 291.615 71.1181 291.304 77.0187C291.304 82.9193 290.062 88.82 287.267 93.7889C284.472 98.7579 280.124 102.795 275.155 105.59C269.254 108.385 262.733 109.938 256.211 109.938H235.093V44.7206H256.211C262.733 44.41 269.254 45.6523 275.155 48.7579ZM272.049 93.1678C276.087 89.4411 278.26 83.851 278.26 76.7082C278.26 69.8759 276.087 64.5964 272.049 60.5591C268.012 56.8324 262.111 54.6585 254.658 54.6585H247.826V98.7579H254.658C262.422 99.0684 268.012 97.2051 272.049 93.1678Z" fill="#3067DB"/>
<path d="M321.428 109.628H308.695V44.4102H321.428V109.628Z" fill="#3067DB"/>
<path d="M381.366 94.7207H354.969L349.689 109.628H335.714L361.49 44.4102H374.534L400.31 109.628H386.335L381.366 94.7207ZM377.639 84.7828L368.012 57.7642L358.385 84.7828H377.639Z" fill="#3067DB"/>
<path d="M472.361 44.4102V109.628H460.559L428.572 64.5965V109.628H416.149V44.4102H427.951L459.628 89.4412V44.4102H472.361Z" fill="#3067DB"/>
</svg>
