<svg width="500" height="500" viewBox="0 0 500 500" fill="none" xmlns="http://www.w3.org/2000/svg">
<path d="M9.23828 314.805H18.6328C19.8633 314.805 21.0352 314.922 22.1484 315.156C23.2617 315.391 24.2383 315.801 25.0586 316.348C25.8984 316.914 26.5625 317.656 27.0508 318.613C27.5391 319.57 27.793 320.742 27.793 322.168C27.793 323.887 27.3438 325.332 26.4648 326.543C25.5664 327.734 24.2773 328.496 22.5586 328.828L28.7305 339.082H22.3242L17.2461 329.375H14.6094V339.082H9.25781V314.805H9.23828ZM14.5898 324.863H17.7539C18.2422 324.863 18.75 324.863 19.2773 324.805C19.8047 324.766 20.293 324.668 20.7422 324.492C21.1719 324.316 21.543 324.043 21.8164 323.691C22.1094 323.32 22.2461 322.813 22.2461 322.148C22.2461 321.523 22.1289 321.035 21.875 320.664C21.6211 320.293 21.3086 320.02 20.918 319.824C20.5273 319.629 20.0781 319.492 19.5898 319.434C19.082 319.355 18.5938 319.336 18.1055 319.336H14.6094V324.863H14.5898Z" fill="#C10230"/>
<path d="M32.3828 314.805H48.8867V319.746H37.7344V324.277H48.2617V329.219H37.7344V334.16H49.4922V339.102H32.3828V314.824V314.805Z" fill="#C10230"/>
<path d="M62.7344 314.805H67.168L77.7344 339.082H71.6992L69.6094 333.945H60.1758L58.1445 339.082H52.2461L62.7344 314.805ZM64.7852 321.875L61.8359 329.414H67.7734L64.7852 321.875Z" fill="#C10230"/>
<path d="M80.5078 314.805H88.5352C90.4883 314.805 92.3242 315.02 94.082 315.449C95.8398 315.879 97.3633 316.582 98.6523 317.559C99.9609 318.535 100.996 319.785 101.758 321.348C102.52 322.91 102.91 324.785 102.91 327.012C102.91 328.984 102.539 330.703 101.797 332.207C101.055 333.711 100.059 334.961 98.7891 335.977C97.5391 336.992 96.0742 337.773 94.4336 338.301C92.793 338.828 91.0547 339.082 89.2578 339.082H80.5078V314.805ZM85.8594 334.16H88.6328C89.8633 334.16 91.0156 334.043 92.0703 333.789C93.125 333.535 94.0625 333.125 94.8242 332.539C95.6055 331.953 96.2109 331.191 96.6602 330.234C97.1094 329.277 97.3242 328.125 97.3242 326.758C97.3242 325.566 97.1094 324.531 96.6602 323.652C96.2109 322.773 95.6055 322.051 94.8633 321.465C94.1016 320.898 93.2227 320.469 92.207 320.176C91.1914 319.883 90.1172 319.746 89.0039 319.746H85.8398V334.16H85.8594Z" fill="#C10230"/>
<path d="M110.859 328.73L101.738 314.805H108.398L113.535 323.887L118.984 314.805H125.332L116.211 328.73V339.082H110.859V328.73Z" fill="#C10230"/>
<path d="M139.531 314.805H155.82V319.746H144.883V324.688H155V329.629H144.883V339.102H139.531V314.824V314.805Z" fill="#C10230"/>
<path d="M158.496 326.953C158.496 325 158.828 323.242 159.473 321.68C160.117 320.098 161.035 318.75 162.207 317.656C163.379 316.543 164.766 315.703 166.367 315.098C167.969 314.512 169.727 314.199 171.621 314.199C173.516 314.199 175.273 314.492 176.875 315.098C178.477 315.684 179.863 316.543 181.035 317.656C182.207 318.77 183.105 320.117 183.77 321.68C184.414 323.262 184.746 325.02 184.746 326.953C184.746 328.887 184.414 330.664 183.77 332.227C183.125 333.809 182.207 335.156 181.035 336.25C179.863 337.363 178.477 338.203 176.875 338.809C175.273 339.395 173.516 339.707 171.621 339.707C169.727 339.707 167.969 339.414 166.367 338.809C164.766 338.223 163.379 337.363 162.207 336.25C161.035 335.137 160.137 333.789 159.473 332.227C158.828 330.645 158.496 328.887 158.496 326.953ZM164.062 326.953C164.062 328.105 164.238 329.141 164.59 330.098C164.941 331.055 165.449 331.875 166.113 332.559C166.777 333.262 167.578 333.789 168.496 334.18C169.414 334.57 170.449 334.766 171.602 334.766C172.754 334.766 173.789 334.57 174.707 334.18C175.625 333.789 176.426 333.242 177.09 332.559C177.754 331.855 178.262 331.035 178.613 330.098C178.965 329.141 179.141 328.105 179.141 326.953C179.141 325.801 178.965 324.785 178.613 323.828C178.262 322.871 177.754 322.031 177.09 321.348C176.426 320.645 175.625 320.117 174.707 319.727C173.789 319.336 172.754 319.141 171.602 319.141C170.449 319.141 169.414 319.336 168.496 319.727C167.578 320.117 166.777 320.664 166.113 321.348C165.449 322.051 164.941 322.871 164.59 323.828C164.238 324.785 164.062 325.82 164.062 326.953Z" fill="#C10230"/>
<path d="M188.301 314.805H197.695C198.926 314.805 200.098 314.922 201.211 315.156C202.324 315.391 203.301 315.801 204.121 316.348C204.961 316.914 205.625 317.656 206.113 318.613C206.602 319.57 206.855 320.742 206.855 322.168C206.855 323.887 206.406 325.332 205.527 326.543C204.629 327.734 203.34 328.496 201.621 328.828L207.793 339.082H201.387L196.309 329.375H193.672V339.082H188.32V314.805H188.301ZM193.652 324.863H196.816C197.305 324.863 197.812 324.863 198.34 324.805C198.867 324.766 199.355 324.668 199.805 324.492C200.234 324.316 200.605 324.043 200.879 323.691C201.172 323.32 201.309 322.813 201.309 322.148C201.309 321.523 201.191 321.035 200.937 320.664C200.684 320.293 200.371 320.02 199.98 319.824C199.59 319.629 199.141 319.492 198.652 319.434C198.145 319.355 197.656 319.336 197.168 319.336H193.672V324.863H193.652Z" fill="#C10230"/>
<path d="M227.441 319.551H220.508V314.824H239.707V319.551H232.773V339.102H227.422V319.551H227.441Z" fill="#C10230"/>
<path d="M242.91 314.805H248.262V323.867H258.652V314.805H264.004V339.082H258.652V328.594H248.262V339.082H242.91V314.805Z" fill="#C10230"/>
<path d="M268.262 314.805H284.766V319.746H273.613V324.277H284.141V329.219H273.613V334.16H285.371V339.102H268.262V314.824V314.805Z" fill="#C10230"/>
<path d="M299.336 314.805H305.176L309.043 330.371H309.121L314.199 314.805H319.18L324.219 330.781H324.297L328.379 314.805H333.789L326.68 339.082H321.914L316.563 322.266H316.484L311.133 339.082H306.543L299.336 314.805Z" fill="#C10230"/>
<path d="M334.277 326.953C334.277 325 334.609 323.242 335.254 321.68C335.898 320.098 336.816 318.75 337.988 317.656C339.16 316.543 340.547 315.703 342.129 315.098C343.73 314.512 345.488 314.199 347.383 314.199C349.277 314.199 351.035 314.492 352.637 315.098C354.238 315.703 355.625 316.543 356.797 317.656C357.969 318.77 358.867 320.117 359.531 321.68C360.176 323.262 360.508 325.02 360.508 326.953C360.508 328.887 360.176 330.664 359.531 332.227C358.887 333.809 357.969 335.156 356.797 336.25C355.625 337.363 354.238 338.203 352.637 338.809C351.035 339.395 349.277 339.707 347.383 339.707C345.488 339.707 343.73 339.414 342.129 338.809C340.527 338.223 339.141 337.363 337.988 336.25C336.816 335.137 335.918 333.789 335.254 332.227C334.609 330.645 334.277 328.887 334.277 326.953ZM339.844 326.953C339.844 328.105 340.02 329.141 340.371 330.098C340.723 331.055 341.23 331.875 341.895 332.559C342.559 333.262 343.359 333.789 344.277 334.18C345.195 334.57 346.23 334.766 347.383 334.766C348.535 334.766 349.57 334.57 350.488 334.18C351.406 333.789 352.207 333.242 352.871 332.559C353.535 331.855 354.043 331.035 354.395 330.098C354.746 329.141 354.922 328.105 354.922 326.953C354.922 325.801 354.746 324.785 354.395 323.828C354.043 322.871 353.535 322.031 352.871 321.348C352.207 320.645 351.406 320.117 350.488 319.727C349.57 319.336 348.535 319.141 347.383 319.141C346.23 319.141 345.195 319.336 344.277 319.727C343.359 320.117 342.559 320.664 341.895 321.348C341.23 322.051 340.723 322.871 340.371 323.828C340.02 324.785 339.844 325.82 339.844 326.953Z" fill="#C10230"/>
<path d="M364.102 314.805H373.496C374.727 314.805 375.898 314.922 377.012 315.156C378.125 315.391 379.102 315.801 379.922 316.348C380.762 316.914 381.426 317.656 381.914 318.613C382.402 319.57 382.656 320.742 382.656 322.168C382.656 323.887 382.207 325.332 381.328 326.543C380.43 327.734 379.141 328.496 377.422 328.828L383.594 339.082H377.187L372.109 329.375H369.473V339.082H364.121V314.805H364.102ZM369.453 324.863H372.617C373.105 324.863 373.613 324.863 374.141 324.805C374.668 324.766 375.156 324.668 375.605 324.492C376.035 324.316 376.406 324.043 376.68 323.691C376.973 323.32 377.109 322.813 377.109 322.148C377.109 321.523 376.992 321.035 376.738 320.664C376.484 320.293 376.172 320.02 375.781 319.824C375.391 319.629 374.941 319.492 374.453 319.434C373.945 319.355 373.457 319.336 372.969 319.336H369.473V324.863H369.453Z" fill="#C10230"/>
<path d="M387.246 314.805H392.598V324.883L402.031 314.805H409.023L398.223 326.094L409.961 339.102H402.48L392.598 327.578V339.102H387.246V314.824V314.805Z" fill="#C10230"/>
<path d="M412.715 314.805H420.742C422.676 314.805 424.531 315.02 426.289 315.449C428.047 315.879 429.57 316.582 430.859 317.559C432.168 318.535 433.203 319.785 433.965 321.348C434.727 322.91 435.117 324.785 435.117 327.012C435.117 328.984 434.746 330.703 434.004 332.207C433.262 333.711 432.266 334.961 430.996 335.977C429.746 336.992 428.281 337.773 426.641 338.301C425 338.828 423.262 339.082 421.465 339.082H412.715V314.805ZM418.066 334.16H420.84C422.07 334.16 423.223 334.043 424.297 333.789C425.352 333.535 426.289 333.125 427.051 332.539C427.832 331.953 428.437 331.191 428.887 330.234C429.336 329.277 429.551 328.125 429.551 326.758C429.551 325.566 429.336 324.531 428.887 323.652C428.437 322.773 427.832 322.051 427.09 321.465C426.328 320.898 425.449 320.469 424.434 320.176C423.418 319.883 422.344 319.746 421.23 319.746H418.066V334.16Z" fill="#C10230"/>
<path d="M445.352 314.805H449.785L460.352 339.082H454.316L452.227 333.945H442.793L440.762 339.082H434.863L445.352 314.805ZM447.402 321.875L444.453 329.414H450.391L447.402 321.875Z" fill="#C10230"/>
<path d="M464.434 328.73L455.312 314.805H461.973L467.109 323.887L472.559 314.805H478.906L469.785 328.73V339.082H464.434V328.73Z" fill="#C10230"/>
<path d="M435.879 283.691C435.879 277.48 440.918 272.891 446.875 272.891C452.832 272.891 457.812 277.48 457.812 283.691C457.812 289.902 452.773 294.551 446.875 294.551C440.977 294.551 435.879 289.961 435.879 283.691ZM446.875 292.734C451.777 292.734 455.645 288.906 455.645 283.691C455.645 278.477 451.777 274.687 446.875 274.687C441.973 274.687 438.047 278.555 438.047 283.691C438.047 288.828 441.934 292.734 446.875 292.734ZM444.59 289.961H442.695V277.461H447.441C450.391 277.461 451.855 278.555 451.855 281.016C451.855 283.242 450.449 284.219 448.613 284.453L452.168 289.961H450.039L446.758 284.531H444.59V289.961ZM446.855 282.93C448.457 282.93 449.883 282.813 449.883 280.898C449.883 279.355 448.496 279.063 447.168 279.063H444.59V282.93H446.855Z" fill="#002169"/>
<path d="M110.977 228.262C102.734 222.578 98.2227 219.414 87.3047 219.414C74.0234 219.414 63.2422 231.211 63.2422 245.762C63.2422 260.312 74.0234 272.09 87.3047 272.09C97.7539 272.09 100.352 271.074 111.445 263.594V289.746C104.336 293.32 95.8789 295.352 87.3047 295.352C58.9063 295.352 35.8789 273.145 35.8789 245.742C35.8789 218.34 58.9063 196.152 87.3047 196.152C95.8203 196.152 103.906 198.145 110.977 201.66V228.262Z" fill="#002169"/>
<path d="M145.352 197.578H119.57V293.477H145.352V197.578Z" fill="#002169"/>
<path d="M132.48 192.559C140.547 192.559 147.07 186.016 147.07 177.969C147.07 169.922 140.547 163.379 132.48 163.379C124.414 163.379 117.891 169.922 117.891 177.969C117.891 186.016 124.434 192.559 132.48 192.559Z" fill="#002169"/>
<path d="M416.504 234.863C413.066 233.477 403.535 230.625 401.973 230C389.512 224.902 394.043 215.391 403.281 215.391C410.117 215.391 415.391 218.223 420.039 221.328V198.535C411.016 195.781 406.367 194.766 398.887 194.766C378.809 194.766 368.477 209.453 368.438 224.258C368.418 234.668 376.484 246.113 385.918 249.59C394.219 252.637 395.469 253.145 400.449 254.863C410.371 258.281 410.391 272.402 396.836 272.402C392.461 272.402 381.562 271.113 375.117 257.168L336.914 160.312L288.242 288.945V219.785H308.379V197.598H225.371V254.766L181.25 197.637V197.598H155.469V293.496H181.25V235.293L226.074 293.496H251.152V219.785H262.461V293.496H313.965L319.922 274.824H348.711L341.855 254.707H326.367L336.934 223.496L351.191 263.105C360.215 287.344 377.246 295.723 396.328 295.723C415.41 295.723 434.766 284.512 434.766 261.562C434.766 245.156 425.137 238.359 416.543 234.883" fill="#002169"/>
<path d="M481.289 319.277C481.289 316.582 483.477 314.609 486.035 314.609C488.594 314.609 490.762 316.582 490.762 319.277C490.762 321.992 488.594 323.965 486.035 323.965C483.457 323.965 481.289 321.992 481.289 319.277ZM486.035 323.184C488.145 323.184 489.824 321.523 489.824 319.277C489.824 317.07 488.145 315.391 486.035 315.391C483.887 315.391 482.227 317.07 482.227 319.277C482.227 321.523 483.906 323.184 486.035 323.184ZM485.039 321.992H484.219V316.602H486.27C487.539 316.602 488.184 317.07 488.184 318.145C488.184 319.102 487.578 319.531 486.777 319.629L488.32 322.012H487.402L485.977 319.668H485.039V322.012V321.992ZM486.016 318.965C486.699 318.965 487.324 318.926 487.324 318.086C487.324 317.422 486.719 317.285 486.152 317.285H485.039V318.965H486.016Z" fill="#C10230"/>
</svg>
