<svg width="500" height="190" viewBox="0 0 500 190" fill="none" xmlns="http://www.w3.org/2000/svg">
<path fill-rule="evenodd" clip-rule="evenodd" d="M493.17 94.5389C468.258 145.728 358.074 187.403 247.901 187.403C137.616 187.403 68.0655 145.728 92.9753 94.5389C117.786 43.549 228.066 1.77441 338.251 1.77441C448.53 1.77441 518.07 43.549 493.17 94.5389Z" fill="#032B76"/>
<path fill-rule="evenodd" clip-rule="evenodd" d="M335.774 3.75195C442.926 3.75195 510.366 44.2397 485.994 93.7433C461.721 143.351 354.472 183.842 247.532 183.842C140.384 183.842 72.9384 143.351 97.2082 93.7433C112.963 61.8286 162.861 33.8206 224.95 17.7548C229.358 16.5556 233.878 15.5825 238.395 14.4928C269.276 7.66086 302.579 3.75195 335.774 3.75195Z" fill="#0A0A08"/>
<path fill-rule="evenodd" clip-rule="evenodd" d="M334.166 6.44434C439.967 6.44434 506.695 45.5196 482.799 93.2198C458.9 141.104 353.192 180.094 247.488 180.094C141.684 180.094 74.9569 141.104 98.8577 93.2198C122.661 45.5196 228.459 6.44434 334.166 6.44434Z" fill="#969998"/>
<path fill-rule="evenodd" clip-rule="evenodd" d="M317.301 14.5967C412.887 14.5967 473.049 49.5476 451.307 92.2826C429.655 135.108 333.979 170.062 238.582 170.062C142.998 170.062 82.832 135.108 104.482 92.2826C118.537 64.7323 163.049 40.552 218.437 26.6852C222.37 25.6495 226.402 24.8095 230.431 23.8708C257.98 17.9707 287.688 14.5967 317.301 14.5967Z" fill="#0A0A08"/>
<path fill-rule="evenodd" clip-rule="evenodd" d="M435.621 57.229C440.208 64.8473 441.055 73.4218 437.424 82.4111C434.023 89.2154 430.122 94.6934 424.308 100.083C394.151 127.946 326.289 148.728 258.517 148.728C178.61 148.728 128.219 119.851 146.424 84.4496C158.932 60.0795 201.32 37.9242 252.082 26.9758C258.054 25.6906 264.121 24.6791 270.281 23.7578C258.339 24.9558 246.653 26.7004 235.164 29.1818C178.886 41.5992 131.163 61.6476 117.273 89.4159C97.1383 129.786 152.951 162.704 241.601 162.704C314.235 162.704 386.976 140.637 421.918 110.38C425.864 106.984 430.482 102.186 434.106 97.0744C435.602 95.0059 436.913 92.9121 438.009 90.7985C444.263 78.6578 443.069 67.1628 435.621 57.229Z" fill="#0D5DB8"/>
<path fill-rule="evenodd" clip-rule="evenodd" d="M57.1729 85.9242C55.479 88.5865 53.7794 90.5525 52.1213 91.769L52.0555 91.8227C50.1415 93.3274 47.6347 94.0921 44.6044 94.0921C42.6361 94.0921 41.2847 93.699 40.9077 93.0309C40.8685 92.937 39.9806 90.4834 42.7214 81.6544C44.5341 76.062 46.6465 72.0668 48.9999 69.7792C51.9218 66.8549 55.057 65.493 58.8667 65.493C60.0636 65.493 61.0576 65.6785 61.6629 66.0125C62.1161 66.2688 62.4747 66.4697 62.6165 68.1165L63.17 74.5624H93.5511C91.6439 77.0889 90.0123 79.8124 88.7024 82.664H59.2484L57.1729 85.9242ZM130.819 87.7981C129.686 91.4061 128.225 94.0267 126.596 95.3711C124.93 96.7046 123.53 97.3003 122.055 97.3003C121.749 97.3003 121.555 97.2735 121.44 97.2467C121.376 96.8482 121.279 95.4342 122.293 92.2022C123.26 88.9101 124.683 86.4115 126.402 84.976C127.977 83.7162 129.436 83.1541 131.13 83.1541C131.335 83.1541 131.482 83.1652 131.585 83.1807C131.647 83.6274 131.687 84.957 130.819 87.7981ZM203.368 87.7309C202.436 90.918 201.182 93.2932 199.839 94.4208C198.743 95.3438 197.817 95.792 197.009 95.792C196.927 95.792 196.854 95.7898 196.787 95.7875C196.804 95.2321 196.931 94.1163 197.508 92.2542C198.762 88.1711 200.177 86.4197 201.145 85.6667C202.252 84.7638 203.203 84.2913 204.203 84.1518C204.144 84.8266 203.951 85.9492 203.391 87.6581L203.368 87.7309ZM416.843 56.0272L424.9 30.2031L383.489 47.3791L382.431 47.8192L379.875 56.0268H371.665L371.328 57.1027C367.864 55.5529 364.446 54.7989 360.884 54.7989C358.092 54.7989 355.44 55.212 353.001 56.0264H320.567L314.43 75.631C314.438 74.8301 314.416 74.0096 314.361 73.1794C314.069 68.9233 312.574 65.1531 310.152 62.5701C307.136 59.1236 302.881 56.9015 297.508 55.9629C293.525 55.1687 288.123 54.7985 280.505 54.7985C276.048 54.7985 271.839 55.1004 267.638 55.7242C262.887 56.4581 259.402 57.4203 256.675 58.7498C252.632 60.5048 249.278 62.6381 246.716 65.0885C244.457 67.1478 242.393 69.7708 240.411 73.0963C240.005 71.0127 239.383 69.0076 238.557 67.1269C235.93 61.5024 230.016 54.7981 216.753 54.7981C213.477 54.7981 210.384 55.21 207.311 56.0579L207.322 56.0313H171.897L166.798 72.3217C166.207 70.6358 165.428 68.9998 164.482 67.4512C159.145 59.058 149.29 54.803 135.19 54.803C123.625 54.803 113.331 57.9012 104.597 64.0137C102.987 65.146 101.445 66.3602 100.012 67.624V67.5167C100.012 55.5006 96.749 46.9999 90.0393 41.5309C84.1921 36.5405 75.5718 34.1143 63.6847 34.1143C49.5031 34.1143 37.02 37.9357 26.5801 45.4757C16.1979 53.0387 8.81244 63.8142 4.6314 77.4988C1.24714 88.1854 0.867784 97.3579 3.50255 104.766C6.32526 112.504 10.9964 118.018 17.3844 121.149C23.1255 124.02 30.9491 125.474 40.6372 125.474C48.696 125.474 55.747 124.344 61.5908 122.11C67.4887 119.969 73.0742 116.624 78.195 112.166C80.5311 110.065 83.1002 107.282 85.4513 104.309C86.7023 110.125 89.7522 114.237 92.1125 116.676C97.8848 122.451 106.466 125.38 117.62 125.38C129.339 125.38 139.756 122.252 148.578 116.078C150.766 114.547 152.811 112.864 154.667 111.07L144.154 144.652H181.21L187.926 123.331C191.158 124.692 194.879 125.38 198.991 125.38C207.619 125.38 215.693 122.493 222.987 116.796C225.071 115.16 227.031 113.276 228.819 111.193C229.478 113.878 230.79 116.324 232.719 118.465C236.793 123.118 243.187 125.38 252.265 125.38C258.253 125.38 263.866 124.484 268.95 122.715C269.785 122.42 270.639 122.082 271.492 121.71L272.306 124.148H336.214L343.43 101.078C346.435 91.5298 349.187 87.7155 350.554 86.2984C351.875 85.1178 352.759 84.9551 353.518 84.9551C353.604 84.9551 354.426 84.9818 356.426 85.8632L361.41 88.0658L363.778 85.2118L370.745 85.2253L367.686 95.001C365.296 102.281 364.49 107.474 365.15 111.339C365.841 116.066 368.389 119.98 372.326 122.355C375.687 124.416 380.547 125.375 387.619 125.375C392.78 125.375 398.54 124.761 404.742 123.548L407.754 122.959L409.357 122.642L415.56 92.2137L404.46 95.4702L407.639 85.2318H419.811L428.932 56.0223L416.843 56.0272Z" fill="white"/>
<path fill-rule="evenodd" clip-rule="evenodd" d="M60.2785 84.5325L58.7542 86.9297C56.9346 89.7881 55.077 91.9261 53.2137 93.2925C50.9629 95.0624 48.0652 95.9619 44.6048 95.9619C41.8225 95.9619 40.026 95.2774 39.265 93.9242C39.0136 93.4868 37.9147 90.8132 40.93 81.102C42.8441 75.1972 45.1191 70.9344 47.6985 68.4276C50.9329 65.1897 54.587 63.6158 58.8672 63.6158C60.4204 63.6158 61.6668 63.8693 62.5674 64.367C63.6374 64.9707 64.2935 65.7496 64.4838 67.9531L64.8897 72.6852H97.5342C94.3126 76.2436 91.7654 80.2043 89.9217 84.5329L60.2785 84.5325ZM132.613 88.341C131.348 92.3652 129.725 95.2179 127.794 96.8114C125.782 98.4222 123.959 99.1742 122.055 99.1742C120.365 99.1742 120.019 98.5825 119.787 98.1854C119.697 98.0365 118.956 96.5861 120.506 91.636C121.587 87.9623 123.168 85.2373 125.195 83.5446C127.124 82.0007 129.01 81.2813 131.13 81.2813C132.689 81.2813 132.96 81.7441 133.256 82.2472C133.29 82.3008 134.061 83.6064 132.613 88.341ZM195.718 91.6929C196.824 88.0953 198.302 85.4985 200.004 84.1759C201.631 82.8478 203.169 82.2275 204.847 82.2275C205.707 82.2275 205.765 82.3348 205.963 82.693C206.134 82.9841 206.353 84.6257 205.168 88.2509C204.116 91.8404 202.691 94.4695 201.044 95.8509C199.598 97.0691 198.278 97.6597 197.01 97.6597C195.477 97.6597 195.221 97.2318 195.053 96.9514C195.047 96.9387 194.462 95.7513 195.718 91.6929ZM237.41 90.7741C238.163 88.1025 238.672 85.4977 238.931 83.0058L248.764 84.0023C245.188 85.2165 242.28 86.7157 239.928 88.5514C239.038 89.241 238.197 89.9854 237.41 90.7741ZM418.435 83.3575L426.385 57.8954H414.296L421.918 33.4629L383.958 49.2083L381.255 57.8954H373.042L372.463 59.7427C368.598 57.6741 364.803 56.6675 360.885 56.6675C358.18 56.6675 355.637 57.0806 353.313 57.8949H321.945L303.348 117.301L303.175 116.252C302.76 113.743 302.718 112.494 302.755 111.894C302.8 111.265 303.029 109.923 303.859 107.117L311.3 83.3031C312.338 80.1678 312.728 76.8955 312.492 73.2969C312.229 69.4548 310.903 66.0864 308.772 63.8299C306.043 60.6981 302.143 58.6698 297.196 57.8061C293.299 57.0293 287.996 56.6671 280.506 56.6671C276.141 56.6671 272.022 56.9622 267.913 57.574C263.338 58.2796 260.011 59.1944 257.472 60.4419C253.609 62.1127 250.425 64.1305 248.019 66.4309C245.456 68.7705 243.131 71.9022 240.911 76.006L239.117 79.3223C239.121 75.1643 238.359 71.3232 236.838 67.8663C234.452 62.7571 229.03 56.6667 216.754 56.6667C212.474 56.6667 208.431 57.4247 204.446 58.9762L204.78 57.8949H173.275L166.357 79.9913C166.181 75.7861 165.018 71.906 162.88 68.4133C157.924 60.6186 148.608 56.6671 135.191 56.6671C124.018 56.6671 114.086 59.6509 105.671 65.5396C102.864 67.516 100.351 69.6817 98.1394 72.0293V67.5106C98.1394 56.0929 95.1011 48.0673 88.8641 42.9811C83.3444 38.2709 75.108 35.982 63.6857 35.982C49.9065 35.982 37.7912 39.6845 27.6765 46.988C17.6344 54.3053 10.4842 64.7533 6.42538 78.0367C3.16334 88.3371 2.7736 97.118 5.27 104.135C7.91745 111.392 12.2714 116.548 18.2063 119.46C23.6972 122.203 31.2441 123.595 40.6381 123.595C48.4663 123.595 55.2925 122.504 60.9183 120.357C66.6226 118.284 72.0212 115.05 76.9714 110.742C80.2599 107.785 83.8932 103.555 86.7494 99.394C86.9627 107.022 90.4427 112.25 93.4649 115.373C98.8555 120.765 106.983 123.5 117.621 123.5C128.949 123.5 139.004 120.485 147.506 114.536C152.253 111.212 156.186 107.253 159.242 102.726L146.704 142.772H179.837L186.778 120.737C187.196 120.951 187.622 121.15 188.048 121.331C191.184 122.772 194.866 123.501 198.992 123.501C207.192 123.501 214.877 120.747 221.836 115.313C224.989 112.837 227.804 109.806 230.231 106.28C229.987 111.4 232.12 114.995 234.108 117.201C237.82 121.44 243.759 123.501 252.266 123.501C258.043 123.501 263.449 122.639 268.337 120.94C269.721 120.45 271.153 119.841 272.605 119.123L273.656 122.269H334.838L341.641 100.517C344.634 91.013 347.441 86.7928 349.247 84.9501C350.677 83.6542 351.996 83.0762 353.519 83.0762C353.893 83.0762 355 83.1834 357.185 84.144L360.873 85.7759L362.902 83.3325L373.294 83.3596L369.478 95.5578C367.173 102.579 366.387 107.502 367.001 111.041C367.604 115.219 369.838 118.669 373.292 120.755C376.356 122.632 380.909 123.505 387.62 123.505C392.658 123.505 398.297 122.902 404.382 121.711L407.771 121.049L413.104 94.8904L404.862 97.3093C403.682 97.6541 402.613 97.9333 401.672 98.1359L406.259 83.3616L418.435 83.3575Z" fill="#0A0A08"/>
<path fill-rule="evenodd" clip-rule="evenodd" d="M86.3537 89.7076C83.8055 95.5617 78.2304 102.646 73.5097 106.895C69.1615 110.678 64.3439 113.605 59.1505 115.494C53.9559 117.475 47.7247 118.421 40.638 118.421C31.9461 118.421 25.2433 117.192 20.5203 114.83C15.704 112.469 12.3013 108.312 10.1323 102.362C8.04759 96.5069 8.4281 88.8554 11.358 79.5986C15.1378 67.2319 21.6538 57.7778 30.7227 51.1719C39.8815 44.5601 50.8392 41.1562 63.6855 41.1562C73.6953 41.1562 80.9689 43.0471 85.5039 46.9192C91.6429 51.9224 92.9654 60.1428 92.9654 67.5109H69.6388C69.354 64.205 68.1249 61.5586 65.105 59.8589C63.3996 58.9131 61.324 58.4407 58.8668 58.4407C53.2941 58.4407 48.2874 60.5173 44.0372 64.7699C40.8282 67.8889 38.1808 72.8 36.0072 79.504C33.4578 87.7208 32.9885 93.3928 34.7804 96.5072C36.4823 99.5341 39.7893 101.135 44.6045 101.135C49.3287 101.135 53.2941 99.8113 56.4131 97.3592C58.8668 95.5616 61.1338 92.8266 63.1194 89.7076H86.3537Z" fill="white"/>
<path fill-rule="evenodd" clip-rule="evenodd" d="M137.549 89.896C135.945 94.9983 133.772 98.5877 131.03 100.85C128.197 103.12 125.271 104.348 122.055 104.348C118.942 104.348 116.674 103.121 115.353 100.85C113.934 98.4942 114.03 94.998 115.542 90.1736C116.958 85.3606 119.129 81.8672 121.961 79.5045C124.795 77.234 127.821 76.1076 131.13 76.1076C134.147 76.1076 136.319 77.2344 137.645 79.5045C139.061 81.7714 138.964 85.2698 137.549 89.896ZM158.514 71.1917C154.55 64.9571 146.806 61.8418 135.191 61.8418C125.079 61.8418 116.199 64.4902 108.649 69.7747C100.995 75.1595 95.8912 81.9613 93.344 90.1736C90.5109 99.0569 91.8324 106.238 97.1249 111.716C101.466 116.059 108.266 118.327 117.621 118.327C128.004 118.327 136.982 115.586 144.538 110.298C152.093 105.009 157.102 98.2072 159.744 89.896C162.105 82.5289 161.635 76.2941 158.514 71.1917Z" fill="white"/>
<path fill-rule="evenodd" clip-rule="evenodd" d="M210.133 89.7081C208.721 94.5243 206.738 97.8288 204.375 99.8121C202.015 101.798 199.561 102.837 197.009 102.837C194.08 102.837 191.907 101.799 190.679 99.7155C189.357 97.6423 189.455 94.4307 190.773 90.1736C192.192 85.5532 194.175 82.1496 196.729 80.1698C199.275 78.0897 201.918 77.0529 204.847 77.0529C207.399 77.0529 209.29 77.9973 210.424 80.0716C211.646 82.1494 211.557 85.3609 210.133 89.7081ZM232.149 70.0572C229.593 64.5835 224.495 61.8418 216.753 61.8418C212.878 61.8418 209.099 62.5956 205.323 64.2054C202.582 65.3363 199.275 67.6014 195.311 71.0029L197.763 63.0696H177.077L153.747 137.599H176.042L184.166 111.809C185.674 113.982 187.753 115.586 190.208 116.627C192.664 117.756 195.592 118.327 198.991 118.327C205.98 118.327 212.596 115.962 218.64 111.244C224.778 106.425 229.218 99.6244 232.05 90.6489C234.604 82.4333 234.604 75.6323 232.149 70.0572Z" fill="white"/>
<path fill-rule="evenodd" clip-rule="evenodd" d="M280.698 94.7144C279.843 97.265 278.799 99.4351 277.384 101.042C275.968 102.646 274.078 103.968 271.625 105.104C269.168 106.239 266.718 106.805 264.16 106.805C261.805 106.805 260.194 106.238 259.35 105.197C258.403 104.16 258.209 102.837 258.778 101.233C259.161 99.8122 260.194 98.5876 261.805 97.4518C263.313 96.3182 266.521 95.2795 271.342 94.1437C274.932 93.2945 278.328 92.444 281.726 91.4063L280.698 94.7144ZM307.328 73.6502C307.141 70.9129 306.29 68.7392 304.866 67.2322C302.89 64.9571 299.957 63.5414 296.182 62.8829C292.408 62.1276 287.111 61.8418 280.505 61.8418C276.346 61.8418 272.478 62.1275 268.698 62.6909C265.011 63.2557 261.892 64.0167 259.631 65.1495C256.323 66.5655 253.589 68.2649 251.51 70.2504C249.339 72.2326 247.354 74.969 245.463 78.4687L265.95 80.544C267.565 78.1838 269.168 76.5786 270.871 75.7264C273.045 74.6867 275.878 74.1215 279.56 74.1215C282.39 74.1215 284.188 74.5922 285.034 75.6318C285.798 76.6702 285.798 78.4687 285.034 81.0181C281.925 81.9613 279.082 82.8108 276.443 83.4738C273.704 84.0373 268.034 85.1769 259.253 86.7762C251.885 88.0038 246.5 89.9854 243.103 92.6362C239.705 95.2791 237.341 98.6828 236.112 102.743C234.697 107.183 235.361 110.862 238.001 113.792C240.649 116.816 245.369 118.327 252.265 118.327C257.453 118.327 262.271 117.567 266.613 116.059C269.829 114.924 273.328 113.037 277.006 110.487C276.817 111.996 276.727 113.129 276.727 113.886C276.727 114.646 276.909 115.674 277.384 117.095H298.068C297.694 114.831 297.503 112.943 297.595 111.529C297.694 110.109 298.167 108.123 298.919 105.576L306.389 81.6785C307.231 79.1267 307.515 76.4845 307.328 73.6502Z" fill="white"/>
<path fill-rule="evenodd" clip-rule="evenodd" d="M325.746 63.0696H346.431L343.693 71.8517C346.906 68.0754 349.833 65.4321 352.386 64.0162C354.933 62.5033 357.764 61.8418 360.885 61.8418C364.192 61.8418 367.399 62.7874 370.702 64.6758L359.275 79.412C356.917 78.3682 355.03 77.9029 353.519 77.9029C350.591 77.9029 348.035 79.0297 345.672 81.2085C342.468 84.4187 339.439 90.2799 336.707 98.9613L331.034 117.096H308.833L325.746 63.0696Z" fill="white"/>
<path fill-rule="evenodd" clip-rule="evenodd" d="M413.684 42.4805L407.262 63.0697H419.35L414.629 78.1842H402.447L396.493 97.3598C395.734 99.6243 395.547 101.136 395.734 101.891C396.112 103.028 397.153 103.689 399.035 103.689C400.648 103.689 403.099 103.215 406.317 102.268L403.389 116.627C397.629 117.756 392.336 118.327 387.62 118.327C382.048 118.327 378.168 117.67 375.997 116.339C373.821 115.023 372.504 112.943 372.124 110.298C371.648 107.563 372.41 103.215 374.393 97.1681L380.335 78.1842H372.124L376.846 63.0697H385.061L388.18 53.0598L413.684 42.4805Z" fill="white"/>
</svg>
