<svg width="500" height="88" viewBox="0 0 500 88" fill="none" xmlns="http://www.w3.org/2000/svg">
<g clip-path="url(#clip0_39_345)">
<path fill-rule="evenodd" clip-rule="evenodd" d="M9.33565 69.3036L0.0634974 40.158C-0.0947305 39.5251 0.095143 38.8606 0.569826 38.4175L14.7787 27.0884C15.2217 26.7087 15.9179 26.8036 16.266 27.2466C16.266 27.2677 16.2766 27.2783 16.2977 27.2783L26.8356 42.0884C27.1838 42.658 27.1838 43.3226 26.8673 43.8922L10.3167 69.4302C9.96856 69.9365 9.55717 69.8732 9.33565 69.3036ZM55.8546 87.6897L25.7597 87.658C25.1268 87.6264 24.5572 87.2466 24.304 86.6454L18.1015 69.3985C17.88 68.8289 18.1964 68.196 18.766 67.9745L35.8546 62.3416C36.4875 62.1834 37.1205 62.4049 37.5318 62.8796L56.266 86.8036C56.6458 87.2783 56.4559 87.658 55.8546 87.6897ZM87.4053 48.3226L78.1015 77.4682C77.88 78.0694 77.342 78.4808 76.6774 78.5441L58.6711 79.2403C58.0382 79.2403 57.5635 78.7656 57.5319 78.1327L57.5635 59.8732C57.5951 59.2087 57.9749 58.639 58.5762 58.3859L86.7091 47.6264C87.247 47.4365 87.5951 47.753 87.4053 48.3226ZM60.38 5.60108L84.7154 23.639C85.2217 24.0504 85.4432 24.6834 85.3167 25.3163L80.38 43.0061C80.38 43.0061 80.38 43.0167 80.38 43.0378C80.1901 43.6074 79.5888 43.9239 79.0192 43.734L61.9622 38.0694C61.361 37.8479 60.9179 37.2783 60.8863 36.6454L59.5255 6.07576C59.5255 5.47449 59.9053 5.25297 60.38 5.60108ZM12.1521 18.5758L36.4875 0.56943C37.0255 0.221328 37.7217 0.189683 38.2597 0.537784L53.2597 10.7593C53.7344 11.1074 53.861 11.8036 53.5129 12.3099L42.9432 27.0884C42.5319 27.5947 41.8989 27.8163 41.266 27.6897L12.3103 19.5251C11.7407 19.3669 11.6458 18.9239 12.1521 18.5758ZM148.196 56.139H150.475L149.272 67.4049C144.082 69.8099 138.418 71.0441 132.658 70.9808C118.418 70.9808 110.032 60.3796 110.032 48.6074C110.032 33.734 120.443 24.4302 133.228 24.4302C140.95 24.4302 145.538 26.4872 148.228 28.196L148.576 37.9428H146.393C143.829 30.6644 139.399 27.9112 132.817 27.9112C121.361 27.9112 117.215 36.2656 117.215 46.1707C117.215 56.9618 122.247 67.2783 133.861 67.2783C142.374 67.2783 145.633 63.4175 148.196 56.139ZM169.874 71.1074C161.139 71.1074 154.082 63.9555 154.082 55.0631C154.082 46.2023 161.139 39.0504 169.874 39.0504C178.639 39.0504 185.696 46.2023 185.696 55.0631C185.696 63.9555 178.639 71.1074 169.874 71.1074ZM179.62 56.4872C179.62 48.9555 175.601 42.658 168.734 42.658C163.038 42.658 160.158 47.3099 160.158 53.6707C160.158 61.2023 164.177 67.4998 171.045 67.4998C176.772 67.4998 179.62 62.8163 179.62 56.4872ZM189.747 67.0884L189.304 56.139H191.424C193.196 62.215 197.089 67.6264 203.829 67.6264C210.127 67.6264 214.367 64.6201 214.367 59.5884C214.367 55.158 210.95 53.2593 206.203 51.3289L199.937 48.8289C194.462 46.6137 189.747 44.0504 189.747 36.7087C189.747 30.3479 195.95 24.4618 204.81 24.4618C209.969 24.4618 215.19 25.9808 217.595 28.3226V37.9428H215.918C214.431 31.8669 211.076 27.753 204.431 27.753C199.114 27.753 195.158 30.696 195.158 35.3479C195.158 39.2087 197.785 40.9808 202.184 42.7213L208.893 45.4428C215.222 48.0061 219.81 50.5694 219.81 58.1011C219.81 66.4239 212.215 71.0758 202.943 71.0758C197.437 71.0758 192.627 69.4935 189.747 67.0884ZM231.899 39.1454H240.222V42.7846H231.899V60.8859C231.899 65.0631 233.576 66.9302 237.057 66.9302C238.386 66.9618 239.684 66.7087 240.918 66.2023C241.171 66.8669 241.456 67.4682 241.709 68.0378C239.747 70.0315 237.057 71.1074 234.272 71.1074C229.905 71.1074 225.918 68.8289 225.918 62.8163V42.8163H221.171V40.7909C224.747 38.9239 227.057 36.7403 230 33.1011H231.899V39.1454ZM267.658 63.0378C267.658 65.6011 268.798 66.9935 270.507 66.9935C271.161 66.9724 271.804 66.9091 272.437 66.8036C272.627 67.4049 273.038 68.3542 273.196 68.7973C271.772 70.253 269.81 71.0758 267.785 71.0758C264.81 71.0758 263.323 68.9872 262.405 65.7909C260.285 68.1644 257.026 71.0758 251.709 71.0758C246.045 71.0758 243.007 67.658 243.007 63.1011C243.007 57.6897 246.519 56.3922 250.918 55.1264L261.677 51.772V50.5694C261.677 45.791 259.779 42.0568 254.874 42.0568C251.677 42.0568 250.253 43.3859 250.253 46.3606C250.317 47.3099 250.433 48.2488 250.601 49.177L245.886 49.7466C245.064 48.9239 244.589 47.7846 244.652 46.6137C244.652 41.8036 249.652 39.0188 256.076 39.0188C263.101 39.0188 267.658 41.9935 267.658 50.2213V63.0378ZM261.677 63.2593V54.6517L251.962 57.8479C249.937 58.4808 248.956 59.6517 248.956 61.8669C248.956 65.1897 250.791 66.8985 253.956 66.8985C257.31 66.8985 259.304 65.3796 261.677 63.2593ZM285.032 48.0061C287.722 43.1644 290.38 39.0504 294.557 39.0504C295.95 39.0504 296.266 39.3669 297.469 39.8416V45.1897H294.937C291.266 45.1897 289.114 46.1391 285.538 50.6644V64.6833C285.538 67.5947 286.709 67.753 290.285 68.2277V70.696H274.81V68.2277C277.184 67.8796 279.557 67.5947 279.557 64.9049V45.3796L274.81 43.3226V41.9302L283.323 39.1454H285.317L285.032 48.0061ZM329.557 24.4618C337.279 24.4618 341.899 26.4872 344.557 28.1644L344.905 37.9112H342.753C340.158 30.6327 335.76 27.8796 329.177 27.8796C317.722 27.8796 313.544 36.2656 313.544 46.1707C313.544 56.9618 318.893 67.3732 330.19 67.3732C335.38 67.3732 337.975 66.1391 340.38 63.9239V55.8859C340.38 51.9618 336.804 51.3606 333.228 51.1391V48.8289H351.108V51.1391C348.734 51.4555 346.329 51.9618 346.329 55.8859V66.4239C341.139 69.5568 335.19 71.1707 329.146 71.0758C314.905 71.0758 306.424 60.4112 306.424 48.639C306.424 33.7656 316.962 24.4618 329.557 24.4618ZM363.386 48.0061C366.076 43.1644 368.893 39.0504 373.07 39.0504C374.146 39.0504 375.19 39.3353 376.139 39.8416V45.1897H373.291C369.62 45.1897 367.785 46.1391 363.038 50.6644V64.6833C363.038 67.5947 365.412 67.753 368.988 68.2277V70.696H353.481V68.2277C355.855 67.8796 357.057 67.5947 357.057 64.9049V45.3796L353.481 43.3226V41.9302L361.646 39.1454H363.671L363.386 48.0061ZM391.899 71.0758C383.133 71.0758 376.076 63.9239 376.076 55.0631C376.076 46.1707 383.133 39.0188 391.899 39.0188C400.633 39.0188 407.69 46.1707 407.69 55.0631C407.69 63.9239 400.633 71.0758 391.899 71.0758ZM401.614 56.4555C401.614 48.9239 397.595 42.6264 390.728 42.6264C385 42.6264 382.152 47.3099 382.152 53.639C382.152 61.1707 386.171 67.4682 393.038 67.4682C398.766 67.4682 401.614 62.7846 401.614 56.4555ZM434.336 65.158C431.899 68.196 428.291 70.9808 423.766 70.9808C418.165 70.9808 414.304 68.3226 414.304 61.5188V45.6644C414.304 43.5441 413.355 42.9745 410.507 42.6264L409.526 42.4998V40.1897L418.671 39.1137H420.158L420.253 45.0631V60.696C420.253 64.9998 422.564 66.5821 425.95 66.5821C429.431 66.5821 432.184 64.715 434.557 62.7213V45.6644C434.557 43.5441 433.639 42.9745 430.76 42.6264L429.779 42.4998V40.1897L438.893 39.1137H440.38L440.507 45.0631V63.8289C440.507 65.8226 441.108 66.234 443.798 66.5188L445.285 66.7087V69.0188L434.937 70.696H434.082L434.336 65.158ZM455.981 68.734V78.8606C455.981 81.5504 457.184 81.8353 460.76 82.1833V84.0188H445.253V82.1833C447.658 81.8353 450.032 81.5504 450.032 78.8606V45.3479L445.253 43.291V41.8985L454.051 39.1137H456.044L455.76 44.4618C458.386 41.0758 462.405 39.0504 466.709 39.0188C475.538 39.0188 480.158 45.5378 480.158 53.5758C480.158 64.3669 472.817 71.0758 463.798 71.0758C460.348 71.0758 457.184 70.1264 455.981 68.734ZM474.272 56.0125C474.272 49.9682 472.026 43.4175 464.652 43.4175C461.139 43.4175 457.184 45.158 455.981 47.2783V60.3796C455.981 65.9175 460.064 67.7213 464.399 67.7213C470.412 67.7213 474.272 63.5441 474.272 56.0125ZM491.772 38.9872V39.9049H489.241V46.7087H488.196V39.9049H485.633V38.9872H491.772ZM492.69 38.9872H494.177L496.329 45.5061L498.513 38.9872H499.969V46.7087H498.988V42.1517C498.966 41.9829 498.966 41.7192 498.988 41.3606C498.988 41.0019 498.988 40.6116 498.988 40.1897L496.836 46.7087H495.823L493.639 40.1897V40.4428C493.639 40.6327 493.639 40.9175 493.639 41.2973C493.661 41.677 493.671 41.9618 493.671 42.1517V46.7087H492.69V38.9872Z" fill="black"/>
</g>
<defs>
<clipPath id="clip0_39_345">
<rect width="500" height="87.9747" fill="white"/>
</clipPath>
</defs>
</svg>
