<svg width="500" height="462" viewBox="0 0 500 462" fill="none" xmlns="http://www.w3.org/2000/svg">
<g clip-path="url(#clip0_39_346)">
<path fill-rule="evenodd" clip-rule="evenodd" d="M486.526 461.558C479.146 461.558 473.21 455.622 473.21 448.241C473.21 440.892 479.146 434.925 486.526 434.925C493.876 434.925 499.843 440.892 499.843 448.241C499.843 455.622 493.876 461.558 486.526 461.558ZM497.801 447.739C497.801 441.489 492.745 436.464 486.526 436.464C480.276 436.464 475.251 441.489 475.251 447.739C475.251 453.957 480.276 459.014 486.526 459.014C492.745 459.014 497.801 453.957 497.801 447.739ZM483.448 455.936H481.407V440.578H486.526C490.107 440.578 491.646 442.085 491.646 444.661C491.646 447.236 490.107 448.241 488.065 448.775L492.651 455.433H490.609L486.526 448.775H483.448V455.936ZM486.024 447.205C488.568 447.205 490.609 447.205 490.609 444.661C490.609 442.588 489.07 442.085 487.029 442.085H483.448V447.205H486.024ZM44.5666 202.356L22.5503 217.714C6.65829 228.455 -1.00502 249.969 13.3166 270.477C27.1671 290.955 49.6859 291.489 66.0804 280.214L88.0967 264.824L75.8166 246.922L55.3392 261.244C47.6445 266.897 37.9083 263.819 33.2915 256.658C28.1721 249.466 28.706 239.73 36.9033 234.108L57.3806 219.755L44.5666 202.356ZM373.869 0C372.33 0 370.791 1.03643 369.755 1.53894C361.055 7.69472 354.397 16.897 362.092 27.6696C373.335 43.5616 396.388 21.0113 401.508 28.706C403.549 31.25 402.01 34.3279 398.43 36.9033C396.891 37.9083 394.849 37.9083 392.808 37.4058C391.269 36.9033 389.73 35.8668 388.693 34.3279L373.869 45.1005C383.072 58.4171 395.352 53.2977 406.124 46.1055C416.363 38.9447 425.063 28.1721 416.866 16.897C411.746 9.73618 406.124 8.73116 399.466 10.7726C386.652 14.8555 379.994 19.4724 377.952 16.3945C376.413 13.8505 376.916 11.2751 378.989 9.73618C381.03 8.19724 383.072 7.69472 384.611 8.19724C386.149 8.73116 386.652 9.23367 387.688 10.7726L404.585 0H461.935V168.562H262.217C234.045 168.562 193.09 181.344 193.09 230.025C193.09 276.633 235.082 289.447 262.217 289.447H461.432V460.553H242.242C121.388 460.553 0 379.617 0 230.025C0 80.4334 125.974 0 242.242 0H373.869ZM121.891 241.3L138.788 229.523C135.207 224.906 133.166 222.33 130.622 218.75L107.569 185.459L90.6721 197.236L108.072 222.864C108.574 223.367 115.766 231.564 107.569 237.72C102.45 241.3 97.8329 237.186 94.755 233.103L76.8216 206.972L59.9246 218.75L80.4334 248.461C87.0603 258.197 98.3354 259.736 108.072 253.078C113.693 248.964 116.771 244.378 117.808 237.186L121.891 241.3ZM128.046 171.137L111.652 182.381C115.232 186.997 117.274 189.573 119.849 193.153L142.871 225.942L159.799 214.165L142.368 188.536C141.866 188.034 134.705 179.837 142.871 173.681C147.99 170.1 152.607 174.215 155.685 178.298L173.618 204.428L190.515 192.651L173.084 167.023C172.582 166.52 165.421 158.323 173.618 152.167C178.737 148.587 183.354 152.67 186.401 156.784L204.334 182.915L221.231 171.137L199.717 143.467C193.059 133.731 181.815 132.192 172.079 138.85C165.421 143.467 161.84 150.628 162.343 158.323C156.721 154.209 148.524 155.747 143.405 159.328C136.746 163.945 132.632 170.1 133.668 178.298L128.046 171.137ZM211.526 113.254L195.132 124.529C198.712 129.114 200.754 131.69 203.329 135.27L226.382 168.059L243.279 156.281L225.848 130.653C225.345 130.151 218.185 121.954 226.382 115.798C231.501 112.217 236.087 116.332 239.165 120.415L257.098 146.545L273.995 134.768L256.595 109.139C256.062 108.637 248.901 100.44 257.098 94.2839C262.217 90.7035 266.834 94.8178 269.912 98.9007L287.814 125.031L304.742 113.254L284.234 83.5427C277.575 73.8065 266.332 72.2676 256.595 78.9259C249.937 83.5427 246.357 90.7035 246.859 98.3982C241.237 94.2839 233.04 95.8229 227.921 99.4033C221.263 104.02 217.148 110.176 218.185 118.373L211.526 113.254ZM326.225 99.4347L295.509 55.3706L278.612 66.6457L309.328 110.678L326.225 99.4347ZM290.389 47.7073L282.192 35.9296L265.295 47.7073L273.492 59.4849L290.389 47.7073ZM318.562 39.5101L301.633 51.2877C305.245 55.9045 307.286 58.4799 309.83 62.0603L332.883 94.8492L349.78 83.0716L332.381 57.4435C331.878 56.941 324.686 48.7437 332.883 42.5879C338.003 39.0075 342.619 43.0905 345.697 47.2048L363.599 73.3354L380.528 61.5578L360.019 31.8153C353.361 22.1106 342.117 20.5716 332.381 27.2299C326.727 31.3128 323.681 35.9296 322.644 43.0905L318.562 39.5101Z" fill="black"/>
</g>
<defs>
<clipPath id="clip0_39_346">
<rect width="500" height="461.683" fill="white"/>
</clipPath>
</defs>
</svg>
