<svg width="500" height="172" viewBox="0 0 500 172" fill="none" xmlns="http://www.w3.org/2000/svg">
<g clip-path="url(#clip0_39_355)">
<path d="M128.6 61.4586H124.147V108.527H128.6C133.654 108.527 135.423 106.33 135.423 100.027V69.9586C135.423 63.6212 133.654 61.4586 128.6 61.4586ZM201.724 57.9082C197.606 57.9082 195.768 60.6606 195.768 64.7892V104.051C195.768 108.168 197.606 110.956 201.724 110.956C205.875 110.956 207.749 108.168 207.749 104.051V64.7892C207.749 60.6606 205.864 57.9082 201.724 57.9082Z" fill="#233A7A"/>
<path d="M426.136 0.847656H0V59.1106H53.6602V111.406H0V170.097H427.038C427.038 170.097 500 170.352 500 82.0319C500 1.00956 426.136 0.847656 426.136 0.847656ZM163.305 98.5579C163.305 117.27 155.349 125.966 136.128 125.966H96.6578V44.1228L96.7503 44.0071H136.14C155.349 44.0071 163.317 52.7269 163.317 71.4386L163.305 98.5579ZM201.723 127.944C174.777 127.944 167.468 118.068 167.468 84.4258C167.468 50.7956 174.777 40.8962 201.723 40.8962C228.727 40.8962 236.059 50.7956 236.059 84.4258C236.059 118.068 228.727 127.944 201.723 127.944ZM288.632 125.423H252.168L234.093 43.4289H263.432L270.371 99.4715H270.579L277.796 43.4289H307.239L288.632 125.423ZM362.877 62.9386H337.4V75.1162H360.53V92.5789H337.4V105.878H362.877V125.423H309.495V43.4289H362.877V62.9386ZM438.395 125.423H410.801C408.327 125.423 406.765 123.087 406.765 119.432V101.391C406.765 94.3946 404.822 91.6422 399.63 91.6422H395.721V125.423H367.815V43.4289H411.01C427.131 43.4289 434.995 50.0902 434.995 66.1767C434.995 76.4808 429.397 83.038 420.308 84.0557V84.3217C426.09 84.9924 434.648 89.1211 434.648 99.2402V117.709C434.648 122.208 436.637 124.486 438.487 125.168" fill="#233A7A"/>
<path d="M399.537 59.2725H395.721V75.81H400.15C405.238 75.81 407.1 71.6698 407.1 66.9861C407.1 61.1112 403.77 59.2725 399.537 59.2725Z" fill="#233A7A"/>
</g>
<defs>
<clipPath id="clip0_39_355">
<rect width="500" height="171.2" fill="white"/>
</clipPath>
</defs>
</svg>
