<svg width="500" height="138" viewBox="0 0 500 138" fill="none" xmlns="http://www.w3.org/2000/svg">
<path d="M162.092 26.774L174.172 70.2356H149.149L162.092 26.774ZM140.127 100.679L129.135 136.732H193.398L183.063 100.679H140.127ZM307.858 0.719727H184.489V39.4356H223.411V136.732H286.043C282.178 134.349 255.599 113.247 255.599 73.8746C255.599 41.1425 275.463 9.12319 307.858 0.719727ZM329.241 101.899C343.797 101.899 355.483 89.8186 355.483 74.55C355.483 59.3749 344.529 45.6444 329.785 45.6444C314.967 45.6444 303.318 59.3749 303.318 74.55C303.318 89.8186 314.254 101.899 329.241 101.899ZM458.632 86.2171L433.59 0.719727H369.477V136.732H409.524V51.478H409.806L434.622 136.732H499.28V0.719727H458.876V86.2171H458.632ZM78.3202 136.732L89.8937 98.5972H46.9949V87.0612H93.4014L104.431 50.5026H46.9949V39.4356H107.62L119.324 0.719727H0.719727V136.732H78.3202Z" fill="#1175C7"/>
</svg>
