<svg width="500" height="94" viewBox="0 0 500 94" fill="none" xmlns="http://www.w3.org/2000/svg">
<g clip-path="url(#clip0_39_354)">
<path d="M485.336 13.0712C485.336 11.7692 485.662 10.5485 486.313 9.40921C486.964 8.26987 487.859 7.37154 488.998 6.71387C490.137 6.05621 491.364 5.72754 492.679 5.72754C493.975 5.72754 495.189 6.04987 496.328 6.69421C497.461 7.33887 498.359 8.23554 499.023 9.38454C499.681 10.5335 500.013 11.7625 500.013 13.0712C500.013 14.3669 499.691 15.5809 499.05 16.7139C498.409 17.8469 497.523 18.7452 496.39 19.4092C495.258 20.0732 494.021 20.4052 492.68 20.4052C491.332 20.4052 490.089 20.0682 488.949 19.3945C487.81 18.7209 486.921 17.8205 486.29 16.6942C485.652 15.5679 485.336 14.3602 485.336 13.0712ZM486.537 13.0712C486.537 14.1649 486.808 15.1822 487.348 16.1229C487.888 17.0635 488.633 17.8139 489.584 18.3739C490.535 18.9339 491.566 19.2139 492.68 19.2139C493.806 19.2139 494.844 18.9305 495.801 18.3642C496.752 17.7979 497.494 17.0442 498.021 16.1035C498.549 15.1629 498.812 14.1522 498.812 13.0712C498.812 11.9969 498.545 10.9862 498.012 10.0389C497.478 9.09154 496.739 8.33654 495.788 7.77321C494.844 7.21021 493.806 6.92854 492.68 6.92854C491.586 6.92854 490.561 7.20354 489.61 7.75387C488.653 8.30387 487.904 9.05587 487.357 10.0099C486.81 10.9639 486.537 11.9839 486.537 13.0712ZM495.912 11.3525C495.912 11.8929 495.762 12.3649 495.469 12.7685C495.17 13.1722 494.746 13.4912 494.193 13.7255L496.253 17.3682H494.3L492.621 14.1945H491.732V17.3682H489.994V8.79387H492.621C494.815 8.79387 495.912 9.64654 495.912 11.3525ZM491.732 12.7879H492.435C492.982 12.7879 493.402 12.6705 493.695 12.4362C493.988 12.2019 494.134 11.8795 494.134 11.4695C494.134 10.9942 493.985 10.6655 493.692 10.4832C493.392 10.3009 492.976 10.2099 492.435 10.2099H491.732V12.7879Z" fill="#9E1C33"/>
<path d="M66.0094 40.3333L69.009 26.3333H38.6774L41.344 14.3333H76.0087L79.0087 0H16.012L0.0126953 70.6667H65.0094L68.009 55.6667H32.3444L35.6774 40.3333H66.0094Z" fill="#9E1C33"/>
<path d="M150.338 40.3335C151.672 33.6669 152.672 27.3335 152.672 27.3335C156.671 5.33354 134.673 5.33354 120.673 5.0002C100.341 4.33354 83.0087 4.33354 76.6757 29.3335C76.6757 29.3335 73.3427 42.3335 72.676 52.3335C71.676 72.6669 93.3417 72.0002 105.008 72.6669C116.674 73.0002 124.007 70.6669 124.007 70.6669L143.339 93.3335H172.671L128.339 40.3335H150.338ZM127.673 28.3335C127.673 28.3335 126.006 40.3335 121.673 52.3335C119.673 58.0002 113.007 61.0002 108.007 61.0002C102.341 61.0002 96.0077 58.0002 97.6744 49.6669C97.6744 49.6669 99.341 38.3335 103.674 25.6669C103.674 25.6669 107.34 16.3335 117.34 17.0002C117.34 17.0002 130.006 15.0002 127.673 28.3335Z" fill="#9E1C33"/>
<path d="M211.002 8L200.669 53.6667C198.669 62 188.337 60.6667 188.337 60.6667C180.337 60.6667 180.337 53.3333 180.337 53.3333C182.004 44.3333 190.336 8.33333 190.336 8.33333H164.671C162.671 15.6667 156.338 44.6667 156.338 44.6667L180.003 72.3333C186.67 73.3333 192.67 73.3333 196.003 73.3333C215.668 72.3333 224.335 64.6667 226.001 59C227.668 53.3333 237.667 8.33333 237.667 8.33333H211.002L211.002 8Z" fill="#9E1C33"/>
<path d="M246.667 8L233.001 70.6667H258.666L272.999 8H246.667Z" fill="#9E1C33"/>
<path d="M329.329 31.6667H303.664L306.664 20H336.329L339.329 8H282.665L268.999 70.6667H294.998L301.331 43.6667H326.663L329.329 31.6667Z" fill="#9E1C33"/>
<path d="M454.323 8L437.99 24L427.991 8H394.659L415.325 39.3333L394.326 58.6667L387.993 8H356.661L312.33 70.6667H330.662L339.995 56.6667H367.327L368.661 70.3333H407.659L425.658 51.6667L436.657 70.3333H468.655L446.656 37L479.655 8H454.323ZM348.662 43.3333L362.994 22.6667L364.994 43.3333H348.662Z" fill="#9E1C33"/>
</g>
<defs>
<clipPath id="clip0_39_354">
<rect width="500" height="93.3333" fill="white"/>
</clipPath>
</defs>
</svg>
