<svg width="500" height="147" viewBox="0 0 500 147" fill="none" xmlns="http://www.w3.org/2000/svg">
<g clip-path="url(#clip0_39_349)">
<mask id="mask0_39_349" style="mask-type:luminance" maskUnits="userSpaceOnUse" x="0" y="0" width="500" height="147">
<path d="M0.0332031 0.0332031H499.771V146.774H0.0332031V0.0332031Z" fill="white"/>
</mask>
<g mask="url(#mask0_39_349)">
<path fill-rule="evenodd" clip-rule="evenodd" d="M486.164 64.0334C486.164 60.1973 489.246 57.0498 492.951 57.0498C496.721 57.0498 499.771 60.1973 499.771 64.0334C499.771 67.8367 496.721 70.9514 492.951 70.9514C489.246 70.9514 486.164 67.8367 486.164 64.0334ZM498.82 64.0334C498.82 60.7547 496.197 57.8039 492.951 57.8039C489.771 57.8039 487.115 60.7547 487.115 64.0334C487.115 67.2465 489.803 70.2301 492.951 70.2301C496.164 70.2301 498.82 67.2465 498.82 64.0334ZM489.771 60.1973H493.148C494.361 60.1973 495.541 60.7547 495.541 62.0334C495.541 63.1154 494.787 63.8695 493.902 64.1646L495.049 65.7711C495.639 66.558 496.295 67.2465 496.689 67.476V67.64H495.607C494.918 67.64 494.492 66.4596 493.016 64.3285H491.902V66.3285C491.902 67.2793 491.902 67.2465 492.918 67.3777V67.64H489.771V67.3777C490.754 67.2465 490.754 67.2793 490.754 66.3285V61.5416C490.754 60.5252 490.754 60.5908 489.771 60.4924V60.1973ZM491.902 63.9678H492.885C493.902 63.9678 494.426 63.3121 494.426 62.099C494.426 60.9514 493.672 60.558 492.787 60.558H491.902V63.9678Z" fill="#100F0D"/>
<path d="M324.984 0.0332031L413.64 0.06599L373.378 40.3283H323.673L336.558 27.4758H318.755L333.247 12.9512H311.902L324.984 0.0332031Z" fill="#EF2C30"/>
<path d="M311.87 12.9844L312.001 51.4106L296.689 66.8532V28.1647L311.87 12.9844Z" fill="#EF2C30"/>
<path fill-rule="evenodd" clip-rule="evenodd" d="M130.918 82.0007C130.918 79.7712 130.426 79.0171 129.672 78.4925C127.934 77.2794 123.803 78.0007 123.803 76.1318C123.803 74.263 129.803 73.64 133.279 71.9023C136.787 70.1319 137.541 67.9023 139.147 67.9023C140.164 67.9023 140.525 68.7876 140.525 69.64C140.525 71.1482 139.902 73.0171 139.902 75.2466C139.902 76.263 139.902 77.5089 140.656 77.5089C142.393 77.5089 146.885 73.3778 156.361 73.3778C178.229 73.3778 179.344 92.0007 179.344 94.9843C179.344 109.345 168.098 120.46 153.639 120.46C144.754 120.46 142.033 117.443 141.016 117.443C140.164 117.443 139.77 117.935 139.77 118.689V140.296C139.77 142.788 141.541 143.279 147.639 143.771C149.246 143.902 150.393 144.033 150.393 145.279C150.393 146.656 148.885 146.788 146.131 146.788C143.016 146.788 140.393 146.394 135.672 146.394C131.541 146.394 127.541 146.788 123.443 146.788C122.295 146.788 120.688 146.656 120.688 145.148C120.688 144.263 121.311 143.902 122.426 143.771C127.049 143.279 130.918 143.017 130.918 138.033V82.0007ZM139.41 108.853C139.41 114.329 149.016 117.443 152.885 117.443C162.754 117.443 171.607 110.591 171.607 98.2302C171.607 89.8696 165.475 78.1319 149.147 78.1319C148.033 78.1319 139.41 78.886 139.41 82.4925V108.853Z" fill="#100F0D"/>
<path fill-rule="evenodd" clip-rule="evenodd" d="M195.377 90.3614C195.115 91.1155 195.115 92.7548 195.115 94.722C195.115 105.214 198 115.574 213.213 115.574C222.82 115.574 223.082 110.591 225.082 110.591C225.705 110.591 226.197 110.952 226.197 111.574C226.197 112.46 220.951 121.542 207.967 121.542C194.262 121.542 186.394 111.837 186.394 96.2302C186.394 84.4925 193.639 69.9023 209.082 69.9023C223.443 69.9023 228.328 82.1319 228.328 87.5089C228.328 89.7384 227.935 90.3614 225.836 90.3614H195.377ZM220.066 80.4925C220.066 76.263 216.098 72.886 210.853 72.886C201.869 72.886 196.492 81.64 196.492 85.5089C196.492 86.3614 196.721 86.6237 207.344 86.6237C218.328 86.6237 220.066 84.9843 220.066 80.4925Z" fill="#100F0D"/>
<path fill-rule="evenodd" clip-rule="evenodd" d="M282.132 114.066C282.132 116.46 282.623 116.82 284.132 116.82C286.263 116.82 287.64 116.197 288.755 116.197C289.377 116.197 289.869 116.689 289.869 117.443C289.869 120.165 276.525 121.575 275.771 121.575C274.525 121.575 273.509 120.952 273.509 119.935C273.509 118.197 274.263 115.935 273.148 115.935C272.132 115.935 267.509 120.066 257.312 120.066C245.312 120.066 233.574 112.46 233.574 97.6073C233.574 83.5089 245.804 73.1483 259.279 73.1483C267.148 73.1483 270.656 76.0008 272.132 76.0008C273.377 76.0008 273.64 75.0171 273.64 73.5089V47.1811C273.64 42.427 266.263 44.2958 266.263 41.3122C266.263 39.5745 268.033 39.2139 269.541 39.2139H281.246C281.869 39.2139 282.492 39.7057 282.492 40.9516C282.492 45.804 282.132 51.804 282.132 57.2794V114.066ZM260.427 76.1319C248.82 76.1319 242.558 85.5089 242.558 95.8696C242.558 103.837 246.558 115.312 263.804 115.312C267.64 115.312 271.771 114.197 273.148 112.46C274.263 111.083 274.263 106.23 274.263 99.968C274.263 86.6237 273.771 76.1319 260.427 76.1319Z" fill="#100F0D"/>
<path fill-rule="evenodd" clip-rule="evenodd" d="M384.328 121.574C370.787 121.574 359.804 110.001 359.804 95.7384C359.804 81.4433 370.787 69.9023 384.328 69.9023C397.902 69.9023 408.853 81.4433 408.853 95.7384C408.853 110.001 397.902 121.574 384.328 121.574ZM399.377 95.7384C399.377 83.0827 392.656 72.886 384.328 72.886C376.033 72.886 369.312 83.0827 369.312 95.7384C369.312 108.361 376.033 118.558 384.328 118.558C392.656 118.558 399.377 108.361 399.377 95.7384Z" fill="#100F0D"/>
<path d="M12.2627 51.8036C12.2627 48.5577 11.0168 47.9348 6.39386 46.9512C2.52501 46.1971 0.918449 45.9348 0.918449 44.4266C0.918449 43.3118 2.65615 42.9512 4.52501 42.9512C9.14796 42.9512 19.3775 43.443 22.4922 43.443C26.2299 43.443 43.8365 42.9512 54.4594 42.9512C56.3283 42.9512 56.3283 44.3282 56.3283 46.9512V58.9184C56.3283 59.4102 55.8037 59.6725 55.3119 59.6725C53.7053 59.6725 53.9348 58.2954 51.9348 54.0331C50.066 49.6725 49.443 47.6725 28.2299 47.6725C23.7381 47.6725 22.984 49.3118 22.984 53.5413V75.1479C22.984 77.6397 24.8529 77.8692 29.2463 77.8692H40.0988C49.3119 77.8692 46.4594 67.1479 49.5742 67.1479C51.2135 67.1479 51.3119 68.2626 51.3119 69.6397C51.3119 72.5249 50.8201 74.2626 50.8201 80.1315C50.8201 85.3774 51.3119 88.7544 51.3119 92.2299C51.3119 93.3446 51.2135 94.361 49.9676 94.361C48.0988 94.361 47.9676 92.361 47.3447 88.7545C46.1971 82.2299 45.0824 81.3774 29.7381 81.3774C23.8693 81.3774 22.984 82.1315 22.984 84.6233V108.82C22.984 114.459 23.4758 115.082 37.9676 115.082C46.4594 115.082 49.3119 113.836 51.9348 110.82C57.9348 103.968 57.3119 100.722 59.443 100.722C60.5578 100.722 60.6889 101.345 60.6889 101.968C60.6889 102.459 60.2955 103.082 60.1971 103.968L57.8037 116.689C57.443 118.689 56.6889 119.312 54.9512 119.312H19.3775C5.5414 119.312 4.2955 119.804 3.01681 119.804C2.0332 119.804 0.0332031 119.804 0.0332031 118.328C0.0332031 116.459 2.26271 116.689 5.41025 115.836C8.65615 114.82 12.2627 115.443 12.2627 110.197V51.8036Z" fill="#100F0D"/>
<path d="M72.2959 77.0171C71.05 75.3778 69.9352 75.1482 68.6893 74.8859C67.1811 74.6237 66.2959 74.3941 66.2959 73.2794C66.2959 71.9023 68.0664 71.9023 69.05 71.9023C72.2959 71.9023 75.4107 72.1646 78.5254 72.1646C81.4107 72.1646 85.2795 71.9023 86.8861 71.9023C87.7713 71.9023 89.6402 72.0335 89.6402 73.2794C89.6402 74.3941 88.2631 74.5253 87.0172 74.8859C85.7713 75.2466 84.2631 75.7712 84.2631 77.3778C84.2631 78.7548 92.7549 90.0991 94.2631 90.0991C95.2467 90.0991 96.2631 88.8532 97.0172 87.6073L101.116 80.4925C101.739 79.5089 102.624 78.0007 102.624 76.5253C102.624 75.2466 101.116 75.1482 99.8697 74.8859C98.132 74.5253 97.1156 74.3941 97.1156 73.2794C97.1156 72.263 97.6402 71.9023 99.7385 71.9023C102.624 71.9023 105.378 72.1646 108.23 72.1646C110.722 72.1646 113.345 71.9023 115.87 71.9023C117.345 71.9023 119.476 72.0335 119.476 73.3778C119.476 74.7548 117.968 74.5253 116.46 74.8859C112.853 75.7712 109.87 76.7548 107.607 79.64L97.509 92.3614C97.3779 92.6237 97.0172 93.1155 97.0172 93.6073C97.0172 95.4761 107.116 107.345 108.624 109.345C111.345 112.952 112.591 114.952 116.984 116.82C118.722 117.574 119.706 117.935 119.706 119.05C119.706 119.804 117.968 119.804 116.722 119.804C114.853 119.804 110.722 119.312 106.624 119.312C103.607 119.312 100.624 119.804 98.9844 119.804C98.3943 119.804 96.2631 119.804 96.2631 118.558C96.2631 117.706 97.509 117.214 98.2631 116.82C100.132 115.968 101.378 115.214 101.378 114.197C101.378 113.574 99.3779 111.312 98.132 109.443L92.4926 101.476C92.2631 101.214 91.8697 100.984 91.6402 100.984C89.509 100.984 83.3779 110.197 83.3779 113.083C83.3779 114.558 84.5254 116.066 86.5254 116.82C87.7713 117.312 89.1484 117.837 89.1484 118.689C89.1484 119.804 87.7713 119.804 86.6566 119.804C84.6566 119.804 82.0336 119.312 78.2959 119.312C74.5254 119.312 71.9352 119.804 70.0336 119.804C68.9189 119.804 66.5582 119.706 66.5582 118.558C66.5582 117.574 67.8041 117.083 68.5582 116.82C71.1811 115.968 73.2795 114.952 74.9188 113.706C76.0336 112.82 88.5254 98.3614 88.5254 97.4761C88.5254 96.8532 88.0336 96.0991 87.509 95.4761L72.2959 77.0171Z" fill="#100F0D"/>
<path d="M312.033 112.197C312.033 115.935 313.902 115.706 317.05 116.82C318.033 117.181 319.902 117.181 319.902 118.46C319.902 119.804 317.902 119.804 316.787 119.804C313.542 119.804 310.427 119.312 307.181 119.312C303.673 119.312 300.296 119.804 296.82 119.804C295.804 119.804 294.427 119.804 294.427 118.46C294.427 117.935 294.82 117.181 296.689 116.82C301.705 115.837 303.542 114.689 303.542 109.837V83.1155C303.542 78.7548 297.574 80.7548 297.574 78.263C297.574 76.6237 300.951 77.0171 304.197 74.8859C310.296 70.8859 310.787 69.9023 311.673 69.9023C312.164 69.9023 312.558 70.0335 312.558 70.7876C312.558 72.8859 312.033 75.0171 312.033 77.1482V112.197Z" fill="#100F0D"/>
<path d="M342.131 77.6394C338.656 77.6394 338.262 78.623 338.262 82.623C338.262 89.3771 337.902 99.7049 337.902 106.721C337.902 111.836 339.902 114.82 346.525 114.82C351.738 114.82 351.738 113.443 354.262 113.443C355.115 113.443 355.639 113.836 355.639 114.689C355.639 115.934 352 120.328 342.918 120.328C333.541 120.328 329.18 116.82 329.18 107.475C329.18 98.8525 329.41 90.2295 329.41 80.4918C329.41 78.7541 328.787 78.3935 326.656 78.3935H323.934C323.541 78.3935 322.918 78.1312 322.918 77.3771C322.918 75.3771 328.918 74.3935 332.033 70.8853C336.787 65.6722 335.77 63.541 337.639 63.541C339.147 63.541 339.147 64.5246 339.147 65.9017V70.5246C339.147 71.6394 339.41 72.164 341.147 72.164H354.623C355.869 72.164 356.885 72.3935 356.885 74.8853C356.885 76.5246 356.754 77.6394 354.754 77.6394H342.131Z" fill="#100F0D"/>
<path d="M426.722 110.82C426.722 114.82 428.197 116.82 437.443 116.82C438.066 116.82 439.05 117.083 439.05 118.46C439.05 119.706 437.574 119.804 436.197 119.804C432.459 119.804 428.591 119.312 424.853 119.312C420.984 119.312 417.115 119.804 413.246 119.804C412.361 119.804 410.492 119.574 410.492 118.329C410.492 117.706 410.984 116.952 411.377 116.82C416.099 115.706 418.23 115.706 418.23 106.591V87.2466C418.23 79.3778 413.345 80.3614 413.345 78.1319C413.345 77.0171 416.099 76.3941 418.361 74.3941C421.738 71.3777 423.476 67.9023 425.115 67.9023C426.099 67.9023 426.591 68.5253 426.591 69.4105V73.0171C426.591 75.0171 426.591 76.263 427.574 76.263C429.082 76.263 433.705 69.9023 439.935 69.9023C442.558 69.9023 447.181 70.8859 447.181 75.5089C447.181 80.0007 443.181 81.1155 440.82 81.1155C437.935 81.1155 434.951 78.263 432.459 78.263C428.328 78.263 426.722 82.3941 426.722 86.1319V110.82Z" fill="#100F0D"/>
<path d="M451.968 110.329C451.968 107.968 452.099 106.46 453.476 106.46C454.46 106.46 454.951 108.591 455.476 109.706C455.837 110.591 459.214 118.066 466.328 118.066C471.312 118.066 476.328 115.574 476.328 109.706C476.328 98.5909 452.722 98.8532 452.722 84.2302C452.722 77.2466 456.951 69.9023 468.197 69.9023C481.41 69.9023 481.542 71.9023 481.542 77.5089C481.542 82.3941 481.41 83.2466 480.427 83.2466C476.82 83.2466 477.935 73.3778 468.066 73.3778C463.345 73.3778 459.968 76.263 459.968 81.0171C459.968 90.3614 484.787 94.1319 484.787 106.952C484.787 113.181 480.787 121.574 467.312 121.574C463.705 121.574 451.968 121.05 451.968 116.558V110.329Z" fill="#100F0D"/>
</g>
</g>
<defs>
<clipPath id="clip0_39_349">
<rect width="500" height="146.885" fill="white"/>
</clipPath>
</defs>
</svg>
