<svg width="500" height="103" viewBox="0 0 500 103" fill="none" xmlns="http://www.w3.org/2000/svg">
<path fill-rule="evenodd" clip-rule="evenodd" d="M486.344 85.2754L482.034 100.206H407.137L407.931 85.7237H389.275L382.275 100.206H336.413L329.827 58.2064L329.482 58.4133L319.655 100.206H239.275L256.517 40.2064H240.379L223.137 100.206H199.344L216.586 40.2064H202.551C202.517 42.5512 202 45.0685 201.034 47.7581H179.137C180.137 43.3788 182.103 37.4133 174.31 36.9995C169.482 36.6892 166.069 38.6892 164.551 41.9995C162.586 46.4823 165.069 48.7581 169.206 51.1719C176.965 55.3443 183.931 57.9306 188.379 61.7237C192.827 65.5168 194.62 70.5168 192.034 79.5857C187.896 93.9306 174.793 101.931 155.034 101.931C141.034 101.931 133.31 98.2064 130.344 92.9306L130.379 100.206H106.31L107.103 85.7581H88.4478L81.4478 100.206H57.5513L82.103 58.034H44.034L31.9306 100.206H0.275391L28.965 0.275391H103.517L97.7582 20.3099H54.8616L49.7926 37.9995H89.2409L84.8271 53.4133L101.241 25.2409H129.896L130.241 80.4133L131.793 75.103L153.827 75.0685L152.31 80.3444C151.069 84.6547 151.862 88.4478 159.379 88.4478C164.965 88.4478 168.517 84.7581 169.586 80.965C171.379 74.6892 164.965 72.3099 159.517 69.5168C153.068 66.4133 147.689 63.5168 144.31 59.7237C141.068 55.9306 139.827 51.3788 141.724 44.7926C145.758 30.7237 159.31 23.5168 177.758 23.5168C189.344 23.5168 196.827 26.6892 200.31 31.9306L202.206 25.2409H315.275L310.965 40.2064H280.31L276.275 54.1375H306L301.724 69.103H272L267.344 85.2754H301.31L318.551 25.2409H343.103L349.62 67.1375H350L359.724 25.2409H382.31L363.103 92.034L402.068 25.2409H430.689L431.137 93.4478L450.758 25.2409H474.517L457.275 85.2754H486.344ZM111.655 38.8616H111.413L94.8271 72.5512H108.62L111.655 38.8616ZM412.482 38.8616H412.206L395.62 72.5857H409.413L412.482 38.8616Z" fill="#1A64B7"/>
<path fill-rule="evenodd" clip-rule="evenodd" d="M496.379 35.6199H495.137L493.206 32.4475H491.931V35.6199H490.827V28.3096H493.62C495.344 28.3096 496.206 28.9303 496.206 30.3785C496.206 31.6889 495.379 32.2406 494.31 32.413L496.379 35.6199ZM493.241 31.5165C494.172 31.5165 495.034 31.4475 495.034 30.3096C495.034 29.413 494.206 29.2406 493.413 29.2406H491.896V31.5165H493.241Z" fill="#1A64B7"/>
<path fill-rule="evenodd" clip-rule="evenodd" d="M499.69 31.9649C499.69 35.6201 496.724 38.2753 493.276 38.2753C489.759 38.2753 486.793 35.6201 486.793 31.9649C486.793 28.3098 489.759 25.6201 493.276 25.6201C496.724 25.6201 499.69 28.3098 499.69 31.9649ZM498.414 31.9649C498.414 28.9305 496.138 26.6891 493.276 26.6891C490.345 26.6891 488.069 28.9305 488.069 31.9649C488.069 34.9994 490.345 37.2408 493.276 37.2408C496.138 37.2408 498.414 34.9994 498.414 31.9649Z" fill="#1A64B7"/>
</svg>
