<svg width="500" height="184" viewBox="0 0 500 184" fill="none" xmlns="http://www.w3.org/2000/svg">
<g clip-path="url(#clip0_39_351)">
<path d="M289.536 0V25.3979H252.285V42.3298H289.536V66.0345H252.285V89.7392H289.536V115.137H225.194V0H289.536ZM323.4 115.137H289.536L321.706 77.8869L289.536 42.3298H323.4L340.331 59.2618L355.57 42.3298H389.434L355.57 77.8869L389.434 115.137H353.877L338.638 96.512L323.4 115.137Z" fill="#FF6600"/>
<path d="M480.19 143.752L480.359 147.985C482.391 144.599 485.439 143.075 489.672 143.075C497.46 143.075 500 147.139 500 154.419V172.536H496.444V155.774C496.444 150.525 495.259 145.953 489.164 145.953C482.729 145.953 480.528 151.71 480.528 157.298V172.536H476.973V152.218C476.973 149.509 476.973 146.461 476.803 143.752H480.19ZM456.654 173.214C448.019 173.214 443.278 166.441 443.278 158.144C443.278 149.848 448.019 143.075 456.654 143.075C465.459 143.075 470.2 149.848 470.2 158.144C470.2 166.441 465.459 173.214 456.654 173.214ZM456.654 170.674C463.596 170.674 466.475 164.409 466.475 158.144C466.475 151.879 463.596 145.615 456.654 145.615C449.881 145.615 447.003 151.879 447.003 158.144C447.003 164.409 449.881 170.674 456.654 170.674ZM432.442 135.625V131.392H436.675V135.625H432.442ZM432.78 172.536V143.752H436.336V172.536H432.78ZM423.976 173.214C419.912 173.214 417.88 170.843 417.88 166.61V146.461H413.309V143.752H417.88V137.826L421.436 136.302V143.752H427.87V146.461H421.436V165.086C421.436 169.15 422.113 170.335 424.992 170.335C426.177 170.335 427.531 169.997 428.039 169.658V172.536C426.854 172.875 425.838 173.214 423.976 173.214ZM406.366 172.536C406.197 171.182 406.028 170.166 406.028 168.642C403.827 172.028 400.948 173.214 396.377 173.214C391.128 173.214 386.387 170.505 386.387 164.748C386.387 156.451 395.191 155.097 402.303 155.097C403.657 155.097 404.673 155.266 405.52 155.266V153.065C405.52 148.154 403.657 145.615 398.578 145.615C394.853 145.615 392.144 147.139 391.805 151.202H388.249C388.419 144.937 393.667 143.075 398.578 143.075C405.689 143.075 409.076 144.937 409.076 152.049V161.869C409.076 166.272 409.245 168.981 409.753 172.536H406.366ZM405.52 157.806H402.811C398.07 157.806 390.112 157.975 390.112 164.578C390.112 168.642 393.329 170.674 397.054 170.674C402.811 170.674 405.52 167.288 405.52 160.515V157.806ZM383.678 146.292C377.921 146.292 376.058 151.202 376.058 156.282V172.536H372.503V152.218C372.503 149.34 372.503 146.461 372.333 143.752H375.72L376.058 147.816C377.751 144.599 380.63 143.075 384.355 143.075H386.048V146.631C385.201 146.461 384.524 146.292 383.678 146.292ZM352.184 173.214C343.549 173.214 338.808 166.441 338.808 158.144C338.808 149.848 343.549 143.075 352.184 143.075C360.989 143.075 365.73 149.848 365.73 158.144C365.73 166.441 360.989 173.214 352.184 173.214ZM352.184 170.674C359.126 170.674 362.005 164.409 362.005 158.144C362.005 151.879 359.126 145.615 352.184 145.615C345.411 145.615 342.533 151.879 342.533 158.144C342.533 164.409 345.411 170.674 352.184 170.674ZM312.394 183.204H309.008V152.218C309.008 149.34 309.008 146.461 308.838 143.583H312.225L312.394 147.985C314.595 144.599 317.304 142.906 321.707 142.906C330.511 142.906 334.236 150.356 334.236 157.975C334.236 165.764 330.511 173.044 321.707 173.044C317.643 173.044 314.595 171.52 312.394 168.303V183.204ZM330.681 157.975C330.681 151.879 328.141 145.784 321.199 145.784C314.765 145.784 312.394 151.202 312.394 157.975C312.394 164.917 314.765 170.166 321.199 170.166C328.141 170.166 330.681 164.24 330.681 157.975ZM302.912 146.292C297.325 146.292 295.293 151.202 295.293 156.282V172.536H291.737V152.218C291.737 149.34 291.737 146.461 291.568 143.752H294.954L295.293 147.816C296.986 144.599 299.865 143.075 303.59 143.075H305.283V146.631C304.436 146.461 303.759 146.292 302.912 146.292ZM271.25 173.214C262.614 173.214 257.873 166.441 257.873 158.144C257.873 149.848 262.614 143.075 271.25 143.075C280.054 143.075 284.795 149.848 284.795 158.144C284.795 166.441 280.054 173.214 271.25 173.214ZM271.25 170.674C278.192 170.674 281.07 164.409 281.07 158.144C281.07 151.879 278.192 145.615 271.25 145.615C264.477 145.615 261.598 151.879 261.598 158.144C261.598 164.409 264.477 170.674 271.25 170.674ZM240.603 169.997C244.836 169.997 249.407 167.626 250.254 163.224H254.318C252.794 169.489 247.376 173.044 240.603 173.044C228.073 173.044 222.994 163.393 222.994 151.879C222.994 140.196 228.073 130.545 240.603 130.545C247.376 130.545 252.794 134.101 254.318 140.366H250.254C249.407 136.133 244.836 133.593 240.603 133.593C230.444 133.593 226.888 143.075 226.888 151.879C226.888 160.684 230.444 169.997 240.603 169.997ZM198.781 0V47.0708H198.612C192.685 40.298 185.235 37.9275 176.431 37.9275C158.822 37.9275 145.445 49.9492 140.874 65.8652C135.455 48.256 121.741 37.5889 101.253 37.5889C84.6597 37.5889 71.6221 44.8696 64.8493 57.0606V41.9912H30.4775V25.5672H67.897V0H0V114.968H30.4775V66.7118H60.955C60.1084 70.2675 59.6004 73.9925 59.6004 78.0562C59.6004 101.93 77.8869 118.862 101.253 118.862C120.894 118.862 133.932 109.55 140.704 92.787H114.629C111.073 97.8666 108.364 99.3904 101.253 99.3904C93.1256 99.3904 86.0142 92.1097 86.0142 83.6438H139.35C141.551 102.777 156.451 119.201 176.769 119.201C185.574 119.201 193.701 114.799 198.612 107.518H198.781V114.968H225.703V0H198.781ZM86.8608 67.0505C88.554 59.7697 94.1415 54.8595 101.253 54.8595C109.042 54.8595 114.46 59.6004 115.814 67.0505H86.8608ZM182.526 97.5279C172.536 97.5279 166.441 88.2154 166.441 78.5642C166.441 68.2357 171.859 58.4152 182.526 58.4152C193.701 58.4152 198.104 68.2357 198.104 78.5642C198.104 88.3847 193.363 97.5279 182.526 97.5279Z" fill="#652C8F"/>
</g>
<defs>
<clipPath id="clip0_39_351">
<rect width="500" height="183.204" fill="white"/>
</clipPath>
</defs>
</svg>
