<svg width="500" height="22" viewBox="0 0 500 22" fill="none" xmlns="http://www.w3.org/2000/svg">
<g clip-path="url(#clip0_39_331)">
<path d="M11.5613 21.5415C5.23715 21.5415 0 17.2925 0 10.7708C0 4.24901 5.23715 0 11.5613 0H31.0277V5.13834H13.6364C10.2767 5.13834 7.31225 7.11462 7.31225 10.7708C7.31225 14.4269 10.2767 16.3043 13.6364 16.3043H24.0119V12.8458H16.3043V8.20158H31.1265V21.5415H11.5613ZM35.7708 21.5415V0H60.5731V5.13834H42.8854V8.20158H60.5731V12.9447H42.8854V16.4032H60.5731V21.5415H35.7708ZM86.3636 21.5415L71.8379 4.74308H71.7391V21.5415H64.9209V0H76.087L88.1423 14.0316H88.2411V0H94.7628V21.5415H86.3636ZM99.5059 21.5415V0H124.308V5.13834H106.621V8.20158H124.308V12.9447H106.621V16.4032H124.308V21.5415H99.5059ZM152.075 14.1304C153.953 16.6008 155.83 19.0711 157.609 21.5415H149.506L144.664 14.8221H135.771V21.5415H128.656V0H148.913C153.656 0 158.103 2.17391 158.103 7.50988C158.103 11.2648 155.632 13.3399 152.075 14.1304ZM147.431 4.8419H135.771V9.98024H147.431C149.012 9.98024 150.593 9.28854 150.593 7.41107C150.692 5.5336 149.111 4.8419 147.431 4.8419Z" fill="#00338E"/>
<path d="M189.229 21.5415L186.561 17.3913H169.763L167.292 21.5415H159.189L173.32 0H183.794L197.826 21.5415H189.229ZM178.458 3.85375H178.261L173.023 12.253H183.794L178.458 3.85375ZM200 21.5415V0H207.114V16.4032H224.604V21.5415H200ZM263.34 21.5415H242.885V0H263.34C269.664 0 274.901 4.24901 274.901 10.7708C274.901 17.2925 269.565 21.5415 263.34 21.5415ZM261.265 5.13834H250V16.3043H261.265C264.624 16.3043 267.589 14.4269 267.589 10.7708C267.589 7.11462 264.723 5.13834 261.265 5.13834ZM294.664 14.0316V21.5415H287.549V14.1304L273.616 0H282.806L291.502 8.59684L300.197 0H308.695L294.664 14.0316ZM331.818 21.5415L317.786 6.52174H317.687V21.5415H310.869V0H320.751L333.695 14.0316H333.794V0H340.316V21.5415H331.818Z" fill="#00338E"/>
<path d="M372.134 21.5415L369.466 17.3913H352.668L350.197 21.5415H342.095L356.225 0H366.699L380.731 21.5415H372.134ZM361.265 3.85375H361.067L355.83 12.253H366.601L361.265 3.85375ZM415.217 21.5415V5.23715H415.02L405.83 21.5415H398.913L389.921 5.23715H389.723V21.5415H382.905V0H394.269L402.47 15.1186H402.569L410.771 0H421.937V21.5415H415.217ZM426.68 0H433.794V21.5415H426.68V0ZM449.111 21.5415C442.885 21.5415 437.549 17.2925 437.549 10.7708C437.549 4.24901 442.786 0 449.111 0H466.798V5.13834H451.186C447.826 5.13834 444.862 7.11462 444.862 10.7708C444.862 14.4269 447.826 16.3043 451.186 16.3043H466.798V21.4427H449.111V21.5415ZM492.885 21.5415H471.344V16.6008H490.514C491.601 16.6008 492.786 16.3043 492.786 15.0198C492.786 13.7352 491.699 13.4387 490.514 13.4387H477.569C473.814 13.4387 470.948 10.4743 470.948 6.71937C470.948 2.96443 473.814 0 477.569 0H499.209V4.94071H479.842C478.854 4.94071 477.964 5.33597 477.964 6.42292C477.964 7.50988 478.854 7.90514 479.842 7.90514H492.786C496.739 7.90514 500 10.6719 500 14.7233C500 18.7747 496.838 21.5415 492.885 21.5415Z" fill="#00338E"/>
</g>
<defs>
<clipPath id="clip0_39_331">
<rect width="500" height="21.5415" fill="white"/>
</clipPath>
</defs>
</svg>
