<svg width="500" height="112" viewBox="0 0 500 112" fill="none" xmlns="http://www.w3.org/2000/svg">
<g clip-path="url(#clip0_39_353)">
<path fill-rule="evenodd" clip-rule="evenodd" d="M31.6332 0H38.2503C42.608 0.29051 47.0625 0.0645577 51.3556 1.00065C54.7771 1.64622 58.1341 3.48612 59.9095 6.58489C62.5241 11.0394 62.6532 16.43 62.6855 21.4655C57.9082 21.4655 53.1309 21.4655 48.3536 21.4655C48.1922 19.5933 48.1922 17.3015 46.6106 16.0103C45.1903 14.9774 43.3504 14.7837 41.6396 14.6869C35.087 14.7192 28.5344 14.5255 21.9818 14.6223C19.7545 14.6869 17.5273 15.8167 16.5267 17.8502C15.2355 20.5294 15.2355 23.5636 15.1709 26.4687C15.1709 29.8257 15.1387 33.1504 15.1709 36.4751C15.3001 39.0575 15.526 41.8012 17.0108 44.0284C18.3988 46.062 20.9166 46.9981 23.2729 47.1917C27.9857 47.5791 32.7307 47.224 37.4434 47.45C39.3478 47.45 41.2846 47.5468 43.189 47.224C44.803 46.9658 46.4492 46.1911 47.353 44.7385C48.4827 42.8341 48.4827 40.5746 48.3859 38.4442C42.2529 38.3796 36.0877 38.4119 29.9224 38.4119C29.9224 34.6245 29.9224 30.8263 29.9224 27.0174C40.8757 27.0174 51.829 27.0174 62.7823 27.0174C62.7823 32.3434 62.7823 37.6372 62.7823 42.9309C62.6209 46.6107 62.2981 50.3873 60.9747 53.8412C59.974 56.5526 58.0696 58.9735 55.455 60.2324C51.872 62.04 47.7726 61.7495 43.8669 61.8141C38.5086 61.8786 33.1503 61.7495 27.7597 61.7172C22.466 61.5236 17.0108 61.9755 11.8462 60.4261C9.13479 59.6514 6.58475 58.102 4.87397 55.8425C1.87204 51.8722 1.06506 46.7721 0.677718 41.9626C0.354929 35.8296 0.32265 29.6966 0.516323 23.5636C0.677718 19.3351 0.968228 15.042 2.2271 10.9748C3.16319 7.97289 4.87397 5.10006 7.5854 3.357C11.1038 1.03292 15.4937 0.516462 19.6577 0.355068C23.6603 0.225952 27.6629 0.225952 31.6332 0ZM445.287 0H458.651C462.556 0.193673 466.494 0.29051 470.368 0.936088C472.434 1.29116 474.5 2.13041 476.081 3.58296C478.276 5.48741 479.438 8.32795 480.116 11.1362C480.891 14.6546 481.117 18.3344 481.117 21.9496C476.382 21.9496 471.648 21.9496 466.914 21.9496C466.946 20.2066 466.785 18.3344 465.72 16.8819C464.654 15.5907 462.879 15.2034 461.265 15.042C456.004 14.6223 450.71 14.9774 445.416 14.9451C442.963 15.0097 440.252 15.042 438.154 16.5591C436.152 18.1085 435.7 20.8199 435.474 23.2085C435.184 27.8567 435.216 32.5048 435.442 37.1207C435.603 39.4771 435.829 42.0271 437.314 43.9316C438.896 45.8683 441.51 46.3525 443.835 46.6107C448.999 46.9658 454.164 46.9658 459.296 46.8044C461.427 46.8367 463.88 46.8367 465.461 45.2227C467.204 43.2537 467.237 40.4777 467.334 37.9923C472.111 37.9923 476.899 37.9923 481.698 37.9923C481.698 42.7695 481.859 47.6436 480.6 52.2918C479.922 54.8096 478.567 57.2305 476.372 58.6507C473.693 60.4261 470.465 60.9103 467.366 61.2653C458.683 62.04 449.968 61.7818 441.285 61.5881C437.282 61.459 433.118 61.2976 429.438 59.5868C426.791 58.3925 424.693 56.1653 423.467 53.5507C421.175 48.7411 421.013 43.3183 420.755 38.0891C420.465 31.8593 420.368 25.5972 420.917 19.3673C421.368 14.8483 422.208 10.1033 425.016 6.39122C427.017 3.77663 430.019 2.06585 433.183 1.25888C437.121 0.225952 441.252 0.225952 445.287 0ZM73.5957 0.58102C91.4137 0.58102 109.221 0.58102 127.017 0.58102C127.017 5.1969 127.017 9.81278 127.017 14.4287C114.106 14.4609 101.194 14.4287 88.2826 14.4609C88.2826 17.861 88.2826 21.2718 88.2826 24.6933C100.333 24.6933 112.384 24.6933 124.435 24.6933C124.435 28.6959 124.467 32.7308 124.403 36.7334C112.363 36.7011 100.323 36.7334 88.2826 36.7334C88.2826 40.2841 88.2826 43.8347 88.2826 47.3531C101.194 47.3854 114.106 47.3531 127.017 47.3854C127.017 51.969 127.017 56.5634 127.017 61.1685C109.232 61.1685 91.4137 61.1362 73.628 61.1685C73.5635 40.9619 73.5957 20.7876 73.5957 0.548741V0.58102ZM137.605 0.613299C145.319 0.58102 153.066 0.613299 160.813 0.58102C170.4 15.6875 179.955 30.7941 189.542 45.8683C189.574 30.7618 189.541 15.6875 189.574 0.613299C194.136 0.613299 198.709 0.613299 203.292 0.613299C203.26 20.7876 203.292 40.9942 203.26 61.2008C195.535 61.2008 187.798 61.2008 180.051 61.2008C170.529 46.0943 160.91 31.02 151.42 15.8812C151.356 30.9877 151.42 46.0943 151.388 61.2008C146.804 61.2008 142.188 61.2008 137.605 61.2008C137.572 40.9942 137.605 20.7876 137.605 0.613299ZM215.72 0.613299C233.495 0.613299 251.269 0.613299 269.044 0.613299C269.044 5.22918 269.044 9.84506 269.044 14.4609C256.133 14.4932 243.221 14.4609 230.31 14.4932C230.31 17.8933 230.31 21.3041 230.31 24.7256C242.361 24.7256 254.411 24.7256 266.462 24.7256C266.462 28.7282 266.43 32.7308 266.494 36.7334C254.422 36.7979 242.382 36.7334 230.31 36.7657C230.31 40.2841 230.342 43.8347 230.31 47.3854C243.221 47.4177 256.133 47.3854 269.044 47.4177C269.044 52.0013 269.044 56.5957 269.044 61.2008C251.269 61.2008 233.495 61.2008 215.72 61.2008C215.698 40.9942 215.698 20.7876 215.72 0.58102V0.613299ZM279.696 61.2331C279.696 41.0265 279.696 20.8199 279.696 0.613299C295.018 0.613299 310.351 0.624059 325.694 0.645578C329.6 0.742414 333.86 1.61394 336.507 4.745C339.477 8.2634 339.993 13.073 340.219 17.4952C340.219 22.5952 340.445 28.0504 337.992 32.6985C336.378 35.6682 333.021 36.7979 330.052 37.96C332.924 38.4119 336.088 39.3157 337.798 41.8657C339.671 44.5126 339.703 47.9342 339.671 51.0652C339.671 54.4437 339.671 57.833 339.671 61.2331C334.7 61.2331 329.761 61.2331 324.822 61.2331C324.79 58.2957 324.822 55.326 324.79 52.3564C324.693 50.6133 324.564 48.6443 323.402 47.224C322.337 46.062 320.691 45.7715 319.238 45.7392C310.932 45.7392 302.625 45.7392 294.319 45.7392C294.319 50.9038 294.286 56.0684 294.319 61.2008C289.445 61.2653 284.571 61.2331 279.696 61.2331ZM294.319 15.397C294.319 20.5617 294.319 25.7263 294.319 30.8909C302.087 30.8909 309.866 30.8909 317.656 30.8909C319.625 30.8909 321.82 31.02 323.596 29.9225C325.371 28.6637 325.371 26.2427 325.468 24.2737C325.371 21.8851 325.823 19.2382 324.403 17.1724C323.144 15.6553 321.046 15.4939 319.238 15.397C310.932 15.397 302.625 15.397 294.319 15.397ZM372.208 0.645578C378.771 0.624059 385.345 0.624059 391.93 0.645578C400.645 20.8306 409.35 41.0265 418.044 61.2331C412.653 61.2331 407.295 61.2331 401.904 61.2653C400.355 57.6178 398.902 53.9057 397.353 50.2582C387.088 50.2582 376.824 50.2582 366.559 50.2582C364.977 53.9057 363.46 57.6178 361.814 61.2331C356.391 61.2008 350.968 61.2653 345.545 61.2331C354.433 41.0265 363.32 20.8306 372.208 0.645578ZM371.659 37.6695C378.459 37.6695 385.259 37.6695 392.059 37.6695C388.659 29.7504 385.27 21.8313 381.891 13.9122C378.405 21.7882 375.113 29.7611 371.659 37.6695ZM491.381 0.87153C493.705 0.0968367 496.481 0.710136 498.128 2.58231C500.097 4.61588 500.355 8.06972 498.741 10.4261C497.353 12.4597 494.706 13.5894 492.285 13.1052C489.606 12.621 487.411 10.2001 487.185 7.52098C486.895 4.68044 488.702 1.77534 491.381 0.87153ZM491.414 1.87218C489.574 2.64687 488.25 4.51904 488.089 6.48806C487.831 9.48999 490.51 12.3951 493.512 12.266C496.514 12.3305 499.225 9.52227 498.87 6.52034C498.806 2.93738 494.642 0.419626 491.414 1.87218ZM490.897 3.13105C492.511 3.19561 494.254 2.87282 495.804 3.58296C497.288 4.42221 496.707 6.84312 495.093 7.13363C495.578 8.23112 496.159 9.29632 496.675 10.3938C496.137 10.3938 495.599 10.3938 495.061 10.3938C494.577 9.39316 494.093 8.36023 493.609 7.32731C493.178 7.32731 492.759 7.32731 492.35 7.32731C492.328 8.33871 492.328 9.36088 492.35 10.3938C491.855 10.3938 491.371 10.3938 490.897 10.3938C490.876 7.98365 490.876 5.56273 490.897 3.13105ZM492.35 4.09942C492.328 4.85259 492.328 5.60577 492.35 6.35894C493.124 6.32666 494.028 6.52034 494.771 6.13299C495.449 5.71336 495.287 4.48677 494.512 4.26081C493.802 4.03486 493.06 4.09942 492.35 4.09942Z" fill="#231F20"/>
<path d="M1.64622 88.8961C161.717 82.5372 321.788 76.1782 481.859 69.8516C481.795 83.6669 481.892 97.5146 481.795 111.362H480.6C477.179 111.007 473.757 111.039 470.336 110.846C377.157 107.101 283.968 103.368 190.768 99.645C127.243 97.0627 63.6862 94.5772 0.129116 91.9626C0.0645578 90.9942 0.451904 89.929 0 88.993V88.8638C0.548741 88.8961 1.09748 88.8961 1.64622 88.8961Z" fill="#F36C21"/>
</g>
<defs>
<clipPath id="clip0_39_353">
<rect width="500" height="111.362" fill="white"/>
</clipPath>
</defs>
</svg>
