<svg width="500" height="500" viewBox="0 0 500 500" fill="none" xmlns="http://www.w3.org/2000/svg">
<path d="M249.98 495C385.32 495 495 385.32 495 250.02C495 114.72 385.32 5 249.98 5C114.68 5 5 114.72 5 250.02C5 385.32 114.68 495 249.98 495Z" fill="white"/>
<path d="M304.96 186.21C304.96 158.35 323.82 131.33 334.11 136.42C345.84 142.3 325.32 168.54 304.96 186.21ZM176.71 196.36C176.71 173.96 198.81 131.4 212.31 135.9C228.27 141.22 199.09 184.15 176.71 196.36ZM154.3 356.56C144.14 357.02 137.34 350.52 137.34 339.67C137.34 310.52 177.79 282.67 208.34 267.72C202.92 308.42 189.17 354.99 154.3 356.56ZM340.92 261.57C317.85 261.57 300.22 278.54 300.22 298.89C300.22 315.86 310.42 329.43 323.95 329.43C328.74 329.43 333.48 326.7 333.48 320.64C333.48 311.77 321.78 309.64 322.66 296.45C323.25 287.75 331.45 281.93 339.59 281.93C355.86 281.93 363.47 297.7 363.47 313.97C362.81 339.1 344.31 356.55 322.63 356.55C294.11 356.55 275.79 329.43 275.79 300.24C275.79 256.78 304.31 239.82 319.25 235.77C319.39 235.77 358.27 242.68 357.06 225.54C356.5 218 345.29 215.1 337.19 214.79C328.18 214.44 319.08 217.68 319.08 217.68C314.36 215.28 311.08 210.59 309.05 205.19C336.88 184.13 356.56 163.79 356.56 140.71C356.56 128.5 348.4 117.64 332.79 117.64C304.96 117.64 283.92 152.93 283.92 184.83C283.92 190.24 283.92 195.69 285.32 200.43C267.66 213.31 254.53 221.34 230.8 235.59C230.8 232.62 231.42 224.95 233.42 215.03C241.55 206.2 252.72 192.97 252.72 182.78C252.72 178.04 250.03 173.95 244.55 173.95C231 173.95 220.84 194.33 218.12 208.58C212.01 216.08 199.79 225.58 189.59 225.58C181.46 225.58 178.73 218.11 178.04 215.38C203.84 206.55 235.74 171.26 235.74 139.36C235.74 132.59 233.02 117.64 212.67 117.64C182.13 117.64 156.37 163.13 156.37 198.38C145.48 198.38 141.43 186.86 141.43 178.03C141.43 169.19 144.82 160.4 144.82 157.67C144.82 154.95 143.46 151.57 139.37 151.57C129.21 151.57 123.1 165.14 123.1 180.75C123.8 202.47 138.04 216.08 157.03 217.41C159.75 230.32 171.27 242.54 185.51 242.54C194.35 242.54 205.2 239.82 212.67 233.05C212.01 237.79 211.35 241.88 210.65 245.93C180.77 261.57 159.05 272.42 139.37 290.06C123.8 304.33 114.97 323.32 114.97 338.23C114.97 358.62 127.85 377.61 154.31 377.61C185.51 377.61 209.29 352.51 220.84 317.88C226.25 301.61 228.42 277.91 229.81 256.16C260.99 238.49 275.79 228.31 292.09 216.75C294.12 220.14 296.17 222.85 298.86 224.88C284.62 232.35 250.69 253.4 250.69 302.93C250.69 338.22 274.42 377.6 321.28 377.6C359.96 377.6 386.42 345.69 386.42 315.14C386.41 287.34 370.8 261.57 340.92 261.57ZM457.61 319.87C457.51 320.08 457.13 320.36 456.36 320.11C455.76 319.9 455.63 319.62 455.63 319.23C455.66 318.85 463.83 294.69 463.76 267.01C463.69 237.09 451.55 218.76 435.98 218.76C426.45 218.76 419.67 225.57 419.67 235.77C419.67 254.09 442.05 255.46 442.05 295.49C442.05 311.76 438.66 327.37 433.26 344.33C408.12 429.15 328.04 468.53 250.03 468.53C214.04 468.53 188.48 461.13 180.88 457.72C180.57 457.54 180.28 456.95 180.53 456.35C180.7 455.9 181.23 455.55 181.54 455.69C184.62 456.88 206.57 463.79 233.73 463.79C263.58 463.79 281.24 451.58 281.24 436.63C281.24 427.14 273.77 419.67 264.28 419.67C245.95 419.67 244.56 442.74 205.21 442.74C188.25 442.74 173.31 439.35 155.68 433.9C71.5 408.12 31.43 328.74 31.46 250.02C31.49 211.66 42.25 181.11 42.42 180.83C42.56 180.63 43.04 180.41 43.63 180.63C44.23 180.83 44.36 181.32 44.33 181.5C43.36 184.68 36.23 206.57 36.23 233.73C36.23 263.61 48.44 281.24 64.05 281.24C72.85 281.24 80.32 274.47 80.32 264.97C80.32 246.62 57.91 244.59 57.91 205.22C57.91 188.25 61.33 173.31 66.74 155.68C92.54 71.52 171.96 32.08 250.01 31.47C286.28 31.19 318.01 42.05 319.23 43.02C319.44 43.2 319.65 43.66 319.44 44.21C319.15 44.87 318.73 44.94 318.53 44.9C318.15 44.87 297.51 36.24 266.27 36.24C237.09 36.21 218.76 48.43 218.76 64.06C218.76 72.86 225.57 80.33 235.72 80.33C254.05 80.33 255.41 57.95 294.79 57.95C311.71 57.95 326.66 61.3 344.29 66.75C429.15 92.54 467.76 172.62 468.49 250.01C468.89 289.64 457.72 319.62 457.61 319.87ZM250.02 16.55C121.07 16.55 16.56 121.03 16.56 250.01C16.56 378.96 121.07 483.44 250.02 483.44C378.94 483.44 483.45 378.96 483.45 250.01C483.45 121.73 378.94 16.55 250.02 16.55ZM250.02 495C114.96 495 5 385.74 5 250.02C5 114.92 114.96 5 250.02 5C385.04 5 495 114.92 495 250.02C495 385.74 385.04 495 250.02 495Z" fill="#3B73B9"/>
</svg>
