<svg width="500" height="208" viewBox="0 0 500 208" fill="none" xmlns="http://www.w3.org/2000/svg">
<g clip-path="url(#clip0_39_326)">
<path d="M81.9578 68.99V96.5305H111.933V68.99H135.194C136.097 68.99 136.962 69.3486 137.601 69.9868C138.239 70.6251 138.598 71.4907 138.598 72.3934V101.456H163.565V62.8012C163.565 60.8976 163.19 59.0127 162.461 57.2541C161.732 55.4955 160.664 53.8978 159.318 52.5522C157.971 51.2066 156.373 50.1395 154.614 49.4118C152.855 48.6842 150.969 48.3103 149.066 48.3115H44.8251C42.9215 48.3103 41.0363 48.6842 39.2773 49.4118C37.5182 50.1395 35.9198 51.2066 34.5734 52.5522C33.2269 53.8978 32.1588 55.4955 31.43 57.2541C30.7013 59.0127 30.3262 60.8976 30.3262 62.8012V101.456H55.3395V72.3934C55.3395 71.4907 55.6981 70.6251 56.3364 69.9868C56.9746 69.3486 57.8403 68.99 58.7429 68.99H81.9578Z" fill="#00ABC8"/>
<path d="M111.933 138.929V112.947H81.9578V138.929H58.6968C57.8022 138.917 56.9483 138.553 56.32 137.916C55.6917 137.279 55.3395 136.42 55.3395 135.526V108.28H30.3262V145.118C30.3262 148.963 31.8537 152.651 34.5728 155.37C37.2919 158.089 40.9797 159.617 44.8251 159.617H149.047C152.893 159.617 156.581 158.089 159.3 155.37C162.019 152.651 163.546 148.963 163.546 145.118V108.28H138.598V135.526C138.598 136.428 138.239 137.294 137.601 137.932C136.962 138.57 136.097 138.929 135.194 138.929H111.933Z" fill="#231F20"/>
<path d="M183.625 61.1963H196.169V76.2301H211.894V61.1963H224.429V101.908H211.894V86.6985H196.169V101.944H183.625V61.1963Z" fill="#231F20"/>
<path d="M366.024 61.1963L360.213 85.1398H360.093L354.282 61.1963H336.436V101.908H348.979V78.8772L355.472 101.908H364.825L371.327 78.8864V101.908H383.861V61.1963H366.024Z" fill="#231F20"/>
<path d="M390.668 61.1963H425.716V71.637H403.212V76.7097H423.752V86.3941H403.212V91.4669H426.316V101.908H390.668V61.1963Z" fill="#231F20"/>
<path d="M444.393 71.637H431.646V61.1963H469.637V71.637H456.909V101.908H444.365L444.393 71.637Z" fill="#231F20"/>
<path d="M319.207 61.1963L314.226 85.8038L309.255 61.1963H297.348L292.377 85.8038L287.405 61.1963H275.083L284.38 101.898H299.469L303.306 81.8747L307.143 101.898H322.223L331.52 61.1963H319.207Z" fill="#231F20"/>
<path d="M274.114 81.5515C274.18 84.3736 273.659 87.1785 272.584 89.7887C271.509 92.3988 269.904 94.7572 267.87 96.7145C263.615 100.859 258.238 102.928 251.738 102.922C245.239 102.916 239.874 100.828 235.644 96.6592C233.606 94.7149 231.995 92.3675 230.913 89.7665C229.832 87.1655 229.304 84.3678 229.363 81.5515C229.305 78.7301 229.834 75.9273 230.915 73.3206C231.996 70.7138 233.606 68.3597 235.644 66.407C240.023 62.3636 245.764 60.1182 251.725 60.1182C257.685 60.1182 263.426 62.3636 267.805 66.407C269.844 68.36 271.457 70.7136 272.543 73.3198C273.628 75.9261 274.163 78.7287 274.114 81.5515ZM261.201 81.487C261.256 79.0074 260.328 76.6068 258.619 74.8094C257.732 73.8876 256.667 73.1561 255.488 72.6596C254.309 72.1631 253.042 71.9119 251.763 71.9214C250.484 71.9309 249.22 72.2009 248.049 72.7148C246.877 73.2288 245.823 73.976 244.95 74.9108C243.218 76.6829 242.251 79.0643 242.257 81.5423C242.181 84.018 243.089 86.4228 244.784 88.2292C245.684 89.1496 246.768 89.8713 247.964 90.3479C249.16 90.8244 250.443 91.0452 251.729 90.9961C253.009 91.0126 254.277 90.7571 255.45 90.2467C256.624 89.7364 257.676 88.9827 258.536 88.0355C260.255 86.2898 261.216 83.9368 261.211 81.487H261.201Z" fill="#231F20"/>
<path d="M216.184 145.118H206.038L204.009 139.031H192.987L191.059 145.118H180.979L192.157 112.615H205.208L216.184 145.118ZM198.604 119.948L194.915 131.329H201.989L198.604 119.948Z" fill="#231F20"/>
<path d="M219.245 145.118V112.615H244.618V120.566H229.234V124.836H241.399V132.814H229.234V137.186H244.618V145.146L219.245 145.118Z" fill="#231F20"/>
<path d="M259.043 145.118H248.796V112.615H263.553C272.601 112.615 277.388 116.775 277.388 123.268C277.46 125.3 276.884 127.302 275.743 128.985C274.603 130.668 272.956 131.944 271.042 132.63L279.103 145.118H267.722L261.939 135.231L259.08 135.489L259.043 145.118ZM262.372 128.202C265.49 127.889 266.735 126.69 266.735 124.034C266.735 121.645 265.333 120.446 261.644 120.446H258.831V128.202H262.372Z" fill="#231F20"/>
<path d="M334.277 135.757C334.277 134.198 331.99 133.728 328.19 132.63C323.412 131.284 317.38 128.996 317.38 122.393C317.38 116.047 321.798 111.887 330.689 111.887C335.223 111.791 339.714 112.771 343.796 114.747L342.181 123.121C338.618 121.344 334.722 120.332 330.745 120.151C328.762 120.151 327.618 120.566 327.618 121.867C327.618 123.379 330.745 124.108 333.964 124.994C339.11 126.442 344.524 128.683 344.524 134.918C344.524 141.42 339.636 145.893 330.219 145.893C324.86 145.893 319.824 144.593 316.854 142.979L318.413 134.613C322.139 136.49 326.233 137.52 330.403 137.629C332.718 137.629 334.277 137.104 334.277 135.757Z" fill="#231F20"/>
<path d="M362.297 136.374H359.706V145.118H349.468V112.615H362.989C372.212 112.615 377.442 117.291 377.442 124.264C377.433 132.058 372.231 136.374 362.297 136.374ZM362.196 120.409H359.429V128.885L362.021 128.839C365.664 128.784 367.333 127.326 367.333 124.467C367.296 121.82 365.525 120.409 362.196 120.409Z" fill="#231F20"/>
<path d="M410.166 145.118H400.02L397.991 139.031H386.979L385.051 145.118H374.961L386.149 112.615H399.2L410.166 145.118ZM392.642 119.948L388.953 131.329H396.027L392.642 119.948Z" fill="#231F20"/>
<path d="M436.498 122.596C434.122 121.222 431.439 120.47 428.695 120.41C423.761 120.41 420.689 123.638 420.689 128.784C420.689 133.931 423.456 137.316 428.695 137.316C431.63 137.296 434.503 136.466 436.996 134.918L439.228 143.707C436.728 145.008 432.052 145.893 428.206 145.893C417.332 145.893 410.424 140.23 410.424 128.996C410.424 118.436 417.231 111.832 428.621 111.832C432.398 111.838 436.133 112.616 439.597 114.119L436.498 122.596Z" fill="#231F20"/>
<path d="M442.715 145.118V112.615H468.079V120.566H452.685V124.836H464.851V132.814H452.676V137.186H468.079V145.146L442.715 145.118Z" fill="#231F20"/>
<path d="M314.226 128.581C314.276 130.776 313.87 132.959 313.033 134.989C312.197 137.02 310.948 138.854 309.366 140.377C305.937 143.495 301.47 145.223 296.836 145.223C292.202 145.223 287.734 143.495 284.306 140.377C282.754 138.835 281.523 137 280.682 134.98C279.842 132.959 279.409 130.792 279.409 128.604C279.409 126.416 279.842 124.249 280.682 122.228C281.523 120.208 282.754 118.373 284.306 116.831C287.713 113.688 292.178 111.943 296.813 111.943C301.448 111.943 305.913 113.688 309.319 116.831C310.903 118.345 312.156 120.171 313 122.193C313.845 124.215 314.262 126.39 314.226 128.581ZM304.191 128.581C304.227 126.651 303.506 124.783 302.181 123.379C301.5 122.644 300.669 122.063 299.745 121.676C298.82 121.29 297.824 121.106 296.822 121.138C295.829 121.124 294.844 121.324 293.935 121.725C293.026 122.126 292.215 122.719 291.555 123.462C290.258 124.852 289.527 126.678 289.509 128.58C289.49 130.481 290.184 132.321 291.454 133.737C292.151 134.459 292.993 135.026 293.924 135.402C294.856 135.777 295.856 135.951 296.859 135.913C297.853 135.926 298.84 135.729 299.752 135.333C300.665 134.937 301.483 134.352 302.153 133.617C303.47 132.254 304.201 130.43 304.191 128.535V128.581Z" fill="#231F20"/>
</g>
<defs>
<clipPath id="clip0_39_326">
<rect width="500" height="207.919" fill="white"/>
</clipPath>
</defs>
</svg>
