<svg width="500" height="191" viewBox="0 0 500 191" fill="none" xmlns="http://www.w3.org/2000/svg">
<g clip-path="url(#clip0_39_323)">
<mask id="mask0_39_323" style="mask-type:luminance" maskUnits="userSpaceOnUse" x="0" y="0" width="500" height="191">
<path d="M0.205078 190.57H499.705V0.12207H0.205078V190.57Z" fill="white"/>
</mask>
<g mask="url(#mask0_39_323)">
<path fill-rule="evenodd" clip-rule="evenodd" d="M107.544 0.12207L71.4128 130.174H9.87012L46.0012 0.12207H107.544ZM117.757 0.12207H173.391C193.51 0.12207 210.669 19.7166 212.297 44.3294C221.349 18.1891 245.733 0.12207 264.385 0.12207H394.468L406.638 22.1526L429.526 0.12207H499.706L430.998 66.2623L466.321 130.174L403.998 130.198L390.285 105.457L364.605 130.174H251.132C233.809 130.174 211.663 112.665 208.382 85.2898C197.077 112.137 176.635 130.174 153.608 130.174H81.6293L117.757 0.12207ZM279.733 43.8385H328.501L324.559 58.0276H156.51L153.602 68.5032H321.648L317.529 83.3294H272.212C273.422 89.055 280.422 93.9574 284.556 93.8599H314.611L308.199 116.918L358.495 68.5032H392.876L395.751 58.0276H364.117L337.809 10.3446L331.016 34.7776L294.535 34.6434C285.507 34.6434 279.733 41.7379 279.733 43.8385Z" fill="#0F76C1"/>
</g>
<path fill-rule="evenodd" clip-rule="evenodd" d="M29.2444 162.93C29.598 157.893 26.8663 155.317 22.7474 155.317C13.906 155.317 9.25048 164.646 8.7017 172.484C8.30841 178.094 10.595 183.009 16.8602 183.009C21.6377 183.009 25.5858 179.18 26.6529 174.887H35.2749C30.9669 186.274 24.7291 190.57 16.2169 190.57C5.23829 190.57 -0.731224 183.984 0.070605 172.484C0.994386 159.265 9.98524 147.759 23.223 147.759C32.2871 147.759 38.781 152.975 37.8633 162.93H29.2444ZM85.0432 165.274C84.1041 178.722 75.5828 190.57 61.8511 190.57C50.8724 190.57 44.906 183.984 45.7108 172.484C46.6346 159.265 55.6255 147.759 68.8572 147.759C79.4578 147.759 85.845 153.829 85.0432 165.274ZM62.5005 183.009C70.9517 183.009 75.8389 173.631 76.3755 165.905C76.7779 160.18 74.6987 155.317 68.3816 155.317C59.5432 155.317 54.8846 164.646 54.3359 172.484C53.9456 178.094 56.2352 183.009 62.5005 183.009ZM119.757 148.737C126.842 148.622 131.257 151.539 130.702 159.436C130.318 164.991 126.26 169.622 120.927 170.426L120.921 170.539C124.086 171.57 124.705 174.545 124.482 177.75C124.351 179.582 123.888 182.329 123.711 184.847C123.583 186.676 123.574 188.393 123.927 189.597H115.525C115.372 188.625 115.269 187.765 115.33 186.85C115.525 184.1 116.162 181.295 116.351 178.551C116.629 174.6 114.446 173.631 111.04 173.631H102.912L98.5554 189.597H89.9334L101.031 148.737H119.757ZM104.674 167.219H112.638C117.202 167.164 121.668 165.329 121.988 160.753C122.296 156.347 119.375 155.716 115.97 155.716H107.784L104.674 167.219ZM161.269 148.737C169.18 148.792 174.693 151.594 174.061 160.64C173.427 169.68 165.921 174.945 157.793 174.945H147.141L143.144 189.597H134.528L145.568 148.737H161.269ZM149.055 167.96H157.842C162.186 167.96 165.086 165.673 165.424 160.814C165.711 156.689 162.708 155.716 159.683 155.716H152.327L149.055 167.96ZM218.879 165.274C217.939 178.722 209.418 190.57 195.693 190.57C184.708 190.57 178.741 183.984 179.546 172.484C180.47 159.265 189.458 147.759 202.696 147.759C213.299 147.759 219.677 153.829 218.879 165.274ZM196.336 183.009C204.787 183.009 209.671 173.631 210.211 165.905C210.61 160.18 208.537 155.317 202.22 155.317C193.379 155.317 188.723 164.646 188.174 172.484C187.781 178.094 190.071 183.009 196.336 183.009ZM253.592 148.737C260.686 148.622 265.095 151.539 264.543 159.436C264.153 164.991 260.095 169.622 254.763 170.426L254.754 170.539C257.924 171.57 258.54 174.545 258.318 177.75C258.19 179.582 257.726 182.329 257.546 184.847C257.421 186.676 257.412 188.393 257.763 189.597H249.36C249.205 188.625 249.101 187.765 249.165 186.85C249.357 184.1 249.997 181.295 250.186 178.551C250.464 174.6 248.281 173.631 244.872 173.631H236.744L232.394 189.597H223.772L234.863 148.737H253.592ZM238.51 167.219H246.476C251.04 167.164 255.504 165.329 255.824 160.753C256.135 156.347 253.214 155.716 249.808 155.716H241.619L238.51 167.219ZM299.223 148.737L302.903 189.597H294.339L293.711 180.497H279.046L273.467 189.597H264.351L290.379 148.737H299.223ZM282.918 173.801H293.412L292.629 157.548H292.516L282.918 173.801ZM313.418 156.289L315.485 148.737H348.217L346.153 156.289H334.4L325.372 189.597H316.696L325.723 156.289H313.418ZM366.235 148.737L355.083 189.597H346.403L357.555 148.737H366.235ZM410.391 165.274C409.452 178.722 400.93 190.57 387.199 190.57C376.217 190.57 370.247 183.984 371.052 172.484C371.976 159.265 380.961 147.759 394.205 147.759C404.799 147.759 411.186 153.829 410.391 165.274ZM387.836 183.009C396.293 183.009 401.18 173.631 401.72 165.905C402.122 160.18 400.043 155.317 393.726 155.317C384.879 155.317 380.223 164.646 379.674 172.484C379.281 178.094 381.58 183.009 387.836 183.009ZM435.324 148.737L443.94 177.808H444.049L451.683 148.737H459.595L448.446 189.597H439.821L431.065 160.926H430.952L423.348 189.597H415.272L426.424 148.737H435.324Z" fill="#2B2E34"/>
</g>
<defs>
<clipPath id="clip0_39_323">
<rect width="500" height="190.854" fill="white"/>
</clipPath>
</defs>
</svg>
