<svg width="500" height="170" viewBox="0 0 500 170" fill="none" xmlns="http://www.w3.org/2000/svg">
<g clip-path="url(#clip0_39_327)">
<path d="M54.3716 0.00390625L0.00292969 169.47H8.63416L63.0152 0.00390625H54.3716Z" fill="#414141"/>
<path d="M68.102 0.00390625L14.2334 169.47H22.3521L76.7398 0.00390625H68.102Z" fill="#414141"/>
<path d="M81.8163 0.00390625L27.96 169.47H36.0787L90.4536 0.00390625H81.8163Z" fill="#414141"/>
<path d="M95.5464 0.00390625L41.6777 169.47H49.8027L104.184 0.00390625H95.5464Z" fill="#414141"/>
<path d="M112.309 0.00390625L101.646 33.1866H155.003L111.803 169.47H162.115L205.821 33.1866H249.528L260.203 0.00390625H112.309Z" fill="#414141"/>
<path fill-rule="evenodd" clip-rule="evenodd" d="M446.723 -0.00195312H496.517L408.098 169.471H360.835L362.867 78.1023V71.4731C362.867 71.4731 363.373 67.8951 363.373 65.34C363.885 61.762 364.392 57.6879 364.392 57.6879C364.392 57.6879 362.354 62.2769 361.335 66.3633C359.81 69.9353 357.785 73.507 357.785 73.507C356.76 75.0387 354.223 79.6341 354.223 79.6341L305.942 169.471H256.642L263.254 -0.00195312H314.079L307.467 74.0154C307.467 74.0154 306.954 77.5938 306.954 80.1489C306.954 80.1489 306.454 83.7142 305.442 88.3158C304.929 92.4023 302.898 100.054 302.898 100.054C302.898 100.054 304.929 93.4129 306.454 89.8472C308.992 84.7311 310.01 82.1828 311.535 78.6171C313.573 75.0387 315.598 70.4502 315.598 70.4502C316.61 68.9184 318.648 65.8548 318.648 65.8548L353.723 -0.00195312H405.554L402.498 69.9353V74.0154C401.998 78.1023 401.998 83.7141 400.973 88.8243C400.473 93.9214 399.46 101.071 399.46 101.071C399.46 101.071 400.973 97.4997 402.498 92.9044C404.029 88.8243 409.617 76.062 409.617 76.062L446.723 -0.00195312ZM483.31 7.66284H451.804L396.41 122.001C396.41 122.001 395.904 123.024 395.392 124.035C394.379 125.573 393.354 126.081 392.842 125.058C392.54 124.751 392.602 124.073 392.699 123.023C392.763 122.334 392.842 121.485 392.842 120.475L397.429 7.66284H358.798L316.11 86.7841L313.067 92.4023C313.067 92.4023 309.498 99.54 305.942 105.667C302.898 111.793 297.81 122.001 296.798 124.035C295.785 126.081 293.748 125.573 294.26 124.035C294.26 123.024 294.26 120.475 295.273 114.851C295.785 109.238 296.798 100.563 297.81 93.9214C298.323 87.2925 299.848 73.507 300.36 65.34C301.373 56.6709 303.41 33.1807 303.41 29.6026L305.442 7.66284H270.879L264.779 161.31H301.373L305.942 153.137L308.992 147.518C308.992 147.518 325.254 117.914 331.867 106.175C334.917 100.054 346.604 78.1023 350.667 70.9586C354.223 63.8086 362.867 46.9658 364.392 44.4112C365.404 41.3414 368.967 35.2272 369.467 34.7187C369.979 33.6892 371.504 32.6722 371.504 36.7589V42.8794L368.967 161.31H403.517L483.31 7.66284Z" fill="#414141"/>
</g>
<defs>
<clipPath id="clip0_39_327">
<rect width="500" height="169.492" fill="white"/>
</clipPath>
</defs>
</svg>
