<svg width="500" height="220" viewBox="0 0 500 220" fill="none" xmlns="http://www.w3.org/2000/svg">
<g clip-path="url(#clip0_39_330)">
<path fill-rule="evenodd" clip-rule="evenodd" d="M84.3407 218.519L82.6838 218.486L81.1244 218.389L79.5974 218.226L78.0704 217.966L76.576 217.674L75.1465 217.284L73.717 216.829L72.32 216.342L71.0204 215.822L69.7533 215.172L68.5188 214.49L67.2842 213.775L66.1796 212.931L65.075 212.118L64.0678 211.241L63.0282 210.234L62.086 209.259L61.1764 208.187L60.3316 207.083L59.5519 205.945L58.8047 204.743L58.1549 203.509L57.5376 202.209L56.9853 200.91L56.4655 199.545L56.0431 198.116L55.6533 196.654L55.3284 195.159L55.1335 193.665L54.971 192.105L54.8411 190.546L54.8086 188.889L54.8411 187.297L54.9385 185.803L55.0685 184.243L55.2959 182.716L55.5883 181.254L55.9132 179.857L56.2706 178.46L56.7254 177.063L57.2452 175.764L57.7975 174.496L58.4148 173.229L59.0971 172.027L59.8443 170.858L60.624 169.721L61.4363 168.681L62.3459 167.609L63.2556 166.634L64.2303 165.725L65.2699 164.847L66.342 164.035L67.5116 163.288L68.6812 162.573L69.8833 161.956L71.1829 161.371L72.4824 160.851L73.8469 160.396L75.2764 160.039L76.7384 159.649L78.2329 159.422L79.7923 159.227L81.3518 159.129L82.9762 159.097L84.0159 159.129L85.023 159.162L86.0951 159.259L87.1997 159.389L88.2394 159.552L89.344 159.747L90.4161 159.974L91.4882 160.201L92.5604 160.494L93.6325 160.819L94.7046 161.111L95.7118 161.469L96.7514 161.793L97.7261 162.183L98.6682 162.573L99.6104 162.963L96.1666 171.573L94.5747 170.923L92.9827 170.305L91.3258 169.721L89.6689 169.233L88.8242 169.038L87.9795 168.876L87.1023 168.681L86.2576 168.551L85.3804 168.421L84.5357 168.356L83.691 168.291H81.7741L80.7995 168.389L79.8248 168.551L78.8827 168.714L77.973 168.941L77.1283 169.233L76.3161 169.558L75.4714 169.916L74.7241 170.338L74.0094 170.76L73.3271 171.28L72.6448 171.8L71.9951 172.352L71.3778 172.937L70.8255 173.619L70.2732 174.237L69.7533 174.951L69.2985 175.666L68.8762 176.413L68.4538 177.193L68.0964 177.973L67.7391 178.785L67.4142 179.662L67.1543 180.507L66.9268 181.384L66.6669 182.261L66.537 183.203L66.3745 184.113L66.2771 185.055L66.1796 185.997L66.1471 186.907L66.1146 187.882L66.1471 189.019L66.1796 190.124L66.3096 191.293L66.4395 192.333L66.5695 193.405L66.7969 194.445L67.0568 195.452L67.3492 196.426L67.6741 197.401L68.0314 198.311L68.4538 199.22L68.8762 200.098L69.331 200.91L69.8833 201.722L70.4356 202.502L71.0204 203.184L71.6377 203.899L72.32 204.548L73.0347 205.198L73.7819 205.783L74.5617 206.303L75.4064 206.855L76.2186 207.31L77.1283 207.7L78.0704 208.057L79.0451 208.382L80.0522 208.642L81.0919 208.902L82.1965 209.097L83.3336 209.227L84.5032 209.292L85.7053 209.324L86.4525 209.292H87.1997L87.947 209.227L88.6292 209.129L89.3765 208.999L90.0912 208.902L90.806 208.772L91.5532 208.61L92.2355 208.447L92.9827 208.187L93.665 207.992L94.3797 207.765L95.7443 207.213L97.0763 206.595L99.7729 214.717L98.8632 215.172L97.921 215.562L97.0763 215.952L96.1341 216.309L95.127 216.667L94.2173 216.959L93.2101 217.252L92.2355 217.511L91.2933 217.739L90.3187 217.934L89.279 218.129L88.3044 218.259L87.3622 218.356L86.3226 218.421L85.3479 218.519H84.3407ZM121.248 218.584L120.078 218.486L118.941 218.356L117.869 218.161L116.764 217.934L115.692 217.674L113.71 216.927L112.768 216.504L111.826 216.017L110.916 215.53L110.039 214.945L109.227 214.328L108.447 213.678L107.733 213.028L107.018 212.281L106.368 211.566L105.751 210.786L105.133 209.942L104.581 209.064L104.061 208.187L103.574 207.245L103.184 206.27L102.762 205.296L102.437 204.289L102.112 203.281L101.885 202.209L101.657 201.137L101.495 200L101.365 198.863L101.3 197.758V195.419L101.365 194.217L101.495 193.112L101.657 192.008L101.885 190.903L102.112 189.896L102.437 188.824L102.762 187.784L103.184 186.842L103.574 185.9L104.061 184.958L104.581 184.081L105.133 183.203L105.751 182.391L106.368 181.611L107.018 180.832L107.733 180.15L108.447 179.435L109.227 178.817L110.039 178.168L110.916 177.648L111.826 177.161L112.768 176.673L113.71 176.251L114.685 175.829L115.692 175.471L116.764 175.211L117.869 174.984L118.941 174.789L120.078 174.659L121.248 174.561L122.45 174.529L123.652 174.561L124.854 174.659L125.991 174.789L127.096 174.984L128.168 175.211L129.175 175.471L130.247 175.796L131.222 176.218L132.196 176.608L133.106 177.063L133.983 177.648L134.861 178.168L135.64 178.753L136.452 179.435L137.2 180.085L137.914 180.799L138.564 181.579L139.214 182.359L139.799 183.171L140.351 184.016L140.838 184.925L141.293 185.868L141.748 186.777L142.138 187.784L142.495 188.791L142.82 189.831L143.015 190.871L143.275 191.975L143.438 193.112L143.568 194.217L143.632 195.419L143.665 196.556L143.632 197.758L143.568 198.895L143.438 200.033L143.275 201.137L143.015 202.209L142.82 203.314L142.495 204.354L142.138 205.328L141.748 206.368L141.293 207.31L140.838 208.22L140.351 209.129L139.799 210.007L139.214 210.819L138.564 211.598L137.914 212.346L137.2 213.06L136.452 213.71L135.673 214.393L134.861 214.945L134.016 215.53L133.106 216.049L132.196 216.537L131.222 216.959L130.247 217.317L129.175 217.674L128.168 217.934L127.096 218.161L125.991 218.356L124.854 218.486L123.652 218.584H121.248ZM121.768 183.333L121.118 183.398L120.468 183.496L119.883 183.626L119.299 183.788L118.779 183.983L118.194 184.243L117.739 184.47L117.252 184.795L116.797 185.12L116.375 185.478L115.985 185.868L115.627 186.257L115.302 186.68L114.978 187.102L114.685 187.557L114.393 188.077L114.1 188.564L113.905 189.116L113.645 189.636L113.451 190.189L113.288 190.708L113.126 191.293L112.996 191.845L112.768 193.048L112.606 194.217L112.508 195.452L112.476 196.654L112.508 197.856L112.606 199.058L112.768 200.292L112.996 201.43L113.126 202.014L113.288 202.599L113.451 203.119L113.645 203.671L113.905 204.224L114.1 204.711L114.393 205.198L114.685 205.686L114.978 206.14L115.302 206.595L115.627 207.018L115.985 207.407L116.375 207.797L116.797 208.155L117.252 208.447L117.739 208.74L118.194 208.999L118.779 209.259L119.299 209.422L119.883 209.584L120.468 209.747L121.118 209.844L121.768 209.909H123.165L123.814 209.844L124.464 209.747L125.049 209.584L125.601 209.422L126.154 209.259L126.706 208.999L127.161 208.74L127.648 208.447L128.103 208.155L128.525 207.797L128.948 207.407L129.305 207.018L129.63 206.595L129.955 206.14L130.247 205.686L130.54 205.198L130.799 204.711L131.027 204.224L131.254 203.671L131.482 203.119L131.644 202.599L131.807 202.014L131.937 201.43L132.164 200.292L132.326 199.058L132.424 197.856L132.456 196.654L132.424 195.452L132.326 194.282L132.164 193.048L131.937 191.91L131.807 191.326L131.482 190.189L131.254 189.636L131.027 189.116L130.799 188.564L130.54 188.077L130.247 187.589L129.955 187.135L129.63 186.647L129.305 186.257L128.948 185.835L128.525 185.478L128.103 185.12L127.616 184.795L127.161 184.47L126.673 184.243L126.154 183.983L125.601 183.788L125.049 183.626L124.432 183.496L123.814 183.398L123.165 183.333H121.768ZM176.673 217.674V190.708L176.641 190.221L176.608 189.799L176.511 189.344L176.446 188.954L176.316 188.532L176.186 188.174L176.089 187.784L175.959 187.427L175.731 187.102L175.536 186.777L175.374 186.452L175.114 186.16L174.887 185.868L174.659 185.64L174.399 185.348L173.782 184.925L173.165 184.535L172.482 184.178L171.735 183.918L170.955 183.691L170.078 183.528L169.234 183.463L168.324 183.398L167.252 183.463L166.147 183.528L165.042 183.756L164.035 183.951L162.931 184.243L161.859 184.535L160.819 184.893L159.812 185.25L159.844 185.478L159.909 185.965L159.974 186.517V187.037L160.007 217.674H149.87V184.698L149.838 183.821L149.74 182.879L149.675 181.936L149.578 180.962L149.383 179.402L149.253 178.753L151.495 177.973L153.834 177.193L155.068 176.868L156.238 176.511L157.473 176.153L158.707 175.829L159.942 175.569L161.176 175.341L162.378 175.114L163.613 174.886L164.848 174.724L166.05 174.626L167.252 174.561L168.421 174.529L169.396 174.561L170.338 174.594L171.28 174.626L172.158 174.691L173.035 174.789L173.944 174.951L174.822 175.049L175.634 175.276L176.446 175.439L177.226 175.666L178.005 175.926L178.753 176.218L179.467 176.543L180.15 176.901L180.832 177.291L181.482 177.68L182.067 178.135L182.619 178.623L183.204 179.142L183.691 179.695L184.178 180.279L184.633 180.929L184.991 181.611L185.38 182.326L185.738 183.041L185.998 183.853L186.225 184.698L186.42 185.575L186.615 186.517L186.712 187.492L186.777 188.499L186.81 189.571V217.674H176.673ZM209.487 219.168L208.772 219.136L208.09 219.103L207.44 219.038L206.79 218.908L206.173 218.811L205.556 218.681L204.906 218.519L204.321 218.324L203.801 218.129L203.217 217.901L202.729 217.609L202.242 217.349L201.722 217.089L201.267 216.732L200.812 216.374L200.39 216.017L200 215.66L199.675 215.205L199.286 214.782L198.961 214.295L198.668 213.808L198.408 213.32L198.181 212.736L197.953 212.183L197.726 211.598L197.564 210.949L197.401 210.299L197.369 209.617L197.271 208.934L197.239 208.22L197.206 207.472V184.146L192.398 183.918V175.894L197.206 175.634V163.905H207.31V175.439H219.136V184.276H207.31V207.18L207.408 207.635L207.473 207.992L207.57 208.382L207.733 208.675L207.895 208.999L208.09 209.259L208.577 209.714L208.837 209.877L209.195 210.039L209.584 210.169L209.909 210.201L210.332 210.299L210.754 210.331H211.209L212.183 210.299L213.126 210.169L214.133 210.039L215.042 209.779L215.985 209.552L216.862 209.259L217.804 208.967L218.714 208.61L221.54 216.829L220.111 217.317L218.746 217.739L217.349 218.129L215.952 218.486L214.523 218.811L213.126 219.006L212.411 219.038L211.664 219.136L210.949 219.168H209.487ZM249.35 184.178L248.798 184.016L248.181 183.853L247.499 183.691L246.784 183.593L245.972 183.496L245.289 183.398L244.51 183.333H242.82L241.911 183.366L240.936 183.463L239.961 183.593L239.019 183.756L238.044 183.918L237.102 184.146L236.193 184.406L236.258 184.73L236.29 185.25V217.674H226.154V185.51L226.121 184.633L226.024 183.626L225.926 182.586L225.796 181.579L225.634 180.637L225.504 179.89L225.406 179.402L225.374 179.207L227.681 178.265L230.02 177.388L231.222 176.998L232.391 176.608L233.626 176.218L234.796 175.926L236.03 175.601L237.232 175.341L238.434 175.114L239.669 174.886L240.936 174.724L242.138 174.626L243.405 174.561L244.64 174.529L245.647 174.561L246.621 174.594L247.629 174.659L248.636 174.789L249.643 174.886L250.618 175.049L251.56 175.276L252.404 175.439L249.35 184.178ZM273.1 218.616H271.898L270.728 218.519L269.591 218.389L268.486 218.194L267.382 217.966L266.375 217.706L265.302 217.317L264.328 216.959L263.386 216.504L262.443 216.049L261.566 215.562L260.721 214.945L259.909 214.36L259.13 213.71L258.382 213.06L257.668 212.313L257.018 211.598L256.401 210.819L255.816 209.974L255.198 209.097L254.711 208.22L254.256 207.278L253.801 206.303L253.444 205.328L253.087 204.321L252.794 203.314L252.534 202.242L252.339 201.17L252.177 200.033L252.047 198.895L252.015 197.791L251.917 196.589L252.015 195.452L252.047 194.25L252.177 193.145L252.339 192.04L252.534 190.936L252.794 189.929L253.087 188.856L253.444 187.817L253.801 186.842L254.256 185.9L254.711 184.99L255.198 184.113L255.816 183.236L256.401 182.424L257.018 181.644L257.668 180.864L258.382 180.182L259.13 179.467L259.909 178.817L260.721 178.2L261.566 177.68L262.443 177.161L263.386 176.706L264.328 176.251L265.302 175.861L266.375 175.504L267.382 175.244L268.486 175.016L269.591 174.821L270.728 174.659L271.898 174.594L273.1 174.561L274.302 174.594L275.439 174.659L276.608 174.821L277.713 175.016L278.785 175.244L279.857 175.504L280.864 175.829L281.872 176.251L282.814 176.641L283.756 177.096L284.601 177.68L285.478 178.2L286.29 178.785L287.07 179.435L287.85 180.117L288.532 180.832L289.214 181.611L289.831 182.391L290.449 183.203L291.001 184.048L291.488 184.958L291.976 185.868L292.398 186.81L292.788 187.817L293.145 188.824L293.405 189.831L293.697 190.903L293.892 192.008L294.087 193.145L294.185 194.25L294.25 195.419L294.282 196.589L294.25 197.791L294.185 198.928L294.087 200.065L293.892 201.17L293.697 202.242L293.405 203.346L293.145 204.354L292.788 205.361L292.398 206.4L291.976 207.342L291.488 208.252L291.001 209.129L290.416 210.007L289.831 210.819L289.214 211.598L288.532 212.378L287.85 213.093L287.07 213.743L286.29 214.425L285.478 214.977L284.601 215.562L283.756 216.082L282.814 216.537L281.872 216.992L280.864 217.317L279.857 217.706L278.785 217.966L277.713 218.194L276.608 218.389L275.439 218.519L274.302 218.616H273.1ZM273.1 183.366H272.417L271.735 183.431L271.118 183.496L270.501 183.658L269.948 183.821L269.363 184.016L268.876 184.243L268.356 184.503L267.901 184.828L267.447 185.12L267.024 185.51L266.634 185.868L266.31 186.29L265.92 186.68L265.562 187.135L265.302 187.589L264.978 188.109L264.75 188.597L264.555 189.116L264.295 189.636L264.1 190.221L263.938 190.741L263.775 191.326L263.645 191.878L263.386 193.048L263.256 194.25L263.158 195.484L263.126 196.686L263.158 197.856L263.256 199.09L263.386 200.325L263.645 201.462L263.775 202.014L263.938 202.632L264.1 203.151L264.295 203.671L264.555 204.256L264.75 204.743L264.978 205.231L265.302 205.718L265.562 206.173L265.92 206.628L266.31 207.05L266.634 207.44L267.024 207.83L267.447 208.187L267.901 208.48L268.356 208.772L268.876 209.032L269.363 209.259L269.948 209.454L270.501 209.617L271.118 209.779L271.735 209.877L272.417 209.942H273.749L274.432 209.877L275.049 209.779L275.666 209.617L276.251 209.454L276.836 209.259L277.323 209.032L277.811 208.772L278.298 208.48L278.72 208.187L279.143 207.83L279.532 207.44L279.922 207.05L280.28 206.628L280.605 206.173L280.897 205.718L281.157 205.231L281.449 204.743L281.677 204.256L281.872 203.671L282.067 203.151L282.261 202.632L282.424 202.047L282.586 201.462L282.781 200.325L282.944 199.09L283.041 197.856V195.517L282.944 194.315L282.781 193.08L282.586 191.943L282.424 191.358L282.261 190.773L282.067 190.221L281.872 189.669L281.677 189.149L281.449 188.597L281.157 188.109L280.897 187.622L280.605 187.167L280.28 186.68L279.922 186.29L279.532 185.868L279.143 185.51L278.72 185.12L278.298 184.828L277.811 184.503L277.323 184.243L276.836 184.016L276.251 183.821L275.666 183.658L275.049 183.496L274.432 183.398L273.749 183.333C273.749 183.333 273.1 183.333 273.1 183.366ZM310.559 217.706H300.455V155.751H310.559V217.706ZM329.305 218.616L328.428 218.584L327.518 218.519L326.641 218.421L325.731 218.291L324.822 218.129L323.944 217.966L323.035 217.836L321.313 217.414L319.591 216.959L317.934 216.439L316.342 215.855L319.266 207.895L320.403 208.382L321.638 208.837L322.937 209.259L324.269 209.649L325.569 209.942L326.836 210.201L327.518 210.331L328.135 210.364L328.753 210.396L329.37 210.429H329.987L330.572 210.396L331.124 210.331L331.677 210.234L332.294 210.072L332.781 209.942L333.301 209.747L333.756 209.487L334.211 209.227L334.633 208.869L334.893 208.512L335.218 208.09L335.478 207.57L335.673 207.05L335.803 206.465L335.835 205.816L335.738 205.133L335.608 204.516L335.348 203.931L335.023 203.379L334.568 202.859L334.113 202.469L333.561 202.014L332.944 201.592L332.229 201.202L331.547 200.845L330.767 200.455L329.987 200.13L328.298 199.383L326.576 198.636L325.731 198.246L324.887 197.823L324.042 197.336L323.23 196.881L322.417 196.329L321.67 195.777L320.923 195.159L320.273 194.509L319.623 193.762L319.104 192.983L318.616 192.105L318.161 191.228L317.869 190.221L317.577 189.116L317.447 187.979L317.382 186.745L317.414 185.9L317.512 185.12L317.609 184.406L317.772 183.691L317.999 183.041L318.226 182.391L318.551 181.741L318.909 181.157L319.266 180.572L319.688 180.052L320.111 179.532L320.566 179.077L321.085 178.59L321.605 178.168L322.125 177.745L322.742 177.388L323.327 177.031L323.879 176.706L324.529 176.413L325.146 176.088L325.796 175.861L326.414 175.634L327.096 175.439L327.746 175.211L328.428 175.081L329.143 174.919L329.792 174.821L330.442 174.724L331.092 174.659L331.709 174.594L332.391 174.561L333.009 174.529L333.886 174.561L334.698 174.594L335.51 174.659L336.388 174.724L337.2 174.854L337.979 174.984L338.792 175.114L339.571 175.211L340.351 175.439L341.098 175.634L341.813 175.829L342.56 176.056L343.21 176.283L343.925 176.576L344.575 176.771L345.192 177.096L342.333 184.925L341.261 184.6L340.091 184.178L338.922 183.886L337.72 183.626L336.485 183.333L335.315 183.203L334.146 183.041L333.009 183.009H332.521L332.067 183.041L331.579 183.073L331.124 183.171L330.67 183.268L330.247 183.366L329.857 183.561L329.467 183.788L329.143 183.983L328.753 184.276L328.493 184.6L328.265 184.925L328.07 185.348L327.908 185.77L327.811 186.29L327.778 186.81L327.811 187.427L328.038 188.012L328.265 188.564L328.59 189.019L329.045 189.506L329.597 189.896L330.182 190.286L330.799 190.611L331.514 191.001L332.229 191.326L333.074 191.65L333.886 191.975L335.64 192.625L337.395 193.307L338.304 193.73L339.214 194.087L340.059 194.542L340.936 195.029L341.781 195.582L342.56 196.166L343.308 196.849L343.99 197.531L344.705 198.278L345.257 199.123L345.744 200.033L346.199 201.04L346.524 202.144L346.816 203.314L346.979 204.581L347.044 205.945L346.979 206.79L346.914 207.635L346.816 208.447L346.621 209.194L346.362 209.942L346.167 210.591L345.842 211.274L345.484 211.891L345.094 212.508L344.705 213.06L344.25 213.58L343.762 214.1L343.21 214.587L342.69 214.977L342.073 215.432L341.488 215.822L340.871 216.179L340.254 216.504L339.604 216.829L338.922 217.122L338.239 217.317L337.525 217.576L336.842 217.804L336.095 217.966L335.348 218.096L334.666 218.259L333.918 218.389L333.171 218.454L332.456 218.551L331.677 218.584L330.962 218.616H329.305ZM11.0464 147.011L10.1042 147.336L9.06459 147.661L7.92749 147.986L6.7579 148.343L5.49084 148.668L4.32125 148.993L3.05419 149.285L1.85211 149.61L-0.0322266 140.481L0.779989 140.416L1.5922 140.253L2.43691 140.026L3.24913 139.864L4.06134 139.701L4.84107 139.474L5.58831 139.246L6.27057 139.019L6.79039 138.856L7.3102 138.597L7.79753 138.402L8.25237 138.142L8.60975 137.914L9.0321 137.622L9.42196 137.33L9.71436 137.07L10.0392 136.777L10.3316 136.452L10.624 136.16L10.8515 135.77L11.0789 135.445L11.2738 135.055L11.4687 134.665L11.6312 134.276L11.9236 133.431L12.1185 132.554L12.3459 131.579L12.4434 130.604L12.5409 129.5L12.6058 128.363V127.226L12.6708 125.991V82.9435H23.1322V124.302L23.0997 126.446L23.0347 128.395L22.9047 130.344L22.7098 132.164L22.5474 133.041L22.4499 133.886L22.255 134.763L22.0276 135.543L21.8001 136.355L21.5727 137.07L21.3128 137.817L20.9879 138.564L20.6305 139.246L20.2732 139.929L19.8833 140.578L19.4285 141.228L18.9736 141.813L18.4538 142.365L17.9015 142.95L17.3167 143.502L16.6994 144.022L16.0172 144.509L15.3349 144.997L14.5552 145.419L13.7754 145.842L12.8982 146.264L12.0211 146.686L11.0464 147.011ZM50.6175 141.066H49.448L48.2459 141.001L47.1413 140.838L46.0042 140.643L44.932 140.416L43.8924 140.124L42.8528 139.799L41.8456 139.441L40.9034 139.019L39.9938 138.499L39.1166 137.979L38.2394 137.459L37.4272 136.81L36.6474 136.192L35.9002 135.51L35.1854 134.795L34.5357 134.048L33.8859 133.236L33.3011 132.424L32.7163 131.579L32.229 130.669L31.7741 129.76L31.3193 128.785L30.9619 127.81L30.6045 126.803L30.3122 125.796L30.0522 124.691L29.8248 123.619L29.6624 122.515L29.5324 121.41L29.4999 120.273V117.934L29.5324 116.732L29.6624 115.627L29.8248 114.522L30.0522 113.418L30.3122 112.378L30.6045 111.339L30.9619 110.299L31.3193 109.357L31.7741 108.382L32.229 107.472L32.7163 106.563L33.3011 105.718L33.8859 104.906L34.5357 104.094L35.1854 103.346L35.9002 102.599L36.6474 101.949L37.4272 101.3L38.2394 100.682L39.1166 100.163L40.0263 99.6102L40.9034 99.1229L41.8456 98.7005L42.8528 98.3107L43.8924 97.9858L44.932 97.6934L46.0042 97.4335L47.1413 97.2385L48.2459 97.1411L49.448 97.0761L50.6175 97.0436L51.8196 97.0761L52.9567 97.1411L54.1588 97.2385L55.2309 97.4335L56.3031 97.6934L57.3752 97.9858L58.4148 98.3107L59.422 98.7005L60.3316 99.1229L61.2738 99.6102L62.1835 100.098L63.0282 100.65L63.8404 101.3L64.6201 101.917L65.3674 102.599L66.0496 103.314L66.7644 104.029L67.4142 104.873L67.999 105.686L68.5188 106.53L69.0386 107.44L69.4934 108.35L69.9158 109.292L70.3057 110.266L70.663 111.306L70.9879 112.346L71.2153 113.385L71.4753 114.49L71.6052 115.627L71.8001 117.869L71.8326 119.071L71.8001 120.273L71.7027 121.41L71.6052 122.547L71.4753 123.652L71.2153 124.724L70.9879 125.796L70.663 126.836L70.3057 127.875L69.9158 128.817L69.4934 129.792L69.0386 130.702L68.5188 131.612L67.999 132.456L67.4142 133.268L66.7319 134.113L66.0496 134.828L65.3674 135.543L64.6201 136.225L63.8404 136.842L63.0282 137.459L62.1835 138.044L61.2738 138.532L60.3316 139.019L59.422 139.441L58.4148 139.831L57.3752 140.124L56.3031 140.416L55.2309 140.643L54.1588 140.838L52.9567 141.001L51.8196 141.066H50.6175ZM49.9353 105.848L49.2855 105.913L48.6682 106.01L48.0834 106.14L47.4662 106.303L46.9463 106.498L46.394 106.725L45.9067 106.985L45.4519 107.31L44.9645 107.635L44.6072 107.96L44.1523 108.35L43.8274 108.74L43.4701 109.194L43.1777 109.617L42.8528 110.104L42.5604 110.559L42.3005 111.046L42.073 111.599L41.8131 112.118L41.6507 112.638L41.4882 113.255L41.3258 113.775L41.1634 114.36L40.9034 115.562L40.7735 116.732L40.7085 117.966L40.676 119.168L40.7085 120.37L40.7735 121.573L40.9034 122.742L41.1634 123.912L41.3258 124.529L41.4882 125.081L41.6507 125.634L41.8131 126.186L42.073 126.706L42.3005 127.193L42.5604 127.713L42.8528 128.168L43.1777 128.655L43.4701 129.11L43.8274 129.5L44.1523 129.922L44.6072 130.279L44.9645 130.637L45.9067 131.254L46.394 131.514L46.9463 131.741L47.4662 131.936L48.0834 132.099L48.6682 132.229L49.2855 132.326L49.9353 132.391L50.6175 132.424L51.2673 132.391L51.9821 132.326L52.6318 132.229L53.2166 132.099L53.7689 131.936L54.3537 131.741L54.8411 131.514L55.3609 131.254L55.8157 130.962L56.2706 130.637L56.6929 130.279L57.0828 129.922L57.4726 129.5L57.7975 129.11L58.1224 128.655L58.4473 128.168L58.7072 127.713L58.9671 127.193L59.227 126.706L59.422 126.186L59.6494 125.634L59.8118 125.081L59.9743 124.529L60.1042 123.912L60.3316 122.742L60.4941 121.573L60.5591 120.37L60.624 119.168L60.5591 117.966L60.4941 116.764L60.3316 115.595L60.1042 114.393L59.9743 113.84L59.8118 113.288L59.6494 112.671L59.422 112.151L59.227 111.663L58.9671 111.079L58.7072 110.591L58.4473 110.137L58.1224 109.649L57.7975 109.194L57.4726 108.74L57.0828 108.382L56.6929 107.96L56.2706 107.635L55.8157 107.31L55.3609 106.985L54.8411 106.725L54.3537 106.498L53.7689 106.303L53.2166 106.14L52.6318 106.01L51.9821 105.913L51.2673 105.848H49.9353ZM105.328 140.124V113.45L105.296 112.638L105.198 111.826L105.068 111.046L104.809 110.299L104.549 109.649L104.191 109.032L103.834 108.447L103.379 107.895L102.892 107.44L102.339 106.985L101.787 106.66L101.17 106.368L100.488 106.14L99.8053 105.978L99.0256 105.848H97.6286L97.0113 105.881L96.3615 105.978L95.7443 106.043L95.0945 106.173L94.4447 106.335L93.8274 106.53L93.2101 106.725L91.9431 107.18L90.741 107.732L89.6039 108.35L88.5318 108.902V140.124H78.4278L78.3953 78.2002H88.5318V99.8376L90.0263 99.2203L91.5207 98.668L93.0477 98.1807L94.6072 97.8233L95.4194 97.5959L96.1991 97.4984L97.0113 97.336L97.791 97.2385L98.6357 97.1411L99.4155 97.1086L100.228 97.0761L101.04 97.0436L101.885 97.0761L102.762 97.1086L103.574 97.1736L104.386 97.271L105.133 97.4335L105.881 97.5959L106.563 97.8233L107.278 98.0183L107.96 98.3107L108.577 98.6355L109.195 98.9279L109.779 99.2853L110.332 99.6752L110.819 100.098L111.306 100.52L111.794 101.007L112.216 101.462L112.671 101.982L112.996 102.567L113.418 103.151L113.71 103.704L114.035 104.354L114.295 105.036L114.523 105.686L114.718 106.368L114.913 107.115L115.075 107.862L115.205 108.642L115.302 109.454L115.367 110.266L115.4 111.079L115.465 111.988V140.124H105.328ZM150.91 140.124V113.678L150.877 112.736L150.747 111.826L150.683 111.469L150.553 111.014L150.423 110.689L150.293 110.266L150.13 109.942L149.968 109.584L149.773 109.292L149.578 108.967L149.35 108.642L149.123 108.382L148.863 108.09L148.603 107.862L148.343 107.635L148.018 107.407L147.726 107.18L147.401 106.985L146.686 106.66L145.972 106.368L145.192 106.173L144.38 106.01L143.503 105.913L142.56 105.881L141.456 105.913L140.384 106.01L139.344 106.205L138.239 106.465L137.2 106.725L136.095 107.018L135.055 107.407L134.016 107.732L134.048 107.927L134.146 108.415L134.178 108.999L134.211 109.519V140.124H124.107V107.148L124.042 106.335L124.009 105.361L123.879 104.419L123.782 103.476L123.555 101.917L123.522 101.267L125.764 100.455L128.103 99.7077L130.507 98.9929L132.944 98.3432L134.178 98.0507L135.38 97.8233L136.615 97.5959L137.85 97.401L139.052 97.2385L140.254 97.1411L141.456 97.0761H143.6L144.542 97.1086L145.484 97.1411L146.362 97.2385L147.271 97.271L148.181 97.401L149.026 97.5634L149.87 97.7583L150.683 97.9858L151.495 98.1807L152.274 98.4406L153.022 98.7005L153.704 99.0579L154.419 99.4153L155.068 99.7402L155.718 100.195L156.336 100.617L156.888 101.137L157.44 101.624L157.96 102.144L158.415 102.794L158.87 103.411L159.227 104.094L159.649 104.776L159.942 105.556L160.202 106.335L160.494 107.18L160.657 108.057L160.819 108.999L160.949 109.974L161.046 110.981V140.124H150.91ZM179.922 141.066L179.013 141.033L178.103 140.936L177.226 140.871L176.316 140.773L175.439 140.643L174.562 140.481L173.652 140.286L171.898 139.929L170.176 139.441L168.486 138.889L166.894 138.304L169.851 130.409L171.02 130.864L172.222 131.319L173.522 131.774L174.854 132.099L176.186 132.456L177.453 132.716L178.103 132.781L178.72 132.846L179.37 132.879L179.987 132.911L180.572 132.879H181.157L181.742 132.781L182.326 132.749L182.879 132.586L183.399 132.424L183.886 132.229L184.341 131.969L184.828 131.741L185.185 131.352L185.575 131.027L185.835 130.539L186.095 130.085L186.258 129.532L186.388 128.947L186.42 128.298L186.388 127.583L186.225 126.966L185.933 126.413L185.64 125.861L185.185 125.374L184.698 124.886L184.178 124.464L183.529 124.074L182.879 123.684L182.132 123.294L181.384 122.97L180.572 122.58L178.948 121.865L177.226 121.118L176.349 120.663L175.504 120.273L174.627 119.851L173.814 119.331L173.035 118.811L172.255 118.226L171.573 117.609L170.858 116.927L170.241 116.244L169.721 115.432L169.201 114.62L168.811 113.678L168.454 112.638L168.194 111.599L168.064 110.429L168.031 109.194V108.382L168.129 107.635L168.194 106.855L168.421 106.173L168.616 105.491L168.909 104.808L169.136 104.256L169.526 103.639L169.883 103.054L170.273 102.534L170.696 101.982L171.183 101.527L171.67 101.105L172.222 100.65L172.742 100.227L173.327 99.8701L173.912 99.5452L174.497 99.1554L175.114 98.8955L175.731 98.6031L176.381 98.3432L177.031 98.1157L177.713 97.9208L178.363 97.7259L179.045 97.5634L179.727 97.401L180.377 97.271L181.059 97.2385L182.359 97.0761L183.593 97.0436L184.471 97.0761H185.283L186.128 97.1411L186.972 97.2385L187.785 97.271L188.597 97.4335L189.376 97.5634L190.156 97.7259L191.683 98.1157L193.178 98.5381L193.827 98.798L194.542 98.9929L195.159 99.2853L195.777 99.5777L192.885 107.44L191.846 107.018L190.709 106.693L189.539 106.335L188.337 106.043L187.07 105.848L185.9 105.653L184.763 105.523L183.593 105.491H183.139L182.651 105.523L182.196 105.556L181.742 105.653L181.254 105.751L180.864 105.881L180.442 106.01L180.085 106.205L179.727 106.465L179.37 106.725L179.11 107.018L178.85 107.407L178.655 107.765L178.525 108.252L178.428 108.707L178.395 109.292L178.493 109.909L178.623 110.461L178.85 111.014L179.208 111.501L179.662 111.956L180.182 112.378L180.767 112.736L181.384 113.125L182.099 113.418L182.879 113.775L183.658 114.1L184.471 114.393L186.225 115.075L188.012 115.757L188.922 116.179L189.831 116.569L190.676 117.024L191.553 117.511L192.365 118.096L193.178 118.649L193.957 119.266L194.672 119.981L195.257 120.76L195.842 121.605L196.329 122.515L196.816 123.522L197.174 124.594L197.401 125.796L197.564 127.063L197.661 128.46L197.596 129.305L197.531 130.117L197.401 130.897L197.206 131.676L196.979 132.391L196.751 133.073L196.459 133.723L196.102 134.341L195.679 134.958L195.257 135.543L194.835 136.03L194.347 136.55L193.827 137.005L193.275 137.492L192.69 137.882L192.106 138.272L191.488 138.662L190.838 138.986L190.189 139.279L189.539 139.539L188.857 139.831L188.142 140.059L187.46 140.253L186.68 140.448L185.933 140.611L185.185 140.741L184.503 140.838L183.756 140.903L183.041 141.001L182.294 141.033L181.547 141.066H179.922ZM223.295 141.098L222.125 141.066L220.955 141.001L219.786 140.838L218.714 140.708L217.609 140.448L216.569 140.124L215.53 139.831L214.555 139.441L213.581 139.019L212.638 138.532L211.761 137.979L210.949 137.459L210.072 136.81L209.292 136.192L208.545 135.543L207.863 134.795L207.18 134.048L206.563 133.236L205.946 132.424L205.393 131.579L204.906 130.669L204.451 129.76L203.996 128.785L203.639 127.81L203.249 126.803L202.924 125.796L202.729 124.691L202.469 123.619L202.307 122.515L202.242 121.41L202.112 120.273V119.071V117.934L202.242 116.732L202.307 115.627L202.469 114.522L202.729 113.45L202.924 112.378L203.249 111.339L203.639 110.331L203.996 109.357L204.451 108.415L204.906 107.472L205.393 106.563L205.946 105.718L206.563 104.906L207.18 104.094L207.863 103.346L208.545 102.632L209.292 101.949L210.072 101.332L210.949 100.682L211.761 100.163L212.638 99.6427L213.581 99.1229L214.555 98.7005L215.53 98.3432L216.569 98.0183L217.609 97.7259L218.714 97.4335L219.786 97.271L220.955 97.1411L222.125 97.0761L223.295 97.0436L224.529 97.0761L225.666 97.1411L226.803 97.271L227.94 97.4335L229.013 97.6934L230.052 98.0183L231.092 98.3107L232.067 98.7005L233.009 99.1229L233.951 99.6102L234.828 100.098L235.705 100.65L236.517 101.3L237.297 101.917L238.044 102.599L238.727 103.314L239.441 104.029L240.026 104.873L240.644 105.686L241.196 106.53L241.716 107.44L242.203 108.35L242.625 109.292L243.015 110.266L243.373 111.306L243.632 112.346L243.925 113.385L244.087 114.49L244.315 115.627L244.51 117.869V120.273L244.412 121.41L244.315 122.547L244.087 123.652L243.925 124.724L243.632 125.796L243.373 126.836L243.015 127.875L242.625 128.817L242.203 129.792L241.716 130.702L241.196 131.612L240.644 132.456L240.026 133.268L239.441 134.113L238.727 134.828L238.044 135.543L237.297 136.225L236.517 136.842L235.705 137.459L234.828 138.044L233.951 138.532L233.009 139.019L232.067 139.441L231.092 139.831L230.052 140.124L229.013 140.448L227.94 140.708L226.803 140.838L225.666 141.001L224.529 141.066L223.295 141.098ZM222.612 105.848L221.93 105.913L221.313 106.01L220.696 106.14L220.111 106.303L219.558 106.498L219.071 106.725L218.551 106.985L218.096 107.31L217.674 107.635L217.219 107.96L216.862 108.382L216.439 108.74L216.147 109.194L215.79 109.617L215.497 110.104L215.205 110.559L214.978 111.046L214.75 111.599L214.523 112.118L214.328 112.638L214.133 113.255L213.97 113.775L213.84 114.36L213.613 115.562L213.451 116.732L213.386 117.966L213.353 119.168L213.386 120.37L213.451 121.573L213.613 122.742L213.84 123.912L213.97 124.529L214.133 125.081L214.328 125.634L214.523 126.186L214.685 126.706L214.945 127.193L215.205 127.713L215.465 128.168L215.79 128.655L216.115 129.11L216.439 129.5L216.862 129.922L217.219 130.279L217.674 130.637L218.096 130.962L218.551 131.254L219.071 131.514L219.558 131.741L220.143 131.936L220.696 132.099L221.313 132.229L221.93 132.326L222.645 132.391L223.295 132.424L223.977 132.391L224.659 132.326L225.244 132.229L225.894 132.099L226.446 131.936L227.031 131.741L227.551 131.514L228.038 131.254L228.493 130.962L228.948 130.637L229.37 130.279L229.76 129.922L230.085 129.5L230.442 129.11L230.832 128.655L231.059 128.168L231.384 127.713L231.644 127.193L231.839 126.706L232.099 126.186L232.294 125.634L232.424 125.081L232.586 124.529L232.749 123.912L233.009 122.742L233.171 121.573L233.236 120.37L233.269 119.168L233.236 117.966L233.171 116.764L233.009 115.595L232.749 114.393L232.586 113.84L232.424 113.288L232.294 112.671L232.099 112.151L231.839 111.663L231.644 111.079L231.384 110.591L231.059 110.137L230.832 109.649L230.442 109.194L230.085 108.74L229.76 108.382L229.37 107.96L228.948 107.635L228.493 107.31L228.038 106.985L227.551 106.725L227.031 106.498L226.446 106.303L225.894 106.14L225.244 106.01L224.659 105.913L223.977 105.848H222.612ZM277.908 140.124V113.678L277.843 112.736L277.746 111.858L277.648 111.469L277.551 111.014L277.453 110.689L277.291 110.266L277.128 109.942L276.966 109.584L276.771 109.292L276.576 108.967L276.349 108.642L276.089 108.382L275.894 108.09L275.601 107.862L275.341 107.635L275.017 107.407L274.692 107.18L274.399 107.018L273.717 106.66L272.937 106.368L272.158 106.173L271.345 106.01L270.436 105.913L269.591 105.881L268.486 105.913L267.382 106.01L266.342 106.205L265.237 106.465L264.133 106.725L263.093 107.018L262.054 107.407L261.014 107.732L261.046 107.927L261.111 108.415L261.176 108.999L261.209 109.519V140.124H251.137V107.148L251.105 106.335L251.007 105.361L250.942 104.419L250.812 103.476L250.618 101.917L250.488 101.267L252.762 100.455L255.068 99.7077L257.505 98.9929L259.909 98.3432L261.144 98.0832L262.411 97.8233L263.613 97.5634L264.848 97.401L266.05 97.271L267.284 97.1411L268.486 97.0761L269.623 97.0436L270.598 97.0761H271.54L272.482 97.1411L273.392 97.2385L274.302 97.271L275.146 97.401L276.024 97.5634L276.836 97.7583L277.648 97.9858L278.46 98.1807L279.24 98.4406L279.987 98.7655L280.702 99.0579L281.417 99.4153L282.067 99.7402L282.684 100.195L283.301 100.65L283.886 101.137L284.406 101.624L284.926 102.144L285.38 102.794L285.835 103.411L286.258 104.094L286.615 104.776L286.94 105.556L287.232 106.335L287.46 107.18L287.655 108.057L287.85 108.999L287.979 109.974L288.012 110.981V112.053V140.124H277.908Z" fill="#08338F"/>
<path d="M475.602 25.2107L473.912 26.6726L472.288 28.1996L470.663 29.7591L469.136 31.286L467.609 32.9105L466.115 34.5674L464.718 36.2243L463.321 37.9462L461.989 39.6681L460.689 41.4225L459.455 43.1769L458.22 45.0287L457.115 46.8481L456.011 48.6999L454.939 50.5843L453.964 52.5661L453.022 54.4504L452.112 56.4322L451.268 58.414L450.488 60.4283L449.741 62.4751L449.091 64.5219L448.441 66.6012L447.856 68.6804L447.369 70.8247L446.947 72.9689L446.557 75.1132L446.199 77.2899L445.939 79.4667L445.679 81.6759L445.517 83.9176L445.452 85.9969L445.42 88.0762V90.0904L445.452 92.1697L445.582 94.184L445.744 96.2308L445.939 98.1801L446.167 100.227L446.427 102.209L446.784 104.158L447.174 106.14L447.629 108.057L448.084 110.006L448.571 111.89L449.188 113.84L449.773 115.691L450.455 117.543L451.138 119.428L451.885 121.28L452.665 123.099L453.509 124.886L454.419 126.705L455.361 128.46L456.336 130.214L457.343 131.903L458.383 133.625L459.487 135.347L460.689 136.972L461.826 138.661L463.061 140.253L464.36 141.845L465.692 143.437L464.75 144.054L463.808 144.704L462.866 145.321L461.924 145.938L460.884 146.523L459.909 147.076L458.935 147.66L457.928 148.18L456.173 146.913L454.516 145.614L452.827 144.314L451.235 142.949L449.708 141.585L448.181 140.123L446.752 138.693L445.322 137.264L444.023 135.737L442.691 134.21L441.423 132.618L440.254 131.091L439.117 129.467L437.98 127.875L436.94 126.218L435.9 124.528L436.55 122.969L437.167 121.377L437.817 119.785L438.402 118.096L438.987 116.504L439.539 114.814L440.091 113.092L440.579 111.338L441.066 109.616L441.521 107.797L441.976 106.01L442.366 104.191L442.788 102.371L443.113 100.487L443.47 98.6025L443.763 96.6532L444.088 94.7038L444.38 92.787L444.607 90.7727L444.835 88.7909L445.03 86.7441L445.225 84.6973L445.355 82.6181L445.485 80.5388L445.582 78.3945L445.647 76.2178L445.679 74.106L445.744 71.8968V69.6876L445.679 67.4134L445.647 65.1717L445.517 62.865L445.42 60.2659L445.225 57.6018L445.03 55.0027L444.802 52.4361L444.542 49.8695L444.218 47.2704L443.893 44.7038L443.535 42.2022L444.997 40.5778L446.557 39.0183L448.149 37.4589L449.838 35.9644L451.56 34.5024L453.314 33.0729L455.101 31.6434L456.986 30.2464L458.935 28.9144L460.884 27.6148L462.963 26.3153L465.01 25.0807L467.154 23.8461L469.396 22.709L471.605 21.507L473.912 20.4023L474.789 21.2146L475.634 22.0593L476.479 22.8715L477.323 23.6837L475.602 25.2107Z" fill="#29B582"/>
<path d="M456.66 11.8908L454.386 14.0351L452.047 16.2443L449.74 18.5185L447.499 20.8252L445.224 23.1644L442.983 25.5686L440.806 27.9727L440.481 26.5757L440.156 25.2112L439.831 23.8142L439.506 22.4497L439.117 21.0851L438.759 19.7206L438.369 18.3561L437.979 17.0241L439.961 15.692L441.976 14.425L443.99 13.1579L446.069 11.9558L448.181 10.7862L450.325 9.68162L452.502 8.57701L454.776 7.50488L455.816 8.08968L456.92 8.6095L457.992 9.1618L459 9.7466L456.66 11.8908Z" fill="#00B5C2"/>
<path d="M434.503 154.71L432.879 153.476L431.222 152.176L429.695 150.909L428.135 149.545L426.608 148.18L425.114 146.848L423.717 145.484L424.691 144.152L425.666 142.82L426.641 141.488L427.55 140.091L428.46 138.694L429.37 137.264L430.247 135.835L431.124 134.308L432.846 136.842L434.6 139.376L436.355 141.845L438.239 144.249L440.124 146.588L442.008 148.928L443.925 151.169L445.907 153.346L444.704 153.736L443.535 154.126L442.3 154.483L441.098 154.775L439.864 155.165L438.694 155.393L437.427 155.685L436.192 155.978L434.503 154.71Z" fill="#00B5C2"/>
<path d="M498.051 62.8332L498.474 65.01L498.831 67.2517L499.156 69.4934L499.351 71.7676L499.513 74.0743L499.643 76.3485L499.676 78.6552L499.643 80.0522L499.611 81.3518L499.546 82.7163L499.481 84.0483L499.351 85.3804L499.253 86.6799L499.091 88.0119L498.929 89.3115L498.734 90.5785L498.539 91.9106L498.311 93.1776L498.084 94.4447L497.791 95.7442L497.499 96.9788L497.174 98.2783L496.849 99.5454L496.524 100.78L496.102 101.982L495.745 103.217L495.355 104.419L494.932 105.653L494.445 106.823L493.99 108.025L493.535 109.195L493.016 110.364L492.496 111.534L491.976 112.638L491.391 113.775L490.254 116.05L488.987 118.226L488.402 117.317L487.882 116.407L487.363 115.465L486.843 114.523L486.355 113.58L485.901 112.638L485.511 111.664L485.056 110.754L484.699 109.779L484.276 108.805L483.951 107.798L483.626 106.823L483.302 105.881L483.042 104.906L482.749 103.866L482.522 102.892L482.294 101.917L482.132 100.877L481.937 99.9028L481.807 98.8956L481.71 97.8885L481.645 96.8813L481.547 95.8417L481.515 94.8345V93.7949V92.7878L481.547 91.7481L481.645 90.741L481.71 89.7013L481.807 88.6942L481.969 87.6546L482.132 86.5824L482.359 85.7052L482.522 84.7631L482.749 83.8209L483.009 82.8787L483.269 81.9366L483.594 81.0269L483.919 80.1172L484.211 79.2725L484.569 78.3628L484.893 77.4531L485.283 76.6084L485.706 75.7312L486.161 74.8865L486.583 74.0743L487.07 73.1971L487.525 72.3849L488.045 71.5727L488.532 70.793L489.085 70.0132L489.604 69.201L490.222 68.4538L490.774 67.6741L491.391 66.9268L492.008 66.1796L493.341 64.7501L494.64 63.2881L496.07 61.9236L497.597 60.624L498.051 62.8332Z" fill="#7DBA00"/>
<path d="M473.23 86.6798L473.1 88.2067L473.002 89.7012L472.937 91.1957L472.905 92.6577V94.0872V95.5816L472.937 97.0436L473.002 98.4731L473.1 99.9026L473.262 101.3L473.392 102.729L473.587 104.126L473.75 105.523L474.009 106.92L474.237 108.285L474.497 109.649L474.822 111.014L475.114 112.378L475.471 113.71L475.829 115.01L476.219 116.374L476.641 117.674L477.096 118.941L477.518 120.273L478.038 121.54L478.558 122.84L479.11 124.074L479.663 125.341L480.215 126.576L480.832 127.81L481.482 129.012L480.735 129.89L480.02 130.734L479.24 131.579L478.46 132.391L477.681 133.203L476.901 134.016L476.121 134.795L475.309 135.575L474.042 134.341L472.742 133.074L471.54 131.806L470.338 130.474L469.169 129.11L468.032 127.745L466.959 126.316L465.887 124.919L464.848 123.457L463.938 122.027L462.996 120.533L462.119 119.006L461.241 117.446L460.462 115.92L459.714 114.36L458.967 112.768L458.317 111.176L457.7 109.584L457.115 107.927L456.628 106.303L456.141 104.613L455.718 102.989L455.329 101.3L455.036 99.6102L454.744 97.9533L454.549 96.2639L454.354 94.5745L454.256 92.8526L454.191 91.1307L454.224 89.4088L454.256 87.7519L454.386 86.03L454.614 84.0807L454.874 82.1963L455.199 80.2795L455.588 78.4926L456.011 76.6408L456.531 74.7889L457.115 73.0345L457.733 71.3126L458.382 69.5583L459.13 67.8688L459.942 66.1794L460.819 64.5225L461.696 62.9306L462.638 61.3061L463.646 59.7792L464.75 58.2197L465.855 56.6928L467.024 55.1983L468.226 53.7363L469.526 52.3393L470.826 51.0072L472.19 49.6102L473.587 48.3107L475.049 47.0111L476.544 45.7116L478.103 44.542L479.695 43.3399L481.319 42.2028L483.009 41.0332L484.763 39.9611L486.485 38.889L488.304 37.8818L488.954 38.954L489.604 40.0586L490.156 41.1957L490.774 42.3328L489.799 43.4699L488.922 44.607L488.045 45.8091L487.167 47.0111L486.355 48.2132L485.543 49.4478L484.763 50.7148L483.951 51.9819L483.269 53.2814L482.521 54.581L481.872 55.913L481.189 57.2126L480.572 58.5446L480.02 59.9416L479.403 61.2737L478.883 62.6382L478.298 64.0027L477.811 65.4322L477.356 66.7642L476.868 68.1612L476.446 69.6232L476.056 71.0202L475.666 72.4172L475.309 73.8143L475.017 75.2762L474.692 76.6733L474.399 78.1028L474.172 79.4998L473.912 80.9618L473.717 82.3588L473.555 83.8208L473.392 85.2178L473.23 86.6798Z" fill="#54B840"/>
<path d="M365.952 23.6838L365.66 25.4382L365.367 27.1926L364.978 28.9795L364.588 30.7338L364.198 32.4882L363.743 34.2426L363.256 35.997L362.703 37.7839L362.184 39.5383L361.566 41.2926L360.981 42.9821L360.332 44.704L359.682 46.4258L358.967 48.1477L358.22 49.8047L357.44 51.4616L356.661 53.1185L355.816 54.7429L354.939 56.3349L354.094 57.9268L353.184 59.4863L352.242 60.9808L351.202 62.4752L350.228 63.9372L349.188 65.3667L348.084 66.7637L346.979 68.1283L345.874 69.4603L344.737 70.7598L343.535 71.9944L342.333 73.164L342.495 71.3121L342.69 69.4603L342.918 67.5759L343.178 65.7566L343.503 63.9047L343.892 62.1503L344.282 60.331L344.737 58.5441L345.225 56.7897L345.712 55.0353L346.297 53.3459L346.881 51.624L347.564 49.9346L348.213 48.2452L348.928 46.6208L349.708 44.9964L350.455 43.3719L351.3 41.78L352.145 40.188L353.054 38.6611L353.964 37.1666L354.906 35.6396L355.881 34.1452L356.953 32.6832L357.993 31.2537L359.065 29.8567L360.169 28.4596L361.339 27.1276L362.508 25.7956L363.743 24.4635L364.978 23.229L366.245 21.9619L365.952 23.6838Z" fill="#00B8E0"/>
<path d="M381.969 12.8652L382.131 15.5617L382.196 18.2908L382.261 21.1498L382.196 24.0088L382.131 26.9652L381.936 29.9542L381.676 33.0731L381.352 36.127L380.929 39.2784L380.442 42.4298L379.857 45.6137L379.207 48.7976L378.428 51.9815L377.55 55.1978L376.641 58.3493L375.536 61.5331L374.367 64.652L373.132 67.706L371.735 70.7599L370.208 73.7489L368.616 76.6728L366.894 79.5643L365.01 82.3583L363.028 85.0549L360.916 87.654L358.674 90.1881L356.27 92.6248L353.801 94.899L351.137 97.1082L348.343 99.155L345.354 101.104L344.964 99.6748L344.574 98.2778L344.25 96.8158L343.925 95.3863L343.632 93.8918L343.34 92.3973L343.112 90.9678L342.853 89.4734L344.315 87.784L345.712 86.0296L347.109 84.2752L348.506 82.4558L349.838 80.604L351.17 78.6871L352.502 76.8028L353.801 74.8535L355.068 72.8067L356.335 70.7924L357.57 68.6806L358.772 66.5364L359.974 64.3596L361.144 62.1504L362.313 59.8762L363.45 57.5045L364.555 55.1329L365.627 52.6962L366.699 50.2271L367.739 47.693L368.746 45.0939L369.721 42.4298L370.695 39.7008L371.637 36.9392L372.547 34.1127L373.457 31.2212L374.269 28.2648L375.081 25.2433L375.861 22.1569L376.673 19.0055L377.42 15.7891L378.168 12.5078L379.045 11.923L379.955 11.4032L380.864 10.8184L381.709 10.3311L381.969 12.8652Z" fill="#0399CC"/>
<path d="M445.939 66.9592L445.972 70.9878L445.939 74.9189L445.809 78.785L445.615 82.5862L445.322 86.2899L444.965 89.9286L444.542 93.5024L443.99 96.9787L443.405 100.39L442.691 103.769L441.976 107.018L441.099 110.234L440.254 113.353L439.279 116.439L438.207 119.396L437.135 122.255L435.933 125.146L434.731 127.875L433.366 130.572L432.002 133.203L430.572 135.738L429.11 138.207L427.518 140.578L425.959 142.918L424.27 145.127L422.548 147.304L420.761 149.415L418.909 151.43L417.025 153.379L415.108 155.231L413.093 157.083L411.826 156.92L410.559 156.79L409.26 156.595L407.96 156.4L406.693 156.173L405.426 155.946L404.159 155.686L402.924 155.393L401.722 155.101L400.488 154.776L399.253 154.419L398.051 154.094L396.849 153.671L395.647 153.314L394.51 152.859L393.275 152.437L396.459 149.123L399.513 145.647L402.405 142.04L405.069 138.337L407.635 134.503L410.072 130.539L412.314 126.478L414.458 122.32L416.407 118.064L418.259 113.71L419.916 109.194L421.476 104.711L422.873 100.065L424.205 95.3218L425.342 90.5134L426.414 85.6401L427.291 80.7019L428.136 75.6661L428.785 70.5329L429.338 65.4322L429.793 60.234L430.085 54.9709L430.345 49.6427L430.507 44.2821V38.889L430.41 33.4309L430.247 27.9728L429.988 22.4823L429.63 16.9592L429.175 11.4036L428.623 5.81558L428.038 0.227539L429.175 0.325005L430.345 0.454959L431.482 0.584914L432.587 0.747357L433.301 2.50174L433.984 4.22364L434.633 6.043L435.283 7.79739L435.9 9.58426L436.485 11.4036L437.135 13.2555L437.655 15.0748L438.24 16.9592L438.792 18.811L439.312 20.6954L439.799 22.6122L440.286 24.4641L440.741 26.4134L441.196 28.3627L441.651 30.2795L442.008 32.2288L442.463 34.2106L442.821 36.2249L443.145 38.1743L443.535 40.1886L443.828 42.2028L444.088 44.2496L444.38 46.2639L444.64 48.3107L444.867 50.3575L445.062 52.4368L445.257 54.4836L445.42 56.5953L445.582 58.6746L445.68 60.7539L445.809 62.8656L445.939 66.9592Z" fill="#08338F"/>
<path d="M416.31 4.38589L417.382 8.80435L418.422 13.2878L419.364 17.9012L420.176 22.612L420.858 27.3554L421.443 32.1637L421.898 37.037L422.255 41.9752L422.483 46.9135L422.548 51.9168L422.418 56.8875L422.19 61.8908L421.8 66.9265L421.216 71.9298L420.436 76.8355L419.526 81.8063L418.389 86.6796L417.025 91.5204L415.498 96.2637L413.776 101.007L411.794 105.653L409.617 110.136L407.181 114.555L404.549 118.876L401.625 123.099L398.474 127.128L395.062 131.092L391.359 134.893L387.427 138.434L383.171 141.943L378.688 145.159L377.129 144.152L375.602 143.145L374.14 142.04L372.678 140.936L371.281 139.831L369.851 138.661L368.454 137.459L367.122 136.192L370.631 133.073L373.945 129.792L377.096 126.316L380.053 122.709L382.879 118.941L385.511 115.01L387.98 111.014L390.319 106.855L392.496 102.632L394.542 98.3105L396.394 93.8921L398.149 89.3762L399.741 84.8277L401.203 80.2144L402.6 75.536L403.802 70.8576L404.906 66.1793L405.914 61.4359L406.823 56.7251L407.603 52.0792L408.318 47.4008L408.902 42.755L409.422 38.1741L409.812 33.6257L410.17 29.1422L410.462 24.7563L410.592 20.4353L410.754 16.2442L410.787 12.1182V8.15457L410.754 4.28843L410.657 0.584724L411.729 0.42228L412.899 0.292326L414.003 0.162371L415.14 0.129883L416.31 4.38589Z" fill="#0554A3"/>
<path d="M398.505 7.08287L399.155 10.9165L399.74 14.8477L400.195 18.8438L400.552 22.9048L400.812 27.0959L400.91 31.2544V35.5104L400.812 39.7989L400.52 44.0874L400.195 48.4084L399.675 52.7294L398.993 57.0504L398.213 61.3714L397.271 65.6274L396.231 69.8834L395.029 74.1069L393.665 78.233L392.138 82.3265L390.513 86.3551L388.694 90.2863L386.679 94.1199L384.535 97.8886L382.261 101.495L379.792 105.069L377.128 108.415L374.334 111.664L371.312 114.783L368.128 117.674L364.75 120.468L361.273 123.035L357.505 125.439L356.595 124.139L355.718 122.84L354.808 121.508L353.963 120.143L353.086 118.779L352.274 117.349L351.494 115.952L350.747 114.523L353.541 111.891L356.173 109.195L358.707 106.466L361.111 103.607L363.45 100.683L365.659 97.6937L367.804 94.6397L369.85 91.4558L371.767 88.272L373.587 84.9906L375.341 81.6768L376.965 78.3629L378.525 74.9191L380.019 71.4428L381.384 67.9666L382.716 64.3928L383.918 60.7866L385.023 57.1478L386.095 53.5091L387.134 49.8054L387.979 46.1342L388.889 42.3655L389.668 38.6293L390.351 34.8606L390.968 31.092L391.553 27.3233L392.04 23.5546L392.527 19.7534L392.917 15.9848L393.275 12.2161L393.567 8.41491L393.795 4.67871L394.737 4.32134L395.711 3.99645L396.718 3.67157L397.726 3.34668L398.505 7.08287Z" fill="#0575B8"/>
</g>
<defs>
<clipPath id="clip0_39_330">
<rect width="500" height="219.298" fill="white"/>
</clipPath>
</defs>
</svg>
