<svg width="500" height="169" viewBox="0 0 500 169" fill="none" xmlns="http://www.w3.org/2000/svg">
<g clip-path="url(#clip0_39_318)">
<path d="M62.2257 81.4817L170.273 167.854L62.2257 97.5428L147.781 167.854L62.2257 113.604L125.295 167.854L62.2257 129.676L102.803 167.854H0L96.3227 1.01855L192.645 167.854L62.2257 81.4817Z" fill="black"/>
<path d="M271.759 116.889H201.307V111.742L202.531 111.568C206.067 111.394 209.876 110.708 211.78 106.073C213.412 102.128 213.14 94.5764 213.14 90.1096V26.948C213.14 15.6204 214.092 6.52891 203.075 5.32651L201.307 5.1524V0H239.936V5.1524L238.162 5.32651C234.359 5.66949 230.279 6.01202 228.238 10.8162C226.47 14.9348 226.742 22.3179 226.742 26.948V93.7168C226.742 96.9813 226.742 102.814 228.097 105.561C229.87 109.506 235.311 110.366 238.434 110.366C256.253 110.366 269.582 95.9475 278.832 78.0965L282.64 80.3326L271.759 116.889Z" fill="black"/>
<path d="M327.902 74.1487C317.565 75.3511 295.263 78.9529 295.263 95.9498C295.263 104.698 301.112 109.851 307.641 109.851C314.98 109.851 322.325 104.356 327.902 98.3491V74.1487ZM356.597 112.424C353.202 116.543 347.217 118.431 342.723 118.262C336.063 118.088 329.942 114.312 327.902 105.901C319.877 113.795 312.532 118.262 302.331 118.262C292.815 118.262 281.525 111.739 281.525 98.0064C281.525 86.336 287.238 80.8408 294.986 76.5535C302.2 72.4349 310.084 70.5469 317.837 69.5132L327.902 68.1421V55.7862C327.63 50.4651 326.95 45.9983 323.142 42.7393C319.605 39.8231 314.98 39.1375 310.9 39.1375C306.683 39.1375 297.842 41.711 297.842 48.2344V50.4652C297.842 56.1235 296.079 60.759 290.911 60.759C287.646 60.759 284.518 57.5 284.518 53.2073C284.518 45.9983 290.775 39.6489 295.535 37.0755C301.243 33.9851 308.588 32.2713 314.708 32.0972C320.421 31.9288 327.902 34.3279 332.935 37.761C340.28 42.7393 340.96 49.2627 340.96 58.8711V92.5167C340.96 99.7256 341.776 110.536 348.441 110.536C350.481 110.536 352.385 109.334 354.012 107.963L356.597 112.424Z" fill="black"/>
<path d="M381.191 95.0925C381.191 104.532 382.415 110.882 390.848 111.741H392.345V116.894H357.665V111.741C366.909 110.713 368.139 104.875 368.139 95.0925V59.3958C368.139 49.782 366.773 43.4326 358.204 42.7417H356.033V37.5947L376.839 33.8188H381.191V45.6579C387.176 37.5947 396.425 32.0995 406.763 32.0995C415.468 32.0995 421.583 35.1899 425.528 45.6579C432.329 38.1061 441.85 32.4477 450.419 32.0995C456.268 31.9311 462.661 34.5044 466.333 40.685C469.326 45.6579 469.598 51.4958 469.598 57.3337V95.0925C469.598 104.364 470.686 110.713 479.935 111.741V116.894H445.386V111.741H446.474C455.18 110.882 456.54 105.218 456.54 95.0925V61.1096C456.54 57.3337 456.54 53.2151 455.452 49.4392C453.819 44.2868 450.147 41.0278 445.8 41.0278C438.585 41.0278 431.376 46.523 425.392 52.3554V95.0925C425.392 105.218 426.757 110.882 435.457 111.741H436.545V116.894H401.186V111.741H402.274C410.974 110.882 412.339 105.218 412.339 95.0925V60.5927C412.339 51.153 411.795 41.0278 402.138 41.0278C394.243 41.0278 386.496 46.523 381.191 52.3554V95.0925Z" fill="black"/>
<path d="M477.579 40.6515C477.579 43.682 478.754 46.4895 480.865 48.5842C483.009 50.6952 485.778 51.8486 488.782 51.8486C491.796 51.8486 494.609 50.6625 496.66 48.5842C498.776 46.4568 500 43.5515 500 40.6515C500 37.2892 498.417 33.9975 495.844 31.9409C493.836 30.3087 491.301 29.3838 488.814 29.3838C485.419 29.3838 482.231 30.9289 480.087 33.5731C478.461 35.559 477.579 38.0726 477.579 40.6515ZM488.782 30.5372C494.288 30.5372 498.842 35.0367 498.842 40.6515C498.842 46.0705 494.451 50.6952 488.782 50.6952C483.172 50.6952 478.689 46.2338 478.689 40.6515C478.689 35.0367 483.205 30.5372 488.782 30.5372ZM483.923 33.9322V46.9628H486.295V42.213H488.618C491.268 42.213 492.182 43.6494 492.215 46.9628H494.772V46.299C494.772 43.4209 493.961 41.9519 491.562 41.2718C493.836 40.7168 494.968 39.4437 494.968 37.7136C494.968 35.2979 493.123 33.9322 489.337 33.9322H483.923ZM486.295 36.0161H488.814C491.137 36.0161 492.351 36.4731 492.351 37.8115C492.351 39.3458 491.105 40.1347 488.586 40.1347H486.295V36.0161Z" fill="black"/>
<path d="M266.433 142.84L265.067 143.488C261.607 138.406 258.065 136.012 252.428 136.012C251.231 136.012 249.224 136.061 248.244 136.959C247.178 137.906 247.135 139.353 247.135 140.8V148.472H249.996C254.306 148.472 255.116 147.275 255.628 142.34H257.08V157.247H255.628C255.502 155.697 255.29 154.206 254.523 152.906C253.413 150.914 251.786 150.817 249.909 150.817H247.135V160.735C247.135 161.731 247.222 163.374 247.777 164.223C248.669 165.621 250.764 165.719 252.129 165.719C258.707 165.719 262.586 162.579 266.433 156.551L267.798 157.247L263.914 167.862H239.022V166.366L239.447 166.317C240.6 166.171 241.841 166.121 242.439 164.723C242.951 163.581 242.864 161.383 242.864 160.088V141.693C242.864 138.406 243.163 135.762 239.664 135.463L239.022 135.414V133.918H263.484L266.433 142.84Z" fill="black"/>
<path d="M217.506 149.717C219.427 149.717 221.347 149.669 223.012 148.325C224.639 147.024 225.449 144.886 225.449 142.59C225.449 136.959 221.178 135.811 217.207 135.811C215.966 135.811 213.279 135.963 212.169 136.709C211.146 137.405 211.102 138.254 211.102 139.5V149.717H217.506ZM228.904 162.628C230.232 164.772 231.467 165.92 233.73 166.366V167.862H226.597L217.082 151.812H211.102V160.039C211.102 163.477 210.846 166.067 214.432 166.366H215.33V167.862H202.734V166.366L203.289 166.317C204.486 166.219 205.765 166.121 206.407 164.723C206.918 163.526 206.831 161.383 206.831 160.039V141.693C206.831 138.254 207.13 135.713 203.545 135.463L202.734 135.414V133.918H219.726C224.639 133.918 229.927 135.664 229.927 142.639C229.927 147.824 226.173 150.915 222.076 151.366L228.904 162.628Z" fill="black"/>
<path d="M299.009 142.938L297.643 143.536C295.211 139.048 291.794 135.566 286.968 135.566C284.28 135.566 280.733 137.209 280.733 140.843C280.733 144.831 284.58 145.827 287.186 146.578L291.538 147.775C296.19 149.07 301.06 150.664 301.06 157.497C301.06 164.723 295.08 168.711 289.487 168.711C286.283 168.711 282.828 167.71 280.347 165.321L279.542 167.862H277.958L275.184 156.447L276.767 155.849C278.987 161.333 283.508 166.219 289.019 166.219C292.773 166.219 296.832 163.727 296.832 158.841C296.832 154.451 293.541 153.705 290.554 152.807L285.82 151.464C283.894 150.865 281.332 150.016 279.71 148.776C277.833 147.427 276.506 144.935 276.506 142.339C276.506 139.548 277.703 137.007 279.623 135.31C281.631 133.618 284.063 133.068 286.5 133.068C289.188 133.068 292.137 133.814 294.357 135.713L294.868 133.917H296.402L299.009 142.938Z" fill="black"/>
<path d="M335.597 142.84L334.231 143.488C330.771 138.406 327.229 136.012 321.592 136.012C320.395 136.012 318.388 136.061 317.408 136.959C316.337 137.906 316.298 139.353 316.298 140.8V148.472H319.155C323.469 148.472 324.28 147.275 324.791 142.34H326.244V157.247H324.791C324.666 155.697 324.448 154.206 323.687 152.906C322.572 150.914 320.95 150.817 319.073 150.817H316.298V160.735C316.298 161.731 316.38 163.374 316.935 164.223C317.833 165.621 319.927 165.719 321.293 165.719C327.866 165.719 331.75 162.579 335.597 156.551L336.957 157.247L333.078 167.862H308.181V166.366L308.611 166.317C309.764 166.171 310.999 166.121 311.603 164.723C312.114 163.581 312.027 161.383 312.027 160.088V141.693C312.027 138.406 312.326 135.762 308.823 135.463L308.181 135.414V133.918H332.648L335.597 142.84Z" fill="black"/>
<path d="M392.972 149.717C394.892 149.717 396.818 149.669 398.478 148.325C400.099 147.024 400.915 144.886 400.915 142.59C400.915 136.959 396.644 135.811 392.673 135.811C391.438 135.811 388.75 135.963 387.634 136.709C386.612 137.405 386.573 138.254 386.573 139.5V149.717H392.972ZM404.376 162.628C405.698 164.772 406.938 165.92 409.196 166.366V167.862H402.069L392.547 151.812H386.573V160.039C386.573 163.477 386.312 166.067 389.898 166.366H390.795V167.862H378.2V166.366L378.761 166.317C379.952 166.219 381.236 166.121 381.873 164.723C382.384 163.526 382.297 161.383 382.297 160.039V141.693C382.297 138.254 382.602 135.713 379.011 135.463L378.2 135.414V133.918H395.192C400.099 133.918 405.398 135.664 405.398 142.639C405.398 147.824 401.639 150.915 397.542 151.366L404.376 162.628Z" fill="black"/>
<path d="M360.787 153.007L355.917 138.203L351.178 153.007H360.787ZM367.702 160.086C368.768 163.176 369.41 166.169 372.784 166.37V167.866H360.787V166.37C362.19 166.169 364.116 165.82 364.116 163.873C364.116 163.029 363.73 161.881 363.474 161.13L361.554 155.249H350.58L349.383 158.987C349.04 160.037 348.404 161.979 348.404 163.133C348.404 165.619 350.112 166.12 352.158 166.37V167.866H340.716V166.37L341.189 166.267C343.235 165.717 343.958 165.124 345.03 162.926C346.01 160.886 347.076 157.545 347.805 155.304L354.932 133.916H358.904L367.702 160.086Z" fill="black"/>
<path d="M452.022 141.692C452.022 138.405 452.321 135.761 448.861 135.462L448.225 135.413V133.917H460.259V135.413H459.792C458.6 135.511 457.36 135.658 456.761 137.056C456.244 138.253 456.293 140.397 456.293 141.741V148.569H471.62V141.741C471.62 138.406 471.919 135.761 468.421 135.462L467.779 135.413V133.917H479.732V135.413H479.302C478.149 135.566 476.914 135.712 476.359 137.057C475.804 138.253 475.891 140.397 475.891 141.692V160.087C475.891 163.373 475.591 166.018 479.09 166.317L479.732 166.366V167.862H467.779V166.366H468.203C469.357 166.268 470.554 166.067 471.152 164.722C471.663 163.526 471.62 161.382 471.62 160.087V150.664H456.293V160.087C456.293 163.422 456.032 166.017 459.536 166.317L460.26 166.365V167.862H448.225V166.365H448.649C449.803 166.219 450.994 166.066 451.598 164.722C452.109 163.525 452.022 161.382 452.022 160.087L452.022 141.692Z" fill="black"/>
<path d="M441.39 146.382H440.025L439.856 145.984C438.872 143.791 437.587 140.848 436.14 139.004C434.263 136.664 431.831 135.565 429.051 135.565C425.765 135.565 423.197 137.306 421.494 140.451C419.829 143.59 419.318 147.529 419.318 151.218C419.318 154.657 419.916 158.694 421.706 161.534C423.589 164.526 426.706 166.218 429.905 166.218C434.263 166.218 438.317 163.079 440.449 158.743L442.283 159.94C439.47 165.674 434.856 168.716 429.225 168.716C420.384 168.716 414.192 161.24 414.192 150.968C414.192 141.447 420.128 133.073 428.54 133.073C431.652 133.073 434.688 134.167 437.038 136.664L437.974 134.368H439.345L441.39 146.382Z" fill="black"/>
</g>
<defs>
<clipPath id="clip0_39_318">
<rect width="500" height="168.715" fill="white"/>
</clipPath>
</defs>
</svg>
