<svg width="500" height="122" viewBox="0 0 500 122" fill="none" xmlns="http://www.w3.org/2000/svg">
<g clip-path="url(#clip0_39_313)">
<path fill-rule="evenodd" clip-rule="evenodd" d="M161.951 29.3917L181.399 24.9375V119.762H161.951V29.3917ZM252.604 108.815C246.393 116.719 236.104 121.267 226.004 121.267C206.556 121.267 190.998 108.313 190.998 88.1746C190.998 68.0366 206.556 55.0818 226.004 55.0818C244.197 55.0818 255.646 68.0366 255.646 88.1746V94.2286H210.446C212.045 101.663 217.597 106.462 225.094 106.462C231.493 106.462 235.696 103.262 238.959 98.7769L252.604 108.815ZM236.104 81.0228C236.292 74.5611 231.148 69.0718 224.153 69.0718C215.59 69.0718 210.947 74.8748 210.446 81.0228H236.104ZM345.609 119.699V111.355H345.358C342.346 115.904 334.85 121.205 326.004 121.205C307.309 121.205 295.013 107.717 295.013 88.6138C295.013 71.1107 305.897 55.0191 323.808 55.0191C331.807 55.0191 339.398 57.1834 343.758 63.3315H344.009V29.3917L363.457 24.9375V119.699H345.609ZM330.05 72.1772C320.264 72.1772 314.461 78.6703 314.461 88.206C314.461 97.7104 320.264 104.204 330.05 104.204C339.806 104.204 345.609 97.7104 345.609 88.206C345.609 78.6703 339.806 72.1772 330.05 72.1772ZM406.713 55.0818C426.161 55.0818 441.75 68.068 441.75 88.206C441.75 108.313 426.161 121.299 406.713 121.299C387.265 121.299 371.707 108.313 371.707 88.206C371.707 68.068 387.265 55.0818 406.713 55.0818ZM406.713 104.109C416.405 104.109 422.303 97.6163 422.303 88.1119C422.303 78.5761 416.405 72.1144 406.713 72.1144C396.957 72.1144 391.154 78.5761 391.154 88.1119C391.154 97.6163 396.957 104.109 406.713 104.109ZM485.602 75.2198C482.748 71.6753 478.952 69.9187 474.31 69.9187C471.048 69.9187 467.158 71.3616 467.158 75.1257C467.158 84.4733 500 76.5686 500 100.565C500 116.656 484.41 121.362 470.954 121.362C462.108 121.362 452.447 119.197 446.205 112.798L457.999 99.6552C461.606 104.015 465.904 106.556 471.707 106.556C476.098 106.556 480.552 105.364 480.552 102.008C480.552 91.9074 447.71 100.408 447.71 76.4118C447.71 61.5749 460.947 55.0818 474.153 55.0818C482.497 55.0818 491.656 57.1834 497.553 63.4256L485.602 75.2198ZM266.06 56.6188H285.508V119.699H266.06V56.6188ZM266.154 29.4858H285.602V45.6715H266.154V29.4858Z" fill="#12034E"/>
<path fill-rule="evenodd" clip-rule="evenodd" d="M66.3425 71.8319L45.1066 56.0854L145.201 26.3488L66.3425 71.8319ZM25.596 23.3376L20.389 37.8294L0 22.6475L25.596 23.3376Z" fill="#D3D2D2"/>
<path d="M145.106 26.3488L25.5956 23.3375L34.0021 0L145.106 26.3488ZM20.3572 37.798L45.1062 56.0853L10.0059 66.5307L20.3572 37.798Z" fill="#12034E"/>
<path d="M145.201 26.3492L45.1065 56.0857L20.3574 37.8297L25.6586 23.3379L145.201 26.3492Z" fill="#8D248A"/>
</g>
<defs>
<clipPath id="clip0_39_313">
<rect width="500" height="121.393" fill="white"/>
</clipPath>
</defs>
</svg>
