<svg width="500" height="76" viewBox="0 0 500 76" fill="none" xmlns="http://www.w3.org/2000/svg">
<g clip-path="url(#clip0_39_312)">
<path d="M6.08372 37.2695H14.1539L9.26161 60.3309H22.1444L20.9506 65.976H0L6.08372 37.2695Z" fill="#003478"/>
<path d="M31.5674 40.4499C35.9789 36.7912 41.5467 36.4746 43.6551 36.4746C55.1072 36.4746 56.4581 44.7043 54.9477 51.7027C52.5227 63.1548 43.6551 66.6516 36.8162 66.6516C29.1822 66.6516 22.9789 62.4395 25.2445 51.7425C25.6432 49.8335 27.1934 44.1086 31.5674 40.4499ZM38.1671 60.8071C43.8521 60.8071 45.9207 55.5583 46.7556 51.5831C47.5905 47.5656 47.0746 45.5791 46.4765 44.3079C45.6416 42.7178 43.892 42.2394 42.1424 42.2394C36.8936 42.2394 34.5084 46.7705 33.4343 51.7003C32.4797 56.2737 32.8784 60.8071 38.1671 60.8071Z" fill="#003478"/>
<path d="M78.8373 46.2948C79.114 43.3937 77.287 42.3196 75.0191 42.3196C70.2066 42.3196 67.8214 46.7334 66.7074 51.9822C66.3087 53.7318 64.8405 60.9671 71.0016 60.9671C75.2161 60.9671 76.2903 57.9041 76.689 56.7924H84.9585C83.0096 65.7796 73.7058 66.5348 69.9674 66.5348C67.1835 66.5348 62.3733 66.0587 59.8685 62.7167C57.4434 59.377 57.8797 54.806 58.5176 51.8227C59.3525 47.885 61.1021 43.9495 64.4418 40.8889C68.1005 37.5492 72.0758 36.6768 76.2504 36.6768C80.9035 36.6768 84.2033 37.7908 85.9529 40.176C87.7424 42.6385 87.2264 45.2254 87.0271 46.2972H78.8373V46.2948Z" fill="#003478"/>
<path d="M93.7839 37.2695H101.854L99.1898 49.8755L111.038 37.2695H120.462L107.898 49.9131L115.175 65.976H105.316L99.0327 50.7081L95.7727 65.976H87.7002L93.7839 37.2695Z" fill="#003478"/>
<path d="M124.275 37.2695H132.308L129.962 48.4824H139.543L141.891 37.2695H149.961L143.877 65.976H135.805L138.27 54.3668H128.647L126.182 65.976H118.191L124.275 37.2695Z" fill="#003478"/>
<path d="M155.365 37.3496H176.916L175.764 42.8376H162.087L160.813 48.8017H173.696L172.502 54.2897H159.619L158.346 60.4133H172.343L171.149 65.9787H149.281L155.365 37.352V37.3496Z" fill="#003478"/>
<path d="M181.881 37.3496H203.432L202.28 42.8376H188.602L187.329 48.8017H200.211L199.018 54.2897H186.135L184.861 60.4133H198.858L197.664 65.9787H175.797L181.881 37.352V37.3496Z" fill="#003478"/>
<path d="M208.556 37.2695H220.684C224.103 37.2695 228.594 37.6284 231.139 39.6547C234.758 42.5582 234.917 47.2887 234.003 51.5431C232.652 57.9059 229.629 62.5988 223.348 64.8644C220.168 65.9784 216.668 65.9784 214.68 65.9784H202.475L208.558 37.2719L208.556 37.2695ZM211.816 60.4482H215.235C220.524 60.4083 224.38 58.1427 225.813 51.4633C227.642 42.7552 221.122 42.7552 218.697 42.7552L215.554 42.7153L211.816 60.4482Z" fill="#003478"/>
<path d="M254.512 37.2694H267.038L267.714 56.7119L276.342 37.2694L288.866 37.2295L282.782 65.9782H275.268L280.756 41.8826L268.828 65.9782H261.67L260.279 41.6832L255.309 65.9782H248.431L254.514 37.2717L254.512 37.2694Z" fill="#003478"/>
<path d="M303.414 37.2695H313.116L318.365 65.976H309.38L308.625 60.2113H297.133L293.953 65.976H286L303.416 37.2695H303.414ZM307.907 54.9226L306.754 42.8748H306.634L300.114 54.9226H307.907Z" fill="#003478"/>
<path d="M327.463 37.2695H340.742C345.911 37.2695 347.82 37.5885 349.131 39.3381C349.847 40.2129 350.602 41.803 349.966 44.9035C349.291 48.0439 347.741 49.3971 346.19 50.232C344.122 51.3836 342.332 51.5829 341.5 51.7025L341.46 51.862C347.025 52.0215 346.789 54.4888 346.509 58.9003C346.35 60.8492 346.111 63.9497 346.35 65.9784H337.722C337.602 64.2288 337.881 62.0406 338.16 59.496C338.517 56.0366 338.676 54.7655 335.097 54.7655H331.757L329.372 65.9784H321.382L327.466 37.2719L327.463 37.2695ZM332.872 49.5964H335.855C337.604 49.5964 338.479 49.5964 339.194 49.3572C341.061 48.8014 341.779 47.0119 341.978 46.0973C342.733 42.5582 339.631 42.5582 337.325 42.5582H334.344L332.872 49.5941V49.5964Z" fill="#003478"/>
<path d="M361.533 42.9545H352.785L353.979 37.2695H379.702L378.508 42.9545H369.563L364.671 65.976H356.639L361.531 42.9545H361.533Z" fill="#003478"/>
<path d="M382.484 37.2695H390.674L384.59 65.976H376.4L382.484 37.2695Z" fill="#003478"/>
<path d="M396 37.2695H406.974L412.143 58.661L416.597 37.2695H423.555L417.472 65.976H406.737L401.568 43.6722L396.917 65.976H389.919L396.003 37.2695H396Z" fill="#003478"/>
<path d="M467.609 29.5457L476.2 0.468646C476.303 0.0957423 475.834 -0.164586 475.572 0.119195L448.263 29.5457H328.957C328.476 29.5457 328.455 30.2775 328.936 30.2845L445.575 32.8385L452.925 33.0004L459.971 33.1551L460.409 29.5457H451.661L466.392 16.1259L463.831 29.5457L460.083 49.183L455.144 75.0868C455.055 75.5512 455.737 75.7107 455.864 75.2533L462.581 47.9564L499.796 30.247C500.148 30.0734 500.026 29.5457 499.634 29.5457H467.612H467.609ZM466.584 33.3006L480.433 33.6031L463.8 43.4815L466.582 33.3006H466.584Z" fill="#003478"/>
<path d="M446.431 34.6588L444.083 34.5791L430.333 48.6157C430.009 48.9582 430.495 49.4601 430.847 49.1458L446.429 34.6565L446.431 34.6588Z" fill="#003478"/>
<path d="M457.986 50.128L458.404 46.4482L426.32 65.267C425.914 65.5109 426.25 66.1253 426.674 65.9166L457.986 50.1257V50.128Z" fill="#003478"/>
</g>
<defs>
<clipPath id="clip0_39_312">
<rect width="500" height="75.5282" fill="white"/>
</clipPath>
</defs>
</svg>
