<svg width="500" height="122" viewBox="0 0 500 122" fill="none" xmlns="http://www.w3.org/2000/svg">
<g clip-path="url(#clip0_39_314)">
<path fill-rule="evenodd" clip-rule="evenodd" d="M178.176 0.326172L220.456 97.362C220.456 97.362 226.84 109.968 237.166 114.561C241.238 116.385 250.228 115.798 250.228 115.798C250.228 115.798 267.362 113.746 267.72 93.4858C267.948 81.4011 259.967 76.2871 255.212 73.4532C246.515 68.1763 213.648 59.0884 214.56 34.9516C215.114 19.4467 228.404 4.43041 245.44 4.43041C256.84 4.43041 259.544 9.44669 265.896 9.44669C273.42 9.44669 276.808 3.29034 276.808 3.29034L280 34.0395H276.808C276.808 34.0395 270 8.07862 245.44 8.07862C227.72 8.07862 227.785 24.235 227.72 26.0591C227.264 38.1438 240.977 44.3327 256.352 49.9679C274.332 56.5802 285.44 70.9451 285.896 83.2252C286.352 95.5379 275.114 118.307 247.492 119.349C231.596 119.935 226.352 113.062 216.352 114.658C210.391 115.636 207.72 121.499 207.72 121.499L188.404 72.5412H150.912L142.736 90.9776C142.736 90.9776 136.808 103.974 141.368 110.326C145.896 116.711 155.44 115.57 155.44 115.57V119.219H91.8241V115.57C91.8241 115.57 99.0879 117.851 104.104 111.01C109.088 104.202 108.176 98.2741 108.176 98.2741V14.235L66.8078 119.219L23.1922 16.2545L22.7362 91.8897C22.7362 91.8897 23.4202 107.818 27.9479 111.922C32.5081 116.027 38.8599 116.027 38.8599 116.027V119.219H0V116.027C0 116.027 9.86971 116.873 13.6482 110.098C18.8599 100.782 19.0879 90.5216 19.0879 90.5216V23.0949C19.0879 23.0949 18.0456 16.8408 15.8958 14.463C12.2801 10.3587 3.64821 9.44669 3.64821 9.44669V7.16656H41.3681L74.5603 87.7855L106.58 7.16656H141.824V9.44669C141.824 9.44669 134.691 10.0656 131.824 12.1829C127.492 15.375 127.264 18.5346 127.264 18.5346V113.29L129.316 109.87C129.316 109.87 133.876 99.4141 136.58 94.1698C139.316 88.9255 147.948 70.261 149.544 66.1568C151.14 62.0526 178.176 0.326172 178.176 0.326172ZM187.036 68.893L170.228 26.9711L152.052 68.893H187.036ZM379.544 99.4141C366.677 118.86 347.72 119.447 341.336 119.675C329.088 120.131 287.264 110.782 287.72 63.6486C288.176 15.3425 327.264 4.43041 343.16 3.97438C359.088 3.51835 361.792 9.90272 368.632 8.99067C375.44 8.07862 379.772 2.37829 379.772 2.37829L381.792 34.4956H379.544C379.544 34.4956 372.476 7.16656 343.844 7.39458C311.335 7.65516 308.827 50.1307 308.632 63.8767C308.404 78.6649 312.964 116.385 342.476 115.342C374.756 114.202 380.879 84.5933 380.879 84.5933C380.879 84.5933 388.404 85.9614 379.544 99.4141ZM383.16 61.1405C383.16 27.1991 409.674 3.06233 441.792 3.06233C473.941 3.06233 499.967 24.463 499.967 61.1405C499.967 93.2252 473.713 119.219 441.564 119.219C409.446 119.219 381.792 96.45 383.16 61.1405ZM441.564 115.342C464.756 115.342 479.023 91.5965 479.023 61.1405C479.023 30.6845 467.264 6.0265 441.792 6.48252C417.948 6.25451 404.072 30.6845 404.072 61.1405C404.072 91.5965 417.264 114.886 441.564 115.342Z" fill="#323E48"/>
</g>
<defs>
<clipPath id="clip0_39_314">
<rect width="500" height="121.498" fill="white"/>
</clipPath>
</defs>
</svg>
