<svg width="500" height="171" viewBox="0 0 500 171" fill="none" xmlns="http://www.w3.org/2000/svg">
<g clip-path="url(#clip0_39_315)">
<mask id="mask0_39_315" style="mask-type:luminance" maskUnits="userSpaceOnUse" x="-292" y="-316" width="1444" height="635">
<path d="M-291.06 -315.909H1151.16V318.411H-291.06V-315.909Z" fill="white"/>
</mask>
<g mask="url(#mask0_39_315)">
<path fill-rule="evenodd" clip-rule="evenodd" d="M107.461 169.188L126.049 81.9127H152.564L161.358 133.245L172.285 81.946H192.138L173.584 169.188H147.601L138.907 114.857L127.348 169.188H107.461ZM206.195 170.354C198.6 170.354 193.271 168.722 189.839 165.457C186.408 162.159 185.243 157.496 185.243 152.232C185.243 147.702 186.075 142.572 187.275 137.043C190.472 120.987 196.602 105.83 219.187 105.963C226.981 105.963 232.344 107.696 235.742 111.027C239.173 114.358 240.273 118.955 240.273 123.951C240.273 128.248 239.473 132.912 238.44 137.775C234.809 155.997 228.38 170.354 206.562 170.354H206.195ZM211.092 123.552C209.593 126.25 208.46 130.747 207.161 136.809C205.629 144.071 204.829 148.968 204.829 151.999C204.829 154.264 205.296 155.33 205.696 155.73C206.062 156.163 206.795 156.463 208.427 156.463C211.092 156.363 212.158 155.963 213.857 153.199C215.489 150.367 217.055 145.004 218.92 136.11C220.019 131.047 220.752 127.016 220.719 124.318C220.419 120.52 220.253 120.121 216.955 119.821C213.99 119.921 212.658 120.853 211.092 123.552ZM271.019 107.129L270.253 110.694C274.45 107.163 279.48 105.93 284.576 105.963H286.708L282.844 124.118L281.378 124.018C280.668 123.951 279.99 123.929 279.346 123.951C268.021 124.118 267.088 130.347 265.689 135.91L258.594 169.188H238.74L251.931 107.129H271.019ZM306.728 169.188L307.361 166.223C303.697 169.155 299.466 170.354 294.77 170.354H294.536C289.34 170.354 285.542 168.622 283.31 165.624C281.112 162.659 280.446 158.861 280.446 154.897C280.446 149.001 281.945 142.539 283.044 137.376C284.31 131.48 285.809 123.818 289.173 117.456C292.538 111.127 298.201 105.93 307.161 105.963C311.858 105.863 315.756 107.163 318.454 110.227L324.483 81.946H344.336L325.782 169.188H306.728ZM306.229 124.018C304.73 127.216 303.697 132.113 302.464 137.975C301.099 144.371 300.299 149.135 300.299 152.232C300.599 156.363 300.865 156.596 303.33 156.829C305.362 156.796 306.595 155.963 308.227 152.865C309.76 149.767 311.159 144.604 312.724 137.276C313.923 131.613 314.956 126.783 314.923 123.618C314.623 120.121 314.49 119.688 311.991 119.488C309.193 119.554 307.794 120.787 306.229 124.018ZM409.326 170.354C401.698 170.354 396.402 168.722 392.937 165.457C389.506 162.159 388.34 157.496 388.34 152.232C388.34 147.702 389.207 142.572 390.372 137.043C393.604 120.987 399.7 105.83 422.318 105.963C430.113 105.963 435.442 107.696 438.873 111.027C442.304 114.358 443.404 118.955 443.404 123.985C443.404 128.248 442.604 132.912 441.572 137.775C437.907 155.997 431.512 170.354 409.66 170.354H409.326ZM414.257 123.552C412.758 126.25 411.625 130.747 410.326 136.809C408.76 144.071 407.961 148.968 407.994 151.999C407.961 154.264 408.427 155.33 408.827 155.73C409.193 156.163 409.959 156.463 411.592 156.463C414.257 156.363 415.322 155.963 417.021 153.199C418.62 150.367 420.186 145.004 422.085 136.11C423.151 131.047 423.883 127.016 423.883 124.318C423.55 120.52 423.384 120.121 420.119 119.821C417.121 119.921 415.822 120.853 414.257 123.552ZM469.52 169.188L478.58 126.716C478.88 125.151 479.113 123.751 479.113 122.619C478.814 120.121 478.913 119.754 476.049 119.488C472.018 119.521 470.852 122.219 469.586 127.416L460.692 169.188H440.839L454.03 107.129H473.917L473.317 109.927C474.516 109.028 475.782 108.295 477.048 107.762C479.879 106.463 482.911 105.963 486.109 105.963C493.47 105.997 499.999 110.127 500.033 117.689C500.033 118.688 499.899 119.721 499.7 120.82L489.406 169.188H469.52ZM360.692 7.3291C345.169 5.96334 329.213 5.2305 312.857 5.2305C168.487 5.2305 51.4317 60.2938 51.4317 128.215C51.4317 142.572 56.7282 156.363 66.3884 169.188H15.0227C5.46238 156.296 0.199219 142.539 0.199219 128.215C0.199219 57.4623 126.415 0.100586 282.111 0.100586C309.56 0.100586 336.042 1.9327 361.125 5.26381L360.692 7.3291ZM389.406 120.354C389.406 122.153 389.118 124.085 388.54 126.15L388.174 127.382H371.718C372.618 125.017 372.518 122.919 372.518 122.919C372.418 121.053 370.985 119.454 368.953 118.821C368.121 118.622 367.421 118.522 366.955 118.522C363.823 118.522 361.292 120.587 361.292 123.152C361.292 124.851 362.624 126.316 364.123 127.149C366.155 128.482 369.087 129.947 372.384 131.546C378.281 134.511 385.009 138.841 385.009 147.336C385.009 148.535 384.909 149.801 384.61 151.1C382.245 162.259 371.418 170.354 357.261 170.354H357.195C351.165 170.32 346.002 169.754 342.071 167.689C338.074 165.624 335.609 161.66 335.676 156.197C335.676 153.865 336.075 151.233 336.908 148.235L337.241 146.969H354.663C353.664 149.101 353.764 151.366 353.764 151.366V151.4C353.764 153.931 356.295 156.03 359.393 156.03C362.524 156.03 365.056 153.931 365.056 151.4C365.056 151.2 365.056 151.033 365.056 150.867C365.189 147.602 360.292 145.204 354.296 142.406C348.5 139.641 341.705 135.81 341.672 127.482C341.672 126.316 341.805 125.084 342.071 123.818C345.136 109.894 359.56 105.963 370.386 105.963C375.349 105.997 379.946 106.963 383.51 109.261C387.075 111.56 389.44 115.424 389.406 120.354Z" fill="#0081C6"/>
</g>
</g>
<defs>
<clipPath id="clip0_39_315">
<rect width="500" height="170.553" fill="white"/>
</clipPath>
</defs>
</svg>
