<svg width="500" height="132" viewBox="0 0 500 132" fill="none" xmlns="http://www.w3.org/2000/svg">
<g clip-path="url(#clip0_39_316)">
<path d="M465.519 104.783H473.338L465.352 130.635H454.556L448.776 114.317L443.677 130.635H435.94L443.931 104.783H455.49L460.76 120.071L465.519 104.783Z" fill="#212529"/>
<path d="M305.898 130.978C314.993 130.978 320.943 126.512 323.662 117.494L327.572 104.696H319.838L315.758 117.837C314.228 122.819 311.508 125.309 307.513 125.309C303.433 125.309 302.244 122.819 303.774 117.837L307.853 104.696H300.119L296.209 117.494C293.489 126.512 296.719 130.978 305.898 130.978Z" fill="#212529"/>
<path d="M252.182 112.426H261.022C263.317 106.5 259.237 103.58 248.782 103.58C239.603 103.58 234.078 106.414 232.378 112.083C231.188 116.034 232.123 118.524 235.353 119.555C236.203 119.898 239.348 120.242 244.703 120.586C248.103 120.843 249.547 121.874 249.037 123.677C248.527 125.309 246.403 126.082 242.748 126.082C240.368 126.082 238.838 125.911 238.328 125.567C237.308 124.966 237.223 123.763 237.988 121.788H228.808C226.513 128.229 230.338 131.493 240.453 131.493C250.822 131.493 257.027 128.316 258.982 121.96C260.087 118.352 259.067 115.948 255.922 114.831C254.477 114.23 251.332 113.8 246.487 113.457C243.088 113.199 241.473 112.512 241.898 111.396C242.408 109.764 244.448 108.991 248.017 108.991C250.057 108.991 251.332 109.077 251.672 109.334C252.862 109.678 253.032 110.709 252.182 112.426Z" fill="#212529"/>
<path d="M344.572 110.194L338.197 130.635H330.546L336.835 110.194H327.657L329.358 104.783H355.45L353.75 110.194H344.572Z" fill="#212529"/>
<path d="M357.066 104.783H364.971L361.826 114.832H373.724L376.787 104.783H384.52L376.53 130.635H368.797L371.941 120.415H360.125L356.981 130.635H349.076L357.066 104.783Z" fill="#212529"/>
<path d="M394.04 114.832H406.533L404.833 120.415H392.339L390.895 125.053H404.833L403.135 130.635H381.461L389.451 104.783H411.125L409.425 110.194H395.484L394.04 114.832Z" fill="#212529"/>
<path fill-rule="evenodd" clip-rule="evenodd" d="M282.44 103.924C292.64 103.924 296.295 108.476 293.49 117.58C290.6 126.942 284.055 131.579 273.856 131.579C263.656 131.579 260.001 126.942 262.806 117.751C265.781 108.476 272.241 103.924 282.44 103.924ZM271.476 118.009C269.861 123.334 271.221 125.997 275.725 125.997C280.06 125.997 283.12 123.248 284.82 117.837C286.52 112.255 285.245 109.506 280.825 109.506C276.405 109.506 273.261 112.341 271.476 118.009Z" fill="#212529"/>
<path fill-rule="evenodd" clip-rule="evenodd" d="M425.234 115.346C427.102 115.346 428.293 114.487 428.803 112.769C429.313 111.052 428.632 110.193 426.763 110.193H420.727L419.112 115.346H425.234ZM417.411 120.929L414.438 130.634H406.704L414.694 104.696L431.181 104.524C437.303 104.524 439.681 106.929 438.151 111.653C437.132 114.831 435.178 116.892 432.115 117.751C434.073 117.837 434.75 119.641 434.24 123.076C433.477 127.714 433.138 130.205 433.221 130.548H424.977C424.467 130.548 424.467 128.916 425.148 125.739C425.911 122.475 425.234 120.757 422.938 120.757H417.411V120.929Z" fill="#212529"/>
<path d="M29.5785 104.268H37.4829L29.4085 130.291H18.784L13.0043 113.801L7.90457 130.291H0L8.07457 104.268H19.549L24.8187 119.555L29.5785 104.268Z" fill="#212529"/>
<path d="M126.048 104.268L124.263 109.85H110.324L108.794 114.832H121.629L119.844 120.414H107.009L104.034 130.291H96.1299L104.205 104.268H126.048Z" fill="#212529"/>
<path d="M160.642 104.268H168.547L162.257 124.709H175.856L174.156 130.291H152.652L160.642 104.268Z" fill="#212529"/>
<path d="M183.506 104.268H191.411L187.756 116.034L202.205 104.268H212.405L197.955 116.034L205.35 130.291H194.98L187.671 116.206L183.336 130.291H175.432L183.506 104.268Z" fill="#212529"/>
<path fill-rule="evenodd" clip-rule="evenodd" d="M56.0964 103.58C66.2957 103.58 69.9506 108.218 67.1457 117.408C64.3411 126.598 57.7964 131.236 47.5967 131.236C37.3973 131.236 33.7424 126.684 36.5473 117.58C39.3523 108.218 45.897 103.58 56.0964 103.58ZM45.1319 117.666C43.4322 123.162 44.877 125.825 49.3819 125.825C53.7164 125.825 56.7763 123.076 58.5612 117.494C60.2612 111.997 58.9013 109.334 54.4816 109.334C49.9766 109.334 46.8319 112.169 45.1319 117.666Z" fill="#212529"/>
<path fill-rule="evenodd" clip-rule="evenodd" d="M85.1657 114.831C86.9506 114.831 88.0555 113.972 88.5657 112.254C89.0756 110.622 88.3956 109.849 86.5256 109.849H80.4062L78.8762 114.831H85.1657ZM77.1762 120.413L74.1164 130.29H66.3818L74.4562 104.181H90.8605C97.0651 104.181 99.5299 106.586 97.9999 111.309C97.0651 114.401 95.0253 116.377 91.8805 117.236C93.7503 117.493 94.5154 119.211 94.0052 122.561C93.3253 127.198 93.0703 129.775 93.1552 130.204H84.7407C84.2308 130.204 84.3157 128.572 85.0808 125.223C85.8457 121.959 85.0808 120.242 82.7009 120.242H77.1762V120.413Z" fill="#212529"/>
<path fill-rule="evenodd" clip-rule="evenodd" d="M142.794 103.58C152.908 103.58 156.478 108.218 153.673 117.408C150.868 126.598 144.408 131.236 134.294 131.236C124.095 131.236 120.44 126.684 123.245 117.58C126.134 108.218 132.594 103.58 142.794 103.58ZM131.914 117.666C130.214 123.162 131.574 125.825 135.994 125.825C140.499 125.825 143.558 123.076 145.343 117.494C147.043 111.997 145.598 109.334 141.094 109.334C136.674 109.334 133.614 112.169 131.914 117.666Z" fill="#212529"/>
<path d="M164.212 19.1523H38.9288L34.4238 32.1213H138.033C143.643 30.3176 160.302 25.508 176.026 25.2503C176.026 25.2503 166.677 22.5878 157.413 21.2136C157.498 21.2136 160.132 20.2689 164.212 19.1523Z" fill="#212529"/>
<path d="M19.5487 75.4941L15.1289 88.5491H91.965L120.013 77.3836L112.364 75.4941H19.5487Z" fill="#212529"/>
<path d="M243.938 5.23911C244.617 4.80967 247.677 2.14717 249.887 0H241.558C241.642 1.9754 241.813 4.63789 241.983 5.41089C242.153 6.69918 242.917 5.92622 243.938 5.23911Z" fill="#212529"/>
<path d="M26.0087 56.6855L21.5039 69.6546H112.449C118.654 66.8204 126.388 63.3849 128.003 62.6977C131.148 61.3234 141.178 58.575 141.178 58.575C141.178 58.575 139.308 57.7161 136.503 56.6855H26.0087Z" fill="#212529"/>
<path d="M221.755 3.00512C230.34 5.1523 232.719 6.01115 232.719 6.01115C232.719 6.01115 235.949 4.29342 239.689 0.0849609H45.5593L41.0547 13.0539H188.097C184.357 12.1091 179.002 10.5632 176.452 8.67365C176.452 8.67365 190.392 6.52648 199.146 6.78414C208.496 7.12769 218.44 8.67365 218.44 8.67365C218.44 8.67365 213.341 3.43457 206.881 2.23214C206.796 2.14625 212.916 0.772053 221.755 3.00512Z" fill="#212529"/>
<path d="M28.0488 50.931H126.389C132.763 47.6672 145.683 41.655 162.002 37.9619H32.4686L28.0488 50.931Z" fill="#212529"/>
<path d="M453.112 31.5205L496.204 33.0664C503.174 23.4472 498.414 16.0609 498.414 16.0609C495.694 9.53345 483.201 5.325 483.201 5.325C454.556 -3.00605 422.089 1.63185 422.089 1.63185C405.174 3.34957 396.76 9.36168 393.954 11.7665L397.951 0.257664H360.043L344.911 44.1461L323.323 0H321.708H251.842C251.247 3.26371 249.887 8.84638 247.082 11.8524L246.912 12.7113C251.587 15.975 258.132 24.9931 258.897 26.0238C259.577 27.1403 261.362 27.3121 262.467 28.9439C263.572 30.5758 262.297 31.8641 263.317 33.4961C264.422 35.1276 278.106 56.4276 287.03 65.4461C290.09 68.5378 289.325 68.5378 289.155 69.5684C288.985 70.6849 287.37 71.0286 286.435 72.8322C285.501 74.6359 286.605 77.3842 285.33 78.7586C284.055 80.2184 281.591 81.0773 279.976 81.249C277.681 83.2247 271.731 84.1694 269.946 82.8809C269.946 82.8809 267.651 82.022 267.056 76.9549C260.597 75.8382 247.422 68.452 244.363 65.7895C240.793 66.3049 234.163 63.4704 233.483 63.127C232.803 62.7836 232.633 61.8385 230.593 62.9553C228.638 64.0717 228.129 64.7589 227.704 66.2188L219.884 88.5497L291.025 88.3776L305.984 44.9188L327.828 88.4635H329.358L329.273 88.6355L367.181 88.5497L371.855 74.9793C379.506 89.5803 392.51 89.9237 392.51 89.9237C394.21 91.126 417.582 92.3286 426.082 92.7579C434.582 93.1875 456.681 91.298 456.681 91.298C486.77 88.8072 490 61.4951 490 61.4951C493.993 43.6306 471.895 37.7043 471.895 37.7043C467.391 35.9865 435.092 32.4653 435.092 32.4653C424.724 32.0359 428.122 26.5391 428.122 26.5391C428.549 22.073 440.786 22.9318 440.786 22.9318C453.793 22.5883 453.96 25.5085 453.96 25.5085C455.408 29.5451 453.112 31.5205 453.112 31.5205ZM444.016 60.5503C448.862 62.2681 446.141 66.3908 446.141 66.3908C444.273 69.1391 441.043 69.7401 441.043 69.7401C438.493 69.998 429.059 71.2862 422.599 69.4826C416.138 67.6789 416.904 64.7589 416.904 64.7589C416.648 62.6115 417.329 61.4092 417.329 61.4092L377.467 59.6914L383.5 42.0845C388.941 57.5444 418.52 58.1454 418.52 58.1454C434.921 59.0043 444.016 60.5503 444.016 60.5503Z" fill="#212529"/>
<path d="M486.598 92.4141C490 92.4141 492.72 95.2483 492.72 98.6838C492.72 102.205 490 105.039 486.598 105.039C483.2 105.039 480.395 102.291 480.395 98.6838C480.395 95.2483 483.2 92.4141 486.598 92.4141ZM486.598 93.4447C483.878 93.4447 481.585 95.8493 481.585 98.7697C481.585 101.776 483.796 104.095 486.598 104.095C489.404 104.095 491.615 101.776 491.615 98.7697C491.615 95.7634 489.404 93.4447 486.598 93.4447ZM485.411 102.377H484.306V95.3341C484.898 95.2483 485.411 95.1624 486.26 95.1624C487.279 95.1624 487.96 95.42 488.385 95.6775C488.809 96.0213 488.98 96.4506 488.98 97.1377C488.98 98.0825 488.385 98.5976 487.618 98.8555V98.9414C488.214 99.0272 488.638 99.6285 488.809 100.659C488.98 101.776 489.148 102.205 489.233 102.377H488.046C487.875 102.119 487.704 101.518 487.533 100.573C487.365 99.7144 486.941 99.3706 486.003 99.3706H485.411V102.377ZM485.411 98.5118H486.174C487.108 98.5118 487.875 98.1683 487.875 97.3095C487.875 96.7081 487.45 96.1072 486.174 96.1072C485.835 96.1072 485.579 96.1072 485.411 96.193V98.5118Z" fill="#212529"/>
</g>
<defs>
<clipPath id="clip0_39_316">
<rect width="500" height="131.579" fill="white"/>
</clipPath>
</defs>
</svg>
