<svg width="500" height="171" viewBox="0 0 500 171" fill="none" xmlns="http://www.w3.org/2000/svg">
<path d="M39.4941 39.94H49.916L68.5937 63.6134V39.94H78.9937V79.8789H68.273L49.916 56.0518V79.8789H39.4941V39.94Z" fill="#00269A"/>
<path d="M114.213 68.2549C116.348 66.0624 117.447 63.1977 117.447 59.7003C117.447 56.4709 116.348 53.76 114.16 51.5719C111.972 49.3795 109.209 48.2854 105.922 48.2854C102.587 48.2854 99.872 49.4322 97.684 51.6203C95.5442 53.8127 94.4502 56.6247 94.4502 60.0166C94.4502 63.4042 95.4959 66.1679 97.6356 68.3603C99.7183 70.4957 102.482 71.5897 105.869 71.5897C109.261 71.5897 112.021 70.4957 114.213 68.2549ZM90.1224 75.2409C85.9527 71.1723 83.9141 66.0624 83.9141 59.8585C83.9141 53.6062 86.0582 48.4436 90.386 44.375C94.6084 40.4602 99.771 38.483 105.975 38.483C112.179 38.483 117.447 40.5173 121.669 44.5815C125.892 48.5974 127.979 53.6062 127.979 59.4982C127.979 65.8559 125.839 71.124 121.564 75.2936C117.341 79.3095 112.126 81.3438 105.922 81.3438C99.503 81.3438 94.2437 79.3095 90.1224 75.2409Z" fill="#00269A"/>
<path d="M147.205 57.9289C150.803 57.9289 152.574 56.2593 152.574 52.9244C152.574 49.5896 150.856 47.9156 147.31 47.9156H144.064V57.9289H147.205ZM133.65 39.941H149.551C153.519 39.941 156.695 41.0394 159.248 43.1748C161.854 45.4683 163.216 48.5439 163.216 52.4543C163.216 57.9816 160.918 61.6328 156.331 63.3551L167.021 79.8799H154.556L146.164 65.8024H144.064V79.8799H133.65V39.941Z" fill="#00269A"/>
<path d="M176.781 50.3561H168.327V39.9386H195.647V50.3561H187.189V79.8818H176.781V50.3561Z" fill="#00269A"/>
<path d="M202.221 39.9405H212.634V54.0531H227.256V39.9405H237.674V79.8838H227.256V64.4706H212.634V79.8838H202.221V39.9405Z" fill="#00269A"/>
<path d="M259.004 57.9289C262.598 57.9289 264.373 56.2593 264.373 52.9244C264.373 49.5896 262.655 47.9156 259.105 47.9156H255.862V57.9289H259.004ZM245.449 39.941H261.35C265.313 39.941 268.494 41.0394 271.047 43.1748C273.652 45.4683 275.01 48.5439 275.01 52.4543C275.01 57.9816 272.717 61.6328 268.13 63.3551L278.819 79.8799H266.355L257.963 65.8024H255.862V79.8799H245.449V39.941Z" fill="#00269A"/>
<path d="M310.614 68.2549C312.749 66.0624 313.843 63.1977 313.843 59.7003C313.843 56.4709 312.749 53.76 310.556 51.5719C308.368 49.3795 305.605 48.2854 302.318 48.2854C298.988 48.2854 296.268 49.4322 294.08 51.6203C291.949 53.8127 290.851 56.6247 290.851 60.0166C290.851 63.4042 291.892 66.1679 294.032 68.3603C296.114 70.4957 298.882 71.5897 302.27 71.5897C305.662 71.5897 308.421 70.4957 310.614 68.2549ZM286.527 75.2409C282.349 71.1723 280.314 66.0624 280.314 59.8585C280.314 53.6062 282.459 48.4436 286.786 44.375C291.009 40.4602 296.171 38.483 302.375 38.483C308.584 38.483 313.843 40.5173 318.065 44.5815C322.288 48.5974 324.379 53.6062 324.379 59.4982C324.379 65.8559 322.239 71.124 317.964 75.2936C313.742 79.3095 308.522 81.3438 302.318 81.3438C295.903 81.3438 290.644 79.3095 286.527 75.2409Z" fill="#00269A"/>
<path d="M344.755 58.2936C348.872 58.2936 350.906 56.5185 350.906 52.9244C350.906 49.4841 348.924 47.8145 344.856 47.8145H341.301V58.2936H344.755ZM330.884 39.941H348.718C352.576 39.941 355.704 41.1888 357.945 43.7987C360.194 46.1977 361.284 49.427 361.284 53.3418C361.284 57.0941 360.194 60.1169 357.945 62.4105C355.757 64.7567 352.734 65.9606 349.03 65.9606H341.301V79.8799H330.884V39.941Z" fill="#00269A"/>
<path d="M89.7562 125.598C85.8986 121.53 83.917 116.42 83.917 110.321C83.917 104.324 85.8986 99.2668 89.7562 95.1454C93.7677 90.9275 98.7238 88.8405 104.673 88.8405C112.7 88.8405 118.693 92.1753 122.709 98.8494L114.37 103.441C114.163 102.918 113.737 102.342 113.113 101.666C110.877 99.1657 108.003 97.9135 104.563 97.9135C101.123 97.9135 98.5656 99.2668 96.8477 101.925C95.389 104.166 94.6552 107.088 94.6552 110.739C94.6552 114.438 95.5428 117.307 97.2651 119.447C99.1456 121.793 101.909 122.94 105.503 122.94C107.59 122.94 109.519 122.263 111.242 120.959C113.113 119.548 114.163 117.883 114.37 115.849H105.196V107.505H125.214V109.697C125.214 116.473 123.544 121.793 120.152 125.651C116.606 129.667 111.496 131.701 104.77 131.701C98.6711 131.701 93.671 129.667 89.7562 125.598Z" fill="#00269A"/>
<path d="M144.961 108.289C148.555 108.289 150.33 106.62 150.33 103.285C150.33 99.9456 148.612 98.2759 145.062 98.2759H141.819V108.289H144.961ZM131.406 90.3013H147.307C151.27 90.3013 154.451 91.3998 157.004 93.5351C159.614 95.8286 160.967 98.9042 160.967 102.815C160.967 108.342 158.674 111.993 154.087 113.715L164.777 130.24H152.312L143.92 116.163H141.819V130.24H131.406V90.3013Z" fill="#00269A"/>
<path d="M173.649 128.207C170.099 125.549 168.275 121.898 168.275 117.311V90.2982H178.702V115.118C178.702 119.916 181.101 122.315 185.903 122.315C188.034 122.315 189.875 121.74 191.132 120.593C192.428 119.398 193.109 117.728 193.109 115.641V90.2982H203.526V116.164C203.526 121.221 201.799 125.132 198.306 127.948C195.13 130.448 190.907 131.7 185.688 131.7C180.89 131.7 176.878 130.553 173.649 128.207Z" fill="#00269A"/>
<path d="M234.504 110.944L247.694 90.3018H247.711H258.111V130.245H247.711V106.805H247.694L237.312 123.097H231.789L221.354 106.805H221.336V130.245H210.896V90.3018H221.336L234.504 110.944Z" fill="#00269A"/>
<path d="M290.288 110.944L303.474 90.3018H303.491H313.896V130.245H303.491V106.805H303.474L293.096 123.097H287.573L277.138 106.805H277.098L277.094 130.245H266.681V90.3018H277.116L290.288 110.944Z" fill="#00269A"/>
<path d="M344.064 114.807L339.842 102.606L335.567 114.807H344.064ZM334.02 90.2989H345.945L360.752 130.242H349.486L346.775 122.839H332.966L330.303 130.242H319.191L334.02 90.2989Z" fill="#00269A"/>
<path d="M366.492 90.3009H376.923L395.293 113.974V90.3009H405.702V130.244H395.271L376.914 106.413V130.244H366.492V90.3009Z" fill="#00269A"/>
<path d="M366.491 39.9406V50.3668H450.13V130.24H460.552V39.9406H366.491Z" fill="#00269A"/>
</svg>
