<svg width="500" height="164" viewBox="0 0 500 164" fill="none" xmlns="http://www.w3.org/2000/svg">
<path d="M80.4028 0.88554C75.8856 0.819972 71.3466 1.03706 66.8826 1.46831C43.8517 4.522 22.1728 18.3452 11.2867 39.115C-6.96554 73.5215 -1.49919 121.996 29.8769 147.102C47.1035 161.065 70.3675 164.515 91.8833 162.02C110.765 160.202 128.702 150.4 140.428 135.505C154.437 118.185 159.356 94.9207 157.328 73.032C155.533 47.9031 142.246 22.4829 119.332 10.6177C107.478 3.79937 93.9543 1.08222 80.4028 0.88554ZM78.7128 38.474C88.1053 38.3833 97.6497 42.699 102.839 50.6538C111.301 62.8686 112.07 78.7315 110.299 93.0209C109.296 102.672 105.124 112.101 97.944 118.721C87.2678 128.115 69.3069 127.626 59.4232 117.206C47.8145 105.9 46.9986 88.2422 48.2341 73.0903C49.1898 58.5911 57.197 42.9146 72.3023 39.2316C74.4003 38.7289 76.5452 38.4949 78.7128 38.474Z" fill="#045A9D"/>
<path d="M380.527 16.6666C397.917 1.16503 422.906 -0.74644 445.051 1.86435C456.31 3.939 467.802 7.29573 476.684 14.8484C487.453 23.3568 491.999 37.2965 492.955 50.537C478.479 50.537 464.003 50.4671 449.527 50.6069C448.012 33.2172 423.419 29.301 412.113 39.4411C407.731 45.1755 411.927 52.4252 417.987 54.6164C440.272 64.1271 466.707 63.8707 486.218 79.6986C497.78 88.8597 500.624 104.804 498.456 118.697C497.174 132.707 488.106 145.248 475.891 151.915C459.457 161.845 439.596 163.407 420.855 162.475C404.7 161.682 388.266 156.74 375.912 146.017C365.212 136.647 359.874 122.264 359.874 108.231C375.329 107.905 390.784 107.858 406.239 108.254C407.591 115.061 408.873 123.29 416.006 126.483C428.501 132.567 449.97 131.705 453.326 115.038C451.695 112.147 451.019 108.301 447.778 106.716C425.214 95.0603 397.311 95.3867 377.124 78.8594C359.641 62.6818 363.767 31.9351 380.527 16.6666Z" fill="#045A9D"/>
<path d="M157.654 4.66212C202.504 4.45232 247.354 4.54557 292.227 4.6155C292.087 17.5063 292.18 30.3971 292.157 43.2879C277.564 43.3345 262.995 43.0081 248.426 43.4744C247.75 82.1467 248.752 120.866 247.913 159.515C232.458 159.375 217.027 159.725 201.595 159.282C201.105 120.656 201.641 82.0069 201.315 43.3578C186.793 43.1713 172.247 43.2646 157.701 43.2879C157.957 30.4204 157.957 17.5296 157.654 4.66212Z" fill="#045A9D"/>
<path d="M303.719 4.5687C319.267 4.47546 334.862 4.66194 350.41 4.45215C350.69 56.0852 350.9 107.788 350.504 159.421C334.862 159.421 319.244 159.794 303.626 159.165C303.743 107.625 303.579 56.1086 303.719 4.5687Z" fill="#045A9D"/>
</svg>
