<svg width="500" height="89" viewBox="0 0 500 89" fill="none" xmlns="http://www.w3.org/2000/svg">
<g clip-path="url(#clip0_39_308)">
<path d="M26.7975 45.0193V24.5361H36.4252C42.0812 24.5361 46.6645 29.1239 46.6645 34.7755C46.6645 40.436 42.0812 45.0193 36.4252 45.0193H26.7975ZM0.361328 4.84643V84.3721H26.8019V65.1079L43.8232 65.0938C60.4589 65.0938 73.9473 51.6053 73.9473 34.9697C73.9473 18.3298 60.4589 4.8457 43.8232 4.8457L0.361328 4.84643Z" fill="black"/>
<path d="M98.1329 4.84668L54.2588 84.3724H83.9884L94.7287 64.8999H119.653V84.3724H145.686V4.84668H98.1329ZM119.653 45.0196H105.699L119.653 19.7226V45.0196Z" fill="black"/>
<path d="M299.787 4.84605L273.537 52.4347C270.789 57.581 265.364 61.0827 259.127 61.0827C250.111 61.0827 242.806 53.7733 242.806 44.7574C242.806 35.7459 250.111 28.4365 259.127 28.4365C266.113 28.4365 272.07 32.8292 274.402 38.9994L288.404 13.5517C280.754 6.37088 270.452 1.96484 259.127 1.96484C245.417 1.96484 233.214 8.4143 225.381 18.4409C223.976 20.245 222.708 22.1599 221.6 24.1723L210.271 44.7574L206.046 52.4347C203.298 57.581 197.877 61.0827 191.64 61.0827C182.624 61.0827 175.315 53.7733 175.315 44.7574C175.315 35.7459 182.624 28.4365 191.64 28.4365C198.626 28.4365 204.583 32.8292 206.911 38.9994L220.918 13.5562C213.263 6.37088 202.966 1.96484 191.64 1.96484C168.005 1.96484 148.848 21.1226 148.848 44.7574C148.848 68.3921 168.005 87.55 191.64 87.55C205.346 87.55 217.549 81.1049 225.381 71.0739C233.214 81.1049 245.417 87.55 259.127 87.55C275.479 87.55 289.685 78.3788 296.888 64.8992H321.308V84.3717H347.341V4.84605H299.787ZM321.565 45.0189H307.611L321.565 19.7219V45.0189Z" fill="black"/>
<path d="M382.21 45.0176V24.5344H391.837C397.493 24.5344 402.077 29.1222 402.077 34.7738C402.077 40.4343 397.493 45.0176 391.837 45.0176H382.21ZM431.319 84.3704L415.844 56.3607C423.007 51.1967 427.666 42.7836 427.666 33.28C427.666 17.5752 414.936 4.84473 399.235 4.84473H355.773V84.3704H382.214V65.1063L390.933 65.0992L401.58 84.3722L431.319 84.3704Z" fill="black"/>
<path d="M452.189 84.376H448.213V54.9434H452.189V84.376Z" fill="black"/>
<path d="M477.025 84.3722H473.417V71.1718C473.417 67.4396 472.353 65.5557 468.825 65.5557C466.777 65.5557 463.169 66.8677 463.169 72.6878V84.3722H459.561V62.9316H462.965V65.9635H463.045C463.825 64.8154 465.833 62.3154 469.525 62.3154C472.845 62.3154 477.025 63.6718 477.025 69.78V84.3722Z" fill="black"/>
<path d="M496.269 70.1454C495.817 67.2775 494.217 65.5532 491.185 65.5532C486.717 65.5532 485.281 69.8174 485.281 73.6294C485.281 77.3218 486.185 81.8697 491.145 81.8697C493.561 81.8697 495.653 80.0656 496.269 76.7899H499.753C499.385 80.1897 497.293 84.9858 491.021 84.9858C484.993 84.9858 481.429 80.4335 481.429 74.2456C481.429 67.6055 484.625 62.3174 491.717 62.3174C497.333 62.3174 499.465 66.4175 499.753 70.1454H496.269Z" fill="black"/>
</g>
<defs>
<clipPath id="clip0_39_308">
<rect width="500" height="88.6525" fill="white"/>
</clipPath>
</defs>
</svg>
