<svg width="500" height="188" viewBox="0 0 500 188" fill="none" xmlns="http://www.w3.org/2000/svg">
<g clip-path="url(#clip0_39_306)">
<path d="M497.454 19.749H0V175.286H497.454V19.749Z" fill="white"/>
<path d="M489.933 113.995H473.814V159.024H445.66L445.702 105.293C446.102 99.8546 449.915 95.771 454.545 92.7787C463.926 86.9279 478.365 89.658 489.934 89.1149M439.526 131.301H410.769V111.056H405.984V135.781H439.526V159.025C439.526 159.025 410.331 158.889 395.912 158.889C387.078 157.525 377.551 151.134 375.509 141.882C374.28 130.73 374.151 118.629 375.642 107.611C376.192 100.261 381.767 93.7287 388.569 91.1494C402.571 86.7985 420.123 86.6615 432.774 94.4123L435.491 96.5925C440.122 101.076 439.025 107.198 439.575 113.314C439.442 119.166 439.526 131.301 439.526 131.301ZM350.656 159.024L337.738 136.898V159.024H309.541V59.1158H337.738V111.305L350.931 89.1149H380.81L361.224 123.249L380.972 159.024H350.656ZM305.241 113.995H289.121V159.024H261.121C261.121 159.024 260.846 122.703 261.121 105.293C261.121 97.8123 268.73 92.7787 274.991 90.4658C283.964 87.7494 305.242 89.1158 305.242 89.1158V113.995H305.241ZM254.839 159.024L203.156 158.888C197.319 157.662 191.332 154.121 188.598 148.411C185.89 141.477 185.066 132.501 189.284 125.971C196.776 116.582 221.515 118.629 221.515 118.629V137.756H226.28V113.519H196.095V89.5537H237.713C243.701 89.6917 249.275 93.1925 252.275 98.4934C254.175 101.897 254.854 105.701 254.991 109.924L254.839 159.024ZM145.574 142.036V159.024H105.773V118.629H152.138V86.1313H105.773V59.1158L153.922 58.7744C166.979 58.5046 179.35 63.2615 186.164 74.9598C193.637 89.5115 194.726 111.414 185.747 125.696C176.366 138.481 161.08 142.305 145.574 142.036ZM0.0810547 0.149414V90.7201H146.892V113.995H0.0810547V187.655H499.142V0.149414H0.0810547Z" fill="black"/>
</g>
<defs>
<clipPath id="clip0_39_306">
<rect width="500" height="187.931" fill="white"/>
</clipPath>
</defs>
</svg>
