<svg width="500" height="83" viewBox="0 0 500 83" fill="none" xmlns="http://www.w3.org/2000/svg">
<path d="M36.4256 23.0504H44.3938C49.2316 23.0504 54.6386 23.9043 54.6386 29.8801C54.6386 35.0025 51.5083 38.4174 42.1172 38.4174H33.2954L36.4256 23.0504ZM1.42285 79.6809H24.4734L29.3112 56.6303H44.9628C64.8832 56.6303 77.6891 43.5397 77.6891 28.1726C77.6891 11.3827 68.5828 3.69922 54.6386 3.69922H17.3592L1.42285 79.6809Z" fill="#004B8D"/>
<path d="M106.146 29.5955L108.992 52.3616H94.4788L106.146 29.5955ZM56.3457 79.6809H80.2501L86.2261 68.867H110.984L112.122 79.6809H135.173L122.937 3.69922H99.8857L56.3457 79.6809Z" fill="#004B8D"/>
<path d="M128.06 3.69922H151.395L158.794 31.8722L177.291 3.69922H204.611L167.616 51.508L161.924 79.681H138.589L144.28 51.7926L128.06 3.69922Z" fill="#004B8D"/>
<path d="M260.387 50.6546C258.964 58.3382 252.988 81.3888 221.4 81.3888C199.488 81.3888 188.674 67.1599 188.674 46.9551C188.674 22.4816 204.041 1.99219 229.653 1.99219C246.443 1.99219 261.525 9.3911 262.094 32.1572H240.467C240.752 25.0428 237.336 21.0587 229.937 21.0587C216.847 21.0587 212.294 35.8567 212.294 46.6705C212.294 52.9312 213.717 62.6068 224.53 62.6068C231.929 62.6068 235.914 57.4844 237.621 50.9392L260.387 50.6546Z" fill="#004B8D"/>
<path d="M302.789 79.681L309.049 49.516H287.706L281.446 79.681H258.11L274.047 3.69922H297.382L291.975 30.1648H313.318L318.725 3.69922H342.06L326.409 79.681H302.789Z" fill="#004B8D"/>
<path d="M485.202 3.69922H457.598L442.516 23.3349L435.117 3.69922H409.789H348.321L332.385 79.6809H391.008H395.845H419.75L437.393 58.3378L445.646 79.6809H471.827L453.33 39.5557L485.202 3.69922ZM397.553 72.5665L400.114 60.0451H359.989L361.981 50.6542H398.406L402.106 32.4413H365.68L367.672 23.0504H406.944L410.359 5.4067L426.864 38.9865L397.553 72.5665Z" fill="#004B8D"/>
<path d="M488.333 7.1143C488.333 4.26846 490.325 2.27643 493.17 2.27643C495.732 2.27643 498.008 4.26846 498.008 7.1143C498.008 9.96002 496.016 11.9522 493.17 11.9522C490.325 12.2372 488.333 9.96002 488.333 7.1143ZM487.194 7.1143C487.194 10.5292 489.756 12.8057 492.886 12.8057C496.016 12.8057 498.577 10.2446 498.577 7.1143C498.577 3.98387 496.016 1.42285 492.886 1.42285C489.756 1.42285 487.194 3.98387 487.194 7.1143ZM490.609 10.5293H491.748V7.68346H492.886L494.593 10.5293H495.732L493.74 7.68346C494.878 7.68346 495.447 7.11446 495.447 5.97597C495.447 4.55311 494.593 3.98391 493.17 3.98391H490.609V10.5293ZM491.748 4.55307H493.17C494.024 4.55307 494.593 4.55313 494.593 5.69139C494.593 6.82977 493.739 6.82971 492.886 6.82971H491.748V4.55307Z" fill="#004B8D"/>
</svg>
