<svg width="500" height="122" viewBox="0 0 500 122" fill="none" xmlns="http://www.w3.org/2000/svg">
<g clip-path="url(#clip0_39_301)">
<path d="M96.0788 60.2508L32.4814 0V45.2442L48.6069 30.0099V60.703H49.0623L65.8709 45.6997V75.9373L49.0623 60.703H48.6069V91.1683L32.4814 75.9373V121.637L96.0788 60.2508Z" fill="#09244F"/>
<path fill-rule="evenodd" clip-rule="evenodd" d="M150.594 73.4356H131.514V88.8976H118.795V33.8745L146.504 34.33C146.504 34.33 169.673 33.8745 170.58 53.2012C171.491 72.7524 150.594 73.6633 150.594 73.4356ZM157.409 53.2012C156.498 44.561 147.868 45.2441 147.868 45.2441L131.514 45.0164V61.6138H149.458C149.458 61.6138 158.089 61.6138 157.409 53.2012ZM193.069 47.0626V56.3828H213.511V67.5247H193.069V77.0725H225.551V88.8976H178.531V35.0131H225.551V47.0626H193.069ZM248.719 34.1022L277.792 65.4785V35.0131H292.33V88.8976H280.745L250.31 56.1583V88.8976H238.498V33.8745L248.719 34.1022ZM360.016 34.1022L353.884 47.0626H335.033V88.8976H321.174V47.0626H301.643V33.8745L360.016 34.1022ZM413.623 88.8976L401.584 89.122L396.815 79.5742H367.967L364.105 89.122H350.023L377.28 33.8745L387.729 34.1022L413.623 88.8976ZM392.498 70.0263L382.049 49.5643L372.511 70.0263H392.498ZM420.435 35.0131H433.155V88.8976H420.435V35.0131ZM489.26 71.1616L499.709 88.8976H484.036L475.63 73.4356H461.323V88.8976H448.6V33.8745L476.085 34.5577C476.085 34.5577 499.026 34.1022 499.937 53.429C500.389 63.66 494.937 68.66 489.26 71.1616ZM486.762 53.2012C486.079 44.561 477.448 45.2441 477.448 45.2441L461.323 45.0164V61.6138H478.811C478.811 61.6138 487.669 61.6138 486.762 53.2012Z" fill="#09244F"/>
<path d="M0 75.9372L16.3531 60.7028L0 45.6995V75.9372ZM16.1254 30.0098V60.7028L32.4818 45.2441L16.1254 30.0098ZM16.1254 91.1682L32.4818 75.9372L16.1254 60.7028V91.1682ZM48.6073 60.7028L32.4818 45.2441V75.9372L48.6073 60.7028Z" fill="#4F8309"/>
</g>
<defs>
<clipPath id="clip0_39_301">
<rect width="500" height="121.782" fill="white"/>
</clipPath>
</defs>
</svg>
