<svg width="500" height="161" viewBox="0 0 500 161" fill="none" xmlns="http://www.w3.org/2000/svg">
<g clip-path="url(#clip0_39_278)">
<path d="M162.575 52.994C159.281 42.8144 152.994 38.9222 149.401 37.4251C146.707 36.5269 143.713 35.9281 140.719 35.9281H106.587C107.485 35.0299 108.383 34.4311 108.982 33.5329C111.377 29.6407 110.479 24.5509 108.982 20.6587C107.784 17.3653 105.09 9.28144 101.497 5.68862C96.1078 0.299401 88.3234 0 78.1438 0C67.9641 0 61.6767 4.79042 59.2815 7.78443C56.8863 10.7784 55.3893 14.3713 54.4911 18.2635C54.4911 18.8623 54.1917 19.4611 54.1917 19.7605L44.9102 47.6048C44.9102 46.4072 44.012 45.509 43.4132 44.6108C40.4192 41.018 35.3294 40.7186 31.1378 40.4192H30.2396C26.048 40.4192 18.2635 40.7186 14.3713 42.8144C7.78449 46.1078 4.79048 53.2934 1.79646 63.1737C-1.49695 73.3533 1.19766 80.2395 3.29347 83.2335C5.68868 86.5269 8.68269 89.2215 11.9761 91.018L13.1737 91.9162L37.1258 109.281H36.527C29.6408 109.281 26.9462 117.365 26.048 120.06C24.8504 123.353 22.4551 131.737 23.0539 136.527C24.2516 144.012 30.2396 148.802 38.6228 154.79C43.1138 158.084 48.5031 159.88 53.8923 160.18C55.3893 160.18 56.8863 160.18 58.3833 159.581C62.2755 158.383 65.5689 156.287 68.5629 153.892L69.7605 152.994L94.012 135.928C93.7126 137.126 93.4132 138.024 93.4132 139.222C93.4132 143.713 97.6048 147.305 100.898 149.701C103.892 151.796 110.778 156.886 115.868 157.485C116.767 157.485 117.665 157.485 118.264 157.485C124.85 157.485 130.838 153.593 138.024 148.204C146.707 141.916 148.503 134.731 148.802 131.138C148.802 127.246 147.904 123.353 146.407 119.76L145.808 118.263L136.826 90.4192C138.323 91.6168 140.12 92.2156 142.216 92.2156C145.21 92.2156 148.204 91.018 152.395 88.0239C155.389 85.9281 162.275 80.8383 164.371 76.3473C167.665 69.7605 165.868 62.2754 162.575 52.6946" fill="white"/>
<path d="M84.132 31.1377H73.653L81.4374 8.08377C81.4374 8.08377 86.5272 22.7544 87.4254 25.449C88.3236 28.1437 87.4254 31.1377 84.132 31.1377ZM103.892 22.455C102.994 19.1616 100.3 11.976 97.9045 9.58078C94.3117 5.98796 88.623 5.38916 78.4434 5.38916C68.2637 5.38916 66.4673 8.08377 63.7727 11.0778C61.6769 13.473 60.7787 17.6646 59.5811 21.2574L47.3057 57.485H64.6709L72.7548 33.5329L80.8386 57.485H98.2039L91.9164 38.6227C91.3176 36.8263 90.7188 35.3293 90.12 33.5329C90.12 32.9341 89.5212 32.6347 88.9224 32.3353C88.623 32.0359 88.0242 31.7365 87.4254 31.7365C87.4254 31.7365 91.3176 31.7365 94.9105 31.7365H102.395C104.791 31.7365 106.587 29.3413 104.192 22.1556" fill="#D80025"/>
<path d="M134.431 67.964C133.233 64.0718 131.137 58.0837 131.137 58.0837H155.688L140.718 69.1616C138.024 70.958 135.329 70.958 134.431 67.964ZM149.101 83.8322C151.796 82.0358 158.084 77.2454 159.581 74.2514C161.976 69.7604 160.778 64.3712 157.485 54.7903C155.09 47.9041 151.197 44.3113 147.305 42.8143C144.311 41.6167 140.119 41.9161 136.227 41.9161H97.6045C97.6045 41.6167 102.994 58.0837 102.994 58.0837H128.443L107.784 73.3532L113.173 89.8203L129.341 77.8442C130.838 76.946 132.335 75.7484 133.533 74.5508C133.832 74.2514 134.131 73.6526 134.431 73.0538C134.431 72.455 134.431 71.8562 134.431 71.5568C134.431 71.5568 135.628 75.1496 136.826 78.443C138.024 81.7364 138.922 84.7305 139.221 85.3293C140.419 87.7245 142.515 88.6227 148.802 84.1317L149.101 83.8322Z" fill="#D80025"/>
<path d="M114.671 126.647L123.353 120.359L130.838 143.713L115.569 132.934C112.874 131.138 111.976 128.443 114.671 126.647ZM103.892 145.21C106.587 147.306 112.874 151.497 116.467 152.096C121.557 152.994 126.347 150 134.731 144.012C140.719 139.821 142.814 134.731 143.114 130.839C143.114 127.545 141.617 123.653 140.419 120.06L128.743 83.8325L114.671 94.0122L122.455 117.964L101.796 103.294L87.7246 113.473L104.192 125.15C105.689 126.347 107.186 127.246 108.683 128.144C109.281 128.144 109.581 128.443 110.18 128.443C110.779 128.443 111.377 128.443 111.677 128.144C111.677 128.144 108.683 130.24 105.689 132.336C102.695 134.431 100.299 136.228 99.7007 136.827C97.9043 138.623 97.9043 141.018 103.892 145.509" fill="#D80025"/>
<path d="M52.0956 126.347C55.389 128.743 60.7782 132.635 60.7782 132.635L40.7183 146.707L46.4069 129.042C47.3051 126.048 49.4009 124.252 52.395 126.347H52.0956ZM30.8381 121.856C29.6405 125.15 27.5447 132.335 28.1435 135.629C29.0417 140.419 33.2333 144.311 41.6165 150.299C47.6045 154.491 52.9938 155.09 56.886 154.192C60.1794 153.593 63.4728 150.599 66.4668 148.503L97.9039 126.347L83.8321 116.168L63.1734 130.838L70.9578 106.587L56.886 96.4072L50.898 115.269C50.2992 117.066 49.7003 118.563 49.4009 120.359C49.4009 120.958 49.4009 121.557 49.4009 121.856C49.4009 122.455 49.7003 122.755 50.2991 123.353C50.2991 123.353 47.3051 121.258 44.3111 119.162C41.3171 117.066 38.9219 115.27 38.3231 114.97C36.2273 113.772 33.5327 114.371 31.1375 121.557" fill="#D80025"/>
<path d="M33.2336 67.0661C32.036 70.9583 29.9402 76.9463 29.9402 76.9463L10.1797 62.5751H28.7426C32.036 62.5751 34.1318 63.7727 33.2336 67.0661ZM30.8384 45.8086C27.545 45.8086 19.7606 45.8086 16.7666 47.605C12.2755 50.0002 9.88033 55.09 6.88631 64.6709C4.4911 71.5571 5.68871 76.9463 7.78452 80.2397C9.58093 82.9343 13.1737 85.3296 16.1678 87.4254L47.0061 110.18L52.3953 93.7128L31.7366 78.7427H57.1857L62.5749 62.2757H42.5151C40.7187 62.2757 38.9222 62.2757 37.1258 62.5751C36.527 62.5751 36.2276 62.8745 35.6288 63.1739C35.3294 63.4733 34.7306 63.7727 34.4312 64.3715C34.4312 64.3715 35.6288 60.7787 36.8264 57.4852C38.024 54.1918 38.9222 51.1978 39.2216 50.2996C39.8204 47.9044 38.3234 45.8086 30.539 45.8086" fill="#D80025"/>
<path d="M491.018 48.5028C491.018 47.6046 491.018 47.0058 491.616 46.1076C491.916 45.5088 492.515 44.91 493.413 44.3112C494.012 44.0118 494.91 43.7124 495.808 43.7124C496.706 43.7124 497.305 43.7124 498.203 44.3112C498.802 44.6106 499.401 45.2094 500 46.1076C500.299 46.7064 500.598 47.6046 500.598 48.5028C500.598 49.401 500.598 49.9998 500 50.898C499.7 51.4968 499.101 52.0956 498.203 52.6944C497.604 52.9938 496.706 53.2932 495.808 53.2932C494.91 53.2932 494.311 53.2932 493.413 52.6944C492.814 52.395 492.215 51.7962 491.616 50.898C491.317 50.2992 491.018 49.401 491.018 48.5028ZM491.317 48.5028C491.317 49.1016 491.317 49.9998 491.916 50.5986C492.215 51.1974 492.814 51.7962 493.413 52.0956C494.012 52.395 494.61 52.6944 495.509 52.6944C496.107 52.6944 497.006 52.6944 497.604 52.0956C498.203 51.7962 498.802 51.1974 499.101 50.5986C499.401 49.9998 499.7 49.401 499.7 48.5028C499.7 47.904 499.7 47.3052 499.101 46.7064C498.802 46.1076 498.203 45.5088 497.604 45.2094C497.006 44.91 496.407 44.6106 495.509 44.6106C494.91 44.6106 494.012 44.6106 493.413 45.2094C492.814 45.5088 492.215 46.1076 491.916 46.7064C491.616 47.3052 491.317 47.904 491.317 48.8022V48.5028ZM497.305 47.3052C497.305 47.3052 497.305 47.904 497.305 48.2034C497.305 48.2034 497.006 48.8022 496.706 48.8022L498.203 51.1974H497.604L496.407 49.1016H495.509V51.1974H494.91V45.8082H496.107C496.706 45.8082 497.006 45.8082 497.604 46.1076C497.604 46.1076 497.604 46.407 497.904 46.7064C497.904 46.7064 497.904 47.0058 497.904 47.3052H497.305ZM494.61 48.5028H495.209C495.509 48.5028 495.808 48.5028 496.107 48.5028C496.107 48.5028 496.107 48.5028 496.107 48.2034C496.107 48.2034 496.107 48.2034 496.107 47.904C496.107 47.3052 495.808 46.7064 494.91 46.7064H494.311V48.8022L494.61 48.5028Z" fill="#005484"/>
<path d="M201.797 53.2935H207.785C210.779 53.2935 212.575 54.4911 212.276 57.1857C211.976 59.8803 209.581 60.7785 205.689 60.7785H200.599L202.096 53.2935H201.797ZM202.994 68.8623C208.982 68.8623 209.581 70.3593 208.683 75.4492C208.084 77.545 208.084 79.9402 208.084 82.036H220.958V80.8384C219.761 80.8384 220.06 79.3414 220.958 74.2516C222.455 66.4671 220.06 65.8683 216.168 64.3713C218.264 63.7725 220.06 62.5749 221.557 61.0779C223.054 59.5809 223.952 57.4851 224.252 55.3893C225.449 48.2037 221.856 44.6108 209.282 44.6108H191.018L184.132 82.036H196.707L199.102 68.8623H202.994Z" fill="#005484"/>
<path d="M226.348 82.036L233.234 44.6108H264.671L263.174 53.2935H244.312L243.414 58.6827H259.282L257.785 67.3653H241.917L240.719 73.3534H260.18L258.683 82.036H226.647H226.348Z" fill="#005484"/>
<path d="M280.24 61.6767L281.737 53.2935H285.329C288.024 53.2935 291.916 53.8923 291.317 57.1857C290.719 60.7785 288.323 61.6767 285.329 61.6767H280.24ZM276.647 82.036L278.743 70.3593H285.03C296.108 70.3593 301.796 65.2695 303.293 57.1857C304.79 49.4013 300.299 44.6108 289.222 44.6108H270.659L263.772 82.036H276.347H276.647Z" fill="#005484"/>
<path d="M310.179 44.6108H322.754L318.563 67.0659C317.964 70.6587 317.964 73.9522 323.353 73.9522C328.742 73.9522 329.64 71.2575 330.539 67.0659L334.73 44.6108H347.305L343.413 65.8683C341.317 77.8444 334.431 82.9342 321.856 82.9342C309.281 82.9342 304.191 78.4432 306.587 65.5689L310.479 44.6108H310.179Z" fill="#005484"/>
<path d="M367.366 66.4671C371.258 66.4671 374.252 66.4671 373.653 70.0599C373.054 72.7546 370.659 73.3534 367.665 73.3534H362.276L363.474 66.4671H367.366ZM370.36 53.2935C373.054 53.2935 375.45 53.2935 374.851 56.2875C374.551 58.3833 372.456 59.5809 370.06 59.5809H364.971L366.168 53.2935H370.659H370.36ZM366.767 82.036C376.647 82.036 383.833 79.042 385.33 70.6587C385.929 66.4671 384.432 62.8743 380.539 61.9761C382.036 61.0779 383.533 59.8803 384.731 58.6827C385.929 57.1857 386.527 55.6887 387.126 53.8923C388.623 46.4072 382.036 44.6108 373.354 44.6108H355.09L348.204 82.036H367.066H366.767Z" fill="#005484"/>
<path d="M389.82 82.036L396.707 44.6108H409.281L404.192 73.3534H421.557L420.06 82.036H390.12H389.82Z" fill="#005484"/>
<path d="M425.449 82.036L432.335 44.6108H444.91L438.024 82.036H425.449Z" fill="#005484"/>
<path d="M474.251 58.9819C474.551 55.0896 472.455 52.6944 468.563 52.6944C464.67 52.6944 460.778 56.2872 459.581 63.7723C458.682 69.1615 458.982 73.9519 465.269 73.9519C471.557 73.9519 471.856 71.2573 473.054 67.6645H485.329C484.132 72.1555 481.137 76.3471 477.545 79.0417C473.652 81.7364 469.161 83.2334 464.371 83.2334C451.796 83.2334 445.209 75.4489 447.605 63.4729C448.503 58.0837 451.197 52.9938 455.389 49.401C459.581 45.8082 464.97 43.7124 470.359 43.7124C482.036 43.7124 487.724 49.401 486.826 58.9819H474.85H474.251Z" fill="#005484"/>
<path d="M257.186 108.383C257.186 109.581 257.186 112.275 261.377 112.275C265.569 112.275 266.467 111.677 267.066 109.281C267.365 107.485 265.868 106.886 263.473 106.287L261.078 105.689C257.485 104.79 253.892 103.892 255.09 98.8023C255.689 96.1077 258.084 91.6167 265.868 91.6167C273.653 91.6167 274.252 96.4071 273.653 99.1017H268.862C268.862 98.2035 268.862 95.5089 264.671 95.5089C260.479 95.5089 260.479 96.1077 259.88 98.2035C259.581 99.9999 261.078 100.299 261.976 100.599L267.365 102.096C270.359 102.994 273.054 104.192 272.156 108.383C270.659 115.269 263.174 116.168 261.078 116.168C252.395 116.168 251.796 111.377 252.695 108.383H257.485H257.186Z" fill="#005484"/>
<path d="M296.108 96.407H283.533L282.336 101.197H294.012L293.114 105.389H281.438L280.24 111.377H293.414L292.515 115.569H274.252L279.342 92.2153H297.006L296.108 96.407Z" fill="#005484"/>
<path d="M304.191 102.694L305.688 96.407H311.976C314.97 96.407 314.97 98.2034 314.67 99.401C314.071 101.796 312.874 102.694 310.179 102.694H304.191ZM296.706 115.569H301.497L303.293 106.587H308.383C311.976 106.587 311.976 107.784 311.377 111.078C311.077 112.575 310.778 114.072 310.778 115.868H316.167V115.269C315.269 114.97 315.568 114.072 316.167 110.479C317.065 105.988 316.167 105.389 314.371 104.491C315.568 104.191 316.766 103.293 317.664 102.395C318.563 101.497 319.161 100.299 319.461 98.8022C319.76 96.7064 319.461 92.2153 313.473 92.2153H301.197L296.107 115.569H296.706Z" fill="#005484"/>
<path d="M337.725 92.5151H342.815L329.641 115.868H324.85L321.856 92.5151H327.246L328.443 110.18L337.425 92.5151H337.725Z" fill="#005484"/>
<path d="M345.809 115.569H340.719L345.809 92.2153H350.898L345.809 115.569Z" fill="#005484"/>
<path d="M369.162 99.9999C369.162 98.5028 369.162 96.1076 364.671 96.1076C360.18 96.1076 358.384 97.6046 356.887 104.191C355.988 108.383 356.887 112.275 361.078 112.275C362.575 112.275 363.773 111.976 364.97 111.078C366.168 110.179 367.066 109.281 367.366 107.784H372.156C371.258 110.179 369.462 112.575 367.366 114.072C365.27 115.569 362.575 116.467 359.881 116.467C353.593 116.467 350 112.275 351.497 104.191C352.994 96.1076 358.982 91.916 365.27 91.916C371.557 91.916 374.252 96.7064 373.653 100.299H368.563L369.162 99.9999Z" fill="#005484"/>
<path d="M396.108 96.407H383.533L382.336 101.197H394.012L393.114 105.389H381.438L380.24 111.377H393.414L392.515 115.569H374.252L379.342 92.2153H397.006L396.108 96.407Z" fill="#005484"/>
<path d="M401.796 108.383C401.796 109.581 401.796 112.275 405.988 112.275C410.179 112.275 411.077 111.677 411.676 109.281C411.976 107.485 410.479 106.886 408.083 106.287L405.688 105.689C402.095 104.79 398.503 103.892 399.7 98.8023C400.299 96.1077 402.694 91.6167 410.479 91.6167C418.263 91.6167 418.862 96.4071 418.263 99.1017H413.473C413.473 98.2035 413.473 95.5089 409.281 95.5089C405.089 95.5089 405.089 96.1077 404.491 98.2035C404.191 99.9999 405.688 100.299 406.586 100.599L411.976 102.096C414.97 102.994 417.664 104.192 416.766 108.383C415.269 115.269 407.784 116.168 405.688 116.168C397.006 116.168 396.407 111.377 397.305 108.383H402.095H401.796Z" fill="#005484"/>
</g>
<defs>
<clipPath id="clip0_39_278">
<rect width="500" height="160.18" fill="white"/>
</clipPath>
</defs>
</svg>
