<svg width="500" height="69" viewBox="0 0 500 69" fill="none" xmlns="http://www.w3.org/2000/svg">
<g clip-path="url(#clip0_39_304)">
<path d="M0.124023 0.962402H96.6147V68.6643H0.124023V0.962402Z" fill="white"/>
<path fill-rule="evenodd" clip-rule="evenodd" d="M96.6147 0.962402V68.6643H0.124023V0.962402H44.0992V53.6022H56.2731V33.8195C56.2731 28.7885 59.1613 25.9313 63.2296 25.9313C67.8259 25.9313 69.3787 29.6581 69.3787 32.7947V53.6022H81.5837V32.2046C81.5837 20.745 76.3041 14.9065 66.4284 14.9065C62.6085 14.9065 58.7886 16.4282 56.2731 19.4717V0.962402H96.6147ZM37.9191 15.0307C37.5153 14.9997 37.0805 14.9997 36.5837 14.9997C32.5153 14.9997 29.2855 17.0183 27.1116 19.4407V16.0245H15.1551V53.6022H27.329V35.3102C27.329 29.3786 29.9377 26.3661 35.093 26.3661C36.211 26.3661 37.1116 26.4282 37.9191 26.5214V15.0307Z" fill="#A70925"/>
<path fill-rule="evenodd" clip-rule="evenodd" d="M119.192 0.962402H132.081C142.484 0.962402 152.515 2.63942 152.515 15.2171C152.515 21.6456 147.764 26.1487 141.646 27.2046V27.3599C144.006 28.2605 145.124 29.4096 146.77 32.6394L156.739 53.6022H148.136L140.062 35.3723C137.733 30.2481 135.248 30.2481 131.242 30.2481H126.739V53.6022H119.192V0.962402ZM126.739 23.6022H133.136C140.31 23.6022 144.534 20.4345 144.534 15.3723C144.534 10.6208 140.9 7.60837 133.975 7.60837H126.739V23.6022Z" fill="#38322D"/>
<path fill-rule="evenodd" clip-rule="evenodd" d="M176.863 54.5029C166.304 54.5029 157.732 45.683 157.732 34.8135C157.732 23.9128 166.304 15.124 176.863 15.124C187.453 15.124 195.993 23.9128 195.993 34.8135C195.993 45.683 187.453 54.5029 176.863 54.5029ZM188.633 34.8135C188.633 27.0184 183.385 20.7141 176.863 20.7141C170.372 20.7141 165.124 27.0184 165.124 34.8135C165.124 42.6085 170.372 48.8818 176.863 48.8818C183.385 48.8818 188.633 42.6085 188.633 34.8135Z" fill="#38322D"/>
<path fill-rule="evenodd" clip-rule="evenodd" d="M203.292 0.993652H210.249V21.18H210.373C212.516 17.7017 216.273 15.1241 222.826 15.1241C233.758 15.1241 239.068 24.0371 239.068 34.1303C239.068 44.4719 234.255 54.503 222.919 54.503C216.211 54.503 211.926 51.1179 210.093 48.2918H209.938V53.6024H203.292V0.993652ZM231.708 34.8135C231.708 27.0185 226.894 20.7141 220.963 20.7141C215.031 20.7141 210.249 27.0185 210.249 34.8135C210.249 42.6086 215.031 48.8819 220.963 48.8819C226.894 48.8819 231.708 42.6086 231.708 34.8135Z" fill="#38322D"/>
<path fill-rule="evenodd" clip-rule="evenodd" d="M276.398 52.0495C273.727 53.0122 270.714 54.5029 264.503 54.5029C251.18 54.5029 245.031 46.3973 245.031 34.1302C245.031 23.0122 252.05 15.124 262.671 15.124C275.218 15.124 279.255 24.2545 279.255 36.3663H252.423C252.423 43.8197 258.23 48.8818 264.814 48.8818C269.379 48.8818 274.69 46.5215 276.398 45.124V52.0495ZM271.895 31.1799C271.895 25.4346 268.478 20.7141 262.516 20.7141C255.746 20.7141 252.951 26.3352 252.423 31.1799H271.895Z" fill="#38322D"/>
<path d="M333.478 21.6145H323.54V42.1735C323.54 46.5213 326.18 48.8816 329.348 48.8816C331.49 48.8816 333.043 48.2294 334.068 47.5772V53.4779C332.515 53.9127 330.403 54.5027 328.167 54.5027C321.025 54.5027 316.615 51.1176 316.615 43.571V21.6145H310.9V15.9934H316.615V7.29774L323.54 5.09277V15.9934H333.478V21.6145Z" fill="#38322D"/>
<path d="M356.335 0.962402H363.882V23.0121H389.068V0.962402H396.614V53.6022H389.068V29.627H363.882V53.6022H356.335V0.962402Z" fill="#38322D"/>
<path fill-rule="evenodd" clip-rule="evenodd" d="M408.136 18.6644C411.615 16.5837 415.714 15.124 420.528 15.124C431.273 15.124 435.652 20.4346 435.652 30.683V46.242C435.652 50.5277 435.776 52.5153 435.931 53.6023H429.441V48.7576H429.285C427.67 51.0246 423.975 54.5029 417.639 54.5029C409.534 54.5029 403.851 50.9625 403.851 42.7638C403.851 33.3228 414.192 30.3725 421.335 30.3725C424.068 30.3725 425.962 30.3725 428.695 30.5278C428.695 24.0371 426.335 20.7141 419.41 20.7141C415.497 20.7141 411.304 22.2048 408.509 24.565L408.136 18.6644ZM428.695 35.683C427.236 35.683 425.745 35.5588 424.285 35.5588C420.528 35.5588 411.211 36.1489 411.211 42.7638C411.211 46.77 415.062 48.8818 418.229 48.8818C425.093 48.8818 428.695 44.6271 428.695 39.006V35.683Z" fill="#38322D"/>
<path d="M446.024 0.993652H452.95V28.416V53.6024H446.024V28.416V0.993652Z" fill="#38322D"/>
<path d="M464.44 21.6147H459.13V15.9936H464.44V15.2172C464.44 6.08676 466.801 0.124023 477.049 0.124023C478.819 0.124023 480.279 0.341415 481.676 0.558806L481.397 6.14887C480.589 5.86936 479.254 5.71409 478.074 5.71409C472.111 5.71409 471.366 9.56502 471.366 14.6271V15.9936H481.335V21.6147H471.366V53.6023H464.44V21.6147Z" fill="#38322D"/>
<path d="M307.019 21.7079C305.87 21.3041 304.659 21.1799 303.603 21.1799C297.422 21.1799 293.354 27.0805 293.354 36.4905V53.6023H286.429V15.9936H292.919V21.8321H293.044C294.907 17.9191 298.882 15.124 302.857 15.124C304.721 15.124 305.745 15.3104 307.019 15.5588V21.7079Z" fill="#38322D"/>
<path fill-rule="evenodd" clip-rule="evenodd" d="M495.497 0.745236C496.346 1.0972 497.081 1.5941 497.702 2.23592C498.343 2.85704 498.84 3.59203 499.192 4.44089C499.544 5.28975 499.72 6.20072 499.72 7.17381C499.72 8.1676 499.544 9.08892 499.192 9.93778C498.84 10.7866 498.343 11.5216 497.702 12.1427C497.081 12.7639 496.346 13.2504 495.497 13.6024C494.648 13.975 493.726 14.1614 492.733 14.1614C491.739 14.1614 490.818 13.975 489.969 13.6024C489.12 13.2504 488.385 12.7639 487.764 12.1427C487.143 11.5216 486.656 10.7866 486.304 9.93778C485.931 9.08892 485.745 8.1676 485.745 7.17381C485.745 6.20072 485.931 5.28975 486.304 4.44089C486.656 3.59203 487.143 2.85704 487.764 2.23592C488.385 1.5941 489.12 1.0972 489.969 0.745236C490.818 0.393269 491.739 0.217285 492.733 0.217285C493.726 0.217285 494.648 0.393269 495.497 0.745236ZM490.372 1.67691C489.669 1.98747 489.047 2.4119 488.509 2.9502C487.992 3.48851 487.588 4.11998 487.298 4.84461C486.987 5.56925 486.832 6.34565 486.832 7.17381C486.832 8.02267 486.987 8.80942 487.298 9.53406C487.588 10.2587 487.992 10.8902 488.509 11.4285C489.047 11.9668 489.669 12.3912 490.372 12.7018C491.097 13.0123 491.884 13.1676 492.733 13.1676C493.582 13.1676 494.358 13.0123 495.062 12.7018C495.787 12.3912 496.408 11.9668 496.925 11.4285C497.464 10.8902 497.878 10.2587 498.167 9.53406C498.478 8.80942 498.633 8.02267 498.633 7.17381C498.633 6.34565 498.478 5.56925 498.167 4.84461C497.878 4.11998 497.464 3.48851 496.925 2.9502C496.408 2.4119 495.787 1.98747 495.062 1.67691C494.358 1.36635 493.582 1.21107 492.733 1.21107C491.884 1.21107 491.097 1.36635 490.372 1.67691ZM490.186 11.2111V3.13654H493.292C494.203 3.13654 494.876 3.33323 495.31 3.7266C495.724 4.09927 495.931 4.64793 495.931 5.37256C495.931 5.72453 495.88 6.03509 495.776 6.30424C495.673 6.57339 495.528 6.79078 495.341 6.95642C495.155 7.14275 494.938 7.28768 494.689 7.3912C494.441 7.49472 494.182 7.57753 493.913 7.63965L496.304 11.2111H495.155L492.857 7.63965H491.211V11.2111H490.186ZM493.385 6.77008C493.675 6.74938 493.934 6.69762 494.161 6.6148C494.389 6.53198 494.565 6.38706 494.689 6.18002C494.834 5.99368 494.907 5.72453 494.907 5.37256C494.907 5.09306 494.844 4.87567 494.751 4.68933C494.648 4.503 494.503 4.35807 494.317 4.25455C494.13 4.15103 493.923 4.07857 493.695 4.03716C493.478 4.00611 493.23 4.0061 492.981 4.0061H491.18V6.80114H492.484C492.774 6.80114 493.074 6.79078 493.385 6.77008Z" fill="#38322D"/>
</g>
<defs>
<clipPath id="clip0_39_304">
<rect width="500" height="68.9441" fill="white"/>
</clipPath>
</defs>
</svg>
