<svg width="500" height="116" viewBox="0 0 500 116" fill="none" xmlns="http://www.w3.org/2000/svg">
<g clip-path="url(#clip0_39_302)">
<path d="M267.8 72.7737C256.575 72.7737 249.869 78.6633 249.869 88.5472C249.869 98.3729 256.575 104.262 267.8 104.262C279.054 104.262 285.789 98.402 285.789 88.5472C285.789 78.6633 279.054 72.7737 267.8 72.7737ZM267.8 95.5156C264.505 95.5156 262.289 92.6874 262.289 88.4598C262.289 84.2029 264.505 81.3748 267.8 81.3748C271.153 81.3748 273.311 84.1738 273.311 88.4598C273.311 92.8332 271.211 95.5156 267.8 95.5156ZM409.47 99.1601C409.47 101.58 411.394 103.534 413.785 103.534H422.182V73.5318H409.47V99.1601ZM409.47 63.677H422.182V69.8872H409.47V63.677ZM445.186 72.7737C433.961 72.7737 427.255 78.6633 427.255 88.5472C427.255 98.3729 433.961 104.262 445.186 104.262C456.441 104.262 463.176 98.402 463.176 88.5472C463.176 78.6633 456.441 72.7737 445.186 72.7737ZM445.186 95.5156C441.892 95.5156 439.676 92.6874 439.676 88.4598C439.676 84.2029 441.892 81.3748 445.186 81.3748C448.539 81.3748 450.697 84.1738 450.697 88.4598C450.726 92.8332 448.598 95.5156 445.186 95.5156ZM207.388 25.1616C196.163 25.1616 189.457 31.0512 189.457 40.9351C189.457 50.7608 196.163 56.6503 207.388 56.6503C218.643 56.6503 225.378 50.7899 225.378 40.9351C225.378 31.0512 218.672 25.1616 207.388 25.1616ZM207.388 47.9326C204.094 47.9326 201.878 45.1045 201.878 40.8768C201.878 36.62 204.094 33.7918 207.388 33.7918C210.741 33.7918 212.899 36.5908 212.899 40.8768C212.928 45.2211 210.8 47.9326 207.388 47.9326ZM385.066 48.2533C383.696 48.2825 378.011 48.5741 372.996 48.5741C367.835 48.5741 366.027 48.0492 365.007 44.7254H385.358C385.883 44.7254 386.32 44.2881 386.32 43.7633V41.4308C386.32 31.1095 380.839 25.3074 370.342 25.1616C358.622 25.0158 353.14 31.1678 353.14 40.4395C353.14 50.615 358.505 56.7086 371.305 56.7086C380.46 56.7086 384.6 52.9766 385.416 48.6907C385.416 48.5157 385.241 48.2533 385.066 48.2533ZM370.401 32.1299C373.783 32.1299 375.299 34.8998 375.299 38.3402H364.861C364.861 34.8706 366.027 32.1299 370.401 32.1299ZM403.406 16.094H395.125C392.734 16.094 390.81 18.0475 390.81 20.4675V55.9214H403.406V16.094ZM243.425 56.4171C248.382 56.8836 253.951 55.8631 256.079 55.4258C256.604 55.3091 256.954 54.8718 256.954 54.3178V46.9996C256.954 46.9996 254.621 47.262 249.082 47.262C244.3 47.262 241.297 44.7837 241.297 40.7893C241.297 36.7658 244.096 34.2875 248.615 34.2875C253.834 34.2875 256.925 34.9289 256.925 34.9289V27.5233C256.925 26.9984 256.575 26.5319 256.05 26.4153C253.951 25.9488 248.44 24.8992 244.096 25.1616C234.766 25.7156 228.964 31.1678 228.964 40.8477C228.964 50.0319 234.445 55.6007 243.425 56.4171ZM368.768 73.4152V77.2929C366.96 74.5231 364.19 72.6862 360.05 72.6862C350.545 72.6862 345.181 78.5758 345.181 88.4015V88.5181C345.181 98.3437 350.545 104.233 360.05 104.233C364.22 104.233 366.96 102.396 368.768 99.6266V100.297C368.768 102.076 370.197 103.534 371.946 103.534H380.751V73.4152H368.768ZM363.228 95.5156C359.934 95.5156 357.718 92.6874 357.718 88.4598C357.718 84.2613 359.934 81.404 363.228 81.404C366.64 81.404 368.739 84.1155 368.739 88.4598C368.768 92.804 366.64 95.5156 363.228 95.5156ZM339.553 25.9197L335.996 45.5418L332.031 25.9197H317.715L313.75 45.5418L310.193 25.9197H298.268L285.848 25.8322C283.982 25.8322 282.174 26.9693 281.183 28.777L274.127 39.04V15.9774H266.43C264.039 15.9774 262.115 17.9309 262.115 20.3508V55.8048H274.127V40.8768L282.349 52.86C283.34 54.6677 285.148 55.8048 287.014 55.8048L299.464 55.8923L287.306 39.8563L298.268 25.9197L305.441 55.8923H318.853C320.34 55.8923 321.593 54.8135 321.856 53.2974L324.421 35.5121H325.413L327.978 53.2974C328.241 54.7843 329.495 55.8923 330.982 55.8923H344.393L351.566 25.8905L339.553 25.9197ZM210.391 86.5063C210.391 91.6378 208.759 94.2618 205.493 94.2618C203.481 94.2618 201.411 93.5913 201.411 88.6347V73.5318H189.399V90.6465C189.399 99.2767 193.714 104 201.528 104C205.464 104 208.846 102.601 211.324 100.035V100.268C211.324 102.047 212.753 103.504 214.502 103.504H222.404V73.5318H210.391V86.5063ZM330.078 72.832C325.908 72.832 322.293 74.6106 319.786 77.9052C317.715 74.6397 314.304 72.832 309.96 72.832C306.315 72.832 303.05 74.2315 300.63 76.7681V73.5318H289.667V103.534H301.563V89.072C301.563 85.1943 303.312 82.6868 306.053 82.6868C308.006 82.6868 309.785 83.3574 309.785 88.139V103.534H321.739V89.072C321.739 85.136 323.43 82.6868 326.171 82.6868C328.124 82.6868 329.903 83.3574 329.903 88.139V103.534H341.799V86.1273C341.799 77.5553 337.629 72.832 330.078 72.832ZM487.929 72.7737C483.993 72.7737 480.611 74.1732 478.133 76.7681V73.5318H467.054V103.534H479.066V89.072C479.066 85.1068 480.99 82.5119 483.964 82.5119C485.976 82.5119 488.046 83.1825 488.046 88.139V103.534H500V86.1273C500 77.497 495.714 72.7737 487.929 72.7737ZM397.837 63.677H385.824V99.1309C385.824 101.551 387.749 103.504 390.139 103.504H397.837V82.337H405.097V73.5026H397.837V63.677ZM422.036 16.094H413.756C411.365 16.094 409.441 18.0475 409.441 20.4675V55.9214H422.036V16.094ZM160.593 63.677C159.31 63.677 158.143 64.4642 157.677 65.6596L142.545 103.534H155.111L157.91 96.0112H172.372L173.917 100.355C174.763 102.251 176.629 103.504 178.64 103.504H188.495L172.576 63.6478L160.593 63.677ZM161.147 87.1186L165.287 75.8643L169.252 87.1186H161.147ZM240.539 63.7061H227.798V99.1601C227.798 101.58 229.722 103.534 232.113 103.534H240.539V82.3661H247.799V73.5318H240.539V63.7061ZM183.655 40.5852C182.372 38.9525 180.652 37.7571 178.057 37.2906V37.174C183.626 36.5034 186.95 32.7131 186.95 26.5903C186.95 18.9222 181.468 15.9482 172.576 15.9482H151.059V55.8631H163.771V41.3433H167.269C169.019 41.3433 170.797 41.6349 171.293 43.4134L174.879 53.8513C175.083 55.0176 176.075 55.8631 177.212 55.8631H188.962L184.559 42.5387C184.413 41.8098 184.093 41.1684 183.655 40.5852ZM168.99 33.0046H163.975V24.5493H169.194C171.789 24.5493 174.267 25.0741 174.267 28.6604C174.238 32.6548 171.643 33.0046 168.99 33.0046Z" fill="#CD163F"/>
<path d="M32.8591 35.7747L79.0717 1.54528C79.7423 1.04962 79.3924 0 78.576 0H40.6729C36.2995 0 32.0718 1.74937 28.9813 4.83993L4.83993 28.9521C1.74937 32.0718 0 36.2703 0 40.6729V74.7857C0 79.1883 1.74937 83.3868 4.83993 86.5065L28.9521 110.619C32.0718 113.709 36.2995 115.459 40.6729 115.459H73.4737C74.3775 115.459 74.6691 114.234 73.8235 113.826L8.6594 83.0952C5.94787 81.8124 4.19849 79.0717 4.19849 76.0686V59.7119C4.19849 57.9917 5.01487 56.3881 6.38521 55.3677L15.7735 48.3993V35.7455H32.8591V35.7747Z" fill="url(#paint0_linear_39_302)"/>
<path d="M77.7891 48.9537L73.3282 61.0827H82.0459L77.7891 48.9537ZM40.2942 49.4493C40.2942 45.5715 37.641 45.0176 34.842 45.0176H29.2148V54.1726H34.6379C37.4952 54.1435 40.2942 53.7644 40.2942 49.4493Z" fill="#CD163F"/>
<path d="M111.26 29.6227L88.81 7.17246C87.5562 5.91874 85.5736 5.74381 84.0867 6.76428L40.8771 35.8622C49.07 36.387 54.0266 39.6816 54.0266 47.2623C54.0266 53.8516 50.4695 57.9626 44.4342 58.6915V58.8081C47.2332 59.3329 49.0992 60.6158 50.4695 62.3652C50.9652 62.9775 51.2859 63.7064 51.4608 64.4353L54.8721 74.7857L69.5669 37.9906C70.0917 36.7077 71.3454 35.8622 72.7157 35.8622H85.6319L102.805 78.8384H92.1921C90.0345 78.8384 88.0227 77.4681 87.1189 75.4272L85.457 70.733H69.8584L66.8262 78.8384H43.5304C42.2766 78.8384 41.227 77.9346 41.0229 76.6517L37.1451 65.3974C36.6203 63.4731 34.696 63.1524 32.8009 63.1524H29.0397V78.8093H15.7736V52.7436L7.84315 58.0792C7.11424 58.5749 6.70605 59.3912 6.70605 60.2659V76.8558C6.70605 77.9346 7.34749 78.8968 8.30965 79.3049L83.0953 110.619C84.4948 111.231 86.0984 110.91 87.1772 109.861L111.26 85.8651C113.972 83.1827 115.488 79.509 115.488 75.6896V39.7691C115.488 35.9496 113.972 32.3051 111.26 29.6227Z" fill="#CD163F"/>
</g>
<defs>
<linearGradient id="paint0_linear_39_302" x1="19.6534" y1="105.88" x2="80.2846" y2="0.864454" gradientUnits="userSpaceOnUse">
<stop offset="0.28" stop-color="#CD163F"/>
<stop offset="0.9" stop-color="#F58025"/>
</linearGradient>
<clipPath id="clip0_39_302">
<rect width="500" height="115.459" fill="white"/>
</clipPath>
</defs>
</svg>
