<svg width="500" height="253" viewBox="0 0 500 253" fill="none" xmlns="http://www.w3.org/2000/svg">
<g clip-path="url(#clip0_39_303)">
<mask id="mask0_39_303" style="mask-type:luminance" maskUnits="userSpaceOnUse" x="0" y="0" width="498" height="253">
<path d="M0 0H497.17V252.976H0V0Z" fill="white"/>
</mask>
<g mask="url(#mask0_39_303)">
<path d="M245.246 0L0 126.488V127.379L245.246 252.976L497.169 126.488L245.246 0Z" fill="#CE0E2D"/>
<path d="M251.478 213.337C251.478 210.219 249.697 209.328 246.137 209.328H240.35V224.025H242.576V217.79H245.247L249.253 224.025H251.923L247.918 217.345C249.697 216.899 251.478 216.008 251.478 213.337ZM243.021 215.564V211.109H246.137C247.918 211.109 249.253 211.555 249.253 213.337C249.253 215.564 247.472 215.564 245.691 215.564H243.021ZM245.691 203.538C238.57 203.538 232.784 208.882 232.784 216.454C232.784 224.025 238.57 229.37 245.691 229.37C252.813 229.37 258.599 224.025 258.599 216.454C258.599 208.882 252.813 203.538 245.691 203.538ZM245.691 227.143C239.906 227.143 235.454 222.69 235.454 216.454C235.454 210.219 239.906 205.765 245.691 205.765C251.478 205.765 255.929 210.219 255.929 216.454C255.929 222.69 251.478 227.143 245.691 227.143ZM387.231 117.58C379.219 117.134 380.555 108.227 386.341 106.89C395.687 104.219 405.48 113.125 405.48 113.125L416.607 107.781C416.607 107.781 411.266 95.3107 392.127 93.9745C380.555 93.0837 366.311 101.991 366.757 114.016C367.202 134.059 389.456 130.05 398.803 133.168C408.151 136.286 402.364 146.529 393.462 145.638C380.555 144.747 376.994 135.841 376.994 135.841L365.867 142.076C365.867 142.076 371.208 156.773 393.018 157.219C410.376 157.664 417.497 146.975 418.388 140.294C420.613 119.807 403.699 118.916 387.231 117.58ZM169.136 94.4199C153.112 94.4199 139.76 108.672 139.76 126.487C139.76 144.303 152.668 158.555 169.136 158.555C185.159 158.555 198.512 144.303 198.512 126.487C198.512 108.672 185.604 94.4199 169.136 94.4199ZM169.136 145.638C161.124 145.638 154.447 137.176 154.447 126.487C154.447 115.798 161.124 107.336 169.136 107.336C177.148 107.336 183.823 115.798 183.823 126.487C183.823 137.176 177.592 145.638 169.136 145.638ZM135.754 114.462C135.754 100.655 119.73 95.756 119.73 95.756H88.1289V156.328H101.037L100.591 136.286L110.828 135.841L121.956 156.328L137.535 156.773L124.627 134.059C124.627 134.059 135.754 126.042 135.754 114.462ZM117.059 124.26C111.719 125.597 102.372 124.706 102.372 124.706L101.927 107.781H116.17C125.071 114.462 121.065 120.252 117.059 124.26ZM259.934 96.2013H245.691V155.882H280.854V144.303H259.934V96.2013ZM285.305 155.437H299.993V96.2013H285.305V155.437ZM240.796 144.303H219.876V96.2013H205.633V155.882H240.796V144.303ZM346.728 126.487H344.947L324.473 96.2013H310.676V155.882H324.919V123.369H327.144L346.728 155.437H359.19V96.2013H346.728V126.487Z" fill="white"/>
</g>
</g>
<defs>
<clipPath id="clip0_39_303">
<rect width="500" height="252.976" fill="white"/>
</clipPath>
</defs>
</svg>
