<svg width="500" height="192" viewBox="0 0 500 192" fill="none" xmlns="http://www.w3.org/2000/svg">
<g clip-path="url(#clip0_39_279)">
<path d="M0 91.2881C0.10417 90.6805 0.208341 90.0555 0.312511 89.4131H57.2937C56.6686 93.2153 56.5124 96.9828 57.3284 100.907H1.51047C0.156255 100.907 0.225702 101.045 0.138894 99.6739C0.138894 99.4829 0.0520852 99.2919 0 99.0836V91.2708L0 91.2881Z" fill="black"/>
<path d="M113.042 145.457C115.525 159.641 118.008 173.826 120.49 187.993C117.695 189 105.802 191.031 103.268 190.91C100.611 175.597 97.9549 160.266 95.2986 144.936C95.2465 144.936 95.1944 144.936 95.1423 144.936C92.486 160.266 89.8296 175.579 87.1559 191.014C81.6002 190.528 76.218 189.434 70.7491 188.062C73.579 171.656 76.409 155.301 79.239 138.946C79.1695 138.911 79.1001 138.894 79.0306 138.859C70.8185 153.252 62.6064 167.645 54.3423 182.125C49.5678 180.041 45.21 177.298 40.8869 174.347C49.6893 158.964 58.457 143.617 67.242 128.286C67.1899 128.251 67.1552 128.199 67.1031 128.165C53.7346 139.502 40.3487 150.839 26.8066 162.332C23.7336 158.652 20.7126 155.023 17.6396 151.342C32.0498 138.981 46.3212 126.758 60.5751 114.518C60.5404 114.449 60.5057 114.397 60.471 114.327C42.953 120.786 25.4177 127.244 7.65662 133.79C6.19823 129.762 4.77457 125.786 3.29883 121.706C21.3897 115.109 39.2549 108.581 57.1896 102.035C60.3494 116.272 68.3879 126.48 82.0516 131.811C90.9581 135.283 100.056 135.109 109.032 131.863C126.741 125.439 139.38 105.282 132.123 82.4512H189.868C190.927 90.2639 190.823 98.0941 190.128 106.011H159.467L159.415 106.202C168.999 109.726 178.583 113.251 188.149 116.758C188.062 120.143 183.184 134.397 181.17 137.193C170.301 133.165 159.415 129.119 148.512 125.092C148.477 125.161 148.443 125.213 148.408 125.283C157.367 132.852 166.343 140.405 175.336 147.992C171.516 153.704 167.28 158.999 162.419 163.86C152.297 155.336 142.227 146.846 132.14 138.356L132.001 138.443C138.547 149.936 145.075 161.43 151.655 172.993C146.411 176.951 140.752 180.198 134.727 182.958C127.539 170.44 120.334 157.923 113.146 145.405C113.094 145.405 113.06 145.439 113.007 145.457H113.042Z" fill="black"/>
<path d="M295.913 106.358C303.917 119.17 311.938 132.018 320.081 145.039H319.022C310.08 145.039 301.139 145.039 292.198 145.039C291.521 145.039 291.173 144.848 290.861 144.258C285.427 134.188 279.958 124.136 274.523 114.066C274.194 113.476 273.864 113.268 273.187 113.268C269.419 113.302 265.669 113.268 261.902 113.268H260.947V144.935H235.668V46.1124C235.842 46.095 236.033 46.0429 236.224 46.0429C248.585 46.0429 260.929 46.0256 273.291 46.095C279.854 46.1298 286.243 47.2062 292.267 49.9667C302.372 54.5849 308.223 62.4498 309.907 73.405C310.827 79.3601 310.601 85.2457 308.327 90.9056C305.896 96.9649 301.92 101.843 296.694 105.715C296.486 105.871 296.278 106.028 296.069 106.184C296.017 106.219 296 106.271 295.913 106.375V106.358ZM260.443 65.1929V93.8918C263.134 93.8918 265.773 93.9786 268.395 93.8571C270.409 93.7703 272.44 93.5793 274.402 93.1279C279.246 92.0168 282.649 89.2389 283.986 84.2734C284.611 81.9817 284.697 79.6379 284.524 77.294C284.177 72.3286 281.92 68.5785 277.18 66.686C275.583 66.061 273.864 65.5401 272.162 65.4186C268.395 65.1582 264.593 65.1756 260.808 65.0887C260.704 65.0887 260.582 65.1235 260.426 65.1582L260.443 65.1929Z" fill="black"/>
<path d="M449.182 111.427C448.714 112.261 448.314 112.955 447.932 113.65C442.22 123.841 436.508 134.015 430.831 144.224C430.484 144.831 430.119 145.057 429.425 145.057C420.049 145.04 410.674 145.057 401.299 145.057H400.274C400.552 144.606 400.743 144.311 400.934 144.015C411.994 127.504 423.036 111.011 434.13 94.5172C434.599 93.8227 434.529 93.4234 434.095 92.781C423.817 77.6069 413.556 62.4154 403.278 47.2239C403.104 46.9808 402.948 46.703 402.722 46.3211H403.695C413.365 46.3211 423.018 46.3211 432.689 46.3037C433.401 46.3037 433.748 46.5468 434.095 47.1371C439.547 56.6687 445.033 66.1829 450.519 75.7145C450.675 75.9922 450.832 76.2527 451.092 76.6867C451.3 76.3221 451.474 76.0443 451.648 75.7665C457.03 66.2523 462.429 56.7555 467.777 47.2412C468.176 46.5294 468.61 46.3211 469.391 46.3211C478.628 46.3558 487.847 46.3384 497.083 46.3384H498.125C497.882 46.7204 497.743 46.9982 497.569 47.2412C487.187 62.8147 476.822 78.3708 466.423 93.9269C466.006 94.5693 466.023 94.9686 466.457 95.5763C477.447 111.705 488.402 127.852 499.375 144.015C499.566 144.293 499.757 144.588 500.07 145.057H498.993C489.323 145.057 479.67 145.057 469.999 145.057C469.374 145.057 469.027 144.849 468.697 144.311C462.412 133.65 456.11 123.008 449.807 112.365C449.651 112.087 449.478 111.827 449.234 111.427H449.182Z" fill="black"/>
<path d="M399.632 46.1123V67.2936H369.336V144.987H342.964V67.363H312.615V46.1297H399.649L399.632 46.1123Z" fill="black"/>
<path d="M61.3732 76.8946C60.0884 80.1933 58.8557 83.3358 57.6057 86.565C39.9662 80.0891 22.1878 73.5785 4.27051 66.9984C5.43374 63.7691 6.56225 60.5919 7.74285 57.3105C25.7643 63.8906 43.6295 70.4013 61.3732 76.8946Z" fill="black"/>
<path d="M69.2555 66.8944C67.1721 69.2382 65.1582 71.53 63.0748 73.8912C48.5951 61.6338 34.0113 49.2896 19.3232 36.8413C21.3025 34.4801 23.2296 32.1883 25.2089 29.8271C40.0184 42.2929 54.6717 54.6197 69.2555 66.8944Z" fill="black"/>
<path d="M44.3594 13.7332C46.6338 12.4832 48.8561 11.2678 51.1131 10.0352C60.6967 26.7892 70.2631 43.5259 79.812 60.1932C77.5376 61.4432 75.3327 62.6759 73.0756 63.9259C63.5441 47.276 53.9778 30.5567 44.3594 13.7332Z" fill="black"/>
<path d="M75.5752 1.0417C77.7975 0.677107 79.8809 0.347234 82.0338 0C85.3672 19.0979 88.6659 38.0222 91.982 57.0159C89.8465 57.3631 87.7284 57.7277 85.5235 58.0749C82.2247 39.1159 78.9086 20.1743 75.5752 1.0417Z" fill="black"/>
<path d="M105.178 58.0746C103.268 57.71 101.445 57.3628 99.5352 57.0155C102.851 38.0566 106.15 19.1149 109.483 0.0517578C111.376 0.416354 113.216 0.78095 115.126 1.14555C111.81 20.1566 108.494 39.1156 105.195 58.092L105.178 58.0746Z" fill="black"/>
<path d="M117.313 63.1965C115.681 62.2937 114.118 61.443 112.469 60.5228C122.035 43.9771 131.601 27.414 141.22 10.7988C142.765 11.7016 144.258 12.5697 145.803 13.4552C136.272 30.1051 126.792 46.6508 117.313 63.1965Z" fill="black"/>
<path d="M126.723 72.3809C125.716 71.1829 124.761 70.0544 123.771 68.8738C138.373 56.5991 152.957 44.3417 167.61 32.0322C168.599 33.2128 169.554 34.324 170.561 35.5219C155.925 47.8314 141.342 60.0888 126.723 72.3809Z" fill="black"/>
</g>
<defs>
<clipPath id="clip0_39_279">
<rect width="500" height="191.014" fill="white"/>
</clipPath>
</defs>
</svg>
