<svg width="500" height="96" viewBox="0 0 500 96" fill="none" xmlns="http://www.w3.org/2000/svg">
<g clip-path="url(#clip0_39_300)">
<path d="M81.0698 65.6947C81.0698 65.6947 77.3222 71.9086 71.1083 74.6953C65.5349 77.1937 56.5343 76.5531 56.5343 76.5531H0L11.7873 56.694C11.7873 56.694 11.499 57.3346 13.9654 58.2635C16.7841 59.5127 18.0013 58.8721 18.0013 58.8721H42.8571C42.8571 58.8721 46.893 58.8721 49.0711 60.4416C50.9289 61.6588 49.3914 61.0502 51.8578 63.5166C53.4273 65.0861 57.1429 66.6236 61.1787 66.3353C65.8232 65.6947 69.2505 62.5877 69.2505 62.5877C69.2505 62.5877 63.0365 61.0502 59.6413 59.5127C57.1429 58.2635 57.1429 55.7651 58.3921 52.3699C60.2498 47.6934 61.7873 48.0137 63.0365 47.6934C64.2857 47.0848 66.4638 48.334 66.4638 48.334L72.966 50.8004C72.966 50.8004 72.966 49.5832 71.4286 47.0848C69.2505 43.9778 69.8911 44.2981 67.3927 42.4403C64.606 40.5826 61.1787 40.8708 58.3921 41.5115C55.8937 42.12 53.107 45.5473 50.6086 47.4051C49.3914 48.334 46.5727 48.0137 46.5727 48.0137C46.5727 48.0137 27.3222 48.334 25.1441 47.4051C22.966 46.4762 22.6778 44.9067 22.3575 43.3692C22.0372 40.2622 24.8559 36.5467 24.8559 36.5467C24.8559 36.5467 37.8924 13.8689 39.4299 11.7229C42.2486 7.36667 43.4657 5.8292 49.6797 2.40191C54.6445 -0.705078 63.9654 0.223814 63.9654 0.223814H119.891L108.072 20.4032C108.072 20.4032 106.534 18.2251 105.285 17.9048C103.107 16.9759 101.858 17.2962 101.858 17.2962H63.0365H59.6413C59.6413 17.2962 56.5343 17.2962 54.9648 18.5454C53.4273 19.7946 52.4984 21.6524 52.4984 21.6524C52.4984 21.6524 50 24.4391 50.6086 26.6172C51.2492 28.7632 52.7867 28.1546 52.7867 28.1546H88.8213C88.8213 28.1546 94.1063 27.2257 96.2844 33.1194C98.1422 37.7639 92.2486 46.7645 92.2486 46.7645L81.0698 65.6947Z" fill="#FF0000"/>
<path fill-rule="evenodd" clip-rule="evenodd" d="M136.323 24.1184L134.465 29.0831C134.465 29.0831 136.323 26.6168 139.43 25.0473C141.608 23.7981 146.284 24.1184 146.284 24.1184H166.784C166.784 24.1184 171.749 23.7981 174.215 29.0831C176.393 33.4393 170.179 42.44 170.179 42.44C170.179 42.44 155.605 66.0146 154.036 69.4099C152.498 72.8372 152.787 75.9441 152.787 75.9441H121.428C121.428 75.9441 123.607 75.6238 127.322 70.9794C129.5 68.481 146.573 39.9416 148.142 36.8346C150 33.119 145.964 33.4393 145.964 33.4393C145.964 33.4393 140.999 33.4393 136.034 33.4393C132.607 33.4393 130.109 36.5463 130.109 36.5463C130.109 36.5463 110.858 68.1927 109.929 71.9083C109 75.6238 110.25 75.9441 110.25 75.9441H78.251C78.251 75.9441 81.9986 73.766 85.3938 68.1927C90.6789 59.4803 105.894 34.0479 107.751 30.3323C109.321 27.8339 109 24.1184 109 24.1184H136.323ZM322.037 55.1562C322.037 55.1562 325.144 48.6219 327.963 46.7641C331.999 43.9774 336.323 43.9774 336.323 43.9774H374.215L367.393 55.1562H322.037ZM433.824 24.1184C433.824 24.1184 433.856 24.2465 433.856 24.4387H433.824V24.1184ZM433.856 24.4387L461.179 24.4067L459.609 29.3714C459.609 29.3714 461.467 26.9051 464.574 25.3676C466.752 24.1184 471.428 24.4067 471.428 24.4067H491.896C491.896 24.4067 496.893 24.1184 499.359 29.3714C501.217 33.7276 495.323 42.7282 495.323 42.7282C495.323 42.7282 480.717 66.3029 479.18 69.7302C477.61 73.1254 477.931 76.2324 477.931 76.2324H446.573C446.573 76.2324 448.751 75.9441 452.466 71.2676C454.644 68.8013 471.717 40.2619 473.286 37.1549C475.144 33.4073 471.108 33.7276 471.108 33.7276C471.108 33.7276 466.143 33.7276 461.179 33.7276C457.751 33.7276 455.253 36.8346 455.253 36.8346C455.253 36.8346 436.002 68.481 435.074 72.1965C434.145 75.9441 435.394 76.2324 435.394 76.2324H403.395C403.395 76.2324 407.143 74.0543 410.538 68.481C415.503 59.8006 430.717 34.3362 432.607 30.6206C433.888 28.3144 433.888 25.3676 433.856 24.4067V24.4387ZM202.466 75.9762L204.644 70.3708C204.644 70.3708 200 74.0863 195.964 75.3355C193.145 76.2644 191.608 75.9762 191.608 75.9762H169.25C169.25 75.9762 165.214 76.2644 163.645 73.4778C161.787 70.3708 162.107 68.513 163.036 66.3349C164.574 62.9396 169.25 55.4765 171.428 51.7609C176.073 44.2978 181.038 42.1517 183.824 41.2228C188.501 39.9736 190.967 40.2939 194.394 40.2939C197.822 40.2939 214.574 40.2939 214.574 40.2939C214.574 40.2939 218.001 40.2939 219.859 39.6533C221.428 39.0447 222.037 37.4752 222.037 37.4752L222.646 35.9377C223.286 33.151 220.788 33.4393 220.788 33.4393H192.857C192.857 33.4393 190.967 33.4393 188.501 33.7596C186.002 34.0799 183.824 35.3291 183.824 35.3291L190.679 23.8301H241.608C241.608 23.8301 246.573 23.2215 249.039 28.7949C250.929 33.151 245.003 42.44 245.003 42.44C245.003 42.44 230.109 66.0466 228.86 69.4419C227.322 72.8692 227.61 75.9762 227.61 75.9762H202.466ZM212.716 51.4406H203.427C203.427 51.4406 200.608 51.4406 197.822 52.0812C195.964 52.3695 190.359 62.6193 190.679 64.1568C190.999 65.406 192.857 65.406 192.857 65.406H202.466C202.466 65.406 204.965 65.406 206.214 63.8685C208.68 61.3701 213.357 53.0101 213.357 53.0101C213.357 53.0101 213.357 53.6187 213.357 52.3695C213.965 51.1523 212.716 51.4406 212.716 51.4406ZM251.858 88.6924C250.32 92.0876 250.608 95.1946 250.608 95.1946H221.108C221.108 95.1946 222.037 93.6571 223.286 92.0876C225.464 89.301 227.002 86.194 227.002 86.194C227.002 86.194 257.463 34.3682 259.321 30.6526C260.858 27.866 260.57 24.1504 260.57 24.1504H286.643V27.5457C286.643 27.5457 288.821 26.0082 290.359 25.0793C291.608 24.4707 294.715 24.1504 294.715 24.1504H317.713C317.713 24.1504 322.678 23.5098 325.144 29.1152C327.002 33.4393 321.108 42.44 321.108 42.44L307.463 66.0466C307.463 66.0466 304.036 71.0114 299.391 73.7981C293.786 76.9051 287.572 76.5848 287.572 76.5848L267.393 76.2644C267.393 76.2644 263.677 75.9762 262.428 74.0863C261.947 73.3817 261.723 72.9653 261.659 72.7731L251.858 88.6924ZM261.659 72.7731L261.819 72.5489C261.819 72.5489 261.563 72.4207 261.659 72.7731ZM289.141 33.4393C289.141 33.4393 286.323 33.151 284.785 34.3682C283.248 35.6174 281.999 37.1869 281.999 37.1869L267.713 60.7616C267.713 60.7616 266.143 62.6193 266.784 64.1568C267.393 65.7263 269.571 65.0857 269.571 65.0857H278.892C278.892 65.0857 280.141 65.406 281.999 64.4771C283.856 63.5482 285.714 60.7616 285.714 60.7616L299.391 38.1158C299.391 38.1158 300.929 36.5463 300 34.6885C299.391 33.4393 297.533 33.4393 297.533 33.4393H289.141ZM341.928 76.2644C341.928 76.2644 337.892 76.5847 336.323 73.7981C334.465 70.6911 335.394 68.8333 336.034 66.3349L340.359 58.5835H364.606C364.606 58.5835 363.645 60.7616 362.107 63.5482C361.179 65.0857 363.645 65.0857 363.645 65.0857H374.535C374.535 65.0857 379.5 65.406 380.749 62.6193C381.678 60.7616 393.466 40.5822 393.466 40.5822C393.466 40.5822 396.284 36.8666 395.964 35.2971C395.323 33.4393 392.216 33.4393 392.216 33.4393H384.785C384.785 33.4393 380.749 33.151 379.82 34.6885C378.251 36.8666 376.073 39.9736 376.073 39.9736H351.249L356.214 32.5104C356.214 32.5104 359 28.7949 362.107 26.6168C366.143 23.8301 370.788 23.8301 370.788 23.8301H415.214C415.214 23.8301 420.179 23.2215 422.678 28.7949C424.535 33.151 418.642 42.1517 418.642 42.1517L404.644 65.7263C404.644 65.7263 400.929 70.6911 396.893 73.1575C391.287 76.5847 385.074 75.9762 385.074 75.9762L341.928 76.2644Z" fill="#FF0000"/>
</g>
<defs>
<clipPath id="clip0_39_300">
<rect width="500" height="95.4516" fill="white"/>
</clipPath>
</defs>
</svg>
