<svg width="500" height="77" viewBox="0 0 500 77" fill="none" xmlns="http://www.w3.org/2000/svg">
<path d="M132.287 60.5498C130.247 60.931 127.866 61.265 125.305 61.265C118.148 61.2561 116.572 58.7942 116.574 54.1619V26.8951H103.108L103.081 55.5094C103.07 68.2 110.182 74.0162 124.657 74.0319C131.679 74.0363 138.211 72.7404 145.877 70.783V26.8951H132.287V60.5498ZM176.002 61.8009C171.105 61.7964 170.431 59.4915 170.433 55.7964L170.449 38.2067L181.619 38.2179V26.8951H170.449V13.422H156.96V26.8928L150.155 26.8951V38.1888L156.96 38.1955L156.944 56.6664C156.937 64.7987 158.59 74.0677 171.984 74.0789C176.081 74.0834 179.428 73.0969 183.088 72.061L181.747 60.8457C179.765 61.4197 178.029 61.8009 176.002 61.8009ZM34.6279 36.5857C32.1324 35.6305 29.3476 34.7336 26.3611 33.9085C18.5001 31.6888 16.0808 30.4489 16.0831 26.9982C16.0853 22.922 19.11 21.0498 26.1593 21.0565C31.9508 21.061 37.0965 22.5588 42.3297 24.5251L45.1593 11.3166C39.1279 9.06997 33.3992 7.06772 26.4508 7.06324C10.2266 7.04979 1.27814 16.2673 1.26693 27.3278C1.2602 35.5206 4.96199 41.0857 12.9485 44.3144C15.2938 45.2605 17.9979 46.1978 20.9934 47.0789C29.8006 49.783 32.3656 51.0498 32.3633 54.4377C32.3611 58.5453 29.0046 60.7336 22.1032 60.7269C15.7602 60.7202 9.92836 58.9758 3.82971 56.1709L1.00684 69.496C7.66379 72.1238 14.2938 74.0722 22.2692 74.0789C38.7759 74.0946 47.3387 64.8525 47.3476 53.7583C47.3566 44.6866 42.24 39.4982 34.6279 36.5857ZM211.271 24.561C206.85 24.5565 202.626 25.5834 199.628 26.6238V4.42871H186.159V73.9646H199.585L199.614 39.1081C202.043 38.1776 204.845 37.2583 208.159 37.2605C213.404 37.265 215.301 39.2762 215.296 44.1753L215.271 73.9646H228.7L228.724 42.7112C228.736 30.4265 223.188 24.57 211.271 24.561ZM74.9306 24.339C61.3118 24.3278 50.3185 33.8906 50.305 49.0027C50.2916 64.1193 61.231 74.0677 74.8857 74.0789C88.5315 74.0924 99.4889 64.1978 99.5023 49.0498C99.5158 33.9018 88.5382 24.3525 74.9306 24.339ZM74.897 60.8502C69.0427 60.8457 64.3544 56.6395 64.3611 49.0229C64.3678 41.4063 68.9104 37.3906 74.9171 37.3951C80.9149 37.3996 85.3611 41.3659 85.3544 49.0363C85.3499 56.7179 80.7467 60.8592 74.897 60.8502ZM376.944 45.3054C375.027 44.6395 372.872 43.9511 370.525 43.274C365.807 42.0318 363.978 41.2404 363.98 39.2964C363.982 37.2449 365.807 35.8794 369.955 35.8816C374.408 35.8861 378.511 36.8032 382.908 38.0767L385.049 26.4444C380.202 25.3839 375.401 24.4511 369.962 24.4444C357.209 24.4332 350.343 30.9601 350.334 39.8614C350.33 46.1843 353.399 50.1798 359.758 52.8682C361.554 53.6327 363.666 54.4063 366.063 55.1574C371.034 56.5924 373.455 57.1753 373.455 59.4197C373.451 61.5565 370.509 62.5274 366.563 62.5229C361.706 62.5184 357.173 61.7269 352.493 59.8816L350.399 71.4377C356.193 73.0879 361.628 74.1731 367.657 74.1776C381.067 74.191 387.083 67.1641 387.092 58.4937C387.099 52.5588 384.54 47.9736 376.944 45.3054ZM326.361 24.3928C312.128 24.3794 302.253 34.2987 302.24 49.9242C302.229 64.5027 311.034 74.1193 326.597 74.1327C333.552 74.1372 339.222 72.1888 345.054 69.7067L343.031 58.57C338.637 60.5475 334.092 62.0879 328.785 62.0834C320.762 62.0744 317.457 58.6283 316.94 53.7583L347.171 53.7852C347.171 53.7852 347.608 48.3009 347.608 47.2336C347.626 34.5453 340.592 24.404 326.361 24.3928ZM317.132 44.7695C317.991 40.6395 320.141 35.5229 325.798 35.5274C331.628 35.5341 333.383 41.4466 333.534 44.783L317.132 44.7695ZM413.655 61.8009C408.758 61.7964 408.11 59.4915 408.114 55.7964L408.132 38.3144L419.431 38.3256V26.8951H408.128V13.422H394.614V26.8928L387.747 26.8951V38.2964L394.614 38.3032L394.597 56.6664C394.588 64.7987 396.563 74.0677 409.957 74.0789C414.054 74.0834 417.431 73.0969 421.092 72.061L419.428 60.8457C417.449 61.4197 415.684 61.8009 413.655 61.8009ZM422.623 7.21795C419.348 7.21571 416.682 9.88163 416.677 13.1709C416.673 16.4601 419.341 19.1283 422.61 19.1327C425.904 19.135 428.57 16.4691 428.574 13.1798C428.579 9.89059 425.913 7.22243 422.623 7.21795ZM422.61 18.0789C419.852 18.0767 417.794 16.0789 417.794 13.1731C417.798 10.283 419.861 8.26952 422.619 8.274C425.399 8.27624 427.444 10.2897 427.44 13.1798C427.442 16.0857 425.392 18.0789 422.61 18.0789ZM423.35 13.4466C424.375 13.2897 425.063 12.6821 425.063 11.644C425.063 10.5094 424.267 9.6462 422.749 9.64396L420.399 9.64172L420.395 16.5565L421.673 16.5588V13.6036C422.137 13.6058 422.312 13.7471 422.632 14.2605L424.117 16.561H425.583L424.164 14.4197C423.845 13.9422 423.61 13.6395 423.35 13.4466ZM422.348 12.6798L421.673 12.6776L421.677 10.6664L422.556 10.6686C423.422 10.6686 423.724 11.07 423.724 11.6753C423.72 12.5206 423.067 12.6798 422.348 12.6798ZM289.751 26.8951L281.334 52.7875L272.619 26.8951H260.875L252.162 52.7875L243.742 26.8951H229.108L245.818 73.9601H258.238L266.816 48.487L275.26 73.9601H287.679L304.388 26.8951H289.751Z" fill="#304CB2"/>
<path d="M464.025 24.1797C459.476 24.1797 455.812 25.7649 452.884 27.4308C449.953 25.7649 446.296 24.1797 441.745 24.1797C432.648 24.1797 426.642 30.1214 426.642 40.2739C426.642 52.6595 438.469 64.7604 452.884 74.4757C467.301 64.7582 479.126 52.6617 479.126 40.2739C479.126 30.1236 473.124 24.1797 464.025 24.1797Z" fill="#CCCCCC"/>
<path d="M428.126 40.4911C428.126 53.1548 441.48 64.9351 452.884 72.7333C456.166 70.4866 459.556 67.9082 462.783 65.0741C447.675 52.4194 433.496 41.0987 428.409 37.0449C428.227 38.1279 428.126 39.2826 428.126 40.4911Z" fill="url(#paint0_linear_39_298)"/>
<path d="M476.63 46.3659C465.682 37.3367 459.052 32.7403 451.942 28.4735C450.027 27.3166 446.182 25.626 441.87 25.626C437.74 25.626 434.271 26.9107 431.881 29.4152C430.325 31.0408 429.269 33.0834 428.666 35.561C434.336 39.5206 449.733 50.5296 465.242 62.8121C470.422 57.8816 474.76 52.274 476.63 46.3659Z" fill="url(#paint1_linear_39_298)"/>
<path d="M473.863 29.422C471.509 26.9691 468.058 25.6484 464.087 25.6484C459.827 25.6484 456.581 27.0251 454.318 28.2538C458.565 30.617 467.791 35.9646 477.35 43.0049C477.498 42.0543 477.581 41.0991 477.581 40.1395C477.578 35.6798 476.276 31.9444 473.863 29.422Z" fill="url(#paint2_linear_39_298)"/>
<defs>
<linearGradient id="paint0_linear_39_298" x1="428.127" y1="54.888" x2="462.784" y2="54.888" gradientUnits="userSpaceOnUse">
<stop stop-color="#3656CC"/>
<stop offset="0.35" stop-color="#304CB2"/>
<stop offset="0.72" stop-color="#283B80"/>
</linearGradient>
<linearGradient id="paint1_linear_39_298" x1="433.051" y1="27.5105" x2="472.202" y2="54.9244" gradientUnits="userSpaceOnUse">
<stop offset="0.3" stop-color="#E61C23"/>
<stop offset="0.8" stop-color="#C3161C"/>
</linearGradient>
<linearGradient id="paint2_linear_39_298" x1="457.318" y1="23.97" x2="479.702" y2="39.6437" gradientUnits="userSpaceOnUse">
<stop stop-color="#FDBC11"/>
<stop offset="0.25" stop-color="#FCB415"/>
<stop offset="0.8" stop-color="#F89E1C"/>
</linearGradient>
</defs>
</svg>
