<svg width="500" height="84" viewBox="0 0 500 84" fill="none" xmlns="http://www.w3.org/2000/svg">
<g clip-path="url(#clip0_39_299)">
<path d="M2.47461 80.6509H452.427L497.524 2.51711H2.47461V80.6509Z" fill="#FFD20A"/>
<mask id="mask0_39_299" style="mask-type:luminance" maskUnits="userSpaceOnUse" x="1" y="3" width="518" height="79">
<path d="M1.52441 81.8135H518.463V3.54934H1.52441V81.8135Z" fill="white"/>
</mask>
<g mask="url(#mask0_39_299)">
<path d="M88.1502 30.8149C86.2922 29.4058 84.2588 28.789 81.779 28.789C79.1714 28.789 76.9774 30.4413 76.9774 32.4271C76.9774 33.5855 77.6795 34.5358 79.6302 35.2002L82.9399 36.321C86.6608 37.5571 88.6015 39.5455 88.6015 42.81C88.6015 49.0658 83.2659 54.1934 74.6582 54.1934C70.6038 54.1934 67.5849 53.1202 65.1904 51.5857L68.2469 47.1578C70.6514 48.5694 72.7977 49.3918 75.6912 49.3918C79.3419 49.3918 81.6963 47.4887 81.6963 44.6329C81.6963 43.1811 80.7008 42.2283 78.6348 41.5313L75.6134 40.4958C72.3489 39.3825 70.3606 37.8054 70.3606 34.4531C70.3606 28.6586 75.819 23.9448 82.644 23.9448C86.1643 23.9448 89.5217 25.0179 91.6303 26.8383L88.1502 30.8149Z" fill="black"/>
<path d="M103.63 36.1919H99.947L97.713 46.8256C97.5475 47.5251 97.5023 48.1971 97.5023 48.691C97.5023 49.8469 98.1242 50.223 99.3703 50.223C99.8618 50.223 100.817 50.0525 101.434 49.8068V53.1616C99.8241 53.7759 98.1643 54.0718 96.7226 54.0718C93.5357 54.0718 91.7129 52.4997 91.7129 50.4286C91.7129 49.6839 91.7956 48.691 92.0062 47.6956L94.4434 36.1919H92.3347L93.1571 32.3833H95.2733C95.687 30.3122 95.9754 28.9507 96.5546 27.3761L102.389 25.9695C101.765 27.9152 101.151 30.2345 100.689 32.3833H105.619L103.63 36.1919Z" fill="black"/>
<path d="M117.08 36.2758C115.709 36.2758 114.681 36.3586 113.191 38.0987C111.454 40.1647 110.581 44.3444 110.581 47.1577C110.581 49.0658 111.08 49.8882 112.281 49.8882C114.019 49.8882 115.796 48.1105 116.381 46.5835L118.572 36.6043C118.324 36.4413 117.579 36.2758 117.08 36.2758ZM123.499 38.6377L121.801 46.6612C121.425 48.4841 121.588 49.7177 122.581 50.8034L117.993 54.2334C116.997 53.5715 116.544 52.4607 116.381 51.6258C114.803 53.2856 113.066 54.1507 110.749 54.1507C106.9 54.1507 104.917 51.7912 104.917 47.4034C104.917 42.3185 106.855 37.8053 109.383 35.2804C111.697 32.9636 114.302 31.9732 117.825 31.9732C120.31 31.9732 123.078 32.3819 124.863 33.4174C124.407 34.6987 123.825 37.0255 123.499 38.6377Z" fill="black"/>
<path d="M134.424 31.6807C134.795 32.3827 135.046 34.2056 134.963 35.1157C136.736 33.2152 139.012 31.9339 142.114 31.9339C144.807 31.9339 146.379 33.5461 146.379 36.1111C146.379 37.0238 146.249 38.1797 146.051 39.0924L142.989 53.5723H137.526L140.469 39.7919C140.627 38.9645 140.75 38.3452 140.75 37.8914C140.75 36.8533 140.299 36.565 139.301 36.565C137.979 36.565 136.41 37.3924 134.672 39.7493L131.729 53.5723H126.268L129.289 39.298C129.785 36.9812 129.743 35.1583 129.289 33.7091L134.424 31.6807Z" fill="black"/>
<path d="M158.713 29.2817L155.358 44.9626C154.821 47.4449 154.658 48.4854 154.658 49.0646C154.658 49.8469 154.989 50.2656 155.734 50.2656C155.942 50.2656 156.15 50.2656 156.351 50.1804L156.604 53.4926C155.609 53.8637 154.37 54.0718 153.167 54.0718C150.19 54.0718 148.781 52.4596 148.781 50.2656C148.781 49.5159 149.072 47.9388 149.403 46.4169L152.748 30.6056C153.335 27.835 153.661 25.8893 153.252 24.4826L159.127 22.7024C159.295 23.6552 159.295 26.5938 158.713 29.2817Z" fill="black"/>
<path d="M168.396 41.1137C170.801 41.1137 173.569 40.2888 173.569 38.1801C173.569 36.8938 172.992 35.9887 171.337 35.9887C169.224 35.9887 167.647 37.2273 166.822 40.9081C166.822 40.9081 167.647 41.1137 168.396 41.1137ZM176.545 51.2584C173.692 53.2417 170.921 54.1519 167.94 54.1519C162.893 54.1519 159.919 51.5016 159.919 46.3766C159.919 41.9862 161.86 37.4755 164.678 34.74C166.777 32.7166 169.138 31.9343 171.962 31.9343C176.134 31.9343 179.153 33.5866 179.153 37.7263C179.153 41.738 175.469 45.0076 168.441 45.0076C166.992 45.0076 165.911 44.7142 165.911 44.7142C165.911 44.7142 165.706 46.0832 165.706 46.6198C165.706 49.0218 166.95 50.0097 169.269 50.0097C171.167 50.0097 173.153 49.1848 175.141 47.7807L176.545 51.2584Z" fill="black"/>
<path d="M187.599 32.0548L188.637 44.4311C188.715 45.7048 188.8 48.8139 188.8 48.8139C188.8 48.8139 190.25 45.1306 191.654 42.4829L196.992 32.3833H202.947L190.663 53.9063C188.347 58.0033 186.895 59.776 185.112 60.8943C183.497 61.9298 181.562 62.5892 179.568 62.835L178.455 59.1141C179.736 58.8257 181.228 58.3669 182.178 57.7927C183.876 56.7672 184.535 55.8094 185.859 53.5728H184.332C184.247 51.9982 184.044 49.4332 183.791 47.6129L181.888 32.7168L187.599 32.0548Z" fill="black"/>
<path d="M211.291 36.3213H214.683C216.266 36.3213 217.005 35.9903 217.712 35.4888C218.617 34.8269 219.45 33.6685 219.45 32.2644C219.45 30.4817 218.658 29.737 216.266 29.737H212.665L211.291 36.3213ZM208.651 48.858H212.414C213.615 48.858 214.643 48.527 215.391 48.023C216.677 47.158 217.582 45.3753 217.582 43.7605C217.582 41.7371 216.469 41.0752 213.904 41.0752H210.301L208.651 48.858ZM218.206 24.8126C222.557 24.8126 225.691 26.8836 225.691 31.0207C225.691 33.8365 223.918 37.0609 219.658 38.3071C222.301 38.8813 223.961 41.2006 223.961 43.8884C223.961 45.7062 223.211 48.527 221.268 50.5153C219.154 52.6666 216.76 53.5718 212.289 53.5718H201.858L207.986 24.8126H218.206Z" fill="black"/>
<path d="M237.118 29.2817L233.766 44.9626C233.227 47.4449 233.061 48.4854 233.061 49.0646C233.061 49.8469 233.395 50.2656 234.139 50.2656C234.342 50.2656 234.551 50.2656 234.761 50.1804L235.009 53.4926C234.014 53.8637 232.773 54.0718 231.567 54.0718C228.593 54.0718 227.187 52.4596 227.187 50.2656C227.187 49.5159 227.475 47.9388 227.803 46.4169L231.161 30.6056C231.74 27.835 232.078 25.8893 231.655 24.4826L237.529 22.7024C237.695 23.6552 237.695 26.5938 237.118 29.2817Z" fill="black"/>
<path d="M251.11 36.2758C249.741 36.2758 248.706 36.3586 247.214 38.0987C245.481 40.1647 244.614 44.3444 244.614 47.1577C244.614 49.0658 245.108 49.8882 246.309 49.8882C248.046 49.8882 249.821 48.1105 250.403 46.5835L252.597 36.6043C252.346 36.4413 251.604 36.2758 251.11 36.2758ZM257.524 38.6377L255.819 46.6612C255.445 48.4841 255.616 49.7177 256.614 50.8034L252.015 54.2334C251.025 53.5715 250.571 52.4607 250.403 51.6258C248.831 53.2856 247.096 54.1507 244.779 54.1507C240.93 54.1507 238.939 51.7912 238.939 47.4034C238.939 42.3185 240.89 37.8053 243.418 35.2804C245.727 32.9636 248.332 31.9732 251.852 31.9732C254.337 31.9732 257.105 32.3819 258.89 33.4174C258.429 34.6987 257.852 37.0255 257.524 38.6377Z" fill="black"/>
<path d="M275.232 37.7665C274.322 36.731 273.126 36.1919 272.091 36.1919C271.09 36.1919 270.228 36.6031 269.481 37.4356C267.951 39.1731 266.545 43.551 266.545 46.8281C266.545 49.022 267.578 49.9698 269.067 49.9698C270.596 49.9698 272.131 49.1047 273.7 47.8586L275.561 51.2986C273.247 53.0789 270.887 54.1094 267.778 54.1094C263.069 54.1094 260.507 51.3789 260.507 46.8281C260.507 41.5727 262.949 36.7711 265.88 34.2888C267.778 32.6741 269.892 31.7639 272.835 31.7639C274.779 31.7639 276.925 32.5538 278.457 34.2888L275.232 37.7665Z" fill="black"/>
<path d="M300.598 32.3832L291.952 41.5726L297.664 53.5728H291.125L286.571 41.5726L293.732 32.3832H300.598ZM289.467 22.7024C289.753 23.7354 289.713 26.2603 288.765 30.6908L283.884 53.5728H278.34L283.312 30.3147C283.924 27.376 284.011 25.6836 283.723 24.4826L289.467 22.7024Z" fill="black"/>
<path d="M315.952 31.8902C315.952 30.6892 315.125 29.8593 313.886 29.8593C312.061 29.8593 310.536 31.3913 310.536 33.2567C310.536 34.1217 310.905 35.077 312.186 36.5639C314.545 35.6111 315.952 33.7507 315.952 31.8902ZM306.113 47.0772C306.113 48.9777 307.517 50.096 309.997 50.096C311.978 50.096 313.595 49.5569 314.706 48.6117L309.328 42.1503C307.272 43.266 306.113 44.9635 306.113 47.0772ZM324.562 39.5025C324.076 42.3182 322.907 45.5402 321.423 47.6138L326.177 53.5712H318.858L317.446 51.7484C315.42 53.1625 312.976 54.1504 308.959 54.1504C303.215 54.1504 300.025 51.2995 300.025 47.526C300.025 44.0583 302.425 40.9894 306.986 39.0913C305.278 37.5142 304.824 36.1477 304.824 34.3299C304.824 29.7364 309.087 26.013 314.671 26.013C318.936 26.013 321.626 28.1217 321.626 31.1455C321.626 34.3299 320.465 36.7319 315.245 39.1339L314.706 39.3821L318.52 43.9756C319.267 42.8097 319.843 40.2898 319.929 39.5025H324.562Z" fill="black"/>
<path d="M335.821 48.8569H338.674C341.154 48.8569 343.022 47.4904 344.055 45.8707C346.62 41.8614 347.162 36.067 347.162 34.5375C347.162 31.8898 346.412 29.3649 342.571 29.3649H339.953L335.821 48.8569ZM341.661 24.8115C346.455 24.8115 349.401 25.3481 351.211 27.6273C352.538 29.3272 353.403 31.2228 353.403 34.6202C353.403 39.3391 351.703 45.4996 348.157 49.2681C345.128 52.46 342.237 53.5732 335.904 53.5732H328.903L335.026 24.8115H341.661Z" fill="black"/>
<path d="M363.339 41.1137C365.741 41.1137 368.512 40.2888 368.512 38.1801C368.512 36.8938 367.935 35.9887 366.285 35.9887C364.167 35.9887 362.602 37.2273 361.765 40.9081C361.765 40.9081 362.602 41.1137 363.339 41.1137ZM371.486 51.2584C368.637 53.2417 365.867 54.1519 362.886 54.1519C357.841 54.1519 354.854 51.5016 354.854 46.3766C354.854 41.9862 356.805 37.4755 359.621 34.74C361.725 32.7166 364.089 31.9343 366.9 31.9343C371.074 31.9343 374.096 33.5866 374.096 37.7263C374.096 41.738 370.42 45.0076 363.379 45.0076C361.933 45.0076 360.86 44.7142 360.86 44.7142C360.86 44.7142 360.654 46.0832 360.654 46.6198C360.654 49.0218 361.89 50.0097 364.212 50.0097C366.117 50.0097 368.103 49.1848 370.082 47.7807L371.486 51.2584Z" fill="black"/>
<path d="M390.694 37.7665C389.784 36.731 388.583 36.1919 387.553 36.1919C386.56 36.1919 385.685 36.6031 384.95 37.4356C383.413 39.1731 382.006 43.551 382.006 46.8281C382.006 49.022 383.034 49.9698 384.526 49.9698C386.066 49.9698 387.59 49.1047 389.17 47.8586L391.028 51.2986C388.708 53.0789 386.359 54.1094 383.25 54.1094C378.524 54.1094 375.956 51.3789 375.956 46.8281C375.956 41.5727 378.406 36.7711 381.344 34.2888C383.25 32.6741 385.354 31.7639 388.295 31.7639C390.238 31.7639 392.384 32.5538 393.921 34.2888L390.694 37.7665Z" fill="black"/>
<path d="M416.056 32.3832L407.419 41.5726L413.13 53.5728H406.589L402.03 41.5726L409.196 32.3832H416.056ZM404.929 22.7024C405.222 23.7354 405.177 26.2603 404.224 30.6908L399.34 53.5728H393.799L398.763 30.3147C399.385 27.376 399.47 25.6836 399.18 24.4826L404.929 22.7024Z" fill="black"/>
<path d="M423.926 41.1137C426.326 41.1137 429.102 40.2888 429.102 38.1801C429.102 36.8938 428.522 35.9887 426.86 35.9887C424.754 35.9887 423.184 37.2273 422.352 40.9081C422.352 40.9081 423.184 41.1137 423.926 41.1137ZM432.078 51.2584C429.224 53.2417 426.454 54.1519 423.475 54.1519C418.42 54.1519 415.437 51.5016 415.437 46.3766C415.437 41.9862 417.387 37.4755 420.2 34.74C422.317 32.7166 424.674 31.9343 427.492 31.9343C431.669 31.9343 434.678 33.5866 434.678 37.7263C434.678 41.738 431 45.0076 423.964 45.0076C422.515 45.0076 421.442 44.7142 421.442 44.7142C421.442 44.7142 421.236 46.0832 421.236 46.6198C421.236 49.0218 422.477 50.0097 424.794 50.0097C426.702 50.0097 428.69 49.1848 430.674 47.7807L432.078 51.2584Z" fill="black"/>
<path d="M444.078 31.6807C444.417 32.3827 444.745 33.9197 444.577 35.1157C446.44 33.2152 448.423 31.8913 450.497 31.8913C451.282 31.8913 451.655 31.974 452.4 32.3451L450.003 37.2269C449.504 36.9386 449.005 36.8132 448.388 36.8132C447.315 36.8132 446.109 37.435 444.377 39.7092L441.435 53.5723H435.887L438.865 39.5838C439.44 36.9386 439.364 35.0781 438.948 33.7091L444.078 31.6807Z" fill="black"/>
</g>
</g>
<defs>
<clipPath id="clip0_39_299">
<rect width="500" height="83.1683" fill="white"/>
</clipPath>
</defs>
</svg>
