<svg width="500" height="83" viewBox="0 0 500 83" fill="none" xmlns="http://www.w3.org/2000/svg">
<g clip-path="url(#clip0_39_296)">
<path fill-rule="evenodd" clip-rule="evenodd" d="M69.0689 79.6239V2.07289H119.165V20.9504H94.4516V31.3777H119.165V50.3191H93.8138V60.7464H119.165V79.6239H69.0689ZM119.165 2.07289H146.492L160.172 21.5882L174.49 2.07289H255.262L268.846 20.9504H244.834V79.6239H219.42V20.9504H199.203V3.06141L173.214 39.8918L201.212 79.6239H174.49L159.534 59.4071L145.217 79.6239H119.165L146.492 40.5295L119.165 2.07289ZM268.878 2.07289H306.633C319.228 2.07289 327.487 7.43004 331.346 18.0487C335.268 28.6992 332.462 37.5002 322.927 44.4517L347.003 79.6558H321.652L295.568 42.4428C302.934 43.7821 307.27 40.6571 308.546 33.004C309.853 25.4147 306.186 21.5882 297.577 21.5882H292.953V79.6558H268.878V2.07289ZM429.05 79.6558V2.07289H451.148L474.617 35.9058V2.07289H499.968V79.6558H479.783L451.786 39.8918V79.6558H429.05ZM56.0587 2.07289L69.1008 20.9504H45.6314V79.6558H20.2807V20.9504H0.0957031V2.07289H56.0587ZM340.497 41.1673C340.497 29.879 344.515 20.1851 352.551 12.1494C360.555 4.11371 370.217 0.0639648 381.505 0.0639648C392.793 0.0639648 402.455 4.11371 410.491 12.1494C418.527 20.1851 422.545 29.879 422.545 41.1673C422.545 52.4874 418.527 62.1494 410.491 70.1851C402.455 78.2527 392.793 82.2706 381.505 82.2706C370.217 82.2706 360.555 78.2527 352.551 70.1851C344.515 62.1494 340.497 52.4874 340.497 41.1673ZM381.505 60.0448C386.713 60.0448 391.156 58.206 394.834 54.5283C398.501 50.8293 400.351 46.3969 400.351 41.1673C400.351 35.9696 398.501 31.5053 394.834 27.8382C391.167 24.1392 386.703 22.2897 381.505 22.2897C376.307 22.2897 371.843 24.1711 368.144 27.8382C364.445 31.5053 362.596 35.9696 362.596 41.1673C362.596 46.3969 364.445 50.8505 368.144 54.5283C371.864 58.206 376.318 60.0448 381.505 60.0448Z" fill="#004F85"/>
</g>
<defs>
<clipPath id="clip0_39_296">
<rect width="500" height="82.2704" fill="white"/>
</clipPath>
</defs>
</svg>
