<svg width="500" height="117" viewBox="0 0 500 117" fill="none" xmlns="http://www.w3.org/2000/svg">
<path d="M78.4884 70.2327C82.4659 61.6924 83.2482 52.0086 80.6931 42.9405C78.138 33.8724 72.4151 26.0216 64.564 20.8141C70.8721 14.3316 77.7035 7.90716 84.9128 1.77344C76.5018 6.77384 68.5191 12.4619 61.0466 18.7793C52.935 14.5495 43.6033 13.2773 34.6555 15.1813C25.7077 17.0854 17.7026 22.0467 12.0159 29.2127C6.32925 36.3786 3.31627 45.3016 3.49481 54.448C3.67335 63.5944 7.03225 72.393 12.9942 79.3316C5.46516 95.6397 4.2733 108.721 10.7849 113.14C17.907 117.878 33.3721 109.273 42.7617 95.2909C42.7617 95.2909 28.4012 108.227 20.5233 105.262C15.6686 103.43 15.6686 95.9886 19.6512 85.349C27.1969 90.8847 36.468 93.5507 45.8016 92.8688C55.1352 92.1869 63.9205 88.2017 70.5814 81.6281L71.9768 84.2444C89.1279 82.849 140.32 81.4827 140.32 81.4827C140.204 79.0699 106.308 81.3955 78.4884 70.2327ZM8.19772 53.6339C8.2039 47.8398 9.66289 42.1398 12.4412 37.0552C15.2196 31.9707 19.2285 27.664 24.1014 24.5292C28.9742 21.3944 34.5553 19.5316 40.3341 19.1111C46.113 18.6906 51.905 19.7259 57.1803 22.1223C40.1876 36.9855 25.9996 54.7771 15.2907 74.6513C10.6757 68.6182 8.18222 61.2298 8.19772 53.6339ZM42.8198 88.256C35.0469 88.2708 27.4971 85.6586 21.3954 80.8432C28.2559 65.3781 42.2093 44.6223 61.25 24.3316C68.4024 28.8353 73.6602 35.7998 76.0323 43.9123C78.4045 52.0247 77.7271 60.7247 74.1279 68.3723C68.1184 65.6752 62.567 62.056 57.6745 57.6455L68.1105 77.2385C64.8794 80.7157 60.9657 83.4889 56.6141 85.3846C52.2624 87.2803 47.5664 88.2578 42.8198 88.256Z" fill="#0033A1"/>
<path d="M313.256 50.0291L319.651 41.5117H297.325L302.819 34.2152H325.174L331.599 25.6978H287.006L256.337 66.3954H300.93L307.325 57.878H285L290.901 50.0291H313.256Z" fill="#0033A1"/>
<path d="M344.215 25.6978L313.547 66.3954H335.814L366.454 25.6978H344.215Z" fill="#0033A1"/>
<path d="M418.343 25.6978L402.79 46.3373L398.023 25.6978H380.639L349.971 66.3954H364.68L380.087 45.9594L384.825 66.3954H402.383L433.052 25.6978H418.343Z" fill="#0033A1"/>
<path d="M491.076 25.6979H455.32C452.416 25.6945 449.551 26.3679 446.952 27.6647C444.353 28.9615 442.093 30.8461 440.349 33.1688L421.89 57.6746C421.169 58.6177 420.781 59.7726 420.785 60.9595C420.785 62.4039 421.357 63.7896 422.376 64.8137C423.394 65.8377 424.777 66.4169 426.221 66.4246H461.977C464.886 66.4303 467.756 65.758 470.36 64.4612C472.963 63.1644 475.229 61.2787 476.977 58.9537L481.425 53.1397H486.599L493.053 44.4188H465.669L456.948 55.9014C456.495 56.5069 455.907 56.9984 455.231 57.3365C454.555 57.6747 453.809 57.8502 453.053 57.849H446.744C446.367 57.849 446.004 57.699 445.737 57.4318C445.47 57.1647 445.32 56.8024 445.32 56.4246C445.318 56.1186 445.42 55.8211 445.611 55.5816L460.146 36.1048C460.597 35.4976 461.184 35.0049 461.861 34.6666C462.538 34.3282 463.285 34.1537 464.041 34.1572H470.349C470.536 34.1572 470.721 34.194 470.894 34.2656C471.067 34.3372 471.224 34.4421 471.356 34.5744C471.489 34.7066 471.594 34.8637 471.665 35.0365C471.737 35.2093 471.774 35.3945 471.774 35.5816C471.765 35.8858 471.664 36.1801 471.483 36.4246L469.099 39.5932H491.308L495.233 34.3607C495.846 33.5523 496.221 32.5886 496.314 31.5784C496.408 30.5683 496.217 29.552 495.764 28.6446C495.31 27.7372 494.612 26.9749 493.747 26.4439C492.883 25.9128 491.887 25.6343 490.872 25.6397L491.076 25.6979Z" fill="#0033A1"/>
<path d="M268.75 31.1626C268.75 29.7209 268.178 28.3382 267.158 27.3188C266.139 26.2993 264.756 25.7266 263.314 25.7266H227.558C224.65 25.721 221.78 26.3932 219.176 27.69C216.572 28.9868 214.306 30.8725 212.558 33.1975L194.099 57.7033C193.497 58.5146 193.132 59.4767 193.044 60.4828C192.956 61.489 193.149 62.4999 193.6 63.4033C194.052 64.3067 194.745 65.0672 195.603 65.6005C196.461 66.1338 197.45 66.4189 198.46 66.4243H234.215C237.124 66.4299 239.994 65.7577 242.598 64.4609C245.202 63.164 247.467 61.2783 249.215 58.9533L267.675 34.4475C268.383 33.4997 268.761 32.3458 268.75 31.1626ZM243.896 36.4824L229.361 55.9301C228.91 56.5373 228.322 57.03 227.645 57.3684C226.969 57.7067 226.222 57.8812 225.465 57.8778H219.041C218.779 57.8751 218.523 57.8002 218.3 57.6613C218.078 57.5224 217.899 57.3249 217.781 57.0904C217.664 56.856 217.614 56.5938 217.636 56.3327C217.658 56.0715 217.752 55.8216 217.907 55.6103L232.442 36.1336C232.898 35.5313 233.487 35.0423 234.162 34.7045C234.838 34.3667 235.582 34.1892 236.338 34.1859H242.646C243.023 34.1859 243.386 34.336 243.653 34.6031C243.92 34.8702 244.07 35.2325 244.07 35.6103C244.062 35.9145 243.961 36.2088 243.779 36.4533L243.896 36.4824Z" fill="#0033A1"/>
<path d="M184.651 47.035C188.972 46.0553 192.804 43.5724 195.465 40.0292L199.709 34.4188C200.322 33.6104 200.697 32.6467 200.79 31.6365C200.884 30.6264 200.693 29.6101 200.24 28.7027C199.786 27.7953 199.087 27.033 198.223 26.502C197.359 25.9709 196.363 25.6924 195.348 25.6978H150.232L119.563 66.3955H166.25C169.158 66.4011 172.028 65.7289 174.632 64.4321C177.236 63.1353 179.502 61.2496 181.25 58.9246L185.581 53.1106C186.153 52.3589 186.459 51.4389 186.453 50.4943C186.452 49.8104 186.291 49.1362 185.983 48.5255C185.675 47.9148 185.229 47.3845 184.68 46.9769L184.651 47.035ZM164.011 52.3257L161.25 55.9885C160.797 56.5941 160.209 57.0855 159.533 57.4237C158.856 57.7618 158.11 57.9373 157.354 57.9362H148.255L154.069 50.0874H162.79C163.168 50.0874 163.53 50.2374 163.797 50.5046C164.065 50.7717 164.215 51.134 164.215 51.5118C164.215 51.8174 164.112 52.1142 163.924 52.3548L164.011 52.3257ZM175.93 36.5118L173.575 39.6223C173.118 40.2208 172.528 40.7055 171.852 41.0383C171.177 41.3711 170.433 41.5431 169.68 41.5409H160.581L166.075 34.2443H174.796C174.983 34.2443 175.168 34.2812 175.341 34.3528C175.514 34.4244 175.671 34.5293 175.803 34.6615C175.936 34.7938 176.04 34.9508 176.112 35.1237C176.184 35.2965 176.22 35.4817 176.22 35.6688C176.212 35.9729 176.111 36.2673 175.93 36.5118Z" fill="#0033A1"/>
</svg>
