<svg width="500" height="140" viewBox="0 0 500 140" fill="none" xmlns="http://www.w3.org/2000/svg">
<g clip-path="url(#clip0_39_295)">
<path d="M332.748 139.297C325.399 139.297 319.409 133.307 319.409 125.959C319.409 118.61 325.399 112.62 332.748 112.62C340.096 112.62 346.086 118.61 346.086 125.959C346.086 133.387 340.096 139.297 332.748 139.297ZM332.748 115.415C326.917 115.415 322.125 120.208 322.125 126.038C322.125 131.869 326.917 136.661 332.748 136.661C338.578 136.661 343.371 131.869 343.371 126.038C343.291 120.128 338.578 115.415 332.748 115.415ZM55.5911 138.738V115.895H65.1757V113.179H43.2907V115.895H52.8754V138.738H55.5911ZM128.355 139.297C134.425 139.297 138.179 136.023 139.617 130.991L136.901 130.431C135.703 134.585 132.508 136.582 128.355 136.582C122.923 136.582 118.61 132.828 118.61 125.959C118.61 119.409 122.604 115.336 128.275 115.336C132.508 115.336 135.144 117.253 136.422 121.086L139.058 120.368C137.3 115.655 134.585 112.62 128.355 112.62C121.006 112.62 115.895 117.812 115.895 125.879C115.974 133.786 121.086 139.297 128.355 139.297ZM160.703 138.738V126.438H176.198V138.738H178.914V113.179H176.198V123.802H160.703V113.259H157.987V138.818H160.703V138.738ZM304.872 138.738V136.023H290.176V113.179H287.46V138.738H304.872ZM476.597 139.297C482.189 139.297 485.943 136.342 485.943 132.109C485.943 127.716 482.827 125.959 477.556 124.361C472.444 122.764 470.607 121.885 470.607 119.09C470.607 116.933 472.604 115.336 475.958 115.336C479.073 115.336 481.31 116.614 482.748 119.649L485.224 118.291C483.866 115.016 480.99 112.54 475.958 112.54C470.927 112.54 467.492 115.415 467.492 119.329C467.492 123.802 470.767 125.24 476.198 126.837C481.39 128.435 482.827 129.713 482.827 132.189C482.827 134.904 480.351 136.422 476.677 136.422C473.163 136.422 470.527 134.745 469.249 131.31L466.613 132.428C468.051 136.661 471.565 139.297 476.597 139.297ZM98.8818 115.895V113.179H82.508V138.738H98.8818V136.023H85.2236V127.476H98.0831V124.761H85.2236V115.815H98.8818V115.895ZM202.077 138.738V119.249L221.645 139.377V113.259H218.93V132.828L199.441 112.62V138.738H202.077ZM254.153 139.297C246.805 139.297 240.815 133.307 240.815 125.959C240.815 118.61 246.805 112.62 254.153 112.62C261.502 112.62 267.492 118.61 267.492 125.959C267.492 133.387 261.502 139.297 254.153 139.297ZM254.153 115.415C248.323 115.415 243.53 120.208 243.53 126.038C243.53 131.869 248.323 136.661 254.153 136.661C259.984 136.661 264.776 131.869 264.776 126.038C264.776 120.128 259.984 115.415 254.153 115.415ZM388.738 127.077V125.719H378.355V128.435H385.863C385.303 133.467 381.789 136.582 376.278 136.582C370.367 136.582 365.495 131.789 365.495 125.959C365.495 120.128 370.367 115.336 376.278 115.336C379.872 115.336 383.227 117.093 385.224 120.048L387.54 118.53C384.984 114.856 380.831 112.62 376.278 112.62C368.77 112.62 362.7 118.61 362.7 125.959C362.7 133.307 368.77 139.297 376.278 139.297C383.786 139.297 388.738 134.425 388.738 127.077ZM409.425 113.179V138.738H412.141V113.179H409.425ZM485.943 2.95542H431.629V12.2206H485.943V2.95542ZM485.943 78.3548H431.629V87.6199H485.943V78.3548ZM472.125 40.6551H431.709V49.9203H472.125V40.6551ZM384.904 2.95542V69.0097L313.419 -0.319336V87.6998H322.684V21.5656L394.249 90.9746V2.95542H384.904ZM148.882 87.6199L121.406 53.4347H129.872C145.367 53.4347 154.553 42.4123 154.553 28.3548C154.553 14.2973 143.77 2.95542 130.511 2.95542H90.016V12.2206H130.511C139.137 12.2206 145.288 19.8883 145.288 28.3548C145.288 36.9011 139.776 44.0896 131.39 44.0896H102.157L136.901 87.6199H148.882ZM0 2.95542V12.2206H43.2907V87.6199H52.5559V2.95542H0ZM491.613 113.818V118.53H490.974V113.818H489.297V113.179H493.291V113.818H491.613ZM499.201 118.61H498.562V114.138L496.965 118.61H496.246L494.649 114.138V118.61H494.01V113.259H495.048L496.645 117.812L498.243 113.259H499.201V118.61ZM450.08 115.895V113.179H433.706V138.738H450.08V136.023H436.422V127.476H449.281V124.761H436.422V115.815H450.08V115.895Z" fill="black"/>
<path d="M269.968 87.62L231.07 17.9714L192.172 87.62H181.31L231.07 -0.319336L280.83 87.6998H269.968V87.62Z" fill="#6400FF"/>
</g>
<defs>
<clipPath id="clip0_39_295">
<rect width="500" height="139.776" fill="white"/>
</clipPath>
</defs>
</svg>
