<svg width="500" height="500" viewBox="0 0 500 500" fill="none" xmlns="http://www.w3.org/2000/svg">
<path d="M283.435 289.111L284.126 285.736H292.485L290.337 295.936C288.727 296.396 287.193 296.703 285.583 296.856C284.586 296.933 283.512 297.086 280.828 297.086C276.764 297.086 271.779 294.555 273.466 286.427C275.23 278.298 281.288 275.767 285.353 275.767C291.258 275.767 294.555 277.531 293.558 282.439H288.88C289.417 279.831 287.883 278.988 285.506 278.988C281.595 278.988 279.141 281.825 278.144 286.427C277.147 291.028 278.451 293.865 282.285 293.865C284.049 293.865 285.276 293.635 286.426 293.405L287.347 289.111H283.435Z" fill="#3B5B70"/>
<path d="M302.761 296.626H298.39L302.761 276.227H311.426C314.954 276.227 318.252 277.377 317.408 281.518C316.871 284.203 314.724 285.89 312.117 286.503V286.58C315.414 286.963 314.954 289.034 314.724 291.871C314.647 293.175 314.341 295.552 314.877 296.702H310.046C310.046 294.862 310.276 293.022 310.43 291.181C310.583 290.031 310.583 288.497 309.203 288.42H304.525L302.761 296.626ZM305.215 285.046H308.896C310.813 285.046 312.193 284.049 312.577 282.285C312.96 280.445 311.963 279.678 310.046 279.678H306.365L305.215 285.046Z" fill="#3B5B70"/>
<path d="M323.083 286.427C324.387 280.368 328.375 275.767 335.2 275.767C341.948 275.767 344.019 280.368 342.792 286.427C341.488 292.485 337.5 297.086 330.675 297.086C323.85 297.086 321.78 292.485 323.083 286.427ZM327.684 286.427C326.918 289.954 326.918 293.865 331.212 293.865C335.507 293.865 337.194 289.878 337.961 286.427C338.727 282.899 338.727 278.988 334.433 278.988C330.138 278.988 328.451 282.899 327.684 286.427Z" fill="#3B5B70"/>
<path d="M369.939 276.227L367.255 289.034C366.104 294.479 361.657 297.086 356.672 297.086C351.687 297.086 348.39 294.479 349.54 289.034L352.224 276.227H356.595L354.218 287.347C353.451 290.798 352.991 293.942 357.285 293.942C361.58 293.942 362.423 290.798 363.19 287.347L365.568 276.227H369.939Z" fill="#3B5B70"/>
<path d="M373.773 296.626L378.145 276.227H384.433C388.957 276.227 392.562 277.301 391.411 282.515C390.645 286.196 387.577 288.65 382.976 288.804H379.755L378.068 296.702H373.773M380.599 285.353C383.053 285.276 386.043 286.12 386.81 282.439C387.577 278.834 384.203 279.678 381.826 279.525L380.599 285.353Z" fill="#3B5B70"/>
<path d="M411.35 296.626H406.979L411.273 276.227H415.721L411.35 296.626Z" fill="#3B5B70"/>
<path d="M431.825 296.626L427.377 279.678L427.301 279.755L423.696 296.626H419.632L423.926 276.227H430.445L434.816 292.255H434.893L438.343 276.227H442.408L438.037 296.626H431.825Z" fill="#3B5B70"/>
<path d="M460.583 282.822C461.043 280.675 460.123 278.911 457.515 278.911C454.371 278.911 452.608 283.513 451.994 286.35C451.381 289.187 451.227 293.865 454.295 293.865C456.902 293.865 458.589 292.101 459.049 289.954H463.727C462.423 295.092 458.359 297.009 453.681 297.009C447.776 297.009 446.089 292.332 447.393 286.35C448.696 280.368 452.301 275.69 458.206 275.69C462.884 275.69 466.181 277.608 465.261 282.746H460.583" fill="#3B5B70"/>
<path d="M466.487 296.626L467.254 292.868H470.858L470.092 296.626H466.487Z" fill="#3B5B70"/>
<path d="M13.8035 205.598H63.4967L61.3495 215.798H43.0213L32.2084 266.871H19.0182L29.9078 215.798H11.6562L13.8035 205.598Z" fill="#3B5B70"/>
<path d="M67.2546 266.871H54.0645L67.1013 205.598H93.1749C103.681 205.675 113.727 209.049 111.12 221.549C109.433 229.525 103.144 234.816 95.2454 236.426V236.58C105.138 237.653 103.834 243.865 103.068 252.377C102.837 256.288 101.841 263.497 103.528 266.871H89.0338C89.1105 261.426 89.6473 255.905 90.2608 250.383C90.6442 247.009 90.7976 242.331 86.5031 242.178H72.546L67.2546 266.871ZM74.6933 232.055H85.7362C91.5645 231.979 95.5522 229.064 96.7025 223.62C97.8528 218.175 94.9387 215.874 89.1872 215.798H78.1442L74.6933 232.055Z" fill="#3B5B70"/>
<path d="M103.758 266.871L138.957 205.598H154.601L162.884 266.871H149.617L147.93 253.911H123.62L116.258 266.871H103.758ZM146.779 243.712L143.942 217.561H143.788L129.218 243.712H146.779Z" fill="#3B5B70"/>
<path d="M201.151 266.871L187.807 215.951L187.577 216.181L176.764 266.871H164.494L177.531 205.598H197.009L210.123 253.834L210.353 253.681L220.552 205.598H232.899L219.862 266.871H201.151Z" fill="#3B5B70"/>
<path d="M268.788 223.083C269.632 216.871 266.948 213.804 260.583 213.804C255.751 213.804 250.307 216.334 249.156 221.702C247.776 228.297 253.528 229.064 258.512 230.368C267.331 232.745 280.521 235.353 277.914 247.699C274.693 262.883 260.276 268.175 247.163 268.175C233.129 268.175 224.386 262.73 228.067 247.316H241.488C239.494 254.141 242.485 258.666 249.31 258.666C254.601 258.666 261.886 257.055 263.267 250.537C264.801 243.328 256.135 242.791 251.15 241.488C243.021 239.34 232.132 235.429 234.432 224.616C237.423 210.583 251.61 204.448 264.187 204.448C276.074 204.448 283.972 210.889 281.365 223.236H268.788" fill="#3B5B70"/>
<path d="M292.101 205.598H312.5C318.174 205.752 324.079 206.212 328.374 209.356C336.119 215.031 338.113 224.617 335.659 236.273C333.205 247.929 327.07 257.515 316.947 263.19C311.349 266.334 305.214 266.718 299.539 266.948H279.141L292.101 205.598ZM289.11 259.586H301.533C310.122 259.586 315.414 256.135 318.558 252.607C323.312 247.316 325.536 241.948 326.687 236.196C327.914 230.521 328.067 225.077 325.536 219.785C323.926 216.334 320.015 212.807 311.503 212.807H299.079L289.11 259.586Z" fill="#BABABA"/>
<path d="M335.276 266.871L348.313 205.598H356.749L343.789 266.871H335.276Z" fill="#BABABA"/>
<path d="M404.601 220.935C404.601 213.65 398.696 211.656 392.101 211.656C377.07 211.656 368.865 224.847 366.717 236.273C364.033 251.994 367.024 260.583 384.509 260.889C388.65 260.889 392.944 260.199 397.162 258.972L400.843 241.641H386.886L388.42 234.356H410.812L404.371 264.647C396.855 266.794 389.493 268.251 382.515 268.251C373.849 268.251 367.024 267.178 361.579 261.196C356.058 255.215 355.828 245.015 357.668 236.35C359.049 229.985 362.653 223.006 366.947 217.485C374.309 208.129 384.049 204.448 394.555 204.448C404.908 204.448 415.414 209.202 413.343 221.012H404.601" fill="#BABABA"/>
<path d="M480.061 211.733H479.908L448.543 266.871H440.567L432.668 211.733H432.515L420.782 266.871H412.27L425.306 205.598H440.49L447.469 256.135H447.622L475.69 205.598H489.877L476.84 266.871H468.328L480.061 211.733Z" fill="#BABABA"/>
</svg>
