<svg width="500" height="91" viewBox="0 0 500 91" fill="none" xmlns="http://www.w3.org/2000/svg">
<g clip-path="url(#clip0_39_293)">
<mask id="mask0_39_293" style="mask-type:luminance" maskUnits="userSpaceOnUse" x="-48" y="-46" width="586" height="182">
<path d="M-47.7959 -45.2471H537.042V135.894H-47.7959V-45.2471Z" fill="white"/>
</mask>
<g mask="url(#mask0_39_293)">
<path fill-rule="evenodd" clip-rule="evenodd" d="M496.06 90.5877C493.996 90.5877 492.308 88.9304 492.308 86.8666C492.308 84.8028 493.996 83.1143 496.06 83.1143C498.124 83.1143 499.781 84.8028 499.781 86.8666C499.781 88.9304 498.124 90.5877 496.06 90.5877ZM499.218 86.8666C499.218 85.1155 497.811 83.7084 496.06 83.7084C494.309 83.7084 492.87 85.1155 492.87 86.8666C492.87 88.6177 494.309 90.0248 496.06 90.0248C497.811 90.0248 499.218 88.6177 499.218 86.8666Z" fill="#0033A0"/>
<path fill-rule="evenodd" clip-rule="evenodd" d="M496.592 86.9916L497.843 88.8678H497.155L495.935 86.9916H495.216V88.8678H494.653V84.8027H496.436C497.186 84.8027 497.874 84.9903 497.874 85.8659C497.874 86.6789 497.311 86.9603 496.592 86.9916ZM497.311 85.8659C497.311 85.4281 496.748 85.3656 496.311 85.3656H495.216V86.4287H495.935C496.404 86.4287 497.311 86.5226 497.311 85.8659Z" fill="#0033A0"/>
<path d="M466.197 90.6501C468.011 87.273 470.012 83.0828 471.325 79.5494C471.388 79.6432 472.045 81.4256 472.545 83.2392C473.577 79.6119 474.296 75.8283 474.703 71.9196C474.577 71.4193 474.296 70.6063 474.14 70.106C474.14 70.106 474.796 66.7914 475.078 63.0391C475.432 65.624 475.609 68.2507 475.609 70.919C475.609 75.5156 475.078 80.0184 474.015 84.3962C473.483 86.5538 472.826 88.6801 472.076 90.6501H466.197Z" fill="#0033A0"/>
<path d="M463.039 85.5534C462.257 84.3339 458.567 80.0187 458.567 80.0187C460.6 76.6728 462.414 73.0768 463.852 69.5121C463.852 69.5121 466.322 72.2638 468.261 75.0781C470.168 70.5127 471.044 65.7598 471.044 65.7598C469.731 63.6022 466.823 60.225 466.823 60.225C467.448 57.3483 467.823 54.3776 467.886 51.407C469.355 53.1581 471.294 55.9099 471.294 55.9099C471.294 55.9099 471.294 55.8994 471.294 55.8786C470.95 50.5002 468.167 45.5909 467.542 44.559C467.521 44.4548 467.5 44.3401 467.479 44.215C467.104 42.3389 466.447 40.2438 466.103 39.2119C469.262 43.8398 471.263 49.0306 471.263 49.0306C472.545 52.3764 473.327 56.5978 473.327 61.1944C473.327 63.6334 472.826 76.3289 463.133 90.6503H459.756C460.913 88.993 461.976 87.3983 463.039 85.5534Z" fill="#0033A0"/>
<path d="M433.583 90.6502C433.052 90.0248 431.676 88.4926 431.52 88.3363C434.74 85.3657 437.773 82.1136 440.525 78.7052L447.342 85.4907C450.031 82.4263 452.501 79.1743 454.69 75.7659C454.69 75.7659 451.094 72.3262 447.311 69.0117C450.344 64.0711 452.251 59.1305 452.251 59.1305C452.533 59.3494 456.254 62.1011 460.069 65.6658C461.882 61.6321 463.039 56.5039 463.039 56.5039C459.068 52.8766 455.003 50.3125 455.003 50.3125C455.597 47.5608 455.972 44.7465 456.066 41.9948C456.066 41.9948 460.381 44.5276 464.102 47.8109C464.134 45.4032 463.915 42.9641 463.414 40.5877C459.725 37.3982 455.628 35.2406 455.628 35.2406C455.597 35.2406 455.222 32.5514 453.909 29.3306C453.909 29.3306 453.919 29.3306 453.94 29.3306C454.19 29.4557 456.16 30.4563 459.6 32.9266C456.91 29.4244 452.251 25.9848 452.251 25.9848C451.813 25.203 451.313 24.4838 450.75 23.7646C454.565 26.36 458.036 29.4244 461.132 32.8641C462.257 34.3025 463.289 36.1161 464.102 38.2112C464.332 38.774 464.53 39.3369 464.697 39.8997C467.229 48.4363 465.666 58.0673 462.82 65.916C459.537 74.9842 454.034 83.4582 447.623 90.6502H433.583Z" fill="#0033A0"/>
<path d="M423.358 90.6508H398.687V88.0554C406.191 84.4907 410.663 81.0823 410.663 81.0823L416.979 90.0879C416.979 90.0879 421.889 87.0235 426.798 82.9585L419.199 74.3594C422.107 71.7953 424.734 69.1061 427.111 66.3544C427.111 66.3544 434.99 73.3587 435.835 74.1717C438.336 71.3575 440.619 68.3869 442.651 65.3225C438.555 62.0704 433.239 58.4119 433.146 58.3494C433.146 58.3494 436.366 53.2211 437.648 50.0942C437.648 50.0942 442.839 52.9085 447.748 56.0979C448.937 53.4088 449.937 50.6258 450.656 47.7803C447.436 45.8415 440.275 42.652 440.275 42.652C440.9 40.2443 441.244 37.8678 441.369 35.5851C441.369 35.5851 446.56 37.2424 451.813 39.8691C451.907 37.6802 451.751 35.4913 451.376 33.3963C446.935 31.2387 441.025 29.8003 441.025 29.8003C440.713 28.0179 440.181 26.2981 439.493 24.7033C439.493 24.7033 444.84 25.7039 449.593 27.6427C448.405 25.016 446.967 23.5151 446.967 23.5151C443.902 21.8578 436.992 20.5757 436.992 20.5757C436.241 19.6377 435.397 18.7308 434.49 17.9178C436.679 18.2305 440.056 19.0123 440.056 19.0123C436.335 17.1674 432.114 16.1042 432.082 16.1042C432.051 16.1042 431.238 15.5413 430.238 15.0098C430.238 15.0098 440.682 17.1674 446.341 21.4513C446.873 21.8265 447.342 22.2643 447.842 22.7333C448.436 23.2962 448.937 23.8903 449.374 24.5157C460.663 39.9941 450.875 69.794 423.358 90.6508Z" fill="#0033A0"/>
<path d="M430.738 56.6295C428.424 60.1004 425.641 63.54 422.42 66.8546C419.731 69.6376 417.01 72.0766 414.415 74.1404C410.35 77.3924 406.004 80.1754 401.501 82.3956C400.563 82.8959 399.625 83.3753 398.687 83.834V66.667C399.27 66.2709 399.843 65.8644 400.406 65.4475C401.188 66.7608 406.41 75.1098 406.504 75.2661C406.91 75.0159 408.036 74.2968 409.381 73.3587C410.944 72.2642 412.82 70.9196 414.54 69.5125C414.624 69.4291 414.697 69.3562 414.759 69.2936L406.785 60.1629C407.598 59.3499 410.319 56.6607 412.445 54.1279C412.945 54.5031 419.575 59.6626 422.233 62.0391C424.359 59.7564 426.266 57.3799 427.955 54.9722C424.296 52.5644 416.698 48.2179 416.698 48.2179C417.949 46.2167 419.043 44.2155 419.919 42.2142C419.919 42.2142 428.799 45.6851 432.395 47.4675C433.354 45.5288 434.157 43.6005 434.803 41.6826C434.886 41.3908 434.98 41.0989 435.084 40.8071C430.581 38.9934 422.576 37.086 421.826 36.9296C422.326 35.1786 422.608 33.49 422.764 31.864C429.237 32.5206 435.178 33.9903 436.429 34.3343C436.585 32.4581 436.585 30.6757 436.335 28.9872C429.112 27.7051 423.421 27.6739 422.67 27.7051C422.503 26.4127 422.201 25.1931 421.763 24.0466C421.763 24.0466 428.205 23.4837 434.897 24.2655C434.553 23.5776 434.115 22.7645 433.677 22.1392C433.333 21.6388 432.551 20.7008 432.551 20.7008C432.551 20.7008 426.892 20.263 420.294 21.2323C419.668 20.3568 418.98 19.6063 418.261 18.9809C418.418 18.9497 423.358 17.7927 429.362 17.7927C427.736 16.667 426.016 15.9165 426.016 15.9165C421.357 16.0103 416.479 17.2924 416.104 17.3862C414.79 16.6044 413.758 16.2917 413.602 16.2605C413.977 16.1354 417.573 15.041 420.2 14.7595C416.604 14.2905 411.695 15.4162 411.132 15.5413C410.35 15.4162 409.287 15.2599 408.505 15.1973C408.505 15.1973 411.163 14.4156 414.665 13.9153C417.855 13.4775 428.549 12.1642 435.397 21.3887C441.87 30.1129 439.525 43.6526 430.738 56.6295Z" fill="#0033A0"/>
<path d="M404.471 58.2236C402.626 59.8183 400.75 61.2567 398.843 62.57C398.801 62.6117 398.749 62.643 398.687 62.6639V58.6926C400.094 57.7858 401.501 56.7852 402.877 55.6595L398.687 50.7814V44.121C398.687 44.121 398.697 44.121 398.718 44.121C400.625 45.4656 403.783 47.6857 405.941 49.1867C406.629 49.687 407.359 50.229 408.13 50.8127C408.13 50.8127 410.788 47.9984 412.132 45.9972V45.9659H412.101C409.037 44.2461 400.969 40.7439 400.969 40.7439C401.657 39.6495 402.22 38.555 402.689 37.4293C404.409 37.8046 411.007 39.3993 415.353 40.7126C416.104 39.2117 416.76 37.6795 417.261 36.116C410.757 34.8965 403.565 34.6463 403.565 34.6463C403.94 33.333 403.971 31.9259 403.971 31.9259C404.378 31.8946 414.165 31.363 418.293 31.5819C418.449 30.2999 418.48 29.0491 418.386 27.9234C411.444 28.111 403.909 29.7996 403.909 29.7996C403.909 29.7996 403.815 28.9553 403.439 27.8609C411.444 25.2967 417.667 24.5775 417.667 24.5775C417.313 23.6603 416.865 22.8265 416.323 22.076C416.323 22.076 409.412 23.5144 402.877 26.2974C402.856 26.3182 402.825 26.3391 402.783 26.3599C402.512 25.8804 402.21 25.4427 401.876 25.0466C401.876 25.0466 407.974 21.8571 414.353 20.0747C413.696 19.5432 412.914 19.1054 412.132 18.7301C406.285 20.7314 400.969 24.046 400.907 24.1085C400.844 24.046 400.313 23.6395 399.75 23.2955C400.031 23.1079 404.096 20.1998 409.568 17.8859C408.755 17.6982 407.911 17.5732 407.035 17.5106C403.346 19.0741 398.749 22.7326 398.749 22.7326L398.687 22.7014V21.263C400.313 19.9497 402.439 18.5425 404.253 17.5106C403.064 17.5732 401.845 17.7399 400.594 18.0109C399.948 18.4487 399.312 18.9178 398.687 19.4181V17.5419C399.062 17.3856 399.75 17.1667 400.719 16.9165C401.199 16.8123 401.678 16.7185 402.157 16.6351C402.345 16.6038 402.501 16.6038 402.689 16.5725C408.974 15.6657 414.415 16.9478 417.667 20.6689C424.797 28.8615 418.887 45.6845 404.471 58.2236Z" fill="#0033A0"/>
<path d="M398.687 24.8594C399.041 25.0678 399.364 25.3076 399.656 25.5786C402.908 28.5179 402.376 34.5529 398.687 39.7749V24.8594Z" fill="#0033A0"/>
<path d="M398.749 15.1032L398.687 15.1345V0H489.243V90.6504H474.703C476.892 84.3652 478.017 77.7361 478.017 71.0757C478.017 38.2739 451.438 11.5697 418.793 11.5697C411.914 11.5697 405.191 12.758 398.749 15.1032Z" fill="#0033A0"/>
<path fill-rule="evenodd" clip-rule="evenodd" d="M365.666 36.0542C366.708 38.8477 367.23 41.9329 367.23 45.31C367.23 52.8773 364.853 58.537 360.1 62.2894C355.347 66.0626 348.624 67.9492 339.931 67.9492H315.541V22.7021H339.931C344.768 22.7021 348.895 23.2442 352.314 24.3282C355.754 25.4122 358.578 26.934 360.788 28.8935C362.998 30.8739 364.624 33.2608 365.666 36.0542ZM353.377 45.31C353.377 43.1837 353.137 41.3596 352.658 39.8379C352.179 38.3369 351.386 37.107 350.281 36.1481C349.177 35.1891 347.728 34.4803 345.935 34.0217C344.142 33.584 341.943 33.3651 339.337 33.3651H328.674V57.255H339.337C341.86 57.255 344.017 57.057 345.81 56.6609C347.603 56.2648 349.062 55.5977 350.188 54.6596C351.313 53.7424 352.126 52.5124 352.627 50.9698C353.127 49.448 353.377 47.5614 353.377 45.31Z" fill="#0033A0"/>
<path d="M263.633 57.7553H294.184L293.965 67.9492H250.5V22.7021H292.745L292.995 33.0211H263.633V40.4945H288.336V49.3438H263.633V57.7553Z" fill="#0033A0"/>
<path d="M230.894 22.7021L231.207 33.3651H213.915V67.9492H200.719V33.3651H183.396L183.771 22.7021H230.894Z" fill="#0033A0"/>
<path d="M150.031 22.7021H163.415V67.9492H150.031V22.7021Z" fill="#0033A0"/>
<path d="M112.883 22.7021H124.828V67.9492H116.197L89.5555 42.6521L86.1159 39.2125L85.9595 39.275L86.0533 44.1531V67.9492H74.1396V22.7021H84.9902L109.443 46.6546L112.883 50.1255L113.008 50.0317L112.883 45.185V22.7021Z" fill="#0033A0"/>
<path d="M37.8049 22.7021H50.8755V48.093C50.8755 55.1182 48.7492 60.3403 44.4966 63.7591C40.2231 67.1779 33.9275 68.8873 25.6098 68.8873C17.3338 68.8873 10.9965 67.1779 6.59787 63.7591C2.19929 60.3194 0 55.0974 0 48.093V22.7021H13.1332V48.2181C13.1332 51.6369 14.1443 54.1802 16.1664 55.8479C18.1676 57.5156 21.3154 58.3494 25.6098 58.3494C29.8833 58.3494 32.9789 57.5156 34.8968 55.8479C36.8355 54.1802 37.8049 51.6369 37.8049 48.2181V22.7021Z" fill="#0033A0"/>
</g>
</g>
<defs>
<clipPath id="clip0_39_293">
<rect width="500" height="90.6817" fill="white"/>
</clipPath>
</defs>
</svg>
