<svg width="500" height="594" viewBox="0 0 500 594" fill="none" xmlns="http://www.w3.org/2000/svg">
<path fill-rule="evenodd" clip-rule="evenodd" d="M17.0479 179.304L19.17 420.178L73.2872 487.029L235.645 572.979L435.137 475.356L476.521 376.671L472.277 57.2681L321.596 53.0234L164.55 78.4905L21.2986 161.258L17.0479 179.304Z" fill="#301506"/>
<path d="M249.502 5.23623C154.933 5.23623 72.4415 23.5453 4.30664 59.6513V348.308C4.30664 409.046 27.1283 459.837 70.2928 495.22C110.371 528.096 234.318 582.274 249.507 588.854C263.911 582.585 389.327 527.57 428.769 495.22C471.909 459.856 494.737 409.05 494.737 348.308V59.6513C426.592 23.5405 344.101 5.23145 249.493 5.23145L249.502 5.23623ZM389.533 61.128C417.735 61.4968 445.426 63.2389 472.194 65.7265V348.306C472.194 402.609 452.489 446.474 414.47 477.79C380.505 505.76 278.085 551.648 249.507 564.245C220.545 551.477 117.869 505.011 84.5151 477.801C46.7208 447.021 26.8268 402.115 26.8268 348.317V183.201C135.437 83.5972 267.323 59.5361 389.524 61.1345L389.533 61.128ZM255.895 192.708C232.627 192.708 213.853 197.909 198.396 207.886V485.91H241.072V396.089C245.331 397.345 251.513 398.519 260.27 398.519C307.61 398.519 334.818 355.845 334.818 293.537C334.818 231.35 306.801 192.708 255.895 192.708ZM401.717 192.708C373.65 193.521 344.299 213.853 344.478 248.319C344.55 271.014 350.841 287.986 386.014 308.623C404.784 319.641 412.347 326.902 412.671 340.289C413.03 355.172 402.747 364.146 387.098 364.085C373.484 363.978 357.209 356.422 346.31 346.719V385.993C359.673 393.961 376.347 399.228 393.192 399.228C435.352 399.228 454.177 369.447 454.991 342.158C455.793 317.285 448.919 298.465 413.268 277.517C397.356 268.186 384.791 262.053 385.21 246.524C385.629 231.366 398.213 226.04 410.296 226.149C425.203 226.28 439.622 234.536 448.523 243.664V206.577C441.022 200.799 425.141 191.99 401.717 192.708ZM48.6196 197.026V331.133C48.6196 376.343 70.0057 399.231 112.213 399.231C138.33 399.231 160.204 393.187 176.499 382.108V197.027H133.916V357.827C129.274 361.009 122.389 363.042 113.727 363.042C94.1788 363.042 91.2578 345.116 91.2578 333.021V197.029L48.6196 197.026ZM256.183 227.066C280.935 227.066 291.195 246.828 291.195 294.623C291.195 341.257 279.461 363.787 254.912 363.787C249.133 363.787 244.111 362.356 241.06 361.208V230.154C244.517 228.432 250.392 227.066 256.183 227.066Z" fill="#FAB80A"/>
</svg>
