<svg width="500" height="133" viewBox="0 0 500 133" fill="none" xmlns="http://www.w3.org/2000/svg">
<g clip-path="url(#clip0_39_290)">
<path d="M92.616 12.2847C81.2584 20.8939 67.7815 39.7681 67.7815 64.7681C67.7815 102.185 98.1127 132.516 135.497 132.516H67.7815C30.3643 132.516 0.0332031 102.185 0.0332031 64.7681C0.0332031 27.384 28.1127 3.17871 58.8411 3.17871C71.1259 3.17871 82.6491 6.45686 92.5829 12.1522L92.616 12.2847Z" fill="#88898C"/>
<path d="M105.199 120.265C116.557 111.656 130.034 92.7815 130.034 67.7815C130.034 30.3643 99.7025 0.0332031 62.3184 0.0332031H130.034C167.451 0.0332031 197.749 30.3643 197.749 67.7815C197.749 105.166 169.702 129.371 138.974 129.371C126.689 129.371 115.166 126.093 105.232 120.397L105.199 120.265Z" fill="#0068B2"/>
<path d="M281.258 3.80762L273.543 40.1983C269.967 56.2248 255.828 62.5162 241.324 62.5162C226.821 62.5162 215.364 56.2248 218.576 40.1983L226.324 3.80762H242.252L234.702 39.4036C233.377 46.7546 236.225 51.3573 243.708 51.3573C251.192 51.3573 255.993 46.7546 257.781 39.4036L265.331 3.80762H281.258Z" fill="#231F20"/>
<path d="M298.046 25.7288C302.318 21.7222 306.622 20.1328 311.722 20.1328C320.331 20.1328 325.497 25.7288 323.642 34.5699L317.947 61.3249H302.814L307.814 37.8149C308.477 33.9076 308.411 29.7023 303.709 29.7023C296.225 29.7023 295.43 37.8812 295.331 38.3778L290.464 61.3249H275.331L281.656 31.6229C282.417 28.0136 282.848 25.6295 283.344 21.3249H298.742L298.046 25.7288Z" fill="#231F20"/>
<path d="M324.471 61.3242L332.981 21.3242H348.113L339.603 61.3242H324.471ZM334.338 14.503L336.623 3.80762H351.921L349.636 14.503H334.338Z" fill="#231F20"/>
<path d="M358.908 21.3242L360.199 15.2977L376.557 9.53613L374.04 21.3242H382.815L380.795 30.8938H372.02L368.643 46.7547C368.444 47.7812 366.689 52.9467 370.199 52.9467C372.186 52.9467 374.272 52.9467 376.06 52.7149L374.173 61.7216C370.596 62.3507 368.113 62.5163 365.861 62.5163C355.596 62.5163 349.702 61.0593 353.08 48.8077L356.888 30.8938H349.073L351.126 21.3242H358.908Z" fill="#231F20"/>
<path fill-rule="evenodd" clip-rule="evenodd" d="M393.278 44.3381C392.119 49.5368 392.517 53.9739 398.179 53.9739C402.384 53.9739 405.431 51.9871 406.788 48.2454H420.795C419.239 53.4441 415.166 57.1527 410.861 59.4043C406.888 61.6229 402.252 62.5169 397.55 62.5169C381.556 62.5169 376.623 55.6626 379.967 39.9673C382.649 27.3182 393.643 20.1328 405.662 20.1328C421.921 20.1328 425.133 29.4706 421.954 44.3381H393.278ZM409.338 36.2255C409.802 34.0732 409.603 31.9209 408.775 30.2653C407.947 28.5765 406.391 27.55 404.073 27.7156C398.742 27.9474 396.689 31.6891 395.331 36.2255H409.338Z" fill="#231F20"/>
<path fill-rule="evenodd" clip-rule="evenodd" d="M453.212 55.4301H452.881C449.801 60.2646 443.742 62.5162 438.079 62.5162C426.689 62.5162 423.709 51.4235 425.828 41.4897C428.079 30.8937 435.695 20.1321 447.55 20.1321C452.583 20.1321 457.219 21.8871 459.305 26.0262H459.437L464.172 3.80762H479.305L467.086 61.3242H452.351L453.212 55.4301ZM441.391 41.3242C440.265 46.5891 439.934 53.7414 446.159 53.7414C452.384 53.7414 455.099 46.5891 456.192 41.3242C457.351 35.993 458.046 28.907 451.424 28.907C444.834 28.907 442.517 35.993 441.391 41.3242Z" fill="#231F20"/>
<path fill-rule="evenodd" clip-rule="evenodd" d="M229.47 129.569H213.543L225.761 72.0859H252.351C262.086 72.0859 274.106 74.7018 271.523 86.8873C269.702 95.4965 262.119 100.033 253.874 100.993L253.808 101.291C263.94 101.556 264.768 106.722 263.907 115.629C263.278 120.43 263.179 124.967 263.576 129.569H246.291C246.258 125.596 246.656 121.457 247.119 117.384C247.947 110.463 248.245 107.583 240.132 107.583H234.139L229.47 129.569ZM242.715 96.4568C247.814 96.4568 252.914 95.7283 254.172 89.8343C255.43 83.9402 250.629 83.2449 245.53 83.2449H239.338L236.523 96.4568H242.715Z" fill="#231F20"/>
<path fill-rule="evenodd" clip-rule="evenodd" d="M282.219 112.615C281.027 117.781 281.457 122.251 287.086 122.251C291.325 122.251 294.371 120.264 295.729 116.523H309.735C308.179 121.688 304.106 125.43 299.802 127.649C295.828 129.9 291.192 130.761 286.49 130.761C270.497 130.761 265.563 123.907 268.908 108.245C271.59 95.5625 282.583 88.4102 294.603 88.4102C310.861 88.4102 314.04 97.7148 310.894 112.615H282.219ZM298.278 104.503C298.742 102.351 298.543 100.198 297.715 98.5095C296.888 96.8539 295.331 95.7943 293.014 95.9598C287.682 96.1916 285.629 99.9333 284.272 104.503H298.278Z" fill="#231F20"/>
<path d="M334.039 93.9731C338.311 89.9996 342.616 88.4102 347.715 88.4102C356.324 88.4102 361.523 93.9731 359.635 102.814L353.94 129.569H338.808L343.808 106.092C344.47 102.185 344.404 97.9466 339.702 97.9466C332.251 97.9466 331.457 106.159 331.357 106.622L326.49 129.569H311.324L317.649 99.8671C318.41 96.291 318.841 93.9068 319.371 89.6022H334.735L334.039 93.9731Z" fill="#231F20"/>
<path d="M372.318 89.6025L373.609 83.5429L389.967 77.8145L387.45 89.6025H396.225L394.172 99.139H385.43L382.053 115C381.821 116.026 380.099 121.225 383.609 121.225C385.596 121.225 387.649 121.225 389.47 120.96L387.55 129.967C384.007 130.596 381.49 130.761 379.272 130.761C369.007 130.761 363.079 129.338 366.49 117.086L370.298 99.139H362.483L364.503 89.6025H372.318Z" fill="#231F20"/>
<path fill-rule="evenodd" clip-rule="evenodd" d="M416.556 129.569C416.49 128.311 416.755 127.019 417.384 124.139H417.218C414.768 127.019 410.563 130.761 403.079 130.761C393.576 130.761 389.735 125.662 391.655 117.483C393.874 107.748 403.642 103.774 416.689 103.774H421.457C422.218 100.264 424.106 95.1651 417.98 95.3969C414.304 95.5625 412.351 99.1386 411.92 101.556H397.649C398.775 95.8936 402.417 92.6155 406.854 90.7943C411.424 88.8737 416.689 88.4102 421.159 88.4102C429.271 88.4102 438.344 91.8208 436.258 100.827L431.92 121.357C431.556 123.046 431.49 124.801 431.026 129.569H416.556ZM410.496 122.019C417.02 122.019 418.907 115.86 420.033 110.529C416.854 110.529 413.841 110.364 411.556 111.423C409.106 112.516 407.053 113.973 406.457 116.755C405.828 119.602 407.649 122.019 410.496 122.019Z" fill="#231F20"/>
<mask id="mask0_39_290" style="mask-type:luminance" maskUnits="userSpaceOnUse" x="0" y="0" width="500" height="133">
<path d="M0.0458984 0.0458984H499.87V132.5H0.0458984V0.0458984Z" fill="white"/>
</mask>
<g mask="url(#mask0_39_290)">
<path d="M436.522 129.569L448.741 72.0859H463.873L451.655 129.569H436.522Z" fill="#231F20"/>
</g>
<mask id="mask1_39_290" style="mask-type:luminance" maskUnits="userSpaceOnUse" x="0" y="0" width="500" height="133">
<path d="M0.0458984 0.0458984H499.87V132.5H0.0458984V0.0458984Z" fill="white"/>
</mask>
<g mask="url(#mask1_39_290)">
<path d="M485.298 101.953C485.596 100.596 485.596 99.4035 485.066 98.6088C484.437 97.7148 483.311 97.1519 481.225 97.1519C479.006 97.1519 477.384 98.4433 476.887 100.761C476.258 103.675 482.417 103.543 491.258 106.49C495.728 107.98 498.377 110.927 496.986 117.483C494.735 128.046 484.205 130.761 475.033 130.761C465.231 130.761 456.126 128.774 458.775 116.589H473.112C472.616 117.781 472.748 119.139 473.377 120.165C474.039 121.225 475.132 122.019 476.589 122.019C479.536 122.019 481.92 120.894 482.45 118.344C483.973 111.258 459.404 115.463 462.483 100.993C464.602 91.1254 475.695 88.4102 483.642 88.4102C493.112 88.4102 501.357 90.8605 499.635 101.953H485.298Z" fill="#231F20"/>
</g>
</g>
<defs>
<clipPath id="clip0_39_290">
<rect width="500" height="132.781" fill="white"/>
</clipPath>
</defs>
</svg>
