<svg width="500" height="500" viewBox="0 0 500 500" fill="none" xmlns="http://www.w3.org/2000/svg">
<path d="M346.856 227.991C347.163 227.991 347.163 228.298 347.163 228.604V240.184C347.163 240.491 346.856 240.798 346.55 240.798C345.016 240.184 341.335 238.957 336.197 239.264C333.129 239.264 330.062 239.877 327.301 240.798C326.994 240.798 326.994 241.104 326.994 241.411V284.202C326.994 284.509 326.688 284.816 326.381 284.816H314.188C313.881 284.816 313.574 284.509 313.574 284.202V232.899C313.574 232.592 313.574 232.592 313.881 232.285C315.415 231.365 324.004 226.764 335.89 226.764C341.335 226.764 345.629 227.684 346.856 227.991ZM304.372 252.454V258.589C304.372 258.896 304.065 259.202 303.758 259.202H265.568C265.261 259.202 264.954 259.509 264.954 259.816C265.568 264.11 267.408 267.791 270.783 270.475C274.157 272.929 278.145 274.463 282.669 274.463C291.872 274.463 298.85 270.782 300.997 269.248C301.304 268.942 301.918 269.248 301.918 269.862V280.215C301.918 280.521 301.918 280.521 301.611 280.521C300.384 281.442 293.635 285.736 281.749 285.736C272.853 285.736 265.568 282.975 260.046 277.761C254.525 272.546 251.764 265.261 251.764 256.365C251.764 247.469 254.525 240.184 259.74 234.356C264.648 228.834 271.626 226.074 279.295 226.074C295.169 226.15 304.372 235.966 304.372 252.454ZM291.181 250.613C291.488 250.613 291.795 250.307 291.795 250C291.181 241.718 286.887 237.5 279.295 237.5C272.546 237.5 267.408 242.101 265.568 249.693C265.568 250 265.875 250.307 266.181 250.307L291.181 250.613ZM414.341 256.442C411.273 253.681 406.979 251.534 400.307 250.307C393.866 248.466 391.718 246.626 391.718 243.252C391.718 239.571 394.786 237.117 400 237.117C407.056 236.81 413.114 240.798 415.261 242.331C415.568 242.638 416.181 242.331 416.181 242.024V231.058C416.181 230.751 416.181 230.751 415.875 230.751C414.648 229.831 408.513 226.457 399.694 226.457C398.16 226.457 396.319 226.457 394.786 226.764C385.89 227.684 379.525 235.046 379.218 243.558C379.218 253.374 383.82 258.512 396.013 261.273C403.068 263.113 406.366 264.647 406.366 269.248C406.366 274.156 401.458 275.383 397.47 275.383C389.801 275.383 383.129 271.089 380.982 269.248C380.675 268.942 380.062 269.248 380.062 269.555V280.828C380.062 281.135 380.062 281.135 380.369 281.135C381.596 282.055 387.424 285.736 397.777 285.736C404.218 285.736 409.356 284.202 413.037 281.442C417.025 278.374 419.172 273.773 419.172 268.328C418.942 263.19 417.408 259.509 414.341 256.442ZM362.731 219.172C367.332 219.172 371.013 215.184 371.013 210.89C371.013 206.288 367.332 202.607 362.731 202.607C358.129 202.607 354.448 206.288 354.448 210.89C354.448 215.184 358.129 219.172 362.731 219.172ZM356.596 284.586H368.866C369.172 284.586 369.479 284.279 369.479 283.972V228.067C369.479 227.761 369.172 227.454 368.866 227.454H356.596C356.289 227.454 355.982 227.761 355.982 228.067V283.972C355.982 284.279 356.289 284.586 356.596 284.586ZM452.531 253.067L476.381 228.298C476.688 227.991 476.381 227.377 476.074 227.377H461.427C461.427 227.377 461.12 227.377 461.12 227.684L441.565 248.773C441.258 249.08 440.645 248.773 440.645 248.466V208.742C440.645 208.436 440.338 208.129 440.031 208.129H427.838C427.531 208.129 427.224 208.436 427.224 208.742V283.896C427.224 284.202 427.531 284.509 427.838 284.509H440.031C440.338 284.509 440.645 284.202 440.645 283.896V259.432C440.645 258.819 441.258 258.819 441.565 259.126L462.04 284.509L462.347 284.816H476.688C477.301 284.816 477.301 284.202 476.994 283.896L452.531 253.911C452.224 253.681 452.224 253.374 452.531 253.067ZM245.092 208.742L218.789 268.328C218.482 268.635 217.869 268.635 217.869 268.328L191.565 208.436H191.258H177.838C177.531 208.436 177.224 208.742 177.224 209.356L207.746 279.064C211.734 288.267 224.847 288.267 228.835 279.064L259.356 209.356C259.663 209.049 259.356 208.436 258.743 208.436H245.399C245.399 208.436 245.399 208.436 245.092 208.742ZM27.1477 210.89C28.068 209.356 29.9084 208.436 31.7489 208.436H53.4514C54.3716 208.436 54.6784 209.356 54.3716 209.969L48.5434 223.159C48.2367 223.466 47.9299 223.773 47.6232 223.773H22.6232C21.7029 223.773 21.3962 222.853 21.7029 222.239C23.2367 217.945 25.0005 214.264 27.1477 210.89ZM46.3962 193.175C45.4759 193.175 44.8624 191.641 45.7827 191.028C57.3624 182.745 71.7796 177.914 87.3471 177.914C102.915 177.914 117.025 182.822 128.605 191.334C129.525 191.948 128.912 193.175 127.991 193.175H46.3962ZM65.3379 300.46C65.6446 300.153 65.9514 299.847 66.2581 299.847L127.685 300.153C128.605 300.153 129.218 301.38 128.298 301.994C116.718 310.276 102.301 315.107 87.0403 315.107C78.1446 315.107 69.9391 313.574 62.2704 310.506C61.6569 310.199 61.3502 309.586 61.6569 308.972L65.3379 300.46ZM73.0066 283.052L78.8348 269.939C79.1416 269.632 79.4483 269.325 79.7551 269.325L151.534 269.632C152.454 269.632 152.761 270.552 152.454 271.166C150.921 275.153 149.08 278.834 146.933 282.439C146.013 283.972 144.172 284.893 142.332 284.893L74.1569 284.586C73.3133 284.586 72.6998 283.666 73.0066 283.052ZM156.749 239.954C157.056 242.101 157.056 244.248 157.056 246.702C157.056 248.85 157.056 251.304 156.749 253.451C156.749 254.064 156.135 254.371 155.522 254.371L87.3471 254.064C86.4268 254.064 86.1201 253.144 86.4268 252.531L90.1078 243.942C91.6416 240.874 94.7091 238.727 98.0833 238.727H155.522C156.135 239.034 156.749 239.647 156.749 239.954Z" fill="#00358E"/>
<path d="M152.454 222.239C150.921 218.251 149.08 214.57 146.933 210.966C146.013 209.432 144.172 208.512 142.332 208.512H77.2243C73.85 208.512 71.0893 210.353 69.5555 213.42L47.8531 262.653C47.8531 262.96 47.5463 262.96 47.2396 262.96C46.9329 262.96 46.9329 262.96 46.6261 262.653L38.3439 243.712C37.1169 240.644 34.0494 238.804 30.6752 238.804H18.6353C18.0218 238.804 17.7151 239.11 17.4083 239.724C17.1016 242.178 17.1016 244.325 17.1016 246.779C17.1016 248.926 17.1016 251.074 17.4083 253.528C17.4083 254.141 18.0218 254.448 18.6353 254.448H25.077C25.3838 254.448 25.9973 254.755 25.9973 255.061C27.8378 259.049 36.6568 279.524 42.485 292.638C43.4052 294.785 45.5525 296.012 47.393 296.012C49.5402 296.012 51.3807 294.785 52.3009 292.638L80.4451 228.758C81.6721 225.69 84.7396 223.85 88.1138 223.85H151.687C152.148 223.773 152.761 222.853 152.454 222.239Z" fill="#2A7DE1"/>
</svg>
