<svg width="500" height="119" viewBox="0 0 500 119" fill="none" xmlns="http://www.w3.org/2000/svg">
<path d="M374.718 5.16162L372.462 19.0666H377.32L371.249 56.2944H366.316L363.931 70.9704H415.882L419.619 47.9837H402.894L401.605 56.2944H388.646L390.572 44.5523H404.848L407.406 28.7221H393.105L394.637 19.0666H406.852L405.784 25.7636H422.038L425.367 5.16162" fill="black"/>
<path d="M280.385 5.16162L278.16 19.0666H283.003L279.954 37.8553L262.938 5.16162H240.953L238.739 19.0666H243.613L237.548 56.2944H232.698L230.351 70.9704H257.85L260.2 56.2944H255.327L258.87 34.1124L277.47 70.9704H292.155L300.563 19.0666H305.444L307.689 5.16162" fill="black"/>
<path d="M153.683 5.16162L151.452 19.0666H156.333L137.349 56.2944H132.533L130.125 70.9704H157.597L160.01 56.2944H155.086L157.53 50.8615H174.541L175.227 56.2944H170.366L168 70.9704L196.243 70.9592L198.627 56.2944H193.73L185.063 5.16162H153.683ZM171.55 21.5186L172.917 37.0059H164.88" fill="black"/>
<path d="M112.214 32.3373C109.049 35.2465 104.123 34.1124 99.8253 34.3052L102.164 19.8959C107.043 20.008 113.747 18.5242 115.554 24.0961C115.978 27.2697 114.864 30.2708 112.214 32.3373ZM116.573 44.5142C119.827 43.7455 122.644 41.7709 125.296 39.4534C131.287 33.9667 134.616 25.9832 132.214 17.7487C129.913 10.0297 121.793 5.68835 114.261 5.17285H81.6528L79.439 19.0711H84.2887L78.2618 56.3012H73.3517L70.9883 70.9749H97.5914L99.9951 56.3012H96.2891L97.6942 47.5221L110.762 70.9749H127.132L129.534 56.3012H123.417" fill="black"/>
<path d="M227.441 70.9436L229.794 56.2788H224.922L230.991 19.051H235.843L238.057 5.146H209.838L207.587 19.051H212.436L206.434 56.2788H201.54L199.181 70.9705" fill="black"/>
<path d="M460.039 32.3217C456.876 35.2353 451.955 34.1013 447.648 34.294L449.991 19.878C454.87 19.9968 461.578 18.5131 463.383 24.0849C463.803 27.2586 462.686 30.2597 460.039 32.3217ZM464.398 44.5053C467.657 43.7298 470.471 41.762 473.121 39.4423C479.114 33.9511 482.443 25.9676 480.041 17.7376C477.736 10.0141 469.62 5.67721 462.088 5.15723H429.473L427.266 19.0622H432.118L426.087 56.29H421.174L418.815 70.9638H445.419L447.82 56.29H444.116L445.521 47.5064L458.592 70.9638H474.959L477.361 56.29H471.238" fill="black"/>
<path d="M102.77 85.644L98.0293 114.976H467.813L472.578 85.644H102.77Z" fill="#ED1B2D"/>
<path d="M35.0233 85.644H28.4512L23.7109 114.976H30.283L35.0233 85.644Z" fill="#ED1B2D"/>
<path d="M56.3098 85.644H47.0571L42.3213 114.976H51.574L56.3098 85.644Z" fill="#ED1B2D"/>
<path d="M13.732 85.644H9.84058L5.10254 114.976H8.99394L13.732 85.644Z" fill="#ED1B2D"/>
<path d="M98.8937 85.644H84.282L79.5439 114.976H94.1579L98.8937 85.644Z" fill="#ED1B2D"/>
<path d="M77.6008 85.644H65.6674L60.9316 114.976H72.8627L77.6008 85.644Z" fill="#ED1B2D"/>
<path d="M494.474 63.8097C494.452 67.5011 491.574 70.4327 487.831 70.4327C484.196 70.4327 481.216 67.5213 481.216 63.794C481.216 60.1407 484.116 57.1508 487.875 57.1508C491.655 57.1508 494.49 60.1631 494.474 63.8097ZM495.129 63.8321C495.144 59.8359 492.039 56.4941 487.831 56.4941C483.912 56.4941 480.562 59.5871 480.562 63.794C480.562 68.1197 484.035 71.0872 487.815 71.0872C491.939 71.0872 495.106 67.8709 495.129 63.8321ZM484.909 59.1994V68.317H486.24V64.0787H486.892C488.201 64.1011 488.936 64.2625 489.198 65.6184C489.242 65.8426 489.385 66.8646 489.43 67.0708C489.51 67.5011 489.591 67.909 489.794 68.317H491.327C490.913 67.5011 490.86 67.0103 490.652 65.6767C490.469 64.574 490.163 64.0361 489.182 63.6708C490.303 63.487 491.226 62.7451 491.226 61.4765C491.226 60.6159 490.752 59.7709 489.837 59.4056C489.285 59.1994 488.769 59.1994 487.714 59.1994H484.909ZM486.26 60.2281H487.509C488.608 60.2281 489.059 60.2281 489.446 60.571C489.714 60.7974 489.879 61.1695 489.879 61.5774C489.879 63.0365 488.362 63.0141 487.795 63.0141H486.26" fill="black"/>
<path d="M62.0664 5.08095H75.6215L72.025 27.4199H56.6113C55.7557 23.8159 52.0721 20.4226 48.4756 19.6471C41.8767 18.1903 35.1193 20.5033 30.924 25.8219C26.3044 32.2723 24.247 43.1157 28.6098 50.1578C31.6121 54.8802 37.3866 56.6284 42.7836 55.7745C46.9811 55.0035 51.2143 51.2717 53.0125 47.3181L35.8341 47.3069L37.9831 33.9398H74.1717L68.1693 70.9861H54.2233L55.0789 66.7949C53.4347 68.9891 49.0184 72.7186 38.1238 72.7186C24.3699 72.7186 9.33594 61.046 9.33594 40.453C9.33594 23.4999 22.1181 2.92932 44.8031 3.01C50.5843 3.03242 57.067 4.48926 61.251 8.50117" fill="black"/>
<path d="M354.965 5.08095H368.52L364.921 27.4199H349.508C348.654 23.8159 344.973 20.4226 341.374 19.6471C334.775 18.1903 328.02 20.5033 323.825 25.8219C319.203 32.2723 317.145 43.1157 321.508 50.1578C324.508 54.8802 330.283 56.6284 335.68 55.7745C339.882 55.0035 344.11 51.2717 345.911 47.3181L328.733 47.3069L330.882 33.9398H367.07L361.066 70.9861H347.122L347.975 66.7949C346.333 68.9891 341.919 72.7186 331.022 72.7186C317.266 72.7186 302.234 61.046 302.234 40.453C302.234 23.4999 315.019 2.92932 337.702 3.01C343.483 3.03242 349.965 4.48926 354.149 8.50117" fill="black"/>
</svg>
