<svg width="500" height="175" viewBox="0 0 500 175" fill="none" xmlns="http://www.w3.org/2000/svg">
<g clip-path="url(#clip0_39_287)">
<path d="M31.3506 154.183H39.4918L42.1499 166.5H42.2396L45.982 154.183H55.3684L59.0602 166.5H59.1383L61.7689 154.183H69.3364L64.5984 173.924H53.9945L50.4083 161.919H50.3302L46.7165 173.924H36.0229L31.3506 154.183Z" fill="#006236"/>
<path d="M78.578 154.183H89.0762L99.2858 173.924H89.9936L88.5265 170.637H78.1846L76.6428 173.924H68.3809L78.578 154.183ZM86.5594 166.317L83.4492 159.432L80.2139 166.317H86.5594Z" fill="#006236"/>
<path d="M108.552 167.573C108.579 168.674 108.79 169.459 109.313 169.997C109.878 170.505 110.62 170.782 111.733 170.782C113.473 170.782 115.359 170.376 115.359 168.779C115.359 168.44 115.23 168.124 115.007 167.878C113.868 166.634 104.298 165.692 101.616 163.374C100.544 162.441 100.203 161.045 100.203 159.932C100.203 155.612 104.235 153.672 112.232 153.672C120.74 153.672 123.32 155.99 123.421 160.061H115.179C115.124 158.975 114.757 158.281 114.144 157.875C113.554 157.469 112.743 157.336 111.67 157.336C109.918 157.336 108.973 157.992 108.973 158.987C108.973 159.302 109.078 159.682 109.312 159.9C110.619 161.134 119.888 161.996 122.546 164.354C123.319 165.037 124.131 166.11 124.131 168.018C124.131 171.932 120.622 174.435 111.513 174.435C100.643 174.435 100.12 171.238 99.9521 167.573H108.552Z" fill="#006236"/>
<path d="M132.823 158.987H126.251V154.183H147.826V158.987H141.253V173.924H132.823V158.987Z" fill="#006236"/>
<path d="M150.818 154.183H169.997V158.332H158.976V161.972H169.317V166.134H158.976V169.775H170.114V173.924H150.818V154.183Z" fill="#006236"/>
<path d="M185.495 154.183H198.272L202.46 167.417H202.515L206.574 154.183H219.398V173.924H211.573V159.081H211.523L206.035 173.924H197.894L192.722 159.081H192.644V173.924H185.495V154.183Z" fill="#006236"/>
<path d="M231.427 154.183H241.941L252.128 173.924H242.847L241.391 170.637H231.049L229.492 173.924H221.233L231.427 154.183ZM239.4 166.317L236.313 159.432L233.066 166.317H239.4Z" fill="#006236"/>
<path d="M253.919 154.183H266.251L272.992 167.417H273.07V154.183H280.371V173.924H268.438L261.287 159.877H261.236V173.924H253.919V154.183Z" fill="#006236"/>
<path d="M292.365 154.183H302.863L313.073 173.924H303.776L302.313 170.637H291.971L290.43 173.924H282.156L292.365 154.183ZM300.346 166.317L297.231 159.432L293.984 166.317H300.346Z" fill="#006236"/>
<path d="M330.284 160.19C330.167 159.683 329.839 159.081 329.227 158.62C328.622 158.152 327.709 157.82 326.386 157.82C322.772 157.82 320.77 160.19 320.77 163.753C320.77 167.546 322.55 170.298 326.737 170.298C328.572 170.298 329.895 170.009 330.655 169.604V166.606H325.769V162.442H339.07V172.863C335.145 173.753 329.934 174.436 325.519 174.436C315.455 174.436 312.353 170.127 312.353 164.304C312.353 156.893 317.64 153.673 326.465 153.673C333.728 153.673 338.939 155.218 339.07 160.191L330.284 160.19Z" fill="#006236"/>
<path d="M343.624 154.183H362.798V158.332H351.765V161.972H362.107V166.134H351.765V169.775H362.919V173.924H343.624V154.183Z" fill="#006236"/>
<path d="M366.662 154.183H379.439L383.627 167.417H383.678L387.725 154.183H400.554V173.924H392.74V159.081H392.686L387.191 173.924H379.049L373.89 159.081H373.812V173.924H366.662V154.183Z" fill="#006236"/>
<path d="M405.253 154.183H424.431V158.332H413.393V161.972H423.737V166.134H413.393V169.775H424.544V173.924H405.253V154.183Z" fill="#006236"/>
<path d="M428.213 154.183H440.569L447.297 167.417H447.375V154.183H454.678V173.924H442.739L435.593 159.877H435.542V173.924H428.213V154.183Z" fill="#006236"/>
<path d="M463.396 158.987H456.824V154.183H478.403V158.987H471.83V173.924H463.396V158.987Z" fill="#006236"/>
<path d="M0 0.819336H54.7407L72.6075 83.6675H73.1696L98.3028 0.819336H161.439L186.19 83.6675H186.752L204.428 0.819336H255.27L223.431 133.436H152.119L128.097 52.8007H127.535L103.33 133.436H31.468L0 0.819336Z" fill="#006236"/>
<path d="M255.004 0.885742H326.87L351.071 81.5207H351.635L375.643 0.885742H446.954L478.804 133.502H427.974L410.276 50.669H409.729L384.962 133.502H321.843L296.713 50.669H296.147L278.279 133.502H223.535L255.004 0.885742Z" fill="#ECBD1E"/>
<path d="M484.421 125.58C484.421 121.787 487.328 118.918 491.044 118.918C494.737 118.918 497.644 121.787 497.644 125.58C497.644 129.456 494.737 132.297 491.044 132.297C487.328 132.297 484.421 129.456 484.421 125.58ZM491.044 133.632C495.482 133.632 499.264 130.24 499.264 125.58C499.264 120.974 495.482 117.599 491.044 117.599C486.584 117.599 482.798 120.974 482.798 125.58C482.798 130.24 486.584 133.632 491.044 133.632ZM489.342 126.235H490.966L493.441 130.24H495.024L492.364 126.157C493.741 125.989 494.787 125.267 494.787 123.621C494.787 121.787 493.691 120.975 491.49 120.975H487.919V130.241H489.343L489.342 126.235ZM489.342 125.034V122.165H491.267C492.25 122.165 493.323 122.387 493.323 123.528C493.323 124.956 492.223 125.034 491.016 125.034H489.342Z" fill="#006236"/>
</g>
<defs>
<clipPath id="clip0_39_287">
<rect width="500" height="174.956" fill="white"/>
</clipPath>
</defs>
</svg>
