<svg width="500" height="139" viewBox="0 0 500 139" fill="none" xmlns="http://www.w3.org/2000/svg">
<g clip-path="url(#clip0_39_286)">
<path d="M209.528 51.4883H218.074V59.0287H224.846V65.0721H218.06V79.6386C217.996 80.2102 218.058 80.7889 218.24 81.3344C218.422 81.8799 218.721 82.3792 219.116 82.7977C219.51 83.2162 219.991 83.5439 220.525 83.7579C221.059 83.972 221.633 84.0674 222.207 84.0374C223.012 84.0917 223.819 84.0066 224.595 83.786V89.0605C222.68 89.6452 220.689 89.9376 218.687 89.9276C211.649 89.9276 209.514 85.4045 209.514 79.7484V51.4883" fill="black"/>
<path d="M288.831 59.0173H280.285V89.0751H288.956V70.9682C288.956 67.3236 290.84 64.9364 294.36 64.9364C295.131 64.9153 295.896 65.0622 296.604 65.3669C297.312 65.6715 297.945 66.1267 298.46 66.7006C298.974 67.2746 299.357 67.9536 299.582 68.6906C299.808 69.4275 299.87 70.2047 299.765 70.9682V89.0751H308.435V68.9595C308.58 67.5143 308.403 66.055 307.919 64.6859C307.434 63.3167 306.653 62.0714 305.632 61.0389C304.61 60.0064 303.373 59.2122 302.01 58.7128C300.646 58.2135 299.188 58.0214 297.742 58.1502C296.033 57.9995 294.317 58.3462 292.8 59.1488C291.284 59.9513 290.032 61.1754 289.196 62.6734H289.071V59.0173H288.831Z" fill="black"/>
<path d="M277.395 58.1504C269.592 58.1504 267.719 62.5492 267.216 63.9307H267.1V59.0174H259.297V89.0752H267.967V74.1099C267.874 72.8651 268.058 71.615 268.504 70.4492C268.95 69.2834 269.648 68.2305 270.549 67.3659C271.449 66.5014 272.53 65.8464 273.713 65.4479C274.896 65.0495 276.152 64.9172 277.392 65.0608L277.395 58.1504Z" fill="black"/>
<path d="M199.601 67.448L205.13 63.6907C204.375 62.4335 201.485 58.0347 192.815 58.0347C186.404 58.0347 181.003 61.3034 181.003 67.2081C181.003 72.6127 184.898 75.2514 189.297 76.6329C190.555 77.0086 191.936 77.3873 193.055 77.763C195.442 78.5173 197.202 79.1445 197.202 80.9046C197.202 82.5376 195.442 83.6705 192.289 83.6705C190.982 83.7364 189.682 83.4431 188.53 82.8226C187.378 82.202 186.418 81.2778 185.754 80.1503L179.974 83.4191C180.477 84.8006 183.618 89.8295 192.919 89.8295C199.956 89.8295 205.864 86.8121 205.864 80.2919C205.864 74.763 201.968 72.2485 197.318 70.867C196.204 70.4743 195.072 70.1386 193.924 69.8613C191.789 69.2341 189.653 68.604 189.653 66.7196C189.653 65.211 191.034 64.3324 193.549 64.3324C194.748 64.2327 195.951 64.472 197.021 65.0228C198.091 65.5737 198.985 66.4139 199.601 67.448Z" fill="black"/>
<path d="M142.67 45.9595L134.754 76.6242L126.95 45.9595H116.141L108.098 77.5028L100.066 45.9595H90.8926L102.078 89.0664H113.514L121.317 58.5288L129.121 89.0664H139.93L151.115 45.9595H142.67Z" fill="black"/>
<path d="M178.236 73.9856C178.236 66.0695 173.586 58.1504 163.407 58.1504C154.233 58.1504 148.45 65.0637 148.45 73.9856C148.45 82.9076 154.106 89.8209 163.768 89.8209C166.26 90.0327 168.761 89.5175 170.966 88.3377C173.172 87.158 174.989 85.3642 176.196 83.1735L170.415 79.7805C169.829 80.9898 168.892 81.9947 167.726 82.6648C166.561 83.3348 165.221 83.6389 163.881 83.5377C162.98 83.5187 162.092 83.3208 161.269 82.9556C160.445 82.5904 159.703 82.065 159.084 81.4101C158.466 80.7553 157.983 79.9839 157.666 79.141C157.348 78.2981 157.201 77.4003 157.233 76.5001H178.473C178.236 76.6244 178.236 74.1099 178.236 73.9856ZM157.121 70.7169C157.496 67.3238 159.257 64.3065 163.404 64.3065C164.241 64.3019 165.071 64.4656 165.843 64.7878C166.616 65.1099 167.316 65.584 167.902 66.1819C168.488 66.7798 168.948 67.4893 169.255 68.2683C169.561 69.0473 169.708 69.8799 169.687 70.7169H157.121Z" fill="black"/>
<path d="M255.277 73.9856C255.277 66.0695 250.627 58.1504 240.448 58.1504C231.274 58.1504 225.491 65.0637 225.491 73.9856C225.491 82.9076 231.147 89.8209 240.809 89.8209C243.302 90.0327 245.802 89.5175 248.007 88.3377C250.213 87.158 252.03 85.3642 253.237 83.1735L247.457 79.7805C246.87 80.9898 245.933 81.9947 244.767 82.6648C243.602 83.3348 242.262 83.6389 240.922 83.5377C240.021 83.5187 239.133 83.3208 238.31 82.9556C237.486 82.5904 236.744 82.065 236.125 81.4101C235.507 80.7553 235.025 79.9839 234.707 79.141C234.389 78.2981 234.242 77.4003 234.274 76.5001H255.514C255.277 76.6244 255.277 74.1099 255.277 73.9856ZM234.162 70.7169C234.537 67.3238 236.298 64.3065 240.445 64.3065C241.282 64.3019 242.112 64.4656 242.884 64.7878C243.657 65.1099 244.357 65.584 244.943 66.1819C245.529 66.7798 245.989 67.4893 246.296 68.2683C246.603 69.0473 246.75 69.8799 246.728 70.7169H234.162Z" fill="black"/>
<path d="M428.456 51.4883H437.002V59.0287H443.774V65.0721H436.988V79.6386C436.924 80.2102 436.985 80.7889 437.168 81.3344C437.35 81.8799 437.649 82.3792 438.044 82.7977C438.438 83.2162 438.919 83.5439 439.453 83.7579C439.987 83.972 440.561 84.0674 441.135 84.0374C441.939 84.0917 442.747 84.0066 443.522 83.786V89.0605C441.608 89.6452 439.616 89.9375 437.615 89.9276C430.577 89.9276 428.441 85.4045 428.441 79.7484V51.4883" fill="black"/>
<path d="M339.604 45.9595H324.898V89.0664H339.604C353.303 89.0664 361.471 82.5317 361.471 67.4508C361.344 52.4942 352.933 45.9595 339.604 45.9595ZM338.976 81.9017H334.063V53.1242H338.976C350.161 53.1242 351.794 60.6647 351.794 67.5751C351.919 74.3612 350.286 81.9017 338.974 81.9017H338.976Z" fill="black"/>
<path d="M487.396 45.9595H478.474V89.0664H487.396V45.9595Z" fill="black"/>
<path d="M495.817 82.5317C495.097 82.5317 494.392 82.7455 493.793 83.1459C493.193 83.5464 492.726 84.1156 492.45 84.7815C492.174 85.4475 492.102 86.1803 492.243 86.8872C492.384 87.5942 492.731 88.2436 493.24 88.7533C493.75 89.263 494.399 89.6101 495.106 89.7507C495.813 89.8913 496.546 89.8192 497.212 89.5433C497.878 89.2675 498.447 88.8004 498.848 88.201C499.248 87.6017 499.462 86.897 499.462 86.1762C499.461 85.2099 499.077 84.2833 498.394 83.6C497.71 82.9167 496.784 82.5325 495.817 82.5317ZM495.817 89.3179C495.22 89.3207 494.636 89.1465 494.138 88.8172C493.64 88.4879 493.251 88.0183 493.021 87.4679C492.79 86.9175 492.727 86.3109 492.841 85.725C492.955 85.1391 493.24 84.6001 493.66 84.1762C494.08 83.7523 494.617 83.4626 495.202 83.3437C495.787 83.2248 496.394 83.282 496.946 83.5082C497.499 83.7344 497.972 84.1193 498.305 84.6143C498.639 85.1093 498.818 85.6921 498.82 86.289C498.813 87.0855 498.495 87.8477 497.934 88.4134C497.373 88.9791 496.614 89.3036 495.817 89.3179Z" fill="black"/>
<path d="M497.199 87.0547C497.211 86.8597 497.156 86.6663 497.041 86.508C496.927 86.3497 496.761 86.2364 496.571 86.1876C496.795 86.1351 496.993 86.0055 497.131 85.8217C497.269 85.6378 497.338 85.4113 497.326 85.1818C497.326 84.3148 496.699 84.0518 495.817 84.0518H494.433V88.3234H495.187V86.5518H495.69C496.193 86.5518 496.444 86.8032 496.557 87.5576C496.578 87.8122 496.62 88.0645 496.684 88.3119H497.438C497.323 88.309 497.199 87.5575 497.199 87.0547ZM495.817 85.9246H495.19V84.6674H495.817C495.999 84.6543 496.18 84.7123 496.32 84.8292C496.461 84.9461 496.551 85.1128 496.571 85.2945C496.569 85.6703 496.317 85.9217 495.814 85.9217L495.817 85.9246Z" fill="black"/>
<path d="M399.676 59.017V62.2858H399.552C398.7 60.9136 397.488 59.8014 396.048 59.0701C394.607 58.3388 392.994 58.0166 391.384 58.1384C382.21 58.1384 378.817 65.6789 378.817 73.3436C378.817 81.0084 382.21 88.4246 391.384 88.4246C393 88.5893 394.629 88.2859 396.077 87.5506C397.525 86.8152 398.731 85.6789 399.552 84.2772H399.676V87.7974C399.728 88.6639 399.6 89.5318 399.299 90.3461C398.999 91.1605 398.533 91.9036 397.93 92.5285C397.327 93.1533 396.602 93.6463 395.799 93.9761C394.996 94.306 394.133 94.4656 393.265 94.4448C391.952 94.4672 390.655 94.1419 389.508 93.5019C388.36 92.8619 387.402 91.9298 386.731 90.8003C385.976 91.176 380.95 94.1934 380.95 94.1934C381.578 95.4506 384.092 100.841 393.517 100.841C403.445 100.841 408.222 94.5575 408.222 85.6326V59.017H399.676ZM393.895 82.0142C388.982 82.0142 388.115 77.2396 388.115 73.3436C388.115 68.9448 389.372 64.6731 393.895 64.6731C398.419 64.6731 399.676 68.9448 399.676 73.3436C399.676 77.1269 398.67 82.0286 393.895 82.0286V82.0142Z" fill="black"/>
<path d="M458.239 58.1501C455.99 58.0006 453.737 58.4033 451.679 59.3231C449.62 60.2429 447.817 61.6519 446.427 63.4275L451.453 67.1848C452.157 66.2184 453.085 65.4385 454.159 64.9126C455.232 64.3868 456.418 64.131 457.612 64.1674C461.508 64.1674 463.896 66.0518 463.896 69.3206V69.9478H460.138C451.341 69.9478 445.688 73.2165 445.688 80.0027C445.811 82.085 446.564 84.0808 447.846 85.7257C449.129 87.3706 450.882 88.587 452.871 89.2138C454.861 89.8405 456.994 89.8481 458.988 89.2354C460.982 88.6227 462.743 87.4188 464.037 85.783H464.161V88.8148H472.581V70.0894C472.566 61.4188 465.656 58.1501 458.239 58.1501ZM463.896 77.127C463.896 80.6472 462.387 83.7743 458.618 83.7743C458.059 83.8304 457.494 83.7679 456.96 83.5909C456.426 83.4139 455.936 83.1263 455.521 82.7469C455.106 82.3676 454.775 81.905 454.551 81.3893C454.327 80.8736 454.214 80.3164 454.219 79.7541C454.219 77.2397 455.979 75.3553 460.502 75.3553H463.896V77.127Z" fill="black"/>
<path d="M374.791 59.0288H365.869V89.0664H374.791V59.0288Z" fill="black"/>
<path d="M370.393 54.7542C373.03 54.7542 375.167 52.6166 375.167 49.9796C375.167 47.3427 373.03 45.2051 370.393 45.2051C367.756 45.2051 365.618 47.3427 365.618 49.9796C365.618 52.6166 367.756 54.7542 370.393 54.7542Z" fill="black"/>
<path d="M422.924 59.0288H414.002V89.0664H422.924V59.0288Z" fill="black"/>
<path d="M418.526 54.7542C421.162 54.7542 423.3 52.6166 423.3 49.9796C423.3 47.3427 421.162 45.2051 418.526 45.2051C415.889 45.2051 413.751 47.3427 413.751 49.9796C413.751 52.6166 415.889 54.7542 418.526 54.7542Z" fill="black"/>
<path d="M57.2109 45.9595H67.2658C68.428 45.9738 69.5386 46.4418 70.3605 47.2637C71.1824 48.0855 71.6504 49.1961 71.6646 50.3584V60.4104C71.6636 61.269 71.41 62.1083 70.9354 62.8238C70.4609 63.5393 69.7863 64.0994 68.9957 64.4343C68.2051 64.7692 67.3335 64.8641 66.4894 64.7072C65.6452 64.5504 64.8659 64.1486 64.2484 63.552L54.1935 53.4971C53.5568 52.896 53.1156 52.1172 52.9273 51.262C52.739 50.4068 52.8123 49.5147 53.1378 48.7018C53.4632 47.8888 54.0257 47.1925 54.7521 46.7035C55.4785 46.2144 56.3352 45.9552 57.2109 45.9595Z" fill="#5DA7FB"/>
<path d="M35.0923 70.2138H27.9304C26.9221 70.2203 25.9224 70.0265 24.9896 69.6437C24.0567 69.2608 23.2091 68.6964 22.4961 67.9834C21.783 67.2704 21.2187 66.4228 20.8358 65.4899C20.4529 64.5571 20.2592 63.5574 20.2657 62.5491V50.3583C20.2514 49.1956 19.783 48.0846 18.9605 47.2626C18.138 46.4407 17.0267 45.973 15.8639 45.9595H5.81192C4.95334 45.9605 4.11402 46.2141 3.39851 46.6887C2.683 47.1632 2.12292 47.8378 1.78801 48.6284C1.45311 49.419 1.35819 50.2906 1.51508 51.1347C1.67196 51.9789 2.07371 52.7582 2.6703 53.3757L6.57493 57.2716L11.8524 62.5491L11.9767 62.6733L12.8437 63.5404L27.046 77.6155L28.3032 78.8728L28.679 79.2485L33.9564 84.5259L37.098 87.7947C37.708 88.4113 38.4889 88.8307 39.3398 88.9988C40.1907 89.1669 41.0724 89.0759 41.871 88.7376C42.6696 88.3993 43.3484 87.8292 43.8196 87.1011C44.2908 86.373 44.5328 85.5202 44.5142 84.6531V74.6126C44.5 73.4504 44.032 72.3398 43.2101 71.518C42.3882 70.6961 41.2776 70.2281 40.1154 70.2138H35.0923Z" fill="#FC1859"/>
<path d="M62.2368 70.2138H55.075C54.0666 70.2203 53.067 70.0265 52.1341 69.6437C51.2012 69.2608 50.3537 68.6964 49.6406 67.9834C48.9276 67.2704 48.3632 66.4228 47.9804 65.4899C47.5975 64.5571 47.4037 63.5574 47.4102 62.5491V50.3583C47.396 49.1956 46.9275 48.0846 46.105 47.2626C45.2825 46.4407 44.1712 45.973 43.0085 45.9595H32.9565C32.0979 45.9605 31.2586 46.2141 30.5431 46.6887C29.8275 47.1632 29.2674 47.8378 28.9325 48.6284C28.5976 49.419 28.5027 50.2906 28.6596 51.1347C28.8165 51.9789 29.2183 52.7582 29.8148 53.3757L33.7195 57.2716L38.9969 62.5491L39.1212 62.6733L39.9882 63.5404L54.1934 77.7514L55.4507 79.0086L55.8264 79.3843L61.1039 84.6618L64.3727 87.9306C64.9826 88.5471 65.7635 88.9666 66.6144 89.1346C67.4652 89.3027 68.347 89.2117 69.1456 88.8734C69.9442 88.5351 70.623 87.9651 71.0942 87.2369C71.5654 86.5088 71.8074 85.6561 71.7888 84.789V74.7398C71.7746 73.5776 71.3066 72.467 70.4847 71.6451C69.6628 70.8232 68.5522 70.3552 67.39 70.341H62.2368V70.2138Z" fill="#995DFF"/>
<path d="M79.2053 85.1704H77.8238V89.0663H77.3209V85.1704H75.9365V84.6675H79.3296V85.1704H79.2053Z" fill="#995DFF"/>
<path d="M79.957 84.792H80.7114L82.2201 88.1851L83.7143 84.792H84.4686V89.0637H83.9657V85.4192L82.3327 89.0637H82.0813L80.5727 85.4192V89.0637H80.0698V84.792H79.957Z" fill="#995DFF"/>
</g>
<defs>
<clipPath id="clip0_39_286">
<rect width="500" height="138.728" fill="white"/>
</clipPath>
</defs>
</svg>
