<svg width="500" height="334" viewBox="0 0 500 334" fill="none" xmlns="http://www.w3.org/2000/svg">
<path fill-rule="evenodd" clip-rule="evenodd" d="M185.714 151.674H207.373L204.608 190.844L218.894 151.674H244.239L241.935 190.844L255.299 151.674H277.419L250.691 213.421H224.424L227.189 173.333H226.728L212.442 213.421H185.714V151.674ZM291.244 186.697H282.949L280.184 187.158L273.271 188.54L267.745 191.305L266.359 192.227L263.598 194.996L262.676 196.374L261.755 198.218L261.294 199.596L260.833 201.9L260.372 204.669V207.434L261.294 209.742L262.676 211.582L264.516 212.964L266.824 214.343L269.589 214.804H276.501L278.344 214.343L279.723 213.886L281.566 212.964L282.945 212.042L284.788 210.664L286.167 209.281L285.71 213.425H304.143L310.134 184.393L310.595 182.549L311.056 181.167V179.323L309.677 175.176L309.212 174.254L307.834 173.333L306.912 172.411L305.533 171.489L303.69 171.029L301.847 170.107L299.543 169.646H297.239L294.47 169.185H287.557L285.718 169.646H283.41L277.88 171.029L276.04 171.95L274.658 172.872L272.818 173.794L271.436 175.176L270.057 176.098L269.136 177.941L267.757 179.323L266.835 181.167L266.371 183.471H283.886V182.089L284.807 180.245L285.729 179.784L286.186 179.323H287.108L288.03 178.863H289.873L290.794 179.323H291.252L292.173 180.245V182.549L291.244 186.697ZM288.479 198.218V199.596L288.018 200.979L287.557 201.896L286.175 203.279L284.796 203.74L283.874 204.201H280.648L279.727 203.74L279.27 202.818L278.805 202.361V199.592L279.27 199.135V198.214L280.188 197.292L280.648 196.37L282.027 195.91L282.949 195.449L284.792 194.992H289.397L288.479 198.218ZM308.291 213.421H328.106L329.489 208.817L330.41 210.195L333.176 212.964L334.558 213.886L338.245 214.804H345.622L347.465 214.343L348.844 213.421L354.37 210.66L355.756 208.817L357.142 207.434L359.911 203.747L360.829 201.443L362.212 199.6L363.133 196.835L363.59 194.527L364.512 191.762L364.973 188.536L365.434 185.771V181.163L364.512 177.476L363.59 175.633L361.751 172.868L360.829 171.946L359.447 171.025L356.682 170.103L354.842 169.642L353.46 169.181H349.773L347.93 169.642L342.404 171.025L341.021 171.946L337.334 174.711L342.403 151.67H321.666L308.291 213.421ZM334.101 192.227V190.848L334.562 189.466V188.083L335.023 187.162V186.701L335.48 186.24V185.318L335.944 184.396L337.784 182.553L338.706 182.092L339.166 181.631H342.392L343.314 182.092L344.235 183.014V184.396L344.692 185.779L344.235 187.622V189.466L343.771 192.231L342.849 194.074L342.392 196.378L341.931 198.221L340.092 200.986L339.17 201.904L336.401 202.826H335.48L335.023 202.369H334.101V201.904H333.64L333.179 201.447V200.986L332.722 200.525V197.3L333.179 196.378V194.999L334.101 192.227ZM371.432 183.471H365.894L368.663 170.568H374.189L375.576 163.655L398.156 156.282L394.931 170.568H404.604L401.847 183.471H392.626L389.4 196.374V199.6L389.861 200.522H391.244L392.166 200.983H394.009L394.473 200.522H397.231L394.473 212.964L388.936 214.347H387.096L385.253 214.807H377.415L374.658 214.347L370.042 212.503L368.202 211.121L367.285 208.817L366.82 206.048L367.285 202.826L371.432 183.471Z" fill="black"/>
<path fill-rule="evenodd" clip-rule="evenodd" d="M429.036 199.6L428.571 200.983L427.65 201.901L427.193 202.822L425.349 203.744L424.428 204.205H421.202L420.28 203.744L419.362 203.283L418.441 202.365V201.444L417.98 200.522V198.679L418.902 195.914H448.395L449.316 193.149L449.777 190.38V183.01L449.316 180.707L448.855 178.863L447.016 175.176L445.634 173.794L444.251 172.872L442.411 171.49L440.103 171.029L438.264 170.107L435.499 169.646L432.73 169.186H427.204L424.435 169.646L421.67 170.107L419.366 170.568L416.601 171.49L414.293 172.411L411.985 173.794L408.302 176.559L405.077 179.785L403.233 182.089L402.312 184.393L400.933 186.697L400.468 189.001L399.55 191.766L399.09 194.996L398.629 197.761L399.09 200.526V202.83L400.011 205.138L400.468 206.977L401.855 208.36L403.226 210.199L404.604 211.121L405.991 212.504L407.83 212.964L409.67 213.886L414.278 214.804H424.416L427.185 214.343L431.789 213.421L433.633 212.964L435.937 212.043L437.78 211.121L439.159 210.199L441.002 208.821L443.306 206.517L444.689 204.673L445.61 203.291L446.528 201.451L446.993 199.608H429.036M420.741 186.697V186.236L421.659 183.471L424.424 180.706L426.267 179.785H429.036L430.875 180.706L431.793 182.55V186.697H420.741Z" fill="black"/>
<path fill-rule="evenodd" clip-rule="evenodd" d="M480.184 188.08L480.645 186.236V182.089L480.184 181.167L478.802 179.785H476.497L475.576 180.246L474.193 181.167L473.272 182.089L472.35 183.932L471.428 186.236L470.507 189.001L469.581 192.688L469.124 195.914L468.663 198.679V200.983L469.124 202.365L469.581 203.287L470.046 203.748L470.971 204.209H473.272L474.193 203.748L475.576 203.287L476.037 202.365L476.958 200.983L477.876 198.218L478.802 196.375H498.16L497.235 198.678L496.77 200.522L494.931 204.209L493.548 206.048L490.783 208.817L488.94 210.199L485.249 212.043L480.645 213.886L475.119 214.808H464.055L461.751 214.347L459.908 213.886L457.603 212.964L455.76 212.504L454.378 211.121L452.534 210.199L451.152 208.356L450.23 206.974L449.308 205.13L448.387 200.522V197.757L448.848 194.996L449.308 191.766L449.769 189.001L451.613 184.393L454.378 179.785L456.221 178.402L459.451 175.176L464.055 172.411L466.355 171.49L468.663 170.568L470.971 170.107L473.729 169.646L476.497 169.186H482.492L485.249 169.646L489.865 170.568L491.705 171.49L493.548 172.412L495.391 173.333L497.696 175.637L498.617 177.02L499.078 178.863L499.539 180.246L500 182.089V186.236L499.539 188.08H480.184ZM195.852 239.693V239.232L195.391 238.771V238.31L194.931 237.388H194.47L193.548 236.927H190.783L189.4 237.388L188.018 238.31L187.096 239.232L186.175 240.611L184.792 244.762V248.909L186.175 251.674L187.557 252.131H191.244L192.166 251.213L193.087 250.752V249.831L193.548 249.37H196.774L195.852 250.292L195.391 251.213L194.47 252.599L193.548 253.057L192.166 253.517L190.783 254.439H186.175L184.331 253.978L183.41 253.057L182.488 251.674L182.027 250.292L181.566 248.448L182.027 246.605V244.762L182.488 242.918L184.331 239.232L185.714 237.388L187.096 236.463L188.479 235.084L190.783 234.623H195.391L196.313 235.084L197.235 236.006L198.156 236.463L198.617 237.388V239.692L195.852 239.693ZM206.912 244.762L206.451 246.605V248.448L206.912 250.288L207.373 251.67L208.755 253.049L210.138 253.971L211.52 254.431H215.668L217.972 253.971L219.815 253.049L221.198 251.67L222.119 250.288L223.502 248.448L223.963 246.605L224.884 244.762V238.771L223.041 236.006L221.659 235.084L220.276 234.623H215.668L213.825 235.084L211.981 236.006L209.216 238.771L207.373 242.458L206.912 244.762ZM209.677 244.762L210.138 242.922L210.599 241.54L211.52 240.161L211.981 239.239L212.903 238.318L214.285 237.396L215.668 236.939H218.894L220.276 237.396L222.119 239.239V244.765L221.198 247.534L220.276 248.913L219.815 249.834L218.433 250.756L217.511 251.678L216.129 252.135H212.442L211.06 251.678L210.599 250.756L209.677 249.834V248.913L209.216 247.534L209.677 246.152V244.762ZM241.474 245.226L242.396 245.683H243.778L244.239 246.605H244.7V254.439H247.465V245.683L246.543 244.762H246.083L245.161 244.305H246.083L247.926 243.383L248.387 242.922L248.848 242L249.308 241.54L249.769 240.618V239.692L250.23 238.31L248.848 235.545H247.926L247.004 235.084H245.622L244.239 234.623H237.327L233.179 254.439H235.944L237.788 245.226H241.474ZM239.631 236.927H244.239L245.161 237.385H245.622L246.543 237.845L247.004 238.306V240.61L246.543 241.075V241.532L245.622 242.454L244.7 242.914H238.248L239.631 236.927ZM258.064 254.439H260.829L262.672 245.683H267.742L268.659 245.226L271.424 244.305L272.346 243.844L273.268 242.922L274.646 238.775L274.189 237.392L273.725 236.471L273.268 236.013L272.346 235.553L270.967 235.092L270.046 234.631H262.208L258.064 254.439ZM263.133 243.379L264.516 236.927H269.124L270.046 237.385H270.503L271.424 238.306V240.15L270.503 241.989L270.046 242.45L269.124 242.911L268.663 243.371H263.133V243.379ZM282.492 244.762L282.027 246.605V248.448L282.492 250.288L282.949 251.67L284.331 253.049L285.714 253.971L287.093 254.431H291.24L293.544 253.971L295.387 253.049L296.766 251.67L297.688 250.288L299.07 248.448L299.539 246.605L300.46 244.762V238.771L298.617 236.006L297.235 235.084L295.852 234.623H291.244L289.4 235.084L287.561 236.006L284.796 238.771L282.953 242.458L282.492 244.762ZM285.249 244.762L285.714 242.922L286.636 240.157L288.475 238.314L289.858 237.392L291.236 236.935H294.462L295.845 237.392L297.684 239.236V244.762L296.762 247.53L295.845 248.909L295.384 249.831L294.005 250.752L293.083 251.674L291.701 252.131H288.018L286.639 251.674L286.175 250.752L285.253 249.831L284.796 248.909V247.53L285.253 246.148V244.762L285.249 244.762ZM317.054 245.226L317.972 245.683H319.354L319.812 246.605H320.276V254.439H323.041V245.683L322.12 244.762H321.659L320.737 244.305H321.659L323.502 243.383L323.959 242.922L324.424 242L324.881 241.54L325.345 240.618V239.692L325.802 238.31L324.424 235.545H323.502L322.58 235.084H321.201L319.815 234.623H312.907L308.759 254.439H311.524L313.364 245.226H317.054ZM315.207 236.927H319.354L320.733 237.385H321.198L322.115 237.845L322.577 238.306V240.61L322.116 241.075V241.532L321.655 241.993L320.733 242.454L320.276 242.914H313.825L315.207 236.927ZM334.101 254.439L337.327 249.37H346.543L347.465 254.439H350.23L346.543 234.623H343.775L331.332 254.439H334.101ZM344.7 237.388L346.083 247.07H338.709L344.7 237.388ZM365.895 236.927H359.447L359.911 234.624H375.576L375.115 236.927H368.663L364.977 254.439H362.212L365.895 236.927ZM381.106 254.439L385.253 234.623H388.018L383.871 254.439H381.106ZM396.774 244.762L396.313 246.605V248.448L396.774 250.288L397.231 251.67L398.152 253.049L399.535 253.971L401.374 254.431H405.522L407.365 253.971L409.209 253.049L411.97 250.284L413.813 246.597L414.274 244.754L414.735 242.45V240.606L414.274 238.767L413.813 237.385L412.891 236.006L411.521 235.084L409.677 234.623H405.53L403.226 235.084L401.847 236.006L399.078 238.771L397.235 242.458L396.774 244.762ZM399.539 244.762L400 242.922L400.921 240.157L402.761 238.314L404.143 237.392L405.522 236.935H408.748L410.13 237.392L411.052 238.314L411.97 240.157V242.922L411.513 244.762L410.13 248.909L408.291 250.752L406.908 251.674L405.526 252.131H402.3L400.921 251.674L400 250.752L399.078 248.909V246.144L399.539 244.762ZM443.314 234.624L439.166 254.439H435.484L429.493 237.849L425.806 254.439H423.498L427.646 234.623H431.336L437.327 250.752L440.557 234.623L443.314 234.624Z" fill="black"/>
<path fill-rule="evenodd" clip-rule="evenodd" d="M61.2903 252.599L64.977 253.056L68.2027 253.517L71.8894 253.978H78.8019L82.0276 253.517H85.2536L88.4793 253.056L92.166 252.131L94.931 251.213L98.1567 250.291L104.608 247.526L110.138 244.762L113.364 242.918L115.668 241.079L118.433 239.231L121.198 236.928L128.111 230.015L129.954 227.25L132.258 224.485L135.945 218.955L137.327 216.19L140.092 209.738L141.014 206.516L142.396 202.826L142.857 199.6L143.779 195.914L144.24 192.688L144.7 189.001V182.549L144.24 178.863L142.857 169.185L141.936 165.96L140.553 162.734L139.631 159.508L138.249 156.282L136.866 153.517L135.023 150.752L133.641 147.987L131.337 145.222L127.65 139.692L123.042 135.084L120.276 132.78L117.972 130.937L115.207 128.632L112.442 126.789L109.217 125.406L106.451 123.563L100 120.798L93.5484 118.955L89.8619 118.033L93.5484 101.443L97.6959 102.365L101.843 103.748L105.991 105.13L110.138 106.973L113.825 108.356L117.512 110.66L121.198 112.503L124.885 114.807L128.111 117.572L131.336 119.876L134.562 122.642L137.327 125.867L140.092 128.632L142.857 131.858L145.161 135.084L147.465 138.771L149.77 141.996L155.3 153.056L156.682 157.204L158.065 160.891L160.83 173.333L161.29 177.48V181.628L161.751 185.775L161.29 190.38L160.369 198.678L159.908 203.287L158.525 207.434L157.604 211.582L156.221 215.729L154.378 219.416L152.535 223.563L150.691 227.25L148.387 230.937L146.083 234.162L143.779 237.849L141.014 241.079L138.249 243.84L135.484 247.066L129.032 252.599L122.581 257.204L118.894 259.504L111.521 263.195L107.834 264.577L104.148 266.42L100 267.342L95.8525 268.725L91.705 269.646L88.0185 270.107L83.4102 270.568L79.2627 271.025H70.9679L66.3593 270.568L62.2118 270.107L57.6035 269.186L61.2903 252.599Z" fill="#ED2027"/>
<path fill-rule="evenodd" clip-rule="evenodd" d="M1.84337 169.646L0.921563 173.333L0.460781 177.02L0 181.167V188.54L1.38259 199.6L2.30415 203.287L3.22571 206.517L4.14752 210.2L5.52986 213.421L6.91245 217.112L8.75582 220.338L10.1382 223.103L12.4423 226.329L14.2857 229.558L21.1981 237.849L23.9633 240.153L26.7283 242.918L29.4932 245.226L32.2581 247.066L35.4838 249.37L41.9355 253.057L45.1612 254.439L52.5347 257.204L63.5944 259.969L67.7419 260.43L71.4287 260.891H78.8017L89.8619 259.505L97.2349 257.665L100.461 256.747L104.148 255.361L107.373 253.978L110.599 252.131L113.825 250.752L117.051 248.449L119.816 246.605L128.111 239.692L130.876 236.928L137.788 228.633L145.161 215.729L146.544 212.043L147.465 208.356L148.848 204.669L149.77 200.983L150.231 197.296L151.152 193.149V178.402L150.231 171.029L148.387 163.656L147.005 160.43L146.083 157.204L144.24 153.518L142.857 150.292L141.014 147.066L139.171 144.301L136.866 141.075L135.023 138.31L132.719 135.545L124.885 127.711L122.12 125.407L118.894 123.103L109.217 117.573L105.991 116.19L98.6175 113.425L94.931 112.504L91.2442 111.582L89.8619 118.034L93.5484 118.956L100 120.799L106.452 123.564L109.217 125.407L112.442 126.79L115.208 128.633L117.972 130.937L120.276 132.78L123.042 135.084L127.65 139.693L131.336 145.223L133.641 147.988L135.023 150.753L136.866 153.518L138.249 156.283L139.631 159.508L140.553 162.734L141.936 165.96L142.857 169.186L144.24 178.863L144.7 182.55V189.002L144.24 192.688L143.779 195.914L142.857 199.601L142.396 202.827L141.014 206.517L140.092 209.739L137.327 216.19L135.945 218.956L132.258 224.485L129.954 227.251L128.111 230.015L121.198 236.928L118.433 239.232L115.668 241.079L113.364 242.919L110.138 244.762L104.608 247.527L98.1567 250.292L94.931 251.213L92.1658 252.131L88.4793 253.057L85.2536 253.518H82.0276L78.8019 253.979H71.8895L68.2027 253.518L64.977 253.057L61.2903 252.6L58.0646 251.674L54.3778 250.753L51.1521 249.37L47.9264 248.449L44.7004 247.066L33.6407 239.693L30.8755 237.389L28.5716 235.545L26.2672 233.241L23.9633 230.476L21.6589 228.172L16.1291 219.877L14.7465 217.112L12.9033 213.886L11.5208 211.121L7.83402 198.218L6.91245 191.767V177.941L7.37323 174.715L8.29504 171.029L1.84337 169.646Z" fill="#ED2027"/>
<path fill-rule="evenodd" clip-rule="evenodd" d="M64.9764 236.006L70.0455 236.927H80.6447L85.253 236.006L90.3221 235.084L99.5387 231.397L104.147 228.632L107.833 225.867L111.52 222.642L115.207 218.955L118.433 214.808L121.198 210.664L123.041 206.048L124.884 200.983L126.267 195.914L127.188 190.845L127.649 185.775L126.728 175.637L125.345 170.568L123.963 165.96L121.659 161.351L119.354 157.204L116.129 153.056L112.903 149.37L109.216 145.683L105.529 142.918L100.921 140.153L96.3127 137.849L91.7044 136.006L86.6353 134.623L81.1055 133.702L76.0364 133.241L70.9673 133.702L65.8982 134.623L60.8291 135.545L51.6123 139.231L43.3175 144.761L39.6308 147.987L36.405 151.674L33.1791 155.821L30.4142 159.969L28.1102 164.577L26.2666 169.185L24.8843 174.715L18.4326 172.872L18.8934 170.107L20.7368 164.577L22.1194 161.812L23.0409 159.047L24.4235 156.743L25.8059 153.978L27.6492 151.674L29.0318 149.37L30.8749 147.066L36.8658 141.075L39.1697 139.231L41.4741 137.849L43.778 136.006L48.3866 133.24L51.1515 131.858L53.9167 130.937L56.2206 130.015L61.7507 128.172L67.2806 127.25L70.5063 126.789H82.0273L84.7925 127.25L88.0182 127.711L99.0782 131.397L104.608 134.163L106.912 135.545L109.216 137.388L111.52 138.771L113.825 140.614L119.816 146.605L123.502 151.213L127.65 158.125L129.032 160.891L129.954 163.194L131.336 165.96L131.797 168.725L132.719 171.49L134.562 182.549V185.775L134.101 188.54V191.305L133.64 194.527L133.179 197.296L132.258 200.522L129.493 208.817L128.11 211.121L125.345 216.651L123.963 218.955L122.12 221.259L120.276 223.102L118.433 225.407L116.59 227.25L111.981 230.937L110.138 232.78L107.834 234.623L105.069 236.006L102.765 237.388L99.9997 238.31L97.6956 239.692L94.9304 240.61L92.1657 241.536L89.4005 242.457L81.1057 243.84H72.3499L69.585 243.379H66.3593L63.5941 242.457L64.9764 236.006Z" fill="#ED2027"/>
<path fill-rule="evenodd" clip-rule="evenodd" d="M116.589 194.07L117.05 189.923L117.511 185.314L117.05 181.628L116.589 177.48L115.668 173.333L114.285 169.646L112.442 165.96L110.599 162.734L108.295 159.508L105.529 156.282L102.764 153.517L99.5387 151.213L95.852 148.909L92.1655 147.066L88.4787 145.683L80.1839 143.84L76.0364 143.379L67.7414 144.3L63.5938 145.222L59.9073 146.605L56.2206 148.448L52.9949 150.291L49.7689 152.596L46.5432 155.361L43.778 158.125L41.4741 161.351L39.17 165.038L37.3266 168.725L35.944 172.411L35.0225 176.559L18.4326 172.872L18.8934 170.107L20.7368 164.577L22.1194 161.812L23.0409 159.047L24.4235 156.743L25.8059 153.978L27.6492 151.674L29.0318 149.37L30.8749 147.066L36.8658 141.075L39.1697 139.231L41.4741 137.849L43.778 136.006L48.3866 133.24L51.1515 131.858L53.9167 130.937L56.2206 130.015L61.7507 128.172L67.2806 127.25L70.5063 126.789H82.0273L84.7925 127.25L88.0182 127.711L99.0782 131.397L104.608 134.163L106.912 135.545L109.216 137.388L111.52 138.771L113.825 140.614L119.816 146.605L123.502 151.213L127.65 158.125L129.032 160.891L129.954 163.194L131.336 165.96L131.797 168.725L132.719 171.49L134.562 182.549V185.775L134.101 188.54V191.305L133.64 194.527L133.179 197.296L116.589 194.07Z" fill="#ED2027"/>
<path fill-rule="evenodd" clip-rule="evenodd" d="M70.5065 209.277L68.2026 208.816L63.594 206.973L61.2901 205.59L59.4468 204.208L58.0642 202.364L56.2208 200.521L54.8385 198.678L53.9166 196.835L52.0733 192.226L51.1517 187.618V182.549L52.0733 177.941L53.9166 173.332L55.2992 171.028L56.6816 169.185L58.5249 167.341L64.0551 163.194L66.359 162.272L68.6634 161.812L70.9673 160.89H73.2717L75.5756 160.429L78.3407 160.89L80.6446 161.351L83.4098 161.812L88.0181 163.655L91.7046 166.42L93.548 168.263L97.6955 173.793L99.5389 178.401L100.46 183.01V185.314L99.9997 187.618V190.379L99.5389 191.766L99.0781 192.687L98.6171 194.07L98.1563 194.995L97.6955 196.374L96.7739 198.217L95.8521 199.143L94.9306 200.521L94.4698 201.443L93.548 202.364L92.6264 202.825L90.7831 204.669L89.8615 205.13L88.9397 206.047L92.6264 211.581L94.0088 210.663L95.3914 210.199L96.3129 208.816L97.6955 207.895L98.6171 206.973L99.5389 205.59L100.46 204.669L103.226 200.521L103.686 199.142L104.608 197.756L105.53 194.995L105.991 193.148L106.451 191.766L107.373 185.314L106.912 182.549L106.451 179.323L105.991 176.558L105.069 173.332L103.686 170.567L102.304 168.263L100.46 165.498L96.3129 161.351L93.548 159.507L91.2441 157.664L88.4789 156.282L85.2532 155.36L82.488 154.438L79.2623 153.978H72.8106L69.5849 154.438L66.8197 154.899L64.0551 155.821L61.2899 157.203L58.5249 159.047L53.9166 162.733L51.6127 165.037L49.7691 167.341L48.3868 169.646L46.5434 172.872L45.6218 175.636L44.7 178.862L44.2393 182.088V188.079L44.7 191.305L46.5434 196.835L49.3086 202.364L52.9951 206.973L55.299 209.277L57.6034 211.12L60.3683 212.964L63.1335 214.346L65.8982 215.268L69.1241 216.189L70.5065 209.277Z" fill="#ED2027"/>
<path fill-rule="evenodd" clip-rule="evenodd" d="M72.8106 199.6L70.0457 198.678L68.6634 197.756L67.2808 197.295L65.4374 195.452L64.0551 194.527L63.594 193.148L62.6725 192.226L61.2899 188.079V182.088L62.2117 179.323L63.1332 178.401L63.594 177.019L64.5158 175.636L65.4374 174.715L66.82 173.793L67.7416 172.872L69.1241 172.411L70.5065 171.95L71.4283 171.489L72.8106 171.028H74.1932L75.5758 170.567L77.4189 171.028H78.8015L82.4883 154.438L79.2623 153.978H72.8106L69.5849 154.438L66.8197 154.899L64.0551 155.821L61.2899 157.203L58.5249 159.047L53.9166 162.733L51.6127 165.037L49.7691 167.341L48.3868 169.646L46.5434 172.872L45.6218 175.636L44.7 178.862L44.2393 182.088V188.079L44.7 191.305L46.5434 196.835L49.3086 202.364L52.9951 206.973L55.299 209.277L57.6034 211.12L60.3683 212.964L63.1335 214.346L65.8982 215.268L69.1241 216.189L72.8106 199.6Z" fill="#ED2027"/>
</svg>
