<svg width="500" height="177" viewBox="0 0 500 177" fill="none" xmlns="http://www.w3.org/2000/svg">
<g clip-path="url(#clip0_39_284)">
<path d="M389.165 99.5616V113.04H381.599C368.736 113.04 362.478 106.339 362.478 91.3577V67.805C362.478 60.4657 360.187 52.8886 350.891 52.8886C341.595 52.8886 338.644 60.4549 338.644 67.805V113.04H322.431V67.805C322.431 60.4657 319.188 52.8886 309.709 52.8886C300.229 52.8886 297.149 60.4549 297.149 67.805V113.04H280.946V67.3185C280.946 49.4189 292.436 38.3938 309.547 38.3938C318.194 38.3938 325.425 41.4852 330.44 46.8572C335.466 41.4528 342.611 38.3938 351.28 38.3938C367.093 38.3938 378.302 48.565 378.302 67.3185V91.5846C378.302 97.1188 380.832 99.5616 385.523 99.5616H389.165ZM263.338 101.529C254.432 109.03 244.823 114.143 231.495 114.143C207.316 114.143 193.07 98.4267 193.07 76.2359C193.07 54.4451 208.397 38.3182 230.09 38.3182C252.616 38.3182 266.343 55.7746 266.343 77.479C266.343 80.2244 266.106 82.9375 266.106 82.9375H209.802C211.964 93.5843 218.449 100.232 231.495 100.232C240.705 100.232 247.168 96.5567 252.908 91.3144L263.338 101.529ZM209.748 70.1829H249.741C247.871 59.2551 240.705 52.1428 230.101 52.1428C219.076 52.1428 212.061 59.5037 209.759 70.1829M158.892 90.7199C158.892 106.479 165.377 113.008 178.748 113.008H186.055V99.1509H182.606C177.678 99.1509 174.932 96.7297 174.932 90.7199V-0.0751953H158.935L158.892 90.7199ZM113.872 99.1509H113.332C109.246 99.1509 106.955 93.033 102.901 81.9863L96.1782 63.3949C89.8549 46.1006 83.456 38.3182 68.7991 38.3182C56.5093 38.3182 50.1969 45.7331 42.5874 56.0448L37.0316 63.4814L19.1753 39.4963H0.0434439L27.5522 75.555L16.7973 89.9633C11.3064 97.3566 7.90154 99.5616 3.21046 99.5616H-0.0322266V113.04H6.82065C14.7436 113.04 20.2562 110.349 24.9689 103.712L36.7938 87.2611L55.6771 113.094H74.9278L46.2841 75.2631L53.4504 65.7945C59.9358 57.0933 63.0271 52.9643 68.5181 52.9643C74.3441 52.9643 77.2301 58.3687 82.159 70.9071L90.3305 91.8332C95.0324 104.047 99.637 113.084 107.949 113.084H109.03L104.782 123.709C101.485 132.032 98.3616 137.177 89.7036 137.177H85.8664V150.893H91.3682C104.22 150.893 113.397 144.548 119.374 127.935L151.131 39.5504H133.955L113.872 99.1509Z" fill="#0080AA"/>
<path d="M163.518 171.441H178.283V175.559H158.935V142.462H163.561L163.518 171.441ZM202.17 165.788H184.573C184.666 167.625 185.468 169.354 186.811 170.61C188.154 171.867 189.933 172.552 191.772 172.522C193.05 172.553 194.315 172.26 195.449 171.671C196.583 171.081 197.549 170.214 198.258 169.149L201.349 171.625C200.241 173.093 198.794 174.273 197.133 175.063C195.471 175.854 193.643 176.231 191.805 176.164C185.081 176.164 180.12 171.484 180.12 164.523C180.12 157.562 185.081 152.795 191.578 152.795C198.074 152.795 202.235 157.238 202.235 164.285C202.17 164.761 202.17 165.269 202.17 165.788ZM197.771 162.545C197.674 159.043 195.609 156.287 191.556 156.287C189.817 156.253 188.13 156.88 186.836 158.041C185.542 159.203 184.737 160.813 184.584 162.545H197.771ZM218.708 157.032H212.828V168.544C212.828 171.203 213.758 172.284 215.952 172.284C216.84 172.285 217.718 172.093 218.524 171.722L218.665 175.321C217.46 175.727 216.196 175.931 214.925 175.927C210.763 175.927 208.44 173.592 208.44 169.009V157H204.192V153.401H208.44V147.045H212.763V153.401H218.643L218.708 157.032ZM225.539 154.179H221.843L225.085 142.494H229.409L225.539 154.179ZM241.385 159.043C240.829 158.187 240.066 157.486 239.167 157.004C238.267 156.522 237.261 156.275 236.24 156.287C234.23 156.287 232.122 157.076 232.122 159.184C232.122 161.053 233.808 161.756 237.181 162.502C241.385 163.431 244.606 165.161 244.606 169.041C244.606 174.273 240.283 176.197 235.775 176.197C234.084 176.243 232.405 175.91 230.86 175.221C229.315 174.533 227.943 173.507 226.847 172.219L229.971 169.56C230.639 170.503 231.521 171.275 232.545 171.81C233.569 172.346 234.706 172.63 235.862 172.641C238.024 172.641 240.261 171.852 240.261 169.398C240.261 167.333 238.251 166.588 234.467 165.701C231.517 164.999 227.982 163.745 227.982 159.583C227.982 154.817 232.144 152.806 236.348 152.806C239.483 152.806 242.834 154.06 244.39 156.449L241.385 159.043ZM277.217 148.623C276.456 147.633 275.472 146.836 274.345 146.299C273.218 145.762 271.98 145.499 270.731 145.532C267.737 145.532 264.246 147.175 264.246 150.936C264.246 154.698 267.283 155.508 271.023 156.73C275.466 158.124 280.751 159.81 280.751 166.404C280.751 173.268 275.185 176.445 269.294 176.445C267.24 176.484 265.204 176.067 263.331 175.224C261.458 174.381 259.796 173.133 258.463 171.571L262.063 168.533C262.889 169.727 263.992 170.704 265.278 171.38C266.563 172.055 267.993 172.41 269.445 172.414C272.526 172.414 276.082 170.684 276.082 166.761C276.082 162.837 272.439 161.659 268.235 160.351C264.03 159.043 259.587 157.108 259.587 151.055C259.587 144.462 265.478 141.608 270.948 141.608C272.702 141.566 274.447 141.881 276.076 142.533C277.706 143.185 279.186 144.161 280.427 145.402L277.217 148.623ZM296.5 176.197C294.937 176.25 293.38 175.984 291.923 175.415C290.466 174.846 289.141 173.986 288.028 172.887C286.915 171.788 286.038 170.474 285.451 169.025C284.863 167.576 284.577 166.022 284.61 164.458C284.61 157.638 289.755 152.828 296.5 152.828C303.245 152.828 308.465 157.638 308.465 164.458C308.49 166.025 308.195 167.581 307.599 169.03C307.002 170.479 306.116 171.792 304.995 172.887C303.875 173.983 302.542 174.839 301.08 175.402C299.617 175.965 298.055 176.225 296.489 176.164L296.5 176.197ZM296.5 156.47C291.776 156.47 289.117 160.254 289.117 164.458C289.117 168.663 291.776 172.5 296.5 172.5C301.223 172.5 303.882 168.674 303.882 164.458C303.882 160.243 301.256 156.438 296.489 156.438L296.5 156.47ZM317.156 175.591H312.767V140.225H317.156V175.559V175.591ZM334.31 175.591H329.543L320.517 153.433H325.392L331.878 170.868H331.975L338.46 153.433H343.141L334.31 175.591ZM366.65 165.863H349.064C349.156 167.7 349.959 169.429 351.302 170.686C352.645 171.942 354.424 172.628 356.263 172.597C357.54 172.629 358.805 172.336 359.94 171.746C361.074 171.157 362.04 170.289 362.748 169.225L365.828 171.7C364.724 173.17 363.28 174.351 361.62 175.141C359.959 175.932 358.133 176.309 356.295 176.24C349.572 176.24 344.611 171.56 344.611 164.599C344.611 157.638 349.572 152.871 356.068 152.871C362.564 152.871 366.726 157.314 366.726 164.361C366.721 164.838 366.692 165.314 366.639 165.788L366.65 165.863ZM362.262 162.621C362.164 159.119 360.1 156.362 356.046 156.362C354.308 156.331 352.623 156.959 351.329 158.12C350.036 159.281 349.23 160.889 349.075 162.621H362.262ZM389.965 168.933H390.051L397.812 142.462H402.903L410.621 168.825H410.707L418.003 142.462H422.91L413.182 175.559H408.362L400.32 148.958H400.233L392.192 175.559H387.382L377.653 142.462H382.68L389.965 168.933ZM437.092 161.367C437.092 158.124 434.93 156.503 431.623 156.503C429.265 156.514 427.003 157.435 425.31 159.075L422.975 156.276C425.47 154.063 428.71 152.877 432.044 152.958C438.4 152.958 441.297 156.741 441.297 161.605V171.279C441.27 172.752 441.379 174.224 441.621 175.678H437.654C437.408 174.636 437.282 173.57 437.276 172.5H437.135C436.321 173.709 435.209 174.688 433.906 175.343C432.604 175.998 431.155 176.307 429.699 176.24C426.196 176.24 421.668 174.5 421.668 169.409C421.668 162.729 429.612 161.929 437.092 161.929V161.367ZM436.011 165.15C431.687 165.15 426.153 165.626 426.153 169.355C426.153 171.981 428.488 172.814 430.682 172.814C434.8 172.814 437.092 170.057 437.092 166.328V165.161L436.011 165.15ZM458.342 157H452.451V168.544C452.451 171.203 453.381 172.284 455.586 172.284C456.474 172.283 457.351 172.091 458.159 171.722L458.288 175.321C457.087 175.727 455.827 175.931 454.559 175.927C450.398 175.927 448.074 173.592 448.074 169.009V157H443.815V153.401H448.074V147.045H452.397V153.401H458.342V157ZM482.706 165.788H465.087C465.179 167.625 465.982 169.354 467.325 170.61C468.668 171.867 470.447 172.552 472.286 172.522C473.564 172.553 474.829 172.26 475.963 171.671C477.097 171.081 478.063 170.214 478.771 169.149L481.852 171.625C480.746 173.094 479.302 174.274 477.642 175.064C475.982 175.855 474.156 176.232 472.318 176.164C465.595 176.164 460.634 171.484 460.634 164.523C460.634 157.562 465.595 152.795 472.091 152.795C478.587 152.795 482.738 157.238 482.738 164.285C482.706 164.761 482.706 165.269 482.662 165.788H482.706ZM478.317 162.545C478.22 159.043 476.155 156.287 472.102 156.287C470.363 156.253 468.676 156.88 467.382 158.041C466.088 159.203 465.283 160.813 465.13 162.545H478.317ZM487.051 153.433H491.212C491.309 154.514 491.396 156.243 491.396 157.173H491.537C492.138 155.883 493.096 154.791 494.296 154.025C495.496 153.259 496.89 152.852 498.314 152.849C498.896 152.836 499.477 152.898 500.043 153.033L499.859 157.097C499.2 156.945 498.526 156.868 497.849 156.87C493.644 156.87 491.634 160.275 491.634 163.972V175.613H487.235V158.167C487.191 157 487.148 154.849 487.008 153.401L487.051 153.433Z" fill="#0080AA"/>
</g>
<defs>
<clipPath id="clip0_39_284">
<rect width="500" height="176.402" fill="white"/>
</clipPath>
</defs>
</svg>
