<svg width="500" height="162" viewBox="0 0 500 162" fill="none" xmlns="http://www.w3.org/2000/svg">
<g clip-path="url(#clip0_39_283)">
<path d="M107.347 103.891H95.9834V71.7617L107.347 83.1254V103.891Z" fill="black"/>
<path d="M61.893 101.93L73.2566 113.294V129.327L50.5293 106.631V42.2788L21.1084 12.9824C22.6651 11.6956 24.2944 10.5021 25.9963 9.40208C27.553 8.38506 29.1512 7.45107 30.7908 6.60009L61.893 37.6088V0.217773C72.2292 0.217773 80.604 8.59262 80.604 18.9289C80.604 28.6424 73.1632 36.6437 63.6364 37.5465H78.2068L78.269 37.5777L89.5704 48.9102H61.893V101.93Z" fill="black"/>
<path d="M84.6202 60.3986L84.558 103.829H73.1943L73.2566 48.9727L84.6202 60.3986Z" fill="black"/>
<path d="M95.9838 71.7621L84.6201 60.3984H100.903L112.266 71.7621H95.9838Z" fill="black"/>
<path d="M0.217773 56.3509C0.28004 51.463 0.933838 46.7307 2.14803 42.2164L27.8018 67.8702V67.8391V51.8054L6.66236 30.666C8.46808 27.2102 10.6163 23.9723 13.0758 21.0146L39.1655 47.1043V95.2674V95.9524C37.889 94.6137 0.217773 56.3509 0.217773 56.3509Z" fill="black"/>
<path d="M73.2561 145.392V161.457L0.404297 88.6673V72.6025L73.2561 145.392Z" fill="black"/>
<path d="M144.801 103.891C144.801 114.228 136.395 122.603 126.059 122.603C115.723 122.603 107.348 114.228 107.348 103.891H118.711V89.5391H130.075L144.801 103.891Z" fill="black"/>
<path d="M222.634 104.14L214.104 120.329H161.021L195.548 54.0467H164.975L173.506 37.8574H226.619L192.061 104.14H222.634Z" fill="black"/>
<path d="M253.486 70.8587H280.697V87.0791H253.486V104.14H280.697V120.361H233.437V37.8574H280.697V54.0467H253.486V70.8587Z" fill="black"/>
<path fill-rule="evenodd" clip-rule="evenodd" d="M318.742 37.8574C329.265 37.8574 335.336 38.9471 339.788 41.8113C345.485 45.2671 348.941 52.3033 348.941 60.2422C348.941 66.033 347.104 70.8587 343.399 74.5947C341.033 77.0542 339.165 78.175 334.713 79.4203C339.788 80.51 342.03 81.6308 344.614 84.1214C348.35 87.5772 350.186 92.4029 350.186 98.4427C350.186 106.133 347.104 112.92 341.78 116.5C337.702 119.24 332.752 120.361 324.315 120.361H290.535V37.8574H318.742ZM310.585 71.9795H315.535C324.688 71.9795 328.518 69.1463 328.518 62.3282C328.518 55.6656 324.688 52.8014 315.286 52.8014H310.585V71.9795ZM310.585 106.008H317.87C326.307 106.008 329.888 103.175 329.888 96.4813C329.888 92.5274 328.393 89.6631 325.436 88.0753C323.194 86.83 321.233 86.581 315.162 86.581H310.585V106.008Z" fill="black"/>
<path fill-rule="evenodd" clip-rule="evenodd" d="M378.02 120.361H357.97V37.8574H384.713C395.61 37.8574 403.518 39.8188 408.966 44.0218C414.663 48.4739 417.87 55.9147 417.87 64.9434C417.87 77.5523 412.546 85.8338 401.899 90.0368L420.112 120.361H396.108L378.02 88.449V120.361ZM384.464 77.1787C392.621 77.1787 397.571 72.9757 397.571 65.8151C397.571 58.9969 392.746 54.2958 385.709 54.2958H378.02V77.1787H384.464Z" fill="black"/>
<path fill-rule="evenodd" clip-rule="evenodd" d="M473.101 104.109H446.358L441.252 120.361H420.112L447.323 37.8574H472.821L499.938 120.361H478.176L473.101 104.109ZM468.026 87.8574L459.745 61.4564L451.432 87.8574H468.026Z" fill="black"/>
</g>
<defs>
<clipPath id="clip0_39_283">
<rect width="500" height="161.582" fill="white"/>
</clipPath>
</defs>
</svg>
