<svg width="500" height="381" viewBox="0 0 500 381" fill="none" xmlns="http://www.w3.org/2000/svg">
<path d="M112.069 345.373H59.9029L50.2072 369.497H10.7588L62.3985 234.967C63.4353 232.25 65.2726 229.912 67.6674 228.261C70.0621 226.611 72.9014 225.726 75.8098 225.725H106.681L160.779 369.497H120.906L112.069 345.373ZM102.152 316.924L85.9862 270.367L70.2734 316.924H102.152ZM163.265 349.412V225.752H212.16C226.607 225.752 250.749 227.684 269.281 245.578C286.093 261.744 289.328 282.439 289.328 297.957C289.328 316.924 284.587 333.736 270.575 347.748C259.151 359.173 239.981 369.497 215.395 369.497H183.341C178.017 369.489 172.914 367.371 169.15 363.605C165.387 359.84 163.27 354.736 163.265 349.412ZM200.56 337.831H208.102C217.16 337.831 229.869 336.971 239.574 327.488C244.316 322.959 250.564 313.91 250.564 297.957C250.564 284.592 246.469 273.168 239.362 266.485C230.516 258.296 218.88 257.437 209.609 257.437H200.56V337.831ZM289.402 369.497L313.757 225.734H350.618L379.714 290.434L410.539 225.734H435.494C438.935 225.731 442.262 226.965 444.869 229.209C447.477 231.453 449.191 234.56 449.701 237.962L469.388 369.497H432.093L421.538 286.727L388.707 346.454C387.812 347.989 386.53 349.261 384.989 350.146C383.449 351.031 381.703 351.496 379.927 351.496C378.15 351.496 376.405 351.031 374.864 350.146C373.323 349.261 372.041 347.989 371.146 346.454L338.796 286.773L326.475 369.497H289.402Z" fill="#27245F"/>
<path d="M419.024 10.875H260.75C193.092 10.875 135.454 41.4872 111.764 103.534L80.4959 185.417C78.481 190.685 82.6495 196.573 88.3893 196.573H249.224C316.41 196.573 375.083 156.718 398.606 95.1049L428.109 23.6856C430.383 17.6407 425.623 10.875 419.024 10.875ZM368.807 82.0448C349.638 132.252 301.862 164.703 247.116 164.703H138.31C150.702 150.567 165.983 139.253 183.12 131.525C200.257 123.796 218.853 119.834 237.652 119.903H259.687C277.313 119.903 301.926 109.607 308.378 87.9787H235.979C201.954 87.8162 168.739 98.3501 141.027 118.092L141.711 116.299C160.955 65.8698 207.492 42.7905 262.45 42.7905H386.018L368.807 82.0448Z" fill="url(#paint0_linear_15_17921)"/>
<path d="M480.008 234.404C480.038 234.111 479.985 233.816 479.854 233.552C479.723 233.289 479.52 233.068 479.268 232.916C478.81 232.734 478.317 232.658 477.826 232.694H476.31V236.151H478.307C478.536 236.166 478.766 236.134 478.983 236.056C479.199 235.978 479.397 235.856 479.564 235.698C479.719 235.522 479.839 235.317 479.915 235.095C479.991 234.873 480.022 234.638 480.008 234.404ZM480.645 237.916L483.169 242.537C483.203 242.596 483.221 242.663 483.221 242.731C483.221 242.8 483.203 242.866 483.169 242.925C483.139 242.988 483.092 243.039 483.032 243.074C482.973 243.108 482.904 243.124 482.836 243.12H480.987C480.915 243.125 480.843 243.107 480.782 243.069C480.72 243.031 480.672 242.974 480.645 242.907L478.261 238.415H476.347V242.722C476.35 242.775 476.341 242.828 476.322 242.877C476.303 242.927 476.274 242.971 476.236 243.009C476.2 243.045 476.157 243.074 476.109 243.093C476.062 243.112 476.01 243.121 475.959 243.12H474.305C474.253 243.121 474.202 243.112 474.155 243.093C474.107 243.074 474.064 243.045 474.027 243.009C473.987 242.973 473.956 242.929 473.935 242.879C473.914 242.829 473.905 242.776 473.907 242.722V230.854C473.905 230.801 473.914 230.747 473.935 230.697C473.956 230.648 473.987 230.604 474.027 230.568C474.064 230.532 474.107 230.503 474.155 230.484C474.202 230.465 474.253 230.456 474.305 230.457H477.928C478.718 230.423 479.509 230.523 480.266 230.753C480.951 231 481.531 231.473 481.912 232.093C482.325 232.758 482.537 233.528 482.522 234.311C482.533 235.024 482.351 235.727 481.995 236.345C481.669 236.929 481.172 237.4 480.571 237.694L480.645 237.916ZM478.205 227.749C476.994 227.745 475.796 227.99 474.684 228.47C472.506 229.377 470.776 231.108 469.868 233.285C469.393 234.398 469.148 235.596 469.148 236.807C469.148 238.017 469.393 239.215 469.868 240.328C470.779 242.506 472.508 244.238 474.684 245.153C475.798 245.623 476.996 245.865 478.205 245.865C479.415 245.865 480.612 245.623 481.727 245.153C483.907 244.242 485.64 242.508 486.551 240.328C487.027 239.215 487.272 238.017 487.272 236.807C487.272 235.596 487.027 234.398 486.551 233.285C485.643 231.105 483.909 229.374 481.727 228.47C480.617 227.979 479.418 227.724 478.205 227.721V227.749ZM489.241 236.807C489.244 238.281 488.945 239.741 488.363 241.095C487.821 242.413 487.023 243.61 486.016 244.617C485.008 245.625 483.811 246.422 482.494 246.965C481.14 247.544 479.683 247.843 478.21 247.843C476.737 247.843 475.28 247.544 473.926 246.965C472.611 246.417 471.416 245.619 470.404 244.617C469.403 243.603 468.603 242.408 468.047 241.095C467.474 239.74 467.179 238.283 467.179 236.811C467.179 235.34 467.474 233.883 468.047 232.527C468.599 231.213 469.4 230.017 470.404 229.006C471.413 227.997 472.609 227.197 473.926 226.649C475.281 226.076 476.738 225.78 478.21 225.78C479.682 225.78 481.138 226.076 482.494 226.649C483.811 227.195 485.007 227.995 486.014 229.004C487.021 230.012 487.819 231.21 488.363 232.527C488.942 233.87 489.241 235.317 489.241 236.779V236.807Z" fill="#27245F"/>
<defs>
<linearGradient id="paint0_linear_15_17921" x1="79.9783" y1="103.719" x2="428.692" y2="103.719" gradientUnits="userSpaceOnUse">
<stop stop-color="#A6CE39"/>
<stop offset="1" stop-color="#11B04B"/>
</linearGradient>
</defs>
</svg>
