<svg width="500" height="180" viewBox="0 0 500 180" fill="none" xmlns="http://www.w3.org/2000/svg">
<path d="M479.935 51.6987C471.99 42.0644 457.97 36.5395 441.48 36.5395C424.033 36.5395 408.326 42.4724 397.448 52.1017L399.222 40.9848L394.505 39.5818C387.829 37.5917 380.416 36.5395 373.065 36.5395C360.433 36.5395 348.353 40.445 338.595 46.8804L341.403 37.6266H265.871L264.975 40.5818C258.264 37.8828 250.881 36.5395 242.562 36.5395C227.013 36.5395 210.182 42.5744 201.443 54.1938C200.871 53.343 200.271 52.5047 199.605 51.6987C191.657 42.0644 177.639 36.5395 161.147 36.5395C144.217 36.5395 128.906 42.1217 118.075 51.256L122.291 25.6216L117.5 24.2361C109.319 21.8704 100.227 20.6191 91.2042 20.6191C58.1047 20.6191 27.9778 41.6589 22.6196 68.5147C20.3385 79.94 23.0027 91.0072 30.1146 99.6813C36.1768 107.072 45.1295 112.341 55.7663 115.032H22.9728V156.977H190.015L190.274 156.465L190.306 156.977H210.413L213.139 152.532L212.296 156.977H257.756L258.423 153.472C262.418 156.059 267.605 157.465 273.577 157.465C278.916 157.465 283.868 156.358 288.137 154.39L287.647 156.977H351.386L351.495 156.408C354.45 157.074 357.555 157.467 360.52 157.467C362.321 157.467 364.177 157.306 366.023 156.98H390.324L392.127 153.151H393.746L394.241 156.98H469.192L472.918 137.353H471.55L472.062 134.656H473.042L476.774 115.032H474.699C476.391 113.502 477.622 111.537 478.047 109.301C478.55 106.644 477.861 103.94 476.157 101.885C475.714 101.353 475.207 100.885 474.659 100.465C480.605 94.3579 484.727 86.9674 486.329 78.6589C488.286 68.4674 486.08 59.144 479.935 51.6987ZM436.572 135.885H434.271L437.744 117.637C438.535 117.535 439.324 117.42 440.105 117.296L436.572 135.885ZM382.93 76.5221C382.692 77.741 382.527 78.945 382.406 80.1316C377.348 83.5147 372.61 85.1142 367.54 85.1142C364.11 85.1142 361.139 83.9947 359.595 82.1191C358.714 81.0545 358.418 79.8629 358.692 78.4774C359.595 73.8032 365.935 69.7037 372.256 69.7037C376.212 69.7037 379.928 71.1017 383.572 73.9624C383.346 74.8107 383.095 75.6539 382.93 76.5221ZM388.05 115.03L385.582 119.097L383.53 117.948C382.179 117.189 380.729 116.604 379.234 116.097C380.329 115.836 381.351 115.542 382.241 115.219L385.12 114.174L387.948 101.773C388.331 102.306 388.694 102.85 389.117 103.363C393.386 108.535 399.535 112.49 406.96 115.027L388.05 115.03ZM413.082 116.746L412.1 121.908L410.734 116.174C411.508 116.375 412.284 116.572 413.082 116.746ZM437.132 70.246C440.212 70.246 442.582 71.0644 443.811 72.5495C444.938 73.9177 444.898 75.6614 444.657 76.8878C443.677 81.945 438.485 85.4773 432.015 85.4773C428.868 85.4773 426.381 84.6465 425.187 83.1988C424.361 82.1963 424.115 80.7908 424.458 79.0172C425.296 74.659 429.921 70.246 437.132 70.246ZM294.886 118.798C294 118.199 293.037 117.669 292.033 117.191H295.194L294.886 118.798ZM277.495 135.88C277.087 136.244 276.423 136.487 275.654 136.532C276.047 136.194 276.664 135.915 277.495 135.88ZM272.552 70.7186L268.801 83.0669C268.56 79.7684 267.533 76.7709 265.732 74.1042C264.988 73.0122 264.102 72.0172 263.127 71.0719L272.552 70.7186ZM164.321 76.8853C163.343 81.945 158.144 85.4773 151.679 85.4773C148.535 85.4773 146.045 84.6465 144.851 83.1988C144.023 82.1963 143.779 80.7908 144.122 79.0172C144.965 74.6565 149.59 70.246 156.799 70.246C159.878 70.246 162.251 71.0644 163.478 72.5495C164.602 73.9177 164.557 75.6639 164.321 76.8853ZM207.672 117.037L207.55 117.296L207.525 117.015C207.575 117.02 207.622 117.03 207.672 117.037ZM263.485 100.597L259.105 115.03H242.281C250.881 112.191 258.592 107.433 263.485 100.597ZM265.311 117.191H266.249C265.901 117.338 265.562 117.487 265.227 117.644L265.311 117.191ZM84.3161 79.3331C79.5151 79.3331 75.3559 77.7559 73.1892 75.1166C71.9355 73.5893 71.5151 71.8977 71.9032 69.9475C73.1569 63.6664 81.5325 58.3604 90.1917 58.3604C96.0375 58.3604 101.453 60.5545 106.741 65.0346C105.343 67.6465 104.232 70.3828 103.423 73.2361C96.9629 77.3704 90.8609 79.3331 84.3161 79.3331ZM183.271 109.072L188.737 111.532C191.756 112.89 195.112 114.052 198.625 115.032H188.458L187.368 117.214L187.229 115.032H169.652C174.567 113.522 179.132 111.515 183.271 109.072ZM316.47 135.885L320.435 115.03H301.192L314.677 70.5893L318.789 70.746C318.03 72.7759 317.391 74.843 316.975 76.9749C315.057 86.8928 317.388 96.465 323.547 103.925C327.605 108.843 333.177 112.579 339.697 115.027H322.739L318.771 135.883L316.47 135.885ZM102.125 113.47L105.023 112.45L107.555 101.689C107.96 102.253 108.338 102.826 108.786 103.365C113.052 108.537 119.202 112.492 126.625 115.03H95.933C98.2539 114.594 100.388 114.079 102.125 113.47ZM449.988 115.03C452.48 114.261 454.881 113.37 457.187 112.358C457.525 113.169 457.935 113.952 458.505 114.642C458.627 114.786 458.786 114.895 458.913 115.03H449.988Z" fill="white"/>
<path d="M181.958 120.646L183.117 138.977H183.411C184.01 137.104 184.677 135.149 185.612 133.316L191.93 120.646H202.197L203.749 138.977H204.042C204.577 137.184 205.179 135.308 206 133.559L212.169 120.646H226.102L207.261 151.36H195.577L194.547 134.659H194.107C193.659 136.251 193.266 137.796 192.54 139.303L186.532 151.36H175.139L168.072 120.646H181.958Z" fill="#005DAA"/>
<path d="M225.124 120.646H238.029L236.064 130.992H244.276L246.243 120.646H259.149L253.313 151.36H240.408L242.435 140.689H234.221L232.194 151.36H219.288L225.124 120.646Z" fill="#005DAA"/>
<path d="M296.948 136.084C295.075 145.942 284.809 151.848 273.57 151.848C262.324 151.848 254.301 145.94 256.177 136.084C258.01 126.43 268.396 120.156 279.59 120.156C290.784 120.156 298.779 126.43 296.948 136.084ZM269.639 136.246C268.97 139.748 271.351 142.154 275.408 142.154C279.468 142.154 282.759 139.748 283.428 136.246C284.045 132.985 281.926 130.258 277.672 130.258C273.413 130.261 270.256 132.987 269.639 136.246ZM299.883 120.646H313.279L309.314 141.502H320.56L318.684 151.358H294.045L299.883 120.646ZM352.249 140.36L352.846 140.81C354.945 142.358 357.59 143.621 360.672 143.621C361.993 143.621 364.179 143.171 364.443 141.788C364.707 140.405 362.97 140.283 361.791 140.077L359.177 139.671C354.09 138.895 350.184 136.328 351.092 131.524C352.483 124.233 361.222 120.159 369.239 120.159C373.443 120.159 377.147 121.017 380.413 122.848L375.301 130.711C373.251 129.407 370.853 128.388 367.968 128.388C366.796 128.388 365.013 128.751 364.779 130.014C364.56 131.154 366.189 131.318 367.179 131.522L370.105 132.092C375.57 133.154 379.199 135.676 378.212 140.89C376.814 148.223 368.107 151.848 360.14 151.848C355.498 151.848 350.319 150.788 346.498 149.037L352.249 140.36Z" fill="#005DAA"/>
<path d="M398.269 140.239L397.734 134.821C397.59 133.517 397.6 132.174 397.607 130.868H397.117L392.896 140.239H398.269ZM386.607 151.36H372.431L391.077 120.646H405.888L413.202 151.36H399.025L398.533 147.532H388.416L386.607 151.36Z" fill="#005DAA"/>
<path d="M417.921 120.646H431.316L427.351 141.502H438.597L436.722 151.358H412.085L417.921 120.646ZM445.048 120.646H469.836L468.239 129.04H456.943L456.386 131.972H466.699L465.184 139.957H454.869L454.299 142.97H465.985L464.386 151.36H439.209L445.048 120.646Z" fill="#005DAA"/>
<path d="M263.304 65.4473L280.217 64.813L266.025 111.577H296.371L310.558 64.813L327.09 65.4473L333.826 43.2433H270.035L263.304 65.4473ZM200.47 77.5891C196.227 99.517 172.978 112.661 147.505 112.661C122.035 112.661 103.869 99.5195 108.112 77.5891C112.267 56.109 135.786 42.1562 161.147 42.1562C186.505 42.1562 204.625 56.1115 200.47 77.5891ZM138.605 77.9523C137.1 85.7458 142.49 91.0941 151.677 91.0941C160.869 91.0941 168.326 85.7483 169.834 77.9523C171.237 70.7036 166.431 64.6339 156.796 64.6339C147.162 64.6289 140.008 70.7036 138.605 77.9523Z" fill="#E31837"/>
<path d="M191.04 106.408C199.699 110.301 211.426 112.661 221.945 112.661C239.998 112.661 259.719 104.597 262.873 88.2831C265.117 76.6836 256.906 71.0643 244.513 68.7086L237.891 67.4399C235.652 66.9846 231.958 66.624 232.448 64.0842C232.99 61.2757 237.025 60.4573 239.684 60.4573C246.214 60.4573 251.649 62.7235 256.291 65.624L267.868 48.1339C260.46 44.0568 252.082 42.1563 242.557 42.1563C224.396 42.1563 204.59 51.2185 201.453 67.4399C199.383 78.1339 208.246 83.8429 219.761 85.5668L225.677 86.4697C228.358 86.9274 232.294 87.1961 231.697 90.2757C231.1 93.3553 226.147 94.3528 223.154 94.3528C216.177 94.3528 210.187 91.5443 205.428 88.1016L204.072 87.104L191.04 106.408ZM392.893 44.9647C386.824 43.1513 379.926 42.1563 373.057 42.1563C348.585 42.1563 326.341 58.1065 322.483 78.0443C318.712 97.5294 334.391 112.664 358.202 112.664C363.625 112.664 375.077 111.848 380.324 109.945L386.154 84.3901C380.523 88.2856 374.518 90.7334 367.54 90.7334C358.463 90.7334 351.719 84.9324 353.177 77.415C354.615 69.9822 363.177 64.0941 372.256 64.0941C379.122 64.0941 384.597 67.2658 388.756 70.9847L392.893 44.9647ZM441.48 42.1563C416.122 42.1563 392.602 56.1091 388.445 77.5892C384.204 99.517 402.371 112.661 427.844 112.661C453.311 112.661 476.565 99.5195 480.806 77.5892C484.955 56.1116 466.836 42.1563 441.48 42.1563ZM437.132 64.6289C446.766 64.6289 451.575 70.6986 450.167 77.9473C448.662 85.7409 441.202 91.0892 432.01 91.0892C422.819 91.0892 417.431 85.7434 418.938 77.9473C420.341 70.7036 427.498 64.6289 437.132 64.6289ZM115.936 29.629C108.361 27.4374 99.7639 26.2334 91.1992 26.2334C60.6743 26.2334 32.9305 45.5121 28.1221 69.6116C23.4231 93.1638 42.9753 111.455 72.6693 111.455C79.438 111.455 93.7241 110.47 100.259 108.171L107.53 77.2782C100.513 81.9897 93.0176 84.9473 84.3136 84.9473C72.9877 84.9473 64.5823 77.9349 66.3957 68.8404C68.1892 59.8603 78.8658 52.7359 90.1892 52.7359C98.7514 52.7359 105.582 56.5717 110.764 61.0618L115.936 29.629Z" fill="#E31837"/>
<path d="M462.132 108.254C462.587 105.868 465.247 103.945 468.142 103.945C471.015 103.945 472.963 105.868 472.51 108.254C472.05 110.654 469.378 112.577 466.5 112.577C463.607 112.577 461.68 110.652 462.132 108.254ZM471.157 108.254C471.52 106.333 470.142 105.072 467.923 105.072C465.67 105.072 463.849 106.333 463.488 108.254C463.122 110.177 464.461 111.45 466.717 111.45C468.933 111.45 470.791 110.179 471.157 108.254ZM469.309 110.51H467.968L467.125 108.597H466.247L465.883 110.51H464.744L465.602 105.993H468.232C469.391 105.993 470.018 106.313 469.819 107.376C469.667 108.149 469.063 108.547 468.364 108.602L469.309 110.51ZM467.647 107.734C468.217 107.734 468.707 107.734 468.801 107.251C468.876 106.853 468.383 106.853 467.814 106.853H466.58L466.418 107.734H467.647Z" fill="#E31837"/>
<path d="M30.2441 151.41H172.267L172.257 151.36H172.14L170.344 143.549H30.2441V151.41ZM30.2441 140.246H169.582L167.771 132.388H30.2441V140.246ZM30.2441 129.035H166.956L166.341 126.171L165.085 120.706H30.2441V129.035ZM327.013 120.646H351.799L350.204 129.04H338.911L338.351 131.972H348.665L347.15 139.957H336.836L336.264 142.97H347.948L346.354 151.36H321.172L327.013 120.646Z" fill="#005DAA"/>
</svg>
