<svg width="500" height="63" viewBox="0 0 500 63" fill="none" xmlns="http://www.w3.org/2000/svg">
<g clip-path="url(#clip0_15_17947)">
<path d="M454.991 23.2426H455.097C457.943 19.5533 461.263 18.9209 464.952 18.9209L464.267 28.3548C463.477 28.3021 462.686 28.3021 461.948 28.3021C454.623 28.3021 454.359 32.5184 454.095 37.4199L453.41 48.4349H441.974L443.502 26.5102C443.713 23.875 443.766 22.0831 443.66 18.8682H454.57L454.991 23.2426Z" fill="#0F059E"/>
<path d="M396.964 48.4353L399.915 6.06152H410.72L407.768 48.4353H396.964Z" fill="#0F059E"/>
<path d="M379.467 4.9541C388.215 4.9541 397.122 8.74877 396.753 19.3949H384.737C384.737 16.6016 383.103 13.4394 379.045 13.4394C374.987 13.4394 370.191 16.4962 369.347 25.245C368.504 33.9938 369.611 40.6872 376.726 40.6872C382.892 40.6872 384.105 35.3641 384.21 34.3628H396.121C396.121 39.1061 392.221 48.8563 376.041 48.8563C358.965 48.8563 355.961 36.4182 357.331 24.8761C358.543 15.1786 365.447 4.9541 379.467 4.9541Z" fill="#0F059E"/>
<path d="M342.258 24.8232H356.541L351.956 34.0464H337.673L342.258 24.8232Z" fill="#0F059E"/>
<path d="M320.07 62.6649H309.792L316.433 48.9093L305.576 18.8682H318.172L323.021 37.2091L330.769 18.8682H341.151L320.07 62.6649Z" fill="#0F059E"/>
<path d="M160.272 18.8677V22.8732H160.377C163.645 18.5515 168.177 18.1825 170.97 18.1825C174.976 18.1825 179.14 20.3961 179.93 23.4002C182.196 19.869 186.255 18.1298 190.734 18.0244C197.164 18.0244 201.644 22.1353 201.222 28.6706L199.799 48.4345H188.521L189.733 31.0949C189.891 28.3016 189.68 25.0867 185.938 25.0867C180.51 25.0867 180.721 31.1476 180.668 31.5166L179.561 48.4345H168.177L169.442 31.0949C169.495 28.1962 169.126 25.0867 165.542 25.0867C159.797 25.0867 159.955 31.1476 159.955 31.5166L158.796 48.4872H147.096L149.151 18.9204L160.272 18.8677Z" fill="#0F059E"/>
<path d="M136.397 18.8682H146.938L144.883 48.4349H134.342L136.397 18.8682Z" fill="#0F059E"/>
<path d="M119.69 6.06152L104.88 24.8767L118.056 48.4353H132.918L118.109 24.2443L133.709 6.06152H119.69Z" fill="#0F059E"/>
<path d="M93.549 6.06152H105.934L102.983 48.4353H90.5449L93.549 6.06152Z" fill="#0F059E"/>
<path d="M248.445 35.5751C248.129 39.6333 249.025 42.9536 253.241 42.9536C256.351 42.9536 258.301 40.8982 258.301 38.9482H268.631C268.42 42.532 265.89 45.3253 262.939 46.9591C260.251 48.5929 257.142 48.9092 253.821 48.9092C241.805 48.9092 237.114 43.9023 237.852 32.7291C238.484 23.4006 245.968 17.8667 254.875 18.0248C266.734 18.2356 270.528 25.1925 269.422 35.6278H248.445V35.5751ZM259.144 29.9885C259.25 28.4074 258.881 26.8263 258.09 25.5614C257.3 24.3492 256.087 23.5587 254.401 23.6641C250.501 23.8222 249.499 26.6155 248.972 29.9358H259.144V29.9885Z" fill="#0F059E"/>
<path d="M205.018 6.06152H216.086L214.926 22.9267H215.137C217.351 20.2915 220.46 18.078 224.466 18.078C233.531 18.078 237.009 26.0362 236.482 33.2039C236.008 40.477 232.16 48.8042 222.094 48.8042C218.668 48.8042 215.4 46.9069 213.872 44.746H213.661L212.976 48.3299H202.119L205.018 6.06152ZM213.872 34.0472C213.714 37.631 214.61 42.7433 218.668 42.7433C223.78 42.7433 225.045 37.631 225.256 33.5202C225.414 29.8836 224.729 24.5078 220.355 24.5605C214.768 24.5605 214.03 30.1471 213.872 34.0472Z" fill="#0F059E"/>
<path d="M291.979 48.4353L294.93 6.06152H305.734L302.783 48.4353H291.979Z" fill="#0F059E"/>
<path d="M282.861 23.2426H282.966C285.812 19.5533 289.132 18.9209 292.769 18.9209L292.084 28.3548C291.346 28.3021 290.555 28.3021 289.817 28.3021C282.492 28.3021 282.228 32.5184 281.965 37.4199L281.279 48.4349H269.843L271.371 26.5102C271.582 23.875 271.635 22.0831 271.529 18.8682H282.439L282.861 23.2426Z" fill="#0F059E"/>
<path d="M476.811 31.9914L487.351 18.8682H500L488.616 31.3589L499.368 48.4349H485.665L476.811 31.9914Z" fill="#0F059E"/>
<path d="M464.53 48.4353L467.482 6.06152H478.655L475.703 48.4353H464.53Z" fill="#0F059E"/>
<path d="M429.008 44.7978H428.903C426.531 47.0114 424.265 48.6452 419.943 48.6452C412.934 48.6452 410.035 44.6924 410.035 39.4748C410.035 33.6246 416.043 29.83 426.742 29.83H430.273C430.432 27.2475 431.327 22.9785 426.953 22.9785C423.791 22.9785 423.053 25.9826 423 27.4056H412.828C413.039 23.5582 414.726 20.9758 417.835 19.6582C420.998 18.2352 424.845 17.9189 428.113 17.9189C434.121 17.9189 441.447 20.9231 440.972 28.1962L440.129 42.3735C440.024 43.5856 440.024 44.9032 440.182 48.4344H429.641L429.008 44.7978ZM424.16 42.7951C429.377 42.7951 429.694 37.9464 429.957 33.9936C427.585 33.9936 425.372 33.8882 423.791 34.626C422.104 35.4693 420.839 36.8396 420.681 38.895C420.576 41.1086 422.052 42.7951 424.16 42.7951Z" fill="#0F059E"/>
<path d="M137.451 6.06152H147.992L147.465 13.7036H136.924L137.451 6.06152Z" fill="#0F059E"/>
<path d="M27.3005 6.3246V24.3493C25.8775 21.0816 22.7153 18.1829 19.5004 16.2329H5.95552C10.3299 19.5005 17.2868 24.6128 17.2868 28.7237C17.2868 30.7791 14.8097 31.148 13.3867 31.148H4.84874V40.9509H18.2355C21.2396 40.9509 25.5613 39.8442 27.3005 35.2589V48.3822H39.7386V35.2589C41.4778 39.8969 45.7995 40.9509 48.8036 40.9509H62.1904V31.148H53.6524C52.2294 31.148 49.7523 30.7264 49.7523 28.7237C49.7523 24.6128 56.7092 19.5005 61.0836 16.2329H47.5387C44.3238 18.1829 41.1616 21.0816 39.7386 24.3493V6.3246H27.3005ZM33.5196 0.000160765C52.0186 0.000160765 67.0391 12.9126 67.0391 28.8291C67.0391 44.7456 52.0186 57.658 33.5196 57.658C15.0206 57.658 0 44.7456 0 28.8291C0 12.8599 14.9679 -0.0525429 33.5196 0.000160765Z" fill="#0F059E"/>
</g>
<defs>
<clipPath id="clip0_15_17947">
<rect width="500" height="62.6649" fill="white"/>
</clipPath>
</defs>
</svg>
