<svg width="500" height="100" viewBox="0 0 500 100" fill="none" xmlns="http://www.w3.org/2000/svg">
<g clip-path="url(#clip0_15_17939)">
<path fill-rule="evenodd" clip-rule="evenodd" d="M84.3198 94.73C84.3198 97.2024 82.4656 99.6747 78.9848 99.6747C77.1305 99.6747 74.5605 98.959 74.5605 97.6253C74.5605 96.9096 74.9834 96.4216 75.6015 96.4216C75.8943 96.4216 76.1871 96.5843 76.5775 96.812C77.1305 97.1373 77.8787 97.5602 79.0173 97.5602C80.6438 97.5602 81.7824 96.4542 81.7824 94.8276C81.7824 93.3962 80.4486 92.9408 78.8546 92.3878C76.9028 91.7372 74.6907 90.989 74.6907 88.1913C74.6907 86.2069 76.5775 84.1249 79.3751 84.1249C81.2944 84.1249 83.3114 84.9057 83.3114 86.1093C83.3114 86.7274 82.8559 87.1828 82.2704 87.1828C81.8475 87.1828 81.5547 86.9877 81.2619 86.7925C80.839 86.5322 80.351 86.2395 79.3101 86.2395C78.0739 86.2395 77.2281 86.9877 77.2281 88.0612C77.2281 89.3299 78.5293 89.7853 80.0257 90.3058C81.9451 90.9564 84.3198 91.8022 84.3198 94.73ZM89.5898 86.4672V90.7938H93.3634C94.1116 90.7938 94.5345 91.2167 94.5345 91.8998C94.5345 92.583 94.1116 93.0059 93.3634 93.0059H89.5898V97.3325H93.7863C94.502 97.3325 94.9574 97.7554 94.9574 98.4385C94.9574 99.1217 94.502 99.5446 93.7863 99.5446H88.4838C87.703 99.5446 87.2151 99.0892 87.2151 98.3084V85.4912C87.2151 84.7105 87.703 84.2551 88.4838 84.2551H93.7863C94.502 84.2551 94.9574 84.678 94.9574 85.3611C94.9574 86.0443 94.502 86.4672 93.7863 86.4672H89.5898ZM100.715 86.4672V90.7938H104.489C105.205 90.7938 105.66 91.2167 105.66 91.8998C105.66 92.583 105.205 93.0059 104.489 93.0059H100.715V97.3325H104.879C105.595 97.3325 106.05 97.7554 106.05 98.4385C106.05 99.1217 105.595 99.5446 104.879 99.5446H99.5768C98.7961 99.5446 98.3081 99.0892 98.3081 98.3084V85.4912C98.3081 84.7105 98.7961 84.2551 99.5768 84.2551H104.879C105.595 84.2551 106.05 84.678 106.05 85.3611C106.05 86.0443 105.595 86.4672 104.879 86.4672H100.715ZM111.808 85.3611V98.4385C111.808 99.1868 111.353 99.6747 110.637 99.6747C109.922 99.6747 109.434 99.1868 109.434 98.4385V85.3611C109.434 84.6129 109.922 84.1249 110.637 84.1249C111.353 84.1249 111.808 84.6129 111.808 85.3611ZM127.618 85.3611V98.3409C127.618 99.2193 127.228 99.6747 126.512 99.6747C125.829 99.6747 125.504 99.3819 124.983 98.6012L117.892 88.5166V98.4385C117.892 99.1868 117.404 99.6747 116.688 99.6747C115.972 99.6747 115.484 99.1868 115.484 98.4385V85.4587C115.484 84.5804 115.875 84.1249 116.59 84.1249C117.274 84.1249 117.599 84.4502 118.119 85.1985L125.244 95.283V85.3611C125.244 84.6129 125.699 84.1249 126.415 84.1249C127.13 84.1249 127.618 84.6129 127.618 85.3611ZM144.209 92.3227C144.209 97.1373 141.9 99.6747 137.54 99.6747C132.856 99.6747 130.741 95.6409 130.741 91.8998C130.741 88.0286 132.921 84.1249 137.833 84.1249C140.891 84.1249 143.201 85.719 143.201 86.7599C143.201 86.9118 143.179 87.0527 143.136 87.1828C143.071 87.3347 142.984 87.4648 142.875 87.5732C142.767 87.6817 142.648 87.7576 142.518 87.8009C142.366 87.866 142.214 87.8985 142.062 87.8985C141.639 87.8985 141.281 87.6383 140.826 87.3455C140.143 86.8575 139.297 86.2395 137.703 86.2395C134.613 86.2395 133.246 89.0696 133.246 91.8998C133.246 94.5023 134.45 97.5602 137.768 97.5602C140.728 97.5602 141.802 95.0228 141.802 93.3962V92.7782H139.492C138.744 92.7782 138.321 92.3553 138.321 91.6721C138.321 90.989 138.744 90.5661 139.492 90.5661H142.583C143.721 90.5661 144.209 91.0865 144.209 92.3227ZM164.151 89.1672C164.151 91.8998 161.906 94.0469 159.076 94.0469H156.506V98.4385C156.506 99.1868 156.018 99.6747 155.302 99.6747C154.587 99.6747 154.099 99.1868 154.099 98.4385V85.4912C154.099 84.7105 154.587 84.2551 155.367 84.2551H159.011C162.036 84.2551 164.151 86.272 164.151 89.1672ZM158.881 86.3696H156.506V91.9324H158.946C160.572 91.9324 161.743 90.7612 161.743 89.1672C161.743 87.8009 160.995 86.3696 158.881 86.3696ZM173.129 99.6747C169.388 99.6747 166.33 96.1939 166.33 91.8998C166.33 87.6057 169.388 84.1249 173.129 84.1249C176.903 84.1249 179.961 87.6057 179.961 91.8998C179.961 96.1939 176.903 99.6747 173.129 99.6747ZM177.456 91.8998C177.456 88.7769 175.536 86.2395 173.162 86.2395C170.754 86.2395 168.835 88.7769 168.835 91.8998C168.835 95.0228 170.754 97.5602 173.162 97.5602C175.536 97.5602 177.456 95.0228 177.456 91.8998ZM192.062 94.73C192.062 97.2024 190.208 99.6747 186.727 99.6747C184.873 99.6747 182.303 98.959 182.303 97.6253C182.303 96.9096 182.726 96.4216 183.344 96.4216C183.637 96.4216 183.929 96.5843 184.32 96.812C184.873 97.1373 185.621 97.5602 186.76 97.5602C188.386 97.5602 189.525 96.4542 189.525 94.8276C189.525 93.3962 188.191 92.9408 186.597 92.3878C184.645 91.7372 182.433 90.989 182.433 88.1913C182.433 86.2069 184.32 84.1249 187.117 84.1249C189.037 84.1249 191.054 84.9057 191.054 86.1093C191.054 86.2611 191.032 86.4021 190.989 86.5322C190.945 86.6624 190.869 86.7708 190.761 86.8575C190.653 86.966 190.533 87.0527 190.403 87.1178C190.273 87.1612 190.143 87.1828 190.013 87.1828C189.59 87.1828 189.297 86.9877 189.004 86.7925C188.581 86.5322 188.093 86.2395 187.052 86.2395C185.816 86.2395 184.97 86.9877 184.97 88.0612C184.97 89.3299 186.272 89.7853 187.768 90.3058C189.687 90.9564 192.062 91.8022 192.062 94.73ZM203.936 94.73C203.936 97.2024 202.114 99.6747 198.601 99.6747C196.747 99.6747 194.177 98.959 194.177 97.6253C194.177 96.9096 194.6 96.4216 195.218 96.4216C195.543 96.4216 195.836 96.5843 196.194 96.812C196.747 97.1373 197.495 97.5602 198.633 97.5602C200.26 97.5602 201.431 96.4542 201.431 94.8276C201.431 93.3962 200.065 92.9408 198.471 92.3878C196.519 91.7372 194.339 90.989 194.339 88.1913C194.339 86.2069 196.194 84.1249 198.991 84.1249C200.911 84.1249 202.927 84.9057 202.927 86.1093C202.927 86.7274 202.472 87.1828 201.886 87.1828C201.464 87.1828 201.171 86.9877 200.878 86.7925C200.455 86.5322 199.967 86.2395 198.926 86.2395C197.69 86.2395 196.844 86.9877 196.844 88.0612C196.844 89.3299 198.145 89.7853 199.642 90.3058C201.561 90.9564 203.936 91.8022 203.936 94.73ZM209.336 85.3611V98.4385C209.336 99.1868 208.881 99.6747 208.165 99.6747C207.449 99.6747 206.961 99.1868 206.961 98.4385V85.3611C206.961 84.6129 207.449 84.1249 208.165 84.1249C208.881 84.1249 209.336 84.6129 209.336 85.3611ZM222.999 94.9577C222.999 97.6578 220.852 99.5446 217.827 99.5446H214.281C213.5 99.5446 213.012 99.0892 213.012 98.3084V85.4912C213.012 84.7105 213.5 84.2551 214.281 84.2551H217.534C220.332 84.2551 221.828 86.2069 221.828 88.0287C221.828 89.4275 221.242 90.5986 220.266 91.2167C221.86 91.7046 222.999 93.2011 222.999 94.9577ZM217.827 92.5179H215.419V97.4626H217.762C219.421 97.4626 220.592 96.4216 220.592 94.9577C220.592 93.4938 219.486 92.5179 217.827 92.5179ZM217.241 90.501C218.575 90.501 219.453 89.6552 219.453 88.3865C219.453 87.0853 218.672 86.3696 217.306 86.3696H215.419V90.501H217.241ZM228.464 85.3611V98.4385C228.464 99.1868 227.976 99.6747 227.261 99.6747C226.545 99.6747 226.057 99.1868 226.057 98.4385V85.3611C226.057 84.6129 226.545 84.1249 227.261 84.1249C227.976 84.1249 228.464 84.6129 228.464 85.3611ZM239.362 98.4385C239.362 99.1217 238.939 99.5446 238.191 99.5446H233.409C232.628 99.5446 232.14 99.0892 232.14 98.3084V85.3611C232.14 84.6129 232.628 84.1249 233.344 84.1249C234.06 84.1249 234.515 84.6129 234.515 85.3611V97.3325H238.191C238.939 97.3325 239.362 97.7554 239.362 98.4385ZM244.469 85.3611V98.4385C244.469 99.1868 243.981 99.6747 243.266 99.6747C242.583 99.6747 242.095 99.1868 242.095 98.4385V85.3611C242.095 84.6129 242.583 84.1249 243.266 84.1249C243.981 84.1249 244.469 84.6129 244.469 85.3611ZM257.157 85.3611C257.157 86.0443 256.734 86.4672 255.985 86.4672H253.481V98.4385C253.481 99.1868 252.993 99.6747 252.277 99.6747C251.561 99.6747 251.073 99.1868 251.073 98.4385V86.4672H248.568C247.853 86.4672 247.397 86.0443 247.397 85.3611C247.397 84.678 247.853 84.2551 248.568 84.2551H255.985C256.734 84.2551 257.157 84.678 257.157 85.3611ZM262.492 85.3611V98.4385C262.492 99.1868 262.004 99.6747 261.288 99.6747C260.572 99.6747 260.084 99.1868 260.084 98.4385V85.3611C260.084 84.6129 260.572 84.1249 261.288 84.1249C262.004 84.1249 262.492 84.6129 262.492 85.3611ZM268.445 86.4672V90.7938H272.218C272.934 90.7938 273.389 91.2167 273.389 91.8998C273.389 92.583 272.934 93.0059 272.218 93.0059H268.445V97.3325H272.609C273.357 97.3325 273.78 97.7554 273.78 98.4385C273.78 99.1217 273.357 99.5446 272.609 99.5446H267.306C266.525 99.5446 266.07 99.0892 266.07 98.3084V85.4912C266.07 84.7105 266.525 84.2551 267.306 84.2551H272.609C273.357 84.2551 273.78 84.678 273.78 85.3611C273.78 86.0443 273.357 86.4672 272.609 86.4672H268.445ZM286.142 94.73C286.142 97.2024 284.32 99.6747 280.806 99.6747C278.952 99.6747 276.382 98.959 276.382 97.6253C276.382 96.9096 276.805 96.4216 277.456 96.4216C277.749 96.4216 278.041 96.5843 278.399 96.812C278.952 97.1373 279.7 97.5602 280.839 97.5602C282.498 97.5602 283.637 96.4542 283.637 94.8276C283.637 93.3962 282.27 92.9408 280.709 92.3878C278.757 91.7372 276.545 90.989 276.545 88.1913C276.545 86.2069 278.432 84.1249 281.229 84.1249C283.116 84.1249 285.166 84.9057 285.166 86.1093C285.166 86.2611 285.133 86.4021 285.068 86.5322C285.025 86.6624 284.949 86.7708 284.84 86.8575C284.754 86.966 284.645 87.0527 284.515 87.1178C284.385 87.1612 284.244 87.1828 284.092 87.1828C283.669 87.1828 283.409 86.9877 283.084 86.7925C282.661 86.5322 282.173 86.2395 281.164 86.2395C279.928 86.2395 279.05 86.9877 279.05 88.0612C279.05 89.3299 280.351 89.7853 281.847 90.3058C283.767 90.9564 286.142 91.8022 286.142 94.73ZM298.471 85.3611V98.4385C298.471 99.1868 297.983 99.6747 297.267 99.6747C296.551 99.6747 296.096 99.1868 296.096 98.4385V85.3611C296.096 84.6129 296.551 84.1249 297.267 84.1249C297.983 84.1249 298.471 84.6129 298.471 85.3611ZM314.281 85.3611V98.3409C314.281 99.2193 313.89 99.6747 313.175 99.6747C312.492 99.6747 312.166 99.3819 311.646 98.6012L304.521 88.5166V98.4385C304.521 99.1868 304.066 99.6747 303.35 99.6747C302.635 99.6747 302.147 99.1868 302.147 98.4385V85.4587C302.147 84.5695 302.515 84.1249 303.253 84.1249C303.936 84.1249 304.261 84.4502 304.782 85.1985L311.873 95.283V85.3611C311.873 84.6129 312.361 84.1249 313.077 84.1249C313.793 84.1249 314.281 84.6129 314.281 85.3611ZM335.003 89.1672C335.003 91.8998 332.791 94.0469 329.961 94.0469H327.358V98.4385C327.358 99.1868 326.903 99.6747 326.187 99.6747C325.471 99.6747 324.983 99.1868 324.983 98.4385V85.4912C324.983 84.7105 325.471 84.2551 326.252 84.2551H329.896C332.888 84.2551 335.003 86.272 335.003 89.1672ZM329.733 86.3696H327.358V91.9324H329.831C331.457 91.9324 332.628 90.7612 332.628 89.1672C332.628 87.8009 331.847 86.3696 329.733 86.3696ZM343.916 99.6747C340.143 99.6747 337.085 96.1939 337.085 91.8998C337.085 87.6057 340.143 84.1249 343.916 84.1249C347.69 84.1249 350.715 87.6057 350.715 91.8998C350.715 96.1939 347.69 99.6747 343.916 99.6747ZM348.211 91.8998C348.211 88.7769 346.291 86.2395 343.916 86.2395C341.542 86.2395 339.59 88.7769 339.59 91.8998C339.59 95.0228 341.542 97.5602 343.916 97.5602C346.291 97.5602 348.211 95.0228 348.211 91.8998ZM361.971 85.3611C361.971 86.0443 361.516 86.4672 360.8 86.4672H358.263V98.4385C358.263 99.1868 357.775 99.6747 357.059 99.6747C356.343 99.6747 355.888 99.1868 355.888 98.4385V86.4672H353.35C352.635 86.4672 352.179 86.0443 352.179 85.3611C352.179 84.678 352.635 84.2551 353.35 84.2551H360.8C361.516 84.2551 361.971 84.678 361.971 85.3611ZM375.667 97.7554C375.797 98.0807 375.894 98.406 375.894 98.6663C375.894 99.2518 375.406 99.6747 374.756 99.6747C374.192 99.6747 373.801 99.3928 373.585 98.8289L372.674 96.3566H366.135L365.257 98.8289C365.04 99.3928 364.649 99.6747 364.086 99.6747C363.402 99.6747 362.947 99.2518 362.947 98.6663C362.947 98.406 363.045 98.0807 363.175 97.7554L363.207 97.6578L367.827 85.4262C368.152 84.5478 368.672 84.1249 369.421 84.1249C370.136 84.1249 370.689 84.5478 370.982 85.4262L375.667 97.7554ZM369.421 87.2154L366.916 94.2095H371.926L369.421 87.2154ZM386.63 85.3286C386.63 86.0443 386.207 86.4672 385.458 86.4672H382.953V98.406C382.953 99.1542 382.466 99.6747 381.75 99.6747C381.034 99.6747 380.579 99.1542 380.579 98.406V86.4672H378.041C377.326 86.4672 376.87 86.0443 376.87 85.3286C376.87 84.6454 377.326 84.2225 378.041 84.2225H385.458C386.207 84.2225 386.63 84.6454 386.63 85.3286ZM394.762 99.6747C390.989 99.6747 387.963 96.1939 387.963 91.8673C387.963 87.5732 390.989 84.0924 394.762 84.0924C398.536 84.0924 401.594 87.5732 401.594 91.8673C401.594 96.1939 398.536 99.6747 394.762 99.6747ZM399.056 91.8673C399.056 88.7443 397.137 86.2069 394.762 86.2069C392.387 86.2069 390.468 88.7443 390.468 91.8673C390.468 95.0228 392.387 97.5602 394.762 97.5602C397.137 97.5602 399.056 95.0228 399.056 91.8673ZM406.994 86.4672V90.7612H410.767C411.483 90.7612 411.939 91.1841 411.939 91.8673C411.939 92.583 411.483 93.0059 410.767 93.0059H406.994V97.3H411.158C411.874 97.3 412.329 97.7229 412.329 98.406C412.329 99.1217 411.874 99.5446 411.158 99.5446H405.855C405.075 99.5446 404.587 99.0566 404.587 98.2759V85.4912C404.587 84.7105 405.075 84.2225 405.855 84.2225H411.158C411.874 84.2225 412.329 84.6454 412.329 85.3286C412.329 86.0443 411.874 86.4672 411.158 86.4672H406.994ZM425.016 94.6975C425.016 97.1698 423.194 99.6747 419.681 99.6747C417.827 99.6747 415.257 98.959 415.257 97.5927C415.257 96.8771 415.68 96.3891 416.33 96.3891C416.623 96.3891 416.916 96.5517 417.274 96.7795C417.827 97.1048 418.607 97.5277 419.713 97.5277C421.34 97.5277 422.511 96.3891 422.511 94.7951C422.511 93.3637 421.145 92.9083 419.583 92.3553C417.632 91.6721 415.419 90.9239 415.419 88.1262C415.419 86.1419 417.306 84.0273 420.104 84.0273C421.991 84.0273 424.04 84.8406 424.04 86.0443C424.04 86.1744 424.008 86.3045 423.942 86.4346C423.899 86.5648 423.823 86.684 423.715 86.7925C423.628 86.9009 423.509 86.9768 423.357 87.0202C423.227 87.0853 423.097 87.1178 422.967 87.1178C422.544 87.1178 422.251 86.9226 421.958 86.7274C421.535 86.4672 421.047 86.1419 420.039 86.1419C418.803 86.1419 417.924 86.9226 417.924 87.9961C417.924 89.2648 419.225 89.7203 420.722 90.2407C422.641 90.9239 425.016 91.7372 425.016 94.6975Z" fill="#F06323"/>
<path fill-rule="evenodd" clip-rule="evenodd" d="M375.082 56.3433C375.082 60.2796 369.161 67.4039 362.98 67.4039C353.579 67.4039 358.523 47.2347 356.051 47.2347C354.555 47.2347 346.162 61.0278 343.429 63.7279C341.217 65.94 337.248 67.4039 335.524 67.4039C331.067 67.4039 335.264 57.3193 337.996 42.5502C335.784 43.7214 332.596 44.9575 329.994 45.8033C329.311 55.5951 322.804 67.4039 312.752 67.4039C306.962 67.4039 303.091 63.0772 301.854 57.1241C298.178 62.6543 292.648 67.4039 287.541 67.4039C281.36 67.4039 280.872 61.7435 282.336 52.1469C275.927 61.7435 266.754 67.4039 260.345 67.4039C260.15 67.4039 259.976 67.4039 259.825 67.4039C255.888 67.4039 252.895 64.4761 252.895 61.7435C252.895 59.3037 267.014 62.264 262.557 43.2985C258.849 49.1866 249.707 67.4039 234.125 67.4039C226.448 67.4039 222.251 62.4917 222.251 54.8795C222.251 43.2985 230.644 29.0174 241.542 29.0174C247.463 29.0174 249.935 32.9536 249.935 37.3778C249.935 46.2913 240.957 54.5541 233.475 55.3024C233.702 57.7096 234.45 59.3037 236.337 59.3037C244.015 59.3037 256.116 42.5502 259.337 34.4501C260.345 31.9777 266.526 28.5294 268.998 28.5294C272.447 28.5294 273.683 45.7708 273.943 51.6589C273.943 51.8975 273.932 52.1252 273.91 52.342C279.766 46.5515 284.711 39.2646 286.044 34.938C286.283 34.0922 286.522 33.2464 286.76 32.4006C286.999 31.5548 287.237 30.709 287.476 29.8632C287.714 29.0174 287.964 28.1716 288.224 27.3258C288.463 26.48 288.712 25.645 288.972 24.8209C287.216 24.6908 285.719 24.5932 284.581 24.5932C279.864 24.5932 278.4 26.0571 278.4 24.1052C278.4 21.1449 281.1 18.1846 286.532 18.1846H290.924C291.217 17.2087 291.51 16.2978 291.737 15.4845C292.974 11.5483 298.666 8.58798 302.115 8.58798C303.351 8.58798 303.871 9.33619 303.351 10.8001C302.961 12.2965 302.18 14.9315 301.236 18.1846H303.123C312.525 18.1846 315.485 14.0206 315.485 16.9484C315.485 20.3967 313.501 26.0571 306.083 26.0571C304.229 26.0571 301.724 25.8944 298.992 25.6667C295.121 38.8743 290.599 55.3674 293.234 55.3674C295.186 55.3674 299.675 49.6095 303.416 43.0057C306.506 35.2633 312.687 28.7897 317.957 28.7897C320.169 28.7897 321.406 30.2536 321.406 32.7259C324.366 32.7259 327.717 33.7994 329.245 38.2236C332.694 36.2393 337.085 33.4416 339.232 32.2379C341.445 31.0018 345.153 29.9933 347.137 29.9933C351.334 29.9933 349.35 37.1501 346.389 48.2106C349.122 45.0226 352.147 40.4032 354.555 38.126C356.897 35.9465 361.744 34.938 363.696 34.938C369.389 34.938 364.932 57.3193 369.389 57.3193C371.373 57.3193 375.082 53.1553 375.082 56.3433ZM233.702 49.1866C240.469 48.7962 245.674 37.1501 241.282 37.1501C239.395 37.1501 234.938 42.1924 233.702 49.1866ZM322.642 46.7467C318.705 46.7467 316.461 43.0382 317.697 38.614C313.013 42.0623 308.556 58.3277 315.485 58.3277C319.193 58.2952 322.642 50.4227 322.642 46.7467ZM166.363 38.126C166.363 57.0916 152.993 67.4039 144.112 67.4039C139.655 67.4039 135.426 64.6387 134.581 54.9445C130.807 62.2314 123.65 67.4039 119.128 67.4039C114.411 67.4039 112.427 63.9556 114.672 50.195C111.711 54.8469 108.003 60.2796 103.546 64.7038C101.562 66.6882 97.3652 67.4039 95.641 67.4039C92.4205 67.4039 93.6567 62.0037 96.8772 46.9744C93.8844 52.4071 87.9638 60.7676 83.507 65.1917C82.0106 66.6882 78.8226 67.4039 76.8382 67.4039C73.6176 67.4039 74.5935 64.2158 76.5779 51.4312C71.1453 60.0193 65.7126 67.4039 59.0112 67.4039C54.8148 67.4039 51.8544 64.4435 53.5786 56.3433C51.5942 60.7676 46.1615 67.4039 40.7289 67.4039C35.5239 67.4039 32.0756 63.7279 32.0756 57.0916C32.0756 44.2744 40.7289 28.2692 53.8388 28.2692C58.5233 28.2692 62.2318 31.0018 62.2318 35.9139C62.2318 37.3778 60.0197 35.426 56.5389 35.426C47.8857 35.426 39.9807 56.3433 44.9254 56.3433C49.6423 56.3433 54.3268 45.2503 57.2871 38.8743C58.5233 36.4019 64.7041 40.5984 64.7041 43.0382C64.7041 47.7227 60.7679 55.5951 63.2403 55.5951C65.7126 55.5951 72.8694 44.7623 77.5864 35.9139C78.8226 33.4416 83.507 30.7415 85.9794 30.7415C88.712 30.7415 87.9637 37.8658 86.7276 49.707C89.9481 45.7708 95.3808 35.426 99.317 32.9536C101.301 31.7175 104.294 29.9933 106.246 29.9933C109.727 29.9933 108.491 41.5743 107.255 49.707C110.963 43.5262 114.184 38.614 115.908 37.1501C117.144 36.1417 120.365 33.4416 122.577 33.4416C128.009 33.4416 122.577 54.8795 125.049 54.8795C127.782 54.8795 134.45 44.2744 135.947 37.6381C135.947 37.6598 135.958 37.6706 135.979 37.6706C137.996 27.0005 141.575 15.9725 143.592 10.5724C145.316 6.86384 150.521 4.65174 153.481 4.65174C155.953 4.65174 156.474 5.88792 155.238 8.84823C151.009 18.9328 139.883 56.8313 147.3 56.8313C153.741 56.8313 156.702 35.6537 150.781 35.6537C147.56 35.6537 152.277 29.9933 158.686 29.9933C164.607 29.9933 166.363 34.1898 166.363 38.126ZM30.0913 59.5314C30.0913 63.7279 11.0282 67.4039 6.3437 67.4039C-0.0974196 67.4039 -0.325136 62.7519 0.650791 55.3674C2.89542 40.5984 5.85574 24.8534 11.2884 5.88792C12.0366 3.41557 18.7054 0.487786 21.1778 0.487786C23.6501 0.487786 24.3984 1.20347 23.9104 3.67582C22.1863 12.7845 16.4933 31.4897 13.0125 46.9744C12.0366 50.9107 11.2884 54.8469 14.509 54.8469C17.7295 54.8469 23.1622 54.6192 25.8948 54.6192C27.8466 54.6192 30.0913 57.0916 30.0913 59.5314ZM231.88 6.14816C231.88 25.0812 211.353 67.4039 200.976 67.4039C197.268 67.4039 194.047 65.1918 194.047 50.4227C191.835 57.8072 185.394 67.4039 179.961 67.4039C172.772 67.4039 170.299 48.9588 170.299 27.2933C170.299 17.9569 171.308 9.82416 172.284 5.88792C173.032 2.69989 178.465 0.227539 182.921 0.227539C184.906 0.227539 185.394 0.97575 185.166 2.69989C183.182 12.7845 181.946 23.1293 181.946 31.9777C181.946 42.0623 181.685 51.6589 184.418 51.6589C187.118 51.6589 194.047 31.4897 195.283 27.2933C196.519 20.3967 196.78 18.1846 198.244 13.5327C198.992 11.0603 203.936 7.8723 207.905 7.8723C209.402 7.8723 210.378 8.36026 210.378 9.82416C210.378 12.7845 204.685 29.7656 204.685 45.0226C204.685 50.4227 205.173 51.4312 206.409 51.4312C209.402 51.4312 219.291 23.1293 221.015 12.0363C221.503 8.36026 227.196 4.16378 230.156 4.16378C231.393 4.16378 231.88 4.91199 231.88 6.14816ZM373.845 43.2334C370.95 43.2334 368.575 40.8912 368.575 37.9959C368.575 35.1007 370.95 32.7584 373.845 32.7584C376.741 32.7584 379.115 35.1007 379.115 37.9959C379.115 40.8912 376.741 43.2334 373.845 43.2334ZM378.27 37.9959C378.27 35.5886 376.285 33.6042 373.845 33.6042C371.406 33.6042 369.421 35.5886 369.421 37.9959C369.421 40.4357 371.406 42.3876 373.845 42.3876C376.285 42.3876 378.27 40.4357 378.27 37.9959ZM375.016 38.4514L376.188 40.761H375.049L373.943 38.5489H372.837V40.761H371.861V35.0356H374.366C375.374 35.0356 376.253 35.5886 376.253 36.7597C376.253 37.6706 375.765 38.2236 375.016 38.4514ZM374.333 35.979H372.837V37.6055H374.333C374.854 37.6055 375.244 37.3778 375.244 36.7923C375.244 36.2718 374.854 35.979 374.333 35.979Z" fill="#163B64"/>
<path fill-rule="evenodd" clip-rule="evenodd" d="M499.837 66.7858C498.373 66.7858 496.616 66.9159 495.087 66.7858C494.437 66.7533 493.689 66.8183 493.07 66.7533C492.257 66.6557 491.411 66.8834 490.631 66.7858C489.785 66.6882 488.386 66.7858 487.605 66.7208C487.117 66.7208 486.564 66.7858 486.076 66.7533C486.055 66.7533 486.022 66.7533 485.979 66.7533C485.957 66.7533 485.925 66.7533 485.881 66.7533C485.859 66.7533 485.827 66.7533 485.784 66.7533C485.762 66.7533 485.729 66.7533 485.686 66.7533C483.864 66.6232 482.075 66.8834 480.091 66.7533C480.026 66.7533 479.993 66.7858 479.895 66.7533C479.31 66.6882 478.627 66.8183 477.976 66.8183C476.773 66.7858 475.536 66.8183 474.235 66.8834C473.617 66.8834 472.966 66.9485 472.348 66.9159C470.819 66.8183 469.323 66.9485 467.696 66.8509C466.102 66.7858 464.378 66.7858 462.752 66.7858C462.654 66.5256 462.589 66.2978 462.557 65.8424C462.524 64.9641 462.394 63.5978 462.459 63.2725C462.426 63.0773 462.459 62.7845 462.426 62.4917C462.426 62.0038 462.361 61.4833 462.426 60.9628C462.426 60.8001 462.524 60.6049 462.524 60.4098C462.752 59.1411 462.817 57.8398 463.012 56.5711C463.055 56.2675 463.11 55.9639 463.175 55.6602C463.218 55.3566 463.283 55.053 463.37 54.7494C463.457 54.4458 463.543 54.153 463.63 53.871C463.717 53.5674 463.814 53.2746 463.923 52.9927C464.476 51.4963 465.029 50.0324 465.81 48.7637C466.395 47.9179 466.916 47.1046 467.566 46.3239C467.761 46.0962 468.022 45.8684 468.184 45.5757C468.282 45.4781 468.705 45.0877 468.77 44.9576C469.128 44.6648 469.778 43.9817 469.843 43.9166C470.299 43.5913 470.624 43.331 471.015 43.0383C471.405 42.7346 471.795 42.4419 472.186 42.1599C472.771 41.8997 473.259 41.6394 473.812 41.3792C474.333 41.1515 474.853 40.8912 475.439 40.6635C475.601 40.5659 475.959 40.4033 475.959 40.4033C475.959 40.4033 476.707 40.0779 477.065 39.9153C478.074 39.6876 479.147 39.5249 480.188 39.3297C482.465 39.102 485.035 39.3297 486.987 39.8828C487.508 40.0454 487.898 40.0779 488.288 40.2731C488.354 40.3057 488.386 40.3382 488.419 40.3707C488.614 40.4683 488.841 40.5659 489.069 40.696C489.134 40.7286 489.199 40.7936 489.264 40.8262C489.427 40.8912 489.525 40.9563 489.687 41.0213C489.882 41.1189 490.013 41.184 490.208 41.2816C490.338 41.3466 490.696 41.5418 490.761 41.6069C490.826 41.6394 490.891 41.7045 490.989 41.737C491.379 41.9973 491.834 42.3226 492.225 42.5828C492.485 42.778 492.68 43.0383 492.94 43.2009C493.168 43.3961 493.233 43.4612 493.591 43.7539C493.689 43.9491 493.721 44.0142 493.819 44.1443L493.916 44.2419C493.949 44.2744 494.144 44.5672 494.209 44.6648C494.372 44.86 494.502 44.9576 494.664 45.1853C494.795 45.3588 494.925 45.5431 495.055 45.7383C495.163 45.9335 495.283 46.1395 495.413 46.3564C495.543 46.5516 495.662 46.7468 495.771 46.942C495.901 47.1371 496.02 47.3432 496.128 47.56C496.15 47.6034 496.172 47.636 496.193 47.6576C496.215 47.701 496.248 47.7444 496.291 47.7878C496.313 47.8095 496.334 47.842 496.356 47.8854C496.378 47.9287 496.399 47.9721 496.421 48.0155C496.486 48.1131 496.584 48.4709 496.649 48.5685C497.202 49.8047 497.755 50.9758 498.113 52.4397C498.134 52.5264 498.145 52.624 498.145 52.7325C498.167 52.8192 498.2 52.906 498.243 52.9927C498.265 53.1011 498.286 53.1987 498.308 53.2855C498.33 53.3939 498.362 53.4915 498.406 53.5783C498.471 53.8819 498.536 54.1855 498.601 54.4891C498.666 54.7928 498.731 55.0855 498.796 55.3675C498.839 55.6711 498.894 55.9747 498.959 56.2783C499.024 56.582 499.089 56.8856 499.154 57.1892C499.186 57.482 499.186 57.8073 499.251 58.0675C499.414 59.2386 499.479 60.4423 499.609 61.6134C499.642 62.0038 499.674 62.5568 499.707 62.7845C499.707 64.1833 500.097 65.5496 499.837 66.7858Z" fill="#FCB717"/>
<path fill-rule="evenodd" clip-rule="evenodd" d="M459.922 67.079C459.369 67.1115 458.686 67.0139 458.198 67.1115C457.808 67.1115 457.385 67.144 456.929 67.144C454.327 67.2091 451.497 67.1766 448.959 67.1115C448.439 67.1115 447.853 67.1766 447.43 67.079C447.268 67.1115 447.073 67.079 446.91 67.079C446.292 67.079 445.479 67.1115 444.925 67.0139C444.307 66.9163 443.657 67.0139 443.039 66.9814C441.119 66.8513 439.558 66.8838 437.606 66.8187C437.574 66.8187 437.508 66.7862 437.476 66.7862C437.378 66.7862 437.313 66.8187 437.183 66.7862C436.858 66.7537 436.435 66.7862 436.077 66.7862C435.036 66.7862 433.898 66.8187 432.824 66.7537C431.75 66.6886 430.71 66.7211 429.734 66.6235C429.05 66.591 428.27 66.6235 427.554 66.6235C426.968 66.6235 426.318 66.6235 425.7 66.5585H425.472C424.301 66.4609 423.325 66.591 422.219 66.4609C422.219 65.1597 422.121 64.0211 422.056 62.7524C422.056 62.4271 421.991 62.1017 421.991 61.809C421.991 61.5813 422.056 61.3535 422.056 61.1258C422.056 60.4427 422.121 59.8896 422.219 59.239C422.306 58.7402 422.392 58.2414 422.479 57.7426C422.512 57.5149 422.609 57.2872 422.674 57.0269C422.707 56.8968 422.674 56.7667 422.707 56.6366C422.739 56.539 422.805 56.4414 422.837 56.3438C422.87 56.2137 422.837 56.0835 422.87 55.9859C422.902 55.8883 422.967 55.7908 423 55.6932C423.032 55.498 423.032 55.3028 423.097 55.1076C423.227 54.6522 423.423 54.1317 423.553 53.6112C423.639 53.2425 423.715 52.8847 423.78 52.5377C424.041 51.5617 424.529 50.6183 424.886 49.7075C425.049 49.4147 425.114 49.1219 425.309 48.8291C425.927 47.8207 426.611 46.8122 427.261 45.8363C427.294 45.8038 427.359 45.6411 427.391 45.6411C427.391 45.6086 427.619 45.3483 427.684 45.2507C427.901 44.9688 428.107 44.6869 428.302 44.4049C428.519 44.123 428.747 43.8519 428.985 43.5917C429.202 43.3097 429.43 43.0386 429.669 42.7784C429.885 42.5181 430.113 42.2579 430.352 41.9977C430.97 41.5097 431.62 41.1844 432.271 40.794C432.889 40.4036 433.507 39.9807 434.158 39.5904C435.004 39.2651 435.947 39.0373 436.858 38.7771C437.834 38.5819 438.842 38.4843 439.883 38.3867C439.992 38.3867 440.089 38.3867 440.176 38.3867C440.263 38.3867 440.35 38.3867 440.436 38.3867C440.545 38.3867 440.642 38.3976 440.729 38.4192C440.816 38.4192 440.903 38.4301 440.989 38.4518C441.347 38.4843 441.803 38.4518 442.095 38.5168C442.388 38.5494 442.681 38.5168 442.974 38.5494C443.06 38.5494 443.147 38.5602 443.234 38.5819C443.321 38.6036 443.407 38.6253 443.494 38.647C443.581 38.647 443.657 38.6687 443.722 38.712C443.809 38.7337 443.895 38.7554 443.982 38.7771C444.405 38.9072 444.958 39.0699 445.413 39.2C445.609 39.2651 445.771 39.3626 445.934 39.4277C446.129 39.4928 446.357 39.5253 446.52 39.5904C446.617 39.6229 446.78 39.7205 446.877 39.753C447.918 40.1109 448.504 40.4362 449.252 40.794C449.675 41.0543 450.098 41.282 450.456 41.5747C450.651 41.7049 450.846 41.835 451.041 41.9651C451.237 42.0952 451.432 42.2362 451.627 42.388C451.8 42.5181 451.974 42.67 452.147 42.8435C452.343 42.9953 452.527 43.1471 452.7 43.2989C453.058 43.5917 453.318 43.982 453.709 44.2748C453.969 44.6652 454.327 44.958 454.522 45.4134C454.815 45.7387 455.01 46.1941 455.335 46.5194C455.368 46.617 455.466 46.7797 455.498 46.8448C455.986 47.5279 456.311 48.1135 456.767 48.7966C457.092 49.6424 457.352 50.5533 457.71 51.334C457.754 51.4858 457.786 51.6376 457.808 51.7894C457.851 51.9629 457.894 52.1256 457.938 52.2774C458.003 52.4292 458.057 52.5702 458.101 52.7003C458.144 52.8521 458.198 53.0039 458.263 53.1557C458.328 53.7738 458.523 54.2943 458.686 54.8799C458.946 55.7908 459.076 56.7667 459.369 57.6775C459.532 58.9788 459.695 60.1499 459.792 61.4837C459.792 62.0042 459.76 62.6548 459.857 62.9801C459.825 63.6307 459.89 64.4114 459.922 64.8343C459.955 65.485 459.89 66.2982 459.922 67.079Z" fill="#F06323"/>
<path fill-rule="evenodd" clip-rule="evenodd" d="M418.706 66.6887C417.307 66.6236 416.006 66.7863 414.574 66.6887C413.826 66.6236 413.143 66.7212 412.427 66.6561C412.004 66.6236 411.549 66.5911 411.191 66.6236C411.093 66.6236 410.736 66.5911 410.443 66.5911C409.922 66.5911 409.434 66.5911 408.849 66.5911C408.805 66.5911 408.762 66.5911 408.719 66.5911C407.19 66.526 405.628 66.526 403.969 66.526C403.449 66.526 402.928 66.5585 402.473 66.526C401.79 66.4284 401.074 66.5585 400.391 66.526C398.894 66.4609 397.365 66.5585 395.836 66.4935C394.665 66.4609 393.462 66.5585 392.258 66.5585C388.094 66.6561 383.833 66.7212 379.864 66.8188C379.766 65.973 379.961 65.1597 380.026 64.3464C380.124 63.4681 380.157 62.6223 380.254 61.744C380.276 61.462 380.297 61.1801 380.319 60.8982C380.341 60.6162 380.373 60.3343 380.417 60.0524C380.438 59.7921 380.471 59.521 380.514 59.2391C380.558 58.9572 380.601 58.6752 380.644 58.3933C380.84 57.3523 380.97 56.3438 381.295 55.433C381.523 54.2944 381.946 53.2859 382.401 52.3425C382.499 52.1148 382.792 51.3341 383.279 50.4557C383.702 49.675 384.19 48.8943 384.678 48.1786C384.841 47.9834 385.036 47.8207 385.166 47.6581C385.329 47.3653 385.589 47.04 385.817 46.7472C385.904 46.6171 386.001 46.487 386.11 46.3568C386.196 46.2267 386.294 46.1074 386.402 45.999C386.511 45.8689 386.608 45.7388 386.695 45.6086C386.804 45.5002 386.912 45.3809 387.021 45.2508C387.118 45.1532 387.313 45.0231 387.411 44.893C387.541 44.7954 387.996 44.2098 388.159 44.0472C388.712 43.5592 388.68 43.5267 390.111 42.4857C391.51 41.4447 392.388 41.1844 393.624 40.6314C394.6 40.3712 395.544 40.1109 396.617 39.8832C398.049 39.7856 399.35 39.9157 400.586 40.0133C400.781 40.0133 400.944 40.0133 401.106 40.0133C401.855 40.1109 402.635 40.3386 403.384 40.5013C403.937 40.6314 404.587 40.7615 405.14 40.9242C405.292 40.9676 405.433 41.0109 405.563 41.0543C405.715 41.1194 405.856 41.1736 405.986 41.217C406.138 41.282 406.279 41.3362 406.409 41.3796C406.561 41.4447 406.702 41.5097 406.832 41.5748C407.287 41.8025 407.678 41.9652 408.068 42.1929C408.263 42.2796 408.458 42.3772 408.654 42.4857C408.849 42.6158 409.033 42.7351 409.207 42.8435C409.38 42.9736 409.564 43.1038 409.76 43.2339C409.933 43.364 410.107 43.4941 410.28 43.6243C410.605 43.8845 411.451 44.6002 411.777 44.9255C412.167 45.5436 412.72 46.0315 413.143 46.6171C413.566 47.2027 413.891 47.8533 414.347 48.4388C414.509 48.8292 414.704 49.1545 414.932 49.4798C414.954 49.5666 414.986 49.6533 415.03 49.7401C415.073 49.8051 415.116 49.881 415.16 49.9678C415.203 50.0545 415.247 50.1304 415.29 50.1955C415.333 50.2822 415.377 50.3581 415.42 50.4232C415.778 51.1389 416.103 51.8546 416.461 52.5377C416.689 53.2534 416.949 53.9365 417.209 54.6197C417.372 55.3028 417.6 55.8559 417.697 56.5715C417.957 57.4174 418.12 58.3282 418.315 59.2391C418.413 60.0524 418.51 61.1584 418.576 61.809C418.597 61.9175 418.608 62.0151 418.608 62.1018C418.608 62.2102 418.619 62.3078 418.641 62.3946C418.641 62.503 418.651 62.6006 418.673 62.6874C418.673 62.7958 418.673 62.8934 418.673 62.9801C418.738 64.3139 418.771 65.4525 418.706 66.6887Z" fill="#163B64"/>
</g>
<defs>
<clipPath id="clip0_15_17939">
<rect width="500" height="99.8699" fill="white"/>
</clipPath>
</defs>
</svg>
