<svg width="500" height="430" viewBox="0 0 500 430" fill="none" xmlns="http://www.w3.org/2000/svg">
<g clip-path="url(#clip0_15_17919)">
<mask id="mask0_15_17919" style="mask-type:luminance" maskUnits="userSpaceOnUse" x="-430" y="-7433" width="6488" height="8398">
<path d="M-429.924 -7432.77H6057.13V964.015H-429.924V-7432.77Z" fill="white"/>
</mask>
<g mask="url(#mask0_15_17919)">
<path d="M499.211 343.781L389.804 429.419L302.525 361.048V260.574L435.417 156.471L498.296 205.713C489.994 229.009 467.803 245.738 441.635 245.738C416.793 245.738 395.549 230.618 386.364 209.122V306.155C386.364 336.679 411.111 361.427 441.635 361.427C463.163 361.427 486.08 344.286 493.75 338.32L499.211 343.781Z" fill="#E41D37"/>
<path d="M386.364 47.2213V171.716L302.525 237.373V94.8223C302.525 74.6203 286.143 58.2693 265.972 58.2693V425.441H182.102V94.8223C182.102 74.6203 165.783 58.2693 145.581 58.2693V425.441H61.8686V103.029C61.8686 82.8589 45.5176 66.5079 25.3471 66.5079C18.4658 66.5079 10.2587 68.6544 5.61857 72.2844L0.157715 66.8235L85.385 0.09375L145.581 47.2213L205.776 0.09375L265.972 47.2213L326.168 0.09375L386.364 47.2213Z" fill="#00539B"/>
<path fill-rule="evenodd" clip-rule="evenodd" d="M476.988 429.419C464.362 429.419 454.135 418.97 454.135 406.06C454.135 393.118 464.362 382.67 476.988 382.67C489.615 382.67 499.842 393.118 499.842 406.06C499.842 418.97 489.615 429.419 476.988 429.419ZM495.17 406.06C495.17 395.675 487.026 387.279 476.988 387.279C466.919 387.279 458.775 395.675 458.775 406.06C458.775 416.445 466.919 424.842 476.988 424.842C487.026 424.842 495.17 416.445 495.17 406.06Z" fill="#E41D37"/>
<path fill-rule="evenodd" clip-rule="evenodd" d="M482.418 407.575L489.394 419.096H483.775L483.46 418.749L477.241 408.301H472.948V419.096H468.056V392.297H478.251C484.059 392.297 487.658 395.39 487.658 400.441C487.658 403.881 485.796 406.47 482.418 407.575ZM482.544 400.283C482.544 397.852 481.155 396.653 478.346 396.653H472.948V403.881H478.346C481.219 403.881 482.544 402.777 482.544 400.283Z" fill="#E41D37"/>
</g>
</g>
<defs>
<clipPath id="clip0_15_17919">
<rect width="500" height="429.609" fill="white"/>
</clipPath>
</defs>
</svg>
