<svg width="500" height="194" viewBox="0 0 500 194" fill="none" xmlns="http://www.w3.org/2000/svg">
<g clip-path="url(#clip0_15_17932)">
<mask id="mask0_15_17932" style="mask-type:luminance" maskUnits="userSpaceOnUse" x="-39" y="-77" width="587" height="285">
<path d="M-38.3818 207.635H547.695V-76.5235H-38.3818V207.635Z" fill="white"/>
</mask>
<g mask="url(#mask0_15_17932)">
<path d="M90.2558 30.9205C80.5675 26.7989 67.1852 23.8573 56.3853 23.8573C45.8163 23.8573 32.1603 28.415 32.1603 44.8928C32.1603 71.1358 99.5593 60.0794 99.5593 110.83C99.5593 144.007 72.9058 156.586 41.8486 156.586C25.1057 156.586 17.6236 154.414 2.41993 150.737L2.38573 123.408C12.9633 129.043 27.9703 132.737 40.0871 132.737C51.7677 132.737 67.399 126.88 67.399 113.215C67.399 84.3727 0 96.2928 0 46.2011C0 12.3648 26.6535 4.57764e-05 53.743 4.57764e-05C66.9629 4.57764e-05 79.2934 1.7359 90.5294 5.42139L90.2558 30.9205Z" fill="#0081C6"/>
<path d="M266.872 68.7269C258.107 65.7768 250.163 64.0922 239.68 64.0922C231.984 64.0922 222.783 66.8285 222.783 76.0978C222.783 93.3623 272.618 82.417 272.618 121.581C272.618 146.849 249.735 156.956 226.417 156.956C215.514 156.956 204.39 155.058 193.915 152.321L195.625 129.157C204.603 133.586 214.018 136.322 223.852 136.322C231.129 136.322 242.672 133.586 242.672 123.051C242.672 101.785 192.846 116.313 192.846 77.1496C192.846 53.7797 213.582 43.4586 236.045 43.4586C249.522 43.4586 258.286 45.5622 267.274 47.4605L266.872 68.7269Z" fill="#0081C6"/>
<path d="M357.619 69.3586C352.488 67.0413 346.93 65.3568 338.165 65.3568C320.405 65.3568 309.075 79.2521 309.075 99.6805C309.075 119.681 318.694 135.056 338.798 135.056C346.93 135.056 355.908 132.106 360.825 130.002L362.108 153.372C353.771 155.895 345.211 156.955 333.453 156.955C297.308 156.955 279.129 132.739 279.129 99.6805C279.129 68.3069 297.95 43.4577 332.385 43.4577C343.928 43.4577 352.274 44.7232 360.192 47.0405L357.619 69.3586Z" fill="#0081C6"/>
<path d="M422.881 135.053C444.908 135.053 450.68 115.685 450.68 97.574C450.68 80.9423 441.701 65.3624 422.881 65.3624C404.274 65.3624 395.295 81.3613 395.295 97.574C395.295 115.471 401.067 135.053 422.881 135.053ZM422.881 43.4633C455.597 43.4633 480.617 65.1486 480.617 100.943C480.617 132.103 459.453 156.952 422.881 156.952C386.53 156.952 365.35 132.103 365.35 100.943C365.35 65.1486 390.378 43.4633 422.881 43.4633Z" fill="#0081C6"/>
<path d="M196.058 44.5147H166.968L112.25 193.49H138.536L196.058 44.5147Z" fill="#0081C6"/>
<path d="M77.1652 41.8344C89.3162 54.1393 101.424 69.1292 110.198 86.7101C118.048 102.452 122.015 117.784 124.854 133.236C124.974 133.775 125.333 133.732 125.538 133.313C135.988 115.057 142.384 90.2074 133.029 71.4807C123.229 51.8305 99.68 42.7921 77.5585 40.9708C76.789 40.9366 76.6521 41.3385 77.1652 41.8344Z" fill="#6DB33F"/>
<path d="M480.08 45.827H476.155V44.4076H485.715V45.827H481.765V57.3281H480.08V45.827Z" fill="#0081C6"/>
<path d="M498.042 51.6549C497.948 49.8763 497.837 47.6701 497.837 46.0797H497.794C497.332 47.5761 496.819 49.2179 496.161 50.9879L493.878 57.2558H492.621L490.508 51.0991C489.893 49.2777 489.397 47.6103 489.038 46.0797H488.995C488.961 47.6872 488.858 49.8506 488.747 51.7917L488.405 57.3242H486.814L487.712 44.4122H489.842L492.039 50.6544C492.578 52.2449 493.005 53.69 493.347 55.024H493.382C493.732 53.7242 494.185 52.2877 494.767 50.6544L497.067 44.4122H499.196L500 57.3242H498.35L498.042 51.6549Z" fill="#0081C6"/>
</g>
</g>
<defs>
<clipPath id="clip0_15_17932">
<rect width="500" height="193.49" fill="white"/>
</clipPath>
</defs>
</svg>
