<svg width="500" height="181" viewBox="0 0 500 181" fill="none" xmlns="http://www.w3.org/2000/svg">
<g clip-path="url(#clip0_15_17923)">
<mask id="mask0_15_17923" style="mask-type:luminance" maskUnits="userSpaceOnUse" x="-211" y="-207" width="4541" height="3509">
<path d="M-210.304 3301.36H4329.9V-206.977H-210.304V3301.36Z" fill="white"/>
</mask>
<g mask="url(#mask0_15_17923)">
<path d="M414.573 1.21094L398.109 95.0247L398.115 138.426L374.554 138.438L374.583 95.3227L358.05 1.21094H381.571C381.571 1.21094 387.051 39.1205 388.925 52.0303C390.703 39.1033 395.919 1.21094 395.919 1.21094H414.573Z" fill="#3E000F"/>
<path d="M171.841 113.908V81.3696C171.841 73.5676 168.453 67.6688 162.33 63.9025C168.757 60.3081 172.305 53.7959 172.305 44.5607V24.2215C172.305 10.2398 164.411 1.21094 152.207 1.21094H117.656L117.685 138.438H140.225L140.208 73.8141H143.98C145.304 73.8141 149.352 73.8141 149.352 80.034L149.363 121.796C149.363 127.007 149.673 132.98 151.971 137.623L152.373 138.438H180.927C180.927 138.438 171.841 134.155 171.841 113.908ZM150.584 50.2532C150.584 55.5214 146.004 56.0832 144.043 56.0832C144.043 56.0832 141.532 56.0775 141.297 56.0775V21.7737H143.86C148.314 21.7737 150.584 23.6196 150.584 27.2713V50.2532Z" fill="#3E000F"/>
<path d="M181.444 24.5585V37.8581C181.444 48.8818 184.064 54.7921 188.914 61.8375C192.222 66.6299 196.212 70.895 200.058 74.9995L207.832 83.8563C210.732 87.7029 212.658 90.6208 212.658 95.9463L212.676 116.417C212.676 118.739 210.692 120.413 207.969 120.413C205.149 120.413 203.257 118.59 203.257 115.879V89.4743H180.544V116.916C180.544 131.626 190.897 140.764 207.545 140.764C220.913 140.752 235.302 133.369 235.302 117.168V94.9947C235.296 86.8831 234.293 81.2881 228.819 73.2453C225.471 68.3439 220.248 62.5139 215.651 57.3718L210.021 50.9914C205.98 46.1933 204.059 42.5015 204.059 34.5274L204.054 24.4037C204.054 21.096 206.416 19.9151 208.428 19.9151C211.048 19.9151 212.624 21.6005 212.624 24.4037V44.6397H234.482V24.0139C234.482 7.68176 225.66 -0.601822 208.256 -0.601822C190.966 -0.601822 181.444 8.32381 181.444 24.5585Z" fill="#3E000F"/>
</g>
<path d="M277.193 1.20813V53.5753H267.367V1.20813H244.122V138.44H267.367V73.2724H277.193V138.44H300.238V1.20813H277.193Z" fill="#3E000F"/>
<path d="M33.0439 1.20813V53.5753H23.2125V1.20813H-0.0273438V138.44H23.2125V73.2724H33.0439V138.44H56.0947V1.20813H33.0439Z" fill="#3E000F"/>
<path d="M90.5102 118.529V74.1533H107.404V54.2784H90.5102V21.253H108.671V1.20618H66.9092V138.438H110.076V118.529H90.5102Z" fill="#3E000F"/>
<path d="M334.648 118.529V74.1533H351.536V54.2784H334.648V21.253H352.195V1.20618H311.047V138.438H354.213V118.529H334.648Z" fill="#3E000F"/>
<path d="M439.375 58.6764C439.375 50.7596 445.004 44.2702 454.102 41.0485C464.81 37.3051 491.094 35.7403 499.814 24.791V43.3704C491.759 53.4139 464.616 53.5571 454.102 57.2546C446.008 60.0979 442.923 64.9306 441.221 67.3498C440.464 68.3874 440.321 68.5823 439.891 68.5823C439.513 68.5823 439.375 68.2498 439.375 67.9171V58.6764Z" fill="#A8A9AD"/>
<path d="M419.507 138.429C409.143 138.429 402.138 124.304 414.153 109.996C418.189 105.197 422.913 100.881 427.109 96.3523C435.129 87.696 437.605 80.9029 439.113 74.4709C439.199 74.087 439.44 73.6338 439.984 73.6338C440.523 73.6338 440.764 74.0868 440.85 74.4709C442.357 80.9029 444.834 87.696 452.848 96.3523C457.05 100.881 461.779 105.197 465.804 109.996C477.825 124.304 470.814 138.429 460.455 138.429H419.507Z" fill="#3E000F"/>
<path d="M7.67192 180.032C7.33224 179.891 6.9669 179.583 6.86006 179.349C6.72189 179.046 6.66579 175.967 6.66579 168.688C6.66579 159.611 6.63539 158.423 6.39721 158.184C6.17903 157.966 5.68663 157.916 3.77349 157.916C1.31392 157.916 0.448094 157.75 0.16731 157.225C0.0752872 157.053 0 156.218 0 155.369C0 153.948 0.0303575 153.808 0.384565 153.606C0.683335 153.436 2.62403 153.387 9.08346 153.387C18.8643 153.387 18.1173 153.228 18.1173 155.299C18.1173 155.992 18.0106 156.815 17.8802 157.127C17.5879 157.826 17.2241 157.916 14.6721 157.916C13.4308 157.916 12.6098 157.998 12.2151 158.163L11.6224 158.411V168.833V179.254L11.1799 179.78C10.7599 180.279 10.6751 180.305 9.51347 180.297C8.83383 180.297 8.01485 180.174 7.67192 180.032Z" fill="#3E000F"/>
<path d="M23.4844 179.725L22.9033 179.143V166.744V154.345L23.3162 153.866C23.7139 153.404 23.7876 153.386 25.3322 153.386C26.5793 153.386 27.0381 153.453 27.3977 153.689L27.8599 153.992V159.11C27.8599 164.016 27.8737 164.235 28.1947 164.407C28.4145 164.524 30.5708 164.57 34.4759 164.541L40.4224 164.496L40.5078 159.168C40.5548 156.238 40.6449 153.79 40.7079 153.727C40.9334 153.502 42.1523 153.308 43.3707 153.304C45.4947 153.293 45.2935 151.897 45.2935 166.694C45.2935 179.294 45.2905 179.409 44.9393 179.855C44.6195 180.262 44.4743 180.305 43.4438 180.304C42.8161 180.303 42.0105 180.254 41.6537 180.195C40.551 180.013 40.5078 179.796 40.5078 174.456C40.5078 170.505 40.4668 169.727 40.2418 169.405C39.9761 169.026 39.9681 169.025 34.3972 169.025H28.8187L28.3393 169.485L27.8599 169.944V174.6V179.255L27.2228 179.781C26.639 180.262 26.4801 180.306 25.3256 180.306C24.1205 180.306 24.0402 180.281 23.4844 179.725Z" fill="#3E000F"/>
<path d="M54.5083 180.087C53.8435 179.576 53.8394 179.492 53.8421 166.601C53.8432 159.709 53.9012 153.985 53.9703 153.882C54.3322 153.34 54.8818 153.301 62.171 153.301C70.9635 153.301 70.3159 153.123 70.221 155.51C70.1792 156.563 70.0744 157.125 69.859 157.454L69.556 157.916H64.3415C60.1746 157.916 59.0078 157.965 58.5342 158.163L57.9415 158.411V161.319C57.9415 164.02 57.9651 164.24 58.2721 164.404C58.4733 164.512 60.2621 164.584 62.8441 164.589C67.1962 164.6 68.4698 164.711 68.7275 165.118C68.8086 165.246 68.8762 165.912 68.8776 166.598C68.881 168.004 68.5931 168.754 67.9897 168.916C67.7745 168.974 65.7831 169.022 63.5645 169.023C59.4859 169.023 58.5903 169.134 58.1551 169.678C58.0032 169.868 57.9415 170.778 57.9415 172.827V175.709L58.5342 175.956C59.0076 176.154 60.1717 176.204 64.3189 176.204C70.3991 176.204 70.0722 176.102 70.1954 178.037C70.2563 178.993 70.2081 179.292 69.9191 179.751L69.5689 180.306L62.1742 180.295C56.6309 180.295 54.7116 180.237 54.5083 180.081V180.087Z" fill="#3E000F"/>
<path d="M87.9287 180.188C87.727 180.149 87.4194 179.959 87.2451 179.766C86.9433 179.433 86.9259 178.81 86.8822 166.809C86.8281 151.974 86.6118 153.394 88.9263 153.39C90.6025 153.39 91.1771 153.652 91.3483 154.508C91.4084 154.808 91.4575 157.151 91.4575 159.714C91.4575 163.806 91.4904 164.387 91.7278 164.478C91.8765 164.535 94.6692 164.582 97.9337 164.582C102.418 164.582 103.938 164.53 104.15 164.369C104.397 164.181 104.437 163.555 104.482 159.16C104.532 154.227 104.537 154.161 104.921 153.777C105.245 153.454 105.532 153.379 106.655 153.328C108.941 153.224 108.72 151.793 108.72 166.696C108.72 179.296 108.717 179.41 108.366 179.857C108.044 180.265 107.903 180.307 106.83 180.307C105.767 180.307 105.593 180.257 105.091 179.808L104.533 179.31L104.447 174.507L104.362 169.704L103.849 169.366C103.365 169.047 103.026 169.028 97.7686 169.027L92.2008 169.026L91.8292 169.422C91.4666 169.808 91.4575 169.929 91.4575 174.426C91.4575 179.539 91.4449 179.603 90.3297 180.069C89.7898 180.294 88.7374 180.346 87.9287 180.188Z" fill="#3E000F"/>
<path d="M117.989 180.191C117.869 180.143 117.658 179.884 117.519 179.615C117.303 179.197 117.266 177.317 117.266 166.568V154.009L117.716 153.655C118.156 153.309 118.341 153.301 125.365 153.302C129.786 153.302 132.808 153.371 133.198 153.479C134.261 153.774 134.4 154.028 134.331 155.549C134.277 156.738 134.218 156.936 133.798 157.357L133.325 157.83L127.817 157.915C123.777 157.977 122.206 158.059 121.924 158.22C121.548 158.435 121.539 158.508 121.539 161.425C121.539 163.067 121.558 164.423 121.582 164.438C121.605 164.454 123.855 164.513 126.581 164.569C130.107 164.641 131.649 164.734 131.922 164.888C132.276 165.088 132.307 165.228 132.307 166.615C132.307 167.883 132.25 168.196 131.953 168.574L131.598 169.025H127.144C122.931 169.025 122.659 169.044 122.115 169.38L121.539 169.736V172.709V175.682L122.043 175.942C122.463 176.16 123.424 176.203 127.778 176.203C133.568 176.203 133.818 176.244 134.168 177.249C134.437 178.019 134.403 178.968 134.091 179.414C133.472 180.298 133.39 180.306 125.521 180.292C121.498 180.28 118.108 180.239 117.989 180.191Z" fill="#3E000F"/>
<path d="M141.494 180.05C140.436 179.475 140.485 180.128 140.504 166.853C140.513 160.198 140.573 154.562 140.637 154.327C140.705 154.077 140.999 153.776 141.346 153.601C141.87 153.337 142.517 153.302 146.896 153.302C151.999 153.302 153.798 153.469 154.681 154.025C154.912 154.17 155.408 154.386 155.784 154.505C156.16 154.623 156.77 154.978 157.139 155.293C157.509 155.608 157.865 155.865 157.932 155.865C157.999 155.865 158.222 156.223 158.427 156.66C158.633 157.097 158.946 157.578 159.123 157.728C159.693 158.212 160.028 159.435 160.098 161.29C160.155 162.798 160.104 163.237 159.728 164.47C159.317 165.818 159.214 165.978 157.952 167.249C156.479 168.732 155.749 169.368 155.519 169.368C155.436 169.368 155.292 169.511 155.198 169.686C155.066 169.932 155.135 170.175 155.503 170.754C155.764 171.167 156.061 171.745 156.164 172.039C156.266 172.333 156.588 172.902 156.879 173.304C157.17 173.705 157.408 174.104 157.408 174.19C157.408 174.276 157.59 174.592 157.814 174.891C158.037 175.19 158.316 175.743 158.433 176.119C158.55 176.495 158.788 176.958 158.961 177.149C159.134 177.34 159.39 177.82 159.53 178.215C159.821 179.039 159.643 179.854 159.11 180.139C158.611 180.406 156.885 180.332 155.955 180.003C155.257 179.756 155.037 179.575 154.758 179.018C154.57 178.642 154.205 178.03 153.946 177.657C153.688 177.284 153.476 176.915 153.476 176.837C153.476 176.759 153.294 176.449 153.07 176.15C152.847 175.851 152.61 175.299 152.544 174.922C152.478 174.546 152.246 174.047 152.029 173.812C151.812 173.577 151.514 172.961 151.366 172.443C151.054 171.348 150.116 170.313 149.195 170.049C148.872 169.956 147.9 169.88 147.035 169.88C144.818 169.88 144.931 169.611 144.93 174.918C144.929 178.881 144.904 179.236 144.591 179.751C144.261 180.291 144.22 180.306 143.096 180.299C142.434 180.299 141.749 180.189 141.494 180.05ZM152.858 165.787C153.565 165.623 154.535 164.789 155.295 163.693C155.659 163.168 155.743 162.846 155.752 161.948C155.761 161.009 155.691 160.744 155.282 160.154C154.67 159.27 153.463 158.279 152.75 158.075C151.899 157.831 145.387 157.87 145.136 158.121C144.845 158.411 144.845 165.454 145.136 165.744C145.384 165.992 151.82 166.028 152.858 165.787Z" fill="#3E000F"/>
<path d="M170.397 180.366C170.068 180.218 169.373 179.963 168.852 179.801C167.887 179.499 166.409 178.501 165.962 177.849C165.826 177.649 165.575 177.386 165.406 177.263C165.016 176.98 165.012 176.413 165.396 175.989C165.559 175.808 165.886 175.302 166.122 174.864C166.522 174.123 166.604 174.064 167.301 174.014C167.93 173.969 168.137 174.039 168.583 174.451C169.574 175.364 170.479 175.849 171.645 176.093C172.284 176.227 172.943 176.461 173.111 176.613C173.482 176.949 173.603 176.952 174.191 176.646C174.445 176.513 175.185 176.237 175.836 176.031C176.965 175.675 177.03 175.625 177.255 174.948C177.385 174.558 177.482 173.792 177.471 173.246C177.452 172.271 177.435 172.236 176.508 171.366C174.886 169.842 174.763 169.751 174.029 169.531C173.635 169.413 173.149 169.164 172.95 168.979C172.751 168.793 172.233 168.534 171.8 168.404C171.368 168.274 170.856 168.027 170.663 167.856C170.47 167.685 169.966 167.417 169.543 167.262C169.041 167.077 168.313 166.533 167.449 165.697C166.721 164.991 166.124 164.385 166.124 164.35C166.124 163.789 165.696 162.377 165.4 161.962C164.81 161.134 164.879 159.63 165.563 158.413C165.848 157.904 166.128 157.288 166.186 157.041C166.341 156.379 167.763 154.737 168.395 154.492C168.697 154.374 169.214 154.104 169.543 153.891C170.132 153.509 172.458 153.06 173.816 153.066C175.365 153.078 177.402 153.465 178.036 153.878C178.394 154.111 179.006 154.385 179.395 154.487C180.112 154.674 181.336 155.795 181.336 156.263C181.336 156.935 180.732 158.13 180.107 158.695C179.524 159.221 179.333 159.302 178.881 159.213C178.586 159.155 178.131 158.951 177.869 158.759C177.607 158.566 177.105 158.308 176.755 158.184C176.404 158.061 175.849 157.796 175.522 157.597C175.055 157.312 174.65 157.234 173.643 157.233C172.43 157.233 172.302 157.271 171.292 157.931C170.704 158.315 170.139 158.786 170.036 158.978C169.93 159.176 169.879 159.852 169.917 160.544C169.983 161.723 170.009 161.786 170.738 162.502C171.152 162.909 171.802 163.401 172.183 163.594C172.564 163.787 173.048 164.08 173.258 164.244C173.469 164.408 173.982 164.594 174.4 164.656C174.817 164.719 175.352 164.922 175.587 165.107C175.823 165.292 176.345 165.56 176.748 165.702C177.151 165.845 177.637 166.103 177.827 166.278C178.018 166.452 178.482 166.751 178.858 166.942C179.234 167.133 179.665 167.437 179.816 167.617C179.967 167.798 180.236 168.054 180.414 168.187C181.1 168.697 181.984 170.303 182.259 171.538C182.615 173.14 182.604 173.988 182.207 175.418C181.908 176.499 181.771 176.703 180.456 178.025C179.363 179.123 178.814 179.54 178.109 179.803C177.603 179.993 177.028 180.26 176.832 180.398C176.301 180.769 171.238 180.744 170.397 180.366Z" fill="#3E000F"/>
<path d="M188.975 179.801L188.514 179.254V166.631V154.009L188.965 153.655C189.312 153.381 189.654 153.302 190.46 153.308C191.731 153.319 192.915 153.532 193.185 153.801C193.325 153.941 193.411 155.573 193.471 159.248L193.556 164.496L199.518 164.541C203.776 164.573 205.547 164.53 205.714 164.392C205.902 164.235 205.948 163.204 205.948 159.095V153.992L206.397 153.698C206.705 153.496 207.308 153.382 208.32 153.335C209.635 153.273 209.844 153.305 210.263 153.638L210.733 154.009V166.632V179.254L210.291 179.78C209.877 180.272 209.774 180.306 208.688 180.306C207.408 180.306 206.398 179.974 206.125 179.463C206.015 179.258 205.948 177.377 205.948 174.529C205.948 170.131 205.932 169.906 205.594 169.476L205.239 169.025H199.638C194.428 169.025 194.017 169.047 193.754 169.338C193.505 169.612 193.471 170.205 193.471 174.183C193.471 178.931 193.38 179.647 192.737 179.991C192.541 180.096 191.718 180.219 190.908 180.266L189.436 180.349L188.975 179.801Z" fill="#3E000F"/>
<path d="M219.424 179.921C219.174 179.71 218.886 179.369 218.783 179.164C218.577 178.752 218.507 156.222 218.707 154.76C218.798 154.096 218.915 153.89 219.348 153.623C219.851 153.313 220.256 153.299 227.423 153.342C236.342 153.395 235.688 153.235 235.688 155.354C235.688 156.442 235.62 156.77 235.297 157.25L234.905 157.831L229.201 157.876C225.282 157.906 223.424 157.981 223.265 158.114C223.081 158.266 223.042 158.959 223.079 161.401L223.125 164.497L227.997 164.581C234.058 164.688 233.872 164.628 233.943 166.496C233.99 167.74 233.967 167.837 233.487 168.374L232.982 168.94L228.176 169.026C224.154 169.097 223.343 169.153 223.207 169.368C222.959 169.76 222.993 175.748 223.245 175.999C223.396 176.151 224.926 176.205 229.067 176.205C232.405 176.205 234.812 176.272 234.997 176.372C235.412 176.594 235.688 177.429 235.688 178.465C235.688 179.168 235.605 179.39 235.188 179.807L234.689 180.306L227.283 180.306L219.878 180.305L219.424 179.921Z" fill="#3E000F"/>
<path d="M248.119 180.093C247.545 179.657 247.481 178.968 247.481 173.244V167.572L246.883 166.73C246.554 166.268 246.284 165.816 246.284 165.726C246.284 165.637 246.034 165.278 245.729 164.929C244.823 163.894 244.55 163.534 244.178 162.888C243.983 162.55 243.609 162.007 243.345 161.68C243.082 161.353 242.866 161 242.866 160.895C242.866 160.79 242.702 160.557 242.502 160.378C242.302 160.199 242.003 159.741 241.839 159.36C241.674 158.979 241.319 158.43 241.049 158.14C240.779 157.85 240.391 157.392 240.186 157.123C239.981 156.854 239.539 156.3 239.203 155.892C238.483 155.015 238.391 154.221 238.951 153.714C239.251 153.442 239.58 153.391 241.003 153.391H242.698L243.37 154.126C243.74 154.53 244.243 155.183 244.488 155.577C244.733 155.97 245.122 156.562 245.354 156.891C245.785 157.504 245.98 157.751 247.132 159.151C247.497 159.595 247.851 160.133 247.918 160.347C247.985 160.561 248.241 160.981 248.487 161.28C248.732 161.579 249.049 161.976 249.19 162.164C249.59 162.695 250.503 162.479 250.793 161.784C250.916 161.49 251.15 161.139 251.312 161.004C251.475 160.869 251.766 160.446 251.96 160.064C252.307 159.382 252.829 158.661 253.59 157.816C253.801 157.581 254.101 157.142 254.255 156.841C254.637 156.095 255.266 155.314 256.276 154.329C257.007 153.616 257.247 153.487 258.028 153.39C259.051 153.262 260.79 153.428 261.111 153.685C261.229 153.779 261.325 153.984 261.325 154.14C261.325 154.47 260.369 156.061 259.722 156.805C259.137 157.479 258.513 158.369 258.097 159.124C257.912 159.459 257.634 159.839 257.479 159.967C257.325 160.096 257.05 160.49 256.87 160.844C256.689 161.198 256.441 161.549 256.318 161.624C256.195 161.7 255.944 162 255.761 162.291C254.92 163.628 254.311 164.531 253.987 164.924C251.851 167.51 252.019 166.814 251.964 173.299C251.938 176.354 251.879 179.026 251.833 179.236C251.646 180.081 248.93 180.708 248.119 180.093Z" fill="#3E000F"/>
<path d="M283.49 180.394C283.307 180.254 282.632 179.98 281.989 179.784C281.345 179.588 280.345 179.167 279.767 178.848C278.606 178.209 275.996 175.819 275.821 175.235C275.759 175.032 275.54 174.65 275.333 174.387C274.697 173.578 273.86 171.757 273.662 170.751C273.55 170.181 273.497 168.41 273.53 166.364L273.587 162.934L274.142 161.875C274.448 161.293 274.698 160.711 274.698 160.582C274.698 159.851 278.112 156.048 279.313 155.442C279.642 155.276 280.026 155.043 280.167 154.924C280.308 154.806 280.616 154.651 280.851 154.58C281.086 154.51 281.74 154.24 282.304 153.98C283.789 153.298 286.829 152.829 288.051 153.094C288.556 153.203 289.486 153.339 290.116 153.395C290.85 153.461 291.41 153.613 291.669 153.817C291.891 153.992 292.452 154.281 292.914 154.459C293.675 154.751 294.371 155.153 295.525 155.966C295.746 156.122 296.037 156.513 296.171 156.834C296.51 157.645 296.254 158.465 295.401 159.301C294.848 159.843 294.601 159.966 294.068 159.963C293.683 159.963 293.237 159.822 292.986 159.625C292.751 159.441 292.473 159.289 292.368 159.287C292.264 159.287 291.988 159.093 291.755 158.86C291.495 158.6 290.974 158.363 290.407 158.246C289.898 158.141 288.842 157.859 288.061 157.62L286.639 157.185L286.145 157.55C285.869 157.754 285.395 157.916 285.072 157.916C284.099 157.916 282.998 158.345 282.054 159.091C280.877 160.021 279.779 161.269 279.479 162.018C279.347 162.347 279.066 162.874 278.853 163.189C278.316 163.986 278.24 164.571 278.312 167.371C278.374 169.771 278.387 169.842 278.972 171.003C279.657 172.363 281.75 174.585 282.619 174.875C282.915 174.974 283.312 175.193 283.5 175.362C283.688 175.53 284.042 175.744 284.286 175.837C285.093 176.143 287.386 176.243 288.884 176.037C290.07 175.875 290.494 175.731 291.193 175.252C291.664 174.93 292.12 174.666 292.207 174.666C292.294 174.666 292.539 174.503 292.751 174.304C292.979 174.09 293.454 173.907 293.917 173.854C294.672 173.77 294.729 173.797 295.552 174.619C296.651 175.718 296.713 176.389 295.806 177.35C295.477 177.699 295.208 178.046 295.208 178.122C295.208 178.198 294.804 178.452 294.311 178.687C293.817 178.922 293.221 179.219 292.986 179.347C292.751 179.475 292.051 179.82 291.43 180.114L290.302 180.648H287.062C284.459 180.648 283.757 180.598 283.49 180.394Z" fill="#3E000F"/>
<path d="M310.932 180.527C310.791 180.475 310.56 180.337 310.419 180.221C310.278 180.104 309.775 179.882 309.3 179.728C308.826 179.574 308.252 179.314 308.025 179.15C307.798 178.987 307.327 178.7 306.978 178.512C305.612 177.777 304.47 176.896 304.095 176.289C303.879 175.94 303.522 175.459 303.301 175.221C303.08 174.982 302.899 174.698 302.899 174.589C302.899 174.48 302.705 174.128 302.468 173.806C302.231 173.485 301.957 172.913 301.859 172.534C301.761 172.156 301.543 171.653 301.375 171.416C300.93 170.794 300.677 169.047 300.678 166.619C300.679 164.387 300.855 163.391 301.364 162.744C301.533 162.529 301.724 161.967 301.789 161.495C301.858 160.994 302.068 160.444 302.294 160.174C302.507 159.919 302.84 159.403 303.033 159.027C303.464 158.191 305.838 155.839 306.659 155.435C306.988 155.273 307.372 155.043 307.514 154.925C307.655 154.806 307.962 154.654 308.197 154.587C308.432 154.52 309.087 154.244 309.652 153.974C310.705 153.471 312.788 153.083 314.436 153.083C315.829 153.083 317.926 153.435 318.685 153.797C319.074 153.983 319.777 154.28 320.247 154.458C320.717 154.636 321.409 154.979 321.785 155.219C322.982 155.986 325.397 158.315 325.821 159.112C326.045 159.536 326.354 160.035 326.507 160.224C326.659 160.412 326.912 160.957 327.067 161.436C327.223 161.915 327.502 162.605 327.687 162.968C327.989 163.56 328.024 163.983 328.024 167.06C328.024 170.137 327.989 170.56 327.687 171.152C327.502 171.516 327.223 172.205 327.068 172.684C326.912 173.163 326.615 173.747 326.406 173.982C326.198 174.217 325.932 174.652 325.816 174.947C325.557 175.605 322.803 178.329 322.212 178.512C321.977 178.584 321.532 178.864 321.224 179.133C320.847 179.461 320.475 179.623 320.094 179.623C319.782 179.623 319.093 179.853 318.565 180.136L317.604 180.648L314.396 180.635C312.632 180.623 311.073 180.579 310.932 180.527ZM316.976 175.963C317.527 175.834 318.182 175.576 318.432 175.392C318.682 175.207 319.06 175.001 319.272 174.933C319.774 174.774 321.926 172.651 322.28 171.965C322.431 171.674 322.67 171.371 322.812 171.291C323.175 171.088 323.582 168.789 323.571 167.002C323.558 164.855 323.228 163.28 322.598 162.36C322.06 161.572 319.768 159.298 318.896 158.685C318.104 158.129 316.96 157.923 314.692 157.926C311.931 157.926 310.495 158.204 309.628 158.894C308.596 159.715 306.488 161.954 306.488 162.23C306.488 162.366 306.339 162.613 306.156 162.778C305.681 163.208 305.292 165.138 305.292 167.06C305.292 168.897 305.704 171.049 306.084 171.195C306.22 171.247 306.475 171.569 306.65 171.91C307.135 172.853 308.877 174.682 309.558 174.963C309.89 175.1 310.278 175.315 310.419 175.439C311.198 176.126 314.995 176.429 316.976 175.963Z" fill="#3E000F"/>
<path d="M346.368 180.434C345.89 179.674 344.96 177.682 344.86 177.203C344.794 176.888 344.553 176.306 344.324 175.908C344.096 175.51 343.829 174.741 343.731 174.199C343.633 173.656 343.373 172.943 343.154 172.614C342.934 172.285 342.702 171.747 342.637 171.418C342.572 171.089 342.383 170.584 342.218 170.296C342.052 170.008 341.74 169.239 341.523 168.587C341.306 167.935 340.949 167.063 340.729 166.649C340.51 166.236 340.33 165.77 340.33 165.614C340.33 165.458 340.227 165.189 340.1 165.017C339.881 164.717 339.858 164.721 339.588 165.107C339.401 165.374 339.304 165.858 339.304 166.531C339.304 167.172 339.184 167.807 338.98 168.244C338.652 168.949 338.533 169.691 338.281 172.614C338.095 174.757 337.784 176.522 337.491 177.092C337.36 177.346 337.251 177.923 337.248 178.374C337.241 179.405 337.013 179.704 335.962 180.061C334.986 180.392 333.234 180.291 332.823 179.879C332.403 179.46 332.59 177.505 333.167 176.278C333.346 175.895 333.496 175.28 333.499 174.91C333.511 173.658 333.94 170.934 334.17 170.657C334.304 170.496 334.492 169.431 334.625 168.083C334.751 166.819 334.976 165.494 335.127 165.14C335.383 164.54 335.518 163.854 335.895 161.248C336.151 159.477 336.343 158.529 336.544 158.035C336.651 157.772 336.805 156.828 336.887 155.938C337.051 154.154 337.271 153.739 338.179 153.497C339.246 153.212 340.39 154.075 340.589 155.314C340.646 155.663 340.796 156.219 340.924 156.548C341.555 158.171 342.099 159.393 342.295 159.624C342.414 159.765 342.644 160.341 342.805 160.904C342.966 161.467 343.274 162.236 343.489 162.613C343.705 162.99 343.931 163.585 343.992 163.935C344.053 164.285 344.282 164.785 344.499 165.046C344.717 165.307 344.991 165.944 345.109 166.461C345.227 166.978 345.503 167.67 345.722 167.999C345.94 168.328 346.169 168.828 346.23 169.11C346.29 169.392 346.416 169.815 346.509 170.05C346.72 170.582 347.653 171.346 347.841 171.141C347.917 171.059 348.113 170.567 348.278 170.05C348.442 169.533 348.716 168.877 348.888 168.592C349.059 168.307 349.283 167.699 349.386 167.242C349.488 166.785 349.726 166.194 349.915 165.929C350.103 165.665 350.401 165.042 350.577 164.545C350.753 164.048 351.05 163.332 351.238 162.954C351.426 162.577 351.633 161.985 351.698 161.639C351.763 161.294 351.997 160.766 352.219 160.465C352.441 160.164 352.673 159.58 352.735 159.167C352.797 158.754 353.03 158.146 353.254 157.817C353.477 157.488 353.748 156.856 353.856 156.413C354.054 155.603 354.263 155.101 354.542 154.764C354.625 154.664 354.867 154.313 355.08 153.984C355.4 153.489 355.584 153.377 356.145 153.335C356.518 153.308 356.962 153.386 357.132 153.511C357.455 153.748 357.752 154.737 357.76 155.608C357.763 155.89 357.891 156.351 358.045 156.633C358.324 157.146 358.76 160.042 358.779 161.514C358.784 161.943 358.902 162.443 359.04 162.625C359.178 162.808 359.293 163.198 359.296 163.492C359.3 163.786 359.417 164.303 359.558 164.64C359.699 164.978 359.814 165.66 359.814 166.156C359.815 167.207 360.237 169.562 360.52 170.092C360.703 170.432 360.79 170.97 361.169 174.067C361.249 174.725 361.43 175.532 361.569 175.862C361.932 176.716 362.113 179.157 361.851 179.655C361.547 180.232 361.376 180.3 360.213 180.303C359.132 180.303 357.769 179.866 357.484 179.422C357.403 179.297 357.282 178.541 357.215 177.742C356.984 175.008 356.871 174.237 356.563 173.298C356.393 172.781 356.201 171.55 356.136 170.563C356.058 169.382 355.903 168.505 355.682 167.999C355.498 167.576 355.304 166.846 355.251 166.376C355.158 165.554 354.777 164.847 354.516 165.008C354.447 165.051 354.301 165.541 354.192 166.099C354.082 166.656 353.879 167.206 353.74 167.321C353.601 167.437 353.364 167.963 353.213 168.492C353.063 169.02 352.757 169.822 352.533 170.275C352.309 170.727 352.002 171.535 351.851 172.069C351.699 172.604 351.467 173.212 351.335 173.421C351.204 173.63 350.98 174.246 350.839 174.789C350.699 175.332 350.431 175.983 350.245 176.235C350.06 176.487 349.832 177.032 349.739 177.446C349.581 178.15 348.736 179.942 348.331 180.43C348.096 180.712 346.546 180.715 346.368 180.43V180.434Z" fill="#3E000F"/>
<path d="M369.031 179.865L368.617 179.424V166.71C368.617 154.738 368.634 153.979 368.922 153.692C369.196 153.417 369.671 153.381 373.61 153.335C378.002 153.284 380.071 153.442 380.752 153.879C380.94 154 381.35 154.187 381.663 154.294C382.518 154.587 384.564 156.003 384.685 156.385C384.744 156.57 384.98 156.945 385.21 157.218C385.439 157.491 385.744 158.044 385.886 158.447C386.028 158.851 386.27 159.319 386.423 159.488C386.637 159.725 386.72 160.283 386.783 161.932C386.864 164.026 386.856 164.083 386.415 164.719C386.167 165.077 385.965 165.459 385.965 165.568C385.965 165.872 385.407 166.975 385.253 166.975C385.178 166.975 384.967 167.269 384.783 167.63C384.465 168.252 383.827 168.815 382.29 169.829C381.222 170.533 380.009 170.752 376.594 170.856C373.473 170.951 373.461 170.953 373.304 171.367C373.217 171.595 373.146 173.35 373.146 175.267C373.146 177.609 373.079 178.899 372.941 179.201C372.64 179.862 371.637 180.306 370.448 180.306C369.591 180.306 369.385 180.242 369.031 179.865ZM378.773 166.389C378.921 166.255 379.423 166.004 379.887 165.832C380.751 165.511 381.261 164.912 381.968 163.386C382.345 162.572 382.182 160.984 381.65 160.288C379.987 158.112 379.871 158.06 376.393 157.955C372.841 157.848 373.112 157.481 373.179 162.315C373.219 165.184 373.287 166.135 373.466 166.35C373.664 166.588 374.078 166.633 376.102 166.633C377.941 166.633 378.566 166.576 378.773 166.389Z" fill="#3E000F"/>
<path d="M388.102 179.762C387.699 179.283 387.658 179.126 387.76 178.438C387.823 178.008 388.094 177.324 388.361 176.918C388.629 176.512 388.933 175.783 389.037 175.299C389.141 174.814 389.367 174.262 389.54 174.071C389.713 173.881 389.95 173.418 390.067 173.042C390.185 172.666 390.461 172.116 390.682 171.82C390.903 171.524 391.165 170.917 391.265 170.47C391.366 170.023 391.585 169.458 391.752 169.213C391.92 168.969 392.193 168.402 392.359 167.954C392.526 167.505 392.774 167.026 392.912 166.888C393.05 166.75 393.284 166.271 393.433 165.823C393.581 165.375 393.841 164.855 394.011 164.666C394.181 164.478 394.398 163.979 394.494 163.556C394.59 163.133 395.085 161.941 395.593 160.906C396.102 159.872 396.645 158.634 396.801 158.156C396.957 157.677 397.275 157.027 397.507 156.712C397.739 156.397 397.929 156.036 397.929 155.908C397.929 155.591 398.409 154.689 398.802 154.267C398.98 154.076 399.126 153.87 399.126 153.809C399.126 153.555 399.922 153.363 400.422 153.497C401.064 153.668 401.413 154.047 401.672 154.854C401.78 155.191 402.059 155.725 402.292 156.041C402.525 156.356 402.715 156.704 402.715 156.814C402.715 156.923 402.936 157.427 403.205 157.934C403.474 158.441 403.82 159.288 403.972 159.816C404.125 160.344 404.362 160.869 404.499 160.983C404.635 161.096 404.872 161.563 405.024 162.021C405.176 162.478 405.452 163.046 405.638 163.282C405.824 163.519 406.12 164.119 406.296 164.617C406.472 165.114 406.768 165.829 406.953 166.205C407.138 166.581 407.342 167.13 407.405 167.426C407.468 167.722 407.666 168.096 407.844 168.257C408.022 168.419 408.253 168.961 408.358 169.463C408.462 169.965 408.744 170.666 408.985 171.021C409.226 171.376 409.52 171.939 409.637 172.272C409.755 172.606 410.044 173.162 410.279 173.509C410.515 173.856 410.759 174.481 410.821 174.898C410.884 175.317 411.119 175.87 411.345 176.133C411.571 176.396 411.841 176.961 411.945 177.39C412.05 177.818 412.238 178.357 412.364 178.588C412.557 178.944 412.552 179.067 412.328 179.408C411.92 180.032 411.214 180.306 410.017 180.306C409.1 180.306 408.875 180.244 408.594 179.921C407.917 179.142 407.202 177.98 406.989 177.315C406.647 176.244 406.163 175.377 405.798 175.181C405.579 175.064 403.5 175.018 399.785 175.048L394.106 175.093L393.635 175.862C393.376 176.285 393.034 177.054 392.876 177.571C392.445 178.981 392.176 179.411 391.433 179.879C390.894 180.22 390.536 180.306 389.659 180.306C388.633 180.306 388.529 180.269 388.102 179.762ZM403.583 170.442C403.777 169.933 403.422 168.715 402.972 168.342C402.841 168.233 402.648 167.732 402.544 167.228C402.439 166.724 402.202 166.119 402.018 165.885C401.833 165.65 401.567 165.13 401.425 164.729C401.284 164.328 401.057 163.878 400.923 163.729C400.788 163.58 400.517 163.095 400.321 162.652C400.125 162.209 399.9 161.847 399.822 161.847C399.744 161.847 399.555 162.343 399.403 162.95C399.251 163.557 398.934 164.337 398.699 164.683C398.464 165.029 398.271 165.406 398.271 165.521C398.271 165.636 398.076 166.018 397.837 166.37C397.599 166.721 397.298 167.405 397.169 167.889C396.865 169.037 396.727 169.367 396.555 169.367C396.33 169.367 396.197 169.982 396.317 170.463L396.428 170.905H399.918H403.407L403.583 170.442Z" fill="#3E000F"/>
<path d="M436.773 180.198C436.578 179.95 436.418 179.648 436.418 179.527C436.418 179.406 435.918 178.809 435.307 178.201C434.696 177.593 434.196 177.014 434.196 176.914C434.196 176.814 433.756 176.286 433.217 175.742C432.678 175.197 432.036 174.444 431.791 174.068C431.545 173.692 430.717 172.711 429.95 171.889C429.183 171.067 428.556 170.3 428.556 170.184C428.556 170.069 428.104 169.544 427.551 169.018C426.998 168.492 426.427 167.833 426.283 167.553C426.138 167.273 425.664 166.701 425.229 166.283C424.794 165.864 424.215 165.176 423.943 164.753C423.671 164.33 423.218 163.714 422.936 163.385C421.991 162.28 421.981 162.354 421.927 171.186C421.885 177.908 421.838 179.202 421.621 179.533C421.27 180.069 420.083 180.376 418.923 180.231C417.223 180.019 417.367 181.228 417.319 166.743C417.286 156.775 417.324 153.979 417.494 153.643C417.664 153.308 417.864 153.205 418.422 153.164C419.111 153.113 419.178 153.152 420.64 154.624C421.469 155.456 422.339 156.402 422.574 156.727C422.809 157.052 423.511 157.856 424.134 158.514C424.757 159.172 425.385 159.941 425.529 160.223C425.674 160.505 426.452 161.417 427.26 162.249C428.067 163.081 428.727 163.845 428.727 163.946C428.727 164.048 429.493 164.884 430.43 165.805C431.366 166.726 432.259 167.731 432.413 168.039C432.567 168.347 433.202 169.117 433.824 169.751C434.931 170.88 434.959 170.896 435.168 170.52C435.329 170.229 435.382 168.187 435.387 162.087C435.392 154.604 435.414 154.019 435.696 153.764C436.131 153.37 438.026 153.223 438.976 153.51C439.666 153.718 439.751 153.803 439.878 154.413C439.955 154.784 439.997 160.691 439.97 167.541L439.922 179.995L439.519 180.321C439.225 180.559 438.845 180.648 438.121 180.648C437.251 180.648 437.083 180.593 436.773 180.198Z" fill="#3E000F"/>
<path d="M453.639 179.836L453.191 179.366L453.137 173.64L453.083 167.914L452.656 167.266C452.421 166.91 451.978 166.307 451.673 165.926C451.367 165.544 451.117 165.129 451.117 165.003C451.117 164.796 450.509 164.005 449.314 162.655C449.084 162.395 448.895 162.086 448.895 161.968C448.895 161.85 448.676 161.486 448.407 161.159C448.138 160.832 447.863 160.39 447.796 160.177C447.729 159.964 447.457 159.579 447.191 159.323C446.925 159.066 446.353 158.317 445.92 157.659C445.487 157.001 445.023 156.345 444.888 156.202C444.199 155.468 444.112 154.309 444.7 153.72C445.066 153.355 445.269 153.302 446.281 153.31C447.824 153.323 448.538 153.589 449.01 154.326C449.468 155.042 450.183 156.022 450.795 156.771C451.04 157.071 451.378 157.586 451.545 157.915C451.712 158.244 452.049 158.753 452.295 159.045C452.54 159.337 452.895 159.759 453.083 159.983C453.271 160.206 453.617 160.733 453.852 161.153C454.087 161.573 454.521 162.057 454.817 162.229L455.354 162.54L455.891 162.003C456.187 161.707 456.582 161.186 456.769 160.844C456.955 160.502 457.453 159.8 457.875 159.283C458.297 158.766 458.806 158.035 459.005 157.659C459.205 157.283 459.512 156.822 459.689 156.634C460.499 155.772 461.159 154.877 461.365 154.362C461.689 153.554 462.098 153.403 463.993 153.394C465.464 153.383 465.703 153.427 465.915 153.718C466.317 154.267 466.219 155.253 465.7 155.87C465.448 156.169 465.121 156.628 464.974 156.89C464.648 157.468 463.746 158.684 463.166 159.329C462.931 159.589 462.74 159.904 462.74 160.028C462.74 160.153 462.58 160.4 462.384 160.577C462.188 160.755 461.918 161.161 461.785 161.482C461.651 161.802 461.292 162.357 460.987 162.715C460.146 163.703 459.743 164.265 459.406 164.921C459.238 165.249 458.9 165.718 458.655 165.964C458.411 166.21 458.018 166.711 457.783 167.077L457.356 167.743L457.27 173.554C457.183 179.497 457.129 179.956 456.492 180.2C456.341 180.258 455.738 180.305 455.152 180.305C454.213 180.305 454.034 180.25 453.639 179.836Z" fill="#3E000F"/>
</g>
<defs>
<clipPath id="clip0_15_17923">
<rect width="500" height="180.663" fill="white"/>
</clipPath>
</defs>
</svg>
