<svg width="500" height="115" viewBox="0 0 500 115" fill="none" xmlns="http://www.w3.org/2000/svg">
<g clip-path="url(#clip0_15_17940)">
<path fill-rule="evenodd" clip-rule="evenodd" d="M94.427 65.3847C94.5574 62.712 94.6225 59.974 94.6225 57.3013C94.6225 54.6285 94.5574 51.8906 94.427 49.2178C97.1975 49.3482 99.9028 49.5112 102.543 49.6742C102.706 52.2165 102.804 54.7589 102.804 57.3013C102.804 59.8111 102.706 62.386 102.543 64.9284C99.9354 65.0914 97.1975 65.2544 94.427 65.3847ZM76.0111 100.945C76.3696 98.3704 76.663 95.6976 76.9563 92.9923C81.2262 92.4056 85.4309 91.6559 89.44 90.6781C88.7555 93.3834 87.9733 96.0236 87.1258 98.5334C83.5404 99.5112 79.8246 100.293 76.0111 100.945ZM65.5808 114.602C65.9068 111.05 66.2001 107.236 66.4609 103.26C69.1988 103.031 71.9368 102.771 74.6095 102.347C74.088 106.128 73.5013 109.713 72.8494 113.103C70.47 113.788 67.9928 114.277 65.5808 114.602ZM20.9263 65.3847C18.1558 65.2544 15.4178 65.0914 12.8103 64.9284C12.6473 62.386 12.5495 59.8111 12.5495 57.3013C12.5495 54.7589 12.6473 52.2165 12.8103 49.6742C15.4504 49.5112 18.1558 49.3482 20.9263 49.2178C20.7959 51.8906 20.7308 54.6285 20.7308 57.3013C20.7308 59.974 20.7959 62.712 20.9263 65.3847ZM57.6929 77.0862C54.7594 77.0862 51.8585 77.0536 48.9576 76.9884C48.8598 73.8593 48.7946 70.665 48.7621 67.4056C51.7607 67.4382 54.7594 67.4708 57.6929 67.4708C60.6265 67.4708 63.6252 67.4382 66.5913 67.4056C66.5587 70.665 66.4935 73.8593 66.3957 76.9884C63.4948 77.0536 60.5939 77.0862 57.6929 77.0862ZM76.9237 36.7667C73.8598 36.6364 70.7308 36.4734 67.5691 36.4082C67.4387 31.4538 67.2757 26.5647 67.0476 21.871C70.0137 22.0666 72.9472 22.2948 75.8481 22.6859C76.3044 27.2491 76.663 32.0079 76.9237 36.7667ZM25.9133 23.8919C26.5978 21.1866 27.38 18.5464 28.2275 16.0366C31.7803 15.0914 35.5287 14.2765 39.3096 13.6572C38.9837 16.2322 38.6577 18.9049 38.397 21.6103C34.0945 22.197 29.9224 22.9793 25.9133 23.8919ZM66.5913 47.1644C63.6577 47.1318 60.659 47.1318 57.6929 47.1318C54.6943 47.1318 51.6956 47.1318 48.7621 47.1644C48.7946 43.9375 48.8598 40.7433 48.9576 37.6142C51.8585 37.549 54.7594 37.5164 57.6929 37.5164C60.5939 37.5164 63.4948 37.549 66.3957 37.6142C66.4935 40.7433 66.5587 43.9375 66.5913 47.1644ZM17.7972 95.0132C15.5808 94.1222 13.473 93.1661 11.4739 92.1448C9.51824 89.5373 7.75814 86.7993 6.25879 83.931C9.09451 85.3 12.1584 86.5386 15.3853 87.6468C16.1023 90.1566 16.9172 92.6338 17.7972 95.0132ZM109.095 30.6716C106.259 29.3026 103.195 28.064 99.968 26.9558C99.251 24.4134 98.447 21.958 97.556 19.5894C99.7725 20.4586 101.88 21.4147 103.879 22.4577C105.835 25.0327 107.595 27.8032 109.095 30.6716Z" fill="#43BEAC"/>
<path fill-rule="evenodd" clip-rule="evenodd" d="M102.771 74.2177C103.194 71.5124 103.455 68.807 103.683 66.0691C107.66 65.8083 111.441 65.515 115.026 65.189C114.7 67.6336 114.211 70.0782 113.56 72.4576C110.17 73.0769 106.552 73.6962 102.771 74.2177ZM91.0693 89.0482C92.0472 85.0391 92.7968 80.8344 93.3835 76.5645C96.0889 76.2712 98.7616 75.9452 101.337 75.6193C100.717 79.4329 99.935 83.1486 98.9572 86.7014C96.4474 87.5489 93.8073 88.3638 91.0693 89.0482ZM67.0472 92.7314C67.2753 88.0378 67.4383 83.1486 67.5687 78.1943C70.7303 78.0965 73.8594 77.9987 76.9233 77.8357C76.6625 82.6271 76.2714 87.3533 75.8477 91.9166C72.9468 92.2425 70.0133 92.5359 67.0472 92.7314ZM37.1254 76.5319C32.334 76.2712 27.6078 75.8801 23.0446 75.4563C22.686 72.5554 22.3927 69.6219 22.1971 66.6558C26.8581 66.884 31.7473 67.0469 36.7668 67.1773C36.8646 70.339 36.995 73.4681 37.1254 76.5319ZM49.7721 114.602C47.3601 114.276 44.8829 113.787 42.5035 113.103C41.8842 109.713 41.2649 106.128 40.7434 102.347C43.4161 102.771 46.1541 103.031 48.892 103.259C49.1854 107.236 49.4461 111.05 49.7721 114.602ZM101.369 38.983C98.7942 38.6245 96.1215 38.3312 93.3835 38.0378C92.7968 33.7679 92.0472 29.5958 91.1019 25.5541C93.8073 26.2386 96.4474 27.0209 98.9572 27.8683C99.935 31.4537 100.717 35.1695 101.369 38.983ZM74.6091 12.2229C71.9363 11.8318 69.1984 11.5385 66.4605 11.3429C66.1997 7.36636 65.9063 3.5528 65.5804 0C67.9924 0.325945 70.4696 0.814863 72.849 1.46675C73.4683 4.85658 74.0876 8.47458 74.6091 12.2229ZM0.326172 49.4133C0.652117 46.9687 1.14103 44.5241 1.79293 42.1447C5.18276 41.5254 8.80075 40.9061 12.5817 40.3846C12.158 43.0574 11.8972 45.7953 11.6691 48.5332C7.69253 48.794 3.87897 49.0874 0.326172 49.4133ZM22.1971 47.9465C22.3927 44.9804 22.6534 42.0143 23.0446 39.146C27.6078 38.6897 32.334 38.3312 37.1254 38.0704C36.995 41.1343 36.832 44.2634 36.7668 47.3924C31.8125 47.5228 26.9233 47.7184 22.1971 47.9465ZM65.776 20.5671C63.0706 20.4368 60.3653 20.3716 57.6925 20.3716C54.9872 20.3716 52.2818 20.4368 49.5765 20.5671C49.7069 17.8292 49.8698 15.0913 50.0328 12.4511C52.6078 12.2881 55.1502 12.2229 57.6925 12.2229C60.2023 12.2229 62.7447 12.2881 65.3196 12.4511C65.4826 15.0913 65.6456 17.8292 65.776 20.5671ZM31.0302 108.638C28.1619 107.138 25.3914 105.411 22.7838 103.455C21.7625 101.456 20.8064 99.3481 19.9155 97.1317C22.2949 98.0443 24.7721 98.8266 27.2818 99.5437C28.4118 102.76 29.6612 105.791 31.0302 108.638ZM95.437 17.4381C93.0576 16.558 90.5804 15.7757 88.0706 15.0587C86.9624 11.8318 85.6912 8.76793 84.3223 5.9322C87.1906 7.43155 89.9611 9.15906 92.5687 11.1473C93.5465 13.1356 94.5569 15.2868 95.437 17.4381Z" fill="#56AEE1"/>
<path fill-rule="evenodd" clip-rule="evenodd" d="M24.251 89.0156C21.5456 88.3312 18.9055 87.5489 16.3957 86.7014C15.4178 83.1486 14.6356 79.4329 14.0163 75.6193C16.5913 75.9452 19.264 76.2712 21.9693 76.5645C22.5561 80.8344 23.3057 85.0391 24.251 89.0156ZM47.556 66.1995C44.3292 66.1669 41.1349 66.1017 37.9733 66.0039C37.9081 63.103 37.8755 60.2021 37.8755 57.3012C37.8755 54.4003 37.9081 51.4668 37.9733 48.5658C41.1349 48.4681 44.3292 48.4355 47.556 48.3703C47.5235 51.369 47.4909 54.3351 47.4909 57.3012C47.4909 60.2347 47.5235 63.2334 47.556 66.1995ZM57.6929 102.379C55.1506 102.379 52.6082 102.282 50.0332 102.119C49.8703 99.4785 49.7073 96.7731 49.5769 94.0026C52.2823 94.1656 55.0202 94.2308 57.6929 94.2308C60.3331 94.2308 63.071 94.1656 65.7764 94.0026C65.646 96.7731 65.483 99.5111 65.3201 102.119C62.7451 102.282 60.2027 102.379 57.6929 102.379ZM93.1558 47.9465C88.4622 47.7184 83.573 47.5554 78.586 47.3924C78.5209 44.2634 78.3905 41.1343 78.2275 38.0704C83.0189 38.3312 87.7451 38.6897 92.3083 39.146C92.6669 42.0143 92.9602 44.9804 93.1558 47.9465ZM40.7438 12.2229C41.2653 8.47458 41.852 4.85658 42.5039 1.46675C44.8833 0.814863 47.3279 0.325945 49.7725 0C49.4465 3.5528 49.1532 7.36636 48.8924 11.3429C46.1545 11.5385 43.4165 11.8318 40.7438 12.2229ZM97.556 95.013C98.4687 92.6336 99.251 90.1564 99.968 87.6467C103.195 86.5385 106.259 85.2999 109.095 83.9309C107.595 86.7992 105.857 89.5372 103.879 92.1447C101.859 93.1552 99.7399 94.133 97.556 95.013ZM6.25879 30.6714C7.75814 27.7814 9.49651 25.0435 11.4739 22.4576C13.473 21.4146 15.5808 20.4585 17.7972 19.5893C16.8846 21.9687 16.1023 24.4459 15.3853 26.9557C12.1693 28.0639 9.12711 29.3025 6.25879 30.6714Z" fill="#91AEDB"/>
<path fill-rule="evenodd" clip-rule="evenodd" d="M78.1945 76.5324C78.3575 73.4685 78.4878 70.3394 78.553 67.2103C83.5726 67.0799 88.4618 66.917 93.1228 66.6888C92.9272 69.6549 92.6339 72.5884 92.3079 75.4567C87.7447 75.9131 83.0185 76.2716 78.1945 76.5324ZM67.7968 66.1999C67.8294 63.2338 67.862 60.2351 67.862 57.3016C67.862 54.3355 67.8294 51.3694 67.7968 48.3707C71.0237 48.4359 74.218 48.5011 77.3796 48.5663C77.4448 51.4672 77.4774 54.4007 77.4774 57.3016C77.4774 60.2025 77.4448 63.1034 77.3796 66.0043C74.2505 66.1021 71.0237 66.1673 67.7968 66.1999ZM12.5817 74.2181C8.80075 73.6966 5.18276 73.1099 1.79293 72.458C1.14103 70.0786 0.652117 67.634 0.326172 65.1895C3.91157 65.5154 7.69253 65.8088 11.6691 66.0695C11.8646 68.8075 12.158 71.5454 12.5817 74.2181ZM39.3092 100.913C35.4957 100.294 31.7799 99.5115 28.1945 98.5336C27.347 96.0239 26.5648 93.4163 25.8803 90.6784C29.922 91.6562 34.0941 92.4059 38.3966 92.9926C38.6573 95.6653 38.9833 98.3707 39.3092 100.913ZM48.3053 92.7318C45.3392 92.5689 42.4057 92.2755 39.5048 91.917C39.0811 87.3537 38.6899 82.6275 38.4292 77.8361C41.4931 77.9665 44.6221 78.0969 47.7838 78.1947C47.8816 83.149 48.0771 88.0382 48.3053 92.7318ZM115.026 49.4137C111.441 49.0878 107.66 48.7944 103.683 48.5337C103.455 45.7957 103.194 43.0578 102.771 40.385C106.552 40.9065 110.17 41.4932 113.56 42.1451C114.211 44.5245 114.7 46.9691 115.026 49.4137ZM89.4722 23.9248C85.4305 22.9796 81.2584 22.1973 76.9559 21.6432C76.6951 18.9052 76.3692 16.2651 76.0433 13.6901C79.8242 14.2768 83.54 15.0917 87.1254 16.0695C87.9728 18.5793 88.7551 21.2194 89.4722 23.9248ZM14.0159 38.9509C14.6352 35.1373 15.4174 31.4215 16.3953 27.8687C18.9051 27.0213 21.5452 26.2064 24.2506 25.5219C23.3053 29.5636 22.523 33.7357 21.9689 38.0382C19.2636 38.299 16.5908 38.6249 14.0159 38.9509ZM38.4292 36.767C38.6899 31.9756 39.0811 27.2494 39.5048 22.6862C42.4057 22.3277 45.3392 22.0669 48.3053 21.8713C48.0771 26.5324 47.9142 31.4215 47.7838 36.4085C44.6221 36.5063 41.4931 36.6367 38.4292 36.767ZM84.3223 108.638C85.6912 105.835 86.9298 102.771 88.0706 99.5441C90.5913 98.827 93.0467 98.023 95.437 97.1321C94.5461 99.3485 93.59 101.456 92.5687 103.455C89.9611 105.411 87.1906 107.139 84.3223 108.638ZM19.9155 17.4385C20.8064 15.2438 21.7625 13.1469 22.7838 11.1477C25.3914 9.15948 28.1619 7.43197 31.0302 5.93262C29.6612 8.76834 28.4226 11.8322 27.2818 15.0591C24.7721 15.7762 22.2949 16.591 19.9155 17.4385Z" fill="#8FC73E"/>
<path fill-rule="evenodd" clip-rule="evenodd" d="M153.259 60.2674L156.682 43.579H160.495L155.378 65.7433H151.695L147.49 49.5764L143.155 65.7433H139.472L134.354 43.579H138.168L141.623 60.2348L145.86 43.579H149.087L153.259 60.2674ZM172.783 65.7433C172.61 65.4391 172.457 64.9285 172.327 64.2114C171.154 65.4282 169.72 66.0367 168.025 66.0367C166.351 66.0367 164.993 65.5695 163.95 64.6351C162.907 63.7007 162.386 62.5382 162.386 61.1475C162.386 59.3874 163.038 58.0401 164.341 57.1058C165.645 56.1497 167.514 55.6716 169.948 55.6716H172.229V54.596C172.229 53.7485 171.99 53.0749 171.512 52.5751C171.034 52.0536 170.306 51.7929 169.328 51.7929C168.481 51.7929 167.786 51.9993 167.242 52.4122C166.721 52.8468 166.46 53.3791 166.46 54.0093H162.744C162.744 53.1184 163.038 52.2818 163.624 51.4995C164.233 50.6955 165.048 50.0762 166.069 49.6416C167.112 49.1853 168.264 48.9571 169.524 48.9571C171.458 48.9571 173.001 49.4461 174.152 50.4239C175.304 51.4017 175.891 52.7598 175.913 54.4982V61.9298C175.913 63.4291 176.13 64.6134 176.564 65.4826V65.7433H172.783ZM168.709 63.0706C169.426 63.0706 170.111 62.8967 170.763 62.5491C171.414 62.2014 171.903 61.7233 172.229 61.1149V58.0184H170.208C168.839 58.0184 167.818 58.2574 167.145 58.7355C166.449 59.2135 166.102 59.8872 166.102 60.7564C166.102 61.4734 166.33 62.0384 166.786 62.4513C167.264 62.8641 167.905 63.0706 168.709 63.0706ZM180.508 42.373H184.224V65.7433H180.508V42.373ZM188.07 57.3991C188.07 54.835 188.668 52.7924 189.863 51.2714C191.058 49.7503 192.655 48.9897 194.654 48.9897C196.545 48.9897 198.022 49.6416 199.087 50.9454L199.25 49.2831H202.607V65.2544C202.607 67.4274 201.934 69.1331 200.587 70.3717C199.239 71.6321 197.425 72.2622 195.143 72.2622C193.926 72.2622 192.742 72.0015 191.59 71.48C190.439 70.9802 189.559 70.3283 188.95 69.5243L190.71 67.3079C191.84 68.6551 193.242 69.3287 194.915 69.3287C196.154 69.3287 197.121 68.9919 197.816 68.3183C198.533 67.6664 198.892 66.6886 198.892 65.3848V64.2766C197.827 65.4717 196.404 66.0693 194.622 66.0693C192.688 66.0693 191.112 65.2979 189.896 63.7551C188.679 62.234 188.07 60.1153 188.07 57.3991ZM191.753 57.7251C191.753 59.3765 192.09 60.6803 192.764 61.6364C193.438 62.5708 194.372 63.038 195.567 63.038C197.066 63.038 198.175 62.4078 198.892 61.1475V53.8789C198.196 52.6403 197.099 52.021 195.6 52.021C194.383 52.021 193.438 52.4991 192.764 53.4552C192.09 54.433 191.753 55.8563 191.753 57.7251ZM215.515 52.6729C215.015 52.586 214.504 52.5425 213.983 52.5425C212.288 52.5425 211.147 53.1944 210.56 54.4982V65.7759H206.877V49.2831H210.398L210.495 51.141C211.386 49.7068 212.625 48.9897 214.211 48.9897C214.733 48.9897 215.167 49.0549 215.515 49.1853V52.6729ZM225.293 66.0693C222.946 66.0693 221.045 65.3413 219.589 63.8854C218.133 62.4078 217.405 60.4304 217.405 57.9532V57.4969C217.405 55.8672 217.72 54.4004 218.351 53.0966C218.981 51.8146 219.872 50.815 221.023 50.0979C222.175 49.3591 223.457 48.9897 224.869 48.9897C227.108 48.9897 228.835 49.7068 230.052 51.141C231.291 52.5751 231.91 54.6069 231.91 57.2362V58.7029H221.121C221.251 60.0719 221.708 61.1475 222.49 61.9298C223.294 62.7338 224.305 63.1358 225.521 63.1358C227.216 63.1358 228.596 62.4513 229.661 61.0823L231.649 62.9728C230.997 63.9506 230.117 64.722 229.009 65.287C227.901 65.8085 226.662 66.0693 225.293 66.0693ZM224.869 51.9558C223.848 51.9558 223.022 52.3144 222.392 53.0315C221.762 53.7485 221.36 54.7372 221.186 55.9976H228.259V55.7368C228.172 54.4982 227.836 53.5638 227.249 52.9337C226.684 52.2818 225.891 51.9558 224.869 51.9558ZM242.503 66.0693C240.156 66.0693 238.255 65.3413 236.799 63.8854C235.343 62.4078 234.615 60.4304 234.615 57.9532V57.4969C234.615 55.8672 234.93 54.4004 235.56 53.0966C236.212 51.8146 237.103 50.815 238.233 50.0979C239.385 49.3591 240.667 48.9897 242.079 48.9897C244.339 48.9897 246.078 49.7068 247.295 51.141C248.511 52.5751 249.12 54.6069 249.12 57.2362V58.7029H238.364C238.472 60.0719 238.918 61.1475 239.7 61.9298C240.504 62.7338 241.514 63.1358 242.731 63.1358C244.426 63.1358 245.806 62.4513 246.871 61.0823L248.859 62.9728C248.207 63.9506 247.327 64.722 246.219 65.287C245.111 65.8085 243.872 66.0693 242.503 66.0693ZM242.079 51.9558C241.058 51.9558 240.232 52.3144 239.602 53.0315C238.994 53.7485 238.603 54.7372 238.429 55.9976H245.469V55.7368C245.382 54.4982 245.056 53.5638 244.491 52.9337C243.905 52.2818 243.101 51.9558 242.079 51.9558ZM255.899 49.3157L255.997 51.2062C257.236 49.7285 258.844 48.9897 260.821 48.9897C264.255 48.9897 266.004 50.9563 266.069 54.8893V65.7759H262.353V55.1175C262.353 54.0745 262.125 53.3031 261.669 52.8033C261.212 52.2818 260.474 52.021 259.452 52.021C257.953 52.021 256.845 52.6946 256.128 54.0419V65.7759H252.412V49.3157H255.899ZM279.53 61.3105C279.53 60.6368 279.259 60.1371 278.716 59.8111C278.172 59.4634 277.271 59.1592 276.01 58.8985C274.75 58.616 273.696 58.2792 272.849 57.888C271.002 56.9971 270.078 55.7042 270.078 54.0093C270.078 52.5751 270.676 51.38 271.871 50.4239C273.088 49.4678 274.62 48.9897 276.467 48.9897C278.422 48.9897 280.009 49.4787 281.225 50.4565C282.442 51.4343 283.051 52.7055 283.051 54.27H279.368C279.368 53.553 279.096 52.9554 278.553 52.4773C278.031 51.9993 277.336 51.7603 276.467 51.7603C275.641 51.7603 274.967 51.9558 274.446 52.347C273.946 52.7164 273.696 53.2162 273.696 53.8463C273.696 54.4113 273.935 54.8568 274.413 55.1827C274.891 55.4869 275.858 55.802 277.314 56.1279C278.77 56.4321 279.911 56.8124 280.736 57.2687C281.562 57.7033 282.171 58.2357 282.562 58.8659C282.975 59.4743 283.181 60.224 283.181 61.1149C283.181 62.5925 282.562 63.7876 281.323 64.7003C280.106 65.6129 278.498 66.0693 276.499 66.0693C275.152 66.0693 273.946 65.8302 272.881 65.3522C271.838 64.8741 271.023 64.2005 270.437 63.3313C269.828 62.4839 269.524 61.5712 269.524 60.5934H273.142C273.185 61.4626 273.511 62.1362 274.12 62.6142C274.728 63.0706 275.543 63.2987 276.564 63.2987C277.52 63.2987 278.259 63.1249 278.781 62.7772C279.281 62.3861 279.53 61.8972 279.53 61.3105ZM295.469 65.7759V43.6116H303.064C305.584 43.6116 307.497 44.1114 308.8 45.111C310.104 46.1106 310.756 47.6099 310.756 49.609C310.756 50.6303 310.484 51.543 309.941 52.347C309.398 53.151 308.594 53.7811 307.529 54.2375C308.724 54.5634 309.648 55.1827 310.3 56.0953C310.973 56.9863 311.31 58.0619 311.31 59.3222C311.31 61.3865 310.637 62.9836 309.289 64.1136C307.964 65.2218 306.052 65.7759 303.553 65.7759H295.469ZM299.348 55.7694V62.712H303.618C304.835 62.712 305.78 62.4078 306.454 61.7994C307.127 61.2127 307.464 60.387 307.464 59.3222C307.464 57.0189 306.291 55.8346 303.944 55.7694H299.348ZM299.348 52.9337H303.129C304.324 52.9337 305.258 52.6729 305.932 52.1514C306.606 51.5864 306.942 50.815 306.942 49.8372C306.942 48.729 306.627 47.9358 305.997 47.4578C305.389 46.958 304.422 46.7081 303.096 46.7081H299.348V52.9337ZM314.602 57.3991C314.602 55.7694 314.917 54.3135 315.547 53.0315C316.199 51.7277 317.101 50.739 318.253 50.0654C319.404 49.3483 320.73 48.9897 322.229 48.9897C324.467 48.9897 326.271 49.7068 327.64 51.141C329.031 52.5751 329.791 54.4765 329.922 56.845V57.6925C329.922 59.3222 329.607 60.7781 328.976 62.0601C328.368 63.3422 327.477 64.3309 326.304 65.0262C325.13 65.7216 323.783 66.0693 322.262 66.0693C319.937 66.0693 318.079 65.2979 316.688 63.7551C315.298 62.2122 314.602 60.1479 314.602 57.5621V57.3991ZM318.285 57.7251C318.285 59.42 318.644 60.7455 319.361 61.7016C320.056 62.6577 321.023 63.1358 322.262 63.1358C323.522 63.1358 324.5 62.6577 325.195 61.7016C325.891 60.7238 326.238 59.2896 326.238 57.3991C326.238 55.7477 325.88 54.433 325.163 53.4552C324.446 52.4773 323.468 51.9884 322.229 51.9884C321.034 51.9884 320.078 52.4665 319.361 53.4226C318.644 54.3787 318.285 55.8129 318.285 57.7251ZM332.823 57.3991C332.823 55.7911 333.148 54.3461 333.8 53.0641C334.431 51.7603 335.321 50.7607 336.473 50.0654C337.647 49.37 338.983 49.0223 340.482 49.0223C342.699 49.0223 344.502 49.7394 345.893 51.1736C347.284 52.6077 348.033 54.4982 348.142 56.845L348.175 57.7251C348.175 59.3548 347.859 60.8107 347.229 62.0927C346.599 63.3748 345.697 64.3635 344.524 65.0588C343.372 65.7542 342.036 66.1019 340.515 66.1019C338.19 66.1019 336.321 65.3305 334.909 63.7876C333.518 62.2448 332.823 60.1805 332.823 57.5947V57.3991ZM336.538 57.7251C336.538 59.42 336.886 60.7455 337.581 61.7016C338.277 62.6577 339.255 63.1358 340.515 63.1358C341.753 63.1358 342.72 62.6468 343.416 61.669C344.111 60.6912 344.459 59.2679 344.459 57.3991C344.459 55.7259 344.1 54.4004 343.383 53.4226C342.666 52.4665 341.699 51.9884 340.482 51.9884C339.265 51.9884 338.309 52.4665 337.614 53.4226C336.897 54.3787 336.538 55.8129 336.538 57.7251ZM356.388 45.3066V49.3157H359.322V52.0536H356.388V61.2453C356.388 61.8754 356.519 62.3318 356.78 62.6142C357.019 62.8967 357.464 63.038 358.116 63.038C358.529 63.038 358.952 62.9836 359.387 62.875V65.7433C358.561 65.9823 357.757 66.1019 356.975 66.1019C354.128 66.1019 352.705 64.5265 352.705 61.3757V52.0536H350V49.3157H352.705V45.3066H356.388ZM371.838 61.3105C371.838 60.6586 371.556 60.1588 370.991 59.8111C370.469 59.4634 369.578 59.1592 368.318 58.8985C367.058 58.6377 366.004 58.3009 365.156 57.888C363.309 56.9971 362.386 55.7042 362.386 54.0093C362.386 52.5751 362.983 51.38 364.178 50.4239C365.374 49.4895 366.895 49.0223 368.742 49.0223C370.719 49.0223 372.316 49.5004 373.533 50.4565C374.75 51.4343 375.358 52.7055 375.358 54.27H371.643C371.643 53.553 371.382 52.9554 370.86 52.4773C370.317 52.021 369.611 51.7929 368.742 51.7929C367.938 51.7929 367.275 51.9776 366.753 52.347C366.254 52.7164 366.004 53.2162 366.004 53.8463C366.004 54.4113 366.243 54.8568 366.721 55.1827C367.199 55.4869 368.155 55.802 369.589 56.1279C371.045 56.4539 372.186 56.8341 373.012 57.2687C373.859 57.7033 374.478 58.2357 374.869 58.8659C375.261 59.4743 375.456 60.224 375.456 61.1149C375.456 62.5925 374.848 63.7985 373.631 64.7329C372.392 65.6455 370.784 66.1019 368.807 66.1019C367.46 66.1019 366.254 65.852 365.189 65.3522C364.124 64.8741 363.298 64.2114 362.712 63.3639C362.125 62.4947 361.832 61.5712 361.832 60.5934H365.417C365.482 61.4626 365.819 62.1362 366.427 62.6142C367.036 63.0923 367.84 63.3313 368.839 63.3313C369.817 63.3313 370.556 63.1466 371.056 62.7772C371.577 62.4078 371.838 61.9189 371.838 61.3105ZM400.195 60.626H391.59L389.798 65.7759H385.789L394.165 43.6116H397.62L406.03 65.7759H401.988L400.195 60.626ZM392.699 57.5295H399.12L395.893 48.3378L392.699 57.5295ZM408.931 42.4056H412.614V65.7759H408.931V42.4056ZM417.373 42.4056H421.056V65.8085H417.373V42.4056ZM425.815 49.3157H429.498V65.7759H425.815V49.3157ZM425.587 45.0458C425.587 44.4808 425.76 44.0136 426.108 43.6442C426.477 43.2531 426.999 43.0575 427.673 43.0575C428.324 43.0575 428.835 43.2531 429.205 43.6442C429.574 44.0136 429.759 44.4808 429.759 45.0458C429.759 45.6108 429.574 46.078 429.205 46.4474C428.835 46.8168 428.324 47.0015 427.673 47.0015C426.999 47.0015 426.477 46.8168 426.108 46.4474C425.739 46.078 425.565 45.6108 425.587 45.0458ZM443.839 65.8085C443.687 65.4826 443.546 64.9719 443.416 64.2766C442.242 65.4934 440.808 66.1019 439.113 66.1019C437.44 66.1019 436.082 65.6347 435.039 64.7003C433.996 63.7442 433.474 62.5708 433.474 61.1801C433.474 59.4417 434.126 58.1053 435.43 57.171C436.734 56.2149 438.603 55.7368 441.036 55.7368H443.318V54.6612C443.318 53.8137 443.079 53.1292 442.601 52.6077C442.123 52.1079 441.395 51.8581 440.417 51.8581C439.57 51.8581 438.874 52.0645 438.331 52.4773C437.788 52.8902 437.516 53.4226 437.516 54.0745H433.833C433.833 53.1836 434.126 52.347 434.713 51.5647C435.321 50.7607 436.136 50.1414 437.158 49.7068C438.201 49.2505 439.352 49.0223 440.613 49.0223C442.547 49.0223 444.089 49.5112 445.241 50.4891C446.393 51.4452 446.979 52.8033 447.001 54.5634V61.9949C447.001 63.4726 447.208 64.6568 447.62 65.5478V65.8085H443.839ZM439.798 63.1358C440.515 63.1358 441.199 62.9619 441.851 62.6142C442.503 62.2448 442.992 61.7668 443.318 61.1801V58.0836H441.297C439.928 58.0836 438.896 58.3226 438.201 58.8007C437.527 59.257 437.19 59.9306 437.19 60.8215C437.19 61.5169 437.418 62.0819 437.875 62.5165C438.353 62.9293 438.994 63.1358 439.798 63.1358ZM454.791 49.3157L454.889 51.2388C456.106 49.7611 457.714 49.0223 459.713 49.0223C463.146 49.0223 464.885 50.9889 464.928 54.9219V65.8085H461.245V55.1175C461.245 54.0745 461.017 53.3031 460.56 52.8033C460.104 52.3035 459.365 52.0536 458.344 52.0536C456.845 52.0536 455.736 52.7272 455.019 54.0745V65.8085H451.304V49.3157H454.791ZM475.945 63.1684C476.879 63.1684 477.651 62.8967 478.259 62.3535C478.868 61.8102 479.194 61.1475 479.237 60.3652H482.725C482.681 61.3865 482.355 62.3426 481.747 63.2335C481.16 64.1245 480.356 64.8198 479.335 65.3196C478.292 65.8411 477.184 66.1019 476.01 66.1019C473.685 66.1019 471.849 65.3631 470.502 63.8854C469.155 62.3861 468.481 60.3218 468.481 57.6925V57.3013C468.481 54.8024 469.155 52.8033 470.502 51.3039C471.849 49.7829 473.674 49.0223 475.978 49.0223C477.933 49.0223 479.531 49.5982 480.769 50.7498C482.008 51.8798 482.66 53.3791 482.725 55.2479H479.237C479.194 54.2918 478.868 53.5095 478.259 52.9011C477.651 52.2926 476.879 51.9884 475.945 51.9884C474.75 51.9884 473.826 52.423 473.175 53.2922C472.523 54.1614 472.197 55.476 472.197 57.2362V57.8554C472.197 59.6373 472.512 60.9628 473.142 61.832C473.794 62.7229 474.728 63.1684 475.945 63.1684ZM493.253 66.1019C490.906 66.1019 488.994 65.3631 487.516 63.8854C486.082 62.4078 485.365 60.4413 485.365 57.9858V57.5295C485.365 55.8998 485.68 54.433 486.31 53.1292C486.94 51.8255 487.831 50.815 488.983 50.0979C490.135 49.3809 491.417 49.0223 492.829 49.0223C495.067 49.0223 496.795 49.7394 498.012 51.1736C499.25 52.6077 499.869 54.6286 499.869 57.2362V58.7355H489.081C489.189 60.1045 489.646 61.1801 490.45 61.9624C491.254 62.7664 492.253 63.1684 493.448 63.1684C495.143 63.1684 496.523 62.4839 497.588 61.1149L499.609 63.0054C498.935 63.9832 498.044 64.7438 496.936 65.287C495.849 65.8302 494.622 66.1019 493.253 66.1019ZM492.796 51.9884C491.775 51.9884 490.949 52.347 490.319 53.0641C489.711 53.7811 489.32 54.7698 489.146 56.0302H496.186V55.7694C496.121 54.5308 495.795 53.5964 495.208 52.9663C494.622 52.3144 493.818 51.9884 492.796 51.9884Z" fill="#232C64"/>
</g>
<defs>
<clipPath id="clip0_15_17940">
<rect width="500" height="114.733" fill="white"/>
</clipPath>
</defs>
</svg>
