<svg width="500" height="120" viewBox="0 0 500 120" fill="none" xmlns="http://www.w3.org/2000/svg">
<g clip-path="url(#clip0_15_17937)">
<path d="M290 63.7983C290 51.9587 284.932 41.498 267.792 41.498C258.998 41.498 252.012 44.0044 248.225 46.1983L251.001 55.6969C254.488 53.5091 260.052 51.7075 265.304 51.7075C273.981 51.6952 275.403 56.6038 275.403 59.7598V60.5197C256.461 60.4891 244.487 67.0339 244.487 80.3625C244.487 88.5068 250.566 96.1424 261.192 96.1424C267.676 96.1424 273.154 93.5257 276.426 89.3954H276.745C276.745 89.3954 278.902 98.4221 290.834 94.972C290.227 91.1909 290 87.2076 290 82.3664V63.7983ZM275.869 76.2996C275.869 77.2556 275.789 78.2483 275.507 79.1001C274.416 82.7464 270.654 85.7982 265.972 85.7982C262.019 85.7982 258.918 83.5614 258.918 78.8734C258.918 71.7035 266.836 69.7303 275.869 69.7793" fill="#0071CE"/>
<path d="M0 25.3896C0 25.3896 12.3725 76.0079 14.3398 84.2073C16.6561 93.7916 20.8049 97.3337 32.7793 94.9744L40.5129 63.5862C42.4678 55.8096 43.7975 50.233 45.06 42.3094H45.2743C46.1507 50.3127 47.4132 55.8096 49.0126 63.6107C49.0126 63.6107 52.1684 77.8708 53.8048 85.341C55.398 92.8111 59.8837 97.5237 71.6315 94.9744L90.0403 25.3896H75.1795L68.8616 55.4909C67.1886 64.2113 65.6687 71.0809 64.486 79.0719H64.2715C63.2053 71.1667 61.851 64.5789 60.1106 56.0363L53.5658 25.3896H38.0617L31.0756 55.2519C29.0838 64.3706 27.221 71.6814 26.0505 79.4212H25.8483C24.6411 72.1594 23.0049 62.9121 21.2705 54.1366C21.2705 54.1366 17.1218 32.7557 15.6573 25.3896" fill="#0071CE"/>
<path d="M131.454 63.7983C131.454 51.9587 126.374 41.498 109.234 41.498C100.464 41.498 93.4662 44.0044 89.6791 46.1983L92.455 55.6969C95.9297 53.5091 101.488 51.7075 106.758 51.7075C115.435 51.6952 116.857 56.6038 116.857 59.7598V60.5197C97.9153 60.4891 85.9287 67.0339 85.9287 80.3625C85.9287 88.5068 92.0323 96.1424 102.609 96.1424C109.154 96.1424 114.584 93.5257 117.856 89.3954H118.187C118.187 89.3954 120.356 98.4221 132.275 94.972C131.663 91.1909 131.454 87.2076 131.454 82.3664V63.7983ZM117.311 76.2996C117.311 77.2556 117.231 78.2483 116.961 79.1001C115.858 82.7464 112.096 85.7982 107.402 85.7982C103.473 85.7982 100.36 83.5614 100.36 78.8734C100.36 71.7035 108.278 69.7303 117.311 69.7793" fill="#0071CE"/>
<path d="M139.166 25.3896V94.9499H153.31V80.1995V25.3896H139.166Z" fill="#0071CE"/>
<path d="M333.409 25.3896V76.7126C333.409 83.7967 334.739 88.736 337.601 91.7633C340.113 94.4167 344.225 96.1448 349.121 96.1448C353.326 96.1448 357.437 95.3359 359.38 94.6312L359.208 83.5822C357.756 83.9193 356.095 84.2073 353.816 84.2073C348.987 84.2073 347.393 81.1494 347.393 74.7884V55.1416H359.711V41.8498H347.393V25.3896" fill="#0071CE"/>
<path d="M296.853 42.7054V94.972H311.474V68.2044C311.474 66.7643 311.566 65.5203 311.793 64.3682C312.883 58.7242 317.167 55.1515 323.338 55.1515C325.06 55.1515 326.23 55.3415 327.53 55.5438V41.8413C326.439 41.6452 325.697 41.541 324.355 41.541C318.883 41.541 312.681 45.0157 310.064 52.5839H309.703V42.7054" fill="#0071CE"/>
<path d="M161.523 42.7054V94.972H175.771V64.2947C175.771 62.8546 175.93 61.3838 176.439 60.054C177.597 56.9471 180.471 53.3499 185.085 53.3499C190.821 53.3499 193.53 58.1911 193.53 65.1772V94.972H207.741V63.927C207.741 62.5727 207.931 60.912 208.329 59.7109C209.469 56.1872 212.582 53.3499 216.884 53.3499C222.681 53.3499 225.488 58.0869 225.488 66.3231V94.972H239.687V64.1537C239.687 47.9633 231.451 41.541 222.099 41.541C217.987 41.541 214.715 42.5522 211.773 44.3661C209.285 45.892 207.104 48.0429 205.149 50.8558H204.934C202.685 45.2301 197.403 41.541 190.502 41.541C181.654 41.541 177.634 46.0084 175.268 49.7833H175.054V42.7054" fill="#0071CE"/>
<path d="M436.232 40.3597C439.026 40.3597 441.379 38.9013 441.685 37.0261L444.455 5.65013C444.455 2.54317 440.797 0 436.232 0C431.641 0 428.007 2.54317 428.007 5.65013L430.802 37.0261C431.096 38.9013 433.437 40.3597 436.232 40.3597Z" fill="#FFC220"/>
<path d="M419.236 50.1779C420.621 47.7267 420.541 45.0058 419.046 43.7925L393.186 25.7084C390.495 24.1396 386.469 26.0087 384.165 29.9675C381.867 33.9201 382.333 38.3568 384.968 39.895L413.598 53.1685C415.431 53.8548 417.827 52.5802 419.236 50.1534" fill="#FFC220"/>
<path d="M453.223 50.152C454.688 52.5788 457.084 53.8534 458.867 53.2038L487.498 39.8936C490.157 38.3248 490.556 33.9309 488.307 29.9783C486.008 26.0195 481.958 24.1627 479.274 25.7009L453.407 43.7665C451.973 44.9983 451.869 47.7314 453.254 50.1766" fill="#FFC220"/>
<path d="M436.232 79.5518C439.026 79.5518 441.379 81.0103 441.685 82.8855L444.455 114.261C444.455 117.368 440.797 119.887 436.232 119.887C431.641 119.887 428.007 117.368 428.007 114.261L430.802 82.8855C431.096 81.0103 433.437 79.5518 436.232 79.5518Z" fill="#FFC220"/>
<path d="M453.223 69.7621C454.688 67.3293 457.084 66.0301 458.867 66.7349L487.498 80.0206C490.157 81.5588 490.556 85.9894 488.307 89.9481C486.008 93.8763 481.958 95.7453 479.274 94.2072L453.407 76.117C451.973 74.8975 451.869 72.1766 453.254 69.7621" fill="#FFC220"/>
<path d="M419.236 69.7351C420.621 72.1802 420.541 74.8949 419.046 76.1206L393.186 94.1801C390.495 95.7489 386.469 93.8737 384.165 89.9456C381.867 85.9929 382.333 81.5562 384.968 80.018L413.598 66.7323C415.431 66.0337 417.827 67.3206 419.236 69.7351Z" fill="#FFC220"/>
<path d="M495.876 91.4538H496.231C496.715 91.4538 496.911 91.607 496.967 91.9931C497.071 92.422 497.126 92.71 497.23 92.8326H498.149C498.07 92.7407 497.965 92.5078 497.91 91.9685C497.806 91.5028 497.567 91.2393 497.23 91.1474V91.0616C497.696 90.9574 497.965 90.6449 497.965 90.2588C497.965 89.9095 497.806 89.6582 497.647 89.4989C497.34 89.3518 497.046 89.2354 496.397 89.2354C495.821 89.2354 495.398 89.2844 495.061 89.3641V92.8326H495.876V91.4538ZM495.9 89.8727L496.317 89.8176C496.807 89.8176 497.071 90.0443 497.071 90.363C497.071 90.7184 496.715 90.8839 496.262 90.8839H495.9V89.8727ZM496.421 87.5195C494.411 87.5195 492.818 89.0883 492.818 91.0126C492.818 92.9858 494.411 94.5546 496.421 94.5546C498.456 94.5546 500 92.9858 500 91.0126C500 89.0883 498.456 87.5195 496.421 87.5195ZM496.421 88.2243C497.965 88.2243 499.111 89.4744 499.111 91.0126C499.111 92.563 497.965 93.8499 496.421 93.8254C494.877 93.8254 493.706 92.563 493.706 91.0126C493.706 89.4744 494.877 88.2243 496.397 88.2243" fill="#FFC220"/>
</g>
<defs>
<clipPath id="clip0_15_17937">
<rect width="500" height="119.887" fill="white"/>
</clipPath>
</defs>
</svg>
