<svg width="500" height="160" viewBox="0 0 500 160" fill="none" xmlns="http://www.w3.org/2000/svg">
<g clip-path="url(#clip0_33_1401)">
<path d="M486.855 147.92H488.086C489.453 147.92 490.684 147.51 490.684 146.279C490.684 145.322 490 144.639 488.359 144.639C487.676 144.639 487.266 144.775 486.992 144.775V147.92H486.855ZM486.719 154.219H484.121V143.125C485.078 142.988 486.582 142.715 488.369 142.715C490.42 142.715 491.377 143.125 492.207 143.535C492.754 143.945 493.301 144.902 493.301 145.859C493.301 147.09 492.344 148.047 490.977 148.457V148.594C492.07 149.004 492.617 149.824 493.027 151.328C493.437 152.969 493.574 153.652 493.848 154.062H491.113C490.84 153.652 490.566 152.695 490.293 151.465C490.02 150.234 489.473 149.688 487.969 149.688H486.738V154.209L486.719 154.219ZM488.496 139.561C483.564 139.561 480.01 143.535 480.01 148.457C480.01 153.379 483.711 157.354 488.633 157.354C493.555 157.354 497.119 153.379 497.119 148.457C497.119 143.535 493.555 139.561 488.496 139.561ZM488.633 137.236C495.068 137.236 500 142.168 500 148.33C500 154.492 495.068 159.561 488.633 159.561C482.197 159.561 477.129 154.629 477.129 148.33C477.129 142.031 482.197 137.236 488.633 137.236Z" fill="#02A6E3"/>
<path d="M58.4668 115.732H100.918L116.523 155.029H145.137L83.7988 7.97852H62.0313L0 155.029H26.0156C26.0156 155.029 52.0313 90.6738 52.5781 89.5801C53.125 88.3496 53.6719 87.1191 54.2188 85.6055C54.7656 84.1016 55.5859 82.1777 56.4062 79.8535L60.6543 69.7168C62.0215 66.4258 63.1152 63.6914 63.9453 61.5039C64.7656 59.1797 65.7227 57.1191 66.543 54.9316C67.3633 52.8809 68.1836 50.6836 68.8672 48.4961C69.5508 46.3086 70.5078 43.7012 71.4649 40.5566H72.1484C73.1055 43.7012 74.0625 46.3086 74.7461 48.4961C75.4297 50.6836 76.1133 52.7441 76.7969 54.7949C77.4805 56.709 78.1641 58.9062 79.1211 61.2305C79.9414 63.5547 81.0352 66.2988 82.4023 69.7168L86.6504 80.2637C87.4707 82.3145 88.291 84.1016 88.8379 85.4688C89.3848 86.8359 89.9316 88.2031 90.3418 89.3066C90.752 90.5371 91.2988 91.6309 91.8457 92.8711C92.3926 94.1016 93.7598 96.8457 93.7598 96.8457H49.3945L58.4277 115.742L58.4668 115.732Z" fill="#02A6E3"/>
<path d="M205.342 74.5508H179.463C179.463 74.9609 179.6 155.059 179.6 155.059H154.268V74.5508H134.688V56.0644H154.268V45.2441C154.268 38.6719 155.225 32.6465 157.275 27.3047C159.189 21.9629 162.07 17.3047 165.898 13.4766C169.6 9.63867 174.248 6.63086 179.59 4.30664C184.932 1.98242 190.957 0.605469 197.529 0.195312C200.811 -0.078125 203.555 -0.078125 205.879 0.195312C208.203 0.46875 210.947 1.01562 214.092 1.69922L210.117 20.0488C208.477 19.7754 206.973 19.6387 205.596 19.502C204.219 19.3652 202.451 19.502 200.254 19.6387C192.314 20.3223 186.699 22.7832 183.545 26.8945C181.904 29.082 180.811 31.6894 180.254 34.5605C179.707 37.4316 179.434 42.0898 179.434 48.3887V56.0547H205.723V74.541H205.313L205.342 74.5508Z" fill="#02A6E3"/>
<path d="M371.982 140.498C370.479 140.088 369.111 139.268 368.145 138.311C367.598 137.627 367.051 136.807 366.777 136.123C366.367 135.439 366.094 134.346 365.957 133.115C365.684 131.885 365.547 130.244 365.547 128.32C365.41 126.406 365.41 123.936 365.41 120.791V91.6309C365.41 79.0332 363.223 70 358.838 64.6582C355.557 60.957 351.445 58.0859 346.104 56.1719C340.898 54.2578 334.873 53.1641 328.164 53.1641C315.977 53.1641 303.105 56.7285 289.824 63.7109V82.7441C296.396 79.3164 302.012 76.8555 306.533 75.3516C311.055 73.8477 315.566 72.8906 320.361 72.6172C326.523 72.207 331.455 73.3008 335.146 76.0449C338.848 78.7793 340.625 82.6172 340.625 87.6855V92.6172C331.318 93.3008 323.916 94.3945 316.523 95.8984C309.131 97.4023 303.516 99.1797 299.814 101.104C294.473 103.838 290.371 107.676 287.217 112.471C284.072 117.266 282.559 122.471 282.559 128.076C282.559 137.383 285.02 144.512 290.088 149.434C292.549 152.031 295.84 154.229 299.668 155.732C303.506 157.236 307.471 158.057 311.445 158.057C314.59 158.057 317.334 157.92 319.658 157.51C322.119 157.1 324.453 156.553 326.914 155.596C329.375 154.775 331.846 153.408 334.58 151.895C337.178 150.254 340.332 148.193 343.887 145.459C345.664 152.168 350.869 156.143 359.492 157.373C361.953 157.646 364.287 157.783 366.611 157.646C368.799 157.51 371.816 157.1 375.371 156.416L378.652 140.811C375.645 141.084 373.447 140.947 371.943 140.537L371.982 140.498ZM340.361 114.893V133.926C332.559 138.584 326.26 141.045 321.602 141.045C316.943 141.045 312.979 139.814 310.098 137.207C307.363 134.609 305.986 131.182 306.396 126.934C306.67 121.045 309.541 116.523 314.883 113.516C320.225 110.371 328.164 108.311 340.352 106.67V114.883L340.361 114.893Z" fill="#02A6E3"/>
<path d="M252.588 1.79688H227.256V155.02H252.588V1.79688Z" fill="#02A6E3"/>
<path d="M454.131 81.6211C449.883 78.8867 446.191 76.9629 443.037 75.8691C439.893 74.7754 436.465 74.3652 432.627 74.3652C428.789 74.3652 425.234 75.0488 422.08 76.5527C418.789 78.0566 416.055 80.1172 413.73 82.5781C411.406 85.1758 409.482 88.1934 408.252 91.8848C406.885 95.4492 406.201 99.4141 406.201 103.662C406.201 108.32 406.885 112.695 408.252 116.67C409.619 120.645 411.543 124.062 414.004 126.943C416.465 129.814 419.346 132.012 422.764 133.652C426.191 135.293 429.883 136.113 433.857 136.113C436.045 136.113 438.105 135.977 439.883 135.84C441.66 135.566 443.584 135.293 445.225 134.746C447.002 134.199 448.789 133.516 450.566 132.695C452.344 131.875 454.541 130.645 456.865 129.414L465.215 146.67C454.941 154.473 443.037 158.311 429.756 158.311C422.227 158.311 415.518 157.08 409.355 154.473C403.193 151.875 397.988 148.311 393.75 143.516C389.365 138.857 386.084 133.105 383.75 126.533C381.426 119.961 380.186 112.568 380.186 104.492C380.186 97.7832 381.553 91.2109 384.297 84.9121C387.031 78.6133 390.732 73.1348 395.391 68.4766C400.049 63.8184 405.391 59.9902 411.543 57.2461C417.705 54.5117 424.141 52.998 430.85 52.998C437.969 52.998 443.994 53.8184 449.199 55.3223C454.404 56.8262 459.473 59.4336 464.668 63.125L454.121 81.6113L454.131 81.6211Z" fill="#02A6E3"/>
<path d="M232.324 43.6914C231.094 50.4004 229.453 59.2969 223.838 65.3223C218.496 71.2109 211.65 75.8691 204.121 80.5176C201.523 82.1582 200.557 83.8086 200.557 86.2695C200.557 88.0469 201.377 89.5508 202.744 89.5508C204.521 89.5508 205.615 88.5938 208.223 88.5938C211.514 88.5938 215.479 91.1914 217.666 92.4316C215.068 94.3457 210.137 96.9531 210.137 101.328C210.137 104.619 213.838 108.857 223.691 108.857C232.861 108.857 244.912 98.4473 251.074 93.6621C254.219 83.5254 248.613 63.125 232.314 43.6816" fill="white"/>
<path d="M240.088 151.514C238.457 155.811 240.547 157.637 244.131 157.637C251.533 140.527 256.22 116.377 257.588 100.801C255.273 100.537 253.027 100.283 251.396 100.088C251.396 121.855 246.25 136.494 240.088 151.514Z" fill="white"/>
<path d="M244.131 157.607H260.264C266.035 140.4 266.621 105.176 266.621 101.719C264.57 101.592 261.016 101.162 257.598 100.771C256.201 116.348 251.533 140.527 244.141 157.607H244.131Z" fill="white"/>
<path d="M260.254 157.607H262.373C267.617 141.543 268.564 105.4 268.564 102.236C267.393 102.07 266.67 101.719 266.611 101.719C266.611 105.176 266.025 140.4 260.254 157.607Z" fill="white"/>
<path d="M262.373 157.607H263.281C268.301 142.002 269.404 105.43 269.443 102.373C269.15 102.344 268.828 102.305 268.564 102.246C268.535 105.41 267.617 141.553 262.373 157.617V157.607Z" fill="white"/>
<path d="M263.291 157.607H263.359C268.379 142.031 269.482 105.43 269.521 102.373H269.424C269.424 105.439 268.32 142.002 263.301 157.607H263.291Z" fill="white"/>
<path d="M263.35 157.607H263.545C268.535 142.129 269.668 105.43 269.736 102.402C269.668 102.402 269.609 102.373 269.541 102.373C269.512 105.439 268.369 142.07 263.35 157.607Z" fill="white"/>
<path d="M263.545 157.607H274.336C276.777 147.344 279.912 105.332 280.137 103.184C279.717 103.115 273.779 102.891 269.736 102.402C269.707 105.43 268.535 142.158 263.545 157.607Z" fill="white"/>
<path d="M274.336 157.607C276.777 147.344 279.912 105.332 280.137 103.184C280.527 103.252 281.045 103.281 281.699 103.35C281.67 109.248 279.316 145.713 277.168 157.607H274.336Z" fill="white"/>
<path d="M277.139 157.607H280.43C281.377 150.801 282.285 139.688 282.91 129.063C282.002 129.033 281.084 128.604 280.234 128.213C279.355 139.551 278.242 151.641 277.139 157.607Z" fill="white"/>
<path d="M280.234 128.213C281.084 128.633 282.031 129.023 282.91 129.062C283.525 118.438 283.916 108.301 283.818 103.516C283.037 103.447 282.324 103.389 281.67 103.32C281.67 106.289 281.084 116.875 280.234 128.223V128.213Z" fill="#FEFFFF"/>
<path d="M280.43 157.607C282.871 157.607 284.473 157.021 285.547 156.113C286.748 148.32 287.305 139.072 287.598 129.883C286.357 129.619 284.824 129.17 282.9 129.102C282.285 139.727 281.367 150.84 280.42 157.617L280.43 157.607Z" fill="white"/>
<path d="M282.91 129.092C284.805 129.16 286.367 129.609 287.607 129.873C287.773 125.273 287.871 120.684 287.93 116.318C286.631 115.312 285.156 114.268 283.633 114.17C283.506 118.604 283.242 123.779 282.92 129.092H282.91Z" fill="#FBFBFD"/>
<path d="M283.652 114.141C285.186 114.238 286.621 115.283 287.949 116.289C288.047 111.885 288.115 107.715 288.213 103.936C286.748 103.77 285.215 103.643 283.848 103.516C283.877 105.957 283.818 109.678 283.652 114.141Z" fill="#F8FAFC"/>
<path d="M285.547 156.113C286.592 155.166 287.109 153.867 287.344 152.432C288.779 143.662 289.756 136.855 290.508 129.648C289.824 130.264 288.877 130.166 287.637 129.912C287.275 139.072 286.729 148.32 285.547 156.113Z" fill="white"/>
<path d="M287.598 129.883C288.213 130.01 288.77 130.107 289.258 130.107C289.482 126.064 289.648 121.963 289.814 117.695C289.229 117.334 288.613 116.846 287.959 116.328C287.861 120.693 287.764 125.254 287.598 129.883Z" fill="#EEF1F7"/>
<path d="M287.93 116.289C288.584 116.807 289.199 117.295 289.785 117.656C289.951 113.389 290.107 108.926 290.303 104.199C289.619 104.102 288.906 104.033 288.154 103.936C288.086 107.744 288.027 111.924 287.93 116.289Z" fill="#E3E8F2"/>
<path d="M289.258 130.078C289.746 130.049 290.137 129.912 290.498 129.619C290.859 126.006 291.182 122.314 291.475 118.213C290.957 118.242 290.43 118.018 289.844 117.656C289.648 121.924 289.482 126.035 289.258 130.068V130.078Z" fill="#E2E8F2"/>
<path d="M289.814 117.656C290.4 118.018 290.957 118.242 291.445 118.213C291.738 114.111 291.963 109.639 292.227 104.492C291.641 104.395 290.986 104.297 290.332 104.199C290.137 108.926 289.971 113.389 289.814 117.656Z" fill="#D2DBEB"/>
<path d="M251.396 100.088C255.439 100.508 263.164 101.484 266.582 101.719C266.582 100.156 266.582 98.8477 266.553 97.7148C262.998 97.8809 255.664 98.2324 251.367 96.9043C251.396 97.8809 251.396 98.8281 251.396 100.098V100.088Z" fill="white"/>
<path d="M251.357 96.9336C255.654 98.2715 262.959 97.9102 266.543 97.7441C266.514 96.6016 266.445 95.625 266.348 94.7168C262.666 95.3027 255.723 95.8594 251.133 93.6133C251.299 94.9512 251.357 95.957 251.357 96.9336Z" fill="white"/>
<path d="M251.162 93.6035C250.898 90.9277 250.576 90.2441 250.156 87.8711C252.695 90.0195 255.537 90.7031 258.203 90.7715C258.691 92.8906 258.887 93.0566 259.111 95.2344C256.309 95.1367 253.437 94.7168 251.162 93.6035Z" fill="white"/>
<path d="M259.082 95.2051C261.855 95.2734 264.521 94.9805 266.348 94.6875C266.25 93.877 266.152 93.0859 265.986 92.2754C264.092 92.6367 261.455 93.0566 258.721 92.9297C258.887 93.5449 258.984 94.1309 259.082 95.2148V95.2051Z" fill="#F4F6FA"/>
<path d="M258.76 92.959C261.494 93.0566 264.141 92.666 266.025 92.3047C265.859 91.5234 265.664 90.6738 265.41 89.7656C263.457 90.2246 260.908 90.8105 258.213 90.7422C258.438 91.8164 258.604 92.4023 258.77 92.959H258.76Z" fill="#EEF1F7"/>
<path d="M266.611 101.719C266.709 101.719 267.422 102.08 268.564 102.237C268.633 100.938 268.691 99.6585 268.73 98.428C267.588 98.3304 266.738 97.8421 266.543 97.8714C266.572 98.9749 266.611 100.215 266.611 101.719Z" fill="white"/>
<path d="M266.543 97.8809C266.738 97.8516 267.588 98.3691 268.73 98.4375C268.799 97.2363 268.828 96.0547 268.828 94.9219C267.725 95.0488 266.807 94.8535 266.387 94.9512C266.484 95.8594 266.553 96.8066 266.553 97.8809H266.543Z" fill="#FAFBFD"/>
<path d="M266.387 94.9805C266.807 94.8828 267.725 95.0781 268.828 94.9512C268.828 93.8477 268.799 92.7637 268.73 91.7285C267.656 92.0508 266.68 92.2852 266.025 92.4414C266.191 93.291 266.318 94.1016 266.387 94.9805Z" fill="#EEF1F7"/>
<path d="M266.025 92.4316C266.68 92.2656 267.656 92.041 268.73 91.7188C268.662 90.7129 268.506 89.7266 268.311 88.8184C267.266 89.2383 266.162 89.5996 265.41 89.7656C265.674 90.7422 265.869 91.5918 266.025 92.4414V92.4316Z" fill="#E2E8F2"/>
<path d="M268.564 102.246C268.76 102.275 268.984 102.314 269.219 102.344C269.287 101.074 269.385 99.8047 269.482 98.5645C269.258 98.5645 268.994 98.4668 268.77 98.4668C268.701 99.668 268.643 100.947 268.574 102.246H268.564Z" fill="white"/>
<path d="M268.73 98.4668C268.955 98.4668 269.219 98.5645 269.443 98.5645C269.541 97.2949 269.609 96.0547 269.639 94.8535C269.375 94.9219 269.082 94.9219 268.828 94.9512C268.828 96.0547 268.799 97.2363 268.73 98.4668Z" fill="#F9FAFC"/>
<path d="M268.857 94.9414C269.121 94.873 269.414 94.9121 269.668 94.8438C269.697 93.6426 269.697 92.5 269.668 91.3867C269.375 91.4844 269.082 91.6113 268.76 91.709C268.828 92.7539 268.857 93.7988 268.857 94.9316V94.9414Z" fill="#EDF0F7"/>
<path d="M268.73 91.7188C269.053 91.6211 269.346 91.4941 269.639 91.3965C269.57 90.3223 269.473 89.3066 269.277 88.3984C268.955 88.5254 268.623 88.6621 268.301 88.7891C268.525 89.7363 268.662 90.7129 268.721 91.7188H268.73Z" fill="#E0E7F1"/>
<path d="M269.189 102.344C269.287 102.344 269.414 102.373 269.512 102.373C269.609 101.133 269.707 99.8633 269.805 98.5937C269.678 98.5937 269.58 98.5645 269.443 98.5645C269.375 99.8047 269.277 101.074 269.18 102.344H269.189Z" fill="white"/>
<path d="M269.453 98.5645C269.58 98.5645 269.678 98.5938 269.814 98.5938C269.912 97.3242 270.01 96.0156 270.039 94.7852C269.912 94.8145 269.775 94.8145 269.648 94.8535C269.619 96.0547 269.551 97.2949 269.453 98.5645Z" fill="#F9FAFC"/>
<path d="M269.678 94.8437C269.805 94.8145 269.941 94.8145 270.068 94.7754C270.137 93.5352 270.137 92.334 270.098 91.2207C269.932 91.2891 269.805 91.3184 269.678 91.3867C269.707 92.4609 269.707 93.6328 269.678 94.8437Z" fill="#EDF0F7"/>
<path d="M269.648 91.3867C269.814 91.3184 269.941 91.2891 270.068 91.2207C270.039 90.1172 269.941 89.0723 269.746 88.1934C269.58 88.2617 269.424 88.3203 269.287 88.3887C269.482 89.2969 269.609 90.3125 269.648 91.3867Z" fill="#DFE5F1"/>
<path d="M269.551 102.373C270.039 102.441 270.527 102.5 271.084 102.539C271.182 101.396 271.279 100.127 271.406 98.7598C270.889 98.7598 270.361 98.5938 269.844 98.5938C269.717 99.8633 269.619 101.133 269.551 102.373Z" fill="white"/>
<path d="M269.805 98.5937C270.293 98.5937 270.85 98.7598 271.367 98.7598C271.494 97.3926 271.592 95.957 271.689 94.5898C271.133 94.6875 270.615 94.6875 270.059 94.7852C269.99 96.0254 269.893 97.3242 269.795 98.5937H269.805Z" fill="#F9FAFC"/>
<path d="M270.068 94.7852C270.625 94.6875 271.143 94.6875 271.699 94.5898C271.768 93.1934 271.826 91.8164 271.797 90.5859C271.24 90.7812 270.693 91.0059 270.098 91.2402C270.127 92.3437 270.127 93.5547 270.068 94.7949V94.7852Z" fill="#EDF0F7"/>
<path d="M270.098 91.2305C270.684 91.0059 271.24 90.8105 271.797 90.5762C271.768 89.3359 271.699 88.2324 271.504 87.3828C270.947 87.6465 270.4 87.9004 269.775 88.1934C269.971 89.0723 270.068 90.1172 270.098 91.2207V91.2305Z" fill="#DFE5F1"/>
<path d="M271.045 102.539C272.998 102.735 275.186 102.862 276.914 102.998C276.982 102.149 277.139 100.684 277.275 98.9262C275.615 98.8285 273.496 98.7309 271.377 98.7992C271.279 100.137 271.152 101.436 271.055 102.549L271.045 102.539Z" fill="white"/>
<path d="M271.367 98.7598C273.486 98.6914 275.605 98.8281 277.266 98.8867C277.432 97.0898 277.588 95.0098 277.725 92.8906C276.191 93.3789 274.238 93.8965 271.699 94.5508C271.602 95.9863 271.504 97.4219 271.377 98.75L271.367 98.7598Z" fill="#F9FAFC"/>
<path d="M271.699 94.5898C274.238 93.9746 276.201 93.4473 277.725 92.9297C277.852 90.8399 277.949 88.7305 277.949 86.9336C276.553 88.1348 274.727 89.4141 271.787 90.5859C271.816 91.8262 271.758 93.1934 271.689 94.5898H271.699Z" fill="#EDF0F7"/>
<path d="M271.797 90.5762C274.727 89.375 276.553 88.1348 277.959 86.9238C277.959 85.127 277.891 83.6328 277.666 82.7832C276.367 84.3164 274.639 85.9473 271.504 87.3828C271.699 88.2617 271.768 89.375 271.797 90.5762Z" fill="#DFE5F1"/>
<path d="M276.914 102.988C278.643 103.086 279.941 103.154 280.137 103.184C280.205 102.627 280.361 101.035 280.557 98.916C280.166 99.082 278.926 99.0137 277.266 98.916C277.139 100.674 276.973 102.139 276.904 102.988H276.914Z" fill="white"/>
<path d="M277.266 98.916C278.926 99.0137 280.166 99.082 280.557 98.916C280.752 96.7676 281.016 94.0918 281.211 91.3574C280.361 91.9434 279.258 92.4316 277.725 92.9199C277.598 95.0391 277.432 97.1191 277.266 98.916Z" fill="#F9FAFC"/>
<path d="M277.725 92.9199C279.258 92.4316 280.361 91.9434 281.211 91.3574C281.406 88.6231 281.572 85.8789 281.631 83.5645C280.332 84.541 279.346 85.7129 277.92 86.9238C277.949 88.7207 277.852 90.8301 277.725 92.9199Z" fill="#EDF0F7"/>
<path d="M277.949 86.9238C279.346 85.7227 280.361 84.5801 281.66 83.5645C281.729 81.2793 281.66 79.4629 281.396 78.5742C279.893 79.7461 278.984 81.2109 277.646 82.7441C277.871 83.6231 277.939 85.127 277.939 86.9141L277.949 86.9238Z" fill="#DEE5F1"/>
<path d="M280.137 103.193C280.693 103.262 281.475 103.359 282.422 103.418C282.49 102.51 282.686 100.586 282.939 98.1738C281.992 98.5937 281.143 98.8867 280.596 98.9258C280.371 101.045 280.205 102.637 280.137 103.193Z" fill="white"/>
<path d="M280.557 98.916C281.143 98.8867 281.953 98.5937 282.9 98.1641C283.125 95.7519 283.418 92.8223 283.652 89.8828C282.705 90.5664 281.855 91.084 281.211 91.3867C281.016 94.0918 280.791 96.7676 280.557 98.916Z" fill="#F8FAFC"/>
<path d="M282.422 103.418C283.369 103.516 284.473 103.613 285.615 103.711C285.713 101.953 285.908 99.5117 286.104 96.6699C285 97.1875 283.887 97.7441 282.939 98.1641C282.715 100.576 282.48 102.5 282.422 103.408V103.418Z" fill="#F8FAFC"/>
<path d="M282.939 98.1738C283.887 97.7539 284.99 97.2266 286.104 96.6797C286.299 93.877 286.494 90.7129 286.66 87.5879C285.654 88.3984 284.639 89.2187 283.691 89.873C283.467 92.8418 283.174 95.7715 282.939 98.1836V98.1738Z" fill="#EEF1F7"/>
<path d="M281.25 91.3574C281.904 91.0937 282.783 90.5469 283.691 89.8633C283.916 86.9336 284.111 83.9648 284.18 81.4551C283.301 82.334 282.422 83.0566 281.67 83.5742C281.602 85.8887 281.445 88.6621 281.25 91.3672V91.3574Z" fill="#E7ECF4"/>
<path d="M281.67 83.5742C282.422 83.0566 283.301 82.3047 284.18 81.4551C284.248 78.9453 284.18 76.9238 283.887 75.8496C283.037 77.0215 282.188 77.9981 281.406 78.6231C281.67 79.4727 281.699 81.2988 281.67 83.5742Z" fill="#D7DFEE"/>
<path d="M283.691 89.8633C284.639 89.1797 285.645 88.3984 286.66 87.5781C286.826 84.4531 286.885 81.3184 286.855 78.6133C285.977 79.6191 285.059 80.6055 284.15 81.4453C284.121 83.9551 283.926 86.9238 283.691 89.8535V89.8633Z" fill="#DCE3EF"/>
<path d="M284.18 81.4551C285.059 80.5762 286.006 79.5996 286.885 78.6231C286.855 75.8887 286.689 73.5742 286.367 71.9727C285.586 73.3398 284.766 74.6777 283.926 75.8496C284.189 76.9238 284.248 78.9746 284.189 81.4551H284.18Z" fill="#CAD4E7"/>
<path d="M285.645 103.711C286.787 103.809 287.988 103.936 289.131 104.072C289.258 101.494 289.395 98.4668 289.492 95.2441C288.418 95.6348 287.275 96.1523 286.133 96.6797C285.908 99.5117 285.742 101.963 285.645 103.721V103.711Z" fill="#E6EAF4"/>
<path d="M286.104 96.6699C287.207 96.1523 288.389 95.625 289.463 95.2344C289.561 92.0117 289.59 88.623 289.59 85.2637C288.682 85.9473 287.666 86.7578 286.66 87.5781C286.494 90.7031 286.299 93.8672 286.104 96.6699Z" fill="#D7DFEE"/>
<path d="M289.102 104.073C290.244 104.2 291.318 104.336 292.227 104.493C292.353 101.524 292.393 98.1742 292.324 94.6195C291.514 94.5902 290.498 94.8441 289.424 95.2347C289.355 98.4574 289.229 101.455 289.102 104.063V104.073Z" fill="#C8D3E7"/>
<path d="M289.453 95.2344C290.527 94.8437 291.543 94.5801 292.354 94.6191C292.285 91.0645 292.129 87.3828 291.895 83.7305C291.309 84.0234 290.498 84.5801 289.58 85.2637C289.58 88.623 289.551 92.0117 289.453 95.2344Z" fill="#B5C5DE"/>
<path d="M286.65 87.5781C287.656 86.7676 288.672 85.9473 289.58 85.2637C289.551 81.9043 289.482 78.6523 289.287 75.6836C288.574 76.5918 287.754 77.6074 286.875 78.6133C286.875 81.3477 286.777 84.4434 286.65 87.5781Z" fill="#C2CFE4"/>
<path d="M286.855 78.6133C287.734 77.6074 288.555 76.5918 289.268 75.6836C289.072 72.7148 288.779 70.0781 288.389 67.9883C287.803 69.2285 287.09 70.5957 286.338 71.9629C286.699 73.5645 286.826 75.8691 286.855 78.6133Z" fill="#B1C1DC"/>
<path d="M289.59 85.2637C290.498 84.5801 291.289 84.0234 291.904 83.7305C291.68 80.1172 291.348 76.5625 290.996 73.3301C290.605 73.9453 290.02 74.7656 289.297 75.6738C289.463 78.6426 289.561 81.9336 289.59 85.2539V85.2637Z" fill="#A0B4D4"/>
<path d="M289.297 75.6836C290.01 74.7754 290.596 73.9551 290.996 73.3398C290.635 70.1172 290.215 67.2461 289.756 64.9316C289.463 65.6836 289.004 66.7578 288.389 67.998C288.809 70.0879 289.102 72.7246 289.297 75.6934V75.6836Z" fill="#8FA7CC"/>
<path d="M250.127 87.8711C252.666 90.0195 255.508 90.7031 258.174 90.7715C257.52 87.5098 256.904 84.9707 256.221 82.5879C253.154 80.9277 249.863 78.5449 247.129 76.0352C248.174 78.8672 249.15 82.4902 250.127 87.8613V87.8711Z" fill="white"/>
<path d="M247.129 76.0059C249.863 78.5449 253.154 80.9277 256.221 82.5586C255.537 80.1465 254.785 77.9004 253.936 75.2246C250.518 73.8281 246.797 71.5723 243.838 68.6719C245.039 71.0547 246.123 73.1348 247.129 76.0059Z" fill="white"/>
<path d="M258.203 90.7715C260.908 90.8398 263.447 90.2148 265.4 89.7949C265.107 88.6914 264.59 86.9629 264.033 84.7754C262.139 85.166 259.277 84.2188 256.211 82.5879C256.924 84.9707 257.549 87.5098 258.203 90.7715Z" fill="#EBEEF6"/>
<path d="M256.221 82.5586C259.287 84.2188 262.148 85.1367 264.043 84.7461C263.486 82.5586 262.871 79.9219 262.344 76.9238C260.518 77.2461 257.393 76.6309 253.965 75.2246C254.775 77.9004 255.527 80.1758 256.211 82.5586H256.221Z" fill="#F1F4F9"/>
<path d="M265.41 89.7656C266.416 89.541 267.988 88.9844 269.316 88.3984C268.926 87.3242 268.408 85.6641 267.783 83.5449C266.387 84.1016 264.951 84.5898 264.072 84.7461C264.59 86.9336 265.078 88.6523 265.41 89.7656Z" fill="#DEE5F1"/>
<path d="M264.043 84.7461C264.922 84.5801 266.387 84.0918 267.754 83.5449C267.168 81.4258 266.514 78.8184 265.898 75.918C264.434 76.4746 263.096 76.8262 262.314 76.9629C262.871 79.9316 263.486 82.5684 264.043 84.7559V84.7461Z" fill="#E7ECF4"/>
<path d="M269.287 88.3887C269.58 88.2617 269.902 88.125 270.166 87.998C269.805 86.9238 269.287 85.2637 268.701 83.1055C268.379 83.2324 268.086 83.3984 267.754 83.5254C268.369 85.6445 268.926 87.3047 269.287 88.3789V88.3887Z" fill="#DBE2EF"/>
<path d="M267.754 83.5352C268.076 83.4082 268.408 83.2715 268.701 83.1152C268.115 80.9961 267.5 78.3887 266.904 75.4883C266.582 75.6152 266.221 75.7813 265.898 75.9082C266.514 78.8086 267.168 81.416 267.754 83.5352Z" fill="#E3E9F3"/>
<path d="M270.195 87.998C270.654 87.8027 271.074 87.5781 271.494 87.3828C271.104 86.3086 270.586 84.6484 270 82.5293C269.58 82.7246 269.15 82.9199 268.701 83.1152C269.287 85.2637 269.805 86.9238 270.205 88.0078L270.195 87.998Z" fill="#DAE1EE"/>
<path d="M268.73 83.1152C269.15 82.9199 269.609 82.7246 270.029 82.5293C269.443 80.4102 268.828 77.832 268.232 74.9707C267.813 75.1367 267.383 75.332 266.963 75.4883C267.52 78.418 268.135 80.9961 268.721 83.1152H268.73Z" fill="#E2E8F2"/>
<path d="M271.504 87.3828C275.703 85.4297 277.373 83.1836 278.936 81.2207C278.613 80.4395 278.184 79.1309 277.764 77.3438C275.811 79.2383 273.525 80.9961 270.01 82.5293C270.596 84.6777 271.113 86.3086 271.514 87.3828H271.504Z" fill="#D9E1EE"/>
<path d="M270 82.5586C273.516 80.9961 275.801 79.2383 277.754 77.3731C277.295 75.6152 276.807 73.3984 276.289 70.8887C273.945 72.6855 271.006 73.8574 268.203 74.9902C268.789 77.8613 269.443 80.4297 270 82.5488V82.5586Z" fill="#E1E7F2"/>
<path d="M278.936 81.2207C279.688 80.2734 280.439 79.3652 281.416 78.6133C280.928 76.9141 280.371 73.0371 279.522 67.9199C278.477 68.5742 277.568 69.873 276.299 70.8496C277.373 75.8984 278.252 79.6777 278.936 81.2109V81.2207Z" fill="#D5DDEC"/>
<path d="M281.406 78.6133C281.182 77.7637 280.918 76.3965 280.596 74.5703C281.348 74.0527 282.158 73.0371 282.979 71.7676C283.34 73.4668 283.633 74.834 283.887 75.8398C283.037 77.0117 282.188 77.9883 281.406 78.6133Z" fill="#CED8E9"/>
<path d="M283.887 75.8496C283.623 74.8437 283.301 73.4668 282.979 71.7773C283.789 70.5371 284.58 69.043 285.322 67.5391C285.684 69.1016 286.006 70.6055 286.328 71.9726C285.547 73.3398 284.727 74.6777 283.887 75.8496Z" fill="#C0CDE3"/>
<path d="M280.596 74.541C280.303 72.7148 279.941 70.4687 279.521 67.8906C280.234 67.4316 281.055 66.6504 281.865 65.7031C282.256 68.0176 282.617 70.0391 282.969 71.7285C282.158 72.998 281.338 74.0137 280.586 74.5313L280.596 74.541Z" fill="#C9D4E7"/>
<path d="M282.969 71.7773C282.607 70.0781 282.256 68.0664 281.865 65.752C282.676 64.8047 283.525 63.6621 284.307 62.5586C284.629 64.3164 284.961 65.9766 285.312 67.5781C284.561 69.043 283.75 70.5469 282.969 71.7773Z" fill="#BAC8E0"/>
<path d="M286.328 71.9727C286.035 70.6055 285.674 69.1016 285.322 67.5391C286.074 66.0352 286.787 64.541 287.373 63.2324C287.695 64.668 288.027 66.2305 288.379 67.9883C287.793 69.2285 287.109 70.5957 286.328 71.9629V71.9727Z" fill="#A8BAD8"/>
<path d="M288.379 67.9883C288.018 66.2305 287.695 64.668 287.373 63.2324C287.959 61.9629 288.477 60.8887 288.838 60.3027C289.102 61.543 289.395 63.0371 289.746 64.9609C289.453 65.7129 288.965 66.7871 288.379 67.9883Z" fill="#88A3C9"/>
<path d="M285.322 67.5391C284.961 65.9766 284.639 64.2773 284.316 62.5195C285.127 61.3769 285.879 60.2734 286.533 59.2969C286.758 60.498 287.051 61.8066 287.383 63.2422C286.797 64.541 286.084 66.0449 285.332 67.5488L285.322 67.5391Z" fill="#A3B6D5"/>
<path d="M287.373 63.2324C287.051 61.7969 286.758 60.498 286.523 59.2871C287.178 58.3398 287.764 57.5293 288.154 57.0703C288.379 58.0176 288.574 59.0234 288.838 60.2637C288.477 60.918 287.988 61.9629 287.373 63.2324Z" fill="#86A1C7"/>
<path d="M243.838 68.6816C241.396 63.7891 235.986 53.6621 232.07 47.6953C235.459 51.4062 242.012 56.0742 248.105 59.7852C250.059 63.6328 252.148 69.7266 253.936 75.2344C250.518 73.8379 246.797 71.6211 243.838 68.6816Z" fill="white"/>
<path d="M253.936 75.2246C257.354 76.6211 260.518 77.2461 262.314 76.9238C261.758 73.8574 261.562 71.543 261.533 69.8242C259.775 70.0488 255.605 68.916 251.074 66.8555C252.08 69.5898 253.066 72.4902 253.945 75.2344L253.936 75.2246Z" fill="#FDFDFE"/>
<path d="M251.104 66.8848C255.635 68.9355 259.805 70.0781 261.563 69.8535C261.533 68.125 261.631 66.9531 261.631 66.0742C259.932 66.2012 254.268 63.4961 248.135 59.7852C249.082 61.709 250.088 64.2187 251.104 66.8848Z" fill="white"/>
<path d="M262.344 76.9531C263.154 76.8262 264.629 76.4355 266.191 75.8105C265.771 72.8125 265.771 70.5273 265.869 68.8086C264.209 69.3945 262.48 69.7559 261.572 69.8535C261.602 71.582 261.768 73.8574 262.354 76.9531H262.344Z" fill="#F7F8FC"/>
<path d="M261.533 69.8535C262.441 69.7559 264.17 69.3945 265.83 68.8086C265.927 67.0801 266.152 65.8789 266.289 65.0293C264.531 65.5859 262.578 65.9766 261.591 66.0742C261.591 66.9238 261.494 68.125 261.523 69.8535H261.533Z" fill="#FEFFFF"/>
<path d="M266.191 75.8105C266.455 75.7129 266.68 75.6152 266.943 75.5176C266.553 72.5195 266.553 70.2734 266.679 68.5156C266.416 68.6133 266.123 68.7109 265.869 68.8086C265.742 70.5371 265.771 72.8125 266.191 75.8105Z" fill="#F1F3F9"/>
<path d="M265.83 68.8086C266.094 68.7109 266.387 68.6133 266.641 68.5156C266.768 66.7871 267.031 65.5859 267.158 64.7363C266.865 64.834 266.572 64.9316 266.279 65.0293C266.182 65.8789 265.957 67.0801 265.82 68.8086H265.83Z" fill="#FBFCFD"/>
<path d="M266.904 75.4883C267.587 75.1953 268.3 74.9023 269.023 74.6387C268.7 71.709 268.73 69.4531 268.925 67.7637C268.31 67.9297 267.529 68.1836 266.679 68.5156C266.552 70.2441 266.552 72.5195 266.904 75.4883Z" fill="#F0F3F9"/>
<path d="M266.68 68.5156C267.529 68.1934 268.311 67.9297 268.926 67.7637C269.092 66.0645 269.414 64.8633 269.58 64.0527C269.092 64.1211 268.213 64.4141 267.197 64.7363C267.07 65.5859 266.807 66.7871 266.68 68.5156Z" fill="#FAFBFD"/>
<path d="M269.023 74.6387C270.293 74.1211 271.601 73.5645 272.832 72.9395C272.412 70.0098 272.47 67.793 272.666 66.0938C271.591 66.7773 270.351 67.3633 268.916 67.7246C268.72 69.4531 268.691 71.6992 269.013 74.6289L269.023 74.6387Z" fill="#EDF0F7"/>
<path d="M268.926 67.7637C270.361 67.4023 271.602 66.8164 272.676 66.1328C272.871 64.4336 273.164 63.2324 273.232 62.3535C272.324 63.1641 271.211 63.8477 269.58 64.0527C269.385 64.8633 269.092 66.0449 268.926 67.7637Z" fill="#F7F8FC"/>
<path d="M272.842 72.9492C274.082 72.334 275.254 71.6504 276.299 70.8301C275.781 67.9297 275.684 65.5859 275.684 63.7891C274.707 64.5996 273.76 65.4199 272.656 66.1035C272.49 67.832 272.432 70.0488 272.852 72.9492H272.842Z" fill="#E3E9F3"/>
<path d="M272.676 66.1035C273.75 65.4199 274.727 64.6094 275.703 63.7891C275.703 61.9629 275.83 60.6641 275.732 59.7168C274.854 60.5273 274.131 61.5137 273.193 62.3242C273.164 63.2324 272.871 64.4141 272.676 66.1035Z" fill="#EEF1F7"/>
<path d="M276.288 70.8594C277.528 69.8828 278.475 68.5742 279.511 67.9297C279.091 65.293 279.052 63.1738 279.149 61.543C277.811 61.9336 276.766 62.8809 275.692 63.7891C275.663 65.6152 275.761 67.9297 276.278 70.8594H276.288Z" fill="#D8DFEE"/>
<path d="M275.674 63.7891C276.777 62.8809 277.793 61.8945 279.131 61.543C279.228 59.9121 279.395 58.7695 279.355 58.0566C277.725 58.1836 276.65 58.8672 275.703 59.7559C275.801 60.6641 275.703 62.002 275.674 63.7988V63.7891Z" fill="#E1E7F2"/>
<path d="M279.521 67.9297C279.101 65.293 279.062 63.1738 279.16 61.543C279.873 61.2793 280.625 60.791 281.406 60.1465C281.406 61.543 281.474 63.3398 281.865 65.752C281.054 66.6992 280.234 67.4805 279.521 67.9395V67.9297Z" fill="#C5D1E5"/>
<path d="M281.865 65.7422C281.475 63.3594 281.406 61.543 281.406 60.1367C282.188 59.4824 282.939 58.7012 283.691 57.9492C283.818 59.248 283.984 60.7227 284.307 62.5488C283.525 63.6523 282.676 64.7656 281.865 65.7422Z" fill="#B5C5DE"/>
<path d="M279.16 61.543C279.258 59.9121 279.424 58.7695 279.385 58.0566C280.098 57.9883 280.781 57.5391 281.406 56.8555C281.504 57.7051 281.406 58.7109 281.406 60.1465C280.625 60.8008 279.873 61.2891 279.16 61.543Z" fill="#CDD8E9"/>
<path d="M281.406 60.1367C281.406 58.7402 281.504 57.6953 281.406 56.8457C282.021 56.1621 282.646 55.3125 283.203 54.4043C283.428 55.5078 283.564 56.6211 283.691 57.9199C282.939 58.7012 282.158 59.4824 281.406 60.1367Z" fill="#BDCBE2"/>
<path d="M284.307 62.5195C283.984 60.6934 283.818 59.2285 283.691 57.9199C284.443 57.1387 285.156 56.3574 285.781 55.7031C286.045 56.9043 286.27 58.0469 286.533 59.3164C285.879 60.2637 285.137 61.4063 284.316 62.5098L284.307 62.5195Z" fill="#A0B4D4"/>
<path d="M286.523 59.3262C286.26 58.0859 286.035 56.9141 285.771 55.7129C286.426 55.0586 286.973 54.5117 287.432 54.209C287.695 55.2148 287.92 56.1328 288.145 57.1094C287.754 57.5684 287.197 58.3496 286.514 59.3262H286.523Z" fill="#86A1C7"/>
<path d="M283.691 57.9199C283.564 56.6211 283.428 55.5078 283.203 54.4043C283.789 53.5254 284.307 52.6074 284.863 51.9238C285.225 53.291 285.518 54.502 285.811 55.7031C285.156 56.3574 284.443 57.1387 283.691 57.9199Z" fill="#A5B8D6"/>
<path d="M285.771 55.7031C285.508 54.502 285.215 53.291 284.824 51.9238C285.342 51.2109 285.869 50.6836 286.387 50.5566C286.807 52.0215 287.139 53.1934 287.432 54.209C286.973 54.502 286.426 55.0586 285.771 55.7031Z" fill="#89A3C9"/>
<path d="M232.07 47.7246C238.847 55.1562 258.242 66.3672 261.591 66.0742C261.591 65.4199 261.464 63.7598 261.201 61.416C256.445 60.1172 239.101 50.1367 232.294 43.4961C231.904 45.6836 231.806 47.3047 232.07 47.7344V47.7246Z" fill="white"/>
<path d="M232.295 43.4863C239.102 50.1367 256.406 60.1074 261.201 61.4062C260.225 51.6016 257.588 29.8242 256.963 19.6973C249.238 19.6973 243.564 22.7246 239.561 27.2949C235.752 31.7285 233.438 37.5586 232.295 43.4961V43.4863Z" fill="white"/>
<path d="M261.592 66.0746C262.598 65.9769 264.521 65.5863 266.289 65.0297C265.898 58.6722 262.051 32.5687 259.639 19.766C258.594 19.6976 257.881 19.7367 256.963 19.7367C257.715 32.2855 261.592 62.725 261.592 66.0746Z" fill="white"/>
<path d="M266.289 65.0293C266.484 64.9609 266.68 64.9023 266.846 64.834C266.357 58.2227 262.48 32.5684 259.873 19.7656H259.648C262.061 32.5684 265.908 58.7109 266.299 65.0293H266.289Z" fill="white"/>
<path d="M266.875 64.8633C268.018 64.4727 269.023 64.1504 269.58 64.0527C269.258 59.9121 268.115 52.0898 266.611 43.7207C266.055 43.7207 265.01 44.4727 264.17 44.6289C265.537 53.4961 266.611 61.543 266.875 64.8633Z" fill="white"/>
<path d="M264.17 44.6289C265.02 44.4629 266.064 43.7207 266.611 43.7207C265.107 35.3418 263.291 26.416 261.494 19.9609C260.977 19.8633 260.42 19.7949 259.893 19.7656C261.191 26.1816 262.793 35.8008 264.16 44.6289H264.17Z" fill="white"/>
<path d="M269.551 64.0527C272.031 63.7305 273.33 62.3242 274.57 60.957C274.404 57.9883 274.082 54.7656 273.594 51.4453C272.227 53.3398 270.791 55.2539 268.477 55.4883C269.033 59.0039 269.385 61.9727 269.551 64.0625V64.0527Z" fill="#FDFDFE"/>
<path d="M268.506 55.4785C270.82 55.2539 272.217 53.3301 273.623 51.4355C273.135 48.1152 272.52 44.6582 271.768 41.1719C270.166 42.373 268.545 43.6816 266.621 43.7109C267.334 47.9102 268.018 51.9531 268.516 55.4785H268.506Z" fill="white"/>
<path d="M266.611 43.7109C268.535 43.6816 270.166 42.373 271.758 41.1719C270.225 34.2285 268.076 27.2266 265.371 21.0645C264.131 20.5762 262.861 20.1855 261.523 19.9609C263.281 26.416 265.107 35.3418 266.611 43.7207V43.7109Z" fill="white"/>
<path d="M274.561 60.957C275.176 60.2734 275.801 59.5898 276.553 59.0625C276.387 55.4785 276.133 52.1191 275.742 48.8965C274.961 49.5801 274.277 50.5273 273.594 51.4746C274.082 54.7656 274.404 57.9883 274.57 60.957H274.561Z" fill="#F1F4F9"/>
<path d="M273.623 51.4355C274.307 50.4883 274.99 49.5801 275.771 48.8574C275.381 45.6348 274.863 42.5684 274.141 39.5703C273.33 39.9609 272.539 40.5762 271.758 41.1719C272.51 44.6582 273.125 48.1152 273.613 51.4355H273.623Z" fill="#F8FAFC"/>
<path d="M276.582 59.0625C277.334 58.5449 278.213 58.1543 279.385 58.0566C279.219 54.1797 278.926 50.791 278.477 47.6953C277.402 47.7246 276.523 48.1836 275.771 48.8965C276.162 52.0898 276.387 55.4492 276.582 59.0625Z" fill="#E6EBF4"/>
<path d="M275.772 48.8674C276.553 48.1838 277.432 47.6955 278.477 47.6662C278.018 44.5705 277.432 41.7678 276.582 39.0627C275.732 38.9358 274.922 39.1604 274.102 39.5803C274.814 42.5783 275.371 45.674 275.762 48.8674H275.772Z" fill="#EFF3F9"/>
<path d="M271.729 41.1719C273.33 39.9707 274.854 38.8281 276.582 39.0527C274.951 33.6719 272.48 28.75 268.828 22.8516C267.725 22.168 266.543 21.582 265.342 21.0547C268.047 27.2461 270.195 34.2578 271.729 41.1621V41.1719Z" fill="#F9FAFC"/>
<path d="M279.385 58.0566C279.062 50.332 278.242 44.4629 276.611 39.0918C277.324 39.2871 277.91 39.3555 278.437 39.3848C280.068 44.375 280.947 49.7461 281.436 56.8555C280.752 57.5391 280.098 57.998 279.385 58.0566Z" fill="#D5DEED"/>
<path d="M281.406 56.8457C280.947 49.7461 280.068 44.3359 278.408 39.375C278.926 39.4043 279.355 39.375 279.775 39.375C281.406 43.877 282.48 48.6914 283.193 54.4336C282.637 55.2832 282.021 56.1621 281.396 56.8457H281.406Z" fill="#C5D1E5"/>
<path d="M276.621 39.082C274.99 33.7012 272.52 28.7793 268.867 22.8809C269.58 23.3008 270.303 23.8281 271.016 24.3848C274.434 29.8242 276.816 34.3848 278.447 39.375C277.93 39.3457 277.344 39.2773 276.621 39.082Z" fill="#E9EDF5"/>
<path d="M278.408 39.375C278.926 39.4043 279.355 39.375 279.775 39.375C278.965 37.1289 278.018 34.9414 276.904 32.793C276.416 32.5293 275.928 32.3047 275.342 32.0801C276.611 34.4922 277.588 36.875 278.408 39.3848V39.375Z" fill="#DBE2EF"/>
<path d="M275.381 32.0508C275.938 32.3145 276.455 32.5098 276.943 32.7637C275.84 30.6152 274.561 28.4277 273.135 26.2109C272.451 25.5566 271.738 24.9414 271.016 24.3555C272.715 27.0898 274.141 29.5996 275.381 32.0508Z" fill="#E1E7F2"/>
<path d="M283.203 54.4043C282.49 48.6719 281.406 43.8477 279.785 39.3457C280.205 39.3457 280.596 39.3457 281.025 39.4434C282.627 43.3887 283.857 47.5586 284.834 51.8945C284.316 52.6465 283.789 53.5254 283.203 54.4043Z" fill="#AEBFDB"/>
<path d="M284.863 51.9238C285.381 51.2109 285.908 50.6836 286.426 50.5566C285.869 48.7012 285.283 46.9043 284.629 45.1465C284.111 45.1465 283.623 45.2734 283.193 45.5371C283.809 47.627 284.365 49.7363 284.854 51.9238H284.863Z" fill="#90A8CC"/>
<path d="M283.164 45.5371C283.623 45.3125 284.072 45.1465 284.6 45.1465C283.945 43.3887 283.232 41.6895 282.48 40.0586C281.924 39.7363 281.475 39.541 281.016 39.4434C281.826 41.4355 282.549 43.4473 283.164 45.5371Z" fill="#9DB1D2"/>
<path d="M279.814 39.3457C280.664 39.3457 281.416 39.375 282.52 40.0586C281.738 38.3984 280.918 36.7969 280.01 35.2344C278.867 33.9355 277.959 33.2812 276.982 32.7539C278.057 34.9414 279.004 37.0898 279.814 39.3359V39.3457Z" fill="#C4D0E5"/>
<path d="M276.943 32.7637C277.92 33.2812 278.838 33.9355 279.971 35.2441C279.063 33.6816 278.076 32.1484 277.002 30.6445C275.83 29.043 274.492 27.5195 273.096 26.2109C274.561 28.4277 275.83 30.6055 276.943 32.7637Z" fill="#CFD8E9"/>
<path d="M226.025 66.8359C217.539 75.1855 209.736 79.4336 205.488 82.0312C203.711 83.2617 202.891 84.082 202.891 86.2793C202.891 86.8262 203.027 87.0996 203.438 87.0996C204.258 87.0996 205.488 85.8691 207.959 85.8691C214.258 85.8691 220.83 93.125 228.496 93.125C237.803 93.125 252.051 81.8945 255.605 79.2969L256.152 80.1172C250.811 86.0059 230.547 102.295 222.744 102.295C218.223 102.295 215.762 101.064 215.762 99.6973C215.762 97.6465 219.043 95.1758 220.83 93.8086C220.693 93.6719 219.6 93.2617 219.189 92.9883C217.822 93.9453 212.617 97.5098 212.617 100.654C212.617 104.492 217.686 105.723 222.334 105.723C226.445 105.723 230.41 103.535 232.744 102.295C238.223 99.0137 251.914 89.0137 256.299 85.1758C260.41 81.748 261.777 78.6035 261.777 74.7656C261.777 69.6973 252.607 68.1934 251.777 55.8691C251.367 47.793 250.547 45.3223 249.59 45.3223C247.539 45.3223 245.752 50.3906 239.59 50.3906C235.068 50.3906 236.162 44.2285 235.068 44.2285C233.291 44.7754 233.291 59.6973 226.035 66.8164" fill="url(#paint0_linear_33_1401)"/>
<path d="M269.023 49.4434C266.563 49.4434 265.742 47.666 265.742 45.4688C265.742 42.4609 266.836 39.5801 269.023 39.5801C270.801 39.5801 272.031 42.041 272.168 45.6055C272.168 48.0664 270.801 49.4434 269.023 49.4434Z" fill="#0D4D84"/>
</g>
<defs>
<linearGradient id="paint0_linear_33_1401" x1="217.745" y1="61.5888" x2="237.165" y2="76.6584" gradientUnits="userSpaceOnUse">
<stop stop-color="#FBCC93"/>
<stop offset="1" stop-color="#F68B1B"/>
</linearGradient>
<clipPath id="clip0_33_1401">
<rect width="500" height="159.551" fill="white"/>
</clipPath>
</defs>
</svg>
