<svg width="500" height="109" viewBox="0 0 500 109" fill="none" xmlns="http://www.w3.org/2000/svg">
<path fill-rule="evenodd" clip-rule="evenodd" d="M490.991 92.7398H489.794V95.5358H490.922C491.955 95.5358 492.596 95.095 492.596 94.1378C492.596 93.2167 492.027 92.7398 490.991 92.7398ZM493.422 100.871L490.682 96.8253H489.794V100.727H488.218V91.2694H490.991C492.915 91.2694 494.195 92.2562 494.195 94.026C494.195 95.3878 493.488 96.2694 492.346 96.6411L494.981 100.503L493.422 100.871ZM491.03 88.7332C487.185 88.7332 484.132 91.4503 484.132 96.3121C484.132 101.125 487.185 103.852 491.03 103.852C494.912 103.852 497.971 101.125 497.971 96.3121C497.971 91.4503 494.879 88.7332 491.03 88.7332ZM491.03 104.848C486.274 104.848 482.958 101.421 482.958 96.3121C482.958 91.2299 486.333 87.7266 491.03 87.7266C495.8 87.7266 499.106 91.1904 499.106 96.3121C499.106 101.394 495.725 104.848 491.03 104.848ZM73.8693 59.822H49.3068C50.8364 57.3023 73.8693 18.5753 73.8693 18.5753V59.822ZM63.3825 1.25622L1.09961 104.842H22.274C22.274 104.842 37.6325 79.0556 38.1621 78.174H73.9022L73.9154 104.855L94.0141 104.852V1.25293H63.3825V1.25622ZM108.271 1.25293V104.855H127.804V1.25622L108.271 1.25293ZM142.021 1.25293H161.524V104.855H142.021V1.25293ZM204.511 55.9273C193.886 53.0589 191.665 51.447 191.945 46.8714C192.175 42.72 195.442 40.3319 200.899 40.3319C207.649 40.3319 215.902 42.7924 222.994 46.9108L224.113 47.572L226.8 30.2858L226.165 29.9733C218.882 26.5358 210.165 24.7036 200.899 24.7036C191.981 24.7036 184.399 27.5523 179.501 32.7102C175.626 36.8253 173.636 42.151 173.738 48.0687C174.077 64.0424 181.435 68.5621 198.866 73.197C210.392 76.1378 212.731 77.8845 212.649 83.5687C212.583 88.6806 209.636 90.6082 201.797 90.6082C193.6 90.6082 184.356 87.4832 176.336 82.0589L175.172 81.2595L172.465 98.6115L173.047 98.9404C179.29 102.493 189.958 106.223 201.205 106.223C212.106 106.223 220.156 103.552 225.136 98.345C229.017 94.2595 230.925 88.7365 230.836 81.8812C230.583 64.7266 222.218 60.651 204.511 55.9273ZM278.271 87.3944L277.261 87.674C275.919 88.0556 274.221 88.2496 271.902 88.2496C266.113 88.2496 263.422 85.549 263.422 79.7069V43.0292H277.744L278.008 26.1608H263.422V1.25293H244.211V26.1608H234.179V43.026H244.211V82.7628C244.211 98.4898 252.152 106.184 268.524 106.184C273.807 106.184 277.044 105.562 279.925 104.914L280.8 104.74L278.271 87.3944ZM313.093 90.6082C308.287 90.6082 305.313 87.5589 305.313 82.6674C305.313 73.9536 313.435 68.2595 328.823 66.1214V83.1871C324.047 88.0128 318.623 90.6082 313.093 90.6082ZM319.84 24.5391C307.695 24.5391 298.524 27.5983 291.231 30.5589L290.54 30.8385L293.044 47.4536L294.136 46.9569C302.889 42.9536 310.297 41.0852 317.514 41.0852C325.205 41.0852 328.823 44.3779 328.823 51.47V53.5029C299.981 56.572 285.938 66.7529 285.938 84.6345C285.938 97.845 294.211 106.371 307.044 106.371C315.925 106.371 323.3 103.016 330.096 96.1806C330.465 98.47 331.455 104.845 331.455 104.845H348.33V50.9306C348.33 32.947 339.281 24.5391 319.84 24.5391ZM398.425 87.3944L397.432 87.674C396.096 88.0556 394.373 88.2496 392.093 88.2496C386.284 88.2496 383.56 85.549 383.56 79.7069V43.0292H397.912L398.175 26.1608H383.56V1.25293H364.317V26.1608H354.333V43.026H364.317V82.7628C364.317 98.4898 372.31 106.184 388.692 106.184C393.958 106.184 397.346 105.533 400.09 104.914L400.945 104.74L398.425 87.3944ZM423.596 56.8681C424.475 45.5852 429.221 39.1016 436.721 39.1016C446.82 39.1016 449.498 48.5194 449.896 56.8681H423.596ZM465.392 81.3319C456.656 87.6016 449.511 90.3023 441.435 90.3023C430.948 90.3023 424.438 82.9602 423.32 70.1871H468.833L469.034 64.8056C469.034 38.1411 458.32 24.5786 437.162 24.5424C427.866 24.5128 420.244 27.5292 414.504 33.4799C407.514 40.6674 403.817 51.8549 403.817 65.7233C403.817 90.822 417.534 106.371 439.514 106.371C450.251 106.371 459.991 103.276 468.484 97.2266L468.965 96.8977L466.596 80.4503L465.392 81.3319Z" fill="#0033A0"/>
</svg>
