<svg width="500" height="499" viewBox="0 0 500 499" fill="none" xmlns="http://www.w3.org/2000/svg">
<g clip-path="url(#clip0_33_1402)">
<path d="M0 0H498.758V269.245L474.071 307.818L498.758 342.149V498.758H0V244.943L15.4295 227.199L0 210.227V0Z" fill="#016FD0"/>
<path d="M96.8203 347.549V269.244H179.73L188.626 280.84L197.815 269.244H498.759V342.149C498.759 342.149 490.888 347.471 481.786 347.549H315.148L305.118 335.205V347.549H272.254V326.478C272.254 326.478 267.764 329.419 258.059 329.419H246.872V347.549H197.112L188.229 335.704L179.21 347.549H96.8203Z" fill="white"/>
<path d="M0 210.227L18.6966 166.639H51.0303L61.6408 191.055V166.639H101.835L108.151 184.286L114.275 166.639H294.703V175.511C294.703 175.511 304.188 166.639 319.776 166.639L378.319 166.843L388.746 190.94V166.639H422.382L431.64 180.48V166.639H465.585V244.943H431.64L422.768 231.057V244.943H373.349L368.379 232.6H355.094L350.205 244.943H316.69C303.277 244.943 294.703 236.253 294.703 236.253V244.943H244.172L234.143 232.6V244.943H46.2403L41.2739 232.6H28.0307L23.0994 244.943H0V210.227Z" fill="white"/>
<path d="M25.3133 176.292L0.0957031 234.924H16.5137L21.1666 223.183H48.2164L52.8453 234.924H69.6249L44.4314 176.292H25.3133ZM34.6433 189.937L42.8884 210.454H26.3741L34.6433 189.937Z" fill="#016FD0"/>
<path d="M71.3613 234.914V176.282L94.6921 176.369L108.262 214.171L121.507 176.282H144.651V234.914H129.993V191.712L114.456 234.914H101.6L86.0193 191.712V234.914H71.3613Z" fill="#016FD0"/>
<path d="M154.682 234.914V176.282H202.513V189.397H169.494V199.426H201.742V211.77H169.494V222.185H202.513V234.914H154.682Z" fill="#016FD0"/>
<path d="M210.998 176.292V234.924H225.656V214.094H231.828L249.403 234.924H267.316L248.029 213.323C255.944 212.655 264.109 205.861 264.109 195.314C264.109 182.975 254.425 176.292 243.617 176.292H210.998ZM225.656 189.407H242.412C246.431 189.407 249.355 192.551 249.355 195.579C249.355 199.474 245.566 201.751 242.629 201.751H225.656V189.407Z" fill="#016FD0"/>
<path d="M285.06 234.914H270.094V176.282H285.06V234.914Z" fill="#016FD0"/>
<path d="M320.547 234.914H317.316C301.686 234.914 292.195 222.6 292.195 205.839C292.195 188.665 301.579 176.282 321.318 176.282H337.519V190.169H320.726C312.713 190.169 307.046 196.422 307.046 205.984C307.046 217.339 313.526 222.108 322.861 222.108H326.719L320.547 234.914Z" fill="#016FD0"/>
<path d="M352.444 176.292L327.227 234.924H343.645L348.297 223.183H375.347L379.976 234.924H396.756L371.562 176.292H352.444ZM361.774 189.937L370.019 210.454H353.505L361.774 189.937Z" fill="#016FD0"/>
<path d="M398.467 234.914V176.282H417.103L440.898 213.12V176.282H455.556V234.914H437.523L413.125 197.112V234.914H398.467Z" fill="#016FD0"/>
<path d="M106.85 337.52V278.888H154.681V292.003H121.662V302.032H153.91V314.376H121.662V324.79H154.681V337.52H106.85Z" fill="#016FD0"/>
<path d="M341.223 337.52V278.888H389.054V292.003H356.035V302.032H388.128V314.376H356.035V324.79H389.054V337.52H341.223Z" fill="#016FD0"/>
<path d="M156.537 337.52L179.826 308.565L155.982 278.888H174.45L188.65 297.234L202.898 278.888H220.642L197.112 308.204L220.443 337.52H201.979L188.191 319.462L174.739 337.52H156.537Z" fill="#016FD0"/>
<path d="M222.186 278.897V337.53H237.229V319.014H252.659C265.714 319.014 275.61 312.088 275.61 298.618C275.61 287.46 267.849 278.897 254.563 278.897H222.186ZM237.229 292.157H253.478C257.696 292.157 260.711 294.742 260.711 298.908C260.711 302.821 257.711 305.658 253.43 305.658H237.229V292.157Z" fill="#016FD0"/>
<path d="M281.975 278.888V337.52H296.633V316.69H302.804L320.38 337.52H338.292L319.005 315.919C326.921 315.25 335.086 308.457 335.086 297.909C335.086 285.571 325.402 278.888 314.594 278.888H281.975ZM296.633 292.003H313.388C317.407 292.003 320.331 295.147 320.331 298.175C320.331 302.07 316.543 304.346 313.605 304.346H296.633V292.003Z" fill="#016FD0"/>
<path d="M395.844 337.52V324.79H425.179C429.52 324.79 431.399 322.445 431.399 319.872C431.399 317.408 429.525 314.916 425.179 314.916H411.923C400.4 314.916 393.982 307.895 393.982 297.355C393.982 287.954 399.859 278.888 416.982 278.888H445.527L439.355 292.08H414.668C409.948 292.08 408.496 294.556 408.496 296.921C408.496 299.352 410.291 302.032 413.896 302.032H427.783C440.628 302.032 446.202 309.318 446.202 318.86C446.202 329.118 439.991 337.52 427.083 337.52H395.844Z" fill="#016FD0"/>
<path d="M449.642 337.52V324.79H478.978C483.318 324.79 485.198 322.445 485.198 319.872C485.198 317.408 483.324 314.916 478.978 314.916H465.721C454.199 314.916 447.781 307.895 447.781 297.355C447.781 287.954 453.658 278.888 470.781 278.888H499.325L493.154 292.08H468.466C463.747 292.08 462.295 294.556 462.295 296.921C462.295 299.352 464.09 302.032 467.695 302.032H481.582C494.427 302.032 500 309.318 500 318.86C500 329.118 493.789 337.52 480.882 337.52H449.642Z" fill="#016FD0"/>
</g>
<defs>
<clipPath id="clip0_33_1402">
<rect width="500" height="498.759" fill="white"/>
</clipPath>
</defs>
</svg>
