<svg width="500" height="257" viewBox="0 0 500 257" fill="none" xmlns="http://www.w3.org/2000/svg">
<path d="M1.26953 1.16227C100.387 1.03474 199.505 1.14101 298.618 1.10913C354.766 1.10913 410.908 1.10382 467.056 1.10913C467.056 85.073 467.056 169.037 467.056 253.001C311.796 252.99 156.541 253.022 1.28547 252.985C1.29079 169.042 1.31204 85.0996 1.26953 1.16227ZM20.7222 20.5353C20.7222 91.513 20.7222 162.491 20.7222 233.468C162.991 233.474 305.255 233.474 447.523 233.468C447.529 162.491 447.529 91.513 447.523 20.5406C305.26 20.53 162.991 20.5353 20.7222 20.5353Z" fill="#233776"/>
<path d="M327.864 54.2764C341.089 52.4432 354.872 53.7981 367.242 58.9629C379.102 63.8885 388.772 72.7567 397.263 82.1882C392.205 87.1616 387.008 91.9916 381.934 96.949C375.988 89.0373 368.512 82.0287 359.41 77.9267C349.909 73.5325 339.022 72.7726 328.804 74.6802C310.547 77.9639 294.925 92.1828 289.309 109.765C286.471 118.92 286.057 128.777 287.752 138.187C289.511 147.555 294.075 156.365 300.749 163.171C307.938 170.573 316.944 176.492 327.051 178.947C336.062 181.115 345.813 180.637 354.389 176.997C361.44 174.011 367.651 169.154 372.46 163.208C376.796 157.794 379.495 151.125 380.217 144.229C368.469 144.159 356.716 144.255 344.968 144.181C344.989 137.459 344.968 130.738 344.978 124.016C364.505 124.005 384.027 124.021 403.554 124.011C403.623 134.09 403.182 144.292 400.589 154.085C398.108 163.926 392.624 172.826 385.68 180.153C379.346 186.837 371.647 192.294 363.076 195.711C352.603 199.946 341.073 201.083 329.883 200.095C318.422 199.09 307.237 195.116 297.757 188.591C282.911 178.352 271.333 162.905 267.21 145.212C264.256 132.502 264.474 119.037 267.922 106.45C272.619 89.4358 284.256 74.8077 298.841 65.1C307.513 59.3242 317.55 55.6738 327.864 54.2764Z" fill="#233776"/>
<path d="M51.9824 197.74C73.9272 150.572 95.856 103.399 117.849 56.2578C120.601 56.2791 123.353 56.2738 126.106 56.2578C147.317 103.404 168.465 150.578 189.644 197.74C181.765 197.692 173.879 197.841 165.999 197.666C161.207 186.221 156.175 174.876 151.292 163.468C131.159 163.468 111.031 163.474 90.9038 163.468C85.6647 174.86 80.3937 186.237 75.2343 197.661C67.4872 197.841 59.7348 197.692 51.9824 197.74ZM121.563 95.6574C114.379 111.561 107.02 127.379 99.8623 143.288C112.641 143.261 125.415 143.288 138.194 143.277C139.644 143.25 141.106 143.378 142.546 143.16C135.606 127.581 128.906 111.885 122.009 96.2844C121.897 96.1303 121.674 95.8168 121.563 95.6574Z" fill="#233776"/>
<path d="M211.732 197.725C211.764 150.573 211.716 103.416 211.759 56.2637C218.884 56.2796 226.01 56.2584 233.135 56.2743C233.13 103.432 233.13 150.584 233.135 197.736C225.999 197.736 218.868 197.757 211.732 197.725Z" fill="#233776"/>
<path d="M486.44 233.155C489.931 232.151 493.916 233.192 496.44 235.817C500.164 239.595 500.016 246.529 495.988 250.041C492.789 253.123 487.465 253.463 483.762 251.099C480.818 249.292 479.027 245.807 479.256 242.358C479.197 238.118 482.38 234.213 486.44 233.155ZM486.923 234.717C482.189 235.955 479.803 241.816 481.828 246.152C483.283 249.845 487.699 251.976 491.493 250.748C496.264 249.415 498.608 243.378 496.429 239.037C494.899 235.493 490.59 233.543 486.923 234.717Z" fill="#233776"/>
<path d="M485.25 236.932C487.604 237.092 490.091 236.523 492.354 237.342C495.053 238.675 494.134 243.436 491.005 243.516C492.094 245.163 493.178 246.821 494.23 248.505C493.683 248.489 492.599 248.463 492.057 248.452C491.111 246.959 490.197 245.45 489.219 243.983C488.837 243.277 487.875 243.675 487.259 243.532C487.243 245.184 487.237 246.832 487.248 248.489C486.573 248.479 485.909 248.473 485.25 248.479C485.255 244.626 485.25 240.779 485.25 236.932ZM487.248 238.527C487.243 239.674 487.243 240.817 487.248 241.97C488.481 241.938 489.751 242.118 490.962 241.784C492.333 241.396 492.359 239.074 490.957 238.702C489.751 238.362 488.481 238.564 487.248 238.527Z" fill="#233776"/>
</svg>
