<svg width="500" height="190" viewBox="0 0 500 190" fill="none" xmlns="http://www.w3.org/2000/svg">
<g clip-path="url(#clip0_34_1463)">
<path d="M393.383 88.1266C393.383 89.582 393.356 91.0373 393.356 92.4872V185.393H358.201V26.6265C358.626 26.6265 359.05 26.5714 359.469 26.5714C368.841 26.5714 378.257 26.5714 387.65 26.5714C388.04 26.541 388.43 26.6112 388.784 26.7753C389.139 26.9394 389.445 27.1919 389.673 27.5085C414.385 58.1888 439.114 88.8598 463.858 119.522C464.101 119.825 464.366 120.106 464.862 120.668V26.6596H500.016V185.482H498.826C490.402 185.482 481.979 185.482 473.555 185.482C473.193 185.509 472.829 185.442 472.499 185.288C472.17 185.133 471.886 184.896 471.675 184.6C453.024 161.479 434.371 138.361 415.716 115.244C408.384 106.159 401.033 97.0811 393.665 88.0108L393.395 87.7628L393.383 88.1266Z" fill="#EB0017"/>
<path d="M256.981 189.467C237.83 188.916 217.94 180.983 201.799 164.599C185.519 148.061 177.361 128.006 177.691 104.753C178.017 82.2224 186.379 62.8947 202.267 47.0015C216.573 32.6904 233.938 24.5536 254.136 23.0542C280.206 21.1247 302.649 29.4986 320.896 48.2198C336.585 64.3005 344.341 83.8928 344.303 106.302C344.231 151.898 307.428 189.252 256.981 189.467ZM308.966 109.869C308.966 92.7297 304.242 81.4506 295.03 72.1451C285.818 62.8396 274.335 58.0821 261.182 57.9829C248.028 57.8837 236.54 62.5915 227.234 71.9081C216.33 82.8178 211.529 96.1641 213.193 111.523C214.262 122.145 219.008 132.06 226.611 139.555C237.367 150.343 250.41 155.332 265.653 153.943C288.519 151.859 309.336 132.107 308.966 109.869Z" fill="#EB0017"/>
<path d="M190.74 185.482H189.301C177.394 185.482 165.486 185.482 153.579 185.482C153.206 185.539 152.825 185.458 152.507 185.255C152.188 185.053 151.954 184.741 151.848 184.379C142.476 161.799 133.082 139.23 123.667 116.672C121.258 110.917 118.777 105.172 116.351 99.3949C114.109 94.0696 111.882 88.7407 109.67 83.408C105.072 72.2796 100.478 61.1475 95.888 50.0118C95.7392 49.659 95.5352 49.3282 95.2486 48.777C85.2099 72.9338 75.2594 96.815 65.2207 120.895H66.8249C79.3204 120.895 91.8013 120.895 104.267 120.895C104.665 120.839 105.069 120.929 105.405 121.149C105.741 121.369 105.985 121.704 106.092 122.091C110.469 132.168 114.879 142.236 119.323 152.295C119.494 152.687 119.637 153.089 119.874 153.69H118.193C96.5091 153.69 74.811 153.677 53.0981 153.651C51.8302 153.651 51.3672 154.114 50.9372 155.151C46.9073 164.903 42.8334 174.633 38.8091 184.368C38.5169 185.074 38.2579 185.504 37.3538 185.504C25.0934 185.467 12.8331 185.467 0.572758 185.504C0.440453 185.504 0.308147 185.504 0.0214844 185.454C0.125479 185.081 0.24877 184.713 0.390845 184.352C12.9746 155.355 25.562 126.36 38.1531 97.3663C52.0342 65.3924 65.9024 33.4038 79.7578 1.40047C80.2043 0.364077 80.706 -0.01079 81.8636 0.000235462C90.8604 0.0553629 99.8646 0.0553629 108.876 0.000235462C110.056 0.000235462 110.53 0.402664 110.976 1.42252C123.637 30.6731 136.317 59.9164 149.014 89.1523C162.734 120.759 176.451 152.38 190.167 184.015C190.321 184.451 190.498 184.887 190.74 185.482Z" fill="#EB0017"/>
<path d="M393.383 88.1265L393.416 87.7627L393.686 88.0108L393.383 88.1265Z" fill="#F8BEC4"/>
</g>
<defs>
<clipPath id="clip0_34_1463">
<rect width="500" height="189.467" fill="white"/>
</clipPath>
</defs>
</svg>
