<svg width="500" height="185" viewBox="0 0 500 185" fill="none" xmlns="http://www.w3.org/2000/svg">
<g clip-path="url(#clip0_34_1465)">
<path fill-rule="evenodd" clip-rule="evenodd" d="M233.451 41.2663H233.086L218.527 85.9011H247.83L233.451 41.2663ZM250.198 92.3189H216.524L209.425 113.437C205.964 123.724 204.145 131.625 215.07 131.806V134.931H188.129V131.806C197.958 130.335 200.323 125.006 203.596 115.279L232.359 28.6018H243.099L273.316 119.138C276.408 128.865 278.955 131.806 288.237 131.806V134.931H251.474V131.806C258.573 131.806 262.027 128.681 259.665 121.516L250.198 92.3189ZM318.251 122.625C318.251 129.786 320.435 131.806 328.987 131.806V134.931H294.951V131.806C304.78 131.806 305.872 129.24 305.872 119.319V83.8814C305.872 74.3288 303.51 73.2235 292.589 73.2235V70.1051L315.155 68.0886H318.247V82.2301C330.26 71.7564 335.905 68.0854 340.277 68.0854C343.915 68.0854 348.83 70.2893 352.106 73.2268L347.191 84.7992C341.915 81.8584 336.27 79.1084 331.899 79.1084C327.718 79.1084 324.073 81.3123 318.247 86.9965V122.628M411.981 91.0393H408.882C406.152 79.2827 397.961 71.7531 387.218 71.7531C374.478 71.7531 365.56 82.7761 365.56 98.7465C365.56 116.562 376.668 131.441 389.774 131.441C397.603 131.441 407.063 127.21 413.793 117.855V122.625C406.879 132.171 397.053 136.944 385.402 136.944C366.29 136.944 353.004 123.539 353.004 104.079C353.004 84.059 367.928 68.0854 386.313 68.0854C395.961 68.0854 401.241 71.7531 404.514 71.7531C406.149 71.7531 407.79 70.4768 408.882 68.0854H411.981V91.0393ZM485.859 119.319C485.859 129.24 487.678 131.806 496.237 131.806V134.931H462.747V131.806C471.478 131.806 473.481 129.786 473.481 121.345V89.2038C473.481 80.5722 468.385 75.059 460.563 75.059C453.28 75.059 448.004 78.5459 441.813 87.3682V122.987C441.813 129.786 444.54 131.806 452.553 131.806V134.931H417.968V131.806C427.619 131.625 429.435 129.786 429.435 119.319V34.6577C429.435 26.2103 427.066 24.9275 417.968 24.9275V21.809L438.714 19.5952H441.81V81.1215C450.001 71.5656 456.01 68.0854 464.382 68.0854C475.122 68.0854 485.862 75.24 485.862 90.6742L485.859 119.319Z" fill="#0853A6"/>
<path fill-rule="evenodd" clip-rule="evenodd" d="M74.1447 111.885L0 134.056L28.2895 95.4276L27.8388 113.312L74.1414 111.882M94.0691 110.763L64.0921 184.164L52.8092 137.171L66 148.806L94.0691 110.763ZM102.122 95.5132L138.197 165.921L95.8224 145.191L112.878 142.013L102.122 95.5132ZM96.3487 75.4605L172.336 89.2862L130.461 111.125L138.503 95.2467L96.3487 75.4605ZM82.5428 70.4671L141.615 19.1546L130.924 66.2993L124.313 49.7697L82.5428 70.4671ZM66.7961 79.5921L63.4638 0L93.1349 37.4868L76.3947 32.8224L66.7961 79.5921ZM65 98.1908L2.08882 52.0461L48.9967 50.9046L35.1382 61.648L65 98.1908Z" fill="#0853A6"/>
</g>
<defs>
<clipPath id="clip0_34_1465">
<rect width="500" height="184.211" fill="white"/>
</clipPath>
</defs>
</svg>
