<svg width="500" height="105" viewBox="0 0 500 105" fill="none" xmlns="http://www.w3.org/2000/svg">
<g clip-path="url(#clip0_34_1467)">
<path d="M229.649 66.7207C233.784 66.7207 236.364 64.3986 236.364 61.3969C236.364 56.9191 231.844 55.2873 227.933 52.7528C222.676 49.6449 219.929 46.6857 219.929 42.0132C219.929 36.1656 224.499 31.9745 231.472 31.9745C234.807 31.9745 237.862 32.7214 241.026 34.2824L240.817 40.3531C237.27 38.4239 234.371 37.3478 231.961 37.3478C228.361 37.3478 226.319 39.1213 226.319 41.7017C226.319 45.1849 230.694 46.891 234.265 49.2025C240.074 52.6466 243.076 55.9634 243.076 61.2341C243.076 67.8428 238.131 72.5684 229.968 72.5684C226.372 72.5684 222.885 71.8109 219.724 70.3135L219.133 62.8517C223.041 65.3756 226.428 66.7207 229.649 66.7207Z" fill="#706D6E"/>
<path d="M191.999 66.7207C196.137 66.7207 198.71 64.3986 198.71 61.3969C198.71 56.9191 194.194 55.2873 190.282 52.7528C185.022 49.6449 182.286 46.6857 182.286 42.0132C182.286 36.1656 186.845 31.9745 193.818 31.9745C197.156 31.9745 200.208 32.7214 203.379 34.2824L203.17 40.3531C199.624 38.4239 196.725 37.3478 194.314 37.3478C190.714 37.3478 188.675 39.1213 188.675 41.7017C188.675 45.1849 193.043 46.891 196.622 49.2025C202.42 52.6466 205.422 55.9634 205.422 61.2341C205.422 67.8428 200.484 72.5684 192.321 72.5684C188.721 72.5684 185.238 71.8109 182.074 70.3135L181.482 62.8517C185.404 65.3756 188.781 66.7207 191.999 66.7207Z" fill="#706D6E"/>
<path d="M264.516 55.4505C264.516 62.7955 267.62 66.5547 273.684 66.5547C279.638 66.5547 282.873 62.7353 282.873 55.2841V33.2669H289.652V55.3832C289.652 66.5016 283.62 72.5156 273.716 72.5156C263.5 72.5156 257.748 65.8043 257.748 55.493V33.2669H264.516V55.4505Z" fill="#706D6E"/>
<path d="M324.857 44.544C324.857 38.6079 318.408 38.6893 312.939 38.6893V50.4767C317.208 50.4767 324.857 50.905 324.857 44.544ZM306.387 33.2664H315.194C320.04 33.2664 323.788 33.5779 327.062 35.8929C329.901 37.8858 331.515 40.891 331.515 44.0025C331.515 48.9971 328.563 52.7527 323.197 54.5828L335.487 71.2656H327.707L316.156 55.4925H312.939V71.2656H306.387V33.2664Z" fill="#706D6E"/>
<path d="M460.039 71.2656H453.332V39.0681H440.5V33.2664H472.807V39.0681H460.039V71.2656Z" fill="#706D6E"/>
<path d="M145.679 56.1084C147.417 51.2873 149.36 46.9617 152.05 42.6857C154.698 46.9617 156.847 51.5067 158.454 56.1084H145.679ZM152.277 32.031C152.277 32.031 152.153 31.8788 151.994 31.8788C151.831 31.8788 151.703 32.031 151.703 32.031C142.273 46.052 138.698 53.6377 132.992 71.2656H139.778C140.397 68.9471 142.011 64.1507 142.815 61.8818H161.169C161.976 64.1507 163.586 68.9471 164.202 71.2656H170.995C165.229 53.4784 161.551 45.8148 152.277 32.031Z" fill="#706D6E"/>
<path d="M356.983 56.1084C358.725 51.2873 360.668 46.9617 363.351 42.6857C365.999 46.9617 368.155 51.5067 369.762 56.1084H356.983ZM363.581 32.031C363.581 32.031 363.454 31.8788 363.295 31.8788C363.139 31.8788 363.012 32.031 363.012 32.031C353.571 46.052 350.003 53.6377 344.297 71.2656H351.083C351.702 68.9471 353.313 64.1507 354.127 61.8818H372.47C373.28 64.1507 374.894 68.9471 375.514 71.2656H382.296C376.537 53.4784 372.859 45.8148 363.581 32.031Z" fill="#706D6E"/>
<path d="M401.651 47.6418L426.578 72.5581C426.578 72.5581 426.784 72.5794 426.9 72.459C426.957 72.4059 427.003 72.2785 427.003 72.1475V33.2669H420.561V56.7744L395.634 31.851C395.634 31.851 395.425 31.8368 395.312 31.9466C395.259 32.0032 395.209 32.1377 395.209 32.2616V71.2661H401.651V47.6418Z" fill="#706D6E"/>
<path d="M0.0778722 49.2905C0.0212362 50.2675 0 51.2515 0 52.2462C0 61.9982 2.66543 71.1272 7.32374 78.9395C10.6299 67.9591 15.3448 56.3842 21.4403 44.7667C13.8794 45.8923 6.72906 47.4144 0.0778722 49.2905Z" fill="#F89C0E"/>
<path d="M9.16406 22.6719C17.9603 20.7958 27.461 19.4755 37.4538 18.81C42.2147 12.1942 47.1881 6.13062 52.2464 0.697104C52.0304 0.46348 51.8181 0.233387 51.5986 -0.000236511C33.9812 0.215689 18.4701 9.14295 9.16406 22.6719Z" fill="#F89C0E"/>
<path d="M80.8968 8.54462C77.0102 23.8293 70.2139 40.5369 60.653 57.0994C57.9628 61.7612 55.1522 66.239 52.2461 70.515C55.1416 74.7769 58.1256 78.8334 61.1733 82.667C65.4671 82.49 69.6829 82.1927 73.8032 81.7785C76.5005 77.7574 79.1128 73.5592 81.6225 69.2089C89.3462 55.8428 95.293 42.4023 99.3991 29.7123C95.2718 21.0824 88.833 13.7551 80.8968 8.54462Z" fill="#F89C0E"/>
<path d="M80.8981 8.54465C72.6647 3.13591 62.8277 -0.000310898 52.2474 -0.000310898H51.5996C59.4543 8.34996 67.1179 18.2188 74.1301 29.3018C76.9336 22.1975 79.192 15.2312 80.8981 8.54465Z" fill="#40B93C"/>
<path d="M99.3994 29.7119C96.6313 38.2711 93.0243 47.1629 88.5996 56.1503C91.9447 63.5874 94.7128 70.9253 96.8968 78.0225C97.2047 77.9517 97.5162 77.8738 97.8277 77.803C102.072 70.2456 104.493 61.5308 104.493 52.246C104.493 44.1754 102.667 36.5366 99.3994 29.7119Z" fill="#40B93C"/>
<path d="M43.8393 57.0994C41.1491 52.4376 38.6748 47.7651 36.4306 43.1104C31.2873 43.4891 26.2821 44.0448 21.4397 44.7669C19.4398 48.5686 17.5885 52.3739 15.8965 56.1508C18.0274 60.4905 20.3566 64.855 22.8698 69.2089C30.5794 82.568 39.2411 94.4367 48.1719 104.337C49.517 104.44 50.8798 104.493 52.2462 104.493C60.7097 104.493 68.7025 102.486 75.7749 98.9074C64.476 87.8988 53.4001 73.6619 43.8393 57.0994Z" fill="#40B93C"/>
<path d="M97.8279 77.8032C86.6671 80.4368 74.2886 82.1323 61.1738 82.6668C65.9277 88.6526 70.8303 94.0896 75.7753 98.9072C85.0601 94.2171 92.7484 86.8438 97.8279 77.8032Z" fill="#1575C5"/>
<path d="M30.6937 81.7791C22.577 80.9578 14.8391 79.6835 7.60032 78.0234C7.50829 78.3313 7.41271 78.6358 7.32422 78.9402C15.7807 93.1452 30.7892 102.996 48.1729 104.338C42.1554 97.6619 36.2546 90.0975 30.6937 81.7791Z" fill="#1575C5"/>
<path d="M52.247 18.3253C36.8172 18.3253 22.2086 19.8863 9.16467 22.6721C3.90814 30.3215 0.630326 39.4399 0.078125 49.291C15.2601 45.0079 33.1252 42.5372 52.247 42.5372C57.6309 42.5372 62.9122 42.7354 68.0661 43.1106C70.3068 38.4771 72.3315 33.8613 74.1297 29.3021C71.8324 25.6738 69.4643 22.1695 67.0431 18.8102C62.2184 18.4881 57.2734 18.3253 52.247 18.3253Z" fill="#1575C5"/>
<path d="M491.071 37.3016V40.4201C491.184 40.4378 491.474 40.4449 491.948 40.4449C492.812 40.4449 493.393 40.3351 493.694 40.1086C493.991 39.8891 494.14 39.4679 494.14 38.8414C494.14 37.8078 493.47 37.291 492.125 37.291H491.598L491.071 37.3016ZM494.791 45.5067L492.419 41.4962H491.071V45.5067H489.729V36.1582H492.125C494.377 36.1582 495.495 37.0184 495.495 38.7493C495.495 39.9422 494.893 40.7953 493.69 41.2873L496.242 45.5067H494.791ZM498.773 40.9263C498.773 39.1706 498.157 37.6768 496.918 36.4379C495.683 35.2025 494.189 34.583 492.433 34.583C490.681 34.583 489.184 35.2025 487.941 36.4379C486.703 37.6768 486.08 39.1706 486.08 40.9263C486.08 42.6785 486.703 44.1758 487.941 45.4147C489.184 46.6571 490.681 47.2766 492.433 47.2766C494.189 47.2766 495.683 46.6571 496.918 45.4147C498.157 44.1758 498.773 42.6785 498.773 40.9263ZM484.848 40.9263C484.848 38.8343 485.591 37.0503 487.074 35.5706C488.557 34.091 490.345 33.3512 492.433 33.3512C494.522 33.3512 496.309 34.091 497.785 35.5706C499.262 37.0503 500.001 38.8343 500.001 40.9263C500.001 43.0147 499.262 44.7988 497.785 46.2819C496.309 47.7615 494.522 48.5049 492.433 48.5049C490.345 48.5049 488.557 47.7615 487.074 46.2819C485.591 44.7988 484.848 43.0147 484.848 40.9263Z" fill="#706D6E"/>
</g>
<defs>
<clipPath id="clip0_34_1467">
<rect width="500" height="104.493" fill="white"/>
</clipPath>
</defs>
</svg>
