<svg width="500" height="51" viewBox="0 0 500 51" fill="none" xmlns="http://www.w3.org/2000/svg">
<g clip-path="url(#clip0_34_1460)">
<path d="M453.68 50.0699C468.263 37.5699 488.75 25.4171 500 21.0421C498.263 19.931 495.555 18.3338 492.5 16.5977C477.986 21.3893 461.041 32.0143 445.902 44.0282C448.472 45.9727 451.18 47.9865 453.68 50.0699Z" fill="#E31837"/>
<path d="M447.013 16.1109C444.861 15.0692 442.5 14.097 440.694 13.2637C435.208 15.972 428.055 20.0692 419.027 26.5276C420.972 27.5692 423.055 28.8192 425.277 30.0692C432.222 24.9303 439.236 20.0692 447.013 16.1109Z" fill="#012169"/>
<path d="M459.999 10.1388C457.36 8.68045 448.194 5.27767 441.874 3.81934C439.999 4.51378 437.36 5.55545 435.555 6.31934C437.846 6.94434 446.388 9.236 453.68 12.9166C455.555 12.0138 458.194 10.9027 459.999 10.1388Z" fill="#E31837"/>
<path d="M428.958 9.23633C420.833 12.9863 412.291 18.1252 407.639 21.1113C409.305 21.8752 410.972 22.5002 413.264 23.6113C423.541 16.6669 431.597 12.4308 434.791 11.0419C432.5 10.2085 430.347 9.65299 428.958 9.23633Z" fill="#012169"/>
<path d="M466.111 7.98611C467.986 7.36111 470.139 6.80556 472.014 6.25C466.597 3.95833 459.792 1.52778 453.681 0C452.708 0.277778 449.792 1.04167 447.778 1.66667C449.861 2.29167 456.736 3.88889 466.111 7.98611ZM431.875 34.0972C434.097 35.4167 436.458 37.2222 438.75 38.75C453.958 26.9444 468.958 17.8472 485.417 12.7083C483.125 11.5278 481.111 10.4861 478.542 9.23611C468.681 11.7361 451.806 18.4722 431.875 34.0972Z" fill="#E31837"/>
<path d="M0 46.4587H11.1111C16.7361 46.4587 19.375 43.542 19.375 39.4448C19.375 36.1114 17.6389 33.8892 14.0278 33.1948C17.2222 32.4309 18.6806 30.4864 18.6806 27.6392C18.6806 24.0281 16.0417 21.1114 10.4167 21.1114H0.0694444V46.4587H0ZM9.65278 35.6948C11.7361 35.6948 13.1944 36.7364 13.1944 38.8198C13.1944 41.042 11.8056 41.9448 9.65278 41.9448H6.04167V35.6253H9.65278V35.6948ZM8.95833 25.5559C11.0417 25.5559 12.5 26.4587 12.5 28.542C12.5 30.6253 11.1111 31.5281 8.95833 31.5281H6.04167V25.5559H8.95833ZM41.8056 21.042H35.5556L26.0417 46.4587H32.3611L34.0972 41.1809H43.2639L45 46.4587H51.3889L41.8056 21.042ZM38.6806 27.1531L41.6667 36.5281H35.5556L38.6806 27.1531ZM83.0556 21.042H77.2917V38.0559L66.4583 21.042H60V46.4587H65.7639V29.5142L76.5972 46.4587H83.0556V21.042ZM109.653 46.4587L101.319 33.542V46.4587H95.1389V21.042H101.319V33.2642L109.236 21.042H116.111L107.778 33.2642L116.875 46.4587H109.653ZM138.75 33.7503C138.75 38.8198 141.806 41.9448 145.764 41.9448C149.722 41.9448 152.778 38.8198 152.778 33.7503C152.778 28.6809 149.722 25.5559 145.764 25.5559C141.806 25.5559 138.75 28.6809 138.75 33.7503ZM132.222 33.7503C132.292 26.3198 137.5 20.4864 145.764 20.4864C154.028 20.4864 159.236 26.3198 159.306 33.7503C159.236 41.1809 154.028 47.0142 145.764 47.0142C137.5 47.0142 132.292 41.1809 132.222 33.7503ZM167.778 46.4587H173.958V36.4587H182.014V31.5975H173.958V25.9031H183.681L184.792 21.042H167.778V46.4587ZM213.611 21.042H207.361L197.847 46.4587H204.167L205.903 41.1809H215.069L216.806 46.4587H223.194L213.611 21.042ZM210.486 27.1531L213.472 36.5281H207.361L210.486 27.1531ZM259.861 21.042H252.639L246.042 34.792L239.444 21.042H232.222V46.4587H237.778V29.4448L245.972 46.4587L254.167 29.4448V46.4587H259.931L259.861 21.042ZM271.875 46.4587H289.236V41.5975H278.056V35.9031H286.875V31.1809H278.056V25.9031H288.264L289.375 21.042H271.875V46.4587ZM312.778 46.4587H319.514L313.194 35.6948C316.667 34.7225 318.333 32.292 318.333 28.7503C318.333 24.167 315.556 21.1114 309.306 21.1114H299.514V46.5281H305.556V36.5281H307.222L312.778 46.4587ZM308.125 25.7642C310.694 25.7642 312.014 26.8753 312.014 29.0281C312.014 31.1809 310.694 32.292 308.125 32.292H305.486V25.7642H308.125ZM328.75 46.4587H334.931V21.1114H328.75V46.4587ZM365.347 39.6531C362.986 41.3198 360.903 41.8753 358.75 41.8753C354.028 41.8753 350.694 38.6114 350.694 33.7503C350.694 28.8892 353.958 25.6253 358.542 25.6253C360.625 25.6253 362.708 26.1809 365 27.8475V22.0837C362.917 20.9031 360.486 20.417 357.778 20.417C349.375 20.417 344.097 26.2503 344.028 33.6809C344.097 41.1809 349.236 46.9448 357.778 46.9448C360.625 46.9448 363.056 46.4587 365.278 45.2781V39.6531H365.347ZM387.986 21.042H381.736L372.222 46.4587H378.542L380.278 41.1809H389.444L391.181 46.4587H397.569L387.986 21.042ZM384.861 27.1531L387.847 36.5281H381.736L384.861 27.1531Z" fill="#012169"/>
</g>
<defs>
<clipPath id="clip0_34_1460">
<rect width="500" height="50.6944" fill="white"/>
</clipPath>
</defs>
</svg>
