<svg width="500" height="39" viewBox="0 0 500 39" fill="none" xmlns="http://www.w3.org/2000/svg">
<g clip-path="url(#clip0_34_1468)">
<path fill-rule="evenodd" clip-rule="evenodd" d="M30.821 14.0953C32.3438 12.9499 32.7256 11.0476 32.7256 9.52482C32.7256 7.62027 32.3438 6.09976 31.2028 4.57479C30.4415 3.05428 28.921 1.9111 27.0164 1.14973C25.1119 0.388358 22.0708 0.00878906 17.8844 0.00878906H0V0.77016C1.52274 0.77016 2.66592 1.14973 3.42506 1.53153C4.18643 1.9111 4.56823 2.2929 4.56823 2.67471C4.9478 3.05651 5.3296 4.57702 5.3296 6.48156V30.8432C5.3296 33.1273 4.9478 34.2705 4.56823 35.0319C4.56823 35.4114 4.18643 35.7933 3.42506 36.1728C2.66592 36.5546 1.52274 36.5546 0 36.5546V37.6978H19.0254C24.3527 37.6978 28.5392 36.5546 31.2028 34.2727C33.4847 32.3682 34.6279 30.0841 34.6279 27.0386C34.6279 24.3749 33.4847 22.4704 31.5824 20.5703C30.0597 19.4249 27.396 18.6635 23.9732 17.5248C27.3982 16.759 29.6801 15.618 30.821 14.0953ZM13.7002 1.9111C16.3639 1.9111 18.648 2.2929 19.789 3.05651C20.9299 3.43608 22.0731 4.19745 22.4526 5.33616C23.214 6.48156 23.5958 7.62027 23.5958 9.52482C23.5958 11.0476 23.214 12.5703 22.4526 13.3317C21.689 14.4748 20.9277 15.2362 19.7867 15.9976C18.264 16.759 16.3639 16.759 13.7002 16.759V1.9111ZM20.1663 19.8067C21.689 20.5681 22.8322 21.3294 23.5936 22.8499C24.355 24.3704 24.7345 25.8954 24.7345 27.4182C24.7345 28.9431 24.355 30.4636 23.5936 31.6068C22.8322 32.7478 22.0708 33.8909 20.9277 34.6523C19.4072 35.0319 18.264 35.4114 16.7412 35.4114C15.9799 35.4114 15.2207 35.4114 14.4594 34.6523C14.0776 34.2705 13.698 33.5069 13.698 32.3682V31.2228V19.0431C16.7435 19.0431 18.648 19.4226 20.1663 19.8067Z" fill="#2E3192"/>
<path fill-rule="evenodd" clip-rule="evenodd" d="M49.2448 17.2571C51.0042 17.2571 52.1005 17.2571 52.5404 17.4781C53.6389 17.6991 54.2976 18.3578 54.9562 19.0142C55.6149 19.6751 56.0547 20.7737 56.2736 22.312H56.9322V15.9375H38.6995V16.3774H39.5792C40.2401 16.3774 40.68 16.5984 41.1176 17.036C41.3386 17.036 41.5574 17.4759 41.7762 17.6969C41.7762 17.9157 41.7762 18.5766 41.7762 19.6751V33.9559C41.7762 35.0566 41.7762 35.7153 41.5552 35.9363C41.5552 36.374 41.3364 36.595 40.8965 36.816C40.6777 37.0371 40.0168 37.0371 39.577 37.0371H38.6973V37.6958H57.3676L58.4684 30.6648H57.8097C57.3698 32.643 56.4901 34.1814 55.1728 35.0611C54.0743 35.9408 52.3171 36.3784 50.3411 36.3784H49.0238C48.3651 36.3784 47.9253 36.3784 47.7042 36.1596C47.4854 35.9386 47.2644 35.7198 47.2644 35.5009C47.0456 35.2777 47.0456 34.619 47.0456 33.3017V27.1482C48.1441 27.1482 48.8027 27.3692 49.4636 27.588C49.9035 27.8091 50.3433 28.4678 50.781 29.1242C51.2186 30.0061 51.4396 31.1046 51.6584 32.2032H52.3171V20.9902H51.6584C51.4396 22.5286 50.9998 23.8459 50.3411 24.7279C49.9013 25.6076 48.8027 26.0474 47.4854 26.0474H47.0456V17.2571H49.2448Z" fill="#2E3192"/>
<path fill-rule="evenodd" clip-rule="evenodd" d="M70.1139 27.8043L77.1427 37.6932H83.9526V37.0346C83.2939 37.0346 82.8541 36.8135 82.4164 36.3737C82.1976 36.1549 81.5367 35.715 80.8803 34.8375L75.8298 27.3645C77.1471 27.1434 78.0246 26.4848 78.9043 25.8284C80.0028 24.9486 80.6615 23.6313 80.6615 21.8719C80.6615 20.5546 80.2216 19.4561 79.3442 18.5763C78.6855 17.4778 77.587 16.8192 76.4885 16.3793C75.1689 16.1583 73.1929 15.9395 70.7771 15.9395H60.6738V16.3793C61.5535 16.3793 62.21 16.6004 62.6498 16.8192C63.0897 17.038 63.3085 17.2568 63.3085 17.4778C63.5273 17.6989 63.5273 18.5763 63.5273 19.6749V33.9556C63.5273 35.0564 63.5273 35.715 63.3085 36.1549C63.3085 36.3737 63.0874 36.5925 62.6498 36.8135C62.2122 37.0346 61.5513 37.0346 60.6738 37.0346V37.6932H71.6568V37.0346C70.7771 37.0346 70.1206 37.0346 69.6808 36.8135C69.2409 36.5925 69.0221 36.3737 69.0221 36.1549C68.8033 35.715 68.5823 35.0564 68.5823 33.9556V27.8043H70.1139ZM70.3328 17.0357C72.0899 17.0357 73.4073 17.4756 74.0659 18.3553C74.9456 19.014 75.3855 20.3335 75.3855 21.8697C75.3855 23.1892 75.1644 24.0689 74.7246 24.7276C74.2847 25.3863 73.6261 25.8261 72.9674 26.2637C72.0877 26.4848 70.9914 26.7036 69.6719 26.7036H68.5733V17.0357H70.3328Z" fill="#2E3192"/>
<path fill-rule="evenodd" clip-rule="evenodd" d="M103.722 19.2331C105.26 17.9135 106.14 17.036 106.577 16.8172C107.017 16.5962 107.676 16.5962 108.334 16.3774V15.9375H99.9884V16.3774C100.868 16.5984 101.525 16.5984 101.746 16.8172C102.185 17.036 102.404 17.2548 102.404 17.6969C102.404 18.3556 101.746 19.0142 100.647 19.8917L92.7386 26.4851V19.6751C92.7386 18.5766 92.7386 17.9157 92.7386 17.4781C92.9574 17.2571 93.1785 17.0383 93.3973 16.8194C93.8372 16.5984 94.4958 16.3796 95.1567 16.3796V15.9375H84.3926V16.3774H85.0535C85.7121 16.3774 86.152 16.5984 86.5896 16.8172C86.8084 17.036 87.2483 17.2548 87.2483 17.4759C87.4693 17.9135 87.4693 18.5744 87.4693 19.6729V33.9536C87.4693 35.0544 87.4693 35.7131 87.2483 35.9341C87.0295 36.3717 86.8084 36.5928 86.5896 36.8138C86.1498 37.0349 85.7099 37.0349 85.0535 37.0349H84.3926V37.6935H95.3755V37.0349C94.4958 37.0349 93.8372 37.0349 93.6161 36.8138C93.1785 36.5928 92.9574 36.374 92.7386 36.1551C92.7386 35.7153 92.7386 35.0566 92.7386 33.9559V28.0257L93.3973 27.3648L98.45 33.5205C99.3275 34.8378 99.9862 35.7153 99.9862 36.1574C99.9862 36.3762 99.7651 36.595 99.5463 36.816C99.3253 36.816 98.8877 37.0371 98.229 37.0371V37.6958H109.431V37.0371C108.772 37.0371 108.332 36.816 107.674 36.5972C106.794 36.1596 105.916 35.2777 104.818 33.7415L97.3493 24.2925L103.722 19.2331Z" fill="#2E3192"/>
<path fill-rule="evenodd" clip-rule="evenodd" d="M124.151 15.498C123.93 16.1567 123.711 16.3778 123.49 16.5966C123.49 16.8176 123.271 16.8176 122.834 16.8176C122.615 16.8176 122.175 16.8176 121.514 16.3778C120.637 16.1567 120.197 15.9379 119.538 15.7191C118.879 15.498 118.221 15.498 117.562 15.498C115.586 15.498 114.048 16.1567 112.728 17.2552C111.409 18.5748 110.969 19.8921 110.969 21.6515C110.969 22.7501 111.19 23.6298 111.627 24.5072C112.067 25.3869 112.726 26.0456 113.606 26.7043C114.485 27.3629 115.803 28.2426 117.779 29.1201C119.315 30.0021 120.195 30.4397 120.853 30.8795C121.293 31.3172 121.733 31.7592 121.952 32.1991C122.173 32.8578 122.392 33.2954 122.392 33.7352C122.392 34.6149 121.952 35.2714 121.293 35.9323C120.637 36.5909 119.757 37.0308 118.437 37.0308C116.901 37.0308 115.582 36.3699 114.045 35.2714C112.726 33.9518 111.848 32.1969 111.409 29.9998H110.969V38.1315H111.409C111.63 37.6917 111.848 37.2496 112.07 37.033C112.509 36.812 112.726 36.812 113.168 36.812C113.389 36.812 113.824 36.812 114.267 37.033C115.146 37.4729 116.024 37.6917 116.682 37.9127C117.122 38.1338 117.781 38.1338 118.658 38.1338C120.637 38.1338 122.613 37.4751 123.93 36.1556C125.247 34.836 126.127 33.2976 126.127 31.5404C126.127 30.0043 125.687 28.6847 124.81 27.5862C123.93 26.7065 122.175 25.3892 119.538 24.0718C117.781 23.1899 116.682 22.5335 116.243 22.3124C115.365 21.8726 114.925 21.2139 114.706 20.7763C114.488 20.3364 114.267 20.1176 114.267 19.4567C114.267 18.7981 114.706 18.1394 115.146 17.4785C115.805 17.0387 116.682 16.5988 117.783 16.5988C119.319 16.5988 120.639 17.2575 121.737 18.356C123.055 19.4545 123.713 20.7741 124.153 22.7523H124.812L124.589 15.498H124.151Z" fill="#2E3192"/>
<path fill-rule="evenodd" clip-rule="evenodd" d="M143.918 27.1437V33.9559C143.918 35.0566 143.918 35.7153 143.918 35.9363C143.697 36.374 143.479 36.595 143.26 36.816C142.82 37.0371 142.38 37.0371 141.721 37.0371H141.063V37.6958H152.264V37.0371H151.606C150.945 37.0371 150.507 37.0371 150.07 36.816C149.849 36.595 149.63 36.3762 149.409 35.9363C149.19 35.7153 149.19 35.0566 149.19 33.9559V19.6751C149.19 18.5766 149.19 17.9157 149.409 17.6969C149.63 17.2571 149.849 17.036 150.07 16.8172C150.51 16.5962 150.947 16.3774 151.606 16.3774H152.264V15.9375H141.063V16.3774H141.721C142.38 16.3774 142.82 16.5984 143.039 16.8172C143.479 17.036 143.697 17.2548 143.918 17.4759C143.918 17.9135 143.918 18.5744 143.918 19.6729V25.8264H136.231V19.6751C136.231 18.5766 136.45 17.9157 136.45 17.6969C136.671 17.2571 136.89 17.036 137.109 16.8172C137.548 16.5962 137.988 16.3774 138.645 16.3774H139.303V15.9375H128.102V16.3774H128.76C129.419 16.3774 129.859 16.5984 130.299 16.8172C130.517 17.036 130.738 17.2548 130.955 17.4759C131.174 17.9135 131.174 18.5744 131.174 19.6729V33.9536C131.174 35.0544 131.174 35.7131 130.955 35.9341C130.736 36.3717 130.515 36.5928 130.299 36.8138C129.859 37.0349 129.419 37.0349 128.76 37.0349H128.102V37.6935H139.303V37.0349H138.645C137.986 37.0349 137.546 37.0349 137.327 36.8138C136.887 36.5928 136.669 36.374 136.448 35.9341C136.448 35.7131 136.229 35.0544 136.229 33.9536V27.1415L143.918 27.1437Z" fill="#2E3192"/>
<path fill-rule="evenodd" clip-rule="evenodd" d="M164.125 37.0349C163.466 37.0349 163.027 37.0349 162.589 36.8138C162.368 36.5928 162.149 36.374 161.93 35.9341C161.93 35.7131 161.712 35.0544 161.712 33.9536V19.6751C161.712 18.5766 161.93 17.9157 161.93 17.6969C162.151 17.2571 162.37 17.036 162.589 16.8172C163.029 16.5962 163.466 16.3774 164.125 16.3774H164.784V15.9375H153.582V16.3774H154.241C154.899 16.3774 155.339 16.5984 155.779 16.8172C155.998 17.036 156.217 17.2548 156.438 17.4759C156.438 17.9135 156.657 18.5744 156.657 19.6729V33.9536C156.657 35.0544 156.438 35.7131 156.438 35.9341C156.217 36.3717 155.998 36.5928 155.779 36.8138C155.339 37.0349 154.899 37.0349 154.241 37.0349H153.582V37.6935H164.784V37.0349H164.125Z" fill="#2E3192"/>
<path fill-rule="evenodd" clip-rule="evenodd" d="M175.767 27.8043L182.795 37.6932H189.605V37.0346C188.947 37.0346 188.507 36.8135 188.069 36.3737C187.848 36.1549 187.41 35.715 186.752 34.8375L181.48 27.3645C182.798 27.1434 183.896 26.4848 184.555 25.8284C185.655 24.9486 186.312 23.6313 186.312 21.8719C186.312 20.5546 185.872 19.4561 185.213 18.5763C184.334 17.4778 183.456 16.8192 182.139 16.3793C181.04 16.1583 179.064 15.9395 176.427 15.9395H166.324V16.3793C167.204 16.3793 168.081 16.6004 168.302 16.8192C168.74 17.038 168.961 17.2568 169.18 17.4778C169.18 17.6989 169.401 18.5763 169.401 19.6749V33.9556C169.401 35.0564 169.18 35.715 169.18 36.1549C168.961 36.3737 168.74 36.5925 168.302 36.8135C168.081 37.0346 167.423 37.0346 166.324 37.0346V37.6932H177.307V37.0346C176.427 37.0346 175.771 37.0346 175.331 36.8135C175.112 36.5925 174.673 36.3737 174.673 36.1549C174.451 35.715 174.451 35.0564 174.451 33.9556V27.8043H175.767ZM175.985 17.0357C177.743 17.0357 179.062 17.4756 179.94 18.3553C180.598 19.014 181.038 20.3335 181.038 21.8697C181.038 23.1892 180.819 24.0689 180.379 24.7276C179.94 25.3863 179.281 25.8261 178.622 26.2637C177.964 26.4848 176.863 26.7036 175.327 26.7036H174.447V17.0357H175.985Z" fill="#2E3192"/>
<path fill-rule="evenodd" clip-rule="evenodd" d="M200.59 17.2571C202.126 17.2571 203.225 17.2571 203.883 17.4781C204.984 17.6991 205.643 18.3578 206.299 19.0142C206.739 19.6751 207.179 20.7737 207.619 22.312H208.059V15.9375H190.047V16.3774H190.706C191.364 16.3774 192.023 16.5984 192.463 17.036C192.682 17.036 192.903 17.4759 192.903 17.6969C193.121 17.9157 193.121 18.5766 193.121 19.6751V33.9559C193.121 35.0566 192.903 35.7153 192.903 35.9363C192.682 36.374 192.463 36.595 192.244 36.816C191.804 37.0371 191.364 37.0371 190.708 37.0371H190.049V37.6958H208.719L209.818 30.6648H209.159C208.501 32.643 207.623 34.1814 206.525 35.0611C205.205 35.9408 203.669 36.3784 201.691 36.3784H200.373C199.715 36.3784 199.275 36.3784 199.056 36.1596C198.837 35.9386 198.616 35.7198 198.397 35.5009C198.397 35.2777 198.179 34.619 198.179 33.3017V27.1482C199.277 27.1482 200.155 27.3692 200.594 27.588C201.253 27.8091 201.693 28.4678 202.131 29.1242C202.57 30.0061 202.789 31.1046 202.789 32.2032H203.448V20.9902H202.789C202.789 22.5286 202.349 23.8459 201.691 24.7279C201.032 25.6076 200.155 26.0474 198.616 26.0474H198.179V17.2571H200.59Z" fill="#2E3192"/>
<path fill-rule="evenodd" clip-rule="evenodd" d="M250.464 19.4183V31.2229C250.464 33.1297 250.464 34.2684 250.082 34.6502C250.082 35.4116 249.323 35.7934 248.941 36.173C248.562 36.5548 247.419 36.5548 246.278 36.5548H245.135V37.6979H264.928V36.5548H263.403C262.642 36.5548 261.501 36.5548 261.123 36.173C260.36 35.7934 259.978 35.4116 259.598 34.6502C259.598 34.2684 259.598 33.1275 259.598 31.2229V6.47277C259.598 4.566 259.598 3.42729 259.598 3.04772C259.978 2.28411 260.36 1.90231 260.742 1.52274C261.503 1.13871 262.264 0.759139 263.403 0.759139H264.928V0H245.135V0.761371H246.278C247.419 0.761371 248.18 1.14094 248.941 1.52498C249.703 1.90455 250.082 2.28635 250.082 2.66592C250.464 3.42952 250.464 4.57046 250.464 6.47501V17.1364H237.144V6.47277C237.144 4.566 237.144 3.42729 237.523 3.04772C237.905 2.28411 238.284 1.90231 238.666 1.52274C239.428 1.13871 240.189 0.759139 241.33 0.759139H242.471V0H222.68V0.761371H224.2C224.962 0.761371 226.105 1.14094 226.484 1.52498C227.246 1.90455 227.627 2.28635 228.007 2.66592C228.007 3.42952 228.007 4.57046 228.007 6.47501V31.2252C228.007 33.1319 228.007 34.2706 228.007 34.6525C227.627 35.4138 227.246 35.7956 226.866 36.1752C226.105 36.557 225.343 36.557 224.2 36.557H222.68V37.7002H242.471V36.557H241.33C240.189 36.557 239.428 36.557 238.666 36.1752C238.284 35.7956 237.523 35.4138 237.523 34.6525C237.144 34.2706 237.144 33.1297 237.144 31.2252V19.4183H250.464Z" fill="#2E3192"/>
<path fill-rule="evenodd" clip-rule="evenodd" d="M283.292 34.1793C283.513 34.8379 283.73 35.2756 283.73 35.2756C283.73 35.4988 283.73 35.7154 283.73 35.9365C283.73 36.3741 283.73 36.5951 283.511 36.8162C283.071 37.0372 282.631 37.0372 281.754 37.0372H281.314V37.6959H291.638V37.0372C290.98 37.0372 290.54 36.8162 290.102 36.3763C289.662 36.1575 289.004 35.059 288.345 33.2996L280.437 15.5H280.218L272.53 32.8597C271.869 34.3959 271.211 35.4988 270.552 36.1575C270.114 36.5951 269.454 37.0372 268.795 37.0372V37.6959H275.824V37.0372C274.725 37.0372 274.066 36.8162 273.845 36.5974C273.408 36.3763 272.966 35.9387 272.966 35.2778C272.966 34.8402 273.187 34.1815 273.406 33.5228L274.502 31.5424H281.97L283.292 34.1793ZM274.946 30.2228L278.242 22.9708L281.537 30.2228H274.946Z" fill="#2E3192"/>
<path fill-rule="evenodd" clip-rule="evenodd" d="M293.398 15.9375V21.8699H293.836C294.057 20.115 294.718 19.0142 295.595 18.1368C296.254 17.4759 297.35 17.2548 298.889 17.2548H300.427V33.9536C300.427 35.0544 300.427 35.7131 300.206 35.9341C299.985 36.3717 299.766 36.5928 299.547 36.8138C299.108 37.0349 298.668 37.0349 298.011 37.0349H297.35V37.6935H308.554V37.0349H307.896C307.456 37.0349 306.797 37.0349 306.576 36.8138C306.139 36.5928 305.918 36.374 305.918 35.9341C305.699 35.7131 305.699 35.0544 305.699 33.9536V17.2571H307.235C308.331 17.2571 308.99 17.2571 309.43 17.4781C310.088 17.9157 310.747 18.3578 311.187 18.7977C311.406 19.4563 311.845 20.5548 312.283 21.8722H312.723V15.9375H293.398Z" fill="#2E3192"/>
<path fill-rule="evenodd" clip-rule="evenodd" d="M330.739 27.1437V33.9559C330.739 35.0566 330.518 35.7153 330.518 35.9363C330.297 36.374 330.078 36.595 329.859 36.816C329.419 37.0371 328.979 37.0371 328.323 37.0371H327.662V37.6958H338.866V37.0371H338.207C337.549 37.0371 337.109 37.0371 336.671 36.816C336.45 36.595 336.231 36.3762 336.013 35.9363C336.013 35.7153 335.792 35.0566 335.792 33.9559V19.6751C335.792 18.5766 336.013 17.9157 336.013 17.6969C336.231 17.2571 336.45 17.036 336.671 16.8172C337.109 16.5962 337.551 16.3774 338.207 16.3774H338.866V15.9375H327.662V16.3774H328.323C328.982 16.3774 329.419 16.5984 329.859 16.8172C330.078 17.036 330.297 17.2548 330.518 17.4759C330.518 17.9135 330.739 18.5744 330.739 19.6729V25.8264H323.051V19.6751C323.051 18.5766 323.051 17.9157 323.051 17.6969C323.272 17.2571 323.491 17.036 323.71 16.8172C324.15 16.5962 324.59 16.3774 325.246 16.3774H325.907V15.9375H314.703V16.3774H315.362C316.02 16.3774 316.46 16.5984 316.898 16.8172C317.119 17.036 317.338 17.2548 317.557 17.4759C317.778 17.9135 317.778 18.5744 317.778 19.6729V33.9536C317.778 35.0544 317.778 35.7131 317.557 35.9341C317.338 36.3717 317.119 36.5928 316.898 36.8138C316.46 37.0349 316.018 37.0349 315.362 37.0349H314.703V37.6935H325.907V37.0349H325.246C324.588 37.0349 324.15 37.0349 323.927 36.8138C323.491 36.5928 323.27 36.374 323.049 35.9341C323.049 35.7131 323.049 35.0544 323.049 33.9536V27.1415L330.739 27.1437Z" fill="#2E3192"/>
<path fill-rule="evenodd" clip-rule="evenodd" d="M354.243 34.1793C354.464 34.8379 354.681 35.2756 354.681 35.2756C354.902 35.4988 354.902 35.7154 354.902 35.9365C354.902 36.3741 354.681 36.5951 354.464 36.8162C354.243 37.0372 353.584 37.0372 352.707 37.0372H352.267V37.6959H362.812V37.0372C362.154 37.0372 361.714 36.8162 361.276 36.3763C360.837 36.1575 360.178 35.059 359.517 33.2996L351.611 15.5H351.39L343.483 32.8597C342.825 34.3959 342.164 35.4988 341.724 36.1575C341.289 36.5951 340.628 37.0372 339.748 37.0372V37.6959H346.996V37.0372C345.899 37.0372 345.241 36.8162 344.801 36.5974C344.363 36.3763 344.142 35.9387 344.142 35.2778C344.142 34.8402 344.363 34.1815 344.58 33.5228L345.459 31.5424H353.147L354.243 34.1793ZM346.116 30.2228L349.409 22.9708L352.486 30.2228H346.116Z" fill="#2E3192"/>
<path fill-rule="evenodd" clip-rule="evenodd" d="M390.048 15.9375V16.3774C390.928 16.5984 391.365 16.5984 391.803 16.8172C392.024 17.036 392.243 17.4759 392.243 17.9135C392.243 18.3533 392.022 18.5744 392.022 19.012C392.022 19.2331 391.801 19.8917 391.363 20.9902L387.849 30.2227L383.895 19.8917C383.455 18.5744 383.236 17.9135 383.236 17.6969C383.236 17.4759 383.236 17.2571 383.455 17.036C383.455 16.8172 383.676 16.8172 383.895 16.5984C384.113 16.5984 384.774 16.3774 385.431 16.3774V15.9375H375.106V16.3774C375.765 16.3774 376.205 16.5984 376.643 16.8172C376.864 17.036 377.301 17.2548 377.525 17.6969C377.743 18.1368 378.181 19.0142 378.621 20.115L379.501 22.5308L375.986 30.6626L371.813 20.115C371.376 18.7954 370.933 17.9157 370.933 17.6969C370.933 17.2571 371.154 17.036 371.373 16.8172C371.592 16.5962 372.032 16.5962 372.909 16.3774V15.9375H363.465V16.3774C364.124 16.5984 364.563 16.8172 365.001 17.036C365.222 17.4759 365.66 18.5744 366.537 20.3338L373.566 38.1356H374.225L380.155 24.0714L385.426 38.1356H386.087L392.895 20.1172C393.554 18.5789 393.775 17.918 393.775 17.6991C393.996 17.2593 394.433 17.0383 394.654 16.8194C394.875 16.5984 395.313 16.5984 395.753 16.3796V15.9375H390.048Z" fill="#2E3192"/>
<path fill-rule="evenodd" clip-rule="evenodd" d="M410.694 34.1793C410.915 34.8379 411.134 35.2756 411.134 35.2756C411.353 35.4988 411.353 35.7154 411.353 35.9365C411.353 36.3741 411.134 36.5951 410.915 36.8162C410.696 37.0372 410.035 37.0372 409.158 37.0372H408.718V37.6959H419.263V37.0372C418.605 37.0372 417.946 36.8162 417.727 36.3763C417.287 36.1575 416.629 35.059 415.97 33.2996L408.062 15.5H407.843L399.934 32.8597C399.276 34.3959 398.617 35.4988 398.177 36.1575C397.74 36.5951 397.079 37.0372 396.201 37.0372V37.6959H403.449V37.0372C402.35 37.0372 401.692 36.8162 401.252 36.5974C400.814 36.3763 400.593 35.9387 400.593 35.2778C400.593 34.8402 400.814 34.1815 401.033 33.5228L401.91 31.5424H409.598L410.694 34.1793ZM402.567 30.2228L405.862 22.9708L408.937 30.2228H402.567Z" fill="#2E3192"/>
<path fill-rule="evenodd" clip-rule="evenodd" d="M436.395 15.9375V16.3774C437.275 16.5984 437.932 16.8172 438.371 17.036C438.592 17.2571 438.811 17.4759 438.811 17.6969C438.811 18.1368 438.153 19.2331 437.275 20.9925L433.321 27.3648L429.367 20.3338C428.487 18.7977 428.049 17.6969 428.049 17.2571C428.049 17.036 428.268 17.036 428.487 16.8194C428.708 16.5984 429.146 16.3796 429.804 16.3796H430.244V15.9375H419.92V16.3774C420.579 16.3774 421.237 16.5984 421.677 17.036C421.898 17.2571 422.776 18.3556 423.655 20.3338L428.925 29.564V33.9581C428.925 35.0589 428.706 35.7175 428.706 35.9386C428.485 36.3762 428.266 36.5972 428.047 36.8183C427.607 37.0393 427.167 37.0393 426.509 37.0393H425.412V37.698H437.492V37.0393H436.395C435.737 37.0393 435.297 37.0393 434.859 36.8183C434.636 36.5972 434.419 36.3784 434.198 35.9386C434.198 35.7175 433.98 35.0589 433.98 33.9581V28.6866L438.811 20.7759C439.908 18.7977 440.787 17.4781 441.227 17.0383C441.665 16.8194 442.323 16.6006 442.984 16.3796V15.9375H436.395Z" fill="#2E3192"/>
<path fill-rule="evenodd" clip-rule="evenodd" d="M461.4 37.3716C461.097 37.3716 460.793 37.3716 460.489 37.2198C460.183 37.068 460.034 36.9139 460.034 36.6125C459.882 36.4607 459.882 36.0052 459.882 35.2438V25.3616C459.882 24.6003 459.882 24.1448 460.034 23.9952C460.034 23.6893 460.183 23.5375 460.489 23.3879C460.641 23.236 461.097 23.082 461.4 23.082H462.007V22.7783H454.104V23.082H454.711C455.017 23.082 455.472 23.2338 455.624 23.3879C455.928 23.5375 456.079 23.6915 456.079 23.8433C456.231 24.147 456.231 24.6025 456.231 25.3639V35.2461C456.231 36.0074 456.231 36.4629 456.079 36.6147C456.079 36.9184 455.928 37.0702 455.624 37.2221C455.472 37.3739 455.017 37.3739 454.711 37.3739H454.104V37.8294H462.007V37.3739L461.4 37.3716Z" fill="#2E3192"/>
<path fill-rule="evenodd" clip-rule="evenodd" d="M462.921 22.7764V23.08C463.377 23.2318 463.68 23.2318 463.832 23.3859C464.136 23.5355 464.44 23.8414 464.743 24.145L465.049 24.6005V35.2441C465.049 36.0055 464.897 36.6128 464.594 36.9164C464.288 37.2223 463.68 37.3742 462.77 37.3742V37.8296H468.24V37.3742H467.784C467.329 37.3742 466.873 37.2223 466.418 36.9164C466.112 36.6128 465.811 36.0055 465.811 35.2441V25.6678L475.994 38.1333H476.45V25.6678C476.45 24.9064 476.45 24.4509 476.601 24.145C476.751 23.8414 476.905 23.5377 477.057 23.5377C477.361 23.3881 477.664 23.2341 478.423 23.0823V22.7786H473.409V23.0823C474.168 23.0823 474.775 23.3881 475.233 23.8436C475.382 24.1473 475.536 24.7546 475.536 25.6678V32.0513L468.24 22.7786L462.921 22.7764Z" fill="#2E3192"/>
<path fill-rule="evenodd" clip-rule="evenodd" d="M493.619 22.4707C493.619 22.7766 493.467 23.078 493.313 23.2321C493.009 23.3839 492.857 23.5357 492.706 23.5357C492.402 23.5357 492.098 23.3861 491.339 23.0802C490.122 22.6248 489.059 22.4729 487.997 22.4729C486.63 22.4729 485.259 22.7788 484.045 23.538C482.676 24.1453 481.765 25.2103 481.006 26.4272C480.245 27.7958 479.789 29.1645 479.789 30.5332C479.789 31.8997 480.245 33.1165 480.854 34.3334C481.464 35.5502 482.526 36.4612 483.741 37.2226C484.958 37.8299 486.324 38.1335 487.997 38.1335C489.214 38.1335 490.276 37.9839 491.19 37.5262C492.098 37.0707 493.011 36.4612 493.771 35.5502V34.3334C492.86 35.3984 492.098 36.0057 491.339 36.4612C490.58 36.9167 489.667 37.0685 488.756 37.0685C487.541 37.0685 486.63 36.7648 485.869 36.3094C485.262 35.702 484.654 34.7866 484.348 33.7238C484.045 32.6588 483.893 31.4442 483.893 30.0755C483.893 28.7068 484.045 27.4899 484.5 26.2731C484.956 25.514 485.411 24.7526 486.17 24.1453C487.083 23.6898 487.843 23.3861 488.754 23.3861C489.97 23.3861 490.881 23.8416 491.792 24.4512C492.703 25.2103 493.313 26.2731 493.617 27.644H494.072V22.4752H493.619V22.4707Z" fill="#2E3192"/>
<path fill-rule="evenodd" clip-rule="evenodd" d="M496.807 34.9384C496.503 35.242 496.352 35.6997 496.352 36.307C496.352 36.7625 496.503 37.218 496.807 37.5217C497.263 37.8276 497.568 38.129 498.173 38.129C498.631 38.129 499.087 37.8253 499.39 37.5217C499.846 37.218 499.998 36.7625 499.998 36.307C499.998 35.6997 499.846 35.2398 499.39 34.9384C499.087 34.6347 498.631 34.3311 498.173 34.3311C497.568 34.3311 497.263 34.6369 496.807 34.9384Z" fill="#2E3192"/>
</g>
<defs>
<clipPath id="clip0_34_1468">
<rect width="500" height="38.1333" fill="white"/>
</clipPath>
</defs>
</svg>
