<svg width="500" height="73" viewBox="0 0 500 73" fill="none" xmlns="http://www.w3.org/2000/svg">
<path d="M63.61 69.4981V0H79.4401V69.4981H63.61ZM371.332 43.5328C371.332 26.7375 358.301 16.3127 343.05 16.3127C327.703 16.3127 314.768 26.834 314.768 43.5328C314.768 60.3282 327.799 70.8494 343.05 70.8494C358.301 70.8494 371.332 60.2317 371.332 43.5328ZM355.695 43.5328C355.695 52.3166 349.807 57.2394 342.954 57.2394C336.1 57.2394 330.212 52.3166 330.212 43.5328C330.212 34.6525 336.1 29.9228 342.954 29.9228C349.807 29.9228 355.695 34.6525 355.695 43.5328ZM57.2394 49.5174C57.2394 41.6988 53.1853 35.7143 45.9459 33.0116C52.7992 29.2471 55.2124 24.3243 55.2124 18.5328C55.2124 8.39768 47.8764 0 31.4672 0.0965251H0V69.5946H32.8185C49.3243 69.4981 57.2394 61.2934 57.2394 49.5174ZM38.417 20.5598C38.417 25.2896 35.4247 27.9923 29.6332 27.9923H16.5058V13.5135H29.6332C34.9421 13.5135 38.417 15.8301 38.417 20.5598ZM39.8649 48.4556C39.8649 52.9923 36.6795 55.9846 30.7915 55.9846H16.5058V40.9266H30.7915C36.4865 40.9266 39.8649 43.8224 39.8649 48.4556ZM195.077 30.5019C190.734 21.4286 182.625 16.4093 170.367 16.4093C155.888 16.4093 142.954 25.4826 142.954 43.5328C142.954 61.1004 154.344 70.8494 170.174 70.8494C181.274 70.8494 190.637 66.4093 195.077 56.8533L182.336 50.2896C180.019 54.5367 176.448 57.2394 170.753 57.2394C163.417 57.2394 158.687 52.027 158.687 43.5328C158.687 35.0386 164.093 29.9228 170.656 29.9228C175.772 29.9228 179.633 32.2394 182.046 37.2587L195.077 30.5019ZM428.378 30.5019C424.035 21.4286 415.927 16.4093 403.668 16.4093C389.189 16.4093 376.255 25.4826 376.255 43.5328C376.255 61.1004 387.645 70.8494 403.475 70.8494C414.575 70.8494 423.938 66.4093 428.378 56.8533L415.637 50.2896C413.32 54.5367 409.749 57.2394 404.054 57.2394C396.718 57.2394 391.988 52.027 391.988 43.5328C391.988 35.0386 397.394 29.9228 403.957 29.9228C409.073 29.9228 412.934 32.2394 415.347 37.2587L428.378 30.5019ZM295.656 69.4981L282.432 46.139H272.297V69.4981H255.985V0H285.425C301.351 0 312.452 7.62548 312.452 22.5869C312.452 32.1429 307.722 38.8996 299.324 43.0502L314.575 69.4981H295.656ZM272.394 32.3359H284.556C292.085 32.3359 295.753 28.0888 295.753 23.0695C295.753 17.0849 292.278 13.8031 284.556 13.8031H272.394V32.3359ZM140.347 68.6293V57.722C139.672 57.9151 138.707 58.1081 137.645 58.1081C135.618 58.1081 134.556 57.0463 134.556 55.2124V37.1622C134.556 23.6486 125.483 16.5058 110.521 16.5058C100.772 16.5058 92.471 20.0772 87.2587 24.7104L96.0425 34.556C99.5174 31.4672 104.151 29.5367 108.687 29.5367C115.637 29.5367 118.919 33.0116 118.919 38.7066V40.3475C115.637 39.5753 111.486 38.8031 106.467 38.8031C93.8224 38.8031 85.6178 44.8842 85.6178 54.9228C85.6178 65.251 92.471 70.6564 103.089 70.6564C110.328 70.6564 116.795 67.6641 120.174 63.8031C122.201 68.9189 126.641 70.2703 130.985 70.2703C133.977 70.3668 137.452 69.8842 140.347 68.6293ZM119.015 52.3166C119.015 57.0463 114.479 60.1351 109.266 60.1351C104.344 60.1351 101.93 57.6255 101.93 54.1506C101.93 50.4826 104.633 47.7799 110.135 47.7799C113.514 47.7799 116.506 48.3591 119.015 48.9382V52.3166ZM484.942 69.4981L466.313 37.1622L483.784 18.1467H466.216L447.78 38.61V0.0965251H432.046V69.5946H447.78V57.0463L455.309 49.0348L467.085 69.5946H484.942V69.4981ZM251.834 69.4981L233.205 37.1622L250.676 18.1467H232.915L214.672 38.61V0.0965251H198.938V69.5946H214.672V57.0463L222.201 49.0348L233.977 69.5946H251.834V69.4981ZM494.595 59.8456C497.876 59.8456 499.807 61.8726 499.807 64.9614C499.807 68.0502 497.876 70.0772 494.595 70.0772C491.313 70.0772 489.382 68.0502 489.382 64.9614C489.382 61.8726 491.313 59.8456 494.595 59.8456ZM494.595 69.4016C497.201 69.4016 498.938 67.8571 498.938 64.9614C498.938 62.0656 497.104 60.5212 494.595 60.5212C491.988 60.5212 490.251 62.0656 490.251 64.9614C490.154 67.9537 491.988 69.4016 494.595 69.4016ZM492.568 62.3552H494.691C495.946 62.3552 496.622 63.0309 496.622 63.9961C496.622 64.8649 496.236 65.3475 495.56 65.6371L496.525 67.471H495.56L494.691 65.8301H493.533V67.471H492.568V62.3552ZM493.533 63.1274V64.9614H494.595C495.27 64.9614 495.656 64.7683 495.656 64.0927C495.656 63.5135 495.367 63.2239 494.691 63.2239H493.533V63.1274Z" fill="black"/>
</svg>
