<svg width="500" height="180" viewBox="0 0 500 180" fill="none" xmlns="http://www.w3.org/2000/svg">
<g clip-path="url(#clip0_34_1470)">
<path d="M339.354 129.785H339.234C317.943 144.856 292.823 160.646 265.67 177.273L264.593 177.871C264.476 177.919 264.371 177.993 264.287 178.088C264.202 178.182 264.14 178.295 264.106 178.417C264.071 178.539 264.065 178.667 264.087 178.792C264.109 178.917 264.16 179.035 264.234 179.138C264.309 179.24 264.406 179.325 264.518 179.384C264.63 179.444 264.754 179.477 264.88 179.482C265.007 179.487 265.133 179.462 265.249 179.411C265.365 179.36 265.468 179.283 265.55 179.186L266.388 178.708C289.474 166.746 315.909 152.512 342.464 137.799L342.943 137.56C341.375 135.156 340.166 132.537 339.354 129.785ZM479.067 16.6266C445.574 -20.3351 229.545 12.9185 137.799 33.0142L135.646 33.4926C135.435 33.5469 135.25 33.6712 135.119 33.8451C134.989 34.0191 134.921 34.2323 134.928 34.4496C134.94 34.5576 134.976 34.6616 135.034 34.7537C135.091 34.8457 135.169 34.9235 135.261 34.9811C135.354 35.0387 135.458 35.0746 135.566 35.0861C135.674 35.0977 135.783 35.0845 135.885 35.0477L138.038 34.6888C214.115 21.1721 372.368 2.39216 406.34 36.1242C416.746 46.4113 414.354 59.6888 402.273 75.3587C408.942 79.7157 413.659 86.4915 415.431 94.2582C462.44 63.0381 494.019 33.1338 479.067 16.6266Z" fill="#CC2427"/>
<path d="M159.09 100.838C156.467 100.846 153.913 101.683 151.794 103.23C149.622 105.041 148.213 107.603 147.846 110.407C147.129 114.115 147.488 116.627 148.923 118.302C149.759 119.114 150.753 119.746 151.844 120.157C152.935 120.569 154.098 120.752 155.263 120.694C157.075 120.731 158.873 120.363 160.526 119.617C162.121 118.88 163.485 117.722 164.473 116.268C165.592 114.605 166.365 112.734 166.746 110.766C167.344 107.416 166.865 105.024 165.31 103.349C164.517 102.506 163.55 101.845 162.476 101.411C161.402 100.978 160.247 100.782 159.09 100.838ZM121.889 147.249L131.818 91.2682H149.76L148.325 98.4452C150.29 95.9876 152.899 94.124 155.861 93.0624C159.548 91.5564 163.482 90.7453 167.464 90.6701C172.129 90.6701 174.999 90.9093 178.468 92.7036C181.757 94.3538 184.315 97.1676 185.645 100.598C187.055 104.214 187.387 108.161 186.602 111.962C186.105 115.225 184.959 118.356 183.234 121.171C181.508 123.985 179.237 126.426 176.555 128.349C171.052 132.297 166.148 133.373 159.09 133.373C156.955 133.413 154.823 133.171 152.751 132.656C151.324 132.345 149.953 131.821 148.684 131.101C147.443 130.206 146.318 129.161 145.334 127.991L141.985 147.249H121.889ZM328.947 132.775H308.133L318.66 74.6414L338.875 75.1198L328.947 132.775ZM225.119 90.7897L226.554 82.2969L247.846 77.7514L245.574 90.7897H256.1L254.066 99.2825H243.899L237.799 132.775H217.105L223.325 99.2825H215.55L217.105 90.9093H225.119V90.7897ZM59.3296 117.823C53.7552 119.07 48.0559 119.672 42.344 119.617C32.655 119.617 24.8799 114.833 25.3583 105.861C25.5976 100 32.655 87.56 50.3583 87.56C55.9658 87.4304 61.4909 88.9259 66.2674 91.8662L68.7794 77.3925C62.3959 74.8572 55.5444 73.7153 48.6837 74.0433C25.3583 74.2825 2.98991 84.8088 0.238713 106.34C-2.51248 127.871 24.1622 133.732 36.0043 133.732C42.8224 133.732 49.9995 133.373 56.5784 132.775L59.3296 117.823ZM286.243 113.637L282.775 114.594L274.76 116.029C272.865 116.184 271.027 116.756 269.377 117.704C268.896 117.974 268.484 118.353 268.172 118.809C267.861 119.266 267.66 119.788 267.583 120.335C267.44 120.866 267.467 121.429 267.66 121.944C267.853 122.458 268.203 122.9 268.66 123.206C269.736 123.924 271.411 124.163 273.803 124.163C275.582 124.168 277.354 123.926 279.066 123.445C280.64 122.985 282.105 122.212 283.373 121.172C284.211 120.437 284.832 119.485 285.167 118.421C285.671 116.863 286.032 115.261 286.243 113.637ZM308.253 99.8806C308.133 101.914 307.775 103.828 307.296 106.818L303.588 127.751C303.391 128.593 303.484 129.477 303.854 130.259C304.223 131.041 304.846 131.675 305.621 132.058V132.775H284.21V127.393C280.988 129.309 277.53 130.797 273.923 131.818C270.563 132.678 267.103 133.081 263.636 133.015C256.818 133.015 252.87 132.297 250.119 129.905C247.368 127.512 246.052 125.838 246.172 122.488C246.398 120.196 247.316 118.027 248.803 116.268C250.367 114.559 252.286 113.211 254.425 112.321C257.125 111.114 259.986 110.308 262.918 109.928C266.746 109.33 272.009 108.732 279.066 108.134C281.435 107.905 283.765 107.383 286.004 106.579C287.44 105.981 288.038 105.383 288.277 104.187C288.516 102.991 288.038 100.838 285.167 100.239C277.511 98.6844 263.157 101.196 255.741 102.991L259.688 92.2251C269.146 90.7211 278.701 89.9214 288.277 89.8327C303.468 89.9524 308.373 94.3782 308.253 99.8806ZM186.004 132.775L193.421 91.0289H213.875L206.459 132.775H186.004ZM194.617 81.4595C195.215 77.9906 200.598 75.2394 206.698 75.2394C212.799 75.2394 217.105 77.9906 216.507 81.4595C215.909 84.9284 210.526 87.6796 204.425 87.6796C198.325 87.6796 194.019 84.8088 194.617 81.4595ZM102.272 113.517C101.157 113.969 99.9927 114.29 98.8033 114.474L90.9086 115.909C88.9719 116.047 87.0912 116.619 85.4062 117.584C84.9217 117.881 84.5093 118.281 84.199 118.757C83.8886 119.233 83.6881 119.772 83.6119 120.335C83.4888 120.861 83.5387 121.413 83.7542 121.909C83.9697 122.405 84.3393 122.817 84.8081 123.086C86.3369 123.941 88.0873 124.316 89.832 124.163C91.6166 124.128 93.3877 123.846 95.0952 123.326C96.6687 122.865 98.1333 122.092 99.4014 121.053C100.24 120.317 100.86 119.365 101.196 118.302C101.776 116.765 102.139 115.154 102.272 113.517ZM124.282 99.8806C124.162 101.914 123.803 103.708 123.325 106.818L119.617 127.632C119.419 128.474 119.513 129.358 119.882 130.14C120.252 130.922 120.875 131.555 121.65 131.938V132.775H100.239V127.512C96.9883 129.342 93.5361 130.787 89.9516 131.818C86.6374 132.714 83.2172 133.156 79.7842 133.134C72.8464 133.134 68.899 132.416 66.2674 130.024C63.6358 127.632 62.0808 125.957 62.2004 122.488C62.4574 120.24 63.3729 118.118 64.832 116.388C66.3892 114.641 68.3075 113.253 70.454 112.321C73.2092 111.154 76.1042 110.35 79.0665 109.928C82.7746 109.33 88.0378 108.732 95.0952 108.134C97.4857 108.062 99.8405 107.535 102.033 106.579C103.588 105.981 104.066 105.383 104.306 104.187C104.545 102.991 104.066 100.838 101.196 100.239C93.5402 98.804 79.1861 101.196 71.7698 103.11L75.7172 92.2251C85.1749 90.7258 94.7303 89.9262 104.306 89.8327C119.497 89.8327 124.401 94.2586 124.282 99.8806Z" fill="#013D5B"/>
<path d="M412.201 105.503L416.866 105.024C418.421 105.024 419.737 105.383 419.857 106.819C419.976 108.254 418.302 113.996 417.943 115.551L414.713 129.546C413.517 135.288 412.082 141.268 410.885 146.053H419.019L423.565 123.804C437.68 109.211 443.062 104.426 446.292 104.426C446.647 104.389 447.006 104.431 447.342 104.55C447.679 104.669 447.984 104.861 448.236 105.114C448.489 105.366 448.681 105.671 448.8 106.008C448.919 106.344 448.961 106.703 448.924 107.058C449.043 109.57 447.369 115.431 446.89 117.106L442.106 133.254C441.149 136.962 440.311 140.192 440.431 142.584C440.55 144.977 442.704 147.728 445.814 147.728C451.795 147.728 456.22 141.508 459.928 135.407L458.852 133.374C457.297 135.766 453.828 141.149 450.957 141.149C450.12 141.149 449.283 140.551 449.283 139.115C449.379 136.878 449.781 134.664 450.479 132.536L455.742 113.517C457.058 108.254 457.775 104.905 457.775 103.11C457.775 101.316 455.503 97.9669 452.393 97.9669C447.01 97.9669 439.833 101.914 424.761 119.259H424.522L426.436 110.766C427.512 106.101 428.469 101.316 429.426 97.9669C423.759 99.9808 417.965 101.619 412.082 102.871L412.201 105.503ZM492.225 105.981C492.106 102.632 490.431 100.359 486.962 100.359C478.589 100.359 469.737 116.747 468.182 123.326C481.818 123.326 492.584 115.192 492.225 105.981ZM494.019 131.699L495.574 132.776C491.507 141.029 483.254 147.728 473.445 147.728C465.431 147.728 458.972 142.465 458.613 132.536C457.895 114.594 474.761 97.9669 488.397 97.9669C494.259 97.9669 499.761 100.599 500 106.938C500.479 121.173 480.503 125.479 467.345 125.718C466.914 127.437 466.752 129.213 466.866 130.981C467.105 136.962 470.694 141.866 477.991 141.866C485.287 141.866 490.79 136.723 494.019 131.699ZM352.991 120.096C353.35 133.134 361.603 143.78 372.369 143.78C393.182 143.78 402.034 118.182 401.436 101.077C400.957 88.0387 392.584 77.3928 381.818 77.3928C363.876 77.3928 352.273 102.871 352.991 120.096ZM341.986 119.378C341.149 97.1296 358.613 74.4023 383.852 74.4023C400.838 74.4023 411.842 85.766 412.44 102.991C413.278 126.436 397.01 147.967 370.574 147.967C353.589 147.967 342.584 136.723 341.986 119.378Z" fill="#013D5B"/>
</g>
<defs>
<clipPath id="clip0_34_1470">
<rect width="500" height="179.426" fill="white"/>
</clipPath>
</defs>
</svg>
