<svg width="500" height="173" viewBox="0 0 500 173" fill="none" xmlns="http://www.w3.org/2000/svg">
<g clip-path="url(#clip0_34_1459)">
<path fill-rule="evenodd" clip-rule="evenodd" d="M283.039 114.575C283.039 131.536 277.876 145.948 268.301 156.242C258.856 166.176 245.686 171.503 230.262 171.667H229.902C216.373 171.667 204.706 168.072 195.817 160.882L194.445 169.608H176.111V15.7842H197.19V67.745C206.079 61.0783 217.059 57.4508 229.739 57.4508H232.32C263.334 58.66 283.203 80.7842 283.039 114.575ZM260.066 114.412C260.066 91.2417 249.445 76.5031 232.124 75.4574H230.262C211.569 75.4574 200.098 90.392 200.098 114.575C200.098 138.758 211.405 153.66 229.902 153.66H230.752C248.758 153.17 259.902 138.235 260.066 114.412ZM395.621 114.902C395.621 131.895 390.458 146.307 380.883 156.568C371.275 166.699 357.909 172.026 342.32 172.026C305.817 172.026 288.856 149.542 288.856 114.738C288.856 97.7776 293.987 83.3659 303.595 73.0718C313.203 62.7776 326.536 57.4508 342.157 57.4508C374.543 57.4508 395.621 79.9345 395.621 114.902ZM372.288 114.575C372.288 90.392 360.981 75.4574 342.484 75.4574C323.824 75.4574 312.32 90.392 312.32 114.575C312.32 138.758 323.628 153.66 342.157 153.66C360.654 153.66 372.288 138.758 372.288 114.575ZM455.915 153.66C476.144 153.66 487.974 142.516 488.987 141.307L498.072 156.242C498.072 156.242 483.497 171.667 453.17 171.667C422.843 171.667 401.275 150.752 401.275 114.902C401.275 78.7254 423.889 57.6469 453.17 57.6469C482.647 57.6469 499.968 79.7711 499.968 111.144L499.804 119.902H423.889C424.052 141.993 435.36 153.66 455.915 153.66ZM452.484 74.4443C433.301 74.4443 424.902 90.2286 423.889 103.595H478.889C478.889 88.66 471.503 74.4443 452.484 74.4443Z" fill="#002051"/>
<path d="M136.013 67.5812L122.287 53.8558L128.3 47.6793L136.013 39.9669L149.901 53.8558L136.013 67.5812ZM136.013 27.6466L122.287 13.9211L130.163 6.01262L136.013 0.0322266L149.869 13.9211L136.013 27.6466ZM156.078 47.712L142.189 33.8231L149.901 26.2741L156.078 20.0976L169.771 33.8231L156.078 47.712Z" fill="#00A82D"/>
<path d="M75.1642 150.588C44.3472 150.588 24.2819 125.719 24.2819 89.3461C24.2819 53.0062 45.3603 28.137 75.8505 28.137C98.3015 28.137 108.236 39.4442 115.949 47.6794L129.674 33.7906C122.484 26.2415 107.909 7.9082 75.1642 7.9082C34.9028 7.9082 0.294922 38.2677 0.294922 89.5422C0.294922 140.98 31.308 171.503 74.1511 171.503C106.014 171.503 123.334 154.706 130.001 145.947L115.785 131.732C109.609 138.921 96.2426 150.588 75.1642 150.588Z" fill="#002051"/>
</g>
<defs>
<clipPath id="clip0_34_1459">
<rect width="500" height="172.222" fill="white"/>
</clipPath>
</defs>
</svg>
