<svg width="500" height="500" viewBox="0 0 500 500" fill="none" xmlns="http://www.w3.org/2000/svg">
<g clip-path="url(#clip0_34_1458)">
<path d="M500 0H0V500H500V0Z" fill="#00A0DF"/>
<path d="M434.401 226.6C434.401 238.6 419.801 249.4 408.401 249.4C400.801 249.4 394.201 244 394.201 240.8C394.201 238.8 394.801 233 397.601 233C399.601 233 401.401 234.6 403.401 236.4C406.201 239 409.601 242 414.601 242C419.601 242 424.801 238.6 424.801 233C424.801 229.6 422.201 226.4 419.401 222.6C415.801 218 411.601 212.6 411.601 205.8C411.601 193.4 424.001 177.4 438.001 177.4C444.201 177.4 447.801 181 447.801 184.4C447.801 187.2 444.801 190.8 441.401 190.8C438.801 190.8 436.801 189.8 434.801 189C432.801 188.2 430.801 187.2 428.401 187.2C423.601 187.2 420.401 190.8 420.401 196.4C420.401 200.6 423.401 204.6 426.601 208.8C430.201 214 434.401 219.8 434.401 226.6ZM129.401 138.6C129.201 138.6 128.801 139 128.801 139.2V142.6C128.801 142.8 129.001 143 129.201 143.2L131.201 143.4L133.801 143.6C137.201 144.2 138.001 144.8 138.001 146.4C138.001 149.2 134.801 158.2 130.401 170.6L126.401 181.8C123.001 191.8 117.601 205.6 113.001 217.8C107.401 232.4 103.001 243.8 103.001 245.4C103.001 247.2 104.001 247.8 108.201 247.8C112.801 247.8 114.801 247 115.201 245.4C123.001 219.6 144.601 190.2 155.801 190.2C159.401 190.2 160.601 191.4 160.601 195C160.601 200.8 155.801 211.6 151.001 222C146.801 231.2 143.001 239.8 143.001 244C143.001 247.8 144.801 249.8 148.001 249.8C159.001 249.8 167.401 239.8 174.201 231.8L175.201 230.6L175.401 230.2L175.201 229.8L173.001 227C173.001 227 172.801 226.8 172.601 226.8C172.401 226.8 172.201 226.8 172.201 227C168.401 231 162.001 237 160.201 237.2C159.601 237.2 159.401 237.2 159.201 237C159.001 236.8 159.001 236.2 159.001 235.2C159.201 234.4 160.201 231.6 162.001 227.6C166.201 217.4 173.201 200.6 173.201 190.4C173.201 182.4 169.401 177.8 162.601 177.8C149.001 177.8 138.201 193.2 133.001 200.6C131.801 202.4 130.601 204 130.401 204H130.201C130.001 203.6 130.801 202 132.201 198.8C133.601 195.4 135.801 190.2 139.001 182.4C149.201 156 153.401 141.8 153.401 140.6C153.401 139 152.001 138.8 150.401 138.8H129.401V138.6ZM99.6008 233.2C99.6008 233 99.6008 232.8 99.6008 232.6L97.2008 230.2C97.2008 230 97.0008 230 96.8008 230C96.6008 230 96.6008 230 96.4008 230.2L96.2008 230.4C92.0008 234.2 83.8008 240.8 76.6008 241.4C73.8008 241.6 71.2008 240.8 69.2008 239C66.8008 236.8 65.4008 233.6 65.2008 229.4C64.8008 218.4 74.0008 202 83.2008 192.2C88.2008 187 92.8008 184.2 96.0008 184.2C99.8008 184.2 102.201 187 104.601 189.8C106.601 192.2 108.601 194.6 111.401 194.6C112.401 194.6 113.601 194 114.601 193.2C115.601 192.2 116.001 190.8 116.001 189.4C116.001 184.8 112.001 178 102.201 177.8C91.0008 177.6 77.2008 184.4 66.8008 195C57.0008 205.2 51.8008 217.2 52.4008 229C52.8008 238.8 58.2008 249.4 71.8008 249.4C85.6008 249.4 97.6008 237 99.6008 233.2ZM279.601 208C279.401 208.6 278.601 210.2 278.401 210H278.201V209.4C278.201 208.8 279.001 205.8 279.801 202.2C281.401 195.4 283.601 186 283.601 183.2C283.601 179.6 281.601 177.8 278.201 177.8C270.801 177.8 259.601 190 255.801 196.4L255.601 196.6C255.601 196.8 255.601 196.8 255.801 197L258.001 199.2C258.001 199.4 258.201 199.4 258.401 199.4C258.601 199.4 258.801 199.2 258.801 199.2L259.401 198.4L260.001 197.6C262.401 194.4 267.601 188 270.401 188C271.801 188 272.601 189.4 272.601 192C272.601 198.6 265.401 218.4 260.601 231.6C258.001 239 256.001 244.4 256.001 245.4C256.001 246.8 256.601 247.4 257.801 247.4H264.001C265.201 247.4 265.801 246.6 266.601 244.6C266.601 244.6 269.601 237.4 271.401 233.8C283.601 208.8 290.401 196 295.601 191C299.001 187.6 301.401 186.2 303.201 186.2C304.601 186.2 305.401 187.4 306.401 188.4C307.401 189.6 308.401 190.8 310.201 191C311.401 191 312.601 190.6 313.601 189.8C315.201 188.4 316.001 185.8 316.001 183.2C316.001 178.6 312.801 177 310.001 177C299.001 177.6 290.801 186 279.601 208ZM241.201 176.4C241.601 176.2 242.201 176.4 242.801 176.8C242.801 176.8 243.001 176.8 243.001 177L247.201 179.8C248.201 180.2 248.201 181.4 248.201 181.6C248.001 183 244.801 191.8 240.801 202C235.601 215.8 229.001 233 228.801 236.2C228.801 237.4 228.801 238 229.201 238.2C229.401 238.4 229.801 238.6 230.401 238.6C232.801 238.6 236.801 233.6 240.001 229.8L242.401 226.8C242.601 226.6 243.001 226.6 243.201 226.8L245.601 229.6L245.801 230C245.801 230 245.601 230.4 245.601 230.2C242.201 235.4 232.801 249.2 222.001 249.4C220.001 249.4 218.601 249 217.601 247.8C216.401 246.6 215.801 244.8 215.801 242.2C215.801 237 218.401 231.2 219.801 228.2L220.601 226.2C220.801 225.8 220.801 225.6 220.601 225.4H220.401C220.001 225.4 217.601 229.6 217.601 229.6C206.201 247 197.201 249.2 190.601 249.2C185.201 249.2 180.001 244.8 180.001 235C180.001 220.6 196.201 179 227.201 179C230.001 179 232.001 179.4 233.601 179.8C234.801 180 235.801 180.2 236.801 180.2C238.001 180.2 238.601 179.2 239.201 178.2C239.601 177.6 240.201 176.8 241.201 176.4ZM192.001 231.8C192.001 237.6 193.601 238.6 196.601 238.6C210.201 238.6 232.201 200.2 232.201 192C232.201 186.6 229.201 183.6 224.001 183.6C208.001 183.6 192.001 211.6 192.001 231.8ZM341.801 229.8C341.801 204.6 370.001 177.8 389.801 177.8C399.201 177.8 404.201 183.6 404.201 189C404.201 202.2 382.601 207.8 371.001 207.8L364.401 207.6C364.401 207.6 363.401 207.6 363.201 207.6C363.201 207.8 362.801 208.2 362.801 208.2C359.601 213 355.401 219.6 355.401 228.4C355.401 235.6 359.801 240.2 366.801 240.2C372.601 240.2 380.401 234.4 384.601 231.2L386.401 230C386.601 229.8 387.001 229.8 387.201 230L389.201 232.6C389.401 232.8 389.401 233 389.201 233.2C386.001 237.4 372.601 249.4 360.001 249.4C349.401 249.4 341.801 241.4 341.801 229.8ZM387.601 182.2C379.001 182.2 369.801 196.2 366.601 202C383.801 201.8 393.601 196.6 393.601 188.2C393.601 184.8 391.001 182.2 387.601 182.2ZM336.001 230.6C336.201 230.4 336.001 230 336.001 230C336.001 229.8 333.601 227 333.601 227C333.401 226.8 333.401 226.8 333.201 226.8C333.001 226.8 332.801 226.8 332.801 227L332.001 227.8C326.001 234.4 322.601 238.2 319.801 238.2C319.401 238.2 319.001 238.2 318.601 237.8C318.201 237.4 318.001 236.6 318.001 235.8C318.201 232 324.201 214.6 336.401 182.6L345.201 159.6C349.801 147.6 352.201 141.6 352.201 140.8C352.201 140.2 352.001 139.8 351.801 139.6C351.401 139.2 350.601 139 349.401 139H328.601C328.201 139 328.001 139.2 328.001 139.6L327.801 143C327.801 143.2 328.001 143.6 328.201 143.6L332.801 144C335.801 144.6 337.001 145.4 336.801 147.4C336.601 150.4 323.201 183.6 323.201 183.6C316.001 201.6 303.801 232.6 303.601 240C303.401 243.2 304.201 245.8 305.801 247.6C307.201 249.2 309.401 249.8 312.001 249.8C320.401 249.8 328.801 239.2 334.401 232.2L336.001 230.6ZM52.4008 293.2C52.4008 303 60.2008 308.2 67.6008 312.2L70.8008 313.8C78.4008 317.6 81.4008 321.4 81.4008 327.2C81.4008 333.8 77.2008 338.6 71.0008 338.6C61.2008 338.6 55.6008 328.4 53.2008 322.2V322L49.8008 323.2V323.4C50.8008 329.6 52.0008 336.4 52.8008 339L54.4008 339.6L58.8008 341.2C61.8008 342.2 65.4008 343 69.0008 343C82.8008 343 92.2008 334.6 92.2008 322.4C92.2008 311 83.4008 305.8 77.0008 302.8L74.4008 301.6C66.0008 297.8 62.6008 294 62.6008 288.8C62.6008 283.6 65.8008 278.4 72.8008 278.4C81.0008 278.4 84.2008 284.8 86.2008 291.2V291.4L89.8008 290.8V290.6C89.0008 285.6 88.2008 281.2 87.8008 277V276.8L85.4008 276L83.4008 275.4C80.8008 274.4 77.4008 274 74.2008 274C61.4008 273.8 52.4008 281.8 52.4008 293.2ZM99.8008 309.4C99.8008 326 111.401 342.8 137.201 342.8C143.801 342.8 152.601 340.8 156.201 339.8C158.001 335.8 160.401 327.2 161.401 322.8V322.6L158.201 322V322.2C153.001 332.8 148.001 338.6 137.001 338.6C122.801 338.6 113.201 325.8 113.201 307C113.201 293.8 119.401 278.4 137.001 278.4C147.401 278.4 153.001 282.8 155.801 293.2V293.4L159.001 293L158.601 288.4L157.201 276.6H157.001L155.201 276.2C151.801 275.4 146.001 274 138.801 274C116.001 273.8 99.8008 288.4 99.8008 309.4ZM237.001 275.2H208.201V278.4H208.401C215.801 279 216.801 279.4 216.801 290.6V304H186.201V290.6C186.201 279.6 187.201 279 194.401 278.4H194.601V275.2H165.401V278.4H165.601C174.201 279 174.801 279.8 174.801 290.6V326C174.801 336.6 174.201 337.6 166.001 338.2H165.801V341.4H195.001V338.2H194.801C187.201 337.6 186.201 337 186.201 326V309H216.601V326C216.601 336.8 216.001 337.6 207.401 338.2H207.201V341.4H236.801V338.2H236.601C229.001 337.6 228.001 337.2 228.001 326V290.6C228.001 279.8 228.601 279 236.601 278.4H236.801L237.001 275.2ZM338.401 275.2H315.001V278.4L318.601 278.6C320.601 278.8 321.601 279.2 322.201 280C322.601 280.4 322.601 281 322.601 282C322.601 283 322.401 284.6 321.801 286.6C321.601 287.6 316.001 309.4 311.601 324.2C310.801 322.2 294.001 276.4 294.001 276.4V276.2H290.001C290.001 276.2 275.001 323.4 274.801 324.2C274.201 322 263.001 285 263.001 285C262.601 283.6 262.401 282.4 262.401 281.6C262.401 281 262.601 280.4 262.801 280.2C263.401 279.4 264.401 279 266.201 278.8L269.401 278.6V278.4V275.4H241.801V278.6H242.001C247.401 279.2 249.001 279.8 251.801 288.4L268.401 342.4H273.201C273.201 342.4 288.801 295.8 288.801 295.2C289.601 297.2 306.001 342.2 306.001 342.2V342.4H310.801V342.2C320.201 311 327.801 289 327.801 288.8C331.201 279.6 332.001 279.2 338.201 278.6H338.401V275.2ZM355.601 291.2C355.601 291.4 348.001 312.6 347.801 313H363.401C363.201 312.6 355.801 291.4 355.601 291.2ZM381.201 328C384.601 337.2 386.201 337.6 391.801 338.2H392.001V341.4H365.001V338.2L368.001 337.8C369.801 337.6 370.801 337.2 371.201 336.6C371.401 336.4 371.401 336 371.401 335.6C371.401 334.8 371.201 334 370.801 332.6C369.801 329.6 367.401 323.6 365.401 318.2H346.801C345.601 320.8 344.201 325.4 342.801 329.4L342.201 331C341.601 332.8 341.401 334 341.401 335C341.401 335.6 341.601 336 341.801 336.4C342.401 337.2 343.401 337.6 345.601 337.8L348.601 338.2V341.4H325.801V338.2H326.001C332.201 337.4 333.201 337 336.801 328L357.401 275L361.601 274.6H361.801L368.601 293L381.201 328ZM416.201 304H420.001C429.001 304 434.001 299.6 434.001 291.6C434.001 280.4 424.401 279.4 421.401 279.4C418.201 279.4 417.001 279.8 416.801 279.8C416.001 280.2 416.001 282 416.001 284.2V304H416.201ZM424.801 275.2C432.401 275.2 436.601 276 440.401 278.6C444.201 281.2 446.201 285 446.201 290.2C446.201 299.4 437.201 303.8 432.201 304.8C443.401 306.4 450.001 312.6 450.001 321.8C450.001 328.4 447.001 333.4 440.801 337.2C436.401 339.8 429.401 341.2 421.401 341.2H396.001V338H396.201C403.801 337.4 404.801 336.8 404.801 325.8V290.4C404.801 279.4 404.001 278.8 396.801 278.2H396.601V275H396.801H424.801V275.2ZM416.201 308V325.8C416.201 330.8 416.601 334 418.201 335.6C419.201 336.6 420.801 337 423.801 337C430.201 337 437.201 333.4 437.201 323C437.201 313.4 430.801 308 419.601 308H416.201Z" fill="white"/>
</g>
<defs>
<clipPath id="clip0_34_1458">
<rect width="500" height="500" fill="white"/>
</clipPath>
</defs>
</svg>
