<svg width="500" height="324" viewBox="0 0 500 324" fill="none" xmlns="http://www.w3.org/2000/svg">
<path d="M466.596 178.979H413.541V166.346H466.596V178.979ZM413.541 145.624H466.596V157.893H413.541V145.624ZM462.627 187.569C472.013 187.569 476.339 183.669 476.339 176.961V171.042C476.339 169.168 475.686 168.303 474.32 167.142L468.257 161.945L474.32 156.747C475.693 155.593 476.339 154.728 476.339 152.847V147.649C476.339 140.934 472.006 137.041 462.627 137.041H404.011V187.569H462.627ZM364.098 178.979H311.043V166.346H364.098V178.979ZM311.043 145.624H364.098V157.893H311.043V145.624ZM360.122 187.569C369.508 187.569 373.834 183.669 373.834 176.961V171.042C373.834 169.168 373.182 168.303 371.815 167.142L365.753 161.945L371.815 156.747C373.189 155.593 373.834 154.728 373.834 152.847V147.649C373.834 140.934 369.501 137.041 360.122 137.041H301.506V187.569H360.122ZM259.142 137.034V178.54H208.971V137.034H199.441V176.013C199.441 183.161 203.773 187.562 212.363 187.562H255.743C264.333 187.562 268.665 183.161 268.665 176.013V137.034H259.135H259.142ZM106.185 157.681V137.034H96.6547V187.562H106.185V166.559H157.077V187.562H166.607V137.034H157.077V157.681H106.185ZM68.8674 146.063V137.041H12.9221C4.33254 137.041 0 141.442 0 148.59V176.02C0 183.168 4.33254 187.569 12.9221 187.569H68.8674V178.547H9.74993V146.063H68.8674Z" fill="black"/>
<path d="M495.832 137.529C496.67 137.879 497.398 138.366 498.016 138.991C498.634 139.616 499.121 140.344 499.471 141.188C499.822 142.026 500 142.925 500 143.894C500 144.862 499.822 145.775 499.471 146.606C499.121 147.437 498.634 148.164 498.016 148.782C497.398 149.4 496.67 149.881 495.832 150.238C494.995 150.595 494.088 150.767 493.113 150.767C492.138 150.767 491.232 150.588 490.394 150.238C489.557 149.888 488.829 149.4 488.211 148.782C487.593 148.164 487.112 147.437 486.755 146.606C486.405 145.775 486.227 144.869 486.227 143.894C486.227 142.919 486.405 142.033 486.755 141.188C487.105 140.351 487.593 139.616 488.211 138.991C488.829 138.366 489.557 137.879 490.394 137.529C491.232 137.179 492.138 137 493.113 137C494.088 137 494.995 137.179 495.832 137.529ZM490.786 138.442C490.078 138.751 489.46 139.17 488.946 139.698C488.431 140.227 488.025 140.852 487.73 141.566C487.442 142.28 487.298 143.056 487.298 143.88C487.298 144.704 487.442 145.48 487.73 146.194C488.019 146.908 488.424 147.533 488.946 148.061C489.467 148.59 490.078 149.009 490.786 149.318C491.493 149.627 492.269 149.778 493.106 149.778C493.944 149.778 494.699 149.627 495.413 149.318C496.121 149.009 496.739 148.59 497.254 148.061C497.775 147.533 498.18 146.908 498.476 146.194C498.771 145.48 498.922 144.704 498.922 143.88C498.922 143.056 498.771 142.28 498.476 141.566C498.18 140.852 497.775 140.227 497.254 139.698C496.739 139.17 496.121 138.751 495.413 138.442C494.706 138.133 493.937 137.982 493.106 137.982C492.276 137.982 491.493 138.133 490.786 138.442ZM490.614 147.869V139.904H493.669C494.569 139.904 495.228 140.09 495.64 140.467C496.052 140.845 496.258 141.387 496.258 142.108C496.258 142.452 496.203 142.754 496.1 143.015C495.997 143.276 495.853 143.495 495.668 143.674C495.482 143.852 495.269 143.997 495.029 144.1C494.789 144.203 494.535 144.285 494.26 144.333L496.629 147.869H495.482L493.244 144.333H491.596V147.869H490.614ZM493.772 143.468C494.061 143.447 494.322 143.399 494.541 143.31C494.761 143.221 494.94 143.083 495.077 142.891C495.214 142.699 495.283 142.438 495.283 142.102C495.283 141.82 495.228 141.587 495.125 141.415C495.022 141.243 494.878 141.106 494.699 140.996C494.521 140.893 494.322 140.818 494.095 140.783C493.869 140.749 493.635 140.728 493.395 140.728H491.596V143.489H492.894C493.189 143.489 493.484 143.482 493.772 143.461V143.468Z" fill="black"/>
</svg>
