<svg width="500" height="500" viewBox="0 0 500 500" fill="none" xmlns="http://www.w3.org/2000/svg">
<g clip-path="url(#clip0_34_1456)">
<path d="M116.539 318.559C116.122 320.727 115.705 323.061 115.372 325.645C109.453 326.812 104.034 327.395 99.1161 327.395C94.7814 327.395 90.5299 326.729 86.4452 325.395C82.3606 324.061 78.8594 321.977 75.775 319.226C72.774 316.475 70.6066 313.141 69.1895 309.389C67.7724 305.638 67.1055 301.554 67.1055 297.219C67.1055 292.634 67.8557 288.132 69.4396 283.881C70.9401 279.63 73.2742 275.962 76.3586 272.961C79.4429 269.96 83.1942 267.709 87.6123 266.292C92.0304 264.791 96.6153 264.041 101.367 264.041C106.535 264.041 111.704 264.625 116.789 265.625C116.789 267.125 116.955 269.459 117.289 272.627C113.954 271.627 111.12 270.96 108.786 270.543C106.452 270.21 104.201 270.043 102.117 270.043C98.5326 270.043 95.1148 270.627 91.8637 271.71C88.6126 272.794 85.695 274.545 83.1942 276.962C80.6933 279.379 78.776 282.297 77.4422 285.798C76.1085 289.299 75.4416 292.967 75.4416 296.719C75.4416 300.22 75.9417 303.554 77.0254 306.722C78.1091 309.89 79.693 312.557 81.9437 314.725C84.1111 316.892 86.7787 318.559 89.7797 319.726C92.7807 320.893 96.1985 321.477 99.9498 321.477C104.868 321.393 110.37 320.476 116.539 318.559Z" fill="#004D71"/>
<path d="M125.041 326.479L125.541 319.227L126.208 304.138L126.625 289.3C126.625 288.467 126.625 287.55 126.625 286.716V283.465H129.876H132.96C132.544 288.717 132.293 294.218 132.127 299.887C131.793 309.057 131.543 317.893 131.376 326.396L128.375 326.312C128.042 326.396 126.958 326.396 125.041 326.479Z" fill="#004D71"/>
<path d="M141.129 326.479L141.796 317.726L142.879 292.134L142.963 287.132C142.963 285.548 142.963 284.298 142.963 283.464C144.547 283.464 145.88 283.464 146.881 283.464C147.714 283.464 148.965 283.464 150.465 283.464L153.883 288.966L174.723 320.31L176.057 283.381H178.891H181.642L180.976 294.468L180.142 313.891L179.725 326.395C178.475 326.312 177.308 326.312 176.057 326.312C174.974 326.312 173.723 326.312 172.223 326.395L169.305 321.727L147.965 289.8C147.881 290.967 147.798 292.801 147.714 295.301L146.797 317.559L146.714 326.479C145.38 326.395 144.463 326.395 143.963 326.395C143.63 326.395 142.713 326.395 141.129 326.479Z" fill="#004D71"/>
<path d="M223.075 320.894C222.742 322.394 222.492 324.061 222.325 325.812C218.157 326.646 214.406 327.062 210.988 327.062C207.904 327.062 204.986 326.562 202.152 325.645C199.317 324.728 196.816 323.228 194.732 321.31C192.648 319.393 191.065 317.059 190.148 314.391C189.147 311.724 188.73 308.89 188.73 305.889C188.73 302.638 189.231 299.553 190.314 296.552C191.398 293.551 192.982 291.05 195.149 288.883C197.317 286.799 199.901 285.215 202.985 284.215C206.07 283.131 209.237 282.631 212.655 282.631C216.24 282.631 219.824 282.964 223.409 283.798C223.409 284.882 223.575 286.465 223.742 288.633C221.408 287.883 219.407 287.466 217.824 287.216C216.156 286.966 214.656 286.882 213.155 286.882C210.654 286.882 208.237 287.299 205.986 288.049C203.735 288.8 201.651 290.05 199.901 291.717C198.15 293.384 196.816 295.468 195.816 297.886C194.899 300.303 194.399 302.888 194.399 305.555C194.399 307.973 194.732 310.307 195.483 312.558C196.233 314.725 197.4 316.642 198.901 318.143C200.401 319.643 202.235 320.81 204.402 321.644C206.486 322.477 208.904 322.894 211.571 322.894C214.906 322.894 218.74 322.227 223.075 320.894Z" fill="#004D71"/>
<path d="M230.328 326.479L230.828 319.227L231.495 304.138L231.912 289.3C231.912 288.467 231.912 287.55 231.912 286.716V283.465H235.163H238.247C237.831 288.717 237.581 294.218 237.414 299.887C237.08 309.057 236.83 317.893 236.664 326.396L233.663 326.312C233.246 326.396 232.162 326.396 230.328 326.479Z" fill="#004D71"/>
<path d="M246.332 326.479L246.999 317.726L248.083 292.134L248.249 287.132C248.249 285.548 248.249 284.298 248.249 283.464C249.833 283.464 251.167 283.464 252.167 283.464C253.001 283.464 254.251 283.464 255.752 283.464L259.17 288.966L280.01 320.31L281.344 283.381H284.178H286.929L286.262 294.385L285.428 313.808L285.012 326.312C283.761 326.228 282.594 326.228 281.344 326.228C280.26 326.228 279.01 326.228 277.509 326.312L274.591 321.644L253.251 289.716C253.168 290.883 253.084 292.717 253.001 295.218L252.167 317.476L252.001 326.228C250.667 326.145 249.75 326.145 249.25 326.145C248.833 326.395 247.916 326.395 246.332 326.479Z" fill="#004D71"/>
<path d="M294.932 326.479L295.599 317.726L296.682 292.134L296.849 287.132C296.849 285.548 296.849 284.298 296.849 283.464C298.433 283.464 299.767 283.464 300.767 283.464C301.601 283.464 302.851 283.464 304.351 283.464L307.769 288.966L328.526 320.31L329.86 283.381H332.694H335.445L334.778 294.385L333.945 313.808L333.528 326.312C332.277 326.228 331.11 326.228 329.86 326.228C328.776 326.228 327.526 326.228 326.025 326.312L323.108 321.644L301.767 289.716C301.684 290.883 301.601 292.717 301.517 295.218L300.6 317.476L300.433 326.228C299.1 326.145 298.183 326.145 297.683 326.145C297.516 326.395 296.516 326.395 294.932 326.479Z" fill="#004D71"/>
<path d="M337.945 326.396L343.697 315.559L358.285 287.049L359.953 283.465H363.621C364.788 283.465 365.955 283.465 367.288 283.465L372.707 298.887L382.794 326.396L379.793 326.312C379.209 326.312 378.125 326.312 376.458 326.396C375.875 324.395 374.958 321.478 373.624 317.643C372.29 313.808 371.206 310.724 370.289 308.39H353.117L348.532 317.81L344.531 326.396L341.28 326.312C340.78 326.396 339.613 326.396 337.945 326.396ZM354.951 304.222H369.122L363.287 287.55L354.951 304.222Z" fill="#004D71"/>
<path d="M397.216 326.479L397.8 316.809L398.633 296.886L398.883 287.633C393.715 287.633 389.297 287.716 385.379 287.883C385.462 286.216 385.546 284.715 385.629 283.465C390.964 283.465 396.716 283.465 402.885 283.465H412.971H418.307C418.14 285.299 418.056 286.799 418.056 287.883C414.805 287.716 411.221 287.633 407.22 287.633H404.635L403.968 301.554L403.468 321.144V326.396L400.467 326.312C400.217 326.396 399.134 326.396 397.216 326.479Z" fill="#004D71"/>
<path d="M422.141 326.479L422.641 319.227L423.308 304.138L423.724 289.3C423.724 288.467 423.724 287.55 423.724 286.716V283.465H426.976H430.06C429.643 288.717 429.393 294.218 429.226 299.887C428.893 309.057 428.643 317.893 428.476 326.396L425.475 326.312C425.058 326.396 423.975 326.396 422.141 326.479Z" fill="#004D71"/>
<path d="M66.6875 358.739L66.9376 355.071L67.271 347.486L67.5211 339.983C67.5211 339.566 67.5211 339.149 67.5211 338.649V337.065H69.1883H70.7722C70.6055 339.733 70.4388 342.484 70.3554 345.402C70.1887 349.986 70.1053 354.488 70.0219 358.823H68.5214C68.188 358.656 67.6045 358.656 66.6875 358.739Z" fill="#4D5858"/>
<path d="M74.7734 358.739L75.1069 354.321L75.6904 341.4L75.7738 338.899C75.7738 338.149 75.7738 337.482 75.7738 337.065C76.524 337.065 77.1909 337.065 77.7744 337.065C78.1912 337.065 78.8581 337.065 79.6084 337.065L81.359 339.9L91.8625 355.738L92.5294 337.065H93.9465H95.3636L95.0302 342.651L94.6134 352.487L94.4467 358.823C93.8631 358.823 93.1962 358.823 92.6127 358.823C92.0292 358.823 91.4457 358.823 90.6954 358.823L89.1949 356.489L78.4413 340.317C78.358 340.9 78.358 341.817 78.2746 343.151L77.8578 354.405L77.7744 358.823C77.1075 358.823 76.6074 358.823 76.3573 358.823C76.0239 358.656 75.607 358.656 74.7734 358.739Z" fill="#4D5858"/>
<path d="M98.448 358.156C98.3646 357.156 98.3646 356.239 98.2812 355.572C99.3649 356.072 100.449 356.489 101.282 356.655C102.199 356.906 103.033 356.989 103.866 356.989C104.7 356.989 105.367 356.822 106.117 356.572C106.784 356.322 107.284 355.905 107.701 355.405C108.035 354.905 108.201 354.321 108.201 353.738C108.201 353.321 108.118 352.988 108.035 352.654C107.951 352.321 107.701 351.987 107.451 351.654C107.201 351.32 106.701 350.904 106.117 350.32C105.45 349.736 104.533 348.986 103.366 347.986L102.199 346.986C101.782 346.569 101.366 346.235 101.032 345.819C100.699 345.485 100.365 345.068 100.115 344.735C99.8651 344.401 99.6984 344.068 99.5317 343.818C99.3649 343.568 99.2816 343.234 99.1982 342.901C99.1149 342.567 99.1149 342.234 99.1149 341.817C99.1149 340.9 99.3649 340.067 99.8651 339.233C100.365 338.399 101.116 337.816 102.116 337.316C103.116 336.816 104.45 336.565 106.117 336.565C107.284 336.565 108.785 336.732 110.452 337.066C110.452 337.732 110.535 338.566 110.702 339.566C109.118 338.983 107.618 338.733 106.284 338.733C105.367 338.733 104.617 338.9 104.033 339.15C103.45 339.483 102.949 339.817 102.616 340.317C102.283 340.817 102.116 341.234 102.116 341.734C102.116 342.067 102.116 342.317 102.283 342.567C102.366 342.818 102.533 343.151 102.699 343.401C102.949 343.734 103.283 344.151 103.616 344.485C103.95 344.902 104.45 345.318 105.117 345.902C105.284 345.985 105.867 346.485 106.951 347.402C108.035 348.236 108.785 348.986 109.285 349.403C109.785 349.82 110.119 350.32 110.452 350.737C110.702 351.154 110.952 351.57 111.119 352.071C111.286 352.571 111.369 353.071 111.369 353.571C111.369 354.405 111.202 355.238 110.785 355.905C110.452 356.655 109.868 357.239 109.202 357.656C108.535 358.073 107.784 358.406 106.951 358.656C106.117 358.823 105.2 358.906 104.283 358.906C103.533 358.906 102.783 358.823 102.033 358.739C101.032 358.823 99.8651 358.573 98.448 358.156Z" fill="#4D5858"/>
<path d="M115.621 336.982H117.205H118.789L118.039 349.153L117.955 350.654V350.987C117.955 352.488 118.206 353.571 118.622 354.405C119.039 355.239 119.789 355.822 120.706 356.322C121.623 356.739 122.874 356.989 124.291 356.989C125.291 356.989 126.208 356.822 126.958 356.572C127.625 356.322 128.209 356.072 128.709 355.655C129.209 355.322 129.626 354.822 129.876 354.322C130.21 353.821 130.376 353.238 130.543 352.571C130.71 351.737 130.793 350.32 130.96 348.236L131.21 343.151C131.293 341.234 131.377 339.233 131.377 337.066H133.044H134.544L134.044 344.568L133.794 350.82C133.711 352.238 133.544 353.405 133.294 354.155C133.127 354.738 132.877 355.239 132.627 355.739C132.377 356.155 132.043 356.572 131.627 356.906C131.127 357.323 130.543 357.739 129.876 358.073C129.126 358.406 128.376 358.656 127.542 358.823C126.375 359.073 125.208 359.156 123.957 359.156C122.79 359.156 121.623 359.073 120.54 358.823C119.623 358.573 118.789 358.323 118.039 357.823C117.289 357.406 116.705 356.906 116.205 356.322C115.788 355.905 115.538 355.322 115.288 354.655C115.038 353.905 114.871 353.071 114.871 352.154C114.871 351.154 114.871 350.07 114.954 348.736C115.038 347.486 115.121 345.569 115.288 342.984C115.538 340.317 115.621 338.316 115.621 336.982Z" fill="#4D5858"/>
<path d="M138.463 358.74L138.796 354.488L139.13 346.569L139.297 339.9C139.297 338.566 139.297 337.566 139.297 336.982C140.547 336.982 141.631 336.982 142.464 336.982C143.214 336.982 143.965 336.982 144.882 336.982C145.715 336.982 146.466 336.982 147.049 336.982C148.049 336.982 148.966 337.066 149.717 337.149C150.55 337.316 151.217 337.566 151.884 338.066C152.551 338.566 152.968 339.15 153.301 339.817C153.635 340.484 153.718 341.234 153.718 342.067C153.718 342.901 153.635 343.568 153.385 344.318C153.134 344.985 152.801 345.569 152.301 346.152C151.801 346.736 151.301 347.152 150.634 347.486C150.133 347.736 149.55 347.986 148.8 348.153C148.3 348.236 147.633 348.403 146.799 348.486L149.633 352.988L152.551 357.406C152.718 357.739 153.051 358.156 153.468 358.823C152.634 358.823 152.134 358.823 151.801 358.823C151.467 358.823 150.967 358.823 150.133 358.823L148.966 356.656C148.716 356.239 148.466 355.822 148.3 355.405C148.049 354.988 147.799 354.572 147.549 354.071L143.965 348.153C143.798 347.903 143.548 347.486 143.214 346.902C144.048 347.069 144.715 347.152 145.382 347.152C146.466 347.152 147.383 346.986 148.3 346.652C149.133 346.319 149.8 345.735 150.3 344.985C150.8 344.235 151.05 343.401 151.05 342.568C151.05 342.067 150.967 341.651 150.8 341.234C150.634 340.817 150.384 340.484 150.133 340.15C149.8 339.9 149.467 339.65 149.216 339.567C148.883 339.483 148.466 339.317 147.966 339.317C147.466 339.233 146.966 339.233 146.382 339.233H144.131C143.131 339.233 142.548 339.233 142.298 339.233C141.964 346.402 141.797 352.904 141.714 358.906H140.13C139.713 358.656 139.213 358.656 138.463 358.74Z" fill="#4D5858"/>
<path d="M153.969 358.74L156.886 353.238L164.306 338.816L165.139 336.982H166.973C167.557 336.982 168.14 336.982 168.807 336.982L171.558 344.818L176.643 358.74H175.142C174.892 358.74 174.309 358.74 173.475 358.74C173.225 357.739 172.725 356.239 172.058 354.322C171.391 352.404 170.808 350.82 170.391 349.653H161.638L159.304 354.405L157.303 358.74H155.636C155.386 358.656 154.886 358.656 153.969 358.74ZM162.638 347.486H169.807L166.806 339.066L162.638 347.486Z" fill="#4D5858"/>
<path d="M179.477 358.739L179.81 354.321L180.394 341.4L180.477 338.899C180.477 338.149 180.477 337.482 180.477 337.065C181.311 337.065 181.894 337.065 182.478 337.065C182.894 337.065 183.561 337.065 184.312 337.065L186.062 339.9L196.566 355.738L197.232 337.065H198.65H200.067L199.733 342.651L199.317 352.487L199.15 358.823C198.566 358.823 197.899 358.823 197.316 358.823C196.732 358.823 196.149 358.823 195.399 358.823L193.898 356.489L183.144 340.317C183.061 340.9 183.061 341.817 182.978 343.151L182.561 354.405L182.478 358.823C181.811 358.823 181.311 358.823 181.06 358.823C180.81 358.656 180.31 358.656 179.477 358.739Z" fill="#4D5858"/>
<path d="M220.906 355.905C220.74 356.655 220.656 357.489 220.489 358.406C218.405 358.823 216.488 359.073 214.738 359.073C213.154 359.073 211.736 358.823 210.236 358.406C208.819 357.906 207.568 357.239 206.485 356.238C205.401 355.238 204.651 354.071 204.151 352.737C203.65 351.403 203.4 349.986 203.4 348.402C203.4 346.735 203.65 345.235 204.234 343.651C204.818 342.15 205.568 340.816 206.735 339.816C207.819 338.732 209.152 337.982 210.736 337.482C212.32 336.982 213.904 336.648 215.571 336.648C217.405 336.648 219.239 336.815 220.99 337.232C220.99 337.815 221.073 338.566 221.156 339.733C219.989 339.399 218.989 339.149 218.155 338.983C217.322 338.899 216.571 338.816 215.821 338.816C214.571 338.816 213.32 338.983 212.237 339.399C211.07 339.816 210.069 340.4 209.152 341.233C208.235 342.067 207.568 343.151 207.068 344.318C206.568 345.568 206.401 346.818 206.401 348.152C206.401 349.403 206.568 350.57 206.985 351.653C207.402 352.737 207.902 353.737 208.736 354.488C209.486 355.238 210.403 355.821 211.486 356.238C212.57 356.655 213.737 356.822 215.071 356.822C216.822 356.905 218.739 356.572 220.906 355.905Z" fill="#4D5858"/>
<path d="M224.492 358.739L224.909 352.737L225.326 341.567L225.409 339.149C225.409 338.566 225.409 337.816 225.409 337.065C227.827 337.065 230.244 337.065 232.745 337.065H237.83H239.497C239.414 337.816 239.414 338.566 239.33 339.316L237.913 339.233C237.58 339.233 236.996 339.233 236.079 339.149C235.246 339.149 234.412 339.149 233.579 339.149C231.078 339.149 229.327 339.149 228.327 339.233L228.077 346.652C229.744 346.652 231.161 346.735 232.495 346.735C233.912 346.735 235.746 346.735 238.08 346.652C237.997 347.402 237.997 348.152 237.913 348.819L232.411 348.736C231.328 348.736 229.827 348.736 227.91 348.819L227.66 356.655H229.327C232.328 356.655 234.329 356.655 235.329 356.655C236.329 356.655 237.497 356.572 238.747 356.489C238.664 357.239 238.664 357.989 238.58 358.739C235.996 358.739 233.829 358.739 232.078 358.739H224.492Z" fill="#4D5858"/>
<path d="M267.838 355.905C267.671 356.655 267.588 357.489 267.421 358.406C265.337 358.823 263.42 359.073 261.669 359.073C260.085 359.073 258.585 358.823 257.168 358.406C255.751 357.906 254.5 357.239 253.416 356.238C252.333 355.238 251.582 354.071 251.082 352.737C250.582 351.403 250.332 349.986 250.332 348.402C250.332 346.735 250.582 345.235 251.166 343.651C251.666 342.15 252.499 340.816 253.583 339.816C254.667 338.732 256.001 337.982 257.584 337.482C259.168 336.982 260.752 336.648 262.503 336.648C264.337 336.648 266.171 336.815 267.921 337.232C267.921 337.815 268.005 338.566 268.088 339.733C266.921 339.399 265.921 339.149 265.087 338.983C264.253 338.899 263.503 338.816 262.753 338.816C261.502 338.816 260.252 338.983 259.085 339.399C257.918 339.816 256.918 340.4 256.001 341.233C255.084 342.067 254.417 343.151 254 344.318C253.5 345.568 253.333 346.818 253.333 348.152C253.333 349.403 253.5 350.57 253.917 351.653C254.333 352.737 254.834 353.737 255.667 354.488C256.417 355.238 257.334 355.821 258.418 356.238C259.502 356.655 260.669 356.822 262.003 356.822C263.753 356.905 265.67 356.572 267.838 355.905Z" fill="#4D5858"/>
<path d="M283.095 336.648C284.679 336.648 286.18 336.899 287.597 337.315C289.014 337.815 290.264 338.566 291.348 339.566C292.432 340.65 293.182 341.817 293.682 343.067C294.099 344.401 294.349 345.818 294.349 347.319C294.349 348.986 294.099 350.486 293.599 352.07C293.099 353.571 292.265 354.821 291.265 355.905C290.181 356.989 288.93 357.739 287.347 358.239C285.763 358.739 284.179 358.989 282.428 358.989C280.844 358.989 279.261 358.739 277.76 358.239C276.26 357.739 275.009 356.989 273.925 356.072C272.842 355.071 272.091 353.904 271.675 352.57C271.175 351.237 271.008 349.819 271.008 348.319C271.008 346.652 271.258 345.068 271.841 343.567C272.425 342.067 273.259 340.733 274.342 339.733C275.426 338.649 276.76 337.899 278.344 337.399C279.761 336.899 281.428 336.648 283.095 336.648ZM282.928 338.732C281.678 338.732 280.428 338.899 279.344 339.316C278.177 339.733 277.26 340.4 276.343 341.317C275.509 342.234 274.842 343.317 274.426 344.484C274.009 345.735 273.842 346.985 273.842 348.319C273.842 349.569 274.009 350.736 274.426 351.904C274.842 353.071 275.426 353.988 276.176 354.738C276.926 355.488 277.927 356.072 279.01 356.405C280.094 356.738 281.261 356.989 282.512 356.989C283.762 356.989 284.929 356.822 286.013 356.405C287.18 355.988 288.097 355.405 288.93 354.571C289.764 353.737 290.348 352.654 290.764 351.487C291.181 350.236 291.348 348.986 291.348 347.652C291.348 346.402 291.181 345.235 290.848 344.068C290.514 342.901 289.931 341.984 289.181 341.15C288.43 340.316 287.43 339.733 286.43 339.399C285.263 338.983 284.095 338.732 282.928 338.732Z" fill="#4D5858"/>
<path d="M297.266 358.739L297.599 355.822L298.599 343.984L299.1 337.065C299.933 337.065 300.6 337.065 301.184 337.065C301.767 337.065 302.351 337.065 303.184 337.065L303.518 338.483C303.601 338.816 303.768 339.316 303.935 339.816C304.101 340.317 304.351 341.15 304.768 342.317L306.685 347.986L309.103 355.572L312.271 347.986L315.855 339.733C315.939 339.4 316.105 339.149 316.189 338.816C316.272 338.483 316.522 337.899 316.772 337.232C317.439 337.232 318.189 337.232 318.94 337.232C319.523 337.232 320.19 337.232 320.94 337.232L320.773 344.818L320.69 349.82C320.69 350.32 320.69 350.737 320.69 351.237V354.905V356.989C320.69 357.239 320.69 357.906 320.69 359.073C320.023 359.073 319.523 359.073 319.273 359.073C318.94 359.073 318.439 359.073 317.856 359.073L317.939 357.072L318.189 345.652C318.189 344.401 318.273 342.901 318.273 341.4V340.066L311.27 356.822L310.353 359.156C309.686 359.156 309.186 359.156 308.936 359.156C308.603 359.156 308.103 359.156 307.436 359.156L305.518 353.154L303.601 347.235L301.684 341.567C301.6 341.317 301.434 340.9 301.267 340.233L301.1 342.067L300.1 355.322C300.1 355.738 300.1 356.238 300.017 356.655C300.017 357.155 300.017 357.822 299.933 358.739H298.599C298.433 358.656 298.016 358.656 297.266 358.739Z" fill="#4D5858"/>
<path d="M325.523 358.74L325.774 355.155L326.274 342.734L326.357 340.067C326.357 339.65 326.357 339.233 326.357 338.816V336.982C327.691 336.982 328.775 336.982 329.608 336.982C330.108 336.982 330.859 336.982 331.942 336.982C332.943 336.982 333.776 336.982 334.276 336.982C335.61 336.982 336.61 337.066 337.277 337.232C337.944 337.399 338.528 337.733 339.028 338.233C339.528 338.733 339.945 339.233 340.195 339.983C340.445 340.65 340.612 341.401 340.612 342.234C340.612 343.568 340.278 344.735 339.611 345.819C338.945 346.902 338.028 347.653 336.861 348.236C335.693 348.736 334.36 348.986 332.943 348.986C332.192 348.986 331.359 348.903 330.358 348.736C330.192 347.986 330.025 347.319 329.858 346.736C330.692 346.902 331.525 346.986 332.276 346.986C333.026 346.986 333.776 346.902 334.443 346.736C335.11 346.569 335.693 346.236 336.194 345.819C336.694 345.402 337.111 344.902 337.361 344.318C337.611 343.735 337.778 343.068 337.778 342.401C337.778 341.817 337.694 341.317 337.444 340.9C337.277 340.484 336.944 340.067 336.61 339.817C336.277 339.567 335.86 339.4 335.443 339.233C335.027 339.15 334.36 339.066 333.443 339.066H332.109H330.442H329.191C329.025 341.401 328.941 343.485 328.941 345.402L328.691 351.904C328.608 354.405 328.608 356.072 328.608 356.906V358.656H327.107C326.857 358.656 326.357 358.656 325.523 358.74Z" fill="#4D5858"/>
<path d="M340.281 358.74L343.199 353.238L350.618 338.816L351.452 336.982H353.286C353.869 336.982 354.453 336.982 355.12 336.982L357.87 344.818L362.955 358.74H361.455C361.205 358.74 360.621 358.74 359.704 358.74C359.454 357.739 358.954 356.239 358.287 354.322C357.62 352.404 357.037 350.82 356.62 349.653H347.95L345.616 354.405L343.616 358.74H341.948C341.782 358.656 341.198 358.656 340.281 358.74ZM348.951 347.486H356.12L353.119 339.066L348.951 347.486Z" fill="#4D5858"/>
<path d="M365.789 358.74L366.123 354.322L366.706 341.401L366.789 338.9C366.789 338.149 366.789 337.483 366.789 337.066C367.54 337.066 368.207 337.066 368.79 337.066C369.207 337.066 369.79 337.066 370.624 337.066L372.375 339.9L382.878 355.739L383.462 336.982H384.879H386.296L385.962 342.568L385.546 352.404L385.379 358.74C384.795 358.74 384.129 358.74 383.545 358.74C382.961 358.74 382.378 358.74 381.628 358.74L380.127 356.406L369.374 340.234C369.29 340.817 369.29 341.734 369.207 343.068L368.79 354.322L368.707 358.74C368.04 358.74 367.54 358.74 367.29 358.74C367.123 358.656 366.623 358.656 365.789 358.74Z" fill="#4D5858"/>
<path d="M390.379 358.739L390.629 355.071L390.962 347.486L391.213 339.983C391.213 339.566 391.213 339.149 391.213 338.649V337.065H392.88H394.464C394.297 339.733 394.13 342.484 394.047 345.402C393.88 349.986 393.713 354.488 393.713 358.823H392.213C391.879 358.656 391.379 358.656 390.379 358.739Z" fill="#4D5858"/>
<path d="M398.465 358.739L398.882 352.737L399.298 341.567L399.382 339.149C399.382 338.566 399.382 337.816 399.382 337.065C401.799 337.065 404.217 337.065 406.718 337.065H411.803H413.386C413.303 337.816 413.303 338.566 413.22 339.316L411.803 339.233C411.469 339.233 410.886 339.233 409.969 339.149C409.135 339.149 408.301 339.149 407.384 339.149C404.884 339.149 403.133 339.149 402.133 339.233L401.883 346.652C403.55 346.652 404.967 346.735 406.301 346.735C407.718 346.735 409.552 346.735 411.886 346.652C411.803 347.402 411.719 348.152 411.719 348.819L406.217 348.736C405.134 348.736 403.633 348.736 401.716 348.819L401.466 356.655H403.133C406.134 356.655 408.135 356.655 409.135 356.655C410.135 356.655 411.302 356.572 412.553 356.489C412.47 357.239 412.47 357.989 412.386 358.739C409.802 358.739 407.635 358.739 405.884 358.739H398.465Z" fill="#4D5858"/>
<path d="M415.971 358.156C415.888 357.156 415.888 356.239 415.805 355.572C416.888 356.072 417.972 356.489 418.806 356.655C419.723 356.906 420.556 356.989 421.39 356.989C422.224 356.989 422.89 356.822 423.641 356.572C424.308 356.322 424.808 355.905 425.141 355.405C425.475 354.905 425.641 354.321 425.641 353.738C425.641 353.321 425.558 352.988 425.475 352.654C425.391 352.321 425.141 351.987 424.891 351.654C424.641 351.32 424.141 350.904 423.557 350.32C422.89 349.736 421.973 348.986 420.806 347.986L419.639 346.986C419.222 346.569 418.806 346.235 418.389 345.819C418.055 345.485 417.722 345.068 417.472 344.735C417.222 344.401 417.055 344.068 416.888 343.818C416.722 343.568 416.638 343.234 416.555 342.901C416.472 342.567 416.472 342.234 416.472 341.817C416.472 340.9 416.722 340.067 417.222 339.233C417.722 338.399 418.472 337.816 419.473 337.316C420.473 336.816 421.807 336.565 423.474 336.565C424.641 336.565 426.058 336.732 427.809 337.066C427.809 337.732 427.892 338.566 428.059 339.566C426.475 338.983 424.974 338.733 423.641 338.733C422.724 338.733 421.973 338.9 421.307 339.15C420.723 339.483 420.223 339.817 419.889 340.317C419.556 340.817 419.389 341.234 419.389 341.734C419.389 342.067 419.389 342.317 419.556 342.567C419.639 342.818 419.723 343.151 419.973 343.401C420.223 343.734 420.556 344.151 420.89 344.485C421.223 344.902 421.723 345.318 422.39 345.902C422.557 345.985 423.14 346.485 424.224 347.402C425.308 348.236 426.058 348.986 426.558 349.403C427.058 349.903 427.392 350.32 427.725 350.737C427.975 351.154 428.225 351.57 428.392 352.071C428.559 352.571 428.642 353.071 428.642 353.571C428.642 354.405 428.476 355.238 428.059 355.905C427.725 356.655 427.142 357.239 426.475 357.656C425.808 358.073 425.058 358.406 424.224 358.656C423.391 358.823 422.474 358.906 421.64 358.906C420.89 358.906 420.139 358.823 419.389 358.739C418.556 358.823 417.472 358.573 415.971 358.156Z" fill="#4D5858"/>
<path d="M130.127 278.213L130.294 275.045L130.544 268.543L130.627 265.542C128.96 265.542 127.459 265.542 126.209 265.625C126.209 265.042 126.292 264.625 126.292 264.208C128.043 264.208 129.877 264.208 131.878 264.208H135.129H136.879C136.796 264.792 136.796 265.292 136.796 265.625C135.712 265.542 134.545 265.542 133.295 265.542H132.461L132.211 270.043L131.961 276.462V278.129H130.961C131.127 278.213 130.794 278.213 130.127 278.213Z" fill="#004D71"/>
<path d="M138.379 278.213L138.712 272.044L138.879 267.292V265.708C138.879 265.458 138.879 264.958 138.879 264.208H139.963H140.963L140.63 270.293H148.966L149.132 265.458C149.132 265.292 149.132 264.875 149.132 264.208H150.216H151.217C151.05 266.876 150.883 269.376 150.8 271.46C150.716 273.628 150.633 275.879 150.633 278.129H149.633C149.549 278.129 149.216 278.129 148.549 278.129C148.716 276.045 148.799 273.878 148.882 271.627H140.546L140.38 275.795V278.046H139.379C139.296 278.213 138.962 278.213 138.379 278.213Z" fill="#004D71"/>
<path d="M153.969 278.212L154.219 274.378L154.469 267.209V265.625C154.469 265.208 154.469 264.791 154.469 264.291C155.969 264.291 157.553 264.291 159.221 264.291H162.472H163.555C163.555 264.791 163.472 265.208 163.472 265.708L162.555 265.625C162.305 265.625 161.971 265.625 161.388 265.625C160.804 265.625 160.304 265.625 159.721 265.625C158.137 265.625 156.97 265.625 156.386 265.625L156.22 270.376C157.303 270.376 158.22 270.376 159.054 270.376C159.971 270.376 161.138 270.376 162.638 270.376C162.555 270.877 162.555 271.293 162.555 271.794H159.054C158.387 271.794 157.387 271.794 156.22 271.794L156.053 276.879H157.136C159.054 276.879 160.388 276.879 160.971 276.879C161.638 276.879 162.305 276.879 163.222 276.795C163.138 277.295 163.138 277.796 163.138 278.212C161.471 278.212 160.137 278.212 158.97 278.212H153.969Z" fill="#004D71"/>
<path d="M147.382 144.168L146.549 143.501L142.464 147.252L145.465 148.836L145.799 176.929L145.048 181.68V182.014C136.212 188.349 126.042 195.102 114.538 201.937C72.2741 227.029 19.9233 250.537 4.41814 257.289C10.9203 253.955 66.7723 224.695 98.0327 200.187C131.21 174.178 142.548 147.252 142.548 147.252C142.548 147.252 128.293 172.011 91.0303 201.27C55.7686 228.946 9.25308 254.621 4.33478 257.372C1.58386 258.623 0 259.29 0 259.29C0 259.29 2.00067 258.456 5.50183 257.039C10.2534 255.538 60.3534 240.45 143.548 234.948L143.131 247.369L149.383 248.619V142.334L147.382 144.168ZM8.83628 255.538C30.5935 246.452 87.3625 222.027 122.791 201.02C130.877 196.185 138.213 191.267 144.882 186.432L143.631 227.362C71.8573 232.697 22.5909 250.203 8.83628 255.538Z" fill="#004D71"/>
<path d="M155.301 248.786L163.137 248.286V140H155.051L155.301 248.786Z" fill="#004D71"/>
<path d="M203.902 181.931L201.735 177.179L201.902 167.426C221.742 179.18 249.001 192.685 283.262 203.521C316.523 214.025 356.036 224.362 390.548 232.865C446.65 247.203 500.001 258.29 500.001 258.29C500.001 258.29 396.383 233.365 319.024 206.606C241.665 179.847 204.069 146.169 204.069 146.169C204.069 146.169 226.66 171.844 272.092 194.268C242.915 183.765 219.491 172.928 201.985 163.675L202.235 148.17L204.069 146.169L199.401 145.169L197.067 146.669L197.15 161.091C194.733 159.757 192.398 158.506 190.231 157.256V155.089L185.063 154.255C180.478 151.587 176.643 149.17 173.475 147.169L190.314 149.837V145.585L169.474 142.584V144.585C165.223 141.751 163.139 140.167 163.139 140.167C163.139 140.167 165.306 142.168 169.474 145.502V146.586L171.225 146.836C173.726 148.753 176.727 151.004 180.311 153.505L169.474 151.838V170.677C169.474 170.677 170.224 165.425 180.394 165.509C189.898 165.592 190.314 170.094 190.314 170.594V160.34C192.482 161.758 194.816 163.175 197.233 164.675L197.65 225.862C195.316 225.862 192.982 225.779 190.648 225.779V181.931C190.648 181.931 191.065 173.511 180.144 173.845C169.224 174.178 169.641 182.514 169.641 182.514V226.029H169.557V233.698C178.644 233.365 187.98 233.198 197.734 233.115L197.817 245.702L201.401 247.203L207.237 246.202L206.987 240.867C206.903 240.45 206.903 240.117 206.903 239.7L206.57 233.115C329.444 233.448 472.575 252.454 472.575 252.454C472.575 252.454 316.19 228.697 206.153 226.029L203.902 181.931ZM185.98 182.181V225.612C180.728 225.612 175.559 225.696 170.558 225.862V182.765C170.558 182.765 170.224 174.512 178.31 174.178C186.313 173.928 185.98 182.181 185.98 182.181Z" fill="#004D71"/>
<path d="M169.223 247.953L190.563 247.203V238.783L169.223 239.533V247.953Z" fill="#004D71"/>
<path d="M212.486 245.369C213.237 245.785 214.07 246.036 214.987 246.036C215.821 246.036 216.655 245.785 217.488 245.369C218.238 244.952 218.905 244.285 219.322 243.535C219.739 242.701 219.989 241.951 219.989 241.034C219.989 240.2 219.739 239.367 219.322 238.533C218.905 237.699 218.238 237.116 217.488 236.699C216.655 236.282 215.904 236.032 215.071 236.032C214.237 236.032 213.403 236.282 212.653 236.699C211.82 237.116 211.236 237.699 210.819 238.533C210.402 239.283 210.152 240.117 210.152 241.034C210.152 241.868 210.402 242.701 210.819 243.535C211.153 244.285 211.736 244.952 212.486 245.369ZM210.819 241.034C210.819 240.284 210.986 239.617 211.403 238.95C211.82 238.283 212.32 237.783 212.987 237.449C213.654 237.116 214.32 236.949 214.987 236.949C215.654 236.949 216.321 237.116 216.988 237.449C217.655 237.783 218.155 238.283 218.572 238.95C218.905 239.617 219.155 240.284 219.155 241.034C219.155 241.784 218.989 242.451 218.572 243.118C218.238 243.785 217.655 244.285 217.071 244.618C216.404 244.952 215.738 245.202 214.987 245.202C214.237 245.202 213.57 245.035 212.903 244.618C212.236 244.285 211.736 243.701 211.403 243.118C211.069 242.451 210.819 241.784 210.819 241.034Z" fill="#004D71"/>
<path d="M213.657 241.534H214.157C214.49 241.534 214.657 241.617 214.824 241.7C215.074 241.867 215.324 242.284 215.741 242.951L216.241 243.784H217.324L216.657 242.701C216.324 242.2 216.074 241.867 215.907 241.617C215.824 241.534 215.657 241.45 215.49 241.367C215.991 241.367 216.324 241.2 216.574 240.867C216.824 240.617 216.991 240.283 216.991 239.866C216.991 239.616 216.908 239.283 216.741 239.116C216.574 238.866 216.324 238.699 216.074 238.616C215.824 238.533 215.324 238.449 214.74 238.449H212.906V243.784H213.74V241.534H213.657ZM213.657 239.199H214.657C215.074 239.199 215.407 239.199 215.49 239.283C215.657 239.366 215.741 239.45 215.824 239.533C215.907 239.7 215.991 239.783 215.991 239.95C215.991 240.2 215.907 240.367 215.741 240.533C215.574 240.7 215.24 240.783 214.74 240.783H213.657V239.199Z" fill="#004D71"/>
</g>
<defs>
<clipPath id="clip0_34_1456">
<rect width="500" height="500" fill="white"/>
</clipPath>
</defs>
</svg>
