<svg width="500" height="290" viewBox="0 0 500 290" fill="none" xmlns="http://www.w3.org/2000/svg">
<path d="M2.32227 195.997C2.32227 144.542 44.3856 104.483 99.206 104.483C130.926 104.483 159.888 118.642 176.437 140.053L152.647 163.881C146.337 155.789 138.286 149.226 129.093 144.682C119.9 140.138 109.802 137.729 99.5506 137.636C66.7964 137.636 40.593 162.154 40.593 195.997C40.593 230.185 66.7964 254.703 99.5506 254.703C110.168 254.691 120.64 252.223 130.149 247.49C139.658 242.758 147.947 235.89 154.371 227.423L177.816 250.559C161.956 273.007 131.615 287.855 99.206 287.855C44.3856 287.855 2.32227 247.797 2.32227 195.997Z" fill="#255BE3"/>
<path d="M208.848 110.699H246.43V281.64H208.848V110.699Z" fill="#255BE3"/>
<path d="M316.42 235.71V142.47H275.391V110.699H318.146V74.0938L353.312 56.8271V110.699H409.168V142.47H353.312V229.495C353.312 246.762 362.967 254.358 381.239 254.358C390.748 254.407 400.155 252.405 408.822 248.488V280.949C397.964 285.721 386.199 288.079 374.344 287.856C340.9 287.856 316.42 269.554 316.42 235.71Z" fill="#255BE3"/>
<path d="M438.816 110.699H476.397V281.64H438.816V110.699Z" fill="#255BE3"/>
<path d="M342.275 1.91852C373.14 1.84474 403.572 9.21136 430.996 23.3963C458.42 37.5812 482.032 58.1677 499.841 83.4175H456.055C441.702 67.4395 424.155 54.663 404.555 45.9172C384.954 37.1714 363.733 32.652 342.275 32.652C320.817 32.652 299.599 37.1714 279.998 45.9172C260.398 54.663 242.85 67.4395 228.498 83.4175H184.711C202.52 58.1677 226.133 37.5812 253.557 23.3963C280.981 9.21136 311.41 1.84474 342.275 1.91852Z" fill="#FF3C28"/>
</svg>
