<svg width="500" height="81" viewBox="0 0 500 81" fill="none" xmlns="http://www.w3.org/2000/svg">
<g clip-path="url(#clip0_34_1454)">
<path fill-rule="evenodd" clip-rule="evenodd" d="M19.5197 41.6064C20.1451 41.6064 20.8034 41.7051 21.4289 41.8697C22.0543 42.0672 22.6468 42.3635 23.1734 42.7255C23.7001 43.0876 24.1938 43.5155 24.5888 44.0093C24.9838 44.5359 25.313 45.0955 25.5763 45.688C25.9713 46.7413 26.476 47.7398 27.0905 48.6834C27.7049 49.6489 28.4071 50.5267 29.1971 51.3167C30.0091 52.1286 30.8868 52.8418 31.8304 53.4563C32.774 54.0707 33.7725 54.5754 34.8258 54.9704C35.4512 55.2008 36.0108 55.53 36.5046 55.9579C36.9983 56.3529 37.4591 56.8467 37.8212 57.3733C38.1833 57.9 38.4466 58.4925 38.6441 59.1179C38.8416 59.7433 38.9075 60.3687 38.9075 61.027V74.0619C38.9075 74.9178 38.7429 75.7736 38.4137 76.5636C38.0845 77.3536 37.5908 78.0777 36.9983 78.6702C36.3729 79.2627 35.6817 79.7236 34.8917 80.0527C34.0688 80.3819 33.2458 80.5465 32.39 80.5136C31.5342 80.5794 30.6784 80.4477 29.8884 80.1515C29.0655 79.8223 28.3413 79.3615 27.7488 78.7361C27.1563 78.1436 26.6626 77.3865 26.3992 76.5965C26.103 75.8065 25.9713 74.9178 26.0372 74.0619V63.6604L11.0602 78.6702C10.4348 79.2627 9.74354 79.7236 8.95355 80.0527C8.19647 80.3819 7.34064 80.5465 6.51773 80.5465C5.66191 80.5465 4.839 80.3819 4.049 80.0527C3.25901 79.7236 2.56777 79.2627 1.94235 78.6702V78.6373C1.34986 78.0119 0.889029 77.3207 0.559865 76.5307C0.263618 75.7407 0.0990359 74.9178 0.0990359 74.0619C0.0990359 73.239 0.263618 72.3832 0.559865 71.6261C0.889029 70.8361 1.34986 70.112 1.94235 69.5195L16.9522 54.5096H6.51773C5.66191 54.5425 4.80608 54.4438 4.01609 54.1475C3.22609 53.8513 2.46902 53.3904 1.87652 52.7979C1.25111 52.1725 0.79028 51.4484 0.494033 50.6584C0.164869 49.8684 0.0332031 49.0126 0.0990359 48.1567C0.0661195 47.3009 0.230701 46.4451 0.559865 45.6551C0.889029 44.8651 1.34986 44.1409 1.94235 43.5155C2.53485 42.923 3.25901 42.4293 4.049 42.1001C4.839 41.771 5.66191 41.6064 6.51773 41.6064H19.5197ZM74.0622 41.6393C74.918 41.6393 75.7738 41.8039 76.5638 42.133C77.3209 42.4622 78.045 42.9559 78.6375 43.5484C79.263 44.1739 79.7238 44.8651 80.0529 45.688C80.3492 46.478 80.5138 47.3009 80.5138 48.1567C80.5467 49.0126 80.415 49.8684 80.1188 50.6913C79.8225 51.4813 79.3288 52.2055 78.7363 52.7979C78.1109 53.3904 77.3867 53.8842 76.5638 54.1804C75.7738 54.4767 74.918 54.5754 74.0622 54.5096H63.6606L78.6705 69.5524C79.23 70.1449 79.7238 70.869 80.02 71.6261C80.3492 72.4161 80.5138 73.2719 80.5138 74.0949C80.5138 74.9507 80.3492 75.7736 80.02 76.5636C79.7238 77.3207 79.23 78.0448 78.6705 78.6373C78.045 79.2298 77.3538 79.6906 76.5638 80.0198C75.7738 80.3161 74.9509 80.4806 74.0951 80.4806C73.2722 80.4806 72.4493 80.3161 71.6593 80.0198C70.8693 79.6906 70.178 79.2298 69.5526 78.6373L54.5427 63.5945V74.029C54.6086 74.8848 54.5098 75.7407 54.2136 76.5636C53.9173 77.3536 53.4565 78.0777 52.864 78.7032C52.2715 79.2956 51.5474 79.7894 50.7244 80.0856C49.9345 80.4148 49.0786 80.5136 48.2228 80.4806C47.367 80.4806 46.5441 80.3161 45.7211 80.0198C44.9312 79.6906 44.207 79.2298 43.6145 78.6373C42.9891 78.0119 42.5283 77.3207 42.1991 76.5307C41.8699 75.7407 41.7054 74.8848 41.7054 74.029V61.06C41.7054 60.4016 41.7712 59.7433 41.9687 59.1508C42.1662 58.5254 42.4295 57.9329 42.7916 57.3733C43.1537 56.8467 43.5816 56.3858 44.1082 55.9579C44.602 55.5629 45.1616 55.2338 45.787 55.0033C46.8403 54.5864 47.8388 54.0707 48.7824 53.4563C49.726 52.8418 50.5928 52.1396 51.3828 51.3496C52.1947 50.5377 52.9079 49.6599 53.5223 48.7163C54.1368 47.7727 54.6415 46.7743 55.0365 45.7209C55.2998 45.0955 55.629 44.5359 56.024 44.0422C56.419 43.5155 56.9127 43.0876 57.4394 42.7255C57.966 42.3635 58.5585 42.1001 59.184 41.9026C59.8094 41.7051 60.4677 41.6393 61.0931 41.6393H74.0622ZM212.969 3.19295V23.5682H226.136V34.3319H212.969V58.1304C212.969 65.1087 214.582 67.0508 219.355 67.0508C219.948 67.0508 220.529 67.0398 221.1 67.0178C221.67 66.9739 222.241 66.9191 222.811 66.8533C223.382 66.7874 223.952 66.6996 224.523 66.5899C225.072 66.4802 225.631 66.3485 226.202 66.1949V77.3865C225.258 77.6279 224.326 77.8364 223.404 78.0119C222.46 78.1875 221.506 78.3411 220.54 78.4727C219.597 78.5825 218.653 78.6702 217.709 78.7361C216.744 78.8019 215.778 78.8348 214.813 78.8348V78.769C202.831 78.769 199.144 74.3911 199.144 61.7841V34.3319H189.796V23.5682H199.046V6.87958L212.969 3.19295ZM454.773 22.4161C458.065 22.482 461.389 22.8111 464.648 23.4036L464.22 34.3977C463.408 34.1563 462.585 33.9588 461.751 33.8052C460.94 33.6296 460.106 33.476 459.25 33.3444C458.416 33.2346 457.582 33.1469 456.748 33.081C455.892 33.0152 455.047 32.9823 454.214 32.9823C448.782 32.9823 446.149 35.2535 446.149 38.5452C446.149 47.3338 468.368 43.4168 468.368 60.9612C468.368 71.6261 459.019 78.8348 444.207 78.8348L444.273 78.8019C443.329 78.78 442.375 78.747 441.409 78.7032C440.465 78.6593 439.522 78.5934 438.578 78.5057C437.635 78.4398 436.68 78.3411 435.715 78.2094C434.771 78.0997 433.838 77.968 432.917 77.8144L433.213 66.4253C434.178 66.6887 435.133 66.9081 436.077 67.0837C437.042 67.2812 438.019 67.4457 439.006 67.5774C439.972 67.731 440.948 67.8407 441.936 67.9066C442.901 67.9724 443.878 68.0163 444.865 68.0382C450.198 68.0382 453.687 65.767 453.687 62.2779C453.687 52.6992 431.798 58.1304 431.798 39.7301C431.798 30.2831 439.533 22.4161 454.773 22.4161ZM338.447 22.3832C354.214 22.3832 361.192 33.1798 361.192 46.5438C361.192 47.0705 361.192 47.5972 361.192 48.1238C361.17 48.6505 361.137 49.1771 361.093 49.7038C361.049 50.2305 361.005 50.7571 360.961 51.2838C360.896 51.8105 360.83 52.3371 360.764 52.8638H327.255C327.123 63.002 332.127 67.8737 342.133 67.8737C343.494 67.8737 344.843 67.8078 346.182 67.6762C347.543 67.5226 348.881 67.3031 350.198 67.0178C351.536 66.7545 352.853 66.4034 354.148 65.9645C355.421 65.5476 356.682 65.0648 357.933 64.5162L359.217 75.3128C357.681 75.8833 356.112 76.388 354.51 76.8269C352.93 77.2658 351.328 77.6389 349.704 77.9461C348.08 78.2314 346.445 78.4508 344.799 78.6044C343.154 78.7361 341.508 78.8019 339.862 78.8019C322.68 78.8019 313.101 70.1778 313.101 51.1192C313.101 34.5623 322.186 22.3832 338.447 22.3832ZM138.019 3.62086C139.335 3.62086 140.652 3.66475 141.969 3.75252C143.263 3.8403 144.569 3.96099 145.886 4.1146C147.18 4.29016 148.464 4.49863 149.737 4.74002C151.032 4.9814 152.315 5.27765 153.588 5.62876L152.074 18.4662C150.867 18.0931 149.649 17.7639 148.42 17.4787C147.213 17.2153 145.984 16.9849 144.734 16.7874C143.505 16.5899 142.265 16.4473 141.014 16.3595C139.763 16.2498 138.512 16.1949 137.262 16.1949C123.601 16.1949 116.788 26.5307 116.788 40.7835C116.788 56.715 123.437 65.8328 138.216 65.8328C139.423 65.789 140.641 65.7012 141.87 65.5695C143.077 65.4159 144.273 65.2074 145.458 64.9441C146.643 64.6808 147.817 64.3626 148.98 63.9895C150.143 63.6165 151.295 63.1886 152.436 62.7058L154.049 75.3128C152.535 75.8614 150.999 76.3441 149.441 76.7611C147.883 77.1561 146.314 77.4962 144.734 77.7815C143.132 78.0448 141.53 78.2533 139.928 78.4069C138.326 78.5386 136.724 78.6044 135.122 78.6044V78.6373C109.447 78.6373 101.251 61.5866 101.251 43.2851C101.251 19.9803 113.43 3.62086 138.019 3.62086ZM403.687 22.2845C415.899 22.2845 419.816 30.1186 419.816 39.5985V77.6169L405.991 77.6827V43.0547C405.991 37.3931 404.477 33.9698 399.375 33.9698C392.298 33.9698 386.735 42.0343 386.735 51.4813V77.6169H372.811V23.5682H385.978C385.978 24.3801 385.967 25.1811 385.945 25.9711C385.901 26.783 385.846 27.584 385.78 28.374C385.715 29.1859 385.638 29.9869 385.55 30.7769C385.462 31.5669 385.353 32.3678 385.221 33.1798H385.32C386.175 31.4681 387.262 29.9211 388.545 28.5386C389.829 27.1561 391.31 25.9711 392.923 25.0165C394.536 24.0619 396.281 23.3378 398.124 22.8769C399.934 22.4161 401.811 22.2186 403.687 22.2845ZM303.852 23.5682V33.476L282.522 64.977C284.332 64.9112 288.447 64.8783 292.067 64.8783H304.312V77.6169L265.372 77.6827V67.8078L287.097 35.7473C285.155 35.8789 281.238 35.9777 276.399 35.9777H265.998V23.5682H303.852ZM239.039 23.5682H252.963V77.6827H239.039V23.5682ZM166.129 23.5682H180.02V77.7157H166.129V23.5682ZM337.986 32.5873C332.258 32.5873 328.21 36.8335 327.485 43.3509H347.367C347.564 36.5373 343.878 32.5873 337.986 32.5873ZM32.3242 5.46463e-05C33.18 5.46463e-05 34.0358 0.164637 34.8258 0.460884C35.6158 0.790048 36.34 1.25088 36.9325 1.87629C37.525 2.46878 38.0187 3.19295 38.3479 3.98294C38.677 4.74002 38.8416 5.59584 38.8416 6.45167V19.4207C38.8416 20.0791 38.7758 20.7374 38.5783 21.3299C38.3808 21.9553 38.1175 22.5478 37.7554 23.1074C37.3933 23.634 36.9654 24.0949 36.4387 24.5228C35.945 24.9178 35.3854 25.2469 34.7929 25.4773C33.7176 25.8943 32.7082 26.41 31.7646 27.0244C30.821 27.6389 29.9542 28.3411 29.1642 29.1311C28.3523 29.943 27.6391 30.8208 27.0246 31.7644C26.4102 32.708 25.9055 33.7174 25.5105 34.7927C25.2472 35.3852 24.918 35.9448 24.523 36.4385C24.128 36.9652 23.6343 37.3931 23.1076 37.7552C22.5809 38.1172 21.9884 38.3806 21.363 38.5781C20.7376 38.7756 20.1122 38.8414 19.4539 38.8414H6.4519C5.59607 38.8414 4.77316 38.6768 3.98317 38.3477C3.19318 38.0185 2.46902 37.5247 1.87652 36.9322C1.28403 36.3068 0.823196 35.6156 0.494033 34.8256C0.197785 34.0027 0.0332031 33.1798 0.0661195 32.324C0.000286732 31.4681 0.131952 30.6123 0.4282 29.8223C0.724447 28.9994 1.21819 28.2752 1.81069 27.6827C2.4361 27.0902 3.16026 26.6294 3.95025 26.3332C4.74025 26.0369 5.59607 25.9053 6.4519 25.9711H16.8864L1.87652 10.9283C1.31694 10.3358 0.823196 9.61164 0.526949 8.85456C0.197785 8.06457 0.0332031 7.24166 0.0332031 6.38583C0.0332031 5.53001 0.197785 4.7071 0.526949 3.91711C0.823196 3.16003 1.31694 2.43587 1.87652 1.84337H1.97527C2.60068 1.25088 3.29193 0.790048 4.08192 0.493801C4.87191 0.164637 5.69482 5.46463e-05 6.51773 5.46463e-05C7.37356 5.46463e-05 8.19647 0.164637 8.98646 0.493801C9.77645 0.790048 10.4677 1.25088 11.0931 1.84337L26.103 16.8862L25.9713 6.45167C25.9055 5.59584 26.0372 4.74002 26.3334 3.91711C26.6296 3.12711 27.0905 2.40295 27.683 1.77754C28.2755 1.18504 28.9996 0.691299 29.8225 0.395051C30.6125 0.0988038 31.4684 -0.0328617 32.3242 5.46463e-05ZM78.6705 1.84337C79.263 2.46878 79.7238 3.16003 80.0529 3.95002C80.3492 4.74002 80.5138 5.56292 80.5138 6.41875C80.5138 7.24166 80.3492 8.09749 80.0529 8.85456C79.7238 9.64456 79.263 10.3687 78.6705 10.9612L63.6606 26.004H74.0622C74.918 25.9382 75.7738 26.0369 76.5967 26.3332C77.3867 26.6294 78.1109 27.0902 78.7363 27.6827C79.3288 28.2752 79.8225 28.9994 80.1188 29.8223C80.4479 30.6123 80.5796 31.4681 80.5138 32.324C80.5138 33.1798 80.3821 34.0356 80.0529 34.8256C79.7238 35.6156 79.263 36.3398 78.6705 36.9322C78.078 37.5577 77.3538 38.0185 76.5638 38.3477C75.7738 38.6768 74.918 38.8414 74.0622 38.8414H61.126C60.4677 38.8743 59.8094 38.7756 59.2169 38.5781C58.5915 38.4135 57.999 38.1172 57.4394 37.7552C56.9127 37.3931 56.4519 36.9652 56.024 36.4385C55.629 35.9448 55.2998 35.3852 55.0694 34.7927C54.6525 33.7174 54.1368 32.708 53.5223 31.7644C52.9079 30.8208 52.2057 29.943 51.4157 29.1311C50.6257 28.3411 49.7479 27.6389 48.7824 27.0244C47.8388 26.41 46.8403 25.8943 45.787 25.4773C45.1945 25.2469 44.6349 24.9178 44.1082 24.5228C43.6145 24.0949 43.1866 23.634 42.8245 23.1074C42.4624 22.5478 42.1662 21.9553 41.9687 21.3299C41.8041 20.7374 41.7054 20.0791 41.7054 19.4207V6.45167C41.7054 5.59584 41.8699 4.74002 42.1991 3.95002C42.5283 3.16003 43.022 2.46878 43.6145 1.84337C44.2399 1.25088 44.9641 0.790048 45.7541 0.460884C46.5441 0.164637 47.3999 5.46463e-05 48.2557 5.46463e-05C49.1115 -0.0328617 49.9674 0.0988038 50.7574 0.395051C51.5474 0.691299 52.2715 1.18504 52.864 1.77754C53.4894 2.40295 53.9502 3.12711 54.2136 3.95002C54.5098 4.74002 54.6415 5.59584 54.5757 6.45167V16.8862L69.5855 1.84337C70.178 1.25088 70.9022 0.790048 71.6593 0.493801C72.4493 0.164637 73.2722 5.46463e-05 74.128 5.46463e-05C74.9509 5.46463e-05 75.8067 0.164637 76.5638 0.493801C77.3538 0.790048 78.078 1.25088 78.6705 1.84337ZM489.862 22.8111L492.133 29.6248C492.331 30.1515 492.484 30.6781 492.594 31.2048L492.792 32.0277C492.835 31.8302 492.879 31.6327 492.923 31.4352C492.967 31.2597 493.022 31.0731 493.088 30.8756C493.132 30.6781 493.187 30.4916 493.252 30.3161C493.296 30.1186 493.351 29.932 493.417 29.7565L495.688 22.9099H497.959L499.737 34.5623L497.729 34.3977L496.84 28.2094C496.643 27.1232 496.577 26.3661 496.511 25.6748L496.478 25.3457C496.434 25.5432 496.39 25.7407 496.347 25.9382C496.303 26.1137 496.259 26.3003 496.215 26.4978C496.171 26.6952 496.116 26.8818 496.05 27.0573C496.006 27.2548 495.952 27.4414 495.886 27.6169L493.614 34.4635H491.639L489.566 28.1765C489.522 28.0009 489.467 27.8364 489.401 27.6827C489.335 27.5072 489.281 27.3316 489.237 27.1561C489.193 26.9805 489.149 26.805 489.105 26.6294C489.061 26.4539 489.017 26.2783 488.973 26.1028L488.842 25.4115C488.842 26.4319 488.644 27.3207 488.545 28.4398L487.788 34.4635H485.879L487.591 22.8111H489.862ZM485.583 22.7453V24.3253H482.357V34.3977H480.448V24.3253H477.255V22.7453H485.583ZM246.281 2.79795C247.334 2.79795 248.387 2.99545 249.375 3.42336C250.329 3.81836 251.218 4.41085 251.975 5.16793C252.732 5.89209 253.325 6.78083 253.72 7.76832C254.115 8.7229 254.345 9.77622 254.345 10.8295C254.345 11.8829 254.115 12.9033 253.72 13.8908C253.325 14.8453 252.765 15.7341 252.008 16.4912C251.284 17.2482 250.428 17.8407 249.474 18.2687C248.519 18.6966 247.499 18.927 246.445 18.9928H246.017C243.878 18.9599 241.804 18.0712 240.323 16.5241C238.842 14.977 238.019 12.9033 238.052 10.7637C238.085 8.59123 238.973 6.55042 240.52 5.06918C242.067 3.55503 244.141 2.76503 246.281 2.79795ZM173.371 2.79795C174.424 2.79795 175.478 2.99545 176.465 3.42336C177.42 3.81836 178.308 4.41085 179.065 5.16793C179.823 5.89209 180.415 6.78083 180.81 7.76832C181.205 8.7229 181.435 9.77622 181.435 10.8295C181.435 11.9158 181.205 12.9691 180.777 13.9895C180.349 14.977 179.724 15.8658 178.967 16.6228C178.177 17.3799 177.255 18.0053 176.268 18.4003C175.247 18.7953 174.194 18.9928 173.108 18.9928C170.935 18.9599 168.894 18.0712 167.413 16.5241C165.932 14.977 165.109 12.9033 165.142 10.7637C165.175 8.59123 166.063 6.55042 167.611 5.06918C169.158 3.55503 171.231 2.76503 173.371 2.79795Z" fill="#3A8359"/>
</g>
<defs>
<clipPath id="clip0_34_1454">
<rect width="500" height="80.6452" fill="white"/>
</clipPath>
</defs>
</svg>
