<svg width="500" height="180" viewBox="0 0 500 180" fill="none" xmlns="http://www.w3.org/2000/svg">
<g clip-path="url(#clip0_34_1452)">
<path d="M80.3048 84.7453V84.5924C80.3048 68.7962 92.1264 55.8535 108.942 55.8535C119.184 55.8535 125.375 59.4204 130.7 64.4905L124.432 71.7261C119.974 67.5988 115.235 64.8217 108.865 64.8217C98.2411 64.8217 90.5213 73.5605 90.5213 84.4395V84.5924C90.5213 95.4714 98.2156 104.338 108.865 104.338C115.693 104.338 120.05 101.561 124.814 97.1274L131.082 103.471C125.298 109.51 118.929 113.306 108.534 113.306C92.3557 113.306 80.2793 100.694 80.2793 84.7453H80.3048Z" fill="#003A5D"/>
<path d="M139.643 56.7959H150.037L166.955 83.0634L183.872 56.7959H194.267V112.337H184.509V72.4902L166.98 98.6813H166.649L149.273 72.643V112.337H139.668V56.7959H139.643Z" fill="#003A5D"/>
<path d="M204.738 56.7959H245.936V65.5093H214.496V79.9552H242.343V88.694H214.496V103.624H246.318V112.363H204.738V56.8214V56.7959Z" fill="#003A5D"/>
<path d="M266.521 84.7452V84.5924C266.521 69.051 278.445 55.8535 295.184 55.8535C304.865 55.8535 310.802 58.5542 316.534 63.3949L310.343 70.7835C306.063 67.1401 301.859 64.8217 294.776 64.8217C284.534 64.8217 276.764 73.7898 276.764 84.4395V84.5924C276.764 96.0064 284.305 104.44 295.643 104.44C300.891 104.44 305.655 102.758 309.069 100.236V89.8408H294.878V81.3567H318.522V104.694C313.044 109.382 305.197 113.331 295.337 113.331C277.961 113.331 266.521 100.949 266.521 84.7707V84.7452Z" fill="#003A5D"/>
<path d="M328.51 70.4527H338.115V79.9049C340.739 73.6374 345.58 69.3571 352.943 69.6628V79.8285H352.382C343.975 79.8285 338.089 85.3062 338.089 96.4145V112.364H328.484V70.4527H328.51Z" fill="#003A5D"/>
<path d="M356.865 91.6496V91.4968C356.865 79.5222 366.394 69.5859 379.26 69.5859C392.126 69.5859 401.553 79.3439 401.553 91.3439V91.4968C401.553 103.395 392.024 113.306 379.107 113.306C366.19 113.306 356.891 103.548 356.891 91.6496H356.865ZM391.948 91.6496V91.4968C391.948 84.1082 386.623 77.9936 379.082 77.9936C371.54 77.9936 366.47 84.0318 366.47 91.3184V91.4713C366.47 98.7834 371.795 104.949 379.26 104.949C386.725 104.949 391.948 98.8344 391.948 91.6242V91.6496Z" fill="#003A5D"/>
<path d="M409.248 97.1273V70.4521H418.853V94.2738C418.853 100.771 422.114 104.516 427.821 104.516C433.528 104.516 437.274 100.618 437.274 94.1209V70.4776H446.879V112.388H437.274V105.892C434.573 109.866 430.675 113.28 424.178 113.28C414.726 113.28 409.248 106.936 409.248 97.1783V97.1273Z" fill="#003A5D"/>
<path d="M456.662 70.4522H466.267V77.4331C469.35 73.0764 473.732 69.5859 480.484 69.5859C490.395 69.5859 500 77.4331 500 91.3439V91.4968C500 105.382 490.471 113.255 480.484 113.255C473.579 113.255 469.197 109.764 466.267 105.866V127.624H456.662V70.4777V70.4522ZM490.242 91.4713V91.3184C490.242 83.2165 484.764 77.9171 478.267 77.9171C471.77 77.9171 466.038 83.3184 466.038 91.3184V91.4713C466.038 99.5732 471.745 104.898 478.267 104.898C484.79 104.898 490.242 99.7261 490.242 91.4713Z" fill="#003A5D"/>
<path d="M49.9873 84.1593H33.5796V68.7962H47.3376C48.9682 73.4331 49.8854 78.6306 49.9873 84.1593ZM15.1083 68.7962H3.00637L0 71.8535V84.1847H12.535C12.637 78.6815 13.5541 73.5096 15.1083 68.8217V68.7962ZM12.535 86.5032H0V99.0637L2.92994 101.994H15.1338C13.5541 97.2548 12.637 92.0319 12.535 86.5032ZM33.5796 104.338V117.866H36.2038C40.5096 114.554 43.9746 109.892 46.344 104.338H33.5796ZM24.8917 53H18.5733L5.29937 66.4268H15.9491C18.0637 61.1019 21.0956 56.5159 24.8917 53ZM49.5797 101.994H61.7835L64.7898 98.9873V86.5032H52.2039C52.0765 92.0319 51.1847 97.2548 49.5797 101.994ZM59.414 66.4522L45.9873 53.0255H39.9236C43.6943 56.5414 46.7261 61.1274 48.8408 66.4522H59.4395H59.414ZM49.9873 86.5032H33.5796V101.994H47.2612C48.9427 97.3058 49.8599 92.0828 49.9873 86.5032ZM61.758 68.7962H49.6816C51.2357 73.4841 52.1274 78.6561 52.2293 84.1593H64.8153V71.828L61.758 68.7707V68.7962ZM17.4522 101.994H31.2357V86.5032H14.7516C14.8535 92.0828 15.7962 97.3058 17.4522 101.994ZM18.344 66.4522H31.2357V53.0255H28.3057C24.0764 56.3121 20.6879 60.9236 18.344 66.4522ZM36.5096 53H33.5796V66.4268H46.4204C44.1019 60.8981 40.7134 56.2866 36.4841 53H36.5096ZM5.27389 104.338L18.8026 117.866H25.0701C21.2229 114.325 18.1401 109.688 16 104.338H5.27389ZM28.4841 117.866H31.2357V104.338H18.3694C20.7389 109.917 24.1784 114.554 28.4841 117.866ZM39.6179 117.866H45.9109L59.4395 104.338H48.7134C46.5478 109.688 43.4905 114.325 39.6179 117.866ZM14.7516 84.1593H31.2357V68.7962H17.4522C15.8217 73.4331 14.879 78.6306 14.7771 84.1593H14.7516Z" fill="#2CAADC"/>
</g>
<defs>
<clipPath id="clip0_34_1452">
<rect width="500" height="179.919" fill="white"/>
</clipPath>
</defs>
</svg>
