<svg width="500" height="162" viewBox="0 0 500 162" fill="none" xmlns="http://www.w3.org/2000/svg">
<g clip-path="url(#clip0_34_1453)">
<path d="M96.2051 65.8153C121.054 47.5145 190.564 24.3445 271.994 57.4204L306.581 49.865C208.529 13.4312 125.419 40.127 96.2051 65.8153Z" fill="#002F6C"/>
<path d="M96.2051 65.8158C131.632 32.2362 238.918 0.335573 361.484 58.2604L396.91 50.537C257.555 -10.9136 136.165 24.6808 96.2051 65.8158Z" fill="#3E87CB"/>
<path d="M96.2051 65.8158C136.836 22.1623 255.708 -14.2715 395.903 35.93L430.154 28.5425C273.673 -25.3528 141.37 15.1106 96.2051 65.8158Z" fill="#9ADBE8"/>
<path d="M236.735 138.011V140.53H208.361V138.011C214.237 137.34 216.588 135.661 216.588 129.449V101.746C216.755 88.9853 214.573 85.7952 206.514 85.7952C200.805 85.7952 195.6 88.8174 192.914 93.8543V129.449C192.746 135.661 195.265 137.508 201.141 138.011V140.53H172.43V138.011C178.475 137.34 180.825 135.661 180.993 129.449V101.242C180.993 94.1901 180.49 85.7952 171.927 85.7952C166.05 85.9631 160.342 88.8174 156.816 93.5185V129.449C156.984 135.661 159.334 137.508 165.379 138.011V140.53H136.5V137.844C143.048 137.172 144.895 134.989 144.727 129.281V96.5407C144.727 89.1532 143.888 87.9779 136.5 87.9779V84.9557L156.648 77.7361V88.6495C163.364 81.262 171.087 77.904 177.299 77.904C183.847 78.0719 189.556 82.773 190.899 89.1532C195.768 83.4446 203.995 77.904 211.383 77.904C227.501 77.904 228.508 92.0074 228.508 103.928V129.449C228.508 135.661 230.691 137.508 236.735 138.011ZM287.273 117.696C283.243 124.748 276.023 132.135 267.125 132.135C252.686 132.135 246.305 115.849 245.97 103.089H287.273C286.937 88.9853 278.71 77.904 263.599 77.904C246.977 77.904 236.4 91.8395 236.4 111.148C236.4 127.434 246.473 141.873 261.92 141.705C275.856 141.873 285.929 130.456 290.127 118.367L287.273 117.696ZM260.745 83.2767C268.972 83.2767 272.665 90.4964 273.001 98.0518H246.473C247.817 89.9927 251.846 83.2767 260.745 83.2767ZM105.943 77.904C95.1974 77.5682 85.2914 83.6125 80.7581 93.3506L79.9186 65.9833H76.7286C74.7138 71.1881 72.3632 71.5239 67.6621 70.0128C65.4794 69.3412 62.7931 68.1659 59.603 67.3264C55.7413 66.3191 51.8797 65.8154 47.8501 65.8154C20.9865 65.8154 2.18191 85.7952 2.18191 112.995C1.84611 142.713 21.826 159.67 47.8501 159.838C60.7783 159.67 73.0348 153.626 80.926 143.384L78.4076 140.194C69.1732 149.429 62.1215 152.954 49.0254 153.122C27.5345 153.122 17.9643 132.975 17.9643 114.002C17.9643 89.6569 27.5345 70.8523 48.018 71.8597C70.5164 73.035 76.5607 89.6569 76.8965 110.644C76.8965 127.266 88.6493 141.873 105.775 141.705C124.412 141.873 135.829 125.587 135.829 107.79C135.829 89.9927 123.572 78.0719 105.943 77.904ZM122.565 115.849C121.557 127.434 115.849 138.011 105.943 137.172C93.6863 136.165 88.6493 121.054 90.3283 102.081C91.5036 90.3285 97.2121 81.7657 106.782 82.4373C121.389 83.7804 123.572 103.592 122.565 115.849ZM355.271 129.449L355.103 76.5608L335.291 84.6199C334.62 80.4225 330.758 77.904 326.393 77.904C320.013 77.904 314.472 84.6199 311.618 89.1532V77.7361L289.791 85.1236V87.9779C300.033 84.9557 299.697 90.1606 299.697 99.7307V129.449C299.697 134.989 297.85 137.34 289.791 138.011V140.53H321.524V138.011C314.976 137.508 311.618 136.5 311.618 129.449V97.0444C311.618 93.3506 315.815 86.9705 319.509 86.8026C325.385 86.4668 323.874 92.1753 329.751 92.3432C333.109 92.5111 335.291 89.489 339.153 89.3211C343.518 88.9853 343.35 94.0222 343.35 97.716V129.617C343.183 135.157 341.336 137.676 333.109 138.179V140.866H365.009V138.347C358.797 137.508 355.271 136.5 355.271 129.449ZM470.113 141.537L437.877 65.6475H434.687L413.196 117.024C409.502 126.091 403.626 131.463 393.384 131.463C379.952 131.799 373.068 117.864 373.068 105.439C373.068 94.358 378.609 82.2694 389.858 82.1015C396.742 82.1015 399.764 85.9631 399.764 91.1679C399.932 94.5259 402.786 97.2123 406.144 97.3802C409.67 97.3802 412.357 94.6938 412.524 91.1679C411.853 81.7657 399.932 77.5682 392.377 77.5682C372.397 77.5682 362.323 93.1827 362.323 110.812C362.323 127.77 372.901 141.537 387.34 141.369C395.231 141.369 402.618 137.844 407.32 131.463C405.305 136.836 402.954 142.041 400.1 147.078C397.917 150.772 395.231 153.794 390.53 154.13V157.823H417.226V154.633C414.036 154.633 408.327 154.13 408.159 149.093C407.991 144.056 413.532 133.814 415.211 128.609H449.63L454.331 139.858C458.696 150.1 460.879 153.962 448.287 154.633V157.823H482.874V154.633C474.982 154.801 472.632 146.91 470.113 141.537ZM418.065 122.565L432.672 86.2989L447.615 122.565H418.065Z" fill="#002F6C"/>
<path d="M489.139 147.279V144.612H490.491C490.599 144.612 490.717 144.643 490.845 144.706C490.973 144.766 491.081 144.86 491.17 144.987C491.262 145.113 491.308 145.272 491.308 145.465C491.308 145.66 491.261 145.826 491.167 145.964C491.073 146.099 490.958 146.201 490.823 146.271C490.691 146.341 490.565 146.376 490.447 146.376H489.471V145.942H490.267C490.346 145.942 490.432 145.902 490.523 145.823C490.617 145.743 490.664 145.624 490.664 145.465C490.664 145.301 490.617 145.19 490.523 145.132C490.432 145.074 490.351 145.045 490.281 145.045H489.724V147.279H489.139ZM490.751 146.021L491.416 147.279H490.773L490.122 146.021H490.751ZM490.151 148.87C489.751 148.87 489.376 148.795 489.027 148.646C488.677 148.496 488.37 148.289 488.105 148.024C487.84 147.759 487.632 147.452 487.483 147.102C487.334 146.753 487.259 146.378 487.259 145.978C487.259 145.578 487.334 145.203 487.483 144.854C487.632 144.504 487.84 144.197 488.105 143.932C488.37 143.667 488.677 143.46 489.027 143.31C489.376 143.161 489.751 143.086 490.151 143.086C490.551 143.086 490.926 143.161 491.275 143.31C491.625 143.46 491.932 143.667 492.197 143.932C492.462 144.197 492.669 144.504 492.819 144.854C492.968 145.203 493.043 145.578 493.043 145.978C493.043 146.378 492.968 146.753 492.819 147.102C492.669 147.452 492.462 147.759 492.197 148.024C491.932 148.289 491.625 148.496 491.275 148.646C490.926 148.795 490.551 148.87 490.151 148.87ZM490.151 148.176C490.556 148.176 490.925 148.077 491.257 147.88C491.59 147.682 491.855 147.417 492.052 147.084C492.25 146.752 492.349 146.383 492.349 145.978C492.349 145.573 492.25 145.204 492.052 144.872C491.855 144.539 491.59 144.274 491.257 144.076C490.925 143.879 490.556 143.78 490.151 143.78C489.746 143.78 489.377 143.879 489.045 144.076C488.712 144.274 488.447 144.539 488.249 144.872C488.052 145.204 487.953 145.573 487.953 145.978C487.953 146.383 488.052 146.752 488.249 147.084C488.447 147.417 488.712 147.682 489.045 147.88C489.377 148.077 489.746 148.176 490.151 148.176Z" fill="black"/>
</g>
<defs>
<clipPath id="clip0_34_1453">
<rect width="500" height="161.518" fill="white"/>
</clipPath>
</defs>
</svg>
