<svg width="500" height="97" viewBox="0 0 500 97" fill="none" xmlns="http://www.w3.org/2000/svg">
<g clip-path="url(#clip0_34_1442)">
<path fill-rule="evenodd" clip-rule="evenodd" d="M18.8213 87.3256C18.8213 92.4903 14.7338 96.863 9.53739 96.863C4.37262 96.5778 0 92.4903 0 87.3256V10.6462C0 5.44977 4.08745 1.07715 9.2839 1.07715H53.4537C58.6502 1.07715 63.0228 5.19629 63.0228 10.3611C63.0228 15.5575 58.6502 19.9301 53.4537 19.9301H18.8213V87.3256ZM52.6299 37.9276C57.2877 37.9276 60.8365 41.4764 60.8365 46.1025C60.8365 50.7603 57.2877 54.3091 52.6299 54.3091H31.654C27.2814 54.3091 23.4474 50.7603 23.4474 46.1025C23.4474 41.4764 26.9962 37.9276 31.9075 37.9276H52.6299Z" fill="#00AEEF"/>
<path fill-rule="evenodd" clip-rule="evenodd" d="M254.784 20.1838V87.3257C254.784 92.4905 250.665 96.8631 245.5 96.8631C240.304 96.8631 235.963 92.7757 235.963 87.3257V20.1838H190.114C174.302 19.9303 161.47 32.4778 161.47 48.289C161.47 64.1318 174.302 76.3942 190.114 76.9328H207.572C212.769 76.9328 216.856 81.0203 216.856 86.2167C216.856 91.4132 212.769 95.7541 207.572 95.7541H190.114C164.48 95.2155 143.472 74.2079 143.472 48.289C143.472 22.3701 164.195 1.64766 189.86 1.36248H274.144C279.594 1.36248 283.396 5.44994 283.396 10.8999C283.396 16.0963 279.309 20.4689 274.144 20.4689L254.784 20.1838ZM90.8424 4.34094C90.8424 4.34094 93.0287 0 99.0173 0C105.291 0 107.192 4.34094 107.192 4.34094L116.223 22.6236L145.12 82.9214C147.306 87.5792 145.405 93.3143 140.747 95.4689C136.121 97.6553 130.386 95.7541 128.2 91.128L99.0173 30.8302L69.8348 91.128C67.6485 95.7541 61.9134 97.6553 57.2872 95.4689C52.6611 93.3143 50.7283 87.5792 52.9146 82.9214L82.0971 22.6236L90.8424 4.34094ZM105.038 63.5615C109.664 63.5615 113.498 67.1103 113.498 71.7364C113.498 76.3942 109.664 79.943 105.038 79.943H93.599C88.9412 79.943 85.139 76.3942 85.139 71.7364C85.139 67.1103 88.9412 63.2763 93.599 63.5615H105.038ZM351.33 71.7364C351.33 84.8542 340.684 95.4689 327.598 95.4689H294.613C289.417 95.4689 285.044 91.128 285.044 85.9316C285.044 80.7351 289.417 76.9328 294.613 76.3942H325.982C328.96 76.6477 331.432 74.4613 331.432 71.4829C331.432 69.5501 330.608 67.9341 329.245 67.1103L292.965 42.5539C290.779 40.6527 285.044 37.1039 285.044 25.9189C285.044 11.9772 296.229 0.792142 310.139 0.792142H337.42C342.617 0.792142 346.958 4.91128 346.958 10.3612C346.958 15.526 342.617 19.8986 337.42 19.6451H309.6C306.59 19.6451 304.15 22.3701 304.15 25.3485C304.15 27.2814 304.689 27.82 305.798 29.1825L342.617 54.8162C348.067 58.6502 351.33 63.8466 351.33 71.7364ZM360.076 10.6147C360.076 5.44994 364.163 1.07731 369.328 1.36248H490.177C495.627 1.36248 499.461 5.44994 499.461 10.8999C499.461 16.0963 495.373 20.4373 490.177 20.4373H470.532V87.294C470.532 92.4905 466.444 96.8314 461.248 96.8314C456.083 96.8314 451.711 92.744 451.711 87.294V20.1838H378.897V76.6477H413.529C418.726 76.6477 423.067 81.0203 423.067 86.2167C423.067 91.3815 418.726 95.7541 413.529 95.7541H369.328C364.163 95.7541 359.79 91.3815 359.79 86.2167L360.076 10.6147ZM412.991 37.6109C417.617 37.6109 421.166 41.1597 421.166 45.7858C421.166 50.4436 417.617 53.9924 412.991 53.9924H391.983C387.357 53.9924 383.808 50.4436 383.808 45.7858C383.808 41.1597 387.357 37.6109 392.268 37.6109H412.991ZM490.462 96.8314C485.329 96.8314 481.178 92.5539 481.178 87.2624C481.178 82.0025 485.329 77.725 490.462 77.725C495.595 77.725 499.714 82.0025 499.714 87.2624C499.714 92.5539 495.595 96.8314 490.462 96.8314ZM498.637 87.1356C498.637 82.5412 494.993 78.8023 490.462 78.8023C485.931 78.8023 482.256 82.5412 482.256 87.1356C482.256 91.73 485.931 95.4689 490.462 95.4689C494.993 95.4689 498.637 91.73 498.637 87.1356ZM492.078 88.0862L494.011 92.1736H492.649L491.001 88.3714H488.529V92.1736H487.452V82.0976H491.001C493.187 82.0976 494.264 83.7136 494.264 85.3612C494.011 86.4702 493.441 87.8327 492.078 88.0862ZM490.716 83.4601H488.529V87.2624H490.716C492.363 87.2624 492.902 86.185 492.902 85.3612C492.902 84.2839 492.363 83.4601 490.716 83.4601Z" fill="#00AEEF"/>
</g>
<defs>
<clipPath id="clip0_34_1442">
<rect width="500" height="96.9582" fill="white"/>
</clipPath>
</defs>
</svg>
