<svg width="500" height="209" viewBox="0 0 500 209" fill="none" xmlns="http://www.w3.org/2000/svg">
<path d="M269.037 16.0621C269.037 7.19565 261.847 0 252.971 0C244.096 0 236.906 7.19565 236.906 16.0621C236.906 24.9379 244.096 32.1211 252.971 32.1211C261.847 32.1211 269.037 24.9379 269.037 16.0621Z" fill="#4BCD3E"/>
<path d="M201.773 32.1211C192.9 32.1211 185.711 24.9348 185.711 16.0621C185.711 7.19565 192.9 0 201.773 0C210.649 0 217.838 7.19565 217.838 16.0621C217.838 24.9348 210.649 32.1211 201.773 32.1211Z" fill="#4BCD3E"/>
<path d="M150.571 32.1211C141.689 32.1211 134.506 24.9348 134.506 16.0621C134.506 7.19565 141.689 0 150.571 0C159.441 0 166.633 7.19565 166.633 16.0621C166.633 24.9348 159.441 32.1211 150.571 32.1211Z" fill="#4BCD3E"/>
<path d="M99.3719 32.1211C90.5023 32.1211 83.3066 24.9348 83.3066 16.0621C83.3066 7.19565 90.5023 0 99.3719 0C108.248 0 115.434 7.19565 115.434 16.0621C115.434 24.9348 108.248 32.1211 99.3719 32.1211Z" fill="#4BCD3E"/>
<path d="M48.1839 32.1211C39.305 32.1211 32.1094 24.9348 32.1094 16.0621C32.1094 7.19565 39.305 0 48.1839 0C57.0504 0 64.2398 7.19565 64.2398 16.0621C64.2398 24.9348 57.0504 32.1211 48.1839 32.1211Z" fill="#4BCD3E"/>
<path d="M493.904 76.2892C493.904 70.1867 488.963 65.2395 482.86 65.2395H355.357C332.109 65.2395 313.211 83.1526 313.211 106.401C313.211 129.649 332.109 147.556 355.357 147.556H457.764C467.73 147.556 475.829 156.665 475.829 166.618C475.829 176.584 467.73 185.69 457.764 185.69H330.27C324.177 185.69 319.227 190.64 319.227 196.727C319.227 202.833 324.177 207.767 330.27 207.767H457.764C481.012 207.767 499.929 189.864 499.929 166.618C499.929 143.37 481.012 125.472 457.764 125.472H355.357C345.41 125.472 337.301 116.354 337.301 106.401C337.301 96.4414 345.41 87.3389 355.357 87.3389H482.86C488.963 87.3389 493.904 82.3917 493.904 76.2892ZM181.699 65.2488C181.351 65.2488 181.022 65.3203 180.693 65.3451V65.2488H72.2671C29.1894 65.2488 0 93.4383 0 136.507V196.736C0 203.379 5.38199 208.771 12.0342 208.771C18.6957 208.771 24.0839 203.379 24.0839 196.736V136.507C24.0839 106.646 42.1491 87.3296 72.2671 87.3296H180.693V87.2302C181.022 87.2613 181.351 87.3296 181.699 87.3296C187.792 87.3296 192.742 82.3793 192.742 76.2892C192.742 70.1961 187.792 65.2488 181.699 65.2488ZM36.1335 136.51C36.1335 142.609 41.0807 147.559 47.177 147.559H157.599C163.711 147.559 168.643 142.609 168.643 136.51C168.643 130.41 163.711 125.463 157.599 125.463H47.177C41.0807 125.463 36.1335 130.41 36.1335 136.51ZM240.925 76.2892V196.727C240.925 203.379 246.32 208.783 252.972 208.783C259.624 208.783 265.025 203.379 265.025 196.727V76.2892C265.025 69.637 259.624 64.252 252.972 64.252C246.32 64.252 240.925 69.637 240.925 76.2892Z" fill="#4BCD3E"/>
</svg>
