<svg width="500" height="252" viewBox="0 0 500 252" fill="none" xmlns="http://www.w3.org/2000/svg">
<g clip-path="url(#clip0_34_1447)">
<path d="M500 217.006H468.053V248.953H500V217.006Z" fill="#FF6600"/>
<path d="M403.319 74.8467L422.362 217.495L441.336 74.8467H470.912L443.219 248.884H401.087L373.674 74.8467H403.319Z" fill="#FF6600"/>
<path d="M16.3923 74.8465H0V98.005H16.3923V248.954H45.2706V97.9353H65.5692V74.7768H45.2706V39.481C45.2706 34.3192 46.317 30.3432 48.8281 27.6925C51.3393 24.9721 55.1758 23.7165 60.3376 23.7165H65.5692V0H55.106C42.2712 0 29.9247 2.72042 24.0653 8.30078C18.2059 13.8811 16.4621 22.5307 16.4621 34.8772V74.7768L16.3923 74.8465Z" fill="#FF6600"/>
<path d="M103.516 74.8467H74.5684V248.884H103.516V74.8467Z" fill="#FF6600"/>
<path d="M237.164 171.735H297.502V118.094C297.432 86.0068 282.016 72.8232 252.789 72.8232C223.562 72.8232 208.146 85.9371 208.146 118.303V206.473C208.216 235.909 226.073 251.116 252.789 251.116C279.505 251.116 297.432 238.56 297.572 206.473V192.522H269.6C269.6 192.522 269.6 204.938 269.6 209.054C269.6 220.842 265.206 229.004 253.347 229.004C241.489 229.004 237.164 220.772 237.164 209.054V171.735ZM237.164 112.304C237.164 102.469 239.745 92.2847 253.278 92.2847C266.81 92.2847 269.53 102.329 269.53 112.235V148.228H237.164V112.235V112.304Z" fill="#FF6600"/>
<path d="M168.597 149.972C146.763 130.79 144.95 128.139 144.95 113.979C144.95 101.842 145.996 94.5174 156.878 94.5174C167.759 94.5174 169.155 101.772 169.155 114.118V130.162H197.056V103.934C196.987 83.3567 181.152 72.8936 156.25 72.8936C131.348 72.8936 115.792 81.0548 115.653 113.979C115.653 119.559 115.653 119.559 115.653 117.397C115.653 127.721 115.723 144.113 141.323 166.086L148.647 172.363C167.48 188.267 169.573 190.151 169.503 209.054C169.503 220.703 168.806 229.562 156.529 229.562C144.252 229.562 143.555 220.634 143.555 215.193V192.941H114.258V215.89C114.258 244.141 132.673 251.186 156.529 251.186C180.385 251.186 198.8 244.141 198.8 207.729V204.729C198.8 179.339 194.127 172.503 168.597 150.042V149.972Z" fill="#FF6600"/>
<path d="M336.217 92.773V74.8461H309.85V248.884H338.309V127.581C338.309 118.233 341.379 112.025 346.68 108.398C351.702 104.91 357.91 103.724 365.793 103.655V72.8232C350.726 73.1023 344.169 76.1017 336.496 92.0755L336.217 92.7033V92.773Z" fill="#FF6600"/>
</g>
<defs>
<clipPath id="clip0_34_1447">
<rect width="500" height="251.116" fill="white"/>
</clipPath>
</defs>
</svg>
