<svg width="500" height="54" viewBox="0 0 500 54" fill="none" xmlns="http://www.w3.org/2000/svg">
<g clip-path="url(#clip0_34_1446)">
<path d="M49.3886 41.0932H49.7745V50.643H49.3886C22.2825 50.643 0.224609 28.5209 0.224609 1.28613H9.77445C9.77445 23.2475 27.5558 41.0932 49.3886 41.0932Z" fill="#EF3E42"/>
<path d="M19.2285 1.28613H28.6176C28.6176 12.8295 37.9423 22.2508 49.4536 22.2508H49.8394V31.6077H49.4536C32.7333 31.6077 19.2285 18.0385 19.2285 1.28613ZM49.7751 1.28613V12.8295H49.3893C43.0549 12.8295 37.878 7.65269 37.878 1.28613H49.7751Z" fill="#EF3E42"/>
<path fill-rule="evenodd" clip-rule="evenodd" d="M104.051 29.678H85.1764V51.9609H78.4883V1.73586H106.881V7.16995H85.1764V24.469H104.051V29.678ZM133.729 46.5269H159.774V51.9609H127.009V1.73586H133.729V46.5269ZM184.051 46.5269H207.556V51.9609H177.331V1.76802H205.723V7.2021H184.051V23.2793H202.893V28.1667H184.051V46.5269ZM233.89 46.5269H257.395V51.9609H227.17V1.76802H255.562V7.2021H233.89V23.2793H252.733V28.1667H233.89V46.5269ZM313.665 6.88056H296.881V51.9609H290.45V6.88056H273.44V1.73586H313.665V6.88056ZM361.157 41.0928H367.106C367.106 43.8581 366.045 46.4626 363.955 48.842C361.221 51.9609 357.009 53.5044 351.286 53.5044C344.951 53.5044 339.774 51.2857 335.787 46.7841C331.672 42.2503 329.614 35.6587 329.614 26.8806C329.614 17.9095 331.672 11.2535 335.787 6.97702C339.774 2.44326 344.887 0.224609 351.286 0.224609C356.795 0.224609 360.846 1.53222 363.44 4.14744C365.884 7.04133 367.009 9.96737 367.009 12.7005H361.061C361.061 10.2568 360.289 8.48828 358.778 7.26641C357.009 6.04455 354.662 5.43361 351.511 5.43361C347.009 5.43361 343.504 6.88056 340.9 9.8066C337.781 13.9224 336.27 19.6137 336.27 26.8806C336.27 34.3082 337.781 39.9674 340.9 43.9224C343.504 47.0735 346.945 48.6169 351.221 48.6169C354.34 48.6169 356.784 47.9095 358.713 46.5269C360.385 45.1764 361.157 43.3114 361.157 41.0928ZM405.787 53.5044C399.614 53.5044 394.501 51.2214 390.61 46.5269C386.655 42.0253 384.662 35.5301 384.662 26.8806C384.662 17.9095 386.72 11.2535 390.836 6.97702C394.823 2.44326 399.774 0.224609 405.787 0.224609C411.993 0.224609 417.106 2.44326 420.996 6.97702C424.951 11.9609 426.945 18.6169 426.945 26.8806C426.945 35.5301 424.951 42.0253 420.996 46.5269C417.266 51.2214 412.218 53.5044 405.787 53.5044ZM405.787 48.3918C410.064 48.3918 413.344 46.8484 415.562 43.6973C418.713 39.7423 420.225 34.1474 420.225 26.8806C420.225 19.4529 418.713 13.8581 415.562 10.0317C413.344 6.88056 410.064 5.3693 405.787 5.3693C401.672 5.3693 398.392 6.88056 396.045 10.0317C392.893 13.8581 391.382 19.4529 391.382 26.8806C391.382 34.1474 392.893 39.7423 396.045 43.6973C398.392 46.7841 401.672 48.3918 405.787 48.3918ZM459.774 30.4818H453.279V51.9609H446.559V1.76802H462.057C466.72 1.76802 470.45 2.98988 473.44 5.3693C475.884 7.81303 477.009 10.9642 477.009 14.9191C477.009 18.3597 476.173 21.2214 474.437 23.5044C472.529 26.0981 469.774 28.0917 466.173 29.4851C467.717 30.3211 468.778 30.9963 469.324 31.5429C469.839 31.9288 470.9 33.7616 472.668 37.2021L480.675 51.9609H473.215L466.173 38.7455C464.651 35.5301 462.518 32.7755 459.774 30.4818ZM460 6.88056H453.279V25.2728H459.453C462.893 25.2728 465.562 24.3404 467.491 22.4433C469.228 20.6748 470.064 18.3597 470.064 15.4658C470.064 12.7005 469.324 10.5783 467.781 8.97059C465.884 7.65226 463.279 6.88056 460 6.88056ZM499.774 8.42397C499.774 9.35644 499.614 10.2568 499.228 11.0285C498.928 11.8002 498.478 12.4861 497.877 13.0863C497.256 13.708 496.559 14.1689 495.787 14.469C495.037 14.7691 494.201 14.9191 493.279 14.9191C492.358 14.9191 491.522 14.7691 490.771 14.469C490 14.1689 489.314 13.708 488.713 13.0863C488.102 12.4754 487.62 11.8002 487.266 11.0285C486.881 10.2568 486.72 9.35644 486.72 8.42397C486.72 7.49149 486.881 6.59117 487.266 5.81946C487.62 5.04776 488.102 4.37252 488.713 3.76159C489.228 3.15065 490 2.66834 490.771 2.37895C491.522 2.07884 492.358 1.92879 493.279 1.92879C494.201 1.92879 495.037 2.07884 495.787 2.37895C496.559 2.67906 497.256 3.13994 497.877 3.76159C498.392 4.3618 498.842 5.04776 499.228 5.81946C499.549 6.59117 499.71 7.49149 499.774 8.42397ZM498.553 8.42397C498.553 7.58795 498.488 6.88056 498.167 6.20532C497.877 5.53008 497.491 4.91914 497.009 4.43683C496.559 3.98667 496.045 3.60082 495.337 3.31143C494.662 2.98988 493.955 2.82911 493.215 2.82911C492.443 2.82911 491.768 2.98988 491.061 3.31143C490.45 3.53651 489.839 3.98667 489.389 4.43683C488.842 4.98345 488.553 5.53008 488.231 6.20532C488.006 6.88056 487.877 7.65226 487.877 8.42397C487.877 9.19567 487.942 9.96737 488.231 10.6426C488.553 11.3179 488.938 11.8645 489.389 12.4111C489.839 12.8613 490.385 13.2471 491.061 13.5365C491.768 13.8581 492.443 14.0188 493.215 14.0188C493.955 14.0188 494.726 13.8581 495.337 13.5365C495.948 13.3114 496.559 12.8613 497.009 12.4111C497.491 11.9609 497.877 11.3179 498.167 10.6426C498.392 9.96737 498.553 9.19567 498.553 8.42397Z" fill="#231F20"/>
<path fill-rule="evenodd" clip-rule="evenodd" d="M494.277 8.87411L496.496 12.2182H495.177L493.12 8.93842H491.898V12.2182H490.676V4.56543H493.666C494.566 4.56543 495.177 4.7262 495.66 5.11205C496.11 5.41216 496.335 5.94807 496.335 6.71977C496.335 7.39501 496.11 7.94164 495.724 8.26318C495.338 8.61688 494.824 8.77765 494.277 8.87411ZM493.891 7.94164C494.116 7.94164 494.341 7.87733 494.502 7.78086C494.727 7.71656 494.888 7.55578 494.952 7.39501C495.049 7.26639 495.113 7.04131 495.113 6.71977C495.113 6.49469 495.049 6.26961 494.952 6.10884C494.888 5.94807 494.727 5.78729 494.566 5.72299C494.438 5.65868 494.277 5.56221 494.052 5.56221C493.827 5.49791 493.666 5.49791 493.441 5.49791H491.833V7.94164H493.891Z" fill="#231F20"/>
</g>
<defs>
<clipPath id="clip0_34_1446">
<rect width="500" height="53.6978" fill="white"/>
</clipPath>
</defs>
</svg>
