<svg width="500" height="87" viewBox="0 0 500 87" fill="none" xmlns="http://www.w3.org/2000/svg">
<g clip-path="url(#clip0_34_1441)">
<path d="M142.38 75.6795C122.695 75.6795 108.496 62.6091 108.496 43.1887C108.496 23.4156 123.136 10.7861 141.948 10.7861C151.614 10.7861 160.592 14.014 165.734 18.9706L156.324 29.6862C153.449 26.3789 148.483 23.9359 142.469 23.9359C132.018 23.9359 124.353 32.1203 124.353 43.1887C124.353 54.5129 131.065 62.6179 143.174 62.6179C146.658 62.6179 149.886 62.0976 152.496 60.9599V49.7239H140.74V37.703H166.175V70.3702C160.152 73.5011 151.879 75.6795 142.38 75.6795Z" fill="#00558C"/>
<path d="M186.063 10.7773H171.6V74.1097H186.063V10.7773Z" fill="#00558C"/>
<path d="M214.321 29.333C201.251 29.333 190.279 38.0466 190.279 52.2459C190.279 66.4452 201.259 75.5027 214.321 75.5027C227.48 75.5027 238.451 66.4452 238.451 52.2459C238.451 38.0466 227.48 29.333 214.321 29.333ZM214.409 63.4818C207.698 63.4818 204.126 57.8198 204.126 52.2459C204.126 46.672 207.609 41.1863 214.321 41.1863C221.033 41.1863 224.693 46.672 224.693 52.2459C224.693 57.8198 221.121 63.4818 214.409 63.4818Z" fill="#00558C"/>
<path d="M270.014 29.5098C263.656 29.5098 259.211 32.4731 256.776 35.3483H256.6V10.7773H242.312V74.1097H255.462V68.4476H255.639C258.426 72.8044 264.088 75.3268 269.838 75.3268C282.908 75.3268 290.484 64.3466 290.484 52.2375C290.484 40.1284 282.644 29.5098 270.014 29.5098ZM266.442 63.4823C259.995 63.4823 255.991 57.9966 255.991 52.3345C255.991 46.8488 259.995 41.1867 266.442 41.1867C273.242 41.1867 276.726 46.6724 276.726 52.2463C276.717 57.9084 273.233 63.4823 266.442 63.4823Z" fill="#00558C"/>
<path d="M338.658 52.9426C338.658 38.1348 329.688 29.333 316.882 29.333C303.724 29.333 293.449 38.3906 293.449 52.5898C293.449 67.2301 304.253 75.5027 317.315 75.5027C326.116 75.5027 332.907 72.1954 337 66.2688L327.069 59.9982C325.155 62.6087 322.015 64.5314 317.482 64.5314C312.34 64.5314 307.551 61.1359 307.119 56.3469H338.569C338.658 55.2974 338.658 54.0803 338.658 52.9426ZM307.119 47.4569C307.463 43.0119 311.476 39.1843 316.962 39.1843C322.624 39.1843 325.499 42.9326 325.499 47.4569H307.119Z" fill="#00558C"/>
<path d="M361.393 74.1185V10.7773H376.377V61.1363H400.242V74.1185H361.393Z" fill="#00558C"/>
<path d="M411.575 24.721C406.954 24.721 403.391 21.1491 403.391 16.8805C403.391 12.7001 406.962 9.04004 411.575 9.04004C416.108 9.04004 419.759 12.5237 419.759 16.8805C419.768 21.3255 416.108 24.721 411.575 24.721Z" fill="#00558C"/>
<path d="M418.719 30.7266H404.432V74.1093H418.719V30.7266Z" fill="#00558C"/>
<path d="M455.222 18.794C454.182 18.45 452.7 18.1854 451.306 18.1854C446.077 18.1854 444.948 22.3658 444.948 26.3698V30.7266H454.614V41.4423H444.939V74.1094H430.651V41.4423H422.723V30.7266H430.651V26.5462C430.651 15.9188 434.832 6.59668 449.296 6.59668C451.739 6.59668 454.261 6.86126 456.175 7.4698L455.222 18.794Z" fill="#00558C"/>
<path d="M499.999 52.9426C499.999 38.1348 491.03 29.333 478.224 29.333C465.066 29.333 454.791 38.3906 454.791 52.5898C454.791 67.2301 465.595 75.5027 478.656 75.5027C487.458 75.5027 494.249 72.1954 498.341 66.2688L488.411 59.9982C486.497 62.6087 483.357 64.5314 478.824 64.5314C473.682 64.5314 468.893 61.1359 468.461 56.3469H499.911C499.999 55.2974 499.999 54.0803 499.999 52.9426ZM468.461 47.4569C468.814 43.0119 472.818 39.1843 478.304 39.1843C483.966 39.1843 486.841 42.9326 486.841 47.4569H468.461Z" fill="#00558C"/>
<path d="M86.2725 35.8774C84.7909 27.4725 80.8927 19.8966 75.3276 13.8994C75.3188 14.0053 75.3012 14.1199 75.2924 14.2257C74.9131 18.6178 75.8127 22.8247 77.9823 26.7317C80.0372 30.4447 83.027 33.5227 86.2725 35.8774ZM64.9472 72.0283C68.3426 68.5799 70.768 65.4049 72.1526 62.5827C73.5196 59.7957 73.8283 57.4851 73.0963 55.5448C72.7435 54.6099 71.8528 53.4722 70.6004 52.361C69.1628 51.091 67.2755 49.8474 65.1235 48.7715C62.9099 47.6602 60.4581 46.743 58.0327 46.1168C55.4927 45.4553 53.0674 45.129 50.8184 45.129C48.4636 45.129 46.4352 45.4994 44.8124 46.2226C44.0804 46.549 43.3131 46.7077 42.5105 46.7077C41.0994 46.7077 39.75 46.1874 38.7093 45.2349L33.4882 40.49C32.7562 39.8286 32.2447 38.9731 32.0066 38.0206C31.7861 37.1386 31.8125 36.2126 32.0771 35.3395C32.3417 34.4663 32.8444 33.6902 33.5147 33.0817C34.2467 32.429 35.1463 32.0057 36.1253 31.8646C36.3016 31.8381 36.4869 31.8117 36.6721 31.7852C39.3267 31.4148 42.0696 31.0268 44.8036 28.9101C48.2784 26.2202 51.1359 21.1137 53.2967 13.7319C54.355 10.0982 55.0253 5.70617 55.5015 1.69333C51.6739 0.590902 47.6434 0 43.463 0C31.6362 0 20.9206 4.72722 13.0801 12.3913C14.2707 12.894 15.3379 13.6084 16.2463 14.5344C17.4633 15.778 18.7422 17.9916 17.8778 21.4753C17.4722 23.1245 16.6872 24.7297 15.8494 26.423C14.0679 30.0566 12.9831 32.5878 14.0855 34.6339C14.7646 35.8333 16.8636 38.5321 23.3371 43.2593C27.5263 46.3197 31.7861 48.939 33.9469 50.2355C35.0405 50.8881 35.8871 51.8583 36.381 53.0401C36.8749 54.2219 36.9807 55.5007 36.6721 56.753C36.2134 58.6139 35.8607 60.5542 36.3105 62.08C36.4868 62.6709 37.016 64.4877 41.0553 65.9164C42.5105 66.4368 43.6659 67.548 44.2303 68.9856C44.7948 70.4143 44.7154 72.0283 44.001 73.3953C42.731 75.8471 40.0852 80.9183 37.0778 86.4833C39.1591 86.792 41.2846 86.9508 43.4542 86.9508C44.6007 86.9508 45.7384 86.9067 46.8585 86.8185C52.0091 83.1408 59.2763 77.7786 64.9472 72.0283Z" fill="#319B42"/>
<path d="M39.6874 69.7796C30.6122 66.5517 31.6 60.2105 32.6936 55.7655C32.8877 54.9894 32.5437 54.1692 31.8558 53.7635C27.7371 51.3029 13.9523 42.7745 10.5039 36.6274C6.42936 29.1926 16.8363 20.9993 13.3173 17.4186C12.4178 16.5014 11.2801 15.9634 9.99241 15.7606C3.74826 23.2747 0 32.932 0 43.4624C0 63.8088 13.9876 80.8921 32.87 85.6281C36.1597 79.5692 39.0965 73.9336 40.3665 71.4906C40.7017 70.8379 40.3842 70.0266 39.6874 69.7796ZM86.8714 41.187C81.5268 38.0385 77.0906 33.6288 74.3831 28.734C71.8166 24.095 70.7407 19.0943 71.1993 13.8732C71.2963 12.7355 71.4727 11.589 71.7196 10.4337C68.1036 7.33803 63.9762 4.82449 59.4782 3.04297C58.9844 6.98525 58.3053 11.2274 57.2381 14.8786C51.5319 34.396 42.4038 35.1016 36.7065 35.9218C35.9745 36.0276 35.6922 36.936 36.239 37.4299L41.4601 42.1748C41.7512 42.4394 42.1216 42.5805 42.5008 42.5805C42.7125 42.5805 42.9242 42.5364 43.127 42.4482C45.376 41.4428 48.013 41.0018 50.8087 41.0018C61.5067 41.0018 74.4713 47.5282 76.9407 54.0987C80.6978 64.0911 67.354 76.4647 56.1974 85.0372C73.995 79.5956 86.9331 63.0416 86.9331 43.4624C86.9331 42.7039 86.9155 41.9367 86.8714 41.187Z" fill="#00558C"/>
<path d="M86.2718 35.8775C86.5805 37.6149 86.7833 39.3788 86.8715 41.178C81.527 38.0294 77.0908 33.6197 74.3832 28.7249C71.8168 24.0859 70.7408 19.0853 71.1994 13.8642C71.2964 12.7265 71.4728 11.58 71.7198 10.4246C72.9898 11.5094 74.198 12.6648 75.3269 13.8907C75.3181 13.9965 75.3004 14.1111 75.2916 14.217C74.9124 18.6091 75.812 22.8159 77.9816 26.7229C80.0365 30.4447 83.0263 33.5227 86.2718 35.8775ZM44.0179 73.3865C44.7235 72.0195 44.8117 70.4144 44.2472 68.9768C43.6828 67.5393 42.5274 66.428 41.0722 65.9077C37.0329 64.4701 36.5038 62.6621 36.3274 62.0712C35.8776 60.5454 36.2392 58.6052 36.689 56.7443C36.9976 55.5007 36.8918 54.2131 36.3979 53.0313C35.904 51.8495 35.0574 50.8882 33.9638 50.2267C31.803 48.9391 27.5432 46.3197 23.354 43.2505C16.8805 38.5233 14.7727 35.8158 14.1024 34.6251C13 32.579 14.0848 30.0479 15.8663 26.4143C16.6953 24.7209 17.4891 23.1158 17.8948 21.4666C18.7502 17.9829 17.4802 15.7692 16.2632 14.5257C15.3548 13.5996 14.2876 12.8852 13.097 12.3825C12.0122 13.4497 10.9715 14.5698 10.0014 15.7427C11.2978 15.9544 12.4267 16.4836 13.3263 17.4008C16.8452 20.9815 6.43832 29.1747 10.5129 36.6095C13.9613 42.7655 27.7461 51.2939 31.8647 53.7457C32.5527 54.1602 32.8966 54.9716 32.7026 55.7477C31.6178 60.2015 30.6212 66.5338 39.6964 69.7617C40.3931 70.0087 40.7106 70.8113 40.3755 71.4727C39.1055 73.9157 36.1686 79.5513 32.879 85.6103C34.2636 85.9542 35.6659 86.2364 37.1035 86.4481C40.1021 80.9007 42.7391 75.8383 44.0179 73.3865ZM76.9409 54.0984C74.4714 47.528 61.5069 41.0016 50.8089 41.0016C48.0219 41.0016 45.3849 41.4426 43.1272 42.448C42.9243 42.5362 42.7126 42.5803 42.501 42.5803C42.1217 42.5803 41.7513 42.4392 41.4603 42.1746L36.2392 37.4297C35.6924 36.9358 35.9746 36.0186 36.7066 35.9216C42.404 35.1014 51.5321 34.3958 57.2382 14.8784C58.3054 11.2272 58.9845 6.98505 59.4784 3.04276C58.1819 2.53124 56.859 2.07263 55.5008 1.68457C55.0246 5.69741 54.3543 10.0895 53.296 13.7231C51.144 21.105 48.2865 26.2114 44.8028 28.9013C42.0688 31.0092 39.326 31.3972 36.6713 31.7765C36.4861 31.8029 36.3097 31.8294 36.1245 31.8558C35.1456 31.997 34.246 32.4203 33.514 33.0729C32.8349 33.6815 32.341 34.4576 32.0764 35.3307C31.8118 36.2038 31.7854 37.1299 32.0059 38.0118C32.244 38.9643 32.7555 39.8198 33.4875 40.4812L38.7086 45.2261C39.7493 46.1786 41.0987 46.6989 42.5098 46.6989C43.3035 46.6989 44.0797 46.5314 44.8117 46.2139C46.4433 45.4907 48.4629 45.1203 50.8177 45.1203C53.0667 45.1203 55.5008 45.4554 58.032 46.108C60.4573 46.7342 62.9091 47.6514 65.1228 48.7627C67.2659 49.8387 69.1621 51.0822 70.5997 52.3522C71.8609 53.4723 72.7516 54.6012 73.0956 55.536C73.8276 57.4851 73.5189 59.787 72.1519 62.5739C70.7761 65.3961 68.3507 68.5711 64.9464 72.0195C59.2755 77.7786 52.0083 83.132 46.8666 86.7921C50.0857 86.5451 53.2078 85.9454 56.1887 85.0282C67.3541 76.4645 80.6979 64.0909 76.9409 54.0984Z" fill="white"/>
</g>
<defs>
<clipPath id="clip0_34_1441">
<rect width="500" height="86.9331" fill="white"/>
</clipPath>
</defs>
</svg>
