<svg width="500" height="74" viewBox="0 0 500 74" fill="none" xmlns="http://www.w3.org/2000/svg">
<path d="M48.1924 11.0803C48.8397 11.0778 49.4801 10.9479 50.0772 10.6979C50.6742 10.4479 51.2162 10.0827 51.6721 9.62327C52.1281 9.16381 52.489 8.61906 52.7344 8.0201C52.9798 7.42114 53.1048 6.77971 53.1024 6.13244C53.1048 5.48516 52.9798 4.84373 52.7344 4.24478C52.489 3.64582 52.1281 3.10106 51.6721 2.64161C51.2162 2.18216 50.6742 1.81701 50.0772 1.56701C49.4801 1.31701 48.8397 1.18706 48.1924 1.18457C47.5451 1.18706 46.9047 1.31701 46.3076 1.56701C45.7106 1.81701 45.1686 2.18216 44.7127 2.64161C44.2567 3.10106 43.8958 3.64582 43.6504 4.24478C43.405 4.84373 43.2799 5.48516 43.2824 6.13244C43.2799 6.77971 43.405 7.42114 43.6504 8.0201C43.8958 8.61906 44.2567 9.16381 44.7127 9.62327C45.1686 10.0827 45.7106 10.4479 46.3076 10.6979C46.9047 10.9479 47.5451 11.0778 48.1924 11.0803ZM33.6379 29.5969C37.5076 29.5969 40.0834 27.0661 40.0834 23.1822C40.0834 19.2817 37.4294 16.6064 33.4128 16.6064C29.7659 16.6064 27.1924 19.2012 27.1924 23.3267C27.1924 27.3078 29.6237 29.5969 33.6379 29.5969ZM37.9554 49.8552L29.2232 49.405C26.4886 50.7083 25.209 51.9334 25.209 53.6087C25.209 56.2035 28.0881 58.04 32.9507 58.04C39.555 58.04 43.2659 55.8978 43.2659 53.0779C43.2659 50.8528 41.5194 49.9974 37.9554 49.8552Z" fill="#003C71"/>
<path d="M53.7251 9.17799C53.1849 10.1751 52.3859 11.0082 51.4122 11.5895C50.4384 12.1708 49.326 12.4789 48.1919 12.4813C47.3611 12.4782 46.5389 12.3115 45.7725 11.9906C45.0061 11.6698 44.3103 11.2011 43.725 10.6114C43.1397 10.0217 42.6762 9.32247 42.3612 8.55365C42.0461 7.78482 41.8855 6.96147 41.8886 6.13059C41.8886 5.39125 42.019 4.66614 42.2583 4.005C39.629 3.3681 36.9328 3.04908 34.2275 3.05476C15.3389 3.05476 0 18.4932 0 37.5571C0 56.6235 15.3389 72.0619 34.2441 72.0619C53.1493 72.0619 68.4882 56.6069 68.4882 37.5595C68.4882 25.7941 62.6351 15.3984 53.7251 9.17799ZM33.109 64.7633C21.9597 64.7633 16.2654 61.2491 16.2654 54.7538C16.2654 51.0145 18.4739 48.9529 23.1754 47.4221C19.609 45.6638 17.9455 44.0524 17.9455 41.3131C17.9455 38.4766 19.9929 35.7372 23.8649 33.7396C20.2156 31.5145 18.3294 27.9221 18.3294 23.2657C18.3294 15.0761 24.391 9.35571 33.4289 9.35571C37.1398 9.35571 40.8175 10.5642 43.6493 12.9979C45.5213 14.6093 46.9905 16.7206 47.8081 19.0737C48.3531 20.6685 48.5284 22.3605 48.5284 24.0382C48.5284 31.7562 42.9123 36.8012 33.6517 36.8012C31.9882 36.8012 30.5474 36.6567 29.3341 36.351C27.59 37.0429 26.7583 37.9623 26.7583 39.024C26.7583 41.7017 30.4076 41.4742 37.2346 42.0074C47.4716 42.7657 51.8081 44.7633 51.8081 52.4007C51.7749 60.2491 45.3294 64.7633 33.109 64.7633Z" fill="#003C71"/>
<path fill-rule="evenodd" clip-rule="evenodd" d="M133.123 51.9285H124.914V4.14648H133.123V51.9285ZM120.839 14.9901C120.839 17.355 118.907 19.2721 116.523 19.2721C114.14 19.2721 112.211 17.355 112.211 14.9901C112.211 12.6228 114.14 10.7081 116.523 10.7081C118.907 10.7081 120.839 12.6228 120.839 14.9901ZM104.959 34.1299C108.324 34.1299 110.568 31.9688 110.568 28.6252C110.568 25.2839 108.258 22.9925 104.763 22.9925C101.592 22.9925 99.3481 25.2199 99.3481 28.7579C99.3481 32.1654 101.462 34.1299 104.959 34.1299ZM97.6348 54.7081C97.6348 56.9356 100.142 58.509 104.365 58.509C110.109 58.509 113.341 56.6749 113.341 54.2484C113.341 52.3479 111.824 51.6275 108.722 51.4972L101.132 51.1038C98.7557 52.2176 97.6348 53.2673 97.6348 54.7081ZM91.2959 44.156C91.2959 41.7318 93.0779 39.374 96.4452 37.6678C93.277 35.7697 91.6277 32.6891 91.6277 28.6915C91.6277 21.6797 96.9073 16.7673 104.76 16.7673C107.983 16.7673 111.192 17.7981 113.658 19.8882C115.302 21.2704 116.548 23.0647 117.27 25.0872C117.744 26.4522 117.895 27.9119 117.895 29.3479C117.895 35.9664 113.012 40.291 104.959 40.291C103.507 40.291 102.253 40.1607 101.196 39.8977C99.6798 40.4877 98.9523 41.2721 98.9523 42.1915C98.9523 44.1417 101.249 44.2934 105.592 44.5754C106.35 44.6228 107.175 44.6773 108.061 44.746C116.971 45.4024 120.732 47.1062 120.732 53.6583C120.732 60.4071 115.123 64.2744 104.5 64.2744C94.7959 64.2744 89.8457 61.2579 89.8457 55.6891C89.8457 52.4782 91.758 50.7105 95.8504 49.4C92.7485 47.8929 91.2959 46.5162 91.2959 44.156ZM152.519 45.6204C156.952 45.6204 159.071 42.0043 159.071 34.7105C159.071 27.4143 156.952 23.8645 152.519 23.8645C148.149 23.8645 145.964 27.4143 145.964 34.7105C145.964 42.0043 148.149 45.6204 152.519 45.6204ZM152.519 16.8289C161.786 16.8289 167.346 23.4048 167.346 34.7105C167.346 46.0138 161.72 52.5872 152.519 52.5872C143.317 52.5872 137.689 45.9474 137.689 34.7105C137.689 23.4071 143.251 16.8289 152.519 16.8289ZM193.429 34.7105C193.429 41.874 190.649 45.7531 186.083 45.7531C183.831 45.7531 181.976 44.765 179.924 42.7934V26.4285C182.042 24.5209 183.895 23.5351 186.147 23.5351C190.583 23.5351 193.429 27.4782 193.429 34.7105ZM171.912 4.14648V43.9095C171.912 45.5517 171.782 48.246 171.516 51.9261H177.872L178.734 48.2484C181.578 51.2697 184.426 52.5849 188.132 52.5849C196.012 52.5849 201.64 45.4214 201.64 34.7081C201.64 23.6015 195.879 16.8289 188.398 16.8289C184.891 16.8289 182.374 18.0138 179.99 20.7744V4.14885H171.914L171.912 4.14648ZM212.161 42.464C212.161 44.7626 213.488 46.1441 215.869 46.1441C218.452 46.1441 220.967 44.9593 223.483 42.528V35.1678C215.805 36.2176 212.161 38.3882 212.161 42.464ZM223.682 48.9048C220.504 51.2034 217.061 52.3218 213.353 52.3218C207.528 52.3218 204.087 48.8384 204.087 43.1204C204.087 35.4308 210.509 31.355 223.746 29.7128V27.0185C223.746 24.5209 222.026 23.073 218.848 23.073C215.673 23.073 213.09 24.4522 211.237 27.0185L205.675 23.5351C208.587 19.0635 213.021 16.8289 218.981 16.8289C227.123 16.8289 231.692 20.7081 231.692 27.0185V47.2602C231.692 48.4451 231.891 50.0209 232.222 51.9285H224.407L223.682 48.9048ZM246.848 51.9261H238.64V4.14648H246.848V51.9261ZM258.737 42.7247C262.177 47.0612 265.289 49.2318 269.13 49.2318C274.824 49.2318 278.199 44.1702 278.199 34.7721C278.199 25.374 274.824 20.3124 269.13 20.3124C265.289 20.3124 262.177 22.4166 258.737 26.7531V42.7247ZM254.632 17.5517H257.677L258.737 22.0209H259.066C262.31 18.6038 265.753 16.8953 269.459 16.8953C277.007 16.8953 282.303 23.4 282.303 34.7081C282.303 46.0114 277.007 52.5185 269.459 52.5185C265.753 52.5185 262.31 50.8763 259.066 47.4569H258.737V64.4143H254.632V17.5517ZM289.054 43.1844C289.054 37.3361 294.417 35.1654 306.068 32.6038V43.1868C302.031 47.2602 298.587 49.3005 294.815 49.3005C291.239 49.3005 289.054 46.9948 289.054 43.1844ZM294.286 52.5825C298.521 52.5825 302.294 50.8763 306.068 47.3929C306.135 48.8384 306.398 50.3503 306.732 51.9261H310.768C310.372 49.7579 310.173 48.182 310.173 47.3242V25.9711C310.173 20.8432 305.604 16.964 299.052 16.964C293.092 16.964 289.452 19.2626 286.737 23.9972L289.914 25.8384C291.969 22.156 294.746 20.3171 298.521 20.3171C303.286 20.3171 306.135 22.6157 306.135 25.9711V29.3218C291.635 31.8834 284.95 35.4356 284.95 43.3858C284.95 48.7105 288.592 52.5872 294.286 52.5872V52.5825ZM313.81 17.5517H317.914L328.111 46.8005L338.239 17.5517H342.144L329.102 54.6228C326.72 61.4569 323.938 64.2816 317.981 64.2816C316.922 64.2816 315.73 64.2176 314.407 64.0209V60.7342C315.467 60.9308 316.459 60.9972 317.32 60.9972C322.284 60.9972 324.535 58.2365 325.858 51.7294L313.81 17.5517ZM350.023 17.5517H346.249V51.9261H350.22V26.8882C353.663 22.6157 357.04 20.5138 360.215 20.5138C365.116 20.5138 366.173 23.4048 366.173 29.4522V51.9285H370.147V26.8882C373.523 22.6157 376.967 20.5138 380.142 20.5138C385.042 20.5138 386.102 23.4048 386.102 29.4522V51.9285H390.007V28.0043C390.007 20.6441 387.095 16.9616 381.27 16.9616C377.561 16.9616 373.919 18.9356 370.147 22.8787H369.685C368.095 18.9356 365.315 16.964 361.41 16.964C357.767 16.964 353.929 18.9356 350.286 22.8787H350.023V17.5517ZM409.336 20.246C403.907 20.246 400.068 24.3218 399.407 31.682H418.407C418.208 24.2555 414.765 20.246 409.336 20.246ZM422.445 43.6441C419.398 49.8218 415.493 52.5185 409.403 52.5185C400.798 52.5185 395.303 45.7484 395.303 34.9688C395.303 23.5991 400.995 16.8953 409.27 16.8953C417.611 16.8953 422.246 22.6133 422.246 33.5233V34.6417H399.407C399.474 44.1678 403.113 49.2318 409.668 49.2318C414.102 49.2318 416.95 47.0635 419.398 42.0019L422.445 43.6441ZM431.711 17.5541H427.606V51.9261H431.711V26.8882C435.417 22.6157 439.057 20.5138 442.5 20.5138C447.796 20.5138 448.99 23.4048 448.99 29.4522V51.9285H453.028V28.0043C453.028 20.6441 449.914 16.9616 443.694 16.9616C439.853 16.9616 435.815 18.9356 431.711 22.9451V17.5541ZM469.905 49.3645C470.834 49.3645 472.026 49.0991 473.547 48.7057V51.9925C472.026 52.3882 470.436 52.6489 468.912 52.6489C464.147 52.6489 462.092 50.2839 462.092 45.2887V20.9071H456.931V17.5541H462.092V7.36923H466.132V17.5588H473.348V20.9095H466.132V45.4901C466.132 48.1204 467.324 49.3645 469.905 49.3645ZM495.263 42.9901C495.263 46.6015 492.414 49.2981 488.111 49.2981C484.073 49.2981 480.63 47.2602 477.651 43.3147L474.606 45.7484C478.049 50.3503 482.218 52.5185 487.649 52.5185C494.796 52.5185 499.431 48.3787 499.431 42.6607C499.431 37.2034 495.924 35.1015 489.038 32.5375C488.483 32.3289 487.952 32.1323 487.443 31.9451C482.661 30.1797 479.903 29.1607 479.903 25.8337C479.903 22.4806 482.353 20.182 486.125 20.182C489.964 20.182 492.813 21.8242 495.462 25.3076L498.372 23.2057C495.327 19.0635 491.355 16.8953 486.85 16.8953C479.969 16.8953 475.666 20.7721 475.666 26.0304C475.666 31.2863 479.308 33.2602 486.324 35.8242L487.341 36.1986C492.403 38.0517 495.263 39.1015 495.263 42.9901Z" fill="#003C71"/>
</svg>
