<svg width="500" height="500" viewBox="0 0 500 500" fill="none" xmlns="http://www.w3.org/2000/svg">
<g clip-path="url(#clip0_34_1443)">
<path fill-rule="evenodd" clip-rule="evenodd" d="M0 500H500V0H0V500Z" fill="#7399C6"/>
<path fill-rule="evenodd" clip-rule="evenodd" d="M444.07 114.719H426.484V50.0234H443.047V57.2656C445.109 52.9141 450.281 49.0625 457.008 48.5703C468.398 48.0859 476.148 54.3672 476.148 67.8828V114.719H458.047V65.9531C458.047 60.1641 458.047 55.3281 453.906 54.3672C452.351 53.8828 449.765 54.3672 447.695 55.8125C445.109 58.2344 444.07 61.125 444.07 65.9531V114.719ZM138.265 82.3672C138.265 94.4375 138.265 104.094 136.195 108.93C134.64 111.336 133.086 112.789 129.461 112.789C126.359 112.789 124.289 111.336 123.258 108.922C120.672 104.094 120.672 94.4375 120.672 82.3672C120.672 70.7813 120.672 60.6484 123.25 55.8125C124.289 53.3984 126.359 51.9531 129.461 51.9531C133.086 51.9531 134.64 53.3984 136.195 55.8125C138.781 60.6406 138.265 70.7734 138.265 82.3672ZM144.984 54.3672C140.844 50.9844 135.672 48.5703 129.461 48.5703C123.258 48.5703 118.601 50.9922 113.945 54.3672C106.695 60.1641 102.039 70.7813 102.039 82.3672C102.039 94.4375 106.695 104.578 113.945 110.375C118.601 113.75 123.258 116.164 129.461 116.164C135.672 116.164 140.851 113.75 144.992 110.375C152.75 104.578 156.89 94.4375 156.89 82.3672C156.89 70.7813 152.742 60.1641 144.984 54.3672ZM325.578 139.344V156.719H321.961C319.89 149.477 316.781 143.203 308.5 142.719C303.328 142.242 298.672 145.141 298.156 149.477C297.64 153.828 299.187 157.68 308.5 162.523C320.406 168.789 329.719 171.688 329.719 184.727C329.719 198.727 316.781 205.492 305.914 205.492H285.211V181.352H288.836C291.43 193.898 295.562 201.625 305.398 202.109C311.609 202.109 316.258 198.727 316.258 192.453C316.258 186.172 312.125 182.313 302.297 177C291.43 170.727 284.703 166.859 284.703 158.172C284.703 146.586 293.5 139.344 307.469 139.344H325.578ZM348.344 114.719V67.8828C348.344 54.3672 340.586 48.0859 329.203 48.5703C321.437 49.0547 316.781 53.8828 314.711 57.7422C312.125 50.9844 306.429 48.0859 298.148 48.5703C291.429 49.0547 286.25 52.9141 284.18 57.2656V50.0234H268.14V114.711H285.734V65.9609C285.734 61.1328 286.25 58.2344 289.359 55.8203C291.429 54.375 293.5 53.8906 295.047 54.375C299.187 55.3359 299.187 60.1719 299.187 65.9609V114.727H316.781V65.4688C316.781 61.1172 317.812 58.2188 320.406 55.8047C322.476 54.3594 324.547 53.875 326.094 54.3594C330.234 55.3203 330.75 60.1563 330.75 65.9453V114.711H348.344V114.719ZM168.789 114.719H186.898V36.5H168.789V114.719ZM229.844 55.3359C233.469 60.1641 233.469 71.7422 233.469 80.9219C233.469 90.5781 233.992 103.133 229.851 108.438C228.297 110.375 226.742 111.336 224.156 111.336C220.539 111.336 218.469 107.477 217.437 101.195C216.914 95.4062 216.914 88.1641 216.914 80.4375C216.914 67.4062 217.945 52.9141 224.68 52.9141C227.258 52.9141 228.289 53.8828 229.844 55.3359ZM251.07 114.719V36.5H232.953V54.8516C231.406 51.4688 227.781 49.0547 222.609 49.0547C209.672 49.0547 199.328 61.6094 198.804 80.9219C198.289 93.9609 202.945 115.688 221.054 115.688C228.297 115.688 232.437 111.82 233.992 108.438V114.719H251.07ZM391.812 76.0938L386.117 79.4688C380.43 82.8516 379.398 87.2031 378.875 92.0234C378.359 95.8906 378.359 99.2656 378.875 105.063C379.39 110.375 383.015 111.336 386.117 110.375C389.742 108.922 391.812 102.648 391.812 95.8906V76.0938ZM402.156 51.9531C406.82 54.375 409.922 58.2266 409.922 66.9219V114.719H392.844V107.477C390.781 112.789 385.086 116.164 377.32 116.164C371.117 116.164 360.25 113.273 360.25 98.3047C360.25 84.2969 370.078 81.4063 380.953 77.0547C390.781 73.1953 391.812 72.7109 391.812 68.8516V58.2266C391.812 53.8828 389.226 51.9531 384.047 51.9531C381.984 52.4375 378.359 53.3984 378.359 55.8125C377.836 58.7109 381.461 58.7109 381.984 63.0547C382.5 69.8203 376.805 72.2266 371.633 71.75C368.008 71.75 363.867 69.8203 363.351 64.5078C362.836 55.8125 373.18 48.5703 387.672 48.5703C394.398 48.5703 398.539 50.0234 402.156 51.9531ZM135.672 166.375L129.984 169.758C124.289 173.141 123.258 177.484 122.734 182.313C122.226 186.172 122.226 190.039 122.734 195.344C122.734 201.141 126.359 202.109 129.461 200.656C133.601 199.211 135.672 193.422 135.672 186.172V166.375ZM146.023 142.234C150.679 145.133 153.265 148.516 153.265 157.203V205.484H136.719V198.242C134.648 203.07 128.961 206.445 121.195 206.445C114.469 206.445 104.117 204.039 104.117 189.07C104.117 175.07 113.953 172.172 124.297 167.82C134.648 163.484 135.679 163 135.679 159.617V148.992C135.679 144.172 133.094 142.242 127.922 142.719C125.851 142.719 122.234 143.688 122.234 146.102C121.711 149.484 125.336 149.484 125.851 153.828C126.367 160.102 120.679 162.516 115.5 162.516C111.883 162.031 107.742 160.102 107.219 154.789C106.703 146.586 117.054 139.336 131.539 139.336C138.273 139.336 142.406 140.305 146.031 142.242L146.023 142.234ZM271.25 158.656C271.25 145.141 263.484 138.375 252.101 139.344C246.414 139.82 241.75 142.234 239.164 145.617V126.789H221.562V171.211C221.562 187.617 209.14 203.07 196.719 202.586C187.929 202.586 185.859 196.313 184.82 189.555C183.273 179.898 183.273 168.797 184.304 156.719C185.344 149 187.414 142.719 193.625 142.719C198.281 142.719 198.797 145.617 196.726 147.547C194.656 149.969 191.554 152.375 193.101 157.688C194.656 163.484 204.484 164.445 209.148 160.109C212.765 156.242 212.25 149.961 209.664 146.102C206.554 141.273 201.383 139.344 193.625 139.344C183.789 139.344 165.164 147.547 165.164 173.617C165.164 201.625 184.304 206.453 195.172 206.453C207.594 206.453 218.453 196.313 221.562 188.102V205.484H239.156V156.719C239.156 151.898 240.187 149 242.781 146.578C244.851 145.133 247.437 144.648 248.992 145.133C253.133 146.102 253.133 150.93 253.133 156.719V205.484H271.242L271.25 158.656ZM90.1404 35.0547V62.5781H86.5154C83.4139 49.0625 76.6873 38.9141 67.3748 38.4375C61.1639 37.9531 57.5389 41.3281 54.4373 46.1563C51.3357 51.9531 49.7811 64.0234 49.7811 78.5C49.7811 92.0234 50.2967 102.164 51.8514 109.406C52.8826 112.789 55.4686 118.094 62.1951 118.094C65.8201 118.094 68.4061 117.133 69.9607 115.203C72.5389 112.305 73.0623 106.508 73.0623 102.648V89.6094C73.0623 84.7813 71.5154 81.8906 68.9217 80.4375C66.8592 79.4688 63.7498 79.4688 62.2029 78.9844V75.6094H91.1717V144.656H87.5545C85.9998 139.344 84.9686 135.477 82.3748 131.133C79.7967 126.789 75.1326 121.961 67.3748 121.961C59.0936 121.477 52.8826 126.305 52.8826 133.547C52.8826 143.203 59.0936 145.617 70.4764 151.414C81.3436 157.203 95.3201 162.039 95.3201 178.93C95.3201 195.344 80.3045 205.492 63.2342 205.492H35.8123V172.172H39.4295C44.0857 197.281 55.4686 201.625 63.2342 201.625C73.0623 201.625 77.7186 195.828 77.7186 187.625C77.2029 177 69.4373 173.141 58.5779 167.828C43.0545 159.625 35.8123 155.758 35.8123 142.242C36.3279 130.648 46.1561 123.414 57.0232 120.516C34.2576 118.094 27.5311 98.7891 28.0467 78.0234C28.0467 57.2656 40.9842 35.0547 66.3357 35.0547H90.1404Z" fill="white"/>
</g>
<defs>
<clipPath id="clip0_34_1443">
<rect width="500" height="500" fill="white"/>
</clipPath>
</defs>
</svg>
