<svg width="500" height="495" viewBox="0 0 500 495" fill="none" xmlns="http://www.w3.org/2000/svg">
<g clip-path="url(#clip0_34_1440)">
<path d="M0 354.456V366.592H17.2025V411.469H30.4659V366.587H47.6735V354.451M91.0438 411.469V388.613H69.0224V411.469H55.7236V354.451H69.0224V376.801H91.0438V354.451H104.317V411.469M115.376 411.469V354.451H151.617V366.602H128.66V376.796H149.594V388.285H128.66V399.419H151.617V411.469M86.9631 459.512L92.5911 473.225H81.2593L86.9732 459.512H86.9631ZM86.1642 436.166L59.2126 493.674H72.7288L77.037 483.338H96.7982L101.106 493.679H114.921L87.9694 436.171L86.1642 436.166Z" fill="#822B2F"/>
<mask id="mask0_34_1440" style="mask-type:luminance" maskUnits="userSpaceOnUse" x="0" y="0" width="500" height="495">
<path d="M0 0H499.995V494.62H0V0Z" fill="white"/>
</mask>
<g mask="url(#mask0_34_1440)">
<path d="M142.243 448.094C140.22 448.094 138.966 448.16 137.1 448.448V464.194C138.819 464.325 139.765 464.411 141.322 464.411C147.643 464.411 151.698 461.357 151.698 455.633C151.698 450.88 147.957 448.094 142.243 448.094ZM154.04 493.679L144.291 475.091C143.497 475.157 142.794 475.157 142.015 475.157C140.068 475.157 138.966 475.091 137.1 475.005V493.684H123.816V437.182C128.656 436.646 133.965 436.241 140.68 436.241C158.515 436.241 165.538 444.751 165.538 455.153C165.538 461.929 161.867 467.997 155.698 471.652L169.134 493.684H154.045L154.04 493.679Z" fill="#822B2F"/>
</g>
<path d="M229.479 436.636V493.689H242.762V472.972H262.432V461.352H242.762V448.802H265.729V436.636" fill="#822B2F"/>
<mask id="mask1_34_1440" style="mask-type:luminance" maskUnits="userSpaceOnUse" x="0" y="0" width="500" height="495">
<path d="M0 0H499.995V494.62H0V0Z" fill="white"/>
</mask>
<g mask="url(#mask1_34_1440)">
<path d="M417.356 448.089C415.08 448.089 413.897 448.165 411.874 448.402V482.003C414.301 482.256 415.313 482.317 418.195 482.317C430.705 482.317 436.237 475.298 436.237 464.654C436.237 454.298 429.689 448.094 417.361 448.094M416.076 494.144C409.371 494.144 405.609 493.841 398.596 493.214V437.172C405.22 436.474 409.836 436.241 415.555 436.241C439.306 436.241 450.395 448.544 450.395 464.644C450.385 481.452 439.837 494.134 416.076 494.134" fill="#822B2F"/>
</g>
<path d="M172.302 436.636V448.787H189.495V493.659H202.768V448.787H219.971V436.636M37.4382 436.636V458.986H15.4219V436.636H2.12305V493.659H15.4219V470.793H37.4382V493.659H50.7118V436.636" fill="#822B2F"/>
<mask id="mask2_34_1440" style="mask-type:luminance" maskUnits="userSpaceOnUse" x="0" y="0" width="500" height="495">
<path d="M0 0H499.995V494.62H0V0Z" fill="white"/>
</mask>
<g mask="url(#mask2_34_1440)">
<path d="M361.901 448.094C359.898 448.094 358.634 448.159 356.758 448.448V464.194C358.477 464.325 359.418 464.411 360.985 464.411C367.296 464.411 371.351 461.357 371.351 455.633C371.351 450.88 367.609 448.099 361.896 448.099M373.698 493.679L363.949 475.091C363.16 475.157 362.447 475.157 361.673 475.157C359.721 475.157 358.624 475.091 356.753 475.005V493.684H343.469V437.182C348.314 436.646 353.623 436.241 360.338 436.241C378.158 436.241 385.191 444.751 385.191 455.153C385.191 461.929 381.515 467.996 375.346 471.652L388.786 493.684H373.698V493.679ZM303.153 447.558C294.092 447.558 287.983 454.925 287.983 465.205C287.983 475.404 294.092 482.873 303.153 482.873C312.22 482.873 318.308 475.399 318.308 465.205C318.308 454.925 312.22 447.558 303.153 447.558ZM302.905 494.619C285.167 494.619 273.83 481.927 273.83 465.205C273.83 448.402 285.703 435.705 303.431 435.705C321.119 435.705 332.527 448.397 332.527 465.205C332.527 481.927 320.543 494.619 302.905 494.619Z" fill="#822B2F"/>
</g>
<mask id="mask3_34_1440" style="mask-type:luminance" maskUnits="userSpaceOnUse" x="0" y="0" width="500" height="495">
<path d="M0 0H499.995V494.62H0V0Z" fill="white"/>
</mask>
<g mask="url(#mask3_34_1440)">
<path d="M179.479 196.165V234.813C200.084 234.347 220.614 234.175 240.896 234.428C279.781 218.009 316.239 203.138 356.879 197.121C357.147 196.767 357.384 196.438 357.576 196.17H179.484L179.479 196.165Z" fill="#EFF4F9"/>
</g>
<mask id="mask4_34_1440" style="mask-type:luminance" maskUnits="userSpaceOnUse" x="0" y="0" width="500" height="495">
<path d="M0 0H499.995V494.62H0V0Z" fill="white"/>
</mask>
<g mask="url(#mask4_34_1440)">
<path d="M321.963 222.216C327.399 218.828 328.991 217.701 335.828 215.643C336.925 215.319 341.491 212.432 342.3 211.987C343.489 211.329 344.854 208.093 346.143 206.814C349.39 203.476 351.847 201.423 355.721 198.42C356.049 198.147 356.479 197.631 356.873 197.115C316.239 203.133 279.786 217.999 240.891 234.433C251.398 234.564 261.825 234.837 272.176 235.191C293.504 227.556 316.173 225.801 321.963 222.216Z" fill="#DEEAF3"/>
</g>
<mask id="mask5_34_1440" style="mask-type:luminance" maskUnits="userSpaceOnUse" x="0" y="0" width="500" height="495">
<path d="M0 0H499.995V494.62H0V0Z" fill="white"/>
</mask>
<g mask="url(#mask5_34_1440)">
<path d="M179.479 259.453C201.131 251.347 221.322 242.701 240.896 234.433C220.619 234.18 200.089 234.347 179.479 234.817V259.453Z" fill="#DEEAF3"/>
</g>
<mask id="mask6_34_1440" style="mask-type:luminance" maskUnits="userSpaceOnUse" x="0" y="0" width="500" height="495">
<path d="M0 0H499.995V494.62H0V0Z" fill="white"/>
</mask>
<g mask="url(#mask6_34_1440)">
<path d="M230.301 286.183C229.543 257.219 250.159 243.07 272.17 235.192C261.814 234.838 251.403 234.565 240.885 234.434C221.316 242.696 201.125 251.348 179.473 259.464V313.291C198.941 316.113 217.397 317.083 234.792 316.406C232.769 311.223 231.202 305.393 230.215 299.163C229.558 295.381 229.649 292.321 229.963 289.53C230.14 288.145 230.301 286.825 230.301 286.183Z" fill="#CEE1EE"/>
</g>
<mask id="mask7_34_1440" style="mask-type:luminance" maskUnits="userSpaceOnUse" x="0" y="0" width="500" height="495">
<path d="M0 0H499.995V494.62H0V0Z" fill="white"/>
</mask>
<g mask="url(#mask7_34_1440)">
<path d="M259.999 349.273C258.128 347.453 255.933 346.027 254.032 344.318C246.518 337.522 241.795 331.423 236.713 320.89C236.041 319.464 235.398 317.958 234.792 316.39C217.397 317.073 198.956 316.097 179.473 313.28V389.71C207.446 387.577 238.271 383.734 268.049 378.809C268.251 376.877 268.372 375.218 268.433 374.945C268.433 374.844 268.858 365.125 268.56 364.797C265.703 359.993 263.73 352.939 259.999 349.273ZM434.244 292.285C433.349 297.585 432.302 302.833 429.794 310.873C429.794 310.883 426.937 318.372 425.789 320.774C424.044 324.491 423.058 329.664 421.471 334.477C421.4 334.68 421.051 335.6 420.54 336.854C420.51 336.935 420.206 337.602 420.075 337.875C427.508 335.104 434.653 332.435 436.438 332.01V288.7C435.417 290.086 434.335 291.684 434.249 292.28M379.597 335.716C378.029 333.102 376.851 328.091 374.692 327.813C372.619 329.391 367.775 331.014 363.022 332.232C363.022 332.232 361.232 333.613 354.537 334.574L349.227 335.307C346.664 335.661 343.731 336.419 340.995 336.439C339.701 336.45 338.497 336.505 337.354 336.571C336.788 339.2 337.268 341.395 334.422 342.158C330.579 343.17 322.872 340.075 315.136 343.741C313.791 345.041 312.759 346.588 312.142 347.989C309.361 354.274 308.957 354.946 306.58 358.036C305.872 358.987 299.789 365.287 299.076 365.995C296.345 368.726 294.909 371.532 294.06 374.177C331.63 367.011 365.358 358.35 386.611 349.652C384.704 345.253 382.869 341.319 382.717 341.142C381.301 339.322 381.144 338.346 379.597 335.716ZM395.93 315.91C396.365 320.572 396.415 323.282 397.937 326.771C398.382 327.803 400.041 339.787 401.356 344.586C402.599 344.232 404.268 343.675 406.726 342.796C406.978 337.162 407.231 320.587 407.423 318.726C407.454 318.433 407.525 317.513 407.535 317.219C407.56 316.926 407.434 315.905 407.282 314.772C403.768 315.53 399.818 315.834 395.93 315.91Z" fill="#BBD6E9"/>
</g>
<mask id="mask8_34_1440" style="mask-type:luminance" maskUnits="userSpaceOnUse" x="0" y="0" width="500" height="495">
<path d="M0 0H499.995V494.62H0V0Z" fill="white"/>
</mask>
<g mask="url(#mask8_34_1440)">
<path d="M469.625 63.2077C462.875 71.6016 448.671 75.8896 440.985 81.2698C438.992 82.6452 437.395 84.4808 434.563 86.3062C433.703 86.827 430.872 88.5816 428.975 89.4514C428.773 89.5373 427.833 90.3363 427.6 89.9469C427.145 89.3401 430.229 85.8359 430.553 85.4466C438.376 75.384 445.521 65.5641 447.053 50.369C447.341 46.9103 447.528 44.0837 447.341 41.6212C447.998 41.6212 448.828 41.6566 449.657 41.7021C459.244 42.1369 471.997 43.0673 473.291 52.599C473.888 57.0994 471.572 60.7907 469.62 63.2178M469.721 74.5597C466.971 81.4215 457.5 87.1001 449.647 89.7902C447.442 90.5183 442.734 93.2489 441.293 92.2325C440.727 91.8027 443.736 89.2896 444.428 88.7333C451.255 83.2469 460.169 79.1056 466.981 73.9378C468.629 72.6231 470.085 71.4904 470.409 71.1567C470.338 71.8494 470.343 73.0782 469.721 74.5597ZM407.419 318.742C407.232 320.603 406.964 337.178 406.711 342.811C404.264 343.691 402.6 344.227 401.351 344.607C400.037 339.803 398.368 327.819 397.928 326.792C396.411 323.303 396.345 320.583 395.915 315.921C399.809 315.85 403.753 315.556 407.273 314.798C407.424 315.936 407.551 316.957 407.535 317.24L407.419 318.742ZM294.071 374.188C294.93 371.538 296.361 368.726 299.087 366.006C299.805 365.298 305.888 358.998 306.591 358.047C308.967 354.962 309.372 354.285 312.153 347.994C312.76 346.604 313.802 345.052 315.147 343.747C322.883 340.081 330.584 343.176 334.427 342.169C337.279 341.411 336.804 339.216 337.36 336.582C338.508 336.511 339.712 336.465 341.001 336.45C343.742 336.43 346.674 335.682 349.243 335.318L354.553 334.584C361.242 333.624 363.032 332.248 363.032 332.248C367.786 331.025 372.62 329.401 374.713 327.824C376.862 328.102 378.035 333.113 379.598 335.727C381.15 338.357 381.317 339.333 382.733 341.163C382.875 341.335 384.725 345.274 386.627 349.673C365.364 358.371 331.636 367.027 294.071 374.198M369.92 103.327C369.444 102.922 367.462 102.598 367.963 101.016C368.14 100.525 369.242 100.156 369.561 100.141C372.847 99.519 378.258 101.087 376.463 104.206C376.463 104.206 373.621 106.143 373.469 106.153C373.469 106.153 372.155 105.632 371.887 105.466C371.103 104.945 370.43 103.706 369.925 103.332M287.533 70.6915C286.825 70.1049 286.167 69.4779 285.611 68.77C283.487 66.8484 281.819 63.3493 280.898 59.8956C279.154 53.1704 277.318 54.5256 281.455 50.3893C282.456 49.2971 284.094 48.2251 285.955 47.2289C287.118 46.6474 288.736 45.8333 289.818 45.5501C290.142 45.449 290.288 45.3883 290.845 45.2821C290.905 45.99 290.986 47.0418 291.012 48.2655C291.694 59.3394 293.504 67.9053 298.111 76.0767C293.99 74.2311 291.31 72.8911 287.543 70.6915M282.289 42.0206C284.271 39.553 288.837 36.8781 290.632 35.7606C290.855 35.6291 291.087 35.4572 291.239 35.3409C290.986 37.4343 290.855 39.376 290.708 40.266C289.697 40.6452 287.962 41.2369 286.177 41.8942C285.095 42.2785 283.7 43.1331 282.107 43.5781C280.893 43.8815 281.768 42.6679 282.294 42.0105M473.802 11.1856C475.541 15.3421 482.277 29.7635 481.463 33.8644C481.144 35.4622 480.451 39.5935 479.87 40.6048C479.668 40.9941 478.52 43.0016 477.311 42.8802C474.803 42.678 474.606 35.1184 473.812 32.7772C472.72 29.7281 470.728 27.402 468.25 24.626C467.491 23.7765 465.656 22.4163 464.776 21.6831C459.234 16.7782 452.306 6.69534 444.312 4.83452C444.272 4.8244 444.211 4.79912 444.16 4.91036C444.13 4.99127 444.211 5.21376 444.352 5.36546C444.656 5.65874 446.527 7.0847 450.36 11.0389C452.554 13.2992 455.533 16.2118 457.312 18.7452C459.421 21.7538 464.675 26.4615 466.495 29.1415C467.739 30.9922 469.494 34.0059 469.797 36.7921C469.999 38.6125 469.999 39.1687 468.938 39.4013C468.26 39.6036 463.729 37.8742 456.792 37.3483C456.165 37.3483 450.339 36.8225 449.712 36.8225C440.934 35.8364 441.47 36.2157 434.012 33.8593C429.026 32.2918 422.938 30.1174 417.502 29.005C416.845 28.8836 409.649 26.4008 409.219 26.9318C408.881 27.2959 411.293 28.7875 411.798 29.005C413.922 29.9556 420.051 32.226 422.407 33.3385C425.39 34.815 428.07 35.9679 430.73 37.0096C434.856 38.6378 438.77 40.1143 443.725 41.2571C443.27 47.2239 442.107 57.2005 439.731 61.4834C434.993 70.0796 428.429 78.4078 421.497 84.9106C420.03 86.2961 418.614 88.3339 416.617 90.134C414.913 91.7167 412.673 94.2804 411.045 94.6647C410.023 94.8771 408.618 94.5737 407.429 94.8164C405.791 95.1704 404.496 96.0806 403.071 95.8783C401.67 95.6255 401.2 94.3917 399.961 93.7697C398.333 93.0365 395.693 92.4701 393.67 92.2021C392.143 92.0252 391.531 92.2021 391.784 90.8116C391.784 90.7509 391.885 90.6751 391.946 89.7902C392.285 85.2494 392.351 81.0069 392.31 77.7909C392.108 64.659 383.866 54.2272 378.946 45.3529C377.757 43.1786 375.214 38.2383 373.232 35.9578C371.037 33.5053 372.352 37.7529 372.696 39.1232C373.12 40.6907 374.496 42.4757 374.951 43.8005C375.29 44.5489 375.573 45.6513 375.836 46.3996C378.435 54.1514 385.064 64.6033 386.05 73.9732C386.111 74.5597 386.237 75.3132 386.212 75.7329C385.605 81.8513 384.705 89.5677 378.93 90.8166C378.576 90.9178 378.071 91.0088 377.717 91.0088C368.615 90.9481 360.737 78.4685 356.702 71.9253C352.636 65.3011 349.622 59.2484 346.973 50.723C345.759 46.7991 345.238 35.3105 344.864 31.154C344.788 30.4714 344.723 26.1784 344.697 25.6019C344.682 25.3642 344.596 25.0457 344.434 25.0457C343.949 25.0457 343.231 28.9392 342.983 29.9506C342.154 33.2576 341.921 40.4784 341.921 43.4314C341.921 51.6382 344.348 59.8552 347.686 67.0457C349.673 71.3943 354.047 80.0765 356.494 84.238C357.228 85.4617 359.063 87.8383 358.942 88.7536C358.674 90.8571 354.654 90.8167 353.39 91.1908C347.084 92.1212 338.685 91.3122 331.292 89.2592C324.178 87.2872 317.549 84.9611 311.673 81.2799C311.041 80.7894 310.343 80.3849 309.928 79.763C302.091 73.5788 297.368 59.4456 295.689 48.6549C295.436 46.8193 295.295 44.4377 295.305 44.0938C296.033 43.9118 296.645 43.7399 297.277 43.5882C305.569 41.4998 316.704 34.2689 322.929 30.3905C325.063 29.1061 327.141 27.7307 329.057 26.1328C329.29 25.9306 329.361 25.8294 329.3 25.7536C329.265 25.703 329.098 25.7283 328.865 25.8143C319.88 28.6308 307.896 36.0488 299.517 38.2029C298.91 38.3698 296.574 38.9917 295.027 39.2496C295.027 38.4406 295.092 36.8225 295.092 36.4685C295.112 35.4875 295.062 34.5976 295.062 33.7632C296.013 33.1059 296.983 32.1097 298.308 31.0832C305.489 25.4199 310.277 9.21352 315.197 1.214C315.248 1.14827 315.415 0.880268 315.349 0.829702C315.283 0.763966 315.157 0.854985 314.965 0.95106C306.318 5.02161 302.222 22.8612 294.496 27.9532C288.205 32.1198 280.302 35.3004 276.054 41.1762C275.569 41.8538 274.507 44.4377 273.637 44.6753C273.293 44.7461 272.034 45.8737 271.372 45.5097C269.071 44.1191 267.008 39.6946 265.43 37.2169C263.155 33.5761 263.772 23.0079 264.247 19.0991C264.975 13.0414 269.961 5.21882 272.874 0.238082C272.944 0.13695 272.975 0.0762711 272.944 0.0358184C272.904 -0.0147474 272.818 0.0459316 272.707 0.0863843C271.544 0.55159 268.712 3.12033 268.232 3.63611C264.166 8.27805 258.928 16.0247 258.523 22.4618C258.088 28.5297 259.757 42.0156 263.701 46.0002C264.409 46.8497 265.117 47.5879 265.997 48.2352C270.826 52.5687 273.076 59.0209 275.543 65.2759C276.327 67.3491 277.162 68.952 278.512 70.828C282.926 77.4521 291.305 81.0322 298.814 84.769C305.923 88.2884 314.287 91.9392 322.276 94.4675C327.318 96.0755 333.972 97.7037 340.01 98.8162C342.285 99.2611 344.308 99.691 345.451 100.652C346.26 101.339 346.776 104.206 347.241 105.622C347.822 107.433 348.505 109.213 348.995 110.588C350.325 114.289 351.134 117.854 352.52 120.549C354.472 124.14 359.093 125.692 363.341 127.275C363.897 127.361 366.511 128.154 369.561 127.983C371.533 127.912 371.775 130.258 371.669 131.355C371.583 132.938 371.801 134 371.77 135.572C371.689 139.633 372.043 139.643 371.517 143.132C371.416 143.931 370.471 146.378 369.834 148.381C369.697 148.684 369.51 149.008 369.449 149.291C369.045 151.248 368.807 154.878 368.165 156.866C367.583 158.939 365.045 165.28 364.403 174.938C364.135 178.842 362.704 182.543 360.934 186.285C360.105 188.045 360.251 189.005 359.604 190.988C358.937 193.061 358.542 194.654 357.86 195.741C357.582 196.165 356.429 197.854 355.716 198.431C351.847 201.44 349.395 203.487 346.133 206.825C344.849 208.109 343.494 211.34 342.29 211.998C341.481 212.443 336.915 215.335 335.818 215.664C328.992 217.717 327.399 218.849 321.953 222.227C310.206 229.524 228.795 229.155 230.307 286.193C230.307 286.84 230.145 288.165 229.974 289.53C229.66 292.337 229.569 295.396 230.226 299.168C231.506 307.269 233.756 314.707 236.729 320.911C241.801 331.444 246.529 337.548 254.038 344.339C255.939 346.043 258.124 347.474 260.005 349.294C263.736 352.96 265.703 360.014 268.56 364.818C268.864 365.141 268.434 374.855 268.434 374.966C268.373 375.234 268.252 376.898 268.045 378.835C238.261 383.76 207.457 387.598 179.479 389.737V411.48H436.444V332.016C434.654 332.435 427.494 335.1 420.076 337.881L420.531 336.87C421.037 335.606 421.391 334.681 421.466 334.473C423.059 329.669 424.045 324.497 425.795 320.78C426.943 318.373 429.79 310.884 429.79 310.869C432.308 302.829 433.359 297.58 434.249 292.286C434.401 291.123 438.264 286.334 438.264 286.334C439.417 284.833 440.322 282.815 441.602 280.985C441.602 280.985 447.821 268.04 447.659 256.855C447.599 254.797 448.241 245.528 448.165 237.478C448.226 237.023 448.292 236.608 448.292 236.082C448.292 234.55 448.14 233.149 447.963 231.723C447.963 231.597 447.963 231.46 447.938 231.339C447.902 231.036 447.912 230.697 447.877 230.394C447.558 228.32 448.013 224.255 447.912 222.404C447.776 219.987 446.926 220.255 446.749 217.752C446.618 216.048 446.072 214.738 445.627 213.151C445.323 211.988 444.666 210.926 444.11 209.894C444.009 209.222 443.943 208.706 443.943 208.509C444.246 199.847 438.482 189.526 438.33 189.167C435.6 182.867 435.903 182.629 436.358 174.892C436.044 165.437 434.487 160.304 433.526 157.912C433.137 157.685 430.204 151.389 429.248 149.342C428.844 148.492 428.793 147.572 428.996 146.727C429.638 144.022 434.33 143.238 436.216 141.944C437.43 141.15 438.795 139.062 439.362 137.57C439.412 137.418 439.437 137.282 439.437 137.089V134.207C439.437 133.98 439.286 133.803 439.255 133.6C439.164 133.166 439.306 132.508 439.266 132.013C439.266 131.871 439.266 131.729 439.316 131.593C440.96 126.496 442.674 121.985 437.814 119.447C435.817 118.37 433.127 117.91 433.248 115.907C433.314 114.38 435.271 113.814 436.424 113.05C439.498 111.048 441.597 109.187 443.336 106.325C444.069 105.076 444.069 101.764 444.954 100.905C445.571 100.288 447.28 99.7668 448.423 99.16C452.114 97.2689 455.73 96.0249 459.022 94.1186C467.921 89.0418 477.529 79.2826 484.375 72.2489C487.748 68.7851 493.174 62.5402 495.667 58.0399C497.654 54.3991 499.429 45.4996 499.661 40.6857C499.732 39.5378 500 35.71 499.99 35.528C499.99 35.3257 499.975 35.1234 499.889 35.1234C499.803 35.1083 499.697 35.1942 499.666 35.3004C497.305 41.0801 495.035 51.5826 491.333 56.4673C488.577 60.0473 480.31 69.2857 476.234 71.9101L475.678 72.2489C475.804 71.9354 475.992 71.5005 476.083 71.2123C476.265 70.7471 476.356 70.2364 476.416 69.7964C477.367 63.9814 480.077 59.8501 480.077 49.9949C480.077 49.0341 481.857 47.3149 482.317 46.5311C485.452 41.2116 485.806 33.9655 484.927 28.5196C484.345 24.9294 479.096 15.6404 477.139 13.4358C476.973 13.2183 473.933 9.52702 473.499 9.98212C473.306 10.1439 473.635 10.8923 473.792 11.1957" fill="#822B2F"/>
</g>
<mask id="mask9_34_1440" style="mask-type:luminance" maskUnits="userSpaceOnUse" x="0" y="0" width="500" height="495">
<path d="M0 0H499.995V494.62H0V0Z" fill="white"/>
</mask>
<g mask="url(#mask9_34_1440)">
<path d="M375.882 152.001C377.146 151.091 376.337 144.416 376.337 144.229C376.337 144.077 375.437 145.154 375.048 145.761C374.643 146.383 375.022 149.098 375.022 149.179C375.022 149.28 375.048 149.564 375.063 149.685C375.113 149.771 375.022 149.887 374.911 149.923C374.81 149.948 374.39 150.494 373.526 151.177C373.515 151.177 372.494 154.494 375.877 151.996M436.687 136.831C435.14 135.4 435.752 137.357 434.629 137.873C433.011 138.783 431.58 138.318 429.067 137.873C425.098 134.384 419.561 140.199 414.504 137.458C414.049 136.77 414.787 136.245 415.182 135.739C419.682 135.365 416.648 136.74 421.376 135.759C421.376 135.759 423.439 135.516 423.262 134.96C423.1 134.434 419.712 135.855 415.905 134.015C411.859 133.57 414.514 137.453 411.586 138.399C410.459 138.753 411.384 140.598 412.325 140.118C413.26 139.648 414.256 138.298 418.049 139.243C420.061 141.367 421.032 136.604 422.519 141.013C422.822 141.923 423.394 140.927 423.394 140.927C423.272 139.966 423.677 139.638 424.091 139.142C424.582 139.678 424.941 140.624 425.902 140.659L426.589 138.464C427.59 139.729 429.436 140.376 431.262 140.366C433.395 139.314 436.905 139.809 436.697 136.826M414.807 113.985C415.778 114.966 417.7 114.921 418.716 114.238C419.798 113.505 420.314 114.324 421.472 114.147C422.635 113.955 419.197 111.508 418.964 112.539C418.812 113.419 418.185 112.792 417.361 113.156C416.228 113.328 415.723 111.993 414.934 111.508C414.909 110.876 415.273 110.446 415.718 110.021L416.163 109.627C417.098 108.767 417.225 108.125 416.446 107.048C415.586 108.12 414.868 107.877 413.69 107.877C412.274 107.928 411.657 108.484 411.627 109.96C412.052 110.719 413.306 111.083 412.952 111.983C412.345 113.298 410.494 112.817 409.715 112.347C407.329 112.913 404.826 113.257 403.526 115.684C404.406 116.023 404.876 115.937 405.534 115.295L406.105 114.764C406.307 114.562 406.494 114.461 406.747 114.461C409.68 113.424 412.663 116.433 414.818 113.991M388.417 116.741C387.456 116.59 387.037 116.236 386.207 116.266C385.272 116.306 387.841 118.653 388.139 118.764C388.812 119.007 391.254 119.371 391.603 119.371C393.646 119.118 394.05 117.298 394.854 116.266C393.59 117.176 390.602 117.075 388.417 116.741ZM390.94 111.776C389.383 109.601 386.642 111.917 384.943 112.797C385.98 116.286 388.675 111.614 390.94 111.776ZM419.53 122.243C419.217 124.114 418.635 125.717 419.783 127.466C420.4 127.881 423.272 130.298 427.601 129.474C432.111 130.055 429.472 123.421 435.59 124.903C437.36 125.343 436.136 123.724 437.562 122.779C437.562 122.779 438.169 122.172 437.512 121.99C436.844 121.808 436.349 121.661 435.352 123.072C431.661 123.143 427.565 119.583 424.875 123.542C426.306 124.377 428.243 121.808 429.78 123.76C430.043 125.808 428.314 127.471 426.706 127.532C424.734 127.567 424.304 127.471 422.423 126.708C419.824 125.823 421.33 124.028 421.148 122.582C422.352 120.337 424.981 121.115 426.701 119.801C424.101 119.229 420.602 119.538 419.52 122.253M386.642 140.335C386.804 140.254 387.027 140.204 387.239 140.143C386.971 139.789 386.491 139.359 386.111 139.162L381.763 137.19C381.748 137.165 381.727 137.155 381.727 137.104C381.439 136.973 381.171 136.791 380.908 136.583C380.858 136.315 380.772 136.047 380.655 135.764C380.534 135.542 380.372 135.37 380.231 135.147L380.165 134.854C380.114 134.844 380.064 134.844 380.038 134.824C379.973 134.743 379.937 134.647 379.866 134.571L379.826 133.782C380.868 134.096 382.779 135.046 383.578 135.764L384.165 135.739C383.583 134.374 381.823 133.706 380.913 132.573C380.281 131.764 379.973 130.753 379.275 129.979L379.224 129.595C380.145 129.772 381.004 130.333 381.651 130.844L382.228 130.794C381.854 130.126 380.539 128.225 379.598 127.264C379.715 127.011 379.902 126.794 379.942 126.546C380.043 125.57 379.27 123.512 378.688 122.632C377.97 123.118 376.792 124.301 375.988 125.221L376.039 125.322C376.377 126.586 376.332 128.053 375.897 129.368C376.074 136.194 381.52 139.794 385.692 141.478C386.486 141.67 387.295 141.893 388.088 141.969C388.392 141.969 388.695 142.05 388.999 142.12C388.771 141.817 388.554 141.564 388.341 141.24C387.765 140.988 387.396 140.608 386.657 140.345" fill="white"/>
</g>
<mask id="mask10_34_1440" style="mask-type:luminance" maskUnits="userSpaceOnUse" x="0" y="0" width="500" height="495">
<path d="M0 0H499.995V494.62H0V0Z" fill="white"/>
</mask>
<g mask="url(#mask10_34_1440)">
<path d="M398.626 107.574L396.882 106.289C395.243 105.126 393.868 104.737 391.608 104.231C386.642 103.574 383.77 105.364 380.903 108.757L381.459 109.086C382.622 107.215 383.826 107.002 385.767 106.143C386.89 106.001 390.025 105.233 390.91 106.699C388.988 107.119 385.793 107.579 384.984 109.763C386.147 108.863 388.462 108.383 389.939 108.803C390.869 109.258 391.891 110.016 392.922 110.724C393.16 110.916 393.443 111.027 393.706 111.199C393.539 111.27 393.281 111.371 393.216 111.472C392.179 113.788 395.673 113.819 395.602 112.029C396.69 112.357 397.817 112.433 399.102 111.675C400.704 110.299 399.304 108.443 398.626 107.574ZM371.675 110.405C371.498 110.228 371.533 109.586 371.356 109.318C370.193 107.882 368.706 107.457 367.28 106.512C366.153 105.789 365.131 104.59 363.882 103.66C360.515 101.015 356.727 97.6123 352.374 96.5706C351.504 96.3835 349.421 96.2925 349.173 96.5706C348.455 97.4656 350.397 101.779 350.589 102.598C350.771 103.271 350.589 103.979 350.771 104.742C351.529 107.953 353.977 112.898 355.018 115.917C355.736 117.955 355.701 119.386 356.601 120.316C357.916 121.661 362.381 122.814 365.136 123.183C365.824 123.244 367.842 123.507 368.15 123.345C368.58 123.158 369.91 120.185 369.394 119.452C368.555 118.258 364.772 119.73 362.982 119.629C360.318 119.528 361.172 118.344 360.353 115.917C359.407 113.161 357.036 111.204 355.903 108.282C355.625 107.473 355.6 106.31 355.221 105.096C355.099 104.777 353.835 103.003 354.654 102.451C355.119 102.097 357.147 104.454 357.521 105.233C357.693 105.622 358.29 109.632 358.937 109.541C359.63 109.404 359.478 105.04 360.515 105.617C360.945 105.855 360.176 109.581 361.02 110.234C361.541 110.613 362.507 110.051 362.841 109.151C363.26 108.868 362.77 107.665 363.346 107.574C364.53 107.725 363.903 112.898 365.865 112.175C366.704 111.872 365.844 109.723 366.547 109.536C367.24 109.318 368.115 112.57 368.145 112.898C368.175 113.121 368.084 114.284 368.145 114.314C369.5 115.24 369.308 111.508 369.763 111.27C369.9 111.22 372.787 113.717 372.757 113.616C372.858 114.491 370.704 115.285 370.648 115.538C370.168 116.994 372.201 118.435 372.595 118.37C373.525 118.268 373.95 115.77 374.516 115.538C374.936 115.336 375.376 114.274 374.906 113.768C374.39 111.467 372.893 111.574 371.67 110.4M291.159 304.153C290.021 303.658 290.112 305.074 289.06 305.408L288.393 305.544C287.144 305.878 287.199 306.009 287.887 307.759C290.238 308.998 291.356 307.794 292.109 305.332C292.109 305.332 292.296 304.598 291.149 304.153M283.068 308.441C281.875 308.998 281.804 309.898 281.905 311.01L281.956 311.809C282.684 312.467 283.21 312.618 283.948 312.204L284.352 311.91L284.747 311.657C285.333 311.177 284.712 311.582 285.869 310.924C287.032 310.267 286.476 309.741 285.182 309.129C284.575 308.826 283.781 308.709 283.068 308.441ZM301.145 305.933L300.7 306.48L300.235 307.005C299.982 307.339 299.649 307.754 299.259 308.158L300.675 309.397C302.683 308.371 303.709 306.909 303.81 304.866L303.623 304.887C302.475 304.927 301.777 305.387 301.145 305.933ZM326.909 297.813C324.659 298.177 322.732 297.282 321.336 299.466L322.161 300.174C324.163 301.286 325.933 300.144 327.672 299.486C327.925 298.662 327.672 298.404 326.914 297.818M318.97 304.28C318.555 305.064 318.727 305.544 319.137 306.368L319.556 306.014C320.669 305.145 323.197 306.318 323.349 303.552C322.135 303.198 321.266 302.54 319.86 302.975C319.506 303.39 319.177 303.784 318.97 304.29M318.555 308.806C317.23 308.704 315.749 309.524 316.391 310.55C317.352 312.158 319.056 311.329 320.527 311.243L320.75 310.661C320.28 310.378 320.103 310.343 319.637 310.075C319.066 309.645 318.828 309.412 318.555 308.806ZM311.334 299.855C310.758 301.008 310.141 301.534 308.958 301.999L308.23 302.384C307.309 302.829 306.966 302.99 307.001 303.663C307.001 303.815 307.016 303.946 307.062 304.159L307.577 304.482L308.017 304.786C308.27 304.462 308.599 304.189 309.231 304.169H309.999C310.07 304.169 310.136 304.169 310.217 304.189L310.844 304.103C311.572 302.687 313.524 302.46 313.362 301.312C313.337 301.135 313.296 300.877 313.195 300.644C312.983 300.113 311.881 299.886 311.324 299.85M262.619 307.956C264.086 307.996 264.945 305.165 266.533 304.568C268.242 304.098 269.779 303.253 271.296 302.52C271.853 301.544 272.626 301.231 273.456 301.231C274.74 301.231 276.136 301.863 277.572 301.838C278.077 301.838 278.583 301.736 279.19 301.509C279.24 301.509 279.291 301.509 279.341 301.519C280.59 301.504 281.657 301.377 282.507 301.14L283.033 300.958L282.795 301.479C282.37 302.404 281.748 303.248 280.722 303.754C280.287 304.108 279.726 304.234 279.154 304.234C278.143 304.245 276.965 303.901 276.105 303.901C275.094 305.301 272.414 305.327 272.566 307.172C272.591 307.395 272.636 307.658 272.707 307.89C272.935 308.361 273.365 308.548 273.951 308.548C274.153 308.548 274.406 308.522 274.659 308.436C276.313 304.775 282.583 308.497 284.823 303.81C286.239 299.699 291.72 296.72 293.293 296.164C293.363 296.114 293.363 296.038 293.363 295.952C293.373 295.608 292.595 294.956 292.514 294.167C292.489 293.838 292.615 293.499 292.944 293.226L293.702 292.635L293.839 292.695C295.153 293.393 296.18 294.273 297.439 294.652C297.945 294.743 298.39 294.804 298.804 294.804C300.655 294.753 301.383 293.813 301.368 293.135C301.327 292.599 300.862 292.073 299.674 292.073C299.573 292.073 299.436 292.088 299.189 292.114C298.496 291.876 297.555 291.846 296.792 291.608C296.503 291.492 296.276 291.558 296.15 291.153C296.124 290.931 296.23 290.88 296.412 290.698C297.343 290.309 298.283 290.056 299.259 289.636C304.533 287.573 301.737 286.187 303.557 284.595C304.043 284.18 304.68 284.038 305.337 284.038C306.156 284.038 307.057 284.18 307.926 284.18C308.948 284.14 309.924 283.937 310.733 282.916C311.087 282.476 311.471 282.021 311.415 281.51C311.415 281.267 311.339 280.974 311.132 280.691C310.98 280.59 310.854 280.428 310.707 280.266L310.647 280.155V280.054C311.011 277.677 311.8 276.898 311.709 275.164C311.683 274.598 310.824 274.39 310.546 273.495C308.761 274.416 308.634 274.962 307.284 276.1C307.385 277.606 307.668 277.92 308.113 279.346L308.204 279.67L307.881 279.649H307.628C307.223 279.685 307.183 279.685 306.738 280.104L307.127 281.611L306.713 281.51C306.172 281.308 305.681 281.272 305.246 281.272C303.34 281.272 302.162 282.612 301.08 283.942C299.785 285.626 298.728 287.3 296.134 287.32H295.79C295.426 288.23 294.971 288.625 294.061 289.09L293.313 289.459C292.392 289.843 291.391 290.344 291.088 291.446L291.052 291.598H290.891C287.816 291.927 288.888 294.329 287.938 296.376L287.867 296.503L287.73 296.523C287.376 296.538 287.022 296.614 286.759 296.644L285.424 297.625C283.23 298.081 280.317 299.067 277.678 299.112C276.717 299.092 275.842 298.996 275.018 298.708C274.892 298.9 274.624 299.365 274.123 299.395C273.986 299.395 273.86 299.36 273.779 299.304L273.208 299.067C272.894 298.9 272.591 298.829 272.282 298.783C272.019 298.783 271.762 298.885 271.413 299.067C269.38 299.158 269.592 300.558 268.48 301.838C267.812 302.576 267.337 302.935 266.821 302.95C266.043 302.915 265.608 302.207 264.915 301.509C264.136 300.831 263.535 300.533 262.771 300.533C262.397 300.533 261.982 300.614 261.648 300.695C260.46 302.647 258.63 302.616 257.537 303.951C257.537 303.966 257.133 304.791 257.199 305.281C257.234 305.574 257.234 305.625 257.553 305.635C257.73 305.635 258.028 305.569 258.453 305.433C259.1 304.988 260.157 304.27 261.537 304.047L261.628 304.027L261.729 304.098C261.982 304.265 262.124 304.518 262.124 304.755C262.104 305.615 261.249 306.576 261.249 307.359C261.805 307.814 262.26 307.976 262.629 307.976M277.592 263.574C275.66 263.635 274.234 264.434 274.29 265.784C274.31 266.098 274.391 266.457 274.583 266.846L275.175 266.543L275.225 266.512C275.782 266.512 276.1 266.477 276.54 266.335C278.037 264.363 282.224 262.973 282.901 261.946C282.836 261.562 282.79 261.076 282.648 260.803L282.638 260.763C282.436 260.192 282.249 260.04 281.678 260.004C281.394 260.712 279.463 263.605 278.406 263.711C278.229 263.686 278.072 263.66 277.91 263.585H277.582L277.592 263.574ZM275.448 258.998C274.689 259.554 274.254 260.045 273.385 260.546L273.41 260.596C273.663 261.082 274.684 261.319 275.114 261.304H275.129C276.191 261.203 277.673 259.13 277.779 258.573C277.425 258.447 277.137 258.402 276.879 258.402C276.414 258.402 276.019 258.573 275.448 258.998Z" fill="white"/>
</g>
<mask id="mask11_34_1440" style="mask-type:luminance" maskUnits="userSpaceOnUse" x="0" y="0" width="500" height="495">
<path d="M0 0H499.995V494.62H0V0Z" fill="white"/>
</mask>
<g mask="url(#mask11_34_1440)">
<path d="M255.509 296.083C255.509 296.169 255.534 296.265 255.509 296.301C255.974 296.726 256.293 297.019 256.758 296.999C257.011 296.999 257.314 296.908 257.709 296.726C257.845 296.635 258.012 296.534 258.184 296.534C258.422 296.534 258.588 296.635 258.811 296.761C259.681 297.368 260.469 297.52 261.223 297.52C262.072 297.52 262.866 297.246 263.579 297.125C264.353 296.857 265.92 296.796 267.928 296.528L269.061 296.24C270.224 296.139 271.285 295.714 272.064 294.824C272.823 294.369 273.591 294.207 274.365 294.207C275.968 294.187 277.49 294.789 279.017 294.941C280.928 294.47 283.811 292.776 283.669 290.592C283.639 290.273 283.558 289.955 283.436 289.641L283.376 289.49L283.492 289.389C283.947 288.893 284.352 288.175 284.792 287.634L285.237 287.078C285.666 286.592 286.167 286.289 286.774 286.279C286.976 286.279 287.229 286.319 287.456 286.365C287.588 286.405 287.709 286.446 287.861 286.446C289.722 286.461 292.624 282.835 294.404 282.486C296.022 282.163 296.164 281.394 296.654 280.443L297.059 279.998C297.443 279.169 298.171 279.023 299.102 278.977C299.395 277.48 299.971 277.187 301.428 276.57C303.046 275.791 303.693 275.498 304.173 273.875C303.87 272.762 303.314 270.426 302.303 270.558C302.1 270.558 301.898 270.634 301.716 270.669C301.377 271.498 301.413 272.363 301.246 273.177C300.791 274.664 300.234 275.528 298.551 275.655C295.598 278.305 292.988 279.751 290.475 282.618L290.364 282.719L290.238 282.684C289.934 282.643 289.651 282.613 289.358 282.613C286.233 282.613 283.73 286.319 280.944 287.103L280.842 287.138L280.756 287.088C280.504 286.911 280.504 286.683 280.468 286.405C280.504 286.319 280.468 286.243 280.443 286.162V285.935C280.443 285.748 280.433 285.53 280.392 285.247C280.615 284.605 281.04 284.135 281.657 283.958L282.203 283.639C283.366 283.174 283.689 282.709 283.75 281.531C283.649 281.344 283.664 281.313 283.396 281.313C282.688 281.283 280.514 282.264 274.729 285.844L274.603 285.93L274.491 285.844C274.072 285.525 274.021 285.075 273.783 284.544C273.581 284.216 273.45 284.104 273.192 283.953C272.474 284.195 271.842 284.297 271.442 284.711L271.331 284.802L271.199 284.752C270.375 284.398 269.748 284.246 269.253 284.246C266.724 284.155 267.18 288.2 263.974 288.367C263.64 288.367 263.251 288.347 262.811 288.2C262.103 287.882 261.825 287.361 261.799 286.87C261.774 286.112 262.168 285.374 262.143 284.964C262.118 284.711 262.042 284.539 260.854 284.539H260.318C259.883 284.565 259.913 284.64 259.428 284.878L258.477 285.369C257.87 285.773 257.329 286.178 256.996 287.174C255.802 288.337 253.274 287.856 253.426 289.844L253.486 290.319C253.689 290.754 254.032 290.845 254.614 290.845H255.069C255.539 290.602 256.247 290.016 257.006 289.985C257.461 289.985 257.966 290.253 258.118 290.708L258.927 290.961L260.05 290.845C260.621 290.187 261.314 289.904 261.971 289.904C263.301 289.904 264.611 290.713 265.749 290.713C266.482 290.688 267.149 290.41 267.812 289.348L267.943 289.146L268.145 289.298C268.54 289.581 268.863 289.651 269.126 289.651C269.865 289.672 270.492 288.726 271.023 288.008C271.245 287.654 271.498 287.427 271.958 287.234C274.881 287.72 278.218 286.911 280.908 289.222L280.994 289.303L281.004 289.404L280.994 289.469C280.994 291.34 277.996 291.573 276.888 292.149L276.711 292.23L276.58 292.048C276.125 291.325 275.659 291.153 275.164 291.153C274.84 291.153 274.491 291.254 274.203 291.376L273.546 291.679C273.252 291.73 273 291.78 272.787 291.78C272.383 291.795 272.059 291.649 271.665 291.335C269.49 291.704 269.642 292.716 268.075 294.066C267.721 294.152 267.387 294.182 267.078 294.182C265.056 294.197 264.161 292.878 262.173 292.918C261.754 292.918 261.289 292.984 260.874 293.034C260.136 293.96 259.291 294.273 258.204 294.743L258.052 294.784C256.687 295.209 255.372 295.279 255.499 296.099M253.117 306.657C253.077 305.848 252.541 304.533 252.283 303.663L249.426 305.534C249.082 306.869 248.091 307.506 249.618 308.72L250.174 308.214C250.457 308.204 250.73 308.437 250.933 308.548C252.197 308.376 253.147 307.896 253.117 306.657ZM250.2 300.119L250.786 300.508C251.636 301.14 252.338 301.266 253.264 300.589C253.264 299.689 252.885 299.203 252.151 298.637L251.62 298.222C250.609 297.605 250.346 297.297 250.619 296.23C249.021 295.912 248.677 296.533 247.605 297.292C247.302 297.504 247.019 297.616 246.766 297.697C246.387 299.497 245.831 300.387 246.463 302.232L248.455 300.382C249.031 299.502 249.396 299.598 250.2 300.119ZM248.597 291.816C249.608 291.836 250.129 292.589 250.619 292.655C251.004 292.119 251.403 291.795 251.403 291.866C251.378 291.583 251.084 291.674 250.918 291.184C250.69 290.541 250.538 290.112 250.538 289.667C250.518 289.363 252.541 287.305 250.093 288.276C249.805 288.397 248.298 288.782 248.298 288.782C245.74 289.49 245.608 290.279 243.99 292.18L243.965 292.21C243.823 292.352 243.783 292.463 243.783 292.463C243.783 292.514 243.884 292.701 244.359 292.893L244.915 292.883C245.168 292.883 245.37 292.883 245.558 292.782L245.831 292.69C245.841 292.69 248.47 291.811 248.592 291.831M249.825 282.142L249.749 282.244L249.588 282.264C248.308 282.375 247.287 283.037 246.336 283.831L245.376 284.742C245.598 285.364 245.679 285.626 245.881 286.107L245.901 286.132C246.073 286.805 246.134 287.209 247.216 286.587C247.975 286.162 247.873 285.849 247.873 285.849C247.873 285.849 249.128 284.939 250.24 284.939C250.644 284.939 251.504 284.585 251.504 284.585C252.01 284.039 252.111 284.398 252.298 283.553L252.485 282.704C252.51 282.4 253.077 281.338 252.571 281.338L251.196 281.419C250.614 281.409 250.129 281.596 249.825 282.142ZM252.475 275.574L252.161 275.018C251.59 274.168 251.115 273.819 250.402 273.804C250.179 273.804 247.398 276.939 245.952 278.33H245.901C245.416 278.658 244.991 279.154 244.546 279.766C244.379 279.918 244.263 279.998 243.975 280.145L243.277 280.428C242.417 280.934 242.367 281.172 242.291 281.88L244.769 281.399C247.348 279.048 251.408 279.063 252.475 275.574ZM281.459 265.37C280.018 266.31 279.234 268.909 276.994 269.688L278.471 270.785C281.389 270.148 284.812 270.138 286.025 267.322L287.502 265.365L287.679 265.339C287.719 265.339 287.881 265.304 288.063 265.304C288.063 265.304 288.104 265.274 288.139 265.274C288.518 265.274 288.483 265.395 288.609 265.592L289.014 265.704C289.605 265.42 289.479 265.218 289.479 264.91C289.479 264.692 289.418 264.429 289.337 264.02V263.605C288.427 262.978 287.633 262.72 286.961 262.756C285.494 262.756 283.108 265.486 282.855 267.327L282.825 267.504L282.622 267.574C282.471 267.635 282.319 267.645 282.167 267.645C281.651 267.665 282.203 266.973 281.864 266.806L281.813 266.755L281.783 265.38H281.449L281.459 265.37ZM272.777 255.929L272.899 255.838C274.34 254.994 276.676 254.503 276.742 253.522C276.317 253.128 275.781 252.946 275.174 252.951C273.874 252.961 272.57 253.962 272.615 255.277C272.615 255.449 272.656 255.6 272.701 255.767L272.777 255.929ZM246.695 270.699C246.705 270.902 246.655 271.104 246.594 271.347C246.19 272.368 245.724 273.43 245.709 273.905C246.276 273.703 248.025 272.489 248.207 271.933L248.495 271.306C248.748 270.669 249.219 270.143 249.997 269.941H250.129C250.306 269.956 250.452 269.956 250.584 269.956C251.464 269.936 252.212 269.612 252.859 269.198L253.603 268.682C254.513 268.014 255.372 267.499 256.485 267.488C256.571 267.488 256.677 267.478 256.839 267.488H256.92L256.97 267.554C257.486 267.959 257.941 268.136 258.325 268.126C258.69 268.126 259.059 267.964 259.473 267.6L260.105 266.927C260.636 266.32 261.091 265.855 261.784 265.855C262.214 265.855 262.624 266.022 263.165 266.371C264.692 265.815 265.46 265.147 266.365 263.994L266.987 262.882L267.154 262.862C267.24 262.811 267.326 262.811 267.442 262.811C268.059 262.796 268.201 263.428 268.216 263.762C268.216 263.949 268.216 264.156 268.226 264.338C268.287 264.894 268.348 265.35 268.868 265.633C269.071 265.709 269.243 265.734 269.394 265.734C269.748 265.734 270.026 265.572 270.32 265.178C270.76 264.682 270.825 264.601 271.296 264.227C271.083 264.01 270.84 263.782 270.79 263.367C270.775 263.024 270.972 262.644 271.336 262.275C271.781 261.891 271.872 261.618 271.862 261.213C271.862 261.102 271.847 260.95 271.786 260.778C271.119 260.526 270.097 260.222 269.167 260.247C268.393 260.273 267.741 260.47 267.382 261.057L267.306 261.142L267.205 261.173C264.692 261.891 262.927 264.93 259.888 265.147L259.837 265.168L259.726 265.132C258.442 264.409 257.38 264.181 256.439 264.181C254.912 264.181 253.719 264.95 252.561 265.875L251.186 267.038C250.72 267.428 250.235 267.812 249.709 268.085C248.89 268.641 247.904 268.692 247.054 268.727C246.776 268.727 246.498 268.677 246.255 268.707H246.144C245.588 268.722 245.365 268.859 245.36 268.889V268.925C245.183 269.127 246.508 269.43 246.685 270.664M248.748 264.662L249.79 264.126C251.964 261.699 254.948 261.072 257.542 259.802L257.693 259.737L257.82 259.808C258.325 260.06 258.73 260.131 259.084 260.076C260.115 260.025 260.884 259.266 262.007 259.115C262.492 259.064 263.008 259.241 263.513 259.656C263.918 259.772 264.292 259.792 264.651 259.747C265.951 259.615 266.775 258.736 267.721 257.573L268.135 256.986C268.358 256.708 268.666 256.531 268.611 256.061C268.595 256.035 268.595 256.01 268.595 256C268.262 256 267.412 256.592 266.775 256.688C266.608 256.703 266.401 256.678 266.219 256.506V256.495C266.092 256.379 265.981 256.192 265.976 256.005C265.925 255.332 266.502 254.943 267.351 254.539C268.99 253.907 270.967 252.789 270.729 252.283C270.719 252.182 270.537 252.071 269.951 252.152C269.318 252.238 268.504 252.794 267.716 252.86C267.336 252.9 267.139 253.553 266.78 253.467L266.224 253.669L266.143 253.659C265.814 253.568 265.536 253.558 265.334 253.578C263.781 253.628 264.12 255.246 263.347 256.637L263.225 256.854L263.023 256.784L262.568 256.632H262.548C262.224 256.672 261.85 256.683 261.708 256.708C256.374 260.622 251.327 255.656 247.277 263.398C247.216 263.468 247.206 263.534 247.216 263.615C247.226 263.919 248.025 264.5 248.748 264.642M271.043 268.014C270.84 267.939 270.638 267.893 270.476 267.913C270.224 267.888 270.021 267.964 269.819 268.095L269.728 268.161L269.642 268.186L269.657 268.201C269.607 268.227 269.541 268.252 269.47 268.303C269.339 268.389 269.227 268.469 268.965 268.505L268.843 268.475C268.59 268.384 268.398 268.222 268.302 268.055L266.118 270.189H266.017C264.823 270.32 263.367 271.149 261.921 271.2C261.314 271.225 260.657 271.028 260.1 270.558C259.62 270.457 259.215 270.406 258.836 270.406C256.864 270.406 255.853 272.039 253.729 272.798C253.881 273.587 254.032 273.774 254.553 273.774C254.776 273.809 255.059 273.723 255.448 273.622L256.379 273.278L256.51 273.481C256.697 273.723 256.803 273.986 256.829 274.209C256.829 274.755 256.495 275.139 256.095 275.625L255.57 276.13C255.064 276.686 254.781 277.177 254.801 277.758C254.791 277.819 254.831 277.935 254.831 278.026C255.069 278.193 255.246 278.239 255.372 278.239C255.726 278.239 256.207 277.784 256.687 277.288L257.365 276.631C257.542 276.358 257.845 276.226 258.073 276.206C260.181 275.832 261.309 274.815 263.342 274.123C263.291 273.9 263.271 273.668 263.251 273.455C263.24 272.965 263.291 272.56 263.569 272.252C263.837 271.948 264.277 271.862 264.798 271.837C265.071 271.837 265.374 271.862 265.749 271.913L267.088 272.095C267.544 272.171 267.989 272.227 268.413 272.206C269.147 272.206 269.829 272.044 270.355 271.549L270.557 271.397L270.77 271.584C271.326 271.979 271.811 272.141 272.322 272.115C272.727 272.115 273.131 272.014 273.536 271.837C274.537 271.483 274.992 271.352 275.659 271.342C275.892 271.342 276.206 271.352 276.57 271.382C276.039 270.533 275.467 270.179 274.092 270.128C273.788 270.34 273.546 270.467 273.283 270.467C272.555 270.416 272.408 269.779 272.15 269.319C271.918 268.763 271.644 268.287 271.068 268.035M317.538 291.042C317.225 291.224 316.866 291.568 316.527 291.821C315.93 292.225 315.753 292.124 315.075 292.023C315.237 293.176 315.515 293.843 316.845 293.965C317.619 294.106 318.14 294.036 318.954 294.293C319.192 293.838 319.51 293.55 319.965 293.171C320.178 292.802 320.532 292.433 320.471 291.856C319.571 290.511 318.701 290.213 317.538 291.042ZM322.367 277.506V277.47C322.064 276.206 321.775 276.105 320.617 276.09L319.272 276.307C319.02 276.307 317.149 277.47 316.86 277.521L316.188 278.583C315.794 279.26 315.44 280.039 315.45 280.742C315.48 281.045 315.551 281.323 315.743 281.662L315.844 281.778L315.753 281.991C315.131 282.734 314.211 282.345 313.71 283.068C313.68 283.235 313.66 283.361 313.66 283.472C313.68 283.892 313.877 284.13 314.368 284.534L315.202 285.202L315 285.434C314.271 286.228 313.245 286.218 312.492 286.329C311.935 286.532 311.905 286.683 311.905 286.835C311.875 287.204 312.537 287.937 312.952 288.337C313.457 288.003 314.089 287.715 314.772 287.7C315.126 287.7 315.515 287.76 315.854 287.952C317.7 287.548 318.443 286.992 318.372 286.233C318.362 285.879 318.19 285.424 317.755 284.817C317.265 284.079 316.704 283.422 316.663 282.582C316.613 282.067 316.85 281.521 317.391 280.974C317.422 280.6 317.685 280.14 318.271 280.14L319.131 279.518C319.768 279.336 322.367 278.138 322.367 277.516" fill="white"/>
</g>
<mask id="mask12_34_1440" style="mask-type:luminance" maskUnits="userSpaceOnUse" x="0" y="0" width="500" height="495">
<path d="M0 0H499.995V494.62H0V0Z" fill="white"/>
</mask>
<g mask="url(#mask12_34_1440)">
<path d="M274.016 277.343L273.784 277.51L271.963 275.406C271.634 275.366 271.296 274.977 270.982 274.992C269.096 275.022 267.493 275.801 266.714 277.217L266.598 277.449L266.411 277.323C266.173 277.262 265.986 277.212 265.824 277.222C265.147 277.207 264.56 277.778 263.777 278.117L263.65 278.147L263.549 278.066C263.069 277.763 262.7 277.672 262.386 277.682C261.688 277.682 261.071 278.289 260.429 278.997C260.025 279.452 259.696 279.644 259.332 279.644C259.039 279.644 258.796 279.583 258.457 279.492C259.049 281.211 260.176 281.282 262.614 281.677C264.156 281.414 266.406 280.867 267.225 279.664L267.276 279.588L267.392 279.578C267.473 279.558 267.544 279.558 267.63 279.558C268.995 279.558 270.33 280.569 271.523 280.544C272.014 280.529 272.514 280.367 273.005 279.887L273.106 279.785H273.207C273.399 279.821 273.571 279.861 273.763 279.861C274.471 279.821 275.144 279.568 275.786 279.239L276.544 278.754C277.015 278.461 277.445 278.258 277.889 278.228C278.425 278.228 278.916 278.511 279.447 278.997C279.922 279.148 280.428 279.239 280.984 279.219C282.299 279.199 283.715 278.663 284.741 278.172L285.358 277.737C286.015 276.944 286.582 276.119 287.047 275.209L287.098 275.108L287.214 275.078C287.366 275.057 287.497 275.027 287.654 275.027C288.604 275.027 290.384 274.562 291.365 274.521C291.568 274.521 291.79 274.506 291.982 274.461C294.177 273.768 296.751 271.225 297.216 269.88C297.216 269.88 295.8 270.001 294.92 269.981C294.06 270.006 286.764 271.816 282.339 275.826C281.53 276.382 280.696 276.585 279.912 276.585C278.8 276.615 277.738 276.332 276.706 276.372C275.796 276.372 274.936 276.585 274.026 277.353M323.227 282.43L322.367 282.258C321.406 282.056 321.634 282.086 320.618 282.814C320.466 283.209 320.415 283.532 320.466 283.775C320.466 284.281 320.749 284.635 321.75 285.09L321.872 285.14L321.922 285.257C321.922 285.297 322.023 285.509 322.023 285.782C322.074 286.263 321.897 286.986 321.113 287.502C321.437 288.665 321.882 288.933 322.458 288.933C322.974 288.953 323.277 288.65 323.99 288.205C324.329 287.916 323.95 287.739 324.304 287.547C324.405 286.976 324.633 286.546 324.617 286.182C324.547 284.528 325.108 282.764 323.227 282.43ZM297.453 266.901C299.527 265.829 303.107 267.073 302.889 263.326C300.235 261.506 297.357 263.225 296.225 265.364C295.795 266.173 296.215 266.841 296.897 267.149L297.453 266.901ZM292.988 263.802C295.178 263.144 295.987 260.07 295.294 259.301C293.524 259.251 293.403 259.453 292.22 260.575L291.775 260.945C291.193 261.324 291.269 260.864 290.733 261.602L290.43 262.527L290.733 263.114C291.153 263.933 291.871 264.327 292.988 263.807M283.437 257.911C283.467 258.952 284.215 258.851 285.661 259.306V259.296C286.167 259.448 286.405 259.716 286.592 260.004C287.492 258.558 288.124 257.789 289.651 256.834L289.59 256.793C289.135 256.49 288.62 256.323 288.023 256.323C286.587 256.363 284.873 257.162 283.447 257.4C283.437 257.582 283.437 257.759 283.437 257.911ZM285.484 252.576V252.389C285.469 252.151 285.363 251.984 285.039 251.752L284.569 251.413C284.519 251.377 284.392 251.312 284.215 251.16C284.155 251.145 284.064 251.145 284.003 251.109C283.861 251.109 283.785 251.16 283.578 251.312L283.31 251.438L283.209 251.499L283.072 251.438C282.885 251.377 282.698 251.367 282.536 251.352C281.373 251.302 279.24 254.958 278.774 256.196C279.093 256.222 279.381 256.227 279.664 256.227C281.368 256.207 284.291 253.749 285.484 252.576ZM292.786 254.902C293.15 254.963 293.585 255.038 294 255.124C294.991 254.629 295.097 253.759 295.062 252.788L295.046 252.197C295.168 251.59 294.288 250.892 293.621 251.185C292.549 251.499 291.836 252.677 291.517 253.602L291.254 254.437L291.102 254.993C291.77 254.856 292.053 254.791 292.786 254.902ZM327.747 289.828C327.626 290.637 327.105 290.95 326.584 291.163C327.211 291.587 327.849 291.946 328.304 292.022C328.875 292.073 329.113 291.972 329.34 290.89C329.36 290.789 329.371 290.637 329.376 290.475C329.446 289.828 329.401 289.16 329.477 288.553C329.578 287.861 329.891 287.188 330.66 286.703L329.725 285.565C328.208 285.737 327.737 286.111 327.621 286.87C327.57 287.173 327.57 287.578 327.672 288.068L327.707 288.877C327.788 289.14 327.833 289.393 327.788 289.636L327.758 289.767V289.838M322.812 293.448L322.489 293.802L322.145 294.358C321.715 295.147 321.674 295.648 320.86 295.81C321.103 296.204 321.224 296.229 321.836 296.265H322.023L322.377 296.229C323.829 295.602 325.528 295.117 325.401 293.893C325.401 293.691 325.361 293.448 325.26 293.211C324.804 292.968 324.44 292.887 324.167 292.877C323.647 292.887 323.252 292.776 322.812 293.448ZM299.653 257.784C300.437 257.253 301.119 256.758 301.069 255.711C300.199 254.548 299.072 254.609 298.035 255.392C297.125 255.979 296.442 256.874 295.947 257.89L297.413 258.664C298.192 258.381 298.884 258.219 299.653 257.784ZM304.507 261.526C304.659 263.063 305.114 264.226 307.036 264.509C307.506 263.164 307.309 263.448 308.628 262.932L309.513 262.831C309.817 262.76 310.565 262.527 310.788 262.36C311.43 261.87 311.764 260.656 311.764 259.903C309.043 258.76 306.368 259.23 304.512 261.521M305.964 272.332L306.859 271.624C307.83 270.598 310.378 271.402 310.702 268.666C308.644 266.502 305.696 268.277 305.124 270.213C306.368 271.189 305.276 271.73 305.964 272.337M318.575 296.69C316.896 294.465 314.378 296.052 313.498 297.579C313.589 298.631 313.913 299.314 315.192 299.37C316.001 298.227 317.902 299.041 318.575 296.69ZM313.331 291.866L313.321 291.835C313.321 291.719 313.21 291.365 313.078 290.885C312.239 289.823 310.616 290.541 309.25 290.05C308.578 290.48 304.517 292.513 304.71 295.319C304.75 295.8 304.346 295.8 304.659 296.27L304.75 296.442L304.649 296.543C303.84 297.731 302.54 298.04 301.312 298.475H301.21L301.119 298.424C300.376 298.07 299.774 297.908 299.274 297.908C297.959 297.918 297.17 298.995 296.442 299.991L296.103 300.507L295.815 300.983C295.309 301.519 294.991 301.792 294.602 301.792C293.878 301.741 294.263 301.185 293.509 300.649C293.206 300.765 292.093 301.23 292.154 301.873C292.154 301.953 292.154 301.994 292.144 301.974L292.817 302.378C293.044 302.894 293.595 304.35 294.672 304.31C294.758 304.325 294.89 304.31 295.117 304.269C295.481 304.391 295.775 304.411 296.027 304.411C297.62 304.462 297.757 302.439 298.824 301.225L298.925 301.144L299.026 301.18H299.668C302.985 301.149 303.916 298.97 307.44 298.313L308.325 297.514C308.012 296.452 308.173 295.977 307.577 295.314L307.526 295.213L307.541 295.112C307.754 293.812 309.21 293.772 309.933 293.433H309.958C310.383 293.281 310.651 292.978 310.848 292.735C310.848 292.194 311.152 291.825 311.607 291.825H311.819L312.401 291.81C312.775 291.825 313.018 291.861 313.2 291.861H313.336M322.221 238.797C322.221 238.797 322.241 238.797 322.251 238.776C322.63 238.357 323.075 237.932 323.667 237.598L323.768 237.573C324.021 237.512 324.258 237.411 324.577 237.32C326.448 236.815 327.333 236.4 327.955 234.438C327.661 233.947 327.717 233.947 327.651 233.983L327.55 233.993C327.474 233.993 327.449 233.952 327.429 233.978C327.302 233.958 327.125 233.958 326.933 233.958C325.062 235.07 322.281 236.648 321.927 238.579C321.927 238.65 321.998 238.665 321.998 238.67C322.109 238.741 322.2 238.822 322.215 238.807M331.226 249.481V249.471C331.833 248.394 331.818 248.167 332.035 246.993L332.005 246.184C331.601 245.881 331.236 245.739 331.044 245.739C330.913 245.739 330.862 245.76 330.802 245.83C329.618 247.014 328.663 248.698 328.789 250.816C328.84 252.131 328.819 251.828 329.153 252.839L329.81 252.181C329.912 250.513 330.493 250.917 331.226 249.481ZM317.665 273.652C317.968 273.262 317.735 272.994 318.403 272.59C319.01 272.226 319.222 271.806 319.92 271.589C319.702 271.402 319.49 271.235 319.252 271.063L318.823 270.658C318.428 270.405 318.115 270.168 317.67 270.168C316.446 270.471 315.763 271.159 315.025 272.14C314.57 272.671 314.61 272.777 314.504 272.989C314.373 273.202 314.216 273.343 313.832 273.53C314.742 274.248 315.51 274.744 316.107 274.729C316.562 274.729 317.032 274.496 317.665 273.652ZM312.057 267.058L312.502 267.665C312.694 267.918 312.881 268.17 313.109 268.443C314.095 269.435 314.069 268.828 315.333 268.899C315.333 268.899 314.939 268.09 315.445 267.22C315.859 266.532 316.102 265.956 316.572 265.364L316.218 264.909C315.43 263.731 314.787 263.316 313.589 263.882C312.992 265.071 311.415 265.298 312.062 267.053M303.683 255.519C303.268 256.156 303.633 256.616 304.214 256.869L304.745 256.636C306.575 255.863 309.736 256.737 309.599 253.926C307.258 252.561 304.674 253.906 303.683 255.514M306.53 248.606C307.46 248.05 308.214 247.524 308.173 246.382C307.162 245.168 305.913 245.219 304.745 246.048C303.713 246.69 302.95 247.666 302.353 248.778L304.012 249.567C304.902 249.244 305.665 249.062 306.54 248.606M314.449 253.992C314.737 253.162 314.6 253.334 315.46 253.021L316.006 252.95C316.193 252.9 316.663 252.798 316.79 252.672C317.215 252.379 317.422 251.671 317.427 251.19C315.723 250.508 314.024 250.806 312.861 252.171C312.942 253.117 313.22 253.81 314.449 253.992ZM330.119 260.211C330.625 259.832 330.862 258.912 330.862 258.33C328.789 257.461 326.741 257.825 325.32 259.564C325.421 260.742 325.775 261.637 327.242 261.87C327.606 260.818 327.444 261.046 328.465 260.656L329.153 260.555C329.371 260.505 329.962 260.353 330.114 260.201M316.036 256.277C315.51 257.187 314.165 257.405 314.701 258.755L315.071 259.246C315.222 259.412 315.374 259.615 315.601 259.802C316.431 260.596 316.431 260.125 317.498 260.181C317.498 260.181 317.164 259.524 317.589 258.902C317.958 258.32 318.16 257.89 318.565 257.415L318.271 257.061C317.599 256.151 317.058 255.787 316.031 256.272M322.676 263.893L322.458 262.153C322.519 261.213 321.548 261.233 321.027 261.43C321.012 262.188 320.876 262.305 320.031 262.406L319.576 262.507C319.409 262.568 319.242 262.568 319.045 262.638C318.6 262.891 318.423 263.205 318.337 263.7C319.571 264.823 321.371 264.358 322.676 263.893ZM321.437 269.475L321.872 269.44C322.398 268.833 325.765 269.743 324.855 267.67C323.965 266.532 322.529 267.351 321.24 267.452C320.719 267.907 320.855 269.02 321.437 269.475ZM343.291 232.122C343.008 232.552 342.821 232.931 342.331 232.992C339.327 234.711 338.083 235.151 338.083 235.151C338.098 235.363 337.653 236.547 337.588 236.789L336.637 237.664C336.394 238.271 336.248 238.66 336.273 239.08C336.283 239.343 335.792 239.06 335.909 239.419V239.53C335.838 240.4 334.862 240.531 334.493 240.895L333.36 241.568C332.612 242.205 332.03 242.832 332.03 242.832L332.748 243.429C332.748 243.429 335.701 242.24 337.891 241.588C338.649 241.512 338.953 240.46 339.898 239.909L339.984 239.859H340.085C340.46 240.036 340.348 240.162 340.424 240.248C340.475 240.364 340.515 240.501 340.566 240.663L340.738 241.33L340.788 241.446L340.748 241.517C340.849 242.377 344.014 243.54 344.869 243.631C345.466 243.752 345.992 243.782 346.497 243.782C348.651 243.752 350.087 242.67 350.987 240.546C350.482 240.395 350.052 240.293 349.653 240.319C349.223 240.319 348.793 240.42 348.302 240.673C347.67 240.956 347.215 241.315 346.512 241.315C346.108 241.335 345.678 241.194 345.172 240.9L344.884 240.759L345.016 240.47C346.356 237.811 346.978 237.74 349.996 236.966C351.599 236.789 351.63 235.5 351.665 234.094C351.175 233.917 350.719 233.841 350.335 233.841C348.075 233.831 346.866 236.253 344.672 237.497C344.561 237.558 344.449 237.578 344.343 237.578C343.696 237.528 342.386 237.214 342.199 236.188C342.199 236.076 342.199 235.975 342.235 235.904C342.472 235.196 343.61 234.418 344.727 233.437C345.88 232.527 346.942 231.429 346.892 231.111C346.892 231.08 346.902 231.08 346.892 231.05C346.892 230.949 346.79 230.817 346.573 230.716C346.371 230.635 346.148 230.585 346.118 230.565C345.85 230.534 345.627 230.504 345.435 230.504C344.763 230.504 344.298 230.929 343.767 231.515L343.261 232.137L343.291 232.122Z" fill="white"/>
</g>
<mask id="mask13_34_1440" style="mask-type:luminance" maskUnits="userSpaceOnUse" x="0" y="0" width="500" height="495">
<path d="M0 0H499.995V494.62H0V0Z" fill="white"/>
</mask>
<g mask="url(#mask13_34_1440)">
<path d="M327.591 230.074L327.667 230.014H328.597C328.709 230.014 328.597 230.014 328.835 229.963C329.159 230.014 328.683 230.636 329.24 231.005C329.305 231.065 329.371 231.096 329.492 231.065C330.135 231.131 331.48 229.766 332.628 228.911C332.87 228.744 333.133 228.638 333.386 228.638C334.053 228.638 334.397 229.164 334.6 229.296L334.802 229.427L334.721 229.67C334.139 231.49 334.079 232.663 331.889 233.381L331.146 234.16C331.136 234.575 331.02 235.273 330.64 236.006C330.64 236.006 329.907 236.613 328.709 237.927C327.52 239.176 326.332 240.749 326.433 241.148L326.443 241.234C326.443 241.234 326.443 241.244 326.534 241.244C327.227 241.285 329.063 240.172 330.645 239.272L330.686 239.222H330.746C334.144 238.701 333.31 234.848 335.267 232.8L335.449 232.598L338.928 229.503C338.979 229.25 339.095 228.972 339.302 228.795C339.843 228.33 340.379 228.026 340.718 227.243C340.753 227.177 340.769 227.076 340.753 226.949C340.743 226.125 340.844 224.446 339.909 222.904L339.843 222.803L339.879 222.677C340.02 222.186 340.485 222.05 340.91 222.05L341.937 221.473C342.624 221.433 343.019 221.17 343.342 220.639C343.808 220.057 344.081 219.961 344.035 219.526C344.005 218.869 343.53 218.313 341.79 218.227H340.86C340.738 218.378 340.536 218.545 340.354 218.682C340.051 219.188 339.687 219.764 339.039 220.133L338.979 220.174H338.877C338.786 220.174 338.69 220.153 338.635 220.174C337.962 220.174 338.18 221.22 337.907 221.321C337.189 221.802 337.189 221.584 337.168 222.044C337.199 222.803 336.865 223.273 336.804 223.339L337.563 225.109C337.426 225.483 337.168 226.034 336.536 226.196C336.096 226.206 334.236 224.765 334.059 225.377C333.189 228.067 330.317 227.956 327.96 228.244C325.569 228.648 324.188 228.583 324.34 232.476C324.325 232.501 324.34 232.501 324.34 232.501H324.375C326.474 232.476 326.256 231.44 327.611 230.064M335.302 292.017C334.595 291.487 333.482 292.432 333.482 292.432C331.399 293.646 329.265 292.513 329.7 295.911C331.712 296.887 332.612 294.96 334.15 294.268L334.62 294.647C335.242 295.082 335.712 294.96 336.359 294.723L336.258 293.671C336.248 293.671 336.031 292.508 335.302 292.017ZM326.858 302.965L326.327 302.995C326.757 304.027 327.106 304.462 328.37 304.522C329.265 304.639 329.432 304.558 329.958 305.139L330.271 304.922C331.141 304.265 331.293 302.96 331.222 302.055C329.27 301.322 328.506 302.899 326.858 302.975M268.09 311.273C268.626 310.277 268.834 310.11 270.088 310.616C272.136 309.513 271.008 308.315 271.504 307.051L270.629 306.661C269.193 310.029 264.561 307.713 262.528 311.187C261.906 312.957 262.265 315.556 263.155 317.053L264.662 317.508C266.103 315.687 264.308 313.564 265.456 312.552C267.084 313.043 267.721 311.996 268.085 311.278M253.639 311.637L253.224 312.021C252.921 312.416 252.567 312.699 252.162 313.058C252.921 313.614 253.411 313.882 254.119 313.28C254.438 313.043 254.802 312.689 255.282 312.704C256.056 312.335 256.688 312.33 256.314 311.187C255.1 310.363 254.392 310.853 253.634 311.642M273.324 313.943L273.89 313.862L274.467 314.064C275.175 314.58 274.942 314.893 274.821 315.237L276.555 315.146C277.238 314.772 277.374 314.236 277.314 313.614C277.288 313.346 277.263 313.139 277.263 312.947L277.162 312.542L277.192 312.203C276.757 312.087 276.292 311.93 275.857 311.748L274.912 311.415C273.936 311.076 273.304 310.879 272.247 310.868L271.832 313.194C272.136 313.801 272.616 314.004 273.314 313.953M270.052 314.934C267.332 316.628 268.171 318.691 267.524 321.255C269.178 322.104 269.865 321.872 270.143 320.228L270.255 319.434C270.305 319.242 270.416 319.065 270.492 318.878C270.775 318.221 271.124 318.13 271.686 317.943C271.473 316.764 271.306 315.596 270.047 314.929M394.798 175.746C394.899 175.848 394.95 175.898 395.051 175.964C395.223 175.999 395.223 175.999 395.289 175.999C395.289 175.999 395.324 175.989 395.349 175.999H395.461L395.471 175.989H395.542C395.855 175.888 395.683 175.888 395.744 175.837C395.759 175.802 395.759 175.736 395.845 175.534C395.855 175.332 395.885 175.089 395.931 174.826C395.997 174.341 397.018 173.092 397.018 172.718C397.018 172.667 397.089 172.667 396.937 172.551C396.871 172.485 396.34 171.994 396.209 171.994C395.754 172.045 394.995 172.247 394.667 172.485C394.262 172.839 394.242 174.28 394.227 174.295V174.346C394.227 174.346 394.166 174.482 394.126 174.629V174.664C394.161 174.937 394.566 175.312 394.581 175.397C394.672 175.529 394.732 175.696 394.798 175.746ZM373.47 167.12C373.014 167.14 372.782 167.363 372.448 167.651C372.064 168.02 372.013 169.547 372.003 169.572C372.003 169.572 371.953 169.744 371.922 169.906V169.947C371.948 170.25 372.367 170.634 372.377 170.73C372.448 170.892 372.554 171.024 372.59 171.084C372.691 171.201 372.767 171.286 372.863 171.352C373.014 171.388 373.025 171.388 373.116 171.388H373.343C373.672 171.286 373.51 171.246 373.545 171.236C373.576 171.17 373.576 171.084 373.636 170.892C373.677 170.68 373.687 170.417 373.722 170.118C373.813 169.613 374.82 168.263 374.82 167.878C374.82 167.838 374.299 167.828 374.188 167.676C374.137 167.651 373.571 167.12 373.47 167.12ZM412.188 178.912C412.289 179.468 412.264 180.884 412.355 181.258C412.385 181.309 412.355 181.309 412.476 181.43C412.527 181.496 413.538 181.905 413.624 181.905C413.917 181.779 414.018 181.541 414.17 181.223C414.357 180.747 414.018 179.215 414.018 179.215V179.185C414.018 179.185 414.018 179.013 413.998 178.831V178.79C413.912 178.502 413.017 178.163 412.961 178.083C412.891 177.956 412.79 177.789 412.739 177.749C412.638 177.663 412.577 177.612 412.496 177.577C412.385 177.552 412.37 177.552 412.345 177.552C412.314 177.577 412.314 177.577 412.304 177.577H412.218L412.168 177.607C411.955 177.749 412.066 177.724 412.051 177.784C412.051 177.85 412.061 177.936 412.061 178.148C412.112 178.361 412.163 178.629 412.178 178.907M390.318 170.927C390.419 171.079 390.551 171.231 390.657 171.332C390.809 171.433 390.874 171.383 390.935 171.433H391.294C391.517 171.347 391.471 171.332 391.516 171.302C391.552 171.216 391.516 171.226 391.516 171.216C391.567 171.079 391.527 170.129 391.688 168.94C391.972 167.292 393.028 164.93 393.039 164.217C393.028 164.167 393.039 164.126 392.963 164.025C392.887 163.934 392.735 163.858 392.578 163.889C392.25 163.889 392.052 164.025 391.805 164.192C391.567 164.329 391.34 164.546 391.097 164.839C390.768 165.193 390.419 165.901 390.136 166.569C389.984 166.902 389.883 167.175 389.742 167.418C389.711 167.54 389.681 167.62 389.641 167.681C389.6 167.711 389.6 167.732 389.6 167.772C389.6 167.772 389.6 167.792 389.59 167.792H389.57C389.57 167.833 389.544 168.096 389.469 168.49C389.458 168.526 389.458 168.541 389.458 168.566C389.458 169.072 390.03 169.946 390.091 170.174C390.156 170.477 390.293 170.781 390.333 170.933M379.902 172.045C380.003 171.944 380.407 171.474 380.417 171.423C380.443 171.352 380.529 170.503 380.609 169.517C380.66 168.571 380.357 165.765 380.357 165.537C380.357 165.335 380.164 164.946 379.836 165.198C379.492 165.421 378.926 166.655 378.875 166.746C378.85 166.862 378.733 167.327 378.683 167.605C378.632 167.924 378.46 168.839 378.43 169.122C378.364 169.36 377.889 170.675 377.484 171.499C377.095 172.308 374.926 173.977 375.158 174.25C375.371 174.553 376.22 174.705 376.711 174.477C377.227 174.25 379.138 172.839 379.376 172.642C379.588 172.439 379.831 172.187 379.902 172.045ZM376.059 160.162C376.397 159.823 376.696 158.984 376.933 158.761C377.004 158.64 377.136 158.018 377.186 157.973C377.211 157.957 377.237 157.947 377.237 157.907C377.348 157.947 377.474 157.947 377.641 157.947H377.869C378.182 157.907 378.642 157.502 378.961 157.411C379.492 157.239 379.517 156.744 379.517 156.375C379.502 156.122 379.517 155.439 379.532 154.908C379.532 154.741 379.254 154.868 379.416 154.468C379.861 153.558 377.697 154.433 377.697 154.433C377.419 155.333 377.181 155.823 375.947 157.305C375.305 158.064 374.253 158.771 373.813 159.287C373.596 159.57 373.399 159.793 373.247 159.955C373.126 160.142 373.055 160.208 373.045 160.41C373.025 160.476 373.03 160.572 373.045 160.663C373.055 161.103 373.146 161.745 373.212 162.281C373.272 162.65 373.429 163.15 373.586 163.575C373.636 163.777 373.702 163.965 373.758 164.131C373.818 164.207 373.839 164.283 373.874 164.293C373.874 164.334 373.909 164.374 373.935 164.394C373.95 164.42 374.011 164.511 374.228 164.495C374.258 164.495 374.294 164.48 374.329 164.48L374.42 164.42C374.622 164.227 374.622 164.045 374.622 163.772V163.656C374.622 163.646 374.607 163.641 374.607 163.626C374.587 163.257 374.678 162.989 374.81 162.028C374.85 161.659 375.452 160.835 376.064 160.167M383.163 178.017C383.214 177.713 383.709 176.92 383.805 176.818C383.825 176.687 384.088 176.783 384.296 176.98C384.483 177.193 384.736 177.097 384.751 176.748C384.791 176.434 385.206 175.129 385.368 174.715C385.54 174.28 386.126 172.97 385.797 172.369C385.479 171.802 385.241 170.786 385.272 170.467C385.312 170.154 385.686 169.289 385.686 169.269C385.696 169.239 385.762 169.188 385.787 169.168C385.787 169.168 386.157 168.864 386.546 168.485C386.95 168.156 386.814 166.483 386.687 165.866C386.551 165.259 386.839 163.095 386.925 162.63C387.016 162.154 387.835 160.835 387.714 160.506C387.613 160.182 387.183 160.137 386.687 160.445C386.197 160.728 384.725 162.346 384.584 163.039C384.447 163.732 383.927 164.415 384.028 164.47C384.093 164.485 384.372 165.805 384.447 165.866C384.549 165.942 384.549 166.083 384.447 166.169C384.372 166.26 383.982 165.729 383.578 166.306C383.203 166.837 382.89 168.703 382.971 169.148C382.996 169.593 383.426 171.271 383.527 171.742C383.648 172.217 384.286 174.336 384.119 174.978C383.927 175.645 381.54 176.631 381.489 176.672H381.378C381.348 176.672 381.277 176.631 381.226 176.631C381.176 176.631 380.963 176.672 380.847 176.697C380.706 176.778 380.24 177.43 380.129 177.708C380.028 177.992 379.699 178.856 379.623 179.175C379.507 179.478 378.915 180.489 378.713 180.742C378.713 180.742 376.984 186.067 378.713 184.959C379.204 184.626 380.346 183.215 380.397 183.19C380.412 183.19 380.448 183.169 380.483 183.169H380.534C380.534 183.169 380.695 183.119 380.867 183.078C381.044 183.028 381.312 182.31 381.424 182.001C381.626 181.698 382.02 180.484 382.131 180.06C382.283 179.696 383.042 178.34 383.153 178.012M390.697 196.681C391.243 196.418 391.102 195.77 391.557 195.113C391.982 194.456 394.151 194.951 394.161 194.992C394.171 194.992 394.904 194.198 395.223 193.576C395.602 192.944 396.396 190.694 396.876 189.794C397.382 188.883 397.443 188.317 397.332 188.211C397.079 187.822 396.659 187.958 396.492 188.226C396.315 188.509 395.268 190.618 394.935 190.957C394.672 191.3 393.61 192.423 393.408 192.615C393.165 192.807 393.039 192.716 393.089 192.433C393.099 192.13 393.342 191.27 393.605 190.512C393.923 189.768 395 187.832 395.349 187.326C395.653 186.871 395.865 185.121 395.815 184.772C395.794 184.408 395.663 181.486 395.693 181.263C395.754 181.01 395.693 180.181 395.895 180.08C396.032 180.004 396.3 179.615 396.3 179.615C396.3 179.615 396.502 179.438 396.523 179.438C396.523 179.438 396.573 179.423 396.573 179.387C396.573 179.387 396.523 179.301 396.462 179.134C396.371 179.023 396.057 178.755 395.804 178.932C395.582 179.109 394.915 180.262 394.712 180.752C394.54 181.258 394.08 182.674 393.928 183.266C393.762 183.822 393.286 185.561 393.17 185.996C393.059 186.461 392.624 187.321 392.583 187.361C392.583 187.412 392.553 187.412 392.533 187.412C392.472 187.452 392.138 187.816 391.739 188.181C391.334 188.61 390.207 189.617 389.817 189.966C389.388 190.36 387.845 190.512 387.694 190.512C387.542 190.512 387.153 190.436 386.961 190.38C386.758 190.355 387.097 189.49 388.022 188.58C389.206 187.366 389.641 186.087 389.641 185.971C389.59 185.804 389.64 185.061 389.666 184.636C389.716 184.262 390.252 183.033 390.323 182.831C390.338 182.568 390.338 181.92 390.323 181.698C390.308 181.476 390.04 181.005 390.01 180.99C390.01 180.929 389.959 180.874 389.979 180.788C389.979 180.778 390.08 180.474 390.182 180.115C390.333 179.787 391.254 179.19 391.436 178.917C391.602 178.588 391.334 177.486 391.334 177.45C391.334 177.4 391.259 177.248 391.233 177.198C391.213 177.162 391.213 177.046 391.233 177.031C391.249 176.98 391.37 176.485 391.557 175.908C391.709 175.382 391.83 173.921 391.83 173.855C391.83 173.795 391.122 173.501 390.667 174.229C390.303 174.953 389.079 177.046 389.15 177.102C389.312 177.132 389.641 177.344 389.747 177.385C389.833 177.456 389.747 177.718 389.57 177.966C389.367 178.219 389.034 178.811 388.761 179.296C388.508 179.751 388.331 181.283 388.331 181.339V181.708C388.341 181.845 388.23 181.926 388.129 181.926C388.012 181.926 388.129 182.431 387.673 182.613C387.208 182.78 387.405 184.241 387.244 184.767C387.102 185.344 386.384 186.385 386.384 186.562C386.384 186.744 386.435 187.134 386.455 187.195C386.475 187.296 386.44 187.397 386.379 187.447L384.736 189.116C384.736 189.116 383.385 190.658 383.825 191.068C384.23 191.422 385.949 191.574 386.202 191.659C386.43 191.745 385.555 192.469 384.245 193.262C382.92 194.071 382.02 194.982 382.142 195.007C382.278 195.032 383.026 195.629 383.33 195.578C383.633 195.528 384.685 195.012 384.908 194.946C385.125 194.916 385.828 194.162 386.202 193.869C386.607 193.616 388.073 192.241 388.513 191.826C388.978 191.386 390.485 190.982 390.536 191.017C390.637 191.017 390.94 191.093 391.102 191.118C391.243 191.169 391.314 191.321 391.243 191.422C391.168 191.574 390.03 193.09 388.665 194.769C387.314 196.458 385.863 198.713 385.863 198.764C385.863 198.794 385.337 199.654 385.423 199.71C385.752 200.013 386.131 199.71 386.485 199.689C386.9 199.659 388.113 198.354 388.66 198.415C389.231 198.415 390.176 196.974 390.692 196.686M414.767 185.045C414.666 184.449 413.401 184.631 413.361 184.944C413.326 185.076 413.138 185.804 413.138 185.844C413.098 185.946 413.164 187.473 413.138 187.837C413.068 188.282 413.179 189.981 413.037 190.593C412.911 191.215 412.218 193.197 412.087 193.611C411.986 193.788 411.935 194.026 411.561 194.066C411.182 194.026 411.131 193.773 411.055 193.561C410.969 193.166 410.838 192.448 410.726 191.922C410.686 191.685 410.676 191.214 410.676 190.709C410.676 189.93 410.686 188.974 410.777 188.423C410.878 187.564 410.979 185.273 410.979 184.959V184.909C410.979 184.722 410.757 183.736 410.575 183.19C410.448 182.795 409.574 180.995 409.412 180.833C409.412 180.833 409.144 178.598 409.058 178.391C408.916 178.214 408.097 177.956 408.046 178.543C408.117 179.352 408.249 181.253 408.35 181.91C408.461 182.684 408.795 184.959 408.83 185.485C408.891 185.966 408.931 187.012 408.957 187.189V187.215H408.936L408.962 187.245C408.941 187.361 408.911 187.599 408.911 187.65C408.911 187.7 408.891 187.731 408.891 187.801H408.866C408.835 187.816 408.835 187.832 408.835 187.872C408.835 187.963 408.805 188.059 408.749 188.175C408.658 188.428 408.562 188.772 408.471 189.172C408.254 189.94 407.359 190.77 407.106 191.589C406.641 192.651 404.527 193.798 404.148 193.975L403.556 194.648C403.238 194.597 403.738 193.763 403.738 193.697C403.738 193.616 403.966 192.989 404.011 192.878C404.112 192.762 404.092 193.283 404.466 191.665C404.79 190.117 403.794 189.065 403.794 188.049C403.794 187.594 403.784 187.26 403.713 187.119C403.46 186.411 403.425 183.68 403.248 183.048C403.147 182.613 403.066 181.556 402.944 181.465C402.894 181.379 402.793 181.339 402.762 181.192L402.661 180.752L402.651 180.176C402.651 179.832 402.666 179.382 402.717 179.048C402.732 178.765 402.732 178.169 402.732 177.602C402.732 177.238 402.732 176.854 402.722 176.743C402.722 176.581 402.53 176.186 402.454 176.121C402.368 176.03 402.343 175.959 402.322 175.817C402.322 175.817 402.221 175.079 402.12 174.25C402.09 173.982 401.984 173.567 401.867 173.198C401.488 172.879 401.008 173.198 400.972 173.415C400.891 174.3 399.961 176.126 399.708 176.829H399.85C399.966 176.879 400.082 176.93 400.189 176.93C400.411 176.98 400.467 177.162 400.507 177.243C400.517 177.359 400.558 177.461 400.558 177.567C400.558 177.718 400.517 177.799 400.507 177.961C400.457 178.295 400.371 178.785 400.32 179.033V179.438C400.32 179.893 400.33 180.5 400.386 180.874C400.462 181.344 400.952 182.987 400.982 183.048L401.013 183.2C400.993 183.402 400.861 186.284 400.861 187.447C400.861 187.988 400.896 188.519 400.962 188.833C401.154 189.895 401.033 191.523 401.094 191.634C401.154 191.72 401.154 191.806 401.154 191.887C401.154 191.912 401.154 191.998 401.104 192.059C401.028 192.135 401.028 192.135 401.013 192.19C400.993 192.231 400.932 192.292 400.876 192.332L400.401 192.868C400.022 193.273 400.209 193.894 399.642 194.522C398.621 195.583 396.239 200.084 396.239 201.843C396.239 201.859 395.951 203.36 395.951 202.855C396.032 204.043 396.71 205.373 396.71 206.374C396.71 206.334 397.721 207.284 397.746 206.121C397.746 205.272 397.595 204.311 398.06 202.855C399.01 200.023 400.674 197.009 403.855 196.676C404.032 196.574 404.057 196.554 404.229 196.504H404.32C404.588 196.524 404.623 196.706 404.623 196.782C404.674 196.873 404.674 196.959 404.674 197.009C404.674 197.808 403.915 199.892 403.308 202.369C402.788 204.594 402.434 205.722 402.221 206.637C402.307 206.576 402.742 207.33 402.788 207.294C404.153 207.648 404.406 205.98 404.583 205.788C404.583 205.788 404.618 205.752 404.623 205.722C404.674 205.641 404.694 205.555 404.739 205.418C404.82 205.226 404.891 204.882 405.002 204.508C405.179 203.75 405.366 202.764 405.422 201.788C405.549 199.75 406.272 195.993 406.535 195.143C406.777 194.36 407.778 193.626 408.355 193.212C408.572 193.101 408.658 193.03 408.82 192.989C408.84 192.969 408.921 192.964 408.972 192.964C409.275 192.964 409.477 193.202 409.477 193.45V193.515C409.477 193.783 410.337 197.621 410.893 202.01V202.111C410.893 202.111 410.549 204.857 410.549 207.967C410.549 208.301 410.549 208.614 410.6 208.953C410.752 211.785 410.044 215.011 410.994 215.208C411.096 215.122 411.46 215.299 411.48 214.98C411.783 214.753 412.491 212.988 412.441 212.012V211.785C412.41 211.653 412.39 211.542 412.39 211.431C412.41 210.298 413.078 208.862 413.078 208.296C413.098 207.502 413.422 206.576 413.422 206.283C413.442 205.929 413.442 205.535 413.442 205.292V205.14C413.442 204.968 413.907 202.208 413.816 201.282C413.725 200.357 413.24 198.936 413.235 198.107H412.81C412.835 197.171 413.234 196.049 413.336 195.781V195.72C413.336 195.417 413.917 194.446 413.917 194.021C413.937 193.475 414.61 190.517 414.848 188.701C415.05 187.387 414.671 187.235 414.731 186.719C414.731 186.719 415.1 185.834 415.085 185.834L414.792 185.035L414.767 185.045ZM427.347 194.628C427.398 194.527 427.044 192.822 427.261 191.695C427.444 190.572 427.302 187.862 426.943 187.356C426.564 186.901 427.499 186.426 427.489 186.375C427.388 186.325 427.353 186.214 427.388 186.097C427.418 186.026 427.105 184.965 427.186 184.393C427.221 183.822 427.15 183.599 427.135 183.331C427.105 183.094 427.175 183.078 427.105 182.735C427.019 182.35 427.135 182.279 427.216 182.052C427.378 181.749 427.418 181.496 427.449 181.496C427.509 181.496 427.671 181.122 427.904 180.737C427.954 180.616 427.62 178.487 427.509 177.4C427.423 176.308 426.791 176.318 426.791 176.237C426.791 176.176 426.184 176.358 426.098 178.533C426.063 179.372 425.871 180.489 425.871 180.53C425.871 180.56 425.836 180.616 425.82 180.666C425.77 180.692 425.517 180.752 425.502 181.086C425.416 181.744 425.502 182.886 425.517 183.008C425.552 183.554 425.552 184.474 425.517 184.676C425.502 184.848 425.456 184.282 425.456 184.322C425.436 184.373 425.375 184.408 425.355 184.459C425.32 184.474 425.244 184.98 425.102 185.622C424.966 186.249 424.283 188.595 424.04 189.288C423.798 189.986 424.04 192.322 424.496 194.522C425.016 196.696 425.052 197.293 424.647 197.464C424.04 197.768 422.357 196.059 422.068 195.229C421.8 194.441 420.678 192.671 420.47 191.907C420.243 191.149 420.066 190.491 420.066 190.491L420.036 190.426C420.036 190.416 420.005 190.163 420.005 190.057C420.005 189.935 420.066 188.833 420.122 188.322C420.192 187.816 420.491 185.521 420.617 184.752C420.708 183.958 420.9 182.841 420.956 182.209C420.991 181.587 420.905 179.63 420.738 179.175C420.622 178.72 420.359 178.755 420.324 178.821C418.822 178.755 419.373 181.086 419.247 181.379C419.034 181.658 419.752 183.084 419.626 183.26C419.515 183.483 419.5 183.989 419.459 184.059C419.419 184.13 419.398 184.211 419.398 184.241C419.398 184.292 419.368 184.368 419.338 184.383C419.307 184.393 417.957 185.394 417.785 185.961C417.619 186.552 417.366 187.554 417.366 187.751C417.366 187.953 417.457 190.355 417.568 191.29C417.689 192.201 418.291 194.193 418.225 194.688C418.134 195.184 417.957 195.917 417.892 196.317C417.851 196.357 417.851 196.418 417.851 196.418C417.851 196.418 417.361 198.865 417.315 201.636C417.305 202.824 418.412 203.017 418.6 204.215C418.953 206.602 419.965 210.738 420.329 211.431C420.723 212.154 420.885 212.594 421.037 212.594C421.178 212.579 421.583 213.008 421.77 213.423C422.286 214.444 422.539 214.414 423.019 214.748C423.449 215.021 423.449 214.262 423.449 214.156C423.499 214.055 421.578 208.457 420.835 204.245C420.117 200.038 420.496 197.636 420.496 197.469C420.486 197.328 420.567 196.863 420.723 196.913C420.885 196.964 422.22 197.227 422.503 198.036C422.731 198.86 423.767 202.622 424.273 204.609C424.753 206.597 424.592 207.578 424.779 207.744C424.951 207.926 426.235 209.079 426.629 209.312C427.034 209.514 427.413 209.717 427.438 209.717C427.459 209.717 427.656 208.235 426.579 205.135C425.451 202.081 425.229 199.209 425.466 199.143C426.427 198.865 429.087 201.368 430.508 204.478C431.908 207.573 432.465 208.811 432.682 208.564C433.238 207.937 432.429 206.521 432.141 204.746C431.863 202.941 429.896 199.512 428.743 198.273C427.57 197.035 427.393 194.845 427.368 194.8C427.337 194.749 427.337 194.648 427.368 194.613M431.964 191.179C431.964 191.179 432.369 191.093 432.308 190.926C432.07 190.117 432.839 190.421 432.93 190.421C433.001 190.421 433.168 190.491 433.208 190.552C433.228 190.618 434.69 192.878 435.706 194.173C436.53 195.224 436.869 195.336 437 195.265C437.132 195.189 436.161 193.778 436.293 192.787C436.459 191.867 435.615 190.866 435.332 190.749C435.054 190.623 433.613 189.192 433.431 188.489C433.243 187.751 432.404 184.403 432.025 183.503C431.62 182.573 432.176 182.037 432.106 181.976C432.025 181.91 432.005 181.764 432.09 181.708C432.166 181.632 431.939 181.152 431.989 181.091C432.04 181.031 432.192 179.741 432.141 179.084C432.141 178.426 431.898 178.239 431.812 178.325C431.732 178.477 430.568 181.612 430.017 182.927C429.476 184.241 430.306 188.54 431.059 189.682C431.767 190.775 431.934 191.179 431.964 191.179ZM357.147 300.968C357.703 300.983 358.158 300.882 358.462 300.548C358.623 299.966 358.775 299.966 358.75 299.577C358.719 299.147 358.563 298.783 358.052 298.475C357.698 299.511 357.051 300.118 356.232 300.118C355.559 300.118 354.816 299.754 354.007 299.167C353.774 299.299 353.537 299.42 353.238 299.471C352.5 299.85 351.939 300.179 351.999 300.937V300.988L352.014 301.14L351.934 301.215C351.666 301.509 351.6 301.762 351.6 301.974C351.59 302.646 352.748 303.476 353.536 303.794L353.678 302.399C353.981 301.61 354.75 301.413 355.448 301.413C356.034 301.397 356.601 301.008 357.147 300.958M355.954 306.014C355.66 306.687 355.771 306.656 356.085 307.344L356.409 307.02C357.218 306.302 359.2 308.335 359.306 305.923C358.355 305.589 357.718 305.033 356.677 305.367C356.409 305.741 356.095 305.584 355.954 306.014ZM348.632 229.316C349.051 228.254 348.874 228.436 350.017 228.031L350.806 227.94C351.044 227.875 351.696 227.703 351.883 227.566C352.454 227.162 352.743 226.201 352.758 225.594C350.381 224.674 348.106 225.063 346.447 226.919C346.579 228.148 346.963 229.093 348.621 229.321M382.177 160.521C382.344 160.395 382.784 160.015 382.86 159.813C383.163 159.368 383.011 158.584 382.809 158.18C380.665 158.534 379.037 159.737 378.46 161.618C378.986 162.392 379.674 162.832 381.014 162.326C380.928 161.436 380.888 161.659 381.611 160.92L382.177 160.516V160.521ZM356.388 236.36C355.246 236.663 354.619 237.285 353.946 238.18C353.511 238.686 353.552 238.736 353.43 238.964C353.329 239.151 353.188 239.277 352.849 239.454C353.678 240.096 354.366 240.567 354.942 240.552C355.357 240.552 355.792 240.309 356.383 239.54C356.646 239.212 356.434 238.964 357.051 238.569C357.587 238.226 357.809 237.882 358.467 237.644C358.224 237.482 358.062 237.315 357.824 237.159L357.42 236.795C357.056 236.557 356.773 236.339 356.378 236.365M354.305 251.666C353.89 252.182 353.926 252.263 353.81 252.485C353.708 252.672 353.547 252.789 353.228 252.96C354.037 253.603 354.745 254.123 355.291 254.073C355.736 254.073 356.151 253.83 356.727 253.072C357.02 252.738 356.803 252.49 357.425 252.091C357.996 251.737 358.199 251.383 358.841 251.155C358.628 250.988 358.421 250.852 358.199 250.675L357.814 250.296C357.43 250.073 357.157 249.851 356.752 249.866C355.64 250.119 355.008 250.806 354.305 251.666ZM353 232.314L353.526 232.486C353.749 232.527 353.961 232.598 354.204 232.658C355.301 232.825 355.225 232.522 356.479 232.153C356.479 232.153 355.989 231.869 356.399 231.293C356.727 230.797 356.904 230.469 357.309 230.019L356.904 229.897C355.959 229.584 355.301 229.584 354.189 230.277C353.683 231.035 352.161 231.672 353 232.314ZM339.398 265.789C339.383 265.536 339.348 265.233 339.322 264.955C339.312 264.575 339.312 264.176 339.408 263.711L339.439 263.544L339.606 263.468C339.742 263.443 339.909 263.316 340.121 263.205L340.708 262.851C341.011 262.497 341.482 262.295 342.083 262.295C343.524 261.759 345.648 260.828 345.507 259.655C345.486 259.352 345.335 258.963 344.961 258.457L344.839 258.336L344.89 258.194C345.532 255.651 348.561 253.694 350.503 252.161C350.26 251.676 350.138 251.241 350.128 250.811C350.078 249.876 350.573 249.153 351.256 248.298L351.898 247.904C352.333 247.348 352.616 246.802 352.586 246.235C352.571 245.962 352.475 245.659 352.282 245.386C351.893 244.981 351.509 244.804 351.307 244.804C351.084 244.819 350.917 244.895 350.71 245.411L350.508 245.73C350.336 246.185 350.068 245.998 349.729 246.068C348.844 246.802 348.035 247.095 347.302 247.095C345.618 247.059 344.394 245.891 343.14 245.962C342.988 245.998 342.776 245.998 342.594 246.053L342.442 246.073L342.316 245.998C341.901 245.664 341.628 245.583 341.477 245.583C341.021 245.467 340.779 246.746 339.858 247.353C336.663 248.946 334.989 254.331 335.115 255.878C335.115 255.939 335.136 255.979 335.146 256.004C336.157 255.974 340.657 252.349 340.683 251.919C340.733 251.843 340.733 251.818 340.733 251.727C340.784 251.499 340.263 251.322 340.126 250.695C340.126 250.341 340.43 250.164 340.733 250.073L341.365 249.856C342.023 249.603 342.599 249.299 342.857 248.743L342.958 248.561L343.236 248.602C344.379 248.935 346.523 250.068 347.448 250.756L347.691 250.918L347.575 251.17C347.312 251.727 346.882 252.182 346.301 252.637C344.339 254.017 342.002 254.887 342.144 256.925C342.169 257.299 342.265 257.734 342.468 258.229L342.518 258.331L342.493 258.447C342.139 260.045 341.163 260.621 339.965 260.621C339.54 260.621 339.095 260.571 338.599 260.535L337.133 260.298C336.653 260.237 336.223 260.196 335.854 260.217C334.716 260.237 333.897 260.53 332.961 261.511C333.33 261.865 333.528 262.219 333.538 262.603C333.548 262.826 333.523 263.028 333.447 263.261L335.955 261.87L336.122 261.971C337.143 262.679 337.31 263.539 337.335 264.348V264.449C337.335 265.096 337.325 265.572 337.335 265.946C337.366 266.542 337.467 266.967 337.922 267.786C339.419 267.063 339.419 266.573 339.403 265.779M358.896 273.096C358.623 276.054 355.66 274.952 354.371 276.777C353.764 277.515 353.39 278.496 353.43 279.457C353.43 279.72 353.491 279.973 353.547 280.2L353.698 280.099C354.937 279.24 355.842 277.824 357.122 276.827L357.172 276.752H357.223L357.637 276.742H357.718C357.819 276.742 357.87 276.742 358.007 276.706H358.057C358.401 276.706 358.143 277.414 358.259 277.626C359.17 277.323 359.827 276.676 359.791 275.756C359.791 275.695 359.766 275.604 359.741 275.543L359.867 275.366L359.882 275.25C360.54 274.936 361.005 274.41 361.44 273.783L361.809 273.187C362.289 272.398 361.799 272.61 362.517 272.61C362.795 272.61 363.043 272.13 363.397 272.206C363.923 271.69 364.484 271.67 364.383 271.331C364.383 271.24 363.306 271.103 363.184 270.866C360.317 271.048 361.329 271.816 358.902 273.106M350.169 280.539C349.891 280.554 349.613 280.59 349.431 280.64C347.737 281.662 347.003 282.41 345.208 282.43C344.784 282.43 344.349 282.42 343.853 282.364C341.335 284.741 341.224 286.435 341.224 288.23L343.297 288.574L343.145 287.381C343.024 285.257 346.068 284.584 346.068 284.584C348.829 283.436 350.164 283.28 351.863 281.196C351.509 280.792 350.887 280.539 350.169 280.539ZM357.835 281.99C356.924 281.975 357.592 282.734 356.773 283.376L356.661 283.477L356.49 283.457C356.196 283.396 355.964 283.892 355.711 283.892C353.971 283.79 350.614 286.192 350.568 286.283C349.34 288.124 348.925 289.702 346.826 291.289C347.271 291.618 347.6 291.795 347.939 291.815C348.262 291.83 348.662 291.704 349.213 291.259C349.688 290.834 350.032 290.197 351.003 290.147C351.676 287.542 353.461 286.749 356.313 286.152V286.121L357.511 283.957C360.14 283.33 360.009 283.376 361.066 281.631C360.53 281.783 360.095 281.884 359.357 281.945L357.83 281.995L357.835 281.99ZM355.539 294.364C355.64 293.615 355.984 292.933 356.5 292.376C356.763 292.108 357.066 291.846 357.344 291.658L357.951 291.188L357.546 289.833L357.455 289.858C355.948 290.141 355.554 290.87 355.018 291.618L354.694 292.194C354.158 292.902 353.673 293.383 352.874 293.802C352.449 294.07 351.939 294.146 351.448 294.106C350.487 294.167 349.506 293.863 348.738 293.716C348.354 293.979 348.313 294.222 348.313 294.601C348.313 294.733 348.343 294.905 348.389 295.072L348.49 295.871C348.505 296.149 348.505 296.305 348.475 296.538C348.652 296.604 348.778 296.639 348.869 296.639C349.036 296.614 349.173 296.548 349.365 296.366L349.754 295.83L349.886 295.85L350.29 295.83C350.452 295.85 350.624 295.85 350.765 295.85C351.19 295.83 351.423 296.053 351.564 296.255C353.016 295.85 354.841 295.562 355.529 294.374M349.714 273.976C349.916 273.03 350.877 272.509 351.837 272.484C352.257 272.484 352.647 272.605 353.011 272.787L353.294 272.484L353.521 270.916L353.622 270.851C355.266 269.495 355.276 270.446 357.4 270.178C357.288 269.844 357.223 269.501 357.223 269.147C357.101 265.89 359.321 265 359.412 261.916C358.922 261.44 358.537 261.157 358.057 261.157C357.981 261.208 357.885 261.208 357.814 261.208C357.4 262.098 356.914 262.978 356.965 263.873V264.024L357.026 264.257L356.808 264.333C354.138 265.445 356.267 265.395 354.836 267.604L354.715 267.786L354.512 267.705C354.194 267.614 353.906 267.604 353.663 267.604C352.581 267.604 352.009 268.327 351.438 269.071L350.912 269.789C350.083 270.82 348.662 271.275 348.561 271.801C348.242 273.965 347.312 273.844 345.577 275.493C345.052 275.983 344.541 276.175 344.091 276.18C343.433 276.18 343.029 275.826 342.897 275.675C342.847 275.604 342.817 275.523 342.796 275.412C342.817 275.058 343.049 274.866 343.085 274.82C343.59 274.082 344.177 273.263 344.116 272.524C344.116 272.357 344.076 272.13 344 271.948L343.914 271.771L344.03 271.639C345.547 269.935 346.66 268.1 347.367 266.006C348.045 264.591 349.511 263.544 351.089 263.407L351.251 263.387L351.352 263.539C351.564 263.766 351.827 263.883 352.06 263.994L352.465 264.196C352.727 264.297 352.879 264.449 353.006 264.591C353.531 264.328 353.592 264.237 353.592 263.696V263.24C352.884 262.654 352.591 261.976 352.556 261.304C352.49 259.837 353.547 258.437 354.158 257.233C353.4 256.829 352.884 256.611 352.53 256.611C351.999 256.611 351.681 257.016 351.484 258.28L351.357 259.342C351.256 260.11 351.089 261.314 350.068 261.739L349.987 261.749H349.936C349.825 261.739 349.734 261.729 349.623 261.729C346.751 261.688 346.159 264.995 343.767 266.421L343.853 268.418L343.787 268.494C343.262 269.187 342.422 269.592 341.755 270.102C341.512 270.234 341.289 270.492 341.011 270.78C341.355 271.154 341.593 271.548 341.628 272.014C341.628 272.469 341.446 272.893 341.052 273.409C340.091 274.512 338.776 274.785 338.857 275.735C338.877 275.806 338.893 275.887 338.893 275.998L339.702 276.519C341.209 276.747 343.069 278.491 344.859 278.643C346.933 277.46 348.955 276.236 349.714 273.965M432.505 194.254C432.202 194.178 432.692 196.312 432.404 196.251C433.102 197.566 433.769 199.194 435.777 198.971C435.489 197.464 433.931 196.478 433.097 194.987L432.505 194.254ZM282.244 317.139L282.714 317.037C283.321 316.684 283.801 316.365 283.71 315.596C282.679 314.868 282.062 313.968 281.03 313.533C280.393 313.25 279.999 313.366 279.392 313.634C280.14 315.404 279.806 316.153 278.593 317.558L277.885 318.367C276.752 319.571 276.469 320.269 276.722 321.968C279.26 321.123 280.545 320.218 282.234 318.261C281.915 317.72 281.546 317.402 282.244 317.139ZM289.727 329.143C289.237 329.133 288.767 329.436 288.312 329.75L288.059 329.866L287.973 329.957L287.948 330.058L287.867 330.715L287.816 331.004L288.069 330.994L288.109 330.953C288.524 330.953 289.156 331.408 289.808 331.434H289.849C290.294 331.434 290.708 331.145 290.997 330.473L291.047 330.372L290.997 330.271C290.643 329.472 290.188 329.143 289.717 329.143M283.776 327.995C282.218 327.631 280.641 327.591 279.093 327.54L280.105 330.994L281.693 330.933C281.718 330.099 281.591 329.74 282.724 329.669C283.938 329.684 284.58 329.836 285.455 328.89L284.838 328.167L283.776 327.995ZM274.765 321.72C273.106 321.937 273.046 322.802 273.162 324.233C273.238 324.754 273.339 325.28 273.314 325.785C273.339 326.321 273.536 326.311 273.364 326.68C273.364 326.68 273.486 327.237 273.784 327.454C274.087 327.717 275.422 326.66 275.422 326.66C276.242 325.851 276.065 324.865 275.382 323.565L274.765 321.72ZM287.872 320.183C283.21 318.787 284.939 324.117 283.735 325.457L284.155 325.886C285.723 325.179 286.85 323.925 287.25 322.635C288.752 321.204 290.638 321.664 292.155 319.626C290.37 318.059 289.085 318.666 287.872 320.183ZM438.194 104.909C436.333 106.476 434.007 109.576 431.469 110.056C430.068 110.289 426.21 109.905 425.942 109.146C425.714 108.438 430.422 105.086 431.464 104.56C432.627 103.928 433.638 103.867 435.205 103.316C436.014 103.002 438.037 101.824 438.543 101.88C439.453 102.016 439.908 102.588 439.605 103.665C439.443 104.282 438.866 104.337 438.189 104.914" fill="white"/>
</g>
</g>
<defs>
<clipPath id="clip0_34_1440">
<rect width="500" height="494.62" fill="white"/>
</clipPath>
</defs>
</svg>
