<svg width="500" height="100" viewBox="0 0 500 100" fill="none" xmlns="http://www.w3.org/2000/svg">
<mask id="mask0_34_1439" style="mask-type:luminance" maskUnits="userSpaceOnUse" x="0" y="0" width="500" height="99">
<path d="M0 0.588867H500V98.4722H0V0.588867Z" fill="white"/>
</mask>
<g mask="url(#mask0_34_1439)">
<path d="M278.058 22.543H292.547C293.238 22.543 293.697 23.0004 293.697 23.6865V73.3143C293.697 74.0004 293.238 74.4579 292.547 74.4579H278.058C277.368 74.4579 276.908 74.0004 276.908 73.3143V23.4578C276.908 23.0004 277.368 22.543 278.058 22.543Z" fill="#766A62"/>
<path d="M152.024 2.41797H136.614C135.924 2.41797 135.464 2.87538 135.464 3.56146V29.4046H123.045V3.56146C123.045 2.87538 122.585 2.41797 121.895 2.41797H106.255C105.565 2.41797 105.105 2.87538 105.105 3.56146V73.3149C105.105 74.001 105.565 74.4585 106.255 74.4585H121.665C122.355 74.4585 122.815 74.001 122.815 73.3149V44.9563H135.234V73.0863C135.234 73.7724 135.694 74.2299 136.384 74.2299H151.794C152.484 74.2299 152.944 73.7724 152.944 73.0863V3.56146C153.174 2.87538 152.484 2.41797 152.024 2.41797Z" fill="#766A62"/>
<path d="M299.217 73.3143C299.217 74.0004 299.678 74.4579 300.367 74.4579H314.397C315.086 74.4579 315.547 74.0004 315.547 73.3143V33.9779H319.228C321.067 33.9779 322.678 35.5787 322.678 37.4085V73.0857C322.678 73.7718 323.136 74.2293 323.828 74.2293H337.856C338.547 74.2293 339.006 73.7718 339.006 73.0857V34.2068C339.006 27.8032 333.717 22.543 327.278 22.543H301.058C300.139 22.543 299.217 23.2291 299.217 24.3726V73.3143Z" fill="#766A62"/>
<path d="M460.211 73.3143C460.211 74.0004 460.672 74.4579 461.361 74.4579H475.392C476.08 74.4579 476.542 74.0004 476.542 73.3143V33.9779H480.219C482.061 33.9779 483.669 35.5787 483.669 37.4085V73.0857C483.669 73.7718 484.13 74.2293 484.819 74.2293H498.85C499.539 74.2293 500 73.7718 500 73.0857V34.2068C500 27.8032 494.711 22.543 488.269 22.543H462.053C461.13 22.543 460.211 23.2291 460.211 24.3726V73.3143Z" fill="#766A62"/>
<path d="M204.232 73.3143C204.232 74.0004 204.692 74.4579 205.382 74.4579H219.412C220.102 74.4579 220.562 74.0004 220.562 73.3143V33.9779H224.242C226.082 33.9779 227.691 35.5787 227.691 37.4085V73.0857C227.691 73.7718 228.151 74.2293 228.841 74.2293H242.871C243.561 74.2293 244.021 73.7718 244.021 73.0857V34.2068C244.021 27.8032 238.731 22.543 232.291 22.543H206.072C205.152 22.543 204.232 23.2291 204.232 24.3726V73.3143Z" fill="#766A62"/>
<path d="M198.482 23.4589C198.482 22.7728 198.022 22.3154 197.332 22.3154H183.303C182.613 22.3154 182.153 22.7728 182.153 23.4589V62.5666H178.473C176.633 62.5666 175.023 60.9657 175.023 59.136V23.4589C175.023 22.7728 174.563 22.3154 173.873 22.3154H159.843C159.153 22.3154 158.693 22.7728 158.693 23.4589V62.5666C158.693 68.9702 163.983 74.2305 170.423 74.2305H196.642C197.562 74.2305 198.482 73.5443 198.482 72.4007V23.4589Z" fill="#766A62"/>
<path d="M270.699 62.7951H267.939C266.099 62.7951 264.489 61.1943 264.489 59.3646V36.4946H270.699C271.389 36.4946 271.849 36.0373 271.849 35.3512V23.4588C271.849 22.7727 271.389 22.3153 270.699 22.3153H264.489V12.7099C264.489 12.0238 264.029 11.5664 263.339 11.5664H250C249.31 11.5664 248.85 12.0238 248.85 12.7099V62.5665C248.85 68.9701 254.14 74.2301 260.579 74.2301H270.699C271.389 74.2301 271.849 73.7729 271.849 73.0868V63.7101C271.849 63.2526 271.389 62.7951 270.699 62.7951Z" fill="#766A62"/>
<path d="M410.534 62.7951H407.775C405.934 62.7951 404.325 61.1943 404.325 59.3646V36.4946H410.534C411.222 36.4946 411.684 36.0373 411.684 35.3512V23.4588C411.684 22.7727 411.222 22.3153 410.534 22.3153H404.325V12.7099C404.325 12.0238 403.864 11.5664 403.175 11.5664H389.834C389.145 11.5664 388.684 12.0238 388.684 12.7099V62.5665C388.684 68.9701 393.975 74.2301 400.414 74.2301H410.534C411.222 74.2301 411.684 73.7729 411.684 73.0868V63.7101C411.684 63.2526 411.222 62.7951 410.534 62.7951Z" fill="#766A62"/>
<path d="M367.294 62.7955H363.616C361.775 62.7955 360.166 61.1944 360.166 59.3649V37.6382C360.166 35.8088 361.775 34.208 363.616 34.208H367.294V62.7955ZM382.475 22.3154H355.566C349.125 22.3154 343.836 27.5755 343.836 33.9791V62.338C343.836 68.7416 349.125 74.0016 355.566 74.0016H367.294V80.8627C367.294 82.4635 366.144 83.6071 364.536 83.6071H362.925C361.316 83.6071 360.166 82.4635 360.166 80.8627V78.5757C360.166 77.8896 359.705 77.4321 359.016 77.4321H344.986C344.297 77.4321 343.836 77.8896 343.836 78.5757V82.921C343.836 91.1541 347.975 93.6699 355.336 95.2707C360.855 96.4144 366.605 96.4144 372.125 95.2707C379.486 93.6699 383.625 90.9255 383.625 82.921V23.4589C383.625 23.0015 383.164 22.5441 382.475 22.3154Z" fill="#766A62"/>
<path d="M439.513 59.3649C439.513 61.1947 437.902 62.7955 436.063 62.7955H434.683C432.841 62.7955 431.233 61.1947 431.233 59.3649V37.6386C431.233 35.8088 432.841 34.208 434.683 34.208H436.063C437.902 34.208 439.513 35.8088 439.513 37.6386V59.3649ZM443.883 22.3156C438.363 21.1721 432.613 21.1721 427.091 22.3156C419.733 23.9165 415.594 26.6609 415.594 34.6655V61.6519C415.594 69.6566 419.733 72.4008 427.091 74.0019C432.613 75.1452 438.363 75.1452 443.883 74.0019C451.241 72.4008 455.38 69.6566 455.38 61.6519V34.8941C455.38 26.6609 451.01 24.1452 443.883 22.3156Z" fill="#766A62"/>
<path d="M41.6293 30.7772V0.588867L30.5898 6.99248V37.1808L41.6293 30.7772Z" fill="#69BE28"/>
<path d="M45.7676 68.055V98.4722L56.8073 92.0686V61.6514L45.7676 68.055Z" fill="#69BE28"/>
<path d="M30.5898 59.3655V92.0697L41.6293 98.4733V65.7691L60.9485 54.7916V89.5541L71.9882 83.3791V15.6839L60.9485 9.28027V41.7558L30.5898 59.3655Z" fill="#69BE28"/>
<path d="M26.4492 9.27948L15.1797 15.6831V83.3783L26.4492 89.5533V57.0777L56.808 39.6966V6.99248L45.7686 0.588867V33.0644L26.4492 44.2705V9.27948Z" fill="#69BE28"/>
<path d="M11.0396 17.9697L1.60994 23.4585C0.689972 23.9159 0 25.0594 0 26.2029V72.8577C0 74.0013 0.689972 74.916 1.60994 75.6021L11.0396 81.091V17.9697Z" fill="#69BE28"/>
<path d="M76.127 80.8613L85.5567 75.3727C86.4764 74.9152 87.1664 73.7718 87.1664 72.6282V25.9734C87.1664 24.8299 86.4764 23.9151 85.5567 23.229L76.127 17.7402V80.8613Z" fill="#69BE28"/>
</g>
</svg>
