<svg width="500" height="86" viewBox="0 0 500 86" fill="none" xmlns="http://www.w3.org/2000/svg">
<g clip-path="url(#clip0_34_1437)">
<path fill-rule="evenodd" clip-rule="evenodd" d="M125.968 61.0967L136.065 65.9677L130.871 70.8387H125.968V65.9677L118.484 63.3871L105.806 50.7096L95.7097 45.8387L85.6129 30.8709L80.4193 26L83 18.5484L75.5161 11.0645L70.3226 15.9355V26.6451L65.4194 31.5161L75.5161 41.2903L70.3226 46.1613L80.4193 55.9032V61.0967L85.6129 70.8387H90.8064L96.0323 66.2903L93.4194 63.7096L90.8064 56.2258H96.0323L101.226 66.2903L106.129 71.1935L91.1613 76.0645L85.9355 80.9355L80.7419 76.0645L78.129 68.5806L70.6452 65.9677V61.0967H65.7419L63.1613 73.4516L65.7419 80.2903L54.0323 85.1613L50.4516 80.2903L53.0645 75.3871V70.5161H45.5806L35.4839 80.2903L28 77.6774V67.9355L15.2903 65.9677L5.54839 70.8387L0 68.258V58.1935L4.87097 55.5806L25.0645 45.8387L27.6774 48.4193L35.1613 40.9677V35.7419L45.2581 26L50.7742 15.9355L58.2581 3.58061L70.3226 1.32255H75.5161V5.87094L85.6129 15.9355V26L100.903 40.9677L116.226 50.7096L123.71 53.2903L125.968 61.0967ZM158.839 6.5161L172.516 0.0322266V70.8709H158.839V6.5161ZM229.484 42.5806V71.4838H215.806V43.8709C215.806 34.7742 212.548 31.8387 207 31.8387C201.484 31.8387 198.226 34.4516 198.226 43.2258V71.1613H184.226V20.1613H197.903V23.4193C200.484 20.8064 204.742 18.8387 210.258 18.8387C223.613 18.8387 229.484 27.6129 229.484 42.5806ZM270.806 19.8387H285.452L266.903 70.8387H252.903L234.032 19.8387H249L256.484 43.5484C257.774 47.7742 259.097 52.3226 259.742 54.9355C260.387 52.3226 261.71 47.4516 263 43.5484L270.806 19.8387ZM336.548 45.8387C336.548 47.7742 336.548 48.4516 336.226 50.0645H302.065C303.032 56.5484 308.548 59.4838 314.097 59.4838C317.032 59.4838 320.935 58.1935 323.548 54.9355L333.968 62.4193C328.419 70.2258 319.29 72.1613 313.774 72.1613C298.484 72.1613 287.742 61.7742 287.742 45.5161C287.742 29.9032 298.806 18.8709 312.484 18.8709C326.806 18.8709 335.903 30.5806 336.548 45.8387ZM322.226 39.6774C321.581 34.8064 318.323 30.5806 311.806 30.5806C306.613 30.5806 302.71 34.8064 301.742 39.6774H322.226ZM387 55.258C387 66 375.935 71.8387 364.839 71.8387C356.71 71.8387 348.581 68.258 343.032 64.6774L349.871 55.5806C354.774 58.1935 359.645 60.4516 365.516 60.4516C370.387 60.4516 373.645 58.5161 373.645 55.9032C373.645 52.3548 368.097 51.6774 365.516 51.3548C355.419 49.0967 343.355 47.4516 343.355 34.4516C343.355 25.0322 353.129 18.8709 364.839 18.8709C371.355 18.8709 378.839 21.4516 384.064 24.7096L377.226 33.8064C373 31.8709 368.097 30.2258 364.839 30.2258C359 30.2258 356.71 31.8709 356.71 33.8064C356.71 37.3871 364.194 38.0322 368.097 39C377.548 41.2903 387 43.9032 387 55.258ZM406.194 45.5161C406.194 53 411.742 59.1613 419.548 59.1613C424.419 59.1613 428.323 56.9032 430.613 53.3226L441.355 61.129C436.452 67.9355 428.645 72.1613 419.548 72.1613C404.903 72.1613 392.516 60.129 392.516 45.5161C392.516 30.9032 404.581 18.8709 419.548 18.8709C428.645 18.8709 436.806 23.0967 441.677 29.9032L430.935 38.0322C428.645 34.4516 424.742 31.8709 419.871 31.8709C412.064 31.8709 406.516 37.7096 406.194 45.5161ZM472.935 71.8387C457.968 71.8387 445.903 60 445.903 45.3548C445.903 30.7096 457.968 18.8709 472.935 18.8709C487.871 18.8709 499.935 30.7096 499.935 45.3548C499.935 60 487.871 71.8387 472.935 71.8387ZM486.258 45.5161C486.258 37.9677 480.29 31.8709 472.935 31.8709C465.548 31.8709 459.581 37.9677 459.581 45.5161C459.581 53.0645 465.548 59.1613 472.935 59.1613C480.29 59.1613 486.258 53.0645 486.258 45.5161Z" fill="#000AD2"/>
</g>
<defs>
<clipPath id="clip0_34_1437">
<rect width="500" height="85.1613" fill="white"/>
</clipPath>
</defs>
</svg>
