<svg width="500" height="34" viewBox="0 0 500 34" fill="none" xmlns="http://www.w3.org/2000/svg">
<g clip-path="url(#clip0_34_1436)">
<mask id="mask0_34_1436" style="mask-type:luminance" maskUnits="userSpaceOnUse" x="-81" y="-1663" width="1286" height="1748">
<path d="M-80.3164 84.8154H1204.74V-1662.06H-80.3164V84.8154Z" fill="white"/>
</mask>
<g mask="url(#mask0_34_1436)">
<path d="M9.16943 0.698326H23.5572V1.74244H22.7786C21.2548 1.74244 20.2575 1.86737 19.7868 2.11724C19.3138 2.37381 18.9992 2.84232 18.852 3.52501C18.698 4.21662 18.62 5.85195 18.62 8.43099V19.0372C18.62 21.672 18.5196 23.6643 18.3143 25.0408C18.1046 26.4151 17.5357 27.7559 16.5875 29.0633C15.6438 30.3618 14.3811 31.3724 12.8082 32.0774C11.2309 32.7779 9.40145 33.126 7.31323 33.126C4.96845 33.126 3.16133 32.6909 1.89858 31.8298C0.633605 30.9619 0 29.9245 0 28.7331C0 28.0125 0.225332 27.4057 0.678226 26.9104C1.13335 26.4218 1.68887 26.1809 2.35148 26.1809C3.02747 26.1809 3.59415 26.3973 4.04481 26.8368C4.50217 27.2763 4.7275 27.8184 4.7275 28.4609C4.7275 28.8424 4.6338 29.2329 4.44862 29.6501C4.2813 30.0137 4.19652 30.2837 4.19652 30.4644C4.19652 30.9507 4.48209 31.3345 5.05992 31.6067C5.64221 31.8744 6.35613 32.0172 7.21061 32.0172C8.94633 32.0172 10.4054 31.4639 11.5945 30.3595C12.7814 29.253 13.4953 27.9478 13.7408 26.4419C13.9817 24.9427 14.1066 22.4595 14.1066 19.0015V8.4176C14.1066 5.94788 14.0308 4.35717 13.888 3.63879C13.7408 2.92264 13.4351 2.42736 12.9666 2.15294C12.5026 1.87853 11.4785 1.74244 9.90566 1.74244H9.16943V0.698326Z" fill="black"/>
<path d="M36.2768 15.9782H38.5033C40.2948 15.9782 41.7405 15.8064 42.8426 15.4405C43.9425 15.088 44.8639 14.3273 45.5957 13.1805C46.3319 12.0293 46.6978 10.6149 46.6978 8.93268C46.6978 6.36034 46.0664 4.47291 44.8037 3.26816C43.5432 2.06342 41.4973 1.46105 38.664 1.46105C37.6243 1.46105 36.8278 1.49451 36.2768 1.55921V15.9782ZM36.2768 17.0959V23.6506C36.2768 26.1092 36.337 27.7133 36.453 28.4696C36.569 29.2259 36.8769 29.7948 37.3834 30.1585C37.8876 30.531 38.8424 30.714 40.2413 30.714H41.2765V31.7559H26.9668V30.714H27.7967C29.1331 30.714 30.059 30.54 30.5721 30.2142C31.0852 29.8729 31.4154 29.3464 31.5537 28.6325C31.6898 27.9297 31.759 26.2787 31.759 23.6774V8.43294C31.759 5.95429 31.6898 4.36359 31.5537 3.64297C31.4154 2.92236 31.1075 2.42931 30.6301 2.15266C30.1549 1.87825 29.1219 1.74216 27.5469 1.74216H26.9668V0.698048L30.8755 0.539644C33.9989 0.412476 36.4352 0.35224 38.1843 0.35224C41.4014 0.35224 43.8823 0.604343 45.618 1.10409C47.3604 1.61276 48.7838 2.5007 49.8971 3.79022C51.0103 5.06635 51.5659 6.68829 51.5659 8.64265C51.5659 10.3404 51.1821 11.833 50.4258 13.1314C49.6695 14.4299 48.5852 15.416 47.1708 16.0853C45.7519 16.7568 43.2621 17.0959 39.6969 17.0959H36.2768Z" fill="black"/>
<path d="M77.4927 26.3967L88.7883 0.697769H98.3749V1.74188H97.2282C95.6932 1.74188 94.6893 1.86681 94.2163 2.11669C93.7411 2.37548 93.4288 2.84176 93.2681 3.52445C93.1053 4.21606 93.0272 5.85362 93.0272 8.43266V23.6771C93.0272 26.1223 93.0874 27.7219 93.2101 28.4805C93.3306 29.2323 93.6407 29.7945 94.136 30.1604C94.6335 30.5308 95.5906 30.7137 96.9984 30.7137H98.3749V31.7578H83.4361V30.7137H84.5427C85.8657 30.7137 86.7826 30.5397 87.3002 30.214C87.8089 29.8726 88.1435 29.3483 88.2885 28.6389C88.4358 27.9294 88.5072 26.2785 88.5072 23.6771V3.90818L76.2723 31.7578H75.1591L62.8038 3.90818V22.1065C62.8038 24.5963 62.8774 26.2896 63.0313 27.1932C63.1853 28.0923 63.656 28.8798 64.4502 29.5603C65.2445 30.2385 66.3667 30.6222 67.8034 30.7137V31.7578H56.6172V30.7137C57.9513 30.6423 59.0401 30.2764 59.8767 29.6294C60.7178 28.978 61.2287 28.1771 61.4072 27.2378C61.5968 26.2852 61.6905 24.5316 61.6905 21.9615V8.43266C61.6905 5.96071 61.6169 4.36331 61.4719 3.64269C61.3246 2.92208 61.0167 2.42903 60.546 2.15238C60.0819 1.8802 59.0557 1.74188 57.4694 1.74188H56.6172V0.697769H66.0923L77.4927 26.3967Z" fill="black"/>
<path d="M104.21 19.7319C104.21 23.5737 104.968 26.4539 106.499 28.386C108.02 30.3069 110.307 31.2684 113.357 31.2684C116.034 31.2684 118.149 30.3069 119.7 28.386C121.252 26.4539 122.033 23.5871 122.033 19.7676C122.033 16.0552 121.268 13.204 119.737 11.2273C118.205 9.2529 115.987 8.2601 113.078 8.2601C110.211 8.2601 108.02 9.22612 106.499 11.1626C104.968 13.0902 104.21 15.9437 104.21 19.7319ZM100.143 19.607C100.143 15.9236 101.374 12.9631 103.837 10.7298C106.3 8.50105 109.37 7.38555 113.049 7.38555C116.764 7.38555 119.867 8.48766 122.363 10.6964C124.851 12.9051 126.098 15.9169 126.098 19.7319C126.098 23.4309 124.902 26.4227 122.522 28.7117C120.132 31.0074 116.993 32.1475 113.105 32.1475C109.316 32.1475 106.209 31.0074 103.786 28.7117C101.356 26.4227 100.143 23.3841 100.143 19.607Z" fill="black"/>
<path d="M470.85 19.7319C470.85 23.5737 471.616 26.4539 473.142 28.386C474.663 30.3069 476.95 31.2684 479.997 31.2684C482.672 31.2684 484.79 30.3069 486.342 28.386C487.897 26.4539 488.674 23.5871 488.674 19.7676C488.674 16.0552 487.913 13.204 486.374 11.2273C484.852 9.2529 482.626 8.2601 479.719 8.2601C476.854 8.2601 474.663 9.22612 473.142 11.1626C471.616 13.0902 470.85 15.9437 470.85 19.7319ZM466.783 19.607C466.783 15.9236 468.019 12.9631 470.478 10.7298C472.941 8.50105 476.02 7.38555 479.698 7.38555C483.404 7.38555 486.516 8.48766 489.006 10.6964C491.498 12.9051 492.736 15.9169 492.736 19.7319C492.736 23.4309 491.543 26.4227 489.156 28.7117C486.773 31.0074 483.638 32.1475 479.748 32.1475C475.959 32.1475 472.856 31.0074 470.431 28.7117C467.999 26.4227 466.783 23.3841 466.783 19.607Z" fill="black"/>
<path d="M136.458 19.3923C137.326 19.3655 138.219 19.3343 139.151 19.2875C140.077 19.2428 140.88 19.1134 141.565 18.897C142.25 18.6806 142.803 18.375 143.225 17.9734C143.649 17.5673 143.981 17.0274 144.22 16.376C144.463 15.7156 144.588 14.9058 144.588 13.9397C144.588 12.2576 144.173 10.9123 143.345 9.90385C142.52 8.8932 140.713 8.38676 137.935 8.38676C137.507 8.38676 137.009 8.40907 136.458 8.45592V19.3923ZM154.402 31.7119H148.01C146.884 30.9065 145.148 28.8361 142.817 25.474C142.067 24.4009 141.291 23.3747 140.485 22.393C139.675 21.4091 139.122 20.8045 138.821 20.5904C138.513 20.3717 138.047 20.2669 137.404 20.2669H136.458V25.5231C136.458 27.3905 136.503 28.6175 136.588 29.1886C136.677 29.7665 136.916 30.1993 137.297 30.4782C137.681 30.7593 138.415 30.8954 139.495 30.8954H140.65V31.7119H129.203V30.8954H129.977C131.004 30.8954 131.711 30.7704 132.108 30.5116C132.503 30.2506 132.753 29.849 132.855 29.298C132.965 28.7536 133.023 27.4864 133.023 25.4896V13.7769C133.023 11.8738 132.965 10.6468 132.855 10.0935C132.75 9.54242 132.509 9.16315 132.141 8.95121C131.773 8.74149 130.97 8.63887 129.743 8.63887H129.328V7.82009L132.737 7.65722C135.015 7.56129 136.818 7.50998 138.147 7.50998C140.425 7.50998 142.272 7.71969 143.696 8.13912C145.112 8.5697 146.268 9.26131 147.149 10.2251C148.024 11.1889 148.461 12.3423 148.461 13.6832C148.461 15.2493 147.89 16.5812 146.752 17.6901C145.61 18.7922 143.939 19.4838 141.724 19.7537C142.725 20.2245 144.327 21.958 146.538 24.9453C148.341 27.3659 149.746 28.9432 150.77 29.704C151.797 30.4492 153.006 30.8507 154.402 30.8954V31.7119Z" fill="black"/>
<path d="M170.938 21.512H181.261V22.3241C180.123 22.3241 179.346 22.449 178.947 22.6766C178.537 22.9041 178.267 23.2856 178.137 23.8233C178.01 24.361 177.945 25.6594 177.945 27.7209V30.2709C177.669 30.2241 177.408 30.1995 177.189 30.1995C176.285 30.1995 175.101 30.4784 173.637 31.025C171.643 31.7746 169.793 32.1494 168.095 32.1494C164.68 32.1494 161.84 31.0205 159.578 28.7694C157.315 26.5228 156.18 23.6783 156.18 20.2225C156.18 16.809 157.268 13.8106 159.43 11.2427C161.599 8.67032 164.537 7.3875 168.254 7.3875C171.453 7.3875 174.097 8.55431 176.194 10.8969C176.596 10.0669 176.837 9.16338 176.941 8.20181H177.758V16.2H176.941C176.605 13.757 175.672 11.825 174.153 10.3949C172.633 8.9782 170.788 8.25982 168.611 8.25982C166.369 8.25982 164.417 9.09645 162.75 10.7608C161.083 12.4206 160.254 15.3767 160.254 19.6268C160.254 23.859 161.052 26.853 162.65 28.6244C164.254 30.3869 166.235 31.2682 168.611 31.2682C169.829 31.2682 170.936 31.0205 171.928 30.5186C172.926 30.0233 173.606 29.4164 173.961 28.6981C174.327 27.9774 174.51 27.0716 174.51 25.9762C174.51 24.6979 174.418 23.8389 174.246 23.4173C174.079 22.9867 173.814 22.6989 173.459 22.5494C173.106 22.4044 172.453 22.3241 171.509 22.3241H170.938V21.512Z" fill="black"/>
<path d="M198.223 22.0137L194.06 11.9117L189.89 22.0137H198.223ZM198.584 22.8928H189.527L188.9 24.4076C187.985 26.6074 187.528 28.0397 187.528 28.7068C187.528 29.4296 187.768 29.9695 188.257 30.3421C188.748 30.7147 189.377 30.8954 190.151 30.8954V31.7119H182.963V30.8954C184.023 30.7258 184.81 30.3577 185.337 29.7754C185.854 29.1909 186.481 27.9683 187.211 26.0965C187.289 25.9202 187.577 25.2398 188.079 24.0484L195.05 7.50998H195.749L203.7 26.4624L204.787 28.9589C205.039 29.5211 205.371 29.965 205.784 30.2818C206.203 30.6165 206.828 30.815 207.66 30.8954V31.7119H198.283V30.8954C199.43 30.8954 200.206 30.8084 200.61 30.641C201.014 30.4692 201.217 30.1301 201.217 29.6282C201.217 29.3716 200.947 28.5997 200.405 27.3191L198.584 22.8928Z" fill="black"/>
<path d="M232.132 32.2695L215.19 9.86132V26.4355C215.19 27.812 215.257 28.72 215.388 29.155C215.524 29.5834 215.903 29.9872 216.535 30.3486C217.168 30.7145 218.117 30.8975 219.382 30.8975V31.7118H210.5V30.8975C211.629 30.8149 212.492 30.6097 213.088 30.2706C213.684 29.9381 214.032 29.5767 214.145 29.1885C214.259 28.8003 214.311 27.8834 214.311 26.4421V13.779C214.311 11.9473 214.226 10.718 214.054 10.0933C213.884 9.47982 213.614 9.07601 213.242 8.89976C212.867 8.72351 212.035 8.63873 210.752 8.63873V7.81995H217.876L232.011 26.5158V12.2262C232.011 11.1732 231.904 10.4325 231.686 10.0086C231.471 9.58468 231.023 9.25449 230.358 9.00462C229.687 8.75697 228.883 8.63873 227.944 8.63873V7.81995H236.576V8.63873C235.574 8.71682 234.789 8.91315 234.218 9.21656C233.644 9.51775 233.272 9.88363 233.122 10.3142C232.964 10.747 232.884 11.4743 232.884 12.4961V32.2695H232.132Z" fill="black"/>
<path d="M277.277 20.1879H278.319V31.0975H277.277C277.003 29.8571 276.505 28.7639 275.785 27.8112C273.067 30.89 269.596 32.416 265.373 32.416C260.908 32.416 257.261 30.9993 254.429 28.1615C251.598 25.3259 250.182 21.5756 250.182 16.9083C250.182 13.8429 250.833 10.9538 252.138 8.24754C253.443 5.53687 255.271 3.52897 257.611 2.21714C259.949 0.907539 262.512 0.249393 265.303 0.249393C267.608 0.249393 269.707 0.724596 271.581 1.675C273.455 2.62095 274.857 3.67175 275.785 4.82518C276.452 3.53343 276.864 2.1926 276.994 0.809376H278.04L278.319 12.5489H277.277C276.592 8.38364 275.2 5.46994 273.09 3.82792C270.99 2.18591 268.614 1.36489 265.966 1.36489C262.733 1.36489 260.161 2.68119 258.251 5.32716C256.341 7.96644 255.398 11.7458 255.398 16.6629C255.398 21.319 256.424 24.8908 258.51 27.3806C260.603 29.8571 263.195 31.0975 266.285 31.0975C267.943 31.0975 269.64 30.6981 271.372 29.8861C273.103 29.0762 274.475 27.7064 275.483 25.781C276.499 23.8534 277.094 21.9905 277.277 20.1879Z" fill="black"/>
<path d="M303.481 19.6402H291.041V25.4163C291.041 27.2992 291.094 28.5352 291.181 29.1153C291.273 29.6976 291.523 30.1304 291.897 30.4137C292.288 30.6971 293.024 30.8331 294.106 30.8331H294.729V31.6475H283.908V30.8331H284.533C285.559 30.8331 286.266 30.706 286.663 30.4472C287.065 30.1928 287.324 29.789 287.433 29.2469C287.538 28.7003 287.598 27.4264 287.598 25.4274V13.7191C287.598 11.8138 287.538 10.5868 287.433 10.0335C287.324 9.48689 287.078 9.10762 286.717 8.89121C286.362 8.68373 285.568 8.57441 284.352 8.57441H283.908V7.76455H294.729V8.57441H294.285C293.104 8.57441 292.332 8.67257 291.967 8.86667C291.598 9.063 291.346 9.42219 291.228 9.94648C291.096 10.4775 291.041 11.7335 291.041 13.7191V18.4533H303.481V13.7191C303.481 11.8138 303.432 10.5868 303.329 10.0335C303.22 9.48689 302.988 9.10762 302.633 8.89121C302.281 8.68373 301.502 8.57441 300.299 8.57441H299.67V7.76455H310.486V8.57441H310.143C308.958 8.57441 308.193 8.67257 307.84 8.86667C307.474 9.063 307.231 9.42219 307.111 9.94648C306.983 10.4775 306.923 11.7335 306.923 13.7191V25.4274C306.923 27.3037 306.97 28.5352 307.059 29.1197C307.142 29.702 307.381 30.1304 307.762 30.4137C308.157 30.6971 308.878 30.8331 309.946 30.8331H310.486V31.6475H299.67V30.8331H300.491C301.495 30.8331 302.191 30.706 302.579 30.4472C302.97 30.1862 303.22 29.7846 303.329 29.2402C303.432 28.6936 303.481 27.4197 303.481 25.4163V19.6402Z" fill="black"/>
<path d="M328.116 21.9585L323.955 11.8543L319.783 21.9585H328.116ZM328.471 22.8353H319.426L318.793 24.3546C317.88 26.5477 317.425 27.9777 317.425 28.647C317.425 29.3632 317.662 29.912 318.155 30.2779C318.643 30.6482 319.272 30.8334 320.049 30.8334V31.6455H312.852V30.8334C313.918 30.6683 314.708 30.2958 315.232 29.7157C315.747 29.1356 316.374 27.9019 317.113 26.0323C317.186 25.8583 317.47 25.1734 317.972 23.9909L324.944 7.44357H325.644L333.598 26.396L334.682 28.8969C334.927 29.4547 335.264 29.9053 335.681 30.2311C336.096 30.5501 336.719 30.7509 337.555 30.8334V31.6455H328.176V30.8334C329.319 30.8334 330.102 30.7464 330.503 30.5835C330.905 30.4073 331.112 30.0682 331.112 29.5729C331.112 29.3119 330.842 28.5422 330.298 27.2571L328.471 22.8353Z" fill="black"/>
<path d="M340.604 31.402V23.7028H341.478C342.475 28.7092 344.847 31.2079 348.577 31.2079C350.25 31.2079 351.56 30.726 352.477 29.7756C353.398 28.8163 353.856 27.7498 353.856 26.5652C353.856 25.3716 353.456 24.3654 352.646 23.5556C351.843 22.7591 350.364 21.9046 348.216 20.9899C346.297 20.1689 344.856 19.4483 343.888 18.8303C342.917 18.2145 342.152 17.4181 341.605 16.4297C341.063 15.4392 340.793 14.3906 340.793 13.2751C340.793 11.5728 341.382 10.1584 342.569 9.02279C343.756 7.88944 345.251 7.32053 347.071 7.32053C348.089 7.32053 349.041 7.48563 349.938 7.81582C350.833 8.13931 351.75 8.82423 352.691 9.85495C353.238 9.21243 353.543 8.51412 353.615 7.7645H354.358V14.0135H353.615C353.164 12.2131 352.368 10.7875 351.225 9.75233C350.088 8.71714 348.762 8.20178 347.259 8.20178C345.829 8.20178 344.778 8.58105 344.106 9.34182C343.441 10.1026 343.104 10.9392 343.104 11.8472C343.104 12.9427 343.528 13.8685 344.367 14.6204C345.188 15.3878 346.685 16.2624 348.834 17.2262C350.888 18.1476 352.39 18.8905 353.325 19.4483C354.259 20.006 355.011 20.7802 355.582 21.7663C356.138 22.7591 356.428 23.8924 356.428 25.1842C356.428 27.2256 355.748 28.8877 354.373 30.166C353.012 31.4466 351.192 32.0869 348.912 32.0869C346.284 32.0869 344.093 31.0785 342.341 29.0751C341.953 29.6217 341.665 30.398 341.478 31.402H340.604Z" fill="black"/>
<path d="M379.901 24.2051H380.715L380.195 31.6455H360.518V30.8357H361.013C362.184 30.8357 362.949 30.6773 363.288 30.3582C363.637 30.0414 363.846 29.6376 363.944 29.1557C364.034 28.6693 364.08 27.4267 364.08 25.4277V13.7194C364.08 11.8922 364.034 10.6964 363.933 10.123C363.828 9.54518 363.599 9.14359 363.246 8.91826C362.878 8.68624 362.117 8.57246 360.955 8.57246V7.76483H377.96L378.528 13.6948H377.716C377.335 12.0394 376.882 10.8592 376.338 10.1676C375.798 9.46709 375.16 9.02758 374.408 8.84687C373.663 8.66393 372.465 8.57246 370.807 8.57246H367.525V18.5785H370.04C371.195 18.5785 372.003 18.4803 372.458 18.284C372.922 18.0832 373.223 17.782 373.368 17.3782C373.52 16.9722 373.587 16.1846 373.587 15.0156H374.397V23.1409H373.587C373.587 21.8179 373.48 20.9322 373.257 20.4749C373.036 20.0287 372.719 19.7319 372.288 19.5936C371.86 19.4642 371.142 19.3928 370.127 19.3928H367.525V25.0395C367.525 27.864 367.699 29.5305 368.07 30.0236C368.435 30.5255 369.41 30.7732 371.006 30.7732H372.772C374.026 30.7732 375.059 30.6259 375.871 30.3359C376.668 30.0414 377.442 29.3989 378.172 28.3927C378.901 27.391 379.483 25.9966 379.901 24.2051Z" fill="black"/>
<path d="M403.463 11.527C406.656 9.66861 408.242 7.6607 408.242 5.49663C408.242 4.21157 407.894 3.16969 407.18 2.37322C406.469 1.57898 405.52 1.18856 404.356 1.18856C403.202 1.18856 402.279 1.57006 401.576 2.3286C400.88 3.08491 400.536 4.03309 400.536 5.16644C400.536 6.71922 401.516 8.84313 403.463 11.527ZM401.078 14.4206C399.396 15.4402 398.098 16.6338 397.19 17.9969C396.264 19.3668 395.811 20.6898 395.811 21.9614C395.811 23.9247 396.603 25.7876 398.192 27.53C399.778 29.2836 401.569 30.1604 403.573 30.1604C405.808 30.1604 407.865 29.0583 409.753 26.8518C406.395 21.7294 403.501 17.5931 401.078 14.4206ZM411.377 12.1584H421.657V13.2739C420.365 13.6197 419.234 14.2422 418.273 15.1346C417.305 16.0225 416.31 17.7025 415.285 20.1699C414.429 22.2091 413.635 23.6949 412.916 24.6543C414.625 27.1039 415.97 28.6522 416.943 29.3126C417.92 29.9707 418.955 30.2965 420.058 30.2965C421.561 30.2965 422.724 29.5759 423.534 28.1413H424.642C424.312 29.4554 423.592 30.5129 422.501 31.3138C421.405 32.117 420.136 32.5186 418.703 32.5186C415.578 32.5186 412.838 30.9613 410.469 27.8334C407.658 30.9613 404.684 32.5186 401.545 32.5186C400.008 32.5186 398.548 32.1482 397.15 31.4075C395.744 30.6668 394.606 29.6272 393.727 28.2863C392.842 26.9522 392.404 25.4016 392.404 23.6503C392.404 21.6424 392.951 19.9602 394.051 18.5949C395.144 17.2339 397.246 15.5116 400.356 13.4435C398.482 10.8421 397.547 8.49063 397.547 6.39126C397.547 4.72916 398.185 3.25224 399.459 1.94933C400.742 0.650885 402.346 -0.00056839 404.278 -0.00056839C405.998 -0.00056839 407.551 0.490253 408.949 1.46074C410.33 2.43569 411.026 3.71182 411.026 5.28468C411.026 7.74548 408.729 10.1237 404.142 12.4328C406.993 16.2746 409.672 19.9915 412.202 23.5789C413.106 22.3095 413.826 20.9887 414.357 19.6278C414.873 18.2714 415.149 17.2116 415.149 16.4442C415.149 14.617 413.891 13.5595 411.377 13.2739V12.1584Z" fill="black"/>
<path d="M459.893 20.0834H460.935V30.9908H459.893C459.619 29.7548 459.114 28.6594 458.4 27.7067C455.683 30.7788 452.203 32.3115 447.993 32.3115C443.529 32.3115 439.879 30.8948 437.043 28.0592C434.21 25.2192 432.793 21.4666 432.793 16.7993C432.793 13.7317 433.449 10.8426 434.756 8.14082C436.057 5.43238 437.889 3.42448 440.227 2.11042C442.56 0.803047 445.124 0.144901 447.919 0.144901C450.228 0.144901 452.323 0.613413 454.197 1.56828C456.069 2.512 457.472 3.56726 458.4 4.71846C459.07 3.42448 459.476 2.08811 459.619 0.698191H460.654L460.935 12.44H459.893C459.208 8.27468 457.816 5.36768 455.705 3.72343C453.604 2.07472 451.228 1.25371 448.584 1.25371C445.345 1.25371 442.781 2.57446 440.867 5.22044C438.959 7.85525 438.014 11.6368 438.014 16.5584C438.014 21.2167 439.055 24.7886 441.132 27.2739C443.212 29.7481 445.802 30.9908 448.903 30.9908C450.561 30.9908 452.256 30.587 453.99 29.7749C455.719 28.9717 457.1 27.6063 458.099 25.6787C459.114 23.7489 459.712 21.8838 459.893 20.0834Z" fill="black"/>
<path d="M494.742 29.7286C494.742 29.0102 494.999 28.3945 495.519 27.8836C496.027 27.3682 496.643 27.1161 497.364 27.1161C498.091 27.1161 498.716 27.3682 499.231 27.8836C499.74 28.3945 500.001 29.0102 500.001 29.7286C500.001 30.4648 499.74 31.0806 499.22 31.6004C498.696 32.1136 498.073 32.3701 497.364 32.3701C496.63 32.3701 496.012 32.1024 495.503 31.5736C494.999 31.0404 494.742 30.4269 494.742 29.7286Z" fill="black"/>
</g>
</g>
<defs>
<clipPath id="clip0_34_1436">
<rect width="500" height="33.1262" fill="white"/>
</clipPath>
</defs>
</svg>
