<svg width="500" height="88" viewBox="0 0 500 88" fill="none" xmlns="http://www.w3.org/2000/svg">
<g clip-path="url(#clip0_34_1435)">
<path fill-rule="evenodd" clip-rule="evenodd" d="M493.907 35.9296C493.907 40.3894 490.327 43.9384 485.898 43.9384H481.564C479.02 43.9384 477.136 45.7286 477.136 48.1156C477.136 50.6595 479.146 52.4497 481.564 52.4497H485.113V74.0264H469.127V56.6269C469.127 54.2399 466.834 52.3241 464.416 52.3241C461.998 52.3241 460.082 54.2399 460.082 56.6269V74.0264H443.97V52.4497H447.645C450.189 52.4497 452.104 50.5339 452.104 48.1156C452.104 45.603 450.063 43.9384 447.645 43.9384H407.098C405.842 46.9849 404.177 50.157 401.633 52.1985C398.21 54.9937 394.284 55.9987 390.452 55.245L389.699 55.1193L389.824 55.8731C390.327 59.956 388.945 63.8819 386.024 67.1796C382.318 71.2312 376.602 73.9007 371.011 73.9007C365.547 73.9007 359.705 71.3568 356.03 67.1796C353.235 64.0075 351.979 59.5477 352.356 55.8731L352.481 55.1193L351.696 55.245C348.147 56.1244 343.719 54.9937 340.264 52.1985C335.71 48.5239 333.166 42.6822 333.166 36.9661C333.166 31.1244 335.584 25.4083 340.264 21.7023C343.719 19.0641 348.147 17.902 351.696 18.6558L352.481 18.7814L352.356 18.0276C351.853 14.353 353.235 9.89322 356.03 6.72111C359.705 2.54397 365.547 0 371.011 0C376.602 0 382.318 2.54397 386.024 6.72111C388.945 10.1445 390.327 13.9761 389.824 18.0276L389.699 18.7814L390.327 18.6558C394.158 17.902 398.084 18.907 401.508 21.7023C403.424 23.3668 405.339 25.6595 406.47 27.9523H485.773C490.076 27.9523 493.782 31.6269 493.907 35.9296ZM391.614 37.2173C391.614 35.1759 390.861 33.26 389.447 31.8781C388.065 30.4648 386.15 29.7111 384.108 29.7111C382.475 29.7111 380.936 30.0879 379.397 31.3756L376.885 28.9573C377.89 27.2927 378.392 25.9108 378.392 24.3719C378.392 22.3618 377.638 20.446 376.225 19.0641C374.718 17.6508 372.802 16.897 370.76 16.897C368.75 16.897 366.834 17.6508 365.421 19.0641C364.039 20.446 363.285 22.3618 363.285 24.3719C363.285 26.1621 363.913 27.9523 364.667 28.9573L362.123 31.3756C360.993 30.4648 359.454 29.7111 357.695 29.7111C355.653 29.7111 353.738 30.4648 352.356 31.8781C350.817 33.26 350.063 35.1759 350.063 37.2173C350.063 39.2274 350.942 41.2688 352.356 42.6822C353.738 44.1897 355.653 44.8178 357.695 44.8178C359.077 44.8178 360.616 44.3153 362.123 43.4359L364.667 45.8543C363.662 47.1105 363.285 48.7751 363.285 50.0314C363.285 52.0729 364.039 53.9573 365.421 55.3706C366.834 56.8781 368.75 57.6633 370.76 57.6633C374.969 57.6633 378.392 54.2399 378.392 50.0314C378.392 48.5239 377.764 47.1105 376.885 45.8543L379.397 43.4359C380.81 44.3153 382.475 44.8178 384.108 44.8178C388.317 44.8178 391.614 41.3945 391.614 37.2173Z" fill="#B30000"/>
<path fill-rule="evenodd" clip-rule="evenodd" d="M29.9937 40.138L52.9837 73.6493H35.0817L20.1947 50.4081L14.353 56.6267V73.6493H0V18.4043H14.353V39.6355L32.5377 18.4043H50.4397L29.9937 40.138ZM90.2324 56.7837H60.7412C60.9925 62.2485 64.1646 65.9231 69.755 65.9231C72.9585 65.9231 76.005 64.4156 77.2613 61.4948H89.6043C87.1859 70.7598 78.6746 74.8113 69.6294 74.8113C56.5641 74.8113 47.6445 66.9282 47.6445 53.486C47.6445 41.1744 57.5691 32.4118 69.3781 32.4118C83.7312 32.4118 90.8605 43.1844 90.2324 56.7837ZM77.1357 49.403C77.01 44.849 73.8379 41.1744 69.3781 41.1744C64.6985 41.1744 61.652 44.5978 60.8668 49.403H77.1357ZM117.431 33.5425H130.905L115.138 77.2297C111.966 85.9922 107.255 87.1229 98.3668 87.1229H92.1482V76.4759H96.7023C99.6231 76.4759 101.916 74.8113 101.916 72.0161C101.916 69.849 99.3719 63.6304 98.6181 61.4948L88.1909 33.5425H102.167L109.799 59.7045H109.925L117.431 33.5425ZM495.195 73.9319C492.525 73.9319 490.358 71.7648 490.358 69.0952C490.358 66.4257 492.525 64.29 495.195 64.29C497.864 64.29 500.031 66.4257 500.031 69.0952C500.031 71.7648 497.864 73.9319 495.195 73.9319ZM499.246 69.0952C499.246 66.7711 497.425 64.9181 495.195 64.9181C492.933 64.9181 491.112 66.7711 491.112 69.0952C491.112 71.4194 492.933 73.3038 495.195 73.3038C497.425 73.3038 499.246 71.4194 499.246 69.0952ZM181.219 56.5324C181.219 69.5978 171.545 73.6807 159.736 73.6807H133.197V18.4357H158.982C168.499 18.3101 178.926 20.7284 178.926 32.2862C178.926 37.2171 176.005 41.3 171.702 43.4357C177.544 45.1003 181.219 50.3138 181.219 56.5324ZM147.55 40.138H158.731C161.149 40.138 164.573 38.8817 164.573 34.9244C164.573 30.8729 161.778 29.6166 158.731 29.6166H147.55V40.138ZM166.866 55.8729C166.866 51.0362 163.442 49.403 159.108 49.403H147.55V62.0915H159.108C163.693 62.0915 166.866 60.5839 166.866 55.8729ZM302.45 48.6493L318.938 73.6493H303.078L293.279 57.5375L289.856 60.8352V73.6493H276.633V18.4043H289.856V46.8591L301.79 33.5111H317.054L302.45 48.6493ZM495.823 69.5035L497.487 72.0161H496.734L495.195 69.5035H494.064V72.0161H493.405V66.4257H495.572C496.859 66.4257 497.362 66.9596 497.362 67.9646C497.362 68.844 496.734 69.3465 495.823 69.5035ZM496.734 67.9646C496.734 67.0852 496.074 66.9596 495.446 66.9596H494.19V68.844H495.069C495.823 68.844 496.734 68.844 496.734 67.9646ZM224.058 45.854V63.5048C224.058 66.9596 224.058 70.6342 225.565 73.8063H212.343C211.84 72.55 211.715 71.2623 211.589 70.0061C208.166 73.555 203.204 74.937 198.367 74.937C190.641 74.937 184.642 71.0111 184.642 62.751C184.642 49.6857 198.901 50.6907 208.04 48.7749C210.207 48.398 211.464 47.5186 211.464 45.1003C211.464 42.0538 207.789 40.9231 205.119 40.9231C201.413 40.9231 199.152 42.5563 198.492 45.9797H186.181C186.432 40.6719 188.85 37.2171 192.399 35.2071C195.98 33.1656 200.534 32.4118 205.119 32.4118C214.636 32.4118 223.807 34.4533 223.807 45.854H224.058ZM211.087 54.8993C209.171 56.0299 205.873 56.2812 202.952 57.035C199.906 57.6631 197.487 58.9508 197.487 62.1229C197.487 65.4206 200.031 66.7083 202.952 66.7083C209.296 66.7083 211.338 63.1279 211.087 54.8993ZM270.54 47.8955V73.6807H257.318V54.2397C257.318 48.7749 257.977 43.2159 250.722 43.2159C245.76 43.2159 243.624 47.393 243.624 51.8214V73.6807H230.402V33.5425H243.09V39.0073H243.216C245.634 34.9558 250.974 32.4118 255.81 32.4118C269.158 32.4118 270.163 42.1794 270.54 47.8955Z" fill="black"/>
</g>
<defs>
<clipPath id="clip0_34_1435">
<rect width="500" height="87.3116" fill="white"/>
</clipPath>
</defs>
</svg>
