<svg width="500" height="160" viewBox="0 0 500 160" fill="none" xmlns="http://www.w3.org/2000/svg">
<g clip-path="url(#clip0_34_1434)">
<path d="M13.4959 4.75586H129.308C136.627 4.75586 142.65 10.7163 142.65 18.0974V137.554C142.65 144.873 136.72 150.895 129.308 150.895H102.872C99.8455 148.363 96.3865 145.336 94.9968 144.41C93.1438 143.175 91.6923 142.341 92.4644 140.642C93.9159 137.708 95.3056 133.941 96.2939 134.311C97.313 134.62 102.007 135.33 103.335 136.01C104.015 136.319 106.64 136.319 109.327 135.021C113.65 133.014 114.731 129.71 115.349 129.308C116.059 128.999 117.356 126.992 117.356 126.992C117.974 126.374 118.283 125.54 118.375 124.614C118.746 122.915 119.055 119.611 117.665 117.603C116.677 115.905 114.361 113.588 112.662 112.909C110.346 111.89 109.635 111.21 109.635 109.574C109.327 108.277 112.353 107.875 112.662 105.59C112.662 104.2 111.89 102.872 110.5 102.872V102.347C111.736 102.193 113.65 101.575 113.341 99.5675C113.125 98.3321 112.569 97.1895 111.643 96.263C111.643 96.263 111.334 94.2555 112.353 93.5452C113.743 92.8658 116.739 93.5452 119.055 93.2364C121.433 92.9276 123.749 92.557 123.749 90.2407C123.749 86.6274 121.433 84.2185 119.055 80.5125C116.739 76.8374 114.361 74.5211 114.052 73.8108C113.805 73.0387 113.743 72.2667 113.65 71.5872C113.65 71.5872 115.75 69.8269 116.43 69.2092C117.665 68.0357 119.117 66.4297 118.128 64.4223C117.82 63.4032 116.43 63.4032 115.812 62.4149C114.824 61.4266 115.133 59.4192 114.114 58.4001C113.434 57.4118 113.434 55.4044 112.415 53.7058C111.736 51.6984 110.809 48.3013 110.809 48.3013C110.809 48.3013 114.422 45.985 114.731 44.9967C115.75 42.8349 116.214 40.4569 116.121 38.048C116.121 38.048 117.449 32.7361 114.114 29.3389C113.187 27.9801 111.89 26.8065 110.5 26.0344C108.802 24.7991 106.949 23.7182 105.096 22.7299C102.625 21.7108 99.9999 20.9387 97.4675 20.2593C96.1395 19.5798 94.5953 19.271 93.1438 19.271C92.0629 19.6416 90.9202 19.6416 89.8393 19.271C88.8201 19.271 84.8053 17.943 82.4273 18.2518C80.4199 18.2518 77.733 19.5798 73.4094 19.9504C69.0857 20.6299 65.3797 19.6416 63.0635 20.2593C60.6855 21.2475 59.3575 20.9387 58.0604 21.5564C57.0413 22.0196 56.053 22.4211 54.9721 22.6373C54.9721 22.6373 52.6558 23.3476 51.6676 23.6564C50.8028 24.3358 49.8763 25.0462 48.9499 25.6638L46.9424 27.6712C46.263 27.6712 44.2556 28.6595 43.9468 29.3389L42.6188 30.6669C42.0011 30.8831 41.4143 31.1919 40.9511 31.6552C40.2408 32.3655 38.9437 34.3729 38.326 34.6817C37.3069 34.9906 36.2259 35.9788 33.8479 37.9862C31.5317 40.3025 28.814 43.6996 28.4434 44.6879C28.1345 45.3982 26.436 48.7027 26.436 49.3822C26.1271 50.4013 25.4477 53.7058 24.7374 54.3853C24.4285 55.0956 22.4211 59.1104 22.4211 59.7898C22.1123 60.809 22.1123 64.1135 21.7417 65.1017C21.4329 66.1209 20.0431 70.1357 20.0431 73.1314C20.0431 75.8182 21.7417 77.8257 21.7417 78.8448C22.3594 81.3772 22.6682 83.9097 22.73 86.5347C23.1314 88.2333 24.6756 93.8541 25.355 95.2438C25.7565 96.3247 26.2815 97.3439 27.0536 98.2395C27.6095 100.185 28.5978 102.038 29.8949 103.49C31.9023 105.899 33.9097 108.277 34.9288 108.956C36.9363 110.655 37.4613 114.824 37.4613 114.824C37.4613 114.824 34.373 115.441 33.6935 116.059C32.9832 117.047 30.2964 124.151 27.4551 128.999C24.7374 133.539 19.9505 138.172 19.6416 140.179C19.3328 142.032 21.8035 143.731 21.1858 144.039C20.8152 144.256 17.9431 147.9 15.6577 150.895H13.6503C6.14565 150.803 0.154297 144.873 0.154297 137.492V18.0357C0.154297 10.7163 6.14565 4.75586 13.4959 4.75586Z" fill="#AD112B"/>
<path fill-rule="evenodd" clip-rule="evenodd" d="M158.77 117.14H176.034V121.216H163.403V130.79H175.509V134.867H163.403V149.722H158.77V117.14ZM181.902 115.688H186.843V120.63H181.902V115.688ZM182.149 125.941H186.534V149.752H182.149V125.941ZM194.163 125.941H198.394V129.709H198.486C199.783 127.022 202.964 125.386 206.269 125.386C212.445 125.386 215.225 129.246 215.225 135.639V149.752H210.809V137.43C210.809 131.871 209.666 129.184 205.806 128.937C200.802 128.937 198.548 132.952 198.548 138.727V149.752H194.163V125.941ZM223.533 127.64C225.849 126.158 228.567 125.386 231.346 125.386C238.109 125.386 240.889 128.783 240.889 135.268V145.12C240.889 146.664 240.889 148.208 241.043 149.752H236.967V146.664H236.874C235.114 148.98 232.427 150.37 229.493 150.308C224.397 150.308 220.784 148.054 220.784 142.896C220.784 136.874 227.331 135.021 231.809 135.021C233.57 135.021 234.805 135.021 236.504 135.114C236.504 130.945 235.021 128.875 230.636 128.875C228.103 128.937 225.633 129.802 223.687 131.346L223.533 127.64ZM236.349 138.418C235.423 138.418 234.496 138.326 233.57 138.326C231.192 138.326 225.324 138.727 225.324 142.896C225.324 145.367 227.794 146.726 229.802 146.726C234.126 146.726 236.411 144.039 236.411 140.487L236.349 138.418ZM247.93 125.941H252.161V129.709H252.254C253.551 127.022 256.732 125.416 260.037 125.416C266.213 125.416 268.993 129.246 268.993 135.67V149.752H264.576V137.43C264.576 131.871 263.341 129.184 259.512 128.937C254.57 128.937 252.316 132.952 252.316 138.727V149.752H247.93V125.941ZM291.198 129.956C289.654 129.339 288.017 128.968 286.411 128.968C281.562 128.968 278.783 133.353 278.783 137.893C278.783 142.124 281.099 146.819 286.72 146.819C288.326 146.757 290.024 146.294 291.414 145.46L291.723 149.382C290.024 150.061 288.109 150.463 286.256 150.37C279.092 150.37 274.15 144.749 274.15 137.893C274.15 130.636 278.999 125.416 286.256 125.416C288.017 125.416 289.87 125.725 291.568 126.343L291.198 129.956ZM296.757 115.688H301.698V120.63H296.757V115.688ZM297.004 125.941H301.389V149.752H297.004V125.941ZM310.191 127.64C312.569 126.158 315.256 125.386 318.035 125.386C324.83 125.386 327.609 128.783 327.609 135.268V145.12C327.527 146.664 327.599 148.208 327.825 149.752H323.687V146.664H323.594C321.834 148.98 319.116 150.37 316.182 150.277C311.025 150.277 307.473 148.054 307.473 142.896C307.473 136.874 314.021 135.021 318.591 135.021C320.29 135.021 321.525 135.021 323.224 135.114C323.224 130.945 321.741 128.875 317.356 128.875C314.793 128.937 312.322 129.802 310.407 131.315L310.191 127.64ZM323.162 138.449C322.235 138.449 321.309 138.357 320.382 138.357C317.974 138.357 312.106 138.758 312.106 142.927C312.106 145.367 314.576 146.757 316.584 146.757C320.907 146.757 323.224 144.07 323.224 140.518L323.162 138.449ZM335.206 114.793H339.592V149.783H335.206V114.793ZM383.477 123.038C381.222 121.587 378.69 120.815 374.521 120.815C367.047 120.815 362.044 126.281 362.044 133.508C362.044 141.167 367.51 146.232 374.305 146.232C376.065 146.324 377.825 146.17 379.524 145.707V135.824H372.668V131.995H384.249V148.949C381.068 149.938 377.671 150.401 374.305 150.308C363.959 150.308 357.103 143.699 357.103 133.353C357.103 123.285 364.329 116.646 374.305 116.646C377.517 116.491 380.759 117.109 383.848 118.252L383.477 123.038ZM390.889 126.065H394.966V129.74H395.058C396.201 127.3 398.61 125.664 401.297 125.509C402.285 125.509 403.304 125.602 404.231 125.818V129.74C403.458 129.431 402.594 129.277 401.76 129.277C397.838 129.277 395.274 132.983 395.274 139.005V149.783H390.889V126.065ZM418.344 125.386C425.602 125.386 430.45 130.636 430.45 137.862C430.45 144.657 425.447 150.277 418.344 150.277C411.179 150.277 406.238 144.657 406.238 137.862C406.238 130.636 411.087 125.447 418.344 125.386ZM418.406 146.819C423.502 146.819 425.818 142.093 425.818 137.862C425.818 133.323 423.038 128.937 418.406 128.937C413.65 128.937 410.932 133.323 410.932 137.862C410.932 142.093 413.187 146.819 418.406 146.819ZM456.207 149.722H451.976V145.954H451.883C450.586 148.641 447.405 150.277 444.101 150.277C437.924 150.277 435.145 146.51 435.145 140.086V126.003H439.561V138.326C439.561 143.885 440.704 146.571 444.564 146.819C449.567 146.819 451.822 142.804 451.822 137.029V126.003H456.207V149.722ZM462.445 125.972H466.676V129.369H466.769C467.912 127.609 470.63 125.447 474.861 125.447C481.809 125.447 485.114 131.068 485.114 137.461C485.114 144.008 482.118 150.339 474.953 150.339C470.691 150.339 468.375 148.641 466.985 146.479H466.831V159.573H462.445V125.972ZM474.027 128.999C469.24 128.999 466.924 133.539 466.924 137.924C466.924 141.846 468.993 146.788 473.934 146.788C478.628 146.788 480.574 141.476 480.481 137.77C480.574 133.446 478.783 128.999 474.027 128.999ZM170.321 31.4078C170.321 23.4708 170.259 20.7839 170.105 15.6264C170.012 9.04831 168.097 8.15269 158.925 8.15269C157.689 8.15269 157.689 7.2262 157.689 6.20705C157.689 5.52762 157.906 4.75554 158.678 4.75554C159.542 4.75554 168.807 5.21878 175.818 5.21878C182.983 5.21878 192.711 4.75554 193.638 4.75554C194.41 4.75554 194.626 5.52762 194.626 6.20705C194.626 7.2262 194.626 8.15269 193.391 8.15269C183.662 8.15269 181.748 8.98654 181.686 15.6264C181.593 20.7839 181.439 23.4708 181.439 31.4078V58.7704C181.439 63.619 181.531 70.8766 181.748 76.4974C181.902 80.5122 185.052 81.0372 193.545 81.0372C209.048 81.0372 214.669 79.0298 219.394 64.6382C220.166 62.2293 220.012 61.4572 221 61.4572C223.069 61.4572 223.316 61.8587 223.316 62.847C223.316 63.4029 221 72.5752 219.085 83.9093C219.085 83.9711 219.085 83.9711 219.085 83.9711C218.993 84.527 218.529 84.8976 218.004 84.8358C216.769 84.8358 220.228 84.5888 176.436 84.5888C159.913 84.5888 159.45 84.8358 158.678 84.8358C157.751 84.8358 157.751 84.3726 157.751 83.3534C157.751 82.1181 157.751 81.4387 160.315 81.4387C169.116 81.4387 169.796 79.493 169.95 76.4974C170.166 70.8766 170.259 63.5573 170.259 58.7704L170.321 31.4078ZM230.018 11.1484C230.018 11.0557 230.018 11.0557 230.018 10.994C230.08 7.75121 232.798 5.12614 236.102 5.21878C239.345 5.28055 241.97 8.06004 241.877 11.3028C241.815 14.5455 239.098 17.1397 235.793 17.078C232.55 16.9853 229.925 14.3911 230.018 11.1484ZM346.077 74.9532C347.004 74.1811 347.467 73.1928 347.992 73.1928C348.394 73.1928 349.691 73.9649 349.691 74.737C349.598 75.4164 349.32 76.0341 348.764 76.4356C343.051 82.9828 336.596 85.9785 329.184 85.9785C316.151 85.9785 305.96 76.7135 305.96 60.6851C305.96 44.1935 316.985 34.0946 331.408 34.0946C346.695 34.0946 349.598 42.4331 349.598 44.7494C349.598 46.0465 347.838 49.5363 343.668 49.5363C340.117 49.5363 339.654 48.4554 338.418 42.2787C338.109 40.5801 337.337 37.0285 331.5 37.0285C324.397 37.0285 315.688 42.4331 315.688 60.7778C315.688 65.7809 317.603 79.8019 334.743 79.8019C338.882 79.8019 343.823 77.0224 346.077 74.9532ZM377.825 86.1329C362.476 86.1329 351.853 75.0458 351.853 60.1601C351.853 45.367 362.878 34.1873 377.825 34.1873C392.804 34.1873 403.891 45.0582 403.891 60.1601C403.891 75.8179 393.421 86.1329 377.825 86.1329ZM377.825 37.1212C366.182 37.1212 362.476 49.2274 362.476 60.1601C362.476 69.6413 364.731 83.199 377.825 83.199C391.013 83.199 393.267 69.6413 393.267 60.1601C393.267 49.1348 389.561 37.1212 377.825 37.1212ZM240.333 49.9995V74.1811C240.333 80.5739 240.58 81.9019 245.521 81.9019H252.532C255.466 81.9019 256.454 80.7284 257.072 79.1842C257.535 78.1959 257.782 70.2589 257.782 63.094V47.745C257.782 43.8229 256.763 41.5993 251.142 41.0434C250.277 40.889 250.123 40.5184 250.123 39.7463C250.123 38.8198 250.432 38.2639 251.05 38.2021C263.773 35.6388 265.41 32.7358 266.707 32.7358C266.954 32.7358 267.109 33.0446 267.109 33.9402C267.109 34.6505 266.862 37.1212 266.862 42.0316C272.637 38.1095 278.443 34.3417 284.465 34.3417C288.233 34.3417 299.258 35.1138 299.258 51.1422V77.9489C299.258 79.8945 299.567 81.9637 306.516 81.9637C307.659 81.9637 307.659 82.674 307.659 83.4461C307.659 84.1255 307.659 84.8976 306.114 84.8976C302.717 84.8976 300.71 84.6814 294.78 84.6814C285.67 84.6814 283.909 84.8976 282.983 84.8976C282.303 84.8976 282.211 84.1255 282.211 83.6005C282.149 82.8284 282.767 82.0563 283.539 82.0563C283.601 82.0563 283.673 82.0563 283.755 82.0563C289.067 82.0563 290.148 81.5931 290.148 77.8871V57.8439C290.148 47.4362 289.314 40.5184 277.578 40.5184C273.347 40.5184 267.325 44.2861 266.862 45.6759V74.3355C266.862 80.7284 267.109 82.0563 272.05 82.0563C275.046 82.0563 275.262 82.1181 275.262 83.5079C275.262 84.2182 275.262 84.9903 274.119 84.9903C273.563 84.9903 258.554 84.7432 248.672 84.7432C238.573 84.7432 224.366 84.9903 222.668 84.9903C221.741 84.9903 221.741 84.2799 221.741 83.7549C221.741 82.2725 221.834 82.0563 226.003 82.0563C228.937 82.0563 229.925 80.8828 230.543 79.3386C231.006 78.3503 231.253 70.4134 231.253 63.2484V47.745C231.253 43.8229 230.234 41.5993 224.613 41.0434C223.687 40.889 223.594 40.5184 223.594 39.7463C223.594 38.8198 223.903 38.2639 224.521 38.2021C237.245 35.6388 238.882 32.7358 240.179 32.7358C240.642 32.7358 240.889 33.2608 240.889 33.9402C240.951 34.2491 240.333 35.4226 240.333 49.9995ZM420.321 17.3868V74.1193C420.321 80.5122 420.568 81.8093 425.509 81.8093H431.284C434.218 81.8093 435.206 80.6666 435.917 79.1224C436.38 78.1033 436.596 70.1663 436.596 63.0014V47.745C436.596 43.8229 435.608 41.5993 429.956 41.0434C429.03 40.889 428.968 40.5184 428.968 39.7463C428.968 38.8198 429.277 38.2639 429.895 38.2021C442.618 35.6388 444.224 32.7358 445.552 32.7358C445.769 32.7358 445.861 33.0446 445.861 33.9402C445.861 34.6505 445.614 37.1212 445.614 42.0316C451.482 38.1095 457.103 34.3417 463.218 34.3417C466.985 34.3417 478.011 35.1138 478.011 51.1422V77.9489C478.011 79.8945 478.165 81.9637 485.114 81.9637C486.257 81.9637 486.256 82.674 486.256 83.4461C486.256 84.1255 486.256 84.8976 484.712 84.8976C481.315 84.8976 479.555 84.6814 473.625 84.6814C464.607 84.6814 462.754 84.8976 461.89 84.8976C461.21 84.8976 461.117 84.1255 461.117 83.6005C461.056 82.8284 461.673 82.1181 462.445 82.0563C462.507 82.0563 462.579 82.0563 462.662 82.0563C468.066 82.0563 469.055 81.5931 469.055 77.8871V57.8439C469.055 47.4362 468.128 40.5184 456.485 40.5184C452.254 40.5184 446.232 44.2861 445.769 45.6759V74.3355C445.769 80.7284 446.016 82.0563 450.957 82.0563C453.953 82.0563 454.169 82.1181 454.169 83.5079C454.169 84.2182 454.169 84.9903 453.026 84.9903C452.501 84.9903 437.924 84.7432 428.196 84.7432C418.468 84.7432 404.447 84.9903 403.273 84.9903C402.347 84.9903 402.347 84.2799 402.347 83.7549C402.347 82.2725 402.501 82.0563 406.609 82.0563C408.369 82.2108 410.067 81.0372 410.623 79.3386C411.087 78.3503 411.303 63.5573 411.303 58.7704V19.3942C411.303 9.66597 410.994 8.27623 404.817 7.75121C404.138 7.65856 403.829 7.2262 403.829 6.45412C403.829 5.52762 404.138 4.97172 404.756 4.90995C413.866 3.36579 419.178 0.123047 420.321 0.123047C420.784 0.123047 421.031 0.648062 421.031 1.35838C420.938 1.72898 420.321 2.80989 420.321 17.3868ZM158.832 101.019H486.256V103.304H158.832V101.019ZM493.977 131.933C490.704 131.933 488.048 129.277 488.048 126.003C488.048 122.73 490.704 120.074 493.977 120.074C497.251 120.074 499.907 122.73 499.907 126.003C499.907 129.277 497.251 131.933 493.977 131.933ZM499.073 126.003C499.073 123.193 496.788 120.907 493.977 120.907C491.167 120.907 488.882 123.193 488.882 126.003C488.882 128.814 491.167 131.099 493.977 131.099C496.788 131.099 499.073 128.814 499.073 126.003ZM491.97 129.246V122.76H494.441C495.892 122.76 496.664 123.378 496.664 124.613C496.664 125.633 495.985 126.374 494.966 126.374L496.819 129.246H495.738L493.885 126.374H492.958V129.246H491.97ZM492.896 125.478H494.132C494.904 125.478 495.46 125.324 495.46 124.459C495.46 123.78 494.842 123.533 494.132 123.533H492.896V125.478Z" fill="#AD112B"/>
</g>
<defs>
<clipPath id="clip0_34_1434">
<rect width="500" height="159.666" fill="white"/>
</clipPath>
</defs>
</svg>
