<svg width="500" height="497" viewBox="0 0 500 497" fill="none" xmlns="http://www.w3.org/2000/svg">
<g clip-path="url(#clip0_34_1429)">
<path d="M499.87 325.049H217.479V57.0176H225.601V316.927H499.87V325.049Z" fill="#2E65B0"/>
<path d="M471.377 296.621H245.906V28.4922H254.028V288.466H471.377V296.621Z" fill="#2E65B0"/>
<path d="M442.852 268.161H274.398V0H282.521V260.039H442.852V268.161Z" fill="#2E65B0"/>
<path d="M0 316.927H199.513V325.049H0V316.927Z" fill="#2E65B0"/>
<path d="M28.4922 288.467H199.512V296.621H28.4922V288.467Z" fill="#2E65B0"/>
<path d="M57.0176 260.039H199.513V268.161H57.0176V260.039Z" fill="#2E65B0"/>
<path fill-rule="evenodd" clip-rule="evenodd" d="M379.37 496.296C371.183 496.296 364.977 489.961 364.977 481.579V481.514C364.977 474.237 370.403 466.699 379.435 466.699C387.622 466.699 393.762 473.002 393.795 481.352C393.86 481.449 393.827 481.514 393.795 481.579C393.762 488.824 388.369 496.296 379.37 496.296ZM234.503 496.296C226.316 496.296 220.11 489.961 220.11 481.579V481.514C220.11 474.237 225.536 466.699 234.568 466.699C242.723 466.699 248.895 473.002 248.928 481.352C248.993 481.449 248.96 481.514 248.928 481.579C248.895 488.824 243.502 496.296 234.503 496.296ZM134.113 496.296C125.926 496.296 119.753 489.961 119.753 481.579V481.514C119.753 474.237 125.146 466.699 134.178 466.699C142.365 466.699 148.506 473.002 148.538 481.352C148.603 481.449 148.571 481.514 148.538 481.579C148.506 488.824 143.112 496.296 134.113 496.296ZM100.91 496.296C92.7876 496.296 86.6797 489.961 86.6797 481.579V481.514C86.6797 473.197 92.95 466.699 101.007 466.699C106.075 466.699 109.097 468.519 112.086 471.28L112.281 471.443L110.461 473.294L110.299 473.132C108.22 471.118 105.458 469.038 100.942 469.038C94.3145 469.038 89.3113 474.367 89.3113 481.417V481.514C89.3113 488.467 94.4445 493.957 101.007 493.957C104.646 493.957 107.407 492.69 110.526 489.636L110.689 489.474L112.443 491.163L112.281 491.326C109.779 493.795 106.465 496.296 100.91 496.296ZM427.745 495.809H425.828L425.763 495.744L406.335 471.215V495.809H403.834V467.187H406.173L406.238 467.252L425.276 491.261V467.187H427.745V495.809ZM352.112 467.187H354.678V495.809H352.112V467.187ZM332.716 495.842H330.149V469.591H320.338V467.187H342.56V469.591H332.716V495.842ZM317.934 495.842H315.107L315.042 495.712L311.534 487.947H295.192L291.618 495.842H288.921L289.084 495.517L302.274 466.992H304.581L304.646 467.154L317.934 495.842ZM281.936 495.842H278.687L278.622 495.744L269.721 484.146H260.851V495.842H258.285V467.187H270.338C273.749 467.187 276.608 468.194 278.46 470.013C279.857 471.41 280.637 473.392 280.637 475.439V475.504C280.637 479.857 277.648 482.911 272.58 483.723L281.936 495.842ZM193.665 495.842H191.098V467.187H201.559C208.057 467.187 212.248 470.663 212.248 476.056V476.121C212.248 482.489 206.628 485.348 201.04 485.348H193.665V495.842ZM180.702 495.842H177.453L177.388 495.744L168.486 484.178H159.617V495.842H157.05V467.187H169.103C172.515 467.187 175.374 468.226 177.226 470.046C178.623 471.443 179.402 473.424 179.402 475.439V475.536C179.402 479.89 176.413 482.944 171.345 483.756L180.702 495.842ZM379.37 469.071C372.677 469.071 367.641 474.367 367.641 481.417V481.514C367.641 488.499 372.84 493.957 379.467 493.957C386.16 493.957 391.196 488.662 391.196 481.579V481.514C391.196 474.529 385.997 469.071 379.37 469.071ZM234.503 469.071C227.81 469.071 222.775 474.367 222.775 481.417V481.514C222.775 488.499 227.973 493.957 234.6 493.957C241.261 493.957 246.329 488.662 246.329 481.579V481.514C246.329 474.529 241.131 469.071 234.503 469.071ZM134.113 469.071C127.453 469.071 122.385 474.367 122.385 481.417V481.514C122.385 488.499 127.583 493.957 134.211 493.957C140.903 493.957 145.939 488.662 145.939 481.579V481.514C145.939 474.529 140.741 469.071 134.113 469.071ZM296.329 485.575H310.461L303.411 470.078L296.329 485.575ZM193.665 482.911H201.17C206.27 482.911 209.714 480.215 209.714 476.218V476.153C209.714 472.027 206.595 469.591 201.397 469.591H193.665V482.911ZM270.111 481.774C274.984 481.774 278.103 479.337 278.103 475.569V475.471C278.103 471.767 275.179 469.558 270.24 469.558H260.851V481.774H270.111ZM159.617 481.774H168.876C173.717 481.774 176.868 479.337 176.868 475.569V475.471C176.868 471.767 173.912 469.558 169.006 469.558H159.617V481.774Z" fill="#2E65B0"/>
<path fill-rule="evenodd" clip-rule="evenodd" d="M56.791 365.497H65.7904V436.972H110.722V445.289H56.791V365.497ZM157.603 446.686C133.302 446.686 116.992 427.648 116.992 405.653V405.426C116.992 383.399 133.529 364.133 157.831 364.133C182.1 364.133 198.409 383.171 198.409 405.198C198.539 405.296 198.539 405.296 198.409 405.426C198.409 427.421 181.872 446.686 157.603 446.686ZM189.052 405.653V405.426C189.052 387.297 175.829 372.482 157.603 372.482C139.345 372.482 126.349 387.07 126.349 405.198V405.426C126.349 423.555 139.572 438.369 157.831 438.369C176.057 438.369 189.052 423.782 189.052 405.653ZM215.888 365.497H273.555V373.717H224.887V400.975H268.454V409.162H224.887V437.102H274.14V445.322H215.888V365.497ZM360.69 445.874L338.792 381.124L316.798 445.874H309.26L286.973 365.497H296.785L313.679 430.507L335.251 365.27H342.658L364.198 430.507L381.125 365.497H390.612L368.324 445.874H360.69ZM431.612 401.072C449.416 404.939 457.636 411.436 457.636 423.652V423.879C457.636 437.557 446.232 446.459 430.378 446.459C417.707 446.459 407.343 442.235 397.759 433.691L403.347 427.063C411.664 434.601 419.656 438.337 430.703 438.337C441.424 438.337 448.506 432.651 448.506 424.789V424.562C448.506 417.154 444.51 412.931 427.746 409.389C409.39 405.393 400.943 399.48 400.943 386.355V386.128C400.943 373.587 412.022 364.36 427.194 364.36C438.825 364.36 447.142 367.674 455.232 374.172L449.968 381.124C442.561 375.081 435.154 372.45 426.966 372.45C416.57 372.45 409.975 378.168 409.975 385.348V385.575C409.975 393.08 414.068 397.304 431.612 401.072Z" fill="#2E65B0"/>
</g>
<defs>
<clipPath id="clip0_34_1429">
<rect width="500" height="496.426" fill="white"/>
</clipPath>
</defs>
</svg>
