<svg width="500" height="91" viewBox="0 0 500 91" fill="none" xmlns="http://www.w3.org/2000/svg">
<g clip-path="url(#clip0_34_1432)">
<path d="M308.276 43.2823C318.332 40.9833 324.83 33.7262 324.83 22.6506C324.83 9.15599 316.053 0.119601 297.841 0.119601H268.432V89.2439H298.86C317.833 89.2439 328.008 80.3275 328.008 65.1736C328.008 53.0784 320.751 45.3015 308.276 43.2823ZM274.03 4.69777H297.721C312.115 4.69777 318.992 11.695 318.992 23.0304C318.992 34.3659 312.115 41.2431 297.721 41.2431H274.03V4.69777ZM298.6 84.6658H274.03V45.8213H298.6C314.514 45.8213 322.151 53.0784 322.151 65.1736C322.151 77.3887 314.514 84.6658 298.6 84.6658ZM359.976 25.8293C348.26 25.8293 339.864 32.3267 336.805 41.743L341.643 43.2823C344.822 34.5058 351.439 30.1676 359.976 30.1676C370.671 30.1676 376.789 35.2655 376.789 48.6402V52.1988L368.632 52.5786C341.263 53.4783 333.486 61.9949 333.486 72.8305C333.486 83.9061 342.403 90.7833 354.238 90.7833C364.674 90.7833 372.691 85.8253 376.769 76.9089V89.2639H382.127V49.8997C382.127 33.2264 373.97 25.8293 359.976 25.8293ZM376.769 65.1736C376.769 77.0088 368.372 86.4451 354.878 86.4451C345.461 86.4451 338.964 80.9673 338.964 72.8305C338.964 64.174 344.942 57.2967 368.872 56.537L376.769 56.2771C376.769 56.2571 376.769 65.1736 376.769 65.1736ZM420.951 25.8293C409.616 25.8293 401.219 33.0864 397.401 43.1424V27.3487H391.923V89.224H397.401V58.1764C397.401 41.743 406.577 30.4275 419.932 30.4275C430.367 30.4275 435.725 36.665 435.725 48.8801V89.2439H441.203V47.7406C441.203 34.4859 434.066 25.8293 420.951 25.8293ZM474.05 51.679L496.321 27.3487H489.704L456.477 64.014V0.119601H450.999V89.2439H456.477V70.6514L470.491 55.4974L493.662 89.224H499.9L474.05 51.679ZM173.85 24.13H179.308C179.308 24.13 179.268 4.65779 197.061 4.65779C197.061 4.65779 201.559 4.65779 202.479 4.65779C202.479 5.57742 202.479 84.6858 202.479 84.6858H193.962C188.524 84.146 183.986 80.6474 179.608 76.4891L173.21 70.3115C174.61 68.4323 176.469 65.5534 177.769 62.5546C179.248 59.156 180.328 52.7785 180.987 51.2192C181.207 50.6994 181.447 50.2196 181.747 49.7397C182.587 48.4003 184.006 47.2807 185.445 46.661C186.545 46.1812 187.884 45.8613 189.104 45.8613H189.924V41.2431H163.234V45.8613H165.034C169.892 45.8813 173.85 49.8197 173.85 54.7577C173.85 61.1152 169.092 66.3331 169.092 66.3331L144.702 42.6426C155.597 38.6842 164.754 33.2463 164.754 23.0104C164.754 12.2348 156.537 4.65779 141.703 4.65779C126.649 4.65779 116.633 12.9745 116.633 26.4291C116.633 35.2855 120.691 41.0432 124.63 45.0016C112.255 49.7997 104.898 56.0972 104.898 67.6326C104.898 83.8461 119.512 90.3635 135.745 90.3635C146.421 90.3635 155.378 87.1648 162.315 82.0468C162.415 81.9669 166.933 89.3039 180.248 89.3039C181.207 89.3039 230.887 89.2639 230.887 89.2639V84.6858H221.131C221.131 84.6858 221.131 5.47746 221.131 4.65779C222.051 4.65779 226.549 4.65779 226.549 4.65779C244.282 4.65779 244.302 24.13 244.302 24.13H249.76V0.119601H173.85V24.13ZM141.183 9.19597C147.061 9.19597 150.679 13.9141 150.679 20.6314C150.679 28.1084 147.361 34.5258 140.224 38.3643C135.625 33.8861 131.687 27.7685 131.687 20.4115C131.667 13.8141 135.306 9.19597 141.183 9.19597ZM140.643 82.5866C130.088 82.5866 122.191 74.7697 122.191 64.3139C122.191 56.9569 123.89 52.4787 128.808 49.2799L158.256 78.1884C153.438 81.4871 147.261 82.5866 140.643 82.5866ZM95.8613 4.65779H106.417V0.0996094H77.9685C77.9685 0.0996094 54.4379 58.8761 53.6782 60.7753C52.9185 58.8561 29.2679 0.0996094 29.2679 0.0996094H0.0996094V4.67778H10.6554L10.6354 84.6658H1.89889V89.224H27.6486V84.6658H16.2332C16.2332 84.6658 16.2332 17.9125 16.2332 14.8537C17.5726 18.2324 44.9217 87.1848 44.9217 87.1848H49.5398C49.5398 87.1848 76.509 18.2523 77.8485 14.8537C77.8485 18.5922 77.8085 84.6858 77.8085 84.6858H68.8321V89.224H104.878V84.6858H95.8613V4.65779Z" fill="#027856"/>
</g>
<defs>
<clipPath id="clip0_34_1432">
<rect width="500" height="90.8637" fill="white"/>
</clipPath>
</defs>
</svg>
