<svg width="500" height="93" viewBox="0 0 500 93" fill="none" xmlns="http://www.w3.org/2000/svg">
<path d="M47.9409 19.1596L41.7621 26.6935L23.5778 2.76393C23.3881 2.49292 23.0629 2.35742 22.7377 2.35742H15.0954C14.2282 2.35742 13.7404 3.33303 14.2553 4.01054L41.7621 40.6501L57.2634 20.4062C57.7783 19.7287 57.2905 18.7531 56.4233 18.7531H48.781C48.4558 18.7531 48.1306 18.8886 47.9409 19.1596Z" fill="#111921"/>
<path d="M75.3926 71.7337L56.1514 46.0697L81.8695 12.2486C82.3844 11.5711 81.8966 10.5684 81.0565 10.5684H73.4684C73.1432 10.5684 72.8451 10.731 72.6554 10.9749L45.8262 46.0697L66.0159 73.0074C66.2056 73.2784 66.5308 73.4139 66.856 73.4139H74.5525C75.4197 73.4139 75.9075 72.4383 75.3926 71.7337Z" fill="#111921"/>
<path d="M8.07637 20.406L27.3176 46.0429L1.57231 79.9182C1.0574 80.5957 1.54521 81.5985 2.38531 81.5985H9.97339C10.2986 81.5985 10.5967 81.4359 10.7864 81.192L37.6428 46.07L17.426 19.1594C17.2363 18.8884 16.9111 18.7529 16.5859 18.7529H8.88938C8.04927 18.7529 7.56147 19.7285 8.07637 20.406Z" fill="#111921"/>
<path d="M35.529 72.9807L41.7078 65.4469L59.8921 89.3764C60.0818 89.6474 60.407 89.7829 60.7322 89.7829H68.3745C69.2417 89.7829 69.7295 88.8073 69.2146 88.1298L41.7078 51.4902L26.2065 71.7341C25.6916 72.4116 26.1794 73.3873 27.0466 73.3873H34.716C35.0412 73.3873 35.3393 73.2517 35.529 72.9807Z" fill="#111921"/>
<path d="M139.241 73.3873H135.637C134.824 73.3873 134.174 72.7369 134.174 71.9239V28.2654C134.174 28.1299 134.174 28.0486 134.092 28.0486C134.011 28.0486 134.011 28.0486 133.957 28.1841L120.325 57.1001C119.566 58.7261 117.236 58.7261 116.477 57.1001L102.873 28.1841C102.791 28.0486 102.791 28.0486 102.737 28.0486C102.656 28.0486 102.656 28.1299 102.656 28.2654V71.951C102.656 72.764 102.006 73.4144 101.193 73.4144H97.5611C96.7481 73.4144 96.0977 72.764 96.0977 71.951V20.8128C96.0977 19.6204 97.0462 18.6719 98.2386 18.6719H103.035C104.363 18.6719 104.959 18.97 105.393 19.9185L117.534 45.1759C117.832 45.8263 118.049 45.9889 118.428 45.9889C118.808 45.9889 119.024 45.8534 119.323 45.1759L131.436 19.9185C131.87 18.97 132.466 18.6719 133.794 18.6719H138.591C139.783 18.6719 140.732 19.6204 140.732 20.8128V71.9239C140.732 72.7369 140.054 73.3873 139.241 73.3873Z" fill="#111921"/>
<path d="M324.987 27.8862C324.771 26.9919 324.554 26.7209 323.822 26.7209C323.09 26.7209 322.874 27.019 322.657 27.8862L317.345 49.7561H330.299L324.987 27.8862ZM344.879 73.3875H337.074C336.424 73.3875 335.828 72.7913 335.665 72.1409L332.277 58.1572H315.34L311.952 72.1409C311.817 72.7913 311.22 73.3875 310.543 73.3875H302.738C302.006 73.3875 301.41 72.8726 301.41 72.1409C301.41 72.0596 301.491 71.9241 301.491 71.7615L313.578 25.5827C315.855 17.4797 320.651 18.0759 323.822 18.0759C326.993 18.0759 331.871 17.3171 334.066 25.5827L346.153 71.7615C346.153 71.897 346.234 72.0596 346.234 72.1409C346.207 72.8726 345.611 73.3875 344.879 73.3875ZM313.578 25.6098C315.855 17.5068 320.651 18.103 323.822 18.103C327.616 18.103 331.871 17.3442 334.066 25.6098M313.578 25.6098C315.855 17.5068 319.838 18.103 323.822 18.103C327.616 18.103 331.871 17.3442 334.066 25.6098" fill="#111921"/>
<path d="M438.618 73.9832C435.8 73.9832 429.729 73.6038 425.691 72.5198C424.824 72.303 424.309 71.7068 424.309 70.8125V66.3951C424.309 65.7989 424.824 65.2298 425.529 65.2298H425.827C429.296 65.6634 435.8 66.0428 437.968 66.0428C442.439 66.0428 443.171 64.5252 443.171 62.5198C443.171 61.1106 442.439 60.1079 439.621 58.3464L430.217 52.4656C426.477 50.3518 423.957 46.6661 423.957 42.4114C423.957 35.0401 428.51 31.3545 437.697 31.3545C443.551 31.3545 446.884 31.5171 450.569 32.303C451.437 32.5198 451.87 33.116 451.87 34.0103V38.2922C451.87 39.1865 451.437 39.5388 450.705 39.5388C450.705 39.5388 442.629 39.322 438.51 39.322C435.041 39.322 433.551 40.2163 433.523 42.2488C433.523 43.4141 434.607 44.3355 436.396 45.4466L445.854 51.3274C451.924 55.0943 452.792 58.78 452.792 62.5198C452.792 68.9155 448.076 73.9832 438.618 73.9832Z" fill="#111921"/>
<path d="M470.081 73.9832C467.263 73.9832 461.192 73.6038 457.154 72.5198C456.287 72.303 455.772 71.7068 455.772 70.8125V66.3951C455.772 65.7989 456.287 65.2298 456.992 65.2298H457.29C460.759 65.6634 467.263 66.0428 469.431 66.0428C473.902 66.0428 474.634 64.5252 474.634 62.5198C474.634 61.1106 473.902 60.1079 471.084 58.3464L461.68 52.4656C457.94 50.3518 455.42 46.6661 455.42 42.4114C455.42 35.0401 459.973 31.3545 469.16 31.3545C475.013 31.3545 478.347 31.5171 482.032 32.303C482.9 32.5198 483.333 33.116 483.333 34.0103V38.2922C483.333 39.1865 482.9 39.5388 482.168 39.5388C482.168 39.5388 474.092 39.322 469.973 39.322C466.504 39.322 465.013 40.2163 464.986 42.2488C464.986 43.4141 466.07 44.3355 467.859 45.4466L477.317 51.3274C483.387 55.0943 484.255 58.78 484.255 62.5198C484.228 68.9155 479.539 73.9832 470.081 73.9832Z" fill="#111921"/>
<path d="M200.272 38.4818C196.884 38.4818 192.006 38.9425 188.321 41.1648V71.9507C188.321 72.6824 187.67 73.4141 186.857 73.4141H183.253C182.521 73.4141 181.844 72.7637 181.844 71.9507V34.3897C181.844 33.5767 182.44 32.9263 183.253 32.9263H186.722C187.535 32.9263 188.131 33.5767 188.131 34.3897V35.9344C191.817 33.3599 196.993 32.8721 200.299 32.8721C201.329 32.8721 201.844 33.3057 201.844 34.2V37.2081C201.817 38.0211 201.302 38.4818 200.272 38.4818Z" fill="#111921"/>
<path d="M168.483 53.9292H163.036C154.12 53.9292 151.762 55.7992 151.762 61.0295V61.9238C151.762 67.2355 154.255 68.6176 158.537 68.6176C161.925 68.6176 164.933 67.1813 168.483 65.2572V53.9292ZM173.497 73.3872H170.109C169.296 73.3872 168.646 72.7368 168.646 71.9238V70.2978C165.123 72.3574 161.437 73.9021 157.291 73.9021C151.03 73.9021 145.285 71.165 145.285 61.978V61.0837C145.285 53.1162 149.919 49.1596 163.036 49.1596H168.483V46.2057C168.483 40.0268 166.342 37.8859 160.597 37.8859C155.8 37.8859 154.581 38.0485 149.269 38.1569H148.89C148.239 38.1569 147.562 37.9401 147.562 36.9916V34.417C147.562 33.604 148.076 33.1704 149.106 33.0078C152.114 32.4929 155.556 32.3574 160.57 32.3574C170.814 32.3574 174.933 37.5065 174.933 46.2057V71.8967C174.987 72.7368 174.31 73.3872 173.497 73.3872Z" fill="#111921"/>
<path d="M233.712 73.3873H228.4C227.587 73.3873 227.289 73.1705 226.693 72.4388L212.032 54.3087V71.9239C212.032 72.7369 211.381 73.3873 210.568 73.3873H207.045C206.232 73.3873 205.582 72.7369 205.582 71.9239V19.4849C205.582 18.6719 206.232 18.0215 207.045 18.0215H210.568C211.381 18.0215 212.032 18.6719 212.032 19.4849V50.1353L224.715 33.577C225.148 33.0621 225.447 32.9266 226.178 32.9266H231.327C232.059 32.9266 232.438 33.306 232.438 33.7396C232.438 34.0377 232.303 34.3358 232.059 34.5527L217.94 52.0323L234.281 71.7613C234.417 71.8968 234.498 72.1949 234.498 72.4117C234.525 72.9537 234.227 73.3873 233.712 73.3873Z" fill="#111921"/>
<path d="M289.43 73.6045C287.967 73.8213 286.395 73.8755 285.718 73.8755C278.943 73.8755 275.691 72.114 275.691 64.011V38.3199H269.566C268.13 38.2115 267.127 35.3389 267.127 34.2007C267.127 33.0354 267.723 32.8728 268.536 32.8728H275.691V25.0679C275.691 24.3362 276.206 23.74 277.019 23.6045H280.84H281.056C281.653 23.6045 282.168 24.1194 282.168 24.8511V32.8728H289.268C290.081 32.8728 290.731 33.5232 290.731 34.3362V36.8294C290.731 37.6424 290.081 38.2928 289.268 38.2928H282.168V63.9839C282.168 68.0218 283.197 68.618 286.151 68.618L289.214 68.6993C290.243 68.6993 290.758 68.9974 290.758 69.7291V72.3037C290.758 73.0354 290.406 73.469 289.43 73.6045Z" fill="#111921"/>
<path d="M259.43 49.5658C259.43 41.2461 256.829 37.994 250.487 37.994C244.281 37.994 240.84 41.5984 240.84 49.5658V50.2163H259.43V49.5658ZM263.956 55.1756H240.812V56.2054C240.812 64.9588 244.2 68.2108 250.84 68.2108C255.013 68.2108 259.837 67.9127 263.17 67.3978H263.522C264.092 67.3978 264.661 67.6959 264.661 68.4276V70.9209C264.661 71.8694 264.363 72.3843 263.224 72.6282C259.105 73.4412 255.663 73.8748 250.84 73.8748C242.547 73.8748 234.498 69.8911 234.498 56.2054V49.5658C234.498 39.0238 240.189 32.3301 250.487 32.3301C261.002 32.3301 265.338 39.1051 265.338 49.5658V53.5496C265.338 54.4981 264.823 55.1756 263.956 55.1756Z" fill="#111921"/>
<path d="M410.759 48.7536C410.759 43.0083 407.588 39.7021 403.035 39.7021C398.482 39.7021 395.149 42.9541 395.149 48.7536V49.0517H410.759V48.7536ZM418.049 55.9894H395.068V56.2062C395.068 60.488 396.829 65.3119 403.902 65.5016C409.566 65.6371 413.875 64.9867 417.452 64.9867H417.669C418.401 64.9867 418.997 65.3661 418.997 66.0978V70.7861C418.997 71.9514 418.78 72.4934 417.452 72.7102C412.656 73.6045 409.783 73.9568 403.171 73.9568C395.799 73.9568 385.854 69.9731 385.854 55.4745V50.0273C385.854 38.5368 391.734 31.3281 403.008 31.3281C414.363 31.3281 419.512 39.0517 419.512 50.0273V54.1466C419.539 55.3119 419.078 55.9894 418.049 55.9894Z" fill="#111921"/>
<path d="M384.283 73.3877H377.155C376.342 73.3877 375.99 73.1709 375.177 71.9243L366.641 59.1872L358.836 71.9243C358.023 73.1709 357.67 73.3877 356.857 73.3877H349.269C348.673 73.3877 348.375 73.0083 348.375 72.5747C348.375 72.3579 348.456 72.1411 348.592 71.9243L361.763 51.9785L349.324 33.3335C349.242 33.198 349.188 33.0354 349.188 32.8999C349.188 32.385 349.703 31.8701 350.38 31.8701H357.535C358.348 31.8701 358.7 32.2495 359.459 33.3335L367.67 45.7184L375.069 33.3335C375.882 32.0056 376.234 31.8701 377.047 31.8701H384.635C385.231 31.8701 385.529 32.2495 385.529 32.6831C385.529 32.8999 385.448 33.1167 385.313 33.3335L372.521 52.8999L385.313 71.9243C385.394 72.0598 385.448 72.2224 385.448 72.4392C385.367 72.9541 384.852 73.3877 384.283 73.3877Z" fill="#111921"/>
<path d="M488.509 42.1951C487.886 41.5718 487.425 40.813 487.127 39.8916C486.829 38.9702 486.693 37.9946 486.693 37.0189C486.693 35.3116 487.019 33.8753 487.642 32.71C488.265 31.5447 489.349 30.9756 490.894 30.9756H494.851C496.314 30.9756 497.317 31.5718 497.859 32.7642C498.401 33.9566 498.672 35.3658 498.672 37.0189C498.672 38.2114 498.536 39.2683 498.238 40.1897C497.94 41.1111 497.506 41.8428 496.937 42.3577C496.368 42.8726 495.664 43.1165 494.851 43.1165H490.894C489.918 43.1165 489.132 42.8184 488.509 42.1951ZM494.796 42.4119C495.393 42.4119 495.935 42.2222 496.395 41.8157C496.856 41.4363 497.235 40.813 497.506 40.0271C497.777 39.2141 497.913 38.2114 497.913 37.0189C497.913 35.4471 497.696 34.1463 497.235 33.1707C496.775 32.1951 495.989 31.7073 494.878 31.7073H490.921C489.918 31.7073 489.105 32.1138 488.455 32.9539C487.832 33.7669 487.506 35.1761 487.506 37.1544C487.506 38.0488 487.642 38.916 487.886 39.729C488.13 40.542 488.536 41.1924 489.051 41.6802C489.566 42.1951 490.189 42.439 490.921 42.439H494.796V42.4119ZM490.162 33.4959H493.17C493.821 33.4959 494.336 33.6585 494.715 33.9566C495.094 34.2547 495.284 34.8238 495.284 35.6368C495.284 36.1517 495.203 36.5582 495.04 36.8021C494.878 37.0731 494.688 37.2357 494.498 37.317C494.309 37.3983 494.038 37.4525 493.712 37.5339L495.393 40.542H494.607L492.954 37.5339L490.975 37.4797V40.5691H490.189V33.4959H490.162ZM493.197 36.9647C493.658 36.9647 493.983 36.8834 494.2 36.7208C494.39 36.5582 494.498 36.2059 494.498 35.691C494.498 35.149 494.39 34.7967 494.173 34.5528C493.956 34.336 493.631 34.2276 493.197 34.2276H490.948V36.9647H493.197Z" fill="#111921"/>
</svg>
