<svg width="500" height="110" viewBox="0 0 500 110" fill="none" xmlns="http://www.w3.org/2000/svg">
<g clip-path="url(#clip0_34_1433)">
<mask id="mask0_34_1433" style="mask-type:luminance" maskUnits="userSpaceOnUse" x="-42" y="-24" width="593" height="159">
<path d="M-41.5332 134.47H550.385V-23.3654H-41.5332V134.47Z" fill="white"/>
</mask>
<g mask="url(#mask0_34_1433)">
<path d="M463.194 61.061C463.194 60.0026 463.421 58.932 463.883 57.837C464.337 56.7461 465.006 55.7444 465.89 54.8279C466.766 53.9114 467.882 53.1571 469.22 52.5569C470.554 51.9567 472.103 51.6566 473.867 51.6566C475.623 51.6566 477.14 51.9567 478.409 52.5569C479.679 53.1571 480.733 53.9114 481.581 54.8279C482.424 55.7444 483.057 56.7461 483.478 57.837C483.904 58.932 484.111 60.0026 484.111 61.061H463.194ZM491.196 76.0619C490.064 76.9094 488.268 77.9111 485.806 79.075C483.337 80.2348 480.137 80.8188 476.191 80.8188C472.172 80.8188 469.021 79.8131 466.734 77.8057C464.447 75.7983 463.262 73.4583 463.194 70.7818H498.479V68.2472C498.479 64.0904 497.956 60.2662 496.898 56.7826C495.843 53.295 494.274 50.3021 492.198 47.8C490.121 45.3019 487.562 43.3472 484.537 41.94C481.508 40.5287 477.988 39.8271 473.973 39.8271C469.958 39.8271 466.365 40.549 463.194 41.9927C460.026 43.4364 457.35 45.3546 455.164 47.7472C452.982 50.144 451.311 52.9422 450.147 56.15C448.988 59.3537 448.404 62.6832 448.404 66.1303C448.404 70.0761 449.02 73.6854 450.253 76.9622C451.486 80.2348 453.282 83.0371 455.642 85.3608C457.999 87.6846 460.874 89.5014 464.252 90.8032C467.634 92.1049 471.434 92.7578 475.664 92.7578C478.831 92.7578 481.645 92.4537 484.111 91.8575C486.581 91.2574 488.71 90.572 490.506 89.7974C492.303 89.0228 493.763 88.232 494.886 87.421C496.018 86.6099 496.861 86.03 497.425 85.6772L491.196 76.0619ZM322.801 77.8584C321.815 78.564 320.761 79.1805 319.633 79.7076C318.506 80.2348 317.168 80.5025 315.618 80.5025C313.575 80.5025 312.078 79.8496 311.129 78.5438C310.176 77.242 309.702 75.3927 309.702 73.0001V53.4532H322.488V41.5141H309.702V28.2368H294.49V41.5141H286.647V53.4532H294.49V72.1525C294.49 75.2548 294.806 78.0693 295.439 80.6079C296.076 83.1426 297.13 85.3081 298.61 87.1047C300.086 88.9012 302.025 90.3084 304.418 91.3304C306.814 92.3482 309.775 92.8633 313.295 92.8633C318.928 92.8633 324.143 90.9613 328.932 87.1574L322.801 77.8584ZM454.511 23.8733C452.256 21.9713 449.758 20.633 447.013 19.8585C444.263 19.0839 441.55 18.6946 438.873 18.6946C436.343 18.6946 433.857 19.1001 431.428 19.9112C428.999 20.7222 426.833 21.9551 424.927 23.6097C423.025 25.2643 421.496 27.3568 420.336 29.8955C419.172 32.4301 418.588 35.4595 418.588 38.9795V41.5141H410.563V53.4532H418.588V91.0668H433.695V53.4532H445.427V41.5141H433.695V38.7687C433.695 36.303 434.331 34.401 435.601 33.0627C436.866 31.7285 438.557 31.0553 440.67 31.0553C442.008 31.0553 443.31 31.2662 444.579 31.688C445.849 32.1138 447.013 32.714 448.067 33.4845L454.511 23.8733ZM387.65 91.0668H402.862V41.5141H395.254H387.65V91.0668ZM334.626 91.0668H380.979V78.0166H350.58V20.5965H334.626V91.0668ZM247.719 61.061C247.719 60.0026 247.946 58.932 248.405 57.837C248.863 56.7461 249.532 55.7444 250.412 54.8279C251.292 53.9114 252.403 53.1571 253.742 52.5569C255.08 51.9567 256.629 51.6566 258.389 51.6566C260.149 51.6566 261.666 51.9567 262.931 52.5569C264.2 53.1571 265.259 53.9114 266.102 54.8279C266.946 55.7444 267.583 56.7461 268.004 57.837C268.426 58.932 268.637 60.0026 268.637 61.061H247.719ZM275.718 76.0619C274.59 76.9094 272.794 77.9111 270.328 79.075C267.862 80.2348 264.659 80.8188 260.713 80.8188C256.698 80.8188 253.547 79.8131 251.26 77.8057C248.968 75.7983 247.788 73.4583 247.719 70.7818H283.005V68.2472C283.005 64.0904 282.478 60.2662 281.424 56.7826C280.365 53.295 278.796 50.3021 276.719 47.8C274.643 45.3019 272.088 43.3472 269.059 41.94C266.033 40.5287 262.509 39.8271 258.494 39.8271C254.48 39.8271 250.891 40.549 247.719 41.9927C244.552 43.4364 241.872 45.3546 239.69 47.7472C237.504 50.144 235.833 52.9422 234.673 56.15C233.509 59.3537 232.929 62.6832 232.929 66.1303C232.929 70.0761 233.542 73.6854 234.779 76.9622C236.007 80.2348 237.804 83.0371 240.164 85.3608C242.524 87.6846 245.396 89.5014 248.774 90.8032C252.156 92.1049 255.96 92.7578 260.186 92.7578C263.357 92.7578 266.171 92.4537 268.637 91.8575C271.103 91.2574 273.236 90.572 275.032 89.7974C276.825 89.0228 278.289 88.232 279.412 87.421C280.539 86.6099 281.387 86.03 281.951 85.6772L275.718 76.0619ZM153.266 91.0668H168.477L170.274 45.3181L185.701 72.4729H193.941L208.52 45.0018L210.528 91.0668H226.481L223.205 20.5965H207.989L190.032 53.664L171.649 20.5965H156.538L153.266 91.0668ZM395.254 35.8488C390.558 35.8488 386.681 31.9718 386.681 27.2717C386.681 22.5715 390.558 18.6946 395.254 18.6946C400.072 18.6946 403.831 22.4539 403.831 27.2717C403.831 31.9718 399.954 35.8488 395.254 35.8488Z" fill="#231F20"/>
<path d="M59.4785 36.1114C71.4459 51.9558 78.5469 71.6892 78.5469 93.0935C78.5469 98.256 78.1292 103.321 77.3303 108.265H111.979C114.993 108.265 117.434 105.815 117.434 102.794V7.00197C117.434 3.43324 114.072 0.79319 110.629 1.70159C89.9384 7.16418 72.0299 19.4925 59.4785 36.1114Z" fill="#99D538"/>
<path d="M41.6251 108.263C40.8302 103.323 40.4085 98.2581 40.4085 93.0915C40.4085 71.6913 47.5135 51.9538 59.4768 36.1095C46.9254 19.4906 29.0169 7.16225 8.3264 1.70371C4.88339 0.795311 1.52148 3.4313 1.52148 7.00003V102.796C1.52148 105.813 3.96687 108.263 6.98002 108.263H41.6251Z" fill="#239DE0"/>
<path d="M59.4785 36.1115C47.5111 51.9558 40.4102 71.6892 40.4102 93.0935C40.4102 98.256 40.8279 103.321 41.6268 108.265H77.3303C78.1292 103.321 78.5469 98.256 78.5469 93.0935C78.5469 71.6892 71.4459 51.9558 59.4785 36.1115Z" fill="#1563A9"/>
</g>
</g>
<defs>
<clipPath id="clip0_34_1433">
<rect width="500" height="109.785" fill="white"/>
</clipPath>
</defs>
</svg>
