<svg width="500" height="83" viewBox="0 0 500 83" fill="none" xmlns="http://www.w3.org/2000/svg">
<g clip-path="url(#clip0_34_1427)">
<path d="M0 1.36062H31.9451L41.8836 42.5935L44.309 54.0109L46.6753 42.5935L56.673 1.36062H88.6181V81.46H68.1496V29.5196L65.2508 41.4103L54.6025 81.46H33.5424L22.894 41.4103L20.0544 29.5196V81.46H0V1.36062ZM172.149 48.6275C172.149 70.0426 158.069 82.8206 134.524 82.8206C110.98 82.8206 96.9001 70.1017 96.9001 48.6275V34.1931C96.9001 12.778 110.98 0 134.524 0C158.069 0 172.149 12.7189 172.149 34.1931V48.6275ZM134.465 17.7473C124.763 17.7473 118.788 23.2489 118.788 32.3V50.6389C118.788 59.5717 124.763 65.1917 134.465 65.1917C144.167 65.1917 150.142 59.5717 150.142 50.6389V32.3C150.142 23.2489 144.226 17.7473 134.465 17.7473ZM255.088 48.6275C255.088 70.0426 241.008 82.8206 217.463 82.8206C193.919 82.8206 179.839 70.1017 179.839 48.6275V34.1931C179.839 12.778 193.919 0 217.463 0C241.008 0 255.088 12.7189 255.088 34.1931V48.6275ZM217.463 17.7473C207.761 17.7473 201.787 23.2489 201.787 32.3V50.6389C201.787 59.5717 207.761 65.1917 217.463 65.1917C227.165 65.1917 233.14 59.5717 233.14 50.6389V32.3C233.14 23.2489 227.165 17.7473 217.463 17.7473ZM334.3 46.3204C334.3 68.5045 320.102 81.46 295.492 81.46H263.251V1.36062H295.492C320.102 1.36062 334.3 14.3161 334.3 36.5002V46.3204ZM295.492 19.3445H284.962V63.5353H295.492C306.732 63.5353 312.293 57.797 312.293 46.7345V36.1453C312.293 24.9645 306.673 19.3445 295.492 19.3445ZM356.839 46.2612L327.615 1.36062H352.224L367.664 26.5618L382.986 1.36062H406.531L377.425 46.2612V81.5192H356.839V46.2612ZM408.779 1.36062H430.549V21.3559L416.588 40.1088H411.914L418.126 23.0715H408.779V1.36062ZM499.941 56.5547C499.941 73.1779 487.695 82.8798 466.753 82.8798C445.812 82.8798 433.684 73.3554 433.684 57.5012V53.9517H454.863V57.0279C454.863 62.6479 458.412 65.0142 466.753 65.0142C474.444 65.0142 478.408 62.707 478.408 58.3885C478.408 53.4785 475.095 52.4136 470.185 51.7629L455.75 49.5741C446.344 48.2134 434.098 43.4217 434.098 26.0885C434.098 8.75532 446.167 0 466.813 0C487.459 0 499.053 9.40606 499.053 25.2011V28.2773H477.875V25.6744C477.875 20.1727 474.562 17.8656 466.753 17.8656C459.418 17.8656 455.632 20.0544 455.632 24.2546C455.632 28.9281 458.826 29.9929 463.441 30.6436L477.757 32.8325C487.754 34.3114 500 39.1623 499.941 56.5547Z" fill="#0A1263"/>
</g>
<defs>
<clipPath id="clip0_34_1427">
<rect width="500" height="82.8798" fill="white"/>
</clipPath>
</defs>
</svg>
