<svg width="500" height="125" viewBox="0 0 500 125" fill="none" xmlns="http://www.w3.org/2000/svg">
<path d="M410.243 30.1816C410.243 30.1816 410.243 81.4837 410.243 81.4837C410.243 84.0185 411.568 85.4992 412.934 86.4316C414.399 87.4151 416.548 87.9074 419.444 87.9073C421.277 87.9073 423.698 87.2997 423.698 87.2997C423.698 87.2997 423.698 82.699 423.698 82.699C422.971 82.7441 422.328 82.7858 421.615 82.7858C417.303 82.7858 416.667 81.1013 416.667 79.2268C416.667 79.2268 416.667 30.1817 416.667 30.1816L410.243 30.1816ZM274.566 30.7025C269.724 30.7025 265.347 32.2212 262.24 34.9559C259.222 37.6235 257.552 41.3057 257.552 45.2858C257.552 49.6693 259.326 53.0945 263.021 55.7893C266.279 58.1688 270.59 59.7052 274.74 61.1712C281.954 63.7373 288.715 66.0793 288.715 72.6296C288.715 75.5426 287.724 78.0401 285.851 79.7476C283.791 81.6254 280.827 82.5254 276.91 82.5254C270.044 82.5254 265.046 78.724 262.24 71.3275C262.24 71.3275 256.076 72.9768 256.076 72.9768C257.404 75.9765 259.662 80.3054 262.934 83.2198C266.522 86.4388 270.975 87.9941 276.562 87.9941C283.179 87.9941 288.201 86.2875 291.493 82.8726C294.906 79.3177 295.66 74.7683 295.66 71.5879C295.66 67.0305 293.733 63.5114 289.844 60.7372C286.448 58.3014 282.054 56.7315 277.778 55.2684C270.81 52.8859 264.162 50.6186 264.236 44.765C264.261 42.0355 265.207 39.9108 266.927 38.4282C268.68 36.9221 271.178 36.1712 274.392 36.1712C277.769 36.1713 280.78 37.115 283.073 38.949C285.182 40.6194 286.717 43.0983 287.413 45.8934L293.403 45.1122C290.775 36.1537 284.353 30.7025 274.566 30.7025ZM0 31.4837V87.2129H6.42361V36.258L6.59722 36.4316L21.875 87.2129H26.8229L42.1875 36.4316L42.2743 36.258V87.2129H48.6979V31.4837H38.0208L24.3924 76.2754V76.449L24.3055 76.2754L10.6771 31.4837H0ZM305.816 32.6122V45.9803H299.653V51.1018C299.653 51.1018 305.816 51.1018 305.816 51.1018C305.816 51.1018 305.816 79.7462 305.816 81.4837C305.816 84.0185 306.97 85.4992 308.333 86.4316C309.801 87.4151 311.944 87.9074 314.844 87.9073C316.678 87.9073 319.184 87.2997 319.184 87.2997C319.184 87.2997 319.184 82.699 319.184 82.699C318.471 82.7441 317.724 82.7858 317.014 82.7858C312.697 82.7858 312.24 81.1013 312.24 79.2268C312.24 79.2268 312.24 51.1018 312.24 51.1018H319.184V45.9803H312.24V32.6122H305.816ZM74.7396 45.199C69.3306 45.199 64.7462 47.3784 61.5451 51.449C58.5743 55.2479 56.9444 60.6145 56.9444 66.5532C56.9445 72.4973 58.5743 77.8541 61.5451 81.6573C64.7462 85.7387 69.3306 87.9073 74.7396 87.9073C80.1708 87.9073 84.7413 85.7387 87.934 81.6573C90.9052 77.8541 92.5347 72.4973 92.5347 66.5532C92.5347 60.6145 90.9052 55.2479 87.934 51.449C84.7413 47.3784 80.1708 45.199 74.7396 45.199ZM445.312 45.2858C442.567 45.2858 440.014 45.7905 437.847 46.7615C435.727 47.7173 433.843 49.1562 432.378 51.015C429.465 54.663 427.778 60.0789 427.778 66.64C427.778 73.9423 429.876 79.5141 433.681 83.2198C437.694 87.1371 442.807 87.9073 446.354 87.9073C455.571 87.9073 460.092 82.9206 461.979 78.3587C461.979 78.3587 456.858 75.8414 456.858 75.8414C455.612 78.6188 452.751 82.8726 446.354 82.8726C442.698 82.8726 439.707 81.3757 437.587 78.6191C435.538 75.9516 434.386 72.2593 434.375 67.8553C434.375 67.8553 462.5 67.8553 462.5 67.8553C462.5 67.8553 462.5 63.949 462.5 63.949C462.5 57.2014 460.703 52.1695 457.378 49.1053C454.548 46.5023 450.577 45.2858 445.312 45.2858ZM140.538 45.3726C133.291 45.3726 123.003 50.249 123.003 66.64C123.003 82.555 133.259 87.9073 140.191 87.9073C144.237 87.9074 147.913 85.6659 150.434 82.4386C150.434 82.4386 150.781 82.265 150.781 82.265C150.781 82.265 150.781 90.0775 150.781 90.0775C150.781 95.5568 146.039 98.9317 140.972 98.9317C136.046 98.9317 131.685 97.9912 128.125 96.3275C128.125 96.3275 128.125 101.883 128.125 101.883C131.123 103.168 136.002 103.966 140.191 103.966C151.594 103.966 157.031 97.6906 157.031 88.6018C157.031 88.6018 157.031 46.1539 157.031 46.1539H152.257L150.868 50.4942C148.511 47.4235 145.426 45.3726 140.538 45.3726ZM182.031 45.3726C172.908 45.3726 168.589 50.8377 166.753 54.2268L171.875 56.9178C172.594 54.9812 175.181 50.4942 182.118 50.4942C187.588 50.4942 190.365 52.9082 190.365 57.699V59.1747C190.365 59.1747 190.409 59.6233 190.278 59.7823C190.075 60.0388 189.499 60.2486 188.108 60.39C180.449 61.2444 175.359 62.5022 171.615 64.9039C167.55 67.5166 165.017 71.1745 165.017 76.1886C165.017 79.7504 166.742 82.7904 169.01 84.956C171.12 86.9503 173.994 87.9879 177.17 88.081C183.932 88.2979 188.382 85.4837 190.538 82.1782C190.705 84.4494 191.519 85.7472 193.316 86.6921C195.003 87.5932 197.77 87.4139 198.958 87.1261C198.958 87.1261 198.958 82.7858 198.958 82.7858C197.526 82.7143 196.615 82.0334 196.615 80.2685C196.614 80.2685 196.615 60.39 196.615 60.39C196.614 60.39 196.615 57.7858 196.615 57.7858C196.615 53.6835 195.005 50.3186 191.927 48.1504C189.39 46.3498 185.844 45.3726 182.031 45.3726ZM226.215 45.3726C222.035 45.3726 217.756 47.5383 214.149 51.6226V46.1539H207.726V87.2997H214.149C214.149 87.2997 214.149 56.7442 214.149 56.7442C216.335 54.4085 221.234 50.4942 225.694 50.4942C230.166 50.4942 232.118 52.6873 232.118 57.6122C232.118 57.6122 232.118 87.2997 232.118 87.2997H238.542V57.4386C238.542 48.5487 232.219 45.3726 226.215 45.3726ZM342.448 45.3726C333.33 45.3726 329.011 50.8377 327.17 54.2268C327.17 54.2268 332.292 56.9178 332.292 56.9178C333.013 54.9812 335.598 50.4942 342.535 50.4942C348.004 50.4942 350.781 52.9082 350.781 57.699C350.781 57.699 350.781 59.1747 350.781 59.1747C350.781 59.1747 350.737 59.6233 350.608 59.7823C350.407 60.0388 349.921 60.2486 348.524 60.39C340.866 61.2429 335.775 62.5022 332.031 64.9039C327.969 67.5166 325.434 71.1745 325.434 76.1886C325.434 79.7504 327.156 82.789 329.427 84.956C331.537 86.9503 334.413 87.9879 337.587 88.081C344.343 88.2979 348.799 85.4837 350.955 82.1782C351.125 84.4484 351.933 85.7472 353.733 86.6921C355.417 87.5932 358.185 87.4139 359.375 87.1261C359.375 87.1261 359.375 82.7858 359.375 82.7858C357.946 82.7143 357.031 82.0334 357.031 80.2685C357.031 80.2685 357.031 60.39 357.031 60.39C357.031 60.39 357.031 57.7858 357.031 57.7858C357.031 53.6835 355.338 50.3186 352.257 48.1504C349.717 46.3498 346.258 45.3726 342.448 45.3726ZM386.632 45.3726C382.44 45.3726 378.173 47.5383 374.566 51.6226V46.1539H368.142V87.2997H374.566C374.566 87.2997 374.566 56.7442 374.566 56.7442C376.755 54.4072 381.646 50.4942 386.111 50.4942C390.574 50.4942 392.535 52.6873 392.535 57.6122V87.2997H398.958V57.4386C398.958 48.5487 392.636 45.3726 386.632 45.3726ZM120.573 45.5462C114.056 45.5462 110.193 48.073 106.858 54.0532V53.6191V46.1539H100.434V87.2129H106.858C106.858 87.2129 106.858 63.949 106.858 63.949C108.443 55.4978 112.918 51.5358 120.573 51.5358V45.5462ZM466.84 46.0671L481.163 86.8657C481.163 86.8657 481.163 87.2129 481.163 87.2129C480.307 91.123 477.832 95.9499 475.608 97.4559C473.643 98.7891 471.516 98.9316 469.878 98.9316C469.088 98.9316 467.456 98.6648 466.753 98.4976C466.754 98.4976 466.753 103.446 466.753 103.446C467.642 103.664 469.693 104.053 471.007 104.053C474.068 104.053 476.65 103.287 478.819 101.709C481.417 99.8211 484.295 94.8994 485.677 90.6851C485.677 90.6851 500 46.0671 500 46.0671H493.75L484.375 77.6643L484.288 78.3587L484.115 77.6643L473.09 46.0671H466.84ZM74.7396 50.3205C81.6549 50.3205 85.7639 56.3903 85.7639 66.5532C85.7638 76.7188 81.6549 82.7858 74.7396 82.7858C67.8354 82.7858 63.7153 76.7188 63.7153 66.5532C63.7152 56.3903 67.8354 50.3205 74.7396 50.3205ZM140.972 50.4073C144.596 50.4073 147.778 51.9732 150.781 55.7025C150.781 55.7025 150.781 75.3205 150.781 75.3205C149.119 80.0524 144.357 82.7858 140.972 82.7858C134.348 82.7858 129.774 78.661 129.774 66.2928C129.774 55.8928 133.879 50.4073 140.972 50.4073ZM445.486 50.4073C452.846 50.4073 456.136 54.299 456.163 62.7337C456.163 62.7337 434.549 62.7337 434.549 62.7337C435.108 54.3058 438.64 50.4073 445.486 50.4073ZM190.538 64.9039C190.538 64.9039 190.538 75.3205 190.538 75.3205C190.242 78.9168 183.522 83.2694 178.038 82.9594C175.013 82.7935 172.098 80.3574 171.788 76.3622C171.286 69.6859 176.303 66.914 187.5 65.6851C188.279 65.6138 189.786 65.3373 190.538 64.9039ZM350.955 64.9039C350.955 64.9039 350.955 75.3205 350.955 75.3205C350.659 78.9152 343.938 83.2694 338.455 82.9594C335.435 82.7921 332.506 80.356 332.205 76.3622C331.695 69.6859 336.717 66.914 347.917 65.6851C348.69 65.6138 350.209 65.3373 350.955 64.9039Z" fill="black"/>
</svg>
