<svg width="500" height="142" viewBox="0 0 500 142" fill="none" xmlns="http://www.w3.org/2000/svg">
<g clip-path="url(#clip0_34_1425)">
<path fill-rule="evenodd" clip-rule="evenodd" d="M370.944 107.951C353.782 107.951 343.116 98.0285 343.116 82.0298C343.116 65.417 352.941 55.0744 368.778 55.0744H370.103C372.107 55.0744 374.855 55.139 378.572 55.5915V35.5527H389.787V106.141C389.787 106.141 379.153 107.951 370.944 107.951ZM370.815 63.8656C359.987 63.8656 354.719 69.7156 354.719 81.7389C354.719 92.534 361.086 99.2567 371.299 99.2567C373.271 99.2567 375.501 99.1274 378.572 98.8688V64.609C375.501 64.0918 373.045 63.8656 370.815 63.8656ZM217.615 106.335L187.363 53.62V106.335H176.826V39.5928H191.564L221.816 91.8553V39.5928H232.482V106.335H217.615ZM313.93 107.369C308.824 107.369 303.523 106.787 297.22 105.592L296.509 105.462V96.1216L297.511 96.3478C303.103 97.5437 307.919 98.5456 312.734 98.5456C316.613 98.5456 325.663 97.9315 325.663 92.2108C325.663 87.4273 319.392 86.2315 314.383 85.2618L314.06 85.1972C313.122 85.0356 312.25 84.8417 311.506 84.6478C304.105 82.7408 296.251 79.8643 296.251 70.0065C296.251 60.375 303.879 54.8481 317.195 54.8481C323.562 54.8481 328.184 55.5269 331.933 56.1087L333.743 56.3672V65.417L332.773 65.2231C328.539 64.4474 323.626 63.6717 318.875 63.6717C313.575 63.6717 307.305 64.6413 307.305 69.3278C307.305 73.2386 312.443 74.3698 318.39 75.6626C326.697 77.4403 336.975 79.7027 336.975 91.0149C336.975 101.422 328.604 107.369 313.93 107.369ZM421.202 107.369C409.599 107.369 398.901 105.333 398.901 90.5624C398.901 74.4668 415.482 74.4668 425.404 74.4668C426.374 74.4668 431.06 74.693 432.482 74.7576C432.45 65.7402 432.353 63.5747 419.263 63.5747C414.06 63.5747 408.306 64.609 403.2 65.514L402.23 65.6756V56.7874L402.877 56.6258C408.791 55.4299 414.48 54.8481 420.265 54.8481C432.967 54.8481 443.73 56.141 443.73 71.8488V106.173L442.954 106.27C434.163 107.24 427.182 107.369 421.202 107.369ZM425.113 82.4176C415.546 82.4176 409.632 83.8397 409.632 90.821C409.632 98.9335 417.195 99.6122 424.273 99.6122C426.923 99.6122 431.674 99.2567 433.161 99.1597V82.7085C431.092 82.6116 425.76 82.4176 425.113 82.4176ZM264.156 107.369C252.553 107.369 241.823 105.333 241.823 90.5624C241.823 74.4668 258.403 74.4668 268.326 74.4668C269.328 74.4668 273.982 74.693 275.404 74.7576C275.404 65.7402 275.275 63.5747 262.185 63.5747C256.981 63.5747 251.228 64.609 246.122 65.514L245.152 65.6756V56.7874L245.831 56.6258C247.253 56.3457 248.686 56.0871 250.129 55.8501C251.573 55.6346 253.017 55.4515 254.46 55.3006C255.926 55.1498 257.38 55.0421 258.824 54.9774C260.289 54.8912 261.754 54.8481 263.219 54.8481C275.889 54.8481 286.652 56.141 286.652 71.8488V106.173L285.876 106.27C277.085 107.24 270.103 107.369 264.156 107.369ZM268.035 82.4176C258.468 82.4176 252.553 83.8397 252.553 90.821C252.553 98.9335 260.116 99.6122 267.227 99.6122C269.877 99.6122 274.628 99.2567 276.083 99.1597V82.7085C274.014 82.6116 268.681 82.4176 268.035 82.4176Z" fill="#231F20"/>
<mask id="mask0_34_1425" style="mask-type:luminance" maskUnits="userSpaceOnUse" x="451" y="51" width="49" height="79">
<path d="M451.029 51.8291H499.756V129.576H451.029V51.8291Z" fill="white"/>
</mask>
<g mask="url(#mask0_34_1425)">
<path fill-rule="evenodd" clip-rule="evenodd" d="M488.302 129.024V107.143C483.939 107.725 481.612 107.725 479.737 107.725C475.309 107.725 470.364 106.787 466.55 105.171C458.018 101.616 452.943 92.5986 452.943 81.0601C452.943 75.307 454.333 64.7382 463.738 59.0821C468.457 56.2379 474.049 55.042 482.42 55.042C485.426 55.042 489.498 55.2682 493.409 55.4945L499.744 55.8177V123.95L488.302 129.024ZM481.612 63.8655C470.235 63.8655 464.482 69.6509 464.482 81.0601C464.482 95.766 473.079 98.8364 480.319 98.8364C482.064 98.8364 484.036 98.8364 488.431 98.287V64.1564C485.005 63.9302 483.422 63.8655 481.612 63.8655Z" fill="#231F20"/>
</g>
<mask id="mask1_34_1425" style="mask-type:luminance" maskUnits="userSpaceOnUse" x="81" y="0" width="88" height="107">
<path d="M81.3867 0.0517578H168.934V106.9H81.3867V0.0517578Z" fill="white"/>
</mask>
<g mask="url(#mask1_34_1425)">
<path d="M166.678 0.0644531L129.638 101.68C128.669 104.395 126.051 106.335 122.98 106.335H83.8398V106.302C84.5078 106.238 85.1542 106.076 85.7791 105.818C86.3824 105.581 86.9534 105.257 87.4921 104.848C88.0092 104.439 88.4617 103.964 88.8495 103.426C89.2589 102.887 89.5714 102.305 89.7868 101.68L126.826 0.0644531H166.678Z" fill="#0996C7"/>
</g>
<path d="M78.7328 104.525C78.0864 104.331 77.5046 104.04 76.9552 103.685C76.4057 103.329 75.9209 102.909 75.5008 102.392C75.0806 101.907 74.7574 101.358 74.4988 100.744L66.5156 78.8949L80.0903 41.5969C80.3165 40.9181 80.866 40.1424 80.9953 39.9485C81.674 38.9789 82.6113 38.2032 83.7102 37.7184C84.8091 37.2336 86.005 37.0396 87.2008 37.1689C88.3967 37.2982 89.5279 37.7507 90.4652 38.4618C91.4348 39.1728 92.1782 40.1424 92.6307 41.2413L100.582 63.0254L87.0069 100.323C86.6837 101.164 86.2635 101.778 86.1342 101.972C84.9061 103.685 82.9345 104.816 80.6397 104.816C79.9933 104.816 79.3469 104.719 78.7328 104.525Z" fill="#0996C7"/>
<mask id="mask2_34_1425" style="mask-type:luminance" maskUnits="userSpaceOnUse" x="-3" y="32" width="88" height="110">
<path d="M-2.91797 32.3945H84.6289V141.877H-2.91797V32.3945Z" fill="white"/>
</mask>
<g mask="url(#mask2_34_1425)">
<path d="M83.5489 35.585C82.8379 35.6173 82.1591 35.7466 81.5127 35.9728C80.834 36.1991 80.2199 36.5546 79.6381 36.9424C79.0887 37.3626 78.5716 37.8474 78.1514 38.4292C77.7312 38.9786 77.408 39.5927 77.1818 40.2715L40.1423 141.887H0.291016L37.2981 40.2391C38.3001 37.5242 40.918 35.585 43.9885 35.585H83.5489Z" fill="#0996C7"/>
</g>
</g>
<defs>
<clipPath id="clip0_34_1425">
<rect width="500" height="141.888" fill="white"/>
</clipPath>
</defs>
</svg>
