<svg width="500" height="148" viewBox="0 0 500 148" fill="none" xmlns="http://www.w3.org/2000/svg">
<g clip-path="url(#clip0_34_1426)">
<path fill-rule="evenodd" clip-rule="evenodd" d="M210.216 72.5893C198.541 72.5893 189.118 63.1667 189.118 51.4916C189.118 39.8165 198.541 30.3939 210.216 30.3939C221.859 30.3939 231.282 39.8165 231.282 51.4916C231.282 63.1667 221.859 72.5893 210.216 72.5893ZM224.81 51.7137C224.81 49.7784 224.429 47.8748 223.699 46.0982C222.97 44.3215 221.891 42.7352 220.527 41.371C219.194 40.0068 217.576 38.9281 215.799 38.1984C214.023 37.4688 212.119 37.088 210.216 37.1198C208.28 37.088 206.377 37.4688 204.6 38.1984C202.824 38.9281 201.206 40.0068 199.873 41.371C198.509 42.7352 197.43 44.3533 196.701 46.1299C195.971 47.9066 195.59 49.8101 195.59 51.7137C195.59 53.649 195.971 55.5525 196.701 57.3292C197.43 59.1058 198.509 60.6921 199.873 62.0563C201.206 63.4205 202.824 64.4992 204.6 65.2289C206.377 65.9586 208.28 66.3393 210.216 66.3076C218.306 66.3076 224.81 59.6134 224.81 51.7137ZM499.905 31.3139V71.8913H494.575V71.6693L472.303 44.0677V71.8913H465.355V31.3139H470.685L492.957 59.1375V31.3139H499.905ZM406.028 71.8913H375.888V31.3139H405.806V38.0398H382.868V48.2238H404.886V54.7276H382.868V64.9434H406.028V71.8913ZM333.725 71.8913H326.777V31.3139H333.725V48.6997H354.346V31.3139H361.294V71.8913H354.346V55.2035H333.725V71.8913ZM316.117 37.5639H303.141V71.8913H295.939V37.5639H282.963V31.3139H316.117V37.5639ZM172.652 31.2822H179.6V71.8913H174.27L152.03 44.036V71.8913H144.829V31.2822H150.412L172.652 59.1375V31.2822ZM438.928 64.6578C438.928 64.6578 436.612 61.1997 435.692 59.55C434.772 57.9319 434.296 57.0119 433.852 56.7898H425.73V71.6058H418.782V31.0284H437.532C447.525 31.0284 451.904 37.3101 451.904 43.7822C451.904 50.5081 447.97 54.4421 441.72 55.838C442.195 56.7898 445.907 62.3419 445.907 62.3419C447.747 65.1337 449.841 66.2759 452.379 66.2759H455.171V72.3038H451.904C445.907 72.3038 443.116 70.4637 438.928 64.6578ZM425.73 50.286H437.786C443.338 50.286 445.209 47.2721 445.209 44.036C445.209 40.5462 442.862 37.5322 437.786 37.5322H425.73V50.286ZM261.421 64.6578C261.421 64.6578 259.105 61.1997 258.185 59.55C257.234 57.9319 256.789 57.0119 256.313 56.7898H248.192V71.6058H241.244V31.0284H260.025C269.987 31.0284 274.397 37.3101 274.397 43.7822C274.397 50.5081 270.463 54.4421 264.181 55.838C264.657 56.7898 268.369 62.3419 268.369 62.3419C270.209 65.1337 272.303 66.2759 274.873 66.2759H277.633V72.3038H274.397C268.369 72.3038 265.355 70.4637 261.421 64.6578ZM248.192 50.286H260.247C265.831 50.286 267.671 47.2721 267.671 44.036C267.671 40.5462 265.355 37.5322 260.247 37.5322H248.192V50.286ZM319.131 90.8634H352.506V97.1134H339.277V131.441H332.329V97.1134H319.131V90.8634ZM311.231 119.861C311.009 129.125 302.443 132.393 294.321 132.393C285.977 132.393 280.425 129.379 276.935 123.129L276.713 122.875L282.043 119.385L282.265 119.639C285.533 125.191 291.307 126.111 294.543 126.111C296.859 126.111 304.537 125.667 304.537 119.861C304.537 116.371 301.523 114.531 294.543 113.611C286.897 112.437 278.807 110.597 278.807 101.555C278.786 100.857 278.839 100.17 278.966 99.4929C279.093 98.816 279.294 98.1604 279.569 97.5259C279.822 96.8913 280.14 96.2886 280.52 95.7175C280.901 95.1464 281.335 94.6177 281.821 94.1312C284.581 91.3393 289.213 89.7213 294.543 89.7213C301.745 89.7213 306.599 92.0373 309.613 96.6693L309.835 96.8913L304.505 100.381L304.283 100.159C302.443 97.3672 298.731 95.7492 294.543 95.7492C288.991 95.7492 285.533 98.0652 285.533 101.555C285.533 105.013 289.213 106.187 295.019 107.107C303.585 108.281 311.485 110.597 311.231 119.861ZM260.247 114.531V90.8634H267.195V114.531C267.195 125.191 260.501 132.139 250.286 132.139H249.588C239.404 131.917 232.9 124.969 232.9 114.531V90.8634H239.848V114.531C239.848 121.257 243.56 125.413 249.841 125.667H250.508C256.789 125.667 260.723 121.257 260.723 114.531H260.247ZM209.042 124.493C209.042 124.493 206.726 121.035 205.806 119.385C204.854 117.767 204.41 116.847 203.934 116.625H195.844V131.473H188.864V90.8634H207.646C217.608 90.8634 222.018 97.1452 222.018 103.617C222.018 110.343 218.084 114.309 211.834 115.673C212.278 116.625 215.99 122.177 215.99 122.177C217.83 124.969 219.924 126.111 222.494 126.111H225.254V131.917H222.018C215.99 131.917 212.976 130.299 209.042 124.493ZM207.868 109.899C213.452 109.899 215.292 106.885 215.292 103.617C215.292 100.159 212.976 97.1452 207.868 97.1452H195.812V110.121L207.868 109.899ZM144.86 90.8951H178.204V97.1452H165.006V131.473H158.058V97.1452H144.86V90.8951ZM107.995 75.6033V76.7454C107.995 86.7391 105.457 96.4789 100.127 105.045C95.019 113.611 87.8173 120.337 79.0292 125L53.9975 147.24L28.9657 125C20.3997 120.591 12.9759 113.611 7.86802 105.267C2.79188 96.701 0 86.9611 0 76.9992V75.8254L6.94797 81.8533C8.12183 92.2911 12.2779 101.809 19.4797 109.455C27.5698 118.275 38.7056 123.605 50.7614 124.525H50.9835V86.0411L57.7094 94.385V124.525H57.9315C69.9873 123.605 81.1231 118.275 89.2132 109.455C96.415 101.809 100.571 92.069 101.745 81.8533L107.995 75.6033ZM63.0393 130.553H62.5635C61.1887 130.785 59.8033 130.954 58.4074 131.06C57.0114 131.187 55.6155 131.25 54.2195 131.25C52.8236 131.25 51.4277 131.187 50.0317 131.06C48.6358 130.954 47.2504 130.785 45.8756 130.553H45.4315L54.4734 138.452L63.0393 130.553ZM93.8452 22.2403V28.9662H57.7094V59.3596L50.9835 50.984V28.9662H14.816V22.2403H42.3858L42.1637 22.0182C40.7678 19.6917 40.0698 17.143 40.0698 14.3723C40.0698 6.47256 46.5736 -0.03125 54.4416 -0.03125C62.3414 -0.03125 68.8135 6.47256 68.8135 14.3723C68.8135 17.143 68.1261 19.6917 66.7513 22.0182L66.4975 22.2403H93.8452ZM62.3414 14.3723C62.3414 13.3253 62.151 12.2784 61.7386 11.3266C61.3579 10.3748 60.7868 9.48652 60.0571 8.75682C59.3274 8.02713 58.4391 7.45606 57.4873 7.04362C56.5355 6.66291 55.4886 6.47256 54.4416 6.47256C53.4264 6.47256 52.3794 6.66291 51.4277 7.04362C50.4759 7.45606 49.5876 8.02713 48.8579 8.75682C48.1282 9.48652 47.5571 10.3748 47.1447 11.3266C46.764 12.2784 46.5736 13.3253 46.5736 14.3723C46.5736 15.3875 46.764 16.4345 47.1447 17.3863C47.5571 18.338 48.1282 19.2264 48.8579 19.9561C49.5876 20.6858 50.4759 21.2568 51.4277 21.6693C52.3794 22.05 53.4264 22.2403 54.4416 22.2403C58.6294 22.2403 62.0876 18.7505 62.3414 14.3723ZM87.5952 50.0639H79.9492V75.8254H73.2234V50.0639H65.5774V43.338H87.5952V50.0639ZM37.0558 56.0919V93.9091H44.7335V100.381H22.7157V93.9091H30.3617V50.0639H22.7157V43.338H35.2157L80.8693 100.381H72.3033L37.3096 56.5677L37.0558 56.0919Z" fill="#115740"/>
</g>
<defs>
<clipPath id="clip0_34_1426">
<rect width="500" height="147.525" fill="white"/>
</clipPath>
</defs>
</svg>
