<svg width="500" height="325" viewBox="0 0 500 325" fill="none" xmlns="http://www.w3.org/2000/svg">
<path d="M481.879 124.085L469.954 199.051C469.794 200.09 470.493 201.069 471.532 201.249C471.632 201.269 471.752 201.269 471.852 201.269H485.974C487.013 201.269 487.892 200.53 488.051 199.511L499.977 124.544C500.136 123.506 499.437 122.527 498.399 122.347C498.299 122.327 498.179 122.327 498.079 122.327H483.957C482.918 122.307 482.019 123.046 481.879 124.085ZM466.798 145.958H453.395C452.376 145.938 451.477 146.697 451.317 147.715L450.878 150.472C450.878 150.472 440.471 139.186 422.054 146.817C411.487 151.191 406.413 160.2 404.256 166.812C404.256 166.812 397.404 186.907 412.905 197.953C412.905 197.953 427.287 208.58 443.467 197.294L443.187 199.051C443.048 199.91 443.507 200.729 444.286 201.089C444.546 201.209 444.825 201.269 445.105 201.269H458.508C459.547 201.289 460.426 200.53 460.586 199.511L468.736 148.175C468.835 147.616 468.656 147.056 468.296 146.617C467.897 146.197 467.357 145.958 466.798 145.958ZM447.083 174.342C446.563 177.938 444.745 181.194 441.989 183.551C439.212 185.908 435.677 187.166 432.041 187.126C430.623 187.146 429.185 186.927 427.826 186.507C422.034 184.669 418.738 179.156 419.697 173.164C420.216 169.568 422.034 166.312 424.81 163.955C427.587 161.598 431.122 160.32 434.758 160.36C436.176 160.34 437.614 160.559 438.973 160.979C444.765 162.837 448.041 168.35 447.083 174.342ZM375.532 175.761C382.803 175.761 389.834 173.184 395.347 168.49C400.86 163.815 404.496 157.303 405.634 150.172C407.971 135.331 396.286 122.367 379.726 122.367H353.04C352.001 122.367 351.122 123.106 350.962 124.125L339.017 199.091C338.877 199.95 339.337 200.769 340.116 201.129C340.375 201.249 340.655 201.309 340.935 201.309H355.057C356.096 201.309 356.975 200.57 357.135 199.551L360.63 177.538C360.79 176.52 361.669 175.761 362.708 175.78L375.532 175.761ZM387.337 149.493C386.458 154.986 382.183 159.021 374.014 159.021H363.547L366.723 139.046H376.99C385.459 139.066 388.216 144.02 387.337 149.493Z" fill="#0070E0"/>
<path d="M322.917 147.236L306.758 174.322L298.548 147.436C298.288 146.557 297.469 145.958 296.55 145.958H281.968C281.189 145.938 280.51 146.517 280.41 147.276C280.37 147.516 280.41 147.775 280.49 148.015L295.192 193.299L281.889 214.632C281.429 215.351 281.629 216.29 282.348 216.749C282.368 216.769 282.388 216.789 282.428 216.789C282.668 216.929 282.947 217.009 283.227 216.989H298.947C299.866 216.989 300.705 216.51 301.185 215.731L342.233 148.315C342.533 147.835 342.553 147.236 342.273 146.737C341.994 146.237 341.454 145.938 340.895 145.958H325.195C324.236 145.978 323.397 146.457 322.917 147.236ZM273.699 145.958H260.296C259.257 145.958 258.378 146.697 258.218 147.715L257.779 150.472C257.779 150.472 247.372 139.186 228.935 146.817C218.368 151.191 213.294 160.2 211.137 166.812C211.137 166.812 204.285 186.907 219.766 197.953C219.766 197.953 234.148 208.58 250.328 197.294L250.048 199.052C249.908 199.91 250.368 200.729 251.147 201.089C251.407 201.209 251.686 201.269 251.966 201.269H265.369C266.388 201.269 267.287 200.53 267.447 199.511L275.596 148.175C275.736 147.316 275.277 146.477 274.498 146.137C274.238 146.018 273.958 145.958 273.699 145.958ZM253.963 174.342C253.444 177.918 251.626 181.194 248.85 183.531C246.073 185.888 242.538 187.166 238.902 187.126C237.484 187.146 236.066 186.927 234.687 186.507C228.915 184.669 225.599 179.156 226.558 173.164C227.077 169.568 228.915 166.292 231.691 163.955C234.468 161.598 238.023 160.34 241.659 160.38C243.077 160.36 244.515 160.579 245.873 160.999C251.666 162.837 254.942 168.35 253.963 174.342ZM182.412 175.761C189.663 175.761 196.675 173.184 202.208 168.47C207.721 163.795 211.356 157.304 212.475 150.152C214.832 135.311 203.127 122.347 186.567 122.347H159.881C158.842 122.327 157.963 123.086 157.803 124.105L145.898 199.052C145.758 199.91 146.218 200.749 146.997 201.089C147.256 201.209 147.536 201.269 147.816 201.269H161.938C162.977 201.269 163.856 200.53 164.015 199.511L167.511 177.498C167.671 176.48 168.55 175.721 169.588 175.741L182.412 175.761ZM194.238 149.493C193.359 154.986 189.084 159.021 180.914 159.021H170.447L173.623 139.046H183.891C192.36 139.066 195.117 144.02 194.238 149.493Z" fill="#003087"/>
<path d="M91.1267 126.203C91.4463 109.643 77.7833 96.939 59.0067 96.939H20.1751C18.2974 96.939 16.7194 98.2973 16.4198 100.155L0.859136 197.394C0.59946 199.072 1.73804 200.65 3.43593 200.929C3.59573 200.949 3.75553 200.969 3.91533 200.969H26.9267L23.3311 223.481C23.0715 225.159 24.2101 226.737 25.9079 227.017C26.0677 227.037 26.2275 227.057 26.3873 227.057H45.124C46.0229 227.057 46.8419 226.737 47.521 226.138C48.2002 225.559 48.32 224.74 48.4599 223.841L53.953 191.461C54.0928 190.562 54.5523 189.404 55.2314 188.825C55.9106 188.245 56.5098 187.906 57.4287 187.906H68.8944C87.2915 187.906 102.892 174.842 105.729 156.645C107.766 143.761 102.233 132.015 91.1267 126.203Z" fill="#001C64"/>
<path d="M31.8804 165.094L26.1675 201.449L22.572 224.24C22.3124 225.918 23.4509 227.496 25.1488 227.776C25.3086 227.796 25.4684 227.816 25.6282 227.816H45.4635C47.3412 227.816 48.9192 226.458 49.2188 224.6L54.4523 191.461C54.7519 189.624 56.33 188.265 58.2076 188.245H69.8931C88.2902 188.245 103.891 174.822 106.747 156.645C108.765 143.741 102.273 131.995 91.1666 126.183C91.1466 127.561 91.0268 128.919 90.807 130.278C87.9506 148.455 72.35 161.878 53.9729 161.878H35.6957C33.7781 161.898 32.1801 163.256 31.8804 165.094Z" fill="#0070E0"/>
<path d="M26.1474 201.449H3.07617C1.37828 201.449 0 200.07 0 198.372C0 198.213 0.019976 198.053 0.0399512 197.893L15.6006 99.216C15.9002 97.3783 17.4782 96.02 19.3559 96H59.0265C77.8031 96 91.4661 109.663 91.1465 126.222C86.4723 123.765 80.9791 122.367 74.9666 122.367H41.8679C39.9902 122.367 38.4122 123.725 38.1125 125.583L31.8803 165.134L26.1474 201.449Z" fill="#003087"/>
</svg>
