<svg width="500" height="149" viewBox="0 0 500 149" fill="none" xmlns="http://www.w3.org/2000/svg">
<g clip-path="url(#clip0_34_1422)">
<mask id="mask0_34_1422" style="mask-type:luminance" maskUnits="userSpaceOnUse" x="0" y="0" width="499" height="149">
<path d="M0 0H498.64V148.601H0V0Z" fill="white"/>
</mask>
<g mask="url(#mask0_34_1422)">
<path d="M76.8196 10.0249H48.7984L28.9543 23.7039L23.4961 92.0785L28.9543 120.816L39.2213 135.165L52.2072 138.595L88.4461 129.016L139.051 85.2387L143.149 66.7906L134.932 51.7518L76.8196 10.0249Z" fill="white"/>
<path d="M134.588 146.449C130.063 146.449 126.452 142.776 126.452 138.27C126.452 133.765 130.084 130.152 134.588 130.152C139.093 130.152 142.684 133.785 142.684 138.27C142.684 142.755 139.032 146.449 134.588 146.449ZM134.588 128.285C129.029 128.285 124.564 132.73 124.564 138.29C124.564 143.852 129.029 148.336 134.588 148.336C140.148 148.336 144.551 143.852 144.551 138.29C144.551 132.73 140.108 128.285 134.588 128.285ZM133.33 139.244H134C136.049 139.244 135.826 140.422 135.826 141.801C135.826 142.573 135.826 143.364 136.171 144.054H138.748C138.504 143.567 138.443 141.396 138.443 140.645C138.443 138.554 136.719 138.412 136.171 138.392V138.331C137.895 138.067 138.504 136.951 138.504 135.49C138.504 133.501 137.348 132.425 135.542 132.425H130.672V144.054H133.31V139.244H133.33ZM133.33 134.353H134.507C135.339 134.353 135.866 134.779 135.866 135.875C135.866 136.626 135.542 137.6 134.507 137.6H133.33V134.353Z" fill="#F58025"/>
<path d="M220.618 21.2896H171.535V26.0589L172.509 26.1807C189.593 28.2508 191.339 30.5036 191.339 39.2102V130.052H210.797V82.8244H218.65C237.134 82.8244 275.585 82.8244 275.585 52.1383C275.585 21.4519 239.833 21.2896 220.638 21.2896H220.618ZM218.224 74.4631H210.777V39.2102C210.777 30.9298 210.777 29.6715 226.563 29.6715C244.317 29.6715 254.077 37.6475 254.077 52.1585C254.077 71.8244 235.937 74.4835 218.204 74.4835L218.224 74.4631Z" fill="#006AAA"/>
<path d="M385.6 21.3101H374.176V106.083C371.153 101.882 313.345 21.3101 313.345 21.3101H272.074V26.0591L273.028 26.1809C289.727 28.3525 291.857 29.1034 291.857 41.0978V130.052H304.377V38.8857C307.4 43.1071 369.956 130.052 369.956 130.052H386.696V21.3101H385.6Z" fill="#006AAA"/>
<path d="M401.609 72.1096C401.609 101.801 419.729 131.757 460.188 131.757C479.403 131.757 488.879 129.646 497.665 127.293L498.477 127.069V118.139L496.995 118.545C487.661 121.041 478.47 122.442 471.145 122.442C438.802 122.442 423.097 104.643 423.097 67.9896C423.097 43.5137 434.743 28.9012 454.243 28.9012C467.31 28.9012 475 34.0359 477.049 44.1632L477.232 45.0359H498.659L498.496 43.7979C497.766 38.1153 492.511 19.5654 455.44 19.5654C418.369 19.5654 401.629 37.2425 401.629 72.0892L401.609 72.1096Z" fill="#006AAA"/>
<path d="M111.05 84.8339H95.7104C96.5018 82.6824 96.1568 80.3281 94.6958 77.8118L69.6981 34.5018C66.0455 28.1697 62.3934 23.1568 58.8019 19.4225C58.8835 19.4631 58.9441 19.5037 59.0251 19.5443C69.0286 25.0239 89.035 36.3081 127.343 58.8153L129.535 60.0938C136.617 64.2139 140.816 70.5664 139.558 75.2343C137.915 81.3228 127.526 84.8339 111.03 84.8339M61.095 128.022L58.9237 129.26C51.8221 133.339 44.2131 133.806 40.8043 130.376C36.3404 125.911 38.5115 115.155 46.7697 100.888L54.4396 87.5938C55.9005 89.3596 58.1121 90.2325 61.0338 90.2325H111.05C118.335 90.2325 124.523 89.5827 129.535 88.345C129.454 88.3858 129.393 88.4056 129.332 88.4668C119.552 94.3928 99.789 106.103 61.1154 128.022H61.095ZM34.3519 36.0443V33.548C34.4128 25.369 37.8013 18.5092 42.4681 17.2915C48.5756 15.6679 56.7932 22.9336 65.0315 37.2011L72.701 50.4538C70.4691 50.8394 68.6026 52.321 67.1416 54.8579L42.1435 98.1882C38.4912 104.5 35.9548 110.182 34.5345 115.155C34.5345 115.074 34.5345 115.013 34.5345 114.911C34.291 103.465 34.0476 80.5111 34.3722 36.0443H34.3519ZM74.3042 0C33.2562 0 0 33.2638 0 74.3007C0 115.337 33.2562 148.601 74.3042 148.601C115.352 148.601 148.587 115.337 148.587 74.3007C148.587 33.2638 115.311 0 74.3042 0Z" fill="#F58025"/>
</g>
</g>
<defs>
<clipPath id="clip0_34_1422">
<rect width="500" height="148.601" fill="white"/>
</clipPath>
</defs>
</svg>
