<svg width="500" height="142" viewBox="0 0 500 142" fill="none" xmlns="http://www.w3.org/2000/svg">
<g clip-path="url(#clip0_34_1421)">
<path fill-rule="evenodd" clip-rule="evenodd" d="M405.17 67.7908C405.17 82.6912 396.5 92.9031 383.944 92.9031C379.608 92.9031 374.117 90.9443 371.355 88.2146V110.18H361.946V45.408H369.814L370.585 51.2846C374.117 46.564 379.608 44.2198 385.517 44.2198C397.303 44.2198 405.17 53.6289 405.17 67.7908ZM395.729 67.7908C395.729 58.7349 391.009 52.8582 383.558 52.8582C376.461 52.8582 371.773 57.5788 371.773 65.4144V79.1588C374.117 82.3058 378.452 84.2647 382.756 84.2647C391.009 84.2647 395.729 78.0027 395.729 67.7908ZM160.405 28.9019C173.379 28.9019 182.402 37.1549 182.402 49.3258C182.402 61.4966 173.764 69.7496 160.405 69.7496H147.431V91.7471H137.637V28.9019H160.405ZM147.431 61.4966H158.831C167.47 61.4966 172.576 57.1613 172.576 49.3258C172.576 41.4581 167.47 37.1549 158.831 37.1549H147.431V61.4966ZM216.571 45.7933L215.382 53.6289C213.423 53.2435 211.465 52.8582 210.276 52.8582C202.441 52.8582 198.106 57.5467 198.106 66.6026V91.3296H188.664V45.3758H196.532L197.303 51.2846C200.064 46.9494 204.785 44.6051 210.276 44.6051C212.653 44.6051 214.612 44.9905 216.571 45.7933ZM228.741 38.6963C225.466 38.6963 222.833 36.0631 222.833 32.8196C222.833 29.5762 225.466 26.943 228.741 26.943C231.985 26.943 234.65 29.5762 234.65 32.8196C234.65 36.0631 231.985 38.6963 228.741 38.6963ZM223.635 91.715V45.7933H233.077V91.715H223.635ZM285.71 61.4966V91.3296H276.269V62.6527C276.269 56.3906 272.351 52.4407 266.057 52.4407C259.377 52.4407 254.271 57.5467 254.271 65.4144V91.3296H244.83V45.3758H252.698L253.468 51.2846C257.033 46.9494 262.524 44.2198 268.401 44.2198C279.03 44.2198 286.095 51.2846 285.71 61.4966ZM302.601 68.5615C302.601 78.3881 308.093 84.2647 317.117 84.2647C321.452 84.2647 324.984 82.6912 328.517 79.9616L332.852 86.609C328.902 90.1414 322.222 92.5178 315.96 92.5178C302.184 92.5178 293.16 83.0766 293.16 68.5615C293.16 54.8171 302.987 44.6051 316.346 44.6051C322.222 44.6051 328.517 46.9494 332.852 50.4818L328.517 57.1613C324.984 54.4317 320.649 52.8582 316.731 52.8582C308.478 52.8582 302.601 59.1202 302.601 68.5615ZM477.81 84.2647L478.581 91.715C477.007 92.1324 475.048 92.5178 473.09 92.5178C465.639 92.5178 461.304 88.6 461.304 81.1177V26.1401H470.745V79.5441C470.745 83.494 471.901 84.6501 475.048 84.6501C475.851 84.6501 477.007 84.2647 477.81 84.2647ZM345.793 38.6963C342.518 38.6963 339.885 36.0631 339.885 32.8196C339.885 29.5762 342.518 26.943 345.793 26.943C349.069 26.943 351.702 29.5762 351.702 32.8196C351.702 36.0631 349.069 38.6963 345.793 38.6963ZM340.687 91.715V45.7933H350.129V91.715H340.687ZM440.848 63.8408V62.2673C440.848 56.0053 436.93 52.8582 429.865 52.8582C425.145 52.8582 420.424 54.0143 416.506 56.3906L413.745 48.9083C419.268 46.1787 425.948 44.6051 431.439 44.6051C442.839 44.6051 449.904 50.8993 449.904 61.4966V81.503C449.904 83.8794 450.675 85.0354 453.051 85.0354C453.822 85.0354 454.625 84.6501 455.395 84.6501L456.198 91.715C454.625 92.1324 452.634 92.5178 450.675 92.5178C445.954 92.5178 442.422 90.1414 441.266 86.2236C438.118 90.1414 433.398 92.5178 427.489 92.5178C417.277 92.5178 410.598 87.0265 410.598 78.3881C410.598 68.5615 417.695 62.6527 429.865 62.6527C433.398 62.6527 437.316 63.0701 440.077 63.8408H440.848ZM440.045 70.135C436.93 69.7496 434.554 69.3322 431.021 69.3322C424.342 69.3322 420.039 72.4793 420.039 77.5852C420.039 82.3058 423.154 85.0354 428.677 85.0354C435.742 85.0354 440.045 80.7323 440.045 73.2821V70.135Z" fill="#4E4F53"/>
<path d="M69.2683 92.1321V73.6671C83.0127 71.3229 90.495 63.4552 90.495 51.6697C90.495 37.9253 80.6684 28.9016 66.1212 28.9016C50.4179 28.9016 38.6324 41.4578 38.6324 58.7346C38.6324 76.4288 51.1886 90.1732 69.2683 91.7468V141.618C29.994 138.086 0.128906 105.491 0.128906 66.2169C0.128906 28.9016 27.6177 0.224609 64.1623 0.224609C94.0274 0.224609 115.607 20.2631 115.607 48.1373C115.607 73.6671 97.5599 90.9439 69.2683 92.1321Z" fill="url(#paint0_linear_34_1421)"/>
<path fill-rule="evenodd" clip-rule="evenodd" d="M490.397 44.2195C485.195 44.2195 480.988 40.0127 480.988 34.7783C480.988 29.5759 485.195 25.3691 490.397 25.3691C495.632 25.3691 499.839 29.5759 499.839 34.7783C499.839 40.0127 495.632 44.2195 490.397 44.2195ZM498.265 34.7783C498.265 30.443 494.733 26.9427 490.397 26.9427C486.062 26.9427 482.562 30.443 482.562 34.7783C482.562 39.1456 486.062 42.646 490.397 42.646C494.733 42.646 498.265 39.1456 498.265 34.7783ZM491.2 29.6723C493.544 29.6723 495.118 31.2458 495.118 33.2047C495.118 34.7783 494.347 35.9664 492.774 36.3518L495.503 40.3017H492.356L490.012 36.3518H488.438V40.3017H486.094V29.6723H491.2ZM488.824 34.7783H490.783C491.971 34.7783 492.356 34.0075 492.356 33.2047C492.356 32.434 491.586 31.6633 490.783 31.6633H488.824V34.7783Z" fill="#4E4F53"/>
</g>
<defs>
<linearGradient id="paint0_linear_34_1421" x1="19.5252" y1="120.649" x2="86.8983" y2="3.94972" gradientUnits="userSpaceOnUse">
<stop stop-color="#0072BC"/>
<stop offset="0.5" stop-color="#238FCF"/>
<stop offset="1" stop-color="#00BED3"/>
</linearGradient>
<clipPath id="clip0_34_1421">
<rect width="500" height="141.618" fill="white"/>
</clipPath>
</defs>
</svg>
