<svg width="500" height="60" viewBox="0 0 500 60" fill="none" xmlns="http://www.w3.org/2000/svg">
<g clip-path="url(#clip0_34_1420)">
<path d="M242.855 32.1245C248.187 31.5695 252.007 29.0557 254.162 24.594C255.924 20.9593 258.645 15.072 258.667 15.0067C261.366 9.43493 260.539 6.02877 259.363 4.12437C257.6 1.30586 254.151 0.304688 251.528 0.304688H224.812L197.16 59.069H211.046L221.634 35.9877H229.078C229.699 36.025 230.304 36.1996 230.85 36.4987C231.396 36.7979 231.868 37.2143 232.234 37.718C233.126 39.198 232.887 41.4615 231.483 44.4432C228.131 51.6364 225.465 59.0908 225.465 59.0908H239.547C239.937 57.1478 240.509 55.2459 241.255 53.4103C242.343 50.842 245.608 42.7238 245.608 42.6477C248.296 36.0639 244.966 33.4304 242.855 32.1245ZM241.386 22.4284C240.21 24.9095 238.404 26.1719 235.999 26.1719H226.314L233.659 10.1749H244.259C244.54 10.188 244.814 10.2631 245.062 10.3948C245.311 10.5265 245.527 10.7116 245.695 10.9367C246.12 11.6331 245.967 12.7976 245.26 14.3102L242.833 19.4031L241.386 22.4284Z" fill="#2D95E5"/>
<path d="M94.6395 32.1241C99.9718 31.5582 103.77 29.0444 105.946 24.5827C107.709 20.948 110.43 15.0606 110.462 14.9954C113.161 9.42362 112.334 6.01747 111.159 4.11307C109.396 1.33808 105.946 0.336914 103.313 0.336914H76.564L48.9121 59.1013H62.8306L73.419 36.0199H80.8734C81.4946 36.0573 82.0998 36.2318 82.6455 36.531C83.1911 36.8302 83.6637 37.2466 84.0293 37.7502C84.9325 39.2302 84.6822 41.4937 83.2784 44.4755C79.9266 51.6687 77.2605 59.123 77.2605 59.123H91.3421C91.7269 57.18 92.2953 55.278 93.0398 53.4425C94.128 50.8743 97.3927 42.7561 97.3927 42.6799C100.092 36.0635 96.7506 33.43 94.6395 32.1241ZM93.1704 22.4171C91.9951 24.9091 90.1886 26.1171 87.7945 26.1171H78.1093L85.6616 10.1201H96.0433C96.3241 10.1332 96.5985 10.2083 96.8469 10.34C97.0953 10.4717 97.3114 10.6567 97.4798 10.8819C97.9042 11.5783 97.7518 12.7427 97.0445 14.2554L94.6177 19.3483L93.1704 22.4171Z" fill="#2D95E5"/>
<path d="M159.846 14.9523C164.71 4.52703 159.204 0 152.196 0H135.328C128.233 0 123.227 3.35174 120.006 10.2402C118.276 13.9402 115.392 20.0343 112.051 26.9881L104.999 41.8533C97.915 56.762 108.514 59.2649 113.705 59.2649H124.359C135.034 59.3738 140.291 56.3594 144.415 47.7624C147.179 42.0165 151.01 33.8113 155.08 25.1163L159.846 14.9523ZM145.993 13.2982L131.846 43.4312C129.876 47.5882 128.581 48.2956 125.523 48.2956H119.407C118.319 48.2956 116.143 48.0018 117.775 44.4433C120.147 39.3286 130.094 17.8905 132.129 13.5811C133.511 10.6429 134.947 10.0552 136.819 10.0552H144.437C145.884 9.98994 147.179 10.7843 145.993 13.2982Z" fill="#2D95E5"/>
<path d="M182.981 26.4767L178.367 36.2707H185.679L181.566 45.1616C180.369 47.7407 179.553 48.263 176.734 48.263H169.465C167.288 48.263 166.527 47.1748 167.832 44.4107C169.487 40.9066 182.545 13.6356 182.545 13.6356C184.025 10.5341 184.907 10.0662 187.192 10.0662H194.701C196.518 10.0662 197.498 10.9041 196.279 13.3309C196.007 13.8641 193.014 20.4044 193.014 20.4044L206.258 20.5023L209.272 14.0273C213.68 4.55976 209.74 0.130664 200.621 7.67689e-05H186.234C182.808 -0.0894108 179.431 0.834581 176.527 2.65623C173.623 4.47788 171.322 7.11614 169.911 10.2403C167.288 15.8229 154.915 41.8534 154.915 41.8534C150.388 51.3754 153.011 59.265 165.395 59.265H176.451C185.288 59.3521 189.63 57.97 193.667 49.1336L203.973 26.5529L182.981 26.4767Z" fill="#2D95E5"/>
<path d="M382.606 0.152344L354.922 59.0038H369.189L397.047 0.152344H382.606Z" fill="#2D95E5"/>
<path d="M432.415 0.163086L400.105 52.0063L416.45 0.163086H401.487L387.775 59.0036H407.081L447.421 0.163086H432.415Z" fill="#2D95E5"/>
<path d="M321.906 38.5886L320.709 16.824C320.567 14.2014 321.209 10.6429 326.008 10.6429H335.65L340.601 0.152344H324.169C311.11 0.152344 306.758 8.1073 307.225 17.4552C307.53 23.1684 308.314 41.7553 308.314 41.7553C308.51 46.2388 306.79 48.2847 302.6 48.2847H291.609L286.68 58.9602H304.2C315.822 59.0255 322.667 51.4406 321.906 38.5886Z" fill="#2D95E5"/>
<path d="M353.56 16.8455C353.419 14.2229 354.061 10.6644 358.86 10.6644H368.502L373.453 0.173828H357.021C346.226 0.173828 339.457 6.07203 340.077 17.4767C340.393 23.1899 341.165 41.7768 341.165 41.7768C341.372 46.2603 339.653 48.3062 335.452 48.3062H324.744L319.814 58.9817H337.052C349.828 58.9817 355.421 49.8406 354.747 38.5448L353.56 16.8455Z" fill="#2D95E5"/>
<path d="M272.913 32.7008H290.771L295.352 22.9068H277.429L283.131 10.6969H301.631L306.485 0.260742H274.251L246.752 59.0251H281.575L286.592 48.3713H265.469L272.913 32.7008Z" fill="#2D95E5"/>
<path d="M424.666 59.0142H459.489L464.55 48.3713H443.384L450.827 32.7008H468.685L473.266 22.9068H455.343L461.045 10.6969H479.545L484.388 0.260742H452.166L424.666 59.0142Z" fill="#2D95E5"/>
<path d="M56.6489 28.435C57.8133 26.03 60.1204 21.0459 62.743 15.2565C67.3462 5.07071 61.6548 0.358679 55.6151 0.336914H29.1929L1.76953 59.1883H16.0253L25.6017 38.5773C25.6017 38.5773 33.6546 38.5773 39.4875 38.5773C48.3784 38.6426 53.0251 35.9111 56.6489 28.435ZM49.2925 14.7886C46.7243 20.2297 44.7654 24.2997 44.5478 24.7459C43.3943 27.2053 41.7402 28.2935 39.2481 28.2935H30.3029L38.7584 9.97862H47.7254C49.6951 9.9895 51.0989 10.9798 49.2925 14.7886Z" fill="#2D95E5"/>
<path d="M495.913 4.25455C495.923 4.02676 495.872 3.80042 495.767 3.59805C495.662 3.39568 495.506 3.22432 495.314 3.10103C494.911 2.8966 494.459 2.80628 494.009 2.83986H491.68V8.19394H492.333V5.72366H493.53L495.064 8.19394H495.837L494.226 5.72366C495.173 5.7019 495.913 5.31013 495.913 4.25455ZM493.356 5.21219H492.354V3.26426H493.889C494.553 3.26426 495.282 3.3622 495.282 4.18926C495.249 5.3319 494.085 5.21219 493.356 5.21219Z" fill="#2D95E5"/>
<path d="M493.463 0.729505C492.515 0.727353 491.588 1.00662 490.799 1.53193C490.01 2.05723 489.394 2.80494 489.031 3.68031C488.667 4.55568 488.571 5.51933 488.756 6.44917C488.94 7.379 489.396 8.23317 490.066 8.90347C490.737 9.57377 491.591 10.03 492.521 10.2144C493.451 10.3988 494.414 10.3031 495.29 9.93934C496.165 9.57559 496.913 8.96018 497.438 8.1711C497.963 7.38202 498.243 6.45477 498.24 5.50683C498.238 4.24069 497.733 3.02723 496.838 2.13193C495.943 1.23663 494.729 0.732379 493.463 0.729505ZM493.463 9.72916C492.632 9.72271 491.821 9.47025 491.132 9.00358C490.444 8.53692 489.909 7.87696 489.596 7.10687C489.282 6.33678 489.203 5.49105 489.369 4.67627C489.535 3.86149 489.939 3.11414 490.529 2.52842C491.12 1.9427 491.87 1.54483 492.686 1.38496C493.502 1.22509 494.347 1.31037 495.115 1.63006C495.883 1.94975 496.538 2.48954 497 3.18139C497.461 3.87323 497.707 4.68616 497.707 5.51771C497.709 6.07444 497.6 6.62593 497.387 7.14029C497.174 7.65464 496.861 8.12165 496.466 8.51431C496.071 8.90696 495.603 9.21746 495.087 9.42786C494.572 9.63825 494.02 9.74436 493.463 9.74004V9.72916Z" fill="#2D95E5"/>
</g>
<defs>
<clipPath id="clip0_34_1420">
<rect width="500" height="59.2105" fill="white"/>
</clipPath>
</defs>
</svg>
