<svg width="500" height="105" viewBox="0 0 500 105" fill="none" xmlns="http://www.w3.org/2000/svg">
<g clip-path="url(#clip0_34_1419)">
<path d="M478.971 83.6089C480.859 83.6089 481.974 83.3007 482.673 82.678C483.217 82.1095 483.49 80.7892 483.49 78.6401V34.6043C483.49 32.3511 483.244 30.8559 482.775 30.1104C482.153 29.1649 480.834 28.6922 478.837 28.6922H477.313V25.5144L495.026 24.142V78.663C495.026 81.4619 495.774 83.0404 497.28 83.3777C497.873 83.5318 498.756 83.6089 499.895 83.6089V87.0304H478.971V83.6089ZM451.18 67.7593C452.811 66.3744 455.737 65.2749 459.962 64.4419V70.7122C459.962 74.2607 459.416 76.9533 458.356 78.7922C456.986 81.2536 455.197 82.4698 452.969 82.4698C451.649 82.4698 450.535 81.9034 449.629 80.7372C448.721 79.5689 448.258 77.8863 448.258 75.6601C448.256 72.0325 449.241 69.4169 451.18 67.7593ZM443.658 50.9975C444.008 50.0708 444.916 49.1837 446.393 48.3424C448.092 47.3856 450.011 46.8862 451.961 46.893C457.296 46.893 459.964 49.3336 459.964 54.2274V60.96C452.065 62.499 446.418 64.2753 442.975 66.2828C438.496 68.8713 436.243 72.4989 436.243 77.1616C436.243 79.9063 437.084 82.3157 438.781 84.3607C440.995 87.0054 444.275 88.3215 448.625 88.3215C451.099 88.3215 453.467 87.6218 455.72 86.1974C457.819 84.9 459.398 83.2445 460.46 81.2224V83.2944C460.52 85.0562 460.52 86.3244 460.46 87.0241H475.774V83.6047H475.191C472.732 83.6047 471.503 81.9179 471.503 78.5277V58.0987C471.503 48.2403 465.92 43.3049 454.787 43.3049C450.281 43.3049 446.501 44.2566 443.431 46.1599C440.362 48.0571 438.833 50.5414 438.833 53.6318C438.833 55.7601 439.533 57.4448 440.959 58.6693C442.148 59.6881 443.667 60.2383 445.233 60.2166C447.032 60.2166 448.521 59.6522 449.712 58.5256C450.916 57.4115 451.522 56.1516 451.522 54.773C451.522 51.3557 449.695 49.6397 446.086 49.6397C444.714 49.6397 443.602 50.0791 442.769 50.9475L443.665 51.2953C443.673 51.1016 443.673 50.9975 443.658 50.9975ZM147.201 60.6851C154.181 60.6851 159.76 59.319 163.956 56.6056C168.696 53.5714 171.053 49.09 171.053 43.1383C171.053 36.9554 168.658 32.3511 163.867 29.3149C159.789 26.718 154.273 25.4165 147.305 25.4165H124.1V28.7776C126.857 28.7776 128.567 28.9775 129.227 29.3607C130.353 29.9958 130.922 31.7243 130.922 34.5606V78.3528C130.922 80.4998 130.455 81.9533 129.51 82.703C128.733 83.2986 127.284 83.5839 125.145 83.5839H124.098V87.0054H151.707V83.5839H148.833C146.62 83.5839 145.116 83.2466 144.314 82.5219C143.513 81.8221 143.111 80.4498 143.111 78.3528V60.6851H147.201ZM158.388 43.1841C158.388 52.2491 154.685 56.7805 147.303 56.7805H143.419V28.9983H147.303C154.685 28.9983 158.388 33.7318 158.388 43.1841ZM188.623 52.7468C190.228 46.4473 193.633 43.2945 198.864 43.2945C200.78 43.2945 202.309 43.813 203.463 44.8605C204.614 45.908 205.197 47.2886 205.197 49.0171C205.207 50.4914 204.687 51.9204 203.733 53.0446C202.619 54.3399 201.222 54.9979 199.537 54.9979C197.932 54.9979 196.651 54.5002 195.705 53.5173C194.799 52.6551 194.398 51.5952 194.475 50.3374C194.475 50.2207 194.539 49.9229 194.643 49.4502C193.063 51.439 191.822 54.8438 190.889 59.6356C190.137 63.4756 189.749 66.9971 189.749 70.1708V78.6381C189.749 80.631 189.983 81.9263 190.422 82.5219C190.966 83.2466 192.442 83.5839 194.824 83.5839H196.261V87.0054H173.034V83.5839H173.902C175.495 83.5839 176.647 83.2986 177.346 82.7301C178.044 82.1845 178.381 80.7872 178.381 78.6381V60.1728C178.381 53.8088 178.213 50.2665 177.863 49.5606C177.371 48.4152 176.413 47.8446 174.989 47.8446H173.773V44.4336H188.327L188.623 52.7468ZM236.83 80.2166C236.649 80.3228 236.468 80.4769 236.234 80.6081L236.83 80.2728C236.105 82.2657 234.77 84.0525 232.802 85.581C230.573 87.3639 227.798 88.3257 224.943 88.3049C220.022 88.3049 216.553 86.9575 214.533 84.2378C212.927 82.1116 212.111 78.7734 212.111 74.2399V56.4057C212.111 52.3907 211.93 50.0479 211.58 49.3753C211.089 48.4756 209.935 48.0092 208.098 48.0092H207.736V44.4419H223.819V75.7434C223.819 79.8855 225.541 81.9596 228.985 81.9596C231.834 81.9596 233.762 79.9917 234.76 75.9767C235.199 74.3711 235.408 72.1699 235.408 69.3711V56.4223C235.408 51.9929 235.201 49.5523 234.772 49.0795C234.152 48.3736 232.857 48.005 230.874 48.005H229.658V44.4377H247.217V76.3869C247.217 79.8834 247.425 81.9284 247.852 82.474C248.396 83.2236 249.445 83.586 250.986 83.586H252.086V87.0054H236.497L236.236 80.1437L236.497 80.3228L236.574 80.5081L236.83 80.2166ZM271.365 43.4611C265.628 43.4611 260.995 45.9225 257.471 50.8226C254.364 55.1874 252.811 60.1728 252.811 65.7913C252.811 71.9554 253.95 76.9533 256.28 80.8142C259.233 85.8101 263.802 88.2986 270.008 88.2986C273.192 88.2986 275.962 87.3136 278.321 85.3457C280.16 83.7672 281.363 82.0304 281.922 80.1395L281.624 80.3727L281.274 80.0375L281.572 87.0054H296.838V83.6339H296.074C294.327 83.6339 293.171 83.1674 292.617 82.2615C292.178 81.6139 291.967 80.3977 291.967 78.661V24.1233L274.1 25.4894V28.6756H275.266C277.519 28.6756 278.969 29.2899 279.633 30.5081C280.022 31.2266 280.256 32.8509 280.333 35.3894C280.333 42.2386 280.449 46.2453 280.682 47.3865C279.027 44.7626 275.907 43.4611 271.365 43.4611ZM280.426 61.1828V69.8084C280.426 72.1637 280.247 74.1316 279.897 75.6851C278.835 80.3998 276.582 82.7801 273.165 82.7801C268.373 82.7801 265.966 77.1074 265.966 65.7913C265.966 60.7559 266.253 57.045 266.792 54.6418C267.89 50 270.079 47.678 273.344 47.678C278.061 47.676 280.426 52.1824 280.426 61.1828ZM309.845 64.7439H335.757C335.716 58.3424 334.281 53.2903 331.459 49.6002C328.275 45.3977 323.56 43.2945 317.319 43.2945C311.582 43.2945 306.832 45.3603 303.048 49.4835C299.241 53.7318 297.353 59.1441 297.353 65.7143C297.353 72.474 299.01 77.8342 302.348 81.7992C305.924 86.1516 311.009 88.2986 317.6 88.2986C322.715 88.2986 327.026 86.4098 330.522 82.653C333.581 79.3628 335.17 75.8413 335.289 72.0616H330.978C330.936 74.8563 329.877 77.476 327.794 79.9104C325.435 82.7072 322.627 84.0795 319.35 84.0795C314.677 84.0795 311.724 80.7393 310.508 74.0566C310.07 71.8263 309.845 68.7443 309.845 64.7439ZM317.192 46.5431C321.67 46.5431 323.923 51.4182 323.923 61.1683H309.845C309.887 59.6481 309.952 58.384 310.029 57.3698C310.622 50.1562 313.009 46.5431 317.192 46.5431ZM352.605 49.975C353.577 48.0008 355.131 46.4015 357.251 45.1583C359.377 43.915 361.73 43.2924 364.333 43.2924C372.867 43.2924 377.136 47.9279 377.136 57.2053V76.5931C377.136 78.7401 377.153 80.0333 377.188 80.4769C377.342 82.5468 378.665 83.5818 381.111 83.5818H382.005V87.0012H365.43V55.7122C365.43 53.5485 365.174 51.995 364.654 51.0496C363.906 49.671 362.494 48.9775 360.408 48.9775C358.442 48.9775 356.861 49.9354 355.67 51.8659C354.495 53.8026 353.896 56.6493 353.896 60.4186V76.4619C353.896 80.0625 354.062 82.0804 354.425 82.4698C355.137 83.2216 356.405 83.5839 358.219 83.5839H358.931V87.0054H337.334V83.5839H338.488C340.691 83.5839 341.867 82.551 342.036 80.4769C342.113 79.9875 342.153 78.586 342.153 76.2807V54.9854C342.153 51.6764 341.907 49.6626 341.415 48.9379C340.939 48.207 339.899 47.8446 338.323 47.8446H337.34V44.4336H352.605V49.975ZM398.071 88.2965C390.989 88.2965 387.428 84.2794 387.428 76.2536V48.0008H379.814V44.5877H380.982C385.151 44.5877 388.671 42.2449 391.574 37.5302C394.058 33.5756 395.331 29.5273 395.408 25.4165H398.981V44.5877H407.111V48.0008H398.981V77.678C398.981 81.1766 400.06 82.9363 402.219 82.9363C404.123 82.9363 405.355 81.2765 405.909 77.9613C406.103 76.7701 406.207 74.3857 406.207 70.8392H410.195C410.195 76.6951 409.664 80.7039 408.615 82.803C406.847 86.4827 403.325 88.2965 398.071 88.2965ZM53.3751 3.35902C23.3792 3.35902 3.78323 28.0133 3.78323 50.9642C3.78323 64.1462 6.99439 70.7101 10.5158 77.0012C14.9577 65.0666 23.8353 41.3224 23.8353 41.3224C23.8353 41.3224 27.9711 39.1858 27.9711 39.4981L33.9332 24.3419L37.767 22.3532L42.5192 12.247L52.9107 13.9317L74.0415 25.7143L97.7628 32.3011C91.6508 16.691 74.3517 3.35902 53.3751 3.35902ZM53.0627 105C40.0556 105 24.1414 100.416 12.6566 86.3286H93.3334C83.9852 98.4236 67.9273 105 53.0627 105ZM68.9915 83.8942H61.6362L75.2847 66.893L76.657 69.4939L68.9915 83.8942ZM76.1906 29.8459L52.7795 16.2307L44.2018 14.696V20.9704L50.7866 27.1012L41.5987 26.3244C41.5987 26.3244 41.8965 26.7909 49.5433 34.9021L84.4517 40.7164L90.5637 44.698L74.662 45.4623L68.0835 69.4939L46.4925 83.8942H32.4046L37.1568 74.546L36.3863 74.2378L23.677 83.8984H20.622L33.6291 65.6643C34.2435 60.4665 33.9332 62.7613 34.7037 53.4173L32.7149 50.6685L27.5088 70.8684L16.6383 83.8963H13.879L20.3076 74.8542L29.3393 47.1533L27.0402 48.2153L23.0585 59.2399L20.3076 60.7663C20.3076 60.7663 13.879 76.3828 10.5117 84.0212C5.61997 77.0075 0.103516 67.5135 0.103516 50.9663C0.103516 26.1683 21.3842 0 53.3751 0C84.1414 0 100.535 24.4919 103.279 37.1887L76.1906 29.8459ZM91.3405 65.6622L86.8861 69.4939L78.0294 83.8942H72.2026L78.0294 73.611L82.6129 69.8042L89.2164 51.2807L96.2343 54.1878L91.3405 65.6622ZM95.4825 83.8942H83.6999L94.8619 66.2828L98.2293 54.798L105.272 57.2511C104.652 66.1287 101.751 75.1416 95.4825 83.8942ZM81.0844 62.7613L77.5629 63.3861L78.4959 56.3328L77.5629 54.9542L78.4959 46.9908L87.5088 50.6685L81.0844 62.7613ZM413.023 83.6089H414.15C415.832 83.6089 416.892 83.0633 417.319 82.0304C417.592 81.2786 417.719 79.4127 417.719 76.4098V54.1503C417.719 51.1329 417.432 49.3648 416.809 48.8276C416.216 48.2965 415.32 48.0321 414.146 48.0321H413.019V44.6189H429.268V76.4077C429.268 79.9063 429.477 81.9513 429.918 82.5448C430.462 83.2695 431.472 83.6068 432.998 83.6068H434.166V87.0283H413.023V83.6089ZM416.118 32.6947C416.118 30.7726 416.792 29.1462 418.154 27.7926C418.794 27.1386 419.56 26.6217 420.405 26.2734C421.251 25.925 422.159 25.7525 423.073 25.7663C423.992 25.7531 424.903 25.9257 425.753 26.2739C426.603 26.6222 427.374 27.1387 428.019 27.7926C429.406 29.1462 430.093 30.7705 430.093 32.6947C430.093 34.6231 429.406 36.2745 428.019 37.6531C426.649 39.0504 425.004 39.7439 423.073 39.7439C421.145 39.7439 419.514 39.0504 418.154 37.6531C417.496 37.0079 416.976 36.2357 416.626 35.3833C416.276 34.5308 416.103 33.6161 416.118 32.6947Z" fill="#007AC1"/>
</g>
<defs>
<clipPath id="clip0_34_1419">
<rect width="500" height="105" fill="white"/>
</clipPath>
</defs>
</svg>
