<svg width="500" height="44" viewBox="0 0 500 44" fill="none" xmlns="http://www.w3.org/2000/svg">
<path d="M26.8487 20.6456C32.5505 20.6456 35.4327 18.4526 35.4327 12.6256C35.4327 7.23711 33.2083 4.38623 27.6006 4.38623C26.974 4.38623 24.969 4.32358 24.781 5.0128C24.5931 5.70202 24.5931 9.64939 24.5931 10.5266V20.6143L26.8487 20.6456ZM69.0166 25.7835L63.8161 12.187L58.271 25.7835H69.0166ZM117.325 4.04162C115.069 4.3549 114.192 5.98398 113.064 7.98899L103.039 24.8436V31.1719C103.039 36.2471 102.914 38.8161 108.804 38.6281V40.7271H67.6695V38.6594C69.4239 38.4088 72.5567 38.5341 72.5567 36.0278C72.5567 35.088 71.8048 33.0203 71.4289 32.1431L70.1758 28.7597H57.1119L56.3913 30.4827C55.8274 31.9865 54.9502 33.8662 54.9502 35.4326C54.9502 38.3148 57.6444 38.5028 59.8374 38.6907V40.8211H40.1006L31.7046 28.9163C29.7622 26.2221 27.1933 23.2146 25.5642 23.3399C25.251 23.3399 24.9377 23.4025 24.6244 23.4025V31.1719C24.6244 35.9965 24.5617 38.8161 30.2635 38.6281V40.7271H10.0254V38.5968C15.6645 38.7847 15.6018 36.0278 15.6018 31.1406V11.2471C15.6018 6.42257 15.7271 3.60302 10.0254 3.79099V1.66067C13.4088 1.72332 16.7297 1.84864 20.0505 1.91129C23.2459 1.84864 26.3788 1.72332 29.6369 1.66067C32.4565 1.78598 36.7798 1.97395 39.4114 3.10177C43.2334 4.66819 45.2384 7.80102 45.2384 11.9364C45.2384 17.1995 40.7898 20.5203 35.9652 21.2722L44.0166 31.3286C45.1846 33.0777 46.4612 34.7518 47.8387 36.3411C48.3399 36.8424 49.1545 37.5316 50.157 36.3411C51.8487 34.3361 52.8512 31.3912 53.7911 29.1983L65.5078 1.06543H68.3274L80.4828 31.4539C81.1093 33.0203 82.2998 35.9652 83.4903 37.1557C84.6347 37.9619 85.9784 38.4387 87.375 38.5341H88.5655C94.1419 38.5341 93.954 36.0905 94.0166 31.078V25.9401L83.8036 7.76969C82.2372 5.13811 81.9239 4.44889 78.8537 3.75967V1.66067C81.7986 1.72332 84.8061 1.84864 87.751 1.91129C91.1344 1.84864 94.4552 1.72332 97.8387 1.66067V3.75967C96.2723 3.88498 93.3901 4.07295 93.3901 6.32859C93.3901 7.51906 94.8938 10.1506 95.5204 11.2158L101.41 21.9301L107.112 12.4063C107.864 10.9652 109.368 8.27094 109.368 6.70453C109.368 4.13561 107.112 3.75967 105.044 3.75967V1.66067H130.483L142.074 29.2296L152.726 1.66067C154.982 1.72332 157.237 1.84864 159.43 1.91129C161.811 1.84864 164.129 1.72332 166.886 1.66067V3.75967C161.185 3.5717 161.373 6.4539 161.31 11.3411V29.8875C161.238 31.7986 161.385 33.7117 161.748 35.5892C162.375 38.0955 164.568 38.2835 166.824 38.6594V40.7897H146.836V38.6594C149.092 38.2835 151.347 38.0329 151.911 35.5892C152.246 33.7079 152.393 31.7979 152.35 29.8875V11.2471H152.256L140.445 40.7271H137.626L125.314 10.8085H125.188V28.9163C125.188 30.796 125.188 34.6181 126.065 36.2471C127.005 38.0015 129.01 38.4401 130.827 38.6281V40.7271H116.73V38.5968C118.985 38.2208 121.241 37.9702 121.805 35.5266C122.14 33.6453 122.287 31.7353 122.243 29.8248V6.42257C121.744 5.59768 121.017 4.93431 120.151 4.51201C119.284 4.0897 118.314 3.92638 117.356 4.04162H117.325Z" fill="#002949"/>
<path d="M167.701 21.3032C167.701 8.64657 177.789 1.19043 189.694 1.19043C201.598 1.19043 211.623 8.77188 211.623 21.3032C211.623 33.8345 201.473 41.416 189.506 41.416C177.538 41.416 167.701 33.7406 167.701 21.3032ZM177.914 20.9273C177.914 28.5087 179.982 38.7218 189.506 38.7218C199.217 38.7218 201.41 29.8245 201.41 21.6791C201.41 13.7844 199.343 3.88467 189.506 3.88467C180.045 3.82201 177.914 13.3458 177.914 20.9273Z" fill="#002949"/>
<path d="M255.106 3.85298C249.78 3.91564 249.842 5.92065 249.842 13.1888V41.5723H246.96L220.143 11.0585V29.2916C220.143 33.8029 220.143 38.3768 225.845 38.6274V40.7264H211.935V38.5961C216.822 38.0948 217.198 35.7139 217.198 31.5159V7.86301C215.319 5.23143 214.567 4.16627 211.309 3.85298V1.72266C213.188 1.78531 215.068 1.91063 216.948 1.97328C219.203 1.91063 221.396 1.78531 223.652 1.72266L246.96 28.6024V12.8755C246.96 8.36426 246.96 4.04095 241.321 3.85298V1.72266H274.78C280.544 1.72266 285.933 2.85048 290.444 6.67253C295.143 10.7452 297.148 16.1337 297.148 22.2114C297.148 27.6625 295.456 32.5497 291.384 36.3091C287.186 40.0685 281.484 41.0084 275.97 40.8204C272.837 40.7577 256.923 40.8204 256.923 40.8204V38.6901C262.624 38.878 262.499 36.1212 262.499 31.2339V11.2465C262.499 6.54722 262.624 3.85298 256.923 3.85298H255.106ZM270.331 27.7252C270.331 29.4796 270.331 33.6149 270.895 35.1813C271.647 37.249 273.589 38.0635 275.657 38.0635C284.805 38.0635 285.682 28.9783 285.682 21.8354C285.682 17.8881 285.118 13.1262 283.301 9.55474C281.171 5.54471 277.098 4.41689 272.837 4.41689C272.336 4.41689 270.895 4.54221 270.456 4.9808C270.247 5.43067 270.161 5.92784 270.206 6.4219V27.7252H270.331Z" fill="#002949"/>
<path d="M318.954 26.8481C318.676 26.942 318.421 27.0912 318.202 27.2867C317.262 28.0386 316.385 31.0461 316.886 34.179C317.188 35.8774 318.129 37.3957 319.516 38.4214C320.903 39.4471 322.63 39.902 324.342 39.6927C330.295 38.8782 329.23 34.4296 329.23 21.8356V11.3719C329.23 6.48472 329.042 3.66517 323.277 3.79048V1.66016C326.222 1.72281 329.606 1.84813 332.613 1.91078C336.31 1.84813 340.508 1.72281 344.267 1.66016V3.75915C339.38 3.88447 338.691 4.699 338.691 11.3406V25.5637C338.691 35.3381 336.122 40.4759 326.786 42.105C319.957 43.2955 310.746 41.7917 308.177 35.0248C306.924 31.704 307.425 28.0699 307.425 26.5662L316.134 24.8744L318.515 24.4358L318.954 26.8168" fill="#002949"/>
<path d="M361.122 25.7834L355.922 12.1869L350.345 25.7834H361.122ZM462.313 28.3523H464.631C466.26 33.7408 469.017 38.6907 475.533 38.6907C478.98 38.6907 482.3 36.435 482.3 32.8009C482.3 27.2872 476.599 25.7834 472.463 24.029C467.137 21.7107 462.814 18.7659 462.814 12.2496C462.814 4.98139 468.391 1.09668 475.22 1.09668C478.416 1.09668 481.736 1.7859 484.055 3.97889L484.807 1.66059H487.376L487.751 12.3122H485.183C484.117 7.73828 480.734 3.75959 475.565 3.75959C472.683 3.75959 469.738 5.38866 469.738 8.58415C469.738 13.0328 474.249 14.2232 477.57 15.7897C483.898 18.4839 489.85 21.3034 489.85 29.1982C489.85 37.0929 483.24 41.3536 476.035 41.3536C472.275 41.3536 468.391 40.1004 465.759 37.3435L464.913 40.727H406.016V38.5967C408.272 38.2207 410.527 37.9701 411.091 35.5265C411.426 33.6452 411.573 31.7352 411.53 29.8247V11.2471H411.404L399.594 40.727H396.774L384.368 10.7771H384.243V28.8849C384.243 30.7646 384.243 34.5867 385.12 36.2157C386.06 37.9701 388.065 38.4087 389.819 38.5967V40.727H359.65V38.5967C361.404 38.3461 364.537 38.4714 364.537 35.9651C364.537 35.0253 363.785 32.9576 363.409 32.0804L362.156 28.6969H349.124L348.434 30.3887C347.933 31.8924 346.993 33.7721 346.993 35.3385C346.993 38.2207 349.688 38.4087 351.881 38.5967V40.727H338.723V38.6593C341.104 38.2207 342.545 36.2784 343.673 34.1481C344.487 32.519 345.176 30.8899 345.803 29.2608L357.52 1.12801H360.339L372.495 31.5165C373.121 33.0829 374.312 36.0904 375.502 37.2182C375.919 37.604 376.409 37.9023 376.943 38.0954C377.427 38.2835 377.963 38.2835 378.447 38.0954C379.009 37.9108 379.513 37.5823 379.909 37.1427C380.304 36.703 380.578 36.1674 380.703 35.5892C381.038 33.7078 381.185 31.7978 381.141 29.8874V6.35984C380.076 4.29217 377.758 3.91623 375.627 3.72826V1.59793C377.758 1.66059 379.951 1.7859 382.081 1.84856C384.587 1.7859 386.968 1.66059 389.475 1.59793L401.066 29.1669L411.718 1.59793H459.149L459.65 11.9989H457.081C456.079 6.17187 452.695 4.29217 447.056 4.29217C446.367 4.29217 442.545 4.29217 442.231 4.91873C442.043 5.23202 442.043 7.80094 442.043 8.30219V19.2671C446.805 19.2671 449.876 18.3899 450.126 12.9388H452.507C452.444 15.633 452.319 18.3899 452.257 21.0841C452.319 23.5278 452.444 25.9714 452.507 28.415H450.126C448.998 22.9638 447.495 22.0867 442.043 22.0867V28.9162C442.043 34.4927 441.856 38.0014 448.873 38.0014H451.818C458.084 37.8761 460.465 35.8085 461.968 29.3548C462.118 29.0338 462.234 28.6977 462.313 28.3523ZM433.115 11.2471C433.115 7.425 433.178 4.91873 430.483 4.1042C429.681 3.9279 428.861 3.84382 428.04 3.85357H425.439C424.639 3.84055 423.839 3.92471 423.059 4.1042C420.364 4.91873 420.427 7.48766 420.427 11.2471V31.1719C420.427 34.9939 420.364 37.5002 423.059 38.3147C423.861 38.491 424.681 38.5751 425.502 38.5653H428.071C428.872 38.5784 429.671 38.4942 430.452 38.3147C433.146 37.5002 433.084 34.9313 433.084 31.1719L433.115 11.2471Z" fill="#002949"/>
</svg>
