<svg width="500" height="85" viewBox="0 0 500 85" fill="none" xmlns="http://www.w3.org/2000/svg">
<g clip-path="url(#clip0_34_1415)">
<path fill-rule="evenodd" clip-rule="evenodd" d="M0 82.5027L31.2125 40.3359L50.2101 82.5027H0ZM32.3529 38.9553L47.9892 17.5868L55.9724 82.5328L32.3529 38.9553ZM60.8343 -0.0302734L72.7191 15.9961L60.8343 82.5027L49.0096 15.9361L60.8343 -0.0302734ZM66.0264 82.5027L73.7695 17.4667L89.5858 38.8053L66.0264 82.5027ZM71.9088 82.5027L90.6062 40.1858L121.939 82.5027H71.9088Z" fill="#88BB00"/>
<path fill-rule="evenodd" clip-rule="evenodd" d="M151.62 33.3127C151.62 28.3307 150.509 26.4099 143.967 25.1794V23.4688H172.718C189.465 23.4688 196.218 30.0714 196.218 38.3547C196.218 44.4471 192.676 50.0294 184.003 52.4604V52.6704C190.725 54.171 197.238 73.1386 202.73 78.4808C204.261 80.0114 205.611 80.6116 208.192 81.0318V82.7725H190.725C184.093 75.0594 179.771 61.7641 175.119 57.2022C172.418 54.5912 170.347 54.4712 164.975 54.4712V72.7185C164.975 78.0006 167.136 80.2215 172.718 81.0318V82.7725H143.967V81.0318C148.949 80.6116 151.62 78.1806 151.62 73.4387V33.3127ZM164.975 51.1398C176.44 51.9501 181.722 48.4087 181.722 38.5948C181.722 30.9718 177.37 26.8301 169.117 26.8301H164.975V51.1398Z" fill="#558800"/>
<path fill-rule="evenodd" clip-rule="evenodd" d="M247.809 66.9261H246.308C245.738 62.9345 243.637 61.0437 239.826 61.0437H231.572V74.5191C231.572 78.6908 233.343 80.1614 237.995 80.1614H240.696C246.458 80.1614 249.009 76.0197 250.54 71.638H251.891L251.02 82.7424H215.336V81.4219C220.558 80.3414 221.278 78.7508 221.278 74.0689V44.5971C221.278 40.6055 220.288 39.165 215.336 38.2346V36.9141H250.45V47.0881H249.099C247.569 41.2058 245.828 39.4951 240.636 39.4951H231.572V58.4627H239.826C243.577 58.4627 245.348 56.9021 246.308 52.7304H247.809V66.9261Z" fill="#558800"/>
<path fill-rule="evenodd" clip-rule="evenodd" d="M304.441 80.6421C299.969 82.773 293.336 83.9434 286.283 83.9434C269.417 83.9434 260.863 71.9386 260.863 60.1739C260.863 46.1583 271.638 35.7441 286.283 35.7441C293.396 35.7441 296.608 38.4752 299.639 38.4752C300.929 38.4752 301.8 38.0851 303 36.9146H304.441V49.7597H303C300.209 42.797 293.967 38.3252 286.914 38.3252C277.34 38.3252 272.058 46.7886 272.058 60.9842C272.058 75.6301 278.45 81.3624 287.094 81.3624C291.325 81.3624 294.117 80.2519 294.117 76.5004V69.6577C294.117 66.6865 292.916 64.7357 289.345 64.0155V62.6949H309.003V64.0155C305.551 64.9758 304.441 66.6865 304.441 70.9182V80.6421Z" fill="#558800"/>
<path fill-rule="evenodd" clip-rule="evenodd" d="M334.514 74.9993C334.514 79.0809 335.564 80.2514 340.426 81.4219V82.7424H318.277V81.4219C324.04 80.0113 324.19 78.4507 324.19 73.9789V44.6572C324.19 40.6055 323.139 39.4051 318.277 38.2346V36.9141H340.426V38.2346C334.814 39.4951 334.514 41.2058 334.514 45.6175V74.9993Z" fill="#558800"/>
<path fill-rule="evenodd" clip-rule="evenodd" d="M376.621 83.9434C362.545 83.9434 351.141 73.1691 351.141 59.8438C351.141 46.5184 362.545 35.7441 376.621 35.7441C390.696 35.7441 402.101 46.5184 402.101 59.8438C402.101 73.1691 390.696 83.9434 376.621 83.9434ZM376.591 38.3252C367.377 38.3252 362.335 45.7682 362.335 60.264C362.335 71.3084 366.027 81.3624 376.591 81.3624C384.424 81.3624 390.907 75.33 390.907 60.1739C390.907 47.3288 386.825 38.3252 376.591 38.3252Z" fill="#558800"/>
<path fill-rule="evenodd" clip-rule="evenodd" d="M454.8 83.3126H453.27L419.596 46.0677V74.1289C419.596 79.171 421.127 80.5815 426.469 81.4219V82.7724H410.322V81.4219C415.364 80.6416 416.565 77.9705 416.475 73.4987V42.7964C412.903 39.165 412.153 38.6247 410.232 38.2346V36.9141H424.308L451.679 67.6163V46.9981C451.679 41.4459 450.719 39.345 445.767 38.2346V36.9141H461.583V38.2346C456.241 38.5647 454.8 41.686 454.8 45.7676V83.3126Z" fill="#558800"/>
<path fill-rule="evenodd" clip-rule="evenodd" d="M497.089 47.809H495.738C493.997 42.4668 488.955 38.3252 484.153 38.3252C479.922 38.3252 476.47 41.0563 476.47 44.5076C476.47 46.2183 477.341 47.959 478.781 49.3696C481.122 51.6505 491.837 57.2027 494.718 60.0239C498.229 63.4752 499.82 66.6265 499.82 70.6181C499.82 80.7321 490.546 83.9434 484.784 83.9434C479.172 83.9434 475.75 82.1427 473.349 82.1427C472.329 82.1427 471.428 82.6829 470.948 83.6133H469.598V69.8378H470.948C472.329 76.6505 476.801 81.3624 483.523 81.3624C488.535 81.3624 492.137 78.6013 492.137 74.8498C492.137 73.3492 491.506 71.3084 489.736 69.5977C486.134 66.0563 477.911 62.6949 474.009 58.8534C471.188 56.1223 469.838 52.7309 469.838 49.1295C469.838 41.2063 475.9 35.7441 484.544 35.7441C486.314 35.7441 487.905 36.0443 489.346 36.3444C490.786 36.6745 492.137 36.9746 493.337 36.9746C494.057 36.9746 494.868 36.5845 495.738 35.7441H497.089V47.809Z" fill="#558800"/>
</g>
<defs>
<clipPath id="clip0_34_1415">
<rect width="500" height="84.0336" fill="white"/>
</clipPath>
</defs>
</svg>
