<svg width="500" height="109" viewBox="0 0 500 109" fill="none" xmlns="http://www.w3.org/2000/svg">
<g clip-path="url(#clip0_34_1416)">
<mask id="mask0_34_1416" style="mask-type:luminance" maskUnits="userSpaceOnUse" x="0" y="0" width="500" height="109">
<path d="M500 0H0V108.529H500V0Z" fill="white"/>
</mask>
<g mask="url(#mask0_34_1416)">
<path d="M56.9625 85.504C56.9625 88.8438 56.412 91.7096 55.3109 94.1123C54.2098 96.5151 52.7914 98.5861 51.0559 100.322C48.3214 103.056 44.9998 105.01 41.0948 106.174C37.1899 107.34 33.037 107.924 28.6326 107.924C24.8261 107.924 21.0743 107.373 17.3699 106.272C13.6655 105.171 10.3439 103.286 7.40881 100.617C5.27222 98.6809 3.50387 96.2927 2.10378 93.4597C0.700045 90.6267 0 87.5056 0 84.1039H13.217C13.217 85.843 13.5634 87.4583 14.2671 88.9568C14.9671 90.459 15.8495 91.746 16.9214 92.8107C18.4528 94.353 20.305 95.3629 22.4744 95.8697C24.6438 96.3692 26.7621 96.6172 28.8331 96.6172C31.3015 96.6172 33.6386 96.3364 35.8409 95.7676C38.0431 95.2025 39.8114 94.2181 41.1459 92.8107C41.948 91.9502 42.6116 91.0314 43.1476 90.0579C43.6835 89.0917 43.9461 87.7426 43.9461 86.0071C43.9461 83.4075 43.1002 81.4532 41.3975 80.1515C39.6948 78.8535 37.7441 78.0004 35.5382 77.5993C33.1355 77.1326 30.4994 76.7971 27.6299 76.6003C24.7605 76.4034 22.1572 76.0935 19.8237 75.6924C17.3516 75.2913 15.0327 74.5913 12.867 73.5923C10.6976 72.5896 8.79432 71.2734 7.15723 69.6363C5.52379 68.0028 4.22215 66.0339 3.25594 63.7296C2.28609 61.429 1.80116 58.8111 1.80116 55.8724C1.80116 53.0685 2.36994 50.5017 3.50387 48.1646C4.6378 45.8274 6.13998 43.7273 8.01041 41.8569C10.3439 39.5197 13.3483 37.6858 17.0198 36.3513C20.6914 35.0168 24.6292 34.3496 28.8331 34.3496C32.636 34.3496 36.2893 34.933 39.7932 36.0997C43.2971 37.2701 46.254 38.9874 48.6531 41.2553C50.7897 43.257 52.507 45.5285 53.8087 48.0625C55.1103 50.6001 55.7921 53.3675 55.8614 56.3719H42.6481C42.5788 55.1067 42.2616 53.8524 41.6964 52.6201C41.1277 51.384 40.4094 50.3012 39.5453 49.3641C38.4077 48.1646 36.8071 47.2312 34.7397 46.5603C32.6688 45.8967 30.6671 45.5613 28.731 45.5613C26.7293 45.5613 24.6766 45.8274 22.5765 46.3598C20.4727 46.8957 18.6861 47.9312 17.2204 49.4662C16.4839 50.2647 15.9005 51.1325 15.4666 52.0695C15.0327 53.0029 14.8176 54.1368 14.8176 55.4713C14.8176 57.8084 15.4849 59.5913 16.8193 60.8274C18.1538 62.0634 19.8893 62.8473 22.0259 63.1791C24.2938 63.5182 26.846 63.8171 29.6826 64.0797C32.5193 64.3495 35.1044 64.6484 37.4415 64.9802C40.1104 65.3813 42.6298 66.1032 44.9998 67.1351C47.3697 68.1705 49.437 69.5378 51.209 71.2369C52.9737 72.9432 54.3775 74.9923 55.413 77.3951C56.4411 79.7979 56.9625 82.4996 56.9625 85.504Z" fill="#D6002A"/>
</g>
<mask id="mask1_34_1416" style="mask-type:luminance" maskUnits="userSpaceOnUse" x="0" y="0" width="500" height="109">
<path d="M500 0H0V108.529H500V0Z" fill="white"/>
</mask>
<g mask="url(#mask1_34_1416)">
<path d="M112.85 106.728L107.848 101.12C104.975 103.658 101.821 105.524 98.3864 106.728C94.9482 107.927 91.3933 108.529 87.7217 108.529C84.5861 108.529 81.5817 108.029 78.7123 107.027C75.8428 106.031 73.3416 104.609 71.205 102.772C69.0721 100.938 67.3693 98.6843 66.1005 96.0154C64.8317 93.3465 64.1973 90.3385 64.1973 87.0023C64.1973 82.5979 65.3494 78.8315 67.6537 75.6886C69.9544 72.5529 73.0098 69.8184 76.8127 67.4813C75.6751 66.278 74.6433 65.0967 73.7099 63.9227C72.7728 62.7596 71.9743 61.571 71.3071 60.3678C70.6362 59.1682 70.1221 57.8994 69.7539 56.5649C69.3893 55.2305 69.2033 53.7283 69.2033 52.062C69.2033 49.2582 69.7211 46.7534 70.7565 44.5511C71.7884 42.3489 73.1739 40.4639 74.9094 38.8961C76.6449 37.3283 78.6977 36.1433 81.0676 35.3412C83.4339 34.5427 85.9534 34.1416 88.6259 34.1416C91.2292 34.1416 93.7122 34.5244 96.0821 35.2938C98.4521 36.0594 100.538 37.1934 102.342 38.6955C104.144 40.1977 105.576 42.0353 106.645 44.2011C107.713 46.3705 108.249 48.8571 108.249 51.661C108.249 53.9981 107.914 56.08 107.243 57.9176C106.579 59.7516 105.642 61.4215 104.443 62.9237C103.243 64.4222 101.821 65.8077 100.188 67.0765C98.5505 68.349 96.7676 69.5449 94.8315 70.6789L107.144 84.0964C107.746 82.9625 108.162 81.6426 108.395 80.1404C108.628 78.6382 108.811 77.0558 108.945 75.3859C109.08 73.7853 109.15 72.2175 109.15 70.6789V66.6864H127.467V76.5964H119.26C119.122 79.4002 118.757 82.1676 118.159 84.9022C117.557 87.644 116.489 90.1744 114.954 92.5152L128.065 106.728H112.85ZM84.1194 75.2911C82.9198 76.0276 81.8187 76.7313 80.816 77.3949C79.817 78.0621 78.9274 78.8351 78.1617 79.6992C77.396 80.567 76.7944 81.5478 76.3606 82.6525C75.9267 83.7573 75.7115 85.0371 75.7115 86.5101C75.7115 88.3112 76.0616 89.9119 76.7616 91.3156C77.4653 92.7157 78.3987 93.8824 79.5654 94.8195C80.7322 95.7529 82.0812 96.4493 83.6199 96.9196C85.1549 97.3863 86.7555 97.616 88.4254 97.616C90.5583 97.616 92.6949 97.317 94.8315 96.7154C96.9681 96.1138 98.8021 94.9507 100.337 93.2116L84.1194 75.2911ZM96.5342 52.1678C96.5342 49.6994 95.7832 47.7961 94.281 46.4617C92.7824 45.1272 90.8938 44.46 88.6259 44.46C86.5586 44.46 84.721 45.0762 83.1204 46.3122C81.5197 47.5482 80.7176 49.4004 80.7176 51.8688C80.7176 53.0027 80.9327 54.071 81.3666 55.07C81.8005 56.0727 82.3328 57.0243 82.9709 57.9249C83.6016 58.8255 84.3199 59.6714 85.1221 60.4772C85.9205 61.2756 86.6899 62.045 87.4264 62.7778C88.491 62.1799 89.5739 61.56 90.6787 60.9256C91.7761 60.2948 92.7606 59.5766 93.6283 58.7708C94.4961 57.9687 95.1961 57.0353 95.7321 55.967C96.2681 54.906 96.5342 53.6371 96.5342 52.1678Z" fill="#D6002A"/>
</g>
<mask id="mask2_34_1416" style="mask-type:luminance" maskUnits="userSpaceOnUse" x="0" y="0" width="500" height="109">
<path d="M500 0H0V108.529H500V0Z" fill="white"/>
</mask>
<g mask="url(#mask2_34_1416)">
<path d="M190.365 58.3737C190.365 61.7791 189.833 64.8783 188.764 67.6857C187.696 70.4896 186.11 72.8923 184.006 74.894C181.906 76.8957 179.288 78.4526 176.149 79.55C173.013 80.6512 169.407 81.2017 165.338 81.2017H150.324V106.629H137.508V35.6514H165.338C169.407 35.6514 173.013 36.2019 176.149 37.303C179.288 38.4041 181.906 39.9391 184.006 41.908C186.11 43.8769 187.696 46.2614 188.764 49.0653C189.833 51.8691 190.365 54.9719 190.365 58.3737ZM177.356 58.4758C177.356 55.0703 176.353 52.303 174.351 50.1664C172.35 48.0334 169.178 46.9651 164.842 46.9651H150.327V69.888H164.842C169.178 69.888 172.35 68.8379 174.351 66.7341C176.349 64.634 177.356 61.8812 177.356 58.4758Z" fill="#D6002A"/>
</g>
<mask id="mask3_34_1416" style="mask-type:luminance" maskUnits="userSpaceOnUse" x="0" y="0" width="500" height="109">
<path d="M500 0H0V108.529H500V0Z" fill="white"/>
</mask>
<g mask="url(#mask3_34_1416)">
<path d="M266.447 106.629L264.945 98.8155C264.413 99.8182 263.611 100.868 262.546 101.969C261.474 103.07 260.162 104.059 258.59 104.926C257.019 105.794 255.269 106.512 253.336 107.081C251.404 107.643 249.329 107.927 247.13 107.927C242.992 107.927 239.135 107.362 235.569 106.224C231.996 105.09 228.809 103.023 226.009 100.019C224.138 98.0863 222.618 96.0481 221.455 93.9115C220.284 91.7749 219.351 89.5071 218.651 87.1043C217.947 84.7016 217.466 82.1821 217.196 79.5497C216.93 76.9099 216.799 74.128 216.799 71.1856C216.799 68.3234 216.912 65.5706 217.149 62.9272C217.382 60.2911 217.834 57.8082 218.498 55.471C219.165 53.1339 220.102 50.8989 221.302 48.7623C222.505 46.6293 224.069 44.5912 226.009 42.6551C228.743 39.9205 231.996 37.8496 235.766 36.4495C239.536 35.0457 243.328 34.3457 247.13 34.3457C251.535 34.3457 255.538 35.0822 259.144 36.5479C262.747 38.0173 265.751 39.9862 268.154 42.4546C269.893 44.2594 271.355 46.3085 272.558 48.6128C273.758 50.9134 274.461 53.6371 274.658 56.7727H261.445C261.31 55.3689 260.945 54.1694 260.344 53.1667C259.742 52.1677 259.079 51.2015 258.342 50.2644C255.87 47.395 252.1 45.9584 247.025 45.9584C244.957 45.9584 242.854 46.3777 240.721 47.2127C238.584 48.0476 236.816 49.229 235.416 50.764C234.212 52.0328 233.246 53.5021 232.51 55.1684C231.777 56.8383 231.208 58.5921 230.811 60.426C230.41 62.2637 230.158 64.1122 230.06 65.979C229.957 67.8494 229.91 69.5813 229.91 71.1819C229.91 72.7862 229.972 74.54 230.107 76.4396C230.242 78.3428 230.508 80.2278 230.909 82.0946C231.31 83.9687 231.875 85.748 232.612 87.4543C233.345 89.1571 234.311 90.641 235.514 91.9098C236.914 93.4448 238.668 94.5751 240.772 95.3116C242.872 96.0481 244.957 96.4164 247.025 96.4164C249.366 96.4164 251.415 96.0481 253.183 95.3116C254.948 94.5788 256.435 93.5797 257.638 92.3146C259.575 90.3092 260.825 88.1908 261.394 85.9558C261.959 83.7208 262.24 81.2341 262.24 78.4996H245.322V67.7874H274.753V106.629H266.447Z" fill="#D6002A"/>
</g>
<mask id="mask4_34_1416" style="mask-type:luminance" maskUnits="userSpaceOnUse" x="0" y="0" width="500" height="109">
<path d="M500 0H0V108.529H500V0Z" fill="white"/>
</mask>
<g mask="url(#mask4_34_1416)">
<path d="M306.081 106.527C304.808 106.789 303.89 106.979 303.328 107.074C302.763 107.176 301.844 107.223 300.575 107.223C296.302 107.223 292.868 106.122 290.264 103.92C287.661 101.718 286.359 98.1481 286.359 93.2076V34.2471H298.975V91.1112C298.975 92.6462 299.274 93.8639 299.875 94.7645C300.477 95.6651 301.844 96.1172 303.981 96.1172C304.513 96.1172 304.914 96.099 305.18 96.0662C305.447 96.0334 305.746 96.0115 306.081 96.0115V106.527Z" fill="#D6002A"/>
</g>
<mask id="mask5_34_1416" style="mask-type:luminance" maskUnits="userSpaceOnUse" x="0" y="0" width="500" height="109">
<path d="M500 0H0V108.529H500V0Z" fill="white"/>
</mask>
<g mask="url(#mask5_34_1416)">
<path d="M359.2 80.6005C359.2 85.0049 358.664 88.6947 357.6 91.6626C356.531 94.6305 355.029 97.3542 353.093 99.8189C351.296 102.021 348.805 103.921 345.637 105.525C342.465 107.122 338.877 107.928 334.874 107.928C330.87 107.928 327.283 107.122 324.118 105.525C320.946 103.921 318.455 102.021 316.658 99.8189C314.722 97.3505 313.22 94.6305 312.151 91.6626C311.087 88.6947 310.551 85.0049 310.551 80.6005C310.551 76.196 311.087 72.5062 312.151 69.5383C313.22 66.5704 314.722 63.8468 316.658 61.3784C318.455 59.1762 320.946 57.2766 324.118 55.6723C327.283 54.0717 330.87 53.2695 334.874 53.2695C338.877 53.2695 342.465 54.0717 345.637 55.6723C348.805 57.2766 351.296 59.1762 353.093 61.3784C355.029 63.8504 356.531 66.5704 357.6 69.5383C358.661 72.5062 359.2 76.196 359.2 80.6005ZM346.483 80.6005C346.483 78.1321 346.249 75.7439 345.783 73.4432C345.312 71.1353 344.317 69.1518 342.782 67.4819C341.914 66.5485 340.813 65.7646 339.479 65.1302C338.144 64.4958 336.609 64.1786 334.87 64.1786C333.135 64.1786 331.603 64.4958 330.265 65.1302C328.927 65.7646 327.826 66.5485 326.962 67.4819C325.427 69.1518 324.428 71.1353 323.961 73.4432C323.494 75.7439 323.261 78.1321 323.261 80.6005C323.261 83.0689 323.494 85.457 323.961 87.7577C324.428 90.062 325.427 92.0491 326.962 93.7154C327.826 94.6488 328.931 95.4327 330.265 96.0707C331.6 96.7052 333.135 97.0224 334.87 97.0224C336.609 97.0224 338.141 96.7052 339.479 96.0707C340.813 95.4327 341.914 94.6488 342.782 93.7154C344.317 92.0491 345.312 90.062 345.783 87.7577C346.249 85.457 346.483 83.0689 346.483 80.6005Z" fill="#D6002A"/>
</g>
<mask id="mask6_34_1416" style="mask-type:luminance" maskUnits="userSpaceOnUse" x="0" y="0" width="500" height="109">
<path d="M500 0H0V108.529H500V0Z" fill="white"/>
</mask>
<g mask="url(#mask6_34_1416)">
<path d="M416.943 80.6982C416.943 85.6349 416.174 90.0248 414.635 93.8605C413.1 97.6998 410.767 100.886 407.627 103.424C406.03 104.755 404.178 105.823 402.078 106.625C399.974 107.428 397.619 107.825 395.015 107.825C392.146 107.825 389.375 107.278 386.71 106.177C384.041 105.072 381.933 103.322 380.402 100.919L379.6 106.625H368.793V34.3457H381.303V58.3733C382.506 56.9076 384.292 55.6898 386.659 54.7199C389.029 53.7537 391.781 53.2688 394.921 53.2688C397.586 53.2688 399.978 53.6371 402.082 54.3699C404.182 55.1028 406.034 56.1383 407.631 57.4727C413.837 62.6137 416.943 70.3543 416.943 80.6982ZM404.225 80.5013C404.225 78.2334 404.003 75.9948 403.573 73.7889C403.139 71.5867 402.257 69.6214 400.918 67.8895C399.981 66.7483 398.829 65.7858 397.466 64.98C396.095 64.1815 394.447 63.7841 392.511 63.7841C390.042 63.7841 388.037 64.3018 386.506 65.3336C384.971 66.3691 383.767 67.6999 382.907 69.3407C382.039 70.9741 381.452 72.7789 381.153 74.7441C380.854 76.713 380.705 78.6309 380.705 80.5013C380.705 83.0353 381.004 85.6204 381.605 88.2601C382.203 90.8962 383.406 93.0474 385.208 94.7173C386.072 95.5194 387.107 96.1575 388.314 96.6206C389.514 97.0873 390.914 97.317 392.514 97.317C394.45 97.317 396.098 96.9195 397.469 96.1138C398.833 95.3153 399.985 94.3491 400.922 93.2115C402.257 91.476 403.139 89.4925 403.576 87.2538C404.007 85.0188 404.225 82.7728 404.225 80.5013Z" fill="#D6002A"/>
</g>
<mask id="mask7_34_1416" style="mask-type:luminance" maskUnits="userSpaceOnUse" x="0" y="0" width="500" height="109">
<path d="M500 0H0V108.529H500V0Z" fill="white"/>
</mask>
<g mask="url(#mask7_34_1416)">
<path d="M472.498 106.028C471.43 106.498 470.511 106.849 469.746 107.078C468.98 107.312 467.831 107.432 466.296 107.432C463.558 107.432 461.458 106.695 459.989 105.23C458.519 103.768 457.688 102.061 457.488 100.129C456.284 102.265 454.283 104.099 451.479 105.634C448.675 107.169 445.408 107.935 441.675 107.935C438.535 107.935 435.797 107.487 433.46 106.586C431.123 105.685 429.172 104.482 427.604 102.98C426.04 101.478 424.852 99.746 424.053 97.7771C423.251 95.8082 422.854 93.7555 422.854 91.6225C422.854 89.1505 423.302 86.9519 424.203 85.0122C425.1 83.0761 426.357 81.4062 427.954 80.0062C429.555 78.6061 431.425 77.5195 433.562 76.7539C435.695 75.9845 437.996 75.496 440.471 75.2991L455.785 74.198V70.9894C455.785 68.521 455.201 66.5303 454.035 65.0318C452.868 63.5296 450.516 62.7785 446.972 62.7785C444.037 62.7785 441.755 63.4165 440.118 64.6781C438.484 65.9506 437.602 67.7845 437.463 70.1873H425.351C425.552 67.2486 426.233 64.7109 427.404 62.5779C428.567 60.4413 430.124 58.6912 432.053 57.324C433.989 55.9567 436.227 54.9394 438.761 54.2722C441.299 53.605 444.034 53.2695 446.969 53.2695C451.446 53.2695 455.431 54.0534 458.935 55.6212C462.435 57.1927 464.958 59.9455 466.49 63.8796C467.157 65.5495 467.576 67.285 467.744 69.0862C467.908 70.8873 467.996 72.6593 467.996 74.3912V93.7154C467.996 94.9149 468.211 95.7681 468.644 96.2676C469.078 96.7671 469.829 97.0187 470.898 97.0187C471.43 97.0187 471.798 96.9859 471.999 96.9166C472.203 96.9166 472.367 96.8838 472.498 96.8218V106.028ZM455.781 83.5027L442.568 84.5018C440.635 84.6367 438.896 85.2711 437.361 86.4014C435.823 87.5426 435.057 89.176 435.057 91.3126C435.057 93.3143 435.808 94.8967 437.31 96.0671C438.812 97.2375 440.53 97.8136 442.466 97.8136C446.403 97.8136 449.608 96.7999 452.077 94.7618C454.545 92.7273 455.781 89.774 455.781 85.9018V83.5027Z" fill="#D6002A"/>
</g>
<mask id="mask8_34_1416" style="mask-type:luminance" maskUnits="userSpaceOnUse" x="0" y="0" width="500" height="109">
<path d="M500 0H0V108.529H500V0Z" fill="white"/>
</mask>
<g mask="url(#mask8_34_1416)">
<path d="M500.001 106.527C498.732 106.789 497.813 106.979 497.248 107.074C496.679 107.176 495.76 107.223 494.495 107.223C490.222 107.223 486.788 106.122 484.184 103.92C481.581 101.718 480.279 98.1481 480.279 93.2076V34.2471H492.891V91.1112C492.891 92.6462 493.194 93.8639 493.795 94.7645C494.397 95.6651 495.761 96.1172 497.897 96.1172C498.433 96.1172 498.83 96.099 499.1 96.0662C499.366 96.0334 499.665 96.0115 500.001 96.0115V106.527Z" fill="#D6002A"/>
</g>
<mask id="mask9_34_1416" style="mask-type:luminance" maskUnits="userSpaceOnUse" x="0" y="0" width="500" height="109">
<path d="M500 0H0V108.529H500V0Z" fill="white"/>
</mask>
<g mask="url(#mask9_34_1416)">
<path d="M500 0H0V11.5216H500V0Z" fill="black"/>
</g>
</g>
<defs>
<clipPath id="clip0_34_1416">
<rect width="500" height="108.529" fill="white"/>
</clipPath>
</defs>
</svg>
