<svg width="500" height="138" viewBox="0 0 500 138" fill="none" xmlns="http://www.w3.org/2000/svg">
<path d="M491.145 129.774C491.145 129.514 490.971 129.34 490.798 129.167C490.624 128.993 490.364 128.993 490.016 128.993C489.756 128.993 489.582 128.993 489.409 129.08C489.235 129.167 489.148 129.253 489.062 129.34C488.975 129.427 488.975 129.601 488.975 129.774C488.975 129.861 488.975 130.035 489.062 130.122C489.148 130.208 489.235 130.295 489.322 130.382C489.409 130.469 489.496 130.469 489.669 130.556C489.756 130.556 489.93 130.642 490.016 130.642L490.537 130.816C490.798 130.903 490.971 130.903 491.145 130.99C491.319 131.076 491.492 131.163 491.666 131.337C491.839 131.51 491.926 131.597 492.013 131.858C492.1 132.031 492.187 132.292 492.187 132.552C492.187 132.899 492.1 133.16 491.926 133.42C491.753 133.681 491.492 133.854 491.145 134.028C490.798 134.201 490.451 134.288 489.93 134.288C489.496 134.288 489.062 134.201 488.714 134.115C488.367 133.941 488.107 133.767 487.933 133.507C487.76 133.247 487.673 132.899 487.586 132.552H488.628C488.628 132.726 488.714 132.899 488.801 133.073C488.888 133.247 489.062 133.333 489.235 133.333C489.409 133.42 489.582 133.42 489.843 133.42C490.103 133.42 490.277 133.42 490.451 133.333C490.624 133.247 490.798 133.16 490.885 133.073C490.971 132.986 491.058 132.812 491.058 132.639C491.058 132.465 490.971 132.378 490.885 132.292C490.798 132.205 490.711 132.118 490.537 132.031C490.364 131.944 490.19 131.944 490.016 131.858L489.322 131.684C488.801 131.597 488.454 131.337 488.194 131.076C487.933 130.816 487.76 130.469 487.76 130.035C487.76 129.687 487.846 129.427 488.02 129.167C488.194 128.906 488.454 128.733 488.801 128.559C489.148 128.385 489.496 128.385 489.93 128.385C490.364 128.385 490.711 128.472 491.058 128.559C491.405 128.733 491.579 128.906 491.839 129.167C492.013 129.427 492.1 129.687 492.1 130.035H491.145V129.774ZM498.089 128.125L496.266 132.465L494.444 128.125H493.228V134.028H494.27V130.035L496.006 134.028H496.527L498.263 130.035V134.028H499.305V128.125H498.089Z" fill="#001AFF"/>
<path d="M163.281 56.4232V42.7947C171.267 48.3503 180.99 50.8676 187.326 50.8676C194.618 50.8676 200 49.3051 200 44.5308C200 41.6662 197.743 40.1037 193.316 38.8885L180.903 35.6766C171.875 33.3329 163.455 30.1211 163.455 19.1836C163.455 5.81554 176.823 1.21484 189.497 1.21484C195.573 1.21484 201.91 2.1697 208.16 4.51345V16.4926C200.694 13.628 193.576 12.76 187.413 12.76C180.035 12.76 175.955 14.4093 175.955 17.9683C175.955 20.3989 177.951 21.8746 183.073 23.2635L196.094 26.6489C206.337 29.3398 212.413 34.1141 212.413 43.4891C212.413 55.5551 201.215 62.5864 187.587 62.5864C177.604 62.4996 170.139 60.6766 163.281 56.4232ZM234.896 60.5898H247.569V14.2357H267.187V2.51693H215.278V14.2357H234.896V60.5898ZM339.67 60.5898H352.344V14.2357H371.962V2.51693H320.052V14.2357H339.67V60.5898ZM260.851 60.5898H274.653L280.122 46.7878H306.944L312.587 60.5898H326.302L301.649 2.51693H285.503L260.851 60.5898ZM284.722 35.5898L292.188 15.9718H294.878L302.344 35.5898H284.722ZM380.816 60.5898H425.174V48.8711H393.142V36.7183H419.878V24.9996H393.142V14.2357H424.045V2.51693H380.816V60.5898ZM187.674 135.937C201.302 135.937 212.5 128.906 212.5 116.84C212.5 107.465 206.51 102.777 196.181 99.9996L183.16 96.6141C177.951 95.2253 176.042 93.8364 176.042 91.319C176.042 87.76 180.122 86.1107 187.5 86.1107C193.576 86.1107 200.781 86.9787 208.247 89.8433V77.8641C201.997 75.5204 195.66 74.5655 189.583 74.5655C176.823 74.5655 163.542 79.253 163.542 92.5343C163.542 103.472 171.962 106.597 180.99 109.027L193.403 112.239C197.83 113.454 200.087 114.93 200.087 117.882C200.087 122.743 194.705 124.218 187.413 124.218C181.163 124.218 171.354 121.701 163.368 116.145V129.861C170.139 134.114 177.604 135.85 187.674 135.937ZM234.896 134.027H247.569V87.6732H267.187V75.8676H215.278V87.5864H234.896V134.027ZM459.983 134.027H472.656V87.6732H492.188V75.8676H440.278V87.5864H459.896V134.027H459.983ZM335.069 134.027H379.427V122.309H347.396V110.156H374.132V98.4371H347.396V87.6732H378.299V75.8676H335.069V134.027ZM388.802 134.027H433.16V122.309H401.128V110.156H427.865V98.4371H401.128V87.6732H432.031V75.8676H388.802V134.027ZM276.042 134.027H288.542V113.281H298.177L313.715 134.027H328.733L312.24 111.805C320.66 109.461 325.087 103.472 325.087 94.7044C325.087 82.6385 317.014 75.9544 302.344 75.9544H276.042V134.027ZM288.542 101.649V87.6732H303.819C309.028 87.6732 312.24 90.3641 312.24 94.7044C312.24 99.0447 309.115 101.649 303.819 101.649H288.542Z" fill="#001AFF"/>
<path d="M64.6699 16.8403C85.7637 9.54861 107.986 1.5625 134.982 1.5625V20.2257C111.371 20.2257 91.8401 27.1701 70.7463 34.4618C49.913 41.7535 27.6039 49.7396 0.607422 49.7396V31.0764C24.2185 31.0764 43.7498 24.1319 64.6699 16.8403ZM0.607422 59.1146H134.982V77.9514H125.173H0.607422V59.1146ZM0.607422 116.84C24.2185 116.84 43.7498 109.896 64.6699 102.604C85.7637 95.3125 107.986 87.3264 134.982 87.3264V105.99C111.371 105.99 91.8401 112.934 70.7463 120.226C49.8262 127.517 27.6039 135.503 0.607422 135.503V116.84Z" fill="#001AFF"/>
</svg>
