<svg width="500" height="109" viewBox="0 0 500 109" fill="none" xmlns="http://www.w3.org/2000/svg">
<path fill-rule="evenodd" clip-rule="evenodd" d="M230.186 50.031V78.7329H223.612V49.9441C223.612 41.208 220.065 37.1428 212.447 37.1428C203.379 37.1428 198.636 43.8789 198.636 50.5279V78.7329H192.062V31.5341H198.636V36.6801C201.863 33.3975 206.748 30.8726 212.86 30.8726C224.031 30.8726 230.189 37.6739 230.189 50.0279L230.186 50.031ZM307.994 30.8695C301.876 30.8695 296.991 33.3975 293.767 36.677V10.7764H287.195V78.7329H293.767V50.5279C293.767 43.8757 298.509 37.1428 307.581 37.1428C315.199 37.1428 318.745 41.2112 318.745 49.9441V78.7329H325.317V50.0279C325.317 37.6739 319.164 30.8695 307.994 30.8695ZM405.64 54.7639V55.4285C405.64 69.0931 395.953 79.4037 383.109 79.4037C370.522 79.4037 360.661 68.9068 360.661 55.5093V54.8447C360.661 41.2236 370.385 30.9534 383.276 30.9534C396.233 30.9534 405.64 40.9689 405.64 54.7639ZM398.978 55.4254V54.7608C398.978 44.3882 392.518 37.1428 383.27 37.1428C374.022 37.1428 367.307 44.5869 367.307 54.8447V55.5093C367.307 65.7205 373.991 73.1273 383.189 73.1273C392.487 73.1273 398.978 65.8478 398.978 55.4254ZM433.817 30.8695C427.708 30.8695 422.82 33.3975 419.59 36.677V31.5341H413.018V78.7329H419.59V50.5279C419.59 43.8789 424.338 37.1428 433.404 37.1428C441.022 37.1428 444.574 41.2111 444.574 49.9472V78.7329H451.146V50.0279C451.146 37.677 444.991 30.8695 433.817 30.8695ZM259.189 73.1273C249.991 73.1273 243.314 65.7174 243.314 55.5093V54.8447C243.314 44.5869 250.025 37.1428 259.27 37.1428C265.686 37.1428 270.755 40.6304 273.264 46.2267H280.317C277.295 37.0248 269.36 30.9534 259.27 30.9534C246.382 30.9534 236.655 41.2236 236.655 54.8447V55.5093C236.655 68.9068 246.515 79.4037 259.102 79.4037C270.009 79.4037 278.63 71.972 280.991 61.3726H274.199C272.211 68.5124 266.59 73.1273 259.189 73.1273ZM355.714 30.8695C349.602 30.8695 344.717 33.3975 341.487 36.6801V31.5341H334.916V78.7391H341.487V50.5279C341.487 43.8789 346.233 37.1428 355.301 37.1428C356.857 37.1191 358.408 37.3424 359.894 37.8043V31.236C358.515 30.9887 357.116 30.866 355.714 30.8695ZM124.636 51.4068C114.174 49.6708 112.351 47.7919 112.351 43.972C112.351 39.8882 116.59 37.1459 122.689 37.1459C129.071 37.1459 132.649 39.4813 133.677 44.4938L133.733 44.7608H140.596L140.444 43.8478C139.059 35.531 132.786 30.9565 122.773 30.9565C112.835 30.9565 105.621 36.4285 105.621 43.972C105.621 53.8509 113.944 56.0683 123.205 57.6242C131.941 59.1397 134.624 60.3664 134.624 65.5621C134.624 70.3323 130.338 73.295 123.661 73.295C114.556 73.295 111.751 68.4751 111.037 64.2391H104.037C104.885 73.6459 112.404 79.4875 123.664 79.4875C134.189 79.4875 141.537 73.6863 141.537 65.3913C141.537 55.149 133.55 52.9316 124.643 51.4068H124.636ZM490.758 31.5372L476.509 70.3167L459.876 31.5372H453.05L472.891 78.5L466.695 96.9472H473.584L497.463 31.5372H490.758ZM179.758 31.5372L165.509 70.3167L148.876 31.5372H142.053L161.891 78.5L155.695 96.9472H162.584L186.463 31.5372H179.758Z" fill="#3B3D49"/>
<mask id="mask0_34_1411" style="mask-type:luminance" maskUnits="userSpaceOnUse" x="0" y="0" width="82" height="108">
<path fill-rule="evenodd" clip-rule="evenodd" d="M0.583184 0.521484V107.199H81.3627V0.521484H0.583184Z" fill="white"/>
</mask>
<g mask="url(#mask0_34_1411)">
<path fill-rule="evenodd" clip-rule="evenodd" d="M51.2012 107.199H30.7136V0.521484H51.1919L51.2012 107.199ZM0.580078 107.199H21.0677V53.86H0.580078V107.199ZM60.9 53.86H81.3782V0.521484H60.9V53.86Z" fill="#FBC600"/>
</g>
</svg>
