<svg width="500" height="76" viewBox="0 0 500 76" fill="none" xmlns="http://www.w3.org/2000/svg">
<path fill-rule="evenodd" clip-rule="evenodd" d="M388.464 64.0622C389.095 65.9572 392.054 65.8242 393.949 66.3561C394.614 67.5862 394.548 67.3534 395.246 69.4811H370.379C371.343 67.8521 371.309 67.5529 371.974 66.3561C373.736 65.525 376.163 65.5915 376.529 63.2643V24.3016C380.352 23.5702 384.474 23.1713 388.464 22.4399V64.0622ZM14.8932 69.5143L15.9903 66.3893C19.5807 65.6912 22.0741 65.658 22.0741 63.3973V6.48242H10.5714C5.58473 6.48242 5.21904 10.5383 3.6233 18.0848H0.298828L1.06346 0.232422H56.7483L57.5129 18.0848H54.1552C52.5262 10.5383 52.1938 6.48242 47.2071 6.48242H35.7377V63.3973C35.7377 65.658 38.1978 65.6912 41.7882 66.3893L42.8853 69.5143H14.8932ZM184.84 29.4545C184.308 27.7258 181.715 27.4598 179.255 27.0276L178.125 23.9359H203.324L202.227 27.0276C198.969 27.5928 198.138 28.4904 198.138 30.0529C198.138 31.15 198.57 32.779 198.969 34.4744C200.133 39.4611 200.299 40.4252 202.692 50.1992L210.871 23.9026H218.617L226.496 50.3654C226.496 50.3654 229.421 38.3973 231.117 31.3827C231.383 30.4518 231.482 29.7205 231.482 29.0556C231.482 27.7923 230.252 27.4931 227.692 27.0276L226.595 23.9026H245.345L244.282 27.0276C241.389 27.5263 239.129 27.6925 238.065 31.15L227.925 69.5143H220.212L211.569 42.3202L203.258 69.5143H195.844L184.84 29.4545ZM382.712 18.8162C379.089 18.8162 376.163 15.8907 376.163 12.3002C376.163 8.67657 379.089 5.75104 382.712 5.75104C386.303 5.75104 389.228 8.67657 389.228 12.3002C389.228 15.8907 386.303 18.8162 382.712 18.8162ZM58.5435 70.0462C54.9531 70.0462 52.0608 67.154 52.0608 63.5968C52.0608 60.0064 54.9531 57.1141 58.5435 57.1141C62.1007 57.1141 64.993 60.0064 64.993 63.5968C64.993 67.154 62.1007 70.0462 58.5435 70.0462ZM135.272 46.6752C135.173 33.4106 142.586 22.2404 158.045 22.2404C172.872 22.2404 180.817 32.513 180.817 46.6752C180.817 60.2391 173.337 71.1766 158.045 71.1766C142.752 71.1766 135.272 60.3721 135.272 46.6752ZM167.486 46.6752C167.486 33.1447 165.093 26.6619 158.045 26.6619C149.767 26.6619 148.603 36.1034 148.603 46.6752C148.603 61.0369 151.363 66.7218 158.045 66.7218C164.86 66.755 167.486 60.6712 167.486 46.6752ZM141.456 74.0356C140.126 74.3348 138.364 74.9665 134.408 74.9665C126.097 74.9665 121.309 73.0715 113.198 59.7736C107.214 49.9665 103.49 41.6885 97.3733 32.3135H99.9331C108.311 32.3135 114.062 27.7923 114.062 17.8853C114.062 9.90662 111.868 4.98641 102.028 4.98641H95.7776C94.6472 4.98641 94.2815 5.48508 94.2815 6.64864V63.3973C94.2815 65.658 96.7749 65.6912 100.365 66.3893L101.462 69.5143H73.5036L74.5675 66.3893C78.1579 65.6912 80.6512 65.658 80.6512 63.3973V6.38269C80.6512 4.12205 78.1579 4.05556 74.5675 3.39067L73.5036 0.232422H109.574C122.307 0.232422 128.191 6.11673 128.191 15.6247C128.191 29.255 118.085 32.9119 113.098 34.2417C117.52 38.7963 133.643 66.5888 133.643 66.5888C135.073 69.0489 137.001 71.3096 141.123 71.3096L141.456 74.0356ZM371.21 22.2736L368.55 39.0955H365.292C364.661 34.4744 363.297 31.8814 360.438 31.8814C357.247 31.8814 355.618 34.3082 354.687 35.6713L354.72 63.3973C354.72 65.658 357.18 65.6912 360.771 66.3893L361.835 69.5143H335.605L336.702 66.3893C340.259 65.6912 342.752 65.658 342.752 63.3973V33.0117C342.752 30.9505 341.921 30.0197 340.691 29.7537C338.663 31.6154 330.917 36.6686 323.138 36.6686C320.977 36.6686 319.016 36.4026 318.417 36.3029L315.891 32.3135H318.683C327.46 32.3135 332.546 27.0941 332.546 17.8189C332.546 9.84013 330.319 4.98641 320.212 4.98641H314.328C313.131 4.98641 312.832 5.55157 312.832 6.64864V63.3973C312.832 65.658 315.325 65.6912 318.916 66.3893L319.98 69.5143H292.021L293.118 66.3893C296.675 65.6912 299.169 65.658 299.169 63.3973V6.38269C299.169 4.12205 296.708 4.05556 293.118 3.39067L292.021 0.265667H328.125C341.057 0.265667 346.708 6.24971 346.708 15.9904C346.708 19.8468 345.578 23.2377 344.647 24.767L354.687 22.0077V30.7843C357.945 26.529 363.663 21.9412 371.21 22.2736ZM270.578 65.1925C275.133 65.1925 278.856 62.9651 280.053 62.2338L280.419 65.4917C278.69 66.9877 273.803 71.1766 264.461 71.1766C248.969 71.1766 242.719 59.5077 242.719 46.7085C242.719 38.63 245.079 22.2736 264.395 22.2736C281.516 22.2736 284.408 37.7657 284.74 42.9851L282.114 45.4452H255.419C255.419 56.8149 260.671 65.1925 270.578 65.1925ZM255.651 41.0901H272.706C272.706 35.7045 271.442 26.6952 264.195 26.6952C256.715 26.6952 255.651 36.2032 255.651 41.0901ZM464.661 65.1925C469.215 65.1925 472.938 62.9651 474.135 62.2338L474.468 65.4917C472.739 66.9877 467.918 71.1766 458.51 71.1766C443.051 71.1766 436.801 59.5077 436.801 46.7085C436.801 38.63 439.162 22.2736 458.477 22.2736C475.598 22.2736 478.457 37.7657 478.823 42.9851L476.196 45.4452H449.501C449.501 56.8149 454.754 65.1925 464.661 65.1925ZM449.734 41.0901H466.821C466.821 35.7045 465.492 26.6952 458.278 26.6952C450.764 26.6952 449.734 36.2032 449.734 41.0901ZM395.412 46.0103C395.412 29.9532 405.153 22.2736 419.149 22.2736C427.46 22.2736 432.812 24.2018 433.377 24.4013L431.05 39.0622H427.792C426.662 30.884 424.202 26.6952 418.351 26.6952C410.638 26.6952 408.145 35.7377 408.145 44.88C408.145 56.2165 414.262 65.1925 424.501 65.1925C428.557 65.1925 432.746 63.0649 434.109 62.2338L434.474 65.4917C432.945 66.7218 427.626 71.1433 419.049 71.1433C402.559 71.1433 395.379 59.0423 395.412 46.0103ZM490.891 30.6181C486.004 30.6181 482.047 26.6619 482.047 21.775C482.047 16.888 486.004 12.9319 490.891 12.9319C495.744 12.9319 499.7 16.888 499.7 21.775C499.7 26.6619 495.744 30.6181 490.891 30.6181ZM498.371 21.775C498.371 17.5529 495.013 14.1619 490.891 14.1619C486.735 14.1619 483.377 17.5529 483.377 21.775C483.377 25.9971 486.735 29.388 490.891 29.388C495.013 29.388 498.371 25.9971 498.371 21.775ZM495.645 26.6619H493.75C493.572 26.4181 493.461 25.9971 493.417 25.3986C493.384 24.634 493.351 24.1353 493.284 23.8361C493.151 23.2377 492.885 22.8388 492.453 22.7058C492.121 22.5728 491.655 22.5396 491.09 22.5396H488.53V26.6619H486.968V16.9213H491.722C492.608 16.9213 493.295 17.0653 493.783 17.3534C494.647 17.8632 495.079 18.6278 495.079 19.6473C495.079 20.7111 494.614 21.4425 493.617 21.9412C494.049 22.1074 494.348 22.3734 494.581 22.7723C494.714 23.005 494.78 23.3375 494.847 23.8029C494.847 23.8694 494.88 24.2351 494.946 24.8667C495.013 25.6646 495.146 26.1633 495.312 26.2963L495.645 26.6619ZM493.517 19.747C493.517 19.0489 493.218 18.6167 492.619 18.4173C492.331 18.3286 491.899 18.2843 491.323 18.2843H488.563V21.3095H490.957C491.855 21.3095 492.486 21.2098 492.819 21.0436C493.284 20.7776 493.517 20.3455 493.517 19.747Z" fill="black"/>
</svg>
