<svg width="500" height="174" viewBox="0 0 500 174" fill="none" xmlns="http://www.w3.org/2000/svg">
<g clip-path="url(#clip0_34_1414)">
<mask id="mask0_34_1414" style="mask-type:luminance" maskUnits="userSpaceOnUse" x="-24" y="-30" width="546" height="288">
<path d="M-23.9023 257.759H521.143V-29.2744H-23.9023V257.759Z" fill="white"/>
</mask>
<g mask="url(#mask0_34_1414)">
<path d="M124.564 49.7233L65.6203 26.678C52.9521 33.6081 42.5992 41.6294 34.1953 49.7233C42.5992 57.801 52.9521 65.8183 65.6203 72.7686L124.564 49.7233Z" fill="#B07E25"/>
<path d="M1.66602 1.66684C1.66602 1.66684 7.90753 21.9538 28.3878 43.8071C37.4681 36.8287 48.4129 30.4704 61.4154 25.0182L1.66602 1.66684Z" fill="#A7A5A6"/>
<path d="M1.66602 97.77C1.66602 97.77 7.90753 77.4952 28.3878 55.6338C37.4681 62.6122 48.4129 68.9544 61.4154 74.4147L1.66602 97.77Z" fill="#A49668"/>
<path d="M301.564 165.846H284.889V147.584H297.477V153.073H301.697V138.029H297.477V143.445H284.889V126.045H300.911V132.142H305.063V119.824H300.843V121.841H271.484V125.401H276.835V166.385H271.484V169.985H305.784V159.532H301.564V165.846ZM483.019 121.841V125.401H488.451V155.928L463.553 121.841H451.066V125.401H456.236L457.948 127.813V166.385H452.524V169.985H467.894V166.385H462.454V133.954L489.212 170.787H492.969V125.401H498.332V121.841H483.019ZM421.006 120.971C407.79 120.971 397.023 132.19 397.023 145.986C397.023 159.729 407.79 170.912 421.006 170.912C434.129 170.912 444.792 159.693 444.792 145.905C444.792 132.154 434.129 120.971 421.006 120.971ZM421.006 166.253C412.075 166.253 405.857 157.881 405.857 145.905C405.857 133.958 412.131 125.63 421.087 125.63C429.845 125.63 435.966 133.958 435.966 145.905C435.966 157.881 429.821 166.253 421.006 166.253ZM232.52 156.451L216.309 121.841H202.867V125.401H208.295V166.385H202.867V169.985H218.246V166.385H212.817V132.987L230.773 171.354L247.822 133.833V166.385H242.467V169.985H261.244V166.385H255.86V125.401H261.244V121.841H248.471L232.52 156.451ZM346.72 165.846H330.887V125.401H336.267V121.841H317.453V125.401H322.829V166.385H317.453V169.985H350.948V159.532H346.72V165.846ZM387.982 165.846H372.109V125.401H377.473V121.841H358.684V125.401H364.071V166.385H358.684V169.985H392.178V159.532H387.982V165.846ZM159.982 125.401H166.143L155.798 142.466L144.68 125.401H150.261V121.841H130.82V125.401H135.161L149.802 147.911V166.385H144.439V169.985H163.216V166.385H157.779V147.488L171.317 125.401H175.219V121.841H159.982V125.401ZM61.4668 144.568C66.0372 143.268 70.3015 139.708 70.3015 134.014C70.3015 126.617 64.813 121.841 56.2964 121.841H34.1934V125.401H39.557V166.385H34.1934V169.985H57.5608C66.5768 169.985 72.5968 164.859 72.5968 157.212C72.5968 149.65 67.1687 145.809 61.4668 144.568ZM47.6146 126.045H53.5179C56.6507 126.045 61.9017 127.124 61.9017 134.296C61.9017 140.256 57.4923 142.933 53.1273 142.933H47.6146V126.045ZM53.7837 165.846H47.6146V147.093H53.7837C60.2024 147.093 64.3459 150.923 64.3459 156.846C64.3459 163.478 58.6722 165.846 53.7837 165.846ZM111.826 125.401H117.282V155.928L92.3562 121.841H79.9094V125.401H85.0557L86.755 127.813V166.402H81.3148V169.985H96.6931V166.402H91.277V133.954L118.039 170.787H121.78V125.401H127.148V121.841H111.826V125.401Z" fill="#4F4C4D"/>
</g>
</g>
<defs>
<clipPath id="clip0_34_1414">
<rect width="500" height="173.021" fill="white"/>
</clipPath>
</defs>
</svg>
