<svg width="500" height="116" viewBox="0 0 500 116" fill="none" xmlns="http://www.w3.org/2000/svg">
<g clip-path="url(#clip0_34_1413)">
<path fill-rule="evenodd" clip-rule="evenodd" d="M386.006 45.2717C385.949 45.311 385.881 45.3314 385.812 45.33C385.721 45.3273 385.635 45.2893 385.571 45.224C385.507 45.1587 385.471 45.0713 385.471 44.98C385.471 44.9217 385.481 44.8717 385.5 44.8279L385.521 44.803C395.166 22.798 417.156 7.43018 442.721 7.43018C468.295 7.43018 490.285 22.8084 499.933 44.8342L499.941 44.8529C499.97 44.9195 499.977 44.9934 499.962 45.0643C499.947 45.1352 499.91 45.1997 499.857 45.2489C499.804 45.2981 499.736 45.3295 499.665 45.3388C499.593 45.3481 499.52 45.3348 499.456 45.3008L499.416 45.2821C494.972 42.6718 488.796 41.0573 481.946 41.0573C474.045 41.0573 467.02 43.2155 462.558 46.5633L462.537 46.5778C462.479 46.6216 462.402 46.6549 462.322 46.6549C462.243 46.6549 462.166 46.6216 462.106 46.582L462.087 46.5633C457.623 43.2176 450.598 41.0573 442.686 41.0573C434.784 41.0573 427.762 43.2155 423.298 46.5633L423.279 46.5778C423.221 46.6216 423.141 46.6549 423.062 46.6549C422.983 46.6549 422.927 46.6258 422.866 46.5924L422.827 46.5674C418.375 43.2218 411.34 41.0573 403.428 41.0573C396.616 41.0573 390.47 42.6552 386.035 45.2425L386.006 45.2717Z" fill="#E31B23"/>
<path fill-rule="evenodd" clip-rule="evenodd" d="M445.945 45.7484V45.6901C445.945 45.616 445.917 45.5448 445.866 45.4907C445.815 45.4367 445.746 45.4037 445.672 45.3984H445.662C443.779 45.1743 441.878 45.1548 439.991 45.3401L439.962 45.3443C439.891 45.3535 439.825 45.3892 439.778 45.4442C439.731 45.4993 439.706 45.5698 439.708 45.6422L439.698 45.6568L439.708 96.66C439.705 98.0566 439.149 99.3951 438.161 100.382C437.173 101.369 435.834 101.925 434.438 101.926C433.35 101.925 432.289 101.587 431.401 100.959C430.513 100.331 429.841 99.4433 429.477 98.4182L429.469 98.4078C429.261 97.7868 428.863 97.2468 428.332 96.864C427.8 96.4813 427.162 96.2751 426.507 96.2746C426.026 96.2746 425.551 96.3861 425.12 96.6003C424.689 96.8145 424.313 97.1257 424.023 97.5093C423.732 97.8929 423.534 98.3386 423.445 98.8115C423.355 99.2843 423.377 99.7715 423.507 100.235L423.515 100.26C424.275 102.558 425.739 104.558 427.699 105.977C429.66 107.396 432.017 108.162 434.438 108.166C437.488 108.162 440.412 106.948 442.569 104.791C444.726 102.634 445.939 99.7102 445.943 96.66L445.945 45.7484Z" fill="#E31B23"/>
<path d="M87.1136 107.947H76.6559L69.9063 86.0357H61.263L58.8382 107.947H48.4617L54.603 52.1211H75.056C87.1865 52.1211 92.982 55.0188 91.4112 69.2138C90.3488 78.907 86.5886 82.788 79.8973 84.6962L87.1136 107.947ZM71.8478 77.1883C76.7309 77.1883 80.0744 76.9987 80.9681 68.8284C81.8785 60.5914 77.9537 60.9789 73.3956 60.9789H64.0004L62.2109 77.1862L71.8478 77.1883ZM361.162 107.947H350.619L343.867 86.0357H335.315L332.889 107.947H322.514L328.651 52.1211H349.11C361.231 52.1211 367.037 55.0188 365.46 69.2138C364.408 78.907 360.645 82.788 353.944 84.6962L361.162 107.947ZM345.729 77.1883C350.621 77.1883 353.952 76.9987 354.858 68.8284C355.766 60.5914 352.004 60.9789 347.279 60.9789H338.051L336.278 77.1862L345.729 77.1883ZM142.787 52.1211H153.768L161.363 92.9186L177.419 52.1211H188.028L164.834 108.253H154.076L142.787 52.1211ZM197.576 52.1211H230.488L229.455 61.4288H207.159L205.696 74.7051H223.785L222.737 84.1296H204.669L203.057 98.6079H226.084L225.074 107.947H191.424L197.576 52.1211ZM284.183 52.1211H317.096L316.073 61.4288H293.772L292.301 74.7051H310.382L309.348 84.1296H291.276L289.668 98.6079H312.692L311.688 107.947H278.046L284.183 52.1211ZM369.766 106.957L371.236 97.8079C372.874 98.185 381.621 99.4807 386.825 99.4807C393.839 99.4807 395.808 98.2662 396.42 92.6166C396.993 87.4377 396.158 86.7607 388.264 84.2379C375.755 80.1965 372.93 78.1383 374.197 66.5348C375.424 55.4 381.2 51.4336 393.866 51.4336C400.053 51.4336 406.815 52.2773 409.261 52.9585L408.074 62.0434C405.151 61.5767 397.881 60.6601 392.777 60.6601C387.125 60.6601 385.215 62.1121 384.719 66.6139C384.135 71.8782 385.148 72.4198 392.747 74.851C404.732 78.8153 408.494 80.8818 407.188 92.5478C405.853 104.751 400.174 108.57 385.675 108.57C378.125 108.57 372.386 107.505 369.766 106.957ZM103.625 107.947H93.0132L117.016 51.8127H127.207L138.263 107.945H127.357L125.63 98.6454H107.475L103.625 107.947ZM120.31 66.4431L111.116 89.8834H124.003L120.31 66.4431ZM272.082 98.6079H247.469L252.587 52.1211H241.981L235.84 107.947H262.251C268.194 107.947 270.769 104.526 272.082 98.6079ZM1.02702 52.1211L0 61.4288H17.3719L12.2514 107.945H22.9466L27.9817 61.4622H36.7457C42.687 61.4622 45.2598 58.027 46.5681 52.119L1.02702 52.1211Z" fill="black"/>
</g>
<defs>
<clipPath id="clip0_34_1413">
<rect width="500" height="116" fill="white"/>
</clipPath>
</defs>
</svg>
