<svg width="500" height="140" viewBox="0 0 500 140" fill="none" xmlns="http://www.w3.org/2000/svg">
<g clip-path="url(#clip0_34_1409)">
<path d="M493.696 86.6082C492.452 86.6082 491.236 86.9773 490.202 87.6689C489.168 88.3604 488.362 89.3433 487.887 90.493C487.412 91.6427 487.288 92.9075 487.532 94.1274C487.776 95.3472 488.377 96.4672 489.258 97.3455C490.139 98.2238 491.261 98.821 492.481 99.0613C493.702 99.3017 494.967 99.1744 496.115 98.6957C497.263 98.217 498.243 97.4083 498.932 96.3721C499.62 95.3358 499.986 94.1186 499.982 92.8746C499.987 92.0486 499.828 91.2298 499.513 90.466C499.199 89.7021 498.736 89.0084 498.151 88.4252C497.566 87.842 496.871 87.381 496.106 87.0691C495.341 86.7571 494.522 86.6005 493.696 86.6082ZM493.696 98.2127C492.619 98.2204 491.565 97.9081 490.666 97.3156C489.767 96.7231 489.065 95.877 488.647 94.8847C488.23 93.8923 488.117 92.7983 488.322 91.7416C488.528 90.6848 489.042 89.7128 489.801 88.9488C490.559 88.1849 491.527 87.6634 492.583 87.4506C493.638 87.2377 494.733 87.3431 495.728 87.7532C496.723 88.1634 497.574 88.86 498.173 89.7545C498.772 90.6491 499.092 91.7014 499.092 92.7779C499.115 93.4992 498.993 94.2179 498.732 94.8907C498.471 95.5635 498.076 96.1766 497.572 96.6932C497.068 97.2098 496.465 97.6193 495.799 97.897C495.133 98.1747 494.418 98.315 493.696 98.3094V98.2127Z" fill="#001E79"/>
<path d="M496.421 94.8282C496.407 94.445 496.279 94.0748 496.054 93.7645C495.915 93.5757 495.738 93.418 495.535 93.3015C495.332 93.1849 495.107 93.112 494.874 93.0875C495.223 93.0526 495.56 92.9403 495.86 92.7587C496.081 92.6113 496.259 92.4089 496.378 92.1715C496.497 91.9341 496.552 91.6699 496.537 91.4049C496.573 91.0361 496.489 90.6656 496.297 90.3486C496.105 90.0315 495.816 89.7847 495.473 89.6449C494.849 89.4476 494.194 89.3624 493.539 89.3934H491.18V96.2981H492.379V93.6291H493.346C493.807 93.5999 494.269 93.6725 494.7 93.8418C495.377 94.248 495.338 95.1183 495.357 95.892C495.328 96.0387 495.328 96.19 495.357 96.3368H496.479C496.415 96.1972 496.382 96.0455 496.382 95.892C496.421 95.5632 496.421 95.3891 496.421 94.8282ZM493.481 92.7394H492.379V90.2251H493.423C494.893 90.2251 495.357 90.5732 495.357 91.5016C495.357 92.4299 494.545 92.7394 493.481 92.7394Z" fill="#001E79"/>
<path d="M228.164 26.1875C218.493 26.1875 210.757 30.1717 207.759 34.5621V0H186.639V98.3096H207.449V90.3799C210.718 95.776 217.932 99.8762 227.293 99.8762C246.982 99.8762 260.869 84.4035 260.869 62.8965C260.888 41.7763 248.568 26.1875 228.164 26.1875ZM223.483 80.6127C215.128 80.6127 207.469 74.6557 207.469 63.0319C207.469 51.408 215.205 45.6251 223.483 45.6251C231.761 45.6251 239.362 51.1566 239.362 63.0319C239.362 74.9072 231.838 80.6127 223.483 80.6127Z" fill="#001E79"/>
<path d="M328.447 87.4014V53.0134C328.447 38.5658 320.092 25.8008 297.289 25.8008C276.594 25.8008 267.233 39.1266 266.344 49.1839L285.046 53.0521C285.298 50.0924 286.702 47.3499 288.955 45.4148C291.209 43.4796 294.132 42.5064 297.096 42.7047C303.903 42.7047 307.443 46.2441 307.443 50.441C307.443 52.8393 306.166 54.696 302.337 55.2569L285.762 57.8099C274.157 59.5119 264.932 66.5907 264.932 79.0849C264.932 90.2639 273.867 100.476 289.301 100.476C298.662 100.476 305.451 96.6077 309.145 90.554C309.065 93.2164 309.306 95.8787 309.86 98.4838H329.201C328.655 94.8156 328.403 91.1097 328.447 87.4014ZM307.482 70.6909C307.482 81.5992 300.964 84.7131 294.581 84.7131C288.644 84.7131 286.226 81.1737 286.226 77.4796C286.226 72.5283 289.63 70.4008 294.156 69.7432L307.482 67.6157V70.6909Z" fill="#001E79"/>
<path d="M404.011 54.1157V98.3095H382.484V57.6937C382.484 50.7503 378.79 45.509 370.996 45.509C363.917 45.509 359.391 50.7503 359.391 57.8291V98.3095H337.846V27.8701H358.676V35.9546C362.544 29.3013 371.151 26.0327 378.365 26.0327C396.081 26.0521 404.011 38.6623 404.011 54.1157Z" fill="#001E79"/>
<path d="M435.228 0V51.5627L456.619 27.9089H484.547L457.044 57.5197L485.108 98.329H458.746L442.171 73.534L435.228 81.0382V98.329H413.701V0H435.228Z" fill="#001E79"/>
<path d="M0 105.408L84.1328 139.254L168.266 105.408V0H0V105.408Z" fill="#CF2A36"/>
<path d="M63.9981 91.2308C60.3234 97.3232 52.2389 99.8762 45.1601 99.8762C28.0048 99.8762 18.373 87.4013 18.373 72.3928V27.8701H39.9188V67.8477C39.9188 74.6557 43.5935 80.0324 51.2525 80.0324C58.486 80.0324 63.0118 75.0812 63.0118 68.0024V27.8701H84.5575V85.6993C84.5543 89.9124 84.7868 94.1224 85.2538 98.3095H64.5784C64.2178 95.9666 64.0239 93.6011 63.9981 91.2308Z" fill="white"/>
<path d="M111.345 75.0814C111.635 79.8973 115.039 84.5778 122.408 84.5778C127.939 84.5778 130.628 81.5993 130.628 78.4854C130.628 75.9324 128.926 73.8049 123.684 72.6831L115.6 70.7491C100.591 67.5772 94.6342 59.0672 94.6342 49.1453C94.6342 36.2643 105.968 25.7622 121.711 25.7622C142.116 25.7622 149.214 38.5272 149.91 46.747L132.02 49.9963C131.937 48.7688 131.61 47.5702 131.059 46.4706C130.507 45.3711 129.741 44.3928 128.806 43.593C127.871 42.7932 126.786 42.1881 125.614 41.8131C124.443 41.438 123.208 41.3007 121.982 41.409C117.863 41.409 114.246 43.8266 114.246 47.5013C114.246 50.4798 116.663 52.1818 119.777 52.7427L129.138 54.6768C143.721 57.636 150.8 66.436 150.8 76.7641C150.8 88.8134 141.594 100.573 122.756 100.573C100.649 100.573 93.5705 86.2604 92.9902 78.4661L111.345 75.0814Z" fill="white"/>
</g>
<defs>
<clipPath id="clip0_34_1409">
<rect width="500" height="139.254" fill="white"/>
</clipPath>
</defs>
</svg>
