<svg width="500" height="500" viewBox="0 0 500 500" fill="none" xmlns="http://www.w3.org/2000/svg">
<g clip-path="url(#clip0_34_1406)">
<path d="M0 500H500V0H0V500Z" fill="#B31E30"/>
<path d="M180.204 157.379V181.949H185.824C192.916 181.949 196.132 178.5 196.132 168.85V167.338H204.387V205.472H196.132V203.844C196.132 194.272 192.916 190.629 185.824 190.629H180.204V218.106H203.767C214.502 218.106 218.377 211.014 219.656 197.45H228.22V226.864H150.829V218.106H157.379C161.448 218.106 163.618 216.982 163.618 209.89V164.044C163.618 158.929 161.293 157.379 155.828 157.379H153.426C147.806 157.379 145.132 158.696 143.156 164.548L121.803 226.864H105.565L93.2025 186.25H92.9703L79.2515 226.864H62.8199L40.6528 161.564C39.6836 158.348 38.0175 157.379 33.5222 157.379H31.8945V148.659H66.0753V157.379H61.1148C58.5183 157.379 57.4719 158.929 57.4719 160.479C57.4719 161.642 57.8985 163.114 58.5183 164.742L73.3222 208.379H73.5543L87.6607 167.338L85.6843 161.758C84.483 158.27 82.119 157.379 78.6699 157.379H75.8796V148.659H111.184V157.379H104.945C102.542 157.379 101.612 158.425 101.612 159.975C101.612 161.177 102.193 162.843 102.581 163.967L115.525 207.604H115.757L130.794 164.975C131.259 163.579 131.685 162.417 131.685 160.944C131.685 159.084 130.794 157.379 126.647 157.379H120.95V148.659H228.22V175.399H219.423C217.64 164.083 216.633 157.379 200.937 157.379H180.204ZM308.75 226.864V197.45H299.721C298.52 210.898 296.078 218.106 283.832 218.106H266.044V162.804C266.044 158.464 267.827 157.379 273.02 157.379H279.646V148.659H236.436V157.379H243.257C247.985 157.379 249.574 158.929 249.574 162.494V212.874C249.574 216.982 247.326 218.106 243.993 218.106H236.436V226.864H308.75ZM389.009 226.864V197.45H379.941C378.74 210.898 376.221 218.106 364.129 218.106H346.303V162.804C346.303 158.464 348.085 157.379 353.278 157.379H359.867V148.659H316.617V157.379H323.477C328.244 157.379 329.832 158.929 329.832 162.494V212.874C329.832 216.982 327.546 218.106 324.252 218.106H316.617V226.864H389.009ZM448.535 154.55C447.799 153.813 440.59 146.334 426.523 146.334C411.758 146.334 396.838 153.813 396.838 169.857C396.838 184.39 408.425 191.017 421.756 193.885C426.174 194.815 428.809 195.319 432.84 196.171C442.838 198.303 449.504 201.325 449.504 208.262C449.504 213.533 443.923 219.191 432.878 219.191C417.455 219.191 408.309 210.588 406.41 197.45H397.341V226.864H405.363L407.96 219.85C409.859 221.516 417.377 229.189 431.677 229.189C449.891 229.189 463.649 221.09 463.649 205.085C463.649 189.583 450.821 182.917 435.165 179.778C432.375 179.081 429.817 178.655 426.949 177.996C417.222 175.903 410.983 173.5 410.983 166.525C410.983 160.479 417.377 156.332 426.988 156.332C441.443 156.332 447.024 165.517 450.008 175.399H458.805V148.659H452.449L448.535 154.55ZM89.5984 348.783V339.986H83.7078C78.2436 339.986 76.2284 338.358 76.2284 333.941V312.626H81.0726C88.3971 312.626 91.5748 315.804 91.5748 324.097V326.694H99.7907V290.691H91.5748V292.242C91.5748 298.326 89.3658 303.906 81.7702 303.906H76.2284V279.259H91.6136C108.936 279.259 110.758 287.979 111.921 297.241H120.369V270.54H46.3493V279.259H54.1776C57.7042 279.259 59.6806 280.848 59.6806 283.677V334.212C59.6806 337.506 57.8979 339.986 53.7125 339.986H46.3493V348.783H89.5984ZM417.106 268.176C391.451 268.176 374.477 286.118 374.477 309.642C374.477 333.127 391.451 351.225 417.106 351.225C442.683 351.225 459.696 333.127 459.696 309.642C459.696 286.118 442.683 268.176 417.106 268.176ZM417.106 277.399C435.63 277.399 441.172 292.784 441.172 309.642C441.172 326.5 435.63 341.924 417.106 341.924C398.465 341.924 392.962 326.5 392.962 309.642C392.962 292.784 398.465 277.399 417.106 277.399ZM344.946 276.934C343.241 275.423 335.917 268.176 321.462 268.176C298.326 268.176 283.793 285.809 283.793 309.642C283.793 333.669 298.558 351.225 321.462 351.225C336.188 351.225 344.171 344.482 345.993 342.815L350.372 348.783H358.394V321.656C358.394 317.044 360.099 315.804 364.672 315.804H366.842V307.046H330.724V315.804H336.072C339.947 315.804 342.311 317.548 342.311 321.346V325.919C342.311 334.871 336.808 341.11 324.833 341.11C309.836 341.11 302.317 327.624 302.317 309.642C302.317 291.932 309.836 278.368 324.368 278.368C339.521 278.368 344.675 292.474 346.419 297.241H356.107V270.54H347.853L344.946 276.934ZM279.879 330.414V332.545C279.879 346.032 273.446 351.225 263.68 351.225C252.248 351.225 248.411 345.722 248.411 335.064V330.995C248.411 317.548 242.675 312.122 229.577 312.122H223.376V335.762C223.376 338.901 224.81 339.986 228.22 339.986H236.824V348.783H158.696V339.986H167.377C169.78 339.986 170.671 339.405 170.671 338.01C170.671 337.273 170.439 336.072 169.974 334.793C169.547 333.747 165.866 323.671 165.866 323.671H137.963C137.963 323.671 134.514 332.972 133.933 334.522C133.545 335.684 133.235 336.653 133.235 337.777C133.235 339.444 134.63 339.986 136.956 339.986H145.249V348.783H108.433V339.986C114.672 339.986 118.625 339.095 120.834 333.631L145.792 270.54H160.789L186.367 333.631C188.498 339.172 192.528 339.986 198.768 339.986H201.946C205.317 339.986 206.829 338.901 206.829 335.762V283.522C206.829 280.383 205.627 279.259 201.946 279.259H193.73V270.54H245.117C262.169 270.54 270.191 278.6 270.191 290.808C270.191 305.96 255.116 308.944 248.062 309.332V309.526C256.317 310.146 263.293 313.556 263.293 325.609V330.181C263.293 338.203 264.998 339.986 267.827 339.986C270.617 339.986 272.09 337.777 272.09 332.545V330.414H279.879ZM162.649 314.99L152.108 286.506H151.76L141.219 314.99H162.649ZM253.759 291.312C253.759 284.452 248.837 279.259 237.909 279.259H223.376V303.403H237.909C247.985 303.403 253.759 298.869 253.759 291.312Z" fill="#FFCC02"/>
</g>
<defs>
<clipPath id="clip0_34_1406">
<rect width="500" height="500" fill="white"/>
</clipPath>
</defs>
</svg>
