<svg width="500" height="229" viewBox="0 0 500 229" fill="none" xmlns="http://www.w3.org/2000/svg">
<g clip-path="url(#clip0_6_15642)">
<path d="M126.343 52.3271L135.323 74.0031L156.999 82.9824L178.675 30.6504L126.343 52.3271Z" fill="#68C431"/>
<path d="M30.6553 30.6504L52.3325 82.9824L74.0095 74.0031L82.9888 52.3271L30.6553 30.6504Z" fill="#F8A80E"/>
<path d="M178.675 91.9623L156.999 82.9837L148.02 104.661L156.999 126.338L178.675 117.359L209.332 104.661L178.675 91.9623Z" fill="#F8E907"/>
<path d="M165.979 148.013L156.999 126.336L148.02 104.659L135.323 135.315L126.343 156.992L148.02 165.971L178.675 178.67L165.979 148.013Z" fill="#50AEE5"/>
<path d="M52.3329 82.9837L30.6557 91.9623L0 104.661L30.6557 117.359L52.3329 126.338L61.3122 104.661L52.3329 82.9837Z" fill="#F8E907"/>
<path d="M52.333 82.9831L61.3124 104.66L74.01 74.0038L52.333 82.9831Z" fill="#FACC09"/>
<path d="M135.323 74.0038L148.02 104.66L157 82.9831L135.323 74.0038Z" fill="#B7DD19"/>
<path d="M74.0095 135.315L61.3118 104.659L52.3325 126.336L43.3531 148.013L30.6553 178.67L61.3118 165.971L82.9888 156.992L74.0095 135.315Z" fill="#50AEE5"/>
<path d="M82.9895 156.992L104.667 104.659L126.343 156.992L135.323 135.315L148.02 104.659L135.323 74.0029L126.343 52.3269L104.667 -0.00715637L82.9895 52.3269L74.0102 74.0029L61.3125 104.659L74.0102 135.315L82.9895 156.992Z" fill="#3C85CE"/>
<path d="M263.811 66.8747L254.837 40.7513H254.637L245.364 66.8747H263.811ZM262.913 23.2007L289.536 94.3945H273.283L267.899 78.5406H241.278L235.693 94.3945H219.939L246.861 23.2007H262.913Z" fill="#5A5758"/>
<path d="M306.688 23.2007V94.3945H292.528V23.2007H306.688Z" fill="#5A5758"/>
<path d="M329.369 23.2007V94.3945H315.211V23.2007H329.369Z" fill="#5A5758"/>
<path d="M352.051 42.8454V94.3945H337.895V42.8454H352.051ZM337.895 34.8677V23.2007H352.051V34.8677H337.895Z" fill="#5A5758"/>
<path d="M392.596 69.1696C391.995 69.7017 391.247 70.1165 390.35 70.4159C389.452 70.7152 388.49 70.9649 387.458 71.1644C386.427 71.3633 385.345 71.5292 384.217 71.6622C383.087 71.7963 381.957 71.9608 380.827 72.1611C379.763 72.3608 378.717 72.6265 377.686 72.959C376.656 73.2921 375.758 73.7406 374.993 74.3037C374.23 74.8702 373.614 75.5856 373.149 76.4488C372.685 77.3127 372.452 78.41 372.452 79.7384C372.452 81.0022 372.685 82.0658 373.149 82.929C373.614 83.7948 374.249 84.4753 375.045 84.9729C375.843 85.472 376.773 85.8207 377.837 86.0203C378.898 86.2199 379.996 86.319 381.125 86.319C383.92 86.319 386.078 85.8551 387.608 84.923C389.136 83.9931 390.267 82.8789 390.997 81.5836C391.731 80.2874 392.176 78.9764 392.344 77.6452C392.511 76.316 392.596 75.2519 392.596 74.4548V69.1696ZM359.889 58.6993C360.089 55.377 360.92 52.6165 362.382 50.424C363.842 48.2297 365.705 46.4705 367.965 45.1395C370.225 43.8101 372.766 42.8641 375.594 42.2978C378.418 41.735 381.258 41.4502 384.119 41.4502C386.71 41.4502 389.338 41.6349 391.995 41.9992C394.652 42.3652 397.079 43.0799 399.275 44.1416C401.468 45.2068 403.261 46.6846 404.66 48.5802C406.056 50.4741 406.752 52.9842 406.752 56.1069V82.929C406.752 85.2562 406.885 87.4843 407.149 89.6093C407.415 91.739 407.883 93.3325 408.547 94.3959H394.187C393.923 93.5982 393.707 92.7848 393.54 91.9541C393.374 91.1225 393.257 90.2755 393.189 89.4104C390.931 91.739 388.273 93.3668 385.213 94.2961C382.158 95.2261 379.033 95.6914 375.843 95.6914C373.382 95.6914 371.09 95.392 368.963 94.7945C366.836 94.1957 364.973 93.267 363.38 92.0033C361.783 90.741 360.536 89.1459 359.64 87.2172C358.744 85.2898 358.292 82.9963 358.292 80.3366C358.292 77.4131 358.806 75.0022 359.839 73.1073C360.868 71.2143 362.197 69.7017 363.829 68.5721C365.455 67.442 367.318 66.5935 369.412 66.0291C371.506 65.4653 373.614 65.0162 375.742 64.683C377.868 64.3505 379.963 64.0841 382.025 63.8846C384.084 63.6857 385.914 63.3868 387.508 62.9877C389.103 62.5891 390.367 62.0071 391.297 61.2423C392.23 60.4789 392.659 59.3655 392.596 57.9029C392.596 56.3747 392.343 55.1612 391.845 54.2635C391.347 53.3658 390.683 52.6683 389.852 52.1694C389.018 51.6705 388.057 51.339 386.961 51.1715C385.863 51.0075 384.682 50.9229 383.421 50.9229C380.626 50.9229 378.434 51.522 376.84 52.7184C375.245 53.9148 374.315 55.9088 374.049 58.6993H359.889Z" fill="#5A5758"/>
<path d="M428.539 42.8454V50.0238H428.839C430.633 47.0337 432.958 44.8567 435.817 43.4928C438.675 42.1307 441.601 41.4488 444.593 41.4488C448.38 41.4488 451.488 41.965 453.912 42.9939C456.341 44.0263 458.252 45.454 459.647 47.2823C461.042 49.1105 462.022 51.3376 462.589 53.9617C463.153 56.5891 463.435 59.4964 463.435 62.6868V94.3945H449.278V65.2791C449.278 61.0265 448.612 57.851 447.282 55.757C445.953 53.6631 443.595 52.6151 440.206 52.6151C436.347 52.6151 433.558 53.7632 431.829 56.0564C430.1 58.3499 429.235 62.1231 429.235 67.3731V94.3945H415.078V42.8454H428.539Z" fill="#5A5758"/>
<path d="M499.428 42.8463V52.3174H489.06V77.8443C489.06 80.237 489.458 81.8319 490.256 82.629C491.054 83.4274 492.649 83.8261 495.043 83.8261C495.837 83.8261 496.602 83.7943 497.336 83.727C498.066 83.6608 498.765 83.5611 499.428 83.4274V94.3954C498.234 94.5952 496.903 94.7272 495.44 94.794C493.976 94.8602 492.549 94.8945 491.154 94.8945C488.961 94.8945 486.881 94.7442 484.921 94.4453C482.96 94.146 481.232 93.5661 479.739 92.7001C478.242 91.8369 477.058 90.6068 476.196 89.0106C475.331 87.4165 474.9 85.3225 474.9 82.7301V52.3174H466.328V42.8463H474.9V27.3916H489.06V42.8463H499.428Z" fill="#5A5758"/>
<path d="M265.905 107.438V114.012H229.898V132.668H263.462V139.243H229.898V159.542H266.176V166.115H221.304V107.438H265.905Z" fill="#5A5758"/>
<path d="M282.55 123.63V130.366H282.731C285.926 125.218 290.993 122.64 297.932 122.64C301.007 122.64 303.57 123.024 305.619 123.792C307.669 124.56 309.329 125.629 310.597 126.997C311.86 128.366 312.753 129.998 313.264 131.887C313.777 133.778 314.034 135.873 314.034 138.175V166.115H306.343V137.352C306.343 134.723 305.499 132.639 303.812 131.108C302.122 129.574 299.801 128.805 296.846 128.805C294.493 128.805 292.457 129.135 290.738 129.792C289.02 130.45 287.584 131.381 286.441 132.586C285.293 133.792 284.433 135.205 283.863 136.818C283.29 138.436 283.002 140.202 283.002 142.118V166.115H275.312V123.63H282.55Z" fill="#5A5758"/>
<path d="M356.871 136.118C356.177 134.639 355.243 133.368 354.065 132.299C352.89 131.231 351.502 130.381 349.905 129.75C348.305 129.121 346.542 128.805 344.613 128.805C342.621 128.805 340.826 129.121 339.229 129.75C337.632 130.381 336.258 131.244 335.113 132.339C333.967 133.436 333.062 134.71 332.397 136.162C331.736 137.614 331.343 139.16 331.223 140.805H358.091C357.971 139.16 357.565 137.599 356.871 136.118ZM358.725 163.404C355.226 165.815 350.823 167.02 345.518 167.02C341.775 167.02 338.533 166.473 335.792 165.378C333.045 164.281 330.74 162.747 328.87 160.774C327.001 158.802 325.599 156.447 324.663 153.706C323.727 150.969 323.201 147.982 323.08 144.748C323.08 141.517 323.622 138.56 324.708 135.873C325.792 133.189 327.317 130.861 329.276 128.887C331.237 126.914 333.558 125.382 336.242 124.284C338.927 123.19 341.867 122.64 345.062 122.64C349.226 122.64 352.679 123.421 355.422 124.984C358.166 126.545 360.369 128.532 362.029 130.942C363.687 133.355 364.831 135.984 365.465 138.833C366.098 141.68 366.354 144.393 366.235 146.969H331.223C331.161 148.832 331.403 150.598 331.947 152.269C332.489 153.939 333.364 155.419 334.569 156.708C335.776 157.994 337.314 159.021 339.182 159.789C341.052 160.557 343.257 160.939 345.786 160.939C349.045 160.939 351.714 160.255 353.794 158.884C355.875 157.516 357.247 155.431 357.912 152.637H365.512C364.483 157.405 362.223 160.994 358.725 163.404Z" fill="#5A5758"/>
<path d="M381.161 123.63V132.586H381.341C383.209 129.135 385.502 126.587 388.215 124.942C390.931 123.298 394.37 122.532 398.529 122.64V130.04C395.456 130.04 392.83 130.423 390.66 131.187C388.49 131.955 386.736 133.078 385.412 134.56C384.084 136.039 383.117 137.833 382.517 139.941C381.914 142.051 381.61 144.474 381.61 147.215V166.115H373.921V123.63H381.161Z" fill="#5A5758"/>
<path d="M427.071 159.009C428.851 158.051 430.284 156.789 431.368 155.228C432.454 153.668 433.252 151.901 433.766 149.928C434.277 147.955 434.536 145.981 434.536 144.011C434.536 142.149 434.294 140.313 433.815 138.504C433.328 136.698 432.559 135.067 431.505 133.614C430.448 132.163 429.076 130.999 427.391 130.12C425.699 129.246 423.649 128.807 421.236 128.807C418.764 128.807 416.654 129.232 414.904 130.081C413.153 130.931 411.723 132.067 410.605 133.493C409.49 134.917 408.676 136.561 408.164 138.421C407.649 140.287 407.397 142.23 407.397 144.255C407.397 146.176 407.604 148.091 408.027 150.01C408.448 151.928 409.174 153.668 410.199 155.228C411.225 156.789 412.582 158.051 414.27 159.009C415.958 159.967 418.07 160.449 420.604 160.449C423.137 160.449 425.293 159.967 427.071 159.009ZM436.887 178.116C433.39 181.567 427.9 183.293 420.425 183.293C418.251 183.293 416.036 183.073 413.773 182.636C411.511 182.197 409.46 181.486 407.622 180.5C405.78 179.514 404.257 178.227 403.052 176.636C401.845 175.048 401.18 173.106 401.061 170.8H408.752C408.811 172.063 409.25 173.132 410.063 174.009C410.879 174.884 411.874 175.595 413.049 176.144C414.225 176.689 415.506 177.089 416.894 177.334C418.282 177.58 419.606 177.704 420.873 177.704C423.408 177.704 425.549 177.308 427.297 176.514C429.046 175.718 430.495 174.623 431.641 173.227C432.784 171.829 433.614 170.144 434.129 168.174C434.638 166.2 434.897 164.037 434.897 161.68V158.885H434.716C433.39 161.517 431.382 163.445 428.701 164.68C426.016 165.914 423.166 166.527 420.15 166.527C416.654 166.527 413.609 165.954 411.016 164.804C408.421 163.653 406.249 162.103 404.5 160.159C402.75 158.215 401.438 155.941 400.566 153.339C399.689 150.735 399.252 147.983 399.252 145.079C399.252 142.56 399.613 139.971 400.338 137.311C401.061 134.656 402.266 132.246 403.958 130.081C405.643 127.917 407.877 126.136 410.653 124.738C413.426 123.341 416.835 122.642 420.873 122.642C423.827 122.642 426.543 123.233 429.017 124.41C431.489 125.588 433.421 127.357 434.807 129.71H434.897V123.631H442.134V162.501C442.134 169.458 440.385 174.663 436.887 178.116Z" fill="#5A5758"/>
<path d="M472.079 171.788C471.174 173.868 470.285 175.621 469.414 177.047C468.537 178.473 467.572 179.636 466.517 180.541C465.462 181.443 464.283 182.102 462.99 182.512C461.691 182.923 460.198 183.131 458.508 183.131C457.603 183.131 456.699 183.072 455.796 182.963C454.891 182.854 454.016 182.663 453.173 182.388V175.978C453.833 176.253 454.605 176.486 455.48 176.677C456.352 176.871 457.092 176.964 457.696 176.964C459.264 176.964 460.576 176.624 461.631 175.939C462.684 175.253 463.483 174.279 464.027 173.021L467.195 165.871L448.648 123.631H457.336L470.993 158.391H471.174L484.295 123.631H492.435L472.079 171.788Z" fill="#5A5758"/>
<path d="M231.207 211.964C232.686 211.964 233.805 211.586 234.563 210.831C235.322 210.073 235.7 209.098 235.7 207.905C235.7 207.287 235.611 206.77 235.431 206.35C235.25 205.932 235.008 205.593 234.706 205.343C234.402 205.089 234.052 204.908 233.655 204.796C233.256 204.685 232.828 204.628 232.374 204.628H226.654L225.09 211.964H231.207ZM232.374 202.387C234.326 202.387 235.821 202.846 236.854 203.76C237.886 204.677 238.406 206.056 238.406 207.905C238.406 208.519 238.281 209.196 238.033 209.935C237.788 210.67 237.366 211.358 236.767 211.992C236.172 212.627 235.374 213.153 234.378 213.573C233.382 213.994 232.135 214.205 230.637 214.205H224.605L222.842 222.379H220.139L224.379 202.387H232.374Z" fill="#918F90"/>
<path d="M245.605 219.523C246.286 220.252 247.291 220.616 248.619 220.616C249.511 220.616 250.292 220.391 250.967 219.944C251.64 219.495 252.208 218.931 252.672 218.251C253.139 217.568 253.489 216.828 253.727 216.023C253.964 215.222 254.081 214.466 254.081 213.757C254.081 213.198 254.005 212.666 253.855 212.162C253.701 211.657 253.467 211.222 253.144 210.858C252.821 210.494 252.419 210.206 251.934 209.99C251.45 209.776 250.875 209.669 250.212 209.669C249.282 209.669 248.467 209.893 247.766 210.34C247.063 210.789 246.476 211.353 246.003 212.034C245.529 212.716 245.171 213.467 244.935 214.288C244.698 215.11 244.581 215.894 244.581 216.64C244.581 217.835 244.923 218.796 245.605 219.523ZM242.716 213.252C243.086 212.151 243.626 211.181 244.339 210.34C245.049 209.502 245.912 208.828 246.927 208.324C247.94 207.822 249.094 207.569 250.385 207.569C252.374 207.569 253.893 208.077 254.936 209.095C255.978 210.112 256.502 211.601 256.502 213.56C256.502 214.735 256.32 215.875 255.96 216.976C255.599 218.078 255.067 219.053 254.366 219.901C253.665 220.751 252.811 221.427 251.806 221.932C250.799 222.435 249.653 222.688 248.363 222.688C247.397 222.688 246.528 222.537 245.76 222.238C244.992 221.942 244.343 221.526 243.813 220.993C243.281 220.462 242.873 219.828 242.589 219.09C242.302 218.354 242.162 217.546 242.162 216.667C242.162 215.492 242.347 214.354 242.716 213.252Z" fill="#918F90"/>
<path d="M272.83 222.379L272.089 211.125H272.032L266.77 222.379H264.21L262.475 207.905H265.033L265.943 219.412H266.002L271.293 207.905H274.024L274.736 219.412H274.792L280.37 207.905H282.986L275.392 222.379H272.83Z" fill="#918F90"/>
<path d="M297.768 212.258C297.662 211.765 297.472 211.326 297.198 210.943C296.923 210.56 296.557 210.252 296.103 210.019C295.648 209.786 295.088 209.669 294.424 209.669C293.723 209.669 293.093 209.776 292.533 209.99C291.972 210.206 291.484 210.499 291.066 210.874C290.65 211.247 290.299 211.68 290.014 212.175C289.731 212.669 289.503 213.198 289.332 213.757H297.868C297.906 213.252 297.869 212.754 297.768 212.258ZM288.904 217.116C288.904 217.676 289.01 218.175 289.218 218.613C289.427 219.053 289.71 219.416 290.071 219.706C290.432 219.996 290.84 220.219 291.295 220.378C291.751 220.536 292.224 220.616 292.716 220.616C293.797 220.616 294.689 220.378 295.39 219.901C296.093 219.426 296.614 218.741 296.956 217.845H299.375C299.185 218.646 298.879 219.352 298.463 219.958C298.046 220.564 297.545 221.068 296.956 221.47C296.367 221.873 295.713 222.175 294.992 222.38C294.272 222.584 293.514 222.688 292.716 222.688C291.503 222.688 290.493 222.504 289.688 222.14C288.88 221.778 288.241 221.312 287.767 220.742C287.294 220.172 286.96 219.547 286.772 218.865C286.581 218.185 286.487 217.527 286.487 216.892C286.487 215.512 286.691 214.247 287.098 213.099C287.508 211.951 288.057 210.967 288.749 210.145C289.441 209.323 290.246 208.688 291.168 208.241C292.086 207.792 293.048 207.569 294.056 207.569C296.216 207.569 297.795 208.128 298.791 209.249C299.789 210.369 300.286 211.946 300.286 213.981C300.286 214.354 300.257 214.708 300.2 215.045C300.143 215.381 300.097 215.652 300.057 215.856H288.991C288.934 216.267 288.904 216.688 288.904 217.116Z" fill="#918F90"/>
<path d="M309.987 207.905L309.274 211.012H309.331C309.9 210.023 310.626 209.202 311.508 208.547C312.392 207.895 313.448 207.568 314.681 207.568C314.833 207.568 314.976 207.56 315.107 207.541C315.24 207.522 315.382 207.531 315.534 207.568L314.966 210.116C314.89 210.097 314.765 210.087 314.596 210.087H314.254C313.949 210.087 313.702 210.092 313.516 210.103C313.324 210.111 313.087 210.152 312.803 210.227C312.138 210.396 311.546 210.686 311.024 211.095C310.503 211.506 310.051 212.002 309.671 212.58C309.35 213.046 309.094 213.592 308.904 214.216C308.716 214.843 308.563 215.427 308.45 215.967L307.055 222.379H304.666L307.71 207.905H309.987Z" fill="#918F90"/>
<path d="M321.028 205.3L321.653 202.387H324.099L323.476 205.3H321.028ZM322.904 207.905L319.831 222.379H317.44L320.486 207.905H322.904Z" fill="#918F90"/>
<path d="M332.463 207.905L332.009 210.087H332.064C332.672 209.248 333.44 208.618 334.369 208.198C335.298 207.779 336.277 207.568 337.299 207.568C338.683 207.568 339.714 207.867 340.387 208.462C341.06 209.061 341.395 210.004 341.395 211.292C341.395 211.61 341.357 212.019 341.283 212.525C341.207 213.029 341.102 213.559 340.971 214.12L339.177 222.379H336.758L338.638 213.923C338.654 213.775 338.683 213.602 338.723 213.405C338.759 213.21 338.797 213.003 338.837 212.789C338.873 212.575 338.906 212.369 338.935 212.174C338.963 211.977 338.978 211.813 338.978 211.684C338.978 210.993 338.73 210.484 338.24 210.158C337.746 209.832 337.138 209.668 336.418 209.668C335.754 209.668 335.094 209.826 334.441 210.144C333.785 210.461 333.231 210.862 332.777 211.347C332.34 211.722 331.997 212.174 331.75 212.706C331.507 213.238 331.306 213.792 331.156 214.37L329.447 222.379H327.058L330.129 207.905H332.463Z" fill="#918F90"/>
<path d="M349.534 217.984C349.684 218.451 349.908 218.859 350.202 219.215C350.497 219.571 350.872 219.855 351.326 220.07C351.782 220.284 352.312 220.391 352.919 220.391C353.831 220.391 354.622 220.166 355.295 219.719C355.968 219.271 356.524 218.702 356.961 218.012C357.394 217.321 357.722 216.571 357.941 215.757C358.159 214.946 358.268 214.176 358.268 213.447C358.268 212.31 357.959 211.395 357.344 210.704C356.728 210.013 355.782 209.668 354.513 209.668C353.66 209.668 352.909 209.903 352.265 210.369C351.619 210.835 351.081 211.41 350.644 212.091C350.207 212.772 349.876 213.508 349.648 214.302C349.42 215.096 349.304 215.828 349.304 216.5C349.304 217.022 349.382 217.517 349.534 217.984ZM358.808 222.421C358.618 223.101 358.421 223.695 358.211 224.199C357.584 225.655 356.712 226.69 355.594 227.307C354.475 227.922 353.116 228.23 351.528 228.23C350.765 228.23 350.041 228.146 349.349 227.978C348.655 227.811 348.044 227.549 347.514 227.195C346.982 226.841 346.552 226.378 346.219 225.808C345.888 225.239 345.712 224.553 345.694 223.751H348.082C348.12 224.237 348.248 224.633 348.467 224.94C348.684 225.249 348.961 225.49 349.292 225.669C349.624 225.847 350.007 225.967 350.444 226.033C350.88 226.097 351.326 226.131 351.782 226.131C352.709 226.131 353.473 225.962 354.071 225.627C354.67 225.29 355.157 224.852 355.537 224.312C355.916 223.769 356.215 223.15 356.431 222.449C356.65 221.75 356.854 221.045 357.044 220.334L356.987 220.28C356.457 221.063 355.794 221.624 354.996 221.959C354.2 222.295 353.337 222.463 352.407 222.463C351.498 222.463 350.696 222.32 350.003 222.029C349.311 221.739 348.738 221.328 348.282 220.798C347.826 220.265 347.479 219.635 347.243 218.908C347.006 218.18 346.887 217.376 346.887 216.5C346.887 215.436 347.063 214.371 347.416 213.309C347.766 212.244 348.267 211.287 348.923 210.438C349.577 209.589 350.378 208.898 351.326 208.367C352.275 207.835 353.346 207.569 354.542 207.569C355.091 207.569 355.618 207.638 356.12 207.779C356.622 207.92 357.087 208.114 357.515 208.367C357.941 208.618 358.299 208.928 358.596 209.29C358.889 209.654 359.093 210.06 359.209 210.509V210.565H359.264L359.718 207.906H361.995L359.348 220.28C359.179 221.026 358.998 221.739 358.808 222.421Z" fill="#918F90"/>
<path d="M388.368 210.983C391.253 210.983 392.694 209.716 392.694 207.177C392.694 206.579 392.566 206.111 392.309 205.776C392.054 205.439 391.726 205.189 391.328 205.02C390.931 204.853 390.498 204.745 390.032 204.699C389.568 204.651 389.127 204.628 388.711 204.628H383.703L382.337 210.983H388.368ZM386.947 220.138C387.287 220.138 387.734 220.107 388.285 220.042C388.834 219.976 389.372 219.807 389.906 219.537C390.438 219.266 390.895 218.869 391.285 218.348C391.674 217.825 391.869 217.105 391.869 216.192C391.869 215.556 391.753 215.044 391.527 214.652C391.301 214.258 390.992 213.961 390.602 213.756C390.215 213.55 389.768 213.41 389.265 213.336C388.763 213.26 388.235 213.222 387.688 213.222H381.883L380.404 220.138H386.947ZM389.735 202.387C391.726 202.387 393.169 202.809 394.058 203.647C394.95 204.488 395.398 205.664 395.398 207.177C395.398 207.736 395.306 208.283 395.125 208.813C394.947 209.347 394.69 209.832 394.357 210.27C394.027 210.709 393.621 211.082 393.15 211.389C392.675 211.697 392.133 211.898 391.527 211.992V212.048C392.456 212.309 393.196 212.799 393.747 213.518C394.296 214.236 394.571 215.127 394.571 216.192C394.571 217.143 394.386 218.001 394.017 218.766C393.647 219.532 393.134 220.181 392.48 220.713C391.826 221.245 391.063 221.656 390.189 221.946C389.317 222.236 388.378 222.379 387.373 222.379H377.329L381.571 202.387H389.735Z" fill="#918F90"/>
<path d="M411.484 212.258C411.379 211.765 411.189 211.326 410.915 210.943C410.642 210.56 410.274 210.252 409.82 210.019C409.364 209.786 408.805 209.669 408.142 209.669C407.439 209.669 406.809 209.776 406.25 209.99C405.692 210.206 405.2 210.499 404.783 210.874C404.366 211.247 404.016 211.68 403.731 212.175C403.448 212.669 403.22 213.198 403.049 213.757H411.585C411.623 213.252 411.588 212.754 411.484 212.258ZM402.621 217.116C402.621 217.676 402.728 218.175 402.935 218.613C403.144 219.053 403.429 219.416 403.788 219.706C404.149 219.996 404.556 220.219 405.012 220.378C405.468 220.536 405.941 220.616 406.433 220.616C407.514 220.616 408.408 220.378 409.109 219.901C409.81 219.426 410.331 218.741 410.673 217.845H413.092C412.902 218.646 412.6 219.352 412.18 219.958C411.762 220.564 411.262 221.068 410.673 221.47C410.086 221.873 409.432 222.175 408.71 222.38C407.99 222.584 407.231 222.688 406.433 222.688C405.219 222.688 404.209 222.504 403.405 222.14C402.599 221.778 401.958 221.312 401.485 220.742C401.01 220.172 400.677 219.547 400.489 218.865C400.299 218.185 400.204 217.527 400.204 216.892C400.204 215.512 400.408 214.247 400.815 213.099C401.224 211.951 401.773 210.967 402.466 210.145C403.158 209.323 403.964 208.688 404.884 208.241C405.803 207.792 406.766 207.569 407.773 207.569C409.934 207.569 411.514 208.128 412.508 209.249C413.506 210.369 414.003 211.946 414.003 213.981C414.003 214.354 413.974 214.708 413.917 215.045C413.86 215.381 413.813 215.652 413.774 215.856H402.707C402.65 216.267 402.621 216.688 402.621 217.116Z" fill="#918F90"/>
<path d="M422.225 226.145C421.921 226.565 421.59 226.929 421.231 227.236C420.87 227.545 420.461 227.787 420.007 227.965C419.551 228.141 419.019 228.23 418.413 228.23C418.129 228.23 417.835 228.197 417.53 228.132C417.227 228.067 416.962 227.978 416.735 227.866L417.16 225.934C417.35 226.047 417.578 226.14 417.845 226.215C418.11 226.29 418.339 226.326 418.527 226.326C419.075 226.326 419.522 226.181 419.864 225.893C420.207 225.603 420.518 225.225 420.801 224.759L422.282 222.38L419.693 207.906H422.282L423.99 219.412H424.047L430.22 207.906H432.865L423.135 224.815C422.831 225.282 422.527 225.725 422.225 226.145Z" fill="#918F90"/>
<path d="M439.41 219.523C440.09 220.252 441.095 220.616 442.424 220.616C443.317 220.616 444.099 220.391 444.772 219.944C445.446 219.495 446.014 218.931 446.48 218.251C446.942 217.568 447.293 216.828 447.533 216.023C447.769 215.222 447.887 214.466 447.887 213.757C447.887 213.198 447.811 212.666 447.661 212.162C447.507 211.657 447.272 211.222 446.949 210.858C446.627 210.494 446.223 210.206 445.739 209.99C445.256 209.776 444.683 209.669 444.018 209.669C443.087 209.669 442.273 209.893 441.572 210.34C440.871 210.789 440.282 211.353 439.807 212.034C439.333 212.716 438.977 213.467 438.74 214.288C438.504 215.11 438.385 215.894 438.385 216.64C438.385 217.835 438.727 218.796 439.41 219.523ZM436.522 213.252C436.891 212.151 437.43 211.181 438.143 210.34C438.856 209.502 439.719 208.828 440.731 208.324C441.746 207.822 442.899 207.569 444.189 207.569C446.179 207.569 447.699 208.077 448.741 209.095C449.784 210.112 450.306 211.601 450.306 213.56C450.306 214.735 450.124 215.875 449.765 216.976C449.404 218.078 448.873 219.053 448.172 219.901C447.471 220.751 446.616 221.427 445.611 221.932C444.605 222.435 443.459 222.688 442.169 222.688C441.2 222.688 440.334 222.537 439.566 222.238C438.797 221.942 438.147 221.526 437.618 220.993C437.085 220.462 436.677 219.828 436.394 219.09C436.108 218.354 435.968 217.546 435.968 216.667C435.968 215.492 436.151 214.354 436.522 213.252Z" fill="#918F90"/>
<path d="M460.405 207.905L459.951 210.087H460.007C460.616 209.248 461.382 208.618 462.311 208.198C463.244 207.779 464.221 207.568 465.244 207.568C466.626 207.568 467.656 207.867 468.331 208.462C469.003 209.061 469.339 210.004 469.339 211.292C469.339 211.61 469.301 212.019 469.226 212.525C469.15 213.029 469.046 213.559 468.915 214.12L467.121 222.379H464.702L466.581 213.923C466.598 213.775 466.626 213.602 466.665 213.405C466.703 213.21 466.741 213.003 466.779 212.789C466.817 212.575 466.85 212.369 466.879 212.174C466.909 211.977 466.923 211.813 466.923 211.684C466.923 210.993 466.676 210.484 466.184 210.158C465.69 209.832 465.082 209.668 464.361 209.668C463.698 209.668 463.038 209.826 462.384 210.144C461.73 210.461 461.174 210.862 460.721 211.347C460.284 211.722 459.939 212.174 459.696 212.706C459.449 213.238 459.249 213.792 459.098 214.37L457.391 222.379H455L458.073 207.905H460.405Z" fill="#918F90"/>
<path d="M478.03 219.58C478.627 220.271 479.588 220.616 480.918 220.616C481.826 220.616 482.642 220.382 483.366 219.916C484.086 219.448 484.687 218.86 485.17 218.152C485.653 217.443 486.024 216.664 486.28 215.814C486.537 214.965 486.663 214.167 486.663 213.42C486.663 212.338 486.346 211.442 485.71 210.732C485.075 210.024 484.16 209.669 482.965 209.669C481.999 209.669 481.154 209.888 480.434 210.326C479.715 210.767 479.105 211.331 478.613 212.02C478.119 212.711 477.75 213.477 477.503 214.316C477.256 215.157 477.134 215.979 477.134 216.78C477.134 217.955 477.43 218.889 478.03 219.58ZM484.901 222.38L485.412 220.308H485.355C484.633 221.241 483.891 221.873 483.122 222.197C482.354 222.524 481.475 222.688 480.491 222.688C479.561 222.688 478.736 222.543 478.014 222.254C477.294 221.964 476.688 221.562 476.194 221.051C475.701 220.536 475.329 219.916 475.086 219.188C474.837 218.459 474.715 217.657 474.715 216.78C474.715 215.678 474.9 214.582 475.269 213.491C475.64 212.398 476.17 211.414 476.862 210.537C477.556 209.66 478.409 208.945 479.424 208.395C480.436 207.846 481.589 207.569 482.881 207.569C483.336 207.569 483.799 207.611 484.274 207.696C484.749 207.78 485.198 207.92 485.624 208.115C486.052 208.312 486.425 208.572 486.75 208.899C487.071 209.225 487.309 209.631 487.461 210.117H487.518L489.082 202.388H491.473L487.178 222.38H484.901Z" fill="#918F90"/>
<path d="M493.604 159.699C493.859 159.699 494.103 159.69 494.329 159.675C494.56 159.658 494.764 159.61 494.944 159.533C495.12 159.453 495.261 159.335 495.368 159.174C495.475 159.013 495.527 158.788 495.527 158.497C495.527 158.253 495.479 158.06 495.386 157.913C495.291 157.77 495.168 157.658 495.018 157.581C494.868 157.504 494.693 157.45 494.498 157.422C494.303 157.394 494.112 157.38 493.922 157.38H492.416V159.699H493.604ZM494.105 156.463C494.975 156.463 495.619 156.635 496.038 156.979C496.458 157.325 496.665 157.847 496.665 158.547C496.665 159.204 496.48 159.686 496.114 159.99C495.746 160.298 495.289 160.478 494.742 160.534L496.834 163.752H495.612L493.619 160.616H492.416V163.752H491.278V156.463H494.105ZM488.944 162.209C489.209 162.861 489.569 163.425 490.032 163.903C490.495 164.381 491.042 164.757 491.67 165.03C492.301 165.303 492.984 165.438 493.721 165.438C494.446 165.438 495.12 165.303 495.746 165.03C496.37 164.757 496.912 164.381 497.376 163.903C497.839 163.425 498.201 162.861 498.464 162.209C498.724 161.559 498.856 160.85 498.856 160.083C498.856 159.338 498.724 158.641 498.464 157.997C498.201 157.352 497.839 156.795 497.376 156.321C496.912 155.849 496.37 155.475 495.746 155.203C495.12 154.929 494.446 154.794 493.721 154.794C492.984 154.794 492.301 154.929 491.67 155.203C491.042 155.475 490.495 155.849 490.032 156.321C489.569 156.795 489.209 157.352 488.944 157.997C488.684 158.641 488.552 159.338 488.552 160.083C488.552 160.85 488.684 161.559 488.944 162.209ZM487.917 157.63C488.25 156.874 488.706 156.219 489.279 155.663C489.854 155.106 490.522 154.67 491.287 154.351C492.052 154.036 492.862 153.877 493.721 153.877C494.579 153.877 495.387 154.036 496.147 154.351C496.907 154.67 497.569 155.106 498.136 155.663C498.707 156.219 499.156 156.874 499.493 157.63C499.828 158.386 499.995 159.204 499.995 160.083C499.995 160.983 499.828 161.814 499.493 162.578C499.156 163.34 498.707 164.001 498.136 164.562C497.569 165.125 496.907 165.56 496.147 165.872C495.387 166.184 494.579 166.338 493.721 166.338C492.862 166.338 492.052 166.184 491.287 165.872C490.522 165.56 489.854 165.125 489.279 164.562C488.706 164.001 488.25 163.34 487.917 162.578C487.581 161.814 487.413 160.983 487.413 160.083C487.413 159.204 487.581 158.386 487.917 157.63Z" fill="#5A5758"/>
</g>
<defs>
<clipPath id="clip0_6_15642">
<rect width="500" height="228.23" fill="white"/>
</clipPath>
</defs>
</svg>
