<svg width="500" height="97" viewBox="0 0 500 97" fill="none" xmlns="http://www.w3.org/2000/svg">
<g clip-path="url(#clip0_6_15644)">
<path d="M95.7651 39.2519V39.946V40.0722C95.3858 40.3562 94.6905 40.7979 93.8372 41.2397C92.8574 41.8076 91.6248 42.2809 90.3606 42.2809C89.0015 42.2809 87.6741 41.7129 86.6311 41.0819C85.4301 40.4508 84.6084 39.7567 84.6084 39.7567C84.6084 39.7567 83.913 40.3246 82.87 40.8926C82.0167 41.429 80.9421 41.9969 79.7727 42.1862C79.6252 42.2283 79.4672 42.2493 79.2986 42.2493C79.1301 42.2704 78.972 42.2809 78.8245 42.2809C77.4971 42.2809 76.2013 41.7445 75.1583 41.145C73.9257 40.4824 73.0407 39.7567 73.0407 39.7567C73.0407 39.7567 72.1558 40.514 70.8915 41.1765C69.8486 41.7445 68.5527 42.2809 67.2569 42.2809C65.8979 42.2809 64.5704 41.6814 63.4958 41.0819C62.3264 40.4508 61.5047 39.7567 61.5047 39.7567C61.5047 39.7567 60.6197 40.514 59.3555 41.1765C58.3125 41.7445 57.0167 42.2809 55.7209 42.2809C52.8448 42.2809 50.0003 39.662 49.9687 39.662C49.9687 39.6936 49.9687 39.7567 49.9687 39.7567V39.6305V43.9531V43.7323C49.9687 43.7323 52.8448 46.3511 55.7209 46.3511C58.6286 46.3511 61.5047 43.9531 61.5047 43.9531C61.5047 43.9531 64.3808 46.3511 67.2885 46.3511C70.1646 46.3511 73.0407 43.9531 73.0407 43.9531C73.0407 43.9531 75.9168 46.3511 78.8245 46.3511C78.972 46.3511 79.1301 46.3511 79.2986 46.3511C79.4672 46.3301 79.6252 46.309 79.7727 46.288C81.9535 45.8778 83.913 44.458 84.4503 44.0478V48.686L82.3644 50.2005C81.6058 50.6107 80.7209 50.9893 79.7727 51.1786C79.6252 51.1996 79.4672 51.2207 79.2986 51.2417C79.1301 51.2627 78.972 51.2733 78.8245 51.2733C75.9168 51.2417 73.0723 48.6229 73.0723 48.6229H73.0407C73.0407 48.6229 70.1646 51.2733 67.2885 51.2733C64.3808 51.2733 61.5047 48.6229 61.5047 48.6229C61.5047 48.6229 58.6286 51.2733 55.7209 51.2733C52.8448 51.2733 49.9687 48.6229 49.9687 48.6229V52.914V52.6931C49.9687 52.6931 52.8448 55.3435 55.7209 55.3435C58.6286 55.3435 61.5047 52.914 61.5047 52.914C61.5047 52.914 64.3808 55.3435 67.2885 55.3435C69.7853 55.3435 72.2822 53.5135 72.9143 53.0402V57.6153C72.3138 58.1201 69.7853 60.1394 67.2569 60.1394C64.3808 60.1394 61.5047 57.489 61.5047 57.489C61.5047 57.489 58.597 60.1394 55.7209 60.1394C52.8448 60.1394 49.9687 57.489 49.9687 57.489C49.9687 57.489 49.9581 57.489 49.9371 57.489V61.7802L49.9687 61.5593C49.9687 61.5593 52.8448 64.2097 55.7209 64.2097C58.597 64.2097 61.5047 61.7802 61.5047 61.7802C61.5047 61.7802 64.3808 64.2097 67.2569 64.2097C68.4895 64.2097 69.6905 63.7679 70.7019 63.2631L81.6374 96.1405L50.4743 73.2021L19.3429 96.1405L31.5426 59.4453L0.0634766 36.917L38.7803 37.1694L50.4743 0.316406L60.9042 33.2569C61.0938 33.8564 61.4415 34.519 61.9156 35.1501C62.4212 35.7811 63.0218 36.2859 63.5907 36.633C64.6336 37.2325 65.9611 37.7689 67.2885 37.7689C70.1646 37.7689 73.0407 35.1501 73.0407 35.1501H73.0723C73.0723 35.1501 75.9484 37.7689 78.8245 37.7689C78.972 37.7689 79.1301 37.7689 79.2986 37.7689H79.3302C79.4777 37.7479 79.6252 37.7268 79.7727 37.7058H79.8043C82.0167 37.2641 84.0711 35.6234 84.5135 35.2132C84.5767 35.1816 84.6084 35.1501 84.6084 35.1501C84.6084 35.1501 87.4845 37.7689 90.3606 37.7689C92.6678 37.7689 94.9118 36.1597 95.7651 35.4656V39.2519Z" fill="#005E9C"/>
<path fill-rule="evenodd" clip-rule="evenodd" d="M114.444 41.556C114.982 40.0415 115.171 39.7891 115.456 39.7891C115.708 39.7891 115.898 40.0099 116.467 41.4298C117.131 43.1652 124.305 62.0334 127.118 68.9749C128.762 73.0451 130.089 73.7708 131.037 74.0548C131.732 74.2757 132.428 74.3388 132.87 74.3388C132.933 74.3388 132.997 74.3388 133.06 74.3388C133.081 74.3388 133.113 74.3388 133.155 74.3388C133.471 74.3388 133.755 74.2757 134.356 74.181C135.652 73.9601 135.715 72.5403 135.904 71.0889L138.812 45.7209C138.875 45.3107 139.033 45.0267 139.286 45.0267C139.539 45.0267 139.887 45.1845 140.108 45.6262L152.276 69.7637L163.97 45.6893C164.16 45.3107 164.349 45.0267 164.602 45.0267C164.887 45.0267 165.108 45.3423 165.203 46.0995L167.952 69.953C168.079 71.3097 168.363 73.4237 170.007 73.9601C171.145 74.3388 172.188 74.3388 172.598 74.3388C172.788 74.3388 172.946 74.4019 172.946 74.5912C172.946 74.8436 172.567 74.9698 172.124 74.9698C171.208 74.9698 166.72 74.8751 165.266 74.7489C164.286 74.6543 164.097 74.4965 164.097 74.3388C164.097 74.181 164.191 74.0548 164.381 73.9917C164.602 73.9601 164.665 73.3606 164.571 72.6349L162.643 52.9779H162.548L152.845 72.8243C152.023 74.4965 151.802 74.8751 151.454 74.8751C151.075 74.8751 150.854 74.4965 150.064 73.0767C149.021 71.1835 146.366 66.1983 145.354 64.0843C144.185 61.6232 140.93 55.0919 140.234 53.4827H140.045L138.496 71.0258C138.464 71.6253 138.464 72.351 138.464 73.0136C138.464 73.5815 138.812 73.9601 139.413 74.0863C140.108 74.2757 140.677 74.3388 140.961 74.3388C141.119 74.3388 141.277 74.465 141.277 74.5912C141.277 74.8751 141.024 74.9698 140.55 74.9698C139.033 74.9698 137.137 74.8436 136.821 74.8436C136.442 74.8436 134.514 74.9698 133.408 74.9698C133.239 74.9698 133.102 74.9488 132.997 74.9067C132.839 74.9383 132.617 74.9698 132.428 74.9698C131.732 74.9698 128.382 74.9698 125.222 74.8751C124.368 74.8436 123.863 74.8436 123.863 74.5596C123.863 74.3703 123.989 74.2757 124.179 74.2441C124.463 74.1494 124.716 73.7393 124.463 73.0136L120.196 61.7494C120.102 61.5917 120.007 61.497 119.786 61.497H109.956C109.735 61.497 109.609 61.6232 109.514 61.8441L106.764 69.953C106.353 71.0889 106.132 72.1617 106.132 73.0136C106.132 73.9286 107.08 74.3388 107.87 74.3388H108.313C108.629 74.3388 108.755 74.4019 108.755 74.5912C108.755 74.8751 108.502 74.9698 108.091 74.9698C106.985 74.9698 105.026 74.8436 104.52 74.8436C104.014 74.8436 101.518 74.9698 99.3367 74.9698C98.7678 74.9698 98.4834 74.8751 98.4834 74.5912C98.4834 74.4019 98.673 74.3388 98.8943 74.3388C99.2103 74.3388 99.8424 74.2757 100.222 74.2441C102.339 73.9601 103.256 72.2248 104.046 69.953L114.444 41.556ZM119.185 59.8563C119.438 59.8563 119.438 59.6985 119.375 59.5092L115.045 47.1723C114.813 46.4992 114.581 46.4992 114.349 47.1723L110.335 59.5092C110.241 59.7616 110.335 59.8563 110.462 59.8563H119.185ZM201.296 56.8273C201.296 50.8008 201.296 49.6965 201.201 48.4659C201.107 47.1407 200.885 46.5097 199.558 46.3204C199.242 46.2573 198.547 46.2257 198.167 46.2257C198.041 46.2257 197.851 46.0364 197.851 45.9102C197.851 45.6893 198.041 45.5947 198.483 45.5947C200.317 45.5947 203.035 45.6893 203.256 45.6893C203.667 45.6893 207.049 45.5947 208.281 45.5947C210.841 45.5947 213.686 45.8155 215.803 47.2669C216.783 48.0242 218.585 49.8858 218.585 52.5677C218.585 55.439 217.384 58.2471 213.622 61.4339C216.941 65.5357 219.722 69.0695 222.061 71.4991C224.21 73.6762 225.538 74.0548 226.518 74.181C227.308 74.3388 227.719 74.3388 227.94 74.3388C227.982 74.3388 228.014 74.3388 228.035 74.3388C228.056 74.3388 228.077 74.3388 228.098 74.3388C228.445 74.3388 228.951 74.2441 229.33 74.1494C230.089 73.9601 230.247 73.2344 230.373 72.067C230.563 70.4894 230.595 67.4288 230.595 63.6741V56.8273C230.595 50.8008 230.595 49.6965 230.5 48.4659C230.405 47.1407 230.089 46.5412 229.236 46.3519C228.762 46.2573 228.256 46.2257 228.003 46.2257C227.813 46.2257 227.687 46.0364 227.687 45.9102C227.687 45.6893 227.845 45.5947 228.319 45.5947C229.646 45.5947 232.143 45.6893 232.396 45.6893C232.554 45.6893 235.177 45.5947 236.41 45.5947C236.884 45.5947 237.042 45.6893 237.042 45.9102C237.042 46.0364 236.884 46.2257 236.726 46.2257C236.442 46.2257 236.189 46.2257 235.746 46.3204C234.609 46.5412 234.387 47.0776 234.292 48.4659C234.261 49.6965 234.261 50.8008 234.261 56.8273V63.6741C234.261 67.4288 234.261 70.4894 234.451 72.067C234.577 73.2344 234.703 73.9601 235.904 74.1494C236.505 74.2441 237.358 74.3388 237.738 74.3388C237.959 74.3388 238.054 74.4965 238.054 74.6543C238.054 74.8436 237.864 74.9698 237.421 74.9698C235.177 74.9698 232.554 74.8436 232.396 74.8436C232.143 74.8436 229.646 74.9698 228.414 74.9698C228.245 74.9698 228.108 74.9488 228.003 74.9067C227.856 74.9488 227.645 74.9698 227.371 74.9698H224.842C222.567 74.9698 221.555 74.7489 220.544 74.181C218.806 73.266 217.352 71.4044 215.045 68.47C213.37 66.3876 211.568 63.8634 210.715 62.8222C210.525 62.6329 210.43 62.5698 210.146 62.5698L205.026 62.4751C204.868 62.4751 204.773 62.5698 204.773 62.8222V63.7372C204.773 67.4604 204.773 70.4894 204.963 72.0986C205.089 73.2344 205.31 73.9601 206.543 74.1494C207.112 74.2441 207.965 74.3388 208.344 74.3388C208.597 74.3388 208.66 74.4965 208.66 74.6543C208.66 74.8436 208.471 74.9698 208.028 74.9698C205.816 74.9698 203.256 74.8436 203.066 74.8436C203.035 74.8436 200.317 74.9698 199.084 74.9698C198.673 74.9698 198.452 74.8751 198.452 74.6543C198.452 74.4965 198.547 74.3388 198.768 74.3388C199.147 74.3388 199.653 74.2441 200 74.1494C200.791 73.9601 200.885 73.2344 201.075 72.0986C201.296 70.4894 201.296 67.4288 201.296 63.6741V56.8273ZM204.773 60.1087C204.773 60.3296 204.868 60.4873 205.026 60.6135C205.626 60.9291 207.681 61.213 209.482 61.213C210.43 61.213 211.536 61.1499 212.485 60.5189C213.875 59.6039 214.918 57.553 214.918 54.5871C214.918 49.728 212.263 46.9514 207.965 46.9514C206.764 46.9514 205.5 47.0776 205.089 47.1723C204.899 47.2669 204.773 47.4247 204.773 47.6456V60.1087ZM178.035 56.8273C178.035 50.8008 178.035 49.6965 177.94 48.4659C177.845 47.1407 177.592 46.5097 176.296 46.3204C175.949 46.2573 175.285 46.2257 174.906 46.2257C174.779 46.2257 174.59 46.0364 174.59 45.9102C174.59 45.6893 174.779 45.5947 175.222 45.5947C177.055 45.5947 179.678 45.6893 179.899 45.6893C180.184 45.6893 188.591 45.7209 189.507 45.6893C190.266 45.6262 190.993 45.5 191.341 45.4369C191.499 45.4054 191.688 45.2792 191.878 45.2792C192.004 45.2792 192.067 45.4369 192.067 45.6262C192.067 45.9102 191.846 46.3519 191.72 47.4563C191.688 47.8349 191.593 49.5703 191.499 50.012C191.467 50.2013 191.341 50.4222 191.151 50.4222C190.93 50.4222 190.835 50.2329 190.835 49.9173C190.835 49.6649 190.772 49.0023 190.582 48.5606C190.329 47.9295 189.918 47.6456 187.706 47.3616C187.011 47.2669 182.365 47.2354 181.89 47.2354C181.732 47.2354 181.669 47.3616 181.669 47.6456V58.184C181.669 58.468 181.669 58.6257 181.89 58.6257C182.396 58.6257 187.706 58.6257 188.622 58.5311C189.602 58.4364 190.171 58.3733 190.582 57.9631C190.866 57.6792 191.056 57.4583 191.183 57.4583C191.341 57.4583 191.404 57.553 191.404 57.7738C191.404 58.0263 191.183 58.6573 191.088 59.9194C190.993 60.7082 190.93 62.1596 190.93 62.4436C190.93 62.7591 190.835 63.1693 190.55 63.1693C190.361 63.1693 190.266 63.0431 190.266 62.8222C190.266 62.4436 190.266 62.0334 190.108 61.5286C189.95 60.9922 189.602 60.5189 188.022 60.3296C186.947 60.2034 182.649 60.1718 181.954 60.1718C181.732 60.1718 181.669 60.298 181.669 60.4242V63.6741C181.669 64.9993 181.638 69.5428 181.669 70.3001C181.764 72.9189 182.491 73.4237 186.473 73.4237C187.548 73.4237 189.444 73.4237 190.519 73.0136C191.562 72.5403 192.099 71.8461 192.32 70.3001C192.415 69.8583 192.51 69.7006 192.731 69.7006C192.984 69.7006 193.016 70.0161 193.016 70.3001C193.016 70.584 192.7 73.2344 192.478 74.0548C192.194 75.0645 191.783 75.0645 190.234 75.0645C187.2 75.0645 184.893 74.9698 183.25 74.9067C181.543 74.8436 180.5 74.8436 179.899 74.8436C179.805 74.8436 179.014 74.8436 178.161 74.8751C177.371 74.9067 176.454 74.9698 175.822 74.9698C175.411 74.9698 175.19 74.8751 175.19 74.6543C175.19 74.4965 175.285 74.3388 175.506 74.3388C175.885 74.3388 176.36 74.181 176.739 74.1494C177.529 73.9917 177.592 73.2344 177.782 72.0986C178.035 70.4894 178.035 67.4288 178.035 63.6741V56.8273ZM246.018 71.3097C242.099 67.9337 241.119 63.4848 241.119 59.7932C241.119 57.2059 242.099 52.6624 245.639 49.1916C248.073 46.8568 251.739 45.0583 257.902 45.0583C259.514 45.0583 261.789 45.1845 263.749 45.5C265.266 45.784 266.562 46.0364 267.889 46.0995C268.3 46.0995 268.395 46.2573 268.395 46.5097C268.395 46.8252 268.3 47.2669 268.205 48.6868C268.142 49.9804 268.142 52.126 268.11 52.6624C268.047 53.2619 267.889 53.4827 267.668 53.4827C267.384 53.4827 267.32 53.2303 267.32 52.6624C267.32 51.1479 266.688 49.6018 265.645 48.7815C264.223 47.5825 261.284 46.6359 257.712 46.6359C252.561 46.6359 250.095 48.0242 248.673 49.3494C245.702 52.0629 245.07 55.5336 245.07 59.4777C245.07 66.924 250.949 73.55 259.545 73.55C262.579 73.55 264.602 73.3291 266.183 71.7199C267.067 70.868 267.605 69.1957 267.731 68.47C267.826 68.0599 267.889 67.9337 268.142 67.9337C268.332 67.9337 268.521 68.1861 268.521 68.47C268.521 68.754 267.984 72.1301 267.573 73.4553C267.32 74.181 267.226 74.3388 266.562 74.5912C264.918 75.2538 261.884 75.4746 259.293 75.4746C253.256 75.4746 249.179 74.0548 246.018 71.3097ZM282.902 46.3519C283.408 45.0898 283.597 44.8374 283.882 44.8374C284.292 44.8374 284.419 45.4054 284.83 46.2573C285.557 47.9295 292.004 63.9581 294.501 69.8583C295.955 73.3291 297.061 73.8024 297.915 74.0863C298.515 74.2757 299.116 74.3388 299.526 74.3388C299.547 74.3388 299.558 74.3388 299.558 74.3388C299.874 74.3388 300.601 74.2757 301.201 74.0863C302.213 73.8024 302.339 72.7611 302.339 69.2589V47.0145C302.339 45.4369 302.561 45.0267 302.877 45.0267C303.351 45.0267 304.014 45.8155 304.425 46.2257C305.089 46.8568 310.936 53.0726 317.131 59.4777C321.113 63.5794 325.411 68.1861 326.676 69.4797L326.233 50.012C326.201 47.5194 325.98 46.6359 324.748 46.415C324.021 46.2573 323.104 46.2257 322.756 46.2257C322.504 46.2257 322.44 46.0049 322.44 45.8471C322.44 45.6262 322.756 45.5947 323.231 45.5947C325.064 45.5947 326.992 45.6578 327.434 45.6578C327.877 45.6578 329.204 45.5947 330.879 45.5947C331.29 45.5947 331.606 45.6262 331.606 45.8471C331.606 46.0049 331.416 46.2257 331.132 46.2257C330.942 46.2257 330.626 46.2257 330.184 46.3204C328.856 46.6043 328.762 47.3616 328.762 49.6965L328.667 72.4456C328.667 75.0014 328.635 75.2538 328.351 75.2538C327.94 75.2538 327.529 74.9067 325.285 72.8558C324.874 72.4772 319.059 66.7662 314.823 62.3489C310.146 57.4583 305.626 52.7255 304.394 51.3372L304.836 69.669C304.931 72.8558 305.31 73.8024 306.416 74.0863C307.143 74.2757 308.06 74.3388 308.408 74.3388C308.597 74.3388 308.724 74.465 308.724 74.6543C308.724 74.8751 308.471 74.9698 307.997 74.9698C305.721 74.9698 304.109 74.8436 303.762 74.8436C303.382 74.8436 301.707 74.9698 299.874 74.9698C299.727 74.9698 299.611 74.9593 299.526 74.9383C299.4 74.9593 299.263 74.9698 299.116 74.9698C298.515 74.9698 295.544 74.9698 292.731 74.8751C291.973 74.8436 291.341 74.8436 291.341 74.5912C291.341 74.4019 291.435 74.4019 291.593 74.3388C291.815 74.2441 292.225 73.897 291.973 73.266L288.338 64.3683C288.275 64.1789 288.212 64.1474 287.99 64.1474H278.698C278.509 64.1474 278.382 64.2105 278.287 64.4629L276.012 70.6787C275.633 71.6253 275.411 72.5718 275.411 73.266C275.411 74.0548 276.107 74.3388 276.77 74.3388H277.15C277.466 74.3388 277.561 74.465 277.561 74.6543C277.561 74.8751 277.339 74.9698 276.96 74.9698C276.012 74.9698 273.799 74.8436 273.357 74.8436C272.946 74.8436 270.923 74.9698 269.28 74.9698C268.774 74.9698 268.49 74.8751 268.49 74.6543C268.49 74.465 268.679 74.3388 268.869 74.3388C269.153 74.3388 269.754 74.2757 270.07 74.2441C271.903 73.9917 272.662 72.6349 273.452 70.6787L282.902 46.3519ZM287.39 62.5382C287.579 62.5382 287.579 62.4436 287.516 62.2543L283.534 51.6212C283.323 51.0322 283.102 51.0322 282.87 51.6212L279.109 62.2543C279.067 62.4436 279.12 62.5382 279.267 62.5382H287.39ZM383.123 68.6594H383.281C384.514 64.4629 388.717 51.211 390.329 45.3423C390.803 43.67 390.835 43.0389 390.835 42.4395C390.835 41.6191 390.329 41.0512 388.212 41.0512C387.99 41.0512 387.801 40.9249 387.801 40.7356C387.801 40.5148 388.054 40.4201 388.591 40.4201C390.93 40.4201 392.858 40.5779 393.268 40.5779C393.585 40.5779 395.544 40.4201 396.966 40.4201C397.377 40.4201 397.598 40.5148 397.598 40.7041C397.598 40.9249 397.472 41.0512 397.188 41.0512C396.998 41.0512 396.145 41.1143 395.639 41.3036C394.28 41.8084 393.521 43.7015 392.668 46.2257C390.645 52.0313 386.031 66.5454 384.261 71.6884C383.06 75.0645 382.839 75.6008 382.333 75.6008C381.859 75.6008 381.606 75.0014 380.974 73.2344L371.998 47.8349H371.903C370.26 52.2206 364.002 68.9433 362.358 73.1713C361.631 75.096 361.378 75.6008 360.841 75.6008C360.367 75.6008 360.146 75.096 359.229 72.0039L351.107 44.9005C350.38 42.471 349.779 41.8084 348.578 41.3351C347.978 41.1143 346.84 41.0512 346.524 41.0512C346.303 41.0512 346.113 41.0196 346.113 40.7356C346.113 40.5148 346.397 40.4201 346.84 40.4201C349.21 40.4201 351.739 40.5779 352.244 40.5779C352.655 40.5779 354.678 40.4201 356.954 40.4201C357.586 40.4201 357.775 40.5779 357.775 40.7356C357.775 41.0196 357.554 41.0512 357.301 41.0512C356.954 41.0512 356.069 41.0512 355.531 41.3351C355.247 41.4613 354.931 41.84 354.931 42.4395C354.931 43.0389 355.342 44.6166 355.816 46.6359C356.48 49.5703 361.252 66.3245 361.916 68.754H362.011L371.714 42.7234C372.409 40.8303 372.598 40.6094 372.851 40.6094C373.199 40.6094 373.452 41.2089 374.021 42.755L383.123 68.6594ZM405.689 46.3519C406.164 45.0898 406.353 44.8374 406.638 44.8374C407.048 44.8374 407.175 45.4054 407.586 46.2573C408.313 47.9295 414.792 63.9581 417.257 69.8583C418.711 73.3291 419.786 73.8024 420.671 74.0863C421.271 74.2757 421.872 74.3388 422.282 74.3388C422.504 74.3388 422.788 74.4019 422.788 74.6543C422.788 74.8751 422.314 74.9698 421.872 74.9698C421.271 74.9698 418.3 74.9698 415.519 74.8751C414.729 74.8436 414.097 74.8436 414.097 74.5912C414.097 74.4019 414.191 74.4019 414.349 74.3388C414.602 74.2441 415.013 73.897 414.729 73.266L411.126 64.3683C411.031 64.1789 410.968 64.1474 410.746 64.1474H401.454C401.296 64.1474 401.138 64.2105 401.043 64.4629L398.768 70.6787C398.389 71.6253 398.167 72.5718 398.167 73.266C398.167 74.0548 398.863 74.3388 399.558 74.3388H399.906C400.222 74.3388 400.317 74.465 400.317 74.6543C400.317 74.8751 400.095 74.9698 399.716 74.9698C398.768 74.9698 396.587 74.8436 396.113 74.8436C395.702 74.8436 393.679 74.9698 392.036 74.9698C391.562 74.9698 391.277 74.8751 391.277 74.6543C391.277 74.465 391.435 74.3388 391.625 74.3388C391.909 74.3388 392.51 74.2757 392.826 74.2441C394.659 73.9917 395.449 72.6349 396.208 70.6787L405.689 46.3519ZM410.146 62.5382C410.335 62.5382 410.335 62.4436 410.304 62.2543L406.322 51.6212C406.09 51.0322 405.858 51.0322 405.626 51.6212L401.865 62.2543C401.834 62.4436 401.865 62.5382 402.023 62.5382H410.146ZM433.408 63.6741C433.408 67.4288 433.408 70.4894 433.597 72.067C433.724 73.2344 433.913 73.9601 435.146 74.1494C435.683 74.2441 436.6 74.3388 436.979 74.3388C437.232 74.3388 437.295 74.4965 437.295 74.6543C437.295 74.8436 437.105 74.9698 436.631 74.9698C434.451 74.9698 431.891 74.8436 431.669 74.8436C431.48 74.8436 428.698 74.9698 427.497 74.9698C427.055 74.9698 426.865 74.8751 426.865 74.6543C426.865 74.4965 426.96 74.3703 427.181 74.3703C427.561 74.3703 428.003 74.2757 428.382 74.181C429.204 73.9917 429.425 73.2344 429.552 72.067C429.741 70.4894 429.741 67.4288 429.741 63.6741V47.3616L423.926 47.4563C421.429 47.5194 420.449 47.7718 419.849 48.6868C419.406 49.3809 419.343 49.6649 419.217 49.9173C419.122 50.2329 418.995 50.296 418.806 50.296C418.711 50.296 418.521 50.2013 418.521 49.9804C418.521 49.5703 419.343 46.0995 419.406 45.784C419.501 45.5316 419.659 45.0267 419.817 45.0267C420.102 45.0267 420.512 45.3423 421.587 45.5C422.757 45.6262 424.305 45.6893 424.748 45.6893H439.95C441.277 45.6893 442.194 45.5947 442.826 45.5C443.427 45.4054 443.774 45.3107 443.964 45.3107C444.153 45.3107 444.153 45.5316 444.153 45.784C444.153 46.9514 444.027 49.7596 444.027 50.2013C444.027 50.5168 443.837 50.7061 443.648 50.7061C443.458 50.7061 443.363 50.5799 443.332 50.012L443.268 49.6018C443.142 48.4344 442.257 47.5509 438.433 47.4563L433.408 47.3616V63.6741ZM450.222 56.8273C450.222 50.8008 450.222 49.6965 450.127 48.4659C450.032 47.1407 449.811 46.5097 448.483 46.3204C448.167 46.2888 447.472 46.2257 447.093 46.2257C446.966 46.2257 446.777 46.0364 446.777 45.9102C446.777 45.6893 446.966 45.5947 447.409 45.5947C449.242 45.5947 451.865 45.6893 452.086 45.6893C452.371 45.6893 460.778 45.7209 461.695 45.6893C462.485 45.6262 463.212 45.5 463.528 45.4369C463.717 45.4054 463.907 45.2792 464.065 45.2792C464.223 45.2792 464.255 45.4369 464.255 45.6262C464.255 45.9102 464.033 46.3519 463.939 47.4563C463.907 47.8349 463.812 49.5703 463.717 50.012C463.654 50.2013 463.528 50.4222 463.338 50.4222C463.117 50.4222 463.022 50.2644 463.022 49.9173C463.022 49.6649 462.959 49.0023 462.801 48.5606C462.516 47.9295 462.105 47.6456 459.925 47.3616C459.229 47.2669 454.552 47.2354 454.109 47.2354C453.92 47.2354 453.888 47.3616 453.888 47.6456V58.184C453.888 58.468 453.888 58.6257 454.109 58.6257C454.615 58.6257 459.925 58.6257 460.841 58.5311C461.789 58.4364 462.39 58.3733 462.801 57.9631C463.054 57.7107 463.243 57.4583 463.401 57.4583C463.528 57.4583 463.622 57.553 463.622 57.7738C463.622 58.0263 463.401 58.6573 463.306 59.9194C463.212 60.7082 463.117 62.1596 463.117 62.4436C463.117 62.7591 463.022 63.1693 462.738 63.1693C462.548 63.1693 462.485 63.0431 462.485 62.8222C462.485 62.4436 462.485 62.0334 462.295 61.5286C462.169 60.9922 461.789 60.5189 460.241 60.3611C459.134 60.2034 454.836 60.1718 454.141 60.1718C453.92 60.1718 453.888 60.298 453.888 60.4242V63.6741C453.888 64.9993 453.825 69.5428 453.888 70.3001C453.951 72.9189 454.71 73.4237 458.66 73.4237C459.735 73.4237 461.631 73.4237 462.706 73.0136C463.749 72.5403 464.286 71.8461 464.539 70.3001C464.634 69.8583 464.729 69.7006 464.95 69.7006C465.171 69.7006 465.234 70.0161 465.234 70.3001C465.234 70.584 464.887 73.2344 464.665 74.0548C464.381 75.0645 463.97 75.0645 462.421 75.0645C459.419 75.0645 457.08 74.9698 455.437 74.9067C453.73 74.8436 452.687 74.8436 452.086 74.8436C451.992 74.8436 451.233 74.8436 450.348 74.8751C449.59 74.9067 448.673 74.9698 448.009 74.9698C447.598 74.9698 447.377 74.8751 447.377 74.6543C447.377 74.4965 447.472 74.3388 447.693 74.3388C448.073 74.3388 448.578 74.181 448.926 74.1494C449.716 73.9917 449.811 73.2344 450 72.0986C450.222 70.4894 450.222 67.4288 450.222 63.6741V56.8273ZM472.725 56.8273C472.725 50.8008 472.725 49.6965 472.63 48.4659C472.567 47.1407 472.314 46.5097 470.987 46.3204C470.671 46.2888 469.975 46.2257 469.628 46.2257C469.501 46.2257 469.311 46.0364 469.311 45.9102C469.311 45.6893 469.501 45.5947 469.944 45.5947C471.777 45.5947 474.463 45.6893 474.684 45.6893C475.127 45.6893 478.509 45.5947 479.741 45.5947C482.301 45.5947 485.114 45.8155 487.232 47.2669C488.243 48.0242 490.013 49.8858 490.013 52.5677C490.013 55.4705 488.844 58.2471 485.083 61.4339C488.37 65.5672 491.151 69.0695 493.49 71.4991C495.639 73.6762 496.966 74.0548 497.978 74.181C498.768 74.3388 499.179 74.3388 499.4 74.3388C499.621 74.3388 499.748 74.4965 499.748 74.6543C499.748 74.8751 499.526 74.9698 498.799 74.9698H496.303C493.995 74.9698 492.984 74.7489 491.973 74.181C490.266 73.266 488.781 71.4044 486.505 68.47C484.798 66.3876 483.028 63.8634 482.143 62.8222C481.985 62.6329 481.891 62.5698 481.606 62.5698L476.486 62.5067C476.296 62.5067 476.201 62.5698 476.201 62.8222V63.7372C476.201 67.4604 476.202 70.4894 476.391 72.0986C476.518 73.2344 476.77 73.9601 478.003 74.1494C478.54 74.2441 479.425 74.3388 479.773 74.3388C480.057 74.3388 480.089 74.4965 480.089 74.6543C480.089 74.8436 479.931 74.9698 479.457 74.9698C477.244 74.9698 474.684 74.8436 474.526 74.8436C474.463 74.8436 471.777 74.9698 470.544 74.9698C470.133 74.9698 469.912 74.8751 469.912 74.6543C469.912 74.4965 469.975 74.3388 470.228 74.3388C470.576 74.3388 471.081 74.2441 471.461 74.1494C472.219 73.9601 472.314 73.2344 472.504 72.0986C472.725 70.4894 472.725 67.4288 472.725 63.6741V56.8273ZM476.201 60.1087C476.201 60.3611 476.296 60.4873 476.486 60.6135C477.086 60.9291 479.141 61.213 480.911 61.213C481.89 61.213 482.965 61.1499 483.945 60.5189C485.304 59.6039 486.378 57.553 486.378 54.5871C486.378 49.7596 483.692 46.9514 479.425 46.9514C478.224 46.9514 476.96 47.0776 476.518 47.1723C476.359 47.2669 476.201 47.4247 476.201 47.6456V60.1087Z" fill="#A6265F"/>
</g>
<defs>
<clipPath id="clip0_6_15644">
<rect width="500" height="96.2343" fill="white"/>
</clipPath>
</defs>
</svg>
