<svg width="500" height="225" viewBox="0 0 500 225" fill="none" xmlns="http://www.w3.org/2000/svg">
<mask id="mask0_6_15641" style="mask-type:luminance" maskUnits="userSpaceOnUse" x="0" y="37" width="489" height="188">
<path d="M0 224.701H488.89V37.0067H0V224.701Z" fill="white"/>
</mask>
<g mask="url(#mask0_6_15641)">
<path d="M62.9247 124.419L0.513541 124.443C-0.075132 119.03 -0.158375 114.589 0.26975 109.987L62.9128 123.16C62.9128 123.512 62.889 123.918 62.9247 124.419Z" fill="#3F9B2C"/>
</g>
<mask id="mask1_6_15641" style="mask-type:luminance" maskUnits="userSpaceOnUse" x="0" y="37" width="489" height="188">
<path d="M0 224.701H488.89V37.0007H0V224.701Z" fill="white"/>
</mask>
<g mask="url(#mask1_6_15641)">
<path d="M105.277 117.061L158.282 97.054C159.114 101.011 159.869 105.16 160.196 109.744L105.628 118.189C105.509 117.861 105.438 117.551 105.277 117.061Z" fill="#EF3120"/>
<path d="M63.9553 116.785L1.16357 101.762C2.13875 96.4077 4.34479 88.6244 6.5865 84.0046L64.3537 115.633C64.1396 116.069 64.0326 116.433 63.9553 116.785Z" fill="#3F9B2C"/>
<path d="M98.6279 106.901L133.758 56.5188C137.831 60.1538 142.606 64.899 145.317 69.292L99.5139 107.701C99.282 107.456 98.9966 107.146 98.6279 106.901Z" fill="#3F9B2C"/>
<path d="M68.1893 109.281L12.0098 73.6476C14.8937 68.3951 23.6346 58.666 28.2131 55.1742L68.9564 108.44C68.665 108.684 68.4212 108.941 68.1893 109.281Z" fill="#3F9B2C"/>
<path d="M88.5225 102.098L90.0387 37.0024C97.2515 37.8022 107.164 40.3509 112.723 43.1383L89.5452 102.295C89.2182 102.176 88.9209 102.128 88.5225 102.098Z" fill="#3F9B2C"/>
<path d="M76.8108 103.158L40.8066 46.5801C49.7973 41.4827 60.441 38.1701 69.6397 37.0479L77.9584 102.776C77.7444 102.818 77.1497 103.003 76.8108 103.158Z" fill="#3F9B2C"/>
<path d="M5.64808 144.361C5.64808 144.361 4.56588 141.574 3.48367 138.022C2.47282 134.698 1.4917 130.735 1.4917 130.735C21.9525 128.114 53.8657 127.971 75.8488 127.971C75.8488 127.971 33.3692 131.922 5.64808 144.361Z" fill="#3F9B2C"/>
<path d="M51.0305 188.904C51.0305 188.904 46.0238 187.335 39.8279 183.849C34.1196 180.638 29.0059 176.095 29.0059 176.095C41.3204 160.547 81.3501 129.915 118.9 127.909C118.9 127.909 80.2085 141.566 51.0305 188.904Z" fill="#3F9B2C"/>
<path d="M101.227 191.442C101.227 191.442 91.8145 194.248 80.2254 194.164C68.8801 194.081 63.6831 192.487 63.6831 192.487C66.0259 184.465 92.867 137.699 125.012 127.911C125.012 127.911 100.211 154.149 101.227 191.442Z" fill="#3F9B2C"/>
<path d="M20.508 168.055C20.508 168.055 18.0463 165.882 13.9553 160.051C10.1855 154.679 8.58594 151.056 8.58594 151.056C18.7004 144.603 54.324 127.909 104.837 127.909C104.837 127.909 61.0135 135.764 20.508 168.055Z" fill="#3F9B2C"/>
<path d="M161.919 148.22L143.95 190.3H157.893L161.919 148.22ZM109.509 223.379L154.474 127.974H179.787L174.989 223.379H154.813L156.674 204.058H137.968L130.053 223.379H109.509Z" fill="#231F20"/>
<path d="M179.735 223.379L197.871 150.363H217.636L216.322 155.645C218.082 154.457 224.771 148.912 233.922 148.912C242.889 148.912 244.679 154.983 245.161 156.702C247.141 155.383 256.25 148.912 264.302 148.912C277.847 148.912 275.225 159.471 274.303 163.166L259.354 223.379H239.583L253.848 165.941C254.241 164.36 253.64 162.378 249.793 162.378C247.046 162.378 244.756 164.228 243.68 164.885L229.154 223.379H209.567L223.832 165.941C224.028 165.147 224.783 162.115 219.842 162.115C218.01 162.115 215.055 163.697 214.128 164.491L199.5 223.379H179.735Z" fill="#231F20"/>
<path d="M299.342 166.997L296.619 177.956H309.248L311.972 166.997C312.364 165.415 313.315 161.583 307.458 161.583C303.064 161.583 300.061 164.096 299.342 166.997ZM291.784 224.697C273.113 224.697 267.934 217.571 271.538 203.043L279.672 170.298C282.461 159.076 292.67 148.912 310.241 148.912C332.569 148.912 332.064 164.227 331.142 167.922L325.416 190.239H293.574L289.733 205.687C288.817 209.381 289.709 212.419 293.919 212.419C298.129 212.419 301.411 209.513 302.297 205.949L304.135 198.554H322.984L321.182 205.818C318.798 213.207 311.002 224.697 291.784 224.697Z" fill="#231F20"/>
<path d="M324.283 223.379L342.419 150.363H361.268L359.467 157.621C367.316 151.813 372.947 149.044 384.328 148.912L380.849 162.903C378.388 162.509 375.742 162.115 373.179 162.115C358.533 162.115 356.054 171.355 354.876 176.112L343.133 223.379H324.283Z" fill="#231F20"/>
</g>
<mask id="mask2_6_15641" style="mask-type:luminance" maskUnits="userSpaceOnUse" x="0" y="37" width="489" height="188">
<path d="M0 224.701H488.89V37.0067H0V224.701Z" fill="white"/>
</mask>
<g mask="url(#mask2_6_15641)">
<path d="M399.381 166.997L396.658 177.956H409.288L412.011 166.997C412.404 165.415 413.355 161.583 407.498 161.583C403.104 161.583 400.101 164.096 399.381 166.997ZM391.824 224.697C373.153 224.697 367.974 217.571 371.577 203.043L379.711 170.298C382.5 159.076 392.71 148.912 410.281 148.912C432.609 148.912 432.103 164.227 431.182 167.922L425.455 190.239H393.614L389.772 205.687C388.857 209.381 389.749 212.419 393.959 212.419C398.168 212.419 401.451 209.513 402.337 205.949L404.174 198.554H423.023L421.222 205.818C418.837 213.207 411.042 224.697 391.824 224.697Z" fill="#231F20"/>
<path d="M424.688 223.379L442.824 150.363H462.405L460.995 156.039C463.255 154.32 469.356 148.912 478.144 148.912C492.599 148.912 489.769 161.059 488.027 168.054L474.285 223.379H454.52L467.376 171.618C468.88 165.547 469.605 162.641 465.211 162.641C463.017 162.641 460.674 163.96 458.766 165.016L444.269 223.379H424.688Z" fill="#231F20"/>
</g>
</svg>
