<svg width="500" height="215" viewBox="0 0 500 215" fill="none" xmlns="http://www.w3.org/2000/svg">
<g clip-path="url(#clip0_6_15645)">
<path fill-rule="evenodd" clip-rule="evenodd" d="M153.752 164.237L153.531 169.381C153.573 170.601 153.689 171.821 153.878 173.041C154.088 174.24 154.372 175.429 154.729 176.607C155.086 177.785 155.528 178.931 156.053 180.046C156.579 181.14 157.178 182.202 157.85 183.233C160.625 187.335 165.637 189.449 170.524 189.449C177.302 189.449 181.999 186.136 185.183 180.235L188.493 181.908C184.868 189.796 176.608 193.898 168.128 193.898C161.413 193.898 155.549 192.099 150.662 187.429C149.464 186.167 148.392 184.842 147.447 183.391C146.501 181.939 145.713 180.393 145.082 178.815C144.42 177.206 143.947 175.565 143.632 173.861C143.317 172.189 143.159 170.454 143.159 168.75C143.159 154.266 152.239 143.885 167.024 143.759C179.004 143.664 188.683 151.774 188.493 164.269H153.752M177.901 160.135C177.901 152.752 173.203 147.861 166.425 147.861C159.332 147.861 154.635 153.73 153.941 160.135H177.901ZM254.036 180.519C254.036 185.915 254.918 189.733 261.129 190.112H262.421V193.109H235.877V190.112H237.264C243.537 189.701 244.42 186.01 244.42 180.425V159.851C244.462 159.22 244.462 158.589 244.42 157.958C244.357 157.348 244.263 156.728 244.136 156.097C243.989 155.486 243.811 154.887 243.601 154.298C243.39 153.709 243.138 153.13 242.844 152.562C242.445 151.995 241.993 151.479 241.488 151.016C240.963 150.575 240.395 150.196 239.786 149.88C239.176 149.565 238.546 149.333 237.894 149.186C237.222 149.039 236.539 148.965 235.845 148.965C229.256 148.965 222.857 152.783 218.065 156.948V180.425C218.065 186.01 218.979 189.733 225.252 190.112H226.64V193.109H199.622V190.112H200.725C207.314 189.828 208.512 186.704 208.512 180.425V159.662C208.512 154.046 207.503 150.354 201.23 149.975H199.622V146.977L214.912 144.769H218.096V152.689C224.086 147.104 231.085 143.791 239.376 143.791C240.343 143.791 241.31 143.875 242.276 144.043C243.243 144.232 244.189 144.495 245.114 144.832C246.039 145.168 246.921 145.589 247.762 146.094C248.603 146.578 249.401 147.146 250.158 147.798C253.531 150.701 254.036 153.951 254.036 158.179V180.519ZM281.999 164.237L281.778 169.381C281.82 170.601 281.936 171.821 282.125 173.041C282.335 174.24 282.619 175.429 282.976 176.607C283.334 177.785 283.775 178.931 284.3 180.046C284.826 181.14 285.425 182.202 286.097 183.233C288.872 187.335 293.884 189.449 298.771 189.449C305.549 189.449 310.246 186.136 313.43 180.235L316.741 181.939C313.147 189.796 304.855 193.898 296.375 193.898C289.691 193.898 283.796 192.099 278.878 187.429C277.712 186.167 276.64 184.842 275.694 183.391C274.748 181.939 273.96 180.393 273.329 178.815C272.699 177.206 272.194 175.565 271.879 173.861C271.564 172.189 271.406 170.454 271.406 168.75C271.406 154.266 280.486 143.885 295.271 143.759C307.251 143.664 316.93 151.774 316.772 164.269H281.999V164.237ZM306.148 160.135C306.148 152.752 301.45 147.829 294.672 147.829C287.579 147.829 282.882 153.73 282.188 160.135H306.148ZM349.622 180.393C349.811 186.104 350.631 189.701 356.999 189.985L358.701 190.112V193.078H331.305V190.112H332.314C338.903 189.701 340.007 186.609 340.007 180.393V159.631C340.007 154.046 338.998 150.354 332.724 149.944H331.116V146.946L346.406 144.769H349.59V152.247C353.973 147.766 359.679 143.759 366.362 143.759C369.641 143.759 373.739 145.053 373.739 149.06C373.771 149.786 373.645 150.48 373.361 151.143C373.109 151.837 372.699 152.436 372.163 152.941C371.659 153.446 371.06 153.856 370.366 154.109C369.704 154.361 368.979 154.487 368.254 154.456C363.556 154.456 362.453 151.143 359.395 151.143C355.99 151.143 351.797 154.235 349.59 156.633V180.393H349.622ZM415.479 187.587C423.046 188.629 431.558 189.575 431.558 198.884C431.558 212.546 415.353 214.66 404.698 214.66C396.595 214.66 380.423 213.556 380.423 202.765C380.423 197.085 385.215 195.602 389.912 194.087V193.866C386.003 192.857 382.63 190.175 382.63 185.789C382.63 180.298 387.421 176.512 392.403 175.597C391.173 174.903 390.038 174.019 389.029 173.009C388.02 171.968 387.169 170.832 386.476 169.57C385.782 168.308 385.246 166.983 384.931 165.594C384.616 164.174 384.458 162.754 384.521 161.334C384.931 150.227 394.294 143.759 404.572 143.759C405.349 143.759 406.127 143.791 406.904 143.854C407.661 143.938 408.418 144.043 409.174 144.169C409.952 144.295 410.709 144.464 411.444 144.674C412.201 144.863 412.936 145.084 413.651 145.337C416.078 140.761 419.799 137.354 425.158 137.354C427.838 137.354 431.053 138.458 431.053 141.645C431.053 142.15 430.959 142.623 430.801 143.096C430.612 143.57 430.328 143.98 429.981 144.327C429.635 144.674 429.225 144.958 428.783 145.147C428.31 145.337 427.838 145.431 427.333 145.431C425.063 145.431 423.14 143.664 421.06 143.664C418.947 143.664 417.97 145.053 416.677 146.536C421.785 150.227 424.937 155.024 424.937 161.524C424.937 162.723 424.78 163.922 424.496 165.089C424.212 166.257 423.802 167.393 423.298 168.497C422.762 169.57 422.131 170.58 421.375 171.526C420.65 172.473 419.799 173.356 418.853 174.114C414.88 177.395 409.363 178.31 404.288 178.31C403.51 178.31 402.743 178.279 401.986 178.216C401.23 178.153 400.473 178.058 399.717 177.932C398.96 177.785 398.214 177.616 397.478 177.427C396.743 177.217 396.018 176.975 395.303 176.701C393.254 177.522 390.511 179.699 390.511 182.002C390.511 185.505 395.996 185.883 398.392 186.199L415.479 187.587ZM393.601 195.002C389.817 196.201 386.413 197.779 386.413 202.07C386.413 210.874 398.897 211.474 405.297 211.474C411.696 211.474 424.559 210.969 424.559 202.228C424.559 196.643 417.371 196.959 413.273 196.454L393.632 194.971L393.601 195.002ZM394.2 161.24C394.2 168.718 396.249 175.029 404.981 175.029C408.355 175.029 412.043 173.42 413.651 170.327C414.944 167.835 415.259 163.733 415.259 160.924C415.259 153.635 413.462 147.356 405.013 147.356C396.722 147.356 394.231 154.235 394.231 161.24H394.2ZM479.351 161.334C480.265 158.842 481.652 155.181 481.652 152.531C481.652 148.744 477.775 148.145 474.874 147.766V144.769H497.037V147.766C490.353 148.871 488.462 152.152 486.066 157.958L470.082 196.391C468.285 200.682 466.583 204.784 463.588 208.255C462.747 209.223 461.822 210.085 460.814 210.842C459.805 211.6 458.722 212.252 457.566 212.799C456.432 213.325 455.244 213.745 454.004 214.061C452.785 214.355 451.535 214.524 450.252 214.566C446.564 214.566 441.299 212.767 441.299 208.413C441.299 207.75 441.425 207.088 441.709 206.456C441.961 205.857 442.339 205.289 442.844 204.816C443.317 204.374 443.884 203.995 444.515 203.774C445.145 203.522 445.807 203.396 446.469 203.427C451.072 203.427 451.072 208.634 455.706 208.634C460.688 208.634 463.998 200.335 465.479 196.643L465.889 195.823L448.928 155.181C446.595 149.88 446.217 148.397 439.944 147.798V144.8H463.683V147.798C461.507 147.893 458.197 148.492 458.197 151.269C458.218 151.563 458.25 151.847 458.292 152.121C458.334 152.394 458.386 152.668 458.449 152.941C458.533 153.215 458.628 153.478 458.733 153.73C458.838 153.982 458.964 154.235 459.111 154.487L470.776 183.738L479.351 161.366V161.334Z" fill="#231F20"/>
<path fill-rule="evenodd" clip-rule="evenodd" d="M122.667 19.784H204.256V52.3475L182.913 52.3791V126.941H143.978V52.3791L122.667 52.3475V19.784ZM243.884 88.0034L238.398 126.878H199.59L214.628 19.8471H248.14L264.218 54.9665L280.265 19.8471H313.808L328.846 126.878H290.006L284.552 88.0034L264.218 128.424L243.884 88.0034ZM402.522 22.4976C409.237 25.2743 415.321 29.3448 420.46 34.4881C425.567 39.5998 429.634 45.6897 432.408 52.3791C435.183 59.1001 436.601 66.2628 436.601 73.5202C436.601 95.8603 423.171 115.992 402.522 124.543C381.904 133.094 358.165 128.361 342.37 112.584C326.576 96.7754 321.847 73.0153 330.391 52.3791C338.966 31.7429 359.079 18.3009 381.399 18.3009C388.65 18.3009 395.838 19.7209 402.522 22.4976ZM388.493 90.6224C390.731 89.7073 392.749 88.3505 394.483 86.6466C396.185 84.9111 397.572 82.8917 398.486 80.6514C399.432 78.411 399.905 76.0129 399.905 73.5833C399.905 66.105 395.428 59.3841 388.524 56.5442C381.652 53.6728 373.707 55.2505 368.442 60.52C363.178 65.7895 361.57 73.7095 364.407 80.5882C367.244 87.4985 373.959 92.0107 381.399 92.0107C383.827 92.0423 386.254 91.569 388.493 90.6224ZM21.6265 58.5637L112.547 54.1777L115.763 63.0759L21.6265 58.7214V58.5637ZM17.8749 69.2604L116.425 64.8744L119.64 73.7411L17.8749 69.3866V69.2604ZM14.1549 79.9572L120.271 75.5712L123.487 84.4694L14.1549 80.1149V79.9572ZM27.9001 50.6436L46.2166 0.03125H92.9695L111.948 52.4422L27.9001 50.6436ZM68.5369 87.0252L55.1069 126.972H0.251953L14.3755 87.7825L68.5369 87.0252ZM124.022 86.2364L138.713 126.972H83.827L70.3654 87.0252L124.022 86.2364ZM453.531 100.057C458.417 100.341 461.633 99.1735 462.515 94.8506C462.579 94.5561 462.621 94.2616 462.642 93.9671C462.642 93.6726 462.621 93.3781 462.579 93.0836C462.536 92.7891 462.473 92.4946 462.389 92.2001C462.305 91.9056 462.2 91.6321 462.074 91.3797C460.151 86.9937 454.35 82.7339 454.35 82.7339C442.15 74.1828 436.759 62.7603 436.759 52.0636C436.759 32.6264 454.256 18.1747 473.739 18.1747C490.384 18.1747 494.987 21.551 494.987 21.551L496.185 52.0951C495.113 51.2747 493.989 50.5595 492.812 49.9495C491.635 49.3184 490.416 48.7925 489.155 48.3718C487.873 47.951 486.58 47.6355 485.277 47.4251C483.953 47.2148 482.618 47.1096 481.273 47.1096C475.63 47.1096 471.91 49.8863 471.91 54.651C471.91 57.8379 477.522 61.2773 480.107 63.2021C481.242 63.9804 482.335 64.8008 483.386 65.6633C484.457 66.5468 485.487 67.4618 486.475 68.4085C487.463 69.3761 488.419 70.3753 489.344 71.4061C490.248 72.4368 491.109 73.4991 491.929 74.593C493.022 76.0866 493.989 77.6537 494.829 79.2945C495.649 80.9353 496.353 82.6287 496.942 84.3747C497.509 86.1207 497.93 87.8982 498.203 89.7073C498.497 91.5374 498.644 93.3676 498.644 95.1977C498.644 114.666 482.44 130.475 462.988 130.475C446.311 130.475 436.759 124.921 436.759 124.921V94.0617C436.759 94.0617 444.672 100.089 453.499 100.089L453.531 100.057Z" fill="#007CC3"/>
<path fill-rule="evenodd" clip-rule="evenodd" d="M488.241 187.997C488.209 185.599 489.659 183.453 491.835 182.538C494.042 181.623 496.564 182.096 498.266 183.8C499.937 185.473 500.473 187.997 499.559 190.206C498.644 192.415 496.501 193.834 494.105 193.834C493.348 193.834 492.591 193.708 491.866 193.424C491.141 193.109 490.511 192.699 489.943 192.162C489.407 191.594 488.966 190.963 488.682 190.237C488.367 189.512 488.241 188.754 488.241 187.997ZM499.086 187.997C499.117 185.978 497.919 184.147 496.059 183.359C494.199 182.601 492.024 183.012 490.605 184.431C489.187 185.851 488.745 187.997 489.502 189.859C490.29 191.72 492.087 192.951 494.105 192.951C494.767 192.951 495.397 192.793 496.028 192.572C496.627 192.32 497.163 191.941 497.635 191.5C498.077 191.026 498.455 190.49 498.707 189.89C498.96 189.291 499.086 188.628 499.086 187.997ZM495.838 191.152L493.915 188.218H492.812V191.152H491.929V184.747H494.704C495.87 184.747 497.005 185.063 497.005 186.451C497.005 187.808 496.122 188.186 494.956 188.218L496.879 191.152H495.838ZM493.915 187.303C494.704 187.303 496.122 187.461 496.122 186.419C496.122 185.757 495.239 185.662 494.546 185.662H492.844V187.303H493.915Z" fill="#231F20"/>
</g>
<defs>
<clipPath id="clip0_6_15645">
<rect width="500" height="214.882" fill="white"/>
</clipPath>
</defs>
</svg>
