<svg width="500" height="175" viewBox="0 0 500 175" fill="none" xmlns="http://www.w3.org/2000/svg">
<g clip-path="url(#clip0_6_15648)">
<path d="M51.3709 78.18H102.252C101.501 50.6849 78.9819 28.6367 51.3056 28.6367C23.0745 28.6367 0.26123 51.5003 0.26123 79.6803C0.26123 107.86 23.0745 130.724 51.3056 130.724C78.9166 130.724 101.404 108.741 102.252 81.3111H51.3709V78.18Z" fill="#1E9CD6"/>
<path d="M361.325 78.1797H102.252C102.317 78.6689 102.317 79.1908 102.317 79.68C102.317 80.2345 102.317 80.7563 102.252 81.3108H359.53L361.325 78.1797Z" fill="#1E9CD6"/>
<path fill-rule="evenodd" clip-rule="evenodd" d="M129.014 154.663L142.722 91.0625H173.368L171.116 101.597H153.035L149.967 116.046H167.591L165.274 126.581H147.65L143.897 144.193H162.728L160.476 154.663H129.014ZM309.302 106.392C309.302 106.392 300 149.249 297.715 159.523C295.594 168.851 288.708 174.591 277.839 174.591C269.386 174.591 264.523 170.906 264.523 163.959C264.523 163.045 264.752 161.643 264.98 160.273H276.273C275.816 162.328 275.718 164.024 276.273 165.198C276.762 166.437 278.068 167.057 279.961 167.057C283.029 167.057 285.117 163.959 286.162 159.034L287.859 150.912H287.663C285.052 154.663 281.462 155.413 277.48 155.413C270.822 155.413 268.342 150.293 268.342 144.715C268.342 140.214 271.54 123.091 273.923 117.449C277.023 110.208 281.429 105.674 288.153 105.674C292.461 105.674 295.757 107.24 296.54 111.773H297.063L298.042 106.392H309.302ZM280.059 141.976C280.059 145.074 281.168 146.998 283.681 146.998C288.12 146.998 289.752 141.943 291.971 131.636C293.048 126.614 294.158 122.341 294.158 119.373C294.093 116.307 293.603 114.154 290.372 114.154C285.868 114.154 284.53 119.177 282.213 129.81C281.723 132.354 280.124 137.996 280.059 141.976ZM312.5 156.718L311.194 106.392H323.27L321.932 141.584H322.128L335.672 106.359H348.042L316.221 173.156H304.112L312.5 156.718ZM128.068 51.2061C128.068 43.2805 131.332 24.6243 135.933 13.5676C139.817 4.27208 147.324 0.292969 158.747 0.292969C168.048 0.292969 173.335 4.82655 173.335 12.8826C173.335 16.079 172.52 20.5799 171.671 23.972H159.758C160.542 20.1885 160.901 16.7965 160.901 15.0353C160.901 12.2303 159.106 10.6321 156.136 10.6321C151.11 10.6321 149.119 13.8285 147.258 18.9165C144.811 25.7658 141.221 42.4325 141.221 50.0971C141.221 53.8153 142.95 55.5113 146.769 55.5113C153.264 55.5113 154.504 48.1076 156.005 41.3235H168.244C165.601 58.0554 158.453 65.7853 144.452 65.7853C133.714 65.7853 128.068 60.8603 128.068 51.2061ZM183.29 42.5303C182.735 45.2048 181.821 48.4011 181.821 51.1735C181.886 54.4024 182.963 56.9791 185.868 56.9791C190.209 56.9791 192.004 52.3802 192.852 48.3359H204.765C201.24 61.5126 194.321 65.4918 184.008 65.4918C174.38 65.4918 170.137 60.0449 170.137 52.8695C170.137 47.5205 170.725 45.0091 171.671 40.3124C174.543 27.0378 178.688 15.6876 194.745 15.6876C203.46 15.6876 208.486 19.8624 208.486 28.5708C208.486 32.6804 207.507 37.2139 206.201 42.5303H183.29ZM196.116 35.1918C196.573 33.0391 197.128 30.7886 197.128 28.4403C197.128 26.1246 196.084 23.7763 192.918 23.7763C187.076 23.7763 185.738 31.0822 184.889 35.1918H196.116ZM279.83 42.5303C279.243 45.2048 278.394 48.4011 278.394 51.1735C278.427 54.4024 279.537 56.9791 282.409 56.9791C286.782 56.9791 288.577 52.3802 289.426 48.3359H301.24C297.748 61.5126 290.862 65.4918 280.581 65.4918C270.888 65.4918 266.678 60.0449 266.678 52.8695C266.678 47.5205 267.232 45.0091 268.244 40.3124C271.084 27.0378 275.228 15.6876 291.319 15.6876C299.967 15.6876 305.059 19.8624 304.993 28.5708C304.993 32.6804 304.047 37.2139 302.741 42.5303H279.83ZM292.689 35.1918C293.114 33.0391 293.668 30.7886 293.668 28.4403C293.668 26.1246 292.624 23.7763 289.491 23.7763C283.584 23.7763 282.278 31.0822 281.397 35.1918H292.689ZM218.766 132.647C218.146 135.322 217.298 138.551 217.298 141.291C217.298 144.52 218.473 147.096 221.345 147.096C225.653 147.096 227.448 142.53 228.362 138.486H240.176C236.684 151.662 229.732 155.609 219.517 155.609C209.824 155.609 205.581 150.162 205.581 142.987C205.581 137.67 206.168 135.126 207.18 130.43C209.954 117.155 214.099 105.805 230.255 105.805C238.903 105.805 243.929 110.012 243.929 118.688C243.929 122.83 242.95 127.364 241.678 132.647H218.766ZM231.56 125.342C232.017 123.189 232.604 120.906 232.604 118.59C232.604 116.242 231.527 113.926 228.362 113.926C222.52 113.926 221.214 121.232 220.333 125.342H231.56ZM226.599 21.5258H226.958C230.287 17.2205 233.551 15.6876 238.153 15.6876C243.146 15.6876 246.834 18.623 246.899 23.711C246.899 24.5373 246.791 25.4288 246.573 26.3855L238.479 64.4807H226.501L233.649 31.7671C233.943 30.2994 234.138 28.9296 234.138 27.788C234.138 25.5701 233.355 24.135 230.744 24.135C226.664 24.135 225.457 27.2009 224.51 31.7671L217.428 64.4807H205.679L216.025 16.503H227.644L226.599 21.5258ZM442.983 21.5258H443.342C446.671 17.2205 449.935 15.6876 454.536 15.6876C459.53 15.6876 463.218 18.623 463.251 23.711C463.251 24.5373 463.153 25.4179 462.957 26.3529L454.863 64.4807H442.885L450.033 31.7671C450.326 30.2994 450.522 28.9296 450.522 27.788C450.522 25.5701 449.739 24.135 447.128 24.135C443.048 24.135 441.841 27.2009 440.894 31.7671L433.779 64.4807H422.063L432.409 16.503H444.027L442.983 21.5258ZM185.411 111.741H185.77C189.099 107.403 192.363 105.87 196.932 105.87C201.926 105.87 205.646 108.805 205.679 113.893C205.679 114.72 205.581 115.6 205.385 116.535L197.356 154.663H185.346L192.461 121.95C192.755 120.449 192.983 119.112 192.95 117.97C192.95 115.753 192.134 114.317 189.589 114.317C185.509 114.317 184.302 117.383 183.322 121.95L176.208 154.663H164.491L174.869 106.685H186.521L185.411 111.741ZM256.07 9.00136L269.256 3.09792L266.351 16.4704H272.422L270.659 24.6895H264.556L258.518 52.7064C258.409 53.2065 258.355 53.6523 258.355 54.0436C258.42 55.707 259.53 56.4572 262.108 56.4572C262.859 56.4572 263.675 56.392 264.328 56.1963L262.533 64.4807C260.868 64.6437 258.812 64.9699 255.875 64.9699C249.38 64.9699 246.084 61.904 246.084 56.2615C246.084 55.3483 246.247 54.1089 246.443 53.2609L256.07 9.00136ZM471.834 9.00136L484.987 3.13053L482.082 16.503H488.185L486.423 24.6895H480.32L474.249 52.739C474.141 53.2391 474.086 53.6849 474.086 54.0763C474.119 55.7397 475.294 56.4898 477.839 56.4898C478.623 56.4898 479.373 56.4246 480.026 56.2289L478.296 64.5133C476.567 64.6764 474.576 65.0025 471.638 65.0025C465.078 65.0025 461.847 61.9366 461.847 56.2941C461.847 55.3809 462.01 54.1415 462.141 53.2935L471.834 9.00136ZM323.499 16.5356L322.095 22.9283H322.487C324.837 18.623 327.937 15.9159 334.595 15.9159L332.082 27.4618C331.527 27.4292 330.973 27.4292 330.483 27.4292C324.282 27.4292 321.247 30.4299 320.104 36.0072L314.067 64.5459H302.121L312.467 16.5356H323.499ZM261.651 112.98H262.108C264.393 108.708 267.493 106 274.184 106L271.704 117.546C271.149 117.514 270.594 117.481 270.039 117.481C263.903 117.481 260.868 120.547 259.661 126.092L253.623 154.598H241.71L252.056 106.588H263.087L261.651 112.98ZM341.123 0.945283H359.204C369.452 0.945283 373.89 6.65303 373.89 14.4156C373.89 18.4273 373.564 19.8298 372.552 23.6132C369.843 33.8871 364.099 41.4214 352.676 41.4214H345.072L340.144 64.5133H327.611L341.123 0.945283ZM346.997 31.441H351.436C358.192 31.441 361.488 23.3197 361.488 16.503C361.488 12.2629 359.791 10.5995 356.136 10.5995H351.762L346.997 31.441ZM368.864 53.3587C368.864 51.2713 369.615 42.7912 371.704 35.8767C375.653 22.9283 379.896 15.7202 392.787 15.7202C403.166 15.7202 407.082 20.2212 407.082 28.2446C407.082 30.6908 406.332 36.5942 404.765 42.9217C401.371 57.0117 396.638 65.4918 382.604 65.4918C373.662 65.4918 368.864 61.3169 368.864 53.3587ZM392.885 43.7045C394.582 37.2139 395.725 31.865 395.725 29.2231C395.725 27.1031 395.268 24.135 391.743 24.135C385.607 24.135 384.889 31.017 382.8 38.486C381.658 42.4977 380.45 47.1617 380.45 51.7279C380.45 55.3809 381.854 56.8812 384.595 56.8812C389.948 56.8812 391.351 49.7384 392.885 43.7045ZM430.287 1.07575L428.035 11.578H416.155L418.473 1.07575H430.287ZM416.58 64.6111H404.798L415.144 16.503H426.926L416.58 64.6111ZM492.167 64.9373C488.022 64.9373 484.661 61.5779 484.661 57.4031C484.661 53.2282 488.022 49.8688 492.167 49.8688C496.345 49.8688 499.706 53.2282 499.706 57.4031C499.706 61.5779 496.345 64.9373 492.167 64.9373ZM498.401 57.4031C498.401 53.9458 495.627 51.1735 492.167 51.1735C488.74 51.1735 485.966 53.9458 485.966 57.4031C485.966 60.8277 488.74 63.6 492.167 63.6C495.627 63.6 498.401 60.8277 498.401 57.4031ZM490.6 57.8923V61.7083H489.197V52.8369H492.102C493.701 52.8369 495.398 53.2935 495.398 55.283C495.398 56.3267 494.745 57.1421 493.603 57.3378V57.4031C494.811 57.6314 494.941 58.1858 495.104 59.1317C495.202 59.9797 495.3 60.8929 495.594 61.7083H493.864C493.734 61.2191 493.603 60.632 493.538 60.1102C493.44 59.36 493.44 58.6425 493.048 58.2511C492.689 57.8923 492.265 57.8923 491.743 57.8923H490.6ZM492.069 56.4898C493.342 56.4572 493.668 55.9027 493.668 55.2504C493.668 54.5655 493.342 54.2393 492.265 54.2393H490.6V56.4898H492.069Z" fill="#231F20"/>
</g>
<defs>
<clipPath id="clip0_6_15648">
<rect width="500" height="174.82" fill="white"/>
</clipPath>
</defs>
</svg>
