<svg width="500" height="119" viewBox="0 0 500 119" fill="none" xmlns="http://www.w3.org/2000/svg">
<g clip-path="url(#clip0_6_15650)">
<path fill-rule="evenodd" clip-rule="evenodd" d="M499.779 59.5186C499.779 89.7526 431.183 109.55 241.556 117.931L180.361 118.026C440.481 104.174 469.576 84.8823 469.576 60.6888C469.576 32.4471 379.855 3.54139 209.583 2.59262C131.562 2.14986 48.6085 5.40729 0 14.1359C55.661 3.13025 126.312 0.220703 223.087 0.220703C392.884 0.220703 499.779 29.1581 499.779 59.5186Z" fill="#91BC50"/>
<path fill-rule="evenodd" clip-rule="evenodd" d="M170.398 48.672H149.114C144.339 48.672 143.295 54.9023 147.628 54.9023H156.42C169.323 54.9023 168.817 76.8504 151.897 76.8504H118.374L123.15 55.7245L108.918 76.8504H99.3356L102.277 55.5664L90.0377 76.8504H66.5399C45.4773 76.8504 48.5766 40.7656 74.8575 40.7656H96.268L91.619 48.7985H73.9719C60.2781 48.7985 57.9378 69.0072 69.323 69.0072H84.8195L101.328 40.7656H111.701L108.792 64.3583L124.478 40.7656H135.136L128.874 69.0072H153.637C157.748 69.0072 157.969 62.9035 154.079 62.9035H145.098C132.289 62.9035 132.985 40.7656 152.024 40.7656H174.668L170.398 48.672ZM275.996 40.8289L254.87 76.882H244.56L238.836 52.4671L225.3 76.882H198.735C178.147 76.882 183.681 40.8289 209.519 40.8289H230.55L225.775 48.8618H206.325C202.308 48.8618 199.178 51.0439 197.185 53.9851H222.675L218.184 61.9864H194.718C194.845 65.8131 196.964 69.0072 201.644 69.0072H220.335L236.496 40.8289H245.351L251.771 67.3627L266.856 40.8289H275.996Z" fill="#3893CE"/>
<path fill-rule="evenodd" clip-rule="evenodd" d="M289.911 48.893C285.895 48.893 282.764 51.0119 280.772 53.9531H306.262L301.771 61.986H278.305C278.431 65.8127 280.55 68.9752 285.231 68.9752H301.518L297.122 76.85H282.321C261.733 76.85 267.268 40.7969 293.137 40.7969H340.639C356.673 40.7969 351.518 62.745 340.544 62.745H335.863L345.319 76.85H334.598C334.598 76.85 326.913 64.8955 325.459 62.4604C324.004 60.0252 324.478 55.8506 328.558 55.8506H336.844C342.726 55.8506 343.612 48.893 338.299 48.893H328.368L312.207 76.85H301.708L318.058 48.893H289.911Z" fill="#3893CE"/>
<path fill-rule="evenodd" clip-rule="evenodd" d="M412.65 64.01L405.534 76.85H395.319L403.89 61.7962L395.13 48.9563H371.695C359.361 48.9563 355.345 68.6906 366.445 68.6906H376.059L379.38 62.5553H364.959L369.45 54.7754H393.485L381.025 76.85H363.219C342.568 76.85 348.229 40.7969 375.174 40.7969H399.209L409.741 56.1353L427.546 40.7969H440.576L412.65 64.01Z" fill="#3893CE"/>
</g>
<defs>
<clipPath id="clip0_6_15650">
<rect width="500" height="118.28" fill="white"/>
</clipPath>
</defs>
</svg>
