<svg width="500" height="97" viewBox="0 0 500 97" fill="none" xmlns="http://www.w3.org/2000/svg">
<g clip-path="url(#clip0_6_15639)">
<path fill-rule="evenodd" clip-rule="evenodd" d="M172.146 60.9269C171.752 65.1592 168.471 76.8718 153.543 76.8718C138.222 76.8718 134.711 65.1592 134.711 56.5634C134.711 43.4073 140.453 33.9584 154.232 33.9584C160.663 33.9584 171.227 36.8784 172.211 49.6081H161.352C160.893 46.9178 159.219 42.7183 154.232 43.0136C147.507 43.0136 145.735 49.7393 145.735 54.7918C145.735 59.2537 145.899 68.0464 154.003 68.0464C159.449 68.0464 161.253 62.8626 161.253 60.9269H172.146ZM195.801 76.8718C184.875 76.8718 175 70.1133 175 55.4151C175 40.717 184.875 33.9584 195.801 33.9584C206.759 33.9584 216.634 40.717 216.634 55.4151C216.634 70.1133 206.759 76.8718 195.801 76.8718ZM195.801 43.0136C187.533 43.0136 186.024 50.1986 186.024 55.4151C186.024 60.6317 187.533 67.8495 195.801 67.8495C204.068 67.8495 205.61 60.6317 205.61 55.4151C205.61 50.1986 204.068 43.0136 195.801 43.0136ZM258.629 75.7892H247.933V51.0516C247.933 48.0661 247.769 43.0136 240.945 43.0136C236.221 43.0136 232.546 46.2288 232.546 52.4296V75.7892H221.818V35.0411H232.087V41.0123H232.218C233.694 38.5516 236.746 33.9584 244.488 33.9584C252.428 33.9584 258.629 38.65 258.629 47.6067V75.7892ZM307.546 30.5136H278.379V42.0949H305.151V51.8062H278.379V66.0779H308.826V75.7892H267.126V20.8023H307.546V30.5136ZM352.231 75.7892H341.732V70.6382H341.601C338.977 75.2314 334.252 76.839 329.79 76.839C317.717 76.839 312.664 66.1107 312.664 54.9558C312.664 40.8482 320.637 33.9584 329.593 33.9584C336.45 33.9584 339.698 37.6986 341.372 40.3233H341.536V20.7695H352.231V75.7892ZM332.48 68.0464C339.305 68.0464 341.962 62.4033 341.962 56.3338C341.962 49.8377 340.125 43.2432 332.776 43.2432C325.984 43.2432 323.688 49.28 323.688 55.7432C323.688 60.5661 325.591 68.0464 332.48 68.0464ZM359.81 20.2773H370.505V30.2183H359.81V20.2773ZM359.81 35.0739H370.505V75.822H359.81V35.0739ZM401.509 47.4755C401.05 44.8836 400.131 42.1277 394.324 42.1277C388.517 42.1277 387.73 44.3259 387.73 46.0976C387.73 52.528 413.222 47.8692 413.222 62.8626C413.222 74.7393 401.739 76.9046 395.407 76.9046C386.122 76.9046 376.116 73.6894 375.788 62.797H386.811C386.811 66.2419 388.977 68.7682 395.702 68.7682C401.214 68.7682 402.494 66.0779 402.494 64.5687C402.494 57.7445 377.264 62.8626 377.264 47.6395C377.264 41.6684 381.004 33.9913 393.701 33.9913C401.673 33.9913 411.155 35.9926 412.008 47.4755H401.509ZM437.172 76.9046C426.214 76.9046 416.372 70.1461 416.372 55.4479C416.372 40.7498 426.214 33.9913 437.172 33.9913C448.097 33.9913 457.973 40.7498 457.973 55.4479C457.973 70.1461 448.097 76.9046 437.172 76.9046ZM437.172 43.0464C428.904 43.0464 427.362 50.2314 427.362 55.4479C427.362 60.6645 428.904 67.8495 437.172 67.8495C445.44 67.8495 446.982 60.6645 446.982 55.4479C446.982 50.2314 445.44 43.0464 437.172 43.0464ZM500 75.822H489.272V51.0844C489.272 48.0989 489.141 43.0464 482.316 43.0464C477.559 43.0464 473.885 46.2616 473.885 52.4624V75.822H463.189V35.0739H473.458V41.0451H473.589C475.033 38.5844 478.117 33.9913 485.827 33.9913C493.799 33.9913 500 38.6829 500 47.6395V75.822Z" fill="#0099D8"/>
<path d="M114.829 96.4247H48.1954C21.6206 96.4247 0.0327148 74.8039 0.0327148 48.2291C0.0327148 21.6871 21.6206 0.0664062 48.1954 0.0664062H114.829V12.5008H48.1954C28.4776 12.5008 12.4671 28.5441 12.4671 48.2291C12.4671 67.947 28.4776 83.9903 48.1954 83.9903H114.829V96.4247ZM49.2125 20.6373H114.764V33.0717H49.2125C40.8136 33.0717 33.9566 39.9286 33.9566 48.3276C33.9566 56.7593 40.8136 63.5835 49.2125 63.5835H114.764V76.0179H49.2125C33.9566 76.0179 21.555 63.6163 21.555 48.3276C21.555 33.0717 33.9566 20.6373 49.2125 20.6373ZM114.829 54.4955H48.8188C45.3739 54.4955 42.5852 51.7396 42.5852 48.2948C42.5852 44.8499 45.3739 42.0612 48.8188 42.0612H114.829V54.4955Z" fill="#0099D8"/>
</g>
<defs>
<clipPath id="clip0_6_15639">
<rect width="500" height="96.4567" fill="white"/>
</clipPath>
</defs>
</svg>
