<svg width="500" height="83" viewBox="0 0 500 83" fill="none" xmlns="http://www.w3.org/2000/svg">
<g clip-path="url(#clip0_6_15661)">
<mask id="mask0_6_15661" style="mask-type:luminance" maskUnits="userSpaceOnUse" x="-2581" y="-167" width="3978" height="2484">
<path d="M-2580.89 -166.758H1396.88V2316.99H-2580.89V-166.758Z" fill="white"/>
</mask>
<g mask="url(#mask0_6_15661)">
<path fill-rule="evenodd" clip-rule="evenodd" d="M495.759 82.545C493.458 82.545 491.617 80.7041 491.617 78.4359C491.617 76.1676 493.458 74.3267 495.759 74.3267C498.027 74.3267 499.868 76.1676 499.868 78.4359C499.868 80.7041 498.027 82.545 495.759 82.545ZM499.408 78.5016C499.408 76.5292 497.797 74.9513 495.825 74.9513C493.853 74.9513 492.242 76.5292 492.242 78.5016C492.242 80.474 493.853 82.0848 495.825 82.0848C497.797 82.0848 499.408 80.474 499.408 78.5016ZM496.91 80.8356L495.661 78.8304H495.036V80.8356H494.411V76.2005H495.989C496.745 76.2005 497.37 76.7922 497.37 77.5812C497.37 78.2058 496.91 78.666 496.285 78.8304L497.534 80.8356H496.91ZM495.825 76.6607H494.872V78.3701H495.825C496.45 78.3701 496.745 78.0414 496.745 77.5812C496.745 77.121 496.45 76.6607 495.825 76.6607ZM478.402 82.2492V62.0651C478.402 56.9369 475.477 54.7672 471.729 54.7672C468.146 54.7672 465.056 57.1012 465.056 62.0651V82.2492H458.383V49.3432H464.891V52.5976C467.061 50.0993 470.348 48.8501 473.603 48.8501C477.022 48.8501 479.816 49.9349 481.69 51.8087C484.319 54.307 485.108 57.3971 485.108 61.1118V82.2492H478.402ZM448.258 78.666C446.088 80.8356 442.801 82.545 438.461 82.545C433.958 82.545 430.703 80.8356 428.665 78.666C425.411 75.4116 424.622 71.2038 424.622 65.6154C424.622 60.1913 425.411 56.0164 428.665 52.7291C430.703 50.5595 433.958 48.8501 438.461 48.8501C442.801 48.8501 446.088 50.5595 448.258 52.7291C451.348 56.0164 452.137 60.1913 452.137 65.6154C452.137 71.2038 451.348 75.4116 448.258 78.666ZM443.261 56.641C442.045 55.3918 440.335 54.7672 438.461 54.7672C436.489 54.7672 434.878 55.3918 433.629 56.641C431.624 58.6463 431.295 62.0651 431.295 65.6154C431.295 69.1985 431.624 72.6173 433.629 74.6226C434.878 75.8718 436.423 76.6607 438.461 76.6607C440.335 76.6607 442.045 75.8718 443.261 74.6226C445.299 72.6173 445.595 69.1985 445.595 65.6154C445.595 62.0651 445.299 58.6463 443.261 56.641ZM412.031 49.3432H418.738V82.2492H412.031V49.3432ZM411.9 35.8323H418.869V42.8014H411.9V35.8323ZM403.024 82.2492C396.811 82.2492 394.017 77.7455 394.017 73.1104V54.307H390.138V49.3432H394.017V39.8757H400.559V49.3432H406.903V54.307H400.559V72.7817C400.559 75.1157 401.775 76.5292 404.273 76.5292H406.903V82.2492H403.024ZM379.717 82.2492V79.1591C377.252 81.6246 374.918 82.5779 370.874 82.5779C366.831 82.5779 364.037 81.6246 362.031 79.6193C360.322 77.9099 359.533 75.2801 359.533 72.4859C359.533 67.0618 363.248 63.0184 370.874 63.0184H379.586V60.6844C379.586 56.4766 377.548 54.6358 372.288 54.6358C368.869 54.6358 366.995 55.3918 365.121 57.7258L360.782 53.6824C363.872 50.1321 366.995 48.883 372.584 48.883C381.591 48.883 386.095 52.762 386.095 60.2242V82.2492H379.717ZM379.717 67.6535H372.123C368.08 67.6535 366.042 69.3629 366.042 72.4859C366.042 75.4116 367.916 77.121 372.255 77.121C374.589 77.121 376.463 76.8251 378.172 75.1157C379.257 74.1953 379.717 72.6502 379.717 70.3162V67.6535ZM352.235 82.2492C345.989 82.2492 343.195 78.0414 343.195 73.0776V35.9638H349.901V72.7817C349.901 75.2472 350.822 76.4964 353.452 76.4964H356.41V82.2492H352.235ZM334.681 82.2492C328.468 82.2492 325.674 78.0414 325.674 73.0776V35.9638H332.347V72.7817C332.347 75.2472 333.3 76.4964 335.93 76.4964H338.889V82.2492H334.681ZM298.784 67.6535C298.784 73.3734 301.578 76.7922 307.166 76.7922C310.749 76.7922 312.755 75.8718 315.089 73.5378L319.296 77.4168C315.878 80.8356 312.755 82.545 307.002 82.545C298.784 82.545 292.11 78.2058 292.11 65.7797C292.11 55.0631 297.699 48.8501 306.081 48.8501C314.924 48.8501 320.052 55.2275 320.052 64.8593V67.6535H298.784ZM312.788 58.6463C311.538 56.1479 309.369 54.4385 306.246 54.4385C302.991 54.4385 300.822 56.1479 299.737 58.6463C298.948 60.0269 298.948 60.9803 298.784 62.9855H313.544C313.544 60.9803 313.412 60.0269 312.788 58.6463ZM284.977 82.2492C278.895 82.2492 275.97 77.7455 275.97 73.0776V54.307H272.222V49.3103H275.97V39.8429H282.643V49.3103H289.02V54.307H282.643V72.7817C282.643 75.0828 283.728 76.4964 286.226 76.4964H289.02V82.2492H284.977ZM255.457 82.545C250.164 82.545 245.496 81.6246 241.617 77.877L245.957 73.5378C248.619 76.1676 252.17 76.9566 255.457 76.9566C259.632 76.9566 262.755 75.5759 262.755 72.453C262.755 70.119 261.505 68.8698 258.251 68.574L252.958 68.1137C246.745 67.4891 243.327 64.6949 243.327 58.9421C243.327 52.4333 248.751 48.8501 255.753 48.8501C260.717 48.8501 264.924 49.9349 267.883 52.5976L263.675 56.7725C261.67 55.0631 258.711 54.4385 255.588 54.4385C251.545 54.4385 249.704 56.1479 249.704 58.6463C249.704 60.9803 250.92 62.0651 254.208 62.3609L258.876 62.8212C265.68 63.4457 269.264 66.4043 269.264 72.1571C269.264 78.9619 263.379 82.545 255.457 82.545ZM230.44 82.2492V62.1966C230.44 57.1012 227.613 54.7672 223.899 54.7672C220.184 54.7672 217.061 57.1012 217.061 62.1966V82.2492H210.388V49.3103H216.897V52.5976C219.231 50.0993 222.354 48.8501 225.772 48.8501C229.027 48.8501 231.821 49.9349 233.859 51.973C236.325 54.307 237.114 57.3971 237.114 61.1118V82.2492H230.44ZM201.216 78.666C199.211 80.8356 195.924 82.545 191.42 82.545C186.916 82.545 183.826 80.8356 181.657 78.666C178.534 75.4116 177.745 71.2038 177.745 65.7797C177.745 60.1913 178.534 56.0164 181.657 52.7291C183.826 50.5595 186.916 48.8501 191.42 48.8501C195.924 48.8501 199.211 50.5595 201.216 52.7291C204.471 56.0164 205.26 60.1913 205.26 65.7797C205.26 71.2038 204.471 75.4116 201.216 78.666ZM184.287 65.7797C184.287 69.3629 184.582 72.7817 186.621 74.787C187.87 76.0361 189.415 76.6607 191.42 76.6607C193.294 76.6607 195.003 76.0361 196.252 74.787C198.258 72.7817 198.586 69.3629 198.586 65.7797C198.586 62.1966 198.258 58.6463 196.252 56.6081C195.003 55.3918 193.294 54.7672 191.42 54.7672C189.47 54.7672 187.87 55.3809 186.621 56.6081C184.582 58.6463 184.287 62.1966 184.287 65.7797ZM156.312 82.545C151.348 82.545 147.469 80.8356 144.346 77.877C140.006 73.3734 139.678 68.7383 139.678 59.1065C139.678 49.4747 140.006 44.8396 144.346 40.3359C147.469 37.213 151.348 35.668 156.312 35.668C164.859 35.668 171.236 40.6318 172.781 49.8034H165.647C164.694 45.1354 161.44 41.881 156.312 41.881C153.517 41.881 151.183 42.8014 149.474 44.6752C147.14 47.1407 146.68 49.9349 146.68 59.1065C146.68 68.2781 147.14 71.0723 149.474 73.5378C151.183 75.2472 153.517 76.332 156.312 76.332C161.44 76.332 164.694 73.0776 165.779 68.4096H172.781C171.236 77.5812 164.859 82.545 156.312 82.545Z" fill="#146CBB"/>
<path d="M10.7167 49.6403C10.4208 49.8047 10.0921 49.9362 9.63186 50.2649C9.63186 50.2649 7.75809 52.7304 5.9172 55.8533C4.04343 58.6476 2.16967 62.0664 0.920488 64.5319C0.62463 64.8606 0.295898 65.6167 0.295898 65.6167C3.58321 63.3155 7.6266 62.0664 12.8863 61.2774C19.428 60.5213 27.0217 60.6528 34.977 60.9816C41.7818 61.2774 49.1125 61.7376 56.5747 62.2307C69.0007 62.8224 85.0099 56.4779 93.6884 47.7666C93.6884 47.7666 93.3926 48.0953 93.2282 48.0953C77.0546 57.5628 62.459 55.3931 49.244 53.0591C39.3163 51.1854 29.3557 47.4707 20.5129 47.4707C17.0941 47.4707 13.8396 48.0953 10.7167 49.6403Z" fill="url(#paint0_linear_6_15661)"/>
<path fill-rule="evenodd" clip-rule="evenodd" d="M11.0455 49.475C21.7622 44.3468 35.5689 50.5598 49.2441 53.0582C62.4591 55.3922 77.0547 57.5618 93.2283 48.0944C93.3927 48.0944 93.6885 47.7656 93.6885 47.7656C93.6885 47.7656 90.4341 48.0944 85.4702 48.2259C80.4735 48.2259 70.2171 47.93 64.0041 47.3054C50.9535 46.2206 41.1902 45.4316 33.2677 45.4316C23.7674 45.4316 16.9298 46.5493 11.0455 49.475Z" fill="url(#paint1_linear_6_15661)"/>
<path d="M119.034 4.47206C112.492 5.22815 104.898 5.09665 96.9428 4.76792C90.1052 4.47206 82.8074 4.01184 75.3452 3.55162C62.9191 2.92703 46.9099 9.27154 38.2314 17.9829C38.2314 17.9829 38.5273 17.6542 38.6917 17.6542C54.8652 8.18672 69.4609 10.3563 82.6759 12.6903C96.4826 15.1887 110.322 21.4017 121.039 16.1091C121.499 15.9448 121.828 15.8133 122.288 15.4846C122.288 15.4846 123.997 13.0191 126.003 9.89613C127.876 7.10191 129.75 3.68311 130.999 1.21763C131.131 0.888894 131.624 0.132812 131.624 0.132812C128.337 2.43393 124.293 3.68311 119.034 4.47206Z" fill="url(#paint2_linear_6_15661)"/>
<path fill-rule="evenodd" clip-rule="evenodd" d="M38.6917 17.6546C38.5273 17.6546 38.2314 17.9834 38.2314 17.9834C38.2314 17.9834 41.4859 17.6546 46.4497 17.4903C51.4464 17.4903 61.7028 17.819 67.9159 18.4436C96.8113 20.9091 110.026 21.5337 120.874 16.274C110.158 21.4022 96.3511 15.1892 82.6759 12.6908C76.9231 11.606 71.0059 10.6855 64.6286 10.6855C56.5746 10.6855 47.8633 12.3949 38.6917 17.6546Z" fill="url(#paint3_linear_6_15661)"/>
<path d="M69.7566 25.905C56.4101 24.7873 42.7349 23.8669 30.3089 25.5763C25.1149 30.7483 20.2936 36.1286 15.8447 41.717C28.4351 37.2134 44.9046 38.6269 61.9986 39.8761C75.5094 40.9609 89.1846 41.8813 101.611 40.1719C104.734 37.2134 113.741 26.9898 115.91 24.0312C103.484 28.5349 86.8506 27.2857 69.7566 25.905Z" fill="url(#paint4_linear_6_15661)"/>
</g>
</g>
<defs>
<linearGradient id="paint0_linear_6_15661" x1="65.8778" y1="75.7416" x2="25.0165" y2="34.7159" gradientUnits="userSpaceOnUse">
<stop stop-color="#B8C746"/>
<stop offset="1" stop-color="#169244"/>
</linearGradient>
<linearGradient id="paint1_linear_6_15661" x1="93.6885" y1="49.8038" x2="10.7168" y2="49.8038" gradientUnits="userSpaceOnUse">
<stop stop-color="#B8C746"/>
<stop offset="0.8" stop-color="#169244"/>
<stop offset="1" stop-color="#169244"/>
</linearGradient>
<linearGradient id="paint2_linear_6_15661" x1="71.0059" y1="-6.11308" x2="100.526" y2="23.407" gradientUnits="userSpaceOnUse">
<stop stop-color="#1F9CD7"/>
<stop offset="1" stop-color="#09409C"/>
</linearGradient>
<linearGradient id="paint3_linear_6_15661" x1="38.2314" y1="14.8604" x2="121.039" y2="14.8604" gradientUnits="userSpaceOnUse">
<stop stop-color="#1F9CD7"/>
<stop offset="0.8" stop-color="#09409C"/>
<stop offset="1" stop-color="#09409C"/>
</linearGradient>
<linearGradient id="paint4_linear_6_15661" x1="53.7474" y1="20.7439" x2="83.136" y2="50.1325" gradientUnits="userSpaceOnUse">
<stop stop-color="#FF521C"/>
<stop offset="0.9" stop-color="#FF9836"/>
<stop offset="1" stop-color="#FF9836"/>
</linearGradient>
<clipPath id="clip0_6_15661">
<rect width="500" height="82.8402" fill="white"/>
</clipPath>
</defs>
</svg>
