<svg width="500" height="102" viewBox="0 0 500 102" fill="none" xmlns="http://www.w3.org/2000/svg">
<g clip-path="url(#clip0_6_15656)">
<path d="M322.71 81.3844H335.502V62.8662H346.283C361.248 62.8662 370.917 54.516 370.917 41.5925V41.4168C370.917 28.7076 361.769 20.4961 347.611 20.4961H322.71V81.3844ZM346.725 51.625H335.502V31.913H346.46C353.655 31.913 357.95 35.5642 357.95 41.6811V41.8577C357.95 47.6995 353.439 51.625 346.725 51.625ZM419.029 81.3844H433.941L418.947 59.5524L419.453 59.3652C427.84 56.2673 432.46 49.611 432.46 40.6228V40.4463C432.46 34.7908 430.665 30.0147 427.27 26.6344C423.239 22.6186 417.095 20.4961 409.506 20.4961H381.594V81.3844H394.387V61.6313H405.749L419.029 81.3844ZM408.621 50.4788H394.387V31.913H408.355C415.432 31.913 419.491 35.2802 419.491 41.1516V41.3281C419.491 46.9721 415.326 50.4788 408.621 50.4788ZM486.667 81.3844H500L473.798 20.0552H461.782L435.58 81.3844H448.559L454.226 67.5396H481L486.667 81.3844ZM476.477 56.3872H458.748L467.614 34.8409L476.477 56.3872ZM126.745 73.4316C133.46 79.2545 142.674 82.4567 152.741 82.4567C166.516 82.4567 175.074 75.2125 175.074 63.5509V63.3744C175.074 52.4715 167.674 48.3605 155.734 45.2618C144.966 42.5153 142.049 41.145 142.049 36.7425V36.5659C142.049 33.5847 144.643 30.5763 150.439 30.5763C155.893 30.5763 161.277 32.3449 166.45 35.8344L173.062 26.5531C166.994 21.8221 159.444 19.4238 150.616 19.4238C138.093 19.4238 129.346 26.9809 129.346 37.8008V37.9773C129.346 50.3433 137.728 53.4305 149.57 56.4414C159.62 59.008 162.371 60.7823 162.371 64.6971V64.8737C162.371 68.7803 158.696 71.3042 153.007 71.3042C146.135 71.3042 140.003 69.0627 134.271 64.4533L126.745 73.4316ZM186.925 81.3844H233.272V70.1441H199.627V56.3396H228.845V45.1H199.627V31.7365H232.83V20.4961H186.925V81.3844ZM294.776 81.3844H307.478V20.4961H293.437L276.911 46.9754L260.386 20.4961H246.343V81.3844H258.869V40.3666L276.735 67.3754L294.776 40.1022V81.3844Z" fill="#001689"/>
<path d="M54.3408 14.0217C58.238 14.0217 61.3973 16.7816 61.3973 20.1861C61.3973 23.5906 58.238 26.3505 54.3408 26.3505C50.4436 26.3505 47.2843 23.5906 47.2843 20.1861C47.2843 16.7816 50.4436 14.0217 54.3408 14.0217ZM95.9936 26.5529C96.8352 24.9363 97.1587 23.6167 97.247 23.265C97.2807 23.1642 97.3445 22.7996 97.1757 22.6654C96.9907 22.5142 96.8046 22.615 96.7042 22.6988C68.0022 44.2518 39.0813 16.7064 41.9631 34.5496C42.3342 36.866 44.6097 41.0122 47.373 45.0239C47.373 45.0239 47.5591 45.2757 47.373 45.4939C47.2725 45.6282 47.1101 45.6714 46.969 45.7458C31.9902 53.6444 22.0761 65.5611 16.0141 75.107C11.0989 68.0402 8.44063 59.6545 8.44063 50.9399C8.44063 27.4864 27.5974 8.40667 51.1457 8.40667C63.091 8.40667 74.174 13.2126 82.3531 21.9391L82.4498 22.0418L82.5785 21.9815C84.9763 20.8345 87.3315 19.3995 89.5783 17.7167L89.7442 17.5928L89.6081 17.4361C79.8649 6.35531 65.8461 0 51.1457 0C22.9443 0 0 22.852 0 50.9399C0 62.7024 4.06241 73.9735 11.4825 83.0461C9.59806 86.7532 8.56504 89.4017 8.2487 90.1998C6.99133 93.3704 8.11473 94.3296 8.56956 94.5162C9.48986 94.8936 10.8339 94.4591 12.1976 92.7302C21.7441 80.6279 47.4935 50.8821 60.2493 59.4596C67.4796 64.3275 67.2637 69.7901 61.8172 74.8018C59.4885 76.9443 54.2668 80.1564 51.0649 81.6671C46.109 84.0003 43.4297 84.4703 43.8346 86.1992C44.2221 87.8106 46.2951 87.8106 54.6371 85.6452C64.2266 83.1777 85.0807 76.0249 76.378 58.6875C72.13 50.225 57.705 43.295 57.705 43.0935C57.8225 42.9256 58.1429 42.9424 58.1429 42.9424C75.0457 41.6912 84.6115 37.5643 90.0456 33.4058C92.5373 38.8871 93.8518 44.8878 93.8518 50.9399C93.8518 74.3934 74.694 93.4742 51.1457 93.4742C42.586 93.4742 34.3091 90.9378 27.2104 86.1393L27.0445 86.027L26.9381 86.1965C25.5133 88.466 24.1193 90.7789 22.7933 93.0718L22.7029 93.2285L22.8529 93.3281C31.2744 98.923 41.058 101.881 51.1457 101.881C79.3481 101.881 102.292 79.0289 102.292 50.9399C102.292 42.4015 100.103 34.0157 95.9936 26.5529Z" fill="#E40032"/>
<path d="M486.985 21.3263H484.487V20.0547H490.859V21.3263H488.362V27.8624H486.985V21.3263Z" fill="#001689"/>
<path d="M492.294 20.0547H493.761L496.146 23.7465L498.532 20.0547H500V27.8624H498.622V22.2628L496.146 25.9441H496.102L493.649 22.2852V27.8624H492.294V20.0547Z" fill="#001689"/>
</g>
<defs>
<clipPath id="clip0_6_15656">
<rect width="500" height="101.881" fill="white"/>
</clipPath>
</defs>
</svg>
