<svg width="500" height="179" viewBox="0 0 500 179" fill="none" xmlns="http://www.w3.org/2000/svg">
<g clip-path="url(#clip0_6_15662)">
<mask id="mask0_6_15662" style="mask-type:luminance" maskUnits="userSpaceOnUse" x="-49" y="-96" width="598" height="371">
<path d="M-48.0195 274.309H548.022V-95.648H-48.0195V274.309Z" fill="white"/>
</mask>
<g mask="url(#mask0_6_15662)">
<path d="M119.938 16.0217C101.733 2.88829 77.809 -1.87491 54.6867 5.19537L1.92676 21.3245V52.0977L119.938 16.0217Z" fill="#2C6CBE"/>
<path d="M145.806 49.6615C142.024 39.7652 136.305 31.0918 129.225 23.9547L1.92871 62.8721V93.6504L145.806 49.6615Z" fill="#2C6CBE"/>
<path d="M149.446 90.0966C151.326 80.2156 151.218 69.8312 148.819 59.5083L1.93066 104.422V135.195L149.446 90.0966Z" fill="#2C6CBE"/>
<path d="M98.1431 147.327C121.265 140.257 138.438 122.931 146.181 101.864L1.92871 145.966V176.744L98.1431 147.327Z" fill="#2C6CBE"/>
<path d="M205.58 65.7316C213.878 65.7316 218.513 60.4444 218.513 52.0689C218.513 43.6062 213.878 38.3189 205.58 38.3189H200.21V65.7316H205.58ZM187.359 27.0917H206.227C221.93 27.0917 231.446 36.8545 231.446 52.0689C231.446 67.2783 221.93 77.041 206.227 77.041H187.359V27.0917Z" fill="#231F20"/>
<path d="M253.719 50.1139C249.809 50.1139 247.615 53.6952 247.615 58.7359C247.615 63.7766 249.809 67.2757 253.719 67.2757C257.702 67.2757 259.896 63.7766 259.896 58.7359C259.896 53.6952 257.702 50.1139 253.719 50.1139ZM253.719 77.8555C242.652 77.8555 235.006 70.0401 235.006 58.7359C235.006 47.4265 242.652 39.6215 253.719 39.6215C264.864 39.6215 272.428 47.4265 272.428 58.7359C272.428 70.0401 264.864 77.8555 253.719 77.8555Z" fill="#231F20"/>
<path d="M320.989 39.6208C328.635 39.6208 333.352 44.8259 333.352 53.0472V77.043H320.583V56.1353C320.583 53.0472 319.283 50.848 316.432 50.848C314.238 50.848 312.362 52.2302 311.715 54.7531V77.043H299.023V56.1353C299.023 53.0472 297.723 50.848 294.876 50.848C292.682 50.848 290.73 52.2302 290.154 54.7531V77.043H277.386V40.4378H290.154V43.4437C292.03 41.1674 295.534 39.6208 299.593 39.6208C304.228 39.6208 307.491 41.409 309.68 44.0141C311.884 41.7378 315.615 39.6208 320.989 39.6208Z" fill="#231F20"/>
<path d="M353.054 77.041H340.285V40.4359H353.054V77.041Z" fill="#231F20"/>
<path d="M359.968 40.4339H372.742V43.6042C374.771 41.328 378.353 39.6169 382.581 39.6169C390.72 39.6169 395.52 44.9042 395.52 53.0433V77.0391H382.823V56.1314C382.823 53.1203 381.281 50.9263 378.024 50.9263C375.501 50.9263 373.394 52.3907 372.742 54.9136V77.0391H359.968V40.4339Z" fill="#231F20"/>
<path d="M415.181 77.041H402.412V40.4359H415.181V77.041Z" fill="#231F20"/>
<path d="M438.855 50.1139C434.95 50.1139 432.756 53.6952 432.756 58.7359C432.756 63.7766 434.95 67.2757 438.855 67.2757C442.843 67.2757 445.037 63.7766 445.037 58.7359C445.037 53.6952 442.843 50.1139 438.855 50.1139ZM438.855 77.8555C427.793 77.8555 420.142 70.0401 420.142 58.7359C420.142 47.4265 427.793 39.6215 438.855 39.6215C450 39.6215 457.564 47.4265 457.564 58.7359C457.564 70.0401 450 77.8555 438.855 77.8555Z" fill="#231F20"/>
<path d="M462.526 40.4339H475.305V43.6042C477.33 41.328 480.906 39.6169 485.14 39.6169C493.274 39.6169 498.073 44.9042 498.073 53.0433V77.0391H485.381V56.1314C485.381 53.1203 483.835 50.9263 480.587 50.9263C478.059 50.9263 475.948 52.3907 475.305 54.9136V77.0391H462.526V40.4339Z" fill="#231F20"/>
<path d="M415.181 36.1953H402.412V27.0904H415.181V36.1953Z" fill="#231F20"/>
<path d="M353.054 36.1953H340.285V27.0904H353.054V36.1953Z" fill="#231F20"/>
<path d="M229.646 100.25H242.42V103.42C244.455 101.144 248.026 99.4326 252.26 99.4326C260.399 99.4326 265.193 104.72 265.193 112.859V136.85H252.507V115.947C252.507 112.936 250.96 110.742 247.708 110.742C245.185 110.742 243.073 112.206 242.42 114.724V136.85H229.646V100.25Z" fill="#231F20"/>
<path d="M336.798 111.461C335.046 110.711 333.71 110.377 331.737 110.377C328.674 110.377 325.488 112.083 325 115.377V136.85H312.227V100.25H325V103.502C326.788 101.061 329.635 99.4326 333.299 99.4326C334.922 99.4326 336.222 99.7615 336.798 100.085V111.461Z" fill="#231F20"/>
<path d="M388.936 150.896L394.671 135.862L381.008 100.151H394.27L401.263 120.976L408.097 100.151H420.788L401.54 150.896H388.936Z" fill="#231F20"/>
<path d="M358.715 125.775C353.679 125.775 351.506 121.952 351.506 117.312C351.506 112.672 353.51 109.024 358.258 109.024C360.698 109.024 363.36 110.889 364.336 112.518V122.199C363.36 123.827 361.228 125.775 358.715 125.775ZM376.946 100.15H364.336V102.915C362.707 100.962 359.696 99.3333 355.714 99.3333C345.381 99.3333 339.523 107.226 339.523 117.312C339.523 127.399 345.381 135.373 355.714 135.373C359.306 135.373 362.106 133.986 363.807 132.336C363.807 132.336 364.054 132.09 364.136 131.997L364.146 134.777C363.951 139.638 359.815 141.873 355.046 141.873C350.006 141.873 346.018 140.568 342.283 137.398V148.486C345.797 150.896 350.334 151.574 355.462 151.574C367.173 151.574 376.904 145.742 376.904 132.239L376.946 100.15Z" fill="#231F20"/>
<path d="M200.211 116.927H219.614V105.947H200.211V98.1314H223.067V86.9042H187.355V136.854H223.067V125.544H200.211V116.927Z" fill="#231F20"/>
<path d="M282.471 114.651C282.934 110.371 286.037 108.429 288.807 108.429C291.571 108.429 294.875 110.34 295.399 114.651H282.471ZM288.735 99.2209C277.826 99.2209 270.124 107.756 270.124 118.52C270.124 131.849 278.078 137.871 290.287 137.871C295.728 137.871 300.111 136.741 303.492 135.127V126.089C299.299 128.34 295.435 128.93 292.481 128.93C286.7 128.93 282.8 126.289 282.559 121.634H307.284C307.346 120.75 307.346 120.226 307.346 119.404C307.346 108.567 301.488 99.2209 288.735 99.2209Z" fill="#231F20"/>
<path d="M433.118 96.3959C429.043 96.3959 425.744 99.705 425.744 103.78C425.744 107.854 429.043 111.158 433.118 111.158C437.203 111.158 440.512 107.854 440.512 103.78C440.512 99.705 437.203 96.3959 433.118 96.3959ZM433.128 110.249C429.552 110.249 426.654 107.351 426.654 103.78C426.654 100.209 429.552 97.3054 433.128 97.3054C436.704 97.3054 439.602 100.209 439.602 103.78C439.602 107.351 436.704 110.249 433.128 110.249Z" fill="#231F20"/>
<path d="M436.218 102.056C436.218 100.859 435.576 100.155 433.664 100.155H430.515V107.354H431.332V104.024H433.017L435.077 107.354H436.136L433.952 104.024C435.232 103.993 436.218 103.469 436.218 102.056ZM432.745 103.207H431.332V100.961H433.454C434.348 100.961 435.401 101.095 435.401 102.03C435.401 103.376 433.762 103.207 432.745 103.207Z" fill="#231F20"/>
</g>
</g>
<defs>
<clipPath id="clip0_6_15662">
<rect width="500" height="178.669" fill="white"/>
</clipPath>
</defs>
</svg>
