<svg width="500" height="172" viewBox="0 0 500 172" fill="none" xmlns="http://www.w3.org/2000/svg">
<g clip-path="url(#clip0_6_15657)">
<path d="M333.7 41.6549H285.708V171.171H223.408V41.6549H175.319V0.0960234H333.7V41.6549ZM498.667 40.9827V0H357.437V130.054C357.437 152.504 375.643 170.691 398.074 170.691H424.519H499.396V129.516H426.9C421.658 129.516 417.394 125.253 417.394 120.01V103.11H495.405V65.1806H417.394V40.9827H498.667ZM105.472 171.037H0V0.268865H105.126C132.915 0.268865 155.423 22.7959 155.423 50.5658V121.086C155.423 148.664 133.069 171.037 105.472 171.037ZM97.8284 117.052V53.5234C97.8284 46.2833 91.9518 40.4258 84.7311 40.4258H61.6662V130.15H84.7311C91.9518 130.15 97.8284 124.293 97.8284 117.052Z" fill="#1E3575"/>
</g>
<defs>
<clipPath id="clip0_6_15657">
<rect width="500" height="171.171" fill="white"/>
</clipPath>
</defs>
</svg>
