<svg width="500" height="161" viewBox="0 0 500 161" fill="none" xmlns="http://www.w3.org/2000/svg">
<g clip-path="url(#clip0_6_15651)">
<path d="M188.333 8.88836H174.206V74.8407H188.095C210.992 74.8407 225.238 62.063 225.238 41.5074C225.238 21.7058 210.754 8.88836 188.333 8.88836ZM183.928 17.8963H185.873C199.405 17.8963 215.516 21.8645 215.516 41.7058C215.516 61.5471 199.405 65.5153 185.873 65.5153H183.928V17.8963ZM269.841 47.6185C269.841 60.6344 265.079 66.9439 255.198 66.9439C245.317 66.9439 240.516 60.6741 240.516 47.6185V8.88836H230.794V50.3566C230.794 65.7931 240.555 76.1899 255.159 76.1899C269.762 76.1899 279.524 65.8328 279.524 50.3566V8.88836H269.841V47.6185ZM307.143 38.6503L336.905 8.84867H324.008L297.976 35.4757V8.84867H288.254V74.8407H297.976V47.6185L300.238 45.436L324.048 74.9598H337.302L307.143 38.6503ZM376.984 65.7931H350.516V43.2138H376.27V34.1661H350.516V17.8963H376.984V8.84867H340.833V74.8407H376.984V65.7931ZM174.206 158.968H210.317V149.92H183.928V127.341H209.643V118.333H183.928V102.023H210.317V93.0153H174.206V158.968ZM284.563 158.968H320.794V149.92H294.286V127.341H320.04V118.333H294.286V102.023H320.794V93.0153H284.563V158.968ZM284.563 158.968H320.794V149.92H294.286V127.341H320.04V118.333H294.286V102.023H320.794V93.0153H284.563V158.968ZM266.389 93.0153V139.206L224.167 93.0153H218.254V158.968H227.976V112.341L269.841 158.968H276.032V93.0153H266.389ZM366.111 112.182C366.115 108.991 365.295 105.854 363.731 103.073C362.167 100.292 359.911 97.9623 357.182 96.309C351.749 93.809 345.764 92.7433 339.802 93.2137H329.365V158.968H339.087V131.785H341.27L360.159 158.968H372.063L351.349 130.952C355.654 130.118 359.514 127.762 362.225 124.316C364.936 120.869 366.315 116.562 366.111 112.182ZM356.905 112.539C356.905 120.079 351.905 123.452 340.714 123.452H339.008V101.865H340.278C351.627 101.865 356.905 105.277 356.905 112.499V112.539ZM408.73 133.888H425.317C424.405 143.769 413.968 151.269 405.159 151.269C398.642 150.954 392.495 148.146 387.99 143.427C383.485 138.707 380.965 132.437 380.952 125.912C380.792 120.674 382.317 115.522 385.302 111.214C388.288 106.907 392.578 103.671 397.539 101.983C402.501 100.295 407.874 100.244 412.867 101.837C417.86 103.43 422.21 106.583 425.278 110.833L425.873 111.626L432.54 105.039L432.063 104.404C428.444 99.9361 423.761 96.4487 418.443 94.2623C413.124 92.0759 407.342 91.2604 401.627 91.8908C395.912 92.5213 390.446 94.5773 385.733 97.8703C381.019 101.163 377.208 105.588 374.65 110.737C372.091 115.887 370.868 121.596 371.091 127.342C371.314 133.088 372.977 138.685 375.927 143.621C378.877 148.556 383.02 152.671 387.975 155.589C392.93 158.506 398.539 160.132 404.286 160.317C412.404 160.487 420.258 157.427 426.122 151.809C431.985 146.191 435.378 138.475 435.556 130.357V124.88H408.73V133.888ZM476.468 93.0153L461.19 119.603L445.952 93.0153H434.762L456.349 130.396V158.968H466.071V130.396L487.659 93.0153H476.468ZM479.921 149.404C479.913 147.419 480.494 145.475 481.591 143.82C482.687 142.165 484.25 140.872 486.082 140.104C487.913 139.337 489.931 139.131 491.88 139.51C493.829 139.89 495.622 140.839 497.031 142.238C498.441 143.636 499.404 145.421 499.799 147.367C500.194 149.313 500.003 151.332 499.251 153.17C498.498 155.007 497.218 156.58 495.571 157.69C493.924 158.8 491.986 159.396 490 159.404C488.692 159.415 487.395 159.167 486.182 158.677C484.97 158.186 483.866 157.461 482.934 156.543C482.001 155.626 481.259 154.533 480.749 153.329C480.239 152.124 479.971 150.831 479.96 149.523C479.96 149.523 479.921 149.444 479.921 149.404ZM481.548 149.404C481.54 151.068 482.025 152.697 482.943 154.085C483.861 155.472 485.17 156.557 486.704 157.201C488.238 157.845 489.929 158.019 491.562 157.703C493.196 157.386 494.699 156.591 495.881 155.42C497.063 154.25 497.871 152.754 498.203 151.124C498.536 149.494 498.377 147.801 497.748 146.261C497.118 144.721 496.046 143.402 494.667 142.471C493.288 141.54 491.664 141.039 490 141.031C488.9 141.026 487.811 141.237 486.793 141.653C485.775 142.069 484.849 142.682 484.068 143.456C483.286 144.229 482.665 145.149 482.24 146.163C481.814 147.177 481.592 148.265 481.587 149.365L481.548 149.404ZM494.563 155.119H492.698L489.841 149.92H487.738V155.079H486.111V143.849H490.833C492.857 143.849 494.802 144.444 494.802 146.825C494.834 147.2 494.792 147.579 494.678 147.938C494.564 148.297 494.38 148.63 494.136 148.918C493.893 149.205 493.595 149.442 493.259 149.614C492.924 149.786 492.558 149.89 492.182 149.92H491.825L494.563 155.119ZM487.738 145.476V148.293H489.484C490.992 148.293 493.095 148.531 493.095 147.023C493.095 145.515 491.905 145.515 490.556 145.515L487.738 145.476ZM98.2936 140.872C94.6653 144.728 89.8411 147.245 84.6031 148.015C76.6666 148.492 68.9285 143.611 66.5872 125.872L34.5237 116.428C48.5317 166.309 87.3015 164.563 100.635 142.857C101.548 141.428 101.27 140.714 100.635 140.357C99.9999 139.999 99.2063 139.999 98.2936 140.872ZM98.2936 9.9201C85.3968 -15.8735 39.6825 9.60264 31.746 76.1899C31.4261 77.6768 31.5975 79.2273 32.2344 80.6084C32.8713 81.9895 33.9392 83.1265 35.2777 83.8487C39.3367 86.0578 43.7582 87.5227 48.3333 88.1741C51.842 88.9936 55.4508 89.301 59.0475 89.0868C60.6109 89.0191 62.1014 88.4068 63.2609 87.356C64.4204 86.3052 65.176 84.882 65.3968 83.3328C72.2221 11.9042 88.5317 -4.28624 96.111 11.0709C96.9841 12.8566 99.2063 11.9042 98.2539 9.9201H98.2936Z" fill="#005984"/>
<path d="M90.3973 32.4599C88.8259 32.2106 87.2161 32.4184 85.7596 33.0587C84.3031 33.699 83.0616 34.7447 82.183 36.071C80.2922 39.4758 79.054 43.2037 78.5322 47.0631C77.6825 50.9707 77.4283 54.9843 77.7782 58.9679C78.0773 60.0023 78.7023 60.9125 79.5603 61.5632C80.4183 62.2138 81.4634 62.5701 82.5401 62.579C97.1433 63.4917 140 69.6028 146.032 82.0631C150 90.6345 138.096 92.8171 129.286 95.079C127.855 95.3384 126.538 96.0283 125.51 97.0565C124.481 98.0847 123.792 99.4022 123.532 100.833C123.037 103.026 122.993 105.296 123.402 107.506C123.812 109.716 124.666 111.82 125.913 113.69C126.45 114.595 127.324 115.25 128.344 115.51C129.363 115.771 130.444 115.616 131.35 115.079L131.866 114.722C136.407 111.732 140.429 108.019 143.77 103.73C172.421 63.7695 112.342 32.8964 90.3973 32.4599Z" fill="#54B948"/>
<path d="M105.119 97.8977C33.2535 105.834 -23.4528 72.977 19.4837 65.0009C19.4837 65.0009 24.9599 63.731 25.9916 60.6358C27.0234 57.5405 27.3408 56.6675 28.5313 52.104C29.2853 49.2866 29.9599 47.6993 30.6742 45.5167C31.825 42.1437 29.6821 40.1199 24.9202 42.4612C-14.3258 61.6278 -2.85759 97.4215 29.1662 115.358C50.1361 127.614 74.8735 131.751 98.69 126.985C100.645 126.615 102.5 125.836 104.134 124.702C105.768 123.567 107.145 122.1 108.174 120.398C111.405 115.551 112.811 109.716 112.142 103.929C112.172 103.044 112 102.164 111.641 101.355C111.282 100.545 110.745 99.8276 110.07 99.2551C109.394 98.6826 108.598 98.2703 107.741 98.049C106.883 97.8276 105.987 97.8031 105.119 97.9771V97.8977Z" fill="#26BCD7"/>
</g>
<defs>
<clipPath id="clip0_6_15651">
<rect width="500" height="160.317" fill="white"/>
</clipPath>
</defs>
</svg>
