<svg width="500" height="135" viewBox="0 0 500 135" fill="none" xmlns="http://www.w3.org/2000/svg">
<g clip-path="url(#clip0_6_15654)">
<path d="M0.225586 0.226562H134.603V134.797H0.225586V0.226562Z" fill="white"/>
<path d="M165.881 89.3477H170.852V115.72H165.881V89.3477Z" fill="white"/>
<path d="M181.052 115.72V89.3477H185.474L199.289 107.488H199.354V89.3477H201.484V115.72H199.289L183.247 94.6737H183.15V115.72H181.052Z" fill="white"/>
<path d="M214.686 115.72V91.0584H209.457V89.3477H224.919V91.0584H219.657V115.72H214.686Z" fill="white"/>
<path d="M232.956 115.72V89.3477H248.547V91.0584H237.927V101.226H247.933V102.937H237.927V114.009H248.708V115.72H232.956Z" fill="white"/>
<path d="M257.585 115.72V89.3477H268.979C273.789 89.3477 276.468 92.8661 276.468 97.0946C276.468 101.129 273.531 102.905 269.593 103.389L276.597 115.72H271.142L263.944 102.195H264.267C268.657 102.195 271.497 100.484 271.497 96.5459C271.497 93.6085 270.077 90.6388 265.235 90.6388H262.556V115.72H257.585Z" fill="white"/>
<path d="M285.248 115.72V89.3477H289.67L303.486 107.488H303.55V89.3477H305.681V115.72H303.486L287.443 94.6737H287.346V115.72H285.248Z" fill="white"/>
<path fill-rule="evenodd" clip-rule="evenodd" d="M333.731 115.72H328.663L325.855 108.844H316.784L314.138 115.72H311.813L322.562 88.6055H322.627L333.731 115.72ZM321.303 97.4499L317.462 107.134H325.145L321.303 97.4499Z" fill="white"/>
<path d="M342.124 115.72V91.0584H336.895V89.3477H352.356V91.0584H347.095V115.72H342.124Z" fill="white"/>
<path d="M360.975 89.3477H365.946V115.72H360.975V89.3477Z" fill="white"/>
<path fill-rule="evenodd" clip-rule="evenodd" d="M387.314 116.43C380.084 116.43 374.241 110.232 374.241 102.518C374.241 94.8353 380.084 88.6055 387.314 88.6055C394.545 88.6055 400.387 94.8353 400.387 102.518C400.387 110.232 394.545 116.43 387.314 116.43ZM395.061 102.518C395.061 95.7714 391.607 90.3162 387.314 90.3162C383.021 90.3162 379.567 95.7714 379.567 102.518C379.567 109.264 383.021 114.719 387.314 114.719C391.607 114.719 395.061 109.264 395.061 102.518Z" fill="white"/>
<path d="M408.489 115.72V89.3477H412.911L426.695 107.488H426.791V89.3477H428.922V115.72H426.695L410.684 94.6737H410.587V115.72H408.489Z" fill="white"/>
<path fill-rule="evenodd" clip-rule="evenodd" d="M456.972 115.72H451.904L449.096 108.844H440.026L437.379 115.72H435.055L445.804 88.6055H445.868L456.972 115.72ZM444.512 97.4499L440.703 107.134H448.386L444.512 97.4499Z" fill="white"/>
<path d="M463.589 115.72V89.3477H468.56V113.621H479.147V115.72H463.589Z" fill="white"/>
<path d="M165.493 74.2421V13.4609H201.42V17.399H176.92V40.8334H199.999V44.7715H176.92V70.3041H201.807V74.2421H165.493Z" fill="white"/>
<path fill-rule="evenodd" clip-rule="evenodd" d="M216.43 13.4609H236.217C258.166 13.4609 268.592 29.0194 268.592 44.9651C268.592 64.397 256.1 74.2421 238.379 74.2421H216.43V13.4609ZM227.889 70.3041H234.99C253.292 70.3041 257.133 57.0697 257.133 45.1588C257.133 29.8586 250.032 17.399 235.571 17.399H227.889V70.3041Z" fill="white"/>
<path d="M282.246 74.2421V13.4609H293.705V74.2421H282.246Z" fill="white"/>
<path d="M314.557 63.3639C317.72 68.4317 321.11 71.1432 327.114 71.1432C332.375 71.1432 337.992 66.9146 337.992 60.6525C337.992 42.996 309.489 51.3562 309.489 29.5679C309.489 19.8197 317.656 11.75 328.986 11.75C336.507 11.75 344.092 15.8817 347.288 22.6603L343.35 25.178C340.993 20.3039 337.346 16.5596 330.858 16.5596C324.596 16.5596 320.916 21.3368 320.916 27.147C320.916 41.4143 349.451 35.4104 349.451 57.3601C349.451 68.5286 339.67 75.9204 329.47 75.9204C321.207 75.9204 314.557 73.4995 310.329 66.4627L314.557 63.3639Z" fill="white"/>
<path fill-rule="evenodd" clip-rule="evenodd" d="M389.412 75.9214C372.756 75.9214 359.264 61.5895 359.264 43.8361C359.264 26.115 372.756 11.7832 389.412 11.7832C406.1 11.7832 419.593 26.115 419.593 43.8361C419.593 61.5895 406.1 75.9214 389.412 75.9214ZM389.38 71.9833C404.002 71.9833 407.295 55.6825 407.295 43.8361C407.295 32.0221 404.002 15.7212 389.38 15.7212C374.725 15.7212 371.562 32.0221 371.562 43.8361C371.562 55.6825 374.725 71.9833 389.38 71.9833Z" fill="white"/>
<path d="M431.988 74.2421V13.4609H442.221L474.015 55.2944H474.209V13.4609H479.083V74.2421H474.015L437.056 25.7592H436.862V74.2421H431.988Z" fill="white"/>
<path d="M485.7 95.6438C485.7 91.8995 488.734 88.8652 492.479 88.8652C496.223 88.8652 499.257 91.8995 499.257 95.6438C499.257 99.3882 496.223 102.422 492.479 102.422C488.734 102.422 485.7 99.3882 485.7 95.6438Z" stroke="white" stroke-width="2.3"/>
<path fill-rule="evenodd" clip-rule="evenodd" d="M489.09 99.3864H489.38C489.929 99.3864 490.058 99.2896 490.058 98.6763V92.156C490.058 91.5104 489.929 91.4136 489.38 91.4136H489.09V91.123C489.639 91.1553 490.187 91.1876 490.704 91.1876C491.414 91.1876 491.963 91.123 492.511 91.123C494.061 91.123 495.481 91.6072 495.481 93.4471C495.481 94.5769 494.771 95.4807 493.351 95.8035C493.544 95.9326 493.803 96.1586 494.061 96.5136L495.739 98.7086C496.224 99.3219 496.482 99.3542 496.934 99.3864V99.677C496.611 99.6447 496.288 99.6124 495.965 99.6124C495.642 99.6124 495.32 99.6447 495.029 99.677L492.705 96.675C492.285 96.094 492.253 96.0294 491.253 96.0294V98.6763C491.253 99.2896 491.382 99.3864 491.93 99.3864H492.221V99.677C491.672 99.6447 491.123 99.6124 490.704 99.6124C490.187 99.6124 489.639 99.6447 489.09 99.677V99.3864ZM491.253 95.6421C491.414 95.6421 491.608 95.6744 491.834 95.6744C493.867 95.6744 494.19 94.4478 494.19 93.6731C494.19 92.6079 493.932 91.5427 491.704 91.5427C491.317 91.5427 491.253 91.5427 491.253 91.8332V95.6421Z" fill="white"/>
<path d="M0.225586 0.226562H134.603V134.733H0.225586V0.226562Z" fill="white"/>
<path d="M55.7776 102.325L0.290144 114.752H0.225586V0.226562H114.751L101.355 55.2298L83.376 0.29112L85.926 55.0684L57.2624 15.3008L74.5316 62.1052L17.1074 17.0439L62.4593 74.5003L15.2998 57.2956L56.4231 87.4118L0.322423 82.6346L55.7776 102.325Z" fill="#FFD046"/>
<path d="M0.225586 114.817H114.751V0.226562H134.603V134.83H0.225586V114.817Z" fill="#006A53"/>
<path d="M165.881 89.3477H170.852V115.72H165.881V89.3477Z" fill="#808285"/>
<path d="M181.052 115.72V89.3477H185.474L199.289 107.488H199.354V89.3477H201.484V115.72H199.289L183.247 94.6737H183.15V115.72H181.052Z" fill="#808285"/>
<path d="M214.686 115.72V91.0584H209.457V89.3477H224.919V91.0584H219.657V115.72H214.686Z" fill="#808285"/>
<path d="M232.956 115.72V89.3477H248.547V91.0584H237.927V101.226H247.933V102.937H237.927V114.009H248.708V115.72H232.956Z" fill="#808285"/>
<path d="M257.585 115.72V89.3477H268.979C273.789 89.3477 276.468 92.8661 276.468 97.0946C276.468 101.129 273.531 102.905 269.593 103.389L276.597 115.72H271.142L263.944 102.195H264.267C268.657 102.195 271.497 100.484 271.497 96.5459C271.497 93.6085 270.077 90.6388 265.235 90.6388H262.556V115.72H257.585Z" fill="#808285"/>
<path d="M285.248 115.72V89.3477H289.67L303.486 107.488H303.55V89.3477H305.681V115.72H303.486L287.443 94.6737H287.346V115.72H285.248Z" fill="#808285"/>
<path fill-rule="evenodd" clip-rule="evenodd" d="M333.731 115.72H328.663L325.855 108.844H316.784L314.138 115.72H311.813L322.562 88.6055H322.627L333.731 115.72ZM321.303 97.4499L317.462 107.134H325.145L321.303 97.4499Z" fill="#808285"/>
<path d="M342.124 115.72V91.0584H336.895V89.3477H352.356V91.0584H347.095V115.72H342.124Z" fill="#808285"/>
<path d="M360.975 89.3477H365.946V115.72H360.975V89.3477Z" fill="#808285"/>
<path fill-rule="evenodd" clip-rule="evenodd" d="M387.314 116.43C380.084 116.43 374.241 110.232 374.241 102.518C374.241 94.8353 380.084 88.6055 387.314 88.6055C394.545 88.6055 400.387 94.8353 400.387 102.518C400.387 110.232 394.545 116.43 387.314 116.43ZM395.061 102.518C395.061 95.7714 391.607 90.3162 387.314 90.3162C383.021 90.3162 379.567 95.7714 379.567 102.518C379.567 109.264 383.021 114.719 387.314 114.719C391.607 114.719 395.061 109.264 395.061 102.518Z" fill="#808285"/>
<path d="M408.489 115.72V89.3477H412.911L426.695 107.488H426.791V89.3477H428.922V115.72H426.695L410.684 94.6737H410.587V115.72H408.489Z" fill="#808285"/>
<path fill-rule="evenodd" clip-rule="evenodd" d="M456.972 115.72H451.904L449.096 108.844H440.026L437.379 115.72H435.055L445.804 88.6055H445.868L456.972 115.72ZM444.512 97.4499L440.703 107.134H448.386L444.512 97.4499Z" fill="#808285"/>
<path d="M463.589 115.72V89.3477H468.56V113.621H479.147V115.72H463.589Z" fill="#808285"/>
<path d="M165.493 74.2421V13.4609H201.42V17.399H176.92V40.8334H199.999V44.7715H176.92V70.3041H201.807V74.2421H165.493Z" fill="#808285"/>
<path fill-rule="evenodd" clip-rule="evenodd" d="M216.43 13.4609H236.217C258.166 13.4609 268.592 29.0194 268.592 44.9651C268.592 64.397 256.1 74.2421 238.379 74.2421H216.43V13.4609ZM227.889 70.3041H234.99C253.292 70.3041 257.133 57.0697 257.133 45.1588C257.133 29.8586 250.032 17.399 235.571 17.399H227.889V70.3041Z" fill="#808285"/>
<path d="M282.246 74.2421V13.4609H293.705V74.2421H282.246Z" fill="#808285"/>
<path d="M314.557 63.3639C317.72 68.4317 321.11 71.1432 327.114 71.1432C332.375 71.1432 337.992 66.9146 337.992 60.6525C337.992 42.996 309.489 51.3562 309.489 29.5679C309.489 19.8197 317.656 11.75 328.986 11.75C336.507 11.75 344.092 15.8817 347.288 22.6603L343.35 25.178C340.993 20.3039 337.346 16.5596 330.858 16.5596C324.596 16.5596 320.916 21.3368 320.916 27.147C320.916 41.4143 349.451 35.4104 349.451 57.3601C349.451 68.5286 339.67 75.9204 329.47 75.9204C321.207 75.9204 314.557 73.4995 310.329 66.4627L314.557 63.3639Z" fill="#808285"/>
<path fill-rule="evenodd" clip-rule="evenodd" d="M389.412 75.9214C372.756 75.9214 359.264 61.5895 359.264 43.8361C359.264 26.115 372.756 11.7832 389.412 11.7832C406.1 11.7832 419.593 26.115 419.593 43.8361C419.593 61.5895 406.1 75.9214 389.412 75.9214ZM389.38 71.9833C404.002 71.9833 407.295 55.6825 407.295 43.8361C407.295 32.0221 404.002 15.7212 389.38 15.7212C374.725 15.7212 371.562 32.0221 371.562 43.8361C371.562 55.6825 374.725 71.9833 389.38 71.9833Z" fill="#808285"/>
<path d="M431.988 74.2421V13.4609H442.221L474.015 55.2944H474.209V13.4609H479.083V74.2421H474.015L437.056 25.7592H436.862V74.2421H431.988Z" fill="#808285"/>
<path d="M485.7 95.6438C485.7 91.8995 488.734 88.8652 492.479 88.8652C496.223 88.8652 499.257 91.8995 499.257 95.6438C499.257 99.3882 496.223 102.422 492.479 102.422C488.734 102.422 485.7 99.3882 485.7 95.6438Z" stroke="#808285" stroke-width="2.3"/>
<path fill-rule="evenodd" clip-rule="evenodd" d="M489.09 99.3864H489.38C489.929 99.3864 490.058 99.2896 490.058 98.6763V92.156C490.058 91.5104 489.929 91.4136 489.38 91.4136H489.09V91.123C489.639 91.1553 490.187 91.1876 490.704 91.1876C491.414 91.1876 491.963 91.123 492.511 91.123C494.061 91.123 495.481 91.6072 495.481 93.4471C495.481 94.5769 494.771 95.4807 493.351 95.8035C493.544 95.9326 493.803 96.1586 494.061 96.5136L495.739 98.7086C496.224 99.3219 496.482 99.3542 496.934 99.3864V99.677C496.611 99.6447 496.288 99.6124 495.965 99.6124C495.642 99.6124 495.32 99.6447 495.029 99.677L492.705 96.675C492.285 96.094 492.253 96.0294 491.253 96.0294V98.6763C491.253 99.2896 491.382 99.3864 491.93 99.3864H492.221V99.677C491.672 99.6447 491.123 99.6124 490.704 99.6124C490.187 99.6124 489.639 99.6447 489.09 99.677V99.3864ZM491.253 95.6421C491.414 95.6421 491.608 95.6744 491.834 95.6744C493.867 95.6744 494.19 94.4478 494.19 93.6731C494.19 92.6079 493.932 91.5427 491.704 91.5427C491.317 91.5427 491.253 91.5427 491.253 91.8332V95.6421Z" fill="#808285"/>
</g>
<defs>
<clipPath id="clip0_6_15654">
<rect width="500" height="134.926" fill="white"/>
</clipPath>
</defs>
</svg>
