<svg width="500" height="125" viewBox="0 0 500 125" fill="none" xmlns="http://www.w3.org/2000/svg">
<g clip-path="url(#clip0_6_15665)">
<path d="M384.731 50.4933V59.8943C382.835 58.9864 380.756 58.5261 378.654 58.5488C374.87 58.5488 364.097 60.1981 364.097 82.1165V101.561H354.114V50.6929H364.097V58.5488C366.293 52.7936 372.352 49.3561 379.462 49.3561C381.275 49.3901 383.065 49.7763 384.731 50.4933ZM280.85 90.5801L285.408 98.4707C281.779 100.931 277.5 102.257 273.116 102.281C262.699 102.281 257.595 96.5957 257.595 84.7988V59.6252H250V50.7016H257.561V34.7207H267.474V50.6929H283.628V59.6426H267.508V85.1026C267.508 90.5801 271.363 92.6374 274.557 92.6374C277.092 92.6461 279.514 91.3092 280.85 90.5801ZM184.774 79.7207H140.503C141.944 88.7745 148.741 93.8179 157.587 93.8179C164.175 93.8179 168.802 91.7606 171.788 87.3336H182.595C178.689 96.804 169.427 102.872 157.587 102.872C141.536 102.872 130.217 91.587 130.217 76.1183C130.217 60.6495 141.502 49.3561 157.587 49.3561C173.672 49.3561 184.757 60.6408 184.757 76.1183L184.774 79.7207ZM174.479 70.9707C172.526 62.837 165.842 58.4186 157.604 58.4186C149.166 58.4186 142.786 62.9412 140.833 70.9707H174.479ZM344.618 79.7207H300.347C301.788 88.7745 308.585 93.8179 317.43 93.8179C324.019 93.8179 328.646 91.7606 331.632 87.3336H342.439C338.524 96.804 329.262 102.872 317.43 102.872C301.38 102.872 290.061 91.587 290.061 76.1183C290.061 60.6495 301.345 49.3561 317.43 49.3561C333.515 49.3561 344.6 60.6408 344.6 76.1183L344.618 79.7207ZM334.323 70.9707C332.37 62.837 325.686 58.4186 317.448 58.4186C309.01 58.4186 302.63 62.9412 300.677 70.9707H334.323ZM441.441 76.5263V97.8283C441.441 117.377 429.496 124.998 414.47 124.998C402.022 124.998 392.248 119.747 388.741 108.011H398.724C401.094 113.879 407.066 116.457 414.47 116.457C424.887 116.457 431.762 111.518 431.762 98.2277V91.9516C428.29 98.5401 421.163 102.455 412.621 102.455C399.444 102.455 386.892 93.4013 386.892 76.1096C386.892 60.6669 398.177 49.3474 414.271 49.3474C430.364 49.3474 441.397 60.1634 441.397 76.5263H441.441ZM431.762 76.1183C431.762 65.8231 424.765 58.4186 414.271 58.4186C403.776 58.4186 396.701 65.8231 396.701 76.1183C396.701 86.4134 403.698 93.3058 414.201 93.3058C424.705 93.3058 431.719 86.4047 431.719 76.1183H431.762ZM450.269 108.011H460.043C462.413 113.775 467.456 116.457 474.8 116.457C484.271 116.457 490.338 111.926 490.338 100.398V92.6895C487.066 98.9568 480.903 102.429 473.281 102.429C460.625 102.429 449.844 94.5037 449.844 76.6999V50.6582H459.618V76.6999C459.618 87.7068 465.694 93.2711 474.948 93.2711C484.01 93.2711 490.286 87.5072 490.286 76.6999V50.6582H500V100.137C500 117.846 488.785 124.947 474.687 124.947C462.986 124.998 453.212 119.538 450.225 108.011H450.269ZM203.871 50.719L203.828 58.4447C207.022 52.1599 213.194 49.3822 220.807 49.3822C233.472 49.3822 244.245 57.7242 244.245 75.528V101.57H234.453V75.5193C234.453 64.5037 228.377 58.9481 219.123 58.9481C210.061 58.9481 203.785 64.712 203.785 75.5193V101.561H194.01V50.6929L203.871 50.719Z" fill="#231F20"/>
<path d="M2.79514 57.2911C6.38889 42.5342 18.099 34.2442 33.5851 34.2442C48.6979 34.2442 60.9809 42.3692 64.566 57.2911H2.79514ZM91.3368 33.4456C82.474 18.0841 67.8695 6.87453 50.7388 2.28496C33.6081 -2.30462 15.3556 0.102059 0 8.97512L8.42882 23.5758C16.2119 19.5768 24.8526 17.5358 33.6024 17.6296C63.0729 17.6296 83.4722 38.4109 83.4722 66.7442V73.3588H2.2309C4.87847 89.9821 17.3438 99.2355 33.5851 99.2355C45.6771 99.2355 54.1754 95.4595 59.6267 87.3345H79.4618C75.3967 97.2312 67.9063 105.335 58.3594 110.164L66.8403 124.8C82.2042 115.937 93.4154 101.331 98.0051 84.1981C102.595 67.0652 100.187 48.8107 91.3108 33.4543L91.3368 33.4456Z" fill="url(#paint0_linear_6_15665)"/>
</g>
<defs>
<linearGradient id="paint0_linear_6_15665" x1="7686.13" y1="13319.5" x2="906.5" y2="1576.77" gradientUnits="userSpaceOnUse">
<stop offset="0.25" stop-color="#8026FF"/>
<stop offset="0.75" stop-color="#FF1A58"/>
</linearGradient>
<clipPath id="clip0_6_15665">
<rect width="500" height="125" fill="white"/>
</clipPath>
</defs>
</svg>
