<svg width="500" height="61" viewBox="0 0 500 61" fill="none" xmlns="http://www.w3.org/2000/svg">
<g clip-path="url(#clip0_6_15664)">
<path d="M292.777 15.693H239.33C244.32 6.36929 254.202 0.197266 266.054 0.197266C277.938 0.197266 287.787 6.36929 292.777 15.693Z" fill="#2CAAE2"/>
<path d="M239.56 45.043H292.547C287.491 54.3667 277.774 60.5387 266.053 60.5387C254.366 60.5387 244.615 54.3995 239.56 45.043Z" fill="#007749"/>
<path d="M295.764 24.1639C295.874 24.7986 295.972 25.4443 296.06 26.1009C296.147 26.7356 296.202 27.3812 296.224 28.0378C296.268 28.6725 296.29 29.3182 296.29 29.9748C296.29 32.9295 295.896 35.7857 295.174 38.4778H236.933C236.178 35.7857 235.784 32.9295 235.784 29.9748C235.784 29.3182 235.806 28.6725 235.85 28.0378C235.894 27.3812 235.959 26.7356 236.047 26.1009C236.112 25.4443 236.211 24.7986 236.342 24.1639C236.452 23.5292 236.594 22.8945 236.769 22.2598H295.338C295.491 22.8945 295.633 23.5292 295.764 24.1639Z" fill="#07B14C"/>
<path fill-rule="evenodd" clip-rule="evenodd" d="M0.130859 1.18216H35.3574V10.867H11.3915V25.2793H33.3876V34.997H11.3915V49.869H36.6378V59.5538H0.130859V1.18216ZM39.8551 1.18216H52.0678L64.4119 38.4113C65.5281 41.7928 66.6443 47.1112 66.6443 47.1112H66.8085C66.8085 47.1112 67.9247 41.8256 69.0409 38.4113L81.5491 1.18216H93.532L72.5209 59.5538H60.9647L39.8551 1.18216ZM99.1131 1.18216H134.34V10.867H110.341V25.3122H133.026V34.997H110.341V49.869H135.62V59.5538H99.1131V1.18216ZM163.394 1.18216C169.435 1.18216 172.127 1.64178 174.523 2.52819C180.794 4.92478 184.832 10.8342 184.832 18.9103C184.832 25.739 181.319 32.2721 175.246 34.7672V34.9642C175.246 34.9642 175.968 35.8506 177.216 38.0502L189.067 59.5538H176.46L165.134 38.1158H155.581V59.5538H144.32V1.18216H163.394ZM155.548 10.867V28.431H164.51C169.96 28.431 173.374 25.148 173.374 19.5341C173.374 15.9556 172.193 13.3621 169.468 11.9832C168.023 11.261 166.152 10.867 162.639 10.867H155.548ZM198.095 43.9924C198.095 43.9924 204.53 50.1644 212.508 50.1644C216.71 50.1644 220.617 48.0633 220.617 43.5656C220.617 33.7823 193.335 35.2596 193.335 17.3017C193.335 7.35419 201.805 0.197266 213.099 0.197266C224.786 0.197266 230.761 6.46778 230.761 6.46778L225.87 15.693C225.87 15.693 220.223 10.6044 213 10.6044C208.437 10.6044 204.629 13.1979 204.629 17.1375C204.629 26.8223 231.91 24.5571 231.91 43.2701C231.91 52.6267 224.72 60.5387 212.344 60.5387C199.277 60.5387 192.022 52.5282 192.022 52.5282L198.095 43.9924ZM302.166 1.18216H313.427V38.477C313.427 45.995 318.319 50.2301 325.837 50.2301C333.388 50.2301 338.345 45.995 338.345 38.4113V1.18216H349.573V38.477C349.573 51.5433 340.085 60.5387 325.902 60.5387C311.654 60.5387 302.166 51.5433 302.166 38.477V1.18216ZM377.413 1.18216C383.486 1.18216 386.178 1.64178 388.575 2.56102C394.845 4.92478 398.883 10.8342 398.883 18.9432C398.883 25.739 395.338 32.2721 389.264 34.8V34.9642C389.264 34.9642 389.986 35.8506 391.234 38.0502L403.118 59.5538H390.512L379.153 38.1158H369.599V59.5538H358.338V1.18216H377.413ZM369.566 10.8998V28.431H378.529C383.979 28.431 387.393 25.148 387.393 19.5341C387.393 15.9556 386.211 13.3621 383.486 11.9832C382.042 11.261 380.17 10.8998 376.657 10.8998H369.566ZM434.504 0.197266C448.752 0.197266 456.073 8.17494 456.073 8.17494L450.722 16.6451C450.722 16.6451 444.057 10.473 434.996 10.473C422.882 10.473 415.955 19.5669 415.955 29.9412C415.955 40.5124 423.145 50.2629 435.029 50.2629C444.944 50.2629 451.772 42.8434 451.772 42.8434L457.649 51.018C457.649 51.018 449.54 60.5387 434.569 60.5387C416.677 60.5387 404.366 47.3739 404.366 30.1382C404.333 13.1979 417.235 0.197266 434.504 0.197266ZM463.394 1.18216H498.621V10.8998H474.622V25.3122H496.651V34.997H474.622V49.869H499.901V59.5538H463.394V1.18216Z" fill="black"/>
</g>
<defs>
<clipPath id="clip0_6_15664">
<rect width="500" height="60.7354" fill="white"/>
</clipPath>
</defs>
</svg>
