<svg width="500" height="102" viewBox="0 0 500 102" fill="none" xmlns="http://www.w3.org/2000/svg">
<path d="M1.14153 68.4276L19.5368 45.9227C21.4938 43.5091 26.1578 41.5195 29.9086 41.5195H48.7932C52.5114 41.5195 53.9465 43.5091 51.9569 45.9227L33.5942 68.4276C31.6373 70.8411 26.9406 72.8307 23.2224 72.8307H4.33788C0.58706 72.8307 -0.815419 70.8411 1.14153 68.4276Z" fill="#72808A"/>
<path d="M47.3577 0.292969H66.2423C69.9931 0.292969 74.6571 2.28253 76.6141 4.6961L94.9768 27.1684C96.9663 29.6146 95.5639 31.5715 91.813 31.5715H72.9285C69.2103 31.5715 64.5136 29.6146 62.5567 27.1684L44.194 4.6961C42.2044 2.28253 43.6395 0.292969 47.3577 0.292969Z" fill="#307CC0"/>
<path d="M4.33788 0.292969H23.2224C26.9406 0.292969 31.6373 2.28253 33.5942 4.6961L51.9569 27.1684C53.9465 29.6146 52.5114 31.5715 48.7932 31.5715H29.9086C26.1578 31.5715 21.4938 29.6146 19.5368 27.1684L1.14153 4.6961C-0.815419 2.28253 0.58706 0.292969 4.33788 0.292969Z" fill="#76BB40"/>
<path fill-rule="evenodd" clip-rule="evenodd" d="M357.338 16.9273C343.346 16.3076 333.92 22.2763 333.92 37.4753V69.6997H320.58V6.03365H332.746L333.92 16.699C336.138 11.2522 342.466 4.98994 357.338 5.34872V16.9273ZM149.576 5.54441C167.384 5.54441 178.408 18.232 178.408 37.5731C178.408 38.8778 178.408 40.3781 178.18 41.8784H131.996C132.681 53.5549 141.031 59.8171 149.413 59.9476C157.306 59.9476 163.438 56.3598 165.884 50.0976H176.777C175.375 59.23 167.319 70.352 149.543 70.2541C131.017 70.2541 119.308 56.1315 119.308 37.8014C119.308 19.4714 130.3 5.57703 149.543 5.57703L149.576 5.54441ZM278.702 5.54441C296.51 5.54441 307.534 18.1993 307.534 37.5731C307.534 38.8451 307.534 40.3455 307.306 41.8458H261.122C261.807 53.5549 270.156 59.8171 278.506 59.9476C286.399 59.9476 292.563 56.3598 295.01 50.065H305.903C304.501 59.1974 296.412 70.352 278.669 70.2215C260.143 70.2215 248.434 56.0989 248.434 37.8014C248.434 19.4714 259.426 5.54441 278.669 5.54441H278.702ZM393.281 6.32719C406.132 6.32719 411.839 13.47 411.839 13.47L414.71 7.04474H423.972V72.5372C423.972 86.3337 415.166 96.836 400.783 99.1191C398.76 99.4779 396.608 99.6736 394.39 99.6736C374.853 99.6736 366.014 87.4427 364.351 77.3318H376.419C379.126 84.2463 385.91 88.1928 394.618 88.1928C395.564 88.1928 396.477 88.095 397.423 87.9319C405.969 86.9534 411.318 80.8869 411.318 72.4394V61.774C411.318 61.774 405.61 68.9169 393.477 68.9169C377.789 68.9169 364.22 55.3161 364.22 37.4753C364.22 19.6018 377.789 6.06626 393.477 6.06626L393.281 6.32719ZM195.955 6.5555L213.372 54.6964L230.789 6.5555H245.075L219.667 69.9932H206.882L181.67 6.5555H195.955ZM449.119 6.5555L468.721 53.2939L486.921 6.5555H499.804L461.905 100.815H449.706L462.231 69.7975L435.812 6.5555H449.119ZM149.38 15.9815C149.402 15.9815 149.424 15.9815 149.445 15.9815C149.445 15.9815 149.456 15.9815 149.478 15.9815H149.38ZM149.413 15.9815C139.334 16.0141 133.79 22.7329 132.257 32.4524H165.949C164.807 22.5046 159.263 16.0141 149.413 15.9815ZM278.473 15.9815C278.495 15.9815 278.506 15.9815 278.506 15.9815C278.528 15.9815 278.539 15.9815 278.539 15.9815H278.473ZM278.539 15.9815C268.46 16.0141 262.916 22.7329 261.415 32.4524H295.075C293.933 22.5046 288.356 16.0141 278.539 15.9815ZM412.72 37.3774C412.72 26.7447 404.762 18.1341 394.879 18.1341C384.997 18.1341 377.038 26.7447 377.038 37.3774C377.038 48.0102 384.997 56.6207 394.879 56.6207C404.762 56.6207 412.72 48.0102 412.72 37.3774ZM93.0201 39.4974C96.7383 39.4974 98.1734 41.487 96.1838 43.9006L77.8211 66.4707C75.8316 68.9169 71.1349 70.8738 67.4167 70.8738H48.5648C44.8466 70.8738 43.4115 68.8843 45.401 66.4707L63.7637 43.9006C65.7533 41.487 70.4173 39.4974 74.1681 39.4974H93.0201Z" fill="#003453"/>
</svg>
