<svg width="500" height="125" viewBox="0 0 500 125" fill="none" xmlns="http://www.w3.org/2000/svg">
<g clip-path="url(#clip0_6_15660)">
<path d="M478.137 37.5537C478.947 37.8671 480.078 38.2152 481.335 38.2152C482.876 38.2152 483.78 37.6233 483.78 36.4047C483.78 35.0354 482.752 34.6177 481.059 34.0606C479.071 33.3991 477.86 32.5171 477.86 30.5443C477.86 28.4089 479.335 27.2136 481.835 27.2136C482.935 27.2136 484.109 27.4805 484.863 27.7939L484.509 29.3025C483.699 29.024 482.829 28.8151 481.941 28.8151C480.41 28.8151 479.677 29.3954 479.677 30.4862C479.677 31.6699 480.453 32.0761 481.941 32.5752C483.997 33.2714 485.606 34.0025 485.606 36.3932C485.606 38.7839 483.755 39.8283 481.413 39.8283C479.975 39.8283 478.649 39.5264 477.792 39.1553L478.137 37.5652V37.5537ZM500 27.4225V39.6078H498.32V32.5637C498.32 31.8323 498.354 31.1593 498.401 30.5327C497.429 32.7957 496.196 35.105 494.596 37.6348H493.146C491.534 35.1168 490.301 32.7842 489.286 30.521C489.354 31.136 489.388 31.8208 489.388 32.5752V39.6193H487.721V27.4341H489.571C490.736 30.3354 492.106 32.9696 493.876 35.8245C495.624 32.9696 496.963 30.347 498.127 27.4341H499.988L500 27.4225ZM210.212 88.6506C204.98 90.8904 199.051 92.3177 193.236 92.3177C181.836 92.3177 174.742 86.527 173.588 73.8891H213.239C213.467 71.6494 213.707 69.0497 213.707 65.9745C213.707 50.9693 204.637 39.7469 189.284 39.7469C172.309 39.7469 161.491 52.6286 161.491 71.0575C161.491 91.018 173.702 102.484 192.197 102.484C199.759 102.484 206.727 100.952 212.199 98.3525L210.223 88.6621L210.212 88.6506ZM189.284 49.5416C198.24 49.5416 202.307 56.4003 202.307 64.3034C202.307 65.0112 202.307 65.487 202.192 66.195H173.702C174.753 56.0404 180.214 49.5416 189.284 49.5416ZM219.27 101.057H230.785C233.23 91.4823 238.107 84.2755 243.922 76.7208C249.039 82.9873 255.551 92.4339 259.275 101.057H272.069C266.255 87.7106 260.326 79.4364 252.421 70.3379C261.605 61.0075 267.077 52.6171 270.093 41.1627H258.11C256.602 48.6016 252.067 55.8084 246.127 63.1311C240.541 56.1565 234.726 47.418 232.407 41.1627H219.727C223.68 52.3848 229.962 60.7755 237.753 69.514C227.986 79.9121 222.64 88.7668 219.259 101.057H219.27ZM323.919 88.6506C318.689 90.8904 312.758 92.3177 306.945 92.3177C295.544 92.3177 288.45 86.527 287.297 73.8891H326.947C327.177 71.6494 327.416 69.0497 327.416 65.9745C327.416 50.9693 318.345 39.7469 302.992 39.7469C286.017 39.7469 275.199 52.6286 275.199 71.0575C275.199 91.018 287.411 102.484 305.905 102.484C313.469 102.484 320.435 100.952 325.907 98.3525L323.932 88.6621L323.919 88.6506ZM302.992 49.5416C311.947 49.5416 316.016 56.4003 316.016 64.3034C316.016 65.0112 316.016 65.487 315.901 66.195H287.411C288.462 56.0404 293.922 49.5416 302.992 49.5416ZM349.77 101.057V15.5273L338.028 16.2353V101.057H349.77ZM414.118 71.046C414.118 52.3848 403.885 39.7354 386.441 39.7354C368.997 39.7354 358.876 52.3733 358.876 71.046C358.876 89.7183 369.224 102.472 386.441 102.472C403.655 102.472 414.118 89.8345 414.118 71.046ZM370.857 71.046C370.857 58.1643 376.205 49.7854 386.441 49.7854C396.674 49.7854 402.022 58.1758 402.022 71.046C402.022 83.9159 397.019 92.4339 386.441 92.4339C375.863 92.4339 370.857 84.0435 370.857 71.046ZM435.686 101.057V52.8609C439.64 50.8531 444.404 49.7854 449.292 49.7854C458.134 49.7854 462.429 54.7525 462.429 63.3749V101.057H474.171V62.5395C474.171 48.1258 465.571 39.7354 449.292 39.7354C440.335 39.7354 431.152 41.859 423.944 45.2826V101.045H435.686V101.057Z" fill="#170D67"/>
<path d="M122.403 74.7966C120.623 69.7009 117.737 64.4789 115.147 60.0503C111.839 54.3795 110.892 48.8351 111.987 41.4851C113.584 30.776 110.778 20.9642 104.469 15.2359C100.328 11.4745 92.741 7.66717 80.1575 10.9569C69.9127 13.6255 60.4553 8.56438 52.8571 4.49242C47.0158 1.36371 42.3957 -1.10936 38.836 0.512512C36.7711 1.45573 35.345 3.71025 34.478 7.40261C32.1963 17.1569 29.9945 23.8974 27.5417 28.625C25.4996 32.559 23.3206 35.0779 20.2745 37.022C12.6993 41.8646 7.13196 47.2593 3.73224 53.045C0.73181 58.2099 -0.500304 63.6966 0.184204 68.9075C0.788851 73.4739 2.85379 77.7873 6.13941 81.3531C9.33379 84.827 13.5207 87.4267 18.2438 88.8991C21.9858 90.0606 24.9748 92.0966 27.3706 95.1103C29.6523 97.986 31.4205 101.793 32.7668 106.739C33.9646 111.157 35.8814 114.861 38.4596 117.782C41.0264 120.692 44.1183 122.648 47.6435 123.591C49.2177 124.016 50.8379 124.224 52.5034 124.224C55.0475 124.224 57.6944 123.729 60.3866 122.728C65.0755 121.003 69.7301 117.84 74.2366 113.33C78.6174 108.948 82.6447 106.176 86.9 104.623C90.6646 103.243 94.1556 103.001 97.8407 102.737C102.039 102.438 106.386 102.127 111.531 100.148C117.76 97.7444 121.741 94.1556 123.361 89.4857C124.765 85.4366 124.457 80.6401 122.426 74.7966H122.403ZM113.47 74.4975C112.706 82.8599 108.759 89.727 101.754 94.9149C98.6736 97.1807 95.673 98.6761 92.6155 99.9761C94.7261 98.354 96.7112 96.5596 98.5481 94.5699C102.872 89.8882 106.157 84.4935 108.314 78.5236C110.401 72.7606 111.348 66.7217 111.132 60.568C111.086 59.222 110.972 57.8879 110.812 56.5649C111.029 57.0022 111.223 57.4161 111.428 57.8534C113.242 63.8578 113.938 69.4363 113.482 74.4975H113.47ZM65.7373 107.763C65.1898 107.786 64.6419 107.798 64.0944 107.798C52.6404 107.798 41.7795 103.496 33.3599 95.582C24.5299 87.2885 19.4417 76.0388 19.0082 63.8807C18.5747 51.7224 22.8757 40.1276 31.0898 31.236C39.3152 22.333 50.4727 17.2029 62.5314 16.7658C63.0792 16.7428 63.6267 16.7313 64.1742 16.7313C75.6283 16.7313 86.4891 21.0333 94.9087 28.9471C103.739 37.2404 108.827 48.4901 109.261 60.6484C109.694 72.8068 105.393 84.4012 97.1789 93.2929C88.9534 102.196 77.796 107.326 65.7373 107.763ZM96.1752 27.5668C91.5317 23.2073 86.1814 19.8945 80.2602 17.7205C76.963 16.5127 73.5634 15.6845 70.118 15.2474C82.5189 13.9936 92.878 19.4574 98.9929 30.4654C98.0916 29.4647 97.1677 28.4985 96.1752 27.5668ZM44.9053 18.9858C39.1556 21.5739 34.0559 25.2662 29.7321 29.9478C29.5952 30.0974 29.4697 30.2584 29.3328 30.4079C29.8576 29.2347 30.3824 27.9809 30.93 26.6351C31.4776 25.5768 32.0366 24.507 32.6298 23.3798C37.045 15.1209 44.6087 15.42 54.1804 15.7995C54.3516 15.7995 54.5342 15.8111 54.7053 15.8225C51.3398 16.5127 48.0655 17.5594 44.9053 18.9858ZM17.1372 63.9267C17.3539 70.0804 18.7229 76.0388 21.21 81.6292C22.6817 84.9419 24.5184 88.0478 26.6861 90.9118C20.8107 86.4373 16.7835 80.318 15.2662 73.4509C13.7147 66.4227 14.7756 58.9115 18.3123 51.5497C17.3882 55.5873 16.9775 59.7283 17.1258 63.9267H17.1372ZM47.9857 106.786C53.1652 108.695 58.5727 109.65 64.0829 109.65C64.6534 109.65 65.2239 109.65 65.7829 109.615C68.6121 109.512 71.396 109.155 74.1224 108.557C69.5022 111.248 64.6534 112.663 59.896 112.663C58.9037 112.663 57.9224 112.606 56.9528 112.479C51.237 111.778 46.1602 109.063 42.2699 104.657C42.0189 104.37 41.768 104.094 41.5056 103.818C43.582 104.968 45.7382 105.957 47.9857 106.786ZM104.241 36.723C103.362 34.986 102.461 33.1801 101.583 31.3857C98.5025 25.0937 94.0075 20.113 88.5885 17.0073C85.4056 15.1899 81.9599 14.0281 78.2866 13.4875C84.6183 12.8434 90.2655 14.1777 94.7603 17.4329C97.6466 19.5264 100.031 22.3446 101.834 25.8069C103.579 29.1541 104.697 32.95 105.176 37.0795C105.256 37.7925 105.359 38.4829 105.461 39.173C105.051 38.3562 104.64 37.5394 104.241 36.723ZM54.2376 13.9246C49.4345 13.7291 44.9053 13.5565 40.9581 14.5573C38.1857 15.2589 35.9155 16.4897 34.0559 18.3186C34.3755 17.4329 34.6835 16.5357 35.0143 15.5925C36.6 11.0144 38.9158 9.41556 42.3612 9.41556C44.9624 9.41556 48.2025 10.3358 52.2525 11.5666C55.1503 12.4523 58.3674 13.4415 61.8127 14.0626C59.246 14.1087 56.7245 14.0166 54.2491 13.9246H54.2376ZM18.5632 47.1559C13.3268 56.0242 11.5584 65.2609 13.4637 73.8649C14.4904 78.5121 16.5896 82.837 19.59 86.587C13.7717 82.9981 9.93845 77.4882 8.9573 71.1848C8.03323 65.2034 9.28817 55.7944 20.0235 44.5562C19.5444 45.4534 19.0652 46.3276 18.5747 47.1559H18.5632ZM40.8898 105.911C45.0879 110.662 50.564 113.584 56.736 114.343C57.7854 114.469 58.8466 114.539 59.9189 114.539C63.6267 114.539 67.3686 113.733 71.0307 112.203C64.7904 116.54 58.2534 118.208 52.3323 116.908C46.3885 115.597 41.4941 111.421 38.5394 105.152C37.832 103.645 36.9307 102.127 35.8814 100.632C37.5242 102.219 39.1898 103.979 40.9009 105.923L40.8898 105.911ZM97.2245 99.8839C99.0842 98.9292 100.944 97.8248 102.849 96.4102C110.31 90.9003 114.508 83.5848 115.318 74.6587C115.535 72.2432 115.489 69.7124 115.216 67.1016C116.619 71.3575 117.361 75.1764 117.406 78.5811C117.452 82.3655 116.653 85.7242 115.022 88.577C113.197 91.786 110.265 94.4661 106.306 96.5596C103.077 98.2736 100.157 99.1708 97.2245 99.8724V99.8839ZM103.237 16.6277C109.078 21.9305 111.668 31.1211 110.162 41.209C109.785 43.7165 109.66 46.0056 109.751 48.191C109.42 47.432 109.089 46.6842 108.736 45.9366C107.983 43.1183 107.424 40.1506 107.036 36.8724C106.534 32.513 105.336 28.4985 103.488 24.9442C101.548 21.2173 98.9814 18.1806 95.8556 15.9261C92.8894 13.7751 89.4668 12.4063 85.7248 11.8081C94.4866 10.7844 100.02 13.7061 103.237 16.6277ZM39.6233 2.21491C40.1366 1.98485 40.7071 1.88133 41.323 1.88133C44.0382 1.88133 47.7916 3.89429 52.0016 6.14882C56.6904 8.66789 62.0752 11.5321 67.9618 12.8434C62.5314 12.7513 57.432 11.1985 52.7885 9.77214C48.3506 8.41484 44.5289 7.24155 41.2205 7.58665C38.9273 7.8282 37.1134 8.77143 35.6761 10.4853C35.8925 9.62261 36.0981 8.74842 36.3149 7.83972C37.0335 4.7455 38.1174 2.90507 39.6348 2.22641L39.6233 2.21491ZM7.50845 80.0764C4.48519 76.7866 2.59139 72.8413 2.03238 68.6544C1.38209 63.8 2.50012 58.8655 5.35224 54C8.59224 48.4671 13.9542 43.291 21.2899 38.6093C22.2482 37.9882 23.138 37.3096 23.9709 36.5503C23.8568 36.7804 23.7541 36.9991 23.64 37.2289C22.4079 39.15 21.1644 40.7143 19.8182 42.0488C7.4628 54.3565 6.09379 64.8354 7.10913 71.4609C7.95335 76.9708 10.8055 81.9168 15.1521 85.6553C12.2316 84.2634 9.61901 82.3655 7.49702 80.0534L7.50845 80.0764ZM59.7363 120.968C55.6407 122.475 51.7276 122.751 48.1112 121.774C44.9509 120.922 42.1674 119.151 39.8401 116.528C37.4556 113.837 35.6761 110.375 34.5578 106.245C33.691 103.059 32.6298 100.298 31.3637 97.9056C33.5425 100.333 35.482 103.059 36.8509 105.957C40.0568 112.767 45.4075 117.299 51.9329 118.737C53.382 119.059 54.8649 119.22 56.3708 119.22C60.3295 119.22 64.414 118.116 68.441 115.976C65.5661 118.219 62.6568 119.898 59.7478 120.968H59.7363ZM121.593 88.8643C120.133 93.0516 116.619 96.1686 110.846 98.4C107.584 99.654 104.64 100.206 101.822 100.517C103.545 99.9416 105.313 99.2168 107.173 98.2276C115.296 93.9255 119.368 87.3115 119.266 78.5581C119.232 75.4292 118.65 72.0016 117.543 68.2401C118.741 70.6096 119.825 73.0366 120.657 75.4177C122.552 80.8357 122.859 85.2295 121.593 88.8643Z" fill="url(#paint0_linear_6_15660)"/>
</g>
<defs>
<linearGradient id="paint0_linear_6_15660" x1="36.8966" y1="118.058" x2="98.9304" y2="11.4792" gradientUnits="userSpaceOnUse">
<stop offset="0.17" stop-color="#6E06C1"/>
<stop offset="0.25" stop-color="#5E24BD"/>
<stop offset="0.46" stop-color="#3D67B4"/>
<stop offset="0.64" stop-color="#239DAD"/>
<stop offset="0.8" stop-color="#0FC3A9"/>
<stop offset="0.92" stop-color="#04DBA6"/>
<stop offset="1" stop-color="#00E4A5"/>
</linearGradient>
<clipPath id="clip0_6_15660">
<rect width="500" height="124.224" fill="white"/>
</clipPath>
</defs>
</svg>
