<svg width="500" height="121" viewBox="0 0 500 121" fill="none" xmlns="http://www.w3.org/2000/svg">
<path d="M0 89.9479C127.874 79.1164 362.558 68.859 440.67 104.634L438.215 118.361C354.685 71.8474 17.4636 89.048 0 89.9479Z" fill="#1A5DAD"/>
<path fill-rule="evenodd" clip-rule="evenodd" d="M79.3857 75.3098H92.213L99.3305 24.6484H86.5065L79.3857 75.3098Z" fill="#231F20"/>
<path fill-rule="evenodd" clip-rule="evenodd" d="M96.7334 75.3103H109.561L113.008 50.7814C114.552 39.7685 122.988 35.8618 131.712 35.8618L133.456 23.4492C125.995 23.4492 119.77 25.8525 115.904 31.6588H115.693L116.678 24.649H103.855L96.7334 75.3103Z" fill="#231F20"/>
<path fill-rule="evenodd" clip-rule="evenodd" d="M176.778 31.6897C174.678 28.6866 168.82 22.4766 156.1 22.4766C142.962 22.4766 131.849 27.4831 130.246 38.8959C127.546 58.1184 161.448 51.0122 160.236 59.6218C159.859 62.325 155.204 65.5282 149.105 65.5282C142.273 65.5282 137.011 63.3286 134.645 59.2219L123.973 66.328C127.987 71.4345 135.926 75.5412 148.435 75.5412C160.629 75.5412 172.86 70.0348 174.579 57.8221C177.263 38.6996 142.677 46.2056 143.913 37.3961C144.336 34.3929 148.401 32.3896 154.378 32.4896C161.947 32.4896 165.606 36.3963 166.717 39.6994L176.778 31.6897Z" fill="#231F20"/>
<path fill-rule="evenodd" clip-rule="evenodd" d="M175.278 63.1362C174.193 70.846 177.136 75.3526 187.649 75.3526C191.641 75.3526 194.881 74.7527 198.014 74.1491L199.422 64.1398C197.5 64.3359 195.448 64.7397 193.659 64.7397C188.716 64.7397 188.186 62.5364 188.749 58.5297L192.352 32.9009H203.81L205.05 24.0914H193.589L195.707 9.02734H182.88L175.278 63.1362Z" fill="#231F20"/>
<path fill-rule="evenodd" clip-rule="evenodd" d="M26.4033 75.3519H40.5302L44.9185 44.3722H80.6602L82.3226 32.5595H46.5809L48.8585 16.3401H87.7553L89.4994 3.92383H36.5162L26.4033 75.3519Z" fill="#231F20"/>
<path fill-rule="evenodd" clip-rule="evenodd" d="M201.465 75.309H257.181L258.925 62.8927H217.295L219.884 44.4737H255.625L257.284 32.6574H221.546L223.824 16.438H262.72L264.465 4.02539H211.481L201.465 75.309Z" fill="#231F20"/>
<path fill-rule="evenodd" clip-rule="evenodd" d="M260.032 75.3103H272.86L276.614 48.5781C277.922 39.2686 283.635 35.2619 289.838 35.2619C296.463 35.2619 298.037 39.7685 297.389 44.3751L293.041 75.3103H305.865L310.734 40.6684C312.297 29.5555 307.479 23.4492 294.863 23.4492C289.712 23.4492 283.887 25.2526 279.484 29.6555H279.274L279.978 24.649H267.15L260.032 75.3103Z" fill="#231F20"/>
<path fill-rule="evenodd" clip-rule="evenodd" d="M325.914 43.4711C328.04 38.0647 333.628 33.4581 341.093 33.4581C349.714 33.4581 352.154 40.7679 351.773 43.4711H325.914ZM363.908 51.914C366.452 33.7913 360.264 22.4785 342.5 22.4785C325.259 22.4785 313.668 33.8913 311.543 49.0108C309.417 64.1267 317.801 75.5395 335.042 75.5395C349.551 75.5395 358.153 68.9332 362.963 63.1269L352.98 57.1205C351.477 58.8202 346.711 64.3266 336.62 64.3266C329.681 64.3266 323.745 59.4238 324.593 51.914H363.908Z" fill="#231F20"/>
<path fill-rule="evenodd" clip-rule="evenodd" d="M363.441 75.3103H376.269L379.713 50.7814C381.26 39.7685 389.696 35.8618 398.42 35.8618L400.164 23.4492C392.699 23.4492 386.478 25.8525 382.612 31.6588H382.401L383.386 24.649H370.563L363.441 75.3103Z" fill="#231F20"/>
<path fill-rule="evenodd" clip-rule="evenodd" d="M431.362 48.0762C430.499 53.4827 426.533 61.4924 416.861 61.4924C407.192 61.4924 405.477 53.4827 406.133 48.0762C406.996 42.6698 410.962 34.6601 420.634 34.6601C430.303 34.6601 432.017 42.6698 431.362 48.0762ZM447.059 24.647H434.235L433.547 29.5536H433.336C430.688 25.9505 426.94 23.4473 419.264 23.4473C406.022 23.4473 394.813 32.8567 392.676 48.0762C390.54 63.292 399.097 72.7052 412.343 72.7052C416.968 72.7052 423.578 71.3017 428.266 67.0988L427.507 72.5052C426.637 78.7115 422.289 82.7182 413.983 82.7182C407.57 82.7182 404.393 79.915 403.937 76.4082H390.484C389.595 82.7182 393.109 92.1276 409.929 92.1276C426.118 92.1276 438.068 88.6246 440.094 74.2086L447.059 24.647Z" fill="#231F20"/>
<path fill-rule="evenodd" clip-rule="evenodd" d="M494.064 24.6504H480.818L465.654 61.492H465.443L459.163 24.6504H445.391L457.222 76.6115C455.193 79.8146 453.567 80.9181 449.468 80.9181L444.413 80.97L442.854 92.0791L450.52 92.131C459.77 92.131 464.606 89.1278 468.861 79.8146L494.064 24.6504Z" fill="#231F20"/>
<path fill-rule="evenodd" clip-rule="evenodd" d="M481.379 80.2493C482.472 80.2493 483.272 80.3565 483.779 80.5677C484.69 80.9455 485.145 81.6861 485.145 82.7933C485.145 83.5783 484.856 84.1597 484.282 84.53C483.975 84.7261 483.549 84.867 483.005 84.9558C483.698 85.0631 484.205 85.3521 484.523 85.8187C484.842 86.2816 485.005 86.737 485.005 87.1814V87.8257C485.005 88.0292 485.008 88.2479 485.028 88.4812C485.04 88.7143 485.065 88.8663 485.102 88.9403L485.158 89.0476H483.706C483.698 89.018 483.692 88.9883 483.683 88.9623C483.677 88.9326 483.668 88.8992 483.659 88.8624L483.626 88.5774V87.8813C483.626 86.8629 483.352 86.189 482.796 85.8594C482.471 85.6707 481.897 85.578 481.075 85.578H479.849V89.0477H478.301V80.2493H481.379ZM483.038 81.6379C482.653 81.4193 482.031 81.3084 481.172 81.3084H479.85V84.4967H481.25C481.901 84.4967 482.394 84.43 482.72 84.3006C483.327 84.0597 483.627 83.6007 483.627 82.9231C483.627 82.2824 483.431 81.8564 483.038 81.6379ZM487.208 90.3588C485.645 91.9289 483.753 92.7176 481.531 92.7176C479.313 92.7176 477.424 91.9289 475.865 90.3588C474.318 88.7924 473.54 86.9001 473.54 84.6709C473.54 82.4639 474.325 80.5827 475.888 79.0163C477.447 77.4573 479.328 76.6797 481.531 76.6797C483.753 76.6797 485.645 77.4573 487.208 79.0163C488.774 80.5753 489.556 82.4602 489.556 84.6709C489.556 86.889 488.774 88.785 487.208 90.3588ZM476.665 79.7903C475.321 81.1382 474.655 82.7638 474.655 84.6709C474.655 86.5928 475.321 88.2295 476.654 89.5811C477.991 90.9364 479.62 91.6141 481.531 91.6141C483.446 91.6141 485.071 90.9364 486.412 89.5811C487.749 88.2295 488.419 86.5928 488.419 84.6709C488.419 82.7638 487.749 81.1382 486.412 79.7903C485.064 78.4386 483.438 77.761 481.531 77.761C479.632 77.761 478.01 78.4386 476.665 79.7903Z" fill="#231F20"/>
</svg>
