<svg width="500" height="219" viewBox="0 0 500 219" fill="none" xmlns="http://www.w3.org/2000/svg">
<g clip-path="url(#clip0_6_15646)">
<path d="M0.219727 137.82V79.8496H46.3121V84.4596H5.3033V105.501H44.6449V110.114H5.3033V133.21H46.7813V137.82H0.219727ZM99.4924 137.82L58.2021 87.4625V137.82H53.1141V79.8511H58.7725L100.066 130.216V79.8511H105.148V137.82H99.4924ZM114.805 137.82V79.8511H160.894V84.4625H119.885V105.505H159.23V110.111H119.885V133.21H161.372V137.82H114.805ZM213.102 137.822L212.897 137.63C211.463 136.092 211.396 132.663 211.085 123.973C210.965 119.118 210.111 116.219 208.145 114.526C206.182 112.804 202.773 112.081 197.237 112.092H172.78V137.822H167.698V79.854H197.315C202.8 79.854 207.701 80.6194 211.321 82.9992C214.95 85.3833 217.132 89.4464 217.114 95.5402C217.132 101.027 214.083 106.97 207.463 109.508C213.064 111.166 216.132 115.825 216.165 121.416C216.312 131.697 216.677 134.98 217.664 136.756L218.237 137.822H213.102ZM196.683 107.479C198.448 107.483 202.365 107.465 205.756 105.929C209.133 104.369 212.006 101.502 212.032 95.2998C212 86.637 205.579 84.552 197.63 84.464H172.781V107.479H196.683Z" fill="black"/>
<path d="M161.776 1.53906H213.971V6.14463H191.169V59.5024H186.088V6.14463H163.284V1.56839L139.598 30.0391L164.106 59.5024H157.4L136.204 33.9394L114.773 59.5024H108.299L132.89 30.0391L109.18 1.53906H115.96L136.211 26.0728L156.85 1.53906H161.776ZM61.6877 59.5024V1.53906H107.78V6.14463H66.7698V27.1872H106.114V31.7971H66.7698V54.8968H108.255V59.5039L61.6877 59.5024ZM46.3754 59.5024L5.08358 9.14903V59.5024H0V1.53906H5.64956L46.9457 51.8954V1.53906H52.0337V59.5024H46.3754Z" fill="#7AC143"/>
<path d="M407.304 79.4331C407.304 79.4331 408.698 83.2601 408.871 88.4756L385.738 115.432L417.735 91.2586L419.302 98.7352C419.302 98.7352 394.956 126.388 389.046 134.213C389.046 134.213 420.079 108.528 437.422 98.156C429.771 84.0196 414.818 74.4199 397.615 74.4199C372.623 74.4199 352.362 94.6809 352.362 119.674C352.362 120.363 352.436 121.039 352.469 121.723C362.519 113.014 389.6 90.0299 407.304 79.4331ZM442.861 120.76C442.857 116.372 442.215 112.008 440.955 107.804C430.509 113.352 405.697 127.094 387.886 141.451C402.894 143.521 417.814 146.185 432.61 149.439C439.254 141.36 442.879 131.22 442.861 120.76Z" fill="#0096D6"/>
<path d="M408.174 105.22C408.174 105.22 382.607 125.045 379.13 128.352L375.648 121.915C375.648 121.915 393.217 100.003 398.954 94.2637C398.954 94.2637 367.674 116.532 353.311 129.984C353.881 132.71 354.702 135.378 355.764 137.953C363.472 138.563 371.268 139.359 379.157 140.318C379.709 139.652 405.073 109.177 408.174 105.22Z" fill="#0096D6"/>
<path d="M254.178 139.085C245.437 139.085 237.724 136.322 232.198 131.132C226.666 125.944 223.365 118.338 223.368 108.832C223.373 101.827 225.754 94.2855 230.811 88.46C235.859 82.6389 243.617 78.5787 254.179 78.5861C268.254 78.5509 278.892 85.6007 281.719 98.1418L281.919 99.0215H276.796L276.669 98.4614C274.381 88.4116 265.298 83.218 254.179 83.1902C238.418 83.2107 228.481 94.9262 228.452 108.831C228.5 122.705 237.217 134.441 254.179 134.478C267.859 134.428 276.613 126.359 277.786 112.799H255.119V108.189H282.961L282.928 108.948C282.694 113.673 281.286 119.743 279.924 123.583C275.522 134.017 265.249 139.085 254.216 139.085H254.178ZM312.88 136.479C311.893 136.476 310.906 136.46 309.925 136.46C309.705 136.46 309.478 136.466 309.245 136.469H308.525L308.518 113.598L281.541 79.85H288.453L311.066 108.777L334.153 79.85H340.591L313.607 113.598V136.485L312.88 136.479Z" fill="black"/>
<path d="M430.795 151.509C414.25 147.917 397.555 145.061 380.757 142.949C357.768 140.062 334.622 138.61 311.453 138.6H311.434C165.751 138.604 59.6881 196.18 24.0898 218.476C139.717 166.302 247.536 151.147 333.798 151.147C407.67 151.147 465.726 162.258 499.371 170.771C475.968 162.696 453.093 156.353 430.795 151.509Z" fill="#7AC143"/>
<path d="M275.189 32.1896C275.189 15.606 266.528 0.0883832 243.912 0.0883832C225.821 0.0883832 213.216 12.1778 213.216 31.1206C213.216 46.2145 221.779 61.084 244.782 61.084C264.226 61.084 271.15 48.5635 274.041 42.2497H259.597C256.997 46.9593 253.15 50.3831 244.39 50.3831C231.208 50.3831 227.493 40.1118 227.069 34.3289H275.187V32.1896H275.189ZM227.071 24.9139C229.286 13.3523 237.947 10.147 244.1 10.147C250.645 10.147 259.691 13.5679 261.333 24.9139H227.071ZM377.651 49.1573C376.543 48.8816 375.002 48.8875 375.002 45.8157V19.2247C375.002 11.9168 374.242 0.368442 347.851 0.368442C332.889 0.368442 323.077 4.91976 321.175 19.6456H334.033C334.505 13.3978 339.173 10.3259 347.852 10.3259C355.465 10.3259 362.14 11.9168 362.14 18.3758C362.14 22.7189 360.132 23.4637 341.269 25.4784C332.89 26.3259 318.603 27.7042 318.603 43.172C318.603 54.1896 326.024 60.7541 339.173 60.7541C353.94 60.7541 360.329 55.7761 362.908 53.0239C363.28 55.1412 364.233 60.2291 372.811 60.2291C374.958 60.2291 378.695 60.0561 380.443 59.8186L380.478 49.6206C378.745 49.4725 378.434 49.3552 377.651 49.1573ZM361.852 36.0708C361.852 48.4667 349.946 51.4315 342.886 51.4315C338.418 51.4315 332.317 50.0561 332.317 42.6353C332.317 37.8699 334.697 35.4286 344.613 34.1661C353.939 32.9989 358.037 32.4711 361.852 30.6661V36.0708ZM318.387 0.630905C316.621 0.303926 317.615 0.0839844 315.541 0.0839844C305.138 0.0839844 299.543 6.30832 295.906 12.8626H295.716V1.61917H282.159V59.4872H295.716V31.5341C295.716 18.106 305.431 14.0649 312.301 14.0649C313.327 14.0649 317.16 14.0942 318.335 14.2218L318.387 0.630905Z" fill="#0096D6"/>
<path d="M284.48 178.444H292.478C295.648 178.444 298.215 180.027 298.215 184.278C298.215 187.197 296.914 189.448 294.441 189.831V189.892C296.696 190.114 297.869 191.354 297.997 194.526C298.026 195.985 298.063 197.761 298.123 199.126C298.19 200.234 298.725 200.775 299.202 201.09H295.111C294.762 200.678 294.601 199.982 294.508 199.093C294.381 197.728 294.416 196.457 294.348 194.812C294.285 192.338 293.522 191.258 291.051 191.258H288.099V201.09H284.48V178.444ZM290.986 188.53C293.3 188.53 294.601 187.133 294.601 184.848C294.601 182.441 293.554 181.171 291.173 181.171H288.098V188.53H290.986ZM303.096 178.444H315.341V181.489H306.714V187.768H314.837V190.815H306.714V198.043H315.599V201.09H303.096V178.444ZM322.728 194.082V194.652C322.728 197.412 323.935 198.806 326.442 198.806C328.727 198.806 329.866 197.189 329.866 195.508C329.866 193.129 328.664 192.08 326.633 191.479L324.156 190.623C320.862 189.356 319.434 187.642 319.434 184.404C319.434 180.284 322.221 178 326.476 178C332.278 178 332.881 181.615 332.881 183.96V184.469H329.263V183.994C329.263 181.931 328.347 180.725 326.092 180.725C324.536 180.725 323.049 181.579 323.049 183.994C323.049 185.928 324.033 186.909 326.442 187.831L328.882 188.719C332.09 189.86 333.482 191.604 333.482 194.711C333.482 199.536 330.564 201.533 325.997 201.533C320.385 201.533 319.115 197.79 319.115 194.62V194.079H322.728V194.082ZM336.846 189.766C336.846 181.677 339.13 177.998 344.328 177.998C349.538 177.998 351.816 181.677 351.816 189.766C351.816 197.856 349.536 201.533 344.328 201.533C339.129 201.533 336.846 197.856 336.846 189.766ZM348.202 189.673C348.202 182.058 346.488 180.727 344.326 180.727C342.173 180.727 340.46 182.058 340.46 189.673C340.46 197.472 342.173 198.807 344.326 198.807C346.488 198.807 348.202 197.472 348.202 189.673ZM359.938 178.444V194.686C359.938 197.536 361.079 198.806 363.266 198.806C365.423 198.806 366.564 197.536 366.564 194.686V178.444H370.181V194.398C370.181 199.633 367.582 201.533 363.266 201.533C358.926 201.533 356.322 199.633 356.322 194.398V178.444H359.938ZM375.218 178.444H383.212C386.384 178.444 388.951 180.027 388.951 184.278C388.951 187.197 387.651 189.448 385.177 189.831V189.892C387.431 190.114 388.605 191.354 388.733 194.526C388.763 195.985 388.799 197.761 388.859 199.126C388.922 200.234 389.461 200.775 389.938 201.09H385.843C385.494 200.678 385.337 199.982 385.243 199.093C385.117 197.728 385.151 196.457 385.085 194.812C385.022 192.338 384.263 191.258 381.787 191.258H378.835V201.09H375.218V178.444ZM381.722 188.53C384.038 188.53 385.338 187.133 385.338 184.848C385.338 182.441 384.291 181.171 381.913 181.171H378.835V188.53H381.722ZM407.277 192.969V193.444C407.277 197.538 405.63 201.533 400.302 201.533C394.59 201.533 392.813 197.856 392.813 189.766C392.813 181.68 394.592 177.998 400.329 177.998C406.771 177.998 407.151 182.755 407.151 185.104V185.516H403.536V185.136C403.536 183.044 402.901 180.63 400.302 180.725C397.634 180.725 396.431 182.373 396.431 189.671C396.431 196.969 397.633 198.807 400.302 198.807C403.309 198.807 403.664 195.441 403.664 193.347V192.967L407.277 192.969ZM411.397 178.444H423.642V181.489H415.016V187.768H423.134V190.815H415.016V198.043H423.901V201.09H411.397V178.444ZM431.029 194.082V194.652C431.029 197.412 432.237 198.806 434.743 198.806C437.024 198.806 438.165 197.189 438.165 195.508C438.165 193.129 436.961 192.08 434.934 191.479L432.457 190.623C429.161 189.356 427.733 187.642 427.733 184.404C427.733 180.284 430.522 178 434.778 178C440.58 178 441.183 181.615 441.183 183.96V184.469H437.564V183.994C437.564 181.931 436.648 180.725 434.394 180.725C432.837 180.725 431.35 181.579 431.35 183.994C431.35 185.928 432.331 186.909 434.743 187.831L437.186 188.719C440.39 189.86 441.783 191.604 441.783 194.711C441.783 199.536 438.865 201.533 434.297 201.533C428.686 201.533 427.417 197.79 427.417 194.62V194.079H431.029V194.082Z" fill="black"/>
</g>
<defs>
<clipPath id="clip0_6_15646">
<rect width="500" height="218.475" fill="white"/>
</clipPath>
</defs>
</svg>
