<svg width="500" height="84" viewBox="0 0 500 84" fill="none" xmlns="http://www.w3.org/2000/svg">
<g clip-path="url(#clip0_6_15647)">
<path fill-rule="evenodd" clip-rule="evenodd" d="M492.576 31.6335C488.573 31.6335 485.313 28.4379 485.313 24.4676C485.313 20.5296 488.573 17.334 492.576 17.334C496.578 17.334 499.806 20.5296 499.806 24.4676C499.806 28.4379 496.578 31.6335 492.576 31.6335ZM497.837 24.4676C497.837 21.5302 495.481 19.1416 492.576 19.1416C489.67 19.1416 487.314 21.5302 487.314 24.4676C487.314 27.4373 489.67 29.8259 492.576 29.8259C495.481 29.8259 497.837 27.4373 497.837 24.4676ZM491.252 28.1797H489.606V20.2714H493.221C494.06 20.2714 494.867 20.2714 495.352 20.7878C496.191 21.1106 496.352 22.079 496.352 22.7568C496.352 24.2094 495.545 24.8872 494.222 25.0486L496.029 28.1797H494.06L492.414 25.0486H491.252V28.1797ZM493.383 23.4024C494.222 23.5638 494.545 23.241 494.545 22.5954C494.545 21.7562 493.705 21.7562 492.898 21.7562H491.252V23.4024H493.383ZM227.275 24.7258C246.191 24.7258 255.261 33.1184 255.1 46.4173L259.361 26.3721H285.539L278.631 58.425C277.792 62.363 278.631 64.4934 281.762 64.4934C284.699 64.4934 287.185 62.8472 288.153 58.5864L295.416 26.3721H321.562L310.038 80.4392H284.538L285.7 72.2404H285.377C279.438 79.955 272.53 82.0854 266.268 82.0854C255.423 82.0854 248.676 76.6626 251.807 62.363L252.291 60.2326C246.707 73.5315 234.022 82.0854 215.106 82.0854C193.027 82.0854 184.474 70.5941 188.121 53.3249C191.736 36.0557 205.229 24.7258 227.275 24.7258ZM218.237 67.4631C222.498 67.4631 225.145 64.1706 227.437 53.3249C229.729 42.4792 228.437 39.1868 224.144 39.1868C220.045 39.1868 217.398 42.4792 215.106 53.3249C212.782 64.1706 213.944 67.4631 218.237 67.4631ZM324.693 26.2107H350.032L349.548 32.1177C354.325 27.3404 358.263 25.7265 361.556 25.7265C363.686 25.7265 366.01 25.8879 368.14 27.179L363.88 46.4173C369.625 32.1177 382.956 24.7258 399.741 24.7258C420.82 24.7258 427.566 33.9253 425.08 48.5477H401.065C402.227 41.8337 402.227 38.0248 397.611 38.0248C393.318 38.0248 390.703 40.3488 387.734 54.3256C385.087 66.8175 386.733 68.7865 390.703 68.7865C394.964 68.7865 396.772 65.6555 398.934 58.7478H422.95C419.496 73.7252 408.295 82.0854 386.894 82.0854C369.948 82.0854 357.295 75.0164 361.878 53.1635C362.33 51.1838 362.879 49.3224 363.525 47.5793C360.232 46.2559 357.779 45.2875 353.324 45.2875C348.386 45.0938 345.61 49.0641 344.125 56.456L339.186 80.4392H313.169L324.693 26.2107Z" fill="#006BA9"/>
<path fill-rule="evenodd" clip-rule="evenodd" d="M483.183 63.3643C478.567 75.5011 467.882 82.2474 447.644 82.2474C431.827 82.2474 419.012 75.1783 423.628 53.3255C427.727 34.5715 442.382 24.8878 461.782 24.8878C482.214 24.8878 489.767 35.2493 485.668 54.649L484.829 58.4256H447.644L447.321 59.9104C445.997 66.1402 447.482 68.9485 452.744 68.9485C455.552 68.9485 458.844 67.1409 460.329 63.332M463.783 46.902L463.944 46.2564C465.074 40.995 462.944 38.1867 459.006 38.1867C454.713 38.1867 451.42 40.995 450.29 46.2564L450.097 46.902H463.783ZM165.106 24.4036C165.752 19.9492 163.46 18.3029 159.522 18.3029C154.583 18.3029 151.937 20.4333 151.452 22.9188C151.345 23.4568 151.291 23.9517 151.291 24.4036L122.982 24.0486C123.736 21.3156 124.887 18.7979 126.436 16.4953L157.521 0.872332C159.501 0.764736 161.588 0.710938 163.783 0.710938C183.053 0.710938 196.191 6.65025 192.576 24.4036H165.106ZM122.821 25.6948L151.775 25.2106C152.292 26.534 153.583 27.1796 155.584 27.8252C161.168 29.6651 171.53 31.7955 178.76 35.088C187.669 39.1874 190.445 46.0951 188.476 55.4559C185.022 72.0473 171.53 80.2784 153.421 82.086C153.206 81.7632 152.83 81.2683 152.292 80.6012C147.999 75.0169 140.768 65.8175 133.505 56.4566H144.383C143.899 58.587 143.899 60.7174 144.706 62.3636C145.545 63.8484 147.353 64.8168 150.129 64.8168C154.745 64.8168 158.199 62.0408 159.038 58.587C159.684 55.6173 157.715 54.1325 154.906 53.3255L134.345 46.7406C125.952 44.126 122.337 39.1874 122.014 32.6025L171.853 55.7787L173.854 56.618C173.854 56.618 176.146 57.5863 172.014 55.6173C161.007 50.0331 136.798 38.1867 122.014 30.9563C122.122 29.4284 122.337 27.7822 122.66 26.0176C122.66 25.91 122.713 25.8024 122.821 25.6948ZM115.913 56.4566L122.175 77.4701C115.752 73.6935 112.621 66.9795 114.751 56.4566H115.913ZM152.292 80.7626L153.454 82.086C150.807 82.4088 148.117 82.5702 145.384 82.5702C136.83 82.5702 128.76 81.279 122.982 77.9866C121.175 71.2403 119.206 63.687 117.237 56.4566H132.376L152.292 80.7626ZM156.068 1.19512L128.276 14.1712C134.022 6.94076 143.576 2.51856 156.068 1.19512ZM109.684 19.9169L113.137 3.00274H122.821L110.006 20.0783L109.328 21.0789L109.684 19.9169ZM111.491 21.2403L124.5 3.16413H125.5L122.531 16.9472L112.008 21.8859L110.684 22.7251H110.523L111.491 21.2403ZM121.207 22.5315H114.461L122.014 18.7548L121.207 22.5315ZM95.5454 20.0783L100.645 22.5315H95.0612L95.5454 20.0783ZM104.906 20.2397L97.5144 11.2016L99.1606 3.16413H100.645L105.068 20.0783L105.584 21.0789L104.906 20.2397ZM95.8359 18.5934L96.998 13.1706L103.421 21.5308L104.551 22.6929H104.39L103.066 21.8859L95.8359 18.5934ZM106.875 19.7232L101.937 3.29325H111.491L107.715 19.7232L107.359 22.2087L106.875 19.7232ZM120.206 26.9537L119.561 29.8911C117.075 28.7613 115.106 27.7606 113.46 26.9537H120.206ZM105.39 29.8911L94.8675 80.8594H82.537L88.9605 51.0983C95.7068 42.0602 101.937 33.8614 105.068 29.7297C105.229 29.5683 105.584 28.9227 105.746 28.7613L105.39 29.8911ZM117.56 38.9291L115.268 50.0976C112.782 41.3823 110.813 33.8291 109.651 29.7297C109.651 29.5683 109.328 29.0518 109.328 28.8904L109.974 29.7297L117.56 38.9291ZM107.876 30.2138L114.622 52.9059L108.683 80.8271H95.5131C99.6448 63.2351 105.229 39.0905 107.198 30.2138C107.359 29.7297 107.359 28.4062 107.521 28.0834L107.876 30.2138ZM89.4447 48.1286L92.7371 32.8284C97.0302 30.8594 100.645 29.2132 103.131 28.0512C103.615 27.7284 104.261 27.4056 104.583 27.2442L103.454 28.5676L89.4447 48.1286ZM119.044 31.505L117.915 36.9278C115.268 33.474 112.976 30.5366 111.33 28.5676C111.168 28.2125 110.329 27.567 110.168 27.2442L111.653 28.0512L119.044 31.505ZM94.0283 26.9214H101.42L93.0277 31.0208L94.0283 26.9214ZM84.1832 55.5205L66.0748 80.8271H41.8656L37.0883 44.9976L29.3737 80.8271H0.0644531L16.6881 3.09958H53.712L56.6816 24.4682L36.7656 24.6296L34.9579 24.791L36.6042 24.9524C41.5428 24.9524 48.7733 25.1138 56.6816 25.2752L58.9734 41.7051L62.4595 25.4366C72.1432 25.598 82.537 25.7594 90.5745 25.7594L88.9282 33.0221L43.3504 55.5205L41.8656 56.3597C41.8656 56.3597 39.4124 57.4895 43.5118 55.6819C53.3892 51.2597 73.628 41.8988 88.6054 34.9911L84.1832 55.5205ZM92.4143 16.7213L66.7526 4.71352L67.2368 2.9059H89.1219L94.0606 9.168L92.4143 16.7213ZM94.3834 7.32811L90.7681 2.9059H95.384L94.3834 7.32811ZM66.2362 80.6335C70.5293 75.0492 76.9205 66.4953 83.5054 57.78L78.7604 80.6335H66.2362ZM90.7359 24.0809L62.4273 24.2422L66.559 5.52049L91.8979 18.3352L90.7359 24.0809Z" fill="#006BA9"/>
<path d="M115.881 56.457L121.949 77.4706C122.294 77.7073 122.573 77.8795 122.789 77.9871C120.981 71.2408 119.012 63.6875 117.011 56.457" fill="white"/>
<path d="M115.881 56.457L121.949 77.4706C122.294 77.7073 122.573 77.8795 122.789 77.9871C120.981 71.2408 119.012 63.6875 117.011 56.457H115.881Z" stroke="white" stroke-width="2"/>
<path d="M155.874 1.03444L128.211 14.2042C127.544 14.9574 126.942 15.7213 126.404 16.496L157.682 0.873047C157.015 0.980643 156.412 1.03444 155.874 1.03444Z" fill="white" stroke="white" stroke-width="2"/>
<path d="M122.789 25.6951L151.743 25.2109C151.528 24.9957 151.42 24.7267 151.42 24.4039L123.111 24.0488C123.004 24.6083 122.896 25.1571 122.789 25.6951Z" fill="white" stroke="white" stroke-width="2"/>
<path d="M171.982 55.6181C160.975 50.0339 136.766 38.1875 121.95 30.957C121.95 31.5165 121.95 32.0653 121.95 32.6033L171.821 55.7795L173.79 56.6187C173.79 56.6187 176.114 57.5871 171.982 55.6181Z" fill="white" stroke="white" stroke-width="2"/>
<path d="M133.473 56.457H132.149L152.065 80.763L153.389 82.0865C153.174 81.7637 152.786 81.2687 152.227 80.6016C147.966 75.0174 140.703 65.8179 133.473 56.457Z" fill="white" stroke="white" stroke-width="2"/>
<path d="M109.457 28.6646L110.103 29.6652L117.689 38.8647L118.011 36.8957C115.364 33.2805 113.073 30.4722 111.426 28.3418C111.265 28.019 110.587 27.3412 110.264 27.1798L111.749 28.019L119.173 31.4729L119.658 29.8266C117.172 28.5032 115.042 27.5026 113.395 26.6956C113.18 26.588 112.965 26.4804 112.75 26.3728C112.427 26.2114 111.104 25.8563 110.942 25.6949L112.75 25.8563L120.464 25.6949L120.82 24.0487H112.75L110.781 24.2101L112.588 23.4031L121.949 18.7873L122.272 16.8182L111.911 21.7569L110.587 22.5962L110.103 22.7576L110.264 22.5962L111.426 21.1113L124.435 3.03516H122.789L109.942 20.1107L109.296 21.1113L109.619 19.9493L113.073 3.03516H111.588L107.811 19.4651L107.488 21.9183L106.972 19.4651L102.033 3.03516H100.548L105.164 19.9493L105.487 21.1113L104.842 20.1107L97.4496 11.0726L97.0946 13.0416L103.518 21.4341L104.519 22.5962L103.195 21.7569L95.9648 18.4645L95.642 20.1107L100.548 22.5962L102.388 23.4031L104.357 24.2101L102.195 24.0487H94.6414L94.3186 25.6949C97.611 25.8563 100.387 25.8563 102.388 25.8563C102.711 25.8563 104.035 25.6949 104.196 25.6949L102.388 26.3728L101.71 26.6956L93.3179 30.795L92.8338 32.764C97.2883 30.795 100.903 29.1488 103.195 28.019C103.679 27.8576 104.519 27.3412 104.842 27.1798L103.679 28.5032L89.7027 48.0642L89.0571 51.0339C95.8034 41.9635 102.033 33.7647 105.164 29.6652C105.326 29.3102 105.681 28.826 105.842 28.6646L105.487 29.8266L94.9642 80.7627H95.642C99.7414 63.1707 105.326 39.0261 107.327 30.1494C107.488 29.6652 107.488 28.3418 107.65 28.019L107.973 30.1494L114.719 52.8415L115.203 50.0332C112.911 41.3179 110.942 33.7647 109.78 29.6652C109.78 29.4716 109.457 28.9874 109.457 28.6646Z" fill="white"/>
<path d="M104.519 22.5962L103.518 21.4341L97.0946 13.0416L97.4496 11.0726L104.842 20.1107L105.487 21.1113L105.164 19.9493L100.548 3.03516H102.033L106.972 19.4651L107.488 21.9183L107.811 19.4651L111.588 3.03516H113.073L109.619 19.9493L109.296 21.1113L109.942 20.1107L122.789 3.03516H124.435L111.426 21.1113L110.264 22.5962L110.103 22.7576L110.587 22.5962L111.911 21.7569L122.272 16.8182L121.949 18.7873L112.588 23.4031L110.781 24.2101L112.75 24.0487H120.82L120.464 25.6949L112.75 25.8563L110.942 25.6949C111.104 25.8563 112.427 26.2114 112.75 26.3728C112.965 26.4804 113.18 26.588 113.395 26.6956C115.042 27.5026 117.172 28.5032 119.658 29.8266L119.173 31.4729L111.749 28.019L110.264 27.1798C110.587 27.3412 111.265 28.019 111.426 28.3418C113.073 30.4722 115.364 33.2805 118.011 36.8957L117.689 38.8647L110.103 29.6652L109.457 28.6646C109.457 28.9874 109.78 29.4716 109.78 29.6652C110.942 33.7647 112.911 41.3179 115.203 50.0332L114.719 52.8415L107.973 30.1494L107.65 28.019C107.488 28.3418 107.488 29.6652 107.327 30.1494C105.326 39.0261 99.7414 63.1707 95.642 80.7627H94.9642L105.487 29.8266L105.842 28.6646C105.681 28.826 105.326 29.3102 105.164 29.6652C102.033 33.7647 95.8034 41.9635 89.0571 51.0339L89.7027 48.0642L103.679 28.5032L104.842 27.1798C104.519 27.3412 103.679 27.8576 103.195 28.019C100.903 29.1488 97.2883 30.795 92.8338 32.764L93.3179 30.795L101.71 26.6956L102.388 26.3728L104.196 25.6949C104.035 25.6949 102.711 25.8563 102.388 25.8563C100.387 25.8563 97.611 25.8563 94.3186 25.6949L94.6414 24.0487H102.195L104.357 24.2101L102.388 23.4031L100.548 22.5962L95.642 20.1107L95.9648 18.4645L103.195 21.7569L104.519 22.5962ZM104.519 22.5962H104.68" stroke="white" stroke-width="2"/>
<path d="M94.4802 7.45736L90.865 3.03516H89.2188L94.1574 9.26498" fill="white"/>
<path d="M94.4802 7.45736L90.865 3.03516H89.2188L94.1574 9.26498L94.4802 7.45736Z" stroke="white" stroke-width="2"/>
<path d="M92.5112 16.8173L66.8172 4.8418L66.6558 5.64877L92.1561 18.3021" fill="white"/>
<path d="M92.5112 16.8173L66.8172 4.8418L66.6558 5.64877L92.1561 18.3021L92.5112 16.8173Z" stroke="white" stroke-width="2"/>
<path d="M66.333 80.7617C70.6261 75.1775 77.211 66.6236 83.7636 57.9083L84.2801 55.4551L66.0103 80.7617" fill="white"/>
<path d="M66.333 80.7617C70.6261 75.1775 77.211 66.6236 83.7636 57.9083L84.2801 55.4551L66.0103 80.7617H66.333Z" stroke="white" stroke-width="2"/>
<path d="M43.4475 55.2951L41.8012 56.2957C41.8012 56.2957 39.5094 57.4255 43.4475 55.6178C53.3248 51.0342 73.725 41.6411 88.7025 34.7334L89.0575 32.9258" fill="white"/>
<path d="M43.4475 55.2951L41.8012 56.2957C41.8012 56.2957 39.5094 57.4255 43.4475 55.6178C53.3248 51.0342 73.725 41.6411 88.7025 34.7334L89.0575 32.9258L43.4475 55.2951Z" stroke="white" stroke-width="2"/>
<path d="M56.6172 24.4043L36.7012 24.5657L34.8936 24.7271H36.7012C41.6398 24.8885 48.7412 25.0499 56.7786 25.2113" fill="white"/>
<path d="M56.6172 24.4043L36.7012 24.5657L34.8936 24.7271H36.7012C41.6398 24.8885 48.7412 25.0499 56.7786 25.2113L56.6172 24.4043Z" stroke="white" stroke-width="2"/>
<path d="M90.8647 24.0488L62.7175 24.4039L62.5562 25.2109C72.2721 25.3723 82.4722 25.5337 90.5097 25.6951" fill="white"/>
<path d="M90.8647 24.0488L62.7175 24.4039L62.5562 25.2109C72.2721 25.3723 82.4722 25.5337 90.5097 25.6951L90.8647 24.0488Z" stroke="white" stroke-width="2"/>
</g>
<defs>
<clipPath id="clip0_6_15647">
<rect width="500" height="83.2795" fill="white"/>
</clipPath>
</defs>
</svg>
