<svg width="500" height="343" viewBox="0 0 500 343" fill="none" xmlns="http://www.w3.org/2000/svg">
<mask id="mask0_6_15652" style="mask-type:luminance" maskUnits="userSpaceOnUse" x="8" y="9" width="484" height="327">
<path d="M491.876 9.52344H8.2334V335.161H491.876V9.52344Z" fill="white"/>
</mask>
<g mask="url(#mask0_6_15652)">
<path d="M367.866 263.81C368.528 263.81 369.009 263.647 369.319 263.324C369.614 263.005 369.762 262.572 369.762 262.038C369.762 261.481 369.604 261.067 369.285 260.786C368.961 260.51 368.447 260.367 367.743 260.367H365.752V263.81H367.866ZM363.59 258.567H367.971C368.676 258.567 369.285 258.676 369.776 258.881C370.276 259.081 370.7 259.338 371.033 259.671C371.361 259.986 371.604 260.338 371.752 260.743C371.914 261.138 371.981 261.533 371.981 261.905C371.981 262.643 371.799 263.295 371.433 263.886C371.066 264.476 370.519 264.924 369.762 265.219L372.528 269.905H370.085L367.547 265.505H365.752V269.905H363.59V258.567ZM367.476 273.352C368.747 273.352 369.914 273.124 370.985 272.652C372.047 272.191 372.976 271.562 373.761 270.743C374.542 269.933 375.157 268.972 375.59 267.876C376.038 266.767 376.257 265.581 376.257 264.319C376.257 263.048 376.038 261.881 375.59 260.767C375.157 259.671 374.542 258.709 373.761 257.89C372.976 257.076 372.047 256.438 370.985 255.972C369.914 255.495 368.757 255.257 367.523 255.257C366.257 255.257 365.09 255.495 364.014 255.972C362.952 256.438 362.014 257.076 361.214 257.89C360.428 258.709 359.809 259.671 359.376 260.767C358.928 261.881 358.714 263.048 358.714 264.319C358.714 265.581 358.928 266.767 359.376 267.876C359.809 268.972 360.414 269.933 361.204 270.743C361.981 271.562 362.904 272.191 363.98 272.652C365.057 273.124 366.219 273.352 367.476 273.352ZM367.476 275.495C365.923 275.495 364.461 275.209 363.099 274.633C361.742 274.057 360.562 273.257 359.571 272.243C358.562 271.224 357.776 270.033 357.204 268.676C356.619 267.314 356.333 265.848 356.333 264.286C356.333 262.724 356.619 261.262 357.204 259.9C357.776 258.543 358.562 257.357 359.571 256.352C360.562 255.352 361.742 254.548 363.099 253.967C364.461 253.376 365.933 253.076 367.523 253.076C369.076 253.076 370.542 253.376 371.89 253.967C373.238 254.548 374.404 255.352 375.4 256.352C376.404 257.357 377.19 258.543 377.762 259.9C378.333 261.262 378.633 262.724 378.633 264.286C378.633 265.848 378.333 267.314 377.762 268.676C377.19 270.033 376.404 271.224 375.4 272.243C374.404 273.257 373.228 274.057 371.866 274.633C370.504 275.209 369.042 275.495 367.476 275.495Z" fill="black"/>
<path d="M313.867 187.234C308.143 182.677 297.857 179.891 288.7 179.891C265.148 179.891 251.557 197.472 251.557 218.734C251.557 239.172 262.848 254.567 285.776 254.567C298.257 254.567 308.143 251.324 313.867 246.543V187.234ZM234.243 326.739L242.714 300.429C250.905 303.834 262.234 307.848 276.486 307.848C295.514 307.848 313.867 299.739 313.867 275.615V272.034C305.705 276.363 295.843 279.534 281.229 279.534C242.438 279.534 221.157 254.391 221.157 218.72C221.157 184.215 246.391 154.91 287.548 154.91C310.919 154.91 329.1 162.001 343.762 171.425V266.691C343.762 282.539 341.99 291.372 338.448 299.924C329.214 322.296 307.134 335.162 274.895 335.162C262.276 335.162 246.086 332.215 234.243 326.739Z" fill="black"/>
<path d="M8.21875 157.71H36.814L37.5711 170.205C47.2378 160.134 61.1568 155.172 74.7901 155.172C102.2 155.172 120.333 171.234 120.333 202.124V276.391H90.4854V205.743C90.4854 188.615 81.5569 181.043 67.914 181.043C54.8855 181.043 41.8567 189.743 38.0853 200.705V276.391H8.21875" fill="black"/>
<path d="M144.848 157.709H173.148L173.891 172.947C182.895 161.694 194.781 155.732 210.2 155.732C215.419 155.732 222.047 156.866 227.286 159.175L217.843 186.042C213.59 184.399 206.895 183.523 202.071 183.523C189.628 183.523 178.586 191.552 174.714 202.171V276.39H144.848" fill="black"/>
<path d="M456.909 67.4668H436.724V99.6285H456.909V67.4668Z" fill="#FFD200"/>
<path d="M456.909 125.361H436.724V157.552H456.909V125.361Z" fill="#FFD200"/>
<path d="M433.885 102.385H401.704V122.599H433.885V102.385Z" fill="#429538"/>
<path d="M491.871 102.385H459.647V122.599H491.871V102.385Z" fill="#FFD200"/>
<path d="M398.985 67.4668H378.79V99.6285H398.985V67.4668Z" fill="#333091"/>
<path d="M398.985 125.361H378.79V157.552H398.985V125.361Z" fill="#00ADEF"/>
<path d="M375.961 102.385H343.775V122.599H375.961V102.385Z" fill="#00ADEF"/>
<path d="M398.985 9.52344H378.79V41.709H398.985V9.52344Z" fill="#EC008B"/>
<path d="M375.961 44.4707H343.775V64.6661H375.961V44.4707Z" fill="#EC008B"/>
<path d="M433.947 44.4707H401.719V64.6661H433.947V44.4707Z" fill="#EC008B"/>
</g>
</svg>
