<svg width="500" height="71" viewBox="0 0 500 71" fill="none" xmlns="http://www.w3.org/2000/svg">
<g clip-path="url(#clip0_6_15658)">
<path d="M83.9448 58.4715L84.8383 52.9398C88.069 55.0417 91.8581 56.1215 95.7115 56.0384C100.54 56.0384 103.638 53.9854 103.638 50.6587C103.638 48.1685 102.08 46.5527 98.0877 44.5568C97.2133 44.1196 93.3164 42.4468 91.9857 41.8385C87.3855 39.7284 84.382 36.6299 84.382 31.5735C84.382 25.8707 89.1534 21.7647 97.1943 21.7647C100.651 21.688 104.07 22.5066 107.117 24.1409L106.167 29.4634C103.389 27.7629 100.204 26.8435 96.9471 26.8021C92.4039 26.8021 90.0658 28.9122 90.0658 31.6875C90.0658 34.0257 91.6816 35.4894 94.609 36.782C95.6735 37.2952 100.445 39.2912 101.338 39.6714C106.87 42.2186 109.379 45.5072 109.379 50.2215C109.379 56.7037 104 61.1328 95.9397 61.1328C91.7802 61.3482 87.6406 60.4283 83.9638 58.4715" fill="#636466"/>
<path d="M124.529 61.1334C117.648 61.1334 112.173 56.7043 112.173 47.2757C112.173 37.8471 117.762 33.418 124.529 33.418C131.639 33.418 136.847 38.2843 136.847 47.2757C136.847 56.2671 131.297 61.1334 124.529 61.1334ZM124.529 56.5332C128.692 56.5332 131.411 52.5983 131.411 47.2757C131.411 41.9531 128.749 38.0182 124.529 38.0182C119.872 38.0182 117.648 42.4474 117.648 47.2757C117.648 52.4272 120.157 56.5332 124.529 56.5332Z" fill="#636466"/>
<path d="M140.421 53.0354V33.9121H145.858V51.2105C145.858 54.328 146.846 56.324 150.116 56.324C152.891 56.324 155.819 53.7007 156.845 52.3321V33.9121H162.263V60.525H157.606L157.168 57.1414C154.779 59.4972 151.621 60.9142 148.272 61.1333C142.949 61.1333 140.345 57.8637 140.345 53.0354" fill="#636466"/>
<path d="M182.185 60.6385C180.826 60.9589 179.436 61.1248 178.041 61.1328C172.927 61.1328 170.266 58.5856 170.266 53.263V38.5118H166.464V33.9116H170.266V26.612L175.645 25.0723V33.8355H181.253L182.032 38.4358H175.645V52.6357C175.58 53.0928 175.623 53.5589 175.771 53.9963C175.919 54.4338 176.167 54.8304 176.496 55.1542C176.826 55.4779 177.226 55.7197 177.666 55.8601C178.106 56.0005 178.573 56.0355 179.029 55.9623C179.855 55.9771 180.68 55.8812 181.481 55.6771L182.185 60.6385Z" fill="#636466"/>
<path d="M208.398 41.4594V60.5827H203.019V43.2843C203.019 40.2238 201.973 38.1708 198.704 38.1708C195.928 38.1708 193.153 40.8321 191.993 42.2197V60.5827H186.614V22.0319L191.993 20.4922V37.0682C194.302 34.8917 197.304 33.5992 200.472 33.4185C205.794 33.4185 208.398 36.631 208.398 41.4594Z" fill="#636466"/>
<path d="M217.694 48.0544C217.694 50.8868 218.796 56.4755 225.183 56.4755C228.7 56.367 232.066 55.0206 234.688 52.6737L235.467 57.445C232.436 59.9544 228.583 61.2543 224.651 61.0948C217.313 61.0948 212.333 56.1714 212.333 47.18C212.333 37.8655 218.036 33.3223 224.138 33.3223C232.084 33.3223 235.543 39.8044 235.543 46.6287V47.9594L217.694 48.0544ZM229.898 43.8344C229.555 42.0665 228.833 37.7324 224.005 37.7324C220.203 37.7324 218.416 41.1731 217.96 43.8344H229.898Z" fill="#636466"/>
<path d="M245.105 38.683C246.098 37.12 247.456 35.8221 249.062 34.9014C250.668 33.9807 252.474 33.4648 254.325 33.3984L255.085 38.2838C253.082 38.2377 251.107 38.7618 249.391 39.795C247.674 40.8283 246.287 42.3281 245.39 44.1196V60.5816H239.954V33.9687H244.44L245.105 38.683Z" fill="#636466"/>
<path d="M279.721 41.4589V60.5822H274.284V43.2838C274.284 40.2233 273.296 38.1703 270.026 38.1703C267.251 38.1703 264.324 40.8316 263.316 42.2192V60.5822H257.879V33.9692H262.537L262.974 37.4099C265.347 35.0524 268.494 33.6342 271.832 33.418C277.155 33.418 279.759 36.6305 279.759 41.4589" fill="#636466"/>
<path d="M324.564 24.8642L323.728 30.5669C320.847 28.1659 317.231 26.8241 313.482 26.7651C305.498 26.7651 301.544 33.2092 301.544 41.4212C301.544 50.1275 305.821 56.0013 313.482 56.0013C317.429 55.8501 321.222 54.4302 324.298 51.9523L325.077 57.6551C324.564 58.2634 320.8 61.1338 313.425 61.1338C303.046 61.1338 295.67 53.6632 295.67 41.4592C295.67 29.2553 303.046 21.7657 313.425 21.7657C317.375 21.5652 321.284 22.6525 324.564 24.8642Z" fill="#636466"/>
<path d="M339.296 61.1334C332.415 61.1334 326.921 56.7043 326.921 47.2757C326.921 37.8471 332.624 33.418 339.296 33.418C346.386 33.418 351.614 38.2843 351.614 47.2757C351.614 56.2671 346.063 61.1334 339.296 61.1334ZM339.296 56.5332C343.459 56.5332 346.177 52.5983 346.177 47.2757C346.177 41.9531 343.516 38.0182 339.296 38.0182C334.639 38.0182 332.415 42.4474 332.415 47.2757C332.415 52.4272 334.905 56.5332 339.296 56.5332Z" fill="#636466"/>
<path d="M392.636 41.4596V60.5829H387.256V43.2845C387.256 40.224 386.363 38.171 383.093 38.171C380.318 38.171 377.657 40.7943 376.535 42.22V60.5829H371.098V43.2845C371.098 40.224 370.224 38.171 366.954 38.171C364.179 38.171 361.518 40.8323 360.396 42.22V60.5829H354.959V33.97H359.617L360.073 37.4106C362.398 35.072 365.49 33.654 368.779 33.4187C370.242 33.2559 371.718 33.5718 372.986 34.319C374.254 35.0661 375.246 36.2043 375.813 37.5627C378.211 35.074 381.466 33.5922 384.918 33.4187C390.241 33.4187 392.522 36.6313 392.522 41.4596" fill="#636466"/>
<path d="M402.578 37.3529C403.604 36.1456 404.876 35.1704 406.308 34.492C407.74 33.8136 409.3 33.4475 410.885 33.418C417.215 33.418 421.435 37.8471 421.435 47.2757C421.435 57.0845 414.877 61.1334 408.566 61.1334C406.684 61.0922 404.824 60.719 403.072 60.0309V69.3454L397.635 70.9042V33.9122H402.064L402.578 37.3529ZM403.072 41.6109V55.6017C404.708 56.1884 406.429 56.503 408.166 56.5332C413.394 56.5332 415.998 52.5413 415.998 47.2757C415.998 41.668 413.603 38.0182 409.402 38.0182C408.149 38.1622 406.938 38.554 405.838 39.1708C404.738 39.7876 403.772 40.6171 402.996 41.6109" fill="#636466"/>
<path d="M441.015 60.5831L440.786 57.3135C439.855 58.5236 438.653 59.498 437.276 60.1584C435.899 60.8187 434.386 61.1465 432.86 61.1153C427.86 61.1153 423.868 58.5111 423.868 52.8083C423.868 44.8244 434.684 43.7029 440.349 43.0946V42.2582C440.349 40.3573 439.57 38.0001 435.141 38.0001C432.079 38.1729 429.09 39.0027 426.377 40.4333L425.655 35.662C428.754 34.238 432.111 33.4618 435.521 33.3809C443.448 33.3809 445.786 36.9926 445.786 42.8855V60.6401L441.015 60.5831ZM440.349 47.3907C434.247 47.999 429.191 49.2916 429.191 52.9794C429.191 55.3746 430.864 56.5341 433.297 56.5341C436.008 56.3122 438.532 55.0606 440.349 53.0364V47.3907Z" fill="#636466"/>
<path d="M472.741 41.4585V60.5818H467.304V43.2834C467.304 40.2229 466.296 38.1699 463.027 38.1699C460.251 38.1699 457.438 40.8312 456.317 42.2189V60.5818H450.88V33.9689H455.537L455.993 37.4095C458.366 35.0812 461.496 33.6844 464.814 33.4746C470.136 33.4746 472.741 36.6872 472.741 41.5155" fill="#636466"/>
<path d="M480.934 33.9121L487.758 53.7578L494.468 33.9121H499.943C499.943 33.9121 492.339 54.7082 489.298 62.7491C486.636 70.0106 482.207 70.3528 479.926 70.3528C479.198 70.3536 478.471 70.2771 477.759 70.1247L477.132 65.4104C478.084 65.7201 479.077 65.8867 480.078 65.9047C481.016 65.9169 481.93 65.6091 482.67 65.032C483.409 64.4549 483.93 63.643 484.146 62.7301C484.584 61.5135 484.983 60.3349 484.983 60.3349L475.231 33.9121H480.934Z" fill="#636466"/>
<path d="M0 60.5824H69.954V60.5633L23.2483 48.9297L0 60.5824Z" fill="#007DBA"/>
<path d="M8.80128 45.3184L0 60.5828L23.2483 48.9301L8.80128 45.3184Z" fill="#B2D235"/>
<path d="M23.2485 48.9304L69.9542 60.5641L54.2526 33.3809L23.2485 48.9304Z" fill="#00BDF2"/>
<path d="M34.9769 0L10.6641 42.1055L52.3893 30.1486L34.9769 0Z" fill="#ED1D24"/>
</g>
<defs>
<clipPath id="clip0_6_15658">
<rect width="500" height="70.9045" fill="white"/>
</clipPath>
</defs>
</svg>
