<svg width="500" height="133" viewBox="0 0 500 133" fill="none" xmlns="http://www.w3.org/2000/svg">
<g clip-path="url(#clip0_6_15637)">
<path d="M149.239 14.3359L149.967 51.4608L168.882 14.3359H175.926L178.439 51.4608L195.601 14.3359H202.645L180.059 59.9823H173.28L170.668 22.1308L151.289 59.9823H144.543L142.328 14.3359H149.239Z" fill="#1188C9"/>
<path d="M209.259 14.3359H244.18L242.857 19.9179H214.252L211.177 33.7241H237.566L236.408 39.0087H209.987L206.481 54.4004H235.516L234.358 59.8502H198.975L209.259 14.3359Z" fill="#1188C9"/>
<path d="M290.575 28.1423H284.093C284.093 25.2027 283.068 22.8576 281.316 21.1071C279.563 19.3235 276.785 18.4647 272.817 18.4647C268.121 18.4647 263.855 20.0832 260.185 23.1549C256.514 26.3918 254.034 31.0819 252.546 37.6877C251.388 42.9724 251.686 47.3653 253.571 50.7343C255.489 54.1033 258.994 55.7217 264.285 55.7217C269.146 55.7217 273.247 53.9711 276.488 50.437C278.24 48.5543 279.695 46.1762 281.018 43.1045H287.5C285.879 47.9598 283.068 51.9233 279.133 55.1602C274.437 59.1237 268.683 61.0064 262.235 61.0064C256.646 61.0064 252.248 59.3879 249.173 56.1841C245.072 51.9233 244.047 45.3175 246.097 36.4987C247.552 29.7607 250.793 24.3109 255.489 19.918C260.626 15.2279 266.787 12.8828 273.974 12.8828C280.158 12.8828 284.556 14.3361 287.202 17.4408C289.98 20.8098 291.005 24.1788 290.575 28.1423Z" fill="#1188C9"/>
<path d="M145.998 72.8965H179.034L177.843 78.4784H150.826L147.916 92.2846H172.85L171.693 97.5693H146.726L143.485 112.961H170.932L169.775 118.411H136.309L145.998 72.8965Z" fill="#6D6E71"/>
<path d="M180.919 85.0841H186.21L185.185 89.7742C187.103 87.8585 189.153 86.4052 191.071 85.6786C192.956 84.7868 195.006 84.3574 197.056 84.3574C201.785 84.3574 204.563 85.9759 205.588 89.1797C206.183 90.9633 206.018 93.6056 205.29 96.8094L200.727 117.948H195.171L199.569 97.1067C199.999 95.0589 199.999 93.4405 199.702 92.2844C199.14 90.2036 197.651 89.1797 195.006 89.1797C193.683 89.1797 192.526 89.3448 191.633 89.6421C190.013 90.0715 188.558 90.9633 187.103 92.2844C185.912 93.3083 185.052 94.4644 184.589 95.6534C183.994 96.8094 183.564 98.4279 183.134 100.641L179.464 117.948H173.875L180.919 85.0841Z" fill="#6D6E71"/>
<path fill-rule="evenodd" clip-rule="evenodd" d="M238.161 90.3694C238.888 91.9879 239.186 94.0357 239.186 96.2486C239.186 97.7019 238.888 100.212 238.161 103.581H213.954C213.359 106.95 213.524 109.592 214.682 111.64C215.707 113.688 217.757 114.745 220.998 114.745C223.941 114.745 226.421 113.688 228.471 111.805C229.662 110.616 230.687 109.46 231.415 107.974H236.838C236.408 109.163 235.68 110.484 234.49 112.103C233.333 113.556 232.142 114.745 230.985 115.769C228.934 117.354 226.587 118.543 224.073 119.138C222.618 119.435 221.13 119.567 219.378 119.567C215.277 119.567 212.036 118.114 209.854 115.009C207.638 112.103 207.043 107.842 208.233 102.392C209.391 97.1074 211.739 92.8466 215.277 89.4776C218.782 86.1087 222.916 84.4902 227.612 84.4902C229.96 84.4902 232.142 85.0848 234.06 86.1087C236.11 87.1326 237.433 88.6189 238.161 90.3694ZM233.333 99.0231C233.63 96.678 233.465 94.7623 233.035 93.309C232.142 90.6667 229.794 89.3455 226.289 89.3455C223.776 89.3455 221.428 90.2043 219.245 92.12C217.195 94.0357 215.707 96.2486 214.979 99.1882H233.333V99.0231Z" fill="#6D6E71"/>
<path d="M246.825 85.0841H252.116L250.925 90.7981C251.521 89.6421 253.009 88.3209 254.894 86.7025C256.944 85.0841 258.994 84.3574 261.21 84.3574C261.342 84.3574 261.507 84.3574 261.805 84.3574C262.103 84.3574 262.4 84.3574 262.963 84.4895L261.805 90.3687C261.507 90.3687 261.21 90.2036 260.912 90.2036C260.626 90.2036 260.339 90.2036 260.052 90.2036C257.253 90.2036 254.905 91.0844 253.009 92.8459C251.091 94.6075 249.911 96.6663 249.47 99.0224L245.502 117.948H239.914L246.825 85.0841Z" fill="#6D6E71"/>
<path fill-rule="evenodd" clip-rule="evenodd" d="M283.531 86.4059C284.391 87.1326 285.284 88.1565 286.012 89.4776L286.904 85.382H292.03L285.714 115.306C284.854 119.567 283.531 122.804 281.746 125.281C278.538 129.839 273.677 132.052 267.229 132.052C263.723 132.052 260.912 131.326 258.73 129.707C256.647 128.089 255.787 125.579 256.217 122.21H261.805C261.805 123.696 262.103 124.852 262.665 125.579C263.723 126.768 265.476 127.494 268.254 127.494C272.52 127.494 275.595 126.041 277.513 122.936C278.67 121.186 279.696 117.949 280.588 113.556C279.133 115.174 277.513 116.496 275.727 117.354C273.975 118.246 271.924 118.543 269.279 118.543C265.774 118.543 262.83 117.222 260.78 114.745C258.565 112.235 258.135 107.974 259.457 102.095C260.615 96.5459 262.83 92.2851 266.203 89.1804C269.576 86.1087 273.115 84.4902 276.918 84.4902C279.861 84.4902 281.911 85.2169 283.531 86.4059ZM277.215 89.4776C273.247 89.4776 270.304 91.2612 268.121 94.9275C266.931 96.8101 266.071 99.4525 265.311 102.557C264.583 106.223 264.748 109.163 265.774 111.046C266.799 112.961 268.684 113.985 271.197 113.985C275.165 113.985 278.373 112.235 280.721 108.569C282.043 106.521 283.069 104.176 283.664 101.533C284.557 97.4046 284.391 94.465 283.069 92.4172C281.746 90.5015 279.861 89.4776 277.215 89.4776Z" fill="#6D6E71"/>
<path d="M318.882 85.084H325.066C323.875 87.1318 321.097 91.9871 316.832 99.6168C313.624 105.331 310.978 109.889 308.928 113.423C303.924 121.768 300.54 126.899 298.776 128.815C297.023 130.73 294.675 131.589 291.435 131.589C290.707 131.589 290.112 131.589 289.682 131.457C289.252 131.457 288.789 131.325 288.227 131.16L289.252 126.172C290.112 126.47 290.873 126.602 291.302 126.602C291.732 126.602 292.03 126.767 292.46 126.767C293.518 126.767 294.246 126.602 294.808 126.337C295.403 126.04 295.866 125.578 296.296 125.148C296.428 125.016 297.023 124.124 297.916 122.638C298.941 121.185 299.504 119.996 299.966 119.269L294.973 85.3812H301.289L304.365 112.234L318.882 85.084Z" fill="#6D6E71"/>
<path d="M376.719 74.2183C380.688 76.5634 382.606 80.692 382.308 86.7033H376.289C376.289 83.3343 375.264 80.9893 373.214 79.503C371.131 78.0497 368.518 77.29 364.98 77.29C360.714 77.29 356.911 78.9084 353.373 82.0132C349.867 85.0849 347.354 89.775 346.032 96.0836C344.874 101.533 345.172 105.926 346.792 109.295C348.379 112.664 351.918 114.448 357.209 114.448C361.309 114.448 364.98 113.259 368.055 110.914C371.296 108.558 373.501 104.737 374.669 99.4526H360.416L361.607 94.3331H381.415L376.289 118.543H372.321L372.024 112.664C369.543 115.009 367.328 116.496 365.575 117.354C362.5 118.841 358.961 119.733 354.861 119.733C349.438 119.733 345.304 117.949 342.096 114.58C338.856 110.187 337.963 104.308 339.583 96.6781C341.203 89.0484 344.576 83.0371 349.57 78.6112C354.398 74.3834 359.854 72.1705 366.17 72.1705C370.403 71.7411 373.942 72.5999 376.719 74.2183Z" fill="#6D6E71"/>
<path d="M389.351 85.0841H394.642L393.452 90.7981C394.047 89.6421 395.502 88.3209 397.42 86.7025C399.47 85.0841 401.521 84.3574 403.736 84.3574C403.868 84.3574 404.034 84.3574 404.298 84.3574C404.596 84.3574 404.894 84.3574 405.489 84.4895L404.298 90.3687C404.034 90.3687 403.736 90.2036 403.439 90.2036C403.152 90.2036 402.854 90.2036 402.546 90.2036C399.768 90.2036 397.42 91.0844 395.502 92.8459C393.606 94.6075 392.438 96.6663 391.997 99.0224L388.029 117.948H382.308L389.351 85.0841Z" fill="#6D6E71"/>
<path fill-rule="evenodd" clip-rule="evenodd" d="M433.068 100.939C431.911 106.224 429.695 110.617 426.322 114.151C422.949 117.652 418.551 119.27 413.128 119.27C408.564 119.27 405.357 117.817 403.273 114.745C401.223 111.663 400.782 107.545 401.951 102.392C403.141 96.8215 405.5 92.4176 409.027 89.1808C412.533 85.9769 416.633 84.1934 421.329 84.1934C425.595 84.1934 428.836 85.6797 431.183 88.4541C433.664 91.2616 434.259 95.4893 433.068 100.939ZM427.348 101.071C427.943 97.9996 428.108 95.4893 427.513 93.6067C426.62 90.5019 424.272 89.0487 420.469 89.0487C417.096 89.0487 414.285 90.3698 412.235 92.847C410.185 95.4893 408.73 98.5941 407.969 102.26C407.242 105.783 407.396 108.712 408.432 111.046C409.446 113.402 411.64 114.58 415.013 114.58C418.683 114.58 421.494 113.259 423.545 110.485C425.165 107.677 426.62 104.44 427.348 101.071Z" fill="#6D6E71"/>
<path d="M446.428 85.084L441.732 106.949C441.435 108.568 441.302 110.021 441.732 111.045C442.327 112.961 443.948 113.985 446.593 113.985C450.396 113.985 453.472 112.234 455.522 108.865C456.712 106.949 457.605 104.439 458.333 101.235L461.838 85.084H467.427L460.383 118.113H455.092L456.117 113.258C455.092 114.579 454.067 115.603 452.744 116.495C450.264 118.245 447.453 119.137 444.543 119.137C439.847 119.137 436.904 117.519 435.879 114.447C435.284 112.829 435.284 110.483 435.879 107.676L440.707 85.2161L446.428 85.084Z" fill="#6D6E71"/>
<path fill-rule="evenodd" clip-rule="evenodd" d="M473.313 85.2173H478.736L477.844 89.6432C479.321 88.1679 480.787 86.9898 482.242 86.1091C484.457 84.953 486.64 84.1934 489.285 84.1934C492.956 84.1934 495.899 85.6797 497.949 88.4541C500 91.3937 500.463 95.3572 499.272 100.774C497.817 107.974 494.742 113.127 490.311 116.199C487.533 118.114 484.59 119.138 481.382 119.138C478.869 119.138 476.951 118.544 475.496 117.52C474.603 116.925 473.743 115.901 472.85 114.283L469.345 131.161H463.756L473.313 85.2173ZM493.287 101.369C493.849 98.7262 493.849 96.5133 493.584 94.6306C492.989 90.9313 490.641 89.1808 486.805 89.1808C483.002 89.1808 479.927 91.0965 477.711 94.8948C476.554 96.9757 475.661 99.618 474.934 102.69C474.338 105.167 474.338 107.38 474.768 109.13C475.529 112.532 477.711 114.283 481.547 114.283C484.16 114.283 486.508 113.259 488.723 111.046C490.774 108.998 492.394 105.761 493.287 101.369Z" fill="#6D6E71"/>
<path d="M0.0991211 0.0996094H33.2671V52.7812L0.0991211 85.9755V0.0996094Z" fill="#1188C9"/>
<path d="M39.7486 50.1397C42.361 46.4735 41.9311 42.6751 41.9311 42.6751V0.265625H77.0171V23.8815C77.1494 30.1901 73.4787 32.8324 73.4787 32.8324L0.0991211 105.761V89.7747L39.7486 50.1397Z" fill="#1188C9"/>
<path d="M66.898 84.3574H120.304V117.651H33.8623L66.898 84.3574Z" fill="#1188C9"/>
<path d="M30.059 117.651H14.0537L87.1357 44.1276C87.1357 44.1276 89.7812 40.4614 96.0974 40.6265H120.304V75.7035H76.1238C76.1238 75.7035 73.0484 75.5384 69.973 77.8834L30.059 117.651Z" fill="#1188C9"/>
<path d="M9.49066 117.651H0.0991211V110.021L81.4153 29.7598C81.4153 29.7598 84.193 27.8441 84.193 22.1301V0.0996094H120.304V33.5582H98.4457C98.4457 33.5582 94.0475 33.4261 91.9973 35.3418L9.49066 117.651Z" fill="#1188C9"/>
</g>
<defs>
<clipPath id="clip0_6_15637">
<rect width="500" height="132.117" fill="white"/>
</clipPath>
</defs>
</svg>
