<svg width="500" height="100" viewBox="0 0 500 100" fill="none" xmlns="http://www.w3.org/2000/svg">
<path fill-rule="evenodd" clip-rule="evenodd" d="M96.9078 70.1931C93.1346 74.7743 87.7001 79.4609 80.2985 84.5133C55.8231 101.203 24.2138 101.159 11.2821 84.408C6.03346 77.6179 4.0198 69.2895 5.46242 60.3266C7.75751 46.0035 18.6919 31.6444 36.2384 19.8933C41.8449 16.1435 46.0526 16.1546 48.5908 16.8336C51.8586 17.7038 53.7466 19.946 54.3504 21.1294L54.375 21.1848C55.6209 23.6376 58.5307 29.3746 47.2193 38.332C24.7657 56.1028 16.905 72.0527 25.0826 83.2384C33.6373 94.9397 61.2193 94.3493 79.7384 82.0578C85.5335 78.2137 90.5335 74.8963 95.2603 69.1676C95.8258 68.4775 96.416 68.5606 96.7466 68.8433C97.1373 69.1759 97.2165 69.8189 96.9078 70.1931Z" fill="#DA1020"/>
<path fill-rule="evenodd" clip-rule="evenodd" d="M0.190222 26.8107C3.96345 22.2239 9.39787 17.5401 16.7995 12.4932C41.2749 -4.20498 72.8842 -4.15786 85.8159 12.5958C91.0618 19.3887 93.0755 27.7143 91.641 36.6717C89.3378 50.9948 78.4061 65.3594 60.8569 77.1133C55.2558 80.8631 51.0509 80.8465 48.5044 80.1702C45.2421 79.3055 43.3487 77.0551 42.7531 75.8744L42.723 75.819C41.4771 73.3718 38.57 67.6292 49.8815 58.6718C72.335 40.8982 80.1957 24.9483 72.0181 13.7654C63.4607 2.06136 35.876 2.65446 17.3596 14.9432C11.57 18.7845 6.56181 22.1075 1.83503 27.8362C1.26946 28.5263 0.679293 28.4404 0.351424 28.1577C-0.0420188 27.8279 -0.118522 27.1821 0.190222 26.8107Z" fill="#DA1020"/>
<path fill-rule="evenodd" clip-rule="evenodd" d="M143.407 43.1006L132.467 20.3633H148.41L153.017 32.9514L162.495 20.3633H179.907L160.09 43.1006L171.629 68.687H155.153L149.883 55.151L138.869 68.687H120.855L143.407 43.1006Z" fill="black"/>
<path fill-rule="evenodd" clip-rule="evenodd" d="M196.515 46.8946C196.581 45.2013 196.313 44.1176 195.578 43.4441C194.912 42.6958 193.778 42.4242 192.242 42.4242C186.504 42.4242 184.966 50.0735 184.966 53.3882C184.966 56.7057 185.704 59.8236 189.51 59.8236C193.108 59.8236 194.578 56.6392 195.31 54.677H207.988C205.726 64.6959 199.382 69.571 189.373 69.571C174.693 69.571 171.756 60.0925 171.756 53.5268C171.756 41.5484 179.433 32.6797 192.641 32.6797C202.25 32.6797 209.39 37.0808 209.193 46.8946H196.515Z" fill="black"/>
<path fill-rule="evenodd" clip-rule="evenodd" d="M234.284 58.4684C233.607 59.6823 231.943 60.971 229.077 60.971C224.934 60.971 223.669 57.8559 223.669 54.1393H248.353C248.956 51.9692 249.022 49.9377 249.022 48.0448C249.022 37.0171 239.749 32.6797 232.079 32.6797C223.467 32.6797 211.325 37.9621 211.325 54.07C211.325 62.6007 216.262 69.571 228.544 69.571C243.484 69.571 246.085 60.8352 246.954 58.4684H234.284ZM224.803 47.1635C225.803 43.4441 228.139 41.2796 231.678 41.2796C235.016 41.2796 236.68 43.3804 236.68 46.0161C236.68 46.3487 236.615 46.8254 236.549 47.1635H224.803Z" fill="black"/>
<path fill-rule="evenodd" clip-rule="evenodd" d="M259.766 20.3633H272.974L263.1 68.687H249.887L259.766 20.3633Z" fill="black"/>
<path fill-rule="evenodd" clip-rule="evenodd" d="M289.626 20.3633H322.456L321.391 25.776H294.902L291.697 41.1439H316.388L315.314 46.5566H290.563L287.09 63.2742H313.918L312.71 68.687H279.555L289.626 20.3633Z" fill="black"/>
<path fill-rule="evenodd" clip-rule="evenodd" d="M325.457 33.6921H330.927L329.861 38.9718H329.995C332.87 35.0473 337.534 32.8828 342.277 32.8828C348.741 32.8828 351.886 35.7264 351.886 41.8846C351.886 43.3784 351.479 46.0141 350.878 48.7246L346.676 68.6877H341.006L345.411 48.2479C345.676 46.962 346.211 44.0491 346.211 42.8297C346.211 39.5178 343.542 37.9602 340.203 37.9602C337.066 37.9602 333.807 39.7173 331.662 42.0232C329.665 43.7831 328.594 46.5573 327.859 49.326L323.859 68.6877H318.187L325.457 33.6921Z" fill="black"/>
<path fill-rule="evenodd" clip-rule="evenodd" d="M386.113 52.9159C386.31 51.9681 386.643 50.2082 386.643 48.379C386.643 38.5014 382.178 32.8809 372.028 32.8809C362.558 32.8809 354.282 42.0212 354.282 55.4186C354.282 61.5103 357.484 69.495 368.897 69.495C376.438 69.495 382.703 65.4431 384.512 57.7245H378.837C377.233 62.0508 373.834 64.4232 368.897 64.4232C364.29 64.4232 359.952 61.3801 359.952 55.9646C359.952 54.9419 360.017 53.9359 360.154 52.9159H386.113ZM360.954 47.8414C362.624 42.4231 366.23 37.961 372.9 37.961C379.17 37.961 381.372 42.8998 380.973 47.8414H360.954Z" fill="black"/>
<path fill-rule="evenodd" clip-rule="evenodd" d="M394.984 33.6914H400.318L398.654 41.2104H398.796C401.463 36.4047 405.523 32.8821 411.334 32.8821C411.995 32.8821 412.667 32.7519 413.331 32.8821L411.995 39.0431C411.463 38.9711 410.87 38.9711 410.331 38.9711C408.93 38.9711 408.258 38.9711 406.93 39.3092C403.793 40.124 401.383 42.222 399.591 44.9963C398.05 47.2301 397.252 50.5476 396.714 53.186L393.449 68.687H387.782L394.984 33.6914Z" fill="black"/>
<path fill-rule="evenodd" clip-rule="evenodd" d="M446.729 82.8097L454.757 68.6557L448.683 33.6602H454.757L458.754 61.4748H458.896L473.372 33.6602H479.576L452.175 82.807L446.729 82.8097Z" fill="black"/>
<path fill-rule="evenodd" clip-rule="evenodd" d="M439.602 63.6131L445.815 33.7004H440.476L439.411 40.1247H439.271V39.9917C438.271 35.5933 433.337 32.8828 428.332 32.8828C417.118 32.8828 410.386 44.1212 410.386 54.4755C410.386 62.7983 414.788 68.9593 423.329 68.9593C427.668 68.9593 431.602 67.338 434.072 63.6131L434.209 63.7489C430.908 76.4229 421.853 79.3385 412.214 79.3385C411.731 80.7187 410.731 82.6754 410.028 84.3909C421.337 84.3909 435.386 81.8966 439.602 63.6131ZM416.058 54.4755C416.058 48.0456 420.326 37.9602 428.266 37.9602C434.209 37.9602 437.075 41.6158 437.075 47.095C437.075 54.1374 433.064 63.8847 424.528 63.8847C418.856 63.8847 416.058 59.4863 416.058 54.4755Z" fill="black"/>
<path fill-rule="evenodd" clip-rule="evenodd" d="M489.533 37.0345H490.369C491.09 37.0345 491.85 37.0345 492.06 36.0313C492.268 35.0252 491.434 35.0252 490.787 35.0252H489.951L489.533 37.0345ZM488.014 33.5591H491.743C493.071 33.5591 494.743 33.5591 494.298 35.6821C494.12 36.5301 493.557 37.4198 491.956 37.611L491.948 37.6498C493.459 37.6858 493.374 38.4591 493.358 39.2684C493.24 41.0781 493.229 41.1558 493.273 41.6574H490.877C490.869 41.1558 490.907 40.6181 491.008 39.7672C491.09 38.8416 491.126 38.4951 490.139 38.4951H489.224L488.563 41.6574H486.317L488.014 33.5591ZM484.546 37.611C483.85 40.9257 485.964 43.6251 489.216 43.6251C492.541 43.6251 495.77 40.8869 496.459 37.611C497.167 34.2353 495.035 31.5359 491.746 31.5359C488.535 31.5359 485.265 34.1799 484.546 37.611ZM497.694 37.611C496.855 41.6186 492.937 44.8973 488.945 44.8973C484.956 44.8973 482.448 41.6186 483.292 37.611C484.153 33.487 488.096 30.2832 492.008 30.2832C495.923 30.2832 498.563 33.487 497.694 37.611Z" fill="black"/>
</svg>
