<svg width="500" height="125" viewBox="0 0 500 125" fill="none" xmlns="http://www.w3.org/2000/svg">
<g clip-path="url(#clip0_29_1364)">
<path d="M135.169 0H0V20.7634H128.421V20.7793C132.135 20.7793 135.121 23.7813 135.121 27.4751V97.2366L135.093 97.2843C135.062 100.978 132.064 103.944 128.382 103.944H27.4672C23.7694 103.944 20.7555 100.954 20.7555 97.2366V69.0417C20.7555 65.34 23.7694 62.3459 27.4672 62.3459H114.302V41.5905H20.7038C9.26441 41.5905 0 50.8429 0 62.2783V103.996C0 115.427 9.26441 124.704 20.7038 124.704H135.169C146.616 124.704 155.873 115.427 155.873 103.996V20.7038C155.873 9.26839 146.616 0 135.169 0Z" fill="#0096D7"/>
<path d="M233.113 0.0390625L249.348 48.6077C251.292 54.5281 252.644 55.9039 256.039 55.9039H259.352V64.4486H223.892V55.9039H226.791C229.713 55.9039 232.155 55.5102 232.155 54.4446C232.155 53.4665 232.043 52.4009 231.666 50.9496L229.626 43.9476H209.797L208.64 47.8323C207.562 51.2319 207.181 52.6872 207.181 54.047C207.181 55.6176 210.576 55.9078 213.212 55.9078H216.012V64.4526H187.463V55.9039H190.759C194.159 55.9039 195.515 54.5281 197.471 48.6077L213.694 0.0390625H233.113ZM212.592 35.4069H226.703L219.705 14.5043H219.523L212.592 35.4069Z" fill="black"/>
<path d="M264.978 11.9874C264.978 9.25974 264.298 7.81242 261.479 7.81242H257.018V0.0390625H281.113V24.2259C284.696 20.1385 289.268 17.5222 293.634 17.5222C308.206 17.5222 313.634 28.8979 313.634 41.709C313.634 54.5281 308.206 65.884 293.634 65.884C287.519 65.884 282.079 63.7607 278.668 58.4128L275.857 64.4486H264.974L264.978 11.9874ZM281.113 41.709C281.113 51.6176 283.34 57.55 288.779 57.55C294.23 57.55 296.457 51.6176 296.457 41.709C296.457 31.8005 294.23 25.888 288.779 25.888C283.34 25.888 281.113 31.8005 281.113 41.709Z" fill="black"/>
<path d="M319.484 11.9874C319.484 9.25974 318.792 7.81242 315.993 7.81242H311.52V0.0390625H335.619V24.2259C339.209 20.1385 343.778 17.5222 348.148 17.5222C362.712 17.5222 368.16 28.8979 368.16 41.709C368.16 54.5281 362.712 65.884 348.148 65.884C342.017 65.884 336.589 63.7607 333.174 58.4128L330.362 64.4486H319.484V11.9874ZM335.615 41.709C335.615 51.6176 337.854 57.55 343.281 57.55C348.728 57.55 350.959 51.6176 350.959 41.709C350.959 31.8005 348.728 25.888 343.281 25.888C337.858 25.888 335.615 31.8005 335.615 41.709Z" fill="black"/>
<path d="M422.95 41.7093C422.95 57.2521 412.357 65.8843 397.884 65.8843C383.399 65.8843 372.807 57.2521 372.807 41.7093C372.807 26.1626 383.399 17.5225 397.884 17.5225C412.357 17.5225 422.95 26.1626 422.95 41.7093ZM390.011 41.7093C390.011 53.1646 392.047 58.1229 397.884 58.1229C403.713 58.1229 405.753 53.1646 405.753 41.7093C405.753 30.2461 403.713 25.2958 397.884 25.2958C392.047 25.2958 390.011 30.2461 390.011 41.7093Z" fill="black"/>
<path d="M492.218 42.4926V50.0751C492.218 54.5244 491.252 57.1646 487.554 57.1646C485.315 57.1646 484.254 55.5065 484.254 53.4628V26.7431H496.194V18.9856H484.254V0.914062H474.635C473.848 8.9737 471.331 18.9856 461.621 18.9856H446.464V0.914062H436.85C436.059 8.9737 433.542 18.9856 423.828 18.9856V26.7431H430.345V51.1367C430.345 61.0453 435.876 65.8842 445.876 65.8842C457.546 65.8842 462.194 60.6556 462.194 51.1367V42.4886H454.444V50.0711C454.444 54.5204 453.462 57.1606 449.768 57.1606C447.53 57.1606 446.468 55.5025 446.468 53.4588V26.7391H468.142V51.1327C468.142 61.0413 473.665 65.8803 483.669 65.8803C495.335 65.8803 499.999 60.6516 499.999 51.1327V42.4846H492.218" fill="black"/>
</g>
<defs>
<clipPath id="clip0_29_1364">
<rect width="500" height="124.704" fill="white"/>
</clipPath>
</defs>
</svg>
