<svg width="500" height="94" viewBox="0 0 500 94" fill="none" xmlns="http://www.w3.org/2000/svg">
<path d="M496.099 88.8026C496.099 83.3968 493.056 81.4451 488.058 81.4451H450.096C432.275 81.4451 425.972 70.0327 425.175 62.1493H477.843C493.202 62.1493 497.765 50.6621 497.765 43.3042C497.765 35.4208 492.839 24.4591 477.843 24.4591H449.372C423.436 24.4591 414.96 42.7036 414.96 57.5695C414.96 73.8618 424.668 90.68 449.299 90.68H496.099V88.8026ZM450.169 33.694H476.539C485.667 33.694 487.84 39.5502 487.84 43.3793C487.84 46.7579 485.812 53.0646 476.539 53.0646H425.175C425.827 46.3825 431.115 33.694 450.169 33.694ZM342.731 86.4753C340.051 90.3044 338.167 91.6558 335.776 91.6558C332.444 91.6558 331.212 89.779 328.822 86.4753C323.099 78.3666 284.992 24.4591 284.992 24.4591H290.86C297.236 24.4591 299.046 26.7866 301.655 30.6157C302.814 32.2674 335.922 80.6939 335.922 80.6939C335.922 80.6939 369.029 32.3425 370.333 30.3904C372.796 26.7866 374.68 24.4591 381.055 24.4591H386.199C386.199 24.4591 347.441 79.8684 342.731 86.4753ZM92.9384 90.68C88.9539 90.68 86.4183 88.6528 85.6941 84.2229L84.39 77.0152C82.2164 81.1444 74.2474 90.68 56.9329 90.68H37.0103C9.91556 90.68 2.23633 71.6094 2.23633 57.5695C2.23633 41.7275 11.437 24.4591 37.0103 24.4591H56.9329C76.3483 24.4591 87.0704 36.1716 89.6786 50.4368C91.8516 62.3746 96.9229 90.68 96.9229 90.68H92.9384ZM54.6871 33.694H37.6623C18.5366 33.694 12.0165 46.3074 12.0165 57.5695C12.0165 68.8316 18.5366 81.4451 37.6623 81.4451H54.6871C74.6821 81.4451 80.4776 68.3057 80.4776 57.5695C80.4776 47.9592 75.2616 33.694 54.6871 33.694ZM399.167 16.876C401.992 16.876 404.166 15.0741 404.166 11.6204V9.44305C404.166 5.98936 401.92 4.18744 399.167 4.18744C396.414 4.18744 394.168 5.91428 394.168 9.44305V11.6204C394.096 15.0741 396.341 16.876 399.167 16.876ZM394.24 24.4591H396.559C401.123 24.4591 404.02 26.5613 404.02 33.0182V90.68H401.557C396.559 90.68 394.168 87.9016 394.168 82.3461C394.24 81.52 394.24 24.4591 394.24 24.4591ZM111.919 33.0933C116.121 28.9639 123.656 24.4591 135.536 24.4591H155.459C182.554 24.4591 190.233 43.5294 190.233 57.5695C190.233 73.4114 181.032 90.68 155.459 90.68H135.536C116.121 90.68 102.139 77.6909 102.139 57.5695V2.23535H105.182C109.529 2.23535 111.919 4.56284 111.919 8.76733V33.0933ZM137.71 81.4451H154.735C173.861 81.4451 180.381 68.8316 180.381 57.5695C180.381 46.3074 173.861 33.694 154.735 33.694H137.71C117.715 33.694 111.919 46.833 111.919 57.5695C111.919 67.1795 117.063 81.4451 137.71 81.4451ZM209.866 33.0933C214.068 28.9639 221.602 24.4591 233.483 24.4591H253.406C280.501 24.4591 288.18 43.5294 288.18 57.5695C288.18 73.4114 278.979 90.68 253.406 90.68H233.483C214.068 90.68 200.086 77.6909 200.086 57.5695V2.23535H203.128C207.475 2.23535 209.866 4.56284 209.866 8.76733V33.0933ZM235.656 81.4451H252.681C271.807 81.4451 278.327 68.8316 278.327 57.5695C278.327 46.3074 271.807 33.694 252.681 33.694H235.656C215.662 33.694 209.866 46.833 209.866 57.5695C209.866 67.1795 215.082 81.4451 235.656 81.4451Z" fill="#071D49"/>
</svg>
