<svg width="500" height="201" viewBox="0 0 500 201" fill="none" xmlns="http://www.w3.org/2000/svg">
<g clip-path="url(#clip0_29_1358)">
<path d="M100.114 77.6551C94.7849 77.6551 90.5976 73.2775 90.5976 68.1386C90.5976 62.9996 94.9753 58.622 100.114 58.622C105.253 58.622 109.631 62.8093 109.631 68.1386C109.631 73.4678 105.443 77.6551 100.114 77.6551ZM106.966 42.4439C106.966 38.6372 103.921 35.7823 100.114 35.7823C96.3076 35.7823 93.2623 38.8276 93.2623 42.4439C93.2623 46.0601 96.3076 49.2958 100.114 49.2958C103.921 49.1054 106.966 46.0601 106.966 42.4439ZM104.872 21.5074C104.872 18.8428 102.779 16.7491 100.114 16.7491C97.4496 16.7491 95.3559 18.8428 95.3559 21.5074C95.3559 24.1721 97.4496 26.2657 100.114 26.2657C102.779 26.0754 104.872 23.9817 104.872 21.5074ZM103.16 3.0453C103.16 1.33232 101.827 0 100.114 0C98.4012 0 97.0689 1.33232 97.0689 3.0453C97.0689 4.75828 98.4012 6.0906 100.114 6.0906C101.827 6.0906 103.16 4.75828 103.16 3.0453ZM141.987 100.305C141.987 94.9753 137.8 90.788 132.47 90.788C127.141 90.788 122.954 94.9753 122.954 100.305C122.954 105.634 127.332 109.821 132.47 109.821C137.609 109.821 141.987 105.634 141.987 100.305ZM164.827 100.305C164.827 96.4979 161.781 93.4526 157.975 93.4526C154.168 93.4526 151.123 96.4979 151.123 100.305C151.123 104.111 154.168 106.966 157.975 106.966C161.972 106.966 164.827 104.111 164.827 100.305ZM183.67 100.305C183.67 97.6399 181.576 95.5462 178.911 95.5462C176.247 95.5462 174.153 97.6399 174.153 100.305C174.153 102.969 176.247 105.063 178.911 105.063C181.576 105.063 183.67 102.969 183.67 100.305ZM200.609 100.305C200.609 98.5916 199.277 97.2592 197.564 97.2592C195.851 97.2592 194.518 98.5916 194.518 100.305C194.518 102.018 195.851 103.35 197.564 103.35C199.086 103.54 200.609 102.018 200.609 100.305ZM109.631 132.661C109.631 127.332 105.253 123.144 100.114 123.144C94.9753 123.144 90.5976 127.332 90.5976 132.661C90.5976 137.99 94.9753 142.177 100.114 142.177C105.253 142.177 109.631 137.8 109.631 132.661ZM106.966 158.356C106.966 154.549 103.921 151.504 100.114 151.504C96.3076 151.504 93.2623 154.549 93.2623 158.356C93.2623 162.162 96.3076 165.207 100.114 165.207C103.921 165.207 106.966 162.162 106.966 158.356ZM104.872 179.292C104.872 176.627 102.779 174.534 100.114 174.534C97.4496 174.534 95.3559 176.627 95.3559 179.292C95.3559 181.957 97.4496 184.05 100.114 184.05C102.779 184.05 104.872 181.766 104.872 179.292ZM103.16 197.564C103.16 195.851 101.827 194.518 100.114 194.518C98.4012 194.518 97.0689 195.851 97.0689 197.564C97.0689 199.277 98.4012 200.609 100.114 200.609C101.827 200.609 103.16 199.277 103.16 197.564ZM77.4648 100.305C77.4648 94.9753 73.0872 90.788 67.9482 90.788C62.8093 90.788 58.4317 94.9753 58.4317 100.305C58.4317 105.634 62.8093 109.821 67.9482 109.821C73.0872 109.821 77.4648 105.634 77.4648 100.305ZM48.9151 100.305C48.9151 96.4979 45.8698 93.4526 42.0632 93.4526C38.2566 93.4526 35.2113 96.4979 35.2113 100.305C35.2113 104.111 38.2566 106.966 42.0632 106.966C45.8698 106.966 48.9151 104.111 48.9151 100.305ZM26.0754 100.305C26.0754 97.6399 23.9817 95.5462 21.3171 95.5462C18.6525 95.5462 16.5588 97.6399 16.5588 100.305C16.5588 102.969 18.6525 105.063 21.3171 105.063C23.9817 105.063 26.0754 102.969 26.0754 100.305ZM6.0906 100.305C6.0906 98.5916 4.75828 97.2592 3.0453 97.2592C1.33232 97.2592 0 98.5916 0 100.305C0 102.018 1.33232 103.35 3.0453 103.35C4.56795 103.54 6.0906 102.018 6.0906 100.305ZM129.616 84.3167C131.519 82.6037 132.47 80.1294 132.47 77.6551C132.47 75.1808 131.519 72.7065 129.616 70.8032C127.712 68.8999 125.428 67.9482 122.954 67.9482C120.48 67.9482 118.005 68.8999 116.292 70.8032C114.389 72.7065 113.437 74.9905 113.437 77.6551C113.437 80.3198 114.389 82.6037 116.292 84.3167C118.005 86.22 120.48 87.1717 122.954 87.1717C125.428 87.1717 127.903 86.0297 129.616 84.3167ZM145.984 64.1416C148.649 61.477 148.649 57.2897 145.984 54.625C144.652 53.2927 142.939 52.7217 141.226 52.7217C139.513 52.7217 137.8 53.4831 136.467 54.625C135.135 55.9574 134.374 57.6703 134.374 59.3833C134.374 61.0963 135.135 62.8093 136.467 64.1416C137.8 65.4739 139.513 66.0449 141.226 66.0449C142.939 66.0449 144.652 65.4739 145.984 64.1416ZM159.117 47.9635C160.069 47.0118 160.449 45.8698 160.449 44.7278C160.449 43.5858 159.878 42.2535 159.117 41.4922C158.356 40.3502 157.214 39.9695 155.881 39.9695C154.549 39.9695 153.407 40.5405 152.646 41.3019C151.694 42.2535 151.313 43.3955 151.313 44.5375C151.313 45.6795 151.884 47.0118 152.646 47.7731C153.597 48.7248 154.739 49.1054 155.881 49.1054C157.023 49.1054 158.356 48.7248 159.117 47.9635ZM171.108 33.8789C172.25 32.737 172.25 30.6433 171.108 29.5013C169.966 28.3593 167.872 28.3593 166.73 29.5013C165.588 30.6433 165.588 32.737 166.73 33.8789C167.301 34.4499 168.062 34.8306 169.014 34.8306C169.775 34.8306 170.537 34.4499 171.108 33.8789ZM129.806 129.996C133.422 126.19 133.422 120.289 129.806 116.483C127.903 114.579 125.619 113.628 122.954 113.628C120.289 113.628 118.005 114.579 116.292 116.483C112.486 120.099 112.486 126.19 116.292 129.996C120.099 133.803 120.48 132.851 122.954 132.851C125.428 132.661 127.903 131.709 129.806 129.996ZM145.984 146.174C148.649 143.51 148.649 139.322 145.984 136.658C143.319 133.993 142.939 134.754 141.226 134.754C139.513 134.754 137.8 135.516 136.467 136.658C135.135 137.99 134.374 139.703 134.374 141.416C134.374 143.129 135.135 144.842 136.467 146.174C137.8 147.507 139.513 148.078 141.226 148.078C142.939 148.078 144.652 147.507 145.984 146.174ZM159.307 159.498C160.259 158.546 160.64 157.404 160.64 156.262C160.64 155.12 160.069 153.788 159.307 153.026C158.546 152.265 157.214 151.694 156.072 151.694C154.93 151.694 153.597 152.265 152.836 153.026C152.075 153.788 151.504 155.12 151.504 156.262C151.504 157.404 152.075 158.736 152.836 159.498C153.597 160.259 154.93 160.83 156.072 160.83C157.214 160.83 158.356 160.449 159.307 159.498ZM171.108 171.298C171.679 170.727 172.059 169.966 172.059 169.014C172.059 168.062 171.679 167.491 171.108 166.92C169.966 165.778 167.872 165.778 166.73 166.92C166.159 167.491 165.778 168.253 165.778 169.014C165.778 169.775 166.159 170.727 166.73 171.298C167.301 171.869 168.062 172.25 169.014 172.25C169.966 172.25 170.537 172.25 171.108 171.298ZM84.1264 129.996C87.933 126.19 87.933 120.099 84.1264 116.483C82.4134 114.579 79.9391 113.628 77.4648 113.628C74.9905 113.628 72.5162 114.579 70.8032 116.483C68.8999 118.196 67.9482 120.67 67.9482 123.144C67.9482 125.619 68.8999 128.093 70.8032 129.996C72.7065 131.9 74.9905 132.851 77.4648 132.851C79.9391 132.661 82.2231 131.709 84.1264 129.996ZM63.9513 146.174C65.2836 144.842 65.8546 143.129 65.8546 141.416C65.8546 139.703 65.0933 137.99 63.9513 136.658C62.619 135.325 60.906 134.754 59.193 134.754C57.48 134.754 55.767 135.516 54.4347 136.658C51.7701 139.322 51.7701 143.51 54.4347 146.174C55.767 147.507 57.48 148.078 59.193 148.078C60.906 148.078 62.619 147.507 63.9513 146.174ZM47.5828 159.498C48.5345 158.546 48.9151 157.404 48.9151 156.262C48.9151 155.12 48.3441 153.788 47.5828 152.836C46.6311 151.884 45.4891 151.504 44.3472 151.504C43.2052 151.504 41.8729 152.075 41.1115 152.836C40.1599 153.788 39.7792 154.93 39.7792 156.262C39.7792 157.594 40.3502 158.736 41.1115 159.498C42.0632 160.449 43.2052 160.83 44.3472 160.83C45.4891 160.83 46.8215 160.259 47.5828 159.498ZM33.4983 171.298C34.0693 170.727 34.4499 169.966 34.4499 169.014C34.4499 168.062 34.0693 167.301 33.4983 166.92C32.3563 165.778 30.2627 165.778 29.1207 166.92C27.9787 168.062 27.9787 170.156 29.1207 171.298C30.2627 172.44 30.453 172.25 31.4046 172.25C32.166 172.25 32.9273 171.869 33.4983 171.298ZM84.1264 84.3167C87.933 80.7004 87.933 74.6098 84.1264 70.8032C80.3198 66.9966 79.9391 67.9482 77.4648 67.9482C74.9905 67.9482 72.5162 68.8999 70.8032 70.8032C68.8999 72.7065 67.9482 74.9905 67.9482 77.6551C67.9482 80.3198 68.8999 82.6037 70.8032 84.3167C72.5162 86.0297 74.9905 87.1717 77.4648 87.1717C79.9391 87.1717 82.2231 86.22 84.1264 84.3167ZM63.9513 64.1416C65.2836 62.8093 65.8546 61.0963 65.8546 59.3833C65.8546 57.6703 65.0933 55.9574 63.9513 54.625C62.619 53.2927 60.906 52.7217 59.193 52.7217C57.48 52.7217 55.767 53.4831 54.4347 54.625C53.1024 55.9574 52.5314 57.6703 52.5314 59.3833C52.5314 61.0963 53.2927 62.8093 54.4347 64.1416C55.767 65.4739 57.48 66.0449 59.193 66.0449C60.906 66.0449 62.619 65.4739 63.9513 64.1416ZM47.7731 47.9635C48.7248 47.0118 49.1054 45.8698 49.1054 44.5375C49.1054 43.2052 48.5345 42.0632 47.7731 41.3019C47.0118 40.5405 45.6795 39.9695 44.5375 39.9695C43.3955 39.9695 42.0632 40.5405 41.3019 41.3019C39.3986 43.2052 39.3986 46.0601 41.3019 47.9635C43.2052 49.8668 43.3955 49.2958 44.5375 49.2958C45.6795 49.2958 46.8215 48.9151 47.7731 47.9635ZM33.4983 33.8789C34.0693 33.308 34.4499 32.5466 34.4499 31.595C34.4499 30.6433 34.0693 29.882 33.4983 29.311C32.3563 28.169 30.2627 28.169 29.1207 29.311C27.9787 30.453 27.9787 32.5466 29.1207 33.6886C29.6917 34.2596 30.453 34.6403 31.4046 34.6403C32.3563 34.6403 32.9273 34.6403 33.4983 33.8789Z" fill="#00A1E4"/>
<path d="M260.183 104.873H246.86L253.331 75.9425H253.521L260.183 104.873ZM240.198 129.997L244.005 115.151H263.228L267.035 129.997H281.881L263.609 63H245.147L226.494 129.997H240.198Z" fill="black"/>
<path d="M299.391 107.917C299.391 93.6425 300.152 90.2166 305.101 90.2166C310.05 90.2166 310.43 96.1168 310.43 106.395C310.43 116.673 309.859 121.241 305.101 121.241C300.343 121.241 299.391 112.295 299.391 107.917ZM311.001 83.1743V88.6939H310.811C308.908 84.3163 304.911 82.2227 300.343 82.2227C286.639 82.2227 286.448 95.3555 286.448 105.633C286.448 115.911 285.877 129.425 300.152 129.425C314.427 129.425 308.146 127.521 310.049 123.905H310.24V132.851C310.24 137.609 308.717 140.654 305.482 140.654C302.246 140.654 301.865 140.083 301.104 138.751C300.343 137.609 299.962 135.896 299.962 133.993H287.21C287.4 145.413 295.775 147.887 305.672 147.887C323.753 147.887 323.563 135.135 323.563 131.899V83.1743H311.001Z" fill="black"/>
<path d="M348.307 129.997H335.174V83.1751H348.307V129.997ZM348.307 63V73.2779H335.174V63H348.307Z" fill="black"/>
<path d="M374.191 63V96.4983V129.997H361.059V96.4983V63H374.191Z" fill="black"/>
<path d="M397.412 101.256C397.412 97.2588 397.222 90.2166 403.312 90.2166C409.403 90.2166 409.403 96.6878 409.403 101.256H397.412ZM422.345 108.679C422.726 93.6425 420.823 82.2227 403.122 82.2227C385.421 82.2227 383.898 93.2619 383.898 106.014C383.898 118.766 386.182 130.947 403.122 130.947C420.061 130.947 413.971 129.234 417.016 126.379C420.252 123.525 421.774 119.337 421.965 114.198H408.641C408.641 118.005 407.69 122.573 403.122 122.573C398.554 122.573 397.222 114.198 397.222 108.679H422.345Z" fill="black"/>
<path d="M444.805 87.9326C446.327 85.8389 447.85 84.3163 449.563 83.555C451.466 82.6033 453.56 82.2227 456.034 82.2227C462.315 82.2227 467.644 86.0293 467.644 92.5005V130.186H454.702V97.8298C454.702 93.6425 453.941 90.4069 449.753 90.4069C445.566 90.4069 444.805 93.6425 444.805 97.8298V130.186H431.672V83.1743H444.805V87.9326Z" fill="black"/>
<path d="M474.686 83.1747H480.015V75.7518L493.148 69.8516V83.1747H500V91.359H493.148V116.483C493.148 120.099 493.148 122.383 497.335 122.383C501.522 122.383 499.048 122.383 499.619 122.383V130.377C497.906 130.377 496.003 130.758 492.767 130.758C481.347 130.758 480.015 123.144 480.015 120.289V91.359H474.686V83.3651V83.1747Z" fill="black"/>
</g>
<defs>
<clipPath id="clip0_29_1358">
<rect width="500" height="200.609" fill="white"/>
</clipPath>
</defs>
</svg>
