<svg width="500" height="226" viewBox="0 0 500 226" fill="none" xmlns="http://www.w3.org/2000/svg">
<g clip-path="url(#clip0_29_1349)">
<path d="M218.598 0C211.812 0 205.698 4.09731 203.105 10.3713C200.513 16.6453 201.953 23.8796 206.755 28.6812C211.556 33.4827 218.79 34.9232 225.064 32.3303C231.338 29.7055 235.404 23.5595 235.404 16.7734C235.404 14.5647 234.988 12.388 234.123 10.3393C233.291 8.29065 232.043 6.46607 230.506 4.89757C228.938 3.32907 227.081 2.11268 225.032 1.2484C223.016 0.416133 220.807 0 218.598 0Z" fill="#009ACE"/>
<path fill-rule="evenodd" clip-rule="evenodd" d="M400.48 55.3128H426.28L426.665 66.0682C428.457 63.8595 430.474 61.8749 432.682 60.1463C434.923 58.4178 437.324 56.9133 439.885 55.6969C442.446 54.5125 445.102 53.5842 447.855 52.976C450.64 52.3678 453.457 52.0477 456.274 52.0797C484.571 52.0797 500 69.5893 500 100.095V171.126H473.271V101.055C473.271 85.3704 463.668 76.3435 450.224 76.3435C436.748 76.3435 427.209 85.3704 427.209 101.055V171.19H400.48V55.3128ZM174.84 171.19H148.143V2.75195H174.904L174.84 171.19ZM205.25 55.3128H232.042V171.19H205.25V55.3128ZM91.2612 55.3128H117.702V171.19H91.2612L90.8451 159.058C88.4763 161.427 85.9155 163.571 83.1626 165.46C80.4097 167.349 77.4648 168.949 74.3918 170.294C71.3508 171.606 68.1498 172.63 64.8848 173.335C61.6197 174.039 58.2906 174.423 54.9616 174.487C23.3995 174.455 0 149.039 0 113.411C0 75.4152 25.3521 52.0797 54.9616 52.0797C58.3227 51.9837 61.6837 52.2398 64.9808 52.88C68.2778 53.5202 71.5109 54.4805 74.6159 55.8249C77.6889 57.1694 80.6338 58.8019 83.3547 60.7865C86.0755 62.7391 88.6043 65.0119 90.8451 67.5087L91.2612 55.3128ZM27.3367 113.411C27.3367 135.658 40.9411 150.479 59.8912 150.479C77.1447 150.479 92.5736 137.803 92.5736 113.411C92.5736 89.5957 77.7849 76.3435 59.9872 76.3435C40.1088 76.3435 27.3367 91.9325 27.3367 113.411ZM370.038 159.73C370.038 209.474 340.973 225.959 306.754 225.959C303.169 226.023 299.595 225.874 296.031 225.511C292.488 225.148 288.967 224.572 285.467 223.783C281.989 223.014 278.564 222.033 275.192 220.838C271.82 219.643 268.534 218.266 265.333 216.708L271.959 193.725C274.584 195.198 277.294 196.499 280.09 197.63C282.885 198.761 285.745 199.711 288.668 200.479C291.571 201.226 294.516 201.792 297.503 202.176C300.512 202.56 303.521 202.741 306.53 202.72C326.44 202.72 343.342 189.948 343.342 166.933V158.962C341.069 161.459 338.508 163.731 335.755 165.684C333.003 167.637 330.026 169.301 326.921 170.646C323.816 171.958 320.551 172.95 317.221 173.591C313.924 174.231 310.531 174.487 307.138 174.423C275.96 174.423 252.401 149.295 252.401 113.187C252.401 78.6162 274.584 52.0157 307.266 52.0157C310.627 51.8877 313.988 52.1438 317.318 52.784C320.615 53.3922 323.848 54.3845 326.953 55.7289C330.058 57.0413 332.971 58.7059 335.723 60.6905C338.444 62.6751 340.941 64.9479 343.182 67.4447L343.534 55.2488H370.038V159.73ZM344.814 113.411C344.814 89.2436 329.609 76.3435 312.292 76.3435C291.613 76.3435 279.673 93.1809 279.673 113.411C279.673 134.762 292.542 150.479 312.292 150.479C330.474 150.479 344.814 136.939 344.814 113.411Z" fill="#3D3935"/>
</g>
<defs>
<clipPath id="clip0_29_1349">
<rect width="500" height="225.992" fill="white"/>
</clipPath>
</defs>
</svg>
