<svg width="500" height="51" viewBox="0 0 500 51" fill="none" xmlns="http://www.w3.org/2000/svg">
<g clip-path="url(#clip0_29_1348)">
<path d="M28.075 39.015H36.65C32.91 26.125 28.425 13.29 22.9 0.4H14.21C8.865 12.84 4.2 25.725 0 39.015H8.635C9.385 36.425 10.135 33.84 10.935 31.24H19.45L21.525 23.7H13.41C15.025 18.99 16.75 14.325 18.535 9.665C22.15 19.34 25.31 29.065 28.075 39.015ZM71.7 10.7C67.675 10.7 64.965 12.425 63.125 15.25C61.175 12.26 57.825 10.7 54.09 10.7C50.75 10.7 48.1 12.54 46.555 15.25L46.27 11.4H39.02V39.025H47.08V23.475C47.08 19.8 49.155 17.725 52.03 17.725C54.905 17.725 56.87 19.74 56.87 23.185V39.01H64.92V23.825C64.92 19.8 67.17 17.725 70.045 17.725C72.635 17.725 74.82 19.4 74.82 23.135V39.02H82.87V21.99C82.865 14.675 77.69 10.7 71.7 10.7ZM114.69 24.915C114.69 17.265 108.59 10.705 100.365 10.705C92.425 10.705 85.75 16.805 85.75 25.315C85.75 33.605 92.075 39.755 100.535 39.755C106 39.755 111.525 37.055 113.71 31.42H105.535C104.27 32.745 102.55 33.21 100.41 33.21C97.71 33.21 94.245 31.535 93.445 28.085H114.395C114.575 27.05 114.69 25.95 114.69 24.915ZM100.35 16.865C104.035 16.865 106.74 19.34 107.54 22.565H93.34C94.085 19.34 96.675 16.865 100.35 16.865ZM132.95 10.94C129.84 10.94 126.79 12.9 125.59 16.69L125.3 11.39H117.94V39.015H125.99V25.725C125.99 21.7 128.64 18.415 133.525 18.415C134.165 18.415 134.74 18.475 135.365 18.475V11.225C134.45 11.05 133.64 10.94 132.95 10.94ZM138.875 8.065H147.05V0H138.875V8.065ZM138.925 39.015H147.035V11.4H138.925V39.015ZM163 39.7C169.96 39.7 175.025 36.25 175.025 30.55C175.025 26 171.86 23.075 165.815 22.04L163.225 21.575C160.175 21.11 158.965 20.425 158.965 18.81C158.965 17.485 160.29 16.62 162.365 16.62C164.9 16.62 166.215 17.71 166.675 19.61H174.39C173.7 14.085 169.555 10.685 162.475 10.685C154.59 10.685 150.915 14.375 150.915 19.485C150.915 25.125 155.515 27.25 159.89 28L162.765 28.465C165.13 28.865 166.33 29.73 166.33 31.05C166.33 32.55 165.07 33.35 162.705 33.35C160.23 33.35 158.905 32.55 158.395 30.65H150.685C151.44 36.94 156.275 39.7 163 39.7ZM192.69 39.7C201.265 39.7 208.05 33.49 208.05 25.2C208.05 16.91 201.265 10.7 192.69 10.7C184.225 10.7 177.38 16.91 177.38 25.2C177.39 33.49 184.175 39.7 192.69 39.7ZM192.75 32.575C188.725 32.575 185.435 29.235 185.435 25.215C185.435 21.195 188.71 17.855 192.75 17.855C196.775 17.855 200.06 21.13 200.06 25.215C200.06 29.24 196.775 32.575 192.75 32.575ZM229.69 11.4V26.935C229.69 30.625 227.215 32.685 224.275 32.685C221.4 32.685 219.39 30.67 219.39 27.22V11.4H211.33V28.435C211.33 36.085 216.28 39.71 222.27 39.71C225.78 39.71 228.72 37.875 230.21 34.995L230.495 39.02H237.745V11.4H229.69ZM257.575 10.94C254.46 10.94 251.41 12.9 250.21 16.69L249.925 11.39H242.56V39.015H250.61V25.725C250.61 21.7 253.26 18.415 258.145 18.415C258.785 18.415 259.36 18.475 259.985 18.475V11.225C259.075 11.05 258.265 10.94 257.575 10.94ZM275.725 39.7C281.935 39.7 288.265 36.3 290 28.475H282.06C281.085 31.015 278.725 32.565 275.785 32.565C271.7 32.565 268.935 29.29 268.935 25.2C268.935 21.175 271.7 17.84 275.785 17.84C278.66 17.84 280.91 19.28 282 21.99H290C288.5 14.8 282.465 10.715 275.725 10.715C267.325 10.715 260.875 16.88 260.875 25.215C260.875 33.6 267.325 39.7 275.725 39.7ZM321.265 24.915C321.265 17.265 315.165 10.705 306.94 10.705C299 10.705 292.33 16.805 292.33 25.315C292.33 33.605 298.655 39.755 307.115 39.755C312.58 39.755 318.105 37.055 320.29 31.42H312.115C310.855 32.745 309.13 33.21 306.99 33.21C304.29 33.21 300.825 31.535 300.025 28.085H320.975C321.15 27.05 321.265 25.95 321.265 24.915ZM306.94 16.865C310.63 16.865 313.33 19.34 314.13 22.565H299.92C300.665 19.34 303.25 16.865 306.94 16.865ZM346.985 18.765C350.72 17.155 352.575 14.105 352.575 10.43C352.575 4.905 347.56 0.415 339.05 0.415H324.775V39.025H339.275C349.575 39.025 354.175 33.785 354.175 27.8C354.175 24.34 352.21 20.375 346.985 18.765ZM339.61 31.875H333.335V7.65H338.92C342.32 7.65 344.095 9.31 344.095 11.79C344.095 14.615 342.085 15.99 338.86 15.99H338.11L336.21 23.18H339.61C343.01 23.18 345.195 24.68 345.195 27.495C345.195 30.31 343.015 31.875 339.61 31.875ZM385.94 24.915C385.94 17.265 379.84 10.705 371.615 10.705C363.675 10.7 357 16.8 357 25.315C357 33.605 363.325 39.755 371.785 39.755C377.25 39.755 382.775 37.055 384.96 31.42H376.785C375.52 32.745 373.8 33.21 371.66 33.21C368.96 33.21 365.5 31.535 364.7 28.085H385.65C385.825 27.05 385.94 25.95 385.94 24.915ZM371.615 16.865C375.305 16.865 378 19.34 378.805 22.565H364.595C365.335 19.34 367.925 16.865 371.615 16.865ZM404.525 10.94C401.415 10.94 398.375 12.9 397.16 16.69L396.87 11.39H389.505V39.015H397.555V25.725C397.555 21.7 400.205 18.415 405.095 18.415C405.735 18.415 406.305 18.475 406.93 18.475V11.225C406.025 11.05 405.215 10.94 404.525 10.94ZM430.535 11.4L430.31 14.16C428.345 12.085 425.535 10.71 421.97 10.71C414.495 10.71 407.645 16.635 407.645 24.86C407.645 33.035 414.495 39.01 421.97 39.01C425.31 39.01 428.005 37.795 429.91 35.9V36.875C429.91 42 427.55 44.065 423.235 44.065C420.36 44.065 418.06 43.025 416.96 40.665H409.36C410.975 47.74 416.495 50.79 423.06 50.79C432.9 50.79 438.025 44.465 438.025 36.575V11.4H430.535ZM422.875 31.94C418.79 31.94 415.56 28.775 415.56 24.865C415.56 20.955 418.785 17.73 422.875 17.73C426.9 17.73 430.125 20.89 430.125 24.865C430.125 28.775 426.915 31.94 422.875 31.94ZM470.025 24.915C470.025 17.265 463.925 10.705 455.7 10.705C447.76 10.705 441.085 16.805 441.085 25.315C441.085 33.605 447.41 39.755 455.87 39.755C461.33 39.755 466.86 37.055 469.045 31.42H460.87C459.605 32.745 457.88 33.21 455.745 33.21C453.045 33.21 449.58 31.535 448.785 28.085H469.735C469.91 27.05 470.025 25.95 470.025 24.915ZM455.7 16.865C459.39 16.865 462.085 19.34 462.89 22.565H448.675C449.425 19.34 452.01 16.865 455.7 16.865ZM489.06 10.7C485.5 10.7 482.61 12.54 481.12 15.3L480.83 11.39H473.58V39.015H481.645V23.475C481.645 19.8 484.12 17.725 486.995 17.725C489.87 17.725 491.945 19.74 491.945 23.185V39.01H499.995V21.99C500 14.325 495 10.7 489.06 10.7Z" fill="#3C289B"/>
</g>
<defs>
<clipPath id="clip0_29_1348">
<rect width="500" height="50.79" fill="white"/>
</clipPath>
</defs>
</svg>
