<svg width="500" height="128" viewBox="0 0 500 128" fill="none" xmlns="http://www.w3.org/2000/svg">
<g clip-path="url(#clip0_29_1359)">
<path d="M349.475 50.7081H284.148V79.2599H319.781C311.329 96.391 290.544 103.472 273.184 95.0206C256.053 86.5692 248.972 65.7835 257.423 48.4239C263.134 36.5464 275.24 29.0087 288.488 29.0087C298.995 28.7803 308.817 34.0338 314.527 42.7136H345.592C340.795 21.0142 316.354 0 288.716 0C261.763 0 235.496 17.5879 230.014 43.6272V4.5683C197.122 4.5683 175.194 41.5715 170.169 63.4993C164.915 41.5715 143.216 4.5683 110.324 4.5683V122.202H138.876V54.3627C138.876 54.3627 155.322 68.9813 155.322 121.974H184.788C184.788 68.9813 201.233 54.3627 201.233 54.3627V121.974H229.785V81.0872C236.638 110.781 260.164 127.455 288.488 127.455C317.04 127.455 342.394 111.238 349.475 79.4883V121.974C349.475 121.974 408.634 121.974 407.72 121.974V94.1069H377.341V79.2599H407.72V50.7081H377.341V34.9475H407.72V6.1672H349.475V50.7081ZM470.534 55.048C445.637 19.4153 421.425 6.39561 414.801 6.39561V122.202H445.18V67.3824C445.18 67.3824 466.195 90.2238 470.534 122.202H500.228V6.1672H470.534V55.048ZM53.9059 18.73C37.46 31.0644 27.4098 49.3376 19.6437 66.0119C11.6492 82.6862 3.88305 107.583 0 122.202H29.6939C31.7497 113.979 36.7748 96.1626 37.6884 92.9648H74.9201V122.202H103.7V4.33988C76.2905 1.5989 61.672 13.0196 53.9059 18.73ZM74.6916 66.0119H49.566C55.5048 56.8753 65.3266 44.9977 74.6916 38.6021V66.0119Z" fill="#0063C3"/>
</g>
<defs>
<clipPath id="clip0_29_1359">
<rect width="500" height="127.455" fill="white"/>
</clipPath>
</defs>
</svg>
