<svg width="493" height="78" viewBox="0 0 493 78" fill="none" xmlns="http://www.w3.org/2000/svg">
<path fill-rule="evenodd" clip-rule="evenodd" d="M291.591 9.48803C300.936 7.91038 311.281 8.44835 320.998 7.34105C320.933 11.3614 319.107 15.2797 318.173 19.2835L319.073 19.8706L342.684 19.712L340.067 29.6777L315.6 30.0645C312.248 39.9989 309.683 50.3132 306.824 60.4769C306.871 63.085 308.931 64.5889 311.08 65.7153C318.531 65.7153 327.268 66.8632 333.803 64.2815L330.715 75.6435L290.062 75.9675C284.523 75.1031 278.863 70.0068 277.761 64.8502L277.993 57.5276C282.743 41.6669 287.003 25.4748 291.591 9.48803ZM197.287 20.9269C204.663 31.272 211.44 41.764 217.574 52.6471C206.122 60.8151 194.495 68.5681 182.92 76.2891L182.945 76.8898L201.997 76.5682L223.558 62.0743C226.8 66.616 229.908 71.2702 231.65 76.4409L268.258 76.0591C267.468 75.8599 266.827 74.9229 266.187 74.4643L248.36 45.2962L284.523 20.6668L284.489 20.0809L262.675 20.7892C257.241 27.4828 248.969 30.8017 242.129 35.7418C239.128 30.8435 235.005 26.4247 234.266 20.6662L197.287 20.9269ZM433.812 19.4224L434.242 22.2334L421.131 70.5325L417.943 75.3047H452.547L451.821 71.4406L460.307 38.7956C460.654 36.8971 462.249 34.9923 464.123 34.1457C471.324 34.2539 482.019 31.8413 488.636 35.7418L492.889 19.5306C482.063 21.2165 467.432 14.6335 461.192 26.0558C460.158 24.18 460.735 21.6942 460.59 19.439L433.812 19.4224ZM92.379 0L22.6959 0.295117L22.8132 5.72528L4.92331 68.8269L0 77.8385L74.4694 77.7954C81.2066 77.9467 86.9769 75.8427 90.0461 70.5134C92.2809 62.6842 96.2966 55.3204 95.3896 46.5954C94.3029 43.2015 91.7375 40.0714 88.5372 38.0154C91.6914 37.1375 94.8344 36.0019 97.3089 33.6083C102.592 26.9319 104.207 18.5328 104.419 10.2855C103.223 5.23833 97.8398 0.865678 92.379 0ZM54.6629 12.885L72.9348 13.0362C75.4738 14.4208 74.5543 17.9659 73.9649 19.851C72.3631 23.661 72.4737 28.7278 68.7307 31.2603L47.7768 31.3513L54.6629 12.885ZM44.0977 44.1403L63.5156 44.061C66.2041 45.1997 65.5238 48.8573 64.792 50.8819C62.3314 55.289 65.1615 62.0737 59.9155 64.528L38.7851 64.4991C39.6868 57.7576 42.3339 50.8936 44.0977 44.1403ZM174.829 21.2669L113.703 21.4661L109.388 31.7682C124.124 29.6464 140.046 31.0623 154.794 30.6744C156.076 31.2603 156.736 32.5355 156.886 33.8254C156.292 35.5905 156.459 37.9539 154.316 38.934L114.09 39.8298L107.082 43.0939C101.37 48.9778 100.125 56.5482 99.6332 64.4377C99.9757 69.0298 103.222 73.2377 107.433 75.6441C116.805 78.425 129.928 77.0589 141.011 76.7391C143.556 76.1028 145.222 73.5882 146.426 71.5635C147.346 73.218 148.051 75.0748 148.596 76.84L177.363 76.9672L176.436 73.0981L184.927 41.8563C186.255 37.8168 187.539 32.1512 184.661 28.5415C182.719 24.9171 178.658 22.614 174.829 21.2669ZM152.133 49.9259L147.857 65.0783L146.011 66.5244L131.49 66.7549C125.238 63.3304 131.295 56.392 131.846 51.4322L134.203 49.9769L152.133 49.9259ZM413.894 19.9893L358.722 19.712C354.554 20.4805 350.806 22.8931 348.241 26.4548C344.425 38.3056 340.844 50.2843 338.698 62.7924C339.673 68.5687 344.31 74.246 350.675 75.5716L411.247 75.413L415.968 63.7626L412.945 65.0211L371.43 65.3285L369.259 64.3129C365.924 60.4776 369.889 56.5316 370.316 52.617L420.277 51.822C421.643 43.8987 427.169 36.0332 423.107 27.4834C421.399 24.0902 417.581 20.9749 413.894 19.9893ZM378.6 30.2157L391.989 30.003C393.239 30.3233 394.652 31.4743 395.078 32.7796C394.981 35.5905 394.425 38.3241 393.303 40.9297L373.619 41.2574C375.33 37.5684 374.721 32.5189 378.6 30.2157Z" fill="#252969"/>
</svg>
