<svg width="500" height="193" viewBox="0 0 500 193" fill="none" xmlns="http://www.w3.org/2000/svg">
<path d="M189.538 94.6915C189.538 113.42 183.985 131.728 173.58 147.3C163.175 162.872 148.386 175.008 131.083 182.176C113.78 189.343 94.7411 191.218 76.3728 187.565C58.0044 183.911 41.1318 174.892 27.889 161.649C14.6461 148.406 5.62752 131.534 1.97382 113.165C-1.67989 94.7969 0.195327 75.7575 7.36233 58.4549C14.5293 41.1522 26.6662 26.3634 42.2382 15.9585C57.8102 5.55359 76.118 0 94.8465 0C107.281 0 119.595 2.44928 131.083 7.20799C142.572 11.9667 153.01 18.9417 161.803 27.7346C170.596 36.5275 177.572 46.9663 182.33 58.4549C187.089 69.9435 189.538 82.2569 189.538 94.6915Z" fill="white"/>
<path d="M308.083 165.469H255.819C254.311 165.47 252.819 165.167 251.431 164.579C250.042 163.991 248.787 163.13 247.738 162.046C246.69 160.963 245.871 159.68 245.328 158.274C244.786 156.867 244.532 155.366 244.582 153.86V35.8092C244.563 34.3306 244.842 32.8632 245.4 31.494C245.958 30.1248 246.786 28.8816 247.834 27.8382C248.882 26.7948 250.129 25.9722 251.5 25.4194C252.872 24.8665 254.34 24.5945 255.819 24.6196H304.68C331.535 24.6196 347.62 40.2385 347.62 60.5195C347.62 80.8011 335.078 88.4934 330.695 89.9388C337.456 91.6642 355.872 99.2634 355.872 125.14C355.872 147.146 338.109 165.469 308.083 165.469ZM303.701 45.3204H267.242V80.8472H303.701C318.154 80.8472 324.961 72.8281 324.961 63.0838C324.961 53.3395 318.574 45.3204 303.701 45.3204ZM308.876 101.268H267.242V144.535H308.876C325.567 144.535 333.213 133.718 333.213 122.948C333.213 112.178 325.66 101.362 308.876 101.362V101.268ZM420.772 165.376H386.317C384.801 165.408 383.293 165.131 381.886 164.563C380.48 163.994 379.203 163.146 378.135 162.068C377.066 160.991 376.229 159.708 375.672 158.296C375.114 156.886 374.85 155.376 374.895 153.86V35.8092C374.894 34.3199 375.191 32.8456 375.768 31.4726C376.345 30.0996 377.19 28.8555 378.254 27.8134C379.318 26.7712 380.579 25.9519 381.964 25.4035C383.349 24.8551 384.829 24.5886 386.317 24.6196H421.005C468.002 24.6196 494.204 55.9505 494.204 95.0211C494.204 134.091 467.722 165.469 421.005 165.469L420.772 165.376ZM419.606 45.3204H397.74V144.535H419.606C452.895 144.535 471.452 124.86 471.452 94.8342C471.452 64.8089 453.128 45.3204 419.606 45.3204Z" fill="#044ED7"/>
<path d="M54.2695 89.986L0.932508 108.216C0.315654 103.829 0.00408273 99.4045 4.0813e-05 94.9745C-0.0123935 81.6176 2.81652 68.4108 8.299 56.2307L54.4561 88.8668C54.7358 89.0999 54.8757 89.2868 54.8757 89.473C54.8757 89.6599 54.5959 89.986 54.2695 90.0791V89.986ZM94.0862 0.5625C76.1846 0.582975 58.6634 5.72772 43.5928 15.3887L82.3369 56.4173C82.6162 56.6969 82.8031 56.8369 83.0362 56.8369C83.2692 56.8369 83.5023 56.8369 83.5954 56.2307C83.9223 53.6198 94.0862 0.5625 94.0862 0.5625ZM64.3402 68.6326C64.3729 68.4789 64.3729 68.3199 64.3402 68.1663L42.9867 15.7617C28.0009 25.5133 16.0738 39.2989 8.57869 55.5314L63.3611 69.0988H63.8273C63.8924 69.1053 63.958 69.0981 64.0201 69.0776C64.0822 69.0571 64.1392 69.0238 64.1876 68.9799C64.2359 68.9359 64.2745 68.8823 64.3008 68.8224C64.3271 68.7626 64.3405 68.6979 64.3402 68.6326ZM134.555 89.986L187.938 108.216C188.54 103.828 188.836 99.4037 188.825 94.9745C188.852 81.6214 186.038 68.4143 180.572 56.2307L134.368 88.8668C134.088 89.0999 133.948 89.2868 133.948 89.473C133.948 89.6599 134.275 89.893 134.555 89.986ZM105.228 56.2307C105.228 56.6969 105.602 56.8369 105.835 56.8369C106.068 56.8369 106.255 56.8369 106.488 56.4173L145.278 15.3887C130.202 5.73965 112.685 0.595952 94.7854 0.5625C94.7854 0.5625 104.762 53.6198 105.228 56.2307ZM124.997 69.1454H125.463L180.245 55.578C172.751 39.3456 160.824 25.5599 145.838 15.8083C145.838 15.8083 124.718 67.9798 124.578 68.2129C124.568 68.3682 124.568 68.5239 124.578 68.6792C124.577 68.7951 124.619 68.9072 124.697 68.9934C124.775 69.0796 124.882 69.1338 124.997 69.1454Z" fill="#FF6E00"/>
<path d="M94.4183 189.382C116.98 189.34 138.782 181.227 155.884 166.511C172.986 151.795 184.258 131.447 187.664 109.143L152.464 114.085C152.251 114.083 152.045 114.157 151.882 114.293C151.72 114.43 151.611 114.621 151.578 114.831C148.061 124.974 141.912 134.002 133.761 140.99C125.611 147.977 115.75 152.674 105.188 154.6C110.262 152.133 114.35 148.017 116.783 142.927C119.216 137.836 119.851 132.07 118.585 126.572C117.319 121.073 114.226 116.167 109.811 112.653C105.396 109.14 99.9206 107.227 94.2783 107.227C88.636 107.227 83.1599 109.14 78.7452 112.653C74.3302 116.167 71.2372 121.073 69.9708 126.572C68.7046 132.07 69.34 137.836 71.7734 142.927C74.2067 148.017 78.2945 152.133 83.3683 154.6C72.8655 152.622 63.0729 147.9 54.9832 140.917C46.8935 133.932 40.7945 124.933 37.3045 114.831C37.2625 114.625 37.1522 114.44 36.9914 114.303C36.8305 114.168 36.6287 114.091 36.4186 114.085L1.07812 109.143C4.47502 131.45 15.7452 151.805 32.849 166.523C49.9528 181.24 71.7603 189.35 94.3245 189.382" fill="#FF6E00"/>
</svg>
