<svg width="500" height="170" viewBox="0 0 500 170" fill="none" xmlns="http://www.w3.org/2000/svg">
<mask id="mask0_27_304" style="mask-type:luminance" maskUnits="userSpaceOnUse" x="0" y="0" width="500" height="170">
<path d="M500 0H0V169.355H500V0Z" fill="white"/>
</mask>
<g mask="url(#mask0_27_304)">
<path d="M114.342 144.018V49.3873H150.895C156.089 49.2575 161.273 49.9083 166.277 51.3184C170.585 52.7897 174.299 55.6385 176.857 59.4321C179.869 63.6474 181.437 68.7389 181.322 73.9345C181.423 78.8655 179.823 83.6784 176.797 87.5506C173.66 91.4692 169.213 94.0954 164.291 94.9353C170.887 96.0933 175.878 98.7978 179.264 103.049C182.667 107.326 184.469 112.675 184.356 118.159C184.443 121.551 183.859 124.928 182.638 128.089C181.416 131.251 179.582 134.135 177.242 136.573C172.5 141.545 165.206 144.026 155.361 144.018H114.342ZM130.338 89.1175H150.931C152.737 89.2454 154.549 88.9849 156.247 88.3538C157.946 87.7228 159.492 86.7349 160.785 85.4563C162.076 84.1772 163.085 82.6365 163.744 80.9349C164.402 79.2337 164.695 77.4107 164.604 75.5865C164.604 71.2502 163.208 68.0438 160.416 65.9909C157.56 63.9155 154.113 62.8329 150.595 62.9058H130.314L130.338 89.1175ZM130.338 129.807H152.195C156.817 129.807 160.468 128.593 163.148 126.164C164.428 124.868 165.443 123.329 166.134 121.636C166.824 119.944 167.176 118.13 167.171 116.3C167.165 114.47 166.801 112.659 166.101 110.97C165.4 109.282 164.376 107.75 163.088 106.462C160.1 103.829 156.218 102.466 152.256 102.66H130.314L130.338 129.807Z" fill="#0092CC"/>
<path d="M208.862 65.8085H193.215V49.3867H208.862V65.8085ZM208.862 144.03H193.215V73.9952H208.862V144.03Z" fill="#0092CC"/>
<path d="M249.145 145.474C238.882 145.474 231.046 141.753 225.638 134.312C220.244 126.905 217.4 117.922 217.538 108.731C217.538 98.3829 220.527 89.7631 226.505 82.872C232.483 75.9813 240.37 72.5357 250.168 72.5357C254.477 72.4212 258.758 73.2623 262.709 75.0002C266.661 76.7381 270.186 79.3296 273.036 82.5926C279.014 89.2974 282.003 98.0103 282.003 108.731C282.003 119.776 278.902 128.684 272.699 135.453C269.709 138.74 266.055 141.341 261.983 143.08C257.911 144.819 253.517 145.656 249.096 145.535L249.145 145.474ZM249.638 132.501C260.182 132.501 265.449 124.574 265.442 108.719C265.442 101.553 264.182 95.9051 261.662 91.7752C259.142 87.6454 255.275 85.5764 250.059 85.5684C244.651 85.5684 240.639 87.7063 238.023 91.9817C235.408 96.2571 234.104 101.926 234.112 108.987C234.112 116.614 235.5 122.437 238.276 126.453C239.493 128.366 241.178 129.93 243.168 130.993C245.158 132.057 247.387 132.585 249.638 132.526" fill="#0092CC"/>
<path d="M402.208 121.691L416.364 123.634C414.585 129.898 410.823 135.401 405.65 139.303C400.33 143.424 393.666 145.481 385.659 145.473C376.03 145.473 368.287 142.234 362.429 135.756C356.572 129.278 353.643 120.452 353.643 109.277C353.643 98.6941 356.595 89.9364 362.501 83.005C368.407 76.0735 376.431 72.6038 386.573 72.5957C396.467 72.5957 404.114 76.0171 409.513 82.8594C414.916 89.7017 417.626 98.463 417.65 109.144L417.577 110.953H369.916C369.806 114.809 370.26 118.661 371.264 122.383C372.236 125.372 374.092 127.987 376.583 129.877C379.441 132.07 382.962 133.199 386.549 133.072C394.285 133.072 399.5 129.278 402.196 121.691H402.208ZM401.245 100.811C401.389 96.2663 399.78 91.8421 396.756 88.4707C395.362 86.9856 393.687 85.7973 391.831 84.9755C389.974 84.1538 387.974 83.7151 385.947 83.6856C383.92 83.6562 381.908 84.0364 380.029 84.8042C378.15 85.5719 376.443 86.711 375.007 88.155C372.142 91.0945 370.445 95.313 369.916 100.811H401.245Z" fill="#0092CC"/>
<path d="M483.701 144.016H468.056V100.289C468.056 95.674 467.003 92.1958 464.902 89.8559C463.959 88.7478 462.785 87.8607 461.471 87.2567C460.152 86.6526 458.717 86.3458 457.269 86.3579C453.197 86.3579 449.624 88.1595 446.56 91.7627C443.495 95.3659 441.951 100.812 441.927 108.099V144.076H426.277V73.993H440.515V90.2204C445.515 78.4385 452.523 72.5434 461.543 72.5353C467.306 72.4022 472.898 74.4865 477.193 78.3655C481.523 82.2361 483.689 89.0502 483.689 98.8075L483.701 144.016Z" fill="#0092CC"/>
<path d="M348.045 132.565C344.033 128.872 338.48 127.026 331.387 127.026H310.685C307.508 127.026 305.148 126.309 303.584 124.864C302.878 124.291 302.303 123.571 301.898 122.754C301.493 121.936 301.267 121.04 301.237 120.127C301.237 117.017 302.842 114.722 306.051 113.24C310.267 114.349 314.598 114.957 318.954 115.05C327.467 115.05 334.308 113.025 339.475 108.977C341.904 107.219 343.879 104.898 345.232 102.209C346.585 99.5202 347.278 96.5424 347.25 93.5267C347.193 89.192 345.536 85.0347 342.605 81.8662L352.607 80.9795L350.368 67.4609L331.459 73.8738H331.387C326.965 72.9069 322.455 72.4146 317.931 72.4045C308.302 72.4045 301.105 74.469 296.338 78.5988C294.12 80.3896 292.33 82.6613 291.101 85.2456C289.871 87.8299 289.234 90.6601 289.237 93.5267C289.237 100.45 292.446 105.884 298.866 109.827C291.468 113.446 287.765 118.305 287.757 124.402C287.757 128.451 289.919 132.326 294.244 136.026C287.48 139.265 284.098 144.023 284.098 150.298C284.098 162.971 295.331 169.307 317.798 169.307C329.762 169.307 338.789 167.125 344.88 162.76C350.97 158.396 354.019 152.897 354.027 146.265C354.073 143.681 353.563 141.117 352.53 138.751C351.497 136.385 349.967 134.274 348.045 132.565ZM308.928 85.7408C311.199 83.5061 314.409 82.3884 318.557 82.3884C322.705 82.3884 325.819 83.4573 327.897 85.5952C328.948 86.6202 329.776 87.8545 330.33 89.2198C330.883 90.5855 331.149 92.0521 331.11 93.5267C331.11 101.624 326.834 105.673 318.28 105.673C314.268 105.673 311.138 104.604 308.892 102.466C307.773 101.396 306.894 100.096 306.313 98.6553C305.732 97.2142 305.462 95.6642 305.522 94.1097C305.477 92.5517 305.757 91.0017 306.344 89.5601C306.931 88.1186 307.811 86.8174 308.928 85.7408ZM321.361 158.497C313.129 158.497 307.111 157.282 303.307 154.853C299.504 152.424 297.618 149.59 297.65 146.35C297.65 144.407 298.782 142.379 301.032 140.277C304.717 141.332 308.518 141.916 312.346 142.014H329.04C331.558 141.975 334.044 142.586 336.262 143.788C337.236 144.263 338.054 145.013 338.617 145.945C339.181 146.878 339.466 147.955 339.439 149.047C339.423 155.347 333.397 158.497 321.361 158.497Z" fill="#0092CC"/>
<path d="M62.1054 58.373C60.9022 59.4053 60.0594 60.0126 60.0594 60.0126C46.0493 70.4464 28.1279 75.4993 28.1279 75.4993L25.2754 76.313C29.7971 80.8392 35.2349 84.3259 41.2163 86.5339C47.1973 88.742 53.5812 89.6194 59.9296 89.1061C66.2784 88.5928 72.4421 86.7009 77.9985 83.5597C83.5554 80.4186 88.3735 76.1029 92.1235 70.9077C84.0953 73.7864 72.926 67.9077 62.1054 58.373Z" fill="url(#paint0_linear_27_304)"/>
<path d="M100.536 41.9303C100.536 41.6633 100.536 41.396 100.536 41.1287C100.488 40.4811 100.428 39.8371 100.356 39.1976L100.247 38.3835C100.151 37.6549 100.031 36.9383 99.8982 36.2095C99.8982 36.0759 99.8982 35.9301 99.814 35.7844C99.6454 34.922 99.441 34.0718 99.2244 33.2215C99.2244 33.0272 99.116 32.8328 99.0559 32.6385C98.8873 31.9948 98.6946 31.351 98.4781 30.7194C98.4059 30.4643 98.3095 30.2093 98.2253 29.9542C98.0208 29.3469 97.8039 28.7396 97.5636 28.1687L97.3107 27.5007C96.9857 26.7354 96.6607 25.9702 96.2994 25.2293C96.1914 24.9864 96.0587 24.7556 95.9386 24.5127C95.6978 24.0268 95.445 23.541 95.1801 23.0673C95.1079 22.9215 95.0236 22.7879 94.9515 22.6543C91.2083 30.1485 80.7248 36.6832 68.1353 41.5416C68.8043 44.3149 68.8043 47.2101 68.1353 49.9835C67.0761 53.5178 64.1152 56.6028 62.1172 58.3762C72.9498 67.9113 84.1071 73.7899 92.147 70.9113C93.7293 68.75 95.1148 66.4488 96.2873 64.0363C96.3837 63.8424 96.468 63.6355 96.5644 63.4291L97.1059 62.2145C97.2623 61.8379 97.4067 61.4492 97.5636 61.0605C97.72 60.6722 97.7438 60.5992 97.8402 60.3561C98.0087 59.9069 98.1652 59.4452 98.3216 58.9835C98.3216 58.8137 98.4422 58.6436 98.4902 58.4734C98.6587 57.9633 98.8152 57.4533 98.9595 56.9432C98.9595 56.8218 98.9595 56.7125 99.0438 56.6028C99.574 54.7424 99.9765 52.8472 100.247 50.9307C100.247 50.7972 100.247 50.6633 100.247 50.5299C100.344 49.7403 100.428 48.9387 100.488 48.1008C100.488 47.8819 100.488 47.6512 100.488 47.4206C100.488 46.4851 100.597 45.5379 100.597 44.5782C100.597 43.6186 100.597 42.8291 100.536 41.9303Z" fill="url(#paint1_linear_27_304)"/>
<path d="M93.4829 20.3207C93.2059 19.8834 92.9051 19.4462 92.6043 19.0211C92.1107 18.3045 91.593 17.6 91.0514 16.9198L90.4377 16.1303C90.0164 15.6323 89.595 15.1343 89.1619 14.6484L89.0656 14.5755C83.5228 8.43893 76.3938 3.98413 68.4801 1.71182C60.5664 -0.560486 52.1813 -0.560183 44.2676 1.71269C46.6748 4.38486 48.4801 6.48615 48.4801 6.48615C48.4801 6.48615 60.7329 20.6486 66.8228 37.0825C67.3829 38.529 67.8216 40.0201 68.1349 41.5403C80.7244 36.6817 91.2079 30.147 94.891 22.6528C94.4494 21.8673 93.9801 21.09 93.4829 20.3207Z" fill="url(#paint2_linear_27_304)"/>
<path d="M68.1365 41.5403C67.8232 40.0201 67.3845 38.529 66.8245 37.0827C60.7345 20.6488 48.4817 6.48634 48.4817 6.48634C48.4817 6.48634 46.6523 4.38505 44.2692 1.71289C43.7394 1.87079 43.2099 2.02868 42.6922 2.21089L42.4636 2.28376C41.9462 2.4538 41.4406 2.63602 40.9349 2.83033L40.7785 2.89106C39.1817 3.50573 37.6223 4.21549 36.1087 5.01666H36.0365L34.9051 5.67255L34.2672 6.0734L33.2923 6.65642L32.5821 7.10581L31.7276 7.6767L30.9091 8.24755L30.1749 8.78198L29.1157 9.59578L28.6704 9.94803C28.1649 10.361 27.6714 10.774 27.19 11.1627L26.8771 11.442L25.7457 12.5109L25.6012 12.6445C19.8693 18.2586 15.7531 25.3362 13.6909 33.1238C11.6286 40.9113 11.6975 49.1177 13.8902 56.8689C13.8902 56.8689 13.8902 56.8689 13.8902 56.9419C14.6911 59.7536 15.7634 62.4794 17.0918 65.0798L17.2242 65.3346C17.4529 65.7842 17.7056 66.2338 17.9584 66.683C17.9584 66.7802 18.0787 66.8895 18.1389 66.9988C18.3917 67.4363 18.6444 67.8734 18.9092 68.3105L19.0055 68.4564C19.842 69.7891 20.7501 71.0742 21.7257 72.3068C21.846 72.477 21.9664 72.6347 22.0988 72.7927C22.2311 72.9504 22.6043 73.4121 22.8691 73.7157L23.3746 74.2988L24.1208 75.1367L24.7347 75.7685L25.2642 76.327L28.1047 75.5133C28.1047 75.5133 46.0503 70.4484 60.0603 60.0149C60.0603 60.0149 60.9269 59.4076 62.1063 58.375C64.1527 56.6016 67.1136 53.5165 68.1244 49.9818C68.7974 47.2097 68.8015 44.3149 68.1365 41.5403Z" fill="url(#paint3_radial_27_304)"/>
<path d="M28.0558 1.66602C28.0558 1.66602 7.75108 10.9336 1.69696 31.4121C-4.35714 51.8907 7.71495 70.681 7.71495 70.681C7.71495 70.681 25.6245 65.5915 39.6345 55.1943C39.6345 55.1943 46.0858 50.7487 47.7467 45.1616C49.3717 39.562 46.3866 32.2866 46.3866 32.2866C40.2964 15.7921 28.0558 1.66602 28.0558 1.66602Z" fill="url(#paint4_radial_27_304)"/>
<path d="M496.136 136.316C496.902 136.314 497.652 136.541 498.294 136.97C498.931 137.398 499.431 138.008 499.725 138.722C500.019 139.437 500.1 140.224 499.951 140.983C499.802 141.743 499.435 142.441 498.894 142.989C498.35 143.537 497.661 143.911 496.907 144.063C496.157 144.214 495.374 144.138 494.669 143.842C493.959 143.547 493.354 143.045 492.927 142.402C492.499 141.758 492.273 141.002 492.273 140.228C492.273 139.193 492.681 138.199 493.402 137.466C494.128 136.733 495.108 136.32 496.136 136.316ZM496.136 143.434C496.769 143.437 497.386 143.249 497.911 142.897C498.439 142.544 498.85 142.041 499.092 141.453C499.334 140.864 499.398 140.216 499.277 139.591C499.152 138.965 498.85 138.391 498.402 137.939C497.955 137.489 497.386 137.182 496.765 137.058C496.148 136.934 495.503 136.999 494.923 137.244C494.338 137.489 493.842 137.904 493.491 138.435C493.14 138.966 492.955 139.59 492.959 140.228C492.963 141.077 493.298 141.891 493.89 142.491C494.487 143.092 495.294 143.431 496.136 143.434ZM495.378 142.305H494.499V138.127H496.423C496.665 138.127 498.003 138.127 498.003 139.341C498.011 139.587 497.939 139.829 497.802 140.03C497.665 140.232 497.463 140.382 497.229 140.458L498.003 142.268H497.088L496.402 140.604H495.39L495.378 142.305ZM495.378 139.948H496.294C496.592 139.948 497.088 139.863 497.088 139.365C497.088 139.11 496.919 138.807 496.378 138.807H495.378V139.948Z" fill="#0092CC"/>
</g>
<defs>
<linearGradient id="paint0_linear_27_304" x1="43.3413" y1="58.0936" x2="74.7502" y2="89.2174" gradientUnits="userSpaceOnUse">
<stop offset="0.17" stop-color="#ECF1C5"/>
<stop offset="0.74" stop-color="#DBE2A1"/>
</linearGradient>
<linearGradient id="paint1_linear_27_304" x1="101.042" y1="51.3436" x2="68.7894" y2="39.7145" gradientUnits="userSpaceOnUse">
<stop stop-color="#DBE2A1"/>
<stop offset="0.27" stop-color="#C9D788"/>
<stop offset="0.55" stop-color="#BBCE75"/>
<stop offset="0.74" stop-color="#B6CB6E"/>
</linearGradient>
<linearGradient id="paint2_linear_27_304" x1="86.0446" y1="34.0824" x2="45.4329" y2="0.316068" gradientUnits="userSpaceOnUse">
<stop stop-color="#B5CA6D"/>
<stop offset="0.09" stop-color="#A3C067"/>
<stop offset="0.29" stop-color="#84AE5D"/>
<stop offset="0.46" stop-color="#71A356"/>
<stop offset="0.58" stop-color="#6A9F54"/>
</linearGradient>
<radialGradient id="paint3_radial_27_304" cx="0" cy="0" r="1" gradientUnits="userSpaceOnUse" gradientTransform="translate(40.4297 39.0141) scale(32.8944 33.1956)">
<stop offset="0.17" stop-color="#3A5C7B"/>
<stop offset="1" stop-color="#5B89B4"/>
</radialGradient>
<radialGradient id="paint4_radial_27_304" cx="0" cy="0" r="1" gradientUnits="userSpaceOnUse" gradientTransform="translate(14.3242 22.8662) rotate(-83.5882) scale(50.7895 29.8048)">
<stop stop-color="#E6F1F7"/>
<stop offset="0.09" stop-color="#D1E3F0"/>
<stop offset="0.28" stop-color="#ABC8E3"/>
<stop offset="0.47" stop-color="#8DB4D8"/>
<stop offset="0.65" stop-color="#78A5D1"/>
<stop offset="0.83" stop-color="#6B9CCC"/>
<stop offset="1" stop-color="#6799CB"/>
</radialGradient>
</defs>
</svg>
