<svg width="500" height="218" viewBox="0 0 500 218" fill="none" xmlns="http://www.w3.org/2000/svg">
<g clip-path="url(#clip0_29_1344)">
<path d="M332.583 142.369H322.891V145.382H351.822V142.369H344.017V91.9121C341.622 94.4168 337.774 94.6346 333.926 94.6346H324.343V97.5387H332.547V142.406" fill="#14487E"/>
<path d="M149.52 142.369H139.828V145.382H168.759V142.369H160.955V91.9121C158.559 94.4168 154.711 94.6346 150.863 94.6346H141.28V97.5387H149.411V142.406" fill="#14487E"/>
<path d="M365.979 142.37H356.723V145.383H386.053V142.37H377.632V97.6119H398.323V142.37H390.518V145.383H419.123V142.37H409.975V91.9127C407.58 94.4174 403.332 94.6352 399.448 94.6352H377.595V77.7919C377.595 66.5388 381.77 57.5001 394.657 57.5001C399.739 57.5001 403.514 59.5692 403.514 61.7835C403.514 63.2355 402.28 63.6711 401.227 64.2882C399.376 65.1594 398.214 67.047 398.214 69.0798C398.214 72.3106 401.336 74.3797 403.949 74.3797C407.906 74.3797 410.701 71.2579 410.701 66.684C410.701 61.2753 405.184 54.5234 393.531 54.5234C373.239 54.5234 365.943 70.9675 365.943 86.5766V94.7078H355.416V97.6119H365.943V142.479" fill="#14487E"/>
<path d="M59.205 108.319C71.8012 110.933 77.4277 118.519 77.4277 126.723C77.4277 136.198 69.841 143.893 58.2975 143.893C46.754 143.893 34.9927 134.201 33.214 114.744H29.9833V146.071H33.214C33.4318 144.002 34.3756 142.441 36.844 142.441C41.5268 142.441 46.5362 147.342 58.5879 147.342C76.0846 147.342 85.6316 136.742 85.6316 120.589C85.6316 107.883 79.2791 98.518 62.5446 94.3798L56.0832 92.9278C41.309 89.4792 36.9529 82.7274 36.9529 75.7577C36.9529 66.2834 44.3582 59.8219 53.1792 59.8219C67.1185 59.8219 75.3586 71.075 76.9921 85.1232H80.4407V59.0959H77.3188C76.9921 60.7657 76.1572 62.3266 73.6888 62.3266C69.4054 62.3266 65.8843 56.3008 52.8888 56.3008C39.8933 56.3008 29.584 65.8841 29.584 79.9323C29.584 95.1421 37.1707 103.019 52.9977 106.794L59.2413 108.355" fill="#14487E"/>
<path d="M293.234 135.799C293.234 144.221 299.079 147.343 306.774 147.343C316.031 147.343 319.044 142.261 320.496 139.139L318.1 137.469C316.648 140.083 314.252 143.204 310.186 143.204C307.065 143.204 304.56 141.644 304.56 136.852V97.5024H317.991V94.5983H304.56V79.207H302.273C300.313 91.295 294.686 94.5983 283.324 94.5983V97.5024H293.016V135.799" fill="#14487E"/>
<path d="M256.607 142.37H265.246V104.799C265.246 98.773 262.016 96.3772 257.769 96.3772C250.182 96.3772 244.555 103.565 241.942 107.195V142.479H250.799V145.491H221.359V142.479H230.398V97.7203H221.359V94.8163H230.943C236.787 94.8163 239.473 94.8163 241.651 92.0938V102.185H241.869C244.374 99.1723 250.291 92.0938 260.491 92.0938C271.417 92.0938 276.717 99.1723 276.717 107.703V142.551H285.756V145.564H256.498V142.333" fill="#14487E"/>
<path d="M133.294 128.611C132.06 135.181 126.724 143.276 117.794 143.276C108.864 143.276 104.799 138.085 104.799 126.614V114.962C104.799 103.709 108.973 95.614 118.447 95.614C124.074 95.614 127.305 98.4091 127.305 100.515C127.305 101.676 126.47 102.402 125.853 103.237C124.873 104.217 124.328 105.524 124.292 106.867C124.292 109.481 126.252 111.949 129.918 111.949C133.258 111.949 136.053 109.227 136.053 105.088C136.053 98.9536 128.757 92.4922 117.54 92.4922C103.274 92.4922 92.166 103.419 92.166 119.971C92.166 135.072 99.9706 147.451 116.632 147.451C127.885 147.451 135.146 138.303 136.598 128.502H133.367" fill="#14487E"/>
<path d="M460.361 128.504C459.126 135.074 453.79 143.169 444.86 143.169C435.931 143.169 431.865 137.978 431.865 126.507V114.746C431.865 103.493 436.039 95.3977 445.514 95.3977C451.14 95.3977 454.371 98.1928 454.371 100.298C454.371 101.46 453.536 102.186 452.919 103.021C451.975 104.037 451.431 105.38 451.467 106.76C451.467 109.373 453.427 111.842 457.094 111.842C460.433 111.842 463.228 109.119 463.228 104.981C463.228 98.8462 455.932 92.3848 444.606 92.3848C430.34 92.3848 419.232 103.311 419.232 119.864C419.232 134.965 427.037 147.343 443.59 147.343C454.843 147.343 462.103 138.196 463.555 128.395H460.433" fill="#14487E"/>
<path d="M214.062 128.394C212.719 135.8 207.31 143.277 198.779 143.277C190.249 143.277 185.784 138.086 185.784 127.451V115.471H217.22C217.946 115.471 218.273 115.072 218.273 114.31V112.422C218.273 104.727 211.412 92.457 196.021 92.457C182.698 92.457 172.934 105.561 172.934 119.936C172.934 137.106 182.916 147.416 196.565 147.416C207.274 147.416 215.296 139.829 217.256 128.358H214.134L214.062 128.394ZM206.765 111.442C206.765 111.95 206.548 112.277 205.931 112.277H186.147V108.538C186.147 100.516 190.321 95.5426 196.565 95.5426C202.809 95.5426 206.657 100.116 206.657 108.538V111.442" fill="#14487E"/>
<path d="M106.034 2.79512H109.047C120.699 2.79512 126.943 9.36547 126.943 17.5693C126.943 29.2217 119.029 33.2873 109.446 33.2873H105.997V2.79512H106.034ZM94.1635 71.3663H86.25V74.1615H118.412C129.338 74.1615 142.225 67.9178 142.225 53.3614C142.225 41.8179 131.807 35.5743 121.715 34.9572V34.449C130.355 33.723 138.994 28.2053 138.994 16.7707C138.994 6.89705 130.573 0 115.181 0H86.25V2.72252H94.2724V71.4026H94.1635V71.3663ZM106.034 35.9736H111.66C123.421 35.9736 129.883 43.6692 129.883 53.3614C129.883 63.8885 123.53 71.3663 112.713 71.3663H106.07V36.0099" fill="#14487E"/>
<path d="M147.125 52.0191C147.125 65.1235 156.382 76.0498 169.486 76.0498C182.59 76.0498 191.847 65.0146 191.847 52.0191C191.847 39.0236 182.59 27.9883 169.486 27.9883C156.382 27.9883 147.125 38.8058 147.125 52.0191ZM180.63 54.7416C180.63 63.8893 179.577 72.9643 169.486 72.9643C159.394 72.9643 158.342 63.9256 158.342 54.7416V49.2239C158.342 40.0763 159.177 31.0012 169.486 31.0012C179.795 31.0012 180.63 40.04 180.63 49.2239V54.7416Z" fill="#14487E"/>
<path d="M262.125 52.0191C262.125 65.1235 271.382 76.0498 284.486 76.0498C297.59 76.0498 306.847 65.0146 306.847 52.0191C306.847 39.0236 297.59 27.9883 284.486 27.9883C271.382 27.9883 262.125 38.8058 262.125 52.0191ZM295.63 54.7416C295.63 63.8893 294.469 72.9643 284.486 72.9643C274.503 72.9643 273.342 63.9256 273.342 54.7416V49.3328C273.342 40.1852 274.177 31.1101 284.486 31.1101C294.795 31.1101 295.63 40.1489 295.63 49.3328V54.7416Z" fill="#14487E"/>
<path d="M338.936 71.4759H345.289V39.9673C345.289 34.6674 341.84 32.4894 338.21 32.4894C333.419 32.4894 328.518 37.0633 326.231 41.9638V71.5122H334.036V74.3073H306.992V71.5122H315.523V32.562H307.319V29.7669H315.341C320.242 29.7669 324.199 29.7669 326.05 27.3711V36.0106H326.268C330.442 30.9285 336.141 27.3711 342.712 27.3711C352.912 27.3711 356.433 34.6674 356.433 40.6933V71.2944H362.459V74.0895H338.936V71.4759Z" fill="#14487E"/>
<path d="M213.338 56.0834C219.472 56.9183 222.086 60.5483 222.086 64.5051C222.086 70.0227 217.621 73.0356 212.612 73.0356C203.028 73.0356 199.725 64.614 199.072 58.9874H196.676L197.002 75.3226H199.398C199.616 73.6527 200.124 72.9267 201.177 72.9267C203.355 72.9267 206.078 75.9397 212.72 75.9397C222.703 75.9397 228.729 69.696 228.729 60.3305C228.729 53.5787 224.881 47.5165 216.351 46.2823L211.268 45.4474C204.626 44.2858 202.23 41.9989 202.23 38.0422C202.23 34.0854 205.569 30.8547 211.196 30.8547C217.766 30.8547 221.614 35.0292 222.63 41.3818H224.917L224.7 28.4952H222.63C222.522 29.439 222.122 30.4554 221.07 30.4554C219.182 30.4554 216.605 27.8418 210.978 27.8418C203.065 27.8418 196.93 33.3594 196.93 41.164C196.93 51.0377 203.391 54.704 210.143 55.6115L213.374 56.0108" fill="#14487E"/>
<path d="M260.89 67.3372C259.837 69.116 257.55 71.8022 254.247 71.8022C251.452 71.8022 248.947 70.568 248.947 66.0667V32.5616H260.926V29.7665H248.947V14.5566H246.878C245.099 25.1563 239.182 29.7665 230.543 29.7665V32.5616H238.13V65.9578C238.13 73.2542 243.321 76.0493 250.617 76.0493C257.26 76.0493 260.817 72.6008 262.596 69.8057L260.926 67.3009" fill="#14487E"/>
<path d="M9.87368 196.348L4.24713 208H0C4.90054 198.853 9.69217 189.487 14.266 180.23H19.0576C22.1795 189.487 25.7006 198.744 29.0402 208H24.8657C23.7041 204.043 22.2521 200.196 20.8001 196.348H9.87368ZM20.0741 193.625L16.3351 183.026L10.9264 193.625H20.0741Z" fill="#14487E"/>
<path d="M46.6091 203.863C45.1208 206.803 41.999 208.618 38.6956 208.437C33.7951 208.437 29.9473 205.097 29.9473 198.854C29.9473 192.61 33.904 186.875 42.4346 186.875C43.9592 186.875 45.5201 186.983 47.0084 187.274C47.1173 184.769 47.1173 182.918 47.1173 180.195H50.7473C50.2391 189.452 49.8035 198.708 49.6946 207.965H46.2461L46.5728 203.79L46.6091 203.863ZM42.4346 189.488C35.9731 189.488 33.5773 194.788 33.5773 198.745C33.5773 202.701 35.6464 205.823 39.8209 205.823C43.451 205.823 45.6653 203.028 46.3913 199.689C47.1173 196.349 46.7906 193.118 47.0084 189.996C45.5201 189.633 43.9592 189.452 42.4346 189.488Z" fill="#14487E"/>
<path d="M74.7068 187.418C71.585 194.279 68.3542 201.067 65.4502 208.037H61.4935L54.0156 187.418H57.7546L63.5989 204.915L70.8953 187.418H74.7431H74.7068Z" fill="#14487E"/>
<path d="M89.0813 208.038C89.4806 204.807 89.5895 200.015 89.8073 195.95C87.0848 198.672 78.046 198.019 78.046 203.028C78.046 205.642 80.5507 206.368 82.7287 206.368C84.1807 206.368 85.6327 206.077 87.0121 205.642L86.395 208.146C85.0519 208.401 83.7088 208.509 82.3294 208.546C79.3165 208.546 74.8516 207.929 74.8516 203.137C74.8516 194.498 89.9525 197.837 89.9525 192.211C89.9525 189.706 87.1573 189.307 85.1608 189.307C82.5472 189.307 79.9699 189.887 77.5741 190.976L77.9734 188.254C80.4781 187.6 83.0917 187.237 85.669 187.201C92.5298 187.201 93.5825 189.924 93.5825 192.501C93.5825 195.623 92.9654 203.645 92.9654 208.219H89.1176V208.001L89.0813 208.038Z" fill="#14487E"/>
<path d="M102.693 191.375C104.472 188.035 107.376 186.91 111.006 186.91C115.362 186.91 118.81 188.58 118.81 193.372C118.81 194.824 118.302 204.625 118.193 207.928H114.563C114.781 205.423 115.18 198.163 115.18 194.606C115.18 191.048 113.002 189.705 109.554 189.705C106.214 189.596 103.274 191.92 102.693 195.223C101.858 198.853 101.858 205.823 101.858 207.928H98.1191C98.6273 201.067 99.0629 194.207 99.1718 187.309H102.693V191.375Z" fill="#14487E"/>
<path d="M138.812 190.54C136.961 189.851 134.964 189.488 132.968 189.488C128.176 189.488 125.889 193.444 125.889 198.236C125.889 203.028 128.394 205.823 133.294 205.823C134.964 205.787 136.598 205.46 138.195 204.879L137.687 207.783C135.944 208.182 134.166 208.4 132.387 208.4C125.925 208.4 122.404 204.661 122.404 198.309C122.404 191.956 125.526 186.874 133.004 186.874C134.928 186.838 136.815 187.128 138.631 187.709L138.848 190.504L138.812 190.54Z" fill="#14487E"/>
<path d="M146.944 187.418C146.436 194.279 146.218 201.139 146.11 208.036H142.262C142.77 201.176 143.097 194.315 143.206 187.418H146.944ZM143.314 183.134L143.423 180.23H147.38L147.271 183.134H143.314Z" fill="#14487E"/>
<path d="M156.091 191.375C157.87 188.035 160.774 186.91 164.404 186.91C168.76 186.91 172.209 188.58 172.209 193.372C172.209 194.824 171.701 204.625 171.592 207.928H167.962C168.179 205.423 168.579 198.163 168.579 194.606C168.579 191.048 166.401 189.705 162.952 189.705C159.613 189.596 156.672 191.92 156.091 195.223C155.257 198.853 155.257 205.823 155.257 207.928H151.518C152.026 201.067 152.461 194.207 152.57 187.309H156.091V191.375Z" fill="#14487E"/>
<path d="M177.726 213.845C180.267 214.752 182.953 215.224 185.639 215.297C189.16 215.297 191.266 214.462 192.209 211.34C192.826 209.053 192.718 206.04 192.826 203.753L192.718 203.645C191.266 206.875 188.253 208.327 184.804 208.327C179.178 208.327 175.838 204.879 175.838 199.289C175.838 194.098 178.234 186.91 189.269 186.91C191.883 186.983 194.496 187.273 197.074 187.745C196.674 192.646 196.456 193.662 196.021 209.271C195.912 214.172 193.843 217.802 186.147 217.802C183.388 217.802 180.593 217.475 177.943 216.749L177.726 213.845ZM189.051 189.487C179.904 189.487 179.359 197.401 179.359 198.744C179.359 202.919 181.428 205.714 185.82 205.714C189.16 205.714 191.447 203.645 192.463 200.523C193.407 197.8 193.189 192.718 193.407 189.923C191.955 189.669 190.503 189.56 189.051 189.524V189.487Z" fill="#14487E"/>
<path d="M214.354 204.588C216.205 205.386 218.165 205.858 220.198 205.931C221.977 205.931 224.372 205.422 224.372 203.208C224.372 199.36 215.842 196.965 215.842 192.064C215.842 189.051 218.129 186.873 222.92 186.873C224.59 186.873 226.26 187.055 227.93 187.381L228.148 190.285C226.623 189.704 224.989 189.45 223.356 189.45C221.577 189.45 219.508 189.85 219.508 191.846C219.508 195.585 228.039 197.981 228.039 203.172C228.039 207.02 224.082 208.363 220.851 208.363C218.818 208.363 216.786 208.072 214.825 207.528L214.426 204.515L214.354 204.588Z" fill="#14487E"/>
<path d="M247.859 190.54C246.008 189.851 244.011 189.488 242.015 189.488C237.223 189.488 234.936 193.444 234.936 198.236C234.936 203.028 237.441 205.823 242.341 205.823C244.011 205.787 245.645 205.46 247.242 204.879L246.734 207.783C244.991 208.182 243.212 208.4 241.434 208.4C234.972 208.4 231.451 204.661 231.451 198.309C231.451 191.956 234.573 186.874 242.051 186.874C243.975 186.838 245.862 187.128 247.677 187.709L247.895 190.504L247.859 190.54Z" fill="#14487E"/>
<path d="M256.208 187.418C255.7 194.279 255.482 201.139 255.373 208.036H251.525C252.034 201.176 252.36 194.315 252.469 187.418H256.208ZM252.578 183.134L252.687 180.23H256.644L256.535 183.134H252.578Z" fill="#14487E"/>
<path d="M263.795 197.292V198.453C263.795 203.245 266.808 205.931 271.49 205.931C273.668 205.822 275.81 205.423 277.843 204.697L277.226 207.71C275.193 208.254 273.087 208.508 270.982 208.545C262.451 208.545 260.273 203.354 260.273 198.236C260.273 191.883 263.795 186.982 270.583 186.982C275.991 186.982 279.549 189.778 279.549 195.404C279.549 196.021 279.549 196.638 279.44 197.292H263.831H263.795ZM276.173 195.114C276.173 191.665 274.612 189.088 270.873 189.088C267.134 189.088 264.629 191.484 264.012 195.114H276.173Z" fill="#14487E"/>
<path d="M287.426 191.375C289.205 188.035 292.109 186.91 295.739 186.91C300.095 186.91 303.544 188.58 303.544 193.372C303.544 194.824 303.035 204.625 302.927 207.928H299.297C299.514 205.423 299.914 198.163 299.914 194.606C299.914 191.048 297.736 189.705 294.287 189.705C290.947 189.596 288.007 191.92 287.426 195.223C286.591 198.853 286.591 205.823 286.591 207.928H283.07C283.579 201.067 284.014 194.207 284.123 187.309H287.644L287.426 191.375Z" fill="#14487E"/>
<path d="M323.544 190.54C321.693 189.851 319.697 189.488 317.7 189.488C312.908 189.488 310.622 193.444 310.622 198.236C310.622 203.028 313.126 205.823 318.027 205.823C319.697 205.787 321.33 205.46 322.927 204.879L322.419 207.783C320.677 208.182 318.898 208.4 317.119 208.4C310.658 208.4 307.137 204.661 307.137 198.309C307.137 191.956 310.259 186.874 317.736 186.874C319.66 186.838 321.548 187.128 323.363 187.709L323.581 190.504L323.544 190.54Z" fill="#14487E"/>
<path d="M329.353 197.292V198.453C329.353 203.245 332.366 205.931 337.049 205.931C339.227 205.822 341.369 205.423 343.401 204.697L342.784 207.71C340.751 208.254 338.646 208.508 336.541 208.545C328.01 208.545 325.832 203.354 325.832 198.236C325.832 191.883 329.353 186.982 336.141 186.982C341.55 186.982 345.107 189.778 345.107 195.404C345.107 196.021 345.107 196.638 344.999 197.292H329.389H329.353ZM341.732 195.114C341.732 191.665 340.171 189.088 336.432 189.088C332.693 189.088 330.188 191.484 329.571 195.114H341.732Z" fill="#14487E"/>
<path d="M361.297 190.031L361.406 187.417H364.128C364.128 182.517 364.455 179.504 370.263 179.504C371.606 179.504 372.913 179.685 374.22 180.012L374.438 182.735C373.203 182.335 371.897 182.118 370.59 182.118C367.359 182.118 367.359 184.622 367.359 187.526H372.986L372.768 190.14H367.25C367.141 197.727 366.851 201.901 366.742 208.145H363.003C363.402 202.119 363.62 196.057 363.838 190.14H361.333V190.031H361.297Z" fill="#14487E"/>
<path d="M394.402 197.111C394.402 202.52 391.68 208.546 383.585 208.546C377.341 208.546 373.275 204.589 373.275 198.345C373.275 191.593 377.341 187.092 384.202 187.092C390.445 186.983 394.402 190.722 394.402 197.075V197.111ZM376.833 198.345C376.833 202.629 378.902 205.823 383.694 205.823C388.993 205.823 390.99 201.649 390.99 196.966C390.99 192.283 388.812 189.488 384.02 189.488C379.229 189.488 376.833 193.336 376.833 198.345Z" fill="#14487E"/>
<path d="M401.879 190.758C403.005 188.363 405.473 186.874 408.123 187.02C408.668 187.02 409.248 187.092 409.793 187.237L409.902 190.25C409.139 190.032 408.377 189.924 407.615 189.924C404.166 189.924 402.424 192.646 401.988 195.659C401.589 199.761 401.444 203.899 401.589 208.037H397.959C398.286 202.12 398.685 196.058 398.685 187.419H402.134L401.916 190.758H401.879Z" fill="#14487E"/>
<path d="M431.247 180.23C430.629 189.269 430.303 198.744 430.012 208H426.273C426.891 198.744 427.326 189.487 427.508 180.23H431.247Z" fill="#14487E"/>
<path d="M440.396 187.418C439.887 194.279 439.67 201.139 439.561 208.036H435.713C436.221 201.176 436.548 194.315 436.657 187.418H440.396ZM436.766 183.134L436.874 180.23H440.831L440.722 183.134H436.766Z" fill="#14487E"/>
<path d="M444.352 190.031L444.46 187.417H447.183C447.183 182.517 447.51 179.504 453.318 179.504C454.661 179.504 455.968 179.685 457.274 180.012L457.492 182.735C456.258 182.335 454.951 182.118 453.644 182.118C450.414 182.118 450.414 184.622 450.414 187.526H456.04L455.822 190.14H450.305C450.196 197.727 449.906 201.901 449.797 208.145H446.058C446.457 202.119 446.675 196.057 446.893 190.14H444.388V190.031H444.352Z" fill="#14487E"/>
<path d="M460.687 197.292V198.453C460.687 203.245 463.7 205.931 468.383 205.931C470.561 205.822 472.703 205.423 474.735 204.697L474.118 207.71C472.085 208.254 469.98 208.508 467.875 208.545C459.344 208.545 457.166 203.354 457.166 198.236C457.166 191.883 460.687 186.982 467.475 186.982C472.884 186.982 476.441 189.778 476.441 195.404C476.441 196.021 476.441 196.638 476.333 197.292H460.723H460.687ZM473.066 195.114C473.066 191.665 471.505 189.088 467.766 189.088C464.027 189.088 461.522 191.484 460.905 195.114H473.066Z" fill="#14487E"/>
<path d="M481.922 189.815C482.031 187.02 482.249 184.08 482.249 181.285H479.127L479.236 179.941H487.367L487.258 181.285H484.136C484.027 184.08 483.919 187.02 483.81 189.815H481.922ZM498.148 189.815C498.257 187.093 498.257 184.297 498.257 181.611C497.096 184.334 495.97 187.129 494.918 189.815H492.74C492.014 187.093 491.179 184.297 490.453 181.611C490.235 184.334 490.053 187.129 489.944 189.815H488.275C488.601 186.475 488.783 183.245 488.892 179.941H491.905C492.522 182.555 493.357 185.241 494.083 187.855C495.244 185.241 496.37 182.555 497.313 179.941H500.036C499.927 183.281 499.927 186.512 499.927 189.815H498.148Z" fill="#14487E"/>
</g>
<defs>
<clipPath id="clip0_29_1344">
<rect width="500" height="217.802" fill="white"/>
</clipPath>
</defs>
</svg>
