<svg width="500" height="81" viewBox="0 0 500 81" fill="none" xmlns="http://www.w3.org/2000/svg">
<path d="M25.0995 72.9153C24.5842 73.9788 23.4891 74.6635 22.3099 74.6635C21.8385 74.6635 21.3842 74.5592 20.9592 74.3513C11.2349 69.6379 6.09766 61.3318 6.09766 50.3281V37.9001C6.09766 36.1903 7.48729 34.8007 9.19644 34.8007C10.905 34.8007 12.2958 36.1903 12.2958 37.9001V50.3275C12.2958 58.9105 16.1196 65.1166 23.6641 68.7763C25.2001 69.5227 25.8452 71.3794 25.0995 72.9153ZM15.9294 44.1111C15.9294 45.8684 17.3538 47.2916 19.1092 47.2916C20.8659 47.2916 22.2903 45.8684 22.2903 44.1111V18.7501C22.2903 16.9922 20.8666 15.5696 19.1092 15.5696C17.3538 15.5696 15.9294 16.9922 15.9294 18.7501V44.1111ZM25.769 43.3739C25.769 45.13 27.1928 46.5537 28.9483 46.5537C30.705 46.5537 32.1288 45.13 32.1288 43.3739V9.2757C32.1288 7.519 30.705 6.09766 28.9483 6.09766C27.1928 6.09766 25.769 7.519 25.769 9.2757V43.3739ZM35.608 45.7202C35.608 47.4769 37.0318 48.8995 38.7873 48.8995C40.5446 48.8995 41.9684 47.4769 41.9684 45.7202V15.1105C41.9684 13.3538 40.5446 11.93 38.7873 11.93C37.0318 11.93 35.608 13.3538 35.608 15.1105V45.7202ZM45.447 49.7714C45.447 51.4757 46.8281 52.8562 48.5312 52.8562C50.2349 52.8562 51.616 51.4757 51.616 49.7714V29.0842C51.616 27.38 50.2349 25.9989 48.5312 25.9989C46.8281 25.9989 45.447 27.38 45.447 29.0842V49.7714Z" fill="#BE2BBB"/>
<path d="M84.5482 43.9296L84.5537 43.7387C88.5561 42.3631 91.0372 39.9558 91.0372 35.6589V34.9991C91.0372 30.0656 87.0256 26.007 78.8451 26.007H67.5293V64.5119H79.6665C87.6171 64.5119 93.075 60.5149 93.075 54.1162V53.7326C93.0756 48.7406 90.136 45.0845 84.5482 43.9296ZM72.4805 30.3528H78.1384C83.5317 30.3528 86.2817 32.3948 86.2817 36.0528V36.4393C86.2817 40.8552 82.4647 42.2698 77.4494 42.2698H72.4805V30.3528ZM88.0031 53.6747C88.0031 58.4387 84.25 60.2204 78.7738 60.2204H72.4805V46.3406H78.8628C84.2537 46.3406 88.0031 48.132 88.0031 53.0692V53.6747ZM109.257 35.3582H110.687V39.8686H109.532C104.91 39.8686 101.884 42.1784 101.884 48.2863V64.5113H97.2659V35.3582H101.884V40.5845H102.105C102.93 37.9454 105.076 35.3582 109.257 35.3582ZM114.798 35.3582H119.42V64.5125H114.798V35.3582ZM119.926 28.818C119.926 31.0698 118.901 32.1247 117.107 32.1247C115.313 32.1247 114.287 31.0698 114.287 28.818C114.287 26.5668 115.313 25.4473 117.107 25.4473C118.902 25.4473 119.926 26.5662 119.926 28.818ZM145.05 56.4808C145.05 62.0924 140.868 65.0613 134.763 65.0613C128.602 65.0613 124.532 62.421 124.202 56.4808H128.823C128.988 60.057 131.627 61.2125 134.763 61.2125C137.898 61.2125 140.429 59.8369 140.429 56.8095C140.429 49.7149 124.532 54.6119 124.532 43.1162C124.532 38.3271 128.052 34.8076 134.488 34.8076C140.375 34.8076 144.281 37.7235 144.721 43.3893H140.099C139.824 39.9784 137.459 38.6582 134.488 38.6582C131.132 38.6582 129.043 40.1985 129.043 43.1168C129.042 49.9906 145.05 45.7546 145.05 56.4808ZM155.71 35.3582H161.981V39.429H155.71V55.5448C155.71 59.7808 156.812 60.6607 159.616 60.6607C160.385 60.6607 161.266 60.5503 161.981 60.4954V64.4576C161.102 64.6223 159.946 64.7314 159.121 64.7314C153.401 64.7314 151.091 62.4759 151.091 56.2582V39.429H146.195V35.3582H151.091V26.0076H155.71V35.3582ZM175.63 34.8076C168.423 34.8076 164.573 39.7595 164.573 47.7899V52.0808C164.573 60.1113 168.423 65.0619 175.63 65.0619C182.835 65.0619 186.685 60.1113 186.685 52.0808V47.7899C186.685 39.7595 182.835 34.8076 175.63 34.8076ZM182.011 51.8052C182.011 58.7363 179.59 60.9912 175.63 60.9912C171.669 60.9912 169.251 58.7363 169.251 51.8052V48.0643C169.251 41.1332 171.67 38.8784 175.63 38.8784C179.59 38.8784 182.011 41.1332 182.011 48.0643V51.8052ZM191.569 26.0076H196.191V64.5107H191.569V26.0076ZM240.759 26.0076H248.601V64.5125H243.705V31.3442H243.431L233.584 58.1375H227.587L217.854 31.3442H217.579V64.5125H212.738V26.0076H220.963L230.67 52.7534H230.946L240.759 26.0076ZM271.071 35.3582H275.747L262.821 73.8625H258.035L261.281 64.7302L251.818 35.357H256.715L263.7 58.0765H263.92L271.071 35.3582ZM288.16 34.8076C280.956 34.8076 277.105 39.9778 277.105 47.7899V52.0808C277.105 60.1113 280.955 65.0619 288.16 65.0619C293.937 65.0619 297.346 61.8717 298.501 56.4265H293.771C292.946 59.7814 291.076 60.9918 288.16 60.9918C284.202 60.9918 281.78 58.7369 281.78 51.8058V51.421H298.666V47.7899C298.666 39.9784 295.368 34.8076 288.16 34.8076ZM288.16 38.879C291.904 38.879 293.931 41.0826 293.987 47.7899H281.788C281.852 41.0826 284.256 38.879 288.16 38.879ZM315.798 35.3582H317.227V39.8686H316.073C311.453 39.8686 308.427 42.1784 308.427 48.2863V64.5113H303.807V35.3582H308.427V40.5845H308.648C309.471 37.9454 311.618 35.3582 315.798 35.3582ZM340.551 56.4808C340.551 62.0924 336.371 65.0613 330.263 65.0613C324.102 65.0613 320.035 62.421 319.702 56.4808H324.324C324.489 60.057 327.13 61.2125 330.263 61.2125C333.399 61.2125 335.929 59.8369 335.929 56.8095C335.929 49.7149 320.035 54.6119 320.035 43.1162C320.035 38.3271 323.555 34.8076 329.99 34.8076C335.874 34.8076 339.783 37.7235 340.221 43.3893H335.599C335.326 39.9784 332.961 38.6582 329.99 38.6582C326.634 38.6582 324.545 40.1985 324.545 43.1168C324.545 49.9906 340.551 45.7546 340.551 56.4808ZM377.274 54.3345C377.274 61.2113 372.544 65.0619 365.282 65.0619C358.461 65.0619 352.851 61.7619 352.137 54.3912H357.251C357.857 58.7369 360.938 60.771 365.226 60.771C370.124 60.771 372.324 57.8558 372.324 54.6119C372.324 43.6631 352.743 49.9906 352.743 35.6339C352.743 29.4735 357.638 25.4582 364.459 25.4582C371.057 25.4582 376.56 28.7028 376.891 36.2942H371.773C371.334 31.6186 368.364 29.7485 364.405 29.7485C359.727 29.7485 357.692 32.4997 357.692 35.4131C357.692 45.0948 377.274 39.3735 377.274 54.3345ZM398.152 38.879H397.926C396.678 36.3058 394.305 34.8082 391.276 34.8082C384.069 34.8082 380.77 39.7601 380.77 47.7912V52.0808C380.77 60.1125 384.069 65.0619 391.276 65.0619C394.305 65.0619 396.679 63.5649 397.926 60.9924H398.152V64.5125V73.8637H402.773V35.3582H398.152V38.879ZM391.825 60.9918C387.866 60.9918 385.444 58.7369 385.444 51.8058V48.0649C385.444 41.1338 387.866 38.879 391.825 38.879C395.785 38.879 398.207 41.1338 398.207 48.0649V51.8058C398.207 58.7369 395.785 60.9918 391.825 60.9918ZM423.993 35.3582H428.615V64.5125H423.993V60.7704H423.774C422.673 63.1357 420.308 65.0613 416.624 65.0613C411.179 65.0613 407.821 61.9796 407.821 55.104V35.3582H412.498V54.446C412.498 59.1217 414.424 61.157 417.89 61.157C421.243 61.157 423.993 58.9015 423.993 53.2363V35.3582ZM434.548 35.3582H439.167V64.5125H434.548V35.3582ZM456.86 34.8076C453.787 34.8076 451.442 36.3052 450.207 38.8784H449.986V35.3582V26.0076H445.366V64.5125H449.986V60.9924H450.207C451.442 63.5649 453.787 65.0619 456.86 65.0619C464.066 65.0619 467.366 60.1125 467.366 52.0808V47.7912C467.366 39.7595 464.067 34.8076 456.86 34.8076ZM462.693 51.8052C462.693 58.7363 460.272 60.9912 456.313 60.9912C452.351 60.9912 449.932 58.7363 449.932 51.8052V48.0643C449.932 41.1332 452.351 38.8784 456.313 38.8784C460.272 38.8784 462.693 41.1332 462.693 48.0643V51.8052ZM483.398 34.8076C480.321 34.8076 477.978 36.3052 476.741 38.8784H476.521V35.3582V26.0076H471.904V64.5125H476.521V60.9924H476.741C477.978 63.5649 480.321 65.0619 483.398 65.0619C490.603 65.0619 493.904 60.1125 493.904 52.0808V47.7912C493.903 39.7595 490.603 34.8076 483.398 34.8076ZM489.229 51.8052C489.229 58.7363 486.808 60.9912 482.846 60.9912C478.888 60.9912 476.466 58.7363 476.466 51.8052V48.0643C476.466 41.1332 478.888 38.8784 482.846 38.8784C486.808 38.8784 489.229 41.1332 489.229 48.0643V51.8052ZM439.677 28.818C439.677 31.0698 438.651 32.1247 436.858 32.1247C435.066 32.1247 434.039 31.0698 434.039 28.818C434.039 26.5668 435.066 25.4473 436.858 25.4473C438.651 25.4473 439.677 26.5662 439.677 28.818Z" fill="#595454"/>
</svg>
