<svg width="500" height="183" viewBox="0 0 500 183" fill="none" xmlns="http://www.w3.org/2000/svg">
<g clip-path="url(#clip0_29_1343)">
<mask id="mask0_29_1343" style="mask-type:luminance" maskUnits="userSpaceOnUse" x="-27" y="-2" width="579" height="187">
<path d="M551.583 -1.27539H-26.2695V184.423H551.583V-1.27539Z" fill="white"/>
</mask>
<g mask="url(#mask0_29_1343)">
<mask id="mask1_29_1343" style="mask-type:luminance" maskUnits="userSpaceOnUse" x="-7" y="-21" width="526" height="219">
<path d="M-6.8457 -20.7695V197.637H518.013V-20.7695" fill="white"/>
</mask>
<g mask="url(#mask1_29_1343)">
<path d="M131.004 65.8725C132.928 64.525 134.912 63.3217 136.961 62.0299C138.482 63.6004 139.918 65.1217 141.269 66.7545C139.266 67.8266 137.332 69.043 135.482 70.1578C134.086 68.7184 132.584 67.2529 131.004 65.8725ZM123.036 59.3348C124.873 57.8266 126.892 56.3217 129.102 54.8365C130.754 56.2496 132.354 57.6266 133.866 59.0332C131.725 60.3643 129.699 61.6693 127.817 63.0988C126.302 61.7775 124.702 60.5971 123.036 59.3348ZM268.659 43.866L268.289 43.5676C219.604 45.5447 173.928 60.7709 143.214 79.7152C141.925 77.725 140.469 75.8496 138.853 73.8955C166.42 56.8791 204.882 42.6725 237.636 38.3873L237.194 38.1414C202.135 41.6594 167.84 52.3152 143.45 65.5315C142.473 63.7971 141.286 62.0299 139.928 60.3283C161.266 48.0463 188.728 38.1611 214.948 33.3545L214.571 33.0889C183.968 37.7217 156.295 46.2725 137.184 57.1119C135.8 55.5709 134.289 54.1184 132.63 52.6201C134.63 51.407 136.709 50.243 138.892 49.0856C139.84 50.0594 140.768 51.0594 141.646 52.0791L142.725 51.0529C142.122 50.0332 141.473 49.0725 140.781 48.102C156.499 40.125 175.991 33.7775 191.158 30.8004L190.748 30.5447C175.236 33.302 154.594 38.007 138.794 45.5611C125.813 30.1709 99.4528 19.6627 61.1479 12.2168L60.8135 12.4397C95.4496 20.2955 120.83 32.0791 136.45 46.7119C134.177 47.8725 132.033 49.0988 130.027 50.4037C111.646 35.2889 79.1479 21.7283 36.2955 15.4037L35.9315 15.6102C73.7053 22.4725 105.309 36.1053 126.584 52.8168C124.469 54.4266 122.591 56.0791 121.007 57.8693C97.3873 41.1381 59.9741 27.0594 9.93153 20.5807L9.58398 20.8135C50.9709 27.4234 94.0791 42.0102 123.338 66.6168C119.482 69.9184 116.364 73.3873 114.191 76.9217L115.423 78.2201C118.594 75.1348 122.233 72.125 126.266 69.1709C127.791 70.4693 129.266 71.8824 130.709 73.2922C120.646 80.1906 113.433 87.6365 110.197 94.807L111.522 95.902C117.112 89.4365 124.915 83.0201 134.184 76.8725C135.866 78.7283 137.466 80.4922 138.987 82.4168C120.102 94.8561 107.643 108.591 104.856 121.217L106.322 122.22C114.282 108.791 127.059 97.0463 142.348 86.7479C144.728 90.0824 146.912 93.4889 148.84 97.1545L150.181 96.2889C149.489 92.3676 148.079 88.4168 146.007 84.4889C184.43 60.1184 236.797 45.8037 268.659 43.866Z" fill="#F04E44"/>
</g>
<mask id="mask2_29_1343" style="mask-type:luminance" maskUnits="userSpaceOnUse" x="-7" y="-21" width="526" height="219">
<path d="M-6.8457 -20.7695V197.637H518.013V-20.7695" fill="white"/>
</mask>
<g mask="url(#mask2_29_1343)">
<path d="M240.491 133.208H248.166V164.991H240.491V133.208ZM240.373 119.732H248.288V127.201H240.373V119.732Z" fill="black"/>
</g>
<mask id="mask3_29_1343" style="mask-type:luminance" maskUnits="userSpaceOnUse" x="-7" y="-21" width="526" height="219">
<path d="M-6.8457 -20.7695V197.637H518.013V-20.7695" fill="white"/>
</mask>
<g mask="url(#mask3_29_1343)">
<path d="M326.963 118.725H319.271V164.99H326.963V118.725Z" fill="black"/>
</g>
<mask id="mask4_29_1343" style="mask-type:luminance" maskUnits="userSpaceOnUse" x="-7" y="-21" width="526" height="219">
<path d="M-6.8457 -20.7695V197.637H518.013V-20.7695" fill="white"/>
</mask>
<g mask="url(#mask4_29_1343)">
<path d="M335.328 118.725H339.204V138.502H356.158V118.725H360.046V164.993H356.158V141.892H339.204V164.993H335.328V118.725Z" fill="black"/>
</g>
<mask id="mask5_29_1343" style="mask-type:luminance" maskUnits="userSpaceOnUse" x="-7" y="-21" width="526" height="219">
<path d="M-6.8457 -20.7695V197.637H518.013V-20.7695" fill="white"/>
</mask>
<g mask="url(#mask5_29_1343)">
<path d="M385.327 146.942C385.327 140.112 382.553 136.119 378.258 136.119C373.399 136.119 371.131 140.699 371.131 146.942H385.327ZM371.131 150.312C371.131 162.073 378.842 162.201 380.255 162.201C382.331 162.201 385.314 161.181 387.134 159.578L387.334 163.617C385.812 164.463 383.717 165.427 379.881 165.427C367.386 165.427 366.996 152.299 366.996 149.109C366.996 138.253 371.108 132.781 378.203 132.781C386.058 132.781 389.468 139.014 389.468 150.312H371.131Z" fill="black"/>
</g>
<mask id="mask6_29_1343" style="mask-type:luminance" maskUnits="userSpaceOnUse" x="-7" y="-21" width="526" height="219">
<path d="M-6.8457 -20.7695V197.637H518.013V-20.7695" fill="white"/>
</mask>
<g mask="url(#mask6_29_1343)">
<path d="M427.919 118.725H424.158V164.99H427.919V118.725Z" fill="black"/>
</g>
<mask id="mask7_29_1343" style="mask-type:luminance" maskUnits="userSpaceOnUse" x="-7" y="-21" width="526" height="219">
<path d="M-6.8457 -20.7695V197.637H518.013V-20.7695" fill="white"/>
</mask>
<g mask="url(#mask7_29_1343)">
<path d="M441.528 125.785V133.198H448.046V136.333H441.528V157.287C441.528 159.844 441.849 162.27 445.2 162.27C446.714 162.27 447.455 161.929 448.046 161.756V164.985C447.672 165.175 446.675 165.434 444.38 165.434C438.888 165.434 437.75 161.834 437.75 158.274V136.336H432.957V133.202H437.75V126.844L441.528 125.785Z" fill="black"/>
</g>
<mask id="mask8_29_1343" style="mask-type:luminance" maskUnits="userSpaceOnUse" x="-7" y="-21" width="526" height="219">
<path d="M-6.8457 -20.7695V197.637H518.013V-20.7695" fill="white"/>
</mask>
<g mask="url(#mask8_29_1343)">
<path d="M172.311 149.469H169.514C165.868 149.469 161.176 150.558 161.176 155.446C161.176 158.341 163.078 160.322 166.065 160.322C170.157 160.322 172.311 156.974 172.311 152.912V149.469ZM157.222 135.105C159.393 134.105 162.363 132.748 166.809 132.748C176.347 132.748 179.491 137.453 179.491 144.735V159.41C179.491 161.696 179.74 163.774 179.908 164.994H172.999C172.622 163.774 172.553 162.25 172.553 161.394H172.445C171.419 162.525 168.681 165.515 163.603 165.515C157.999 165.515 154.006 162.125 154.006 156.204C154.006 147.614 161.606 145.404 169.37 145.404H172.311V144.21C172.311 141.069 170.767 138.187 166.376 138.187C162.54 138.187 159.134 140.023 157.652 141.266L157.222 135.105Z" fill="black"/>
</g>
<mask id="mask9_29_1343" style="mask-type:luminance" maskUnits="userSpaceOnUse" x="-7" y="-21" width="526" height="219">
<path d="M-6.8457 -20.7695V197.637H518.013V-20.7695" fill="white"/>
</mask>
<g mask="url(#mask9_29_1343)">
<path d="M304.537 149.469H301.734C298.082 149.469 293.436 150.558 293.436 155.446C293.436 158.341 295.337 160.322 298.285 160.322C302.41 160.322 304.541 156.974 304.541 152.912L304.537 149.469ZM289.452 135.105C291.596 134.105 294.606 132.748 299.039 132.748C308.596 132.748 311.675 137.453 311.675 144.735V159.41C311.675 161.696 311.937 163.774 312.137 164.994H305.252C304.869 163.774 304.803 162.25 304.803 161.394H304.675C303.659 162.525 300.921 165.515 295.852 165.515C290.249 165.515 286.223 162.125 286.223 156.204C286.223 147.614 293.872 145.404 301.583 145.404H304.541V144.21C304.541 141.069 303.003 138.187 298.596 138.187C294.777 138.187 291.37 140.023 289.895 141.266L289.452 135.105Z" fill="black"/>
</g>
<mask id="mask10_29_1343" style="mask-type:luminance" maskUnits="userSpaceOnUse" x="-7" y="-21" width="526" height="219">
<path d="M-6.8457 -20.7695V197.637H518.013V-20.7695" fill="white"/>
</mask>
<g mask="url(#mask10_29_1343)">
<path d="M187.046 138.503C187.046 136.499 186.971 134.667 186.787 133.211H193.715C193.767 135.165 193.931 135.693 193.931 137.618H194.053C194.656 136.247 196.135 132.752 202.187 132.752C202.672 132.752 203.049 132.85 203.489 132.922V140.027C203.161 139.952 202.367 139.778 201.315 139.778C198.171 139.778 194.705 141.716 194.705 147.644V164.998H187.046V138.503Z" fill="black"/>
</g>
<mask id="mask11_29_1343" style="mask-type:luminance" maskUnits="userSpaceOnUse" x="-7" y="-21" width="526" height="219">
<path d="M-6.8457 -20.7695V197.637H518.013V-20.7695" fill="white"/>
</mask>
<g mask="url(#mask11_29_1343)">
<path d="M219.007 159.895C223.528 159.895 225.082 155.01 225.082 149.016C225.082 142.862 223.325 138.371 219.138 138.371C214.853 138.371 213.361 142.479 213.361 148.833C213.364 156.203 214.561 159.895 219.007 159.895ZM232.725 118.725V159.577C232.725 161.869 232.794 163.836 232.99 164.99H225.79C225.676 164.102 225.558 162.436 225.558 160.875H225.381C224.941 161.761 222.925 165.511 216.892 165.511C208.967 165.511 205.695 157.964 205.695 149.154C205.695 138.784 209.604 132.744 217.502 132.744C222.643 132.744 224.469 135.823 224.935 136.459H225.082V118.725H232.725Z" fill="black"/>
</g>
<mask id="mask12_29_1343" style="mask-type:luminance" maskUnits="userSpaceOnUse" x="-7" y="-21" width="526" height="219">
<path d="M-6.8457 -20.7695V197.637H518.013V-20.7695" fill="white"/>
</mask>
<g mask="url(#mask12_29_1343)">
<path d="M149.875 164.107C149.055 164.421 146.629 165.651 140.534 165.651C127.416 165.651 120.672 156.071 120.672 143.471C120.672 130.874 127.416 121.297 140.288 121.297C145.928 121.297 148.892 122.513 149.882 122.907L149.459 130.077C148.714 129.615 146.367 127.844 141.275 127.844C134.734 127.844 129.101 132.333 129.101 143.471C129.101 154.654 134.734 159.103 141.275 159.103C145.114 159.103 147.655 158.166 149.442 156.88L149.875 164.107Z" fill="black"/>
</g>
<mask id="mask13_29_1343" style="mask-type:luminance" maskUnits="userSpaceOnUse" x="-7" y="-21" width="526" height="219">
<path d="M-6.8457 -20.7695V197.637H518.013V-20.7695" fill="white"/>
</mask>
<g mask="url(#mask13_29_1343)">
<path d="M255.958 138.503C255.958 136.499 255.893 134.667 255.709 133.211H262.912C262.968 134.218 263.129 136.447 263.129 137.24H263.243C263.893 136.263 265.909 132.752 271.578 132.752C278.204 132.752 281.158 136.978 281.158 143.211V164.998H273.479V144.431C273.479 140.519 271.165 139.034 268.555 139.034C266.007 139.034 263.634 140.437 263.634 144.431V164.998H255.958V138.503Z" fill="black"/>
</g>
<mask id="mask14_29_1343" style="mask-type:luminance" maskUnits="userSpaceOnUse" x="-7" y="-21" width="526" height="219">
<path d="M-6.8457 -20.7695V197.637H518.013V-20.7695" fill="white"/>
</mask>
<g mask="url(#mask14_29_1343)">
<path d="M453.256 118.725H457.043V136.118H457.108C458.003 135 459.948 132.79 464.79 132.79C470.758 132.79 474.056 137.662 474.056 142.095V164.99H470.226V142.961C470.226 138.744 467.754 135.895 463.718 135.895C459.676 135.895 457.046 138.603 457.046 142.961V164.99H453.259V118.725" fill="black"/>
</g>
<mask id="mask15_29_1343" style="mask-type:luminance" maskUnits="userSpaceOnUse" x="-7" y="-21" width="526" height="219">
<path d="M-6.8457 -20.7695V197.637H518.013V-20.7695" fill="white"/>
</mask>
<g mask="url(#mask15_29_1343)">
<path d="M408.985 148.998C402.299 148.998 398.211 150.982 398.211 155.975C398.211 159.136 400.191 162.083 404.398 162.083C406.093 162.083 412.004 161.401 412.004 152.736V148.995L408.985 148.998ZM412.004 143.29C412.004 138.91 410.437 136.129 405.076 136.129C400.781 136.129 397.755 139.129 397.381 139.451L396.811 135.611C398.611 134.49 401.25 132.795 405.398 132.795C414.28 132.795 415.804 139.241 415.804 142.592V157.9C415.804 160.287 415.978 162.644 416.168 164.995H412.499L412.303 161.159H412.178C411.362 162.218 409.624 165.431 403.562 165.431C397.585 165.431 394.221 161.703 394.221 156.054C394.221 147.959 401.106 145.87 409.293 145.87H412.001L412.004 143.29Z" fill="black"/>
</g>
</g>
</g>
<defs>
<clipPath id="clip0_29_1343">
<rect width="500" height="182.515" fill="white"/>
</clipPath>
</defs>
</svg>
