<svg width="500" height="124" viewBox="0 0 500 124" fill="none" xmlns="http://www.w3.org/2000/svg">
<g clip-path="url(#clip0_29_1351)">
<path d="M212.551 89.1436H234.692V67.1289H212.551V89.1436Z" fill="#98958C"/>
<path d="M234.662 70.4275H234.692V20.8719L253.682 20.9359L253.652 3.69932L193.449 3.65039L193.452 20.8719H212.551V89.1453H212.557C213.399 84.7732 215.502 80.6943 218.691 77.2959C223.077 72.5591 228.111 70.4276 234.66 70.4276" fill="#084168"/>
<path d="M33.7206 73.0354C9.28158 71.9415 0 56.8891 0 36.1488C0 14.1078 13.0616 -0.83937 32.8673 0.0365539C52.5607 0.908701 64.0279 12.2243 66.2098 29.1564H45.7342C44.7312 23.1452 38.4474 18.0475 32.9009 18.0475C23.5333 18.0475 21.2952 27.8181 21.2952 36.8367C21.2952 45.8516 24.409 55.3477 33.5035 55.3477C39.3232 55.3477 45.3225 51.2012 45.8689 44.7877L66.3483 44.9267C66.3483 62.4602 50.506 73.7911 33.7206 73.0354Z" fill="#084168"/>
<path d="M68.758 70.95L69.3867 3.59766H123.036L122.894 18.8192H90.4761L90.5471 29.6536L117.988 29.5144V44.6006L90.4123 44.7359L90.5471 55.8448H123.006V71.5889L68.758 70.95Z" fill="#084168"/>
<path d="M168.365 71.178L147.714 35.5996L147.575 71.5277L127.373 71.178L127.781 3.649L147.714 3.51367L171.06 39.7161L170.648 3.51367L191.262 3.649V71.5277L168.365 71.178Z" fill="#084168"/>
<path d="M256.031 71.2799L256.66 3.92383H310.313L310.167 19.1454H277.749L277.824 29.9798L305.261 29.8405V44.9268L277.686 45.0621L277.824 56.171H310.284V71.9151L256.031 71.2799Z" fill="#084168"/>
<path d="M357.33 71.7985L333.497 36.1863L333.194 71.7985H313.654V4.01758H335.417L357.21 41.2726V4.01758H377.211L377.214 71.7985H357.33Z" fill="#084168"/>
<path d="M434.835 70.6985V56.9092H402.375L402.241 45.8004L429.816 45.6651V30.5788L402.375 30.7181L402.304 19.8837H434.722L434.864 4.66211H381.215L380.586 72.0145L431.983 72.616C432.634 71.5784 433.704 70.83 434.835 70.6985Z" fill="#084168"/>
<path d="M454.122 12.0981C454.122 16.0942 450.899 19.3348 446.917 19.3348C442.939 19.3348 439.713 16.0942 439.713 12.0981C439.713 8.10188 442.939 4.86133 446.917 4.86133C450.899 4.86133 454.122 8.10188 454.122 12.0981Z" stroke="#084168" stroke-width="0.876956"/>
<path d="M443.152 16.6906V7.12305H447.381C448.227 7.12305 448.875 7.20581 449.316 7.3786C449.758 7.55139 450.114 7.85605 450.375 8.28839C450.637 8.72822 450.772 9.20941 450.772 9.73574C450.772 10.4124 450.555 10.9876 450.114 11.45C449.679 11.9199 449.002 12.2131 448.089 12.3409C448.422 12.5029 448.673 12.6605 448.849 12.8146C449.215 13.1567 449.563 13.5778 449.893 14.089L451.539 16.6905H449.964L448.706 14.7018C448.336 14.1266 448.033 13.6868 447.797 13.3823C447.557 13.0778 447.344 12.8673 447.157 12.7432C446.97 12.623 446.775 12.5363 446.581 12.4913C446.438 12.4611 446.206 12.4423 445.881 12.4423H444.417V16.6904L443.152 16.6906ZM444.417 11.3485H447.127C447.703 11.3485 448.152 11.2884 448.482 11.1682C448.804 11.048 449.051 10.8599 449.219 10.593C449.387 10.3299 449.474 10.0441 449.474 9.73589C449.474 9.28475 449.309 8.91259 448.983 8.61936C448.654 8.32966 448.137 8.18327 447.43 8.18327H444.417V11.3485Z" fill="#084168"/>
<path d="M212.145 93.4584C212.145 99.4357 214.364 104.409 218.477 107.669C221.782 110.33 225.625 111.454 231.202 111.454C234.937 111.454 237.1 111.101 240.24 109.8L241.322 104.293H240.24C238.994 107.075 236.018 108.556 231.58 108.556C222.863 108.556 216.692 102.221 216.692 93.2779C216.692 91.8607 216.826 90.4058 217.07 89.0675L212.597 88.9473C212.328 90.3608 212.145 91.996 212.145 93.4584Z" fill="#98958C"/>
<path d="M217.068 89.1453H234.692V73.3899C234.344 73.3627 234.003 73.3262 233.637 73.3262C225.53 73.3262 218.7 80.153 217.068 89.1453Z" fill="#084168"/>
<path d="M271.183 95.3264C271.183 104.146 264.581 111.608 256.786 111.608C250.124 111.608 245.633 106.695 245.633 99.2925C245.633 90.1159 252.13 83.1875 260.794 83.1875C266.745 83.1875 271.183 88.3378 271.183 95.3264ZM249.585 99.9429C249.585 105.274 252.56 108.766 257.111 108.766C262.849 108.766 267.235 102.729 267.235 94.8527C267.235 89.4656 264.525 86.0296 260.251 86.0296C254.185 86.0296 249.585 92.0106 249.585 99.9429Z" fill="#98958C"/>
<path d="M294.194 88.9318H293.217C292.839 87.1536 291.975 86.3829 290.35 86.3829C289.265 86.3829 288.131 86.8002 286.993 87.6874C286.237 88.2212 285.586 88.9318 285.096 89.7024C284.287 90.943 284.014 91.7137 283.419 94.8527L280.227 111.195H276.166L280.5 88.9318L280.766 87.804C280.822 87.5107 280.878 87.0934 280.878 86.8002C280.878 85.5559 280.388 85.1423 278.928 85.1423H278.546L278.82 83.9582L285.695 83.1875L284.557 88.9318C286.29 85.319 289.213 83.1875 292.409 83.1875C293.438 83.1875 294.411 83.4243 295.545 83.9582L294.194 88.9318Z" fill="#98958C"/>
<path d="M298.902 119.484C298.742 120.371 298.633 120.845 298.633 121.082C298.633 122.089 298.85 122.266 300.418 122.739L300.205 123.687H291.975L292.135 122.739C292.678 122.679 292.895 122.619 293.273 122.443C294.138 122.029 294.411 121.615 294.68 120.194L300.743 88.9318L300.96 87.804C301.069 87.4506 301.069 87.0934 301.069 86.8002C301.069 85.5559 300.635 85.1424 299.175 85.1424H298.794L299.011 83.9581L305.942 83.1875L305.074 87.5108C305.942 86.4431 306.32 86.0897 307.024 85.4957C308.861 84.0747 311.571 83.1875 313.899 83.1875C319.366 83.1875 323.319 87.5671 323.319 93.6685C323.319 104.029 315.033 111.608 303.558 111.608C302.312 111.608 301.829 111.548 300.474 111.371L298.902 119.484ZM301.447 108.706C302.259 108.706 302.963 108.766 303.558 108.766C313.087 108.766 318.989 103.142 318.989 94.1422C318.989 89.1085 316.388 86.0296 312.274 86.0296C309.404 86.0296 306.807 87.6273 304.479 90.7062L300.961 108.706L301.447 108.706Z" fill="#98958C"/>
<path d="M353.472 95.3264C353.472 104.146 346.867 111.608 339.071 111.608C332.413 111.608 327.918 106.695 327.918 99.2925C327.918 90.1159 334.415 83.1875 343.075 83.1875C349.034 83.1875 353.472 88.3378 353.472 95.3264ZM331.87 99.9429C331.87 105.274 334.849 108.766 339.396 108.766C345.134 108.766 349.516 102.729 349.516 94.8527C349.516 89.4656 346.81 86.0296 342.533 86.0296C336.47 86.0296 331.87 92.0106 331.87 99.9429Z" fill="#98958C"/>
<path d="M383.124 85.3792C386.155 83.8379 389.134 83.1875 392.652 83.1875C398.229 83.1875 401.313 85.2025 401.313 88.8716C401.313 89.5821 401.204 90.2927 401.043 91.1235L398.498 104.443C398.285 105.627 398.173 106.044 398.173 106.695C398.173 107.939 398.876 108.826 399.905 108.826C400.718 108.826 401.313 108.529 402.776 107.345L403.697 108.352C401.638 110.484 399.745 111.608 398.012 111.608C395.467 111.608 394.003 109.89 393.899 106.932C391.245 110.01 387.836 111.608 383.992 111.608C379.823 111.608 376.844 108.826 376.844 104.977C376.844 97.8113 384.531 92.7776 396.818 91.9505C397.091 90.646 397.091 90.3528 397.091 89.8791C397.091 87.4506 394.816 85.913 391.137 85.913C389.726 85.913 388.319 86.1459 387.076 86.6799C385.291 87.3904 384.531 88.0446 383.124 89.819H382.151L383.124 85.3792ZM390.976 95.3264C384.696 96.9241 381.122 100.12 381.122 104.146C381.122 106.458 383.015 108.232 385.452 108.232C388.809 108.232 392.218 106.458 394.602 103.495L396.331 94.4354C393.304 94.8527 392.491 94.9693 390.976 95.3264Z" fill="#98958C"/>
<path d="M376.473 88.9318H375.504C375.122 87.1536 374.258 86.3829 372.634 86.3829C371.548 86.3829 370.414 86.8002 369.276 87.6874C368.52 88.2212 367.869 88.9318 367.383 89.7024C366.571 90.943 366.297 91.7137 365.706 94.8527L362.51 111.195H358.449L362.779 88.9318L363.053 87.804C363.105 87.5107 363.158 87.0934 363.158 86.8002C363.158 85.5559 362.671 85.1423 361.211 85.1423H360.83L361.103 83.9582L367.978 83.1875L366.84 88.9318C368.573 85.319 371.496 83.1875 374.689 83.1875C375.718 83.1875 376.695 83.4243 377.829 83.9582L376.473 88.9318Z" fill="#98958C"/>
<path d="M418.042 83.5991H423.509L423.128 85.5539H417.664L414.25 103.02C413.981 104.324 413.872 105.625 413.872 106.336C413.872 107.877 414.902 108.881 416.522 108.881C418.584 108.881 419.935 108.054 420.908 106.099H421.777L420.908 110.599C418.798 111.369 417.607 111.606 415.553 111.606C411.601 111.606 409.703 110.008 409.703 106.809C409.703 105.862 409.812 104.975 410.137 103.317L413.603 85.5539H410.407L410.788 83.5991C412.248 83.5991 412.465 83.4827 413.225 83.1855C414.142 82.772 414.793 81.5277 415.227 79.336L415.983 75.5465L419.827 74.5391L418.042 83.5991Z" fill="#98958C"/>
<path d="M466.873 95.3264C466.873 104.146 460.267 111.608 452.471 111.608C445.813 111.608 441.318 106.695 441.318 99.2925C441.318 90.1159 447.815 83.1875 456.476 83.1875C462.43 83.1875 466.873 88.3378 466.873 95.3264ZM445.27 99.9429C445.27 105.274 448.25 108.766 452.797 108.766C458.534 108.766 462.92 102.729 462.92 94.8527C462.92 89.4656 460.215 86.0296 455.933 86.0296C449.87 86.0296 445.27 92.0106 445.27 99.9429Z" fill="#98958C"/>
<path d="M431.954 103.019L431.519 105.151C431.411 105.564 431.411 105.982 431.411 106.335C431.411 107.876 432.062 108.824 433.144 108.824C433.795 108.824 434.551 108.467 435.958 107.403L436.666 108.29C434.929 110.305 432.657 111.606 430.816 111.606C428.653 111.606 427.189 109.948 427.189 107.403C427.189 106.632 427.246 106.098 427.732 103.73L430.603 88.9293L430.816 87.8015C430.928 87.4482 430.928 87.091 430.928 86.7978C430.928 85.5534 430.491 85.1399 429.031 85.1399H428.653L428.87 83.9557L435.798 83.1851L431.954 103.019ZM438.017 75.1927C438.017 77.3242 436.175 79.2754 434.225 79.2754C432.766 79.2754 431.737 78.1513 431.737 76.6137C431.737 74.4822 433.634 72.5273 435.58 72.5273C437.043 72.5273 438.017 73.6514 438.017 75.1927Z" fill="#98958C"/>
<path d="M480.513 87.272C483.544 84.4863 486.628 83.1855 490.146 83.1855C494.585 83.1855 497.564 85.7908 497.564 89.5802C497.564 90.3509 497.347 91.7719 496.917 93.9034L495.075 103.437C494.697 105.272 494.533 106.456 494.533 106.986C494.533 107.993 495.345 108.764 496.318 108.764C497.134 108.764 497.89 108.407 499.188 107.343L500.001 108.407C499.188 109.358 498.863 109.651 498.215 110.125C496.969 111.016 495.289 111.606 493.938 111.606C491.827 111.606 490.367 110.008 490.367 107.696C490.367 107.106 490.528 105.922 490.745 104.854L492.961 93.3696C493.234 92.0087 493.343 91.0012 493.343 90.3509C493.343 87.802 491.288 85.9111 488.414 85.9111C486.685 85.9111 484.735 86.678 482.893 88.099C481.756 88.99 481.104 89.6403 479.697 91.3546L475.857 111.193H471.744L476.127 88.9298L476.34 87.802C476.396 87.5087 476.452 87.0915 476.452 86.7983C476.452 85.5539 475.962 85.1404 474.555 85.1404H474.177L474.394 83.9562L481.322 83.1855L480.513 87.272Z" fill="#98958C"/>
<path d="M241.022 81.1301L245.839 76.337C243.245 72.1979 239.791 70.4235 234.555 70.416V73.3784C238.41 73.6942 241.022 75.7016 241.022 78.5287C241.022 79.2354 240.861 79.6527 240.262 80.3031L241.022 81.1301Z" fill="#98958C"/>
</g>
<defs>
<clipPath id="clip0_29_1351">
<rect width="500" height="123.687" fill="white"/>
</clipPath>
</defs>
</svg>
