<svg width="500" height="500" viewBox="0 0 500 500" fill="none" xmlns="http://www.w3.org/2000/svg">
<path fill-rule="evenodd" clip-rule="evenodd" d="M321.916 174.194C350.804 190.908 358.235 156.86 382.172 174.607C410.855 191.116 418.491 157.272 442.429 174.814C433.965 173.989 427.365 175.847 419.729 180.385C416.838 182.035 413.743 183.688 410.651 184.718C411.891 185.335 413.123 186.16 414.568 187.193C443.251 203.907 450.679 169.858 474.617 187.608C466.159 186.78 459.553 188.433 451.917 193.179C441.188 199.577 426.329 203.907 414.565 187.193C405.902 186.368 399.501 188.226 391.865 192.763C381.137 199.162 366.073 203.699 354.309 186.985C372.056 197.301 381.757 188.015 392.283 183.89C388.773 182.032 385.47 179.144 382.17 174.601C373.706 173.776 367.105 175.634 359.47 180.174C348.744 186.575 333.885 191.116 321.916 174.194Z" fill="#236BB3"/>
<path fill-rule="evenodd" clip-rule="evenodd" d="M128.562 256.323C127.119 257.353 125.262 258.181 122.991 258.798C120.721 259.419 118.038 259.623 115.151 259.623C108.547 259.623 103.389 257.769 99.6739 254.053C95.9584 250.337 94.1035 245.18 94.1035 238.369C94.1035 231.766 96.169 226.608 100.294 222.684C104.215 218.972 109.788 216.906 116.596 216.906C118.866 216.906 121.134 217.114 123.407 217.731C125.469 218.144 127.535 218.972 129.39 219.797L128.772 222.892C128.565 223.717 128.565 224.75 128.565 225.575C127.122 223.509 125.264 221.859 123.407 220.829C121.232 219.73 118.827 219.164 116.391 219.179C111.233 219.179 107.313 220.829 104.63 224.132C101.739 227.64 100.297 232.386 100.297 238.372C100.297 244.357 101.742 248.895 104.425 252.403C107.316 255.706 111.028 257.356 115.981 257.356C118.044 257.356 120.314 256.943 122.584 256.118C124.855 255.293 126.917 254.056 128.983 252.403L128.562 256.323ZM133.927 259.006C134.135 256.118 134.135 252.815 134.34 249.308V236.721V224.958C134.135 222.278 133.927 219.8 133.927 217.734C134.34 217.734 134.752 217.942 135.37 217.942H138.26C138.673 217.942 139.085 217.734 139.705 217.734C139.416 219.23 139.278 220.751 139.293 222.275V235.478H164.056V233.003V224.955C163.848 222.48 163.643 220.002 163.643 217.731C164.056 217.731 164.468 217.939 164.881 217.939H167.976C168.388 217.939 169.009 217.731 169.421 217.731C169.216 220.209 169.216 222.889 169.009 225.78V248.064C169.216 251.78 169.216 255.288 169.421 259C169.009 258.796 168.388 258.796 167.976 258.796C167.359 258.796 166.943 258.591 166.323 258.591C165.91 258.591 165.293 258.796 164.881 258.796C164.468 258.796 164.056 258.796 163.643 259C163.643 256.525 163.848 253.638 164.056 250.539V238.158C161.993 237.953 159.927 237.953 157.865 237.953H139.293V253.842C139.293 256.113 139.501 257.763 139.705 259C139.085 258.796 138.673 258.796 138.055 258.796C137.643 258.796 137.23 258.591 136.61 258.591C135.99 258.591 135.577 258.796 135.165 258.796C134.752 258.796 134.34 258.801 133.927 259.006ZM184.073 240.229H196.662L195.629 237.546C195.629 237.131 195.216 236.101 194.391 234.451C193.774 232.801 192.534 229.706 190.471 225.165L184.073 240.229ZM172.929 259.006C176.645 250.753 180.152 243.12 183.043 236.309C186.138 229.498 188.818 223.103 191.504 216.912H192.741C195.424 223.928 198.312 230.943 201.202 237.959C204.093 244.975 207.188 251.99 210.076 259.006C209.663 258.801 209.043 258.801 208.63 258.801C208.218 258.596 207.598 258.596 207.188 258.596H205.743C205.123 258.801 204.71 258.801 204.09 259.009C203.473 256.741 202.645 254.471 201.82 252.198C200.995 249.931 199.962 247.658 198.929 245.182L197.899 242.912C197.074 242.707 196.042 242.707 195.216 242.707H185.93C184.898 242.707 183.865 242.707 183.043 242.912C182.01 244.978 181.185 247.453 180.152 249.928C179.12 252.611 178.087 255.498 176.849 259.006C176.437 258.801 176.232 258.801 175.817 258.594H173.959C173.546 258.801 173.342 258.801 172.929 259.006ZM219.151 236.926H221.009C225.549 236.926 229.057 236.309 231.12 234.861C233.39 233.211 234.628 231.148 234.628 228.05C234.628 225.37 233.595 223.305 231.945 222.067C230.292 220.622 227.612 220.002 224.104 220.002H220.389C219.976 220.209 219.769 220.209 219.359 220.209C219.359 221.034 219.359 222.067 219.151 223.1V236.926ZM213.786 259.006C213.993 256.739 213.993 254.468 213.993 251.578C214.198 248.895 214.198 244.562 214.198 238.372C214.198 233.214 214.198 229.086 213.993 225.785C213.993 222.69 213.993 220.007 213.786 217.737H214.406C215.436 217.737 216.261 217.945 216.673 217.945C217.293 217.945 218.739 217.737 220.801 217.737C223.072 217.737 224.722 217.529 226.167 217.529C230.707 217.529 234.215 218.357 236.483 220.007C238.548 221.66 239.786 224.135 239.786 227.435C239.786 230.323 238.753 232.593 236.69 234.659C234.625 236.517 231.532 237.754 227.612 238.579C230.5 242.295 235.661 248.69 242.881 257.771C243.294 258.187 243.706 258.596 243.914 259.009C243.294 258.804 242.469 258.804 242.056 258.596H240.198C239.786 258.596 239.165 258.596 238.548 258.801C237.928 258.801 237.308 258.801 236.69 259.006C235.389 256.961 234.012 254.966 232.562 253.023C231.325 251.37 230.292 249.72 229.259 248.483L222.656 240.022C222.244 239.609 222.039 239.197 221.626 238.992C221.214 238.784 220.801 238.576 220.181 238.576C219.973 238.576 219.766 238.784 219.356 238.784H219.148V254.053C219.356 255.703 219.356 257.148 219.356 259.003C218.941 258.798 218.323 258.798 217.911 258.591H215.228C214.818 258.801 214.406 258.801 213.786 259.006ZM246.184 259.006C246.392 255.293 246.392 251.99 246.597 248.483V238.372V227.643C246.392 224.34 246.392 221.04 246.184 217.737C246.801 217.737 247.217 217.945 247.626 217.945H250.514C251.134 217.945 251.544 217.737 251.956 217.737C251.752 221.657 251.544 225.373 251.544 229.088C251.339 232.596 251.339 236.104 251.339 239.199C251.339 242.295 251.339 245.39 251.544 248.073C251.544 250.963 251.544 253.438 251.752 256.121H255.877C258.355 256.121 260.827 256.121 262.895 255.914C264.617 255.732 266.335 255.526 268.05 255.296V259.009C264.545 258.804 261.655 258.804 259.177 258.804H250.099C248.662 258.801 247.422 258.801 246.184 259.006ZM273.009 259.006C273.22 256.326 273.425 253.436 273.425 250.135C273.629 246.628 273.629 242.5 273.629 237.959C273.629 233.418 273.629 229.706 273.425 226.403C273.425 223.103 273.22 220.212 273.009 217.737H275.9C276.728 217.945 278.378 217.945 280.44 217.945C283.331 217.945 285.601 217.945 287.868 217.737H294.27V221.245C291.997 221.04 289.723 220.832 287.251 220.832C284.978 220.627 282.506 220.627 280.028 220.627H278.583V235.692H285.601C287.868 235.484 290.142 235.484 292.614 235.279V238.79C291.792 238.582 290.551 238.582 289.109 238.377H278.585V255.919H280.031C281.886 255.919 283.954 255.919 286.426 255.714C288.904 255.714 291.587 255.507 294.477 255.302V259.015C293.445 258.81 292.204 258.81 290.759 258.81H277.345C275.897 258.801 274.454 258.801 273.009 259.006ZM297.979 256.531C298.392 255.498 298.597 254.468 298.802 253.231C299.012 252.198 299.217 251.165 299.217 250.135C300.244 252.403 301.484 254.056 303.135 255.498C304.963 256.728 307.121 257.376 309.325 257.356C311.803 257.356 313.866 256.531 315.522 254.881C317.172 253.231 317.789 251.165 317.789 248.483C317.789 246.628 317.376 244.978 316.549 243.945C315.522 242.707 314.076 241.675 311.803 240.849L306.853 238.787C304.17 237.549 302.108 236.312 300.867 234.659C299.422 233.009 298.799 230.943 298.799 228.673C298.799 225.165 300.039 222.482 302.31 220.212C304.782 218.147 307.883 217.117 311.596 217.117C313.246 217.117 314.691 217.117 316.341 217.529C317.786 217.945 319.231 218.562 320.674 219.182C320.469 219.802 320.056 220.627 319.846 221.453C319.641 222.073 319.229 222.898 319.024 223.93C317.991 222.28 316.751 221.248 315.305 220.423C314.071 219.598 312.415 219.185 310.765 219.185C308.497 219.185 306.847 220.01 305.402 221.248C304.162 222.693 303.547 224.343 303.547 226.818C303.547 228.471 303.96 229.913 304.782 230.946C305.815 231.979 307.465 233.216 309.533 234.041L314.483 236.107C317.374 237.344 319.433 238.79 320.674 240.44C321.914 242.093 322.529 244.155 322.529 246.63C322.529 250.551 321.083 253.646 318.406 256.121C315.928 258.599 312.418 259.629 308.088 259.629C306.019 259.629 304.164 259.424 302.514 258.804C300.857 258.382 299.31 257.606 297.979 256.531ZM348.122 236.926H349.977C354.518 236.926 357.823 236.309 360.091 234.861C362.364 233.211 363.391 231.148 363.391 228.05C363.391 225.37 362.569 223.305 360.919 222.067C359.058 220.622 356.586 220.002 353.078 220.002H349.36C348.947 220.209 348.742 220.209 348.327 220.209C348.327 221.034 348.122 222.067 348.122 223.1V236.926ZM342.759 259.006C342.964 256.739 342.964 254.468 342.964 251.578C343.169 248.895 343.169 244.562 343.169 238.372C343.169 233.214 343.169 229.086 342.964 225.785C342.964 222.69 342.964 220.007 342.759 217.737H343.377C344.409 217.737 345.232 217.945 345.439 217.945C346.267 217.945 347.712 217.737 349.772 217.737C352.045 217.737 353.695 217.529 355.141 217.529C359.681 217.529 363.186 218.357 365.459 220.007C367.522 221.66 368.759 224.135 368.759 227.435C368.759 230.323 367.727 232.593 365.664 234.659C363.391 236.517 360.503 237.754 356.586 238.579C359.476 242.295 364.631 248.69 371.855 257.771C372.267 258.187 372.677 258.596 372.887 259.009C372.06 258.804 371.442 258.804 371.027 258.596H369.172C368.555 258.596 368.139 258.596 367.522 258.801C366.905 258.801 366.281 258.801 365.667 259.006C364.366 256.961 362.989 254.966 361.539 253.023C360.298 251.37 359.271 249.72 358.239 248.483L351.633 240.022L350.606 238.992C350.193 238.784 349.778 238.576 349.16 238.576C348.956 238.576 348.748 238.784 348.128 238.784V254.053C348.128 255.703 348.333 257.148 348.333 259.003C347.92 258.798 347.306 258.798 346.887 258.591H344.207C343.789 258.801 343.172 258.801 342.759 259.006ZM375.983 259.006C375.983 256.943 376.188 254.673 376.188 252.403C376.188 249.928 376.392 247.037 376.392 243.325V238.372C376.392 231.973 376.188 227.435 376.188 224.753C376.188 222.07 375.983 219.8 375.983 217.737C376.395 217.737 376.805 217.945 377.223 217.945H380.108C380.523 217.945 381.141 217.737 381.553 217.737C381.348 219.182 381.348 220.627 381.348 222.482C381.144 224.337 381.144 226.61 381.144 229.498V248.278C381.144 251.581 381.144 253.848 381.348 255.089C381.348 256.534 381.348 257.771 381.553 259.009C381.141 258.804 380.731 258.804 380.319 258.804C379.695 258.804 379.286 258.599 378.873 258.599C378.25 258.599 377.841 258.804 377.223 258.804C376.805 258.801 376.395 258.801 375.983 259.006ZM402.188 258.801C399.366 251.415 396.476 244.055 393.519 236.721C390.842 229.911 388.364 223.512 385.883 217.737C386.299 217.737 386.711 217.945 387.124 217.945H390.424C390.839 217.945 391.252 217.737 391.664 217.737C393.727 223.307 395.792 229.088 398.06 235.071C400.333 240.849 402.811 246.832 405.283 253.026C407.761 247.04 410.233 241.057 412.506 235.071C414.569 229.293 416.839 223.515 418.697 217.737C419.11 217.737 419.32 217.945 419.73 217.945H421.79C422.199 217.945 422.413 217.737 422.822 217.737C419.932 224.34 417.249 231.151 414.359 237.959C411.676 244.77 408.996 251.786 406.108 258.801C405.903 258.801 405.485 258.801 405.075 258.596H403.22C403.016 258.801 402.6 258.801 402.188 258.801ZM425.297 259.006C425.508 256.326 425.713 253.436 425.713 250.135C425.918 246.628 425.918 242.5 425.918 237.959C425.918 233.418 425.918 229.706 425.713 226.403C425.713 223.103 425.508 220.212 425.297 217.737H428.188C429.016 217.945 430.666 217.945 432.728 217.945C435.619 217.945 438.097 217.945 440.157 217.737H446.558V221.245C444.285 221.04 442.012 220.832 439.539 220.832C437.266 220.627 434.794 220.627 432.316 220.627H430.871V235.692H437.889C440.157 235.484 442.43 235.484 445.113 235.279C444.902 235.692 444.902 236.104 444.902 236.312V237.965C444.902 238.17 444.902 238.377 445.113 238.79C444.08 238.582 442.839 238.582 441.394 238.377H430.871V255.919H432.316C434.171 255.919 436.239 255.919 438.711 255.714C441.189 255.714 443.872 255.507 446.968 255.302C446.968 255.507 446.968 255.714 446.763 256.127V257.985C446.968 258.4 446.968 258.81 446.968 259.015C445.727 258.81 444.49 258.81 443.044 258.81H429.63C428.188 258.801 426.743 258.801 425.297 259.006ZM457.286 236.926H459.349C463.889 236.926 467.19 236.309 469.463 234.861C471.73 233.211 472.763 231.148 472.763 228.05C472.763 225.37 471.935 223.305 470.08 222.067C468.43 220.622 465.747 220.002 462.444 220.002H458.731C458.316 220.209 457.904 220.209 457.699 220.209C457.494 221.034 457.494 222.067 457.494 223.1C457.289 223.925 457.289 225.162 457.289 226.4L457.286 236.926ZM452.125 259.006C452.125 256.739 452.33 254.468 452.33 251.578V238.372V225.785C452.33 222.69 452.125 220.007 451.918 217.737H452.535C453.776 217.737 454.396 217.945 454.808 217.945C455.636 217.945 457.081 217.737 459.141 217.737C461.201 217.737 463.059 217.529 464.504 217.529C469.05 217.529 472.35 218.357 474.618 220.007C476.891 221.66 477.918 224.135 477.918 227.435C477.918 230.323 476.891 232.593 474.823 234.659C472.76 236.517 469.872 237.754 465.949 238.579C468.84 242.295 473.796 248.69 481.224 257.771C481.636 258.187 481.841 258.596 482.046 259.009C481.429 258.804 480.806 258.804 480.191 258.596H478.541C477.918 258.596 477.301 258.596 476.891 258.801C476.268 258.801 475.651 258.801 475.03 259.006C473.38 256.739 472.146 254.673 470.908 253.023C469.668 251.37 468.43 249.72 467.397 248.483L460.797 240.022C460.565 239.582 460.205 239.222 459.764 238.992C459.352 238.784 458.942 238.576 458.529 238.576C458.319 238.576 457.906 238.784 457.497 238.784H457.292V249.72C457.292 251.165 457.292 252.611 457.497 254.053C457.497 255.703 457.497 257.148 457.702 259.003C457.084 258.798 456.669 258.798 456.256 258.591H453.571C452.953 258.801 452.535 258.801 452.125 259.006ZM250.517 295.325C250.517 293.259 250.725 291.197 250.725 289.131V283.146V276.955C250.725 274.89 250.517 273.035 250.517 270.969C250.725 270.969 251.137 271.177 251.342 271.177H252.995C253.407 271.177 253.612 270.969 253.823 270.969C253.823 273.239 253.612 275.51 253.612 277.78V288.924C253.612 290.574 253.612 292.019 253.823 293.669H256.09C257.74 293.669 259.186 293.669 260.218 293.464C261.459 293.464 262.486 293.259 263.314 293.052V295.325H258.153C256.918 295.12 255.885 295.12 255.268 295.12C254.235 295.12 253.612 295.12 252.79 295.325H250.517ZM271.151 284.181H272.184C272.802 284.181 273.425 284.386 273.834 284.386C274.244 284.386 274.867 284.181 276.102 284.181H278.58L277.962 282.736C277.962 282.531 277.752 281.911 277.339 280.878C276.927 279.848 276.099 278.198 275.072 275.513L271.151 284.181ZM264.551 295.325C266.819 290.372 268.884 286.036 270.537 281.911C272.283 278.171 273.933 274.386 275.487 270.562H276.315L281.265 282.944C283.12 287.069 284.77 291.197 286.628 295.328C286.216 295.328 286.011 295.123 285.601 295.123H283.951C283.746 295.123 283.328 295.328 282.918 295.328C282.506 294.087 282.09 292.645 281.678 291.405C281.06 289.962 280.645 288.725 280.028 287.279L279.41 285.834H270.537C270.122 287.072 269.504 288.514 268.887 289.962C268.264 291.612 267.646 293.262 267.026 295.328C266.821 295.328 266.614 295.123 266.409 295.123H265.168C264.961 295.123 264.756 295.325 264.551 295.325ZM292.406 281.703H294.267C296.534 281.703 298.184 281.291 299.217 280.466C300.244 279.641 300.867 278.4 300.867 276.545C300.867 275.1 300.455 274.07 299.422 273.242C298.389 272.625 296.944 272.212 295.089 272.212H293.849C293.436 272.212 293.026 272.212 292.403 272.417L292.406 281.703ZM289.106 295.325C289.311 294.085 289.311 292.847 289.311 291.402C289.516 289.959 289.516 288.102 289.516 285.626C289.516 282.323 289.516 279.436 289.311 276.958V270.972H289.934C290.346 271.18 290.756 271.18 290.961 271.18C291.166 271.18 291.789 270.972 292.816 270.972H295.294C298.389 270.972 300.455 271.387 301.894 272.212C303.339 273.242 304.167 274.483 304.167 276.338C304.167 277.988 303.55 279.228 302.517 280.261C301.689 281.086 300.039 281.911 298.184 282.323C300.457 282.531 302.108 283.148 303.135 283.973C304.167 285.006 304.785 286.451 304.785 288.102C304.785 290.577 303.962 292.227 302.312 293.467C300.662 294.708 298.389 295.325 295.294 295.325H289.106ZM292.201 283.148V290.989C292.201 292.019 292.406 293.055 292.406 293.88C292.819 293.88 293.234 293.88 293.647 294.085H294.887C296.95 294.085 298.6 293.669 299.837 292.639C300.87 291.609 301.487 290.164 301.487 288.511C301.487 286.656 301.075 285.211 299.837 284.386C298.805 283.561 296.947 282.941 294.682 282.941C294.27 282.941 293.649 283.146 292.614 283.146L292.201 283.148ZM320.472 294.497C323.567 294.497 326.045 293.467 327.695 291.609C329.345 289.544 330.167 286.861 330.167 283.146C330.167 279.433 329.345 276.75 327.695 274.892C326.045 272.83 323.772 272.005 320.472 272.005C317.581 272.005 315.103 273.035 313.453 274.892C311.803 276.958 310.981 279.641 310.981 283.356C310.981 286.861 311.803 289.752 313.453 291.609C315.106 293.467 317.584 294.497 320.472 294.497ZM320.472 295.737C316.549 295.737 313.248 294.708 310.981 292.437C308.708 290.167 307.47 287.069 307.47 283.148C307.47 279.436 308.711 276.338 310.981 274.073C313.453 271.8 316.549 270.565 320.472 270.565C324.6 270.565 327.695 271.803 330.167 274.073C332.441 276.34 333.678 279.439 333.678 283.148C333.678 287.069 332.438 289.962 329.96 292.437C327.698 294.708 324.389 295.737 320.472 295.737ZM340.281 282.323H341.522C344.204 282.323 346.267 281.911 347.508 281.086C348.748 280.261 349.362 278.816 349.362 277.165C349.362 275.513 348.95 274.275 347.917 273.447C346.884 272.625 345.439 272.21 343.377 272.21C342.964 272.21 342.344 272.414 341.109 272.414H340.486V274.067C340.281 274.685 340.281 275.305 340.281 276.13V282.323ZM337.186 295.325C337.391 294.085 337.391 292.642 337.391 290.992V283.148V275.723C337.391 273.865 337.391 272.42 337.186 270.975H337.598C338.222 271.183 338.631 271.183 338.839 271.183C339.251 271.183 340.079 270.975 341.522 270.975H344.617C347.3 270.975 349.158 271.39 350.603 272.42C351.843 273.245 352.458 274.69 352.458 276.753C352.458 278.403 351.84 279.848 350.603 280.878C349.362 282.119 347.712 282.944 345.442 283.356C347.092 285.626 350.193 289.342 354.316 294.705C354.731 294.91 354.939 295.12 354.939 295.325C354.523 295.325 354.111 295.12 353.906 295.12H351.846C351.431 295.12 351.223 295.325 350.813 295.325C349.781 293.88 348.958 292.847 348.335 291.817C347.718 290.787 346.89 289.962 346.273 289.134L342.35 284.184C342.35 283.769 342.145 283.769 341.732 283.564C341.527 283.359 341.32 283.359 341.115 283.359H340.287V289.962C340.287 290.787 340.287 291.612 340.492 292.437V295.328C340.287 295.328 339.874 295.123 339.67 295.123H338.014C337.803 295.12 337.598 295.325 337.186 295.325ZM362.153 284.181H363.394C364.017 284.181 364.427 284.386 365.044 284.386C365.254 284.386 366.077 284.181 367.112 284.181H369.795L369.172 282.736C368.967 282.531 368.759 281.911 368.35 280.878C367.934 279.848 367.109 278.198 366.077 275.513L362.153 284.181ZM355.553 295.325C357.826 290.372 359.886 286.036 361.744 281.911C363.394 277.988 365.044 274.07 366.7 270.562H367.317L372.267 282.944C374.128 287.069 375.778 291.197 377.636 295.328C377.223 295.328 377.013 295.123 376.603 295.123H374.953C374.748 295.123 374.336 295.328 374.131 295.328C373.715 294.087 373.098 292.645 372.68 291.405C372.062 289.962 371.653 288.725 371.03 287.279L370.412 285.834H361.747C361.129 287.072 360.506 288.514 359.892 289.962C359.274 291.612 358.651 293.262 358.037 295.328C357.832 295.328 357.621 295.123 357.414 295.123H356.179C355.963 295.12 355.758 295.325 355.553 295.325ZM381.55 295.325C381.761 292.434 381.761 289.547 381.761 286.656V272.625H380.933C379.488 272.625 378.25 272.625 377.22 272.83C375.98 272.83 375.152 273.035 374.33 273.035V272.622V272.207V271.587V270.966C375.775 270.966 377.007 271.174 378.452 271.174H387.53C388.976 271.174 390.626 270.966 392.282 270.966V273.035C391.454 273.035 390.626 272.83 389.599 272.83C388.566 272.625 387.326 272.625 386.088 272.625H385.061C384.856 273.655 384.856 274.892 384.856 276.13V287.689C384.856 290.164 384.856 292.639 385.061 295.325H384.233C384.028 295.12 383.616 295.12 383.411 295.12C383.2 295.12 382.788 295.12 382.583 295.325H381.55ZM406.316 294.497C409.206 294.497 411.679 293.467 413.329 291.609C414.984 289.544 415.807 286.861 415.807 283.146C415.807 279.433 414.984 276.75 413.329 274.892C411.679 272.83 409.411 272.005 406.316 272.005C403.221 272.005 400.743 273.035 399.092 274.892C397.442 276.958 396.614 279.641 396.614 283.356C396.614 286.861 397.442 289.752 399.092 291.609C400.743 293.467 403.221 294.497 406.316 294.497ZM406.316 295.737C402.188 295.737 398.888 294.708 396.614 292.437C394.347 290.167 393.109 287.069 393.109 283.148C393.109 279.436 394.35 276.338 396.614 274.073C399.092 271.8 402.188 270.565 406.316 270.565C410.233 270.565 413.539 271.803 415.807 274.073C418.08 276.34 419.317 279.439 419.317 283.148C419.317 287.069 418.077 289.962 415.807 292.437C413.329 294.708 410.233 295.737 406.316 295.737ZM425.716 282.323H426.746C429.428 282.323 431.491 281.911 432.731 281.086C434.177 280.261 434.8 278.816 434.8 277.165C434.8 275.513 434.177 274.275 433.354 273.447C432.322 272.625 430.672 272.21 428.609 272.21C428.398 272.21 427.576 272.414 426.541 272.414H425.923C425.923 273.035 425.718 273.444 425.718 274.067L425.716 282.323ZM422.62 295.325V290.992C422.825 289.342 422.825 286.864 422.825 283.148C422.825 280.053 422.825 277.578 422.62 275.723V270.975H422.825C423.443 271.183 424.066 271.183 424.27 271.183C424.683 271.183 425.511 270.975 426.743 270.975H429.838C432.521 270.975 434.589 271.39 435.824 272.42C437.269 273.245 437.892 274.69 437.892 276.753C437.892 278.403 437.269 279.848 436.037 280.878C434.797 282.119 432.942 282.944 430.669 283.356C432.524 285.626 435.414 289.342 439.747 294.705L440.364 295.325C439.952 295.325 439.542 295.12 439.13 295.12H437.064C436.859 295.12 436.447 295.325 436.037 295.325C435.209 293.88 434.381 292.847 433.559 291.817C432.942 290.787 432.319 289.962 431.704 289.134L427.781 284.184C427.576 283.769 427.369 283.769 427.164 283.564C426.959 283.359 426.748 283.359 426.336 283.359H425.718V292.437C425.718 293.467 425.923 294.292 425.923 295.328C425.511 295.328 425.3 295.123 425.095 295.123H423.445C423.241 295.123 422.825 295.325 422.62 295.325ZM443.044 295.325V291.402C443.249 289.959 443.249 288.306 443.249 286.247V283.148C443.249 279.436 443.249 276.753 443.044 275.103V270.975C443.249 270.975 443.46 271.183 443.667 271.183H445.522C445.727 271.183 445.935 270.975 446.344 270.975C446.14 271.8 446.14 272.833 446.14 273.865V293.057C446.14 293.883 446.14 294.708 446.344 295.328C445.932 295.328 445.727 295.328 445.522 295.123H443.667C443.463 295.325 443.252 295.325 443.044 295.325ZM451.921 295.325C451.921 293.88 451.921 292.022 452.125 290.167V282.944V276.133C451.921 274.278 451.921 272.628 451.921 270.975C452.333 270.975 452.953 270.975 453.366 271.183H460.589C461.83 270.975 463.061 270.975 464.302 270.975V273.043C463.061 273.043 461.625 272.838 460.18 272.838H455.019V281.709H455.642C456.669 281.709 457.909 281.709 459.355 281.504C460.595 281.504 462.037 281.504 463.483 281.299C463.483 281.712 463.278 281.919 463.278 281.919V282.952C463.278 283.16 463.483 283.157 463.483 283.572C462.86 283.368 462.037 283.368 461.209 283.157H455.019V293.476H459.764C461.209 293.476 462.859 293.271 464.51 293.271V295.339H454.401C453.571 295.325 452.535 295.325 451.921 295.325ZM466.367 293.883C466.572 293.262 466.572 292.642 466.78 292.025C466.988 291.407 466.985 290.787 466.985 290.17C467.608 291.407 468.43 292.44 469.463 293.265C470.49 293.885 471.525 294.295 472.968 294.295C474.41 294.295 475.65 293.883 476.68 292.85C477.508 292.025 477.921 290.787 477.921 289.134C477.921 288.104 477.716 287.069 477.303 286.454C476.68 285.834 475.653 285.214 474.413 284.599L471.522 283.359C469.872 282.739 468.632 281.914 468.017 281.089C467.19 280.056 466.777 278.818 466.777 277.373C466.777 275.515 467.605 273.865 468.84 272.628C470.285 271.183 472.145 270.562 474.413 270.562C475.241 270.562 476.268 270.767 477.096 270.975C477.918 271.183 478.746 271.39 479.779 272.008C479.574 272.212 479.363 272.628 479.155 273.245C478.951 273.66 478.951 274.073 478.743 274.69C478.204 273.795 477.413 273.078 476.47 272.628C475.642 272.204 474.722 271.991 473.793 272.008C472.552 272.008 471.52 272.212 470.697 273.037C469.87 273.862 469.457 274.892 469.457 276.338C469.457 277.37 469.87 278.195 470.279 278.816C470.902 279.436 471.929 280.053 473.17 280.67L476.06 281.911C477.71 282.531 478.951 283.561 479.571 284.386C480.393 285.416 480.806 286.656 480.806 288.102C480.806 290.372 479.983 292.227 478.333 293.672C476.888 295.12 474.823 295.737 472.143 295.737C471.11 295.737 470.074 295.533 469.047 295.325C468.017 294.912 466.982 294.497 466.367 293.883Z" fill="black"/>
<path fill-rule="evenodd" clip-rule="evenodd" d="M14.0342 338.039C13.2092 338.454 12.3841 338.864 11.3514 339.072C10.5264 339.277 9.69849 339.277 8.66861 339.277C5.98581 339.277 3.92321 338.452 2.47796 337.006C0.827883 335.356 0 333.291 0 330.608C0 327.308 1.03272 324.833 3.09532 322.767C5.16077 320.702 7.63589 319.672 10.9361 319.672C11.9688 319.672 13.0015 319.877 13.8265 320.084C14.8564 320.084 15.6843 320.5 16.3017 320.705L15.4766 322.77C14.8564 321.945 14.2391 321.53 13.4112 321.12C12.4686 320.867 11.4992 320.727 10.5235 320.705C8.25325 320.705 6.19064 321.53 4.7454 323.387C3.09248 325.453 2.26744 327.72 2.26744 330.608C2.26744 332.881 2.8848 334.736 4.1252 336.181C5.36561 337.627 7.01569 338.247 9.07829 338.247C9.90333 338.247 10.7312 338.039 11.7611 337.831C12.5861 337.419 13.6189 337.006 14.6516 336.181L14.0342 338.039ZM22.9077 326.486C21.4624 326.486 20.4297 327.106 19.3998 328.551C18.5719 329.792 17.9546 331.646 17.9546 333.917C17.9546 335.362 18.3671 336.392 18.9873 337.217C19.6047 337.837 20.4297 338.25 21.4624 338.25C22.9077 338.25 24.1452 337.629 25.178 336.184C26.003 334.739 26.6232 333.089 26.6232 331.026C26.6232 329.376 26.2107 328.343 25.5905 327.518C24.9731 326.69 24.1452 326.486 22.9077 326.486ZM15.892 333.499C15.892 331.228 16.5093 329.373 17.9574 327.928C19.195 326.278 20.8451 325.658 22.9105 325.658C24.7683 325.658 26.2135 326.07 27.2434 327.103C28.2761 328.133 28.6886 329.578 28.6886 331.228C28.6886 333.498 28.0713 335.356 26.626 336.799C25.1808 338.452 23.5307 339.072 21.4681 339.072C19.818 339.072 18.3728 338.656 17.3401 337.627C16.3045 336.594 15.892 335.149 15.892 333.499ZM29.9234 338.864C30.5436 335.769 30.9561 333.089 31.3686 331.228C31.5763 329.163 31.9888 327.308 32.1936 325.863H32.609C32.8138 325.863 33.0215 326.067 33.2292 326.067C33.2292 326.067 33.434 325.863 33.6417 325.863H34.0542C34.0542 326.278 34.0542 326.483 33.8494 326.895C33.8494 327.1 33.8494 327.513 33.6417 327.925C34.4668 327.1 35.087 326.48 35.912 326.275C36.5322 325.86 37.3573 325.655 37.9775 325.655C39.215 325.655 40.2477 326.067 40.8651 326.685C41.1954 327.006 41.4572 327.391 41.6347 327.817C41.8122 328.242 41.9017 328.699 41.8978 329.16C41.8978 329.783 41.693 331.018 41.2776 333.288C41.0728 335.558 40.6603 337.416 40.4526 338.858H39.8324H38.3871C39.0073 335.971 39.4199 333.908 39.6247 332.463C39.8324 331.223 39.8324 330.193 39.8324 329.572C39.8324 328.747 39.6247 328.127 39.2122 327.718C38.7996 327.302 37.9746 327.097 37.1496 327.097C36.3245 327.097 35.4995 327.302 34.8793 327.718C34.2591 328.335 33.8466 328.955 33.434 329.988C33.2292 330.813 33.0215 331.843 32.8138 333.288C32.4013 334.733 32.1936 336.588 31.9888 338.858H30.3387L29.9234 338.864ZM44.3672 327.103L44.5749 326.07H46.2279C46.4327 325.658 46.4327 325.245 46.4327 324.628C46.4327 324.213 46.6404 323.8 46.6404 323.18L48.703 322.358C48.703 322.975 48.4981 323.595 48.4981 324.213C48.2905 324.833 48.2905 325.453 48.0828 326.067H50.7684V327.1H47.8779C47.4654 329.575 47.0529 331.433 46.8481 332.878C46.6404 334.321 46.6404 335.353 46.6404 335.766C46.6404 336.591 46.6404 337.211 47.0529 337.624C47.4654 337.829 47.8779 338.036 48.4981 338.036H49.3232C49.7357 337.831 49.9434 337.831 50.3559 337.624V338.449C49.9434 338.654 49.528 338.861 49.1183 338.861C48.4981 339.069 48.0856 339.069 47.6731 339.069C46.6404 339.069 46.0202 338.861 45.4028 338.449C44.9875 337.829 44.5749 337.208 44.5749 336.178C44.5749 335.558 44.7826 334.113 45.4028 331.433C45.6077 329.575 46.0202 328.13 46.0202 327.1H44.9875L44.3672 327.103ZM51.5906 338.864C52.2108 335.564 52.6233 332.881 53.0359 330.611C53.4484 328.341 53.6561 326.898 53.6561 325.865H54.0686C54.2734 325.865 54.4811 326.07 54.6859 326.07C54.8908 326.07 54.8908 325.865 55.0985 325.865H55.7187C55.511 326.486 55.511 326.898 55.3061 327.311C55.3061 327.931 55.3061 328.341 55.0985 328.756C55.9263 327.726 56.5437 326.901 57.1639 326.486C57.989 325.865 58.6063 325.661 59.4342 325.661H60.0544C59.8496 326.073 59.8496 326.486 59.6419 326.901V328.136C59.2265 328.136 59.0217 327.931 58.814 327.931H58.4015C56.9562 327.931 55.9263 328.551 55.3061 329.996C54.6859 331.234 54.0686 334.326 53.4484 338.867H52.4157H52.0031L51.5906 338.864ZM62.3218 321.12C62.3218 320.705 62.5295 320.295 62.7372 320.087C62.942 319.882 63.3574 319.882 63.7671 319.882C63.9748 319.882 64.3873 319.882 64.595 320.087C64.8523 320.371 64.9987 320.737 65.0075 321.12C65.0075 321.325 64.7998 321.74 64.595 321.945C64.3873 322.15 63.9748 322.36 63.7671 322.36C63.3845 322.353 63.0182 322.205 62.7372 321.945C62.5175 321.719 62.3726 321.431 62.3218 321.12ZM59.8467 338.864C60.0515 337.214 60.4669 335.359 60.8794 333.089C61.292 330.819 61.7045 328.548 61.9093 325.865H62.5295C62.7372 326.07 62.942 326.07 62.942 326.07C63.1497 326.07 63.3574 325.865 63.5622 325.865H63.9748C63.5622 328.548 62.942 331.231 62.7372 333.294C62.3218 335.564 62.117 337.422 61.9093 338.864H59.8467ZM72.8454 326.898C72.2252 326.898 71.6078 327.103 70.9904 327.311C70.3702 327.726 69.9577 328.136 69.5452 328.961C69.1298 329.581 68.7173 330.611 68.5125 331.644C68.3048 332.673 68.1 333.706 68.1 334.534C68.1 335.772 68.3048 336.597 68.925 337.425C69.5452 338.042 70.1654 338.454 71.1953 338.454C72.4328 338.454 73.6733 337.629 74.7031 336.184C75.5282 334.739 76.1455 333.089 76.1455 331.026C76.1455 329.789 75.733 328.756 75.3205 327.931C74.9993 327.6 74.6143 327.338 74.1889 327.161C73.7634 326.983 73.3064 326.894 72.8454 326.898ZM65.4172 338.864C66.0374 336.389 66.6576 333.294 67.0701 329.789C67.6903 326.281 68.3076 322.36 68.9278 318.232H70.9933C70.7856 318.853 70.5779 319.473 70.5779 320.298C70.3731 321.123 70.1654 321.948 69.9606 322.978L69.1327 328.136C69.7529 327.311 70.5779 326.69 71.1981 326.281C72.0232 325.865 72.8482 325.661 73.6761 325.661C75.1213 325.661 76.1512 326.073 76.9791 327.106C77.8041 327.931 78.2167 329.168 78.2167 330.821C78.2167 331.851 78.009 333.092 77.5965 334.122C77.3888 335.151 76.7714 335.979 76.1512 336.802C75.5339 337.629 74.9137 338.25 74.0886 338.659C73.2636 339.075 72.2309 339.075 71.4058 339.075C70.5779 339.075 69.7529 339.075 69.1355 338.659C68.5182 338.454 68.1057 338.039 67.6931 337.422L65.8354 338.864H65.4172ZM92.0375 325.865C91.6221 328.756 91.0048 331.231 90.7971 333.294C90.3846 335.564 90.1769 337.422 89.9721 338.864H87.9038C87.9038 338.452 88.1115 338.039 88.1115 337.214C88.3191 337.214 88.3191 337.009 88.3191 337.009C87.4941 337.629 86.8739 338.25 86.0489 338.454C85.4315 338.847 84.7178 339.062 83.9862 339.075C82.7458 339.075 81.716 338.659 81.0958 338.25C80.4784 337.629 80.0659 336.597 80.0659 335.567C80.0659 335.151 80.2707 333.709 80.6861 331.442C81.0986 329.376 81.3034 327.518 81.5111 325.868C81.716 325.868 81.9236 325.868 82.1285 326.073H82.9535C83.1612 325.868 83.3661 325.868 83.5737 325.868C83.1612 328.343 82.7458 330.201 82.541 331.854C82.1285 333.504 82.1285 334.537 82.1285 335.154C82.1285 335.982 82.3362 336.6 82.7458 337.012C83.1612 337.632 83.9863 337.837 84.8113 337.837C85.6392 337.837 86.4614 337.425 87.0816 337.012C87.7018 336.392 88.322 335.772 88.5268 334.947C88.7345 334.122 88.9422 333.092 89.147 331.851C89.3519 330.406 89.7644 328.343 89.9721 325.865C90.3846 325.865 90.5923 325.865 90.5923 326.07H91.4173C91.6222 325.865 91.8298 325.865 92.0375 325.865ZM93.8924 327.103L94.1001 326.07H95.753C95.9579 325.658 95.9579 325.245 95.9579 324.628C96.1655 324.213 96.1656 323.8 96.1656 323.18L98.433 322.358C98.2281 322.975 98.0205 323.595 98.0205 324.213C97.8128 324.833 97.8128 325.453 97.6051 326.067H100.288V327.1H97.3974C96.9821 329.575 96.5695 331.433 96.3647 332.878C96.1599 334.321 96.1599 335.353 96.1599 335.766C96.1599 336.591 96.1599 337.211 96.5724 337.624C96.9849 337.829 97.4003 338.036 98.0176 338.036H98.8427C99.2552 337.831 99.4629 337.831 99.8726 337.624V338.449C99.46 338.654 99.0475 338.861 98.635 338.861C98.2225 339.069 97.6023 339.069 97.1898 339.069C96.1599 339.069 95.5397 338.861 94.9195 338.449C94.5069 337.829 94.0944 337.208 94.0944 336.178C94.0944 335.558 94.5069 334.113 94.9195 331.433C95.1271 329.575 95.5397 328.13 95.7473 327.1H94.7146L93.8924 327.103ZM103.799 321.12C103.799 320.705 104.006 320.295 104.214 320.087C104.419 319.882 104.626 319.882 105.039 319.882C105.452 319.882 105.659 319.882 105.864 320.087C106.279 320.295 106.279 320.708 106.279 321.12C106.279 321.325 106.279 321.74 105.864 321.945C105.659 322.15 105.452 322.36 105.039 322.36C104.626 322.36 104.419 322.153 104.214 321.945C104.006 321.74 103.799 321.325 103.799 321.12ZM101.116 338.864C101.528 337.214 101.941 335.359 102.353 333.089C102.561 330.819 102.974 328.548 103.386 325.865H103.799C104.006 326.07 104.214 326.07 104.419 326.07C104.626 326.07 104.834 325.865 104.834 325.865H105.452C104.834 328.548 104.419 331.231 104.006 333.294C103.594 335.564 103.389 337.422 103.181 338.864H102.149H101.116ZM106.686 338.864C107.306 335.769 107.927 333.089 108.131 331.228C108.544 329.163 108.752 327.308 108.957 325.863H109.577C109.784 325.863 109.784 326.067 109.992 326.067C110.197 326.067 110.405 325.863 110.405 325.863H111.025C110.817 326.278 110.817 326.483 110.817 326.895C110.817 327.1 110.609 327.513 110.609 327.925C111.23 327.1 112.055 326.48 112.675 326.275C113.503 325.86 114.12 325.655 114.945 325.655C116.186 325.655 117.011 326.067 117.836 326.685C118.456 327.305 118.661 328.13 118.661 329.16C118.661 329.783 118.661 331.018 118.248 333.288C117.836 335.558 117.628 337.416 117.423 338.858H115.361H115.153C115.77 335.971 116.186 333.908 116.39 332.463C116.598 331.223 116.806 330.193 116.806 329.572C116.806 328.747 116.598 328.127 116.186 327.718C115.58 327.297 114.857 327.08 114.12 327.097C113.09 327.097 112.47 327.302 111.85 327.718C111.025 328.335 110.609 328.955 110.405 329.988C110.2 330.813 109.787 331.843 109.58 333.288C109.375 334.733 109.167 336.588 108.755 338.858H107.309C107.099 338.864 106.894 338.864 106.686 338.864ZM123.196 334.119C122.371 333.914 121.958 333.294 121.75 332.881C121.331 332.275 121.114 331.552 121.13 330.816C121.13 329.37 121.75 328.133 122.783 327.1C123.816 326.067 125.053 325.655 126.703 325.655H127.941C128.558 325.86 129.179 325.86 129.383 325.86H130.416C130.829 325.86 131.446 325.86 132.686 325.655L132.479 326.895H131.446C131.033 326.895 130.621 326.895 130.001 326.688C130.416 327.103 130.621 327.513 130.829 328.133C131.033 328.548 131.241 329.163 131.241 329.578C131.241 331.023 130.621 332.261 129.588 333.086C128.556 334.116 127.113 334.531 125.668 334.531H124.223C123.605 334.531 123.19 334.736 122.777 334.944C122.519 335.226 122.372 335.593 122.365 335.976C122.365 336.799 123.398 337.214 125.255 337.422H126.08C127.73 337.627 128.971 337.834 129.588 338.247C130.416 338.864 130.829 339.689 130.829 340.722C130.829 342.372 130.208 343.612 128.971 344.847C127.73 345.88 126.288 346.292 124.43 346.292C122.78 346.292 121.335 346.087 120.51 345.467C119.685 344.642 119.272 343.817 119.272 342.577C119.272 341.752 119.477 340.927 119.893 340.307C120.51 339.686 121.13 339.277 122.163 338.861V338.656C121.747 338.452 121.335 338.244 121.13 337.831C120.872 337.548 120.726 337.181 120.718 336.799C120.718 336.181 120.922 335.561 121.335 335.149C121.747 334.736 122.368 334.531 123.193 334.324L123.196 334.119ZM120.72 342.375C120.72 343.408 121.133 344.23 121.75 344.645C122.166 345.265 123.196 345.47 124.228 345.47C125.674 345.47 126.706 345.058 127.531 344.23C128.356 343.612 128.769 342.58 128.769 341.55C128.769 340.725 128.561 340.105 127.944 339.692C127.326 339.279 126.291 339.075 124.849 339.075C123.406 339.075 122.373 339.279 121.753 339.9C121.133 340.52 120.72 341.342 120.72 342.375ZM126.706 326.486C125.674 326.486 124.849 326.901 124.228 327.726C123.403 328.551 123.196 329.581 123.196 331.026C123.196 331.851 123.403 332.471 123.816 333.092C124.228 333.504 124.846 333.709 125.674 333.709C126.706 333.709 127.531 333.297 128.149 332.471C128.825 331.582 129.188 330.494 129.181 329.376C129.181 328.343 128.977 327.726 128.561 327.106C128.149 326.691 127.531 326.486 126.706 326.486ZM140.942 327.103L141.147 326.07H142.797C143.005 325.658 143.005 325.245 143.005 324.628C143.213 324.213 143.213 323.8 143.213 323.18L145.48 322.358C145.275 322.975 145.068 323.595 145.068 324.213C144.863 324.833 144.863 325.453 144.655 326.067H147.335V327.1H144.447C144.035 329.575 143.62 331.433 143.415 332.878C143.21 334.321 143.21 335.353 143.21 335.766C143.21 336.591 143.21 337.211 143.622 337.624C144.038 337.829 144.45 338.036 145.068 338.036H145.893C146.308 337.831 146.513 337.831 146.925 337.624V338.449C146.513 338.654 146.1 338.861 145.688 338.861C145.068 339.069 144.658 339.069 144.243 339.069C143.213 339.069 142.593 338.861 141.972 338.449C141.56 337.829 141.147 337.208 141.147 336.178C141.147 335.558 141.56 334.113 141.972 331.433C142.177 329.575 142.593 328.13 142.797 327.1H141.768L140.942 327.103ZM155.182 326.486C153.736 326.486 152.499 327.106 151.674 328.551C150.641 329.792 150.228 331.646 150.228 333.917C150.228 335.362 150.433 336.392 151.053 337.217C151.674 337.837 152.499 338.25 153.531 338.25C154.977 338.25 156.214 337.629 157.244 336.184C158.277 334.739 158.689 333.089 158.689 331.026C158.689 329.376 158.482 328.343 157.861 327.518C157.241 326.693 156.214 326.486 155.182 326.486ZM147.958 333.499C147.958 331.228 148.783 329.373 150.024 327.928C151.469 326.278 153.119 325.658 155.182 325.658C157.036 325.658 158.277 326.07 159.307 327.103C160.339 328.133 160.957 329.578 160.957 331.228C160.957 333.498 160.132 335.356 158.689 336.799C157.244 338.452 155.594 339.072 153.531 339.072C151.881 339.072 150.641 338.656 149.611 337.627C149.076 337.082 148.654 336.437 148.371 335.728C148.087 335.02 147.947 334.262 147.958 333.499ZM170.658 327.103L170.866 326.07H172.519C172.519 325.658 172.724 325.245 172.724 324.628C172.724 324.213 172.724 323.8 172.928 323.18L174.994 322.358C174.786 322.975 174.786 323.595 174.579 324.213C174.579 324.833 174.374 325.453 174.374 326.067H177.056V327.1H174.166C173.751 329.575 173.338 331.433 173.133 332.878C172.926 334.321 172.721 335.353 172.721 335.766C172.721 336.591 172.926 337.211 173.338 337.624C173.546 337.829 174.166 338.036 174.783 338.036H175.611C175.816 337.831 176.231 337.831 176.641 337.624V338.449C176.229 338.654 175.816 338.861 175.196 338.861C174.783 339.069 174.371 339.069 173.958 339.069C172.926 339.069 172.308 338.861 171.688 338.449C171.068 337.829 170.863 337.208 170.863 336.178C170.863 335.558 171.068 334.113 171.48 331.433C171.896 329.575 172.101 328.13 172.308 327.1H171.276L170.658 327.103ZM186.135 338.864C186.547 336.799 186.96 334.739 187.372 333.089C187.58 331.439 187.788 330.198 187.788 329.789C187.788 328.961 187.58 328.136 186.963 327.723C186.724 327.468 186.437 327.264 186.118 327.122C185.798 326.98 185.454 326.904 185.105 326.898C184.28 326.898 183.455 327.311 182.837 327.723C182.217 328.341 181.597 328.961 181.185 329.994C180.98 330.406 180.772 331.644 180.564 333.294C180.359 334.944 179.947 336.799 179.739 338.864H177.674C178.707 334.119 179.532 329.789 179.944 326.278C180.561 322.77 180.977 320.084 180.977 318.23H183.042C183.042 319.055 182.835 320.084 182.627 320.912C182.422 321.737 182.422 322.562 182.214 323.18L181.389 327.928C182.007 327.308 182.835 326.688 183.452 326.278C184.277 325.863 185.102 325.658 185.722 325.658C186.963 325.658 187.993 326.07 188.613 326.688C189.233 327.305 189.645 328.133 189.645 329.37C189.645 329.991 189.438 331.225 189.025 333.291C188.613 335.561 188.405 337.419 188.2 338.861H186.755L186.135 338.864ZM201.404 337.834C200.784 338.25 200.166 338.659 199.546 338.864C198.721 339.072 198.101 339.279 197.276 339.279C196.513 339.291 195.755 339.151 195.046 338.868C194.338 338.585 193.692 338.164 193.148 337.629C192.115 336.597 191.702 334.947 191.702 333.297C191.702 330.821 192.323 329.168 193.56 327.726C194.798 326.281 196.24 325.661 198.306 325.661C199.751 325.661 200.988 326.073 201.813 326.901C202.638 327.726 203.051 328.756 203.051 330.201V332.267C202.226 332.267 201.401 332.059 200.371 332.059H193.768V333.504C193.768 334.949 194.18 336.187 194.798 337.012C195.623 337.632 196.451 338.042 197.893 338.042C198.51 338.042 199.131 338.042 199.751 337.837C200.371 337.425 200.988 337.217 201.813 336.597C201.606 336.802 201.606 337.012 201.606 337.217C201.611 337.422 201.404 337.629 201.404 337.834ZM193.975 331.023H194.183C195.833 331.228 196.866 331.228 197.691 331.228H199.136C199.549 331.228 200.169 331.023 201.199 331.023V330.403V329.991C201.199 328.75 200.994 327.925 200.374 327.308C199.958 326.688 199.133 326.483 198.308 326.483C197.276 326.483 196.243 326.898 195.626 327.723C194.801 328.548 194.183 329.578 193.975 331.023ZM211.93 338.247C212.135 337.831 212.135 337.422 212.343 337.006C212.55 336.799 212.55 336.386 212.55 335.766C213.168 336.591 213.58 337.211 214.2 337.624C214.821 338.036 215.646 338.244 216.263 338.244C217.503 338.244 218.741 337.829 219.566 337.003C220.391 335.974 220.806 335.146 220.806 333.908C220.806 333.083 220.599 332.463 220.186 331.843C219.771 331.43 219.153 330.813 217.916 329.988C217.916 329.988 217.711 329.988 217.711 329.783C215.028 328.335 213.791 326.685 213.791 325.035C213.791 323.589 214.411 322.355 215.648 321.319C216.886 320.289 218.331 319.669 220.189 319.669C220.809 319.669 221.427 319.669 222.047 319.874C222.664 320.079 223.284 320.289 224.109 320.494C223.905 320.91 223.697 321.114 223.489 321.524C223.489 321.939 223.284 322.352 223.284 322.764C222.975 322.084 222.473 321.51 221.839 321.114C221.222 320.91 220.602 320.699 219.774 320.699C218.744 320.699 217.711 321.114 217.094 321.732C216.699 322.01 216.38 322.382 216.163 322.814C215.947 323.246 215.841 323.724 215.853 324.207C215.853 324.827 216.061 325.447 216.474 325.857C216.886 326.477 217.506 326.89 218.124 327.507C218.331 327.507 218.539 327.507 218.744 327.715C220.189 328.745 221.222 329.365 221.634 329.78C222.047 330.193 222.459 330.81 222.664 331.223C222.872 331.843 222.872 332.463 222.872 332.875C222.872 334.73 222.252 336.176 220.809 337.416C219.364 338.654 217.714 339.271 215.651 339.271C214.826 339.271 214.206 339.066 213.586 339.066C212.96 338.864 212.343 338.659 211.93 338.247ZM233.802 337.834C233.182 338.25 232.565 338.659 231.74 338.864C231.119 339.072 230.499 339.279 229.674 339.279C228.911 339.291 228.154 339.151 227.445 338.868C226.736 338.584 226.091 338.164 225.546 337.629C224.516 336.597 224.101 334.947 224.101 333.297C224.101 330.821 224.721 329.168 225.959 327.726C226.991 326.281 228.641 325.661 230.704 325.661C232.149 325.661 233.387 326.073 234.212 326.901C235.04 327.726 235.449 328.756 235.449 330.201V332.267C234.624 332.267 233.592 332.059 232.767 332.059H226.163V333.504C226.163 334.949 226.368 336.187 227.193 337.012C227.814 337.632 228.846 338.042 230.289 338.042C230.909 338.042 231.529 338.042 232.146 337.837C232.764 337.425 233.384 337.217 234.001 336.597V337.217C234.007 337.422 233.802 337.629 233.802 337.834ZM226.374 331.023H226.582C228.027 331.228 229.264 331.228 230.09 331.228H231.535C231.947 331.228 232.567 331.023 233.393 331.023C233.597 330.819 233.597 330.608 233.597 330.403V329.991C233.597 328.75 233.393 327.925 232.772 327.308C232.36 326.688 231.535 326.483 230.71 326.483C229.677 326.483 228.644 326.898 227.819 327.723C227.199 328.548 226.582 329.578 226.374 331.023ZM243.708 335.769C243.916 335.149 243.916 334.531 244.121 333.703C244.121 333.086 244.329 332.466 244.329 331.848C241.853 332.264 240.201 332.881 239.375 333.499C238.55 333.914 238.138 334.739 238.138 335.769C238.138 336.389 238.343 337.009 238.755 337.214C239.204 337.629 239.797 337.852 240.408 337.834C241.026 337.834 241.646 337.629 242.263 337.422C242.88 337.009 243.296 336.389 243.708 335.769ZM243.708 337.009C243.091 337.629 242.471 338.25 241.853 338.659C241.026 338.864 240.408 339.075 239.583 339.075C238.553 339.075 237.725 338.867 237.105 338.25C236.488 337.629 236.28 336.802 236.28 335.979C236.28 335.151 236.485 334.534 236.898 334.122C237.102 333.501 237.723 332.884 238.343 332.471C238.963 332.267 240.201 331.851 241.851 331.646C242.263 331.442 242.676 331.442 242.88 331.442C243.706 331.234 244.326 331.026 244.531 330.821C244.531 330.406 244.738 329.996 244.738 329.168C244.738 328.343 244.531 327.726 244.118 327.314C243.513 326.894 242.791 326.677 242.055 326.693C241.435 326.693 240.815 326.901 240.405 327.109C239.785 327.521 239.165 327.934 238.548 328.554H238.343C238.55 328.139 238.55 327.934 238.55 327.729C238.55 327.521 238.755 327.314 238.755 327.109C239.375 326.489 239.993 326.284 240.613 325.868C241.233 325.663 242.058 325.663 242.678 325.663C243.916 325.663 244.949 325.868 245.569 326.489C246.186 327.109 246.599 327.934 246.599 328.964C246.599 329.168 246.394 330.204 246.186 331.442V332.267L245.774 334.947C245.569 335.772 245.569 336.392 245.569 336.392C245.569 336.804 245.569 337.217 245.774 337.425C245.979 337.629 246.186 337.629 246.599 337.629H247.424V338.25C247.011 338.454 246.599 338.662 246.394 338.662C245.979 338.867 245.569 338.867 245.361 338.867C244.741 338.867 244.533 338.867 244.121 338.454C243.913 338.039 243.708 337.629 243.708 337.009ZM248.661 338.864C249.279 335.564 249.899 332.881 250.312 330.611C250.727 328.341 250.932 326.898 250.932 325.865H251.344C251.552 325.865 251.76 326.07 251.962 326.07C251.962 326.07 252.172 325.865 252.377 325.865H252.994C252.789 326.486 252.582 326.898 252.582 327.311C252.582 327.931 252.377 328.341 252.377 328.756C253.199 327.726 253.822 326.901 254.44 326.486C255.267 325.865 255.885 325.661 256.707 325.661H257.33C257.125 326.073 256.918 326.486 256.918 326.901V328.136C256.502 328.136 256.294 327.931 256.09 327.931H255.472C254.232 327.931 253.199 328.551 252.582 329.996C251.754 331.234 251.341 334.326 250.724 338.867H249.276L248.661 338.864ZM267.023 337.834C266.201 338.25 265.373 338.659 264.755 338.864C263.928 339.072 263.31 339.279 262.482 339.279C260.832 339.279 259.387 338.659 258.565 337.629C258.03 337.085 257.609 336.44 257.326 335.731C257.042 335.022 256.903 334.264 256.915 333.501C256.915 331.231 257.737 329.376 258.977 327.931C260.423 326.281 262.277 325.661 264.346 325.661C265.168 325.661 265.791 325.661 266.613 325.865C267.231 325.865 267.854 326.07 268.468 326.486C268.417 326.796 268.273 327.084 268.056 327.311C268.056 327.726 267.851 328.136 267.851 328.551H267.646C267.441 327.931 267.023 327.311 266.405 327.106C265.801 326.686 265.079 326.468 264.343 326.486C262.693 326.486 261.452 327.106 260.42 328.551C259.455 330.248 258.957 332.17 258.974 334.122C258.974 335.362 259.387 336.392 260.007 337.217C260.625 337.837 261.452 338.25 262.479 338.25C263.307 338.25 264.13 338.042 264.753 337.834C265.575 337.422 266.403 337.009 267.225 336.184C267.02 336.597 267.02 336.802 267.02 337.214L267.023 337.834ZM277.137 338.864C277.549 336.799 277.965 334.739 278.377 333.089C278.582 331.439 278.79 330.198 278.79 329.789C278.79 328.961 278.585 328.136 277.967 327.723C277.728 327.468 277.44 327.264 277.121 327.122C276.801 326.98 276.456 326.904 276.107 326.898C275.285 326.898 274.457 327.311 273.839 327.723C273.012 328.341 272.599 328.961 272.189 329.994C271.984 330.406 271.774 331.644 271.566 333.294C271.359 334.944 270.949 336.799 270.744 338.864H269.094H268.679C269.711 334.119 270.329 329.789 270.952 326.278C271.569 322.77 271.984 320.084 271.984 318.23H274.05C273.845 319.055 273.845 320.084 273.637 320.912C273.433 321.737 273.433 322.562 273.225 323.18L272.397 327.928C273.014 327.308 273.842 326.688 274.46 326.278C275.287 325.863 275.905 325.658 276.733 325.658C277.973 325.658 279 326.07 279.623 326.688C280.241 327.308 280.65 328.133 280.65 329.37C280.65 329.991 280.445 331.225 280.033 333.291C279.62 335.561 279.416 337.419 279.205 338.861H277.552L277.137 338.864ZM293.029 326.07C293.234 323.595 294.056 321.74 294.884 320.295C295.916 319.055 297.151 318.23 298.596 318.23C298.596 318.23 298.801 318.23 299.012 318.434H299.424C299.219 318.85 299.219 319.262 299.219 319.675C299.015 319.88 299.015 320.295 299.015 320.5C298.599 320.295 298.391 320.295 297.982 320.084H297.154C296.332 320.084 295.919 320.292 295.504 321.117C295.091 321.737 294.886 323.388 294.682 326.067H297.154L296.949 327.1C296.537 327.1 296.332 326.895 295.922 326.895H294.682L293.854 332.05C293.649 333.083 293.649 334.321 293.441 335.353C293.236 336.591 293.236 337.829 293.029 338.858H290.96C291.165 337.621 291.373 336.383 291.583 335.353C291.788 334.113 291.996 332.878 292.201 331.846L292.818 326.895H291.583C291.373 326.895 291.168 327.1 290.96 327.1V326.067H291.993L293.029 326.07ZM303.965 326.486C302.52 326.486 301.282 327.106 300.46 328.551C299.427 329.792 299.015 331.646 299.015 333.917C299.015 335.362 299.219 336.392 299.837 337.217C300.46 337.837 301.282 338.25 302.52 338.25C303.965 338.25 304.997 337.629 306.025 336.184C307.057 334.739 307.47 333.089 307.47 331.026C307.47 329.376 307.265 328.343 306.648 327.518C306.025 326.69 305.202 326.486 303.965 326.486ZM296.946 333.499C296.946 331.228 297.569 329.373 298.801 327.928C300.246 326.278 301.896 325.658 303.962 325.658C305.817 325.658 307.057 326.07 308.09 327.103C309.117 328.133 309.74 329.578 309.74 331.228C309.74 333.498 308.912 335.356 307.672 336.799C306.227 338.452 304.372 339.072 302.309 339.072C300.659 339.072 299.418 338.656 298.386 337.627C297.362 336.594 296.946 335.149 296.946 333.499ZM310.98 338.864C311.598 335.564 312.007 332.881 312.42 330.611C312.835 328.341 313.043 326.898 313.043 325.865H313.456C313.66 325.865 313.868 326.07 314.079 326.07C314.283 326.07 314.283 325.865 314.491 325.865H315.108C314.904 326.486 314.904 326.898 314.696 327.311C314.696 327.931 314.696 328.341 314.491 328.756C315.313 327.726 315.936 326.901 316.759 326.486C317.382 325.865 317.999 325.661 318.827 325.661H319.444C319.239 326.073 319.239 326.486 319.032 326.901V328.136C318.619 328.136 318.414 327.931 318.204 327.931H317.791C316.346 327.931 315.313 328.551 314.696 329.996C314.079 331.234 313.456 334.326 312.841 338.867H311.808H311.396L310.98 338.864ZM327.484 338.864C328.107 336.594 328.517 333.706 329.14 330.611C329.552 327.311 330.167 323.8 330.585 320.087H333.06C332.803 320.601 332.663 321.166 332.648 321.74C332.443 322.36 332.235 323.39 332.03 324.42L331.407 328.136H342.343L342.966 324.215C343.171 323.595 343.171 322.77 343.379 322.15C343.379 321.325 343.379 320.705 343.584 320.084H345.86C345.237 322.562 344.827 325.453 344.21 328.548C343.587 331.848 343.177 335.149 342.764 338.864H340.488C340.693 338.039 340.693 337.214 340.901 336.389C341.111 335.359 341.316 334.534 341.524 333.706L342.141 329.376H331.205L330.588 333.706C330.377 335.151 330.173 336.184 330.173 336.802C329.968 337.629 329.968 338.25 329.76 338.867H328.11L327.484 338.864ZM356.173 337.834C355.55 338.25 354.932 338.659 354.104 338.864C353.487 339.072 352.864 339.279 352.042 339.279C351.279 339.291 350.521 339.151 349.813 338.868C349.104 338.584 348.459 338.164 347.914 337.629C346.881 336.597 346.469 334.947 346.469 333.297C346.469 330.821 347.086 329.168 348.119 327.726C349.359 326.281 351.009 325.661 353.075 325.661C354.514 325.661 355.752 326.073 356.58 326.901C357.402 327.726 357.82 328.756 357.82 330.201V332.267C356.992 332.267 355.959 332.059 355.137 332.059H348.528V333.504C348.528 334.949 348.739 336.187 349.561 337.012C350.184 337.632 351.211 338.042 352.656 338.042C353.279 338.042 353.897 338.042 354.511 337.837C355.134 337.425 355.752 337.217 356.372 336.597V337.217C356.173 337.422 356.173 337.629 356.173 337.834ZM348.745 331.023H348.949C350.111 331.177 351.283 331.246 352.454 331.228H353.695C354.312 331.228 354.935 331.023 355.757 331.023C355.757 330.819 355.962 330.608 355.962 330.403V329.991C355.962 328.75 355.757 327.925 355.14 327.308C354.727 326.688 353.9 326.483 353.077 326.483C352.045 326.483 351.009 326.898 350.187 327.723C349.362 328.548 348.949 329.578 348.745 331.023ZM366.076 335.769C366.076 335.149 366.281 334.531 366.281 333.703C366.486 333.086 366.486 332.466 366.696 331.848C364.218 332.264 362.568 332.881 361.74 333.499C360.918 333.914 360.5 334.739 360.5 335.769C360.5 336.389 360.71 337.009 361.123 337.214C361.57 337.629 362.163 337.852 362.773 337.834C363.39 337.834 364.013 337.629 364.628 337.422C365.254 337.009 365.664 336.389 366.076 335.769ZM366.076 337.009C365.459 337.629 364.836 338.25 364.221 338.659C363.393 338.864 362.776 339.075 361.948 339.075C360.921 339.075 360.093 338.867 359.476 338.25C358.853 337.629 358.648 336.802 358.648 335.979C358.648 335.151 358.853 334.534 359.06 334.122C359.504 333.472 360.066 332.913 360.716 332.471C361.334 332.267 362.571 331.851 364.221 331.646C364.634 331.442 365.043 331.442 365.254 331.442C366.076 331.234 366.699 331.026 366.904 330.821C366.904 330.406 367.109 329.996 367.109 329.168C367.109 328.343 366.904 327.726 366.281 327.314C365.868 326.901 365.254 326.693 364.426 326.693C363.809 326.693 363.186 326.901 362.776 327.109C362.153 327.521 361.535 327.934 360.921 328.554H360.716C360.921 328.139 360.921 327.934 360.921 327.729C360.921 327.521 360.921 327.314 361.126 327.109C361.743 326.489 362.366 326.284 362.981 325.868C363.604 325.663 364.221 325.663 365.043 325.663C366.284 325.663 367.316 325.868 367.934 326.489C368.557 327.109 368.967 327.934 368.967 328.964C368.967 329.168 368.762 330.204 368.554 331.442V332.267L368.139 334.947C367.934 335.772 367.934 336.392 367.934 336.392C367.934 336.804 367.934 337.217 368.139 337.425C368.349 337.629 368.554 337.629 368.762 337.629H369.587L369.797 338.25C369.382 338.454 368.969 338.662 368.765 338.662C368.352 338.867 367.937 338.867 367.524 338.867C367.112 338.867 366.702 338.867 366.491 338.454C366.281 338.039 366.076 337.629 366.076 337.009ZM371.237 338.864L373.092 328.341C373.504 324.836 374.124 321.53 374.537 318.23H375.154C375.359 318.434 375.567 318.434 375.567 318.434C375.777 318.434 375.982 318.434 375.982 318.23H376.804C376.167 321.666 375.548 325.105 374.949 328.548C374.332 331.848 373.709 335.359 373.299 338.864H372.676H371.237ZM377.427 327.103L377.632 326.07H379.282C379.282 325.658 379.487 325.245 379.487 324.628C379.487 324.213 379.692 323.8 379.692 323.18L381.76 322.358C381.76 322.975 381.55 323.595 381.55 324.213C381.345 324.833 381.137 325.453 381.137 326.067H383.823V327.1H380.932C380.52 329.575 380.105 331.433 379.9 332.878C379.695 334.321 379.487 335.353 379.487 335.766C379.487 336.591 379.692 337.211 380.105 337.624C380.52 337.829 380.932 338.036 381.55 338.036H382.378C382.79 337.831 382.995 337.831 383.41 337.624V338.449C382.995 338.654 382.583 338.861 382.17 338.861C381.547 339.069 381.137 339.069 380.725 339.069C379.692 339.069 379.075 338.861 378.452 338.449C378.039 337.829 377.629 337.208 377.629 336.178C377.629 335.558 377.834 334.113 378.452 331.433C378.598 329.981 378.806 328.535 379.075 327.1H378.042L377.427 327.103ZM392.901 338.864C393.519 336.799 393.723 334.739 394.142 333.089C394.346 331.439 394.554 330.198 394.554 329.789C394.554 328.961 394.349 328.136 393.937 327.723C393.314 327.308 392.696 326.898 391.868 326.898C391.046 326.898 390.218 327.311 389.601 327.723C388.978 328.341 388.361 328.961 388.156 329.994C387.951 330.406 387.743 331.644 387.328 333.294C387.123 334.944 386.915 336.799 386.711 338.864H384.642C385.47 334.119 386.298 329.789 386.711 326.278C387.328 322.77 387.743 320.084 387.743 318.23H390.014C389.809 319.055 389.601 320.084 389.396 320.912C389.396 321.737 389.186 322.562 388.981 323.18L388.363 327.928C388.981 327.308 389.604 326.688 390.426 326.278C391.108 325.856 391.898 325.641 392.699 325.658C393.726 325.658 394.762 326.07 395.382 326.688C396.204 327.308 396.409 328.133 396.409 329.37C396.409 329.991 396.204 331.225 395.792 333.291C395.587 335.561 395.169 337.419 394.964 338.861H393.934H393.519L392.901 338.864ZM401.154 321.12C401.154 320.705 401.365 320.295 401.57 320.087C401.775 319.882 402.187 319.882 402.392 319.882C402.807 319.882 403.015 319.882 403.425 320.087C403.63 320.295 403.63 320.708 403.63 321.12C403.63 321.325 403.63 321.74 403.425 321.945C403.012 322.15 402.807 322.36 402.392 322.36C402.187 322.36 401.775 322.153 401.57 321.945C401.365 321.737 401.154 321.325 401.154 321.12ZM398.474 338.864C398.887 337.214 399.297 335.359 399.709 333.089C400.125 330.819 400.332 328.548 400.742 325.865H401.365C401.365 326.07 401.57 326.07 401.778 326.07C401.985 326.07 402.19 325.865 402.395 325.865H402.81C402.187 328.548 401.778 331.231 401.365 333.294C401.154 335.564 400.742 337.422 400.742 338.864H398.474ZM413.951 337.834C413.328 338.25 412.711 338.659 411.889 338.864C411.266 339.072 410.648 339.279 409.82 339.279C409.057 339.291 408.3 339.151 407.591 338.868C406.883 338.584 406.237 338.164 405.692 337.629C404.665 336.597 404.247 334.947 404.247 333.297C404.247 330.821 404.87 329.168 406.108 327.726C407.135 326.281 408.79 325.661 410.853 325.661C412.298 325.661 413.536 326.073 414.358 326.901C415.186 327.726 415.598 328.756 415.598 330.201V332.267C414.771 332.267 413.948 332.059 412.916 332.059H406.312V333.504C406.312 334.949 406.725 336.187 407.339 337.012C407.962 337.632 408.995 338.042 410.44 338.042C411.058 338.042 411.675 338.042 412.295 337.837C412.913 337.425 413.536 337.217 414.15 336.597V337.217C414.156 337.422 413.951 337.629 413.951 337.834ZM406.523 331.023H406.728C408.378 331.228 409.411 331.228 410.233 331.228H411.678C412.093 331.228 412.711 331.023 413.746 331.023V330.403V329.991C413.746 328.75 413.541 327.925 412.918 327.308C412.506 326.688 411.678 326.483 410.856 326.483C409.823 326.483 408.793 326.898 407.965 327.723C407.345 328.548 406.728 329.578 406.523 331.023ZM416.634 338.864C417.251 335.564 417.869 332.881 418.079 330.611C418.492 328.341 418.697 326.898 418.901 325.865H419.317C419.522 325.865 419.729 326.07 419.729 326.07C419.934 326.07 420.142 325.865 420.347 325.865H420.759C420.759 326.486 420.554 326.898 420.554 327.311C420.349 327.931 420.349 328.341 420.349 328.756C420.973 327.726 421.795 326.901 422.418 326.486C423.24 325.865 423.857 325.661 424.685 325.661H425.095C425.095 326.073 424.89 326.486 424.89 326.901C424.89 327.106 424.685 327.518 424.685 327.931V328.136C424.48 328.136 424.273 327.931 424.068 327.931H423.445C422.204 327.931 421.177 328.551 420.349 329.996C419.732 331.234 419.109 334.326 418.699 338.867H417.251L416.634 338.864ZM433.348 338.864C433.761 336.594 434.375 333.706 434.998 330.611C435.411 327.311 436.031 323.8 436.443 320.087H438.714C438.096 323.39 437.479 326.486 437.064 329.581C436.446 332.471 436.241 335.151 435.823 337.629H440.156C441.189 337.425 442.011 337.425 442.839 337.214C442.634 337.422 442.634 337.834 442.634 338.039V338.864H433.348ZM446.762 321.12C446.762 320.705 446.967 320.295 447.175 320.087C447.38 319.882 447.792 319.882 448.003 319.882C448.415 319.882 448.62 319.882 449.03 320.087C449.234 320.295 449.234 320.708 449.234 321.12C449.234 321.325 449.234 321.74 449.03 321.945C448.617 322.15 448.412 322.36 448.003 322.36C447.792 322.36 447.38 322.153 447.175 321.945C446.97 321.737 446.762 321.325 446.762 321.12ZM444.079 338.864C444.492 337.214 444.902 335.359 445.32 333.089C445.732 330.819 445.937 328.548 446.347 325.865H446.97C446.97 326.07 447.175 326.07 447.382 326.07C447.59 326.07 447.795 325.865 448.005 325.865H448.418C447.795 328.548 447.385 331.231 446.973 333.294C446.768 335.564 446.35 337.422 446.35 338.864H444.079ZM453.362 338.864C452.745 336.594 452.122 334.324 451.508 332.053C450.884 329.991 450.475 327.928 449.857 325.863C450.062 325.863 450.27 325.863 450.475 326.067H451.303C451.508 326.067 451.715 325.863 451.92 325.863L453.16 330.816C453.573 332.466 453.988 334.321 454.606 336.181C455.638 334.531 456.461 332.881 457.289 331.228C458.111 329.373 458.939 327.723 459.761 325.863H459.966C460.176 326.067 460.589 326.067 460.589 326.067H461.001C461.206 325.863 461.414 325.863 461.414 325.863C460.387 327.72 459.351 329.786 458.114 331.848C456.873 334.119 455.846 336.389 454.609 338.864H453.362ZM470.905 337.834C470.281 338.25 469.664 338.659 469.05 338.864C468.222 339.072 467.604 339.279 466.981 339.279C465.126 339.279 463.681 338.659 462.853 337.629C461.826 336.597 461.203 334.947 461.203 333.297C461.203 330.821 461.826 329.168 463.058 327.726C464.298 326.281 465.949 325.661 467.809 325.661C469.459 325.661 470.486 326.073 471.314 326.901C472.347 327.726 472.759 328.756 472.759 330.201V331.026C472.555 331.442 472.555 331.646 472.555 332.267C471.727 332.267 470.904 332.059 470.077 332.059H463.473C463.269 332.474 463.269 332.679 463.269 332.887V333.504C463.269 334.949 463.681 336.187 464.296 337.012C465.124 337.632 466.156 338.042 467.391 338.042C468.014 338.042 468.631 338.042 469.252 337.837C469.869 337.425 470.486 337.217 471.314 336.597C471.314 336.802 471.109 337.012 471.109 337.217C471.112 337.422 471.112 337.629 470.905 337.834ZM463.476 331.023H463.681C465.331 331.228 466.364 331.228 467.186 331.228H468.631C469.047 331.228 469.872 331.023 470.7 331.023V330.403V329.991C470.7 328.75 470.489 327.925 470.077 327.308C469.459 326.688 468.836 326.483 467.809 326.483C466.776 326.483 465.949 326.898 465.126 327.723C464.218 328.604 463.636 329.768 463.476 331.023ZM472.762 338.454C472.967 338.25 473.175 337.834 473.175 337.629C473.38 337.214 473.587 336.802 473.587 336.389C473.798 337.009 474.21 337.629 474.828 337.834C475.243 338.25 475.86 338.25 476.478 338.25C477.306 338.25 478.134 338.042 478.546 337.629C479.163 337.009 479.579 336.389 479.579 335.564C479.57 335.182 479.423 334.815 479.163 334.534C478.959 334.119 478.341 333.706 477.309 333.089C476.495 332.62 475.733 332.067 475.035 331.439C474.623 331.023 474.623 330.406 474.623 329.789C474.623 328.756 475.035 327.723 475.863 326.898C476.685 326.07 477.718 325.658 478.959 325.658H480.199C480.612 325.863 481.021 325.863 481.644 326.07C481.439 326.486 481.232 326.691 481.232 327.103C481.232 327.308 481.021 327.723 481.021 327.928L480.816 328.133C480.612 327.513 480.404 327.103 479.994 326.895C479.582 326.688 479.166 326.48 478.754 326.48C477.926 326.48 477.309 326.685 476.899 327.1C476.483 327.513 476.071 328.13 476.071 328.75C476.071 329.783 476.899 330.605 478.344 331.433H478.549C479.582 332.05 480.404 332.671 480.816 333.083C481.021 333.496 481.232 334.113 481.232 334.733C481.232 335.974 480.816 337.003 479.786 337.829C478.754 338.858 477.513 339.274 475.863 339.274C475.246 339.274 474.831 339.069 474.213 339.069C473.795 338.864 473.172 338.659 472.762 338.454ZM487.414 325.245C487.619 324.628 487.826 323.595 488.031 322.565C488.236 321.325 488.444 319.882 488.654 318.025H487.622C487.206 318.025 486.794 318.23 486.381 318.23V317.609H491.75V318.23C491.334 318.23 490.922 318.23 490.509 318.025H489.681C489.269 319.47 489.064 320.705 488.859 321.945C488.654 323.183 488.654 324.42 488.444 325.245H487.414ZM491.127 325.245C491.331 324.833 491.539 324.008 491.75 323.18C491.954 322.15 492.162 320.705 492.367 318.434L492.572 317.609H493.195C493.607 318.639 493.812 319.675 494.222 320.705C494.427 321.737 494.845 322.77 495.255 323.8C495.872 322.975 496.495 321.945 497.109 320.912C497.937 319.88 498.555 318.639 499.178 317.609H500C499.795 318.23 499.587 319.262 499.383 320.705C499.178 321.945 498.76 323.595 498.555 325.245H498.35H497.73C497.94 324.628 497.94 323.8 498.145 322.975C498.35 322.15 498.558 321.12 498.762 320.084V319.055L496.908 322.15C496.08 323.18 495.462 324.42 494.845 325.453C494.43 324.213 494.222 323.18 493.812 322.15C493.402 321.12 493.195 320.084 492.779 319.055L492.575 320.084C492.37 321.325 492.37 322.358 492.162 323.18C491.957 324.008 491.957 324.833 491.957 325.245H491.752H491.127Z" fill="#236BB3"/>
</svg>
