<svg width="500" height="77" viewBox="0 0 500 77" fill="none" xmlns="http://www.w3.org/2000/svg">
<mask id="mask0_29_1340" style="mask-type:luminance" maskUnits="userSpaceOnUse" x="0" y="0" width="133" height="76">
<path d="M0.839844 0.839844H132.822V75.4605H0.839844V0.839844Z" fill="white"/>
</mask>
<g mask="url(#mask0_29_1340)">
<path d="M130.03 15.6404C125.522 0.630545 95.6601 -3.68429 63.3297 6.03934C61.7981 6.47694 60.3102 6.97582 58.8224 7.48344C87.7307 0.779306 112.849 5.19914 116.823 18.4499C121.199 32.9784 98.5308 52.6269 66.2004 62.333C65.4478 62.5519 64.7301 62.7619 63.9949 62.9719L79.0573 10.923L78.9874 10.9321L79.0224 10.923L75.0751 11.1943C67.6884 11.9295 59.8289 13.4699 51.7857 15.8767C19.4554 25.6004 -3.1076 45.6339 1.41725 60.6701C5.9246 75.68 35.7956 79.9773 68.1347 70.2624C69.6576 69.8073 71.163 69.3172 72.6421 68.8271C43.725 75.5137 18.6064 71.1114 14.6242 57.8607C10.2569 43.3147 32.9249 23.6749 65.264 13.96C65.9467 13.7588 66.6293 13.5574 67.3033 13.3649L52.4422 65.3612L56.3894 65.1074C63.7761 64.3722 71.6356 62.8231 79.67 60.4163C112 50.7014 134.546 30.6503 130.03 15.6404Z" fill="#145199"/>
</g>
<path d="M158.115 53.2835C159.183 53.3972 160.505 53.441 162.071 53.441C166.964 53.441 171.287 52.3995 174.053 50.439C176.932 48.4348 178.438 45.7041 178.438 42.4395C178.438 38.326 174.806 36.0854 167.463 36.0854C165.703 36.0854 164.391 36.1642 163.445 36.2779L158.115 53.2835ZM155.551 32.2433C159.183 31.8584 163.008 31.666 166.964 31.666C173.799 31.666 179.129 32.4712 182.577 34.2829C186.157 36.0158 188.223 38.5889 188.223 42.2473C188.223 47.3235 184.774 51.9009 179.567 54.4828C174.674 56.9072 168.469 57.9399 159.314 57.9399C154.229 57.9399 149.836 57.6687 147.709 57.4413L155.551 32.2433Z" fill="#211E1E"/>
<path d="M225.096 46.7797L224.282 41.2046C224.098 39.778 223.905 37.7037 223.722 36.1283H223.529C222.461 37.7037 221.271 39.708 220.142 41.2046L216.002 46.7797H225.096ZM213.306 51.0157L208.353 57.7461H198.699L219.328 31.8223H230.933L235.826 57.7461H226.356L225.472 51.0157H213.306Z" fill="#211E1E"/>
<path d="M254.197 57.747L262.223 31.8145H272.822L278.406 41.7044C280.104 45.0127 281.224 47.7083 282.23 50.5527H282.423C282.607 47.9008 283.237 45.0564 284.366 41.2492L287.254 31.8145H295.717L287.692 57.747H278.344L272.445 47.402C270.572 43.8574 269.443 41.5118 268.314 38.3611H268.122C267.684 40.8992 266.678 44.5488 265.426 48.671L262.599 57.747H254.197Z" fill="#211E1E"/>
<path d="M333.22 46.7797L332.406 41.2046C332.213 39.778 332.029 37.7037 331.837 36.1283H331.653C330.585 37.7037 329.395 39.708 328.266 41.2046L324.126 46.7797H333.22ZM321.431 51.0157L316.477 57.7461H306.814L327.452 31.8223H339.049L343.941 57.7461H334.471L333.596 51.0157H321.431Z" fill="#211E1E"/>
<path d="M379.378 31.8223L376.236 41.896H391.544L394.677 31.8223H403.77L395.745 57.7461H386.713L390.038 46.8234H374.67L371.353 57.7461H362.32L370.346 31.8223H379.378Z" fill="#211E1E"/>
<path d="M445.352 46.7097H430.359L428.416 53.02H445.291L443.785 57.7461H417.879L425.913 31.8223H450.936L449.43 36.5485H433.501L431.742 42.0535H446.857L445.352 46.7097Z" fill="#211E1E"/>
<mask id="mask1_29_1340" style="mask-type:luminance" maskUnits="userSpaceOnUse" x="462" y="31" width="38" height="28">
<path d="M462.182 31.2188H499.159V58.1053H462.182V31.2188Z" fill="white"/>
</mask>
<g mask="url(#mask1_29_1340)">
<path d="M477.585 43.3569H481.287C486.18 43.3569 489.75 41.554 489.75 39.0158C489.75 36.9328 486.932 36.0139 483.291 36.0139C481.602 36.0139 480.534 36.0927 479.782 36.2063L477.585 43.3569ZM472.071 32.3205C474.889 31.8916 479.152 31.6641 483.361 31.6641C487.37 31.6641 491.51 32.0141 494.459 33.1607C497.216 34.1672 499.159 35.7776 499.159 38.2019C499.159 42.0528 495.019 44.4334 489.567 45.5187V45.6237C492.07 46.3239 493.199 48.013 493.575 50.3586C494.144 53.2818 494.459 56.6689 495.212 57.7454H485.926C485.549 57.054 485.112 54.8222 484.735 51.6277C484.298 48.4769 482.539 47.5142 478.968 47.5142H476.211L473.069 57.7454H464.168L472.071 32.3205Z" fill="#211E1E"/>
</g>
</svg>
