<svg width="500" height="266" viewBox="0 0 500 266" fill="none" xmlns="http://www.w3.org/2000/svg">
<path d="M280.604 60.0592C280.604 60.0592 268.343 77.8435 246.055 95.595C246.055 95.595 265.154 67.8172 267.422 50.0657C267.422 50.0657 248.783 42.7679 240.598 34.5825C240.598 34.5825 256.048 42.7679 271.498 32.3143C271.498 32.3143 275.147 21.3675 273.799 5.45694C273.799 5.45694 282.872 17.2913 283.793 30.046C283.793 30.046 301.544 23.2084 306.541 0C306.541 0 313.346 23.2084 291.978 43.2281C291.978 43.2281 310.157 49.1453 316.074 74.1946C316.074 75.0822 308.349 57.3307 280.604 60.0592Z" fill="#FFA81E"/>
<path fill-rule="evenodd" clip-rule="evenodd" d="M98.2248 131.986C98.2248 165.22 77.2847 187.081 39.5464 187.081H0.42735V79.1915C8.15253 78.271 17.2584 77.3834 35.0099 77.3834C76.3971 76.9232 98.2248 96.9429 98.2248 131.986ZM72.288 131.986C72.288 107.857 60.9139 94.6747 36.8179 94.6747C33.169 94.6747 29.5529 94.6747 25.904 95.1349V169.79H35.8974C55.0296 169.79 72.288 162.032 72.288 131.986ZM326.989 158.843V76.463C328.83 76.0028 332.018 75.5425 335.634 75.5425C343.82 75.5425 352.005 78.271 352.005 89.678V101.94H377.942V119.724H352.005V157.495C352.005 165.681 357.035 169.79 363.379 169.79C370.677 169.79 376.134 165.681 377.482 164.76C378.863 166.601 382.479 171.598 382.479 175.707C382.479 177.055 382.051 178.896 380.671 180.243C379.29 181.624 372.485 188.429 356.114 188.429C332.018 188.001 326.989 173.866 326.989 158.843ZM276.956 99.2112L259.698 148.85L246.483 187.081H218.738L206.476 151.578C180.999 80.1119 152.334 38.2316 103.682 38.2316C76.8573 38.2316 58.1854 49.6057 43.1953 62.3604C42.735 62.8207 42.2748 62.8207 41.8146 62.8207C40.9161 62.8207 40.4668 62.3604 40.4668 61.44C40.4668 60.9798 40.4668 60.5195 41.3544 59.632C55.9172 43.6885 77.7449 29.5859 110.059 29.5859C149.178 29.5859 198.751 50.5261 226.923 134.287L234.681 156.575C234.681 156.575 240.138 137.903 243.327 126.989C247.863 110.158 257.396 100.592 276.956 99.2112ZM284.254 100.132C299.244 103.781 309.27 113.347 309.27 127.449V186.621H298.356C289.25 186.621 284.254 182.084 284.254 172.518V100.132ZM183.728 165.681C183.728 174.786 185.108 181.624 187.837 185.7C185.536 186.621 181.92 187.969 175.542 187.969C163.708 187.969 161.9 181.624 160.98 178.435C158.251 181.164 150.986 187.969 134.155 187.969C120.513 187.969 105.95 179.783 105.95 161.111C105.95 139.744 127.778 132.446 155.062 132.446H159.172V130.638C159.172 121.532 151.907 116.963 140.993 116.963C129.158 116.963 118.245 122.88 115.976 124.26C114.135 121.532 111.867 117.883 111.867 113.774C111.867 106.049 125.97 100.132 144.609 100.132C169.625 100.132 183.268 108.777 183.268 132.446V165.681H183.728ZM157.824 145.201C144.181 145.201 130.079 148.85 130.079 160.224C130.079 167.489 135.076 172.518 143.721 172.518C152.794 172.518 157.824 167.489 158.711 166.141C159.632 165.22 160.092 163.401 160.092 160.684V145.201H157.824ZM468.014 165.681C468.014 174.786 469.362 181.624 472.091 185.7C469.822 186.621 466.174 187.969 459.829 187.969C447.995 187.969 446.187 181.624 445.266 178.435C442.538 181.164 435.273 187.969 418.442 187.969C404.799 187.969 390.237 179.783 390.237 161.111C390.237 139.744 412.064 132.446 439.349 132.446H443.458V130.638C443.458 121.532 436.16 116.963 425.247 116.963C413.445 116.963 402.498 122.88 400.23 124.26C398.422 121.532 396.154 117.883 396.154 113.774C396.154 106.049 410.256 100.132 428.895 100.132C453.912 100.132 467.554 108.777 467.554 132.446V165.681H468.014ZM441.65 145.201C427.975 145.201 413.905 148.85 413.905 160.224C413.905 167.489 418.902 172.518 427.548 172.518C436.621 172.518 441.65 167.489 442.538 166.141C443.458 165.22 443.918 163.401 443.918 160.684V145.201H441.65ZM8.64563 233.038C9.56607 233.038 9.99342 233.038 10.4536 232.577C10.9139 232.577 11.3741 232.15 11.8343 231.69L24.096 217.127C24.5562 216.667 25.0164 216.207 25.4767 215.746C25.9369 215.746 26.3971 215.286 27.2847 215.286H32.7416L18.2117 232.577C17.7515 233.038 17.2913 233.498 16.831 233.958C16.3708 234.418 15.9106 234.418 15.4504 234.879C15.9106 234.879 16.3708 235.339 16.831 235.766C17.2913 236.226 17.7515 236.687 18.2117 237.147L33.2018 256.279C32.7416 256.279 26.3971 256.279 26.3971 256.279C25.9369 256.279 25.9369 256.279 25.4767 255.819L24.5562 254.898L11.8343 239.415C11.8343 238.955 11.3741 238.955 11.3741 238.955L10.9139 238.495C10.4536 238.495 10.4536 238.495 9.99343 238.067C9.56607 238.067 9.10585 238.067 9.10585 238.067H6.83761V256.279H0V215.746H6.37738V233.038H8.64563ZM44.1157 218.935C44.1157 219.395 44.1157 219.855 43.6555 220.316C43.6555 220.743 43.1953 221.203 42.735 221.664C42.3077 222.124 41.8475 222.124 41.3872 222.584C40.927 222.584 40.4668 223.044 40.0066 223.044C39.5792 223.044 39.119 223.044 38.6588 222.584C38.1986 222.584 37.7383 222.124 37.2781 221.664C36.8508 221.203 36.8508 220.743 36.3905 220.316C36.3905 219.855 35.9303 219.395 35.9303 218.935C35.9303 218.475 35.9303 218.015 36.3905 217.587C36.3905 217.127 36.8508 216.667 37.2781 216.207C37.7383 215.746 38.1986 215.746 38.6588 215.286C39.119 215.286 39.5792 214.826 40.0066 214.826C40.4668 214.826 40.927 214.826 41.3872 215.286C41.8475 215.286 42.3077 215.746 42.735 216.207C43.1953 216.667 43.1953 217.127 43.6555 217.587C44.1157 217.587 44.1157 218.015 44.1157 218.935ZM37.2781 227.581H43.1953V256.279H37.2781V227.581ZM75.0493 255.786H71.4004C70.5019 255.786 70.0526 255.337 70.0526 254.438L69.5924 251.249C68.2117 252.597 66.8639 253.978 65.4832 254.438C64.1245 255.337 62.3055 255.786 60.0263 255.786C58.2183 255.786 56.8376 255.326 55.4898 254.865C54.1091 254.438 53.2216 253.518 52.3011 252.137C51.3807 250.789 50.4931 249.408 50.0329 247.6C49.5726 245.759 49.1124 243.491 49.1124 241.223C49.1124 238.955 49.5726 237.114 50.0329 235.306C50.4931 233.498 51.3807 232.117 52.3011 230.736C53.2216 229.389 54.5694 228.468 56.4103 227.581C57.7581 226.66 59.5661 226.2 61.407 226.2C63.215 226.2 64.5957 226.66 65.4832 227.12C66.8639 227.581 67.7515 228.468 68.6719 229.389V213.905H75.0493V255.786ZM69.1321 234.385C68.2117 233.498 67.3241 232.577 66.4037 232.117C65.4832 231.657 64.1354 231.657 63.215 231.657C60.9358 231.657 59.1168 232.566 57.7581 234.385C56.4103 236.226 55.95 238.495 55.95 242.143C55.95 243.951 55.95 245.332 56.4103 246.68C56.8376 248.061 57.2978 248.948 57.7581 249.869C58.2183 250.789 59.1387 251.249 60.0263 251.677C60.9467 252.137 61.8672 252.137 62.7548 252.137C64.1354 252.137 65.4832 251.677 66.8639 251.249C67.7515 250.789 69.1321 249.408 70.0526 248.521V234.385H69.1321ZM88.2314 231.197C88.6916 230.769 89.5792 229.849 90.0394 229.389C90.4997 228.928 91.4201 228.468 92.3077 228.008C93.2281 227.581 93.6884 227.581 94.5759 227.12C95.4964 227.12 96.4168 226.66 97.3044 226.66C98.6851 226.66 100.033 227.12 101.414 227.581C102.761 228.008 103.682 228.928 104.602 229.849C105.49 230.769 105.95 232.117 106.41 233.498C106.87 234.846 106.87 236.226 106.87 238.034V256.246H100.953V238.034C100.953 236.226 100.493 234.385 99.6055 233.498C98.6851 232.577 97.3044 231.657 95.4964 231.657C94.1486 231.657 92.7679 232.117 91.8475 232.577C90.4997 233.038 89.5792 233.925 88.6916 235.306V256.246H82.7745V227.581H85.9632C86.8617 227.581 87.311 228.03 87.311 228.928L88.2314 231.197ZM118.245 242.571H118.277C118.256 242.439 118.245 242.286 118.245 242.111V242.571ZM119.165 246.22C119.625 247.6 120.085 248.488 120.973 249.408C121.893 250.329 122.354 250.789 123.702 251.249C124.622 251.677 125.97 251.677 126.89 251.677C128.271 251.677 129.158 251.677 130.079 251.249C130.999 250.789 131.887 250.789 132.347 250.329C132.807 249.869 133.728 249.869 134.155 249.408C134.615 248.948 135.076 248.948 135.536 248.948C135.996 248.948 136.456 248.948 136.456 249.408L138.264 251.677C137.344 252.597 136.884 253.057 135.996 253.978C135.076 254.416 134.166 254.865 133.268 255.326C132.347 255.786 130.999 255.786 130.079 256.246C129.158 256.246 127.811 256.706 126.89 256.706C125.082 256.706 123.241 256.246 121.433 255.786C119.625 255.326 118.245 253.978 116.897 253.057C115.516 251.677 114.629 250.329 114.168 248.061C113.248 246.22 113.248 243.951 113.248 241.223C113.248 239.415 113.708 237.574 114.168 235.766C114.629 233.925 115.516 232.577 116.897 231.197C118.245 229.849 119.625 228.928 120.973 228.008C122.814 227.12 124.622 227.12 126.89 227.12C128.698 227.12 130.079 227.548 131.887 228.008C133.268 228.468 134.637 229.378 135.996 230.736C136.895 231.657 137.804 233.027 138.725 234.846C139.185 236.654 139.645 238.495 139.645 240.303C139.645 241.223 139.645 241.683 139.185 242.143C139.185 242.571 138.725 242.571 138.264 242.571H118.277C118.343 244.182 118.738 245.398 119.165 246.22ZM132.807 238.495C132.807 237.574 132.807 236.654 132.347 235.766C131.887 234.846 131.427 233.925 130.999 233.498C130.539 233.038 129.619 232.117 128.698 232.117C127.811 231.657 126.89 231.657 125.97 231.657C123.702 231.657 121.893 232.117 120.973 233.498C119.625 234.846 118.705 236.654 118.705 238.955H132.807V238.495ZM168.738 227.548L152.827 263.971C152.827 264.431 152.367 264.892 151.907 264.892C151.446 265.352 150.986 265.352 150.559 265.352H145.989L151.446 253.945L139.645 227.548H145.102C145.529 227.548 145.989 227.548 146.45 228.008C146.91 228.468 146.91 228.468 146.91 228.928L153.715 245.299C153.715 245.759 154.175 246.22 154.175 246.68C154.175 247.14 154.635 247.6 154.635 248.028C154.635 247.6 155.095 247.14 155.095 246.68C155.095 246.22 155.556 245.759 155.556 245.299L161.9 228.928C161.9 228.468 162.36 228.468 162.36 228.008C162.821 228.008 162.821 227.548 163.281 227.548H168.738ZM214.234 247.14C214.661 247.14 214.661 247.14 215.122 247.6L217.85 250.329C216.042 252.137 214.234 253.945 211.933 254.865C209.665 255.786 206.476 256.706 203.287 256.706C200.132 256.706 197.83 256.246 195.102 255.326C192.834 254.405 190.565 253.057 189.218 251.216C187.377 249.408 186.029 247.14 185.108 244.872C184.21 242.132 183.761 239.393 183.761 236.654C183.761 233.476 184.21 230.747 185.108 228.468C186.029 225.74 187.377 223.932 189.218 222.091C191.026 220.283 192.834 218.902 195.562 218.015C198.291 217.094 200.559 216.634 203.748 216.634C206.476 216.634 209.204 217.094 211.506 218.015C213.774 218.902 215.582 220.283 217.39 221.631L215.122 224.819L214.661 225.28C214.661 225.28 214.234 225.28 213.774 225.28C213.314 225.28 212.853 225.28 212.393 224.819C211.933 224.359 211.506 223.932 210.585 223.472C209.665 223.011 208.755 222.551 207.857 222.091C206.936 221.631 205.128 221.631 203.748 221.631C201.939 221.631 200.131 222.091 198.291 222.551C196.483 223.011 195.102 224.359 194.214 225.28C192.834 226.66 191.946 228.008 191.486 229.849C191.026 231.657 190.565 233.925 190.565 236.193C190.565 238.495 191.026 240.763 191.486 242.571C191.946 244.412 193.294 246.22 194.214 247.14C195.573 248.499 196.932 249.408 198.291 249.869C200.131 250.329 201.479 250.789 203.287 250.789C204.208 250.789 205.588 250.789 206.476 250.789C207.396 250.789 208.317 250.329 208.777 250.329C209.665 249.869 210.125 249.869 211.045 249.408C211.506 248.948 212.393 248.488 212.853 248.028C213.314 247.14 213.774 247.14 214.234 247.14ZM221.499 231.197C224.688 228.008 228.764 226.66 232.873 226.66C234.681 226.66 236.062 227.088 237.41 227.548C238.79 228.008 239.678 228.928 240.598 229.849C241.519 230.736 241.979 232.117 242.406 233.465C242.867 234.846 243.327 236.193 243.327 238.034V256.246H240.598C240.138 256.246 239.678 256.246 239.25 255.786C238.79 255.786 238.79 255.326 238.33 254.865L237.87 252.597C236.949 253.057 236.522 253.945 235.602 254.405C234.681 254.865 234.221 255.326 233.333 255.786C232.413 256.246 231.953 256.246 231.032 256.706C230.145 256.706 229.224 257.134 228.304 257.134C226.956 257.134 226.036 257.134 225.148 256.706C224.227 256.246 223.318 255.786 222.419 255.326C221.499 254.865 221.039 253.945 220.579 253.057C220.118 252.137 220.118 250.789 220.118 249.869C220.118 248.948 220.579 247.6 221.039 246.68C221.499 245.759 222.409 244.85 223.767 243.951C225.148 243.031 226.956 242.571 229.224 241.683C231.492 241.223 234.221 240.763 237.41 240.763V238.955C237.41 236.654 236.949 235.306 236.062 234.385C235.141 233.487 233.772 233.038 231.953 233.038C230.605 233.038 229.684 233.038 229.224 233.465C228.764 233.925 227.876 233.925 226.956 234.385C226.496 234.846 226.036 234.846 225.575 235.306C225.148 235.766 224.688 235.766 224.227 235.766C223.767 235.766 223.307 235.766 223.307 235.306C222.847 235.306 222.847 234.846 222.419 234.385L221.499 231.197ZM237.87 243.491C235.602 243.491 233.761 243.951 232.413 243.951C231.032 243.951 229.684 244.412 228.764 244.839C227.844 245.299 227.383 245.76 226.956 246.22C226.496 246.68 226.496 247.6 226.496 248.028C226.496 248.488 226.496 249.408 226.956 249.869C226.956 250.329 227.383 250.756 227.844 251.216C228.304 251.677 228.764 251.677 229.224 251.677C229.684 251.677 230.112 251.677 231.032 251.677C232.413 251.677 233.761 251.216 235.141 250.756C236.029 250.329 237.41 249.408 238.33 248.028V243.491H237.87ZM256.509 232.577C257.396 230.736 258.317 229.389 259.698 228.468C261.045 227.548 262.426 227.088 264.234 227.088C264.694 227.088 265.615 227.088 266.042 227.088C266.502 227.088 266.963 227.548 267.423 227.548L266.963 232.117C266.963 232.577 266.963 232.577 266.502 232.577C266.042 232.577 265.615 232.577 264.694 232.577C264.234 232.577 263.774 232.577 262.886 232.577C261.966 232.577 261.506 232.577 260.585 233.005C260.125 233.465 259.237 233.465 258.777 233.925C258.317 234.385 257.857 234.846 257.396 235.766C256.969 236.193 256.509 237.114 256.509 238.034V255.786H250.592V227.548H254.241C254.668 227.548 255.128 227.548 255.588 228.008C256.049 228.468 256.049 228.468 256.049 229.389L256.509 232.577ZM274.688 242.571H274.721C274.699 242.439 274.688 242.286 274.688 242.111V242.571ZM275.608 246.22C276.068 247.6 276.529 248.488 277.416 249.408C278.337 250.329 278.797 250.789 280.145 251.249C281.065 251.677 282.446 251.677 283.333 251.677C284.714 251.677 285.602 251.677 286.522 251.249C287.442 250.789 288.33 250.789 288.79 250.329C289.25 249.869 290.171 249.869 290.631 249.408C291.059 248.948 291.519 248.948 291.979 248.948C292.439 248.948 292.899 248.948 292.899 249.408L294.707 251.677C293.82 252.597 293.36 253.057 292.439 253.978C291.519 254.416 290.609 254.865 289.711 255.326C288.79 255.786 287.442 255.786 286.522 256.246C285.602 256.246 284.254 256.706 283.333 256.706C281.525 256.706 279.717 256.246 277.876 255.786C276.068 255.326 274.688 253.978 273.34 253.057C271.959 252.137 271.072 250.329 270.611 248.061C269.691 246.22 269.691 243.951 269.691 241.223C269.691 239.415 270.151 237.574 270.611 235.766C271.072 233.925 271.959 232.577 273.34 231.197C274.688 229.849 276.068 228.928 277.416 228.008C279.257 227.12 281.065 227.12 283.333 227.12C285.174 227.12 286.522 227.548 288.33 228.008C289.711 228.468 291.08 229.378 292.439 230.736C293.36 231.657 294.269 233.027 295.168 234.846C295.628 236.654 296.088 238.495 296.088 240.303C296.088 241.223 296.088 241.683 295.628 242.143C295.628 242.571 295.168 242.571 294.707 242.571H274.721C274.786 244.182 275.181 245.398 275.608 246.22ZM289.25 238.495C289.25 237.574 289.25 236.654 288.79 235.766C288.33 234.846 287.903 233.925 287.442 233.498C286.982 233.038 286.062 232.117 285.174 232.117C284.254 231.657 283.333 231.657 282.446 231.657C280.145 231.657 278.337 232.117 277.416 233.498C276.529 234.846 275.148 236.654 275.148 238.955H289.25V238.495ZM490.73 187.969C485.7 187.969 481.657 183.892 481.657 178.863C481.657 173.8 485.7 169.757 490.73 169.757C495.759 169.757 499.836 173.8 499.836 178.863C499.836 183.892 495.759 187.969 490.73 187.969ZM498.028 179.093C498.028 174.918 494.773 171.565 490.73 171.565C486.719 171.565 483.465 174.918 483.465 179.093C483.465 183.235 486.719 186.588 490.73 186.588C494.773 186.588 498.028 183.235 498.028 179.093ZM488.922 184.32H487.574V173.833H491.65C493.918 173.833 495.299 174.754 495.299 177.022C495.299 178.863 493.918 179.75 492.571 179.75L495.299 184.32H493.458L490.73 179.75H488.922V184.32ZM490.73 178.402C492.11 178.402 493.458 178.402 493.458 176.594C493.458 175.674 492.11 175.214 491.19 175.214H488.922V178.402H490.73Z" fill="#0069B1"/>
</svg>
