<svg width="500" height="140" viewBox="0 0 500 140" fill="none" xmlns="http://www.w3.org/2000/svg">
<g clip-path="url(#clip0_29_1339)">
<path d="M0.0664062 0.132219C10.6705 0.0993887 21.2745 0.132219 31.8786 0.0993887C47.2102 -0.064761 62.7716 3.34955 76.0677 11.0646C88.3789 18.123 98.3921 29.2195 103.612 42.45C109.357 56.928 109.85 73.343 105.352 88.215C102.923 81.7803 98.6219 76.1007 93.1065 71.997C85.1944 66.0547 75.7066 62.7389 66.2844 60.0469C57.7158 57.5846 48.8517 56.2058 40.2831 53.7435C31.025 51.1499 21.6685 48.2281 13.658 42.8111C9.65275 40.0863 6.17278 36.5078 3.97317 32.1742C1.11696 26.7245 0.427536 20.5196 0.0664062 14.4789V0.132219ZM0.0664062 64.8729C7.02635 69.0094 14.3146 72.6207 21.9311 75.28C36.5405 80.4999 52.069 82.2727 66.7112 87.2957C72.8832 89.4625 79.3179 91.9247 83.8156 96.882C87.985 101.445 88.5759 108.143 87.788 114.019C86.4091 122.325 80.0401 128.924 72.7519 132.667C61.721 138.346 48.9174 139.659 36.6718 139.069C28.1688 138.215 19.8629 135.851 11.918 132.765C7.8471 131.091 3.74336 129.384 0.0664062 126.921V64.8729Z" fill="#5D5D5F"/>
<path fill-rule="evenodd" clip-rule="evenodd" d="M170.519 0.196232C181.09 0.327551 191.989 4.9894 198.128 13.8207C203.381 21.2402 204.662 31.1877 201.871 39.7891C198.096 51.4766 186.671 59.2245 174.951 61.3584C166.546 62.6059 158.01 60.9973 149.967 58.6007C150.033 39.1325 150 19.6644 150.033 0.196232C156.894 0.196232 163.657 0.163402 170.519 0.196232ZM158.142 53.1181C165.003 54.6939 172.521 55.1864 179.218 52.5928C185.653 50.1962 191.004 44.9106 193.302 38.4103C195.633 31.8771 195.108 24.2277 191.3 18.3184C188.345 13.7222 183.585 10.4392 178.398 8.89617C171.832 6.82788 164.937 7.74712 158.207 7.55014C158.207 22.7504 158.207 37.9178 158.142 53.1181ZM314.937 2.39584C317.673 2.37395 320.409 2.37395 323.145 2.39584C323.178 6.86071 323.112 11.3256 323.178 15.7905C325.848 15.7686 328.529 15.7576 331.221 15.7576C331.221 18.0776 331.221 20.3866 331.221 22.6847C328.529 22.6847 325.837 22.6847 323.145 22.6847C323.145 31.319 323.145 39.9533 323.178 48.6204C323.178 50.6887 323.539 53.2822 325.673 54.2015C327.446 54.6939 329.35 54.4641 331.024 53.709C331.91 55.843 332.731 57.9769 333.552 60.1109C329.186 61.8837 323.736 62.5403 319.599 59.7826C316.152 57.5173 314.97 53.1509 314.937 49.2113C314.905 33.6171 314.937 17.9901 314.937 2.39584ZM436.31 2.85546C436.408 2.75697 436.671 2.52716 436.802 2.42867C439.363 2.29735 441.924 2.42867 444.484 2.36301C444.55 21.864 444.484 41.365 444.517 60.866C441.759 60.866 439.002 60.8988 436.244 60.866C436.277 41.5291 436.211 22.1923 436.31 2.85546ZM242.219 16.6112C247.406 18.581 251.543 23.013 253.316 28.233C254.924 32.5666 254.957 37.2284 254.76 41.7918C242.449 41.8903 230.171 41.7918 217.826 41.8574C218.713 46.4536 221.372 50.8857 225.64 52.9539C233.092 56.8279 242.712 54.4313 248.227 48.3249C250 49.8023 251.773 51.3453 253.545 52.8226C249.737 56.8607 244.944 60.1437 239.363 61.1286C231.32 62.7044 222.324 60.8003 216.283 55.0551C211.326 50.5902 209.127 43.7616 209.356 37.2284C209.586 32.665 210.505 27.9375 213.033 24.0308C215.66 19.7629 220.125 16.841 224.983 15.692C227.084 15.2323 229.317 14.9369 231.484 14.8712C235.161 14.8056 238.805 15.3308 242.219 16.6112ZM225.804 22.8161C220.715 24.4904 217.991 29.9073 217.925 34.9631C227.413 34.9631 236.901 34.996 246.421 34.9631C246.06 30.4983 244.287 25.6723 240.052 23.5055C237.295 22.1923 234.241 21.6014 231.188 21.7655C229.35 21.864 227.511 22.2908 225.804 22.8161ZM342.876 21.1417C345.666 17.2021 350.591 15.3308 355.285 14.9697C362.147 14.6086 369.205 16.4471 374.951 20.2553C373.604 22.1923 372.357 24.1949 371.044 26.1647C366.743 23.3413 361.654 21.6342 356.5 21.6014C353.381 21.7983 349.507 23.013 348.719 26.4602C347.997 28.7911 349.967 30.7609 351.904 31.6801C358.371 34.8975 366.283 34.996 371.963 39.7891C376.1 43.105 376.559 49.3098 374.294 53.8075C372.061 58.1411 367.334 60.6033 362.639 61.3584C354.005 62.6059 345.042 59.9467 338.148 54.7268C339.593 52.9211 341.004 51.0826 342.35 49.1785C347.932 52.8555 354.563 55.7773 361.359 54.7596C364.412 54.2671 367.892 52.1332 367.794 48.6532C367.991 45.9283 365.43 44.1884 363.197 43.3348C356.861 40.774 349.474 40.4457 344.09 35.8824C339.79 32.3367 339.79 25.5081 342.876 21.1417ZM262.442 19.7957C270.026 16.1844 278.529 14.6086 286.933 14.7727C291.825 14.8712 296.914 16.6769 300.197 20.4523C303.119 23.6696 304.432 28.1673 304.497 32.4681C304.497 41.9231 304.497 51.389 304.497 60.866C301.784 60.866 299.07 60.866 296.356 60.866C296.323 52.0019 296.388 43.1378 296.323 34.3065C296.257 30.5968 295.075 26.69 292.022 24.3591C289.1 22.0281 285.161 21.6998 281.549 21.9625C277.774 22.1595 274.031 23.013 270.551 24.556C270.551 36.6703 270.551 48.7845 270.551 60.8988C267.859 60.866 265.134 60.866 262.442 60.866C262.442 47.1759 262.442 33.4858 262.442 19.7957ZM408.765 14.8712C414.675 15.4293 420.617 18.0229 424.36 22.8161C428.726 28.3643 429.612 35.7839 428.857 42.6125C428.135 48.7845 425.147 54.9566 419.763 58.3709C415.66 61.1286 410.604 61.9165 405.745 61.6539C400.788 61.7852 395.929 60.3735 391.267 58.8305C391.267 63.9848 391.234 69.1719 391.267 74.3262C388.542 74.3591 385.883 74.3262 383.158 74.3262C383.191 56.1384 383.191 37.9507 383.158 19.7629C390.118 16.4799 397.767 14.6414 405.45 14.7399C406.544 14.7399 407.649 14.7837 408.765 14.8712ZM391.333 24.6217C391.169 33.2888 391.398 41.9559 391.267 50.6558C396.224 53.4136 401.871 54.7924 407.551 54.7596C411.129 54.6283 414.905 53.4136 417.236 50.4917C420.912 45.9612 421.011 39.7563 420.453 34.2409C419.862 29.2507 416.677 24.4247 411.753 22.9146C409.258 22.1266 406.631 21.7655 404.038 21.7655C399.671 21.7983 395.305 22.8817 391.333 24.6217ZM491.267 15.7576C494.156 15.7576 497.045 15.7576 499.967 15.8233V16.8738V16.0859C493.073 31.5488 486.54 47.143 479.744 62.6388C477.807 66.9067 475.115 71.2074 470.748 73.3085C465.134 75.8036 458.568 74.753 453.151 72.1923C454.114 70.0912 455.077 67.9901 456.04 65.8889C459.094 67.4319 462.672 68.2199 466.086 67.3991C469.435 66.3486 471.109 62.9999 472.652 60.1109C465.331 45.3702 458.273 30.5311 451.05 15.7576C454.038 15.7905 457.025 15.7905 460.046 15.7248C465.693 27.5764 471.109 39.4937 476.658 51.4109C481.517 39.5265 486.386 27.6421 491.267 15.7576ZM156.106 81.0564C161.72 76.887 169.107 76.1319 175.87 76.887C182.403 77.5107 188.706 80.1371 193.795 84.208L193.861 84.7005C192.449 86.7688 190.709 88.5744 189.199 90.5771C184.373 86.7688 178.529 84.1424 172.324 83.8797C168.056 83.6828 163.329 84.4379 160.21 87.5895C156.763 90.8069 157.255 97.34 161.523 99.671C169.041 104.169 178.299 103.676 186.08 107.517C189.987 109.29 193.696 112.278 195.01 116.513C196.848 122.225 195.338 129.021 190.84 133.125C185.916 137.721 178.89 139.264 172.324 138.968C162.902 139.034 153.808 135.094 146.717 129.021C148.49 127.084 150.295 125.147 151.97 123.144C156.861 127.379 162.738 130.761 169.271 131.549C174.491 132.14 180.597 132.008 184.701 128.2C187.327 125.902 187.853 121.962 186.736 118.811C185.029 115.167 180.827 113.886 177.281 112.803C169.928 110.833 161.917 110.111 155.515 105.646C151.805 103.118 149.507 98.7517 149.606 94.2212C149.245 89.0669 151.937 84.0111 156.106 81.0564ZM205.679 80.8266C208.415 80.8266 211.151 80.8266 213.887 80.8266C213.887 83.3873 213.887 85.948 213.887 88.5088C211.151 88.5088 208.415 88.5088 205.679 88.5088C205.679 85.948 205.679 83.3873 205.679 80.8266ZM412.409 97.2087C412.442 110.866 412.508 124.556 412.508 138.213C409.75 138.246 406.993 138.213 404.235 138.213C404.235 137.097 404.235 135.97 404.235 134.832C397.505 138.18 389.757 140.052 382.272 138.673C376.789 137.491 371.963 133.814 369.369 128.857C366.677 123.801 365.988 117.892 366.513 112.278C367.039 107.189 369.107 102.068 372.817 98.4891C376.92 94.451 382.666 92.4484 388.345 92.1857C389.396 92.1201 390.381 92.0872 391.431 92.1201C398.687 92.2514 405.876 94.057 412.409 97.2087ZM385.358 99.8351C380.433 100.886 376.428 104.891 375.377 109.783C374.195 115.134 374.392 121.076 377.019 126.001C378.923 129.678 383.027 131.943 387.13 131.91C393.302 132.37 399.081 129.776 404.235 126.756C404.235 118.483 404.268 110.242 404.235 102.002C400.591 100.328 396.585 99.3098 392.547 99.1457C390.118 99.0472 387.689 99.3098 385.358 99.8351ZM226.034 96.4536C232.14 92.5797 239.691 91.562 246.75 92.3499C250.394 92.8095 253.775 94.2212 256.96 95.9283C255.778 98.0951 254.563 100.229 253.348 102.363C247.767 98.6861 240.085 97.6027 234.241 101.312C234.307 113.591 234.241 125.902 234.274 138.213C231.549 138.213 228.792 138.213 226.034 138.213C226.034 124.293 226.067 110.374 226.034 96.4536ZM293.762 94.648C299.015 97.143 303.151 101.903 304.924 107.484C307.058 114.28 306.599 122.028 302.987 128.233C300.755 132.173 297.111 135.16 293.007 136.933C287.886 139.198 282.14 139.428 276.658 138.903C269.304 138.049 262.147 133.814 258.864 127.051C254.629 118.318 255.482 106.828 262.18 99.5396C265.791 95.5672 270.945 93.2035 276.198 92.4155C277.675 92.2186 279.12 92.1201 280.63 92.1201C285.128 92.0216 289.691 92.711 293.762 94.648ZM277.019 99.3755C272.029 100.196 267.498 103.676 265.857 108.535C264.051 113.853 264.149 120.026 266.907 125.016C269.008 128.922 273.178 131.352 277.478 131.976C282.895 132.895 289.067 131.943 293.237 128.102C297.472 123.899 298.555 117.432 297.505 111.752C296.848 107.353 294.255 103.217 290.315 101.115C287.295 99.4411 283.815 99.0144 280.4 99.1457C279.251 99.1785 278.135 99.2442 277.019 99.3755ZM315.036 97.2087C322.488 93.5974 330.893 92.0216 339.199 92.1201C343.861 92.1201 348.687 93.6631 352.101 96.9461C355.712 100.426 357.19 105.548 357.222 110.472C357.255 119.697 357.222 128.955 357.222 138.213C354.497 138.213 351.74 138.213 348.982 138.213C349.015 129.349 349.015 120.518 349.015 111.654C348.982 108.141 347.833 104.431 345.141 102.035C342.843 100.065 339.757 99.2442 336.769 99.2442C332.14 99.1457 327.478 100.065 323.211 101.871C323.243 113.985 323.211 126.099 323.243 138.213C320.486 138.213 317.761 138.213 315.003 138.213C315.036 124.556 315.003 110.866 315.036 97.2087ZM205.679 93.1378C208.415 93.1378 211.151 93.1378 213.887 93.1378C213.887 108.174 213.887 123.177 213.887 138.213C211.151 138.213 208.415 138.213 205.679 138.213C205.712 123.177 205.679 108.174 205.679 93.1378Z" fill="#5D5D5F"/>
</g>
<defs>
<clipPath id="clip0_29_1339">
<rect width="500" height="139.199" fill="white"/>
</clipPath>
</defs>
</svg>
