<svg width="500" height="536" viewBox="0 0 500 536" fill="none" xmlns="http://www.w3.org/2000/svg">
<path d="M76.7109 282.658C76.7109 259.031 87.5021 247.549 109.776 247.549C130.817 247.549 138.241 260.444 138.241 271.596C138.205 273.623 137.943 275.639 137.46 277.608C126.759 284.431 114.555 287.497 98.0227 287.497H96.8805V288.609C96.8805 303.248 101.329 307.456 111.279 307.456C119.334 307.456 124.114 305.653 125.707 304.03L136.348 309.32C128.638 314.986 119.282 317.964 109.716 317.796C86.6003 317.766 76.7109 307.276 76.7109 282.658ZM96.8203 277.698V278.84H97.9626C109.535 278.84 112.812 277.097 118.763 274.001L119.395 273.67V273.219C120.128 271.628 120.566 269.917 120.687 268.169C120.687 260.504 116.359 257.468 110.197 257.468C98.2331 257.468 96.8203 267.508 96.8203 277.698Z" fill="#61A60E"/>
<path d="M216.334 249.203C209.089 266.247 190.934 281.516 190.754 281.667L189.671 282.538L190.784 283.41C190.994 283.41 211.825 300.093 216.544 316.475H197.637C193.97 305.744 182.608 294.772 182.247 294.322L181.495 293.57L180.714 294.322C180.233 294.802 169.291 305.744 165.684 316.475H146.777C151.106 300.183 172.027 283.651 172.267 283.41L173.349 282.538L172.267 281.667C172.087 281.516 153.931 266.247 146.988 249.203H166.286C169.134 257.586 174.154 265.065 180.834 270.876L181.525 271.417L182.217 270.846C188.944 265.027 194.058 257.573 197.066 249.203H216.334Z" fill="#61A60E"/>
<path d="M226.645 282.658C226.645 259.693 238.909 247.549 262.084 247.549C271.078 247.37 279.858 250.301 286.943 255.845L275.971 261.226C274.558 259.542 270.531 258.22 262.655 258.22C252.375 258.22 247.385 264.652 247.385 282.658C247.385 300.663 252.375 307.125 262.655 307.125C270.561 307.125 274.679 305.562 276.001 303.849L286.943 309.32C279.897 314.951 271.102 317.94 262.084 317.766C238.909 317.766 226.645 305.623 226.645 282.658Z" fill="#61A60E"/>
<path d="M296.141 282.658C296.141 260.685 308.825 247.549 330.017 247.549C351.209 247.549 363.623 260.685 363.623 282.658C363.623 304.631 351.088 317.766 330.017 317.766C308.946 317.766 296.141 304.631 296.141 282.658ZM316.851 282.658C316.851 300.693 320.939 306.344 330.017 306.344C339.095 306.344 342.912 300.903 342.912 282.658C342.912 264.412 339.065 258.971 330.017 258.971C320.969 258.971 316.851 264.682 316.851 282.658Z" fill="#61A60E"/>
<path d="M391.457 247.188C394.719 248.387 397.72 250.203 400.294 252.538L400.926 253.38L401.767 252.808C407.754 249.365 414.52 247.503 421.426 247.398C429.512 247.398 435.343 248.991 438.77 252.087L439.311 252.598L439.972 252.267C445.944 249.294 452.483 247.634 459.15 247.398C474.54 247.398 480.041 253.41 480.041 259.271V316.383H461.134V266.876C461.134 259.812 460.352 257.858 455.122 257.858C452.625 257.736 450.138 258.258 447.901 259.374C445.664 260.49 443.751 262.162 442.347 264.231V264.501V316.233H423.47V266.876C423.47 259.812 422.688 257.858 417.458 257.858C414.96 257.748 412.476 258.281 410.244 259.408C408.012 260.534 406.108 262.216 404.713 264.291L404.563 264.562V316.233H385.686V262.878C385.686 258.339 381.207 254.191 376.277 251.636L391.457 247.188Z" fill="#61A60E"/>
<path d="M0 246.768H26.3917C50.7995 246.768 62.6427 258.31 62.6427 281.997C62.6427 305.683 50.7995 317.556 26.3917 317.556H0V246.768ZM19.3279 257.619V306.825H26.9929L30.1491 306.555C37.6939 304.21 41.4212 297.777 41.4212 282.057C41.4212 267.839 38.4153 261.677 32.2231 258.43C30.5083 257.908 28.7253 257.645 26.9328 257.649L19.3279 257.619Z" fill="#61A60E"/>
<path d="M492.035 247.549C493.4 247.571 494.741 247.921 495.942 248.571C497.213 249.263 498.257 250.306 498.948 251.577C499.645 252.782 500.008 254.152 500 255.545C500.004 256.923 499.652 258.279 498.978 259.482C498.287 260.753 497.243 261.796 495.972 262.488C494.77 263.167 493.415 263.529 492.035 263.54C490.653 263.537 489.296 263.174 488.097 262.488C486.819 261.806 485.773 260.76 485.091 259.482C484.409 258.282 484.046 256.926 484.039 255.545C484.042 254.149 484.415 252.78 485.121 251.577C485.803 250.299 486.849 249.253 488.127 248.571C489.327 247.918 490.669 247.567 492.035 247.549ZM492.035 248.871C490.901 248.887 489.787 249.176 488.788 249.713C487.748 250.293 486.886 251.145 486.293 252.178C485.729 253.189 485.43 254.326 485.422 255.484C485.416 256.635 485.717 257.766 486.293 258.761C486.854 259.808 487.711 260.665 488.758 261.226C489.757 261.793 490.886 262.094 492.035 262.097C493.183 262.09 494.311 261.79 495.311 261.226C496.343 260.645 497.196 259.793 497.776 258.761C498.34 257.76 498.64 256.633 498.648 255.484C498.644 254.322 498.333 253.181 497.746 252.178C497.166 251.146 496.313 250.293 495.281 249.713C494.282 249.176 493.169 248.887 492.035 248.871ZM488.548 259.873V251.336H491.554C492.283 251.309 493.013 251.39 493.718 251.577C494.159 251.719 494.54 252.004 494.8 252.388C495.059 252.758 495.195 253.2 495.191 253.651C495.198 253.952 495.143 254.252 495.029 254.531C494.916 254.811 494.745 255.063 494.53 255.274C494.052 255.74 493.422 256.017 492.756 256.056C493.025 256.155 493.27 256.309 493.478 256.506C493.949 257.027 494.372 257.591 494.74 258.19L495.792 259.873H494.109L493.327 258.52C492.981 257.778 492.503 257.106 491.915 256.536C491.582 256.327 491.195 256.222 490.802 256.236H489.991V259.873H488.548ZM489.931 255.064H491.614C492.18 255.119 492.748 254.992 493.237 254.703C493.371 254.588 493.479 254.445 493.551 254.284C493.624 254.123 493.661 253.948 493.658 253.771C493.667 253.524 493.593 253.28 493.448 253.08C493.298 252.884 493.101 252.729 492.876 252.629C492.418 252.563 491.952 252.563 491.494 252.629H489.931V255.064Z" fill="#61A60E"/>
</svg>
