<svg width="500" height="657" viewBox="0 0 500 657" fill="none" xmlns="http://www.w3.org/2000/svg">
<mask id="mask0_27_305" style="mask-type:luminance" maskUnits="userSpaceOnUse" x="0" y="0" width="500" height="657">
<path d="M500 0H0V656.25H500V0Z" fill="white"/>
</mask>
<g mask="url(#mask0_27_305)">
<path d="M495.912 70.946V0H395.776V1.36435H355.585V0H208.446V1.36435H202.997V0H128.746V1.36435H123.297V0H5.44922V70.946H6.81162V75.7213H5.44922V409.304H6.81162V414.761H5.44922V491.164H123.297V489.8H128.746V491.164H307.901V489.8H361.035V491.164H495.912V417.49H493.869V409.304H495.912V313.117H493.869V307.66H495.912V153.489L493.869 151.443V99.5971H495.912V75.7213H493.869V70.946H495.912Z" fill="#898D8D"/>
<path d="M495.912 409.304H357.629L365.804 313.117H495.912V307.66H366.484L371.934 242.171H376.021C402.995 242.133 429.193 233.14 450.518 216.599C471.842 200.059 487.088 176.904 493.869 150.76L495.912 153.489V99.5971C494.592 91.3971 492.306 83.3824 489.101 75.7213H495.912V70.946H487.057C478.887 52.4839 466.271 36.3393 450.341 23.9579C434.411 11.5765 415.663 3.34479 395.776 0H355.585C335.699 3.34479 316.951 11.5765 301.02 23.9579C285.09 36.3393 272.476 52.4839 264.305 70.946H208.446V0H202.997V70.946H128.746V0H123.297V70.946H5.44922V75.7213H123.297V409.304H5.44922V414.761H123.297V491.164H128.746V414.761H170.981C205.097 456.931 254.141 484.298 307.901 491.164H361.035C413.616 484.372 461.742 458.084 495.912 417.49V409.304ZM481.607 70.946H386.92L393.051 4.77521C412.148 7.54301 430.253 15.0459 445.718 26.602C461.184 38.1581 473.52 53.4011 481.607 70.946ZM376.021 3.41086H387.602L382.152 70.2637H270.436C279.879 50.2301 294.825 33.3038 313.523 21.4648C332.221 9.62573 353.899 3.3636 376.021 3.41086ZM281.335 197.148C276.566 218.977 262.261 228.528 237.057 228.528H208.446V118.698C223.491 107.066 239.977 97.436 257.493 90.0471C255.315 99.9051 254.173 109.965 254.087 120.062C254.053 148.13 263.676 175.352 281.335 197.148ZM208.446 112.559V88.6824H248.637C234.281 94.8978 220.775 102.921 208.446 112.559ZM128.746 88.6824H156.676V168.496C143.642 189.031 134.197 211.638 128.746 235.349V88.6824ZM156.676 178.729V384.746C138.417 353.496 128.794 317.943 128.794 281.737C128.794 245.532 138.417 209.979 156.676 178.729ZM128.746 328.125C134.197 351.836 143.642 374.444 156.676 394.978V397.024H128.746V328.125ZM334.468 487.754C304.537 487.656 274.981 481.082 247.821 468.485C220.662 455.886 196.542 437.56 177.112 414.761H352.179L345.368 487.754H334.468ZM350.817 487.071L356.948 414.761H491.826C474.336 435.635 452.848 452.788 428.629 465.207C404.41 477.627 377.952 485.062 350.817 487.071ZM361.035 307.66H347.411C347.204 312.229 346.749 316.784 346.048 321.303C339.237 368.374 314.032 397.024 276.566 397.024H208.446V247.629H236.376C276.566 247.629 283.379 263.318 283.379 296.063V300.156H302.452V217.613C321.295 231.718 343.72 240.229 367.166 242.171L361.035 307.66ZM367.166 236.714C343.418 235.066 320.784 226 302.452 210.791V173.272H283.379V177.365C283.541 180.79 283.312 184.224 282.697 187.598V190.326C267.234 170.176 258.852 145.475 258.855 120.062C259.059 109.438 260.662 98.8868 263.623 88.6824H275.885C309.264 88.6824 329.019 106.419 334.468 141.892C335.287 146.39 335.517 150.977 335.15 155.535H354.904L349.455 75.7213L381.471 80.4963L367.166 236.714ZM376.021 236.714H372.615L386.24 81.861C426.307 92.5551 462.329 114.863 489.781 145.985C483.797 171.729 469.306 194.696 448.659 211.163C428.012 227.631 402.417 236.634 376.021 236.714ZM492.507 120.062C492.415 126.676 491.961 133.281 491.144 139.846C463.1 109.388 426.934 87.6096 386.92 77.0853V75.7213H483.651C489.397 89.8015 492.402 104.852 492.507 120.062Z" fill="white"/>
<path d="M147.82 538.234C143.471 539.858 138.83 540.555 134.196 540.281H123.978V543.692H135.559V597.584C134.19 593.55 131.637 590.023 128.234 587.467C124.83 584.911 120.735 583.444 116.485 583.258C102.861 583.258 89.2368 596.901 89.2368 618.731C89.2368 640.56 102.18 655.568 117.847 655.568C133.515 655.568 130.79 651.475 135.559 642.607V653.522H158.038V649.428H147.82V538.234ZM135.559 631.01C132.834 641.925 127.385 651.476 117.166 651.476C106.949 651.476 103.542 643.971 103.542 628.281V609.863C103.542 594.855 108.31 587.351 117.166 587.351C126.022 587.351 132.834 596.901 135.559 609.181V631.01ZM236.376 585.304H258.174V589.398C251.362 589.398 249.319 591.444 246.594 600.312L226.839 656.251H225.476L208.447 611.227L192.779 656.251H191.417L166.893 589.398H158.719V585.304H188.011V589.398H180.518L196.866 633.739L207.085 606.452L200.273 589.398H192.098V585.304H224.115V589.398H214.578L230.926 633.739L242.507 600.995C243.46 598.61 243.924 596.058 243.869 593.49C243.869 590.762 243.188 589.398 239.101 589.398H236.376V585.304ZM74.9316 620.095H78.3382L75.6132 653.522H0V649.428H10.8992V543.692H0V540.281H72.8883L74.9316 566.204H70.8447C71.264 565.106 71.264 563.891 70.8447 562.792C70.7595 560.134 70.1396 557.52 69.0223 555.106C67.9048 552.692 66.3129 550.529 64.3414 548.746C62.37 546.963 60.0597 545.596 57.5487 544.728C55.0377 543.859 52.3776 543.507 49.7275 543.692H25.8856V593.49H36.1035C50.4087 593.49 53.1335 584.623 53.1335 575.072H57.2207V614.638H53.1335C53.1335 603.041 51.0899 596.901 36.1035 596.901H25.8856V649.428H49.7275C63.3515 649.428 72.2071 639.878 74.2507 623.506L74.9316 620.095ZM439.374 538.234C435.262 539.865 430.843 540.563 426.43 540.281H415.532V543.692H427.793V597.584H427.112C425.743 593.55 423.19 590.023 419.787 587.467C416.383 584.911 412.288 583.444 408.038 583.258C394.414 583.258 381.471 596.901 381.471 618.731C381.471 640.56 393.733 655.568 409.401 655.568C413.326 655.496 417.133 654.212 420.303 651.893C423.473 649.573 425.851 646.33 427.112 642.607H427.793V653.522H449.591V649.428H439.374V538.234ZM427.793 631.01C425.068 641.925 419.618 651.476 409.401 651.476C399.182 651.476 395.096 643.971 395.096 628.281V609.863C395.096 594.855 399.864 587.351 409.401 587.351C417.575 587.351 424.387 596.901 427.793 609.181V631.01ZM500 631.692C500 646.018 492.507 655.568 480.926 655.568C474.786 655.168 468.883 653.04 463.896 649.428C461.853 649.428 461.171 650.793 461.171 654.204H457.765V630.328H460.49C461.853 643.971 471.39 652.157 479.564 652.157C481.585 652.372 483.628 652.131 485.543 651.454C487.46 650.776 489.199 649.676 490.636 648.237C492.073 646.798 493.171 645.056 493.848 643.137C494.525 641.219 494.765 639.173 494.551 637.15C494.551 628.964 488.42 624.188 478.201 624.188C475.555 624.393 472.896 624.022 470.407 623.1C467.917 622.179 465.656 620.728 463.779 618.848C461.902 616.969 460.454 614.705 459.534 612.212C458.613 609.718 458.243 607.056 458.447 604.405C458.447 592.126 465.94 583.258 476.158 583.258C481.267 583.54 486.207 585.189 490.463 588.033C491.826 588.033 492.507 586.669 492.507 585.304V583.258H495.912V603.723H493.188C491.144 592.126 485.695 587.351 476.839 587.351C475.229 587.259 473.615 587.486 472.093 588.02C470.57 588.553 469.167 589.382 467.964 590.459C466.762 591.537 465.784 592.841 465.085 594.298C464.387 595.754 463.983 597.334 463.896 598.948C463.825 600.317 464.029 601.688 464.498 602.977C464.966 604.266 465.688 605.448 466.621 606.452C470.027 610.545 476.839 609.862 483.651 611.227C490.463 612.592 500 620.095 500 631.692ZM312.671 649.428C309.946 649.428 309.264 646.017 309.264 640.56V605.087C309.264 590.08 299.727 583.258 286.104 583.258C272.479 583.258 264.986 591.444 264.986 601.676C264.893 602.573 264.976 603.48 265.235 604.343C265.493 605.207 265.919 606.012 266.489 606.709C267.059 607.407 267.762 607.984 268.556 608.409C269.351 608.833 270.221 609.095 271.117 609.181C272.984 609.01 274.719 608.145 275.981 606.756C277.242 605.366 277.937 603.554 277.929 601.676C277.929 595.537 273.842 596.901 273.842 592.809C273.842 588.715 278.61 586.669 286.104 586.669C293.597 586.669 297.003 590.762 297.003 599.63V615.32H294.959C271.799 615.32 260.218 622.824 260.218 637.831C260.306 640.251 260.869 642.629 261.876 644.831C262.882 647.031 264.312 649.012 266.083 650.66C267.854 652.307 269.933 653.589 272.199 654.431C274.466 655.273 276.876 655.659 279.292 655.568C283.08 655.708 286.829 654.753 290.09 652.817C293.351 650.882 295.987 648.048 297.684 644.653C297.857 647.428 299.082 650.032 301.107 651.934C303.133 653.836 305.807 654.892 308.583 654.886C311.446 654.797 314.231 653.923 316.633 652.359C319.035 650.795 320.963 648.602 322.207 646.017L318.801 643.971C316.757 647.382 314.714 649.428 312.671 649.428ZM297.003 636.467C294.278 645.336 289.51 651.476 283.379 651.476C277.248 651.476 273.161 646.018 273.161 636.467C273.161 626.917 278.61 618.731 292.915 618.731H297.003V636.467ZM375.34 594.173C375.677 595.198 375.765 596.287 375.6 597.353C375.435 598.418 375.018 599.429 374.387 600.303C373.755 601.177 372.926 601.888 371.967 602.379C371.008 602.869 369.946 603.125 368.869 603.125C367.792 603.125 366.731 602.869 365.771 602.379C364.812 601.888 363.983 601.177 363.351 600.303C362.72 599.429 362.304 598.418 362.138 597.353C361.973 596.287 362.062 595.198 362.398 594.173C362.372 592.766 362.742 591.381 363.465 590.175C364.187 588.969 365.234 587.99 366.485 587.351H365.123C357.629 587.351 348.093 602.359 348.093 619.413V649.428H357.629V653.522H326.294V649.428H335.831V589.398H326.294V585.304H334.468C339.103 585.579 343.743 584.881 348.093 583.258V600.312H348.774C352.18 590.08 357.629 583.258 365.804 583.258C367.179 583.244 368.542 583.528 369.798 584.091C371.054 584.654 372.173 585.482 373.079 586.519C373.985 587.556 374.656 588.777 375.046 590.098C375.437 591.419 375.537 592.809 375.34 594.173Z" fill="black"/>
</g>
</svg>
