<svg width="500" height="219" viewBox="0 0 500 219" fill="none" xmlns="http://www.w3.org/2000/svg">
<g clip-path="url(#clip0_29_1338)">
<path d="M48.2269 47.8801L37.9121 37.5666L75.4789 0L113.046 37.5672L102.731 47.8805L75.4787 20.6296L48.2269 47.8801Z" fill="#44B8F3"/>
<path d="M0.000939728 57.4567L55.0728 57.4571L55.0726 72.9833L16.5878 72.983L16.5876 91.8279L49.7651 91.8282L49.7649 107.487L16.5874 107.487L16.5872 126.861L55.072 126.861L55.0718 142.52L0 142.52L0.000939728 57.4567ZM67.3716 51.2188L83.563 51.2189L83.5621 130.408L83.562 142.52L67.3706 142.52L67.3716 51.2188ZM93.4596 110.803C93.4598 92.2276 107.264 77.0972 125.577 77.0973C143.757 77.0974 157.557 91.1639 157.557 109.477C157.557 111.469 157.423 113.723 157.157 114.787L110.05 114.787C111.639 123.676 118.41 130.047 128.23 130.047C134.598 130.047 140.038 127.261 143.756 123.413L152.116 134.427C147.337 140 138.315 144.38 127.564 144.38C107.792 144.38 93.4594 129.249 93.4596 110.803ZM110.313 104.568L140.97 104.568C139.111 95.5433 133.404 90.8977 125.839 90.8976C117.745 90.8975 112.172 96.4742 110.313 104.568ZM226.468 78.957L203.508 142.521L182.542 142.521L159.451 78.9565L177.235 78.9566L193.423 128.056L209.881 78.9569L226.468 78.957ZM277.601 135.622C272.955 141.062 266.454 144.381 258.227 144.381C241.374 144.381 227.704 130.577 227.704 110.804C227.704 91.5635 240.577 77.0982 258.228 77.0983C266.588 77.0984 273.089 80.1512 277.602 85.3255L277.602 78.9574L293.923 78.9575L293.922 142.522L277.601 142.522L277.601 135.622ZM277.601 110.671C277.601 100.456 270.568 92.3586 260.882 92.3585C251.062 92.3584 243.895 100.456 243.895 110.671C243.895 120.89 251.061 129.117 260.881 129.117C270.568 129.117 277.601 120.89 277.601 110.671ZM322.876 142.522L306.685 142.522L306.686 78.9576L322.877 78.9578L322.877 85.1928C326.858 80.0186 332.963 77.0989 340.791 77.099C355.522 77.0991 364.943 87.4511 364.943 104.038L364.943 142.523L348.755 142.523L348.755 106.429C348.755 97.8029 343.71 92.3591 335.883 92.3591C327.785 92.359 322.877 97.8027 322.877 106.429L322.876 142.522ZM407.757 92.3596C397.142 92.3596 389.976 100.457 389.976 110.672C389.976 120.891 397.275 129.118 407.623 129.118C414.128 129.118 419.302 126.864 423.283 122.883L431.51 134.825C426.468 140.402 417.314 144.382 407.228 144.382C388.383 144.382 373.784 129.251 373.784 110.805C373.785 92.2298 388.383 77.0994 406.962 77.0995C417.843 77.0996 426.469 80.8175 432.042 86.6535L422.754 98.1991C418.771 94.3517 413.995 92.3597 407.757 92.3596ZM435.896 110.806C435.897 92.2303 449.697 77.0998 468.013 77.1C486.193 77.1001 499.993 91.1666 499.993 109.479C499.993 111.471 499.86 113.726 499.594 114.79L452.487 114.79C454.076 123.678 460.847 130.05 470.666 130.05C477.035 130.05 482.475 127.263 486.193 123.416L494.553 134.43C489.774 140.003 480.752 144.382 470.001 144.382C450.228 144.382 435.896 129.252 435.896 110.806ZM452.749 104.571L483.406 104.571C481.547 95.5459 475.841 90.9003 468.276 90.9003C460.182 90.9002 454.608 96.4769 452.749 104.571ZM282.736 193.279L259.278 193.279L259.277 217.177L248.173 217.177L248.174 160.23L259.278 160.23L259.278 182.884L282.736 182.885L282.736 160.23L293.932 160.231L293.931 217.178L282.735 217.178L282.736 193.279ZM300.988 195.944C300.988 183.509 310.227 173.379 322.49 173.38C334.661 173.38 343.899 182.797 343.899 195.057C343.899 196.39 343.81 197.9 343.632 198.612L312.095 198.612C313.159 204.562 317.691 208.828 324.265 208.828C328.529 208.828 332.171 206.963 334.66 204.387L340.256 211.76C337.057 215.491 331.017 218.423 323.82 218.423C310.583 218.423 300.988 208.293 300.988 195.944ZM312.271 191.77L332.795 191.771C331.55 185.729 327.73 182.619 322.665 182.618C317.247 182.618 313.515 186.352 312.271 191.77ZM382.788 212.56C379.678 216.202 375.326 218.424 369.818 218.424C358.535 218.424 349.384 209.182 349.384 195.945C349.384 183.064 358.002 173.38 369.819 173.381C375.416 173.381 379.768 175.424 382.789 178.888L382.789 174.625L393.716 174.625L393.715 217.18L382.788 217.18L382.788 212.56ZM382.789 195.857C382.789 189.018 378.081 183.597 371.595 183.597C365.021 183.597 360.224 189.017 360.224 195.856C360.223 202.698 365.021 208.206 371.595 208.206C378.08 208.206 382.789 202.698 382.789 195.857ZM402.926 156.057L413.766 156.057L413.765 211.114L413.765 217.181L402.925 217.18L402.926 156.057ZM421.024 174.626L428.576 174.626L428.576 163.611L439.416 163.611L439.416 174.626L450.963 174.627L450.963 184.222L439.502 184.222L439.502 202.256C439.502 206.255 441.191 208.207 444.388 208.207C446.343 208.207 448.297 207.319 449.364 206.077L454.25 214.16C451.85 216.471 447.854 218.426 442.611 218.426C433.994 218.425 428.486 213.004 428.486 202.61L428.487 184.221L421.024 184.221L421.024 174.626ZM471.785 217.182L460.945 217.182L460.947 156.058L471.787 156.058L471.786 178.801C474.451 175.337 478.539 173.383 483.779 173.383C493.642 173.383 499.948 180.314 499.948 191.418L499.948 217.182L489.11 217.182L489.111 193.018C489.111 187.244 485.734 183.599 480.493 183.599C475.072 183.599 471.786 187.243 471.786 193.018L471.785 217.182Z" fill="#1A3673"/>
</g>
<defs>
<clipPath id="clip0_29_1338">
<rect width="500" height="218.435" fill="white"/>
</clipPath>
</defs>
</svg>
