<svg width="500" height="139" viewBox="0 0 500 139" fill="none" xmlns="http://www.w3.org/2000/svg">
<g clip-path="url(#clip0_29_1353)">
<path fill-rule="evenodd" clip-rule="evenodd" d="M159.269 53.6865V73.3715C156.048 74.4453 152.827 74.8032 149.606 74.8032C136.363 74.8032 128.131 67.2871 128.131 55.1181C128.131 42.9492 136.363 35.4331 149.964 35.4331C154.258 35.4331 158.911 35.791 162.848 37.5806L164.28 38.2964L167.143 30.7803L165.712 30.0644C161.059 28.2749 155.69 27.2012 150.679 27.2012C128.131 27.2012 117.752 41.5176 117.752 55.1181C117.394 62.6342 120.615 69.7924 125.984 74.8032C131.352 80.1718 138.868 83.0351 148.532 83.0351C154.974 83.0351 161.775 81.9614 167.859 79.456H168.575V53.6865H159.269Z" fill="#54565B"/>
<path d="M195.419 28.2754H185.756V82.6777H195.419V28.2754Z" fill="#54565B"/>
<path fill-rule="evenodd" clip-rule="evenodd" d="M223.335 74.0879V28.2754H213.672V82.6777H248.389V74.0879H223.335Z" fill="#54565B"/>
<path fill-rule="evenodd" clip-rule="evenodd" d="M269.864 74.0879V57.624H293.844V49.75H269.864V36.1494H295.634V28.2754H260.559V82.6777H296.707V74.0879H269.864Z" fill="#54565B"/>
<path fill-rule="evenodd" clip-rule="evenodd" d="M332.498 39.0127C333.213 40.4443 337.866 54.0449 339.298 57.9819H324.623C324.623 57.9819 331.782 40.4443 332.498 39.0127ZM337.508 28.2754H327.845L307.086 82.6777H316.749L322.834 66.5717H342.161L348.246 82.6777H358.625L337.508 28.2754Z" fill="#54565B"/>
<path fill-rule="evenodd" clip-rule="evenodd" d="M413.743 34.7173C408.017 30.0645 399.069 27.2012 387.974 27.2012H370.078V35.4331H387.974C396.206 35.4331 402.648 37.5806 406.585 40.8017C409.806 44.3808 411.596 49.0337 411.596 53.6865C411.954 59.0551 409.806 64.7817 405.869 68.7187C401.574 72.6557 394.774 74.8032 386.542 74.8032H379.742V49.7495H370.078V82.3193H370.794C375.805 83.0351 380.457 83.0351 385.468 83.0351C397.279 83.0351 406.943 79.456 413.385 74.0874C419.112 68.7187 421.975 61.2026 421.617 53.6865C421.617 46.5283 418.754 39.728 413.743 34.7173Z" fill="#54565B"/>
<path fill-rule="evenodd" clip-rule="evenodd" d="M86.9717 0H86.2559C13.9581 6.80029 5.01035 54.7602 28.6324 70.5082C24.3375 88.0458 28.6324 88.0458 28.6324 88.0458C28.9903 82.6772 30.064 77.6664 31.4957 72.2978C40.4434 37.5805 63.3497 7.87402 86.2559 0.35791C86.9717 0.71582 86.9717 0.71582 86.9717 0Z" fill="#C51F3F"/>
<path fill-rule="evenodd" clip-rule="evenodd" d="M82.3193 12.1689V11.4531L81.6034 12.1689C76.2348 23.6221 73.7294 40.0859 69.7924 52.2548C64.4238 66.5712 55.1181 76.5927 40.8017 75.1611V110.236C40.8017 110.236 2.50537 93.4145 2.50537 66.2133V15.3901L33.6435 12.5269C34.3593 12.5269 34.3593 12.5269 34.3593 11.811H0V65.8554C0 96.6357 40.8017 113.457 40.8017 113.457C40.8017 113.457 82.3193 95.9199 82.3193 66.2133V12.1689Z" fill="#C51F3F"/>
<path d="M234.789 127.774C232.641 129.922 229.42 131.353 226.199 131.353C222.978 131.353 220.115 130.28 217.967 127.774C215.82 125.269 214.746 122.406 214.746 119.185C214.388 112.742 219.041 107.374 225.483 107.016C225.841 107.016 226.199 107.016 226.199 107.016C229.42 107.016 232.641 108.089 234.789 110.595L231.568 113.816C230.136 112.384 228.346 111.311 226.199 111.311C222.262 111.311 219.399 114.532 219.399 118.111C219.399 118.469 219.399 118.469 219.399 118.827C219.041 122.764 221.904 126.343 225.841 126.701H226.199C228.346 126.701 230.136 125.985 231.21 124.195L234.789 127.774Z" fill="#7B797D"/>
<path d="M243.379 114.532V117.037C243.737 116.321 244.095 115.248 244.811 114.89C245.526 114.532 246.6 114.174 247.316 114.174H248.032V118.827H246.958C245.884 118.827 244.811 119.185 244.095 120.258C243.379 120.974 243.379 122.048 243.379 123.122V130.996H239.084V114.532H243.379Z" fill="#7B797D"/>
<path d="M255.548 123.837C255.906 126.342 258.054 127.774 260.559 127.416C261.991 127.058 263.065 126.342 263.78 125.268L267.717 126.342C266.286 129.205 263.422 131.353 259.843 131.353C255.191 131.711 251.254 128.132 251.254 123.479C251.254 123.121 251.254 123.121 251.254 122.763C250.538 118.11 254.117 114.173 258.77 114.173C259.128 114.173 259.128 114.173 259.485 114.173C264.138 113.815 268.075 117.394 268.075 122.047C268.075 122.405 268.075 122.405 268.075 122.763V123.479L255.548 123.837ZM263.422 121.331C263.065 119.184 261.275 117.752 259.128 118.11C256.98 118.11 255.548 119.542 255.191 121.331H263.422Z" fill="#7B797D"/>
<path d="M284.896 114.531H289.191V130.637H284.896V128.49C283.465 130.279 281.675 131.353 279.528 131.353C275.233 131.353 271.654 127.774 271.654 123.837C271.654 123.479 271.654 123.479 271.654 123.121C271.296 118.468 274.875 114.531 279.17 114.531H279.528C281.675 114.531 283.465 115.605 284.538 117.037L284.896 114.531ZM276.306 122.763C275.949 125.269 278.096 127.416 280.601 127.774C283.107 127.774 285.254 125.269 284.896 122.763C285.254 120.258 283.465 118.11 280.959 117.752H280.601C278.096 117.752 276.306 119.9 276.306 122.405V122.763Z" fill="#7B797D"/>
<path d="M299.929 125.984C299.929 126.7 300.287 127.058 301.002 127.058H301.718V130.637H298.139C295.992 130.637 295.276 129.563 295.276 127.774V118.11H293.486V114.531H295.276V110.236H299.571V114.531H301.718V118.11H299.571L299.929 125.984Z" fill="#7B797D"/>
<path d="M311.024 109.879C310.666 111.31 309.234 112.026 307.803 111.668C307.087 111.31 306.371 110.953 306.013 109.879C305.655 108.447 306.371 107.016 307.803 106.658C309.234 106.3 310.666 107.016 311.024 108.447C311.382 108.805 311.382 109.521 311.024 109.879ZM311.024 130.638H306.729V114.532H311.024V130.638Z" fill="#7B797D"/>
<path d="M320.687 114.532V116.679C321.403 114.89 323.193 114.174 324.982 114.174C326.414 114.174 327.846 114.532 328.919 115.605C329.993 117.037 330.709 118.827 330.351 120.616V130.638H326.056V120.616C326.056 119.9 326.056 119.185 325.698 118.827C325.34 118.111 324.267 117.753 323.551 117.753C322.119 117.753 320.687 119.185 320.687 120.616V120.974V130.638H316.393V114.532H320.687Z" fill="#7B797D"/>
<path d="M348.247 114.531H352.542V129.563C352.9 132.069 352.184 134.574 350.394 136.364C348.605 138.153 346.099 138.869 343.594 138.869C340.731 138.869 337.868 137.795 335.72 135.648L338.583 132.785C339.657 134.216 341.805 134.932 343.594 134.932C346.099 135.29 347.889 133.5 348.247 130.995C348.247 130.637 348.247 130.279 348.247 130.279V128.49C346.815 130.279 344.668 131.353 342.52 131.353C338.225 131.353 334.646 127.774 334.646 123.837C334.646 123.479 334.646 123.479 334.646 123.121C334.288 118.826 337.51 114.889 341.805 114.531C342.162 114.531 342.52 114.531 342.878 114.531C345.026 114.531 346.815 115.605 347.889 117.037L348.247 114.531ZM339.657 122.405C339.299 124.911 341.089 127.058 343.594 127.058C345.026 127.058 346.457 126.7 347.531 125.626C348.247 124.911 348.247 123.837 348.247 122.763C348.247 121.332 347.889 119.9 347.173 118.826C346.457 118.11 345.384 117.752 344.31 117.395C341.804 117.395 340.015 119.184 340.015 121.689C339.657 122.405 339.657 122.405 339.657 122.405Z" fill="#7B797D"/>
<path d="M373.299 130.637H368.646V107.373H376.163C381.531 107.373 384.752 109.878 384.752 114.889C384.752 119.184 381.889 122.405 377.594 122.763C377.236 122.763 376.878 122.763 376.52 122.763H373.657L373.299 130.637ZM375.447 118.826C378.31 118.826 379.742 117.395 379.742 115.247C379.742 113.1 377.952 111.668 376.163 111.31C375.805 111.31 375.805 111.31 375.447 111.31H373.299V118.826H375.447Z" fill="#7B797D"/>
<path d="M404.081 122.763C404.081 127.416 400.144 131.353 395.491 131.353C395.491 131.353 395.491 131.353 395.133 131.353C390.48 131.353 386.543 127.416 386.543 122.763C386.543 118.11 390.48 114.173 395.133 114.173C399.786 113.815 403.723 117.394 404.081 122.047C404.081 122.405 404.081 122.405 404.081 122.763ZM391.196 122.763C390.838 125.268 392.627 127.058 395.133 127.416C397.638 127.774 399.428 125.984 399.786 123.479C399.786 123.121 399.786 123.121 399.786 122.763C400.144 120.615 398.354 118.468 396.207 118.11C395.849 118.11 395.849 118.11 395.491 118.11C392.985 118.11 391.196 119.9 391.196 122.763C391.196 122.405 391.196 122.405 391.196 122.763Z" fill="#7B797D"/>
<path d="M415.892 119.184C415.892 118.11 415.176 117.394 413.745 117.394C412.671 117.394 411.955 118.11 411.955 118.826C411.955 119.184 411.955 119.542 412.313 119.9C412.671 120.258 413.029 120.258 415.176 120.974C418.755 122.047 420.187 123.479 420.187 125.984C420.187 129.206 417.682 130.995 414.103 130.995C411.239 131.353 408.376 129.206 407.66 126.342V125.984H411.955C412.313 127.416 412.671 128.132 414.103 128.132C414.818 128.132 415.892 127.774 415.892 126.7C415.892 125.626 415.176 125.269 413.029 124.553C409.45 123.479 408.018 122.047 408.018 119.542C408.018 116.321 410.523 114.531 414.103 114.531C416.966 114.173 419.829 116.321 420.187 119.184C420.187 119.542 420.187 119.542 420.187 119.9L415.892 119.184Z" fill="#7B797D"/>
<path d="M431.998 119.185C431.998 117.753 430.924 117.037 429.85 117.395C428.776 117.395 428.061 118.111 428.061 118.827C428.061 119.185 428.061 119.542 428.418 119.9C428.776 120.258 428.776 120.258 431.282 120.974C434.861 122.048 436.292 123.479 436.292 125.985C436.292 129.206 433.787 130.996 430.208 130.996C427.345 131.353 424.481 129.206 423.766 126.343V125.985H428.061C428.418 127.416 428.776 128.132 430.208 128.132C430.924 128.132 431.998 127.774 431.998 126.701C431.998 125.627 431.282 125.269 429.134 124.553C425.555 123.479 424.124 122.048 424.124 119.542C424.124 116.321 426.629 114.532 430.208 114.532C433.071 114.174 435.577 115.963 436.292 118.827C436.292 119.185 436.292 119.542 436.292 119.9L431.998 119.185Z" fill="#7B797D"/>
<path d="M445.955 109.879C445.598 111.31 444.166 112.026 442.734 111.668C442.018 111.31 441.303 110.953 440.945 109.879C440.587 108.447 441.303 107.016 442.734 106.658C444.166 106.3 445.598 107.016 445.955 108.447C445.955 109.163 445.955 109.521 445.955 109.879ZM445.598 130.638H441.303V114.532H445.598V130.638Z" fill="#7B797D"/>
<path d="M455.619 130.637H451.324V107.373H455.619V116.321C456.693 114.531 458.84 113.815 460.63 113.815C464.925 113.815 468.862 117.395 468.862 121.689C468.862 122.047 468.862 122.047 468.862 122.405C469.22 126.7 466.356 130.279 462.062 130.995C461.704 130.995 461.346 130.995 460.988 130.995C458.84 130.995 456.693 130.279 455.619 128.49V130.637ZM455.619 122.763C455.261 125.269 457.051 127.416 459.556 127.416C462.061 127.774 464.209 125.984 464.209 123.479C464.209 123.121 464.209 122.763 464.209 122.405C464.567 119.9 462.419 117.752 459.914 117.395C457.409 117.752 455.261 120.258 455.619 122.763Z" fill="#7B797D"/>
<path d="M473.516 130.637V107.373H477.811V130.637H473.516Z" fill="#7B797D"/>
<path d="M487.115 123.837C487.472 126.342 489.62 127.774 492.125 127.416C493.557 127.058 494.631 126.342 495.346 125.268L499.283 126.342C497.852 129.205 494.989 131.353 491.409 131.353C486.757 131.711 482.82 128.132 482.82 123.479C482.82 123.121 482.82 123.121 482.82 122.763C482.462 118.11 486.041 114.531 490.694 114.173C491.052 114.173 491.052 114.173 491.409 114.173C496.062 113.815 499.999 117.394 499.999 122.047C499.999 122.405 499.999 122.405 499.999 122.763V123.479L487.115 123.837ZM495.346 121.331C494.989 119.184 493.199 117.752 491.409 118.11C489.262 118.11 487.83 119.542 487.472 121.331H495.346Z" fill="#7B797D"/>
<path d="M500 102.361H209.02V138.51H500V102.361Z" fill="white"/>
</g>
<defs>
<clipPath id="clip0_29_1353">
<rect width="500" height="138.511" fill="white"/>
</clipPath>
</defs>
</svg>
