<svg width="500" height="234" viewBox="0 0 500 234" fill="none" xmlns="http://www.w3.org/2000/svg">
<path d="M13.5223 14.6297V128.21C13.521 129.644 14.2198 130.223 15.4567 130.144H34.9828C36.8901 130.236 37.1485 129.247 37.0814 128.045V83.3908C36.9814 81.584 37.9349 81.5968 38.8789 81.5933H88.999C90.1271 81.5842 90.9531 81.9755 90.9197 83.514V127.845C90.9117 129.598 91.8812 130.129 93.2441 130.169H112.065C113.42 130.214 114.338 129.699 114.286 127.948V14.7027C114.396 12.7256 113.35 12.2214 111.862 12.2784H92.8677C91.2149 12.2902 90.6417 13.1223 90.7067 14.4395V57.9886C90.8106 59.7405 89.9188 59.9109 88.8674 59.8279H38.5595C37.3238 59.9005 36.9133 59.278 36.983 58.2513V14.1917C36.8601 12.6241 35.9912 12.4556 35.1069 12.3157H15.4932C14.215 12.4004 13.4935 13.1004 13.5223 14.6297ZM221.704 54.1199L237.908 45.2875C239.076 44.7013 239.118 43.8808 238.638 42.9517C219.734 0.933593 161.78 3.16719 140.29 30.2176C118.58 58.8455 123.685 91.5679 140.29 112.297C165.6 141.472 217.919 141.118 238.771 99.6142C239.434 98.3953 239.243 97.2633 238.255 96.5947L221.326 88.646C219.939 87.8873 218.94 88.1924 218.332 89.575C205.46 112.286 182.561 114.323 165.271 103.718C146.499 90.9454 142.538 55.7616 165.271 38.8889C181.011 28.4039 205.283 29.8425 218.693 53.1863C219.343 54.5083 220.373 54.7438 221.704 54.1199ZM241.923 130.107H262.289C263.412 130.132 264.033 129.225 264.479 127.991L273.25 104.234C273.695 103.001 274.597 102.545 275.728 102.479H291.212C302.555 102.416 309.084 95.935 310.517 82.6586C310.635 81.422 309.979 81.1156 309.071 81.1101H283.986C282.54 81.2312 282.134 80.6014 282.438 79.4584L297.922 38.3728C298.207 37.2729 299.696 37.2098 300.09 38.3728L333.847 128.648C334.371 129.734 335.163 130.211 336.169 130.196H356.764C358.687 129.972 358.754 128.743 358.261 126.972L314.407 14.2647C313.865 12.731 312.978 12.1743 311.852 12.2938H286.815C285.768 12.3355 284.894 12.8631 284.333 14.2647L240.475 126.48C239.633 128.557 239.945 129.878 241.923 130.107Z" fill="#092240"/>
<path d="M422.549 12.0353V44.6886C422.147 58.661 411.769 64.7763 402.384 64.8539H369.69C368.794 64.7612 367.871 64.7169 368.101 62.6543C369.596 52.4695 376.2 49.3267 384.793 48.9246H398.192C402.881 48.8728 407.22 44.9329 407.003 40.113V24.6588C407.262 16.6589 413.614 11.3416 420.49 10.301C421.83 10.0801 422.434 10.7588 422.549 12.0353ZM369.809 75.7985H402.462C416.434 76.2008 422.55 86.5789 422.627 95.9638V128.658C422.535 129.553 422.49 130.477 420.428 130.247C410.243 128.752 407.1 122.148 406.698 113.555V100.156C406.646 95.467 402.706 91.1277 397.886 91.3445H382.432C374.432 91.0855 369.115 84.7334 368.074 77.8579C367.854 76.5177 368.532 75.9135 369.809 75.7985ZM433.31 128.702V96.0486C433.713 82.0762 444.091 75.9609 453.476 75.8834H486.169C487.065 75.976 487.989 76.0203 487.759 78.083C486.264 88.2677 479.659 91.4106 471.067 91.8126H457.668C452.979 91.8644 448.64 95.8043 448.856 100.624V116.078C448.597 124.078 442.245 129.396 435.37 130.436C434.03 130.657 433.425 129.978 433.31 128.702ZM485.713 64.7651H453.06C439.087 64.3627 432.972 53.9847 432.895 44.5998V11.906C432.987 11.0101 433.031 10.0864 435.094 10.3162C445.279 11.8116 448.422 18.4159 448.824 27.0086V40.4074C448.876 45.0965 452.816 49.4359 457.635 49.219H473.09C481.09 49.478 486.407 55.8301 487.447 62.7056C487.668 64.0459 486.99 64.65 485.713 64.7651Z" fill="#E75925"/>
<path d="M88.0759 222.106H57.6717V218.441C58.4976 218.372 59.6849 218.269 61.2335 218.131C62.8165 217.993 63.9005 217.787 64.4855 217.512C65.5179 217.099 66.275 216.479 66.7568 215.653C67.2386 214.793 67.4795 213.692 67.4795 212.35V186.282H33.049V211.782C33.049 212.986 33.2383 214.001 33.6168 214.827C34.0297 215.653 34.8212 216.376 35.9913 216.995C36.5763 217.305 37.6087 217.615 39.0885 217.924C40.6027 218.234 41.7899 218.406 42.6503 218.441V222.106H12.2461V218.441C13.072 218.372 14.2593 218.269 15.8079 218.131C17.3909 217.993 18.4749 217.787 19.0599 217.512C20.0923 217.099 20.8494 216.48 21.3312 215.654C21.813 214.793 22.0539 213.692 22.0539 212.35V159.491C22.0539 158.39 21.8302 157.392 21.3829 156.497C20.9355 155.568 20.1612 154.845 19.06 154.329C18.1308 153.882 16.9952 153.486 15.653 153.142C14.3453 152.798 13.2097 152.591 12.2461 152.522V148.857H42.6503V152.522C41.6867 152.556 40.4995 152.711 39.0885 152.987C37.712 153.262 36.6796 153.52 35.9913 153.761C34.8213 154.174 34.0298 154.862 33.6168 155.826C33.2383 156.79 33.049 157.839 33.049 158.975V181.688H67.4795V159.491C67.4795 158.39 67.2559 157.392 66.8085 156.497C66.3611 155.568 65.5868 154.845 64.4856 154.329C63.5564 153.882 62.4208 153.486 61.0787 153.142C59.771 152.797 58.6353 152.591 57.6717 152.522V148.857H88.0759V152.522C87.1123 152.556 85.9251 152.71 84.5141 152.987C83.1376 153.262 82.1052 153.52 81.4169 153.761C80.2469 154.174 79.4554 154.862 79.0424 155.826C78.6639 156.789 78.4746 157.839 78.4746 158.975V211.782C78.4746 212.986 78.6639 214.001 79.0424 214.827C79.4554 215.653 80.2469 216.376 81.4169 216.996C82.002 217.305 83.0344 217.615 84.5141 217.925C86.0283 218.234 87.2156 218.406 88.0759 218.441L88.0759 222.106Z" fill="#092240"/>
<path d="M131.418 210.431C129.28 214.5 126.418 217.741 122.831 220.155C119.245 222.569 115.124 223.776 110.469 223.776C106.365 223.776 102.761 223.052 99.6578 221.604C96.5887 220.155 94.0541 218.19 92.054 215.707C90.0539 213.224 88.5538 210.327 87.5538 207.017C86.5882 203.706 86.1055 200.206 86.1055 196.516C86.1055 193.206 86.6227 189.964 87.6573 186.792C88.7263 183.585 90.2781 180.705 92.3126 178.153C94.2782 175.705 96.7094 173.739 99.6061 172.257C102.537 170.739 105.813 169.98 109.434 169.98C113.158 169.98 116.348 170.567 119.003 171.739C121.659 172.912 123.814 174.515 125.469 176.55C127.056 178.481 128.228 180.757 128.987 183.378C129.78 185.999 130.176 188.843 130.176 191.913V195.327H96.399C96.399 198.672 96.7094 201.706 97.3301 204.43C97.9854 207.155 99.0026 209.551 100.382 211.62C101.727 213.62 103.486 215.207 105.658 216.379C107.831 217.517 110.417 218.086 113.417 218.086C116.486 218.086 119.124 217.379 121.331 215.965C123.573 214.517 125.728 211.931 127.797 208.206L131.418 210.431ZM119.986 190.982C119.986 189.05 119.814 186.981 119.469 184.774C119.159 182.567 118.641 180.722 117.917 179.24C117.124 177.653 116.038 176.36 114.658 175.36C113.279 174.36 111.503 173.86 109.331 173.86C105.71 173.86 102.692 175.377 100.278 178.412C97.899 181.412 96.6059 185.602 96.399 190.982H119.986Z" fill="#092240"/>
<path d="M182.941 221.132C181.324 221.717 179.897 222.182 178.659 222.525C177.455 222.903 176.079 223.092 174.531 223.092C171.849 223.092 169.699 222.473 168.083 221.235C166.501 219.962 165.486 218.122 165.039 215.715H164.729C162.494 218.191 160.086 220.083 157.507 221.39C154.961 222.697 151.883 223.35 148.272 223.35C144.454 223.35 141.307 222.181 138.831 219.842C136.389 217.503 135.168 214.442 135.168 210.659C135.168 208.699 135.443 206.945 135.993 205.397C136.544 203.849 137.369 202.456 138.47 201.218C139.33 200.186 140.465 199.275 141.875 198.484C143.285 197.658 144.609 197.005 145.847 196.523C147.395 195.939 150.525 194.855 155.237 193.273C159.983 191.691 163.182 190.453 164.832 189.559V184.451C164.832 184.004 164.729 183.144 164.523 181.872C164.351 180.599 163.955 179.395 163.336 178.26C162.648 176.988 161.668 175.887 160.396 174.958C159.157 173.995 157.386 173.514 155.082 173.514C153.5 173.514 152.021 173.789 150.645 174.34C149.304 174.855 148.358 175.406 147.808 175.99C147.808 176.678 147.962 177.693 148.272 179.034C148.616 180.376 148.788 181.614 148.788 182.749C148.788 183.953 148.238 185.053 147.137 186.051C146.071 187.048 144.575 187.547 142.649 187.547C140.929 187.547 139.656 186.945 138.831 185.741C138.04 184.503 137.644 183.127 137.644 181.614C137.644 180.032 138.195 178.518 139.295 177.074C140.43 175.629 141.892 174.339 143.68 173.205C145.228 172.241 147.103 171.433 149.304 170.78C151.505 170.092 153.655 169.748 155.753 169.748C158.642 169.748 161.152 169.954 163.285 170.367C165.451 170.745 167.412 171.588 169.166 172.895C170.92 174.168 172.244 175.904 173.138 178.106C174.067 180.272 174.531 183.075 174.531 186.515C174.531 191.433 174.48 195.801 174.377 199.619C174.274 203.402 174.222 207.546 174.222 212.052C174.222 213.393 174.445 214.46 174.893 215.251C175.374 216.042 176.096 216.712 177.059 217.263C177.575 217.572 178.384 217.744 179.484 217.779C180.619 217.812 181.771 217.829 182.941 217.829V221.132ZM164.936 193.893C162.012 194.752 159.45 195.595 157.249 196.421C155.048 197.246 153.001 198.278 151.109 199.516C149.39 200.685 148.031 202.078 147.034 203.695C146.036 205.277 145.538 207.169 145.538 209.37C145.538 212.224 146.277 214.322 147.756 215.664C149.269 217.005 151.178 217.676 153.483 217.676C155.925 217.676 158.074 217.091 159.931 215.922C161.789 214.718 163.354 213.308 164.626 211.691L164.936 193.893Z" fill="#092240"/>
<path d="M257.082 155.334V213.589C257.082 214.83 256.84 215.847 256.358 216.64C255.875 217.398 255.151 217.933 254.186 218.243C253.6 218.416 252.876 218.553 252.014 218.657C251.153 218.726 250.326 218.794 249.533 218.863V222.275H274.557V218.863C273.592 218.794 272.696 218.674 271.869 218.502C271.076 218.33 270.3 218.071 269.542 217.726C268.577 217.312 267.853 216.726 267.37 215.968C266.922 215.21 266.698 214.245 266.698 213.073V183.756C267.043 183.17 267.526 182.447 268.146 181.585C268.767 180.723 269.663 179.861 270.835 179C272.042 178.172 273.403 177.483 274.92 176.932C276.471 176.346 278.143 176.054 279.935 176.054C282.383 176.054 284.45 177.035 286.139 179C287.862 180.964 288.724 183.757 288.724 187.376V213.589C288.724 214.83 288.483 215.847 288.001 216.64C287.553 217.398 286.845 217.933 285.88 218.243C285.26 218.45 284.468 218.588 283.503 218.657C282.537 218.726 281.657 218.794 280.865 218.863V222.275H305.889V218.863C304.855 218.794 304.012 218.691 303.357 218.553C302.736 218.381 302.029 218.14 301.236 217.83C300.237 217.416 299.513 216.847 299.065 216.123C298.651 215.364 298.445 214.382 298.445 213.175V186.653C298.445 181.241 297.221 177.104 294.774 174.243C292.327 171.348 288.827 169.901 284.277 169.901C282.071 169.901 280.072 170.177 278.279 170.728C276.522 171.28 274.989 171.969 273.679 172.796C272.163 173.761 270.939 174.691 270.008 175.587C269.078 176.449 268.043 177.449 266.906 178.586H266.698V155.334L257.082 155.334ZM220.322 155.631V171.503H210.912V176.467H220.114V211.003C220.114 214.933 220.976 217.985 222.699 220.156C224.457 222.293 227.474 223.361 231.748 223.361C234.644 223.361 237.091 223.034 239.09 222.379C241.089 221.758 243.208 220.983 245.448 220.052V216.278C244.759 216.519 243.57 216.726 241.881 216.899C240.227 217.037 238.968 217.105 238.107 217.105C236.245 217.105 234.764 216.847 233.661 216.33C232.558 215.813 231.73 215.055 231.178 214.055C230.592 212.986 230.214 211.746 230.041 210.333C229.903 208.885 229.835 207.092 229.835 204.955V176.467H244.363V171.503H229.732V155.631L220.322 155.631Z" fill="#092240"/>
<path d="M330.404 223.942C322.895 223.942 317.018 221.451 312.772 216.469C308.527 211.486 306.404 204.803 306.404 196.417C306.404 192.768 306.966 189.364 308.088 186.207C309.246 183.014 310.913 180.119 313.088 177.523C315.158 175.032 317.755 173.032 320.878 171.523C324 169.979 327.404 169.207 331.088 169.207C336.175 169.207 340.316 170.435 343.508 172.891C346.701 175.312 348.298 178.628 348.298 182.838C348.298 184.593 347.877 186.154 347.035 187.522C346.193 188.856 344.807 189.522 342.877 189.522C340.807 189.522 339.193 188.996 338.035 187.943C336.912 186.891 336.351 185.715 336.351 184.417C336.351 182.838 336.561 181.224 336.982 179.575C337.403 177.891 337.649 176.663 337.719 175.891C337.088 174.803 336.141 174.084 334.878 173.733C333.649 173.348 332.316 173.155 330.878 173.155C329.193 173.155 327.579 173.523 326.036 174.26C324.527 174.962 323.053 176.277 321.615 178.207C320.317 179.962 319.264 182.33 318.457 185.312C317.65 188.295 317.246 191.856 317.246 195.996C317.246 202.522 318.685 207.856 321.562 211.996C324.474 216.101 328.281 218.153 332.983 218.153C336.386 218.153 339.228 217.329 341.509 215.68C343.825 214.031 345.965 211.557 347.93 208.259L351.298 210.469C348.982 214.61 345.93 217.89 342.14 220.311C338.351 222.732 334.439 223.942 330.404 223.942ZM401.8 221.626C400.151 222.223 398.695 222.697 397.432 223.048C396.204 223.433 394.801 223.626 393.222 223.626C390.485 223.626 388.292 222.994 386.643 221.731C385.029 220.433 383.994 218.556 383.538 216.1H383.222C380.942 218.626 378.485 220.556 375.854 221.889C373.258 223.223 370.117 223.889 366.433 223.889C362.539 223.889 359.328 222.696 356.802 220.31C354.311 217.924 353.065 214.802 353.065 210.942C353.065 208.942 353.346 207.153 353.907 205.574C354.469 203.995 355.311 202.574 356.434 201.311C357.311 200.258 358.469 199.329 359.907 198.522C361.346 197.68 362.697 197.013 363.96 196.522C365.539 195.925 368.732 194.82 373.538 193.206C378.38 191.592 381.643 190.329 383.328 189.417V184.206C383.328 183.75 383.222 182.873 383.012 181.575C382.837 180.277 382.433 179.049 381.801 177.891C381.1 176.592 380.1 175.47 378.802 174.522C377.538 173.54 375.732 173.049 373.381 173.049C371.767 173.049 370.258 173.329 368.854 173.891C367.486 174.417 366.521 174.979 365.96 175.575C365.96 176.277 366.118 177.312 366.433 178.68C366.784 180.049 366.96 181.312 366.96 182.47C366.96 183.698 366.399 184.82 365.276 185.838C364.188 186.856 362.662 187.364 360.697 187.364C358.943 187.364 357.645 186.75 356.802 185.522C355.995 184.259 355.592 182.856 355.592 181.312C355.592 179.698 356.153 178.154 357.276 176.68C358.434 175.207 359.925 173.891 361.75 172.733C363.329 171.751 365.241 170.926 367.486 170.26C369.732 169.558 371.925 169.207 374.065 169.207C377.012 169.207 379.574 169.417 381.749 169.838C383.96 170.224 385.959 171.084 387.749 172.417C389.538 173.715 390.889 175.487 391.801 177.733C392.749 179.943 393.222 182.803 393.222 186.312C393.222 191.329 393.17 195.785 393.064 199.68C392.959 203.539 392.907 207.767 392.907 212.363C392.907 213.732 393.135 214.82 393.591 215.626C394.083 216.433 394.819 217.118 395.801 217.679C396.328 217.995 397.152 218.17 398.275 218.206C399.433 218.24 400.608 218.257 401.801 218.257L401.8 221.626ZM383.433 193.838C380.45 194.715 377.836 195.575 375.591 196.417C373.345 197.259 371.258 198.311 369.328 199.575C367.573 200.768 366.188 202.189 365.17 203.838C364.152 205.452 363.644 207.381 363.644 209.627C363.644 212.539 364.398 214.679 365.907 216.048C367.451 217.416 369.398 218.1 371.749 218.1C374.24 218.1 376.433 217.504 378.327 216.311C380.222 215.083 381.819 213.644 383.117 211.995L383.433 193.838Z" fill="#092240"/>
<path d="M443.825 178.011C443.825 179.766 443.395 181.331 442.535 182.708C441.674 184.05 440.349 184.721 438.56 184.721C436.633 184.721 435.153 184.222 434.121 183.224C433.123 182.226 432.624 181.125 432.624 179.92C432.624 179.163 432.675 178.475 432.779 177.856C432.916 177.236 433.037 176.617 433.14 175.998C431.523 175.998 429.63 176.651 427.462 177.959C425.294 179.267 423.453 181.125 421.939 183.534V213.163C421.939 214.367 422.163 215.348 422.61 216.105C423.092 216.862 423.832 217.43 424.83 217.809C425.69 218.153 426.791 218.411 428.133 218.583C429.51 218.755 430.697 218.875 431.695 218.944V222.351H404.853V218.944C405.645 218.876 406.453 218.807 407.279 218.738C408.14 218.669 408.88 218.531 409.499 218.325C410.463 218.015 411.168 217.482 411.615 216.725C412.097 215.933 412.338 214.918 412.338 213.679V182.243C412.338 181.177 412.08 180.127 411.563 179.095C411.081 178.062 410.393 177.237 409.499 176.617C408.845 176.204 408.07 175.911 407.176 175.739C406.281 175.533 405.318 175.395 404.285 175.327V171.971L421.216 170.836L421.938 171.559V178.734H422.196C424.33 175.946 426.704 173.83 429.32 172.385C431.935 170.939 434.326 170.217 436.494 170.217C438.662 170.217 440.417 170.922 441.76 172.333C443.136 173.744 443.825 175.636 443.825 178.011ZM489.528 210.376C487.395 214.436 484.538 217.671 480.96 220.08C477.381 222.489 473.268 223.693 468.623 223.693C464.528 223.693 460.932 222.971 457.834 221.525C454.772 220.08 452.242 218.118 450.246 215.641C448.251 213.163 446.754 210.272 445.756 206.969C444.792 203.665 444.31 200.172 444.31 196.49C444.31 193.187 444.827 189.952 445.859 186.786C446.926 183.585 448.474 180.712 450.505 178.165C452.466 175.722 454.892 173.761 457.783 172.281C460.708 170.767 463.977 170.01 467.59 170.01C471.307 170.01 474.49 170.595 477.14 171.765C479.79 172.935 481.94 174.535 483.592 176.565C485.175 178.492 486.345 180.764 487.102 183.379C487.894 185.994 488.29 188.833 488.29 191.896V195.303H454.582C454.582 198.641 454.892 201.669 455.511 204.388C456.165 207.106 457.181 209.498 458.557 211.563C459.899 213.559 461.654 215.142 463.822 216.312C465.99 217.447 468.571 218.015 471.565 218.015C474.628 218.015 477.26 217.31 479.463 215.899C481.699 214.454 483.85 211.872 485.915 208.156L489.528 210.376ZM478.121 190.967C478.121 189.04 477.948 186.975 477.604 184.773C477.294 182.57 476.778 180.729 476.056 179.249C475.264 177.667 474.18 176.376 472.804 175.378C471.427 174.38 469.655 173.881 467.487 173.881C463.874 173.881 460.863 175.395 458.454 178.424C456.079 181.417 454.789 185.599 454.582 190.967H478.121Z" fill="#092240"/>
<path d="M193.654 158.867V213.555C193.654 214.782 193.414 215.79 192.937 216.574C192.459 217.324 191.743 217.853 190.788 218.16C190.208 218.33 189.476 218.466 188.589 218.569C187.702 218.637 186.866 218.705 186.082 218.773V222.15H210.688V218.773C209.767 218.705 208.933 218.586 208.183 218.415C207.467 218.245 206.733 217.988 205.982 217.647C204.993 217.238 204.277 216.659 203.833 215.908C203.39 215.124 203.169 214.135 203.169 212.942V158.867L193.654 158.867Z" fill="#092240"/>
<path d="M265.993 147.943L247.121 149.133V152.441C248.086 152.51 249.344 152.648 250.895 152.855C252.481 153.027 253.584 153.338 254.204 153.786C255.066 154.372 255.756 155.252 256.273 156.424C256.825 157.596 257.101 158.766 257.101 159.938V168.293H266.716V148.719L265.993 147.943ZM220.34 161.335V168.292H229.75V161.335H220.34Z" fill="#092240"/>
<path d="M202.438 147.922L183.459 149.099V152.374C184.448 152.442 185.761 152.646 187.398 152.987C189.035 153.328 190.161 153.703 190.775 154.113C191.628 154.726 192.309 155.579 192.821 156.671C193.366 157.728 193.64 158.869 193.64 160.097V209.378H203.155V148.69L202.438 147.922Z" fill="#092240"/>
<path d="M417.557 68.4996C420.868 66.0691 423.839 63.4442 425.809 60.2475C427.163 58.5254 428.517 58.5492 429.872 60.2475C431.942 63.3425 434.391 66.1402 437.804 68.1802C440.131 69.8539 439.692 71.3045 437.804 72.6384C434.753 74.8253 432.227 77.3456 430.236 80.207C428.718 82.0317 427.2 82.1961 425.682 80.207C423.4 77.3091 421.031 74.4674 417.707 72.2328C416.302 71.2557 415.572 70.1453 417.557 68.4996Z" fill="#E75925"/>
</svg>
