<svg width="500" height="87" viewBox="0 0 500 87" fill="none" xmlns="http://www.w3.org/2000/svg">
<g clip-path="url(#clip0_29_1355)">
<mask id="mask0_29_1355" style="mask-type:luminance" maskUnits="userSpaceOnUse" x="-1" y="-1" width="707" height="294">
<path d="M-0.322266 -0.322266H705.264V292.659H-0.322266V-0.322266Z" fill="white"/>
</mask>
<g mask="url(#mask0_29_1355)">
<path fill-rule="evenodd" clip-rule="evenodd" d="M7.98455 72.8268C7.37283 71.8287 6.60013 71.3136 5.40889 71.3136C4.12106 71.3136 2.73664 72.1829 2.73664 73.5995C2.73664 74.8551 3.96008 75.5312 4.95815 75.8854L6.11719 76.3361C8.3709 77.2376 10.0773 78.4932 10.0773 81.1655C10.0773 84.0953 7.82357 86.188 4.95815 86.188C2.38249 86.188 0.354153 84.2563 0 81.6806L2.02833 81.2621C1.99614 83.0328 3.41275 84.3207 5.11912 84.3207C6.85769 84.3207 8.08113 82.8719 8.08113 81.1655C8.08113 79.4591 6.69672 78.7186 5.3123 78.1391L4.21764 77.6562C2.38249 76.8835 0.740502 75.821 0.740502 73.5995C0.740502 70.9916 3.0264 69.4462 5.44108 69.4462C7.24404 69.4462 8.69285 70.3155 9.56214 71.8609L7.98455 72.8268ZM20.2511 86.188C15.6149 86.188 11.8802 82.4533 11.8802 77.8171C11.8802 73.1809 15.6149 69.4462 20.2511 69.4462C24.8873 69.4462 28.6542 73.1809 28.6542 77.8171C28.6542 82.4533 24.8873 86.188 20.2511 86.188ZM26.6581 77.8171C26.6581 74.2434 23.7927 71.3136 20.2511 71.3136C16.7418 71.3136 13.8764 74.2434 13.8764 77.8171C13.8764 81.423 16.7418 84.3207 20.2511 84.3207C23.7927 84.3207 26.6581 81.423 26.6581 77.8171ZM33.2904 83.9987H38.152V85.8339H31.2943V69.8004H33.2904V83.9987ZM41.9189 69.7682V79.2337C41.9189 81.8738 42.6916 84.2885 45.7824 84.2885C48.8731 84.2885 49.6458 81.8738 49.6458 79.2337V69.7682H51.642V79.9099C51.642 83.4514 49.4527 86.1558 45.7824 86.1558C42.112 86.1558 39.9227 83.4514 39.9227 79.9099V69.7682H41.9189ZM59.4334 85.8339H57.4372V71.6033H53.6381V69.7682H63.2325V71.6033H59.4334V85.8339ZM65.454 69.7682H67.4501V85.8339H65.454V69.7682ZM78.4288 86.1558C73.7927 86.1558 70.058 82.4211 70.058 77.7849C70.058 73.1809 73.7927 69.414 78.4288 69.414C83.065 69.414 86.8319 73.1809 86.8319 77.7849C86.8319 82.4211 83.065 86.1558 78.4288 86.1558ZM84.8358 77.7849C84.8358 74.2112 81.9704 71.3136 78.4288 71.3136C74.9195 71.3136 72.0541 74.2112 72.0541 77.7849C72.0541 81.3909 74.9195 84.2885 78.4288 84.2885C81.9704 84.2885 84.8358 81.3909 84.8358 77.7849ZM89.2788 68.9955L101.288 81.6162V69.7682H103.284V86.4778L91.2749 73.857V85.8339H89.2788V68.9955ZM113.973 72.7946C113.393 71.7965 112.621 71.2814 111.397 71.2814C110.142 71.2814 108.725 72.1507 108.725 73.5673C108.725 74.8229 109.981 75.4668 110.979 75.8532L112.106 76.3039C114.392 77.2054 116.066 78.461 116.066 81.1333C116.066 84.0631 113.844 86.1236 110.979 86.1236C108.371 86.1236 106.375 84.2241 106.021 81.6484L108.049 81.2299C108.017 83.0006 109.401 84.2563 111.14 84.2563C112.846 84.2563 114.07 82.8075 114.07 81.1333C114.07 79.4269 112.717 78.6542 111.333 78.0747L110.238 77.624C108.403 76.8191 106.729 75.7888 106.729 73.5673C106.729 70.9594 109.047 69.414 111.462 69.414C113.232 69.414 114.713 70.2833 115.583 71.8287L113.973 72.7946ZM127.817 71.5712V76.0786H133.355V77.9137H127.817V85.8017H125.821V69.736H133.548V71.5712H127.817ZM143.915 86.1558C139.279 86.1558 135.512 82.3889 135.512 77.7849C135.512 73.1487 139.279 69.414 143.915 69.414C148.551 69.414 152.286 73.1487 152.286 77.7849C152.286 82.3889 148.551 86.1558 143.915 86.1558ZM150.29 77.7849C150.29 74.179 147.424 71.2814 143.915 71.2814C140.373 71.2814 137.508 74.179 137.508 77.7849C137.508 81.3587 140.373 84.2563 143.915 84.2563C147.424 84.2563 150.29 81.3587 150.29 77.7849ZM164.907 85.8017H162.492L157.759 79.0084H156.954V85.8017H154.958V69.736H157.373C158.789 69.736 160.303 69.7682 161.59 70.4765C162.91 71.2814 163.683 72.7946 163.683 74.3078C163.683 76.6259 162.17 78.5254 159.852 78.8152L164.907 85.8017ZM156.954 77.3342H157.566C159.627 77.3342 161.816 76.98 161.816 74.4044C161.816 71.8931 159.433 71.539 157.469 71.539H156.954V77.3342ZM183.516 76.2073V69.736H185.512V85.7695H183.516V78.0747H175.885V85.7695H173.889V69.736H175.885V76.2073H183.516ZM189.118 69.736H197.714V71.5712H191.114V76.0464H197.521V77.8815H191.114V83.9665H197.714V85.7695H189.118V69.736ZM203.187 81.7772L201.352 85.8017H199.195L206.858 69.0599L214.488 85.8017H212.331L210.528 81.7772H203.187ZM206.858 73.4385L203.992 79.942H209.691L206.858 73.4385ZM218.577 83.9665H223.406V85.8017H216.581V69.736H218.577V83.9665ZM229.137 85.8017H227.141V71.5712H223.342V69.736H232.936V71.5712H229.137V85.8017ZM244.688 76.2395V69.7682H246.684V85.8017H244.688V78.1069H237.057V85.8017H235.061V69.7682H237.057V76.2395H244.688ZM267.869 72.1507C267.547 71.9575 267.203 71.7965 266.838 71.6677C266.473 71.5175 266.109 71.4102 265.744 71.3458C265.357 71.2814 264.971 71.2492 264.585 71.2492C261.011 71.2492 258.274 74.2434 258.274 77.8171C258.274 81.3265 260.979 84.3207 264.552 84.3207C264.939 84.3207 265.325 84.2777 265.712 84.1919C266.098 84.1275 266.473 84.0202 266.838 83.8699C267.203 83.7411 267.547 83.5694 267.869 83.3548C268.212 83.1616 268.523 82.9255 268.802 82.6465V85.029C268.48 85.2007 268.148 85.3617 267.804 85.5119C267.482 85.6407 267.139 85.7588 266.774 85.8661C266.409 85.9519 266.055 86.0163 265.712 86.0592C265.347 86.1236 264.971 86.1558 264.585 86.1558C260.045 86.1558 256.246 82.5177 256.246 77.8815C256.246 73.1165 260.045 69.414 264.778 69.414C266.162 69.414 267.579 69.7682 268.802 70.5087V72.8268C268.523 72.5692 268.212 72.3438 267.869 72.1507ZM274.179 81.7772L272.344 85.8017H270.219L277.849 69.0921L285.48 85.8017H283.355L281.52 81.7772H274.179ZM277.849 73.4707L275.016 79.942H280.683L277.849 73.4707ZM297.521 85.8339H295.106L290.406 79.0406H289.569V85.8339H287.572V69.7682H289.987C291.404 69.7682 292.949 69.8004 294.205 70.5087C295.557 71.3136 296.33 72.8268 296.33 74.34C296.33 76.6581 294.784 78.5576 292.466 78.8474L297.521 85.8339ZM289.569 77.3986H290.212C292.241 77.3986 294.462 77.0122 294.462 74.4366C294.462 71.9253 292.08 71.5712 290.116 71.5712H289.569V77.3986ZM299.839 69.7682H308.435V71.6033H301.835V76.1107H308.242V77.9459H301.835V83.9987H308.435V85.8339H299.839V69.7682ZM320.477 85.8339H318.48V69.7682H320.766C325.692 69.7682 327.205 71.4746 327.205 74.4044C327.205 77.7849 324.63 79.105 321.603 79.105H320.477V85.8339ZM320.477 77.302H321.088C323.149 77.302 325.338 76.9156 325.338 74.3722C325.338 71.8609 322.956 71.539 320.992 71.539H320.477V77.302ZM339.665 85.8339H337.218L332.518 79.0406H331.681V85.8339H329.684V69.7682H332.131C333.548 69.7682 335.061 69.8004 336.349 70.5087C337.669 71.3136 338.442 72.7946 338.442 74.34C338.442 76.6259 336.929 78.5576 334.61 78.8474L339.665 85.8339ZM331.681 77.3664H332.325C334.385 77.3664 336.574 76.98 336.574 74.4366C336.574 71.9253 334.192 71.5712 332.228 71.5712H331.713C331.713 71.5712 331.713 77.3664 331.681 77.3664ZM349.195 86.1558C344.559 86.1558 340.824 82.4211 340.824 77.7849C340.824 73.1809 344.559 69.414 349.195 69.414C353.831 69.414 357.598 73.1809 357.598 77.7849C357.598 82.4211 353.831 86.1558 349.195 86.1558ZM355.602 77.7849C355.602 74.2112 352.737 71.3136 349.195 71.3136C345.686 71.3136 342.82 74.2112 342.82 77.7849C342.82 81.3909 345.686 84.2885 349.195 84.2885C352.737 84.2885 355.602 81.3909 355.602 77.7849ZM362.234 71.6033V76.1107H367.772V77.9459H362.234V85.8339H360.238V69.7682H367.965V71.6033H362.234ZM371.056 69.7682H379.652V71.6033H373.052V76.0786H379.459V77.9137H373.052V83.9987H379.652V85.8339H371.056V69.7682ZM389.955 72.7946C389.375 71.7965 388.603 71.2814 387.379 71.2814C386.124 71.2814 384.707 72.1507 384.707 73.5673C384.707 74.8229 385.93 75.4668 386.929 75.8532L388.088 76.3039C390.341 77.2054 392.048 78.461 392.048 81.1333C392.048 84.0631 389.794 86.1558 386.929 86.1558C384.353 86.1558 382.325 84.2241 382.003 81.6484L383.999 81.2299C383.999 83.0006 385.383 84.2885 387.122 84.2885C388.828 84.2885 390.052 82.8397 390.052 81.1333C390.052 79.4269 388.667 78.6864 387.315 78.1069L386.188 77.624C384.385 76.8513 382.711 75.7888 382.711 73.5673C382.711 70.9594 384.997 69.414 387.444 69.414C389.214 69.414 390.663 70.2833 391.533 71.8287L389.955 72.7946ZM402.093 72.7946C401.513 71.7965 400.741 71.2814 399.517 71.2814C398.261 71.2814 396.845 72.1507 396.845 73.5673C396.845 74.8229 398.068 75.4668 399.066 75.8532L400.225 76.3039C402.511 77.2054 404.185 78.461 404.185 81.1333C404.185 84.0631 401.932 86.1558 399.066 86.1558C396.491 86.1558 394.462 84.2241 394.14 81.6484L396.169 81.2299C396.137 83.0006 397.521 84.2885 399.259 84.2885C400.966 84.2885 402.189 82.8397 402.189 81.1333C402.189 79.4269 400.837 78.6864 399.453 78.1069L398.326 77.624C396.523 76.8513 394.849 75.7888 394.849 73.5673C394.849 70.9594 397.167 69.414 399.581 69.414C401.352 69.414 402.833 70.2833 403.703 71.8287L402.093 72.7946ZM407.019 69.7682H409.015V85.8017H407.019V69.7682ZM419.994 86.188C415.357 86.188 411.623 82.4211 411.623 77.8171C411.623 73.1809 415.357 69.4462 419.994 69.4462C424.63 69.4462 428.364 73.1809 428.364 77.8171C428.364 82.4211 424.63 86.188 419.994 86.188ZM426.401 77.8171C426.401 74.2112 423.535 71.3136 419.994 71.3136C416.452 71.3136 413.619 74.2112 413.619 77.8171C413.619 81.3909 416.452 84.2885 419.994 84.2885C423.535 84.2885 426.401 81.3909 426.401 77.8171ZM430.844 68.9955L442.853 81.6484V69.7682H444.849V86.4778L432.84 73.857V85.8339H430.844V68.9955ZM450.708 81.7772L448.873 85.8017H446.716L454.379 69.0921L462.009 85.8017H459.852L458.049 81.7772H450.708ZM454.379 73.4707L451.513 79.942H457.212L454.379 73.4707ZM466.098 83.9987H470.959V85.8339H464.102V69.7682H466.098V83.9987ZM480.103 72.8268C479.491 71.8287 478.751 71.3136 477.527 71.3136C476.24 71.3136 474.855 72.1829 474.855 73.5995C474.855 74.8551 476.079 75.499 477.077 75.8854L478.236 76.3361C480.489 77.2376 482.196 78.4932 482.196 81.1655C482.196 84.0953 479.942 86.188 477.077 86.188C474.501 86.188 472.473 84.2563 472.151 81.6806L474.147 81.2621C474.115 83.0328 475.531 84.3207 477.238 84.3207C478.976 84.3207 480.2 82.8719 480.2 81.1655C480.2 79.4591 478.815 78.7186 477.431 78.1391L476.336 77.6562C474.501 76.8835 472.859 75.821 472.859 73.5995C472.859 70.9916 475.145 69.4462 477.56 69.4462C479.363 69.4462 480.811 70.3155 481.681 71.8609L480.103 72.8268ZM106.825 40.5345C106.825 43.1423 106.954 44.9131 107.437 45.6858C107.856 46.3619 108.661 46.6516 110.335 46.716L113.619 46.9092V48.9697C112.782 48.9483 111.955 48.9268 111.14 48.9053C110.303 48.8624 109.466 48.841 108.628 48.841C107.813 48.8195 106.986 48.798 106.149 48.7766C105.312 48.7766 104.486 48.7766 103.67 48.7766C100.29 48.7766 97.0702 48.841 93.4965 48.9697V46.9092L96.7804 46.716C98.4224 46.6516 99.2595 46.3619 99.678 45.6858C100.161 44.9131 100.29 43.1423 100.29 40.5345V25.1771C99.4527 25.1127 97.6175 25.0483 94.5911 25.0483H78.4932C75.4668 25.0483 73.5995 25.1127 72.7946 25.1771V40.5345C72.7946 43.1423 72.9234 44.9131 73.4063 45.6858C73.8249 46.3619 74.6619 46.6516 76.3039 46.716L79.5879 46.9092V48.9697C78.7723 48.9483 77.9459 48.9268 77.1088 48.9053C76.2717 48.8624 75.4346 48.841 74.5975 48.841C73.7819 48.8195 72.9556 48.798 72.1185 48.7766C71.2814 48.7766 70.455 48.7766 69.6394 48.7766C66.2589 48.7766 63.0393 48.841 59.4655 48.9697V46.9092L62.7495 46.716C64.3915 46.6516 65.2286 46.3619 65.6471 45.6858C66.1301 44.9131 66.2589 43.1423 66.2589 40.5345V9.62653C66.2589 7.01867 66.1301 5.24791 65.6471 4.47521C65.2286 3.7991 64.3915 3.50934 62.7495 3.44495L59.4655 3.25177V1.19124C63.0393 1.32003 66.2589 1.38442 69.6394 1.38442C72.7946 1.38442 76.0142 1.32003 79.5879 1.19124V3.25177L76.3039 3.44495C74.6619 3.50934 73.8249 3.7991 73.4063 4.47521C72.9234 5.24791 72.7946 7.01867 72.7946 9.62653V21.8931C73.5995 21.9575 75.4668 22.0219 78.4932 22.0219H94.5911C97.6175 22.0219 99.4527 21.9575 100.29 21.8931V9.62653C100.29 7.01867 100.161 5.24791 99.678 4.47521C99.2595 3.7991 98.4224 3.50934 96.7804 3.44495L93.4965 3.25177V1.19124C97.0702 1.32003 100.29 1.38442 103.67 1.38442C106.826 1.38442 110.045 1.32003 113.619 1.19124V3.25177L110.335 3.44495C108.661 3.50934 107.856 3.7991 107.437 4.47521C106.954 5.24791 106.825 7.01867 106.825 9.62653V40.5345ZM120.959 17.4823C120.959 15.3896 120.831 13.9408 120.444 13.3612C120.122 12.8139 119.478 12.5885 118.158 12.5241L115.518 12.3632V10.7212C117.032 10.7212 118.577 10.7534 120.122 10.8178C121.668 10.8178 123.278 10.8822 124.791 10.8822C129.588 10.8822 134.643 10.7212 137.798 10.7212C140.245 10.7212 142.724 10.7534 144.881 10.8822C144.269 13.2968 144.012 16.4198 144.012 19.2531H142.08V15.6471C142.08 14.9388 142.015 14.3271 141.565 14.1661C138.667 13.0715 134.321 13.0393 130.811 13.0393C129.298 13.0393 127.721 13.0715 126.175 13.4578V28.1713C126.712 28.1927 127.248 28.2142 127.785 28.2357C128.3 28.2571 128.826 28.2786 129.363 28.3001C129.899 28.3001 130.436 28.3108 130.972 28.3323C131.487 28.3323 132.013 28.3323 132.55 28.3323C135.898 28.3323 137.798 28.1069 138.377 27.7205C138.667 27.4952 138.764 27.0122 138.828 26.2717L139.118 23.4063H140.76C140.695 25.6922 140.599 27.7849 140.599 29.8133C140.599 31.8416 140.695 33.9343 140.76 35.9305H139.118L138.828 32.6787C138.764 31.9382 138.667 31.4552 138.377 31.2943C137.798 30.8435 135.898 30.6182 132.55 30.6182C129.91 30.6182 127.882 30.6182 126.175 30.8113V46.2009C127.721 46.5872 129.298 46.6516 130.811 46.6516C135.319 46.6516 140.921 46.4907 141.919 45.9433C142.724 45.4926 143.432 43.0779 143.818 39.7617H145.75C145.203 42.4018 144.881 45.8146 144.881 48.7766C142.466 48.841 138.12 49.0019 134.031 48.9697C129.813 48.9053 125.467 48.7766 122.054 48.7766C119.961 48.7766 118.158 48.9053 116.162 48.9697V47.2956L118.158 47.1346C119.478 47.038 120.122 46.877 120.444 46.3297C120.831 45.718 120.959 44.2692 120.959 42.1764V17.4823ZM153.381 17.4823C153.381 15.3896 153.284 13.973 152.898 13.3612C152.576 12.8139 151.9 12.6529 150.58 12.5241L148.165 12.3632V10.7212C150.58 10.7856 152.801 10.8822 154.765 10.8822C155.763 10.8822 156.761 10.7856 157.727 10.7212L184.031 43.2067H184.192V17.4823C184.192 15.3896 184.063 13.973 183.677 13.3612C183.355 12.8139 182.711 12.6529 181.391 12.5241L178.976 12.3632V10.7212C181.165 10.7856 183.355 10.8822 185.351 10.8822C187.54 10.8822 189.536 10.7856 191.951 10.7212V12.3632L189.536 12.5241C188.216 12.6529 187.54 12.8139 187.218 13.3612C186.832 13.973 186.703 15.3896 186.703 17.4823V47.8751C186.703 48.519 186.832 49.2595 186.896 49.9034L181.938 49.0341L156.021 16.8384H155.924V42.2086C155.924 44.3014 156.021 45.718 156.407 46.3297C156.761 46.877 157.405 47.038 158.725 47.1668L161.14 47.3278V48.9697C158.725 48.9053 156.761 48.8088 154.54 48.8088C152.576 48.8088 150.354 48.9053 148.165 48.9697V47.3278L150.58 47.1668C151.9 47.038 152.576 46.877 152.898 46.3297C153.284 45.718 153.381 44.3014 153.381 42.2086V17.4823ZM204.153 42.1764C204.153 44.2692 204.25 45.718 204.636 46.3297C204.958 46.877 205.634 47.0702 206.954 47.1346L209.594 47.2956V48.9375C208.242 48.8946 206.901 48.8624 205.57 48.841C204.218 48.798 202.865 48.7766 201.513 48.7766C200.182 48.7766 198.841 48.798 197.489 48.841C196.158 48.8624 194.816 48.8946 193.464 48.9375V47.2956L196.104 47.1346C197.424 47.0702 198.1 46.877 198.422 46.3297C198.809 45.718 198.905 44.2692 198.905 42.1764V17.4823C198.905 15.3896 198.809 13.9408 198.422 13.3612C198.1 12.7817 197.424 12.6207 196.104 12.5241L193.851 12.3632V10.7212C196.78 10.7534 199.968 10.8822 203.22 10.8822C206.439 10.8822 209.627 10.7534 212.814 10.7212C221.636 10.528 223.954 15.0032 223.954 18.9633C223.954 24.9517 218.545 28.5254 213.2 29.5879L225.692 45.8789C226.529 46.9736 227.721 47.199 229.041 47.2956V48.9375C227.624 48.9053 226.368 48.7766 225.08 48.7766C223.825 48.7766 222.634 48.9053 221.346 48.9375C220.637 47.9073 219.8 46.9736 219.092 45.9755L208.983 32.3889C208.081 31.1655 207.051 30.1352 206.117 28.9762L206.439 28.3001C207.952 28.4288 209.627 28.3645 211.301 28.1069C215.132 27.4308 218.448 24.4688 218.448 20.3799C218.448 14.4559 214.037 12.7817 209.755 12.7817C207.276 12.7817 205.666 13.0715 204.153 13.4578V42.1764ZM245.267 30.0064L250.934 21.056C251.47 20.1975 251.996 19.3389 252.511 18.4804C253.026 17.6218 253.531 16.7525 254.024 15.8725C254.518 15.014 255.001 14.1339 255.473 13.2325C255.945 12.3524 256.418 11.4724 256.89 10.5924H261.269V11.3973C256.665 16.7418 250 26.0464 247.746 30.9401C247.102 32.3889 246.974 33.7411 246.974 35.0612V42.1764C246.974 44.2692 247.102 45.6858 247.489 46.2975C247.811 46.8448 248.455 47.0702 249.775 47.1346L252.415 47.2956V48.9375C251.749 48.9161 251.084 48.8946 250.419 48.8731C249.775 48.8517 249.12 48.8302 248.455 48.8088C247.789 48.8088 247.124 48.798 246.458 48.7766C245.793 48.7766 245.128 48.7766 244.462 48.7766C241.758 48.7766 239.182 48.841 236.317 48.9375V47.2956L238.957 47.1346C240.277 47.0702 240.921 46.8448 241.275 46.2975C241.661 45.6858 241.758 44.2692 241.758 42.1764V34.3529C241.758 33.4836 241.597 32.7109 241.275 32.1636L234.449 20.2511C231.584 15.3252 228.783 13.2646 227.399 13.1037L225.821 12.9427V11.3651L232.131 10.0451C233.226 9.8197 234.063 10.9144 234.997 12.0734C235.93 13.2325 236.703 14.3271 237.411 15.6471L245.267 30.0064ZM300.869 12.5885L300.451 8.66066C300.225 6.8255 299.968 6.11719 297.424 4.5396C295.493 3.38055 292.595 2.89762 289.923 2.89762C285.126 2.89762 279.749 6.11719 279.749 12.9427C279.749 17.6111 282.518 20.5087 291.082 21.4746C300.805 22.5048 306.922 24.9195 306.922 32.7431C306.922 44.4945 296.394 50.161 286.156 50.161C281.326 50.161 276.658 48.6478 274.372 47.5209C274.92 43.9472 274.92 40.2447 274.855 37.0251H277.077L277.624 41.6291C277.978 44.4945 283.387 47.1346 288.828 47.1346C295.01 47.1346 301.127 43.3355 301.127 36.5422C301.127 30.0064 296.04 28.1391 289.021 27.302C278.236 26.0786 273.986 22.698 273.986 15.5505C273.986 4.89375 283.323 0 291.565 0C297.07 0 301.191 1.80296 304.024 2.89762C303.853 3.69178 303.713 4.49667 303.606 5.3123C303.477 6.10646 303.37 6.91135 303.284 7.72698C303.22 8.52114 303.166 9.32604 303.123 10.1417C303.08 10.9573 303.059 11.7729 303.059 12.5885H300.869ZM342.885 46.9092C339.697 48.841 334.256 49.8712 330.908 49.8712C317.708 49.8712 308.789 42.3374 308.789 29.8455C308.789 23.5029 311.269 18.5126 315.518 15.0354C319.639 11.6227 325.241 9.75531 331.391 9.75531C336.51 9.75531 341.468 11.0753 344.108 12.009C343.561 14.5847 343.046 17.5145 343.046 20.3799H341.372V16.4198C341.372 14.8744 339.15 13.9408 336.639 13.0071C334.868 12.3954 332.518 12.0734 330.489 12.0734C320.122 12.0734 314.681 19.6072 314.681 28.9762C314.681 39.8583 321.893 46.9092 332.775 46.9092C336.735 46.9092 341.404 45.4604 343.947 43.593L344.43 44.1404L342.885 46.9092ZM385.029 42.1764C385.029 44.2692 385.126 45.718 385.512 46.2975C385.834 46.877 386.51 47.0702 387.83 47.1346L390.47 47.2956V48.9375C389.118 48.8946 387.776 48.8624 386.446 48.841C385.093 48.798 383.752 48.7766 382.421 48.7766C381.069 48.7766 379.727 48.798 378.397 48.841C377.044 48.8624 375.692 48.8946 374.34 48.9375V47.2956L376.98 47.1346C378.3 47.0702 378.976 46.877 379.298 46.2975C379.684 45.718 379.781 44.2692 379.781 42.1764V29.9099C379.137 29.8455 377.656 29.8133 375.241 29.8133H362.363C359.948 29.8133 358.467 29.8455 357.791 29.9099V42.1764C357.791 44.2692 357.92 45.718 358.307 46.2975C358.628 46.877 359.272 47.0702 360.592 47.1346L363.232 47.2956V48.9375C361.902 48.8946 360.56 48.8624 359.208 48.841C357.877 48.798 356.536 48.7766 355.184 48.7766C353.831 48.7766 352.49 48.798 351.159 48.841C349.807 48.8624 348.465 48.8946 347.135 48.9375V47.2956L349.775 47.1346C351.095 47.0702 351.739 46.877 352.093 46.2975C352.479 45.718 352.576 44.2692 352.576 42.1764V17.4823C352.576 15.3896 352.479 13.9408 352.093 13.3612C351.739 12.7817 351.095 12.5885 349.775 12.5241L347.135 12.3632V10.689C350 10.8178 352.576 10.8822 355.248 10.8822C357.791 10.8822 360.367 10.8178 363.232 10.689V12.3632L360.592 12.5241C359.272 12.5885 358.628 12.7817 358.307 13.3612C357.92 13.9408 357.791 15.3896 357.791 17.4823V27.2698C358.467 27.3342 359.948 27.3664 362.363 27.3664H375.241C377.656 27.3664 379.137 27.3342 379.781 27.2698V17.4823C379.781 15.3896 379.684 13.9408 379.298 13.3612C378.976 12.7817 378.3 12.5885 376.98 12.5241L374.34 12.3632V10.689C377.205 10.8178 379.781 10.8822 382.486 10.8822C385.029 10.8822 387.605 10.8178 390.47 10.689V12.3632L387.83 12.5241C386.51 12.5885 385.834 12.7817 385.512 13.3612C385.126 13.9408 385.029 15.3896 385.029 17.4823V42.1764ZM397.65 17.4501C397.65 15.3574 397.553 13.9408 397.167 13.329C396.845 12.7817 396.169 12.5563 394.849 12.492L392.209 12.331V10.689C393.754 10.689 395.299 10.7534 396.845 10.7856C398.358 10.7856 399.968 10.85 401.513 10.85C406.278 10.85 411.333 10.689 414.488 10.689C416.967 10.689 419.446 10.7534 421.571 10.85C420.959 13.2646 420.702 16.4198 420.702 19.2209H418.77V15.6471C418.77 14.9388 418.738 14.3271 418.287 14.1661C415.357 13.0715 411.011 13.0071 407.502 13.0071C406.021 13.0071 404.411 13.0715 402.865 13.4256V28.1391C403.402 28.1605 403.939 28.182 404.475 28.2035C405.012 28.2249 405.538 28.2464 406.053 28.2679C406.589 28.2893 407.126 28.3001 407.663 28.3001C408.199 28.3001 408.725 28.3001 409.24 28.3001C412.621 28.3001 414.488 28.0747 415.1 27.6883C415.357 27.463 415.486 26.98 415.518 26.2717L415.808 23.4063H417.45C417.386 25.66 417.289 27.7527 417.289 29.7811C417.289 31.8094 417.386 33.9021 417.45 35.8983H415.808L415.518 32.6465C415.486 31.9382 415.357 31.4231 415.1 31.2621C414.488 30.8435 412.621 30.6182 409.24 30.6182C406.632 30.6182 404.572 30.6182 402.865 30.7791V46.2009C404.411 46.5872 406.021 46.6194 407.502 46.6194C412.009 46.6194 417.611 46.4585 418.609 45.9111C419.446 45.4604 420.155 43.0457 420.541 39.7617H422.473C421.893 42.4018 421.571 45.8146 421.571 48.7766C419.156 48.8088 414.81 49.0019 410.753 48.9375C406.504 48.8731 402.157 48.7766 398.744 48.7766C396.652 48.7766 394.849 48.8731 392.853 48.9375V47.2956L394.849 47.1346C396.169 47.0058 396.845 46.8448 397.167 46.2975C397.553 45.6858 397.65 44.2692 397.65 42.1764V17.4501ZM435.802 42.1764C435.802 44.2692 435.93 45.6858 436.317 46.2975C436.639 46.8448 437.315 47.0702 438.635 47.1346L441.243 47.2956V48.9375C439.912 48.8731 438.57 48.8302 437.218 48.8088C435.888 48.7873 434.546 48.7766 433.194 48.7766C431.863 48.7766 430.522 48.7873 429.169 48.8088C427.839 48.8302 426.497 48.8731 425.145 48.9375V47.2956L427.785 47.1346C429.105 47.0702 429.749 46.8448 430.103 46.2975C430.489 45.6858 430.586 44.2692 430.586 42.1764V17.4501C430.586 15.3574 430.489 13.9408 430.103 13.329C429.749 12.7817 429.105 12.5563 427.785 12.492L425.145 12.331V10.689C428.01 10.7856 430.586 10.85 433.29 10.85C433.956 10.85 434.621 10.85 435.287 10.85C435.952 10.8285 436.617 10.8178 437.283 10.8178C437.948 10.7963 438.613 10.7748 439.279 10.7534C439.944 10.7319 440.599 10.7105 441.243 10.689V12.331L438.635 12.492C437.315 12.5563 436.639 12.7817 436.317 13.329C435.93 13.9408 435.802 15.3574 435.802 17.4501V42.1764ZM447.939 17.4823C447.939 15.3896 447.843 13.9408 447.457 13.3612C447.135 12.7817 446.491 12.6207 445.171 12.5241L442.724 12.3632V10.7212C445.171 10.7534 447.36 10.8822 449.356 10.8822C450.322 10.8822 451.32 10.7534 452.318 10.7212L478.59 43.1745H478.751V17.4823C478.751 15.3896 478.654 13.9408 478.268 13.3612C477.946 12.7817 477.27 12.6207 475.95 12.5241L473.535 12.3632V10.7212C475.724 10.7534 477.946 10.8822 479.91 10.8822C482.131 10.8822 484.095 10.7534 486.51 10.7212V12.3632L484.095 12.5241C482.775 12.6207 482.131 12.7817 481.777 13.3612C481.391 13.9408 481.294 15.3896 481.294 17.4823V47.8429C481.294 48.519 481.391 49.2273 481.455 49.9034L476.497 49.0019L450.612 16.8062H450.483V42.1764C450.483 44.2692 450.612 45.718 450.998 46.3297C451.32 46.877 451.964 47.038 453.316 47.1346L455.731 47.2956V48.9697C453.316 48.9053 451.32 48.7766 449.131 48.7766C447.135 48.7766 444.945 48.9053 442.724 48.9697V47.2956L445.171 47.1346C446.491 47.038 447.135 46.877 447.457 46.3297C447.843 45.718 447.972 44.2692 447.972 42.1764C447.972 42.1764 447.972 17.4823 447.939 17.4823Z" fill="black"/>
</g>
<mask id="mask1_29_1355" style="mask-type:luminance" maskUnits="userSpaceOnUse" x="-1" y="-1" width="707" height="294">
<path d="M-0.322266 -0.322266H705.264V292.659H-0.322266V-0.322266Z" fill="white"/>
</mask>
<g mask="url(#mask1_29_1355)">
<path d="M51.2867 3.86367V0.193359H0.900391V38.5385C7.95126 38.5385 15.646 33.9345 23.3086 21.8933C31.0356 9.81989 42.2397 3.86367 51.2867 3.86367Z" fill="#EB0029"/>
</g>
<mask id="mask2_29_1355" style="mask-type:luminance" maskUnits="userSpaceOnUse" x="-1" y="-1" width="707" height="294">
<path d="M-0.322266 -0.322266H705.264V292.659H-0.322266V-0.322266Z" fill="white"/>
</mask>
<g mask="url(#mask2_29_1355)">
<path d="M0.900391 45.5244V49.1947H51.2867V10.8496C44.2359 10.8496 36.5411 15.4536 28.8785 27.4626C21.1837 39.5682 9.97959 45.5244 0.900391 45.5244Z" fill="#0067B1"/>
</g>
<mask id="mask3_29_1355" style="mask-type:luminance" maskUnits="userSpaceOnUse" x="-1" y="-1" width="707" height="294">
<path d="M-0.322266 -0.322266H705.264V292.659H-0.322266V-0.322266Z" fill="white"/>
</mask>
<g mask="url(#mask3_29_1355)">
<path fill-rule="evenodd" clip-rule="evenodd" d="M499.87 14.4234C500.482 18.0937 497.262 21.2167 493.56 20.5084C493.088 20.4011 492.637 20.2401 492.208 20.0255C491.778 19.8109 491.392 19.5426 491.049 19.2206C490.705 18.8772 490.405 18.5016 490.147 18.0937C489.89 17.6859 489.696 17.2567 489.568 16.8059C488.473 12.7171 492.175 9.01454 496.232 10.2702C496.704 10.4204 497.144 10.6243 497.552 10.8819C497.96 11.1609 498.325 11.4829 498.647 11.8478C498.969 12.2127 499.226 12.6097 499.419 13.039C499.634 13.4683 499.784 13.9298 499.87 14.4234ZM490.018 15.3249C490.018 16.0332 490.179 16.7415 490.501 17.3854C490.823 18.0294 491.274 18.5767 491.853 19.0274C492.433 19.446 493.077 19.7357 493.785 19.8967C494.494 20.0255 495.234 19.9933 495.91 19.8001C496.339 19.6713 496.747 19.4889 497.134 19.2528C497.52 19.0167 497.863 18.7269 498.164 18.3835C498.443 18.0401 498.679 17.6645 498.872 17.2567C499.065 16.8488 499.194 16.4196 499.258 15.9688C499.355 15.3249 499.323 14.6488 499.13 14.0049C498.937 13.361 498.615 12.7814 498.164 12.2663C497.713 11.7512 497.166 11.3648 496.554 11.0751C495.975 10.8175 495.298 10.6565 494.622 10.6565C492.079 10.6565 490.018 12.7814 490.018 15.3249ZM494.494 12.2341C495.492 12.2341 496.747 12.3629 496.747 13.6829C496.747 14.6166 495.942 15.0995 495.105 15.2283C495.781 15.3249 496.168 16.1942 496.393 16.7415C496.49 16.9991 496.683 17.4498 496.844 17.6108C497.005 17.7718 497.166 17.804 497.423 17.804V18.0615H497.037C496.747 18.0615 496.393 18.0615 496.136 17.8684C495.878 17.6752 495.62 17.0635 495.524 16.7737C495.395 16.4518 495.17 15.84 494.912 15.5825C494.687 15.3249 494.3 15.3893 493.978 15.3893H493.721V17.2567C493.721 17.6108 493.753 17.7718 494.139 17.804H494.429V18.0615H492.208V17.804H492.465C492.819 17.804 492.916 17.7396 492.916 17.3532V12.9424C492.916 12.5561 492.723 12.5239 492.465 12.5239L492.208 12.4917V12.2341H494.494ZM493.721 15.0673H494.139C495.041 15.0673 495.942 14.8742 495.942 13.7795C495.942 12.9102 495.395 12.5239 494.558 12.5239H494.139C493.721 12.5239 493.721 12.8136 493.721 13.1678V15.0673Z" fill="black"/>
</g>
</g>
<defs>
<clipPath id="clip0_29_1355">
<rect width="500" height="86.6066" fill="white"/>
</clipPath>
</defs>
</svg>
