<svg width="500" height="86" viewBox="0 0 500 86" fill="none" xmlns="http://www.w3.org/2000/svg">
<g clip-path="url(#clip0_29_1356)">
<path d="M66.7411 1.59375H53.3482C53.3482 1.59375 53.3482 29.081 53.3482 33.354C49.1709 33.354 20.0893 33.354 15.9439 33.354C15.9439 29.081 15.9439 1.59375 15.9439 1.59375H0V83.9917H15.9439C15.9439 83.9917 15.9439 51.9126 15.9439 47.4802C20.0893 47.4802 49.1709 47.4802 53.3482 47.4802C53.3482 51.8489 53.3482 83.9917 53.3482 83.9917H69.2921V1.59375H66.7411Z" fill="#0F206C"/>
<path fill-rule="evenodd" clip-rule="evenodd" d="M156.218 42.921C156.218 51.1481 154.4 58.6098 150.861 65.1149C147.289 71.7157 142.092 76.7221 135.523 80.1659C129.018 83.546 121.938 85.2361 114.445 85.2361C106.313 85.2361 98.8836 83.3547 92.4423 79.6557C86.001 75.9249 80.9946 70.7272 77.6783 64.2221C74.3619 57.8445 72.6719 50.9249 72.6719 43.8458C72.6719 30.3573 76.626 19.7068 84.3747 11.958C92.1872 4.2093 102.264 0.287109 114.509 0.287109C122.512 0.287109 129.783 2.1366 136.224 5.70803C142.666 9.34323 147.768 14.4772 151.148 20.9823C154.528 27.4555 156.218 34.7897 156.218 42.921ZM136.958 27.583C134.949 23.2782 132.015 20.0894 128.029 17.7297C124.075 15.4019 119.579 14.2221 114.636 14.2221C107.493 14.2221 101.562 16.4542 96.4283 20.9823C91.4857 25.4147 88.9346 33.1634 88.9346 43.9733C88.9346 52.5511 91.3581 59.407 96.1732 64.2221C101.052 69.1009 107.015 71.4925 114.445 71.4925C122.002 71.4925 128.029 69.1009 132.844 64.1583C137.659 59.2795 140.083 52.1047 140.083 42.921C140.083 37.0218 138.967 31.856 136.958 27.583Z" fill="#0F206C"/>
<path d="M175.542 69.8017C175.542 65.1142 175.542 1.59375 175.542 1.59375H159.598V83.9917H215.816V69.8654C215.88 69.8017 180.038 69.8017 175.542 69.8017Z" fill="#0F206C"/>
<path fill-rule="evenodd" clip-rule="evenodd" d="M291.358 42.921C291.358 51.1481 289.573 58.6098 286.001 65.1149C282.43 71.7157 277.232 76.7858 270.663 80.1659C264.158 83.546 257.047 85.2361 249.585 85.2361C241.454 85.2361 234.088 83.3547 227.647 79.6557C221.142 75.9249 216.135 70.7272 212.819 64.2221C209.503 57.8445 207.812 50.9886 207.812 43.8458C207.812 30.3573 211.703 19.7068 219.515 11.958C227.264 4.2093 237.341 0.287109 249.585 0.287109C257.589 0.287109 264.86 2.1366 271.301 5.70803C277.806 9.34323 282.812 14.4772 286.193 20.9823C289.573 27.4555 291.263 34.7897 291.358 42.921ZM272.034 27.583C269.994 23.2782 267.06 20.0894 263.106 17.7297C259.152 15.4019 254.656 14.2221 249.713 14.2221C242.538 14.2221 236.639 16.4542 231.473 20.9823C226.531 25.4147 224.011 33.1634 224.011 43.9733C224.011 52.7106 226.339 59.3432 231.218 64.2221C236.097 69.1009 242.092 71.4925 249.522 71.4925C257.047 71.4925 263.106 69.1009 267.921 64.1583C272.736 59.2795 275.128 52.1047 275.128 42.921C275.128 37.0218 274.043 31.856 272.034 27.583Z" fill="#0F206C"/>
<path d="M336.351 39.4772V53.6034C336.351 53.6034 356.409 53.6034 360.427 53.6034C360.427 56.6647 360.427 62.4682 360.427 64.2221C358.354 65.7846 355.548 67.2833 351.849 68.7182C347.672 70.2807 343.335 71.1098 339.03 71.1098C334.024 71.1098 329.208 70.0575 324.776 67.9848C320.439 65.9759 317.251 62.9147 314.955 58.7374C312.691 54.5282 311.511 49.1073 311.511 42.6659C311.511 37.4682 312.499 32.5894 314.444 28.0932C315.561 25.606 317.091 23.2782 319.132 21.2055C321.077 19.1647 323.756 17.4746 327.008 16.1672C330.325 14.8704 334.289 14.2221 338.902 14.2221C342.665 14.2221 346.205 14.8917 349.234 16.0397C352.168 17.2195 354.527 18.782 356.026 20.6634C357.652 22.7042 358.992 25.4784 360.108 29.1455L360.841 31.4096L375.414 27.583L374.744 25.0958C373.245 19.5792 370.981 15.0193 368.048 11.4797C365.05 7.90828 360.905 5.10216 355.739 3.15701C350.669 1.27563 345.025 0.287109 338.775 0.287109C330.261 0.287109 322.576 1.97716 316.007 5.32538C309.311 8.70548 304.017 13.967 300.51 20.9185C297.002 27.7744 295.248 35.2361 295.248 43.1124C295.248 51.1481 297.066 58.4823 300.573 64.9236C304.145 71.4925 309.566 76.5945 316.581 80.1022C323.469 83.4823 331.217 85.2361 339.604 85.2361C345.854 85.2361 351.976 84.1838 357.907 82.0473C363.743 79.9746 369.546 76.7858 375.063 72.6085L376.115 71.8432V39.4772H336.351Z" fill="#0F206C"/>
<path d="M395.949 1.59375H382.557V83.9917H398.501V1.59375H395.949Z" fill="#0F206C"/>
<path d="M465.433 51.3394L464.859 53.7948C463.488 59.6621 460.969 64.1583 457.174 67.092C453.411 70.0575 448.851 71.4925 443.335 71.4925C438.764 71.4925 434.534 70.387 430.644 68.1761C426.785 66.0397 424.075 62.8509 422.257 58.4185C420.344 53.8585 419.387 48.4057 419.387 42.1557C419.387 37.4045 420.152 32.717 421.779 28.2208C423.341 23.9159 425.956 20.5358 429.719 18.0167C433.513 15.4657 438.392 14.1583 444.164 14.1583C449.107 14.1583 453.22 15.2744 456.409 17.5384C459.534 19.7705 462.053 23.4695 463.743 28.5397L464.476 30.708L479.942 27.2323L479.177 24.6494C476.817 16.9644 472.608 10.9057 466.549 6.66466C460.554 2.45548 453.093 0.287109 444.419 0.287109C436.83 0.287109 429.719 1.97716 423.405 5.2616C416.964 8.57793 411.894 13.5205 408.45 19.8981C405.006 26.2119 403.252 33.6736 403.252 42.1557C403.252 49.8407 404.814 57.1749 407.812 63.9032C410.937 70.7909 415.465 76.0524 421.396 79.7195C427.327 83.3547 435.012 85.1723 444.228 85.1723C453.284 85.1723 461.096 82.7807 467.41 78.0932C473.788 73.4057 478.188 66.4223 480.612 57.5256L481.313 54.9746L465.433 51.3394Z" fill="#0F206C"/>
<path fill-rule="evenodd" clip-rule="evenodd" d="M490.944 20.3434C485.747 20.3434 482.111 16.4531 482.111 11.3511C482.111 5.96205 486.193 2.39062 490.944 2.39062C495.695 2.39062 499.745 5.96205 499.745 11.3511C499.745 16.772 495.632 20.3434 490.944 20.3434ZM490.944 3.95312C487.054 3.95312 483.993 7.01435 483.993 11.3511C483.993 15.4646 486.671 18.7809 490.944 18.7809C494.803 18.7809 497.832 15.7197 497.832 11.3511C497.768 7.01435 494.803 3.95312 490.944 3.95312ZM487.5 16.5169V6.53603H491.263C493.687 6.53603 494.93 7.397 494.93 9.40593C494.93 11.2235 493.814 11.957 492.315 12.1483L495.122 16.5169H493.24L490.625 12.2121H489.063V16.5169H487.5ZM490.944 10.8409C492.188 10.8409 493.304 10.7133 493.304 9.27838C493.304 8.03476 492.124 7.90721 491.136 7.90721H489.19V10.8409H490.944Z" fill="#0F206C"/>
</g>
<defs>
<clipPath id="clip0_29_1356">
<rect width="500" height="85.4592" fill="white"/>
</clipPath>
</defs>
</svg>
