<svg width="500" height="103" viewBox="0 0 500 103" fill="none" xmlns="http://www.w3.org/2000/svg">
<g clip-path="url(#clip0_29_1357)">
<path d="M139.744 24.359C138.034 24.359 136.752 25.641 136.752 27.3504V85.8974C132.479 86.7521 127.778 87.6068 123.077 87.6068C112.821 87.6068 109.402 83.7607 109.402 72.6496V27.3504C109.402 25.641 108.12 24.359 106.838 24.359H91.453V72.6496C91.453 95.2991 103.419 102.564 122.65 102.564C138.034 102.564 153.419 98.2906 154.701 97.8632V24.359H139.744ZM375.214 101.709C376.496 101.709 378.205 100.427 378.205 98.7179V39.7436C382.479 38.8889 387.179 38.0342 391.88 38.0342C402.137 38.0342 405.556 41.8803 405.556 52.9915V98.7179C405.556 100.427 406.838 101.709 408.12 101.709H423.504V52.9915C423.504 30.3419 411.538 23.0769 392.308 23.0769C376.923 23.0769 361.538 27.3504 360.256 27.7778V101.709H375.214ZM313.675 23.0769C293.59 23.0769 281.197 33.7607 281.197 57.265V68.8034C281.197 94.4444 294.872 102.991 309.402 102.991C316.667 102.991 324.359 97.8633 326.496 94.8718V99.5726C326.496 100.855 327.778 102.137 329.06 102.137C329.06 102.137 344.017 102.137 344.444 102.137V27.3504C344.872 27.3504 329.915 23.0769 313.675 23.0769ZM326.923 82.906C323.504 85.8974 320.94 87.6068 313.675 87.6068C303.419 88.0342 299.145 81.6239 299.145 68.3761V57.6923C299.145 42.735 304.701 38.4615 313.675 38.4615C320.94 38.4615 325.214 38.8889 326.923 39.3162V82.906ZM468.803 23.0769C448.718 23.0769 436.325 33.7607 436.325 57.265V68.8034C436.325 94.4444 450 102.991 464.957 102.991C472.222 102.991 479.915 97.8633 482.051 94.8718V99.5726C482.051 100.855 483.333 102.137 484.615 102.137C484.615 102.137 499.573 102.137 500 102.137V27.3504C500 27.3504 485.043 23.0769 468.803 23.0769ZM482.051 82.906C478.632 85.8974 476.068 87.6068 468.803 87.6068C458.547 87.6068 454.274 81.6239 454.274 68.3761V57.6923C454.274 42.3077 459.829 38.4615 468.803 38.4615C476.068 38.4615 480.342 38.8889 482.051 39.3162V82.906ZM0 101.709C2.5641 101.709 16.2393 101.709 16.2393 101.709C17.5214 101.709 18.8034 100.427 18.8034 99.1453V56.4103H48.7179C53.8462 56.4103 57.265 60.2564 57.265 64.5299V99.1453C57.265 100.427 58.547 101.709 59.8291 101.709C59.8291 101.709 75.2137 101.709 76.0684 101.709C76.0684 101.709 76.0684 0.854701 76.0684 0H59.8291C58.547 0 57.265 1.28205 57.265 2.5641V41.0256H26.4957C22.2222 41.0256 19.2308 37.6068 19.2308 33.7607V2.5641C18.8034 1.7094 17.9487 0 16.2393 0H0C0 0.854701 0 101.709 0 101.709ZM240.598 23.0769C232.051 23.0769 223.932 26.4957 220.085 29.0598C214.53 24.7863 206.838 23.0769 197.436 23.0769C183.333 23.0769 171.368 27.3504 169.658 28.2051V102.137H185.043C186.752 102.137 187.607 100.855 187.607 99.1453V39.7436C191.453 38.8889 194.444 38.4615 197.009 38.4615C207.692 38.4615 210.256 42.735 210.256 53.4188V99.1453C210.256 100.427 211.111 102.137 212.821 102.137H225.641C227.35 102.137 228.205 100.855 228.205 99.1453V41.8803C231.197 39.7436 235.043 38.4615 238.889 38.4615C247.009 38.4615 250.427 42.3077 250.427 52.1367V99.1453C250.427 100.427 251.282 102.137 252.991 102.137C252.991 102.137 267.094 102.137 268.376 102.137V49.5727C268.803 29.9145 256.41 23.0769 240.598 23.0769Z" fill="#4E8416"/>
</g>
<defs>
<clipPath id="clip0_29_1357">
<rect width="500" height="102.564" fill="white"/>
</clipPath>
</defs>
</svg>
