<svg width="500" height="150" viewBox="0 0 500 150" fill="none" xmlns="http://www.w3.org/2000/svg">
<g clip-path="url(#clip0_29_1379)">
<mask id="mask0_29_1379" style="mask-type:luminance" maskUnits="userSpaceOnUse" x="-52" y="-54" width="604" height="258">
<path d="M551.642 -53.3945H-51.7852V203.236H551.642V-53.3945Z" fill="white"/>
</mask>
<g mask="url(#mask0_29_1379)">
<path d="M30.0436 1.20508H1.20703V92.2792H30.0436V1.20508Z" fill="black"/>
</g>
<mask id="mask1_29_1379" style="mask-type:luminance" maskUnits="userSpaceOnUse" x="-52" y="-54" width="604" height="258">
<path d="M551.642 -53.3945H-51.7852V203.236H551.642V-53.3945Z" fill="white"/>
</mask>
<g mask="url(#mask1_29_1379)">
<path d="M200.995 70.3967V51.9922H173.07V92.2867H272.457V70.3967H200.995Z" fill="black"/>
</g>
<mask id="mask2_29_1379" style="mask-type:luminance" maskUnits="userSpaceOnUse" x="-52" y="-54" width="604" height="258">
<path d="M551.642 -53.3945H-51.7852V203.236H551.642V-53.3945Z" fill="white"/>
</mask>
<g mask="url(#mask2_29_1379)">
<path d="M101.852 142.553H93.3919V133.796H102.892C106.542 133.796 107.305 134.834 107.305 138.341C107.305 142.302 105.542 142.553 101.852 142.553ZM93.3919 120.912H102.11C105.161 120.912 106.542 121.168 106.542 124.61C106.542 128.032 105.75 129.114 102.282 129.114H93.3919V120.912ZM108.13 131.134C112.043 130.185 112.718 127.707 112.718 124.009C112.718 116.91 109.549 115.621 103.233 115.621H87.2031V147.854H103.788C110.577 147.854 113.498 146.005 113.498 138.858C113.5 134.791 112.632 131.824 108.13 131.134Z" fill="black"/>
</g>
<mask id="mask3_29_1379" style="mask-type:luminance" maskUnits="userSpaceOnUse" x="-52" y="-54" width="604" height="258">
<path d="M551.642 -53.3945H-51.7852V203.236H551.642V-53.3945Z" fill="white"/>
</mask>
<g mask="url(#mask3_29_1379)">
<path d="M59.4947 137.052H48.3554L53.8635 120.335H53.948L59.4947 137.052ZM60.8777 141.764L62.9849 147.856H69.2557L58.3433 115.623H49.2219L38.5195 147.856H44.9255L46.9506 141.764H60.8777Z" fill="black"/>
</g>
<mask id="mask4_29_1379" style="mask-type:luminance" maskUnits="userSpaceOnUse" x="-52" y="-54" width="604" height="258">
<path d="M551.642 -53.3945H-51.7852V203.236H551.642V-53.3945Z" fill="white"/>
</mask>
<g mask="url(#mask4_29_1379)">
<path d="M146.491 120.648C151.99 120.648 154.198 121.068 154.056 127.141V135.826C154.056 142.058 152.122 142.809 146.491 142.809C140.305 142.809 139.064 142.208 139.064 135.826V127.141C139.183 122.024 139.834 120.648 146.491 120.648ZM146.491 115.357C136.267 115.357 132.883 117.124 132.883 127.144V135.828C132.883 146.395 136.523 148.095 146.491 148.095C156.245 148.095 160.252 146.135 160.252 135.828V127.144C160.252 116.779 155.787 115.357 146.491 115.357Z" fill="black"/>
</g>
<mask id="mask5_29_1379" style="mask-type:luminance" maskUnits="userSpaceOnUse" x="-52" y="-54" width="604" height="258">
<path d="M551.642 -53.3945H-51.7852V203.236H551.642V-53.3945Z" fill="white"/>
</mask>
<g mask="url(#mask5_29_1379)">
<path d="M244.772 137.052H233.633L239.141 120.335H239.225L244.772 137.052ZM246.141 141.764L248.241 147.856H254.504L243.599 115.623H234.499L223.797 147.856H230.208L232.204 141.764H246.141Z" fill="black"/>
</g>
<mask id="mask6_29_1379" style="mask-type:luminance" maskUnits="userSpaceOnUse" x="-52" y="-54" width="604" height="258">
<path d="M551.642 -53.3945H-51.7852V203.236H551.642V-53.3945Z" fill="white"/>
</mask>
<g mask="url(#mask6_29_1379)">
<path d="M320.977 120.648C326.483 120.648 328.652 121.068 328.537 127.141V135.826C328.537 142.058 326.606 142.809 320.977 142.809C314.781 142.809 313.54 142.208 313.54 135.826V127.141C313.666 122.024 314.303 120.648 320.977 120.648ZM320.977 115.357C310.728 115.357 307.342 117.124 307.342 127.144V135.828C307.342 146.395 311.001 148.095 320.977 148.095C330.738 148.095 334.733 146.135 334.733 135.828V127.144C334.733 116.779 330.245 115.357 320.977 115.357Z" fill="black"/>
</g>
<mask id="mask7_29_1379" style="mask-type:luminance" maskUnits="userSpaceOnUse" x="-52" y="-54" width="604" height="258">
<path d="M551.642 -53.3945H-51.7852V203.236H551.642V-53.3945Z" fill="white"/>
</mask>
<g mask="url(#mask7_29_1379)">
<path d="M194.621 131.892H186.453V120.912H195.053C199.485 120.912 200.296 121.725 200.296 126.278C200.294 131.004 199.174 131.892 194.621 131.892ZM200.769 134.356C206.214 133.538 206.49 130.072 206.49 125.274C206.49 117.991 203.764 115.783 196.712 115.621H180.26V147.854H186.453V137.188H195.959C198.923 137.221 200.04 139.126 200.04 141.848V147.854H206.214V141.851C206.214 137.277 205.157 134.933 200.769 134.356Z" fill="black"/>
</g>
<mask id="mask8_29_1379" style="mask-type:luminance" maskUnits="userSpaceOnUse" x="-52" y="-54" width="604" height="258">
<path d="M551.642 -53.3945H-51.7852V203.236H551.642V-53.3945Z" fill="white"/>
</mask>
<g mask="url(#mask8_29_1379)">
<path d="M281.497 147.856V120.912H290.969V115.621H265.861V120.912H275.328V147.856H281.497Z" fill="black"/>
</g>
<mask id="mask9_29_1379" style="mask-type:luminance" maskUnits="userSpaceOnUse" x="-52" y="-54" width="604" height="258">
<path d="M551.642 -53.3945H-51.7852V203.236H551.642V-53.3945Z" fill="white"/>
</mask>
<g mask="url(#mask9_29_1379)">
<path d="M23.0742 147.856V142.553H8.02469V115.621H1.83594V147.856H23.0742Z" fill="black"/>
</g>
<mask id="mask10_29_1379" style="mask-type:luminance" maskUnits="userSpaceOnUse" x="-52" y="-54" width="604" height="258">
<path d="M551.642 -53.3945H-51.7852V203.236H551.642V-53.3945Z" fill="white"/>
</mask>
<g mask="url(#mask10_29_1379)">
<path d="M369.143 131.892H360.987V120.912H369.575C373.984 120.912 374.832 121.725 374.832 126.278C374.829 131.004 373.692 131.892 369.143 131.892ZM375.285 134.356C380.753 133.538 380.994 130.072 380.994 125.274C380.994 117.991 378.3 115.783 371.247 115.621H354.803V147.854H360.989V137.188H370.48C373.439 137.221 374.561 139.126 374.561 141.848V147.854H380.753V141.851C380.75 137.277 379.674 134.933 375.285 134.356Z" fill="black"/>
</g>
<mask id="mask11_29_1379" style="mask-type:luminance" maskUnits="userSpaceOnUse" x="-52" y="-54" width="604" height="258">
<path d="M551.642 -53.3945H-51.7852V203.236H551.642V-53.3945Z" fill="white"/>
</mask>
<g mask="url(#mask11_29_1379)">
<path d="M408.089 115.621H401.902V147.854H408.089V115.621Z" fill="black"/>
</g>
<mask id="mask12_29_1379" style="mask-type:luminance" maskUnits="userSpaceOnUse" x="-52" y="-54" width="604" height="258">
<path d="M551.642 -53.3945H-51.7852V203.236H551.642V-53.3945Z" fill="white"/>
</mask>
<g mask="url(#mask12_29_1379)">
<path d="M429.234 115.621V147.856H451.438V142.553H435.406V134.021H450.504V128.947H435.406V120.912H451.317V115.621H429.234Z" fill="black"/>
</g>
<mask id="mask13_29_1379" style="mask-type:luminance" maskUnits="userSpaceOnUse" x="-52" y="-54" width="604" height="258">
<path d="M551.642 -53.3945H-51.7852V203.236H551.642V-53.3945Z" fill="white"/>
</mask>
<g mask="url(#mask13_29_1379)">
<path d="M476.22 138.476V139.084C476.22 142.77 477.811 143.033 483.541 143.033C489.17 143.033 489.935 142.024 489.935 138.256C489.935 133.665 487.488 134.269 482.675 134.018C475.702 133.576 470.203 133.842 470.203 124.467C470.203 115.621 475.791 115.357 483.539 115.357C490.119 115.357 495.487 115.56 495.487 124.035V124.172H489.283C489.283 120.569 487.874 120.419 483.539 120.419C477.374 120.419 476.385 121.022 476.385 124.469C476.385 128.425 477.227 128.56 483.498 128.947C493.413 129.548 496.121 130.071 496.121 138.256C496.121 147.334 491.827 148.092 483.536 148.092C476.382 148.092 470.029 148.324 470.029 139.084V138.476H476.22Z" fill="black"/>
</g>
<mask id="mask14_29_1379" style="mask-type:luminance" maskUnits="userSpaceOnUse" x="-52" y="-54" width="604" height="258">
<path d="M551.642 -53.3945H-51.7852V203.236H551.642V-53.3945Z" fill="white"/>
</mask>
<g mask="url(#mask14_29_1379)">
<path d="M114.462 68.8934H69.4154V53.2188H41.4863V92.2895H119C146.924 92.2895 163.509 79.7189 163.509 57.2086V53.2188H135.573C135.235 65.6156 126.2 68.8934 114.462 68.8934Z" fill="black"/>
</g>
<mask id="mask15_29_1379" style="mask-type:luminance" maskUnits="userSpaceOnUse" x="-52" y="-54" width="604" height="258">
<path d="M551.642 -53.3945H-51.7852V203.236H551.642V-53.3945Z" fill="white"/>
</mask>
<g mask="url(#mask15_29_1379)">
<path d="M69.4154 23.8481H114.462C126.159 23.8481 135.182 27.1187 135.573 39.4141H163.509V36.3052C163.509 13.7781 146.924 1.20508 119 1.20508H41.4863V39.4141H69.4178L69.4154 23.8481Z" fill="black"/>
</g>
<mask id="mask16_29_1379" style="mask-type:luminance" maskUnits="userSpaceOnUse" x="-52" y="-54" width="604" height="258">
<path d="M551.642 -53.3945H-51.7852V203.236H551.642V-53.3945Z" fill="white"/>
</mask>
<g mask="url(#mask16_29_1379)">
<path d="M173.07 39.4141H200.995V22.3516H272.477V1.20508H173.07V39.4141Z" fill="black"/>
</g>
<mask id="mask17_29_1379" style="mask-type:luminance" maskUnits="userSpaceOnUse" x="-52" y="-54" width="604" height="258">
<path d="M551.642 -53.3945H-51.7852V203.236H551.642V-53.3945Z" fill="white"/>
</mask>
<g mask="url(#mask17_29_1379)">
<path d="M271.252 38.1699H210.576V54.4335H271.252V38.1699Z" fill="black"/>
</g>
<mask id="mask18_29_1379" style="mask-type:luminance" maskUnits="userSpaceOnUse" x="-52" y="-54" width="604" height="258">
<path d="M551.642 -53.3945H-51.7852V203.236H551.642V-53.3945Z" fill="white"/>
</mask>
<g mask="url(#mask18_29_1379)">
<path d="M462.208 53.2188H412.572L385.201 83.0546L357.829 53.2188H308.303L272.459 92.2871H309.176L333.041 64.1239L356.977 92.2871H413.446L437.323 64.1239L461.218 92.3015H498.795L462.208 53.2188Z" fill="black"/>
</g>
<mask id="mask19_29_1379" style="mask-type:luminance" maskUnits="userSpaceOnUse" x="-52" y="-54" width="604" height="258">
<path d="M551.642 -53.3945H-51.7852V203.236H551.642V-53.3945Z" fill="white"/>
</mask>
<g mask="url(#mask19_29_1379)">
<path d="M385.201 10.452L411.781 39.4141H462.898L497.931 1.20508H461.218L437.337 29.3755L413.451 1.22439L356.99 1.20508L333.041 29.3755L309.176 1.22439H272.459L307.496 39.4141H358.655L385.201 10.452Z" fill="black"/>
</g>
</g>
<defs>
<clipPath id="clip0_29_1379">
<rect width="500" height="149.302" fill="white"/>
</clipPath>
</defs>
</svg>
