<svg width="500" height="120" viewBox="0 0 500 120" fill="none" xmlns="http://www.w3.org/2000/svg">
<g clip-path="url(#clip0_29_1380)">
<path fill-rule="evenodd" clip-rule="evenodd" d="M2.44531 44.2422L2.52418 117.113H16.3254V44.2422H2.44531Z" fill="#F9A31E"/>
<path fill-rule="evenodd" clip-rule="evenodd" d="M39.3535 0.708984V117.113H53.3125V0.708984H39.3535Z" fill="#666666"/>
<path fill-rule="evenodd" clip-rule="evenodd" d="M77.0508 117.113H91.0098V0.708984H77.0508V117.113Z" fill="#666666"/>
<path fill-rule="evenodd" clip-rule="evenodd" d="M175.316 117.113H161.436V105.914H161.12C152.524 124.684 110.647 126.34 110.647 91.1665L110.568 44.2422H124.448V87.3021C124.448 101.025 132.335 106.072 141.089 106.072C152.603 106.072 161.436 98.6586 161.357 81.7816V44.2422H175.237L175.316 117.113Z" fill="#666666"/>
<path fill-rule="evenodd" clip-rule="evenodd" d="M193.139 44.2424H206.072V55.5988H206.388C207.807 51.2613 216.719 42.3496 229.811 42.3496C240.615 42.3496 247.949 47.0026 252.602 55.9143C257.413 47.0026 266.956 42.3496 275.71 42.3496C298.186 42.3496 303.391 58.3591 303.47 74.684V117.192H289.59V76.5767C289.59 65.4569 287.224 55.3622 273.896 55.3622C260.489 55.3622 255.284 64.4316 255.284 77.3654V117.192H241.325V79.0215C241.325 65.1414 239.274 55.3622 225.946 55.3622C215.93 55.3622 207.019 62.9332 207.019 79.337V117.192H193.139V44.2424Z" fill="#666666"/>
<path fill-rule="evenodd" clip-rule="evenodd" d="M322.24 117.113H336.12V44.2422H322.24V117.113Z" fill="#666666"/>
<path fill-rule="evenodd" clip-rule="evenodd" d="M356.545 44.2418H370.425V55.4405H370.741C379.337 36.6708 421.214 35.0146 421.214 70.1881V117.112H407.334V74.0525C407.334 60.3301 399.447 55.2828 390.693 55.2828C379.179 55.2828 370.346 62.696 370.425 79.573V117.112H356.545V44.2418Z" fill="#666666"/>
<path fill-rule="evenodd" clip-rule="evenodd" d="M447.633 61.7495C452.681 57.8851 457.807 53.4687 468.375 53.4687C480.204 53.4687 485.804 61.2763 485.804 68.8473V71.923C471.924 71.923 435.488 69.9514 435.488 97.1596C435.488 111.355 447.16 119.005 460.725 119.005C471.766 119.005 480.125 115.456 486.277 106.071H486.592C486.592 109.778 486.75 113.485 487.066 117.191H499.368C498.343 108.753 498.738 65.9293 498.738 66.7179C498.738 38.6422 457.807 35.8031 439.353 53.1533L447.633 61.7495ZM485.883 82.0965V86.7495C485.883 96.6075 480.52 107.964 465.141 107.964C455.599 107.964 449.447 104.415 449.447 96.1343C449.368 81.4656 473.422 82.0965 485.883 82.0965Z" fill="#666666"/>
<path fill-rule="evenodd" clip-rule="evenodd" d="M9.30599 9.46289C4.17981 9.46289 0 13.6427 0 18.7689C0 23.8951 4.17981 28.0749 9.30599 28.0749C14.4322 28.0749 18.612 23.8951 18.612 18.7689C18.612 13.6427 14.4322 9.46289 9.30599 9.46289Z" fill="#F9A31E"/>
</g>
<defs>
<clipPath id="clip0_29_1380">
<rect width="500" height="119.085" fill="white"/>
</clipPath>
</defs>
</svg>
