<svg width="500" height="334" viewBox="0 0 500 334" fill="none" xmlns="http://www.w3.org/2000/svg">
<g clip-path="url(#clip0_29_1378)">
<path fill-rule="evenodd" clip-rule="evenodd" d="M247.196 185.023V199.268C244.073 200.766 235.373 203.219 224.22 203.219C200.925 203.219 185.501 188.72 185.501 169.472C185.501 150.224 201.148 135.692 223.582 135.692C233.111 135.692 242.193 137.955 244.679 138.879V152.614C244.679 153.315 244.201 153.219 243.627 152.869C237.731 149.746 231.9 148.631 225.622 148.631C214.15 148.631 204.589 156.47 204.589 169.472C204.589 181.964 214.659 189.899 225.016 189.899C232.378 189.899 237.03 188.847 246.176 184.641C246.559 184.322 247.196 184.322 247.196 185.023ZM438.656 184.067V197.802C434.895 199.3 425.431 203.251 410.867 203.251C389.612 203.251 374.22 189.038 374.22 169.472C374.22 150.224 386.967 135.724 408.509 135.724C429.127 135.724 441.301 150.606 441.301 170.842V175.176H393.34C393.34 180.817 397.802 190.441 411.664 190.441C421.575 190.441 429.318 188.178 437.445 183.685C437.891 183.366 438.656 183.366 438.656 184.067ZM423.2 162.27C423.2 158.446 420.842 147.643 408.509 147.643C398.025 147.643 393.946 158.031 393.786 162.27H423.2ZM66.3803 107.362H84.5448V201.052H66.3803V107.362ZM364.978 188.019V201.307C352.359 204.685 338.209 203.666 332.282 198.758C331.624 198.184 331.018 197.568 330.466 196.91C324.57 228.968 309.242 259.657 284.417 284.45C219.344 349.459 113.831 349.459 48.7576 284.418C-16.2838 219.408 -16.2838 113.959 48.7576 48.9173C92.3841 5.3227 154.143 -9.01765 209.72 5.80071L209.401 6.9798C157.68 -5.41663 100.925 8.57318 60.5486 48.9173C-1.27423 110.708 -1.27423 210.868 60.5486 272.659C122.371 334.418 222.594 334.418 284.417 272.659C324.761 232.346 338.719 175.718 326.45 124.061L344.424 115.17C344.838 115.042 345.316 115.202 345.316 115.68V138.592C346.846 138.592 364.883 138.592 364.883 138.592V151.339H345.316V181.518C345.316 184.896 346.176 187.349 348.056 188.72C350.861 190.823 358.127 190.504 364.118 187.796C364.405 187.573 364.978 187.636 364.978 188.019ZM451.052 284.45C407.426 328.044 345.666 342.385 290.09 327.566L290.408 326.419C342.129 338.784 398.885 324.794 439.261 284.45C501.084 222.659 501.084 122.499 439.261 60.7083C377.438 -1.08265 277.215 -1.08265 215.392 60.7083C177.183 98.8855 162.652 151.69 171.67 201.052H153.06V159.752C153.06 154.399 148.471 149.236 141.046 149.236C133.589 149.236 126.387 156.088 123.582 159.115V201.052H105.386V138.592H122.021C122.021 138.592 122.021 142.99 122.021 145.125C127.343 140.313 136.297 135.597 144.583 135.597C155.96 135.597 163.767 139.389 167.846 146.304C172.212 110.74 188.05 76.2596 215.392 48.9492C280.466 -16.0922 385.979 -16.0922 451.052 48.9492C516.094 113.959 516.094 219.408 451.052 284.45ZM323.136 138.592L273.2 236.202H255.099L278.936 189.516L252.518 138.592H270.969L287.795 172.212L305.004 138.592H323.136Z" fill="#2F63B6"/>
</g>
<defs>
<clipPath id="clip0_29_1378">
<rect width="500" height="333.333" fill="white"/>
</clipPath>
</defs>
</svg>
