<svg width="500" height="149" viewBox="0 0 500 149" fill="none" xmlns="http://www.w3.org/2000/svg">
<g clip-path="url(#clip0_29_1381)">
<path d="M0 0.744462C0.432059 0.679653 0.853316 0.625645 1.26377 0.58244C1.69583 0.539234 2.12789 0.496028 2.55995 0.452822C2.9704 0.409616 3.39166 0.377212 3.82372 0.355609C4.25578 0.334006 4.68784 0.323204 5.1199 0.323204C5.98401 0.279998 6.83733 0.312403 7.67984 0.420418C8.54396 0.550035 9.38648 0.755263 10.2074 1.0361C11.0067 1.31694 11.7844 1.68419 12.5405 2.13785C13.275 2.59151 13.9663 3.10998 14.6144 3.69326C15.1977 4.31975 15.7053 5.01104 16.1374 5.76714C16.5911 6.50164 16.9691 7.27935 17.2715 8.10026C17.5524 8.89957 17.7576 9.73128 17.8872 10.5954C17.9952 11.4595 18.0277 12.3236 17.9844 13.1878V145.171H0V0.744462Z" fill="#743DBC"/>
<path d="M35.9355 48.8643C36.2164 48.8427 36.508 48.8211 36.8105 48.7995C37.0913 48.7779 37.3829 48.7563 37.6854 48.7347C37.9662 48.7131 38.2471 48.7023 38.5279 48.7023C38.8303 48.6807 39.122 48.6699 39.4028 48.6699C40.2021 48.6267 41.0014 48.6591 41.8007 48.7671C42.5784 48.8535 43.3562 49.0155 44.1339 49.2531C44.89 49.4692 45.6245 49.75 46.3374 50.0957C47.0503 50.4629 47.7308 50.8734 48.3788 51.327C48.9837 51.8023 49.5238 52.3316 49.9991 52.9148C50.4743 53.4765 50.8956 54.0922 51.2628 54.7619C51.6085 55.4316 51.8785 56.1337 52.0729 56.8682C52.289 57.5811 52.4294 58.3156 52.4942 59.0717C53.4663 58.0996 54.5033 57.1814 55.605 56.3173C56.6852 55.4532 57.8193 54.6431 59.0075 53.887C60.174 53.1525 61.3838 52.472 62.6368 51.8455C63.8681 51.2406 65.1427 50.6897 66.4605 50.1929C67.8863 49.6744 69.3337 49.2099 70.8027 48.7995C72.2717 48.389 73.7515 48.0542 75.2421 47.795C76.7543 47.5357 78.2665 47.3413 79.7787 47.2117C81.2909 47.0821 82.8139 47.028 84.3477 47.0496C86.1192 46.9632 87.8906 47.0172 89.6621 47.2117C91.4551 47.4061 93.2049 47.7409 94.9116 48.2162C96.6398 48.6699 98.3248 49.264 99.9667 49.9985C101.587 50.733 103.153 51.5755 104.665 52.526C105.983 53.4765 107.204 54.5459 108.327 55.734C109.472 56.9006 110.487 58.1644 111.373 59.5253C112.28 60.8863 113.047 62.3121 113.674 63.8027C114.322 65.3149 114.819 66.8595 115.164 68.4366C115.467 69.992 115.715 71.5474 115.91 73.1028C116.126 74.6582 116.288 76.2244 116.396 77.8014C116.525 79.3568 116.601 80.9231 116.623 82.5001C116.666 84.0771 116.655 85.6541 116.59 87.2311V145.17H99.2538V87.8468C99.297 86.6586 99.3078 85.4813 99.2862 84.3147C99.243 83.1266 99.1781 81.9492 99.0917 80.7826C98.9837 79.5945 98.8433 78.4171 98.6705 77.2506C98.4977 76.084 98.2816 74.9282 98.0224 73.7833C97.8064 72.8976 97.5039 72.0443 97.1151 71.2233C96.7262 70.424 96.2617 69.6679 95.7217 68.955C95.16 68.2205 94.5443 67.5616 93.8746 66.9784C93.2049 66.3735 92.4812 65.8442 91.7035 65.3905C90.7098 64.9153 89.6837 64.494 88.6251 64.1268C87.5882 63.7811 86.5188 63.4895 85.4171 63.2519C84.3369 63.0358 83.246 62.8846 82.1442 62.7982C81.0425 62.7118 79.9407 62.6902 78.839 62.7334C77.7156 62.7334 76.5923 62.7658 75.4689 62.8306C74.3672 62.917 73.2654 63.0466 72.1637 63.2194C71.0619 63.3923 69.9602 63.6083 68.8584 63.8675C67.7783 64.1268 66.7089 64.4292 65.6504 64.7749C64.8079 65.0557 63.9762 65.3797 63.1552 65.747C62.3343 66.0926 61.5458 66.4923 60.7897 66.946C60.0336 67.3996 59.2991 67.8965 58.5862 68.4366C57.8733 68.9766 57.1928 69.5599 56.5447 70.1864C56.0695 70.6401 55.6266 71.1369 55.2162 71.677C54.8273 72.2171 54.4925 72.7896 54.2116 73.3944C53.9308 73.9993 53.7148 74.6258 53.5635 75.2739C53.4123 75.9004 53.3151 76.5485 53.2719 77.2182V145.17H35.9355V48.8643Z" fill="#743DBC"/>
<path d="M191.478 71.7417C190.765 70.8992 189.998 70.1106 189.177 69.3761C188.356 68.62 187.503 67.9179 186.617 67.2699C185.732 66.6218 184.803 66.0385 183.83 65.52C182.858 64.9799 181.865 64.4939 180.849 64.0618C179.791 63.5866 178.7 63.1653 177.576 62.7981C176.453 62.4308 175.319 62.1284 174.174 61.8907C173.029 61.6315 171.873 61.4371 170.707 61.3074C169.519 61.1778 168.341 61.113 167.175 61.113C166.03 61.0482 164.874 61.0698 163.707 61.1778C162.562 61.2858 161.428 61.4803 160.305 61.7611C159.182 62.0203 158.091 62.366 157.032 62.7981C155.952 63.2085 154.904 63.7054 153.889 64.2887C152.722 65.0664 151.685 66.0385 150.908 67.205C150.097 68.3716 149.547 69.7002 149.223 71.0612C148.931 72.4546 148.931 73.8804 149.19 75.2737C149.449 76.6671 149.968 77.9957 150.746 79.1623C151.113 79.6591 151.512 80.1344 151.945 80.5881C152.377 81.0201 152.841 81.4198 153.338 81.787C153.835 82.1759 154.353 82.5215 154.893 82.824C155.412 83.148 155.963 83.4289 156.546 83.6665C157.561 84.0986 158.587 84.4982 159.624 84.8654C160.661 85.2543 161.709 85.6108 162.768 85.9348C163.826 86.2804 164.895 86.5937 165.976 86.8745C167.034 87.1554 168.104 87.4038 169.184 87.6198C170.804 87.9655 172.403 88.3651 173.98 88.8188C175.557 89.2725 177.123 89.7801 178.678 90.3418C180.212 90.9035 181.735 91.5192 183.247 92.1889C184.738 92.8585 186.218 93.5822 187.687 94.36C188.702 94.9216 189.674 95.5589 190.603 96.2718C191.532 96.9631 192.418 97.7192 193.26 98.5401C194.081 99.361 194.848 100.236 195.561 101.165C196.274 102.072 196.911 103.034 197.473 104.049C198.013 105.107 198.488 106.198 198.898 107.322C199.309 108.445 199.655 109.59 199.935 110.757C200.195 111.902 200.389 113.068 200.519 114.256C200.627 115.444 200.67 116.633 200.648 117.821C200.713 119.927 200.519 122.033 200.097 124.107C199.644 126.149 198.996 128.158 198.088 130.037C197.181 131.949 196.047 133.731 194.718 135.384C193.422 137.004 191.899 138.495 190.214 139.759C188.302 141.184 186.261 142.448 184.122 143.55C181.983 144.619 179.747 145.527 177.447 146.207C175.178 146.92 172.813 147.438 170.447 147.73C168.05 148.022 165.652 148.119 163.254 148.022C161.353 148.086 159.441 148.054 157.518 147.924C155.617 147.795 153.727 147.568 151.847 147.244C149.946 146.92 148.078 146.499 146.241 145.98C144.405 145.462 142.59 144.857 140.797 144.166C134.684 141.703 131.627 138.84 131.627 135.578C131.627 135.189 131.649 134.801 131.692 134.412C131.757 134.023 131.832 133.634 131.919 133.245C132.005 132.856 132.102 132.478 132.21 132.111C132.34 131.722 132.48 131.344 132.631 130.977C132.934 130.329 133.236 129.692 133.539 129.065C133.863 128.439 134.198 127.812 134.543 127.186C134.867 126.559 135.213 125.943 135.58 125.339C135.948 124.734 136.326 124.14 136.714 123.556C137.665 124.356 138.648 125.123 139.663 125.857C140.7 126.592 141.759 127.283 142.839 127.931C143.897 128.557 144.999 129.151 146.144 129.713C147.267 130.253 148.412 130.75 149.579 131.204C150.724 131.636 151.88 132.025 153.046 132.37C154.213 132.716 155.401 133.008 156.611 133.245C157.821 133.461 159.03 133.634 160.24 133.764C161.45 133.872 162.67 133.937 163.902 133.958C165.155 134.023 166.418 134.001 167.693 133.893C168.968 133.764 170.221 133.537 171.452 133.213C172.683 132.889 173.882 132.478 175.049 131.981C176.215 131.463 177.328 130.858 178.387 130.167C179.229 129.551 179.974 128.806 180.655 127.996C181.303 127.186 181.886 126.311 182.307 125.339C182.761 124.399 183.085 123.394 183.28 122.39C183.474 121.353 183.539 120.283 183.506 119.247C183.528 118.296 183.452 117.345 183.28 116.395C183.107 115.466 182.826 114.559 182.437 113.673C182.048 112.809 181.562 111.988 180.979 111.21C180.396 110.454 179.737 109.763 179.002 109.136C175.999 106.63 170.415 104.492 162.249 102.72C151.491 100.409 143.768 96.9739 139.08 92.4157C137.913 91.2491 136.844 89.9529 135.937 88.5596C135.029 87.1662 134.252 85.6756 133.668 84.1202C133.053 82.5971 132.599 80.9769 132.34 79.3243C132.081 77.7041 131.951 76.019 132.048 74.3664C131.983 72.4546 132.145 70.5103 132.567 68.6308C132.988 66.7514 133.604 64.9367 134.479 63.2193C135.321 61.4695 136.39 59.8492 137.622 58.391C138.853 56.9329 140.279 55.6043 141.834 54.4701C143.617 53.1739 145.528 52.0398 147.505 51.0677C149.482 50.0955 151.556 49.3178 153.662 48.6697C155.801 48.0216 157.939 47.568 160.143 47.3087C162.346 47.0171 164.55 46.9523 166.753 47.0171C167.92 47.0171 169.086 47.0495 170.253 47.1143C171.42 47.1791 172.586 47.2763 173.753 47.406C174.898 47.514 176.053 47.6652 177.22 47.8596C178.365 48.054 179.499 48.2809 180.622 48.5401C181.551 48.7345 182.48 48.9722 183.409 49.253C184.317 49.5122 185.213 49.8039 186.099 50.1279C186.984 50.4736 187.859 50.8408 188.724 51.2297C189.588 51.6401 190.43 52.0722 191.251 52.5259C195.874 55.1182 198.186 57.7754 198.186 60.4973C198.099 61.4911 197.959 62.4632 197.764 63.4137C197.548 64.3859 197.278 65.3364 196.954 66.2653C196.63 67.1942 196.241 68.1016 195.788 68.9873C195.356 69.8514 194.87 70.6939 194.329 71.5148L191.478 71.7417Z" fill="#743DBC"/>
<path d="M215.522 48.2491C215.824 48.2275 216.127 48.2059 216.429 48.1843C216.732 48.1627 217.045 48.1411 217.369 48.1195C217.671 48.0979 217.974 48.0871 218.276 48.0871C218.579 48.0655 218.881 48.0547 219.184 48.0547C228.3 48.0547 232.869 52.6777 232.891 61.9238V109.493C232.847 110.595 232.837 111.708 232.858 112.831C232.901 113.933 232.966 115.035 233.053 116.136C233.161 117.26 233.301 118.372 233.474 119.474C233.647 120.576 233.852 121.667 234.09 122.747C234.262 123.395 234.489 124.032 234.77 124.659C235.051 125.264 235.386 125.847 235.775 126.409C236.142 126.97 236.563 127.489 237.038 127.964C237.514 128.439 238.032 128.871 238.594 129.26C239.069 129.606 239.555 129.919 240.052 130.2C240.549 130.502 241.057 130.772 241.575 131.01C242.093 131.269 242.623 131.496 243.163 131.69C243.703 131.885 244.254 132.058 244.815 132.209C245.528 132.382 246.241 132.533 246.954 132.663C247.667 132.792 248.391 132.889 249.125 132.954C249.86 133.041 250.583 133.095 251.296 133.116C252.031 133.138 252.765 133.149 253.5 133.149C254.558 133.149 255.606 133.105 256.643 133.019C257.702 132.933 258.749 132.792 259.786 132.598C260.823 132.382 261.849 132.133 262.865 131.852C263.88 131.55 264.874 131.194 265.846 130.783C266.688 130.459 267.509 130.092 268.309 129.681C269.13 129.271 269.918 128.817 270.674 128.32C271.43 127.845 272.165 127.327 272.878 126.765C273.591 126.203 274.271 125.609 274.919 124.983C275.416 124.572 275.859 124.119 276.248 123.622C276.658 123.146 277.015 122.628 277.317 122.066C277.619 121.505 277.857 120.921 278.03 120.317C278.224 119.69 278.343 119.064 278.386 118.437V48.2491C278.71 48.2275 279.024 48.2059 279.326 48.1843C279.629 48.1627 279.931 48.1411 280.233 48.1195C280.536 48.0979 280.838 48.0871 281.141 48.0871C281.465 48.0655 281.778 48.0547 282.08 48.0547C291.197 48.0547 295.755 52.6777 295.755 61.9238V145.171H278.386V136.195C271.452 144.231 261.309 148.249 247.959 148.249C246.749 148.271 245.539 148.238 244.329 148.152C243.12 148.087 241.91 147.968 240.7 147.795C239.49 147.623 238.291 147.407 237.103 147.147C235.915 146.867 234.738 146.553 233.571 146.208C232.599 145.905 231.659 145.549 230.752 145.138C229.823 144.728 228.926 144.263 228.062 143.745C227.22 143.205 226.399 142.622 225.6 141.995C224.822 141.369 224.077 140.699 223.364 139.986C222.672 139.208 222.024 138.398 221.419 137.556C220.815 136.713 220.253 135.838 219.734 134.931C219.238 134.024 218.795 133.084 218.406 132.112C218.039 131.14 217.715 130.157 217.434 129.163C217.066 127.543 216.742 125.922 216.462 124.302C216.202 122.66 215.986 121.019 215.813 119.377C215.662 117.735 215.554 116.082 215.489 114.419C215.446 112.777 215.446 111.124 215.489 109.461L215.522 48.2491Z" fill="#743DBC"/>
<path d="M312.929 9.55771C313.232 9.5361 313.534 9.5037 313.837 9.46049C314.139 9.43889 314.442 9.41729 314.744 9.39569C315.068 9.39569 315.381 9.38488 315.684 9.36328C315.986 9.36328 316.289 9.36328 316.591 9.36328C325.708 9.36328 330.266 13.9863 330.266 23.2324V125.987C330.244 126.656 330.233 127.315 330.233 127.963C330.255 128.612 330.298 129.26 330.363 129.908C330.449 130.556 330.547 131.204 330.655 131.852C330.784 132.478 330.935 133.116 331.108 133.764C331.238 134.088 331.4 134.401 331.594 134.704C331.767 134.984 331.983 135.254 332.242 135.514C332.48 135.773 332.75 136 333.053 136.194C333.333 136.389 333.636 136.561 333.96 136.713C334.457 136.885 334.954 137.037 335.45 137.166C335.947 137.296 336.455 137.393 336.974 137.458C337.492 137.544 338.01 137.598 338.529 137.62C339.047 137.642 339.566 137.642 340.084 137.62V144.976C339.177 145.235 338.259 145.462 337.33 145.656C336.401 145.851 335.472 146.002 334.543 146.11C333.593 146.24 332.642 146.326 331.692 146.369C330.741 146.412 329.801 146.423 328.872 146.402C328.095 146.423 327.317 146.402 326.539 146.337C325.783 146.294 325.027 146.186 324.271 146.013C323.515 145.861 322.77 145.667 322.035 145.429C321.301 145.192 320.577 144.9 319.864 144.554C319.281 144.252 318.73 143.896 318.211 143.485C317.693 143.075 317.207 142.621 316.753 142.124C316.321 141.627 315.921 141.087 315.554 140.504C315.209 139.942 314.917 139.359 314.679 138.754C314.312 137.674 314.01 136.583 313.772 135.481C313.513 134.379 313.318 133.267 313.189 132.144C313.037 131.02 312.94 129.897 312.897 128.774C312.854 127.65 312.865 126.516 312.929 125.371V9.55771Z" fill="#743DBC"/>
<path fill-rule="evenodd" clip-rule="evenodd" d="M365.198 100.485C365.609 111.092 368.363 119.258 373.461 124.982C378.581 130.685 385.905 133.537 395.432 133.537C397.959 133.667 400.487 133.472 402.982 133.019C405.477 132.565 407.907 131.82 410.24 130.815C412.574 129.811 414.777 128.547 416.819 127.056C418.86 125.566 420.707 123.848 422.392 121.904C422.781 122.401 423.159 122.898 423.526 123.394C423.893 123.891 424.239 124.399 424.563 124.917C424.909 125.436 425.244 125.965 425.568 126.505C425.87 127.045 426.173 127.585 426.475 128.126C426.691 128.514 426.896 128.914 427.091 129.324C427.264 129.713 427.415 130.124 427.544 130.556C427.696 130.966 427.814 131.388 427.901 131.82C427.987 132.252 428.052 132.695 428.095 133.148C428.009 133.861 427.847 134.552 427.609 135.222C427.372 135.892 427.058 136.529 426.669 137.134C426.281 137.739 425.827 138.29 425.308 138.787C424.79 139.283 424.217 139.715 423.591 140.083C416.246 145.527 406.309 148.249 393.779 148.249C378.808 148.249 367.305 143.831 359.268 134.995C351.254 126.138 347.235 113.273 347.214 96.4016C347.149 94.1333 347.225 91.865 347.441 89.5967C347.635 87.3068 347.97 85.0493 348.445 82.8242C348.92 80.5991 349.525 78.3956 350.26 76.2137C350.994 74.0534 351.858 71.9471 352.852 69.8948C353.716 68.145 354.699 66.4599 355.801 64.8397C356.903 63.2411 358.123 61.7181 359.463 60.2707C360.802 58.8449 362.228 57.5163 363.74 56.285C365.274 55.0536 366.883 53.941 368.568 52.9473C370.275 51.9752 372.036 51.111 373.85 50.3549C375.665 49.5988 377.534 48.9724 379.456 48.4755C381.357 47.9786 383.28 47.6114 385.224 47.3737C387.19 47.1361 389.156 47.0281 391.122 47.0497C392.958 46.9849 394.805 47.0497 396.663 47.2441C398.499 47.4385 400.314 47.7518 402.107 48.1838C403.9 48.6375 405.65 49.1992 407.356 49.8689C409.085 50.5386 410.748 51.3271 412.347 52.2344C413.816 53.0985 415.198 54.0706 416.494 55.1508C417.812 56.2093 419.033 57.3651 420.156 58.6181C421.301 59.871 422.338 61.2104 423.267 62.6362C424.196 64.0404 425.017 65.5094 425.73 67.0432C426.529 68.7498 427.22 70.5105 427.804 72.3251C428.408 74.1182 428.895 75.9436 429.262 77.8015C429.651 79.6377 429.932 81.5064 430.104 83.4074C430.299 85.2869 430.374 87.1772 430.331 89.0782C430.353 90.0287 430.353 90.9793 430.331 91.9298C430.331 92.8803 430.299 93.8309 430.234 94.7814C430.191 95.7319 430.126 96.6824 430.039 97.633C429.953 98.5835 429.845 99.534 429.715 100.485H365.198ZM412.995 87.4256C412.995 70.0352 405.434 61.34 390.312 61.34C388.691 61.2752 387.071 61.3724 385.451 61.6641C383.863 61.9233 382.275 62.377 380.785 62.9603C379.262 63.5759 377.836 64.3536 376.475 65.261C375.146 66.1683 373.883 67.2052 372.749 68.3718C371.582 69.668 370.545 71.0614 369.605 72.552C368.698 74.0426 367.888 75.598 367.272 77.2182C366.624 78.8384 366.106 80.5234 365.782 82.2409C365.425 83.9583 365.231 85.7081 365.198 87.4256H412.995Z" fill="#743DBC"/>
<path d="M446.338 19.8956C446.64 19.874 446.942 19.8416 447.245 19.7984C447.547 19.7768 447.85 19.766 448.152 19.766C448.455 19.7444 448.768 19.7228 449.092 19.7012C449.394 19.7012 449.697 19.7012 449.999 19.7012C459.116 19.7012 463.674 24.3242 463.674 33.5703V49.2864H494.102V63.9656H463.674V116.623C463.674 127.77 468.103 133.343 476.96 133.343C477.543 133.343 478.126 133.311 478.71 133.246C479.293 133.181 479.876 133.095 480.459 132.987C481.021 132.857 481.583 132.706 482.144 132.533C482.706 132.361 483.257 132.155 483.797 131.918C484.359 131.68 484.91 131.421 485.45 131.14C485.99 130.881 486.519 130.6 487.038 130.297C487.556 129.973 488.064 129.649 488.561 129.325C489.057 128.98 489.543 128.623 490.019 128.256C490.386 127.975 490.742 127.694 491.088 127.413C491.434 127.133 491.769 126.841 492.093 126.539C492.417 126.236 492.73 125.912 493.032 125.566C493.335 125.242 493.626 124.907 493.907 124.562C497.861 129.466 499.837 133.279 499.837 136.001C499.751 136.605 499.6 137.189 499.384 137.75C499.168 138.334 498.898 138.885 498.574 139.403C498.228 139.9 497.839 140.364 497.407 140.796C496.953 141.229 496.467 141.596 495.949 141.898C495.236 142.438 494.501 142.946 493.745 143.421C492.989 143.896 492.222 144.329 491.445 144.717C490.645 145.106 489.824 145.463 488.982 145.787C488.161 146.089 487.318 146.359 486.454 146.597C485.461 146.878 484.467 147.126 483.473 147.342C482.458 147.537 481.442 147.709 480.427 147.861C479.412 147.99 478.396 148.087 477.381 148.152C476.366 148.217 475.34 148.249 474.303 148.249C460.693 148.249 452.052 143.14 448.379 132.922C447.969 131.496 447.623 130.06 447.342 128.612C447.061 127.165 446.834 125.707 446.662 124.238C446.489 122.769 446.37 121.3 446.305 119.831C446.262 118.34 446.273 116.86 446.338 115.391V19.8956Z" fill="#743DBC"/>
</g>
<defs>
<clipPath id="clip0_29_1381">
<rect width="500" height="148.412" fill="white"/>
</clipPath>
</defs>
</svg>
