<svg width="500" height="133" viewBox="0 0 500 133" fill="none" xmlns="http://www.w3.org/2000/svg">
<g clip-path="url(#clip0_29_1383)">
<mask id="mask0_29_1383" style="mask-type:luminance" maskUnits="userSpaceOnUse" x="0" y="0" width="132" height="133">
<path d="M0 0.238281H131.473V132.851H0V0.238281Z" fill="white"/>
</mask>
<g mask="url(#mask0_29_1383)">
<path fill-rule="evenodd" clip-rule="evenodd" d="M108.197 15.8599C135.616 37.9391 139.322 78.4228 116.646 107.317C94.0643 136.871 52.8268 141.677 24.4035 116.959C-4.14552 91.5509 -8.25984 48.3348 15.3582 21.5132C39.0706 -4.71166 80.7163 -6.78453 108.197 15.8599Z" fill="#4CD5F7"/>
</g>
<path d="M159.234 19.6914H173.179V93.9062H159.234V19.6914Z" fill="#231F20"/>
<path fill-rule="evenodd" clip-rule="evenodd" d="M204.428 95.0055C189.353 95.0055 179.303 82.7253 179.303 68.4979C179.303 54.2391 189.353 41.959 204.428 41.959C209.925 41.959 214.51 43.8748 217.462 46.7329V43.0582H231.407V93.9062H217.462V90.1374C214.51 93.0896 209.925 95.0055 204.428 95.0055ZM206.47 82.317C211.84 82.317 215.107 79.9615 217.462 76.7266V60.1437C215.107 57.003 211.84 54.6474 206.47 54.6474C198.932 54.6474 193.75 60.9602 193.75 68.4979C193.75 76.0042 198.932 82.317 206.47 82.317Z" fill="#231F20"/>
<path fill-rule="evenodd" clip-rule="evenodd" d="M266.834 95.0055C261.432 95.0055 256.752 93.0896 253.8 90.1374V93.9062H239.855V19.6914H253.8V46.7329C256.752 43.8748 261.432 41.959 266.834 41.959C281.878 41.959 291.96 54.2391 291.96 68.4979C291.96 82.7253 281.878 95.0055 266.834 95.0055ZM264.793 82.317C272.425 82.317 277.607 76.0042 277.607 68.4979C277.607 60.9603 272.425 54.6474 264.793 54.6474C259.391 54.6474 256.156 57.003 253.8 60.1437V76.7266C256.156 79.9615 259.391 82.317 264.793 82.317Z" fill="#231F20"/>
<path fill-rule="evenodd" clip-rule="evenodd" d="M323.492 95.0055C308.448 95.0055 296.514 83.8246 296.514 68.4979C296.514 53.1399 308.448 41.959 323.492 41.959C334.076 41.959 343.247 47.8321 347.613 56.5947L335.521 63.0959C333.48 58.4163 329.083 54.9615 323.492 54.9615C316.174 54.9615 310.584 60.6462 310.584 68.4979C310.584 76.3183 316.174 82.003 323.492 82.003C329.083 82.003 333.48 78.5482 335.521 73.8685L347.613 80.3698C343.247 89.1324 334.076 95.0055 323.492 95.0055Z" fill="#231F20"/>
<path fill-rule="evenodd" clip-rule="evenodd" d="M377.229 95.0055C362.437 95.0055 350.471 83.165 350.471 68.4979C350.471 53.7994 362.437 41.959 377.229 41.959C392.022 41.959 403.988 53.7994 403.988 68.4979C403.988 83.165 392.022 95.0055 377.229 95.0055ZM389.855 68.4979C389.855 60.9916 384.17 54.9615 377.167 54.9615C370.163 54.9615 364.51 60.9916 364.51 68.4979C364.51 75.9728 370.163 82.003 377.167 82.003C384.17 82.003 389.855 75.9728 389.855 68.4979Z" fill="#231F20"/>
<path fill-rule="evenodd" clip-rule="evenodd" d="M447.801 43.0582H461.745V46.7329C464.698 43.8748 469.377 41.959 474.779 41.959C489.823 41.959 499.905 54.2391 499.905 68.4979C499.905 82.7253 489.823 95.0055 474.779 95.0055C469.377 95.0055 464.698 93.0896 461.745 90.1374V113.63H447.801V43.0582ZM472.738 82.2856C480.37 82.2856 485.552 76.0042 485.552 68.4665C485.552 60.9602 480.37 54.6474 472.738 54.6474C467.336 54.6474 464.101 56.9715 461.745 60.1437V76.6952C464.101 79.9615 467.336 82.2856 472.738 82.2856Z" fill="#231F20"/>
<path fill-rule="evenodd" clip-rule="evenodd" d="M441.709 43.3717V56.7197C441.709 56.7197 430.622 52.8567 423.996 62.4358V93.9057H410.051V43.0577H423.996V49.1506C425.723 45.5074 430.497 42.4609 435.805 42.4609C438.349 42.4609 440.578 42.9635 441.709 43.3717Z" fill="#231F20"/>
<path fill-rule="evenodd" clip-rule="evenodd" d="M107.225 22.2984C127.388 38.5358 130.12 68.3725 113.443 89.6665C96.7974 111.4 66.4582 115.546 45.5097 97.3298C24.467 78.6426 21.4519 46.1991 38.8514 26.4755C56.3137 7.16018 86.967 5.62124 107.225 22.2984Z" fill="#2998E3"/>
<path fill-rule="evenodd" clip-rule="evenodd" d="M105.464 28.4222C120.76 40.7651 122.833 63.441 110.175 79.6156C97.5812 96.1357 74.5599 98.8367 58.6679 84.9862C42.7446 70.7903 40.4204 46.6068 53.6114 31.5943C66.8652 16.8958 90.1064 15.7337 105.464 28.4222Z" fill="#3A5CE9"/>
</g>
<defs>
<clipPath id="clip0_29_1383">
<rect width="500" height="132.852" fill="white"/>
</clipPath>
</defs>
</svg>
