<svg width="500" height="158" viewBox="0 0 500 158" fill="none" xmlns="http://www.w3.org/2000/svg">
<g clip-path="url(#clip0_29_1386)">
<path fill-rule="evenodd" clip-rule="evenodd" d="M29.5684 33.147V82.6927H40.3907V49.6371C40.3907 48.1378 40.2573 44.641 39.8574 39.0714C40.4586 42.5707 41.2561 45.4611 41.7944 47.7806L49.8646 82.6902H60.9561L69.2301 47.207C69.8061 44.7316 70.6313 42.0675 71.2325 39.0689C70.8979 42.6386 70.6967 46.0674 70.6967 49.4208V82.6902H82.3215V33.147H63.751L57.4141 62.6304C56.9939 64.5876 56.3474 67.5561 56.0103 71.6968C55.8116 68.0567 55.3688 65.1184 54.7424 62.9147L46.2572 33.1445L29.5684 33.147Z" fill="#0D4BA0"/>
<path fill-rule="evenodd" clip-rule="evenodd" d="M119.537 33.3153C115.947 32.0725 112.634 31.4512 109.597 31.4512C96.8305 31.4512 89.2383 38.6988 89.2383 50.2229C89.2383 61.3345 97.1047 68.8689 108.631 68.8689C112.978 68.8689 116.775 68.3155 119.881 67.201L119.607 57.8831C117.328 59.2642 114.913 59.9535 112.221 59.9535C105.801 59.9535 101.799 56.0215 101.799 50.1525C101.799 44.1476 105.595 40.2836 111.668 40.2836C113.944 40.2836 116.292 40.905 118.707 42.2156L119.537 33.3153Z" fill="#0D4BA0"/>
<path fill-rule="evenodd" clip-rule="evenodd" d="M128.691 33.1465V82.6922H141.899V59.7042L157.46 82.6922H173.883L153.82 55.9206L172.023 33.1465H157.247L141.899 54.5647V33.1465H128.691Z" fill="#0D4BA0"/>
<path fill-rule="evenodd" clip-rule="evenodd" d="M178.715 33.1465V82.6922H213.911V73.1252H191.925V61.845H211.911V52.4239H191.925V42.4292H213.126V33.1465H178.715Z" fill="#0D4BA0"/>
<path fill-rule="evenodd" clip-rule="evenodd" d="M259.672 33.7172C255.39 32.5046 250.892 31.9336 246.107 31.9336C232.686 31.9336 225.477 37.5737 225.477 47.4249C225.477 54.7782 229.688 58.7051 238.613 61.9176C244.681 64.1314 248.535 64.7729 248.535 68.486C248.535 71.7714 245.393 73.9122 240.11 73.9122C236.397 73.9122 231.972 72.9135 227.117 70.6997L225.975 81.766C231.114 83.205 236.113 83.849 240.895 83.849C254.817 83.849 262.099 77.8391 262.099 67.0596C262.099 62.4182 260.527 59.0648 257.028 56.3505C253.818 53.9229 249.176 52.6374 243.536 50.7833C240.467 49.7846 238.968 48.2149 238.968 46.142C238.968 43.2138 241.967 41.3597 247.461 41.3597C250.96 41.3597 254.671 42.215 258.671 43.9282L259.672 33.7172Z" fill="#0D4BA0"/>
<path fill-rule="evenodd" clip-rule="evenodd" d="M304.497 33.7172C300.215 32.5046 295.717 31.9336 290.932 31.9336C277.511 31.9336 270.299 37.5737 270.299 47.4249C270.299 54.7782 274.513 58.7051 283.438 61.9176C289.506 64.1314 293.36 64.7729 293.36 68.486C293.36 71.7714 290.218 73.9122 284.935 73.9122C281.222 73.9122 276.797 72.9135 271.942 70.6997L270.799 81.766C275.939 83.205 280.935 83.849 285.72 83.849C299.641 83.849 306.924 77.8391 306.924 67.0596C306.924 62.4182 305.354 59.0648 301.855 56.3505C298.643 53.9229 294.001 52.6374 288.364 50.7833C285.292 49.7846 283.795 48.2149 283.795 46.142C283.795 43.2138 286.791 41.3597 292.291 41.3597C295.79 41.3597 299.5 42.215 303.498 43.9282L304.497 33.7172Z" fill="#0D4BA0"/>
<path fill-rule="evenodd" clip-rule="evenodd" d="M339.478 31.9336C324.128 31.9336 314.848 41.571 314.848 57.9202C314.848 74.2694 324.057 83.8465 339.478 83.8465C354.829 83.8465 364.036 74.2669 364.036 57.9202C364.036 41.571 354.829 31.9336 339.478 31.9336ZM339.478 41.571C346.044 41.571 350.756 47.6388 350.756 57.7768C350.756 67.9853 346.115 74.0531 339.478 74.0531C332.837 74.0531 328.125 67.9853 328.125 57.7768C328.125 47.5683 332.91 41.571 339.478 41.571Z" fill="#0D4BA0"/>
<path fill-rule="evenodd" clip-rule="evenodd" d="M371.82 33.1465V82.6922H383.742V56.5646C383.742 52.922 383.314 47.9964 382.386 41.8557C383.314 45.6392 384.456 48.9951 385.885 51.9208L400.806 82.6896H417.225V33.1465H405.304V61.2035C405.304 64.7028 405.734 68.8435 406.516 73.5553C404.946 68.4159 403.661 64.8462 402.662 62.8462L388.313 33.1465H371.82Z" fill="#0D4BA0"/>
<path fill-rule="evenodd" clip-rule="evenodd" d="M92.4746 74.2637H119.49V83.1213H92.4746V74.2637Z" fill="#F15A22"/>
<path fill-rule="evenodd" clip-rule="evenodd" d="M133.631 109.494L128.348 134.268H141.019L141.484 132.2H131.168L133.238 122.382H142.554L142.981 120.206H133.701L135.558 111.529H145.338L145.801 109.494H133.631Z" fill="#939598"/>
<path fill-rule="evenodd" clip-rule="evenodd" d="M171.532 122.988C171.675 122.416 171.746 121.808 171.746 121.131C171.746 117.924 169.889 116.064 166.856 116.064C164.071 116.064 162.179 117.277 160.644 119.991C160.073 117.347 158.609 116.064 156.111 116.064C153.754 116.064 151.935 117.061 150.257 119.169L150.864 116.422H148.828L145.08 134.268H147.294L149.294 124.879C150.257 120.349 152.685 117.991 155.505 117.991C157.47 117.991 158.647 119.239 158.647 121.347C158.647 121.883 158.577 122.527 158.398 123.274L156.041 134.27H158.219L160.254 124.779C161.218 120.278 163.324 118.027 166.217 118.027C168.214 118.027 169.429 119.239 169.429 121.491C169.429 122.027 169.359 122.562 169.25 123.131L166.858 134.27H169.142L171.532 122.988Z" fill="#939598"/>
<path fill-rule="evenodd" clip-rule="evenodd" d="M189.23 123.128C189.23 128.735 186.161 132.624 182.627 132.624C179.95 132.624 178.058 130.481 178.058 127.16C178.058 125.017 178.7 122.841 179.666 121.341C181.092 119.13 182.949 117.986 184.878 117.986C187.552 117.988 189.23 119.955 189.23 123.128ZM177.022 130.659C177.95 133.303 179.95 134.629 182.946 134.629C185.052 134.629 186.981 133.731 188.551 131.98C190.408 129.912 191.655 126.624 191.655 123.45C191.655 118.698 189.298 116.059 185.371 116.059C183.014 116.059 180.909 117.198 179.233 119.45L179.839 116.345H177.769L172.373 141.728H174.662L177.022 130.659Z" fill="#939598"/>
<path fill-rule="evenodd" clip-rule="evenodd" d="M203.572 116.064C200.895 116.064 198.289 117.277 196.754 119.096C194.792 121.42 193.826 124.059 193.826 127.096C193.826 131.699 196.717 134.7 201.071 134.7C204.571 134.7 207.604 132.804 209.423 129.38C210.314 127.699 210.817 125.74 210.817 123.667C210.819 118.917 207.999 116.064 203.572 116.064ZM208.392 123.699C208.392 126.452 207.393 128.987 205.715 130.771C204.538 132.019 203.001 132.698 201.361 132.698C198.291 132.698 196.256 130.378 196.256 126.811C196.256 123.951 197.363 121.383 199.22 119.672C200.432 118.562 201.861 117.956 203.36 117.956C206.43 117.956 208.392 120.132 208.392 123.699Z" fill="#939598"/>
<path fill-rule="evenodd" clip-rule="evenodd" d="M213.523 116.422L215.272 134.524H218.021L226.517 118.417L228.265 134.524H230.871L240.547 116.422H238.046L230.016 132.268L228.265 116.422H225.624L217.093 132.233L215.702 116.422H213.523Z" fill="#939598"/>
<path fill-rule="evenodd" clip-rule="evenodd" d="M252.994 123.989H242.501C243.359 120.165 246.106 117.813 248.891 117.813C251.462 117.813 253.105 119.596 253.105 122.633C253.102 123.061 253.067 123.523 252.994 123.989ZM254.886 125.881C255.173 124.701 255.316 123.664 255.316 122.736C255.316 118.598 252.78 116.029 248.926 116.029C246.212 116.029 243.928 117.169 242.179 119.488C240.645 121.561 239.787 124.132 239.787 126.809C239.787 131.84 242.607 134.738 247.284 134.738C248.853 134.738 250.494 134.414 252.245 133.697L252.353 131.48C250.745 132.301 249.176 132.693 247.571 132.693C244.109 132.693 242.071 130.693 242.071 127.377C242.071 126.95 242.144 126.449 242.215 125.878H254.886V125.881Z" fill="#939598"/>
<path fill-rule="evenodd" clip-rule="evenodd" d="M269.195 116.276C268.589 116.132 268.015 116.029 267.447 116.029C265.447 116.029 263.769 117.025 262.091 119.096L262.697 116.422H260.629L256.881 134.268H259.238L261.2 124.988C262.164 120.527 263.985 118.276 267.125 118.276C267.625 118.276 268.123 118.349 268.694 118.527L269.195 116.276Z" fill="#939598"/>
<path fill-rule="evenodd" clip-rule="evenodd" d="M273.363 108.246L272.757 111.134H275.361L275.967 108.246H273.363ZM271.864 116.422L268.078 134.268H270.257L274.075 116.422H271.864Z" fill="#939598"/>
<path fill-rule="evenodd" clip-rule="evenodd" d="M291.632 124.381C291.883 123.272 291.989 122.238 291.989 121.38C291.989 118.168 289.848 116.064 286.565 116.064C284.173 116.064 282.105 117.244 280.533 119.528L281.212 116.349H279.106L275.285 134.268H277.569L279.534 125.096C280.498 120.595 282.996 118.1 285.921 118.1C288.314 118.1 289.67 119.456 289.67 121.81C289.67 122.527 289.599 123.347 289.418 124.203L287.277 134.27H289.559L291.632 124.381Z" fill="#939598"/>
<path fill-rule="evenodd" clip-rule="evenodd" d="M310.006 116.492L309.292 120.099C308.366 117.455 306.404 116.135 303.403 116.135C300.726 116.135 298.298 117.599 296.691 120.276C295.373 122.452 294.656 124.952 294.656 127.523C294.656 132.019 297.083 134.703 300.937 134.703C303.33 134.703 305.4 133.558 307.078 131.307C306.15 137.311 304.044 140.059 299.722 140.059C297.868 140.059 296.009 139.523 294.155 138.486L293.365 140.594C295.546 141.523 297.617 142.023 299.652 142.023C304.472 142.023 307.435 139.558 308.434 134.74L312.218 116.492H310.006ZM308.258 123.556C308.258 125.737 307.614 127.913 306.65 129.412C305.224 131.624 303.403 132.768 301.403 132.768C298.761 132.768 297.051 130.804 297.051 127.629C297.051 124.381 298.193 121.453 299.939 119.737C301.013 118.666 302.331 118.097 303.654 118.097C306.366 118.097 308.258 120.24 308.258 123.556Z" fill="#939598"/>
<path fill-rule="evenodd" clip-rule="evenodd" d="M328.88 109.494L323.633 134.268H325.992L328.526 122.309H341.34L338.807 134.268H341.197L346.445 109.494H344.088L341.803 120.241H328.953L331.238 109.494H328.88Z" fill="#939598"/>
<path fill-rule="evenodd" clip-rule="evenodd" d="M360.289 123.989H349.794C350.652 120.165 353.401 117.813 356.184 117.813C358.752 117.813 360.397 119.596 360.397 122.633C360.397 123.061 360.36 123.523 360.289 123.989ZM362.181 125.881C362.465 124.701 362.609 123.664 362.609 122.736C362.609 118.598 360.075 116.029 356.219 116.029C353.507 116.029 351.223 117.169 349.472 119.488C347.937 121.561 347.082 124.132 347.082 126.809C347.082 131.84 349.902 134.738 354.576 134.738C356.146 134.738 357.789 134.414 359.54 133.697L359.645 131.48C358.038 132.301 356.468 132.693 354.863 132.693C351.401 132.693 349.366 130.693 349.366 127.377C349.366 126.95 349.437 126.449 349.51 125.878H362.181V125.881Z" fill="#939598"/>
<path fill-rule="evenodd" clip-rule="evenodd" d="M378.45 123.948C378.626 123.02 378.734 122.164 378.734 121.344C378.734 118.023 376.558 115.988 372.88 115.988C371.524 115.988 369.776 116.313 367.595 116.917L367.346 119.236C369.56 118.416 371.343 117.953 372.699 117.953C375.197 117.953 376.591 119.274 376.591 121.628C376.591 122.021 376.52 122.63 376.412 123.377C375.165 123.269 374.131 123.201 373.343 123.201C367.024 123.201 363.668 125.593 363.668 129.623C363.668 132.516 365.847 134.556 369.129 134.556C371.414 134.556 373.27 133.555 374.983 131.447L374.556 134.267H376.518C376.661 133.019 376.983 131.412 377.376 129.447L378.45 123.948ZM376.131 125.06C375.524 130.018 372.991 132.659 369.527 132.659C367.421 132.659 366.065 131.412 366.065 129.52C366.065 126.272 368.707 125.019 374.276 125.019C374.883 125.019 375.489 125.019 376.131 125.06Z" fill="#939598"/>
<path fill-rule="evenodd" clip-rule="evenodd" d="M386.864 107.678L381.227 134.268H383.511L389.08 107.678H386.864Z" fill="#939598"/>
<path fill-rule="evenodd" clip-rule="evenodd" d="M396.103 111.137L393.676 111.997L392.747 116.425H389.142L388.75 118.316H392.355L390.179 128.56C390.035 129.307 389.895 129.984 389.895 130.628C389.895 133.056 391.356 134.454 393.854 134.454C394.428 134.454 395.067 134.346 395.784 134.125L396.214 132.125C395.356 132.376 394.712 132.485 394.284 132.485C392.999 132.485 392.214 131.624 392.214 130.2C392.214 129.732 392.284 129.096 392.466 128.268L394.571 118.314H399.14L399.567 116.422H394.999L396.103 111.137Z" fill="#939598"/>
<path fill-rule="evenodd" clip-rule="evenodd" d="M405.233 107.678L399.596 134.268H401.877L403.842 125.096C404.806 120.596 407.304 118.1 410.229 118.1C412.622 118.1 413.978 119.456 413.978 121.811C413.978 122.528 413.907 123.348 413.729 124.203L411.585 134.271H413.87L415.937 124.384C416.189 123.275 416.297 122.241 416.297 121.383C416.297 118.17 414.154 116.067 410.871 116.067C408.481 116.067 406.411 117.247 404.841 119.531L407.445 107.68L405.233 107.678Z" fill="#939598"/>
<path fill-rule="evenodd" clip-rule="evenodd" d="M434.175 116.919C432.784 116.383 431.32 116.172 429.75 116.172C426.324 116.172 423.823 116.992 421.859 119.06C420.037 120.952 418.971 123.628 418.971 126.451C418.971 131.306 421.896 134.596 426.324 134.596C427.786 134.596 429.32 134.415 430.857 134.018L431.109 131.698C429.393 132.234 428.004 132.519 426.895 132.519C423.504 132.519 421.363 130.126 421.363 126.416C421.363 121.664 424.681 118.167 429.217 118.167C430.429 118.167 431.891 118.456 433.569 119.027L434.175 116.919Z" fill="#939598"/>
<path fill-rule="evenodd" clip-rule="evenodd" d="M448.233 123.948C448.412 123.02 448.517 122.164 448.517 121.344C448.517 118.023 446.341 115.988 442.663 115.988C441.308 115.988 439.559 116.313 437.381 116.917L437.129 119.236C439.343 118.416 441.126 117.953 442.485 117.953C444.983 117.953 446.374 119.274 446.374 121.628C446.374 122.021 446.304 122.63 446.198 123.377C444.948 123.269 443.914 123.201 443.126 123.201C436.807 123.201 433.451 125.593 433.451 129.623C433.451 132.516 435.63 134.556 438.915 134.556C441.197 134.556 443.056 133.555 444.769 131.447L444.339 134.267H446.301C446.444 133.019 446.767 131.412 447.159 129.447L448.233 123.948ZM445.914 125.06C445.307 130.018 442.772 132.659 439.308 132.659C437.202 132.659 435.846 131.412 435.846 129.52C435.846 126.272 438.488 125.019 444.057 125.019C444.663 125.019 445.27 125.019 445.914 125.06Z" fill="#939598"/>
<path fill-rule="evenodd" clip-rule="evenodd" d="M463.286 116.276C462.68 116.132 462.109 116.029 461.54 116.029C459.54 116.029 457.862 117.025 456.185 119.096L456.791 116.422H454.72L450.975 134.268H453.332L455.294 124.988C456.257 120.527 458.076 118.276 461.218 118.276C461.716 118.276 462.217 118.349 462.788 118.527L463.286 116.276Z" fill="#939598"/>
<path fill-rule="evenodd" clip-rule="evenodd" d="M475.453 123.989H464.958C465.816 120.165 468.565 117.813 471.348 117.813C473.919 117.813 475.561 119.596 475.561 122.633C475.561 123.061 475.524 123.523 475.453 123.989ZM477.345 125.881C477.632 124.701 477.775 123.664 477.775 122.736C477.775 118.598 475.239 116.029 471.385 116.029C468.671 116.029 466.389 117.169 464.638 119.488C463.104 121.561 462.246 124.132 462.246 126.809C462.246 131.84 465.066 134.738 469.74 134.738C471.312 134.738 472.953 134.414 474.704 133.697L474.812 131.48C473.204 132.301 471.632 132.693 470.029 132.693C466.565 132.693 464.53 130.693 464.53 127.377C464.53 126.95 464.601 126.449 464.674 125.878H477.345V125.881Z" fill="#939598"/>
</g>
<defs>
<clipPath id="clip0_29_1386">
<rect width="500" height="157.872" fill="white"/>
</clipPath>
</defs>
</svg>
