<svg width="500" height="83" viewBox="0 0 500 83" fill="none" xmlns="http://www.w3.org/2000/svg">
<g clip-path="url(#clip0_29_1390)">
<path d="M131.456 47.5079C130.759 38.7564 126.189 33.6531 117.007 33.6531C108.522 33.6531 103.275 39.0229 102.353 47.5079H131.456ZM145.188 50.7666C145.188 53.5539 144.962 56.4643 144.491 58.8007H102.578C104.074 65.7896 110.018 70.0935 121.208 70.0935H121.352L121.454 70.073C122.52 70.0525 123.586 70.0116 124.631 69.9296L125.512 69.8681C130.062 69.4172 134.489 68.1875 138.65 66.2404L139.613 65.7691C140.433 65.3387 141.232 64.8878 142.011 64.4369H142.38V76.2421C136.252 79.9517 129.058 82.1037 121.352 82.1037V82.0627L120.532 82.0832C99.4425 82.0832 87.9242 70.0935 87.9242 52.6317C87.9242 33.8786 99.7909 21.5405 117.027 21.5405C134.264 21.5405 145.208 33.7556 145.188 50.7666ZM0 80.915H14.3261L17.011 30.7428L17.6053 17.1135H17.8308L20.8641 30.7428L32.5053 80.915H50.4591L62.2028 30.7428L65.0926 17.1135H65.3386L65.9329 30.7428L68.7203 80.915H83.6203L78.7014 0.594442H54.968L44.2491 48.7991L41.9126 61.0142H41.6872L39.2482 48.7786L28.5293 0.594442H4.77537L0 80.915ZM246.475 82.0832C233.112 82.0832 225.529 75.9347 225.529 61.957V34.4729H209.461V63.6786C209.461 67.9825 211.121 69.7246 214.605 69.7246C215.425 69.7246 216.347 69.7246 217.392 69.4992H217.741V80.915C215.671 81.3659 213.58 81.5913 211.469 81.6118C203.537 81.6118 198.66 78.599 196.549 71.9586C192.368 78.4761 185.727 82.0832 177.468 82.0832C162.67 82.0832 150.68 70.5649 150.68 51.6889C150.68 33.0588 162.691 21.52 177.468 21.52C184.805 21.52 190.871 24.3073 195.032 29.4311V0.594442H209.481V22.7292H225.549V8.8335H239.978V22.6882H255.472V34.4524H239.978V61.2396C239.978 67.0602 242.868 69.8476 248.483 69.8476C251.045 69.8476 252.787 69.6221 255.103 69.0278H255.472V80.8945C252.521 81.6528 249.529 82.0422 246.475 82.0832ZM180.48 69.8681C190.236 69.8681 195.729 62.3054 195.729 51.7094C195.729 41.2159 190.257 33.6531 180.48 33.6531C170.561 33.6531 165.457 41.2159 165.457 51.7094C165.457 62.3054 170.561 69.8681 180.48 69.8681ZM276.316 50.4182C276.316 40.9904 281.194 35.7436 290.519 35.7436C292.138 35.7436 293.901 35.9691 295.52 36.4405H295.766V22.9137C293.942 22.2578 291.995 21.9504 290.068 21.9914C283.079 21.9914 278.427 26.2954 275.742 33.2842V22.6882H261.887V80.915H276.316V50.4182ZM326.59 82.0832C308.309 82.0832 295.971 68.8023 295.971 51.8119C295.971 34.8214 308.309 21.5405 326.611 21.5405C344.749 21.5405 357.108 34.8214 357.108 51.8119C357.108 68.8023 344.749 82.0832 326.59 82.0832ZM326.611 69.6222C336.961 69.6222 342.31 62.0594 342.31 51.8323C342.31 41.6053 336.961 34.0221 326.59 34.0221C316.466 34.0221 310.768 41.5848 310.768 51.8323C310.768 62.0799 316.466 69.6426 326.611 69.6222ZM379.263 48.4302C379.263 39.4533 383.792 33.6326 392.175 33.6326C400.434 33.6326 404.288 39.1049 404.288 48.4302V80.915H418.716V47.8563C418.716 33.8786 411.502 21.5405 395.803 21.5405C387.42 21.5405 381.825 25.742 378.689 32.034V22.7292H364.834V80.956H379.263V48.4302ZM444.212 8.50557C444.212 13.158 440.482 17.134 435.604 17.134C430.87 17.1135 427.058 13.2605 427.078 8.52607C427.099 3.79169 430.952 -0.0204129 435.686 8.22556e-05C440.4 0.0205774 444.192 3.81218 444.212 8.50557ZM452.267 80.9355C449.93 81.4479 447.553 81.7143 445.155 81.7553C434.088 81.7553 428.144 75.9347 428.144 65.2362V22.7087H442.696V64.1704C442.696 68.003 444.561 69.8681 448.516 69.8681C449.438 69.8681 450.607 69.7246 451.877 69.4992H452.246V80.9355H452.267ZM453.66 51.8119C453.66 34.8009 465.999 21.5405 484.403 21.5405C489.65 21.5405 495.573 22.8317 500 25.2706V38.0801H499.631C495.368 35.4772 490.449 34.104 485.428 34.1245C474.361 34.1245 468.417 41.6872 468.417 51.8323C468.417 61.9775 474.34 69.5197 485.428 69.5197C490.429 69.5402 495.348 68.167 499.631 65.5641H500V78.3736C495.573 80.8125 489.629 82.1037 484.383 82.1037C465.999 82.0832 453.66 68.8023 453.66 51.8119Z" fill="#224A87"/>
</g>
<defs>
<clipPath id="clip0_29_1390">
<rect width="500" height="82.1036" fill="white"/>
</clipPath>
</defs>
</svg>
