<svg width="500" height="150" viewBox="0 0 500 150" fill="none" xmlns="http://www.w3.org/2000/svg">
<path d="M237.324 38.543H259.715V110.808H243.123V62.212L221.896 110.808L199.556 62.1509V110.808H184.074V38.543H206.205L222.16 75.9468L237.324 38.543Z" fill="#231F20"/>
<path d="M267.967 38.543V110.808H309.664V98.557H284.131V80.172H308.608V67.805H284.131V51.2254H309.664V38.543H267.967Z" fill="#231F20"/>
<path d="M371.854 74.6891C371.854 101.589 399.928 123.115 429.509 108.717V93.2348C406.747 109.18 386.933 93.1983 387.259 75.3068C387.48 63.416 395.471 52.1077 410.928 51.2259C418.529 50.7944 423.678 52.6838 429.509 58.2671V42.1671C408.134 29.5007 371.854 43.4415 371.854 74.6891Z" fill="#231F20"/>
<path d="M436.33 110.808H451.7V39.2383H436.33V110.808Z" fill="#231F20"/>
<path d="M470.987 72.0568L494.212 39.3965H476.261L453.252 71.9955L479.965 110.809H497.591L470.987 72.0568Z" fill="#231F20"/>
<path d="M316.85 38.543V110.808H333.07V71.984L359.884 110.808H377.175L355.947 80.4645C365.785 76.7443 368.977 68.4956 368.977 60.2509C368.977 52.0125 362.061 38.543 345.308 38.543H316.85ZM333.07 50.5684H340.151C352.122 50.5684 352.761 58.3941 352.761 61.3162C352.761 66.8995 348.024 71.654 341.909 71.654H333.07V50.5684Z" fill="#231F20"/>
<path d="M38.5409 38.545C38.5409 18.5864 54.7214 2.40918 74.6767 2.40918C94.6385 2.40918 110.813 18.5864 110.813 38.545H38.5409ZM38.5409 110.813C38.5409 90.8582 54.7214 74.6777 74.6767 74.6777C54.7214 74.6777 38.5409 58.5035 38.5409 38.545C18.5855 38.545 2.4082 54.7223 2.4082 74.6777C2.4082 94.6394 18.5855 110.813 38.5409 110.813ZM38.5409 110.813C38.5409 130.775 54.7214 146.949 74.6767 146.949C94.6385 146.949 110.813 130.775 110.813 110.813H38.5409ZM74.6767 74.6777C94.6385 74.6777 110.813 90.8582 110.813 110.813C130.771 110.813 146.952 94.6394 146.952 74.6777C146.952 54.7223 130.771 38.545 110.813 38.545C110.813 58.5035 94.6385 74.6777 74.6767 74.6777Z" fill="#007A73"/>
</svg>
