<svg width="500" height="311" viewBox="0 0 500 311" fill="none" xmlns="http://www.w3.org/2000/svg">
<g clip-path="url(#clip0_29_1387)">
<path fill-rule="evenodd" clip-rule="evenodd" d="M232.854 122.182L150.967 204.07L193.269 169.143H188.223L191.909 166.814L195.597 163.904L197.149 160.216V166.814L232.854 122.182Z" fill="#449226"/>
<path d="M232.854 122.182L150.967 204.07L193.269 169.143H188.223L191.909 166.814L195.597 163.904L197.149 160.216V166.814L232.854 122.182Z" stroke="#449226" stroke-width="0.000352946" stroke-miterlimit="2.6131"/>
<path fill-rule="evenodd" clip-rule="evenodd" d="M145.729 198.831L181.432 169.143H176.969L181.432 166.232L195.597 152.066L197.149 148.379V154.977L227.614 117.139L145.729 198.831Z" fill="#449226"/>
<path d="M145.729 198.831L181.432 169.143H176.969L181.432 166.232L195.597 152.066L197.149 148.379V154.977L227.614 117.139L145.729 198.831Z" stroke="#449226" stroke-width="0.000352946" stroke-miterlimit="2.6131"/>
<path fill-rule="evenodd" clip-rule="evenodd" d="M134.666 187.771L157.562 169.143H154.653L156.981 167.59L195.595 128.976L197.148 126.645V130.529L215.582 106.66L134.666 187.771Z" fill="#449226"/>
<path d="M134.666 187.771L157.562 169.143H154.653L156.981 167.59L195.595 128.976L197.148 126.645V130.529L215.582 106.66L134.666 187.771Z" stroke="#449226" stroke-width="0.000352946" stroke-miterlimit="2.6131"/>
<path fill-rule="evenodd" clip-rule="evenodd" d="M128.65 182.531L145.728 169.143H143.593L144.951 168.367L195.596 117.719L197.731 114.809V117.719L210.538 100.644L128.65 182.531Z" fill="#449226"/>
<path d="M128.65 182.531L145.728 169.143H143.593L144.951 168.367L195.596 117.719L197.731 114.809V117.719L210.538 100.644L128.65 182.531Z" stroke="#449226" stroke-width="0.000352946" stroke-miterlimit="2.6131"/>
<path fill-rule="evenodd" clip-rule="evenodd" d="M156.982 210.085L194.821 178.844L197.149 173.606V178.068L206.658 169.143H202.97L208.987 165.455L238.675 128.198L156.982 210.085Z" fill="#449226"/>
<path d="M156.982 210.085L194.821 178.844L197.149 173.606V178.068L206.658 169.143H202.97L208.987 165.455L238.675 128.198L156.982 210.085Z" stroke="#449226" stroke-width="0.000352946" stroke-miterlimit="2.6131"/>
<path fill-rule="evenodd" clip-rule="evenodd" d="M162.025 215.907L195.595 187.77L197.148 184.083V188.546L216.359 169.142H212.671L217.911 166.232L243.912 134.213L162.025 215.907Z" fill="#449226"/>
<path d="M162.025 215.907L195.595 187.77L197.148 184.083V188.546L216.359 169.142H212.671L217.911 166.232L243.912 134.213L162.025 215.907Z" stroke="#449226" stroke-width="0.000352946" stroke-miterlimit="2.6131"/>
<path fill-rule="evenodd" clip-rule="evenodd" d="M167.266 221.146L195.596 198.055L197.148 194.369V198.055L226.061 169.143H223.926L227.613 166.814L249.929 139.455L167.266 221.146Z" fill="#449226"/>
<path d="M167.266 221.146L195.596 198.055L197.148 194.369V198.055L226.061 169.143H223.926L227.613 166.814L249.929 139.455L167.266 221.146Z" stroke="#449226" stroke-width="0.000352946" stroke-miterlimit="2.6131"/>
<path fill-rule="evenodd" clip-rule="evenodd" d="M173.281 226.385L196.373 207.757L197.149 204.847V207.757L236.54 169.143H233.435L237.316 166.814L255.168 144.498L173.281 226.385Z" fill="#449226"/>
<path d="M173.281 226.385L196.373 207.757L197.149 204.847V207.757L236.54 169.143H233.435L237.316 166.814L255.168 144.498L173.281 226.385Z" stroke="#449226" stroke-width="0.000352946" stroke-miterlimit="2.6131"/>
<path fill-rule="evenodd" clip-rule="evenodd" d="M178.521 232.401L196.373 218.236L197.149 215.324V218.236L246.243 169.143H243.914L247.601 166.814L260.213 150.514L178.521 232.401Z" fill="#449226"/>
<path d="M178.521 232.401L196.373 218.236L197.149 215.324V218.236L246.243 169.143H243.914L247.601 166.814L260.213 150.514L178.521 232.401Z" stroke="#449226" stroke-width="0.000352946" stroke-miterlimit="2.6131"/>
<path fill-rule="evenodd" clip-rule="evenodd" d="M184.342 237.64L196.373 227.937L197.148 225.609V227.937L255.75 169.143H254.391L256.526 168.366L266.228 155.753L184.342 237.64Z" fill="#449226"/>
<path d="M184.342 237.64L196.373 227.937L197.148 225.609V227.937L255.75 169.143H254.391L256.526 168.366L266.228 155.753L184.342 237.64Z" stroke="#449226" stroke-width="0.000352946" stroke-miterlimit="2.6131"/>
<path fill-rule="evenodd" clip-rule="evenodd" d="M189.58 243.461L196.372 237.64L197.148 236.087V237.64L266.228 169.143H264.675L266.228 168.366L271.466 161.768L189.58 243.461Z" fill="#449226"/>
<path d="M189.58 243.461L196.372 237.64L197.148 236.087V237.64L266.228 169.143H264.675L266.228 168.366L271.466 161.768L189.58 243.461Z" stroke="#449226" stroke-width="0.000352946" stroke-miterlimit="2.6131"/>
<path fill-rule="evenodd" clip-rule="evenodd" d="M123.412 176.517L133.115 169.143H132.338L197.731 103.749V105.107L204.522 95.4057L123.412 176.517Z" fill="#449226"/>
<path d="M123.412 176.517L133.115 169.143H132.338L197.731 103.749V105.107L204.522 95.4057L123.412 176.517Z" stroke="#449226" stroke-width="0.000352946" stroke-miterlimit="2.6131"/>
<path fill-rule="evenodd" clip-rule="evenodd" d="M139.711 193.592L169.594 169.143H165.907L168.818 166.814L195.596 140.812L197.731 137.902V142.365L221.598 111.898L139.711 193.592Z" fill="#449226"/>
<path d="M139.711 193.592L169.594 169.143H165.907L168.818 166.814L195.596 140.812L197.731 137.902V142.365L221.598 111.898L139.711 193.592Z" stroke="#449226" stroke-width="0.000352946" stroke-miterlimit="2.6131"/>
<path fill-rule="evenodd" clip-rule="evenodd" d="M122.873 243.82L366.927 0.00340271H365.764L122.295 243.239L122.873 243.82Z" fill="#449226"/>
<path fill-rule="evenodd" clip-rule="evenodd" d="M117.055 239.357L356.409 0.00338745H355.244L116.473 238.776L117.055 239.357Z" fill="#449226"/>
<path fill-rule="evenodd" clip-rule="evenodd" d="M111.815 233.537L345.348 0.00341797H344.185L111.234 232.954L111.815 233.537Z" fill="#449226"/>
<path fill-rule="evenodd" clip-rule="evenodd" d="M106.576 226.744L333.495 0.00352478L332.332 0.00621033L105.996 226.163L106.576 226.744Z" fill="#449226"/>
<path fill-rule="evenodd" clip-rule="evenodd" d="M100.559 222.281L322.884 0.00358582H321.718L99.9785 221.7L100.559 222.281Z" fill="#449226"/>
<path fill-rule="evenodd" clip-rule="evenodd" d="M94.7389 217.042L311.776 0.00279236H310.614L94.1562 216.458L94.7389 217.042Z" fill="#449226"/>
<path fill-rule="evenodd" clip-rule="evenodd" d="M89.4995 211.219L300.718 0.00279236H299.553L88.918 210.64L89.4995 211.219Z" fill="#449226"/>
<path fill-rule="evenodd" clip-rule="evenodd" d="M83.4847 205.981L289.463 0.00318909L288.298 0.00585938L82.9023 205.399L83.4847 205.981Z" fill="#449226"/>
<path fill-rule="evenodd" clip-rule="evenodd" d="M78.2452 199.967L278.368 0.00286865H277.208L77.668 199.383L78.2452 199.967Z" fill="#449226"/>
<path fill-rule="evenodd" clip-rule="evenodd" d="M73.2018 194.727L267.923 0.00323486H266.761L72.6191 194.145L73.2018 194.727Z" fill="#449226"/>
<path fill-rule="evenodd" clip-rule="evenodd" d="M67.184 189.487L256.67 0.00273132H255.506L66.6035 188.905L67.184 189.487Z" fill="#449226"/>
<path fill-rule="evenodd" clip-rule="evenodd" d="M61.9455 183.668L245.608 0.00344849H244.443L61.3652 183.084L61.9455 183.668Z" fill="#449226"/>
<path fill-rule="evenodd" clip-rule="evenodd" d="M55.9303 178.427L234.353 0.000442505L233.188 0.00311279L55.3477 177.844L55.9303 178.427Z" fill="#449226"/>
<path fill-rule="evenodd" clip-rule="evenodd" d="M50.8845 172.413L223.293 0.00349426H222.128L50.3008 171.83L50.8845 172.413Z" fill="#449226"/>
<path fill-rule="evenodd" clip-rule="evenodd" d="M44.8683 167.173L212.178 0.00309753H211.016L44.291 166.59L44.8683 167.173Z" fill="#449226"/>
<path fill-rule="evenodd" clip-rule="evenodd" d="M39.6312 162.126L201.755 0.00280762H200.589L39.0488 161.545L39.6312 162.126Z" fill="#449226"/>
<path fill-rule="evenodd" clip-rule="evenodd" d="M33.6146 156.112L189.855 0.00349426H188.694L33.0352 155.531L33.6146 156.112Z" fill="#449226"/>
<path fill-rule="evenodd" clip-rule="evenodd" d="M28.5698 150.872L179.439 0.00282288H178.275L27.9883 150.291L28.5698 150.872Z" fill="#449226"/>
<path fill-rule="evenodd" clip-rule="evenodd" d="M128.116 249.836L377.948 0.00358582H376.782L127.533 249.254L128.116 249.836Z" fill="#449226"/>
<path fill-rule="evenodd" clip-rule="evenodd" d="M133.353 255.851L389.201 0.00283813H388.038L132.771 255.269L133.353 255.851Z" fill="#449226"/>
<path fill-rule="evenodd" clip-rule="evenodd" d="M139.371 260.897L400.26 0.00341797H399.097L138.787 260.314L139.371 260.897Z" fill="#449226"/>
<path fill-rule="evenodd" clip-rule="evenodd" d="M144.609 266.911L411.517 0.00274658H410.352L144.027 266.328L144.609 266.911Z" fill="#449226"/>
<path fill-rule="evenodd" clip-rule="evenodd" d="M150.429 272.151L422.576 0.00314331H421.414L149.848 271.569L150.429 272.151Z" fill="#449226"/>
<path fill-rule="evenodd" clip-rule="evenodd" d="M155.669 278.166L433.832 0.003479H432.667L155.086 277.583L155.669 278.166Z" fill="#449226"/>
<path fill-rule="evenodd" clip-rule="evenodd" d="M160.908 283.211L444.326 0.00286865H443.163L160.328 282.628L160.908 283.211Z" fill="#449226"/>
<path fill-rule="evenodd" clip-rule="evenodd" d="M166.923 288.45L455.371 0.00366211H454.205L166.342 287.868L166.923 288.45Z" fill="#449226"/>
<path fill-rule="evenodd" clip-rule="evenodd" d="M171.968 294.467L466.43 0.00271606H465.265L171.387 293.883L171.968 294.467Z" fill="#449226"/>
<path fill-rule="evenodd" clip-rule="evenodd" d="M177.984 299.706L477.684 0.003479H476.519L177.402 299.124L177.984 299.706Z" fill="#449226"/>
<path fill-rule="evenodd" clip-rule="evenodd" d="M183.223 305.526L488.745 0.003479H487.58L182.641 304.945L183.223 305.526Z" fill="#449226"/>
<path fill-rule="evenodd" clip-rule="evenodd" d="M189.239 310.766L499.999 0.00320435H498.834L188.656 310.183L189.239 310.766Z" fill="#449226"/>
<path fill-rule="evenodd" clip-rule="evenodd" d="M336.862 253.607C341.905 253.607 343.848 248.369 343.653 242.547C343.848 236.532 341.905 231.681 336.862 231.292H334.066V253.607H336.862ZM336.084 260.399H326.575V225.277H336.084C347.338 224.696 351.219 232.456 351.801 242.547C351.801 251.668 347.146 260.788 336.084 260.399ZM283.303 242.159C282.916 231.681 278.26 224.113 269.914 223.919C260.6 224.113 255.944 232.069 255.751 242.547C255.944 252.638 260.99 260.981 269.914 260.981C278.26 260.981 283.111 252.443 283.303 242.159ZM269.139 230.517C273.602 230.711 275.542 235.174 275.155 242.547C275.35 248.951 273.797 254.19 269.139 254.384C265.258 254.19 263.706 248.951 264.093 242.547C263.706 235.561 265.258 230.711 269.139 230.517ZM380.812 242.532C380.424 232.054 375.766 224.486 367.422 224.292C358.108 224.486 353.45 232.442 353.258 242.92C353.45 253.011 358.496 261.354 367.422 261.354C375.766 261.354 380.617 252.817 380.812 242.532ZM366.647 230.889C371.11 231.084 373.051 235.547 372.66 242.92C372.856 249.324 371.303 254.562 366.647 254.757C362.767 254.562 361.214 249.324 361.601 242.92C361.214 235.935 362.767 231.084 366.647 230.889ZM286.409 224.696H293.783V252.832H302.709V260.399H286.409V224.696ZM236.539 224.696H255.751V232.069H249.929V260.399H242.361V232.069H236.539V224.696ZM305.619 224.696H322.694V231.292H313.188V238.085H322.694V244.683H313.188V252.832H322.694V260.399H305.619V224.696ZM53.5556 224.696H72.7668V232.069H67.7213V260.399H59.3767V232.069H53.5556V224.696ZM95.8572 224.696H103.426V252.832H111.575V260.399H95.8572V224.696ZM35.7037 224.696H52.0042V231.292H43.0784V238.085H52.0042V244.683H43.0784V252.832H52.0042V260.399H35.7037V224.696ZM16.2995 247.011L21.5381 224.696H32.0175V260.399H24.4488V234.203L19.21 260.399H13.3889L7.37357 234.203V260.399H0V224.696H11.0608L16.2995 247.011ZM74.319 224.696H93.7234V232.069H87.708V260.399H80.3344V232.069H74.319V224.696ZM113.71 224.696H130.785V231.292H121.277V238.085H130.785V244.683H121.277V252.832H130.785V260.399H113.71V224.696ZM144.951 231.292H142.04V240.249L144.951 240.219C147.473 240.219 149.22 238.278 149.414 235.756C149.22 233.233 147.667 231.292 144.951 231.292ZM142.04 246.704V260.399H133.89V224.696H146.503C152.324 224.501 157.082 229.126 156.982 235.756C156.899 241.22 153.877 244.294 149.414 245.458L158.34 260.399H150.191L142.157 246.704H142.04Z" fill="#244BA6"/>
</g>
<defs>
<clipPath id="clip0_29_1387">
<rect width="500" height="310.765" fill="white"/>
</clipPath>
</defs>
</svg>
