<svg width="500" height="116" viewBox="0 0 500 116" fill="none" xmlns="http://www.w3.org/2000/svg">
<path d="M9.69922 109.125H34.8616H9.69922Z" fill="black"/>
<path d="M9.69922 109.125H34.8616" stroke="#A6DFF9" stroke-width="2.8023" stroke-linecap="round"/>
<path d="M49.4297 109.125H74.5921H49.4297Z" fill="black"/>
<path d="M49.4297 109.125H74.5921" stroke="#93DAF8" stroke-width="2.8023" stroke-linecap="round"/>
<path d="M89.1602 109.125H114.323H89.1602Z" fill="black"/>
<path d="M89.1602 109.125H114.323" stroke="#7ED4F7" stroke-width="2.8023" stroke-linecap="round"/>
<path d="M128.889 109.125H154.051H128.889Z" fill="black"/>
<path d="M128.889 109.125H154.051" stroke="#6BCFF6" stroke-width="2.8023" stroke-linecap="round"/>
<path d="M168.619 109.125H193.782H168.619Z" fill="black"/>
<path d="M168.619 109.125H193.782" stroke="#52CBF5" stroke-width="2.8023" stroke-linecap="round"/>
<path d="M208.35 109.125H233.512H208.35Z" fill="black"/>
<path d="M208.35 109.125H233.512" stroke="#39C6F4" stroke-width="2.8023" stroke-linecap="round"/>
<path d="M248.08 109.125H273.242H248.08Z" fill="black"/>
<path d="M248.08 109.125H273.242" stroke="#20C2F3" stroke-width="2.8023" stroke-linecap="round"/>
<path d="M287.811 109.125H312.973H287.811Z" fill="black"/>
<path d="M287.811 109.125H312.973" stroke="#04BEF2" stroke-width="2.8023" stroke-linecap="round"/>
<path d="M327.541 109.125H352.703H327.541Z" fill="black"/>
<path d="M327.541 109.125H352.703" stroke="#00BAF2" stroke-width="2.8023" stroke-linecap="round"/>
<path d="M367.27 109.125H392.432H367.27Z" fill="black"/>
<path d="M367.27 109.125H392.432" stroke="#00B6F1" stroke-width="2.8023" stroke-linecap="round"/>
<path d="M407 109.125H432.162H407Z" fill="black"/>
<path d="M407 109.125H432.162" stroke="#00B3F0" stroke-width="2.8023" stroke-linecap="round"/>
<path d="M446.73 109.125H471.893H446.73Z" fill="black"/>
<path d="M446.73 109.125H471.893" stroke="#00AFEF" stroke-width="2.8023" stroke-linecap="round"/>
<path d="M227.156 3.17773V35.624C224.707 31.9051 221.361 28.8634 217.426 26.7802C213.491 24.6969 209.094 23.6392 204.642 23.705C196.431 23.705 189.544 26.6185 183.717 32.4456C180.967 35.2098 178.8 38.4977 177.344 42.1147C175.889 45.7317 175.174 49.6042 175.242 53.5026C175.242 61.9783 178.155 68.9973 183.85 74.8244C189.412 80.7839 196.431 83.6975 204.377 83.6975C209.012 83.6975 213.25 82.638 217.091 80.9164C220.799 78.9299 224.242 76.1488 227.288 72.4406V82.2407H234.572V3.17773H227.156ZM35.1266 23.0428C31.1536 23.0428 27.1806 24.1023 23.4725 26.3536C20.3453 28.4867 17.6865 31.2356 15.6589 34.4321V24.4996H8.375V82.2407H15.6589V57.7405C15.6589 50.4566 16.4535 45.1592 17.7778 41.5835C19.0855 38.2317 21.3403 35.3328 24.2671 33.2402C27.1806 31.2537 30.359 30.1942 33.6699 30.1942C36.5834 30.1942 39.0996 30.9888 41.351 32.4456C43.4388 33.9117 45.0138 35.9962 45.8538 38.4051C46.6484 41.0538 47.0457 45.689 47.0457 52.708V82.2407H54.3295V59.727C54.3295 51.3836 54.9917 45.4241 56.316 41.8484C57.6404 38.4051 59.8917 35.4916 62.8053 33.3726C65.7188 31.2537 68.8972 30.1942 72.473 30.1942C75.3865 30.1942 77.7703 30.8564 79.8892 32.3132C82.0082 33.6375 83.465 35.624 84.392 37.8754C85.319 40.2592 85.7163 44.4971 85.7163 50.7215V82.2407H93.1326V50.8539C93.1326 43.7025 92.4705 38.1403 91.0137 34.5645C89.6953 31.0944 87.3294 28.1206 84.2443 26.056C81.1592 23.9914 77.508 22.9383 73.7973 23.0428C69.6918 23.0428 65.8513 24.3671 62.1431 26.6185C58.5674 29.0023 55.5214 32.4456 53.0052 36.9484C51.9457 33.6375 50.4889 30.9888 49.0322 29.1348C47.3791 27.213 45.2904 25.7145 42.9402 24.7644C40.424 23.5725 37.9077 23.0428 34.9942 23.0428H35.1266ZM134.849 23.0428C126.241 23.0428 119.09 26.2212 113.66 32.7105C108.483 38.3906 105.645 45.8176 105.714 53.5026C105.714 61.4486 108.363 68.6 113.925 74.692C119.222 80.6515 126.241 83.6975 134.717 83.6975C138.643 83.8114 142.546 83.0506 146.142 81.4701C149.738 79.8897 152.938 77.5292 155.509 74.5596C160.797 68.8328 163.688 61.2967 163.587 53.5026C163.587 45.5565 161.071 38.5376 155.906 32.578C153.313 29.4955 150.066 27.0287 146.401 25.3565C142.736 23.6844 138.745 22.8488 134.717 22.9104L134.849 23.0428ZM277.216 23.0428C267.945 23.0428 260.529 26.6185 254.834 33.9024C250.464 39.597 248.345 46.0863 248.345 53.5026C248.345 61.3162 250.994 68.2027 256.159 74.4271C258.787 77.5104 262.089 79.9494 265.808 81.5566C269.527 83.1638 273.566 83.8962 277.613 83.6975C284.979 83.8033 292.099 81.0501 297.478 76.0163C300.127 73.6325 302.51 70.3217 304.365 66.3487L298.405 63.0378C296.154 66.8784 294.167 69.6595 292.181 71.2487C287.933 74.8656 282.529 76.8392 276.951 76.8109C271.124 76.8109 266.091 74.692 262.118 70.4541C258.013 66.0838 255.894 60.654 255.761 53.8999H306.351C306.351 45.9538 304.232 39.3322 300.127 34.0348C297.471 30.4978 294.002 27.6523 290.014 25.7391C286.026 23.8258 281.636 22.901 277.216 23.0428ZM339.195 23.0428C336.413 23.0428 333.765 23.8374 331.249 25.4266C328.294 27.4184 325.771 29.9858 323.832 32.9753V24.3671H316.151V82.1083H323.832V62.7729C323.832 52.708 324.362 45.9538 325.289 42.7754C326.613 38.4051 328.335 35.2267 330.586 33.2402C332.579 31.3161 335.233 30.2264 338.003 30.1942C338.93 30.1942 340.254 30.4591 341.976 31.2537L345.949 24.8969C343.432 23.5725 341.314 22.9104 339.195 22.9104V23.0428ZM382.898 23.0428C378.66 23.0428 374.819 23.9698 371.244 25.9563C367.415 28.1765 364.116 31.2045 361.576 34.8294V24.3671H354.292V82.1083H361.576V60.9189C361.576 53.3701 361.973 48.0728 362.635 45.1592C363.695 40.7889 366.079 37.2132 369.522 34.1672C373.098 31.1213 377.071 29.6645 381.441 29.6645C385.414 29.6645 388.46 30.724 390.711 32.578C393.3 34.787 395.034 37.8326 395.611 41.1862C396.274 43.4376 396.538 47.8079 396.538 54.562V82.1083H403.822V52.5755C403.822 44.6295 403.028 38.8024 401.438 35.0943C399.849 31.3861 397.465 28.4726 394.155 26.2212C390.821 24.0093 386.898 22.8554 382.898 22.9104V23.0428ZM445.142 23.0428C437.328 23.0428 430.574 25.9563 425.012 31.7834C422.266 34.6053 420.104 37.9411 418.649 41.5999C417.195 45.2587 416.477 49.1685 416.536 53.1053C416.369 61.1183 419.366 68.8743 424.879 74.692C427.62 77.7022 430.999 80.061 434.77 81.5954C438.54 83.1298 442.606 83.801 446.67 83.5597C450.734 83.3185 454.692 82.1709 458.254 80.201C461.817 78.2312 464.893 75.4891 467.258 72.1757V82.2407H474.409V24.3671H467.391V34.9618C464.917 31.1627 461.553 28.0257 457.59 25.8239C453.828 23.887 449.637 22.9305 445.406 23.0428H445.142ZM277.216 30.0618C280.659 30.0618 283.837 30.8564 286.751 32.3132C289.929 33.6375 292.313 35.624 294.167 38.0078C295.889 40.3916 297.346 43.4376 298.405 47.4106H256.423C258.013 42.1133 260.132 38.1403 263.045 35.4916C267.018 31.9159 271.786 30.1942 277.216 30.1942V30.0618ZM445.804 30.0618C452.028 30.0618 457.193 32.3132 461.563 36.8159C465.669 41.3187 467.788 46.8809 467.788 53.635C467.788 58.0053 466.861 61.9783 465.139 65.4216C463.236 68.8527 460.455 71.7158 457.08 73.7172C453.706 75.7187 449.86 76.7864 445.936 76.8109C441.963 76.8109 438.255 75.7515 434.812 73.7649C429.742 70.3986 426.106 65.2657 424.613 59.3658C423.119 53.466 423.875 47.2215 426.733 41.8484C428.534 38.3411 431.267 35.3979 434.631 33.342C437.995 31.286 441.861 30.1969 445.804 30.1942V30.0618ZM134.584 30.3267C140.544 30.3267 145.709 32.578 149.947 37.0808C153.385 40.8364 155.575 45.5654 156.216 50.617C156.856 55.6685 155.915 60.7944 153.522 65.2892C151.753 68.7455 149.057 71.6413 145.736 73.6527C142.415 75.6641 138.599 76.7118 134.717 76.6785C130.834 76.7118 127.019 75.6641 123.698 73.6527C120.376 71.6413 117.68 68.7455 115.911 65.2892C113.993 61.7044 112.992 57.7006 112.998 53.635C112.998 47.1458 115.117 41.716 119.355 37.0808C123.592 32.578 128.625 30.3267 134.717 30.3267H134.584ZM205.039 30.724C208.052 30.7227 211.035 31.3262 213.811 32.4988C216.586 33.6714 219.098 35.3892 221.198 37.5504C223.297 39.7117 224.941 42.2724 226.033 45.0808C227.125 47.8891 227.642 50.8881 227.553 53.8999C227.615 58.0144 226.612 62.0749 224.639 65.6865C222.574 69.0816 219.68 71.896 216.228 73.8651C212.776 75.8343 208.88 76.8935 204.907 76.9434C200.921 76.8983 197.018 75.7956 193.597 73.748C190.177 71.7004 187.362 68.7814 185.439 65.2892C183.467 61.7693 182.431 57.8021 182.431 53.7674C182.431 49.7328 183.467 45.7656 185.439 42.2457C187.357 38.7308 190.193 35.8026 193.645 33.7734C197.097 31.7442 201.035 30.6903 205.039 30.724ZM485.137 29.0023H486.196C486.726 29.0023 487.123 29.0023 487.256 28.7375C487.52 28.7375 487.653 28.4726 487.653 28.2077L487.388 27.8104C487.388 27.5456 487.388 27.5456 487.123 27.4131H485.137V29.0023ZM484.342 32.0483V26.7509H487.52C487.918 26.8834 488.183 27.1483 488.315 27.4131L488.58 28.0753C488.58 28.605 488.315 28.8699 488.183 29.1348C487.798 29.4291 487.34 29.6123 486.858 29.6645L487.388 29.9294L488.183 30.9888L488.845 32.0483H487.785L487.388 31.1213L486.461 29.7969H485.269V32.0483H484.342ZM486.461 25.0293C485.799 25.0293 485.137 25.1617 484.474 25.6915C483.812 25.9563 483.283 26.4861 483.018 27.1483C482.618 27.7826 482.405 28.5173 482.405 29.2672C482.405 30.0171 482.618 30.7518 483.018 31.3861C483.283 32.0483 483.812 32.578 484.474 32.8429C485.137 33.3726 485.799 33.5051 486.461 33.5051C487.256 33.5051 487.918 33.3726 488.58 32.8429C489.242 32.578 489.904 32.0483 490.169 31.3861C490.434 30.724 490.699 30.0618 490.699 29.2672C490.699 28.605 490.434 27.9429 490.169 27.1483C489.784 26.5255 489.234 26.0213 488.58 25.6915C487.918 25.1617 487.256 25.0293 486.461 25.0293ZM486.461 24.3671C487.388 24.3671 488.183 24.4996 488.977 24.8969C489.772 25.2942 490.302 25.9563 490.831 26.7509C491.361 27.5456 491.493 28.3402 491.493 29.3996C491.493 30.1942 491.361 30.9888 490.831 31.7834C490.434 32.578 489.772 33.1078 488.977 33.6375C488.207 34.064 487.342 34.2916 486.461 34.2997C485.666 34.2997 484.872 34.0348 484.077 33.6375C483.283 33.2402 482.753 32.578 482.223 31.7834C481.826 30.9888 481.561 30.1942 481.561 29.2672C481.561 28.3402 481.826 27.5456 482.223 26.7509C482.753 25.9563 483.283 25.4266 484.077 24.8969C484.872 24.4996 485.799 24.3671 486.461 24.3671Z" fill="#E51937"/>
</svg>
