<svg width="500" height="77" viewBox="0 0 500 77" fill="none" xmlns="http://www.w3.org/2000/svg">
<g clip-path="url(#clip0_29_1391)">
<path fill-rule="evenodd" clip-rule="evenodd" d="M102.727 37.2759C102.727 33.3716 103.359 29.8798 104.622 26.8256C105.881 23.7746 107.654 21.1833 109.927 19.0611C112.204 16.9516 114.927 15.3332 118.104 14.2374C121.281 13.1323 124.754 12.5781 128.523 12.5781C132.336 12.5781 135.841 13.1323 139.005 14.2374C142.182 15.3426 144.909 16.9516 147.182 19.0611C149.458 21.1833 151.228 23.7652 152.5 26.8256C153.759 29.8798 154.395 33.3716 154.395 37.2759C154.395 41.1896 153.759 44.672 152.5 47.723C151.228 50.7771 149.468 53.3684 147.182 55.478C144.909 57.5876 142.182 59.165 139.005 60.2009C135.831 61.2337 132.336 61.7469 128.523 61.7469C124.754 61.7469 121.281 61.2337 118.104 60.2009C114.927 59.165 112.204 57.5876 109.927 55.478C107.654 53.3684 105.881 50.7771 104.622 47.723C103.359 44.6625 102.727 41.177 102.727 37.2759ZM147.632 37.2759C147.632 33.4534 147.15 30.1568 146.187 27.3798C145.227 24.5932 143.873 22.301 142.15 20.4874C140.431 18.6738 138.4 17.3199 136.077 16.4509C133.75 15.5788 131.24 15.1379 128.523 15.1379C125.859 15.1379 123.359 15.5788 121.036 16.4509C118.709 17.3199 116.691 18.6738 114.959 20.4874C113.237 22.301 111.886 24.6058 110.922 27.3798C109.959 30.1663 109.477 33.466 109.477 37.2759C109.477 41.0951 109.959 44.3949 110.922 47.172C111.886 49.9585 113.237 52.2507 114.959 54.0643C116.681 55.8779 118.709 57.2286 121.036 58.1008C123.359 58.9698 125.85 59.4106 128.523 59.4106C131.24 59.4106 133.759 58.9698 136.077 58.1008C138.4 57.2286 140.419 55.8779 142.15 54.0643C143.873 52.2507 145.227 49.9459 146.187 47.172C147.15 44.3949 147.632 41.0951 147.632 37.2759Z" fill="#1B4298"/>
<path fill-rule="evenodd" clip-rule="evenodd" d="M170.955 31.3438C170.955 28.3116 170.892 25.3299 170.778 22.4111C170.668 19.4924 170.533 16.5106 170.4 13.4785C171.732 13.573 173.042 13.6548 174.333 13.7241C175.624 13.7965 176.937 13.828 178.269 13.828C179.601 13.828 180.914 13.765 182.205 13.6548C183.495 13.5415 184.805 13.4785 186.137 13.4785C188.074 13.4785 189.909 13.6643 191.66 14.0327C193.414 14.4011 194.938 15.0056 196.251 15.8557C197.563 16.7058 198.596 17.8236 199.355 19.2058C200.114 20.5881 200.492 22.3104 200.492 24.379C200.492 26.5925 200.001 28.488 199.006 30.0654C198.014 31.6523 196.814 32.9621 195.391 33.998C193.965 35.0308 192.438 35.84 190.8 36.4162C189.169 36.9892 187.686 37.3671 186.354 37.5528C186.905 38.2392 187.664 39.2121 188.628 40.4496C189.591 41.6901 190.677 43.0629 191.874 44.5585C193.074 46.0541 194.314 47.6221 195.605 49.2499C196.896 50.8778 198.137 52.4458 199.333 53.9414C200.533 55.437 201.66 56.8003 202.715 58.0503C203.773 59.2877 204.623 60.2323 205.268 60.8778C204.582 60.7833 203.883 60.7329 203.196 60.7329C202.51 60.7329 201.814 60.7329 201.128 60.7329C200.482 60.7329 199.815 60.7329 199.128 60.7329C198.442 60.7329 197.778 60.7739 197.132 60.8778C196.446 59.9143 195.4 58.4596 193.996 56.5327C192.592 54.5963 191.046 52.5276 189.346 50.3268C187.645 48.1133 185.901 45.9218 184.141 43.7399C182.368 41.5579 180.75 39.7033 179.273 38.1857H176.65V43.2172C176.65 46.2493 176.71 49.2405 176.824 52.1781C176.937 55.1189 177.069 58.0188 177.205 60.8652C176.147 60.7739 175.023 60.7235 173.823 60.7235C172.623 60.7235 171.496 60.7644 170.441 60.8652C170.574 58.0188 170.709 55.1189 170.819 52.1781C170.933 49.2405 170.995 46.2493 170.995 43.2172V31.3438H170.955ZM176.609 35.2764C177.255 35.4212 177.951 35.5125 178.71 35.5535C179.468 35.607 180.309 35.6259 181.228 35.6259C182.655 35.6259 184.141 35.4621 185.677 35.1441C187.214 34.8261 188.628 34.2625 189.919 33.4533C191.21 32.6567 192.274 31.5705 193.127 30.2166C193.977 28.8658 194.405 27.1435 194.405 25.0749C194.405 23.2833 194.069 21.7972 193.401 20.629C192.737 19.4609 191.874 18.5289 190.819 17.833C189.764 17.1467 188.606 16.6744 187.368 16.4193C186.128 16.1643 184.909 16.0415 183.71 16.0415C182.101 16.0415 180.769 16.0698 179.705 16.1422C178.647 16.2147 177.746 16.2965 177.009 16.3878C176.918 18.9193 176.824 21.4288 176.732 23.9067C176.641 26.3878 176.6 28.8752 176.6 31.3532V35.2764H176.609Z" fill="#1B4298"/>
<path d="M256.946 19.4106C255.913 18.5825 254.764 17.8646 253.495 17.2381C252.232 16.6146 250.831 16.1109 249.282 15.7236C247.745 15.3332 246.095 15.1379 244.354 15.1379C241.505 15.1379 238.841 15.5788 236.382 16.4509C233.923 17.3199 231.782 18.6738 229.968 20.4874C228.155 22.301 226.731 24.6058 225.696 27.3798C224.663 30.1568 224.15 33.466 224.15 37.2759C224.15 40.6354 224.609 43.6675 225.532 46.3817C226.454 49.0958 227.796 51.3817 229.568 53.2456C231.341 55.1096 233.504 56.5422 236.055 57.5561C238.605 58.5731 241.495 59.0737 244.713 59.0737C245.677 59.0737 246.691 59.0233 247.745 58.9289C248.8 58.8376 249.827 58.7053 250.818 58.5196C251.804 58.3369 252.726 58.1102 253.577 57.8332C254.427 57.5561 255.154 57.2412 255.749 56.8728C255.79 55.4874 255.831 54.1147 255.85 52.7324C255.872 51.3502 255.881 49.9459 255.881 48.5227C255.881 46.9138 255.85 45.3048 255.777 43.699C255.708 42.0901 255.626 40.5536 255.532 39.0769C256.681 39.313 257.786 39.4264 258.841 39.4264C259.345 39.4264 259.855 39.4075 260.359 39.3539C260.859 39.313 261.341 39.2217 261.804 39.0769C261.709 40.1348 261.64 41.8036 261.599 44.0769C261.546 46.3502 261.527 49.3539 261.527 53.0819C261.527 54.0044 261.536 54.9364 261.558 55.8779C261.577 56.8193 261.587 57.7513 261.587 58.6738C260.626 59.0422 259.417 59.4232 257.972 59.8105C256.527 60.2009 254.978 60.5284 253.35 60.774C251.722 61.029 250.082 61.2557 248.454 61.4604C246.823 61.665 245.337 61.7689 244.005 61.7689C239.908 61.7689 236.218 61.2746 232.931 60.2828C229.641 59.3004 226.845 57.7639 224.549 55.6921C222.245 53.6235 220.481 51.0542 219.241 47.9686C218 44.8861 217.377 41.3218 217.377 37.2759C217.377 33.3716 218.022 29.8798 219.313 26.8256C220.604 23.7746 222.418 21.1833 224.764 19.0611C227.109 16.9516 229.949 15.3332 233.29 14.2374C236.618 13.1323 240.318 12.5781 244.364 12.5781C246.709 12.5781 248.791 12.7009 250.604 12.956C252.418 13.2141 254.027 13.5416 255.431 13.9604C256.832 14.3697 258.063 14.8105 259.118 15.2733C260.173 15.733 261.118 16.1644 261.946 16.5832C261.577 17.2286 261.24 18.0599 260.941 19.0611C260.645 20.0781 260.45 21.0196 260.359 21.8886H259.527C258.841 21.0699 257.981 20.2419 256.946 19.4106Z" fill="#1B4298"/>
<path fill-rule="evenodd" clip-rule="evenodd" d="M319.346 60.8656C318.7 60.7743 318.096 60.7239 317.523 60.7239C316.947 60.7239 316.333 60.7239 315.697 60.7239C315.051 60.7239 314.447 60.7239 313.874 60.7239C313.301 60.7239 312.687 60.7648 312.051 60.8656C311.733 59.8108 311.292 58.5325 310.738 57.0369C310.187 55.5413 309.582 53.9827 308.915 52.3455C308.25 50.7145 307.573 49.0551 306.877 47.3769C306.188 45.6956 305.542 44.0992 304.938 42.5816C303.464 42.5312 301.969 42.4997 300.451 42.4808C298.937 42.4588 297.419 42.4494 295.901 42.4494C294.478 42.4494 293.074 42.4588 291.692 42.4808C290.309 42.4997 288.905 42.5407 287.479 42.5816C286.005 46.1679 284.673 49.5778 283.474 52.824C282.274 56.0734 281.383 58.7466 280.778 60.8656C280.001 60.7743 279.151 60.7239 278.228 60.7239C277.306 60.7239 276.455 60.7648 275.678 60.8656C279.406 52.8146 283.033 44.814 286.578 36.8669C290.124 28.9166 293.688 20.8247 297.274 12.5879H298.587C299.692 15.2516 300.882 18.142 302.173 21.2434C303.464 24.348 304.774 27.484 306.106 30.6578C307.438 33.8347 308.773 36.9802 310.114 40.1036C311.446 43.2271 312.696 46.1364 313.874 48.8316C315.042 51.5237 316.106 53.9229 317.051 56.0419C317.973 58.1515 318.741 59.7604 319.346 60.8656ZM288.782 39.4172C289.979 39.4172 291.219 39.4361 292.51 39.4897C293.801 39.54 295.042 39.5589 296.241 39.5589C297.532 39.5589 298.814 39.5495 300.105 39.5306C301.396 39.5085 302.674 39.4676 303.965 39.4267L296.314 21.9109L288.782 39.4172Z" fill="#1B4298"/>
<path d="M356.117 42.9591C350.132 36.5485 344.159 30.1663 338.176 23.825C338.123 25.1159 338.082 26.8382 338.041 28.9981C337.991 31.1612 337.972 34.0989 337.972 37.83C337.972 38.7903 337.981 39.99 338 41.4131C338.022 42.8363 338.041 44.3319 338.072 45.8999C338.095 47.4679 338.135 49.0548 338.176 50.6638C338.217 52.2727 338.268 53.7683 338.318 55.1505C338.359 56.5328 338.413 57.7324 338.453 58.7652C338.494 59.801 338.545 60.5063 338.586 60.8653C337.849 60.774 337.049 60.7236 336.168 60.7236C335.245 60.7236 334.395 60.7645 333.617 60.8653C333.708 60.4056 333.812 59.5555 333.923 58.3149C334.036 57.0775 334.14 55.5914 334.231 53.8691C334.323 52.1499 334.426 50.2733 334.54 48.2456C334.65 46.2274 334.744 44.1997 334.814 42.172C334.886 40.1537 334.936 38.1764 334.99 36.24C335.031 34.3162 335.062 32.5844 335.062 31.0668C335.062 26.6524 335.05 22.8615 335.031 19.6877C335.009 16.5107 334.949 14.1461 334.855 12.5781H335.963C338.771 15.6102 341.772 18.8691 344.968 22.342C348.167 25.8118 351.341 29.2343 354.486 32.6159C357.632 35.9944 360.626 39.1902 363.453 42.2034C366.281 45.2135 368.749 47.7765 370.872 49.8955V40.5126C370.872 35.689 370.84 30.9849 370.768 26.4068C370.695 21.8288 370.554 17.5246 370.317 13.4786C371.24 13.7148 372.018 13.8281 372.663 13.8281C373.217 13.8281 373.954 13.7148 374.867 13.4786C374.773 14.4925 374.672 16.0101 374.559 18.0284C374.445 20.0561 374.322 22.216 374.209 24.5114C374.099 26.8067 373.995 29.0611 373.904 31.2715C373.812 33.4755 373.771 35.2481 373.771 36.58C373.771 37.7261 373.771 39.1084 373.771 40.7173C373.771 42.2853 373.781 43.9131 373.8 45.6134C373.822 47.3136 373.841 49.0233 373.872 50.7551C373.894 52.4774 373.913 54.0958 373.945 55.5819C373.964 57.0775 373.976 58.3779 373.976 59.4736C373.976 60.4874 373.976 61.2463 373.976 61.7469H373.013C367.726 55.6417 362.09 49.3823 356.117 42.9591Z" fill="#1B4298"/>
<path fill-rule="evenodd" clip-rule="evenodd" d="M390.881 37.2759C390.881 33.3716 391.517 29.8798 392.776 26.8256C394.036 23.7746 395.808 21.1833 398.082 19.0611C400.358 16.9516 403.082 15.3332 406.259 14.2374C409.436 13.1323 412.909 12.5781 416.681 12.5781C420.5 12.5781 423.995 13.1323 427.162 14.2374C430.336 15.3426 433.063 16.9516 435.336 19.0611C437.613 21.1833 439.385 23.7652 440.645 26.8256C441.904 29.8798 442.54 33.3716 442.54 37.2759C442.54 41.1896 441.904 44.672 440.645 47.723C439.376 50.7771 437.613 53.3684 435.336 55.478C433.063 57.5876 430.336 59.165 427.162 60.2009C423.985 61.2337 420.49 61.7469 416.681 61.7469C412.909 61.7469 409.436 61.2337 406.259 60.2009C403.082 59.165 400.358 57.5876 398.082 55.478C395.808 53.3684 394.036 50.7771 392.776 47.723C391.517 44.6625 390.881 41.177 390.881 37.2759ZM435.79 37.2759C435.79 33.4534 435.308 30.1568 434.344 27.3798C433.381 24.6058 432.027 22.301 430.308 20.4874C428.586 18.6738 426.558 17.3199 424.24 16.4509C421.917 15.5788 419.395 15.1379 416.69 15.1379C414.026 15.1379 411.526 15.5788 409.2 16.4509C406.873 17.3199 404.854 18.6738 403.135 20.4874C401.413 22.301 400.062 24.6058 399.099 27.3798C398.135 30.1663 397.654 33.466 397.654 37.2759C397.654 41.0951 398.135 44.3949 399.099 47.172C400.062 49.9585 401.413 52.2507 403.135 54.0643C404.854 55.8779 406.885 57.2286 409.2 58.1008C411.526 58.9698 414.017 59.4106 416.69 59.4106C419.404 59.4106 421.926 58.9698 424.24 58.1008C426.567 57.2286 428.586 55.8779 430.308 54.0643C432.027 52.2507 433.381 49.9459 434.344 47.172C435.308 44.3949 435.79 41.0951 435.79 37.2759Z" fill="#1B4298"/>
<path d="M481.045 42.9591C475.062 36.5485 469.086 30.1663 463.104 23.825C463.053 25.1159 463.012 26.8382 462.959 28.9981C462.909 31.1612 462.89 34.0989 462.89 37.83C462.89 38.7903 462.899 39.99 462.918 41.4131C462.94 42.8363 462.959 44.3319 462.99 45.8999C463.012 47.4679 463.053 49.0548 463.094 50.6638C463.135 52.2727 463.186 53.7683 463.227 55.1505C463.277 56.5328 463.318 57.7324 463.371 58.7652C463.412 59.801 463.463 60.5063 463.504 60.8653C462.767 60.774 461.967 60.7236 461.086 60.7236C460.163 60.7236 459.313 60.7645 458.535 60.8653C458.626 60.4056 458.727 59.5555 458.841 58.3149C458.954 57.0775 459.058 55.5914 459.149 53.8691C459.24 52.1499 459.344 50.2733 459.458 48.2456C459.568 46.2274 459.662 44.1997 459.732 42.172C459.804 40.1537 459.854 38.1764 459.908 36.24C459.958 34.3162 459.977 32.5844 459.977 31.0668C459.977 26.6524 459.968 22.8615 459.949 19.6877C459.927 16.5107 459.867 14.1461 459.773 12.5781H460.881C463.686 15.6102 466.69 18.8691 469.886 22.342C473.082 25.8118 476.259 29.2343 479.404 32.6159C482.55 35.9944 485.541 39.1902 488.371 42.2034C491.199 45.2135 493.667 47.7765 495.79 49.8955V40.5126C495.79 35.689 495.758 30.9849 495.686 26.4068C495.613 21.8288 495.472 17.5246 495.235 13.4786C496.158 13.7148 496.936 13.8281 497.581 13.8281C498.135 13.8281 498.872 13.7148 499.785 13.4786C499.691 14.4925 499.59 16.0101 499.477 18.0284C499.363 20.0561 499.24 22.216 499.127 24.5114C499.017 26.8067 498.913 29.0611 498.822 31.2715C498.727 33.4755 498.686 35.2481 498.686 36.58C498.686 37.7261 498.686 39.1084 498.686 40.7173C498.686 42.2853 498.699 43.9131 498.718 45.6134C498.74 47.3136 498.759 49.0233 498.79 50.7551C498.812 52.4774 498.831 54.0958 498.863 55.5819C498.881 57.0775 498.894 58.3779 498.894 59.4736C498.894 60.4874 498.894 61.2463 498.894 61.7469H497.949C492.654 55.6417 487.027 49.3823 481.045 42.9591Z" fill="#1B4298"/>
<path d="M67.09 31.2949H48.6045C46.3532 31.2949 44.5176 29.4719 44.5176 27.208C44.5176 24.9536 46.3406 23.1211 48.6045 23.1211H67.09C69.3444 23.1211 71.1769 24.9441 71.1769 27.208C71.1769 29.4719 69.3444 31.2949 67.09 31.2949Z" fill="#E20177"/>
<path d="M55.541 50.3279V38.9267C55.541 36.6723 57.3672 34.8398 59.6311 34.8398C61.8855 34.8398 63.718 36.6629 63.718 38.9267V50.3279C63.718 52.5791 61.8949 54.4148 59.6311 54.4148C57.3767 54.4148 55.541 52.5791 55.541 50.3279Z" fill="#E20177"/>
<path d="M43.8125 15.488V4.0869C43.8125 1.83249 45.6356 0 47.8994 0C50.1538 0 51.9863 1.82305 51.9863 4.0869V15.488C51.9863 17.7424 50.1633 19.5749 47.8994 19.5749C45.645 19.5749 43.8125 17.7424 43.8125 15.488Z" fill="#E20177"/>
<path d="M43.8125 71.8891V53.7373C43.8125 51.4829 45.6356 49.6504 47.8994 49.6504C50.1538 49.6504 51.9863 51.4734 51.9863 53.7373V71.8891C51.9863 74.1435 50.1633 75.976 47.8994 75.976C45.645 75.976 43.8125 74.1435 43.8125 71.8891Z" fill="#E20177"/>
<path d="M32.082 29.5525V18.1514C32.082 15.8969 33.9051 14.0645 36.1689 14.0645C38.4233 14.0645 40.2558 15.8875 40.2558 18.1514V29.5525C40.2558 31.8069 38.4328 33.6394 36.1689 33.6394C33.9145 33.6394 32.082 31.8069 32.082 29.5525Z" fill="#E20177"/>
<path d="M32.082 60.7748V54.8838C32.082 52.6325 33.9051 50.7969 36.1689 50.7969C38.4233 50.7969 40.2558 52.6199 40.2558 54.8838V60.7748C40.2558 63.0292 38.4328 64.8617 36.1689 64.8617C33.9145 64.8617 32.082 63.0292 32.082 60.7748Z" fill="#E20177"/>
<path d="M71.3635 34.8574H79.9907C82.2451 34.8574 84.0776 36.6805 84.0776 38.9443C84.0776 41.1987 82.2545 43.0312 79.9907 43.0312H71.3635C69.1091 43.0312 67.2734 41.2082 67.2734 38.9443C67.2734 36.6805 69.0996 34.8574 71.3635 34.8574Z" fill="#E20177"/>
<path d="M4.0869 34.8574H12.7141C14.9685 34.8574 16.8042 36.6805 16.8042 38.9443C16.8042 41.1987 14.978 43.0312 12.7141 43.0312H4.0869C1.82305 43.0218 0 41.1893 0 38.9349C0 36.6805 1.82305 34.8574 4.0869 34.8574Z" fill="#E20177"/>
<path d="M20.3594 50.3279V38.9267C20.3594 36.6723 22.1824 34.8398 24.4463 34.8398C26.7007 34.8398 28.5363 36.6629 28.5363 38.9267V50.3279C28.5363 52.5791 26.7101 54.4148 24.4463 54.4148C22.1824 54.4148 20.3594 52.5791 20.3594 50.3279Z" fill="#E20177"/>
<path d="M42.3684 46.8137C39.3142 46.8137 36.8457 44.3452 36.8457 41.291C36.8457 38.2368 39.3142 35.7715 42.3684 35.7715C45.4225 35.7715 47.891 38.2368 47.891 41.291C47.891 44.3452 45.4225 46.8137 42.3684 46.8137Z" fill="#E20177"/>
<path d="M78.6453 31.1218C76.4885 31.1218 74.7441 29.3775 74.7441 27.2175C74.7441 25.0607 76.4885 23.3164 78.6453 23.3164C80.8052 23.3164 82.5496 25.0607 82.5496 27.2175C82.5496 29.3775 80.8052 31.1218 78.6453 31.1218Z" fill="#009DDC"/>
<path d="M36.1453 76.2624C33.9885 76.2624 32.2441 74.5181 32.2441 72.3613C32.2441 70.2014 33.9885 68.457 36.1453 68.457C38.3052 68.457 40.0496 70.2014 40.0496 72.3613C40.0496 74.5181 38.3052 76.2624 36.1453 76.2624Z" fill="#54B948"/>
<path d="M24.418 31.1218C22.258 31.1218 20.5137 29.3775 20.5137 27.2175C20.5137 25.0607 22.258 23.3164 24.418 23.3164C26.5748 23.3164 28.3191 25.0607 28.3191 27.2175C28.3191 29.3775 26.5748 31.1218 24.418 31.1218Z" fill="#1B4298"/>
</g>
<defs>
<clipPath id="clip0_29_1391">
<rect width="500" height="76.5113" fill="white"/>
</clipPath>
</defs>
</svg>
