<svg width="500" height="205" viewBox="0 0 500 205" fill="none" xmlns="http://www.w3.org/2000/svg">
<g clip-path="url(#clip0_29_1395)">
<path d="M9.74306 81.9151C15.6426 60.3459 40.2139 55.2126 62.8365 54.5784C81.4338 54.0571 102.169 56.5162 102.169 56.5162L92.4264 92.1378C92.4264 92.1378 71.6907 89.6788 53.0934 90.2001C30.471 90.8342 5.8996 95.9675 0 117.537L9.74306 81.9151Z" fill="#0190FF"/>
<path d="M322.789 43.9902C293.007 43.9904 285.377 72.8139 281.108 88.4248L249.294 204.717H267.855L296.061 101.602H315.338L302.505 148.523H321.066L336.456 92.253H298.619C300.558 85.1607 302.625 77.6052 304.311 71.4444C307.423 60.0667 312.506 51.8042 319.899 52.082C328.069 52.3891 323.911 57.7542 322.792 61.8447C321.244 67.5039 325.423 73.1944 332.745 73.1944C348.649 73.1944 352.571 43.9902 322.789 43.9902ZM217.502 64.3389V64.3399L194.477 148.523H213.826L222.353 117.349H239.16C257.706 117.349 270.014 107.113 273.342 92.8848C276.449 79.6001 268.69 64.3389 247.908 64.3389C237.772 64.3391 227.638 64.3389 217.502 64.3389ZM234.143 74.2451H241.582C249.371 74.2451 255.551 80.4802 254.059 91.3311C252.675 101.39 241.753 107.419 232.23 107.419H225.068L234.143 74.2451ZM417.631 90.5489C401.362 90.5489 389.625 104.545 386.809 118.533C384.102 131.975 391.811 149.837 413.032 149.837C428.116 149.837 435.701 143.195 435.701 143.195L432.23 134.626C432.23 134.626 425.889 139.787 417.053 139.787C408.217 139.787 402.674 132.813 403.901 121.698H439.982C442.561 115.153 443.973 90.5489 417.631 90.5489ZM489.551 91.3057C477.45 91.3057 470.316 103.802 470.316 103.802L473.474 92.2539H454.913L439.523 148.523H458.083C458.083 148.523 462.553 132.083 464.827 123.875C468.339 111.045 475.5 103.011 478.944 102.683C482.923 102.303 482.542 111.891 490.302 111.891C502.074 111.891 504.613 91.3057 489.553 91.3057H489.551ZM343.449 92.2539L340.892 101.604H364.418L327.433 148.523H379.661L382.218 139.173H355.679L392.663 92.2539H343.449ZM417.562 99.8399V99.8409C427.653 99.8409 425.357 113.165 425.357 113.165L405.141 113.118C405.141 113.118 408.494 99.8399 417.562 99.8399Z" fill="#2B01BE"/>
<path d="M150.92 148.653C84.3605 144.502 7.01199 110.17 9.7423 81.9141L0.55904 115.49C-2.22656 144.318 69.5249 178.546 141.177 184.274L150.92 148.653Z" fill="#2B01BE"/>
<path d="M175.11 102.36C169.21 123.929 144.639 129.062 122.016 129.697C103.419 130.218 82.6836 127.759 82.6836 127.759L92.4267 92.1372C92.4267 92.1372 113.162 94.5962 131.76 94.075C154.382 93.4408 178.953 88.3075 184.853 66.7383L175.11 102.36Z" fill="#2B01BE"/>
<path d="M33.9316 35.6217C100.492 39.7722 177.84 74.1045 175.11 102.36L184.293 68.7849C187.079 39.9562 115.327 5.72895 43.6746 0L33.9316 35.6217Z" fill="#0190FF"/>
</g>
<defs>
<clipPath id="clip0_29_1395">
<rect width="500" height="204.717" fill="white"/>
</clipPath>
</defs>
</svg>
