<svg width="500" height="54" viewBox="0 0 500 54" fill="none" xmlns="http://www.w3.org/2000/svg">
<g clip-path="url(#clip0_29_1393)">
<path fill-rule="evenodd" clip-rule="evenodd" d="M442.484 2.12418L456.863 38.8889L464.379 2.12418H475L463.725 53.9216H452.124L437.582 17.6471L430.065 53.9216H419.118L430.392 2.12418H442.484ZM492.484 0C494.608 0 496.405 0.816993 497.876 2.28758C499.346 3.75817 500.163 5.55556 500.163 7.67974C500.163 9.80392 499.346 11.6013 497.876 13.0719C496.405 14.5425 494.608 15.1961 492.647 15.1961C490.686 15.1961 488.726 14.5425 487.255 13.0719C485.784 11.6013 485.131 9.80392 485.131 7.67974C485.131 5.55556 485.948 3.59477 487.418 2.12418C488.725 0.653595 490.523 0 492.484 0ZM492.484 1.30719C490.686 1.30719 489.216 1.96078 488.072 3.26797C486.928 4.57516 486.275 5.88235 486.275 7.67974C486.275 9.47712 486.928 10.9477 488.072 12.0915C489.216 13.2353 490.85 13.8889 492.484 13.8889C494.118 13.8889 495.588 13.2353 496.895 12.0915C498.039 10.9477 498.693 9.31373 498.693 7.67974C498.693 6.04575 498.039 4.57516 496.895 3.26797C495.752 1.96078 494.281 1.30719 492.484 1.30719ZM491.503 3.43137C492.484 3.43137 493.137 3.43137 493.301 3.43137C493.954 3.43137 494.444 3.59477 494.935 3.92157C495.752 4.41177 496.078 5.06536 496.078 5.88235C496.078 6.69935 495.915 7.02614 495.425 7.35294C495.098 7.67974 494.608 7.84314 493.954 7.84314C494.444 7.84314 494.935 8.16993 495.098 8.33333C495.588 8.66013 495.915 9.31373 495.915 10.1307V10.9477C495.915 10.9477 495.915 10.9477 495.915 11.2745C495.915 11.2745 495.915 11.2745 495.915 11.6013C495.915 11.7647 493.791 11.7647 493.791 11.7647C493.791 11.4379 493.791 10.9477 493.791 10.6209C493.791 10.1307 493.791 9.80392 493.791 9.64052C493.791 9.31373 493.464 9.15033 493.137 8.98693C492.974 8.98693 492.647 8.98693 492.32 8.98693H491.83H491.34V11.9281H489.216V3.43137H491.503ZM491.83 4.90196H491.34V7.35294H492.157C492.647 7.35294 493.137 7.35294 493.301 7.02614C493.627 6.86275 493.791 6.53595 493.791 6.04575C493.791 5.55556 493.627 5.22876 493.137 5.06536C492.81 5.06536 492.484 4.90196 491.83 4.90196ZM389.052 44.4444C400.49 44.4444 406.373 32.6797 406.373 22.8758C406.373 13.0719 403.105 9.47712 394.444 9.47712C385.784 9.47712 376.961 21.2418 376.961 31.0458C376.961 40.8497 380.556 44.281 389.052 44.281M394.444 0C408.824 0 418.137 7.67974 418.137 22.0588C418.137 36.4379 407.68 53.9216 389.052 53.9216C370.425 53.9216 365.359 45.5882 365.359 31.2092C365.359 14.5425 376.471 0 394.444 0ZM328.268 25.6536H339.216C345.425 25.6536 351.307 23.2026 351.307 17.4837C351.307 11.7647 347.222 11.1111 342.647 11.1111H331.536L328.431 25.6536H328.268ZM321.569 2.12418H347.059C356.699 2.12418 363.072 5.71896 363.072 15.6863C363.072 25.6536 358.007 28.5948 350.817 29.5752C355.229 31.0458 356.373 34.8039 356.373 38.8889C356.373 42.9739 356.046 44.6078 356.046 47.8758C356.046 51.1438 356.046 52.451 356.863 53.9216H345.425C345.098 52.6144 344.935 51.634 344.935 50.4902C344.935 47.0588 345.588 43.4641 345.588 40.0327C345.588 34.9673 342.484 33.8235 337.909 33.8235H326.797L322.386 54.085H310.621L321.895 2.28758L321.569 2.12418ZM272.712 2.12418H312.418L310.458 11.7647H282.19L279.902 22.8758H306.046L304.085 31.6993H277.941L275.327 44.4444H304.085L302.124 54.085H261.928L272.876 2.28758L272.712 2.12418ZM216.993 2.12418H229.085L243.464 38.8889L250.98 2.12418H261.601L250.327 53.9216H238.726L224.183 17.6471L216.667 53.9216H205.719L216.993 2.12418ZM169.281 2.12418H208.987L207.026 11.7647H178.758L176.471 22.8758H202.614L200.654 31.6993H174.51L171.732 44.4444H200.49L198.529 54.085H158.333L169.281 2.28758V2.12418ZM141.013 47.3856C137.582 51.9608 132.68 53.9216 127.941 53.9216C113.399 53.9216 104.739 45.5882 104.739 31.2092C104.739 16.8301 115.359 0 133.007 0C150.654 0 155.229 5.55555 155.229 18.3007H143.791C143.464 12.0915 139.542 9.64052 133.17 9.64052C121.405 9.64052 116.013 21.4052 116.013 31.2092C116.013 41.0131 119.444 44.4444 127.778 44.4444C136.111 44.4444 140.196 39.8693 142.32 33.3333H130.229L132.026 24.8366H154.248L148.203 52.6144H141.013V47.3856ZM64.8693 2.12418H104.575L102.614 11.7647H74.3464L72.0588 22.8758H98.2026L96.2418 31.6993H70.098L67.4837 44.4444H96.2418L94.2811 54.085H54.085L64.8693 2.12418ZM17.9739 25.6536H28.9216C35.1307 25.6536 41.0131 23.2026 41.0131 17.4837C41.0131 11.7647 36.9281 11.1111 32.3529 11.1111H21.2418L18.1373 25.6536H17.9739ZM11.2745 2.12418H36.9281C46.5686 2.12418 52.9412 5.71896 52.9412 15.6863C52.9412 25.6536 47.8758 28.5948 40.6863 29.5752C45.098 31.0458 46.2418 34.8039 46.2418 38.8889C46.2418 42.9739 45.915 44.6078 45.915 47.8758C45.915 51.1438 45.915 52.451 46.732 53.9216H35.2941C34.9673 52.6144 34.8039 51.634 34.8039 50.4902C34.8039 47.0588 35.4575 43.4641 35.4575 40.0327C35.4575 34.9673 32.3529 33.8235 27.7778 33.8235H16.6667L12.2549 54.085H0L11.2745 2.12418Z" fill="#015CAB"/>
</g>
<defs>
<clipPath id="clip0_29_1393">
<rect width="500" height="53.9216" fill="white"/>
</clipPath>
</defs>
</svg>
