<svg width="500" height="364" viewBox="0 0 500 364" fill="none" xmlns="http://www.w3.org/2000/svg">
<g clip-path="url(#clip0_29_1394)">
<path d="M483.195 162.84C492.335 162.84 499.745 155.444 499.745 146.321C499.745 137.198 492.335 129.803 483.195 129.803C474.054 129.803 466.645 137.198 466.645 146.321C466.645 155.444 474.054 162.84 483.195 162.84Z" fill="#ED1B2F"/>
<path d="M467.311 186.239C464.679 189.061 461.033 190.741 457.165 190.931C453.328 191.122 449.524 189.79 446.638 187.253C443.721 184.685 441.914 181.103 441.629 177.234C441.312 173.24 442.612 169.245 445.275 166.233C447.938 163.221 451.711 161.382 455.738 161.191C459.765 161.001 463.696 162.46 466.613 165.186C469.562 167.945 471.274 171.781 471.337 175.808C471.401 179.676 469.974 183.417 467.311 186.239Z" fill="#E31E36"/>
<path d="M436.684 207.736C434.306 210.367 430.977 211.952 427.426 212.111C423.875 212.269 420.387 211.033 417.787 208.655C415.156 206.245 413.571 202.916 413.412 199.365C413.253 195.846 414.49 192.358 416.868 189.727C419.246 187.127 422.607 185.541 426.126 185.383C429.677 185.193 433.133 186.461 435.765 188.839C438.396 191.217 439.981 194.546 440.14 198.097C440.298 201.648 439.062 205.104 436.684 207.736Z" fill="#DA1F3D"/>
<path d="M395.021 223.366C401.675 223.366 407.069 217.972 407.069 211.318C407.069 204.664 401.675 199.27 395.021 199.27C388.367 199.27 382.973 204.664 382.973 211.318C382.973 217.972 388.367 223.366 395.021 223.366Z" fill="#D12244"/>
<path d="M371.37 220.544C369.436 222.605 366.773 223.842 363.951 224C361.097 224.127 358.339 223.144 356.215 221.274C354.09 219.371 352.79 216.74 352.6 213.918C352.442 211.033 353.456 208.211 355.39 206.055C357.324 203.931 360.051 202.631 362.936 202.504C365.821 202.377 368.643 203.392 370.768 205.326C372.892 207.291 374.16 210.018 374.287 212.903C374.35 215.725 373.304 218.483 371.37 220.544Z" fill="#C9234A"/>
<path d="M344.577 208.021C344.133 209.225 343.468 210.335 342.612 211.286C341.755 212.237 340.709 212.998 339.568 213.569C338.395 214.108 337.158 214.425 335.858 214.488C330.468 214.742 325.903 210.589 325.649 205.199C325.49 202.567 326.378 199.999 328.122 198.065C329.866 196.131 332.307 194.958 334.939 194.831C337.539 194.704 340.075 195.624 342.009 197.399C343.943 199.175 345.053 201.648 345.148 204.248C345.211 205.516 345.021 206.816 344.577 208.021Z" fill="#C02550"/>
<path d="M312.904 198.034C317.754 198.034 321.686 194.102 321.686 189.251C321.686 184.401 317.754 180.469 312.904 180.469C308.053 180.469 304.121 184.401 304.121 189.251C304.121 194.102 308.053 198.034 312.904 198.034Z" fill="#B72755"/>
<path d="M302.79 173.335C302.442 174.318 301.903 175.206 301.205 175.966C300.508 176.727 299.683 177.362 298.732 177.805C297.781 178.249 296.766 178.503 295.752 178.566C294.705 178.598 293.659 178.44 292.676 178.091C291.725 177.742 290.806 177.203 290.045 176.505C289.284 175.808 288.65 174.984 288.206 174.032C287.762 173.081 287.508 172.067 287.477 171.02C287.413 170.006 287.572 168.96 287.92 167.977C288.269 166.994 288.808 166.106 289.506 165.345C290.203 164.584 291.059 163.95 291.979 163.506C292.93 163.062 293.945 162.809 294.991 162.745C296.005 162.713 297.052 162.872 298.035 163.221C299.017 163.57 299.905 164.109 300.666 164.806C301.459 165.504 302.061 166.36 302.505 167.279C302.949 168.23 303.203 169.245 303.266 170.291C303.298 171.306 303.139 172.352 302.79 173.335Z" fill="#AE275F"/>
<path d="M286.779 155.738C285.511 157.101 283.767 157.894 281.928 157.989C280.089 158.084 278.282 157.45 276.887 156.214C275.524 155.009 274.636 153.297 274.509 151.458C274.414 149.556 275.08 147.717 276.348 146.322C277.616 144.926 279.392 144.102 281.262 144.007C283.165 143.912 285.004 144.578 286.399 145.846C287.794 147.114 288.618 148.89 288.713 150.76C288.745 152.631 288.047 154.406 286.779 155.738Z" fill="#A52868"/>
<path d="M276.886 133.671C276.6 134.464 276.188 135.193 275.617 135.827C275.047 136.461 274.349 136.937 273.588 137.317C272.859 137.666 272.035 137.856 271.179 137.919C268.579 138.046 266.201 136.588 265.091 134.242C263.981 131.927 264.394 129.137 266.137 127.203C267.881 125.301 270.576 124.635 273.017 125.491C275.459 126.379 277.139 128.63 277.266 131.23C277.298 132.054 277.171 132.878 276.886 133.671Z" fill="#9D2872"/>
<path d="M268.738 112.174C268.738 115.567 265.98 118.293 262.619 118.293C259.227 118.262 256.5 115.535 256.5 112.142C256.5 108.782 259.227 106.023 262.619 106.055C266.012 106.055 268.738 108.782 268.738 112.174Z" fill="#94287B"/>
<path d="M18.6108 133.702C28.8721 133.702 37.1904 125.384 37.1904 115.123C37.1904 104.861 28.8721 96.543 18.6108 96.543C8.34961 96.543 0.03125 104.861 0.03125 115.123C0.03125 125.384 8.34961 133.702 18.6108 133.702Z" fill="#009BDF"/>
<path d="M42.0406 94.4827C51.1812 94.4827 58.5911 87.087 58.5911 77.964C58.5911 68.841 51.1812 61.4453 42.0406 61.4453C32.9001 61.4453 25.4902 68.841 25.4902 77.964C25.4902 87.087 32.9001 94.4827 42.0406 94.4827Z" fill="#008FD5"/>
<path d="M68.7372 62.6823C76.9497 62.6823 83.6072 56.0106 83.6072 47.7806C83.6072 39.5506 76.9497 32.8789 68.7372 32.8789C60.5247 32.8789 53.8672 39.5506 53.8672 47.7806C53.8672 56.0106 60.5247 62.6823 68.7372 62.6823Z" fill="#0083CA"/>
<path d="M98.415 38.9657C105.804 38.9657 111.795 32.9611 111.795 25.5541C111.795 18.1471 105.804 12.1426 98.415 12.1426C91.0255 12.1426 85.0352 18.1471 85.0352 25.5541C85.0352 32.9611 91.0255 38.9657 98.415 38.9657Z" fill="#0077C0"/>
<path d="M130.214 25.0144C136.868 25.0144 142.262 19.6202 142.262 12.9662C142.262 6.31213 136.868 0.917969 130.214 0.917969C123.56 0.917969 118.166 6.31213 118.166 12.9662C118.166 19.6202 123.56 25.0144 130.214 25.0144Z" fill="#006DB7"/>
<path d="M161.763 21.7492C167.752 21.7492 172.607 16.8945 172.607 10.9059C172.607 4.91724 167.752 0.0625 161.763 0.0625C155.775 0.0625 150.92 4.91724 150.92 10.9059C150.92 16.8945 155.775 21.7492 161.763 21.7492Z" fill="#2062AF"/>
<path d="M189.822 29.3589C195.215 29.3589 199.587 24.9868 199.587 19.5935C199.587 14.2002 195.215 9.82812 189.822 9.82812C184.429 9.82812 180.057 14.2002 180.057 19.5935C180.057 24.9868 184.429 29.3589 189.822 29.3589Z" fill="#4156A6"/>
<path d="M212.333 43.8482C217.184 43.8482 221.116 39.9161 221.116 35.0657C221.116 30.2153 217.184 26.2832 212.333 26.2832C207.483 26.2832 203.551 30.2153 203.551 35.0657C203.551 39.9161 207.483 43.8482 212.333 43.8482Z" fill="#55489D"/>
<path d="M229.866 61.5395C234.244 61.5395 237.792 58.0049 237.792 53.6447C237.792 49.2846 234.244 45.75 229.866 45.75C225.488 45.75 221.939 49.2846 221.939 53.6447C221.939 58.0049 225.488 61.5395 229.866 61.5395Z" fill="#643695"/>
<path d="M236.905 70.7668C237.222 69.879 237.73 69.0864 238.332 68.3889C238.966 67.6913 239.727 67.1206 240.583 66.7402C241.439 66.328 242.359 66.106 243.278 66.0743C246.163 65.9475 248.827 67.5645 250.063 70.1644C251.268 72.7643 250.792 75.8397 248.858 77.964C246.924 80.0883 243.912 80.8492 241.185 79.8663C238.49 78.9152 236.652 76.4104 236.493 73.5252C236.461 72.574 236.588 71.6546 236.905 70.7668Z" fill="#6F2C91"/>
<path d="M254.375 99.1744C257.912 99.1744 260.78 96.3069 260.78 92.7698C260.78 89.2327 257.912 86.3652 254.375 86.3652C250.838 86.3652 247.971 89.2327 247.971 92.7698C247.971 96.3069 250.838 99.1744 254.375 99.1744Z" fill="#822A85"/>
<path fill-rule="evenodd" clip-rule="evenodd" d="M85.4144 312.681C83.8925 315.345 81.8951 317.881 79.4855 319.783C76.5685 321.908 73.5248 323.303 66.5812 325.712L81.1342 361.128H56.8475L45.0847 329.105H29.5172L22.2248 361.128H0.0625L20.2908 271.844H59.6376C61.5083 271.844 63.2838 271.844 65.1862 271.971C67.7226 272.193 73.5248 272.732 79.3269 276.759C83.2584 279.517 89.2191 285.478 89.2191 297.748C89.2191 300.443 88.8387 306.625 85.4144 312.681ZM65.1862 292.072C62.9033 289.156 60.2401 288.173 53.9306 288.173H38.8704L33.2901 312.554H52.0283C52.5038 312.554 54.8184 312.459 56.8158 312.047C60.7473 311.159 63.2838 309.13 65.1544 305.738C66.93 302.409 67.0568 299.777 67.0568 298.255C67.0885 297.272 67.0885 294.482 65.1862 292.072ZM206.34 316.74C204.438 314.076 203.931 313.315 202.662 312.174C199.523 309.257 194.577 308.02 190.392 308.02C184.971 308.02 182.085 310.272 182.085 313.062C182.085 316.613 186.619 317.754 192.326 319.403C195.085 320.164 197.748 320.893 200.411 321.908C206.974 324.317 213.442 327.488 215.725 334.209C216.581 336.587 216.581 339.251 216.581 340.012C216.581 347.748 211.54 353.043 209.733 354.691C205.579 358.591 197.463 363.157 184.21 363.157C179.517 363.157 166.137 362.903 156.53 351.774C155.135 350.157 154.374 349.238 152.472 345.845L168.801 337.761C169.942 339.758 170.576 340.804 171.179 341.565C173.113 343.848 177.647 347.494 185.636 347.494C186.165 347.494 186.693 347.473 187.222 347.431C187.75 347.367 188.279 347.293 188.807 347.209C189.335 347.124 189.864 347.029 190.392 346.923C190.921 346.797 191.439 346.649 191.946 346.48C193.468 345.972 194.609 345.338 195.497 344.102C195.603 343.911 195.708 343.721 195.814 343.531C195.898 343.341 195.972 343.14 196.036 342.929C196.099 342.738 196.152 342.537 196.194 342.326C196.237 342.115 196.258 341.903 196.258 341.692C196.258 341.481 196.237 341.28 196.194 341.09C196.152 340.878 196.099 340.677 196.036 340.487C195.972 340.297 195.898 340.107 195.814 339.916C195.708 339.747 195.603 339.578 195.497 339.409C193.943 337.253 191.217 336.492 186.651 335.097C173.747 331.039 168.166 329.137 164.267 322.827C163.537 321.559 161.73 318.261 161.73 314.235C161.73 312.332 162.111 308.781 164.647 304.882C168.198 299.301 176.03 293.594 190.709 293.594C205.738 293.594 213.22 299.175 217.532 304.089C218.642 305.484 219.53 306.625 221.179 309.542L206.34 316.74ZM315.313 361.128H294.609L310.557 292.041L277.171 361.128H258.465L255.928 291.026L240.646 361.128H219.752L239.758 271.812H272.732L274.254 330.373L301.933 271.812H335.446L315.313 361.128ZM458.56 361.128H439.061L439.948 356.594C438.934 357.323 437.951 357.989 436.936 358.75C435.858 359.426 434.738 360.029 433.576 360.557C432.434 361.085 431.25 361.529 430.024 361.889C428.799 362.248 427.551 362.512 426.283 362.681C425.036 362.85 423.778 362.924 422.51 362.903C415.028 362.903 410.747 359.891 408.465 357.989C404.311 354.533 399.238 348.223 399.238 335.446C399.238 331.134 399.999 320.259 406.594 309.891C415.44 295.972 427.71 293.816 433.893 293.816C436.144 293.816 442.612 294.07 448.033 298.128C450.189 299.745 451.711 301.933 452.219 302.662L459.162 271.844H478.788L458.56 361.128ZM446.765 316.613C445.148 311.793 440.963 308.908 436.017 309.13C435.404 309.172 434.801 309.257 434.21 309.384C433.597 309.49 433.005 309.648 432.434 309.859C431.842 310.05 431.272 310.293 430.722 310.589C430.194 310.863 429.676 311.18 429.168 311.54C421.971 316.359 418.801 326.854 418.801 335.066C418.801 339.504 419.815 342.041 420.957 343.785C422.986 346.987 425.903 348.128 429.581 348.128C432.719 348.128 438.014 347.082 442.326 340.677C445.624 335.731 447.526 327.741 447.526 322.034C447.526 320.005 447.399 318.515 446.765 316.613ZM105.896 332.022C105.77 333.797 104.723 342.421 111.699 346.194C114.869 347.97 117.659 347.97 119.054 347.97C123.715 347.97 128.281 346.099 131.324 342.897C132.561 341.565 133.512 339.948 134.527 338.3L149.714 345.845C148.699 347.473 147.632 349.027 146.511 350.506C142.58 355.579 134.622 363.03 118.579 363.03C116.296 363.03 110.335 362.935 104.533 360.525C92.897 355.706 86.8412 344.324 86.8412 331.673C86.8412 330.119 86.8412 326.854 87.8558 322.827C90.1386 313.315 96.1944 304.057 104.406 298.889C112.111 294.102 120.608 293.721 123.905 293.721C127.932 293.721 139.948 294.197 147.78 303.962C150.031 306.847 151.679 309.891 152.567 313.315C153.835 317.596 153.835 322.034 153.835 323.429C153.835 326.346 153.582 329.263 153.328 332.022H105.896ZM108.465 319.752H136.366C136.366 319.371 136.366 316.74 135.763 314.837C134.749 312.174 131.356 307.355 124 307.355C118.832 307.355 115.915 309.764 114.394 311.033C112.111 313.062 110.842 314.584 108.465 319.752ZM347.431 332.022C347.304 333.797 346.29 342.421 353.265 346.194C356.404 347.97 359.194 347.97 360.589 347.97C365.25 347.97 369.815 346.099 372.827 342.897C374.064 341.565 375.015 339.948 376.03 338.3L391.185 345.845C390.17 347.462 389.124 349.016 388.014 350.506C384.051 355.579 376.093 363.03 360.05 363.03C357.767 363.03 351.806 362.935 346.004 360.525C334.368 355.706 328.312 344.324 328.312 331.673C328.312 330.119 328.312 326.854 329.327 322.827C331.61 313.315 337.666 304.057 345.877 298.889C353.582 294.102 362.079 293.721 365.376 293.721C369.403 293.721 381.419 294.197 389.251 303.962C389.8 304.639 390.318 305.347 390.804 306.086C391.291 306.826 391.734 307.587 392.136 308.369C392.538 309.172 392.897 309.986 393.214 310.811C393.552 311.635 393.827 312.47 394.038 313.315C395.307 317.596 395.307 322.034 395.307 323.429C395.307 326.346 395.053 329.263 394.799 332.022H347.431ZM349.936 319.752H377.837C377.837 319.371 377.837 316.74 377.234 314.837C376.22 312.174 372.796 307.355 365.471 307.355C360.272 307.355 357.387 309.764 355.865 311.033C353.582 313.062 352.314 314.584 349.936 319.752Z" fill="#353535"/>
</g>
<defs>
<clipPath id="clip0_29_1394">
<rect width="500" height="363.348" fill="white"/>
</clipPath>
</defs>
</svg>
