<svg width="500" height="164" viewBox="0 0 500 164" fill="none" xmlns="http://www.w3.org/2000/svg">
<g clip-path="url(#clip0_29_1375)">
<path fill-rule="evenodd" clip-rule="evenodd" d="M51.7024 25.8827V38.43H31.8726C27.3329 38.43 12.5158 40.227 12.5158 63.5246V119.325H0V63.5246C0 35.7503 17.1816 25.8827 31.8726 25.8827H51.7024ZM121.816 68.8525C121.847 72.6986 119.578 85.0567 106.337 85.0567H57.5977C60.1198 95.0504 68.4426 108.323 86.3808 108.323C104.603 108.323 113.209 100.126 114.754 98.4868L123.865 107.125C120.807 110.34 109.142 120.87 86.3808 120.87C57.6293 120.87 44.1992 95.744 44.1992 78.7831C44.1992 54.7919 61.7591 36.6961 85.0567 36.6961C109.521 36.6961 121.816 57.314 121.816 68.8525ZM57.2509 72.5095H106.337C107.188 72.5095 109.269 72.5095 109.3 68.884C109.3 63.4615 101.86 49.2434 85.0567 49.2434C72.5725 49.2434 59.9622 57.1879 57.2509 72.5095ZM125.473 25.8827C144.136 25.8827 153.247 42.9067 160.277 61.3178L175.158 102.585C176.135 106.211 178.972 112.232 181.778 112.232C184.741 112.232 187.579 105.832 188.241 103.153L201.135 59.6469H214.376L200.315 106.526C198.613 113.146 192.718 124.779 181.778 124.779C170.87 124.779 164.975 113.146 163.209 106.274L148.55 65.7314C141.047 46.1223 134.584 38.43 125.473 38.43H118.443V25.8827H125.473ZM207.156 25.8827C228.216 25.8827 239.25 34.8045 246.406 57.7869L259.994 102.9C260.845 106.211 263.682 112.232 266.52 112.232C269.357 112.232 272.163 106.211 272.982 103.121L286.57 57.8499C293.789 34.8045 304.792 25.8827 325.883 25.8827H360.593V5.32787L373.108 0V25.8827H405.202C426.293 25.8827 437.327 34.8045 444.483 57.7869L457.156 93.6003L486.16 25H499.748L454.76 131.337C447.226 149.149 438.619 163.903 409.521 163.903H395.586V151.324H409.521C430.422 151.324 436.097 143.38 443.253 126.45L449.905 110.687L432.629 61.7591C426.955 43.6003 420.807 38.43 405.202 38.43H373.108V81.8411C373.108 98.203 377.806 108.323 401.229 108.323H409.678V120.87H401.229C373.897 120.87 360.593 108.134 360.593 81.8411V38.43H325.883C310.277 38.43 304.13 43.6003 298.55 61.5385L285.025 106.526C283.323 113.146 277.427 124.779 266.52 124.779C255.58 124.779 249.685 113.146 247.919 106.274L234.458 61.4754C228.878 43.6003 222.73 38.43 207.156 38.43H182.976V25.8827H207.156ZM322.352 59.0479H334.868V119.357H322.352V59.0479Z" fill="black"/>
</g>
<defs>
<clipPath id="clip0_29_1375">
<rect width="500" height="163.934" fill="white"/>
</clipPath>
</defs>
</svg>
