<svg width="500" height="82" viewBox="0 0 500 82" fill="none" xmlns="http://www.w3.org/2000/svg">
<g clip-path="url(#clip0_29_1376)">
<mask id="mask0_29_1376" style="mask-type:luminance" maskUnits="userSpaceOnUse" x="-643" y="-172" width="1317" height="1696">
<path d="M-642.861 -171.319H673.382V1523.86H-642.861V-171.319Z" fill="white"/>
</mask>
<g mask="url(#mask0_29_1376)">
<path d="M93.4673 67.1767C93.1486 67.1767 86.9982 67.3041 85.5323 67.1767C82.8873 67.081 80.7522 66.5393 78.5215 66.0294C74.5062 64.9778 72.6897 63.0657 70.0447 62.1097C68.1327 61.3768 64.4361 60.1021 55.8637 60.3251H37.8267C29.2544 60.1021 25.5259 61.3768 23.5183 62.1097C20.9689 63.0657 19.0887 64.9778 15.169 66.0294C12.9383 66.5393 10.8032 67.081 8.15816 67.1767C6.66039 67.3041 0.541847 67.1767 0.223173 67.1767V60.1021C0.541847 60.1021 6.66039 60.1021 8.15816 60.0065C10.8032 59.879 12.9383 59.5603 15.169 58.923C19.1843 57.9988 20.9689 55.8637 23.5183 54.9077C25.5259 54.1747 29.2544 52.9 37.8267 53.1231H55.8637C64.4361 52.9 68.1327 54.1747 70.0447 54.9077C72.6897 55.8637 74.5062 57.9988 78.5215 58.923C80.7522 59.5603 82.8873 59.7834 85.5323 60.0065C86.9982 60.1021 93.1486 60.1021 93.4673 60.1021V67.1767ZM46.8452 66.4437L64.7547 66.5393C68.9931 66.9536 73.2315 67.5909 76.6094 70.0447C81.3895 73.0084 87.4443 73.4227 93.4673 73.3271V80.306C86.9026 80.4016 80.1148 79.8599 75.1435 75.9721C71.5425 74.06 67.3041 73.5183 62.9383 73.3271H46.8452H30.6247C26.3863 73.5183 22.148 74.06 18.4513 75.9721C13.5756 79.8599 6.66039 80.4016 0.223173 80.306V73.3271C6.15052 73.4227 12.3009 73.0084 17.0492 70.0447C20.459 67.5909 24.6974 66.9536 28.9357 66.5393L46.8452 66.4437ZM47.0364 0.0957031C52.2308 0.414377 57.234 0.956124 61.2493 3.9198C65.2646 6.34172 70.1403 6.97907 75.1435 7.07467H93.4673V14.0536H72.5941C68.6744 13.735 64.9778 13.002 61.791 11.2174C57.5527 8.1263 52.2308 7.07467 46.8452 7.07467C41.4278 7.07467 36.1378 8.1263 31.8994 11.2174C28.7127 13.002 25.016 13.735 21.0963 14.0536H0.223173V7.07467H18.4513C23.5183 6.97907 28.2984 6.34172 32.4411 3.9198C36.4564 0.956124 41.4278 0.414377 46.6222 0.0957031H47.0364ZM46.7178 13.2251C47.9287 13.2251 49.1291 13.2251 50.3188 13.2251C54.8758 13.5438 59.4329 14.0536 63.1614 16.2844C67.2722 19.4711 72.4666 20.1085 77.8841 20.2041L93.3398 20.2997V27.183H75.749C72.0524 26.9599 68.547 26.3545 65.2646 24.8567C62.5877 22.8809 59.5922 21.6168 56.278 21.0645C53.1868 20.4271 50.0001 20.4271 46.7178 20.4271C43.531 20.4271 40.3761 20.4271 37.285 21.0645C33.9708 21.6168 30.9752 22.8809 28.2984 24.8567C24.9842 26.3545 21.5106 26.9599 17.7821 27.183H0.0957031V20.2997L15.6789 20.2041C21.0645 20.1085 26.2589 19.4711 30.4016 16.2844C34.0983 14.0536 38.5597 13.5438 43.1167 13.2251C44.3914 13.2251 45.5705 13.2251 46.7178 13.2251ZM46.7178 26.4501C53.7286 26.4501 60.835 26.227 66.4437 29.6049C70.5546 32.5686 75.6534 33.206 80.8478 33.429H93.3398V40.408C88.5916 40.408 84.0345 40.6311 79.35 40.408C74.6018 40.0893 70.1403 39.2608 66.4437 36.4883C62.524 34.162 57.7439 33.7477 52.9638 33.5246H46.7178H40.5673C35.8191 33.7477 31.039 34.162 27.1193 36.4883C23.4227 39.2608 18.9612 40.0893 14.1811 40.408C9.52846 40.6311 4.97142 40.408 0.0957031 40.408V33.429H12.5877C17.9096 33.206 22.9765 32.5686 27.1193 29.6049C32.728 26.227 39.8344 26.4501 46.7178 26.4501ZM57.0109 39.8981C61.3449 40.2168 65.4877 40.6311 69.0887 42.6387C75.6534 47.387 84.8631 46.5584 93.3398 46.7496V53.7605C84.7675 53.7605 75.3347 54.4934 68.77 49.5221C65.0734 47.5144 60.7076 47.0683 56.278 46.8771H37.285C32.8554 47.0683 28.4896 47.5144 24.793 49.5221C18.2283 54.4934 8.79551 53.7605 0.0957031 53.7605V46.7496C8.66804 46.5584 17.9096 47.387 24.4743 42.6387C27.9797 40.6311 32.2181 40.2168 36.552 39.8981H57.0109Z" fill="#3F8EDD"/>
<path fill-rule="evenodd" clip-rule="evenodd" d="M166.794 19.0566C164.691 15.7742 159.815 10.4842 151.88 10.3568C144.455 10.3568 137.668 17.0171 140.536 26.4498C142.543 32.7914 156.947 38.6232 162.779 43.1802C165.329 45.1879 167.878 47.1955 169.153 49.1076C172.531 54.1745 172.945 58.1898 171.989 64.0215C170.937 71.3192 162.237 81.5805 149.745 81.1662C137.126 80.7201 129.924 73.1037 129.924 73.1037L130.243 59.2414C130.243 59.2414 133.015 68.2599 139.261 73.2312C143.595 76.7048 148.789 77.3421 152.805 76.5136C157.043 75.6531 159.274 73.6455 160.995 71.7335C164.373 67.8138 165.233 59.4645 160.676 54.9074C155.991 50.3504 151.116 48.9801 144.137 44.5505C137.445 40.3122 133.015 36.0738 131.931 28.7761C130.88 21.5741 133.844 16.5072 135.118 14.8182C136.393 13.1292 141.173 6.66015 152.613 6.43708C164.054 6.24587 169.153 12.2688 169.153 12.2688C169.153 12.2688 169.153 19.0566 169.153 20.6181C169.025 22.3389 168.93 24.1235 168.93 24.1235C168.93 24.1235 168.292 21.2554 166.794 19.0566ZM494.264 19.0566C492.065 15.7742 487.19 10.4842 479.223 10.3568C471.925 10.3568 465.042 17.0171 468.005 26.4498C470.013 32.7914 484.417 38.6232 490.249 43.1802C492.798 45.1879 495.22 47.1955 496.495 49.1076C500 54.1745 500.319 58.1898 499.459 64.0215C498.311 71.3192 489.707 81.5805 477.12 81.1662C464.596 80.7201 457.394 73.1037 457.394 73.1037L457.712 59.2414C457.712 59.2414 460.357 68.2599 466.603 73.2312C471.065 76.7048 476.259 77.3421 480.274 76.5136C484.417 75.6531 486.743 73.6455 488.464 71.7335C491.842 67.8138 492.703 59.4645 488.018 54.9074C483.461 50.3504 478.585 48.9801 471.606 44.5505C464.819 40.3122 460.485 36.0738 459.401 28.7761C458.35 21.5741 461.313 16.5072 462.492 14.8182C463.863 13.1292 468.643 6.66015 480.083 6.43708C491.524 6.24587 496.622 12.2688 496.622 12.2688C496.622 12.2688 496.622 19.0566 496.495 20.6181C496.495 22.3389 496.399 24.1235 496.399 24.1235C496.399 24.1235 495.666 21.2554 494.264 19.0566ZM191.396 15.8698C191.396 15.8698 191.173 14.0853 191.173 12.5875C191.077 11.1216 191.3 7.71177 191.3 7.2975H241.301C241.301 7.2975 241.428 11.7271 241.428 13.1292C241.428 14.3721 241.109 15.8698 241.109 15.8698C241.109 15.8698 239.388 13.0018 237.381 12.2688C236.425 12.0457 231.677 11.8545 227.757 11.7271C225.303 11.7271 223.2 11.6315 222.881 11.6315C222.021 11.6315 221.288 11.8545 221.288 12.6831C221.288 12.6831 221.065 74.0598 221.065 74.6971C221.065 75.3345 221.702 79.4772 224.156 80.5289H208.35C208.35 80.5289 211.409 79.1586 211.536 74.6971C211.536 70.3631 211.409 13.0018 211.409 12.6831C211.409 12.3644 211.313 11.8545 210.485 11.7271C209.21 11.6315 196.814 11.8545 195.411 12.2688C193.499 12.6831 191.492 15.4556 191.396 15.8698ZM299.905 12.3644C293.659 11.7271 278.84 11.8545 278.076 11.9501C277.119 11.9501 276.928 12.9062 276.801 13.3204C276.801 13.5435 276.928 36.1694 276.928 36.9342C277.024 37.7628 277.566 38.0814 277.884 38.0814C278.203 38.0814 291.97 38.2089 296.75 37.7628C298.12 37.6672 299.49 35.6595 299.49 35.6595C300.128 40.0891 299.586 45.1879 299.586 45.1879C298.439 44.0088 297.483 42.7341 296.304 42.7341C289.006 42.3198 279.573 42.6385 277.98 42.8615C277.024 42.9572 276.928 43.8176 276.928 44.8692C277.119 52.2624 277.119 67.0808 277.119 74.1872C277.119 75.1114 278.394 75.1114 278.394 75.1114C285.405 76.5136 296.845 75.9718 301.498 75.4301C307.234 74.7927 310.198 69.4071 310.198 69.4071C310.198 75.5575 307.967 80.4014 307.967 80.4014L263.767 80.5289C263.767 80.5289 266.954 78.2025 267.177 76.0674C267.591 72.1477 267.591 44.7417 267.591 40.6308C267.591 36.4881 267.496 14.2765 267.496 13.8622C267.496 13.5435 267.591 12.2688 266.635 10.8029C265.583 8.98647 263.576 7.2975 263.576 7.2975H304.271C304.589 7.2975 305.322 7.52057 305.418 8.57219C305.736 10.9941 305.322 15.5512 305.322 15.5512C305.322 15.5512 303.091 12.6831 299.905 12.3644Z" fill="#2C2E35"/>
<path fill-rule="evenodd" clip-rule="evenodd" d="M333.397 80.5292C333.397 80.5292 336.265 78.6172 336.361 76.5139C336.361 74.5063 336.042 12.0461 336.042 11.4406C336.042 10.6758 336.169 8.98683 332.568 7.39345C332.568 7.39345 355.449 7.29785 356.628 7.29785C357.775 7.29785 378.553 8.0308 378.776 25.2711C378.872 31.4215 375.175 39.9938 364.245 43.5949C364.245 43.5949 363.703 43.8179 363.703 44.1366C363.703 44.3278 363.83 44.6465 364.022 44.7421C364.149 44.8695 366.475 46.6541 369.343 50.3507C372.307 54.0792 386.169 75.4304 386.711 76.1952C387.572 77.1513 388.623 78.5216 392.957 80.5292C392.957 80.5292 390.312 80.9435 382.568 80.6248C378.776 80.4017 376.96 77.9798 375.685 76.1952C373.454 73.0085 361.377 53.2188 358.317 49.2991C356.31 46.7816 353.76 46.7816 352.995 46.7816C352.581 46.6541 347.514 46.6541 346.749 46.6541C346.016 46.5585 345.379 47.1003 345.379 48.1519C345.379 48.9805 345.475 75.6535 345.602 76.5139C345.602 77.1513 346.749 79.7963 348.566 80.5292H333.397ZM345.156 40.7268C345.156 41.1729 345.379 42.4158 346.016 42.5432C346.526 42.5432 353.41 42.8619 356.819 42.2246C360.739 41.3641 370.044 36.9346 369.535 24.7612C369.312 19.9811 367.527 12.3648 356.692 11.1219C351.944 10.4846 347.578 10.6758 346.431 10.8033C345.252 10.8033 345.06 11.6318 345.06 12.4922C345.06 13.4483 345.156 40.7268 345.156 40.7268ZM412.141 80.5292C413.416 79.8919 414.786 77.6611 414.786 76.8326C414.786 75.9722 414.978 14.3724 414.786 11.4088C414.691 8.47695 412.333 7.29785 412.333 7.29785H426.322C426.322 7.29785 423.9 8.57255 423.805 11.5362C423.677 14.4999 423.677 76.3864 423.805 77.0238C423.9 77.9798 425.271 79.8919 426.545 80.5292H412.141Z" fill="#2C2E35"/>
</g>
</g>
<defs>
<clipPath id="clip0_29_1376">
<rect width="500" height="81.2619" fill="white"/>
</clipPath>
</defs>
</svg>
