<svg width="500" height="125" viewBox="0 0 500 125" fill="none" xmlns="http://www.w3.org/2000/svg">
<path d="M115.83 3.53809C112.671 3.53803 98.4968 3.70161 98.4968 3.70161V27.576H38.8109C38.8109 27.576 24.7414 27.576 18.8611 37.5509C14.7926 43.7385 15.3225 49.632 15.4271 50.4692C15.3225 51.3195 14.9496 57.2194 19.0246 63.3875C24.918 73.369 38.8109 73.3624 38.8109 73.3624H70.2073C75.3092 73.3624 76.0745 77.2543 76.0942 78.9222C76.0745 80.5836 75.2896 84.3185 70.2073 84.3185C65.0203 84.3185 10.5214 84.3185 10.5214 84.3185H3.98049C3.98044 87.5235 3.98049 101.815 3.98049 101.815H69.5532C69.5532 101.815 83.4985 101.868 89.3395 91.8405C93.4014 85.6855 93.0155 79.7529 92.937 78.9222C92.9894 78.0457 93.4211 71.9823 89.3395 65.8404C83.4854 55.8197 69.5532 55.8655 69.5532 55.8655L38.1568 56.029C33.0811 56.042 32.3223 52.1306 32.27 50.4692C32.3092 48.7947 33.0484 45.0926 38.1568 45.0729C43.3569 45.0926 97.8427 45.0729 97.8427 45.0729H98.4968V78.5952C98.4968 78.5952 98.4576 92.6974 108.472 98.545C114.385 102.43 120.062 102.201 121.227 102.143H139.868V84.8091H121.063C119.29 84.6847 115.876 83.6971 115.83 78.9222C115.876 76.175 115.811 59.9143 115.83 45.0729L139.705 44.9094C139.705 41.7305 139.541 27.576 139.541 27.576H115.83C115.83 22.7749 115.83 19.5633 115.83 19.5633V3.53809ZM273.303 4.19218L273.466 46.0541V104.432H290.8V83.1738L300.611 70.7461L319.907 104.759H339.857L338.222 101.979C338.222 101.979 320.79 71.1451 313.039 57.3372L337.568 27.903H315.001L290.8 56.8466V4.3557C290.8 4.3557 276.475 4.19218 273.303 4.19218ZM485.065 11.5507C479.231 11.5507 474.247 16.2406 474.273 22.3432C474.247 28.4328 479.218 33.3189 485.065 33.2993C490.998 33.2993 496.021 28.4525 496.021 22.3432C496.021 16.2863 491.057 11.5507 485.065 11.5507ZM485.065 12.8589C490.449 12.8458 494.713 17.189 494.713 22.3432C494.713 27.6806 490.383 31.9845 485.065 31.9911C479.865 31.9846 475.581 27.746 475.581 22.3432C475.581 17.0713 479.826 12.8523 485.065 12.8589ZM481.141 16.4564V28.0665H482.776V22.8338H484.738C486.642 22.8273 487.178 23.3375 487.355 25.1231C487.59 26.9742 487.642 27.3013 487.845 28.0665H489.48C489.068 26.8957 488.983 25.908 488.826 24.469C488.617 23.0431 488.257 22.4479 487.028 22.1797C489.225 21.5452 489.291 19.7596 489.317 19.3998C489.291 16.4629 486.086 16.4629 485.229 16.4564H481.141ZM482.776 17.7646H485.229C486.099 17.7646 487.518 17.9085 487.518 19.7269C487.518 21.5322 486.145 21.5256 485.392 21.5256H482.776V17.7646ZM373.706 27.2489C352.33 27.2489 334.951 44.6347 334.951 66.0039C334.964 87.0395 351.689 104.046 372.561 104.595H397.744V87.916H374.197H371.907C363.509 87.7525 356.078 81.2312 353.266 72.7084H411.807C412.213 70.4583 412.461 68.2213 412.461 65.8404C412.435 44.4711 395.115 27.2489 373.706 27.2489ZM419.656 28.0665L419.82 102.47H437.317V45.5635H452.034C457.934 45.5635 458.784 49.8217 458.902 51.6139V61.5888H476.235V50.7963C476.327 49.5992 476.523 43.9806 472.638 38.0415C466.751 28.0665 452.688 28.0665 452.688 28.0665H419.82H419.656ZM146.736 28.2301L147.063 102.633H164.397V45.5635H179.114C185.072 45.5831 185.857 49.9917 185.982 51.7774V61.7523H203.315V50.9598C203.387 49.7562 203.609 44.1245 199.718 38.205C193.837 28.2235 179.768 28.2301 179.768 28.2301H147.063H146.736ZM203.479 28.3936L223.919 97.8909L224.573 99.6897C224.966 101.286 225.051 103.706 222.12 103.941H220.158H200.535V121.438H222.611C223.795 121.523 229.479 121.602 235.366 117.677C243.745 112.693 246.524 101.116 247.466 97.8909C248.578 94.0383 267.743 28.3936 267.743 28.3936C267.743 28.3936 253.883 28.3936 250.737 28.3936L235.693 81.3751L220.485 28.3936C217.319 28.3936 203.479 28.3936 203.479 28.3936ZM373.706 44.4189C382.818 44.4188 390.588 50.0375 393.819 57.9913H353.593C356.791 50.031 364.614 44.4189 373.706 44.4189Z" fill="black"/>
</svg>
