<svg width="500" height="113" viewBox="0 0 500 113" fill="none" xmlns="http://www.w3.org/2000/svg">
<path fill-rule="evenodd" clip-rule="evenodd" d="M50.6087 14.4043V3.82753H3.05469V14.4043H19.3528V60.3942H34.0821V14.4043H50.6087ZM233.909 60.3942C233.518 56.6371 233.276 53.737 233.276 51.7771V32.737C233.276 24.8274 227.485 19.8928 219.804 19.8928C214.236 19.9675 209.385 22.4766 206.718 26.862C205.074 22.4766 200.219 20.1256 195.671 20.1256C190.187 20.1256 185.564 21.9273 182.971 26.862L182.664 20.9871H169.191V60.3942H183.134V36.661C183.134 35.4087 182.585 28.6681 189.013 28.6681C193.32 28.6681 194.344 32.5087 194.344 36.2657V60.3942H208.207V36.661C208.207 35.4087 207.658 28.6681 214.082 28.6681C218.393 28.6681 219.408 32.5087 219.408 36.2657V60.3942H233.909ZM165.988 32.5833V20.5958C159.954 20.5123 155.327 22.4766 153.53 28.5099L153.218 20.9871H139.271C139.583 24.1992 139.583 28.5099 139.583 31.0937V60.3942H153.53V43.1601C153.53 36.6611 155.411 32.658 163.092 32.5042C164.028 32.5042 164.968 32.5042 165.988 32.5833ZM257.937 19.8928C245.088 19.8928 236.704 27.0202 236.704 40.572C236.704 54.5192 245.167 61.4927 257.937 61.4927C270.706 61.4927 279.17 54.5192 279.17 40.572C279.17 27.0202 270.785 19.8928 257.937 19.8928ZM257.937 28.1979C263.812 28.1979 264.91 34.2268 264.91 40.4183C264.91 47.6292 263.658 53.2667 257.937 53.2667C252.215 53.2667 250.963 47.6292 250.963 40.4183C250.963 34.1477 252.062 28.1188 257.937 28.1188V28.1979ZM93.5623 60.3942C93.1712 56.6371 93.013 53.9699 93.013 51.7771V32.737C93.013 24.8274 87.138 19.8928 79.4613 19.8928C77.1104 19.8928 74.834 20.2838 72.8786 21.145C71.0769 22.0063 69.3544 23.2542 67.8648 25.1394V3.82324H53.9175V60.3899H67.8648V36.6567C67.8648 35.4044 67.3157 28.6635 73.74 28.6635C78.1254 28.6635 79.07 32.5041 79.07 36.2612V60.3899L93.5623 60.3942ZM136.186 43.3932C136.265 29.213 132.033 19.8928 116.285 19.8928C103.827 19.8928 96.3921 27.5694 96.3921 39.5568C96.3921 54.2906 101.634 61.4927 116.992 61.4927C121.769 61.4927 126 60.3944 129.212 58.2016C132.662 55.9298 135.483 52.3266 135.874 47.3875H122.709C122.318 50.9951 120.209 53.4207 116.052 53.4207C110.722 53.4207 109.628 48.3279 109.707 43.3932H136.186ZM122.867 35.7998H109.944C110.251 31.6473 111.192 27.4157 116.368 27.1828C118.715 27.0993 120.288 28.198 121.303 29.9249C122.401 31.5683 122.867 33.7611 122.867 35.8747V35.7998Z" fill="#EF4135"/>
<path fill-rule="evenodd" clip-rule="evenodd" d="M497.382 31.88V19.8882C491.349 19.8091 486.726 21.7733 484.924 27.8066L484.613 20.9867H470.665C470.977 24.1989 470.977 28.5051 470.977 31.0977V60.3984H484.924V43.1555C484.924 36.6564 486.805 31.9545 494.482 31.7963C495.422 31.7963 496.367 31.7965 497.382 31.88ZM424.838 60.3984C424.447 56.637 424.289 53.9695 424.289 51.7768V32.7367C424.289 24.8227 418.414 19.8882 410.737 19.8882C408.386 19.8882 406.264 20.2792 404.312 21.1404C402.511 22.0017 400.63 23.2583 399.141 25.139V3.82721H385.189V60.3939H399.141V36.6564C399.141 35.3997 398.591 28.6632 405.016 28.6632C409.406 28.6632 410.346 32.5039 410.346 36.2654V60.3939H424.838V60.3984ZM381.775 48.6437C381.775 42.5313 378.558 39.5566 374.094 37.9132C365.714 34.9295 359.443 34.78 359.443 31.6381C359.443 29.296 360.775 27.9603 363.042 27.9603C364.844 27.9603 366.026 28.4259 366.804 29.2125C367.511 29.9991 367.819 31.2471 367.819 32.974H381.063C380.751 22.63 372.604 19.8836 363.671 19.8836C356.069 19.8836 346.195 22.5466 346.195 32.0337C346.195 45.8227 368.522 42.2152 368.522 49.5843C368.522 52.1681 366.413 53.3369 363.671 53.3369C362.102 53.3369 360.845 52.5546 360.067 51.4561C359.281 50.441 358.969 48.9514 359.206 47.62H345.891C345.65 59.3701 354.35 61.4881 363.991 61.4881C372.999 61.4969 381.775 58.2055 381.775 48.6437ZM467.536 43.3971C467.62 29.2126 463.384 19.8882 447.635 19.8882C435.177 19.8882 427.738 27.5647 427.738 39.5565C427.738 54.2859 432.985 61.497 448.343 61.497C453.119 61.497 457.351 60.3983 460.563 58.2056C464.008 55.9294 466.829 52.3262 467.22 47.3915H454.064C453.668 50.9903 451.555 53.4204 447.402 53.4204C442.072 53.4204 440.978 48.3318 441.053 43.3971H467.536ZM454.218 35.7995H441.294C441.602 31.6426 442.547 27.4155 447.719 27.1782C450.07 27.0991 451.634 28.1975 452.653 29.92C453.752 31.5678 454.218 33.7607 454.218 35.8743V35.7995ZM342.332 20.9867H328.385V60.3984H342.332V20.9867ZM324.048 14.2503L327.339 3.8315H289.865V60.3984H304.595V38.146H316.494L319.772 27.7275H304.595V14.2546L324.048 14.2503ZM342.323 14.2195L345.637 3.81836H331.856L328.548 14.2195H342.323Z" fill="#EF4135"/>
<path d="M136.134 76.9688H131.02V109.038H136.134V76.9688Z" fill="black"/>
<path fill-rule="evenodd" clip-rule="evenodd" d="M475.359 109.587C464.677 109.587 456.684 103.664 456.684 93.2492C456.684 82.7075 465.652 76.3008 475.693 76.3008C479.283 76.3008 483.234 77.4785 485.756 79.1131L483.137 82.2331C480.869 80.9852 478.426 80.1545 475.755 80.1326C471.918 80.1018 468.144 81.2532 465.591 84.0523C463.508 86.3373 462.348 89.2903 462.348 93.434C462.348 97.9337 463.736 100.403 466.153 102.794C468.601 105.215 472.349 105.878 476.027 105.878C478.962 105.878 481.867 104.789 484.139 103.589L486.63 106.59C484.033 108.33 479.613 109.587 475.359 109.587Z" fill="black"/>
<path d="M426.697 76.9688H421.578V109.038H426.697V76.9688Z" fill="black"/>
<path fill-rule="evenodd" clip-rule="evenodd" d="M305.934 80.8048H293.986V109.038H288.994V80.8048H277.139V76.9688H306.492L305.934 80.8048Z" fill="black"/>
<path fill-rule="evenodd" clip-rule="evenodd" d="M39.4955 107.9C37.0523 109.113 33.9939 109.706 30.4566 109.706C25.9174 109.706 21.3122 108.699 17.4805 106.814L19.603 103.185C23.3249 105.039 26.8621 105.874 30.7905 105.874C33.3523 105.874 35.0486 105.43 36.6217 104.573C38.4541 103.571 39.4427 102.2 39.4427 100.429C39.4427 97.7534 37.3864 96.0793 32.4298 94.9236L27.2092 93.7108C22.0196 92.498 18.755 89.2551 18.755 85.4585C18.755 79.9877 24.129 76.1162 31.7925 76.1162C36.2614 76.1162 41.0379 77.2368 44.0963 79.1702L41.7892 82.5187C38.6561 80.7874 35.3913 79.9523 32.0604 79.9523C27.5036 79.9523 24.3443 81.7233 24.3443 84.729C24.3443 87.0447 26.2689 88.4245 30.7554 89.5011L35.5758 90.6568C38.3134 91.3159 41.0907 92.4715 42.6726 93.9084C44.1799 95.2838 45.164 97.4898 45.164 99.6386C45.1684 102.912 43.0724 106.107 39.4955 107.9Z" fill="black"/>
<path fill-rule="evenodd" clip-rule="evenodd" d="M244.921 109.038L232.182 91.9316C229.792 88.7282 225.758 82.4753 225.758 82.4753C225.758 82.4753 226.211 87.889 226.246 92.6348L226.364 109.038H221.271V76.9648H227.34L240.215 94.4274C242.72 97.833 246.209 103.225 246.209 103.225C246.209 103.225 245.448 97.3102 245.409 93.061L245.295 76.9648H250.339V109.038H244.921Z" fill="black"/>
<path d="M337.898 76.9688H332.783V109.038H337.898V76.9688Z" fill="black"/>
<path fill-rule="evenodd" clip-rule="evenodd" d="M393.666 80.7389H376.08V90.2305H390.959V94.0095H376.08V109.038H370.961V76.9688H394.347L393.666 80.7389Z" fill="black"/>
<path fill-rule="evenodd" clip-rule="evenodd" d="M169.191 109.038V76.9688H192.837L192.156 80.8048H174.311V90.3579H189.524V94.1897H174.372V105.017H193.474V109.038H169.191Z" fill="black"/>
<path fill-rule="evenodd" clip-rule="evenodd" d="M91.484 109.587C80.7973 109.587 72.8086 103.664 72.8086 93.2492C72.8086 82.7075 81.7772 76.3008 91.8136 76.3008C95.4037 76.3008 99.3584 77.4785 101.876 79.1131L99.2573 82.2331C96.9943 80.9852 94.5469 80.1545 91.8796 80.1326C88.0435 80.1018 84.2643 81.2532 81.7113 84.0523C79.6284 86.3373 78.4685 89.2903 78.4685 93.434C78.4685 97.9337 79.8569 100.403 82.2737 102.794C84.7257 105.215 88.4696 105.878 92.1475 105.878C95.0829 105.878 97.9874 104.789 100.264 103.589L102.751 106.59C100.154 108.33 95.7376 109.587 91.484 109.587Z" fill="black"/>
</svg>
