<svg width="500" height="39" viewBox="0 0 500 39" fill="none" xmlns="http://www.w3.org/2000/svg">
<path d="M386.555 19.4577C390.386 19.4577 391.917 17.7255 391.917 14.4145C391.917 10.9111 390.143 9.27514 386.645 9.27514H381.542V34.978C381.542 35.775 380.887 36.4425 380.081 36.4425H376.932C376.138 36.4425 375.477 35.7749 375.477 34.978V7.19111C375.477 6.39118 376.138 5.6875 376.932 5.6875H387.262C393.598 5.6875 397.541 8.56543 397.541 14.4145C397.541 19.0216 394.621 21.2379 391.25 22.1281L397.899 34.578C398.034 34.8487 398.163 35.1164 398.163 35.4201C398.163 35.9554 397.814 36.4426 397.321 36.4426H393.466C393.021 36.4426 392.534 36.0847 392.314 35.5975L385.211 21.7221C385.034 21.3793 384.715 20.82 384.715 20.2937C384.715 19.8276 384.943 19.4577 385.758 19.4577L386.555 19.4577Z" fill="#1E3D6A"/>
<path d="M415.985 8.49341C409.615 8.49341 408.518 14.2252 408.518 21.0667C408.518 27.9713 409.682 33.6399 415.895 33.6399C421.987 33.6399 423.449 28.2089 423.449 21.0667C423.449 14.2252 422.258 8.49341 415.985 8.49341ZM415.985 37.0922C410.054 37.0922 402.488 35.0533 402.488 21.0667C402.488 7.16722 409.997 5.03809 415.985 5.03809C421.966 5.03809 429.475 7.16722 429.475 21.0667C429.475 34.7887 422.135 37.0922 415.985 37.0922Z" fill="#1E3D6A"/>
<path d="M446.889 37.0921C438.644 37.0921 435.275 32.4399 435.275 26.8103V7.19113C435.275 6.39119 435.94 5.6875 436.734 5.6875H439.834C440.637 5.6875 441.305 6.3912 441.305 7.19113V27.1622C441.305 32.2564 443.753 33.6398 447.175 33.6398C451.677 33.6398 453.048 30.9874 453.048 27.1622V7.19113C453.048 6.39119 453.713 5.6875 454.507 5.6875H457.036C457.833 5.6875 458.5 6.3912 458.5 7.19113V26.8103C458.5 33.324 454.413 37.0921 446.889 37.0921Z" fill="#1E3D6A"/>
<path d="M474.623 21.0616H476.145C479.257 21.0616 481.69 19.4767 481.69 15.3027C481.69 10.7317 479.333 9.2341 475.997 9.2341H471.231V34.9791C471.231 35.7729 470.651 36.4406 469.857 36.4406H466.795C465.998 36.4406 465.34 35.7729 465.34 34.9791V7.19218C465.34 6.39225 465.998 5.68555 466.795 5.68555H477.874C483.834 5.68555 487.314 9.3213 487.314 15.3027C487.314 20.7097 484.144 24.3485 477.862 24.3485C476.668 24.3485 475.492 24.2312 474.762 24.1079C473.495 23.8944 472.918 23.2027 472.918 22.487C472.918 21.7593 473.489 21.0616 474.623 21.0616Z" fill="#1E3D6A"/>
<path d="M326.093 36.4416H323.167C322.325 36.4416 321.657 35.7739 321.657 34.9319V22.6714H309.791V34.9319C309.791 35.774 309.126 36.4416 308.281 36.4416H305.358C304.516 36.4416 303.852 35.7739 303.852 34.9319V7.19015C303.852 6.3932 304.516 5.68652 305.316 5.68652H308.326C309.126 5.68652 309.791 6.39321 309.791 7.19015V18.341H321.657V7.19015C321.657 6.3932 322.325 5.68652 323.122 5.68652H326.135C326.935 5.68652 327.603 6.39321 327.603 7.19015V34.9319C327.603 35.774 326.935 36.4416 326.093 36.4416Z" fill="#1E3D6A"/>
<path d="M13.9288 36.9733C4.49508 36.9733 1.12695 31.6565 1.12695 25.3383V3.37646C1.12695 2.4803 1.88781 1.65332 2.80203 1.65332H5.46944C6.38063 1.65332 7.14445 2.48027 7.14445 3.37646V25.9638C7.14445 31.6806 10.3051 33.2173 14.0611 33.2173C19.0321 33.2173 20.9778 30.6852 20.9778 25.9638V3.37646C20.9778 2.4803 21.7416 1.65332 22.6528 1.65332H24.9985C25.9126 1.65332 26.6705 2.48027 26.6705 3.37646V25.3383C26.6705 32.6459 22.2288 36.9733 13.9288 36.9733Z" fill="#1E3D6A"/>
<path d="M144.926 9.25213H139.664V32.877H144.926C151.864 32.877 153.554 27.6113 153.554 21.239C153.554 14.8696 151.924 9.25213 144.926 9.25213ZM146.34 36.4406H135.24C134.443 36.4406 133.775 35.7489 133.775 34.955V7.21623C133.775 6.41928 134.443 5.68555 135.24 5.68555H146.34C153.641 5.68555 159.439 9.60397 159.439 21.239C159.439 33.0514 153.199 36.4406 146.34 36.4406Z" fill="#1E3D6A"/>
<path d="M191.074 36.4459H188.446C187.498 36.4459 186.749 35.7031 186.749 34.7589V20.709H172.639V34.7589C172.639 35.7031 171.894 36.4459 170.94 36.4459H168.312C167.365 36.4459 166.625 35.7031 166.625 34.7589V3.5798C166.625 2.68364 167.365 1.88672 168.264 1.88672H170.998C171.894 1.88672 172.639 2.68367 172.639 3.5798V16.2794H186.749V3.5798C186.749 2.68364 187.498 1.88672 188.397 1.88672H191.122C192.015 1.88672 192.767 2.68367 192.767 3.5798V34.7589C192.767 35.7031 192.015 36.4459 191.074 36.4459Z" fill="#1E3D6A"/>
<path d="M273.782 36.4455H258.932C258.093 36.4455 257.426 35.7779 257.426 34.9329V7.19111C257.426 6.39416 258.093 5.6875 258.89 5.6875H261.991C262.791 5.6875 263.455 6.39417 263.455 7.19111V32.1061H273.782C274.579 32.1061 275.244 32.8188 275.244 33.6127V34.978C275.244 35.7779 274.579 36.4455 273.782 36.4455Z" fill="#1E3D6A"/>
<path d="M73.0109 36.4455H70.0066C69.1616 36.4455 68.5 35.7509 68.5 34.9118V7.21818C68.5 6.42123 69.1616 5.6875 69.9645 5.6875H73.056C73.8529 5.6875 74.5175 6.42128 74.5175 7.21818V34.9118C74.5175 35.7508 73.8529 36.4455 73.0109 36.4455Z" fill="#1E3D6A"/>
<path d="M101.465 10.0269H94.4761V34.9119C94.4761 35.7509 93.8085 36.4455 92.9695 36.4455H89.9593C89.1233 36.4455 88.4556 35.7509 88.4556 34.9119V10.0269H81.4127C80.6158 10.0269 79.9512 9.36834 79.9512 8.57144V7.20015C79.9512 6.40627 80.6158 5.6875 81.4127 5.6875H101.465C102.262 5.6875 102.923 6.40621 102.923 7.20015V8.57144C102.923 9.36839 102.262 10.0269 101.465 10.0269Z" fill="#1E3D6A"/>
<path d="M296.911 10.0269H289.438V34.9119C289.438 35.7509 288.777 36.4455 287.938 36.4455H284.928C284.092 36.4455 283.424 35.7509 283.424 34.9119V10.0269H275.903C275.103 10.0269 274.441 9.36834 274.441 8.57144V7.20015C274.441 6.40627 275.103 5.6875 275.903 5.6875H296.911C297.708 5.6875 298.367 6.40621 298.367 7.20015V8.57144C298.367 9.36839 297.708 10.0269 296.911 10.0269Z" fill="#1E3D6A"/>
<path d="M126.97 36.4455H109.625C108.828 36.4455 108.166 35.9312 108.166 35.1374V7.20013C108.166 6.40625 108.828 5.6875 109.625 5.6875H126.345C127.145 5.6875 127.809 6.40619 127.809 7.20013V8.42409C127.809 9.22104 127.145 9.87959 126.345 9.87959H114.18V18.4051H125.109C125.906 18.4051 126.57 19.1149 126.57 19.9117V21.1357C126.57 21.9296 125.906 22.5972 125.109 22.5972H114.18V32.2324L126.97 32.2477C127.767 32.2477 128.429 32.9544 128.429 33.7484V35.1377C128.429 35.9316 127.767 36.4455 126.97 36.4455Z" fill="#1E3D6A"/>
<path d="M219.611 36.4455H202.268C201.471 36.4455 200.801 35.9312 200.801 35.1374V7.20013C200.801 6.40625 201.471 5.6875 202.268 5.6875H218.986C219.779 5.6875 220.444 6.40619 220.444 7.20013V8.42409C220.444 9.22104 219.779 9.87959 218.986 9.87959H206.821V18.4051H217.747C218.547 18.4051 219.208 19.1149 219.208 19.9117V21.1357C219.208 21.9296 218.547 22.5972 217.747 22.5972H206.821V32.2324L219.611 32.2477C220.405 32.2477 221.067 32.9544 221.067 33.7484V35.1377C221.067 35.9316 220.405 36.4455 219.611 36.4455Z" fill="#1E3D6A"/>
<path d="M57.7804 36.4455H53.2395C51.8321 36.4455 51.1735 35.799 50.8156 34.999C48.5602 30.2115 39.8272 10.6224 39.8272 10.6224V34.957C39.8272 35.7508 39.1626 36.4455 38.3657 36.4455H36.3268C35.5268 36.4455 34.8652 35.7509 34.8652 34.957V7.16706C34.8652 6.36713 35.5268 5.6875 36.3268 5.6875H40.7654C42.0796 5.6875 42.8856 6.14159 43.3306 7.12495C45.6793 12.2613 54.271 31.3633 54.271 31.3633V7.16706C54.271 6.36713 54.9386 5.6875 55.7385 5.6875H57.7804C58.5743 5.6875 59.2419 6.36715 59.2419 7.16706V34.957C59.2419 35.7508 58.5743 36.4455 57.7804 36.4455Z" fill="#1E3D6A"/>
<path d="M367.297 35.4435C365.679 36.1592 363.144 37.2058 357.833 37.2058C349.163 37.2058 341.398 33.564 341.398 19.1653C341.398 7.86414 346.18 1.12793 357.833 1.12793C363.207 1.12793 366.178 2.55937 366.879 2.85408C367.946 3.30818 368.019 3.52769 368.019 4.0239C368.019 4.26148 367.883 4.99523 367.853 5.17567C367.679 6.05378 367.435 7.48823 367.297 8.26109C367.222 8.68808 367.165 9.28054 366.509 9.28054C365.974 9.28054 365.511 8.658 365.219 8.36032C364.762 7.89122 362.182 5.21778 357.833 5.21778C349.569 5.21778 348.168 13.1418 348.168 19.1653C348.168 27.4804 350.865 33.1159 357.833 33.1159C360.494 33.1159 361.89 32.6859 362.32 32.5686V21.1681C362.32 20.4765 362.726 20.2599 363.436 20.2599H367.258C368.064 20.2599 368.343 20.5847 368.343 21.2253V33.6933C368.343 34.8781 368.271 35.0135 367.297 35.4435Z" fill="#1E3D6A"/>
<path d="M233.714 25.4822L238.294 10.2415L242.61 25.4822H233.714ZM251.686 34.4919L242.85 7.10194C242.537 6.17271 241.792 5.68555 240.688 5.68555H236.782C235.648 5.68555 235.025 6.17271 234.707 7.10194L225.892 34.6663C225.802 34.934 225.709 35.1143 225.709 35.379C225.709 35.9985 226.247 36.4436 226.777 36.4436H228.764C229.82 36.4436 230.593 35.9534 230.903 35.0212L232.641 29.2623H243.846L245.662 35.0212C245.921 35.8211 246.507 36.4436 247.857 36.4436H250.75C251.421 36.4436 251.857 35.9985 251.857 35.3309C251.857 35.0211 251.77 34.8046 251.686 34.4919Z" fill="#1E3D6A"/>
<path d="M493.603 9.09485H494.611C495.26 9.09485 495.675 8.95651 495.675 8.28589C495.675 7.69651 495.152 7.52805 494.611 7.52805H493.603V9.09485ZM492.761 6.86348H494.743C495.934 6.86348 496.523 7.34161 496.523 8.32199C496.523 9.155 495.994 9.75344 495.185 9.75344L496.659 12.048H495.762L494.316 9.75344H493.603V12.048H492.761L492.761 6.86348ZM494.463 13.2238C496.499 13.2238 498.03 11.5818 498.03 9.46173C498.03 7.34163 496.499 5.69969 494.463 5.69969C492.403 5.69969 490.873 7.34163 490.873 9.46173C490.873 11.5818 492.403 13.2238 494.463 13.2238ZM494.448 5.03809C496.89 5.03809 498.872 7.02286 498.872 9.46173C498.872 11.9006 496.89 13.8854 494.448 13.8854C492.015 13.8854 490.027 11.9006 490.027 9.46173C490.027 7.02286 492.015 5.03809 494.448 5.03809Z" fill="#1E3D6A"/>
</svg>
