<svg width="500" height="222" viewBox="0 0 500 222" fill="none" xmlns="http://www.w3.org/2000/svg">
<g clip-path="url(#clip0_29_1370)">
<path d="M485.126 30.7102C492.198 42.596 495.385 55.345 494.788 70.1192H471.381C471.68 52.4565 465.405 33.6318 447.742 26.9585C432.968 21.3144 415.604 21.3144 399.967 24.8005C386.919 28.1205 374.037 39.1099 370.551 52.4565C366.633 67.0648 367.497 85.0263 378.652 96.4804C384.163 102.125 390.837 105.445 397.643 108.167C413.712 114.409 431.375 117.032 447.012 124.834C455.877 130.777 458.3 140.471 458.035 150.465C457.47 161.188 451.096 171.447 441.102 176.228C425.432 183.167 406.607 182.901 389.077 179.847C376.926 176.959 363.745 168.559 359.993 155.81C358.101 149.734 357.802 142.231 358.234 135.823L381.408 135.69C382.138 139.01 381.972 143.526 382.703 147.277C383.433 152.656 388.513 157.569 393.426 159.296C404.715 162.184 416.6 163.048 427.623 159.163C430.212 157.702 432.835 155.079 433.4 152.191C434.13 148.273 433.831 143.957 430.943 141.036C425.166 136.852 417.895 135.823 411.089 133.964C387.483 128.751 360.392 119.92 349.967 94.7208C340.272 68.6584 344.92 36.6531 366.069 17.6956C389.675 -2.29115 423.274 -2.85556 452.523 4.81376C465.571 8.99703 478.154 18.426 485.126 30.7102ZM63.5126 7.005L63.4794 143.526C64.0438 146.414 64.6414 149.435 67.5299 151.461C73.3068 154.814 82.6029 155.245 87.9482 151.195C90.5711 148.871 91.8659 145.982 91.9987 142.629L92.1979 7.005H155.312V57.6026L133.3 57.669L133.234 27.8217H114.21L114.177 143.957C114.475 154.515 110.259 165.073 99.9668 170.02C87.085 176.826 67.5299 176.826 54.9137 169.289C42.7623 162.483 40.7371 148.439 41.3015 135.557L41.4675 27.8217H22.7756L22.4768 150.166C22.4768 164.21 31.4741 177.39 44.0571 184.063C66.6667 196.082 97.0784 194.488 117.795 179.283C126.062 172.476 132.005 163.579 132.703 153.154H155.312C154.15 175.464 137.915 195.916 117.497 204.913C97.0784 214.01 71.0159 215.04 49.004 208.798C28.5857 203.453 7.13812 185.657 2.19124 164.21C-0.564407 153.486 0.332008 141.036 0.0332031 130.777L0.46481 7.005M247.012 75.9625H275.432V7.005C275.432 7.005 317.43 7.171 338.712 7.005L338.645 136.852C338.513 153.951 342.696 170.883 356.906 182.171C381.673 200.564 419.057 200.398 447.145 191.301C463.081 185.79 476.527 168.692 477.424 151.627C478.586 135.557 474.934 121.082 461.62 111.52C442.63 99.0701 419.323 97.0448 399.336 87.3503C390.505 82.1378 386.587 72.2772 387.749 61.9851C388.181 51.8589 395.418 42.7288 404.98 39.5415C419.489 36.2215 439.741 35.7899 448.738 50.4313C450.83 55.4778 454.648 58.7978 453.287 70.1192H430.777C430.345 66.0687 430.047 61.4207 426.992 58.2334C422.809 55.9094 416.268 55.7766 412.384 58.3662C409.628 60.3915 409.329 64.1763 409.927 67.1976C414.243 76.0289 424.967 74.9001 432.669 78.6517C457.703 86.0223 490.305 95.2852 497.244 125.564C504.349 152.191 496.946 181.009 474.502 198.804C447.842 218.227 410.359 218.791 378.353 213.147C353.121 208.532 326.461 191.301 319.522 164.94C317.497 158.001 316.932 150.332 316.799 142.795L316.733 27.8217H297.809V95.8828H224.635L224.436 26.9585H205.71L205.744 95.584H155.312L155.279 114.143L205.677 114.21L205.843 190.538L224.469 190.571V114.243H297.809V213.346L275.365 213.18L275.432 135.159H247.012V213.247H184.097V135.192H133.101L133.201 75.1657L184.064 75.0993V6.14179H246.979" fill="#8F3843"/>
<path fill-rule="evenodd" clip-rule="evenodd" d="M484.396 221.016C478.254 221.016 473.273 215.969 473.273 209.694C473.273 203.42 478.254 198.34 484.396 198.34C490.538 198.34 495.485 203.42 495.485 209.694C495.485 215.969 490.538 221.016 484.396 221.016ZM493.493 209.694C493.493 204.416 489.409 200.199 484.396 200.199C479.349 200.199 475.265 204.416 475.265 209.694C475.265 214.94 479.349 219.19 484.396 219.19C489.409 219.19 493.493 214.94 493.493 209.694ZM480.113 203.187H484.927C487.616 203.187 489.243 204.349 489.243 206.408C489.243 208.2 488.247 209.296 487.052 209.927L490.139 215.073L487.018 215.505L484.462 210.524H483.101V215.339H480.113V203.187ZM483.101 208.698H484.163C485.69 208.698 486.188 207.536 486.188 206.706C486.188 205.445 485.292 204.98 484.296 204.98H483.101V208.698Z" fill="#8F3843"/>
</g>
<defs>
<clipPath id="clip0_29_1370">
<rect width="500" height="221.116" fill="white"/>
</clipPath>
</defs>
</svg>
