<svg width="500" height="265" viewBox="0 0 500 265" fill="none" xmlns="http://www.w3.org/2000/svg">
<path d="M324.217 127.732L248.318 1.68341L172.418 127.732H324.217Z" fill="#3F125F"/>
<path d="M105.665 238.596L90.9277 263.067L405.709 263.071L390.967 238.596H105.665Z" fill="#3F125F"/>
<path d="M89.7536 146.307C83.3229 146.307 76.3939 167.089 66.5032 189.106C59.9422 203.578 54.6244 217.432 52.5241 221.637C50.0514 221.39 47.5788 221.139 44.9804 221.139C42.0096 221.139 38.9176 221.39 35.8256 221.637C33.9722 216.445 28.403 200.98 22.0934 185.394C14.5497 166.843 7.87206 146.554 1.68359 146.307V145.194C7.99771 145.445 14.1772 145.692 20.3612 145.692C24.8174 145.692 29.2692 145.445 33.5997 145.194V146.307C31.9887 146.805 30.2609 146.926 30.2609 150.763C30.2609 160.533 49.1853 203.578 51.1644 209.39C53.8839 202.591 69.5907 167.089 69.5907 151.997C69.5907 147.793 67.8629 146.805 65.2646 146.307V145.194C69.4695 145.445 73.8001 145.692 78.1262 145.692C81.9586 145.692 85.9167 145.445 89.7536 145.194V146.307Z" fill="#5A5C61"/>
<path d="M159.895 202.836C156.925 209.64 154.699 214.832 153.465 222.748C152.347 221.886 148.515 221.514 144.067 221.388C139.607 221.141 134.54 221.141 130.456 221.141H115.863C105.967 221.141 98.0511 221.514 96.8125 221.635V220.522C102.875 220.522 102.875 210.012 102.875 183.414C102.875 154.845 102.75 146.925 96.8125 146.305V145.197C99.4108 145.197 102.503 145.318 106.214 145.444C110.047 145.565 114.503 145.691 119.821 145.691H130.456C142.084 145.691 150.741 145.318 155.937 144.084C155.071 147.544 153.833 152.615 153.833 160.783V163.255H151.239C151.239 151.875 141.842 150.147 129.097 150.147C126.498 150.147 124.147 150.389 122.168 150.883C121.18 158.799 121.18 175.251 121.18 178.347C122.791 178.468 124.64 178.715 128.231 178.715C141.711 178.715 143.322 175.749 143.816 169.686H146.414C145.921 174.385 145.548 179.088 145.548 183.912C145.548 192.075 145.548 187.004 145.67 193.435H142.95C142.95 186.878 140.352 183.293 128.231 183.293C125.264 183.293 122.791 183.293 121.18 183.414C121.18 187.376 121.18 206.916 121.553 215.079C124.272 215.204 126.992 215.572 129.837 215.572C149.506 215.572 153.586 209.388 157.669 201.719L159.895 202.836Z" fill="#5A5C61"/>
<path d="M170.471 220.522C176.534 220.401 176.534 209.64 176.534 183.414C176.534 157.193 176.534 146.552 170.471 146.306V145.197C172.822 145.318 175.542 145.444 178.14 145.565C180.734 145.565 183.332 145.691 185.311 145.691C189.023 145.691 193.353 145.318 198.299 144.825C203.123 144.452 208.566 144.08 214.135 144.08C217.6 144.08 237.758 144.08 237.758 162.389C237.758 176.983 223.039 181.933 216.11 183.167C218.708 186.138 226.01 197.267 234.047 207.409C241.097 216.317 244.315 220.276 247.779 220.522V221.635C246.541 221.514 244.93 221.388 243.449 221.263C241.838 221.142 240.231 221.142 238.625 221.142C233.554 221.142 228.236 221.388 223.165 222.129C221.679 219.782 216.981 211.866 211.29 203.33C205.968 195.414 201.763 187.498 196.939 187.498C195.207 187.498 196.198 187.498 194.839 187.745C194.839 208.276 194.839 220.522 201.144 220.522V221.635C196.198 221.263 190.629 221.142 185.809 221.142C180.613 221.142 175.295 221.263 170.471 221.635V220.522ZM198.424 183.167C209.432 183.167 217.968 180.573 217.968 167.088C217.968 155.833 211.29 149.649 203.37 149.649C200.65 149.649 197.931 150.143 195.332 150.636C194.839 159.544 194.839 179.209 194.839 183.046C195.826 183.046 196.45 183.167 198.424 183.167Z" fill="#5A5C61"/>
<path d="M315.426 162.39C315.426 153.729 310.481 151.382 297.121 151.382C295.887 151.382 294.77 151.507 293.536 151.628C292.912 154.72 292.912 167.214 292.912 183.414C292.912 209.636 292.912 220.402 299.221 220.523V221.636C294.397 221.263 289.079 221.142 283.883 221.142C278.686 221.142 273.373 221.263 268.548 221.636V220.523C274.858 220.402 274.858 209.636 274.858 183.414C274.858 167.214 274.858 154.72 274.239 151.628C273 151.507 271.887 151.382 270.649 151.382C256.18 151.382 251.352 157.934 249.498 166.101L246.406 165.356C248.013 159.913 249.498 152.118 249.498 144.08C250.243 144.578 254.322 144.825 259.645 144.946C264.963 145.198 271.515 145.198 276.958 145.198H290.444C305.284 145.198 315.552 145.072 320.744 144.08C320.004 147.67 318.77 152.863 318.77 163.377V165.729H315.426V162.39Z" fill="#5A5C61"/>
<path d="M392.614 202.836C389.648 209.64 387.417 214.832 386.179 222.748C385.07 221.886 381.233 221.514 376.777 221.388C372.33 221.141 367.259 221.141 363.175 221.141H348.577C338.682 221.141 330.765 221.514 329.531 221.635V220.522C335.59 220.522 335.59 210.012 335.59 183.414C335.59 154.845 335.468 146.925 329.531 146.305V145.197C332.125 145.197 335.222 145.318 338.928 145.444C342.761 145.565 347.217 145.691 352.539 145.691H363.175C374.803 145.691 383.459 145.318 388.656 144.084C387.79 147.544 386.551 152.615 386.551 160.783V163.255H383.957C383.957 151.875 374.556 150.147 361.815 150.147C359.217 150.147 356.866 150.389 354.886 150.883C353.899 158.799 353.899 175.251 353.899 178.347C355.506 178.468 357.364 178.715 360.949 178.715C374.43 178.715 376.037 175.749 376.535 169.686H379.133C378.635 174.385 378.267 179.088 378.267 183.912C378.267 192.075 378.267 187.004 378.388 193.435H375.664C375.664 186.878 373.07 183.293 360.949 183.293C357.978 183.293 355.506 183.293 353.899 183.414C353.899 187.376 353.899 206.916 354.267 215.079C356.991 215.204 359.711 215.572 362.556 215.572C382.221 215.572 386.304 209.388 390.384 201.719L392.614 202.836Z" fill="#5A5C61"/>
<path d="M396.949 220.522C399.422 220.522 400.288 219.535 402.267 217.807C406.225 214.217 432.079 186.632 432.572 186.138C430.221 183.293 420.572 170.678 408.824 155.586C402.02 146.925 401.527 147.176 398.183 146.306V145.197C404.497 145.444 410.803 145.691 417.108 145.691C422.426 145.691 428.116 145.444 433.317 145.197V146.306C431.827 146.557 430.095 146.925 430.095 148.783C430.095 153.975 443.58 170.427 446.179 174.017C449.769 169.812 461.392 153.728 461.392 149.896C461.392 146.557 459.166 146.557 457.313 146.306V145.197C461.76 145.323 466.216 145.691 470.793 145.691C474.873 145.691 479.203 145.444 483.161 145.197V146.306C481.923 146.431 480.437 146.925 478.71 147.67C475.739 148.904 459.534 168.326 449.396 177.849C451.869 180.816 464.363 196.531 477.099 211.74C483.781 219.786 484.521 220.154 487.613 220.522V221.64C480.931 221.142 474.132 221.142 467.45 221.142C462.384 221.142 457.191 221.388 452.116 221.64V220.522C453.844 220.522 455.333 220.275 455.333 218.18C455.333 214.217 438.509 194.673 435.538 189.97C432.325 193.933 418.966 210.999 418.966 217.682C418.966 220.522 421.438 220.522 423.045 220.522V221.64C418.84 221.388 414.756 221.142 410.556 221.142C405.978 221.142 401.401 221.388 396.949 221.64V220.522Z" fill="#5A5C61"/>
<path d="M493.695 153.592C490.98 153.592 489.051 151.559 489.051 148.871C489.051 146.026 491.196 144.145 493.695 144.145C496.173 144.145 498.318 146.026 498.318 148.871C498.318 151.711 496.173 153.592 493.695 153.592ZM493.695 144.967C491.649 144.967 490.061 146.569 490.061 148.871C490.061 151.016 491.447 152.771 493.695 152.771C495.715 152.771 497.308 151.182 497.308 148.871C497.308 146.569 495.715 144.967 493.695 144.967ZM492.762 151.572H491.9V146.344H493.884C495.149 146.344 495.791 146.784 495.791 147.848C495.791 148.795 495.212 149.185 494.431 149.275L495.894 151.572H494.921L493.57 149.338H492.762V151.572ZM493.722 148.606C494.364 148.606 494.934 148.543 494.934 147.78C494.934 147.152 494.315 147.076 493.799 147.076H492.762V148.606H493.722Z" fill="#5A5C61"/>
</svg>
