<svg width="500" height="133" viewBox="0 0 500 133" fill="none" xmlns="http://www.w3.org/2000/svg">
<g clip-path="url(#clip0_29_1367)">
<path d="M482.624 37.6529H480.432C480.303 37.6529 480.174 37.524 480.174 37.3628V36.2022C480.174 36.041 480.303 35.9443 480.432 35.9443H486.686C486.815 35.9443 486.944 36.041 486.944 36.2022V37.3628C486.944 37.524 486.815 37.6529 486.686 37.6529H484.494V45.6478C484.494 45.7767 484.365 45.9056 484.236 45.9056H482.882C482.753 45.9056 482.624 45.7767 482.624 45.6478V37.6529Z" fill="#2A276E"/>
<path d="M490.201 36.0089C490.201 35.8799 490.33 35.7832 490.459 35.7832H490.684C490.781 35.7832 490.878 35.8477 490.91 35.9444L494.069 42.6497H494.101L497.228 35.9122C497.293 35.8154 497.39 35.7832 497.486 35.7832H497.712C497.841 35.7832 497.97 35.8799 497.97 36.0089L499.679 45.5833C499.711 45.7123 499.646 45.8412 499.517 45.9057C499.474 45.9057 499.442 45.9057 499.421 45.9057H498.099C497.97 45.9057 497.873 45.809 497.841 45.68L497.003 40.2964H496.971L494.456 45.9057C494.424 46.0024 494.327 46.0669 494.23 46.0669H493.973C493.844 46.0669 493.747 46.0024 493.715 45.9057L491.2 40.2964H491.168L490.33 45.68C490.297 45.809 490.201 45.9057 490.072 45.9057H488.782C488.653 45.9379 488.524 45.8412 488.492 45.68C488.492 45.6586 488.492 45.6263 488.492 45.5833L490.201 36.0089Z" fill="#2A276E"/>
<path d="M475.339 79.6906C475.339 88.5236 467.731 96.6474 455.642 96.6474C444.843 96.6474 438.492 91.5862 436.784 89.9743C436.01 89.2006 435.591 88.7815 436.365 87.3953L439.427 82.1084C439.492 82.0439 439.545 81.9687 439.588 81.8827C440.265 81.0123 441.523 80.8512 442.393 81.5281C442.78 81.7538 449.743 86.815 455.288 86.815C459.769 86.815 463.089 83.9137 463.089 80.2386C463.089 75.8544 459.414 72.8886 452.225 69.955C444.166 66.699 436.107 61.541 436.107 51.4508C436.107 43.8105 441.748 35.0098 455.385 35.0098C464.121 35.0098 470.826 39.4585 472.535 40.748C473.405 41.425 473.631 42.65 473.051 43.5849L469.795 48.4527C469.085 49.4843 467.828 50.1935 466.797 49.4843C466.087 49.0652 459.575 44.8099 454.869 44.8099C450.001 44.8099 447.325 48.0336 447.325 50.806C447.325 54.8034 450.517 57.5436 457.448 60.3805C465.765 63.7332 475.372 68.6977 475.339 79.6906Z" fill="#2A276E"/>
<path d="M422.243 37.524V95.8412H412.636C411.734 95.809 411.024 95.0997 410.992 94.1971V35.8799H420.599C421.502 35.9121 422.211 36.6213 422.243 37.524Z" fill="#2A276E"/>
<path fill-rule="evenodd" clip-rule="evenodd" d="M397.808 95.8093H386.041C385.461 95.8416 384.913 95.5514 384.655 95.0356L373.243 72.3406H363.733V95.8416H354.223C353.321 95.8416 352.611 95.1001 352.611 94.1975V35.8803H378.756C388.975 35.8158 397.357 44.0685 397.421 54.2877C397.421 62.2181 392.199 68.6011 384.752 71.5992L397.808 95.8093ZM386.267 54.4812C386.267 49.9357 382.334 46.1639 377.789 46.1639H363.83V63.1852H377.789C382.334 63.1852 386.299 59.2523 386.267 54.4812Z" fill="#2A276E"/>
<path fill-rule="evenodd" clip-rule="evenodd" d="M303.224 95.8416H293.295C292.005 95.8416 291.393 95.2936 290.812 94.1331L286.621 84.881H260.993L256.802 94.1331C256.415 95.1969 255.416 95.8739 254.32 95.8416H244.391L272.05 35.977C272.308 35.3968 272.888 35.0099 273.501 35.0421H274.404C275.048 34.9777 275.629 35.3645 275.854 35.977L303.224 95.8416ZM282.463 75.371L273.888 56.5122H273.63L265.216 75.371H282.463Z" fill="#2A276E"/>
<path d="M339.943 35.8799C340.845 35.8799 341.587 36.6213 341.555 37.524V46.1636H326.822V95.8412H317.248C316.345 95.809 315.636 95.0997 315.604 94.1971V46.1636H302.483C301.58 46.1636 300.871 45.4221 300.871 44.5517V35.8799H339.943Z" fill="#2A276E"/>
<path d="M235.912 37.524V95.8412H226.305C225.435 95.809 224.726 95.0997 224.693 94.1971V35.8799H234.268C235.17 35.9121 235.88 36.6213 235.912 37.524Z" fill="#2A276E"/>
<path d="M214.055 35.5898L186.46 95.4867C186.202 96.067 185.621 96.4216 185.009 96.4216H184.139C183.494 96.4216 182.914 96.067 182.688 95.4867L155.189 35.5898H166.408C167.021 35.5898 167.601 35.9767 167.859 36.557L184.3 73.3719H184.88L201.321 36.557C201.579 35.9767 202.159 35.5898 202.804 35.5898H214.055Z" fill="#2A276E"/>
<path d="M92.8115 93.6174C92.8759 93.6819 92.8759 93.7786 92.8115 93.8753C72.6309 129.981 43.5529 126.37 34.9133 124.178C33.914 123.92 32.9791 123.534 32.1409 122.986C1.51553 104.61 -8.99382 65.2808 8.34983 34.0752C8.38207 34.0107 8.44654 33.9785 8.51101 34.0107C8.57549 34.0107 8.6722 34.1074 8.63996 34.1719C1.80566 68.2144 46.9701 129.014 92.5536 93.6174C92.618 93.5529 92.7148 93.5529 92.8115 93.6174Z" fill="#703E97"/>
<path d="M76.7577 29.6588C76.7577 29.5943 76.8221 29.4976 76.9188 29.4976C118.311 28.8851 129.691 55.8676 132.141 64.4428C132.399 65.4099 132.56 66.4092 132.528 67.4086C131.883 103.095 103.095 131.819 67.3766 132.463C67.3121 132.463 67.2154 132.431 67.2154 132.334C67.1832 132.238 67.2477 132.173 67.3444 132.141C100.226 121.051 130.304 51.5801 76.8544 29.8199C76.8221 29.7877 76.7577 29.7232 76.7577 29.6588Z" fill="#F1CB14"/>
<path d="M29.3366 75.4347C29.2399 75.4992 29.1432 75.467 29.1109 75.4025C7.86656 39.877 25.5648 16.5373 31.7866 10.1543C32.4636 9.41282 33.2695 8.80031 34.1399 8.31676C65.4101 -8.96242 104.74 1.57917 123.115 32.1723C123.179 32.269 123.179 32.3658 123.115 32.4302C123.018 32.4625 122.921 32.4625 122.857 32.398C96.8092 9.44506 21.5029 18.1491 29.4011 75.2736C29.4011 75.338 29.4011 75.4025 29.3366 75.4347Z" fill="#2A276E"/>
<path fill-rule="evenodd" clip-rule="evenodd" d="M94.0039 53.2882C97.7756 61.3475 97.8401 70.664 94.1973 78.7878C94.1328 78.9168 94.0683 79.0565 94.0039 79.2069C93.6493 79.9806 93.2624 80.7543 92.8433 81.4958C92.7789 81.6032 92.7036 81.7214 92.6177 81.8504C90.0064 86.2669 86.2992 89.9742 81.8827 92.5854C67.3114 101.225 48.4848 96.4216 39.8775 81.8504C39.7915 81.7214 39.7163 81.6032 39.6518 81.4958C39.265 80.7543 38.8459 79.9806 38.4913 79.2069C38.4268 79.0565 38.3623 78.9168 38.2979 78.7878C34.6551 70.664 34.7195 61.3475 38.4913 53.2882C38.5235 53.1592 38.588 53.0625 38.6525 52.9335C39.0393 52.1384 39.4477 51.3754 39.8775 50.6447L40.1354 50.2256C42.6499 46.0992 46.1315 42.6499 50.2579 40.1031C64.7002 31.2701 83.559 35.8156 92.392 50.2256L92.6499 50.6447C93.1012 51.3754 93.5096 52.1384 93.8749 52.9335C93.9394 53.0625 94.0039 53.1592 94.0361 53.2882H94.0039ZM90.8769 52.9335H80.6254L80.7221 53.2882C81.5925 56.9632 82.1083 60.735 82.1728 64.5067H94.1973C93.9716 60.606 92.9078 56.7698 91.1025 53.2882L90.8769 52.9335ZM79.4649 67.2147H67.5693V78.7878H78.0787C78.9491 75.0805 79.4004 71.341 79.4649 67.537C79.4649 67.4403 79.4649 67.2791 79.4649 67.2147ZM64.9259 78.7878V67.2147H53.0303C53.0303 67.3221 53.0303 67.4296 53.0303 67.537C53.0948 71.341 53.5783 75.0805 54.4165 78.7878H64.9259ZM53.0625 64.5067H64.9259V52.9335H54.6099C54.5884 53.041 54.5562 53.1592 54.5132 53.2882C53.6428 56.9632 53.127 60.735 53.0625 64.5067ZM67.5693 52.9335V64.5067H79.4649C79.3682 60.735 78.8846 56.9632 77.9819 53.2882C77.9605 53.1592 77.9282 53.041 77.8852 52.9335H67.5693ZM74.2424 39.4261C74.1994 39.4261 74.1672 39.4369 74.1457 39.4584C74.0812 39.4906 74.0812 39.5551 74.1457 39.6196C76.4668 42.1663 78.4333 45.8414 79.8517 50.2256H89.2005C85.5899 45.0677 80.303 41.2314 74.2424 39.4261ZM67.6983 38.3945C67.6338 38.3945 67.5693 38.459 67.5693 38.5235V50.2256H77.1115C74.9839 43.7782 71.6312 39.3294 67.7627 38.3945C67.7412 38.3945 67.7198 38.3945 67.6983 38.3945ZM64.9259 38.5235C64.9259 38.5235 64.9259 38.5127 64.9259 38.4913C64.8936 38.4268 64.8291 38.3623 64.7647 38.3945C60.8962 39.3294 57.5113 43.7782 55.3836 50.2256H64.9259V38.5235ZM58.3817 39.4906C58.3817 39.4261 58.3172 39.3939 58.2527 39.4261C52.1921 41.2314 46.9375 45.0354 43.2947 50.2256H52.6757C54.0619 45.8414 56.0284 42.1663 58.3817 39.6196C58.4032 39.5766 58.4032 39.5336 58.3817 39.4906ZM38.3301 64.5067H50.3546C50.4513 60.735 50.9671 56.9632 51.8375 53.2559L51.902 52.9335H41.6828L41.4571 53.2559C39.6518 56.7375 38.5558 60.5738 38.3301 64.5067ZM38.2979 67.537C38.4913 71.47 39.4907 75.274 41.2315 78.7878H51.7408C50.9026 75.0805 50.4191 71.341 50.3546 67.537V67.2147H38.3301C38.3301 67.3221 38.3301 67.4296 38.3301 67.537H38.2979ZM42.7789 81.4958C46.4217 87.0406 51.902 91.1347 58.285 93.0367C58.3065 93.0582 58.3387 93.0582 58.3817 93.0367C58.4139 92.9722 58.4139 92.9078 58.3817 92.8755C55.9639 90.2321 53.9652 86.4281 52.5467 81.8504L52.45 81.4958H42.7789ZM64.9259 81.4958H55.158C57.2534 88.3301 60.735 93.1334 64.7647 94.0683C64.7647 94.0898 64.7754 94.1005 64.7969 94.1005C64.8614 94.0683 64.9259 94.0038 64.9259 93.9393V81.4958ZM67.7305 94.1005C71.7602 93.1334 75.2418 88.3301 77.3372 81.4958H67.5693V93.9716C67.5693 93.9716 67.5801 93.9823 67.6015 94.0038C67.6015 94.0683 67.6983 94.1328 67.7627 94.1005H67.7305ZM89.7163 81.4958H80.0774L79.9807 81.8504C78.5622 86.4281 76.5313 90.2321 74.1457 92.8755C74.1027 92.9185 74.092 92.9615 74.1135 93.0045C74.1135 93.0367 74.178 93.0689 74.2424 93.0689C80.6254 91.1669 86.1057 87.0728 89.7163 81.4958ZM94.1973 67.5693C94.1973 67.4726 94.1973 67.3114 94.1973 67.2147H82.1728V67.5693C82.1083 71.341 81.657 75.1128 80.7866 78.7878H91.2637C93.0368 75.3062 94.0361 71.47 94.1973 67.5693Z" fill="#2A276E"/>
</g>
<defs>
<clipPath id="clip0_29_1367">
<rect width="500" height="132.495" fill="white"/>
</clipPath>
</defs>
</svg>
