<svg width="500" height="201" viewBox="0 0 500 201" fill="none" xmlns="http://www.w3.org/2000/svg">
<g clip-path="url(#clip0_29_1366)">
<mask id="mask0_29_1366" style="mask-type:luminance" maskUnits="userSpaceOnUse" x="-174" y="0" width="849" height="201">
<path d="M-173.916 0.0126953H674.048V200.11H-173.916V0.0126953Z" fill="white"/>
</mask>
<g mask="url(#mask0_29_1366)">
<path d="M396.064 181.449L411.086 182.167L423.11 181.605L405.59 200.094L396.064 181.449ZM448.875 18.2074L431.667 19.0506L449.343 0.03125L458.806 18.7071L448.875 18.2074ZM450.312 33.4791L416.458 35.1031L430.324 20.456L439.818 20.9244L459.493 19.9563L466.989 34.7908L450.811 34.01L450.312 33.4791ZM461.523 48.3448L401.155 51.2492L415.084 36.5709L454.715 38.476C454.278 37.9138 453.82 37.3621 453.341 36.8208L467.707 36.1337L475.171 50.9057L462.616 50.3123C462.263 49.6461 461.898 48.9902 461.523 48.3448ZM468.175 63.3667L385.946 67.3017L399.874 52.5921L465.271 55.7464C464.855 54.7679 464.407 53.8101 463.928 52.8732L475.889 52.2798L483.385 67.0831L469.081 66.396C468.81 65.3758 468.509 64.366 468.175 63.3667ZM471.423 78.6071L370.705 83.4479L384.634 68.7071L470.58 72.8295C470.351 71.5803 470.091 70.3311 469.799 69.0818L484.041 68.3948L491.536 83.1668L471.736 82.2299C471.673 81.0015 471.569 79.7939 471.423 78.6071ZM471.58 94.035L355.371 99.6252L369.425 84.7908L471.861 89.694C471.881 88.8195 471.892 87.945 471.892 87.0706V85.5715L492.254 84.6034L499.843 99.5316L471.111 98.1574C471.299 96.8041 471.455 95.43 471.58 94.035ZM468.238 110.681L362.741 115.74L355.184 100.843L469.487 106.309C469.831 104.934 470.143 103.56 470.424 102.155L499.656 100.75L485.571 115.646L466.801 114.741C467.322 113.408 467.801 112.055 468.238 110.681ZM460.462 127.577L370.924 131.855L363.491 117.146L463.616 121.955C464.282 120.623 464.917 119.269 465.521 117.895L484.29 116.989L470.299 131.761L458.119 131.168C458.931 129.981 459.712 128.795 460.462 127.577ZM446.127 144.722L379.075 147.939L371.611 133.198L453.528 137.133C454.465 136.03 455.361 134.905 456.214 133.76L468.987 133.167L454.996 147.908L443.035 147.345C444.097 146.492 445.127 145.617 446.127 144.722ZM413.866 162.742L387.257 164.023L379.793 149.313L436.57 152.03C437.611 151.364 438.631 150.666 439.631 149.938L453.716 149.282L439.787 163.991L413.866 162.742ZM409.962 179.45L395.408 180.169L387.913 165.397L413.928 166.646L438.35 165.459L424.453 180.169L409.962 179.45Z" fill="#235492"/>
<path fill-rule="evenodd" clip-rule="evenodd" d="M315.615 35.6342H349.657L343.723 63.523H355.653L350.968 85.6342H339.038L330.044 127.92C328.732 134.041 329.044 136.696 334.666 136.696C337.289 136.696 338.913 136.509 340.225 136.165L335.416 158.807C332.542 159.151 323.423 159.838 318.364 159.838C298.876 159.838 289.382 159.151 293.941 137.758L304.997 85.6342H294.66L299.344 63.523H309.713L315.615 35.6342ZM235.572 127.92C235.072 131.949 234.604 134.947 235.353 137.227C236.103 139.507 237.883 140.912 241.755 140.912C247.72 140.912 249.969 135.291 250.344 133.542C251.312 128.982 250.562 127.577 239.194 123.204C218.926 115.459 210.181 110.369 213.866 93.0046C217.926 73.8915 231.543 61.087 257.839 61.087C295.722 61.087 291.318 81.7929 289.475 90.5686H260.712C261.212 88.1014 261.462 85.2907 260.743 83.7291C259.9 81.949 258.151 81.0746 254.466 81.0746C250.968 81.0746 247.002 82.2925 245.909 87.5705C244.941 92.1301 249.126 93.879 268.114 101.093C276.858 104.404 287.477 108.995 283.198 129.169C278.201 152.655 258.557 160.931 237.508 160.931C212.773 160.931 200.656 154.435 205.747 127.92H235.572ZM111.274 33.167H144.254L96.9396 158.464H59.4005L66.7709 74.2351H66.4274L38.5386 158.464H0.28125L6.40242 33.167H40.4124L29.7941 121.955H30.1376L60.0564 33.167H90.9433L84.5099 121.955H84.8846L111.274 33.167ZM153.623 128.982C152.561 134.073 151.468 140.912 158.464 140.912C165.147 140.912 167.146 134.76 169.207 125.11H200.063C197.314 138.101 191.88 147.033 184.041 152.655C176.171 158.276 165.959 160.9 154.404 160.9C116.865 160.9 117.739 137.758 123.454 110.9C129.107 84.2288 138.07 61.087 175.609 61.087C214.366 61.087 209.588 85.2907 203.279 114.928L202.936 116.521H156.277L153.623 128.982ZM176.015 93.0046C177.983 83.6979 176.452 81.0746 170.987 81.0746C166.084 81.0746 163.242 83.6979 161.274 93.0046L159.931 99.8753H174.641L176.015 93.0046Z" fill="#235492"/>
<path d="M476.42 27.5766H474.047V26.7646H479.731V27.5766H477.389V33.8852H476.42V27.5766ZM480.543 26.7959H481.854L484.103 32.7609L486.352 26.7959H487.632V33.9164H486.758V27.9826H486.726L484.509 33.9164H483.697L481.48 27.9826H481.448V33.9164H480.543V26.7959Z" fill="#235492"/>
</g>
</g>
<defs>
<clipPath id="clip0_29_1366">
<rect width="500" height="200.187" fill="white"/>
</clipPath>
</defs>
</svg>
