<svg width="500" height="91" viewBox="0 0 500 91" fill="none" xmlns="http://www.w3.org/2000/svg">
<g clip-path="url(#clip0_29_1362)">
<path fill-rule="evenodd" clip-rule="evenodd" d="M484.669 28.4635H474.032V24.8194H499.738V28.4635H489.101V61.3591H484.669V28.4635ZM448.228 24.8522H469.534V28.4635H452.66V40.8732H466.251V44.5173H452.66V57.7478H470.453V61.3919H448.228V24.8522ZM404.498 24.8522H410.67L421.964 53.3158L432.896 24.8522H439.035V61.3591H434.603V30.6303L422.489 61.3591H421.11L408.569 30.6303V61.3591H404.498V24.8522ZM361.261 43.3683V42.9415C361.261 32.5672 368.516 24.3926 379.252 24.3926C389.987 24.3926 397.078 32.5672 397.078 42.843V43.2698C397.078 53.5784 389.987 61.8515 379.35 61.8515C368.582 61.8515 361.261 53.5784 361.261 43.3683ZM392.482 43.2041V42.8102C392.482 34.6355 387.689 27.971 379.252 27.971C370.782 27.971 365.857 34.2087 365.857 42.9087V43.3026C365.857 52.1667 371.734 58.1746 379.35 58.1746C387.492 58.1746 392.482 52.0354 392.482 43.2041ZM349.18 24.8522H353.612V61.3919H349.18V24.8522ZM317.138 24.8522H328.103C334.899 24.8522 339.856 27.1175 339.856 34.3072V34.5042C339.856 37.8529 338.543 40.8076 334.34 42.2192C339.659 43.4996 341.662 46.2245 341.662 50.9848V51.1818C341.662 58.0761 336.967 61.3919 329.646 61.3919H317.138V24.8522ZM328.103 40.8076C333.487 40.8076 335.522 38.8706 335.522 34.3729V34.1759C335.522 30.0065 333.126 28.3322 328.004 28.3322H321.471V40.8076H328.103ZM329.547 57.9119C334.866 57.9119 337.295 55.581 337.295 51.1161V50.9192C337.295 46.4215 334.8 44.2875 328.924 44.2875H321.471V57.9119H329.547ZM271.504 24.8522H282.502C289.495 24.8522 295.273 27.7084 295.273 35.0295V35.2265C295.273 41.2672 291.235 44.2219 286.212 45.2068L297.407 61.3919H292.449L281.55 45.5022H275.936V61.3919H271.504V24.8522ZM282.797 41.9566C288.017 41.9566 290.808 39.7242 290.808 35.2265V35.0295C290.808 30.0722 287.755 28.4307 282.797 28.4307H275.936V41.9566H282.797ZM242.614 24.8522H263.92V28.4963H247.046V40.906H260.637V44.5173H247.046V57.7478H264.839V61.3919H242.614V24.8522ZM198.851 24.8522H205.056L216.35 53.3158L227.282 24.8522H233.421V61.3919H228.956V30.6303L216.842 61.3919H215.463L202.955 30.6303V61.3919H198.851V24.8522ZM155.122 24.8522H161.327L172.62 53.3158L183.553 24.8522H189.692V61.3919H185.227V30.6303L173.113 61.3919H171.734L159.226 30.6303V61.3919H155.122V24.8522ZM141.235 24.8522H145.7V61.3591H141.235V24.8522ZM107.42 60.6697L128.103 28.4963H109.258V24.8522H134.242V25.5416L114.117 57.6165H133.947V61.3919H107.42V60.6697Z" fill="#4F4C4D"/>
<path fill-rule="evenodd" clip-rule="evenodd" d="M45.043 90.0529C20.158 90.0529 0.0332031 69.961 0.0332031 45.0431C0.0332031 20.158 20.158 0.0332031 45.043 0.0332031C69.961 0.0332031 90.0857 20.158 90.0857 45.0431C90.0857 69.961 69.961 90.0529 45.043 90.0529ZM14.544 73.9006L44.9446 16.1855L44.6491 16.1527C29.6458 16.1527 17.2689 27.7745 16.0214 42.4823V14.938H74.3274C66.7765 7.58409 56.435 3.05356 45.043 3.05356C19.8953 3.05356 3.05356 19.8953 3.05356 45.0431C3.05356 56.2381 7.41994 66.3825 14.544 73.9006ZM15.2991 74.6557C22.8828 82.305 33.4212 87.0654 45.043 87.0654C68.2538 87.0654 87.0654 68.2538 87.0654 45.0431C87.0654 33.6182 82.4692 23.244 75.0824 15.6603L44.9446 73.4738C59.3241 73.3096 71.1429 62.5742 73.047 48.6872V74.6557H15.2991Z" fill="#1081C5"/>
</g>
<defs>
<clipPath id="clip0_29_1362">
<rect width="500" height="90.2823" fill="white"/>
</clipPath>
</defs>
</svg>
