<svg width="500" height="195" viewBox="0 0 500 195" fill="none" xmlns="http://www.w3.org/2000/svg">
<path d="M201.282 142.357L212.927 158.917C205.235 166.716 178.098 191.182 137.5 191.182C80.235 191.182 76.6026 148.874 19.6581 148.874H2.99145L0 131.673L64.4231 66.0751H14.4231L18.2692 45.8828H100.107L96.5812 64.3657L34.0812 128.148C82.0513 128.148 93.8034 171.417 140.812 171.417C169.551 171.31 193.056 151.332 201.282 142.357Z" fill="#F65C00"/>
<path d="M158.441 43.5332C123.291 43.5332 99.0391 73.7682 99.0391 108.704C99.0391 133.277 115.065 151.226 141.133 151.226C176.283 151.226 200.748 121.204 200.748 86.2682C200.748 63.405 186.219 43.5332 158.441 43.5332ZM144.552 132.208C132.052 132.208 124.466 122.273 124.466 108.063C124.466 88.8324 135.898 62.5503 155.556 62.5503C170.62 62.5503 175.214 75.6913 175.214 86.2682C175.214 106.781 162.928 132.208 144.552 132.208Z" fill="#F65C00"/>
<path d="M304.488 72.4862C304.488 55.3922 291.56 43.5332 271.261 43.5332C235.684 43.5332 212.928 77.4007 212.928 108.49C212.928 133.704 226.71 151.226 255.235 151.226C267.735 151.226 281.517 148.234 291.667 142.999L289.317 125.05C281.945 128.896 272.65 131.781 261.005 131.781C251.282 131.781 243.911 128.149 239.851 121.204C237.5 117.144 236.646 110.2 237.073 106.567C276.817 107.422 304.488 98.9819 304.488 72.4862ZM268.163 61.9093C275.962 61.9093 281.304 65.9691 281.304 72.4862V72.6999C281.304 84.9862 265.064 88.5118 239.637 88.1913C242.522 75.6913 252.671 61.9093 268.163 61.9093Z" fill="#F65C00"/>
<path d="M474.358 61.9093C482.798 61.9093 489.85 64.4734 493.589 66.6101L499.999 48.8751C495.298 46.0973 486.431 43.5332 475.64 43.5332C451.281 43.5332 433.974 57.5289 433.974 77.4007C433.974 89.2597 442.414 97.9135 454.273 104.217C464.422 109.452 467.841 113.512 467.841 120.029C467.841 126.76 461.965 132.529 452.029 132.743C442.734 132.743 432.585 128.683 427.243 125.798L420.939 143.533C426.388 147.593 437.606 150.905 449.679 151.119C474.465 151.119 493.482 138.405 493.482 115.755C493.482 102.614 483.333 94.1742 472.115 88.0845C463.461 83.5973 458.76 79.6443 458.76 73.8751C458.76 67.0375 465.063 61.9093 474.358 61.9093Z" fill="#F65C00"/>
<path d="M402.137 17.9987C402.137 9.13115 408.867 2.93457 416.987 2.93457C424.573 2.93457 430.128 8.49013 430.128 16.2893C429.914 25.3705 423.184 31.1397 414.85 31.1397H414.53C407.158 31.0329 402.137 25.5841 402.137 17.9987Z" fill="#F65C00"/>
<path d="M378.953 148.874H403.526L423.184 45.8828H398.718L378.953 148.874Z" fill="#F65C00"/>
<path d="M352.778 131.46C345.513 131.46 341.774 126.973 343.59 117.785L354.06 64.9001H377.137L380.983 45.883H357.692L362.821 19.4941L337.393 26.8659L333.547 45.883H319.124L315.385 64.9001H329.808L319.124 119.28C315.385 138.832 325.214 151.118 347.757 151.118C352.885 151.118 358.547 149.943 363.889 148.554L364.744 129.43C360.684 130.605 356.731 131.46 352.778 131.46Z" fill="#F65C00"/>
</svg>
