<svg width="500" height="282" viewBox="0 0 500 282" fill="none" xmlns="http://www.w3.org/2000/svg">
<g clip-path="url(#clip0_10_16130)">
<path fill-rule="evenodd" clip-rule="evenodd" d="M96.3221 0H117.661C119.98 5.75916 122.068 11.6176 124.321 17.443C144.864 71.8791 165.408 126.315 185.951 180.751C171.04 180.751 156.141 180.751 141.252 180.751C134.592 162.018 127.966 143.317 121.339 124.583C118.058 115.448 115.01 106.18 111.696 97.0451C105.567 79.7676 99.503 62.457 93.34 45.1796C85.5202 67.3225 77.7336 89.4655 69.8476 111.575C80.6826 111.575 91.5175 111.575 102.319 111.575C106.759 124.109 111.188 136.631 115.606 149.142C95.9907 149.142 76.3419 149.175 56.7263 149.142C52.949 159.668 49.2379 170.226 45.4606 180.751C30.9145 180.718 16.3684 180.751 1.82239 180.751C22.8628 124.749 43.9364 68.7789 64.9768 12.7761C65.9708 10.3599 67.2299 8.04296 68.9529 6.05704C71.6368 3.14437 75.4142 1.39014 79.2909 0.794366C84.9238 -0.0661971 90.6561 0.529577 96.3221 0ZM206.925 0H272.432C277.999 0.23169 283.598 0.496479 289.032 1.78732C302.982 4.7993 315.938 12.6106 324.652 23.9634C334.891 36.9711 338.933 54.2817 336.647 70.5993C334.957 83.574 328.926 95.9528 319.582 105.154C309.907 114.819 296.852 120.843 283.3 122.597C277.27 123.458 271.173 123.226 265.076 123.259C259.278 123.259 253.446 123.226 247.614 123.259C247.614 142.423 247.614 161.587 247.614 180.751C234.051 180.751 220.477 180.751 206.892 180.751C206.892 120.479 206.826 60.2394 206.925 0ZM247.614 38.4937C247.614 53.9838 247.614 69.474 247.614 84.9641C256.064 84.931 264.513 84.9641 272.995 84.931C278.993 84.8648 284.957 82.4486 289.099 78.0796C296.985 69.9042 297.581 56.0359 290.722 47.0662C286.779 41.8697 280.351 38.6592 273.791 38.4937C265.065 38.4937 256.34 38.4937 247.614 38.4937ZM408.085 0H429.49C432.869 8.57254 436.017 17.2775 439.331 25.8831C458.781 77.5169 478.297 129.118 497.747 180.718C482.869 180.751 467.959 180.751 453.082 180.751C449.337 170.193 445.56 159.635 441.816 149.076C422.167 148.977 402.485 149.242 382.836 149.142C387.243 136.631 391.65 124.087 396.123 111.575C406.958 111.575 417.826 111.575 428.694 111.575C420.808 89.4324 413.022 67.2894 405.169 45.1465C393.704 77.6493 382.207 110.152 370.709 142.655C366.17 155.332 361.895 168.108 357.29 180.751C342.744 180.751 328.197 180.751 313.651 180.751C334.725 124.649 355.832 68.5803 376.905 12.4782C378.396 9.06901 380.417 5.62676 383.665 3.60775C388.204 0.562676 393.837 0.23169 399.138 0.297887C402.121 0.0661972 405.136 0.397183 408.085 0Z" fill="#CA9D39"/>
<path fill-rule="evenodd" clip-rule="evenodd" d="M385.653 196.44C388.469 195.613 391.716 196.44 393.638 198.691C396.223 201.603 395.924 206.535 393.009 209.084C389.662 212.228 383.433 211.434 381.279 207.296C378.86 203.358 381.08 197.532 385.653 196.44ZM355.898 201.703C357.985 198.558 361.862 197.797 365.176 196.506C365.176 203.589 365.176 210.705 365.176 217.789C368.754 217.789 372.333 217.789 375.911 217.789C375.944 221.429 375.911 225.103 375.944 228.744C372.333 228.744 368.754 228.744 365.176 228.744C365.176 235.099 365.176 241.443 365.176 247.776C365.142 249.861 366.269 252.013 368.257 252.807C370.676 253.8 373.36 253.27 375.911 253.403C375.933 257.044 375.933 260.695 375.911 264.358C371.504 264.259 366.965 264.755 362.691 263.498C359.642 262.637 356.859 260.784 355.235 258.07C353.744 255.587 353.214 252.641 353.181 249.795C353.181 242.778 353.181 235.761 353.181 228.744C350.729 228.744 348.277 228.744 345.858 228.744C345.858 225.103 345.825 221.429 345.858 217.789C347.846 217.722 349.901 217.987 351.856 217.458C353.313 216.961 353.91 215.339 353.81 213.916C353.91 209.812 353.115 205.178 355.898 201.703ZM16.8324 204.284C23.89 200.478 32.273 199.419 40.0928 200.842C47.6475 202.232 54.7051 206.27 59.5096 212.261C62.4917 215.935 64.5792 220.304 65.6726 224.905C61.1664 224.938 56.6932 224.905 52.22 224.938C50.1326 219.808 45.8913 215.637 40.6561 213.784C35.6859 211.897 29.9868 212.063 25.116 214.115C19.7813 216.365 15.5732 221.098 13.9828 226.659C12.1604 232.848 13.1544 239.965 17.0643 245.194C20.1127 249.431 24.9834 252.211 30.1193 252.939C35.4208 253.8 41.12 252.542 45.4606 249.365C48.4758 247.18 50.7621 244.168 52.22 240.792C56.6932 240.825 61.1664 240.792 65.6395 240.825C63.9828 248.074 59.609 254.66 53.5785 259.063C41.6832 267.767 24.0557 267.569 12.3923 258.533C6.46125 253.965 2.31943 247.213 0.828378 239.898C-0.762079 232.153 0.298225 223.746 4.14183 216.796C7.05767 211.5 11.4977 207.098 16.8324 204.284ZM89.7946 216.829C96.0239 216.134 102.585 217.458 107.754 221.098C112.657 224.408 116.137 229.638 117.429 235.364C118.986 242.348 117.594 250.093 113.188 255.819C109.543 260.684 103.943 263.961 97.9788 264.987C92.0477 266.046 85.719 265.252 80.3844 262.372C74.7846 259.394 70.4772 254.032 68.7873 247.908C66.8324 240.693 68.0252 232.517 72.5646 226.46C76.5739 220.966 83.0683 217.524 89.7946 216.829ZM89.894 228.612C85.5865 229.539 81.9748 232.981 80.782 237.217C79.2909 242.149 80.8814 248.008 85.0564 251.185C89.9934 255.157 97.9788 254.627 102.286 249.927C106.958 245.062 106.793 236.556 101.988 231.822C98.8734 228.777 94.1352 227.553 89.894 228.612ZM174.155 218.02C180.915 215.372 188.999 216.63 194.831 220.966C199.801 224.64 202.982 230.498 203.91 236.589C204.937 243.539 203.579 251.053 199.238 256.713C193.506 264.623 182.041 267.767 173.128 263.63C170.577 262.405 168.29 260.585 166.468 258.401C166.435 266.179 166.468 273.924 166.468 281.702C162.459 281.702 158.449 281.702 154.473 281.702C154.473 260.386 154.473 239.104 154.473 217.789C158.471 217.789 162.47 217.789 166.468 217.789C166.468 219.752 166.468 221.705 166.468 223.647C168.588 221.264 171.14 219.212 174.155 218.02ZM175.977 228.645C171.935 229.572 168.489 232.716 167.164 236.622C165.374 241.653 166.899 247.809 171.173 251.119C176.243 255.256 184.526 254.627 188.801 249.629C193.274 244.598 192.876 236.059 187.873 231.525C184.725 228.645 180.086 227.586 175.977 228.645ZM227.7 217.094C234.095 215.968 240.954 216.994 246.488 220.436C251.59 223.515 255.401 228.645 256.925 234.404C258.615 240.891 257.787 248.107 254.274 253.833C251.16 259.029 245.924 262.869 240.093 264.425C232.406 266.576 223.592 265.318 217.164 260.486C213.121 257.507 210.106 253.204 208.681 248.405C206.494 241.156 207.654 232.815 212.16 226.659C215.805 221.562 221.537 218.153 227.7 217.094ZM230.881 228.347C227.502 228.81 224.254 230.664 222.3 233.51C218.688 238.541 219.317 246.22 223.923 250.457C228.661 255.025 236.978 254.958 241.65 250.324C246.488 245.658 246.687 237.184 242.114 232.286C239.331 229.174 234.957 227.784 230.881 228.347ZM296.653 224.739C301.093 219.146 308.449 216.101 315.54 216.696C320.775 217.027 325.679 219.708 329.026 223.713C328.96 221.727 328.993 219.775 328.993 217.789C332.991 217.789 336.989 217.789 340.987 217.789C340.987 233.279 340.987 248.78 340.987 264.292C337.906 264.127 334.692 263.266 332.372 261.082C331.213 260.022 330.451 258.632 329.854 257.176C327.137 261.015 323.062 263.928 318.423 264.954C312.293 266.278 305.533 264.888 300.53 261.082C295.825 257.606 292.71 252.178 291.617 246.485C290.159 238.972 291.716 230.697 296.653 224.739ZM313.254 228.579C308.913 229.439 305.268 232.882 304.009 237.085C302.419 242.182 304.142 248.272 308.549 251.417C313.883 255.422 322.333 254.363 326.342 249.001C329.49 244.996 329.821 239.137 327.402 234.702C324.785 229.737 318.622 227.255 313.254 228.579ZM419.947 216.994C426.706 215.902 433.963 217.292 439.563 221.363C444.732 224.971 448.211 230.796 449.139 236.986C450.364 244.532 448.111 252.708 442.611 258.136C434.692 266.245 421.272 267.635 411.498 262.207C406.461 259.427 402.551 254.76 400.696 249.365C398.244 242.282 399.039 234.073 403.115 227.751C406.793 221.926 413.154 218.02 419.947 216.994ZM421.968 228.446C418.754 229.042 415.739 230.896 413.916 233.643C410.305 238.806 411.1 246.584 415.905 250.722C420.941 255.256 429.622 254.793 433.996 249.629C438.304 244.731 438.138 236.589 433.532 231.988C430.616 228.91 426.077 227.685 421.968 228.446ZM478.197 216.895C483.333 216.167 488.966 217.027 493.174 220.238C496.587 222.753 498.708 226.725 499.37 230.863C499.934 234.106 499.602 237.416 499.702 240.693C499.702 248.57 499.702 256.448 499.702 264.325C495.681 264.347 491.683 264.358 487.707 264.358C487.685 255.642 487.685 246.937 487.707 238.244C487.707 235.132 486.382 231.889 483.764 230.068C479.059 226.858 471.637 227.884 468.423 232.716C467.263 234.47 466.766 236.555 466.7 238.641C466.7 247.213 466.733 255.786 466.7 264.358C462.702 264.358 458.714 264.358 454.738 264.358C454.716 248.824 454.705 233.301 454.705 217.789C458.703 217.789 462.702 217.789 466.7 217.789C466.7 219.642 466.7 221.496 466.7 223.349C469.549 219.841 473.724 217.491 478.197 216.895ZM135.321 224.64C138.734 219.973 144.268 216.895 150.133 216.961C150.133 221.098 150.133 225.236 150.099 229.34C146.123 229.34 141.783 230.234 138.834 233.146C136.514 235.265 135.388 238.442 135.321 241.52C135.355 249.133 135.355 256.746 135.321 264.358C131.323 264.358 127.336 264.358 123.36 264.358C123.36 248.835 123.327 233.312 123.36 217.789C127.336 217.789 131.345 217.789 135.321 217.789C135.344 220.083 135.344 222.367 135.321 224.64ZM275.017 224.739C278.429 220.039 283.93 216.928 289.795 216.961C289.795 221.087 289.795 225.214 289.795 229.34C285.818 229.34 281.544 230.267 278.562 233.113C276.143 235.364 275.05 238.707 275.017 241.951C275.017 249.398 275.017 256.878 275.017 264.358C271.018 264.358 267.02 264.358 263.022 264.358C263.022 248.835 263.022 233.312 263.022 217.789C267.031 217.822 271.007 217.755 274.983 217.822C275.05 220.105 275.017 222.422 275.017 224.739ZM381.809 217.789C385.807 217.789 389.806 217.789 393.804 217.789C393.826 233.301 393.826 248.813 393.804 264.325C389.828 264.358 385.818 264.358 381.809 264.358C381.809 248.846 381.809 233.323 381.809 217.789Z" fill="black"/>
</g>
<defs>
<clipPath id="clip0_10_16130">
<rect width="500" height="282" fill="white"/>
</clipPath>
</defs>
</svg>
