<svg width="500" height="81" viewBox="0 0 500 81" fill="none" xmlns="http://www.w3.org/2000/svg">
<path d="M436.034 21.9986C433.297 21.0864 431.929 17.8937 432.841 15.157C433.754 12.4204 436.946 11.0521 439.683 11.9643C434.21 9.68374 427.824 12.8765 425.544 18.3497C423.263 23.823 426.456 30.2084 431.929 32.4889L485.749 52.1013L439.227 68.9771C433.754 71.2577 427.368 68.065 425.088 62.5917C422.807 56.6624 426 50.733 431.473 48.4525C422.807 51.6452 418.246 61.2234 421.439 69.8894C424.632 78.5554 434.21 83.1164 442.876 79.9237L493.503 61.6795C498.52 59.8551 501.257 54.3819 499.432 49.3648C498.52 46.6281 496.24 44.3476 493.503 43.4354L436.034 21.9986Z" fill="#1CA18A"/>
<path d="M485.749 28.8427L439.227 11.9668C433.754 9.68633 427.368 12.8791 425.088 18.3523C422.807 23.8256 426 30.211 431.473 32.4915C422.807 29.2988 418.246 19.7206 421.439 11.0547C424.632 2.38869 434.21 -2.17232 442.876 1.0204L493.503 19.2645C498.52 21.0889 501.257 26.5622 499.432 32.0354C498.52 34.772 496.24 37.0526 493.503 37.9648L435.578 58.9455C432.841 59.8577 431.473 63.0504 432.385 65.787C433.298 68.5236 436.49 69.8919 439.227 68.9797C433.754 71.2602 427.368 68.0676 425.088 62.5943C422.807 56.665 426 50.7356 431.473 48.4551L485.749 28.8427Z" fill="#61C799"/>
<path d="M16.8759 39.7881H9.12206V53.0151H17.332C21.893 53.0151 24.6297 50.7346 24.6297 46.1736C24.6297 42.5247 21.893 39.7881 16.8759 39.7881ZM15.5076 21.544H9.12206V32.9466H15.9636C20.5246 32.9466 22.3492 30.6661 22.3492 27.0172C22.3492 23.3684 19.6125 21.544 15.5076 21.544ZM0 14.2463H15.9636C25.5418 14.2463 31.9272 17.8952 31.9272 26.105C31.9272 31.1222 28.2784 34.771 23.7174 35.6832C31.0151 36.5954 34.6639 41.6126 34.6639 47.0858C34.6639 55.7518 27.8223 60.3128 18.7003 60.3128H0.456131V14.2463H0ZM118.587 40.2443H133.638C133.182 36.5954 130.446 33.4027 125.884 33.4027C121.78 32.9466 119.043 36.5954 118.587 40.2443ZM142.76 43.893C142.76 44.8052 142.76 45.2613 142.76 46.1736H118.587C118.587 50.7346 122.236 54.3834 126.797 54.3834C129.989 54.3834 131.814 53.0151 133.182 51.1907L140.936 53.9274C138.199 58.0323 133.638 61.225 126.797 61.225C117.219 61.225 109.465 54.3835 109.465 43.437C109.465 34.3149 115.394 26.105 126.341 26.105C136.831 26.5612 142.76 34.771 142.76 43.893ZM392.249 36.5954C392.249 34.3149 390.424 32.9466 388.6 32.9466C386.319 32.9466 385.407 34.3149 385.407 35.6832C385.407 37.5077 386.319 38.8759 391.793 40.7003C398.634 42.9808 401.371 46.1736 401.371 51.1907C401.371 57.1201 396.81 61.6811 388.6 61.6811C380.39 61.6811 376.285 57.1201 375.829 51.1907H384.039C384.039 53.9273 385.407 55.7517 388.6 55.7517C390.88 55.7517 392.249 54.3834 392.249 52.1029C392.249 49.8224 390.88 48.4541 385.863 47.0858C379.934 45.2614 376.741 42.0686 376.741 37.0515C376.741 31.1222 381.302 27.4734 388.6 27.4734C395.898 27.4734 400.003 31.5783 400.459 37.5076H392.249V36.5954ZM349.375 40.2443H364.426C363.97 36.5954 361.234 33.4027 356.673 33.4027C352.568 32.9466 349.831 36.5954 349.375 40.2443ZM373.549 43.893C373.549 44.8052 373.549 45.2613 373.549 46.1736H349.375C349.375 50.7346 353.024 54.3834 357.585 54.3834C360.778 54.3834 362.602 53.0151 363.97 51.1907L371.724 53.9274C368.987 58.0323 364.883 61.225 357.585 61.225C348.007 61.225 340.253 54.3835 340.253 43.437C340.253 34.3149 346.182 26.105 357.129 26.105C367.619 26.5612 373.549 34.771 373.549 43.893ZM304.677 11.5098H313.799V32.0344H314.255C316.536 28.3856 320.184 27.0172 323.833 27.0172C331.131 27.0172 336.148 32.0344 336.148 42.0687V60.7689H327.026V42.5248C327.026 37.5077 324.746 35.2271 321.097 35.2271C316.992 35.2271 314.255 37.9637 314.255 43.437V60.7689H305.133L304.677 11.5098ZM281.416 53.0151C285.977 53.0151 289.625 49.3663 289.625 43.893C289.625 38.4198 285.977 34.771 281.416 34.771C275.942 34.771 273.206 39.332 273.206 43.893C273.206 48.4541 275.486 53.0151 281.416 53.0151ZM298.292 59.4006C298.292 71.7154 292.818 78.1008 280.96 78.1008C273.206 78.1008 267.276 74.452 265.452 68.0665L273.662 64.8738C274.574 68.0665 276.855 70.347 281.416 70.347C286.889 70.347 289.625 66.6982 289.625 60.7689V56.6639C287.345 59.4006 284.152 61.225 279.135 61.225C270.925 61.225 263.628 54.8395 263.628 43.893C263.628 34.3149 270.469 26.5612 279.591 26.5612C284.608 26.5612 287.801 29.2978 289.625 31.5783H290.082V27.4734H298.748L298.292 59.4006ZM259.067 60.3128H249.945V56.2079C247.208 59.8567 244.015 61.225 240.366 61.225C234.893 61.225 228.508 58.0323 228.508 47.0858V27.9294H237.63V46.1736C237.63 50.7346 239.91 53.4712 243.559 53.4712C247.664 53.4712 249.945 50.7346 249.945 45.2614V27.9294H259.067V60.3128ZM212.544 40.7003H194.756V60.3128H185.178V13.7903H194.756V32.0344H212.544V13.7903H222.122V60.3128H212.544V40.7003ZM169.214 35.6832C167.846 35.6832 166.478 35.2271 164.653 35.2271C159.18 35.2271 156.443 38.4198 156.443 44.3492V60.3128H147.321V27.9294H156.443V32.9466C158.268 29.7539 161.461 27.0172 166.022 27.0172C167.39 27.0172 168.302 27.0173 169.214 27.4734V35.6832ZM90.3085 47.0858L88.028 48.9102V60.3128H78.9059V11.5098H88.028V38.8759L98.5183 27.9294H109.465L96.2378 41.1565L111.289 60.3128H100.343L90.3085 47.0858ZM55.6446 53.4712C60.2057 53.4712 63.8544 49.8224 63.8544 44.3492C63.8544 38.4198 60.2057 34.771 55.6446 34.771C49.7153 34.771 47.4348 39.332 47.4348 44.3492C47.4348 48.9102 50.1714 53.4712 55.6446 53.4712ZM72.5205 60.3128H63.8544V56.2079H63.3984C61.1179 58.9445 57.9251 61.225 52.908 61.225C46.5225 61.225 38.3128 56.2078 38.3128 43.893C38.3128 33.4027 45.6104 26.5612 53.8202 26.5612C58.8374 26.5612 62.03 29.2978 63.8544 31.5783H64.3106V27.4734H72.9765L72.5205 60.3128Z" fill="#0C2E21"/>
</svg>
