<svg width="500" height="118" viewBox="0 0 500 118" fill="none" xmlns="http://www.w3.org/2000/svg">
<path d="M48.5924 88.0926C45.5555 89.4739 40.6948 90.3763 36.061 90.3763C22.4507 90.3763 15.0411 82.0845 15.0411 71.1024C15.0411 58.7494 23.5757 51.4042 36.2472 51.4042C41.278 51.4042 45.6136 52.5201 48.5357 53.8447L50.8572 45.7979C48.5672 44.6029 43.2872 43.0851 35.8258 43.0851C17.0776 43.0851 4.24231 54.8661 4.24231 71.556C4.24231 87.8658 15.7733 98.8206 34.4417 98.8206C41.9592 98.8206 47.8454 97.3141 50.4273 96.0231L48.5924 88.0926ZM71.9177 98.8206C83.1246 98.8206 93.8036 91.7736 93.8036 77.947C93.8036 66.5063 85.3299 58.0319 72.6234 58.0319C59.4255 58.0319 50.5246 66.4573 50.5246 78.7787C50.5246 91.0274 59.9645 98.8214 71.8386 98.8214H71.9177V98.8206ZM72.008 91.4894C65.6933 91.4894 61.0833 86.2878 61.0833 78.4938C61.0833 71.7338 64.548 65.3589 72.2258 65.3589C79.8048 65.3589 83.0854 72.0559 83.0854 78.3216C83.0854 86.7961 78.189 91.4894 72.0892 91.4894H72.008ZM97.234 97.8608H107.508V75.3764C107.508 74.3591 107.645 73.183 107.965 72.3954C109.086 69.4341 112.06 66.2914 116.572 66.2914C122.493 66.2914 124.949 70.6914 124.949 76.8339V97.8608H135.223V75.5619C135.223 62.1714 126.986 58.0312 120.111 58.0312C112.856 58.0312 108.336 62.2603 106.656 65.2455H106.407L105.903 58.9882H96.9141C97.108 62.3282 97.234 66.227 97.234 70.7516V97.8608ZM159.881 98.8206C171.088 98.8206 181.767 91.7736 181.767 77.947C181.767 66.5063 173.295 58.0319 160.59 58.0319C147.39 58.0319 138.49 66.4573 138.49 78.7787C138.49 91.0274 147.928 98.8214 159.802 98.8214H159.881V98.8206ZM159.973 91.4894C153.658 91.4894 149.047 86.2878 149.047 78.4938C149.047 71.7338 152.512 65.3589 160.191 65.3589C167.769 65.3589 171.049 72.0559 171.049 78.3216C171.049 86.7961 166.154 91.4894 160.053 91.4894H159.973ZM217.577 89.0468C215.432 89.9135 212.634 90.7858 208.67 90.7858C201.474 90.7858 195.56 86.3039 195.56 78.3237C195.513 71.2081 200.481 65.8826 208.627 65.8826C212.669 65.8826 215.341 66.7059 217.168 67.6181L219.06 60.0187C216.417 58.9014 212.343 58.0319 208.263 58.0319C193.469 58.0319 185.012 67.2078 185.012 78.8495C185.012 90.6745 193.44 98.8206 206.61 98.8206C212.158 98.8206 216.746 97.6417 219.057 96.5699L217.577 89.0468ZM240.655 98.8206C251.86 98.8206 262.539 91.7736 262.539 77.947C262.539 66.5063 254.067 58.0319 241.36 58.0319C228.161 58.0319 219.262 66.4573 219.262 78.7787C219.262 91.0274 228.702 98.8214 240.574 98.8214H240.655V98.8206ZM240.746 91.4894C234.43 91.4894 229.82 86.2878 229.82 78.4938C229.82 71.7338 233.284 65.3589 240.963 65.3589C248.542 65.3589 251.821 72.0559 251.821 78.3216C251.821 86.7961 246.926 91.4894 240.825 91.4894H240.746ZM307.618 97.8608H317.892V75.0592C317.892 73.9377 317.961 72.9562 318.349 72.0755C319.505 69.2751 322.481 66.3271 326.868 66.3271C332.914 66.3271 335.334 70.7628 335.334 76.8696V97.8608H345.609V75.5297C345.609 62.1721 337.44 58.0319 330.677 58.0319C328.107 58.0319 325.574 58.7172 323.46 59.8696C321.237 60.9785 319.389 62.7028 318.051 64.6896H317.892V40.6895H307.617V97.8608H307.618ZM361.97 97.8608V58.9889H351.692V97.8608H361.97ZM356.837 52.9654C360.605 52.9654 362.883 50.38 362.883 47.3059C362.837 44.1969 360.569 41.6906 356.872 41.6906C353.172 41.6906 350.826 44.2326 350.826 47.3059C350.826 50.3793 353.104 52.9654 356.757 52.9654H356.837ZM414.749 97.8608V58.9889H404.475V97.8608H414.749ZM409.619 52.9654C413.388 52.9654 415.666 50.38 415.666 47.3059C415.622 44.1969 413.355 41.6906 409.655 41.6906C405.955 41.6906 403.608 44.2326 403.608 47.3059C403.608 50.3793 405.886 52.9654 409.54 52.9654H409.619ZM422.604 113.832H432.875V93.2669H433.036C435.32 96.8002 440.015 98.8214 445.414 98.8214C455.103 98.8214 464.86 91.8149 464.86 77.7202C464.86 65.4289 456.311 58.0319 447.008 58.0319C440.204 58.0319 435.161 60.7377 431.97 65.3827H431.809L431.308 58.9889H422.284C422.478 62.7763 422.604 67.1231 422.604 72.0923V113.832ZM432.875 76.3446C432.875 75.5815 433.047 74.7554 433.234 73.9902C434.434 69.0896 438.763 65.9519 443.437 65.9519C450.563 65.9519 454.405 71.6743 454.405 78.2866C454.405 86.1681 450.016 91.0358 443.138 91.0358C438.044 91.0358 434.1 87.4618 433.094 83.3951C432.946 82.5718 432.874 81.7625 432.874 80.9063V76.3446H432.875ZM466.61 95.9356C469.848 97.6123 474.371 98.8206 479.627 98.8206C490.875 98.8206 496.393 93.3488 496.393 86.5279C496.349 80.5058 492.915 76.9732 485.206 74.6679C479.901 73.071 477.719 71.892 477.719 69.3081C477.719 66.8151 479.833 65.1678 483.511 65.1678C487.402 65.1678 491.015 66.6729 492.702 67.5964L494.717 60.4954C492.3 59.1597 488.121 58.0312 483.459 58.0312C473.699 58.0312 467.75 63.4939 467.75 70.3771C467.706 75.2013 471.229 79.4753 479.449 81.8024C484.621 83.309 486.382 84.5565 486.382 87.2553C486.382 89.7168 484.426 91.5923 479.673 91.5923C475.842 91.5923 471.089 89.973 468.68 88.491L466.61 95.9356ZM266.133 97.8391H276.317V75.9504C277.823 76.3061 279.776 76.4293 281.934 76.4293C289.722 76.4293 296.099 74.5258 300.319 70.5549C303.486 67.6587 305.105 63.3056 305.105 58.321C305.105 53.1103 302.827 48.8699 299.523 46.2691C296.009 43.4184 290.548 41.7515 282.858 41.7515C275.318 41.7515 269.975 42.2765 266.132 42.8793V97.8391H266.133ZM276.317 50.0159C277.457 49.7863 279.711 49.5238 282.916 49.5238C290.075 49.5238 294.921 52.3542 294.921 58.573C294.921 64.9227 289.979 68.5205 282.051 68.5205C279.653 68.5205 277.777 68.3727 276.317 67.9709V50.0159Z" fill="black"/>
<path d="M311.635 3.18164C297.73 8.0108 294.081 12.7951 286.574 18.8228C265.304 24.4221 246.66 15.4415 230.433 8.0262C238.102 13.5652 245.687 25.3385 248.892 42.0249C261.153 38.3453 275.92 28.4223 288.921 19.1533C296.209 15.9224 304.202 11.1535 311.635 3.18164Z" fill="#D11E0F"/>
<path d="M369.023 97.8608H379.297V40.6895H369.023V97.8608Z" fill="black"/>
<path d="M387.148 97.8608H397.422V40.6895H387.148V97.8608Z" fill="black"/>
</svg>
