<svg width="500" height="98" viewBox="0 0 500 98" fill="none" xmlns="http://www.w3.org/2000/svg">
<g clip-path="url(#clip0_10_16154)">
<path d="M123.932 48.9167V48.7831C123.86 45.6029 124.43 42.4407 125.61 39.4865C126.79 36.5322 128.554 33.8468 130.797 31.5912C133.04 29.3356 135.716 27.5563 138.663 26.3603C141.611 25.1642 144.77 24.5759 147.951 24.6307C151.346 24.498 154.732 25.0763 157.892 26.3286C161.051 27.5808 163.913 29.4795 166.296 31.9028L161.026 37.9735C159.322 36.1979 157.283 34.7768 155.028 33.7921C152.772 32.8073 150.344 32.2783 147.884 32.2355C139.076 32.2355 132.537 39.5075 132.537 48.6477V48.7813C132.537 57.9232 139.009 65.3271 147.951 65.3271C153.689 65.3271 157.358 63.0577 161.36 59.3232L166.63 64.6603C164.284 67.3589 161.366 69.5013 158.089 70.9322C154.812 72.3632 151.257 73.0467 147.683 72.9332C144.53 72.9752 141.401 72.3807 138.483 71.1852C135.565 69.9897 132.918 68.2179 130.701 65.9758C128.483 63.7336 126.741 61.0672 125.578 58.136C124.415 55.2048 123.855 52.0692 123.932 48.9167ZM178.719 48.9167V48.7831C178.777 42.3566 181.366 36.2121 185.925 31.6821C190.483 27.152 196.644 24.6017 203.071 24.5841C209.497 24.5665 215.672 27.0831 220.255 31.5881C224.839 36.0932 227.461 42.2234 227.554 48.6495V48.7831C227.496 55.2095 224.907 61.3541 220.349 65.8841C215.79 70.4142 209.629 72.9645 203.203 72.9821C196.776 72.9997 190.601 70.4831 186.018 65.9781C181.435 61.473 178.812 55.3428 178.719 48.9167ZM218.949 48.9167V48.7831C219.03 46.6447 218.679 44.5119 217.918 42.5118C217.157 40.5118 216.001 38.6854 214.52 37.1414C213.038 35.5975 211.261 34.3676 209.293 33.525C207.326 32.6825 205.21 32.2446 203.07 32.2373C193.796 32.2373 187.326 39.5761 187.326 48.6495V48.7831C187.246 50.9215 187.596 53.0543 188.357 55.0543C189.118 57.0544 190.274 58.8808 191.756 60.4248C193.237 61.9687 195.015 63.1986 196.982 64.0411C198.949 64.8837 201.065 65.3216 203.205 65.3289C212.477 65.3289 218.949 57.9901 218.949 48.9167ZM252.298 33.0377H237.419V25.4312H275.38V33.0373H260.504V72.1328H252.298L252.298 33.0377ZM290.737 25.4312H325.363V32.77H298.943V44.9128H322.362V52.3202H298.943V64.7957H325.695V72.1346H290.737V25.4312ZM471.846 25.0971H479.452L500 72.1315H491.328L486.59 60.8559H464.507L459.705 72.1315H451.298L471.846 25.0971ZM483.59 53.5835L475.515 34.9018L467.51 53.5835H483.59ZM370.363 54.4525C376.832 52.5844 381.436 47.9827 381.436 40.3075V40.1757C381.532 36.4378 380.141 32.8146 377.568 30.1015C373.862 26.8365 369.021 25.1591 364.09 25.4312H343.28V72.1328H351.486V32.9041H363.428C369.499 32.9041 373.102 35.6395 373.102 40.642V40.7739C373.102 45.511 369.365 48.5809 363.493 48.5809H356.628L361.753 55.8529L373.23 72.1332H382.97L370.363 54.4525ZM427.735 54.4525C434.205 52.5844 438.81 47.9827 438.81 40.3075V40.1757C438.905 36.4376 437.514 32.8143 434.94 30.1015C431.235 26.8366 426.395 25.1592 421.464 25.4312H400.647V72.1328H408.853V32.9041H420.797C426.866 32.9041 430.47 35.6395 430.47 40.642V40.7739C430.47 45.511 426.734 48.5809 420.864 48.5809H413.998L419.124 55.8529L430.599 72.1332H440.339L427.735 54.4525Z" fill="#003946"/>
<path d="M40.1838 73.3158C49.015 76.5392 58.6564 76.7952 67.6462 74.045C76.636 71.2949 84.484 65.6885 90.0003 58.076C91.8931 48.4222 90.4355 38.4114 85.8682 29.6982C81.3009 20.985 73.8975 14.0909 64.8813 10.1553L57.5461 27.0262C63.3442 29.5695 67.9473 34.238 70.4085 40.0714C72.8698 45.9049 73.002 52.4597 70.7781 58.3876C68.5541 64.3156 64.1431 69.1659 58.4523 71.941C52.7615 74.7161 46.2236 75.2049 40.1833 73.3069L40.1838 73.3158Z" fill="url(#paint0_linear_10_16154)"/>
<path d="M90.0001 58.0771C84.4055 65.7988 76.4142 71.4533 67.271 74.1597C58.1278 76.8662 48.3462 76.4726 39.45 73.0404L37.8077 72.4261L26.877 97.5629L40.3769 92.2458C51.4721 94.1582 62.8751 91.6541 72.1482 85.269C81.4213 78.8839 87.8285 69.1245 90.0001 58.0771Z" fill="#00999E"/>
<path d="M50.6228 24.246C41.7916 21.0226 32.1503 20.7665 23.1605 23.5166C14.1707 26.2666 6.32267 31.8729 0.80631 39.4853C-1.08487 49.1382 0.373606 59.1474 4.94076 67.8592C9.50791 76.571 16.9104 83.464 25.9252 87.3994L33.2605 70.5284C27.4583 67.9878 22.8509 63.3194 20.3868 57.4843C17.9226 51.6492 17.7892 45.0915 20.014 39.161C22.2388 33.2305 26.6525 28.3786 32.3465 25.6041C38.0406 22.8295 44.5812 22.3435 50.6228 24.246Z" fill="url(#paint1_linear_10_16154)"/>
<path d="M0.806152 39.4857C6.40073 31.7641 14.3921 26.1096 23.5353 23.4032C32.6784 20.6967 42.4601 21.0903 51.3563 24.5225L52.9985 25.1367L63.9293 0L50.4293 5.31705C40.9123 3.69581 31.1265 5.30787 22.6324 9.89617C14.1383 14.4845 7.42508 21.7847 3.56334 30.6329C2.32901 33.4762 1.40461 36.4443 0.806152 39.4857Z" fill="#00999E"/>
</g>
<defs>
<linearGradient id="paint0_linear_10_16154" x1="84.1249" y1="18.4427" x2="31.1651" y2="91.4213" gradientUnits="userSpaceOnUse">
<stop offset="0.1" stop-color="#00999E"/>
<stop offset="0.75" stop-color="#003946"/>
</linearGradient>
<linearGradient id="paint1_linear_10_16154" x1="6.68277" y1="79.1124" x2="59.6346" y2="6.13775" gradientUnits="userSpaceOnUse">
<stop offset="0.1" stop-color="#00999E"/>
<stop offset="0.75" stop-color="#003946"/>
</linearGradient>
<clipPath id="clip0_10_16154">
<rect width="500" height="97.5622" fill="white"/>
</clipPath>
</defs>
</svg>
