<svg width="500" height="220" viewBox="0 0 500 220" fill="none" xmlns="http://www.w3.org/2000/svg">
<g clip-path="url(#clip0_10_16128)">
<mask id="mask0_10_16128" style="mask-type:luminance" maskUnits="userSpaceOnUse" x="-4047" y="-2252" width="4883" height="2746">
<path d="M-4046.47 -2251.74H835.621V493.841H-4046.47V-2251.74Z" fill="white"/>
</mask>
<g mask="url(#mask0_10_16128)">
<path fill-rule="evenodd" clip-rule="evenodd" d="M84.2471 203.024H96.692V217.234H65.1545V203.024C58.8218 214.209 50.4097 219.282 36.421 219.282C11.4998 219.282 0.0631104 199.968 0.0631104 177.599C0.0631104 149.622 15.06 134.373 37.4607 134.373C50.4097 134.373 59.83 140.233 63.8942 149.118V115.816H51.9535V101.575H84.2471V203.024ZM64.6504 176.087C64.6504 161.846 58.2862 148.866 42.7852 148.866C27.0322 148.866 21.4242 162.35 21.4242 177.095C21.4242 194.14 29.0486 205.072 41.525 205.072C58.8218 205.072 64.6504 193.1 64.6504 176.087ZM176.024 182.703H114.997C114.997 196.408 122.369 204.285 135.854 205.324H136.862C146.282 204.82 153.151 199.968 156.207 192.092H175.52C172.464 211.909 155.167 219.282 137.366 219.282C109.42 219.282 94.14 203.024 94.14 176.087C94.14 150.409 110.933 134.373 136.862 134.373C157.215 134.373 171.456 145.841 175.016 164.65C176.024 170.731 176.024 176.591 176.024 182.703ZM156.207 169.219C155.703 156.238 148.582 148.362 135.854 148.362C123.409 148.362 114.997 156.774 114.997 169.219H156.207ZM271.897 150.914H262.76L235.035 217.517H210.87L183.68 150.914H174.26V136.421H217.738V150.914H205.041L223.85 199.968L243.415 150.914H230.718V136.421H271.897V150.914ZM354.033 177.095C354.033 203.529 337.272 219.313 311.311 219.313C285.381 219.313 268.085 203.529 268.085 177.095C268.085 150.409 285.381 134.404 311.311 134.404C337.272 134.404 354.033 150.409 354.033 177.095ZM333.176 177.095C333.176 162.854 327.347 148.866 311.311 148.866C295.558 148.866 289.446 162.854 289.446 177.095C289.446 191.084 295.558 204.82 311.311 204.82C327.347 204.82 333.176 191.084 333.176 177.095ZM454.222 203.024V217.517H410.492V203.024H421.928V166.667C421.928 157.278 416.856 148.866 406.427 148.866C392.439 148.866 387.083 160.334 387.083 172.275V203.024H398.551V217.517H354.789V203.024H366.761V150.914H354.789V136.421H385.57V150.409H386.074C391.178 140.485 401.575 134.404 413.548 134.404C434.405 134.404 442.281 145.306 442.281 165.406V203.024H454.222Z" fill="#505050"/>
<path d="M354.789 56.3324H499.969V77.1579H354.789V56.3324ZM404.127 0.157227H499.969V22.0224H404.127V0.157227ZM313.327 28.8907H499.969V49.7476H313.327V28.8907Z" fill="#F54123"/>
</g>
</g>
<defs>
<clipPath id="clip0_10_16128">
<rect width="500" height="219.282" fill="white"/>
</clipPath>
</defs>
</svg>
