<svg width="500" height="184" viewBox="0 0 500 184" fill="none" xmlns="http://www.w3.org/2000/svg">
<g clip-path="url(#clip0_9_16123)">
<path d="M232.399 87.9728C232.66 87.5817 232.757 87.3861 232.953 87.1906C237.755 82.2145 242.547 77.2275 247.327 72.2297C251.662 67.7642 256.063 63.364 260.235 58.8007C262.679 56.0954 265.026 53.3248 266.102 49.6743C268.22 42.5361 266.949 36.3431 261.734 30.8998C259.42 28.4878 256.747 26.7929 253.553 25.9454C251.565 25.4239 249.478 25.1632 247.425 25.098C243.351 24.935 239.342 25.0654 235.3 25.0654C234.561 25.0654 233.779 25.0654 232.953 25.0654C241.036 17.0145 248.957 9.09407 257.203 0.847656C258.083 1.01063 259.518 1.04322 260.789 1.53214C264.211 2.77073 267.731 3.74857 270.991 5.47608C277.445 8.86591 282.757 13.4943 287.06 19.3613C290.45 23.9246 292.601 28.9767 293.97 34.42C294.524 36.669 294.687 39.0158 294.85 41.3952C295.013 43.2205 294.85 45.0458 294.915 46.9037C294.98 50.5217 294.1 53.9441 292.992 57.334C291.982 60.3979 290.841 63.3965 289.048 66.1019C287.549 68.3509 286.082 70.6325 284.289 72.6208C281.584 75.6847 278.651 78.6182 275.065 80.7368C272.816 82.1058 270.535 83.3118 268.155 84.3874C264.309 86.0497 260.332 87.2883 256.16 87.7447C254.205 87.9402 252.216 88.1358 250.261 88.1358C245.013 88.1684 239.733 88.1684 234.485 88.1358C233.898 88.0706 233.214 88.0054 232.399 87.9728Z" fill="#A96C13"/>
<path d="M246.154 63.07C245.73 63.6893 245.535 64.1456 245.209 64.5368C242.764 67.1443 240.287 69.7193 237.81 72.3269C234.485 75.8145 231.193 79.2695 227.836 82.7245C226.532 84.1261 225.163 85.4299 223.794 86.7988C223.044 87.5811 222.197 88.1352 221.056 88.1352C215.222 88.07 209.322 88.07 203.488 88.07C203.325 88.07 203.162 87.9722 202.803 87.8093C202.738 87.3855 202.51 86.7988 202.51 86.2121C202.477 79.2695 202.477 72.3921 202.51 65.4494C202.51 64.6997 202.705 63.9175 202.803 63.07H246.154ZM246.284 32.3986C238.168 40.7428 230.378 48.7284 222.458 56.8771C216.069 56.8771 209.452 56.8771 202.868 56.8771C202.347 54.8236 202.314 34.615 202.803 32.2682C204.661 31.7793 237.06 31.4859 244.426 31.9422C244.883 31.9422 245.372 32.1704 246.284 32.3986ZM246.512 0.455941C238.494 8.73495 230.541 16.8836 222.653 25.0322C215.939 25.0322 209.387 25.0322 202.836 25.0322C202.314 23.0439 202.119 7.78971 202.542 0.684103C202.608 0.586319 202.64 0.52113 202.705 0.488536C202.803 0.455941 202.868 0.358158 202.934 0.358158C217.047 0.325563 231.16 0.325563 245.274 0.292969C245.632 0.325563 245.958 0.423347 246.512 0.455941Z" fill="black"/>
<path fill-rule="evenodd" clip-rule="evenodd" d="M128.911 105.672C126.043 117.96 122.523 129.433 120.339 141.33C118.807 141.721 103.455 141.852 99.2831 141.461C99.1853 139.505 99.1853 137.517 98.9571 135.561C98.7289 133.703 98.2726 131.813 97.9141 129.955C95.9258 129.433 85.2022 129.27 78.5203 129.661C75.7498 132.693 72.5555 138.038 71.4473 141.493C69.1657 141.493 66.8189 141.493 64.1787 141.493C73.9571 128.618 82.6598 115.352 91.8515 102.38C91.7211 101.532 91.5581 100.718 91.4278 99.8375C91.6885 99.7397 91.9167 99.5767 92.1774 99.5767H104.172C104.433 99.8701 104.694 100.066 104.759 100.294C105.574 104.107 106.323 107.921 107.171 111.767C107.595 113.951 108.181 116.167 108.605 118.384C109.42 122.197 110.072 126.043 110.854 129.89C111.506 133.019 112.223 136.18 112.973 139.277C113.071 139.766 113.527 140.222 114.081 141.102C116.786 134.029 118.025 127.119 119.752 120.339C121.48 113.527 123.142 106.682 124.902 99.5441C127.217 99.4463 129.792 99.5115 132.432 99.5115H140.483C140.743 100.131 141.069 100.75 141.2 101.402C141.819 106.063 142.34 110.757 142.992 115.385C143.22 117.178 143.644 118.97 143.938 120.763C144.394 123.664 144.785 126.598 145.274 129.694C147.23 128.39 147.653 126.239 148.925 124.74C150.228 123.24 151.076 121.382 152.151 119.688C153.227 117.993 154.303 116.33 155.443 114.635C156.486 113.038 157.562 111.441 158.605 109.844C159.713 108.149 160.724 106.422 161.799 104.759C162.908 103.064 164.048 101.402 165.32 99.5115H180.411C176.499 113.397 173.012 127.249 169.948 141.298C168.318 141.721 160.235 141.754 157.464 141.265C159.648 135.561 160.691 129.564 162.19 123.729C163.657 117.862 165.32 112.06 166.167 105.933C158.442 117.83 150.685 129.694 142.96 141.591C141.46 141.591 140.157 141.591 138.82 141.591C137.516 141.591 136.245 141.591 134.811 141.591C134.518 140.45 134.159 139.538 134.029 138.658C133.572 135.137 133.247 131.552 132.758 127.999C132.464 125.75 131.975 123.534 131.649 121.317C131.291 119.068 130.998 116.819 130.704 114.603C130.476 112.68 130.313 110.789 130.02 108.899C129.857 108.051 129.433 107.139 128.911 105.672ZM93.3182 108.247C89.7002 113.462 86.4082 118.188 83.1488 122.947C82.9206 123.24 82.9858 123.729 82.8554 124.251H96.6755C95.7302 118.873 94.785 113.723 93.3182 108.247ZM331.519 99.5441H333.312C343.579 99.5441 353.814 99.5115 364.081 99.5767C365.483 99.5767 366.851 99.8375 368.188 100.196C369.818 100.587 370.6 101.891 370.698 103.488C370.763 105.02 370.567 106.585 370.306 108.116C370.013 109.844 369.492 111.506 369.166 113.169C368.351 116.852 366.167 118.97 362.451 119.492C361.702 119.622 360.984 119.753 360.202 120.307C360.528 120.405 360.919 120.502 361.245 120.6C362.19 120.763 363.168 120.861 364.048 121.187C365.906 121.839 366.689 123.534 366.2 125.392C365.548 127.901 364.994 130.444 364.309 132.954C362.777 138.658 359.778 141.363 353.455 141.591C348.533 141.787 343.644 141.624 338.722 141.624C333.605 141.624 328.553 141.624 323.468 141.624C322.588 141.624 321.741 141.624 320.991 141.624C320.828 141.233 320.698 141.037 320.73 140.939C322.393 137.908 322.849 134.485 323.729 131.226C324.642 127.869 325.424 124.479 326.239 121.122C327.999 114.081 329.726 107.008 331.519 99.5441ZM334.811 136.409C339.7 136.409 344.101 136.441 348.566 136.343C349.511 136.343 350.424 135.985 351.337 135.757C353.031 131.943 353.553 127.999 354.4 124.414C353.781 123.077 352.934 122.849 351.858 122.849C347.849 122.882 343.807 122.849 339.798 122.882C339.081 122.882 338.331 123.24 337.712 123.403C337.158 127.869 335.333 131.78 334.811 136.409ZM355.346 117.504C355.769 116.884 356.226 116.298 356.519 115.613C357.79 112.712 358.181 109.583 358.768 106.552C358.898 106.063 358.475 105.476 358.312 104.89C355.541 104.89 352.901 104.857 350.261 104.89C347.686 104.922 345.046 104.759 342.536 105.02C341.917 107.236 341.102 109.192 340.841 111.213C340.58 113.332 339.407 115.287 339.798 117.569C344.981 117.504 349.967 117.504 355.346 117.504ZM272.164 141.493C274.218 138.169 274.576 134.909 275.424 131.813C276.76 126.793 277.999 121.741 279.27 116.689C280.411 112.158 281.552 107.595 282.66 103.064C282.855 102.054 282.823 101.011 282.921 99.8049C283.507 99.7397 284.061 99.6093 284.681 99.6093H317.243C318.677 99.6093 320.013 99.7071 321.284 100.457C322.523 101.141 323.24 102.119 323.403 103.553C323.599 105.835 323.273 108.084 322.719 110.3C320.991 117.113 319.296 123.925 317.503 130.704C316.949 132.791 316.232 134.844 315.32 136.832C314.342 138.983 312.647 140.515 310.235 141.004C308.605 141.33 306.975 141.721 305.346 141.721C295.274 141.787 285.235 141.754 275.163 141.754C274.283 141.624 273.468 141.558 272.164 141.493ZM286.571 135.854C287.028 136.05 287.419 136.343 287.81 136.343C292.275 136.409 296.741 136.441 301.206 136.343C303.097 136.311 303.911 135.594 304.433 133.573C305.672 128.781 306.91 123.99 308.084 119.199C309.061 115.352 310.007 111.441 310.984 107.595C311.245 106.617 311.473 105.737 310.43 104.922C305.28 104.922 300.033 104.922 294.492 104.922C291.721 115.059 289.342 125.294 286.571 135.854ZM0.0979004 141.493C3.74849 127.608 7.46426 113.853 10.463 99.7397C10.8541 99.7071 11.4734 99.5441 12.0601 99.5441H44.1657C44.4265 99.5441 44.6872 99.5767 44.948 99.5441C48.5986 99.2182 51.7602 101.891 50.5868 106.813C49.8371 110.04 48.9897 113.201 48.2074 116.428C46.7733 122.1 45.4043 127.738 43.9701 133.377C42.4056 139.603 38.6898 141.428 33.1487 141.591C28.227 141.787 23.3052 141.624 18.416 141.624C12.9836 141.624 7.54032 141.624 2.08617 141.624C1.46687 141.624 0.912764 141.558 0.0979004 141.493ZM21.7081 104.857C20.3065 110.203 18.9375 115.32 17.6663 120.437C16.3952 125.62 15.2218 130.802 13.9506 136.05C14.5373 136.213 14.8958 136.343 15.2218 136.343C19.4265 136.343 23.5986 136.409 27.8032 136.343C28.8137 136.343 29.8241 135.985 30.9975 135.757C33.9636 126.206 35.7563 116.428 38.4943 106.943C38.6572 106.487 38.4943 105.933 38.4943 105.02C32.9532 104.629 27.4773 104.89 21.7081 104.857ZM178.194 138.038C177.836 135.985 178.097 133.899 178.683 131.715C180.476 124.707 182.171 117.699 183.931 110.691C184.29 109.29 184.583 107.823 185.072 106.422C186.408 102.738 189.733 99.5441 194.296 99.5441C203.162 99.6093 211.995 99.5441 220.828 99.5441C221.284 99.5441 221.708 99.5441 222.164 99.6093C225.522 100.066 226.532 101.989 226.597 104.401C226.695 107.171 225.913 109.779 225.293 112.354C223.664 119.296 221.936 126.174 220.046 133.051C219.589 134.714 218.807 136.343 217.895 137.777C216.982 139.179 215.678 140.255 213.983 140.744C212.223 141.233 210.463 141.689 208.572 141.689C200.978 141.624 193.318 141.689 185.724 141.624C184.778 141.624 183.801 141.363 182.855 141.33C180.672 141.265 179.074 140.255 178.194 138.038ZM190.157 134.909C191.656 136.343 191.656 136.343 193.481 136.409C196.893 136.43 200.304 136.43 203.716 136.409C206.421 136.343 207.236 135.757 207.921 133.051C209.029 128.781 210.072 124.479 211.18 120.209C212.158 116.363 213.103 112.517 214.081 108.605C214.407 107.399 214.602 106.259 214.048 104.987C208.768 104.987 203.553 104.987 198.273 104.987C197.947 105.476 197.523 105.835 197.393 106.291C194.981 115.841 192.536 125.424 190.157 134.909ZM483.801 112.549C485.104 117.601 486.147 122.458 487.712 127.152C489.277 131.813 489.7 136.897 492.666 141.33C489.928 142.015 487.582 141.591 485.267 141.689C482.986 141.754 480.737 141.689 478.26 141.689C476.108 134.974 475.033 127.999 472.914 121.056C470.926 122.621 469.035 124.023 467.275 125.489C464.57 127.706 464.57 127.706 463.788 130.998C463.005 134.453 462.256 137.94 461.441 141.558C457.269 141.558 452.999 141.558 448.794 141.558C448.696 141.298 448.533 141.102 448.599 141.004C450.913 135.854 451.695 130.313 453.162 124.968C454.987 118.253 456.519 111.506 458.149 104.727C458.507 103.13 458.605 101.5 458.833 99.8375C461.441 99.3811 470.241 99.4789 472.001 99.9027C469.589 106.063 468.546 112.549 466.786 119.133C469.818 117.243 488.234 102.869 490.515 99.6419H499.935C493.677 103.325 488.983 108.116 483.801 112.549ZM239.081 107.693C237.516 109.746 237.582 111.637 237.158 113.364C235.333 120.079 233.67 126.793 232.008 133.573C231.552 135.528 231.421 137.517 231.095 139.505C231.03 140.092 230.998 140.711 230.965 141.233C228.944 141.819 226.662 141.819 224.316 141.298C226.662 134.551 228.064 127.608 229.759 120.698C231.454 113.821 233.67 107.008 234.583 99.9027C236.473 99.5115 245.665 99.3811 249.837 99.7397C251.923 105.15 253.944 110.691 256.095 116.2C258.247 121.578 260.235 126.989 262.679 132.334C264.146 128.781 264.798 125.196 265.808 121.643C266.819 118.058 267.666 114.407 268.514 110.757C269.394 107.106 270.144 103.488 270.991 99.7071H277.347C275.098 104.173 274.511 109.029 273.24 113.658C271.708 119.362 270.47 125.163 269.035 130.9C268.188 134.42 267.177 137.908 266.167 141.689C261.539 141.754 257.008 141.721 252.282 141.689C249.805 136.213 248.012 130.476 245.763 124.935C243.514 119.362 241.493 113.723 239.081 107.693ZM390.678 102.021C390.32 101.109 390.091 100.489 389.798 99.7071H403.097C406.421 113.56 408.507 127.641 412.027 141.363C409.713 141.819 399.707 141.787 397.784 141.233C397.719 139.277 397.719 137.289 397.49 135.3C397.262 133.442 396.741 131.617 396.317 129.727C395.763 129.694 395.339 129.629 394.915 129.629C388.951 129.629 382.986 129.629 376.988 129.629C374.413 133.508 371.35 136.995 370.046 141.526C367.666 141.526 365.32 141.526 362.712 141.526C372.719 128.618 381.323 115.124 390.678 102.021ZM394.785 124.186C394.981 121.643 392.927 111.278 391.656 108.41C388.038 113.658 384.322 118.579 380.965 124.186H394.785ZM454.531 99.8701C454.27 101.761 454.009 103.521 453.781 105.183C447.23 104.466 440.841 104.922 434.485 104.824C433.898 104.824 433.312 105.053 432.562 105.183C429.596 115.059 427.575 125.098 424.805 135.333C425.163 135.659 425.619 136.05 426.011 136.409C432.758 136.18 439.309 136.832 445.926 135.659C445.795 137.908 444.557 139.603 443.677 141.558C443.155 141.591 442.634 141.624 442.145 141.624C434.887 141.624 427.619 141.624 420.339 141.624C418.481 141.624 416.721 141.298 415.026 140.515C413.722 139.929 412.908 138.853 412.842 137.484C412.745 136.18 412.745 134.811 413.005 133.573C414.081 128.879 415.352 124.153 416.526 119.427C417.406 115.809 418.22 112.158 419.231 108.573C419.915 105.933 420.893 103.39 423.142 101.598C424.609 100.392 426.174 99.5767 428.129 99.5767C436.636 99.5767 445.144 99.5767 453.618 99.5441C453.781 99.5767 453.911 99.7071 454.531 99.8701ZM263.005 170.339C260.756 170.339 258.67 170.339 256.356 170.339C255.378 174.512 254.4 178.716 253.357 183.247C252.086 183.247 250.554 183.247 248.99 183.247C247.523 183.247 246.024 183.247 244.524 183.247C247.262 173.436 249.772 163.821 251.793 153.944C252.543 153.912 253.227 153.847 253.911 153.847H274.674C277.836 153.879 278.553 154.498 279.498 157.628C278.879 159.974 278.097 162.386 277.64 164.864C277.119 167.83 275.554 169.525 272.653 170.176C272.425 170.209 272.23 170.437 271.969 170.6C272.523 174.772 272.425 179.042 274.12 183.084C271.089 183.084 268.123 183.084 264.896 183.084C264.016 179.01 263.918 174.74 263.005 170.339ZM257.529 166.102C259.518 166.591 265.841 166.656 268.677 166.2C270.274 164.244 270.046 161.539 271.024 159.29C271.154 158.899 270.893 158.312 270.828 157.888C268.057 157.269 261.05 157.367 259.387 158.051C258.801 160.724 258.149 163.397 257.529 166.102ZM322.588 165.939C321.089 171.774 319.655 177.412 318.253 183.149C316.145 183.149 313.896 183.149 311.506 183.149C311.31 182.725 311.115 182.236 310.887 181.747C310.659 181.813 310.365 181.845 310.17 182.008C309.257 182.921 308.149 183.279 306.845 183.247C302.803 183.214 298.794 183.247 294.752 183.214C292.666 183.214 292.243 182.953 290.743 181.259C290.124 178.684 290.874 176.239 291.493 173.794C292.406 169.916 293.416 166.07 294.394 162.191C294.752 160.854 295.111 159.518 295.6 158.214C296.643 155.411 298.859 153.912 302.086 153.879C307.529 153.847 312.973 153.879 318.383 153.879H323.729C323.827 155.346 324.022 156.617 323.338 157.791C316.982 157.334 310.724 157.595 304.563 157.595C303.553 159.42 299.642 173.534 299.087 177.315C298.99 177.999 299.12 178.684 299.153 179.466H310.365C312.484 176.663 312.125 173.045 313.331 169.72C310.104 169.231 306.975 169.753 303.749 169.427C304.009 168.188 304.27 167.113 304.531 165.972C310.626 165.939 316.558 165.939 322.588 165.939ZM73.0444 99.8049C70.2413 106.487 69.2635 113.625 67.2752 120.502C65.3195 127.347 63.9832 134.322 62.3208 141.298C60.5607 141.754 52.1188 141.787 49.7394 141.33C53.4877 127.641 56.9102 113.853 60.0718 99.8375C61.6364 99.4789 70.2739 99.3811 73.0444 99.8049ZM192.992 153.944H196.806C194.361 163.69 191.917 173.371 189.472 183.084C186.213 183.084 182.986 183.084 179.661 183.084C178.879 181.226 178.064 179.303 177.314 177.412C176.532 175.457 175.848 173.501 175.098 171.545C174.348 169.622 173.729 167.634 172.882 165.678C172.099 163.821 171.578 161.832 170.274 160.137C168.155 167.764 165.971 175.294 164.537 183.149C163.071 183.149 161.734 183.149 160.333 183.149C163.005 173.436 165.58 163.853 167.536 154.01H177.901C179.368 157.791 180.867 161.571 182.334 165.352C183.768 169.101 185.235 172.849 186.669 176.532C186.908 176.511 187.136 176.478 187.353 176.435C189.244 168.97 191.069 161.539 192.992 153.944ZM132.758 170.176C131.975 173.371 131.258 176.272 130.476 179.531C133.312 179.564 135.822 179.629 138.331 179.564C140.776 179.564 143.155 179.498 145.763 179.466C145.632 180.802 145.111 181.943 144.426 183.019C141.786 183.41 122.784 183.312 121.024 182.986C123.468 173.306 125.848 163.69 128.325 153.912H151.369C151.793 155.933 151.793 155.933 151.271 157.628C146.284 157.628 141.33 157.628 136.115 157.628C134.974 160.3 134.355 163.201 133.833 166.395H147.425C147.881 168.025 147.295 169.264 146.773 170.47C142.145 169.851 137.647 170.274 132.758 170.176ZM214.863 179.173C216.917 179.661 224.87 179.792 230.313 179.433C229.824 180.704 229.368 181.845 228.879 183.149C220.991 183.149 213.103 183.149 205.313 183.149C207.888 173.501 210.398 163.886 212.614 154.107C214.407 153.749 233.638 153.684 236.408 154.107C236.213 155.281 235.984 156.422 235.756 157.628C230.574 157.628 225.522 157.628 220.372 157.628C219.622 160.463 218.905 163.299 218.09 166.395H232.562C231.421 167.83 232.301 169.427 231.128 170.437C226.532 169.851 222.001 170.274 217.177 170.111C216.395 173.175 215.613 176.174 214.863 179.173ZM349.218 183.149C346.121 183.149 342.992 183.149 339.863 183.149C340.776 179.759 341.678 176.424 342.569 173.143C342.992 171.611 343.025 170.111 342.34 168.514C340.385 163.951 338.527 159.355 336.604 154.792C336.539 154.629 336.539 154.433 336.506 154.303C338.136 153.684 342.829 153.586 346.741 154.042C347.588 158.377 349.609 162.289 351.369 166.656C355.117 162.321 359.029 158.573 362.093 153.912H366.917C366.395 154.531 366.004 155.02 365.58 155.509C361.213 160.366 356.78 165.222 352.477 170.176C351.825 170.926 351.532 172.002 351.271 172.98C350.619 175.359 350.098 177.706 349.576 180.053C349.413 180.998 349.348 181.943 349.218 183.149Z" fill="black"/>
</g>
<defs>
<clipPath id="clip0_9_16123">
<rect width="500" height="183.507" fill="white"/>
</clipPath>
</defs>
</svg>
