<svg width="500" height="123" viewBox="0 0 500 123" fill="none" xmlns="http://www.w3.org/2000/svg">
<g clip-path="url(#clip0_10_16155)">
<path d="M78.1054 93.2634C78.7369 90.1055 81.0527 88.0003 84.6317 88.0003C87.579 88.0003 89.4738 90.5266 89.0527 93.2634H78.1054ZM100 99.3687C102.105 88.4213 96.6317 80.6318 85.4738 80.6318C75.7896 80.6318 67.158 86.9476 65.2633 97.0529C63.3685 107.158 70.1054 112.842 79.7896 112.842C86.9475 112.842 94.9475 110.316 98.3159 102.737H86.7369C85.4738 104.632 83.579 105.474 81.6843 105.474C78.5264 105.474 76.2106 103.158 76.8422 99.5792H100V99.3687Z" fill="#231F20"/>
<path d="M123.158 88.6314C126.316 88.4209 127.789 91.7893 126.947 96.2104C125.895 101.895 123.579 104.421 120.21 104.421C117.053 104.421 115.368 101.895 116.421 96.2104C117.053 92.842 119.158 88.6314 123.158 88.6314ZM104.421 96.8419C102.526 107.158 109.263 112.631 118.947 112.631C128.631 112.631 137.053 107.368 139.158 96.2104C140.842 86.7367 135.368 80.4209 124.631 80.4209C114.105 80.4209 106.105 86.3156 104.421 96.8419Z" fill="#231F20"/>
<path d="M161.053 89.2634C164.842 89.2634 165.684 92.4213 165.053 95.7897C164.421 98.9476 162.526 102.316 158.947 102.106C155.79 102.106 154.737 99.1582 155.158 96.2108C155.79 92.2108 157.474 89.0529 161.053 89.2634ZM141.684 113.263C141.474 117.895 145.263 122.106 156 122.106C170.947 122.106 173.263 114.948 174.947 105.895L179.158 81.4739H168.632L168 85.4739C166.316 82.5266 163.368 80.6318 159.579 80.6318C149.684 80.6318 144.632 88.6318 143.368 96.0003C141.895 103.79 145.684 110.316 154.105 110.316C158.526 110.316 161.263 108.842 163.368 106.948L162.737 109.474C161.895 113.895 160.211 115.369 156.842 115.369C155.579 115.369 154.737 115.158 154.316 114.527C153.895 114.316 153.684 113.684 153.684 113.263H141.684Z" fill="#231F20"/>
<path d="M193.895 81.053H204.842L203.79 87.1583H204C206.526 82.3162 209.895 80.2109 214.526 80.2109C214.947 80.2109 215.579 80.4215 216 80.4215L213.895 92.4215C213.053 92.2109 212.211 92.0004 211.369 92.0004C206.526 92.0004 203.579 94.3162 202.316 100.843L200.421 111.369H188.421L193.895 81.053Z" fill="#231F20"/>
<path d="M227.369 92.8425C228 89.6846 230.316 87.5794 233.895 87.5794C236.632 87.5794 238.737 90.1057 238.316 92.8425H227.369ZM249.263 98.9478C251.369 88.0004 245.895 80.2109 234.737 80.2109C225.053 80.2109 216.421 86.5267 214.526 96.632C212.632 106.948 219.369 112.421 229.053 112.421C236.211 112.421 244.211 109.895 247.579 102.316H236C234.737 104.211 232.842 105.053 230.947 105.053C227.79 105.053 225.474 102.737 226.105 99.1583H249.263V98.9478Z" fill="#231F20"/>
<path d="M264 102.105C263.789 103.368 264 104.211 264.842 104.842C265.474 105.474 266.526 105.684 267.579 105.684C269.474 105.684 271.579 105.053 271.789 102.947C272.632 98.1053 253.263 101.895 255.368 90.1053C256.842 82.3158 265.263 80 271.579 80C278.105 80 285.684 81.4737 285.053 89.4737H274.105C274.105 88.4211 273.895 87.7895 273.263 87.3684C272.632 86.9474 271.789 86.5263 270.947 86.5263C268.842 86.5263 267.368 87.1579 267.158 88.6316C266.316 92.8421 286.105 90.1053 284 101.474C282.947 107.789 276.842 112 265.684 112C258.737 112 251.368 109.895 252.211 101.684H264V102.105Z" fill="#231F20"/>
<path d="M307.789 88.4215C310.947 88.2109 312.421 91.5794 311.579 96.0004C310.526 101.685 308.211 104.211 304.842 104.211C301.684 104.211 300 101.685 301.053 96.0004C301.684 92.632 303.789 88.4215 307.789 88.4215ZM288.842 96.632C286.947 106.948 293.684 112.421 303.368 112.421C313.053 112.421 321.474 107.158 323.579 96.0004C325.263 86.5267 319.789 80.2109 309.053 80.2109C298.737 80.2109 290.737 86.1057 288.842 96.632Z" fill="#231F20"/>
<path d="M358.737 111.368H347.579L348.421 106.947C344.632 111.158 341.474 112.21 336.421 112.21C329.895 112.21 326.316 108.21 327.789 99.3681L331.158 80.8418H343.158L340.21 97.2628C339.368 101.473 340.632 102.737 343.579 102.737C347.158 102.737 348.632 100.21 349.474 95.3681L352 80.8418H364L358.737 111.368Z" fill="#231F20"/>
<path d="M370.105 81.053H381.053L380 87.1583H380.211C382.737 82.3162 386.105 80.2109 390.737 80.2109C391.158 80.2109 391.79 80.4215 392.211 80.4215L390.105 92.4215C389.263 92.2109 388.421 92.0004 387.579 92.0004C382.737 92.0004 379.79 94.3162 378.526 100.843L376.632 111.369H364.632L370.105 81.053Z" fill="#231F20"/>
<path d="M413.263 92.6316C413.474 91.3684 413.263 90.3158 412.632 89.4737C412 88.6316 410.947 88.2105 409.684 88.2105C405.263 88.2105 403.579 92.8421 402.947 96.4211C402.105 101.053 403.369 104 406.947 104C410.105 104 411.579 101.895 412.421 99.5789H424.632C421.895 108.842 413.895 112.211 405.474 112.211C395.579 112.211 389.053 106.737 390.947 96.4211C392.842 86.1053 401.053 80 411.158 80C419.369 80 426.316 83.579 425.684 92.4211H413.263V92.6316Z" fill="#231F20"/>
<path d="M442.316 92.8425C442.947 89.6846 445.263 87.5794 448.842 87.5794C451.579 87.5794 453.684 90.1057 453.263 92.8425H442.316ZM464.211 98.9478C466.316 88.0004 460.842 80.2109 449.684 80.2109C440 80.2109 431.368 86.5267 429.474 96.632C427.579 106.948 434.316 112.421 444 112.421C451.158 112.421 459.158 109.895 462.526 102.316H450.947C449.684 104.211 447.789 105.053 445.895 105.053C442.737 105.053 440.421 102.737 441.053 99.1583H464.211V98.9478Z" fill="#231F20"/>
<path d="M478.737 102.105C478.526 103.368 478.737 104.211 479.579 104.842C480.21 105.474 481.263 105.684 482.316 105.684C484.21 105.684 486.316 105.053 486.526 102.947C487.368 98.1053 468 101.895 470.105 90.1053C471.579 82.3158 480 80 486.316 80C492.842 80 500.421 81.4737 499.789 89.4737H488.842C488.842 88.4211 488.631 87.7895 488 87.3684C487.368 86.9474 486.526 86.5263 485.684 86.5263C483.579 86.5263 482.105 87.1579 481.895 88.6316C481.053 92.8421 500.842 90.1053 498.947 101.474C497.895 107.789 491.789 112 480.631 112C473.684 112 466.316 109.895 467.158 101.684H478.737V102.105Z" fill="#231F20"/>
<path d="M52.2105 44.4211C50.5263 40.6316 48.6316 34.1053 50.1053 26.3158C52 15.5789 57.8947 6.10526 66.1053 0C49.8947 1.89474 35.7895 16 33.0526 33.2632C32 39.7895 31.579 49.8947 41.8947 60.2105C48.2105 66.5263 54.5263 73.4737 52.6316 85.6842C50.7369 98.3158 39.579 108.421 27.579 108.421C15.579 108.421 7.57896 98.1053 9.26317 85.4737C11.3684 69.2632 28.6316 64.2105 30.3158 54.3158C30.9474 50.5263 30.1053 46.5263 29.0526 43.1579C27.579 38.7368 25.0526 31.3684 28.2105 22.3158C28.2105 22.3158 18.9474 29.4737 16.6316 44.6316C16.2105 48 15.1579 52.6316 10.7369 57.2632C6.3158 61.8947 1.26317 69.8947 9.92417e-06 79.5789C-2.10525 98.3158 9.68422 113.263 27.1579 113.263C44.6316 113.263 60.8421 98.5263 63.7895 80.2105C66.1053 64.2105 56 52.6316 52.2105 44.4211Z" fill="#ED3024"/>
<path d="M27.7894 102.106C36.6315 102.106 45.2631 94.1056 46.5263 84.8424C47.7894 76.0003 43.7894 70.9477 37.4737 64.6319C30.9473 58.3161 31.1579 55.3687 30.7368 51.1582C30.9473 60.2108 31.3684 65.895 26.3158 70.5266C21.4737 75.1582 16.6316 79.3687 15.7894 86.3161C15.1579 90.9477 16.2105 95.1582 18.9473 98.3161C21.0526 100.842 24.2105 102.106 27.7894 102.106Z" fill="#231F20"/>
</g>
<defs>
<clipPath id="clip0_10_16155">
<rect width="500" height="122.105" fill="white"/>
</clipPath>
</defs>
</svg>
