<svg width="500" height="35" viewBox="0 0 500 35" fill="none" xmlns="http://www.w3.org/2000/svg">
<g clip-path="url(#clip0_10_16129)">
<path fill-rule="evenodd" clip-rule="evenodd" d="M263.429 0.375231V20.0522C263.429 24.3854 265.02 26.0791 269.411 26.0791H280.028C284.418 26.0791 286.011 24.3854 286.011 20.0522V0.375231H296.723V22.3129C296.723 30.7864 292.236 34.8361 282.393 34.8361H267.046C257.203 34.8361 252.716 30.7864 252.716 22.3129V0.375231H263.429ZM428.741 0C438.389 0 444.134 2.35362 444.134 12.3327V22.4999C444.134 32.4813 438.389 34.8349 428.741 34.8349H411.563C401.91 34.8349 396.168 32.4813 396.168 22.4999V12.3327C396.168 2.35362 401.91 0 411.563 0H428.741ZM10.7148 0.375463V12.5223H33.2972V0.375463H44.0072V34.4576H33.2972V21.5603H10.7148V34.4576H0V0.375463H10.7148ZM80.6748 0.375463L99.88 34.4576H87.9625L84.6378 28.4307H62.9224L59.781 34.4576H47.8159L66.7305 0.375463H80.6748ZM114.411 0.375463V25.703H138.491V34.4576H103.701V0.375463H114.411ZM153.743 0.375463V25.703H177.823V34.4576H143.031V0.375463H153.743ZM193.654 0.375463V34.4576H182.941V0.375463H193.654ZM232.31 0.376393C240.851 0.376393 245 2.63707 245 9.3192C245 15.1579 242.83 16.2871 239.839 17.1352V17.2769C244.518 17.8415 246.255 20.288 246.255 25.4181C246.255 32.9042 241.72 34.4585 235.592 34.4585H201.476V0.376393H232.31ZM336.288 0.376393C344.54 0.376393 346.76 4.37731 346.76 10.4972V12.6626C346.76 17.2281 345.695 19.9116 340.775 21.0431V21.1361C343.961 21.7007 346.615 23.0668 346.615 28.6686V34.4585H335.902V30.3623C335.902 26.7843 334.842 25.6086 331.51 25.6086H314.67V34.4585H303.958V0.376393H336.288ZM392.262 0.375463V8.84894H377.205V34.4576H366.49V8.84894H351.439V0.375463H392.262ZM467.2 0.376393L487.323 25.137H487.418V0.376393H498.133V34.4585H481.528L461.411 9.6956H461.313V34.4585H450.601V0.376393H467.2ZM231.393 20.9456H212.188V26.2662H231.393C233.711 26.2662 235.254 25.748 235.254 23.7708C235.254 21.4637 233.711 20.9456 231.393 20.9456ZM426.424 8.75461H413.875C408.231 8.75461 407.171 11.3429 407.171 15.5808V19.2541C407.171 24.1937 408.231 26.078 413.297 26.078H427.003C432.071 26.078 433.131 24.1937 433.131 19.2541V15.5808C433.131 11.3429 432.071 8.75461 426.424 8.75461ZM73.6824 8.28668L66.9258 21.0887H80.6319L73.6824 8.28668ZM331.415 8.84987H314.67V17.1352H332.38C335.276 17.1352 336.336 16.006 336.336 13.5571V12.4279C336.336 9.41446 334.792 8.84987 331.415 8.84987ZM231.153 8.56642H212.188V13.887H231.153C233.13 13.887 234.289 13.1807 234.289 11.25C234.289 9.27273 233.13 8.56642 231.153 8.56642Z" fill="#CC0000"/>
</g>
<defs>
<clipPath id="clip0_10_16129">
<rect width="500" height="34.8361" fill="white"/>
</clipPath>
</defs>
</svg>
