<svg width="500" height="298" viewBox="0 0 500 298" fill="none" xmlns="http://www.w3.org/2000/svg">
<g clip-path="url(#clip0_10_16132)">
<path d="M21.5331 213.687V84.3097C21.5331 58.9636 22.3918 54.6351 60.5314 43.927C132.324 23.7884 195.74 19.8174 246.5 19.767V0H0V298H246.499V279.972C195.738 279.915 132.324 274.215 60.5302 254.073C22.3918 243.365 21.5331 239.036 21.5331 213.687Z" fill="#00704A"/>
<path d="M478.47 213.687V84.3097C478.47 58.9636 477.612 54.6351 439.469 43.927C367.672 23.7884 304.258 19.8174 253.501 19.767V0H500V298H253.501V279.972C304.258 279.915 367.672 274.215 439.469 254.073C477.612 243.365 478.47 239.036 478.47 213.687Z" fill="#00704A"/>
<path d="M119.521 95.0342V135.343H73.4206V95.0342H45.437V202.699H73.4206V162.269H119.521V202.699H147.516V95.0342H119.521Z" fill="#00704A"/>
<path d="M244.746 121.974V95.0342C244.746 95.0342 191.773 95.0342 177.538 95.0342C163.298 95.0342 158.52 98.1894 158.52 117.025V180.695C158.52 199.536 163.3 202.699 177.538 202.699C191.773 202.699 244.746 202.699 244.746 202.699V175.694H185.971V162.269H244.746V135.342H185.971V121.974H244.746Z" fill="#00704A"/>
<path d="M331.201 135.343H282.646V121.975H347.978V95.0342C347.978 95.0342 289.656 95.0342 274.547 95.0342C259.426 95.0342 255.196 98.5375 255.196 117.143V141.124C255.196 162.719 259.386 162.269 274.547 162.269C289.694 162.269 323.092 162.269 323.092 162.269V175.694H255.187V202.699C255.187 202.699 316.091 202.699 331.201 202.699C346.318 202.699 350.544 199.192 350.544 180.593V157.164C350.544 135.561 346.36 135.343 331.201 135.343Z" fill="#00704A"/>
<path d="M435.202 135.343H386.65V121.975H451.981V95.0342C451.981 95.0342 393.66 95.0342 378.541 95.0342C363.424 95.0342 359.201 98.5375 359.201 117.143V141.124C359.201 162.719 363.388 162.269 378.541 162.269C393.695 162.269 427.093 162.269 427.093 162.269V175.694H359.191V202.699C359.191 202.699 420.089 202.699 435.202 202.699C450.316 202.699 454.549 199.192 454.549 180.593V157.164C454.549 135.561 450.356 135.343 435.202 135.343Z" fill="#00704A"/>
</g>
<defs>
<clipPath id="clip0_10_16132">
<rect width="500" height="298" fill="white"/>
</clipPath>
</defs>
</svg>
