<svg width="500" height="111" viewBox="0 0 500 111" fill="none" xmlns="http://www.w3.org/2000/svg">
<g clip-path="url(#clip0_9_16125)">
<mask id="mask0_9_16125" style="mask-type:luminance" maskUnits="userSpaceOnUse" x="-183" y="-152" width="863" height="648">
<path d="M-182.813 495.161H679.971V-151.926H-182.813V495.161Z" fill="white"/>
</mask>
<g mask="url(#mask0_9_16125)">
<mask id="mask1_9_16125" style="mask-type:luminance" maskUnits="userSpaceOnUse" x="1" y="1" width="498" height="108">
<path d="M1.42749 108.934H498.412V1.13655H1.42749V108.934Z" fill="white"/>
</mask>
<g mask="url(#mask1_9_16125)">
<path fill-rule="evenodd" clip-rule="evenodd" d="M251.126 52.4446L216.942 109.299L224.474 91.8079L247.371 53.9572L251.126 52.4446Z" fill="black" stroke="black" stroke-width="0.17451" stroke-miterlimit="10" stroke-linejoin="round"/>
<path fill-rule="evenodd" clip-rule="evenodd" d="M230.349 68.2838L229.139 71.1526L217.852 75.5166L219.355 72.5087L230.349 68.2838Z" fill="black" stroke="black" stroke-width="0.17451" stroke-miterlimit="10" stroke-linejoin="round"/>
<path fill-rule="evenodd" clip-rule="evenodd" d="M240.132 2.54154L235.769 26.3612L233.51 27.1123L236.971 8.26521L240.132 2.54154Z" fill="black" stroke="black" stroke-width="0.17451" stroke-miterlimit="10" stroke-linejoin="round"/>
<path fill-rule="evenodd" clip-rule="evenodd" d="M254.133 23.3564L238.475 53.2093L235.013 54.5654L250.531 24.8517L254.133 23.3564Z" fill="black" stroke="black" stroke-width="0.17451" stroke-miterlimit="10" stroke-linejoin="round"/>
<path fill-rule="evenodd" clip-rule="evenodd" d="M233.81 36.1673L232.167 39.1787L217.558 44.7598L218.901 41.891L233.81 36.1673Z" fill="black" stroke="black" stroke-width="0.17451" stroke-miterlimit="10" stroke-linejoin="round"/>
<path fill-rule="evenodd" clip-rule="evenodd" d="M236.377 1.7761L236.076 2.84016L235.629 2.99316L236.377 1.7761Z" fill="#FF2828" stroke="#FF2828" stroke-width="0.17451" stroke-miterlimit="10" stroke-linejoin="round"/>
<path fill-rule="evenodd" clip-rule="evenodd" d="M236.076 2.84022L235.922 4.34938L234.873 4.64844L235.629 2.99323L236.076 2.84022Z" fill="#FF3838" stroke="#FF3838" stroke-width="0.17451" stroke-miterlimit="10" stroke-linejoin="round"/>
<path fill-rule="evenodd" clip-rule="evenodd" d="M235.922 4.34999L235.629 5.86611L233.964 6.1582L234.873 4.64905L235.922 4.34999Z" fill="#FF4444" stroke="#FF4444" stroke-width="0.17451" stroke-miterlimit="10" stroke-linejoin="round"/>
<path fill-rule="evenodd" clip-rule="evenodd" d="M235.629 5.86617L235.314 7.36142L233.055 7.81348L233.964 6.15827L235.629 5.86617Z" fill="#FF5454" stroke="#FF5454" stroke-width="0.17451" stroke-miterlimit="10" stroke-linejoin="round"/>
<path fill-rule="evenodd" clip-rule="evenodd" d="M235.314 7.36125L235.013 8.87041L232.307 9.48242L233.055 7.81331L235.314 7.36125Z" fill="#FF6060" stroke="#FF6060" stroke-width="0.17451" stroke-miterlimit="10" stroke-linejoin="round"/>
<path fill-rule="evenodd" clip-rule="evenodd" d="M235.013 8.87028L234.873 10.3864L231.398 10.9775L232.307 9.48229L235.013 8.87028Z" fill="#FF7070" stroke="#FF7070" stroke-width="0.17451" stroke-miterlimit="10" stroke-linejoin="round"/>
<path fill-rule="evenodd" clip-rule="evenodd" d="M234.873 10.3862L234.559 11.8815L230.502 12.6465L231.398 10.9774L234.873 10.3862Z" fill="#FF7C7C" stroke="#FF7C7C" stroke-width="0.17451" stroke-miterlimit="10" stroke-linejoin="round"/>
<path fill-rule="evenodd" clip-rule="evenodd" d="M234.559 11.8817L234.265 13.3908L229.593 14.2949L230.502 12.6467L234.559 11.8817Z" fill="#FF8888" stroke="#FF8888" stroke-width="0.17451" stroke-miterlimit="10" stroke-linejoin="round"/>
<path fill-rule="evenodd" clip-rule="evenodd" d="M234.265 13.3906L233.964 14.7468L228.845 15.9639L229.594 14.2947L234.265 13.3906Z" fill="#FF9898" stroke="#FF9898" stroke-width="0.17451" stroke-miterlimit="10" stroke-linejoin="round"/>
<path fill-rule="evenodd" clip-rule="evenodd" d="M233.964 14.7467L233.671 16.2628L227.936 17.459L228.845 15.9637L233.964 14.7467Z" fill="#FFA4A4" stroke="#FFA4A4" stroke-width="0.17451" stroke-miterlimit="10" stroke-linejoin="round"/>
<path fill-rule="evenodd" clip-rule="evenodd" d="M233.671 16.2626L233.51 17.7718L227.048 19.1279L227.936 17.4588L233.671 16.2626Z" fill="#FFB4B4" stroke="#FFB4B4" stroke-width="0.17451" stroke-miterlimit="10" stroke-linejoin="round"/>
<path fill-rule="evenodd" clip-rule="evenodd" d="M233.51 17.7718L233.216 19.2671L226.139 20.7832L227.048 19.128L233.51 17.7718Z" fill="#FFC0C0" stroke="#FFC0C0" stroke-width="0.17451" stroke-miterlimit="10" stroke-linejoin="round"/>
<path fill-rule="evenodd" clip-rule="evenodd" d="M233.216 19.2677L232.915 20.7838L225.383 22.293L226.139 20.7838L233.216 19.2677Z" fill="#FFD0D0" stroke="#FFD0D0" stroke-width="0.17451" stroke-miterlimit="10" stroke-linejoin="round"/>
<path fill-rule="evenodd" clip-rule="evenodd" d="M232.915 20.7839L232.601 22.293L224.474 23.9482L225.383 22.293L232.915 20.7839Z" fill="#FFDCDC" stroke="#FFDCDC" stroke-width="0.17451" stroke-miterlimit="10" stroke-linejoin="round"/>
<path fill-rule="evenodd" clip-rule="evenodd" d="M232.601 22.2929L232.461 23.809L223.565 25.6172L224.474 23.9481L232.601 22.2929Z" fill="#FFECEC" stroke="#FFECEC" stroke-width="0.17451" stroke-miterlimit="10" stroke-linejoin="round"/>
<path fill-rule="evenodd" clip-rule="evenodd" d="M232.461 23.8088L232.167 25.3041L222.817 27.1123L223.565 25.6171L232.461 23.8088Z" fill="#FFF8F8" stroke="#FFF8F8" stroke-width="0.17451" stroke-miterlimit="10" stroke-linejoin="round"/>
<path fill-rule="evenodd" clip-rule="evenodd" d="M232.167 25.3039L231.852 26.6601L221.922 28.7812L222.817 27.1121L232.167 25.3039ZM250.371 21.5484L249.622 23.0437L242.846 24.3998L250.371 21.5484Z" fill="#FFFCFC" stroke="#FFFCFC" stroke-width="0.17451" stroke-miterlimit="10" stroke-linejoin="round"/>
<path fill-rule="evenodd" clip-rule="evenodd" d="M231.852 26.6603L231.552 28.1694L221.02 30.4297L221.922 28.7814L231.852 26.6603ZM249.622 23.0438L248.713 24.713L234.873 27.5644L242.846 24.4L249.622 23.0438Z" fill="#FFECEC" stroke="#FFECEC" stroke-width="0.17451" stroke-miterlimit="10" stroke-linejoin="round"/>
<path fill-rule="evenodd" clip-rule="evenodd" d="M248.713 24.7125L247.965 26.2077L220.11 31.9453L221.019 30.4292L231.552 28.1689V28.7809L234.873 27.5639L248.713 24.7125Z" fill="#FFE0E0" stroke="#FFE0E0" stroke-width="0.17451" stroke-miterlimit="10" stroke-linejoin="round"/>
<path fill-rule="evenodd" clip-rule="evenodd" d="M247.965 26.2079L247.07 27.877L219.355 33.5938L220.11 31.9455L247.965 26.2079Z" fill="#FFD0D0" stroke="#FFD0D0" stroke-width="0.17451" stroke-miterlimit="10" stroke-linejoin="round"/>
<path fill-rule="evenodd" clip-rule="evenodd" d="M247.07 27.8769L246.161 29.5251L218.446 35.2627L219.355 33.5936L247.07 27.8769Z" fill="#FFC4C4" stroke="#FFC4C4" stroke-width="0.17451" stroke-miterlimit="10" stroke-linejoin="round"/>
<path fill-rule="evenodd" clip-rule="evenodd" d="M246.161 29.526L245.412 31.0421L217.558 36.7588L218.446 35.2635L246.161 29.526Z" fill="#FFB4B4" stroke="#FFB4B4" stroke-width="0.17451" stroke-miterlimit="10" stroke-linejoin="round"/>
<path fill-rule="evenodd" clip-rule="evenodd" d="M245.412 31.0419L244.503 32.6901L235.174 34.6583L235.629 34.0463L232.461 35.2634L216.802 38.4277L217.558 36.7586L245.412 31.0419Z" fill="#FFA8A8" stroke="#FFA8A8" stroke-width="0.17451" stroke-miterlimit="10" stroke-linejoin="round"/>
<path fill-rule="evenodd" clip-rule="evenodd" d="M232.461 35.2634L224.474 38.2748L215.893 40.083L216.802 38.4278L232.461 35.2634ZM244.503 32.6902L243.748 34.3593L234.419 36.3066L235.174 34.6584L244.503 32.6902Z" fill="#FF9898" stroke="#FF9898" stroke-width="0.17451" stroke-miterlimit="10" stroke-linejoin="round"/>
<path fill-rule="evenodd" clip-rule="evenodd" d="M224.474 38.2746L216.488 41.439L214.984 41.752L215.893 40.0828L224.474 38.2746ZM243.748 34.3592L242.846 35.8544L233.51 37.8226L234.419 36.3065L243.748 34.3592Z" fill="#FF8C8C" stroke="#FF8C8C" stroke-width="0.17451" stroke-miterlimit="10" stroke-linejoin="round"/>
<path fill-rule="evenodd" clip-rule="evenodd" d="M216.488 41.4393L214.844 42.0479L214.984 41.7523L216.488 41.4393ZM242.846 35.8547L241.951 37.5239L232.762 39.492L233.51 37.8229L242.846 35.8547Z" fill="#FF8080" stroke="#FF8080" stroke-width="0.17451" stroke-miterlimit="10" stroke-linejoin="round"/>
<path fill-rule="evenodd" clip-rule="evenodd" d="M241.951 37.5237L241.202 39.1789L231.852 41.1436L232.761 39.4918L241.951 37.5237Z" fill="#FF7070" stroke="#FF7070" stroke-width="0.17451" stroke-miterlimit="10" stroke-linejoin="round"/>
<path fill-rule="evenodd" clip-rule="evenodd" d="M241.202 39.1789L240.293 40.6916L230.957 42.6562L231.852 41.1436L241.202 39.1789Z" fill="#FF6464" stroke="#FF6464" stroke-width="0.17451" stroke-miterlimit="10" stroke-linejoin="round"/>
<path fill-rule="evenodd" clip-rule="evenodd" d="M240.293 40.6912L239.384 42.3429L230.188 44.3076L230.957 42.6559L240.293 40.6912Z" fill="#FF5454" stroke="#FF5454" stroke-width="0.17451" stroke-miterlimit="10" stroke-linejoin="round"/>
<path fill-rule="evenodd" clip-rule="evenodd" d="M239.384 42.3426L238.629 44.0117L229.3 45.959L230.188 44.3073L239.384 42.3426Z" fill="#FF4848" stroke="#FF4848" stroke-width="0.17451" stroke-miterlimit="10" stroke-linejoin="round"/>
<path fill-rule="evenodd" clip-rule="evenodd" d="M238.629 44.0117L237.72 45.507L228.391 47.4717L229.3 45.959L238.629 44.0117Z" fill="#FF3838" stroke="#FF3838" stroke-width="0.17451" stroke-miterlimit="10" stroke-linejoin="round"/>
<path fill-rule="evenodd" clip-rule="evenodd" d="M237.72 45.5078L236.971 47.1769L227.642 49.1416L228.391 47.4725L237.72 45.5078Z" fill="#FF2C2C" stroke="#FF2C2C" stroke-width="0.17451" stroke-miterlimit="10" stroke-linejoin="round"/>
<path fill-rule="evenodd" clip-rule="evenodd" d="M236.971 47.1765L236.076 48.8283L226.733 50.793L227.642 49.1412L236.971 47.1765Z" fill="#FF1C1C" stroke="#FF1C1C" stroke-width="0.17451" stroke-miterlimit="10" stroke-linejoin="round"/>
<path fill-rule="evenodd" clip-rule="evenodd" d="M236.076 48.8283L235.174 50.341L225.978 52.3057L226.733 50.793L236.076 48.8283Z" fill="#FF1010" stroke="#FF1010" stroke-width="0.17451" stroke-miterlimit="10" stroke-linejoin="round"/>
<path fill-rule="evenodd" clip-rule="evenodd" d="M235.174 50.3406L234.419 51.9923L225.09 53.957L225.978 52.3053L235.174 50.3406Z" fill="#FF0000" stroke="#FF0000" stroke-width="0.17451" stroke-miterlimit="10" stroke-linejoin="round"/>
<path fill-rule="evenodd" clip-rule="evenodd" d="M234.419 51.993L233.51 53.6621L224.18 55.6094L225.09 53.9576L234.419 51.993ZM247.37 50.6368L247.21 50.7933L246.755 50.9498L247.37 50.6368Z" fill="#FF0C0C" stroke="#FF0C0C" stroke-width="0.17451" stroke-miterlimit="10" stroke-linejoin="round"/>
<path fill-rule="evenodd" clip-rule="evenodd" d="M233.51 53.6612L232.761 55.1738L223.425 57.1211L224.181 55.6085L233.51 53.6612ZM247.21 50.7924L246.301 52.4441L238.629 53.9567L246.755 50.9488L247.21 50.7924Z" fill="#FF1818" stroke="#FF1818" stroke-width="0.17451" stroke-miterlimit="10" stroke-linejoin="round"/>
<path fill-rule="evenodd" clip-rule="evenodd" d="M246.301 52.4449L245.252 54.114L222.516 58.791L223.425 57.1219L232.761 55.1746L232.006 56.5308L238.629 53.9575L246.301 52.4449Z" fill="#FF2828" stroke="#FF2828" stroke-width="0.17451" stroke-miterlimit="10" stroke-linejoin="round"/>
<path fill-rule="evenodd" clip-rule="evenodd" d="M245.252 54.1137L244.342 55.7654L221.768 60.4424L222.516 58.7907L245.252 54.1137Z" fill="#FF3434" stroke="#FF3434" stroke-width="0.17451" stroke-miterlimit="10" stroke-linejoin="round"/>
<path fill-rule="evenodd" clip-rule="evenodd" d="M244.342 55.7654L243.293 57.2781L220.859 61.9551L221.768 60.4424L244.342 55.7654Z" fill="#FF4444" stroke="#FF4444" stroke-width="0.17451" stroke-miterlimit="10" stroke-linejoin="round"/>
<path fill-rule="evenodd" clip-rule="evenodd" d="M243.293 57.2777L242.391 58.9294L219.97 63.6064L220.859 61.9547L243.293 57.2777Z" fill="#FF5050" stroke="#FF5050" stroke-width="0.17451" stroke-miterlimit="10" stroke-linejoin="round"/>
<path fill-rule="evenodd" clip-rule="evenodd" d="M242.391 58.9303L241.342 60.5994L219.201 65.2764L219.97 63.6073L242.391 58.9303Z" fill="#FF6060" stroke="#FF6060" stroke-width="0.17451" stroke-miterlimit="10" stroke-linejoin="round"/>
<path fill-rule="evenodd" clip-rule="evenodd" d="M241.342 60.5992L240.433 62.251L218.306 66.7715L219.201 65.2762L241.342 60.5992Z" fill="#FF6C6C" stroke="#FF6C6C" stroke-width="0.17451" stroke-miterlimit="10" stroke-linejoin="round"/>
<path fill-rule="evenodd" clip-rule="evenodd" d="M240.433 62.2508L239.384 63.9025L217.558 68.4404L218.306 66.7713L240.433 62.2508Z" fill="#FF7C7C" stroke="#FF7C7C" stroke-width="0.17451" stroke-miterlimit="10" stroke-linejoin="round"/>
<path fill-rule="evenodd" clip-rule="evenodd" d="M239.384 63.9022L238.475 65.5713L231.552 66.9274L231.852 66.3189L228.391 67.536L216.649 70.0918L217.558 68.4401L239.384 63.9022Z" fill="#FF8888" stroke="#FF8888" stroke-width="0.17451" stroke-miterlimit="10" stroke-linejoin="round"/>
<path fill-rule="evenodd" clip-rule="evenodd" d="M228.391 67.536L220.404 70.7004L215.74 71.6045L216.649 70.0919L228.391 67.536ZM238.475 65.5713L237.426 67.2231L230.803 68.5792L231.552 66.9275L238.475 65.5713Z" fill="#FF9494" stroke="#FF9494" stroke-width="0.17451" stroke-miterlimit="10" stroke-linejoin="round"/>
<path fill-rule="evenodd" clip-rule="evenodd" d="M220.404 70.7002L215.285 72.6475L215.739 71.6043L220.404 70.7002ZM237.426 67.2228L236.377 68.7355L230.188 70.0916L230.803 68.579L237.426 67.2228Z" fill="#FFA4A4" stroke="#FFA4A4" stroke-width="0.17451" stroke-miterlimit="10" stroke-linejoin="round"/>
<path fill-rule="evenodd" clip-rule="evenodd" d="M236.377 68.7363L235.468 70.388L229.439 71.7441L230.188 70.0924L236.377 68.7363Z" fill="#FFB0B0" stroke="#FFB0B0" stroke-width="0.17451" stroke-miterlimit="10" stroke-linejoin="round"/>
<path fill-rule="evenodd" clip-rule="evenodd" d="M235.468 70.388L234.419 72.0572L228.691 73.2568L229.439 71.7442L235.468 70.388Z" fill="#FFC0C0" stroke="#FFC0C0" stroke-width="0.17451" stroke-miterlimit="10" stroke-linejoin="round"/>
<path fill-rule="evenodd" clip-rule="evenodd" d="M234.419 72.0562L233.51 73.708L228.097 74.7686L228.691 73.2559L234.419 72.0562Z" fill="#FFCCCC" stroke="#FFCCCC" stroke-width="0.17451" stroke-miterlimit="10" stroke-linejoin="round"/>
<path fill-rule="evenodd" clip-rule="evenodd" d="M233.51 73.7086L232.461 75.3777L227.342 76.4209L228.097 74.7692L233.51 73.7086Z" fill="#FFDCDC" stroke="#FFDCDC" stroke-width="0.17451" stroke-miterlimit="10" stroke-linejoin="round"/>
<path fill-rule="evenodd" clip-rule="evenodd" d="M232.461 75.3778L231.552 77.0295L226.733 77.9336L227.342 76.421L232.461 75.3778Z" fill="#FFE8E8" stroke="#FFE8E8" stroke-width="0.17451" stroke-miterlimit="10" stroke-linejoin="round"/>
<path fill-rule="evenodd" clip-rule="evenodd" d="M231.552 77.0291L230.502 78.6809L225.978 79.585L226.733 77.9332L231.552 77.0291Z" fill="#FFF8F8" stroke="#FFF8F8" stroke-width="0.17451" stroke-miterlimit="10" stroke-linejoin="round"/>
<path fill-rule="evenodd" clip-rule="evenodd" d="M230.502 78.6809L229.593 80.1936L225.383 81.0977L225.978 79.585L230.502 78.6809Z" fill="#FFFCFC" stroke="#FFFCFC" stroke-width="0.17451" stroke-miterlimit="10" stroke-linejoin="round"/>
<path fill-rule="evenodd" clip-rule="evenodd" d="M229.593 80.1934L228.551 81.8451L224.635 82.7666L225.383 81.0975L229.593 80.1934Z" fill="#FFF0F0" stroke="#FFF0F0" stroke-width="0.17451" stroke-miterlimit="10" stroke-linejoin="round"/>
<path fill-rule="evenodd" clip-rule="evenodd" d="M228.551 81.845L227.481 83.5141L224.02 84.2617L224.635 82.7665L228.551 81.845Z" fill="#FFE0E0" stroke="#FFE0E0" stroke-width="0.17451" stroke-miterlimit="10" stroke-linejoin="round"/>
<path fill-rule="evenodd" clip-rule="evenodd" d="M227.481 83.5149L226.593 85.1666L223.271 85.9316L224.02 84.2625L227.481 83.5149Z" fill="#FFD4D4" stroke="#FFD4D4" stroke-width="0.17451" stroke-miterlimit="10" stroke-linejoin="round"/>
<path fill-rule="evenodd" clip-rule="evenodd" d="M226.593 85.1665L225.523 86.8356L222.516 87.4268L223.271 85.9315L226.593 85.1665Z" fill="#FFC4C4" stroke="#FFC4C4" stroke-width="0.17451" stroke-miterlimit="10" stroke-linejoin="round"/>
<path fill-rule="evenodd" clip-rule="evenodd" d="M225.523 86.8357L224.635 88.4874L221.922 88.9395L222.516 87.4268L225.523 86.8357Z" fill="#FFB8B8" stroke="#FFB8B8" stroke-width="0.17451" stroke-miterlimit="10" stroke-linejoin="round"/>
<path fill-rule="evenodd" clip-rule="evenodd" d="M224.635 88.4872L223.565 90.139L221.159 90.6084L221.922 88.9393L224.635 88.4872Z" fill="#FFA8A8" stroke="#FFA8A8" stroke-width="0.17451" stroke-miterlimit="10" stroke-linejoin="round"/>
<path fill-rule="evenodd" clip-rule="evenodd" d="M223.565 90.1388L222.677 91.6515L220.565 92.1035L221.159 90.6083L223.565 90.1388Z" fill="#FF9C9C" stroke="#FF9C9C" stroke-width="0.17451" stroke-miterlimit="10" stroke-linejoin="round"/>
<path fill-rule="evenodd" clip-rule="evenodd" d="M222.677 91.6513L221.614 93.3204L219.81 93.7725L220.565 92.1033L222.677 91.6513Z" fill="#FF8C8C" stroke="#FF8C8C" stroke-width="0.17451" stroke-miterlimit="10" stroke-linejoin="round"/>
<path fill-rule="evenodd" clip-rule="evenodd" d="M221.614 93.3203L220.719 94.972L219.201 95.2676L219.81 93.7723L221.614 93.3203Z" fill="#FF8080" stroke="#FF8080" stroke-width="0.17451" stroke-miterlimit="10" stroke-linejoin="round"/>
<path fill-rule="evenodd" clip-rule="evenodd" d="M220.719 94.9718L219.656 96.6236L218.446 96.9365L219.201 95.2674L220.719 94.9718Z" fill="#FF7474" stroke="#FF7474" stroke-width="0.17451" stroke-miterlimit="10" stroke-linejoin="round"/>
<path fill-rule="evenodd" clip-rule="evenodd" d="M219.656 96.6244L218.761 98.2935L217.698 98.4326L218.446 96.9374L219.656 96.6244Z" fill="#FF6464" stroke="#FF6464" stroke-width="0.17451" stroke-miterlimit="10" stroke-linejoin="round"/>
<path fill-rule="evenodd" clip-rule="evenodd" d="M218.761 98.2934L217.698 99.9451L217.103 100.102L217.698 98.4324L218.761 98.2934Z" fill="#FF5858" stroke="#FF5858" stroke-width="0.17451" stroke-miterlimit="10" stroke-linejoin="round"/>
<path fill-rule="evenodd" clip-rule="evenodd" d="M217.698 99.9451L216.649 101.614H216.348L217.103 100.102L217.698 99.9451Z" fill="#FF4848" stroke="#FF4848" stroke-width="0.17451" stroke-miterlimit="10" stroke-linejoin="round"/>
<path fill-rule="evenodd" clip-rule="evenodd" d="M216.649 101.614L215.74 103.109V103.266L216.348 101.614H216.649Z" fill="#FF3C3C" stroke="#FF3C3C" stroke-width="0.17451" stroke-miterlimit="10" stroke-linejoin="round"/>
<path fill-rule="evenodd" clip-rule="evenodd" d="M215.739 103.109L215.6 103.422L215.739 103.265V103.109Z" fill="#FF2C2C" stroke="#FF2C2C" stroke-width="0.17451" stroke-miterlimit="10" stroke-linejoin="round"/>
<path fill-rule="evenodd" clip-rule="evenodd" d="M235.629 4.05734L215.74 41.143L236.216 33.3016L216.054 71.8999L232.461 65.7277L217.558 99.649L246.462 51.4011L231.258 57.2778L249.469 22.4524L231.097 29.3862L235.629 4.05734ZM236.377 1.77622L231.552 28.7811L250.371 21.5483L232.006 56.5302L247.371 50.6361L215.6 103.422L231.852 66.3188L215.285 72.6476L235.629 34.0458L214.844 42.0471L236.377 1.77622Z" fill="#FF0000" stroke="#FF0000" stroke-width="0.17451" stroke-miterlimit="10" stroke-linejoin="round"/>
<path fill-rule="evenodd" clip-rule="evenodd" d="M1.77698 29.8384H13.6771V41.5952L24.0574 29.8384H38.0721L24.8091 43.4034L39.4176 66.0234H25.263L16.5255 51.5404L13.6771 54.5657V66.0234H1.77698V29.8384Z" fill="black" stroke="black" stroke-width="0.17451" stroke-miterlimit="10" stroke-linejoin="round"/>
<path fill-rule="evenodd" clip-rule="evenodd" d="M43.7864 66.0234H55.687V29.8419H43.7864V66.0234Z" fill="black" stroke="black" stroke-width="0.17451" stroke-miterlimit="10" stroke-linejoin="round"/>
<path fill-rule="evenodd" clip-rule="evenodd" d="M63.0615 29.8384H74.2076L87.1593 49.5931L86.7047 41.2997V29.8384H97.992V66.0234H86.8446L73.8929 46.2722L74.3474 54.5657V66.0234H63.0615V29.8384Z" fill="black" stroke="black" stroke-width="0.17451" stroke-miterlimit="10" stroke-linejoin="round"/>
<path fill-rule="evenodd" clip-rule="evenodd" d="M116.671 38.2744V57.5735H119.224L121.798 57.4344L123.889 56.6694L125.553 55.1742L126.756 53.3486L127.511 50.9492L127.805 47.7849L127.665 44.9161L127.057 42.6558L126.301 40.8476L125.098 39.6305L123.434 38.8794L121.483 38.4274L118.93 38.2744H116.671ZM104.776 29.8384H120.728L124.504 29.9775L127.805 30.5895L130.826 31.6466L133.379 33.1419L135.637 34.9501L137.295 37.3703L138.659 40.0826L139.407 43.4034L139.708 47.1763L139.407 51.4013L138.498 55.0177L137.295 58.1821L135.498 60.7379L133.225 62.7026L130.511 64.2152L127.511 65.2758L124.189 65.867L120.434 66.0234H104.776V29.8384Z" fill="black" stroke="black" stroke-width="0.17451" stroke-miterlimit="10" stroke-linejoin="round"/>
<path fill-rule="evenodd" clip-rule="evenodd" d="M144.526 29.8384H174.185V38.2744H156.415V43.4034H171.318V51.8533H156.415V57.5735H174.793V66.0234H144.526V29.8384Z" fill="black" stroke="black" stroke-width="0.17451" stroke-miterlimit="10" stroke-linejoin="round"/>
<path fill-rule="evenodd" clip-rule="evenodd" d="M192.095 38.2744V45.5072H196.78L198.739 45.3681L200.375 44.9161L201.445 44.3075L202.193 43.4034L202.333 42.0473L202.193 40.6911L201.445 39.6305L200.536 38.8794L199.172 38.4274L197.529 38.2744H192.095ZM180.213 29.8384H197.214L201.445 29.9775L204.907 30.4296L207.767 31.1946L209.865 32.2378L211.529 33.7539L212.578 35.5621L213.187 37.6624L213.327 40.0826L213.187 42.4993L212.439 44.7596L211.229 46.5678L209.571 48.0804L207.319 48.9846L208.816 49.5931L210.166 50.1842L211.229 51.0883L212.124 52.1489L212.893 53.8006L213.327 55.9218L213.488 58.6341V61.0509V62.8591L213.641 64.0587L213.942 64.8064L214.69 64.9629V66.0234H202.648L202.333 64.8064L202.193 62.7026L202.039 59.6947L201.9 57.5735L201.585 55.9218L200.99 54.8612L199.788 53.9571L198.123 53.5051L195.71 53.3486H192.095V66.0234H180.213V29.8384Z" fill="black" stroke="black" stroke-width="0.17451" stroke-miterlimit="10" stroke-linejoin="round"/>
<path fill-rule="evenodd" clip-rule="evenodd" d="M252.783 29.8384H267.239L273.561 52.4445L280.044 29.8384H294.338V66.0234H283.645V55.0177L283.806 49.2801L284.4 42.7949L277.778 66.0234H269.491L262.868 42.7949H262.728L263.322 48.0804L263.483 53.8006V66.0234H252.783V29.8384Z" fill="black" stroke="black" stroke-width="0.17451" stroke-miterlimit="10" stroke-linejoin="round"/>
<path fill-rule="evenodd" clip-rule="evenodd" d="M318.283 37.6623L316.185 37.9753L314.521 38.8794L313.164 40.239L312.255 41.8908L311.661 43.699L311.36 45.6637L311.206 47.7848L311.36 49.4366L311.5 51.2448L311.954 53.053L312.71 54.7047L313.619 56.0609L314.822 57.1215L316.325 57.8865L318.283 58.182L320.395 57.8865L322.053 57.1215L323.263 55.9218L324.312 54.4091L324.906 52.4445L325.361 50.1842L325.515 47.7848L325.361 45.6637L324.906 43.5599L324.312 41.5952L323.263 40.0826L321.899 38.7264L320.242 37.9753L318.283 37.6623ZM318.283 28.7813L322.354 29.0734L325.969 30.1374L328.976 31.6466L331.529 33.5939L333.641 35.8541L335.305 38.5873L336.508 41.4387L337.103 44.6031L337.396 47.7848L337.103 51.6968L336.208 55.1741L334.851 58.182L333.047 60.8943L330.634 62.9981L328.067 64.8063L325.06 66.0234L321.738 66.771L318.283 67.084L314.661 66.771L311.36 66.0234L308.339 64.8063L305.786 62.9981L303.534 60.7379L301.716 58.182L300.366 55.0177L299.618 51.5403L299.303 47.6284L299.758 43.5599L300.667 39.9435L302.325 36.6191L304.583 33.9068L307.444 31.7857L310.612 30.1374L314.227 29.0734L318.283 28.7813Z" fill="black" stroke="black" stroke-width="0.17451" stroke-miterlimit="10" stroke-linejoin="round"/>
<path fill-rule="evenodd" clip-rule="evenodd" d="M354.278 38.2744V45.5072H358.943L361.041 45.3681L362.544 44.9161L363.747 44.3075L364.363 43.4034L364.656 42.0473L364.363 40.6911L363.747 39.6305L362.705 38.8794L361.356 38.4274L359.838 38.2744H354.278ZM342.383 29.8384H359.537L363.747 29.9775L367.23 30.4296L369.936 31.1946L372.188 32.2378L373.692 33.7539L374.741 35.5621L375.356 37.6624L375.65 40.0826L375.356 42.4993L374.741 44.7596L373.538 46.5678L371.734 48.0804L369.482 48.9846L371.139 49.5931L372.349 50.1842L373.538 51.0883L374.447 52.1489L375.056 53.8006L375.496 55.9218L375.65 58.6341V61.0509V62.8591L375.811 64.0587L376.265 64.8064L376.86 64.9629V66.0234H364.817L364.656 64.8064L364.363 62.7026L364.202 59.6947V57.5735L363.908 55.9218L363.16 54.8612L362.111 53.9571L360.293 53.5051L357.88 53.3486H354.278V66.0234H342.383V29.8384Z" fill="black" stroke="black" stroke-width="0.17451" stroke-miterlimit="10" stroke-linejoin="round"/>
<path fill-rule="evenodd" clip-rule="evenodd" d="M399.449 28.7813L402.596 29.0734L405.624 29.6854L408.33 30.7425L410.743 32.2377L412.841 34.0459L414.652 36.4661L415.862 39.1785L416.61 42.3428H405.323L404.554 40.239L403.211 38.8794L401.407 37.9753L399.295 37.6623L397.183 37.9753L395.378 39.0394L394.015 40.5346L393.127 42.6558L392.511 45.3681L392.371 48.376L392.511 50.4971L392.812 52.6009L393.56 54.4091L394.469 55.9218L395.833 57.1215L397.637 57.8865L400.043 58.182L401.547 58.0256L403.05 57.4344L404.414 56.5303L405.463 55.3132L406.078 53.9571H400.798V46.1157H417.065V66.1799H409.533L409.078 62.5461L407.715 63.9022L405.917 65.1193L403.805 66.1799L401.253 66.771L398.092 67.084L395.085 66.771L392.064 66.1799L389.35 64.9628L386.937 63.4502L384.846 61.3464L383.028 58.7906L381.678 55.9218L380.769 52.3054L380.476 48.376L380.769 44.151L381.818 40.3955L383.483 37.0712L385.595 34.2059L388.301 31.9456L391.609 30.2904L395.378 29.2333L399.449 28.7813Z" fill="black" stroke="black" stroke-width="0.17451" stroke-miterlimit="10" stroke-linejoin="round"/>
<path fill-rule="evenodd" clip-rule="evenodd" d="M439.94 40.6911L436.339 53.6616H443.857L439.94 40.6911ZM434.073 29.8384H446.129L459.074 66.0234H447.332L445.815 61.3464H434.073L432.723 66.0234H421.121L434.073 29.8384Z" fill="black" stroke="black" stroke-width="0.17451" stroke-miterlimit="10" stroke-linejoin="round"/>
<path fill-rule="evenodd" clip-rule="evenodd" d="M463.13 29.8384H474.278L487.229 49.5931L486.775 41.2997V29.8384H498.223V66.0234H487.068L474.124 46.2722L474.578 54.5657V66.0234H463.13V29.8384Z" fill="black" stroke="black" stroke-width="0.17451" stroke-miterlimit="10" stroke-linejoin="round"/>
<path fill-rule="evenodd" clip-rule="evenodd" d="M464.333 83.9668H466.745V71.9005H464.333V83.9668Z" fill="black" stroke="black" stroke-width="0.17451" stroke-miterlimit="10" stroke-linejoin="round"/>
<path fill-rule="evenodd" clip-rule="evenodd" d="M469.914 71.9005H472.32L477.285 80.0374V71.9005H479.558V83.9668H477.145L472.166 75.969V83.9668H469.914V71.9005Z" fill="black" stroke="black" stroke-width="0.17451" stroke-miterlimit="10" stroke-linejoin="round"/>
<path fill-rule="evenodd" clip-rule="evenodd" d="M488.138 71.7438L490.097 72.0567L491.754 72.9608L492.188 73.5694L492.642 74.317L492.943 75.2211L490.551 75.8296L490.39 75.2211L490.097 74.769L489.642 74.317L489.187 74.0214L488.593 73.8649L487.978 73.7085L487.383 73.8649L486.775 74.0214L486.32 74.317L485.866 74.769L485.11 75.9687L484.97 77.7769L485.11 79.7416L485.866 81.0978L486.18 81.5498L486.775 81.8454L487.383 82.0019H487.978H488.593L489.187 81.8454L489.642 81.3933L490.097 80.9413L490.39 80.3502L490.551 79.5851L492.943 80.1937L492.188 82.0019L491.146 83.2189L489.782 83.9666L487.978 84.123L486.474 83.9666L485.11 83.358L484.068 82.4539L483.159 81.2543L482.719 79.7416L482.404 78.0899L482.719 76.1252L483.159 74.6126L484.068 73.4129L485.11 72.5088L486.474 71.9003L488.138 71.7438Z" fill="black" stroke="black" stroke-width="0.17451" stroke-miterlimit="10" stroke-linejoin="round"/>
<path fill-rule="evenodd" clip-rule="evenodd" d="M495.81 83.9668H498.222V81.7065H495.81V83.9668Z" fill="black" stroke="black" stroke-width="0.17451" stroke-miterlimit="10" stroke-linejoin="round"/>
</g>
</g>
</g>
<defs>
<clipPath id="clip0_9_16125">
<rect width="500" height="110.632" fill="white"/>
</clipPath>
</defs>
</svg>
