<svg width="500" height="500" viewBox="0 0 500 500" fill="none" xmlns="http://www.w3.org/2000/svg">
<path d="M470.936 297.355L400.17 111.686C397.347 103.543 393.252 96.66 388.345 91.7766C382.336 85.8146 375.187 82.7852 367.082 82.7852H132.913C124.807 82.7852 117.647 85.8146 111.65 91.7766C106.731 96.66 102.648 103.543 99.8494 111.613L29.034 297.416C23.1095 314.211 23.4367 323.735 27.4469 343.839L27.4954 344.057C28.2223 346.553 45.4264 405.252 45.802 406.439L45.8383 406.56C49.9697 419.757 54.6584 434.722 79.7134 434.722H420.269C445.324 434.722 450.013 419.757 454.144 406.56L454.181 406.439C454.556 405.252 471.76 346.553 472.487 344.057L472.536 343.839C476.546 323.735 476.885 314.211 470.936 297.355Z" fill="white"/>
<path d="M495.507 293.138L495.483 293.077L424.05 105.712C413.667 75.4779 394.33 58.3555 365.023 58.3555H134.961C105.653 58.3555 86.3167 75.4779 75.9337 105.712L4.50039 293.077V293.138C1.28977 303.91 -3.24144 322.293 3.47057 347.946C6.16022 358.222 21.7893 411.044 21.7893 411.044C29.725 440.563 45.039 459.079 79.7864 459.079H420.197C454.956 459.079 470.258 440.551 478.206 411.044C478.206 411.044 493.835 358.222 496.525 347.946C503.237 322.293 498.718 303.91 495.519 293.138M470.137 343.354C470.137 343.354 452.218 404.512 451.843 405.688L451.806 405.809C447.736 418.799 443.519 432.177 420.282 432.177H79.7258C56.4882 432.177 52.272 418.799 48.2012 405.809L48.1648 405.688C47.7892 404.5 29.8703 343.354 29.8703 343.354C25.957 323.747 25.6299 314.477 31.3606 298.239L102.152 112.498C104.853 104.694 108.73 98.1503 113.383 93.5334C118.908 88.0441 125.474 85.257 132.913 85.257H367.07C374.497 85.257 381.076 88.0441 386.6 93.5334C391.253 98.1503 395.13 104.694 397.832 112.498L468.623 298.227C474.353 314.465 474.026 323.747 470.113 343.342" fill="#00509E"/>
<path fill-rule="evenodd" clip-rule="evenodd" d="M360.479 112.17L282.867 112.206L249.9 217.97L216.849 112.206L139.237 112.17L76.1272 331.55L159.24 331.538L182.659 220.83L217.467 331.272H282.249L317.057 220.83L340.476 331.538L423.589 331.55L360.479 112.17Z" fill="#EE3124"/>
<path d="M362.248 358.065C355.233 358.065 349.696 359.943 345.431 363.191C340.125 367.25 338.562 374.582 338.404 381.925C338.344 384.906 338.102 394.225 344.45 399.956C348.606 403.701 355.003 405.676 362.248 405.724H362.454C369.699 405.676 376.096 403.701 380.239 399.956C386.588 394.225 386.346 384.906 386.285 381.925C386.128 374.582 384.565 367.238 379.258 363.191C375.005 359.943 369.154 357.992 362.442 358.065H362.236H362.248ZM372.909 381.876C372.909 391.122 369.348 395.921 362.32 396.054C355.293 395.909 351.731 391.122 351.731 381.876C351.731 372.631 355.293 367.832 362.32 367.699C369.348 367.844 372.909 372.631 372.909 381.876ZM279.68 358.453H288.561V368.074H279.668V391.583C279.62 397.714 284.696 395.836 288.561 395.594V405.155C276.143 406.888 268.752 404.597 267.117 398.042V397.981C266.814 396.406 266.596 395.194 266.583 392.989V368.062H258.914V358.441H266.596V346.808H279.632C279.656 351.424 279.68 357.277 279.68 358.441M389.932 405.312V358.441H403.017V361.858C406.857 360.174 410.359 358.162 416.986 358.065H417.071C432.385 358.065 431.779 368.086 431.779 374.279V405.312H418.694V372.582C418.549 369.88 418.185 367.699 412.443 367.699C404.931 367.699 402.932 370.352 403.017 370.352V405.312H389.932ZM292.923 405.312V346.808H306.007V361.858C309.848 360.174 313.349 358.162 319.977 358.065H320.061C335.376 358.065 334.77 368.086 334.77 374.279V405.312H321.685V372.582C321.54 369.88 321.176 367.699 315.433 367.699C307.922 367.699 305.923 370.352 306.007 370.352V405.312H292.923ZM67.8763 405.349L78.8773 346.844H96.2631L104.247 379.465L112.231 346.844H129.617L140.618 405.349H126.273L119.585 369.48L110.874 405.349H97.6321L88.9211 369.48L82.2333 405.349H67.8885H67.8763ZM215.323 369.868C211.639 369.056 200.82 368.704 200.82 376.908V405.337H187.735V358.477H200.82V363.13C205.994 358.077 212.657 358.768 215.323 359.907V369.868ZM256.673 372.073C256.673 369.274 255.982 366.329 254.504 364.318C250.555 359.107 242.207 358.598 236.828 358.501C227.414 358.32 220.775 362.112 219.381 362.815L222.131 371.637C224.179 369.94 228.177 367.553 235.24 367.747C241.916 367.929 243.588 370.074 243.588 372.473V374.085C243.588 374.085 235.774 374.157 227.293 376.642C225.572 377.138 223.9 377.805 222.374 378.653C218.255 380.943 215.359 385.088 214.995 390.008C214.341 398.854 220.569 405.433 228.759 405.761C236.004 406.039 239.663 403.858 243.588 401.58V405.361H256.673V372.085V372.073ZM243.588 393.364C238.475 396.854 232.539 396.418 232.187 396.381C229.255 396.127 227.062 393.304 227.268 390.468C227.402 388.735 228.456 387.317 229.813 386.3C230.443 385.827 233.569 383.827 243.588 383.415V393.352V393.364ZM183.374 372.073C183.374 369.274 182.683 366.329 181.205 364.318C177.256 359.107 168.908 358.598 163.529 358.501C154.115 358.32 147.475 362.112 146.082 362.815L148.832 371.637C150.88 369.94 154.878 367.553 161.941 367.747C168.617 367.929 170.289 370.074 170.289 372.473V374.085C170.289 374.085 162.475 374.157 153.994 376.642C152.273 377.138 150.601 377.805 149.075 378.653C144.955 380.943 142.06 385.088 141.696 390.008C141.042 398.854 147.27 405.433 155.46 405.761C162.705 406.039 166.364 403.858 170.289 401.58V405.361H183.374V372.085V372.073ZM170.289 393.364C165.176 396.854 159.24 396.418 158.888 396.381C155.956 396.127 153.763 393.304 153.969 390.468C154.091 388.735 155.157 387.317 156.514 386.3C157.144 385.827 160.27 383.827 170.289 383.415V393.352V393.364Z" fill="#01519D"/>
</svg>
