<svg width="500" height="139" viewBox="0 0 500 139" fill="none" xmlns="http://www.w3.org/2000/svg">
<g clip-path="url(#clip0_9_16124)">
<path fill-rule="evenodd" clip-rule="evenodd" d="M263.758 2.16635C243.949 15.2237 239.363 52.6759 239.045 55.3192H224.427C225.127 50.2237 232.389 1.78418 259.809 1.78418C260.149 1.78418 260.488 1.7948 260.828 1.81603C261.168 1.83726 261.507 1.85849 261.847 1.87972C262.166 1.92218 262.495 1.96465 262.834 2.00711C263.174 2.04957 263.503 2.10265 263.822 2.16635" fill="#72CDF4"/>
<path fill-rule="evenodd" clip-rule="evenodd" d="M271.975 1.11496C273.015 0.860186 274.066 0.669103 275.127 0.541714C276.168 0.393094 277.229 0.318784 278.312 0.318784C279.374 0.297553 280.435 0.340016 281.497 0.446173C282.558 0.55233 283.609 0.722181 284.65 0.955727C282.229 2.45254 280.032 4.26783 277.93 6.2742C277.484 5.78588 277.028 5.31878 276.561 4.87292C276.072 4.40583 275.584 3.95997 275.096 3.53535C274.586 3.11072 274.076 2.6967 273.567 2.29331C273.036 1.88991 272.505 1.49713 271.975 1.11496ZM275.223 8.69458C274.777 8.22749 274.321 7.77101 273.854 7.32515C273.365 6.90053 272.856 6.48651 272.325 6.08312C271.815 5.67972 271.285 5.30817 270.732 4.96847C270.18 4.60753 269.618 4.27844 269.045 3.9812C249.363 13.3761 243.822 50.892 243.248 55.3188H257.803C258.089 53.1213 261.592 24.7137 275.223 8.69458Z" fill="#00A4E4"/>
<path fill-rule="evenodd" clip-rule="evenodd" d="M280.35 8.88583C280.902 8.33382 281.465 7.81365 282.038 7.32533C282.633 6.837 283.238 6.36991 283.853 5.92405C284.469 5.47819 285.106 5.06418 285.764 4.68201C286.422 4.27862 287.102 3.90707 287.803 3.56736C290.095 4.74571 292.261 6.46545 294.427 8.69475C293.726 9.52278 293.057 10.372 292.42 11.2425C291.783 12.0918 291.168 12.9729 290.573 13.8858C289.979 14.7776 289.416 15.6905 288.885 16.6247C288.333 17.5589 287.824 18.5037 287.357 19.4591C286.847 18.5249 286.316 17.6013 285.764 16.6884C285.233 15.7967 284.671 14.9049 284.076 14.0132C283.503 13.1215 282.898 12.251 282.261 11.4018C281.645 10.5525 281.008 9.71386 280.35 8.88583ZM292.293 2.29348C292.824 2.69688 293.333 3.11089 293.822 3.53552C294.31 3.96015 294.798 4.40601 295.287 4.8731C295.754 5.31896 296.221 5.78605 296.688 6.27437C298.758 4.268 300.955 2.45271 303.376 0.955899C302.335 0.722353 301.284 0.552502 300.223 0.446345C299.161 0.340188 298.1 0.287109 297.038 0.287109C295.977 0.308341 294.915 0.382651 293.853 0.510039C292.792 0.658659 291.741 0.860358 290.701 1.11513C291.253 1.4973 291.783 1.89008 292.293 2.29348ZM285.127 23.3126C284.618 22.3147 284.087 21.3274 283.535 20.3508C282.983 19.3742 282.42 18.4187 281.847 17.4846C281.253 16.5291 280.637 15.5843 280 14.6502C279.384 13.7372 278.737 12.8349 278.057 11.9432C266.242 26.2744 262.516 51.0514 261.943 55.319H276.56C276.72 53.8221 278.662 37.9623 285.127 23.3126Z" fill="#0081C5"/>
<path fill-rule="evenodd" clip-rule="evenodd" d="M376.401 6.27441C375.86 10.5419 372.166 35.2872 360.35 49.6502C359.671 48.7585 359.013 47.8562 358.376 46.9432C357.739 46.009 357.123 45.0748 356.529 44.1407C355.934 43.1852 355.361 42.2192 354.809 41.2426C354.278 40.2659 353.758 39.2787 353.248 38.2808C359.65 23.8859 361.592 8.44002 361.815 6.27441H376.401ZM307.93 31.6247C307.187 29.8838 306.401 28.164 305.573 26.4655C304.745 24.7882 303.864 23.1215 302.93 21.4655C301.996 19.8094 301.009 18.1959 299.968 16.6247C298.949 15.0324 297.877 13.4719 296.752 11.9432C296.072 12.8137 295.403 13.7054 294.745 14.6184C294.108 15.5313 293.493 16.4655 292.898 17.4209C292.325 18.3551 291.773 19.3211 291.242 20.319C290.711 21.2956 290.223 22.2935 289.777 23.3126C290.86 25.4782 291.911 27.7075 292.93 29.9687C302.866 51.7203 310.828 59.8094 322.325 59.8094C323.885 59.8094 325.414 59.6502 326.879 59.3317C320.35 54.6184 314.49 46.0196 307.93 31.6247Z" fill="#72CDF4"/>
<path fill-rule="evenodd" clip-rule="evenodd" d="M329.236 37.1662C330.149 38.9921 331.115 40.7861 332.134 42.5483C333.153 44.2893 334.225 46.009 335.35 47.7076C336.454 49.4061 337.622 51.0727 338.853 52.7076C336.688 54.8095 334.331 56.4655 331.847 57.6439C324.936 54.077 318.917 45.7649 311.72 29.9687C310.913 28.1003 310.053 26.2532 309.14 24.4273C308.227 22.6226 307.261 20.8392 306.242 19.077C305.223 17.3148 304.161 15.5844 303.057 13.8859C301.932 12.1874 300.754 10.5313 299.522 8.91775C301.72 6.81584 304.045 5.12794 306.529 3.98145C313.439 7.51648 319.459 15.8604 326.688 31.6248C327.473 33.4931 328.323 35.3403 329.236 37.1662ZM335 60.6375C336.04 60.871 337.091 61.0409 338.153 61.1471C339.214 61.2532 340.276 61.3063 341.338 61.3063C342.42 61.2851 343.482 61.2107 344.522 61.0834C345.584 60.9347 346.635 60.733 347.675 60.4783C347.144 60.1173 346.613 59.7352 346.083 59.3318C345.573 58.9284 345.064 58.5037 344.554 58.0579C344.066 57.6333 343.577 57.198 343.089 56.7521C342.622 56.2851 342.166 55.818 341.72 55.3509C339.618 57.3572 337.388 59.1407 335 60.6057V60.6375ZM380.573 6.30629C380.287 8.50374 376.815 36.8477 363.153 52.8986C363.599 53.387 364.066 53.8434 364.554 54.2681C365.021 54.7139 365.52 55.1279 366.051 55.5101C366.56 55.9135 367.091 56.2957 367.643 56.6566C368.195 56.9963 368.758 57.3254 369.331 57.6439C388.885 48.3127 394.427 12.0069 395.191 6.30629H380.573Z" fill="#00A4E4"/>
<path fill-rule="evenodd" clip-rule="evenodd" d="M343.981 52.8988C344.66 52.0708 345.319 51.2322 345.955 50.3829C346.614 49.5124 347.229 48.6313 347.803 47.7396C348.397 46.8479 348.96 45.9349 349.49 45.0007C350.042 44.0666 350.552 43.1218 351.019 42.1663C353.376 46.3383 355.669 49.8415 358.025 52.7396C357.495 53.2704 356.932 53.7799 356.338 54.2683C355.764 54.7778 355.159 55.2555 354.522 55.7014C353.907 56.1472 353.27 56.5612 352.611 56.9434C351.953 57.3256 351.274 57.6865 350.573 58.0262C349.958 57.6865 349.363 57.3256 348.79 56.9434C348.195 56.5612 347.622 56.1579 347.07 55.7332C346.518 55.3086 345.977 54.8627 345.446 54.3956C344.936 53.9073 344.448 53.4084 343.981 52.8988ZM360.446 55.3511C358.376 57.3256 356.146 59.1727 353.726 60.6377C354.766 60.8712 355.817 61.0411 356.879 61.1472C357.941 61.2534 359.013 61.3065 360.096 61.3065C361.157 61.2852 362.219 61.2109 363.28 61.0835C364.342 60.9349 365.382 60.7332 366.401 60.4784C364.395 59.109 362.389 57.3893 360.446 55.3511ZM345.446 31.6249C335.51 9.87335 327.516 1.78418 316.051 1.78418C314.49 1.78418 312.962 1.97526 311.497 2.26189C318.025 7.00711 323.885 15.574 330.446 29.9689C331.189 31.7099 331.975 33.4296 332.803 35.1281C333.652 36.8266 334.544 38.4933 335.478 40.1281C336.412 41.7842 337.389 43.4084 338.408 45.0007C339.427 46.5719 340.499 48.1218 341.624 49.6504C342.325 48.7799 342.994 47.8882 343.631 46.9753C344.268 46.0623 344.883 45.1387 345.478 44.2046C346.051 43.2491 346.603 42.2725 347.134 41.2746C347.665 40.298 348.163 39.3001 348.631 38.281C347.516 36.1791 346.465 33.9179 345.446 31.6249ZM399.331 6.27463C399.045 8.94978 394.331 46.4339 374.586 59.4593C375.86 59.6823 377.134 59.8097 378.535 59.8097C406.051 59.8097 413.248 11.3702 413.917 6.27463H399.331Z" fill="#0081C5"/>
<path fill-rule="evenodd" clip-rule="evenodd" d="M495.573 82.0391L496.56 84.4595H495.541L494.682 82.2302H493.28V84.4595H492.325V79.0137H494.682C495.35 79.0137 495.764 79.1411 496.083 79.4277C496.168 79.4914 496.242 79.5763 496.306 79.6825C496.369 79.7674 496.422 79.8629 496.465 79.9691C496.507 80.0752 496.529 80.1814 496.529 80.2876C496.55 80.3937 496.56 80.4999 496.56 80.606C496.592 81.6251 495.892 81.9118 495.573 82.0391ZM495.541 80.606C495.541 80.192 495.255 79.8099 494.554 79.8099H493.28V81.4341H494.49C494.936 81.4341 495.541 81.243 495.541 80.606Z" fill="#4D504F"/>
<path fill-rule="evenodd" clip-rule="evenodd" d="M499.682 81.72C499.682 83.1212 499.14 84.427 498.153 85.4142C497.166 86.4015 495.86 86.9429 494.459 86.9429C493.057 86.9429 491.752 86.4015 490.764 85.4142C489.777 84.427 489.236 83.1212 489.204 81.72C489.204 78.8537 491.561 76.5289 494.427 76.5289C497.357 76.5289 499.713 78.8537 499.682 81.72ZM498.758 81.7518C498.758 79.3633 496.815 77.4843 494.427 77.4843C493.217 77.3569 492.006 77.7391 491.083 78.5352C490.159 79.3633 489.65 80.5098 489.65 81.7518C489.65 82.962 490.159 84.1403 491.083 84.9684C492.006 85.7645 493.217 86.1467 494.427 86.0193C496.815 86.0193 498.758 84.1085 498.758 81.7518ZM0 76.5289H11.465L30.1592 105.319L48.7898 76.5289H60.2548V137.516H49.4904V93.79L30.1592 122.516H29.8089L10.6051 93.9493V137.516H0L0 76.5289ZM98.8854 137.516V131.847C97.9618 132.898 96.9427 133.886 95.7962 134.745C94.6815 135.573 93.4395 136.306 92.1656 136.879C90.8599 137.452 89.5223 137.866 88.121 138.121C86.7516 138.408 85.3185 138.503 83.9172 138.44C75.1911 138.44 67.4522 133.472 67.4522 124.236V124.077C67.4522 113.886 75.4459 109.013 86.2102 109.013C91.7834 109.013 95.414 109.809 99.0127 110.924V110.032C99.0127 103.694 94.9682 100.223 87.6115 100.223C82.4522 100.223 78.5987 101.338 74.3949 103.089L71.4968 94.618C76.5605 92.3569 81.5605 90.7964 89.0764 90.7964C102.771 90.7964 109.427 97.962 109.427 110.223V137.516C109.427 137.516 98.9172 137.516 98.8854 137.516ZM99.172 118.249C96.4331 117.198 92.707 116.433 88.5987 116.433C81.9108 116.433 77.9618 119.108 77.9618 123.535V123.726C77.9618 128.058 81.9108 130.51 86.9108 130.51C93.9172 130.51 99.172 126.593 99.172 120.86C99.172 120.86 99.172 118.217 99.172 118.249ZM117.484 91.497H128.057V101.879C130.955 95.0002 136.306 90.2868 144.427 90.6372V101.816H143.854C134.554 101.816 128.057 107.771 128.057 119.968V137.516H117.484V91.497ZM175.955 137.516V131.847C175.032 132.93 174.013 133.886 172.866 134.745C171.72 135.573 170.51 136.306 169.204 136.879C167.93 137.452 166.561 137.866 165.191 138.121C163.79 138.408 162.389 138.503 160.955 138.44C152.197 138.44 144.49 133.472 144.49 124.236V124.077C144.49 113.886 152.484 109.013 163.28 109.013C168.854 109.013 172.484 109.809 176.051 110.924V110.032C176.051 103.694 172.038 100.223 164.682 100.223C159.49 100.223 155.637 101.338 151.433 103.121L148.567 94.6499C153.631 92.3887 158.631 90.8282 166.146 90.8282C179.809 90.8282 186.465 97.962 186.465 110.223V137.516H175.955ZM176.242 118.249C173.535 117.198 169.777 116.433 165.669 116.433C158.981 116.433 155.064 119.108 155.064 123.535V123.726C155.064 128.089 158.981 130.51 163.981 130.51C170.987 130.51 176.242 126.593 176.242 120.86C176.242 120.86 176.242 118.217 176.242 118.249ZM195.732 100.573H189.841V91.497H195.732V78.8537H206.306V91.497H218.758V100.542H206.306V123.089C206.306 127.198 208.439 128.854 212.006 128.854C214.363 128.854 216.497 128.312 218.567 127.293V135.892C215.924 137.357 212.994 138.249 209.045 138.249C201.21 138.249 195.732 134.873 195.732 124.714V100.573ZM224.522 76.497V76.5289H224.49L224.522 76.497ZM235.096 76.5289V98.6626C238.089 94.3314 242.389 90.5416 249.554 90.5416C260 90.5416 266.019 97.5161 266.019 108.217V137.516H255.446V111.338C255.446 104.236 251.847 100.128 245.51 100.128C239.395 100.128 235.096 104.395 235.096 111.561V137.516H224.522V76.5289H235.096ZM271.433 114.745V114.586C271.465 111.37 272.102 108.185 273.376 105.223C274.618 102.293 276.465 99.618 278.758 97.3569C281.051 95.1276 283.79 93.376 286.752 92.1977C289.745 91.0512 292.93 90.4779 296.147 90.5416C310.318 90.5416 320.732 101.242 320.732 114.395V114.586C320.732 127.675 310.255 138.535 295.987 138.535C292.803 138.631 289.618 138.089 286.656 136.943C283.694 135.765 280.987 134.045 278.694 131.815C276.401 129.618 274.586 126.943 273.344 124.013C272.102 121.083 271.465 117.93 271.433 114.745ZM310.159 114.745V114.586C310.159 106.497 304.268 99.7773 295.987 99.7773C287.452 99.7773 282.038 106.401 282.038 114.395V114.586C282.038 122.612 287.93 129.395 296.147 129.395C304.713 129.395 310.159 122.707 310.159 114.745ZM326.624 91.497H337.197V98.6626C340.223 94.3314 344.522 90.5416 351.688 90.5416C362.102 90.5416 368.153 97.5161 368.153 108.217V137.516H357.58V111.338C357.58 104.236 353.949 100.128 347.643 100.128C341.497 100.128 337.229 104.395 337.229 111.561V137.516H326.656C326.656 137.516 326.656 91.497 326.624 91.497ZM381.847 107.198V107.007C381.847 89.841 395.191 75.5098 414.013 75.5098C432.866 75.5098 446.019 89.7136 446.019 106.847V107.007C446.019 124.172 432.675 138.535 413.854 138.535C395.032 138.535 381.847 124.331 381.847 107.198ZM434.713 107.198V107.007C434.713 95.1594 426.051 85.3187 413.822 85.3187C401.688 85.3187 393.185 95.0321 393.185 106.847V107.007C393.185 118.854 401.847 128.694 414.013 128.694C426.21 128.694 434.713 119.013 434.713 107.198ZM453.726 93.5352H464.299V137.484H453.726V93.5352ZM453.28 76.497H464.65V86.4652H453.28C453.28 86.497 453.28 76.497 453.28 76.497ZM473.312 76.497H483.885V137.484H473.312V76.497Z" fill="#4D504F"/>
</g>
<defs>
<clipPath id="clip0_9_16124">
<rect width="500" height="138.854" fill="white"/>
</clipPath>
</defs>
</svg>
