<svg width="500" height="519" viewBox="0 0 500 519" fill="none" xmlns="http://www.w3.org/2000/svg">
<path fill-rule="evenodd" clip-rule="evenodd" d="M153.085 354.337C180.246 402.488 232.099 450.633 319.751 453.099C380.248 453.099 429.629 428.41 466.67 383.967C472.845 375.327 480.25 364.214 483.952 355.573H488.893C448.89 451.34 357.707 517.352 255.077 518.54H249.384C204.938 517.301 164.198 508.661 124.69 486.438C124.69 486.438 46.915 450.636 9.87695 355.573H154.321L153.085 354.337Z" fill="#005BAB"/>
<path d="M153.085 354.337C180.246 402.488 232.099 450.633 319.751 453.099C380.248 453.099 429.629 428.41 466.67 383.967C472.845 375.327 480.25 364.214 483.952 355.573H488.893C448.89 451.34 357.707 517.352 255.077 518.54M249.384 518.537C204.938 517.298 164.198 508.658 124.69 486.435C124.69 486.435 46.915 450.633 9.87695 355.57H154.321" stroke="#F1EED3" stroke-width="0.0016" stroke-miterlimit="2.6131" stroke-linecap="square"/>
<path fill-rule="evenodd" clip-rule="evenodd" d="M225.928 202.485C235.804 217.298 243.212 227.177 249.384 237.054C256.791 225.944 261.727 218.537 272.842 202.485C290.127 202.485 311.117 202.485 328.398 202.485C312.35 223.472 296.298 245.695 285.188 259.277C300.004 279.028 313.583 297.548 328.398 316.069H271.606C264.199 304.956 258.027 295.079 249.384 282.733C243.212 292.607 233.335 306.189 225.928 316.069C207.41 316.069 186.42 316.069 170.372 316.069C183.951 297.548 198.766 277.792 213.582 259.277C200.002 241.993 182.718 221.003 170.372 202.485C186.42 202.485 201.236 202.485 225.928 202.485Z" fill="#ED1B2F"/>
<path d="M225.928 202.485C235.804 217.298 243.212 227.177 249.384 237.054C256.791 225.944 261.727 218.537 272.842 202.485C290.127 202.485 311.117 202.485 328.398 202.485C312.35 223.472 296.298 245.695 285.188 259.277C300.004 279.028 313.583 297.548 328.398 316.069H271.606C264.199 304.956 258.027 295.079 249.384 282.733C243.212 292.607 233.335 306.189 225.928 316.069C207.41 316.069 186.42 316.069 170.372 316.069C183.951 297.548 198.766 277.792 213.582 259.277C200.002 241.993 182.718 221.003 170.372 202.485C186.42 202.485 201.236 202.485 225.928 202.485Z" stroke="#F1EED3" stroke-width="0.0016" stroke-miterlimit="2.6131" stroke-linecap="square"/>
<path fill-rule="evenodd" clip-rule="evenodd" d="M420.986 235.818C429.629 224.705 438.273 213.595 446.914 202.485C464.198 202.485 483.949 202.485 500 202.485C477.774 230.88 453.085 261.746 444.442 272.853V316.069H396.294V272.853C386.42 259.277 351.848 216.064 341.971 202.485H395.055L420.986 235.818Z" fill="#ED1B2F"/>
<path d="M420.986 235.818C429.629 224.705 438.273 213.595 446.914 202.485C464.198 202.485 483.949 202.485 500 202.485C477.774 230.88 453.085 261.746 444.442 272.853V316.069H396.294V272.853C386.42 259.277 351.848 216.064 341.971 202.485H395.055L420.986 235.818Z" stroke="#F1EED3" stroke-width="0.0016" stroke-miterlimit="2.6131" stroke-linecap="square"/>
<path fill-rule="evenodd" clip-rule="evenodd" d="M344.443 164.211C318.518 117.299 266.668 69.1483 179.013 65.446C117.286 65.446 69.1378 91.3711 32.0968 134.584C25.9223 143.227 18.5177 154.337 13.5793 162.978H9.87695C49.9797 66.9708 141.53 0.879802 244.478 0.0136267C246.111 -0.00141106 247.744 -0.00742617 249.381 0.0136267C293.826 2.47982 334.567 11.1235 374.074 32.1103C374.074 32.1103 450.616 67.9122 488.89 162.975H343.21L344.443 164.211Z" fill="#005BAB"/>
<path d="M344.443 164.211C318.518 117.299 266.668 69.1483 179.013 65.446C117.286 65.446 69.1378 91.3711 32.0968 134.584C25.9223 143.227 18.5177 154.337 13.5793 162.978H9.87695C49.9797 66.9708 141.53 0.879802 244.478 0.0136267C246.111 -0.00141106 247.744 -0.00742617 249.381 0.0136267C293.826 2.47982 334.567 11.1235 374.074 32.1103C374.074 32.1103 450.616 67.9122 488.89 162.975H343.21" stroke="#F1EED3" stroke-width="0.0016" stroke-miterlimit="2.6131" stroke-linecap="square"/>
<path fill-rule="evenodd" clip-rule="evenodd" d="M123.457 316.069H30.8635C9.87681 316.069 0 301.247 0 290.14C0 259.277 0 248.164 0 227.177C3.7023 208.657 19.7536 202.485 30.8635 202.485H123.46C153.088 201.249 153.088 227.177 153.088 227.177C153.088 241.992 153.088 262.979 153.088 290.14C153.088 290.14 155.557 316.069 123.457 316.069ZM48.1479 259.274C48.1479 264.209 48.1479 261.743 48.1479 270.384C48.1479 270.384 48.1479 282.73 60.494 282.73C66.6655 282.73 72.84 282.73 77.7754 282.73C85.183 282.73 88.8883 282.73 95.0598 282.73C103.704 282.73 106.173 279.024 106.173 270.384C106.173 262.976 107.406 250.633 107.406 248.161C106.173 240.753 101.234 235.818 95.0628 235.818C72.843 235.818 95.0628 235.818 77.7784 235.818C72.843 235.818 66.6685 235.818 60.497 235.818C48.151 234.582 48.151 246.928 48.151 246.928C48.1479 255.569 48.1479 256.805 48.1479 259.274Z" fill="#ED1B2F"/>
<path fill-rule="evenodd" clip-rule="evenodd" d="M123.457 316.069H30.8635C9.87681 316.069 0 301.247 0 290.14C0 259.277 0 248.164 0 227.177C3.7023 208.657 19.7536 202.485 30.8635 202.485H123.46C153.088 201.249 153.088 227.177 153.088 227.177C153.088 241.992 153.088 262.979 153.088 290.14C153.088 290.14 155.557 316.069 123.457 316.069ZM48.1479 259.274C48.1479 264.209 48.1479 261.743 48.1479 270.384C48.1479 270.384 48.1479 282.73 60.494 282.73C66.6655 282.73 72.84 282.73 77.7754 282.73C85.183 282.73 88.8883 282.73 95.0598 282.73C103.704 282.73 106.173 279.024 106.173 270.384C106.173 262.976 107.406 250.633 107.406 248.161C107.406 240.753 101.234 235.818 95.0628 235.818C72.843 235.818 95.0628 235.818 77.7784 235.818C72.843 235.818 66.6685 235.818 60.497 235.818C48.151 234.582 48.151 246.928 48.151 246.928C48.1479 255.569 48.1479 256.805 48.1479 259.274Z" fill="#ED1B2F"/>
<path d="M123.457 316.069H30.8635C9.87681 316.069 0 301.247 0 290.14C0 259.277 0 248.164 0 227.177C3.7023 208.657 19.7536 202.485 30.8635 202.485H123.46C153.088 201.249 153.088 227.177 153.088 227.177C153.088 241.992 153.088 262.979 153.088 290.14C153.088 290.14 155.557 316.069 123.457 316.069ZM48.148 259.274C48.148 264.209 48.148 261.743 48.148 270.384C48.148 270.384 48.1479 282.73 60.494 282.73C66.6655 282.73 72.84 282.73 77.7754 282.73C85.183 282.73 88.8883 282.73 95.0598 282.73C103.704 282.73 106.173 279.024 106.173 270.384C106.173 262.976 107.406 250.633 107.406 248.161C107.406 240.753 101.234 235.818 95.0628 235.818C72.843 235.818 95.0628 235.818 77.7784 235.818C72.843 235.818 66.6685 235.818 60.497 235.818C48.151 234.582 48.151 246.928 48.151 246.928C48.1479 255.569 48.148 256.805 48.148 259.274Z" stroke="#F1EED3" stroke-width="0.0016" stroke-miterlimit="2.6131" stroke-linecap="square"/>
</svg>
