<svg width="500" height="153" viewBox="0 0 500 153" fill="none" xmlns="http://www.w3.org/2000/svg">
<g clip-path="url(#clip0_10_16126)">
<path d="M73.2133 2.80078L78.4085 8.43287L67.5376 8.4931L73.2133 2.80078Z" fill="#00AEEF"/>
<path d="M63.0631 12.7693L67.898 12.3477L79.7598 18.8231L57.0872 18.8833L63.0631 12.7693Z" fill="#00AEEF"/>
<path d="M65.976 22.5283L80.5406 27.7388H48.7087L54.0541 22.5283H65.976Z" fill="#00AEEF"/>
<path d="M62.2223 30.9307L80.4805 37.7072H38.7087L44.5346 32.0752L62.2223 30.9307Z" fill="#00AEEF"/>
<path d="M59.4294 40.9297L80.8108 47.3448H29.0691L34.6547 41.6224L59.4294 40.9297Z" fill="#00AEEF"/>
<path d="M55.7358 50.5381L80.3904 57.3147H19.0991L24.5646 51.5922L55.7358 50.5381Z" fill="#00AEEF"/>
<path d="M54.7447 60.085L79.3994 66.5001H10.1501L15.4655 61.1692L54.7447 60.085Z" fill="#00AEEF"/>
<path d="M54.1141 70.2051L79.3994 76.8311H0L4.41441 72.1929L54.1141 70.2051Z" fill="#00AEEF"/>
<path d="M54.9549 79.6924L79.2491 86.1075H8.85876L4.17407 81.8007L54.9549 79.6924Z" fill="#00AEEF"/>
<path d="M56.4564 90.0225L77.8978 95.7148H18.2582L14.114 91.438L56.4564 90.0225Z" fill="#00AEEF"/>
<path d="M57.087 99.6299L78.9188 106.045H28.4684L23.5134 101.407L57.087 99.6299Z" fill="#00AEEF"/>
<path d="M58.8588 109.238L78.5585 114.931H37.087L32.4624 109.961L58.8588 109.238Z" fill="#00AEEF"/>
<path d="M61.3513 119.207L77.4174 125.291H47.3573L41.4714 118.876L61.3513 119.207Z" fill="#00AEEF"/>
<path d="M63.1231 128.122L76.066 134.266L56.6066 134.206L50.6306 128.122H63.1231Z" fill="#00AEEF"/>
<path d="M66.6667 138.121L74.024 143.813H65.8258L60.4204 138.121H66.6667Z" fill="#00AEEF"/>
<path d="M75.1952 146.645V152.728L69.3093 146.825L75.1952 146.645Z" fill="#00AEEF"/>
<path d="M75.5557 0.300781L78.4085 3.07165H75.5557V0.300781Z" fill="#00AEEF"/>
<path d="M84.9249 9.125L87.8378 12.3476H82.3123L79.8198 9.125H84.9249Z" fill="#00AEEF"/>
<path d="M94.3844 19.125L96.5766 21.3236H86.066L81.1711 19.1852L94.3844 19.125Z" fill="#00AEEF"/>
<path d="M102.763 27.7383L105.105 30.0875L90.06 30.8706L83.3032 27.9491L102.763 27.7383Z" fill="#00AEEF"/>
<path d="M113.153 37.9785L115.616 40.5386L91.6215 41.2012L83.6636 38.0689L113.153 37.9785Z" fill="#00AEEF"/>
<path d="M122.162 47.6162L125.285 50.4774L95.2251 51.0196L83.6636 47.6162H122.162Z" fill="#00AEEF"/>
<path d="M131.892 57.2236L134.595 60.0849L96.8768 61.139L84.0239 57.585L131.892 57.2236Z" fill="#00AEEF"/>
<path d="M141.622 66.8613L144.534 69.6924L97.7777 70.7767L83.3032 66.8613H141.622Z" fill="#00AEEF"/>
<path d="M150.42 76.4697L148.138 78.8491L98.8287 80.3851L83.6636 76.4697H150.42Z" fill="#00AEEF"/>
<path d="M140.841 86.1074L138.258 88.5771L95.4353 90.0228L83.6636 86.1074H140.841Z" fill="#00AEEF"/>
<path d="M131.832 95.7148L129.129 97.8532L95.4354 99.2688L82.2522 95.7148H131.832Z" fill="#00AEEF"/>
<path d="M121.592 105.684L119.459 107.822L92.2522 108.876L82.3123 105.774L121.592 105.684Z" fill="#00AEEF"/>
<path d="M111.291 116.015L109.099 118.153L89.4894 118.515L82.2522 115.653L111.291 116.015Z" fill="#00AEEF"/>
<path d="M101.772 125.442L99.1591 128.122H88.7087L81.1711 125.291L101.772 125.442Z" fill="#00AEEF"/>
<path d="M93.0331 134.537L90.3304 137.398H85.1652L78.7087 134.537H93.0331Z" fill="#00AEEF"/>
<path d="M83.5136 144.657L80.5406 147.367L77.3574 144.536L83.5136 144.657Z" fill="#00AEEF"/>
<path fill-rule="evenodd" clip-rule="evenodd" d="M178.469 77.0416C178.469 52.4953 193.243 26.0215 217.177 26.0215C241.141 26.0215 255.916 52.4953 255.916 77.0416C255.916 101.588 241.141 128.062 217.177 128.062C193.243 128.062 178.469 101.588 178.469 77.0416ZM195.736 77.0416C195.736 96.1063 202.402 123.032 217.177 123.032C231.982 123.032 238.649 96.1063 238.649 77.0416C238.649 57.9768 231.982 31.0211 217.177 31.0211C202.402 31.0211 195.736 57.9768 195.736 77.0416ZM375.255 83.2459C375.255 62.7656 387.598 40.6288 407.598 40.6288C427.628 40.6288 439.97 62.7656 439.97 83.2459C439.97 103.726 427.628 125.863 407.598 125.863C387.598 125.863 375.255 103.726 375.255 83.2459ZM389.76 83.2459C389.76 99.1483 395.345 121.556 407.598 121.556C419.88 121.556 425.435 99.1483 425.435 83.2459C425.435 67.3134 419.88 44.9055 407.598 44.9055C395.345 44.9055 389.76 67.3134 389.76 83.2459ZM464.444 121.556C465.796 122.038 466.727 121.978 466.847 123.815C466.847 125.2 466.006 125.833 464.715 125.833C462.432 125.833 460.36 125.321 454.234 125.321C446.547 125.321 444.745 125.833 442.432 125.833C441.021 125.833 440.18 125.2 440.18 123.695C440.18 122.249 441.081 121.827 442.523 121.556C447.267 120.803 447.718 120.502 447.718 113.786V52.2544C447.718 49.0317 446.907 48.2185 444.955 47.9776C442.402 47.7366 440.541 47.1042 440.541 45.8392C440.541 44.5441 441.712 43.7008 443.453 43.7008C444.985 43.7008 446.396 44.2128 454.865 44.2128C461.922 44.2128 463.453 43.7008 465.375 43.7008C467.177 43.7008 467.898 43.9719 467.898 45.3272C467.898 47.1644 467.387 47.8571 463.724 47.9776C461.471 48.0981 460.991 48.6101 460.991 50.9593V77.7042C468.198 68.1266 473.153 61.8319 476.336 57.5853C479.64 53.188 480.901 51.1701 480.901 50.0859C480.901 48.9112 480.33 48.2185 478.258 47.9776C475.045 47.6162 474.024 47.3752 473.844 46.0199C473.694 44.5441 475.015 43.7008 476.757 43.7008C479.58 43.7008 481.381 44.2128 485.976 44.2128C490.721 44.2128 493.243 43.7008 494.925 43.7008C496.366 43.7008 497.087 44.2128 497.087 45.7187C497.087 46.803 496.186 47.2246 493.484 47.8571C490.961 48.339 489.249 49.363 486.336 52.6459C483.423 55.9589 479.369 61.5307 472.162 71.0782C482.673 94.239 487.508 106.256 490.481 112.792C492.733 117.791 493.423 119.96 498.198 121.978C499.009 122.309 499.76 122.671 499.76 123.695C499.76 125.562 498.679 125.833 496.997 125.833C495.465 125.833 494.174 125.321 486.997 125.321C479.97 125.321 477.387 125.833 476.366 125.833C474.925 125.833 473.994 125.2 473.994 123.574C473.994 122.098 475.285 121.556 476.517 121.556C479.009 121.556 479.73 120.502 479.73 118.936C479.73 118.333 479.52 117.731 478.228 114.9C476.967 112.069 474.655 107.13 470.541 97.8833C467.267 90.5044 465.616 86.4987 464.685 84.3603C464.655 84.3603 463.754 82.1616 463.454 82.1616C463.303 82.1616 460.991 84.7518 460.991 85.6553V117.008C460.991 119.568 461.381 120.472 464.444 121.556ZM324.805 47.9776L323.213 47.7668C321.952 47.5559 320.931 47.315 320.931 45.7187C320.931 43.9116 322.402 43.7008 324.985 43.7008C326.126 43.7008 329.069 44.2128 345.345 44.2128C358.769 44.2128 364.805 43.7008 368.529 43.7008C370.931 43.7008 371.802 44.3032 371.802 46.4717V62.7957C371.802 64.5124 371.261 65.4461 370.06 65.4461C368.919 65.4461 368.438 65.2353 367.958 64.1209C367.538 63.127 366.997 61.35 365.526 58.0672C362.102 50.4774 358.649 47.9776 348.919 47.9776C342.733 47.9776 342.493 48.5197 342.493 51.1099V77.1922C342.493 78.7282 342.493 79.1498 345.586 79.1498C356.246 79.1498 356.517 79.0294 358.709 74.4514C359.76 72.3431 360.24 70.8673 360.661 69.9337C361.111 68.9398 361.592 68.3675 362.643 68.3675C364.084 68.3675 364.505 69.3313 364.505 71.0179C364.505 73.7286 363.994 78.0957 363.994 82.0713C363.994 86.9504 364.505 90.2935 364.505 92.8536C364.505 95.0823 364.294 96.799 362.342 96.799C361.171 96.799 360.601 95.9256 360.18 94.7209C359.76 93.5162 359.399 91.7392 358.709 89.4803C356.997 83.788 356.667 83.4567 347.778 83.4567C342.523 83.4567 342.493 83.6374 342.493 85.4144V109.961C342.493 119.086 343.904 121.556 352.372 121.556C360.661 121.556 364.625 118.093 367.928 109.178C369.219 105.774 369.82 103.937 370.27 102.943C370.781 101.859 371.171 101.618 371.982 101.618C373.484 101.618 373.724 102.401 373.724 104.931V123.183C373.724 125.231 372.973 125.833 370.33 125.833C366.847 125.833 360.691 125.321 347.658 125.321C333.153 125.321 329.459 125.833 323.333 125.833C320.931 125.833 320.27 125.14 320.27 123.966C320.27 122.309 320.841 121.827 322.763 121.556C328.168 120.653 329.219 119.598 329.219 115.984V52.4049C329.219 49.3931 328.529 48.6101 324.805 47.9776ZM306.006 98.7567V58.8201C306.006 50.2364 304.505 48.58 300.811 47.9776C299.249 47.7366 296.817 48.0679 296.817 45.8392C296.817 43.9418 298.469 43.7008 299.85 43.7008C301.502 43.7008 303.303 44.2128 308.438 44.2128C312.913 44.2128 313.814 43.7008 315.856 43.7008C317.508 43.7008 318.258 44.4538 318.258 45.5681C318.258 47.4957 316.667 47.7366 314.475 47.9776C311.291 48.339 310.3 50.2967 310.3 53.3085V124.056C310.3 126.556 309.159 127.399 307.658 127.399C305.826 127.399 305.045 125.712 304.294 124.357L270.36 63.0969C270 62.4644 269.189 60.7175 268.649 60.1152C268.559 60.6573 268.559 61.35 268.559 62.5548V111.617C268.559 117.912 269.069 120.442 274.174 121.556C275.405 121.797 276.547 121.918 277.357 122.159C278.228 122.43 278.949 122.881 278.949 123.966C278.949 124.628 278.919 125.833 277.057 125.833C273.844 125.833 270.27 125.321 266.426 125.321C262.853 125.321 260.781 125.833 258.108 125.833C256.216 125.833 254.925 125.592 254.925 123.695C254.925 122.46 256.066 121.827 258.709 121.556C263.123 121.195 264.294 120.141 264.294 108.274V52.7965C264.294 48.8811 263.694 48.7305 260.21 47.9776C257.508 47.3752 256.216 46.9536 256.216 45.5681C256.216 44.3935 257.147 43.7008 259.009 43.7008C260.27 43.7008 261.321 44.0923 266.667 44.0923C271.051 44.0923 272.312 43.7008 273.453 43.7008C274.505 43.7008 275.165 44.3634 275.856 45.4778C276.547 46.5922 277.357 48.3089 278.649 50.6882L304.114 98.2146C304.595 99.088 305.075 100.112 305.706 100.865L305.826 100.985C306.096 100.564 306.006 98.9977 306.006 98.7567Z" fill="#6D6F71"/>
</g>
<defs>
<clipPath id="clip0_10_16126">
<rect width="500" height="153" fill="white"/>
</clipPath>
</defs>
</svg>
