<svg width="500" height="499" viewBox="0 0 500 499" fill="none" xmlns="http://www.w3.org/2000/svg">
<g clip-path="url(#clip0_10_16148)">
<mask id="mask0_10_16148" style="mask-type:luminance" maskUnits="userSpaceOnUse" x="0" y="0" width="500" height="500">
<path d="M0 0.000976562V499.004H499.996V0.000976562H0Z" fill="white"/>
</mask>
<g mask="url(#mask0_10_16148)">
<path d="M249.964 499.004C275.278 465.426 310.406 458.548 353.99 454.406C405.554 449.507 428.569 444.253 458.043 411.438C476.546 390.884 489.428 357.471 489.428 327.194C489.428 306.053 488.334 288.622 477.862 258.333C455.453 193.452 448.414 169.109 499.914 109.603L392.519 2.22234C369.426 21.4771 319.322 55.0945 249.964 0C180.045 55.6341 131.559 20.9657 107.361 2.22234L0 109.603C51.215 169.109 46.4557 193.605 22.0354 258.333C11.0359 287.516 10.4646 306.82 10.4646 327.194C10.4646 357.486 22.3046 390.779 41.8548 411.438C72.3035 443.614 95.2746 449.476 145.902 454.406C191.045 458.803 224.634 465.965 249.964 499.004Z" fill="white"/>
<path d="M249.964 485.784C275.834 456.612 315.028 450.089 354.498 446.127C404.08 441.164 423.428 436.022 450.895 406.475C468.715 387.303 480.597 357.471 480.597 327.194C480.597 306.852 477.361 282.119 467.959 256.683C442.333 187.27 448.081 158.652 488.334 110.176L391.425 13.2243C391.425 13.2243 329.216 71.0453 249.964 9.94629C171.219 71.0453 108.461 13.2243 108.461 13.2243L11.5598 110.176C52.7878 158.652 58.6787 187.805 31.9632 256.683C22.0353 282.183 19.2727 306.852 19.2727 327.194C19.2727 356.899 30.9826 388.128 49.02 406.475C77.4457 435.445 95.9518 440.63 145.345 446.127C185.008 450.549 224.102 456.612 249.964 485.784Z" fill="#161413"/>
<path d="M249.964 462.109C290.163 436.217 310.501 436.757 351.78 430.721C387.601 425.435 411.038 422.621 437.118 396.586C474.019 359.644 470.45 307.226 448.16 247.884C422.248 179.019 445.136 138.802 466.843 111.265L389.775 34.1548C389.775 34.1548 329.216 82.0572 249.964 30.3008C170.682 82.0572 110.097 34.1548 110.097 34.1548L32.9757 111.265C54.5089 138.802 78.197 178.467 51.7672 247.884C29.0715 307.439 26.4399 359.644 62.7721 396.586C88.6307 422.812 111.858 425.531 148.092 430.721C190.5 436.757 209.769 436.217 249.964 462.109Z" fill="white"/>
<path d="M249.964 437.324C293.495 413.168 320.004 415.628 368.835 408.152C452.327 395.307 447.219 325.442 441.936 298.297C440.636 291.6 438.208 281.093 436.241 275.385C429.488 255.763 414.212 218.214 416.728 180.692H83.1682C86.301 219.891 69.5617 259.842 63.0359 278.464C61.595 282.622 59.712 290.151 58.7205 294.647C53.4991 318.406 44.0124 394.255 131.025 408.152C183.154 416.48 206.395 413.168 249.964 437.324Z" fill="#E20010"/>
<path d="M138.179 86.6572H151.407V114.761H165.088V86.6572H178.988V157.705H165.088V127.31H151.407V157.705H138.179V86.6572Z" fill="#161413"/>
<path d="M193.387 86.625H207.743V157.718H193.387V86.625Z" fill="#161413"/>
<path d="M392.895 84.1328C413.17 84.1328 414.671 96.9672 414.391 106.996H400.298C400.239 91.325 384.889 93.7037 385.021 103.435C385.074 108.824 394.947 114.511 403.127 119.534C410.456 124.07 415.518 131.358 415.723 139.33C415.856 146.322 412.698 159.45 392.895 159.45C372.699 159.45 371.05 144.42 371.008 135.892H384.513C384.513 153.316 400.864 151.218 401.016 139.841C401.016 139.841 402.001 134.527 392.99 129.115C382.848 123.065 371.393 118.516 371.69 103.716C371.69 99.6399 372.558 84.1328 392.895 84.1328Z" fill="#161413"/>
<path d="M259.122 86.6572H273.443V146.572H288.973V157.718H259.122V86.6572Z" fill="#161413"/>
<path d="M222.125 86.498H236.445V146.443H251.947V157.564H222.125V86.498Z" fill="#161413"/>
<path fill-rule="evenodd" clip-rule="evenodd" d="M88.4634 86.3875V158.06H102.835V134.683C106.824 134.528 130.271 136.966 130.819 111.731C131.567 83.7366 107.786 86.3875 102.835 86.3875H88.4634ZM102.835 97.1718V122.838C104.952 122.838 117.635 125.732 117.604 109.737C117.554 95.5476 105.737 97.1718 102.835 97.1718Z" fill="#161413"/>
<path fill-rule="evenodd" clip-rule="evenodd" d="M324.457 86.3875V158.06H338.819V134.683C342.796 134.528 366.243 136.966 366.82 111.731C367.533 83.7366 343.768 86.3875 338.819 86.3875H324.457ZM338.819 97.1718V122.838C340.929 122.838 353.588 125.732 353.568 109.737C353.51 95.5476 341.727 97.1718 338.819 97.1718Z" fill="#161413"/>
<path d="M295.991 86.6572H310.358V157.705H295.991V86.6572Z" fill="#161413"/>
<path fill-rule="evenodd" clip-rule="evenodd" d="M353.176 269.147C382.631 279.807 375.381 317.491 360.57 341.763C342.139 372.061 301.808 375.727 277.996 366.558C240.054 351.953 251.532 309.73 263.982 274.866C281.866 224.747 316.562 201.041 361.965 216.227C386.248 224.279 389.732 248.791 387.3 255.863L347.941 252.968C347.941 252.968 350.415 236.789 339.12 236.789C321.801 236.789 310.607 273.745 310.607 273.745C310.607 273.745 327.186 259.74 353.176 269.147ZM298.402 310.904C303.22 299.958 310.665 288.235 320.427 290.266C333.595 293.006 329.068 310.549 324.447 323.008C319.809 335.578 310.501 349.233 299.064 346.137C288.445 343.318 292.86 323.479 298.402 310.904ZM208.064 269.147C237.511 279.807 230.258 317.491 215.502 341.763C197.051 372.061 156.707 375.727 132.884 366.558C94.9234 351.953 106.364 309.677 118.873 274.866C136.5 225.847 170.074 200.768 216.868 216.227C241.183 224.19 244.628 248.791 242.185 255.863L202.829 252.968C202.829 252.968 205.322 236.789 194.026 236.789C176.701 236.789 165.504 273.745 165.504 273.745C165.504 273.745 182.073 259.74 208.064 269.147ZM153.596 310.904C158.46 299.958 165.519 288.235 175.312 290.266C188.521 293.006 183.939 310.549 179.347 323.008C174.689 335.578 165.4 349.233 153.973 346.137C143.308 343.318 148.063 323.479 153.596 310.904Z" fill="white"/>
<path d="M480.594 445.241H483.629C486.206 445.241 488.559 445.109 488.559 442.152C488.559 439.671 486.416 439.28 484.45 439.28H480.594V445.241ZM477.675 436.924H484.915C489.373 436.924 491.472 438.686 491.472 442.279C491.472 445.664 489.331 447.078 486.544 447.379L491.901 455.648H488.769L483.678 447.595H480.594V455.648H477.675V436.924ZM483.931 459.98C491.345 459.98 497.077 454.066 497.077 446.225C497.077 438.554 491.345 432.64 483.931 432.64C476.433 432.64 470.7 438.554 470.7 446.225C470.7 454.066 476.433 459.98 483.931 459.98ZM483.931 430.285C492.667 430.285 499.996 437.19 499.996 446.225C499.996 455.436 492.667 462.335 483.931 462.335C475.158 462.335 467.787 455.436 467.787 446.225C467.787 437.19 475.158 430.285 483.931 430.285Z" fill="#161413"/>
</g>
</g>
<defs>
<clipPath id="clip0_10_16148">
<rect width="500" height="499" fill="white"/>
</clipPath>
</defs>
</svg>
