<svg width="500" height="123" viewBox="0 0 500 123" fill="none" xmlns="http://www.w3.org/2000/svg">
<g clip-path="url(#clip0_10_16127)">
<path d="M15.3125 58.6246C15.3125 65.4996 16.5094 68.2777 20.8156 70.9652H0C3.89687 68.8777 4.6875 66.4871 4.6875 57.5277V15.2308C4.6875 6.27145 3.8875 3.88395 0 1.79332H10.1062C13.3094 1.79332 13.3094 1.79332 21.9188 1.69332H25.2156C29.9921 1.47969 34.7538 2.3649 39.1344 4.28082C42.2201 5.65406 44.8591 7.86467 46.7521 10.6618C48.6451 13.459 49.7161 16.7307 49.8438 20.1058C49.8438 30.9527 39.3313 39.8121 26.5219 39.8121C23.9127 39.9289 21.3109 39.4524 18.9125 38.4183C23.8766 38.2316 28.649 36.4534 32.525 33.3464C34.2467 31.9997 35.6379 30.2772 36.5922 28.3107C37.5465 26.3441 38.0387 24.1854 38.0312 21.9996C38.0312 13.9371 32.2281 8.95895 22.7188 8.95895C20.2206 8.91695 17.7285 9.21874 15.3125 9.85582V58.6246Z" fill="#241F21"/>
<path d="M74.1626 15.2285C74.1626 6.26914 73.3625 3.88164 69.4563 1.79102H89.475C85.575 3.88164 84.7719 6.26914 84.7719 15.2285V57.5316C84.7719 66.4848 85.575 68.8785 89.475 70.9691H69.4563C73.3625 68.8816 74.1626 66.4879 74.1626 57.5316V15.2285Z" fill="#241F21"/>
<path d="M177.253 10.3504C184.045 17.1418 187.892 26.3331 187.963 35.9379C187.963 56.4441 170.747 72.6629 148.925 72.6629C127.406 72.6629 110.397 56.8379 110.397 36.7254C110.397 15.8254 127.606 0.000393698 150.328 0.000393698C160.283 -0.0438935 169.891 3.64968 177.253 10.3504ZM129.609 15.3129C124.805 20.7449 122.201 27.7744 122.306 35.0254C122.343 43.242 125.365 51.1652 130.809 57.3191C133.128 59.9117 135.989 61.9608 139.19 63.3204C142.391 64.68 145.853 65.3166 149.328 65.1848C165.141 65.1848 175.953 53.9348 175.953 37.6098C176.035 30.0256 173.49 22.6468 168.75 16.7254C166.37 13.7555 163.331 11.3813 159.873 9.79137C156.416 8.20141 152.635 7.43946 148.831 7.56602C141.666 7.58041 134.782 10.3549 129.609 15.3129Z" fill="#241F21"/>
<path d="M220.253 58.6252C220.253 65.5002 221.456 68.1783 225.759 70.9658H206.941C211.441 68.0783 212.544 65.5908 212.544 58.6252V14.1346C212.544 7.25957 211.344 4.57832 207.041 1.79395H222.456C223.076 3.21245 223.92 4.52191 224.956 5.67207L264.097 55.2408V14.1346C264.097 7.16894 262.891 4.67832 258.472 1.79395H277.388C272.884 4.67832 271.781 7.16894 271.781 14.1346V74.3502C265.862 72.3611 260.762 68.4791 257.269 63.3033L220.253 16.6221V58.6252Z" fill="#241F21"/>
<path d="M314.538 62.1098C318.831 62.8634 323.184 63.2295 327.544 63.2035C334.911 63.7354 342.226 61.6162 348.169 57.2285L343.269 70.9785H299.222C303.125 68.8879 303.928 66.4941 303.928 57.441V15.2285C303.928 6.26914 303.025 3.78477 299.222 1.79102H334.356C335.718 1.88291 337.083 1.6804 338.359 1.19727V13.4379C334.956 10.1535 332.25 9.25664 325.447 9.25664C321.797 9.16928 318.146 9.40352 314.538 9.95664V29.5629H328.65C329.891 29.6515 331.133 29.41 332.25 28.8629V40.0004C330.556 37.8129 328.55 37.116 323.944 37.116H314.538V62.1098Z" fill="#241F21"/>
<path d="M384.3 62.1098C388.594 62.8634 392.947 63.2295 397.306 63.2035C404.674 63.7351 411.989 61.616 417.931 57.2285L413.025 70.9785H368.984C372.888 68.8879 373.691 66.4941 373.691 57.441V15.2285C373.691 6.26914 372.788 3.78477 368.984 1.79102H404.119C405.479 1.88266 406.844 1.68014 408.119 1.19727V13.4379C404.719 10.1535 402.013 9.25664 395.209 9.25664C391.559 9.16928 387.909 9.40352 384.3 9.95664V29.5629H398.413C399.653 29.6512 400.895 29.4097 402.013 28.8629V40.0004C400.313 37.8129 398.313 37.116 393.706 37.116H384.3V62.1098Z" fill="#241F21"/>
<path d="M452.859 57.528C452.859 66.4874 453.659 68.8749 457.547 70.9655H437.528C441.431 68.878 442.234 66.4905 442.234 57.528V15.228C442.234 6.27179 441.431 3.88117 437.528 1.79054H452.841C453.741 1.79054 455.444 1.79054 457.747 1.69054C459.544 1.59054 461.05 1.59054 462.247 1.59054C467.761 1.20938 473.249 2.64388 477.872 5.67492C479.99 7.23001 481.722 9.24989 482.938 11.5794C484.153 13.9088 484.818 16.4859 484.881 19.1124C484.881 27.1749 477.775 34.6343 467.766 37.1218C483.578 58.2249 491.587 66.5843 499.994 70.9624C493.491 71.4655 492.384 71.5655 490.284 71.5655C484.281 71.5655 481.075 69.5718 473.969 61.1093C467.078 52.9166 460.885 44.161 455.456 34.9343C467.366 32.9468 473.069 27.9687 473.069 19.903C473.069 13.028 467.866 8.26242 460.256 8.26242C457.767 8.27632 455.285 8.54331 452.85 9.05929L452.859 57.528Z" fill="#241F21"/>
<path d="M448.506 110.162C445.803 108.978 444.934 108.178 444.934 106.884C444.934 105.675 445.756 104.384 448.059 104.384C449.55 104.481 450.986 104.988 452.206 105.85L452.309 105.925L453.5 102.659L453.525 102.587L453.466 102.544C451.873 101.545 450.033 101.014 448.153 101.012C447.298 100.916 446.431 100.997 445.608 101.249C444.785 101.501 444.022 101.92 443.367 102.478C442.712 103.037 442.178 103.724 441.799 104.496C441.42 105.269 441.203 106.112 441.163 106.972C441.163 109.678 442.725 111.54 446.194 113.006C449.5 114.406 450.078 115.306 450.078 116.687C450.078 117.965 449.272 119.334 447.009 119.334C445.054 119.26 443.168 118.588 441.606 117.409L441.5 117.334L440.225 120.656L440.194 120.728L440.263 120.775C442.231 122.081 444.531 122.801 446.894 122.85C448.791 122.919 450.639 122.239 452.038 120.956C452.637 120.378 453.112 119.684 453.435 118.916C453.757 118.148 453.92 117.323 453.913 116.49C453.913 113.556 452.497 111.9 448.509 110.165M418.197 122.506H431.169V119.062H421.969V113.437H430.284V110.1H421.969V104.809H431.169V101.35H418.197V122.506ZM407.484 117.662C405.764 118.68 403.814 119.245 401.816 119.306C399.86 119.317 397.979 118.551 396.588 117.176C395.197 115.801 394.41 113.929 394.398 111.973C394.387 110.017 395.154 108.137 396.529 106.746C397.904 105.355 399.775 104.567 401.731 104.556C403.677 104.616 405.576 105.161 407.256 106.144L407.353 106.2L408.622 103.075L408.659 102.994L408.584 102.95C406.535 101.701 404.184 101.034 401.784 101.022C400.297 100.934 398.807 101.152 397.406 101.661C396.006 102.171 394.724 102.961 393.64 103.983C392.556 105.006 391.692 106.239 391.102 107.607C390.511 108.976 390.207 110.45 390.207 111.94C390.207 113.431 390.511 114.905 391.102 116.274C391.692 117.642 392.556 118.875 393.64 119.898C394.724 120.92 396.006 121.71 397.406 122.219C398.807 122.729 400.297 122.946 401.784 122.859C404.217 122.847 406.597 122.158 408.659 120.869L408.728 120.828L407.572 117.612L407.484 117.662ZM372.588 111.844C371.933 111.849 371.279 111.814 370.628 111.74V104.762C371.39 104.643 372.16 104.591 372.931 104.606C375.55 104.606 377.175 105.94 377.175 108.084C377.175 110.506 375.55 111.834 372.588 111.834M381.147 107.9C381.147 103.706 377.906 101.2 372.475 101.2C370.627 101.199 368.781 101.314 366.947 101.544H366.856V122.481H370.625V114.934C371.281 114.959 371.956 114.984 372.613 114.984C372.994 114.984 373.325 114.984 373.672 114.962L378.216 122.462L378.247 122.509H382.622L377.1 114.022C378.306 113.524 379.335 112.676 380.055 111.587C380.774 110.499 381.151 109.22 381.138 107.915M352.1 114.122C352.1 117.522 350.428 119.397 347.413 119.397C344.331 119.397 342.706 117.572 342.706 114.122V101.35H338.934V114.375C338.812 115.513 338.945 116.664 339.324 117.744C339.703 118.824 340.318 119.806 341.125 120.618C341.931 121.43 342.909 122.052 343.987 122.438C345.064 122.824 346.214 122.965 347.353 122.85C348.496 122.96 349.649 122.817 350.73 122.431C351.812 122.045 352.795 121.425 353.609 120.616C354.424 119.807 355.05 118.828 355.443 117.749C355.836 116.671 355.987 115.518 355.884 114.375V101.35H352.113L352.1 114.122ZM318.238 119.481C317.294 119.453 316.367 119.233 315.512 118.833C314.657 118.433 313.894 117.862 313.268 117.155C312.643 116.449 312.169 115.621 311.875 114.725C311.582 113.828 311.475 112.88 311.563 111.94C311.447 110.997 311.533 110.041 311.814 109.133C312.096 108.226 312.567 107.389 313.197 106.677C313.826 105.965 314.6 105.396 315.466 105.005C316.333 104.615 317.272 104.413 318.222 104.413C319.172 104.413 320.111 104.615 320.978 105.005C321.844 105.396 322.617 105.965 323.247 106.677C323.876 107.389 324.348 108.226 324.629 109.133C324.911 110.041 324.997 110.997 324.881 111.94C324.969 112.877 324.864 113.822 324.573 114.717C324.282 115.612 323.811 116.438 323.188 117.144C322.566 117.85 321.806 118.421 320.954 118.822C320.103 119.223 319.178 119.445 318.238 119.475M318.322 101.009C316.886 100.986 315.46 101.254 314.131 101.798C312.802 102.341 311.597 103.148 310.588 104.171C309.579 105.193 308.789 106.409 308.263 107.746C307.738 109.082 307.489 110.511 307.531 111.947C307.462 113.371 307.685 114.794 308.189 116.127C308.692 117.461 309.465 118.677 310.458 119.7C311.451 120.723 312.644 121.53 313.962 122.073C315.281 122.615 316.697 122.881 318.122 122.853C319.555 122.876 320.978 122.608 322.305 122.067C323.632 121.525 324.836 120.721 325.844 119.702C326.852 118.683 327.644 117.471 328.171 116.138C328.698 114.805 328.951 113.38 328.913 111.947C328.984 110.521 328.762 109.095 328.26 107.759C327.758 106.422 326.986 105.203 325.993 104.178C325 103.152 323.806 102.342 322.487 101.796C321.167 101.251 319.749 100.983 318.322 101.009ZM293.234 110.162C290.528 108.978 289.659 108.178 289.659 106.884C289.659 105.675 290.481 104.384 292.784 104.384C294.274 104.483 295.708 104.99 296.928 105.85L297.034 105.925L298.222 102.659L298.25 102.587L298.184 102.544C296.593 101.544 294.751 101.013 292.872 101.012C292.017 100.917 291.151 100.998 290.329 101.25C289.506 101.503 288.744 101.921 288.089 102.479C287.435 103.038 286.902 103.725 286.523 104.497C286.144 105.27 285.928 106.112 285.888 106.972C285.888 109.678 287.434 111.54 290.916 113.006C294.219 114.406 294.803 115.306 294.803 116.687C294.803 117.965 293.991 119.334 291.728 119.334C289.774 119.259 287.889 118.587 286.328 117.409L286.222 117.334L284.947 120.656L284.916 120.728L284.981 120.775C286.95 122.081 289.25 122.801 291.613 122.85C293.511 122.918 295.36 122.238 296.763 120.956C297.362 120.378 297.838 119.684 298.16 118.916C298.482 118.149 298.645 117.323 298.638 116.49C298.638 113.556 297.219 111.897 293.234 110.162ZM262.922 122.506H275.9V119.062H266.697V113.437H275.016V110.1H266.697V104.809H275.903V101.35H262.925L262.922 122.506ZM243.844 111.844C243.189 111.848 242.535 111.814 241.884 111.74V104.762C242.646 104.644 243.417 104.591 244.188 104.606C246.806 104.606 248.438 105.94 248.438 108.084C248.438 110.506 246.806 111.834 243.844 111.834M252.406 107.9C252.406 103.706 249.166 101.2 243.731 101.2C241.883 101.199 240.037 101.314 238.203 101.544H238.116V122.481H241.875V114.934C242.534 114.959 243.209 114.984 243.866 114.984C244.244 114.984 244.578 114.984 244.928 114.962L249.469 122.462L249.5 122.509H253.875L248.35 114.022C249.556 113.524 250.585 112.676 251.305 111.587C252.024 110.499 252.401 109.22 252.388 107.915M207.266 101.353H203.513V122.5H216.488V119.062H207.284L207.266 101.353ZM181.791 114.687L184.603 108.037L187.416 114.687H181.791ZM185 101.069H184.375L174.688 122.365L174.628 122.503H178.5L180.534 117.7H188.691L190.694 122.44L190.722 122.503H194.713L185.025 101.128L185 101.069ZM156.816 111.844C156.161 111.848 155.507 111.814 154.856 111.74V104.762C155.618 104.643 156.389 104.591 157.159 104.606C159.778 104.606 161.406 105.94 161.406 108.084C161.406 110.506 159.778 111.834 156.816 111.834M165.378 107.9C165.378 103.706 162.134 101.2 156.703 101.2C154.855 101.199 153.009 101.314 151.175 101.544H151.088V122.481H154.856V114.934C155.513 114.959 156.191 114.984 156.847 114.984C157.225 114.984 157.556 114.984 157.909 114.962L162.45 122.462L162.475 122.509H166.85L161.328 114.022C162.534 113.524 163.563 112.676 164.283 111.587C165.002 110.499 165.38 109.22 165.366 107.915M136.322 114.122C136.322 117.522 134.653 119.397 131.634 119.397C128.616 119.397 126.947 117.572 126.947 114.122V101.35H123.163V114.375C123.039 115.513 123.172 116.664 123.551 117.745C123.929 118.825 124.545 119.807 125.352 120.619C126.158 121.431 127.136 122.053 128.214 122.439C129.292 122.825 130.442 122.965 131.581 122.85C132.724 122.96 133.877 122.816 134.958 122.43C136.038 122.043 137.021 121.424 137.835 120.615C138.649 119.805 139.275 118.827 139.668 117.748C140.061 116.67 140.212 115.518 140.109 114.375V101.35H136.334L136.322 114.122ZM96.9469 104.815H103.603V122.5H107.375V104.809H114.009V101.35H96.9469V104.815ZM79.375 114.687L82.1875 108.037L85 114.687H79.375ZM82.5719 101.084H81.9469L72.2594 122.381L72.1875 122.5H76.0938L78.125 117.7H86.2813L88.2813 122.44L88.3094 122.503H92.3L82.6125 101.128L82.5719 101.084ZM59.6 114.437L46.8219 101L46.7844 100.956L46.0813 101.1V122.5H49.8532V109.215L62.8125 122.875L62.85 122.912L63.3782 122.797V101.35H59.6V114.437Z" fill="#82A366"/>
</g>
<defs>
<clipPath id="clip0_10_16127">
<rect width="500" height="122.913" fill="white"/>
</clipPath>
</defs>
</svg>
