<svg width="500" height="352" viewBox="0 0 500 352" fill="none" xmlns="http://www.w3.org/2000/svg">
<path d="M235.998 256.094C140.309 179.448 100.389 81.0225 0 81.0225V256.094H235.998Z" fill="#0014DC"/>
<path d="M439.511 78.3965C419.971 78.3965 402.501 86.9 392.371 99.3851V26H368.746V201.072H388.196L390.691 182.669C397.551 191.858 411.526 203.698 438.376 203.698C474.445 203.698 500 177.902 500 141.337C500 104.772 475.48 78.3965 439.516 78.3965H439.511ZM433.041 181.769C407.021 181.769 391.486 166.273 391.486 141.082C391.486 115.892 407.401 100.396 433.041 100.396C458.68 100.396 474.595 115.892 474.595 141.082C474.595 166.273 458.68 181.769 433.041 181.769Z" fill="#0014DC"/>
<path d="M351.247 26H327.622V201.072H351.247V26Z" fill="#0014DC"/>
<path d="M260.843 183.29C243.613 183.29 225.523 174.881 215.808 162.796L199.873 177.967C215.413 195.585 235.738 203.698 259.823 203.698C292.877 203.698 313.622 188.967 313.622 164.127C313.622 112.49 223.958 144.784 223.958 115.682C223.958 105.032 236.373 98.9999 255.708 98.9999C272.937 98.9999 285.377 104.587 293.112 112.576L309.047 97.4043C298.497 86.0496 278.632 78.3965 256.303 78.3965C222.898 78.3965 200.923 94.208 200.923 119.228C200.923 169.444 290.232 137.506 290.232 166.783C290.232 177.077 278.592 183.285 260.838 183.285L260.843 183.29Z" fill="#0014DC"/>
<path d="M497.37 238.587H241.998C294.712 281.62 375.651 326.123 497.37 326.123V238.587Z" fill="#0014DC"/>
</svg>
