<svg width="500" height="143" viewBox="0 0 500 143" fill="none" xmlns="http://www.w3.org/2000/svg">
<g clip-path="url(#clip0_10_16150)">
<path d="M138.224 62.0298C134.362 62.0298 130.489 62.0298 126.606 62.0298C126.196 59.7885 125.787 57.6104 125.189 55.4638C119.773 36.2393 104.975 21.1817 85.9886 15.3417C83.1549 14.521 80.1952 13.8265 77.2355 13.4161C68.3564 12.185 59.3828 13.0058 50.7871 15.8468C43.8602 18.2144 37.437 21.7815 31.8324 26.6113C27.3299 30.3994 23.3627 34.9135 20.1826 39.9011C17.1284 44.7309 14.8929 49.9395 13.3501 55.3691C12.7518 57.5157 12.2481 59.6623 11.9332 61.9351H0.40927L0.283325 0.0947266H138.633V61.9351L138.224 62.0298Z" fill="#243B6E"/>
<path fill-rule="evenodd" clip-rule="evenodd" d="M58.4383 122.734C41.1209 119.041 26.7317 106.982 20.1826 90.4724C16.9395 82.2018 15.806 73.1735 16.9395 64.2715C19.364 44.6367 32.5252 27.9376 51.0075 21.0874C57.3363 18.8146 64.0743 17.7097 70.8123 17.8044C81.2972 18.1201 91.4043 21.5925 99.9685 27.6219C105.573 31.6309 110.296 36.6501 113.948 42.3638C119.553 51.2658 122.418 61.6199 122.103 72.1634C121.914 77.372 121.001 82.6122 119.364 87.6314C117.128 94.4815 113.445 100.732 108.659 106.035C104.062 111.149 98.6461 115.253 92.5378 118.315C88.0353 120.588 83.2494 122.103 78.2431 122.924C71.7254 124.155 64.9874 124.06 58.4383 122.734ZM68.6398 108.592C71.0957 108.718 73.5516 108.718 76.102 108.497C99.6851 106.982 117.632 86.4949 115.995 62.7563C114.358 38.9861 94.0491 21.0874 70.403 22.7289C69.0491 22.8236 67.7267 22.9183 66.4043 23.1393C60.7053 23.8338 55.1952 25.6963 50.1889 28.6636C45.5919 31.3153 41.5302 34.9139 38.2556 38.9861C23.5516 57.6108 26.6058 84.664 45.1826 99.406C51.9206 104.709 60.0756 107.898 68.6398 108.592ZM0.409302 143V80.5603C4.0617 80.5603 7.74557 80.5603 11.5239 80.5603H12.0277C17.2229 112.285 47.1347 133.688 78.7468 128.479C96.5995 125.481 112.122 114.337 120.592 98.1749C123.457 92.6506 125.472 86.6843 126.511 80.5603H138.759V81.9808C138.854 102.058 138.759 122.008 138.759 142.085V143H0.409302Z" fill="#171617"/>
<path fill-rule="evenodd" clip-rule="evenodd" d="M275.882 92.65C274.244 89.5564 272.607 86.4944 270.97 83.527C270.875 83.4323 270.781 83.3061 270.655 83.3061C270.466 83.3061 244.238 83.3061 244.049 83.3061L238.948 92.65C235.863 92.65 232.714 92.5237 229.66 92.65C229.251 92.65 228.747 92.65 228.337 92.5237L251.984 49.4343H262.594L287.5 92.65H275.882ZM247.607 75.7299H267.223L256.99 57.8312C253.936 63.6712 250.882 69.5111 247.827 75.2248C247.733 75.4458 247.733 75.6352 247.607 75.7299ZM384.446 93.3445C383.911 93.3445 383.533 93.3445 382.997 93.2498C381.171 93.1551 379.345 92.8394 377.487 92.2396C374.748 91.2926 373.709 87.8202 373.709 85.2632C373.709 75.9509 373.52 66.5438 373.835 57.1052C373.929 53.9484 375.063 50.8548 378.306 49.8447C379.439 49.4343 380.667 49.3396 381.895 49.3396C393.104 49.75 404.439 49.3396 415.649 49.3396C417.286 49.3396 418.829 49.6553 420.34 50.1604C421.568 50.5707 422.701 51.3915 423.52 52.4963C424.937 54.2325 425.252 58.1469 424.937 60.3882L414.956 62.3453V57.3261H383.911C383.911 57.4208 383.911 57.6102 383.911 57.7365V84.6635C393.923 84.6635 404.03 84.6635 414.011 84.6635C414.326 84.6635 414.641 84.6635 414.956 84.6635V75.3195H398.835V67.8696H425.157C425.031 74.4041 425.031 80.9701 425.157 87.6308C425.157 89.4617 424.118 91.1979 422.481 92.1133C421.662 92.6395 420.749 92.9446 419.742 93.0288C415.649 93.3445 411.681 93.2498 407.588 93.3445C399.843 93.4392 392.191 93.3445 384.446 93.3445ZM341.089 92.429C340.68 92.3343 340.869 92.5237 340.46 92.2396C334.761 86.9994 329.125 81.6961 323.426 76.4559C320.466 76.4559 317.412 76.2665 314.452 76.3612C314.547 81.3804 314.547 86.3997 314.767 91.4189C314.767 91.8292 314.767 92.1133 314.767 92.5237H303.841V49.4343C315.68 49.4343 327.519 49.1186 339.452 49.529C341.278 49.6342 343.115 49.9394 344.962 50.4445C348.615 51.4862 351.291 54.0431 351.574 57.9259C351.795 60.988 351.795 63.9868 351.795 67.0489C351.889 69.7005 350.976 72.3522 349.15 74.3094C347.387 75.9509 343.923 76.3612 341.688 76.4559C340.05 76.5612 338.413 76.5612 336.776 76.4559L354.849 92.65C354.943 92.7447 354.754 92.8394 354.754 92.9341C350.063 92.5237 345.56 92.5237 341.089 92.429ZM313.822 68.5641C320.371 68.6904 326.889 68.8798 333.312 68.6904C335.359 68.5641 337.909 68.6904 339.641 67.4593C340.68 66.7332 341.184 65.5021 341.184 64.271C341.278 62.9451 341.184 61.714 340.963 60.3882C340.46 57.5155 337.5 56.6948 334.95 56.6948C327.928 56.9158 320.781 56.8211 313.822 57.0105C313.822 60.8933 313.822 64.776 313.822 68.5641ZM191.814 93.0288V57.4208H171.914V49.9394H221.82V57.4208C215.376 57.4208 208.942 57.4208 202.519 57.4208C202.33 57.4208 202.11 57.4208 201.921 57.5155V93.0288H191.814ZM488.098 93.0288C486.65 90.0615 484.918 87.2204 483.501 84.3478C483.407 84.1268 483.281 84.0321 483.186 83.8427C482.997 83.7164 482.871 83.7164 482.683 83.7164C473.992 83.8427 465.239 83.7164 456.549 83.7164C456.455 83.7164 456.36 83.7164 456.266 83.8427C454.628 86.9153 452.991 89.9773 451.354 93.0288H440.649L464.326 50.0341H474.937C475.031 50.1604 475.126 50.3498 475.22 50.5707C483.281 64.3657 491.152 78.3184 499.213 92.2396C499.402 92.5237 499.622 92.9341 499.717 93.3445L488.098 93.0288ZM459.824 76.1403H479.439L469.238 58.2416C466.152 64.05 463.193 69.8899 460.044 75.6352C460.044 75.8246 459.95 76.0456 459.824 76.1403Z" fill="#243B6E"/>
<path d="M66.2153 91.6091C65.9949 91.2935 65.9004 90.8831 65.806 90.4727C65.68 89.4626 65.9949 88.4524 65.9949 87.4107C65.9005 84.8537 65.3967 81.9811 65.3022 79.4242C65.1763 74.9416 66.0894 70.6169 65.9949 66.229C65.806 65.0926 65.5856 63.9877 65.1763 62.946C65.1763 62.6303 65.1763 62.4409 65.3967 62.1253L65.5856 61.9359L65.9949 61.7149C64.9874 60.4838 65.0818 59.7893 65.1763 58.2425C64.0743 58.5582 63.0352 59.0632 62.0277 59.663L62.1221 60.7994C60.7997 60.9888 59.3828 60.2944 59.4773 58.7476C59.4773 57.9268 59.7921 57.2008 60.2015 56.5063C61.209 55.2752 62.7518 54.5491 64.3576 54.3597C64.4836 54.2334 64.578 54.2334 64.6725 54.1387C65.4911 52.9076 66.4042 51.8975 67.4433 50.8557C68.0415 50.3507 69.6788 51.2661 70.1826 51.8027C70.6863 50.8557 70.9067 50.8557 71.9143 50.5716C76.2909 49.3405 80.6989 48.0147 85.0755 46.9729C87.1221 46.6573 89.0742 46.5626 91.0894 46.5626C93.0415 46.6573 95.0881 46.8782 96.9143 47.478C97.4181 48.7197 98.0268 49.8456 98.7405 50.8557C99.3702 51.8975 98.5516 54.1387 98.2367 55.1805C97.1347 55.6855 96.4105 56.6957 96.3161 57.9268C96.0957 58.5582 95.1826 58.5582 94.6788 58.7476C94.2695 59.0632 94.0491 59.5683 93.9546 59.9787C93.4508 60.1997 92.947 60.3891 92.4118 60.4838C92.0025 60.61 91.4987 61.5255 91.4042 61.9359C89.9768 62.6514 88.5495 63.4616 87.1221 64.3665C86.7128 64.6822 86.5239 65.1873 86.3035 65.5977C85.4848 65.7239 84.5717 65.8186 83.8475 66.229C82.2103 67.0498 79.9748 68.565 78.3375 68.786C78.5579 69.512 78.9672 70.0171 79.471 70.5222C80.6989 71.3429 81.8009 72.2584 82.9345 73.3001C83.3438 73.8052 83.6586 74.405 83.8475 75.0363C84.4773 74.9416 85.17 74.9416 85.7997 75.131C87.1221 75.7308 88.0352 77.2776 89.3576 77.5933C91.7191 77.688 94.175 77.688 96.505 77.4986C97.2292 77.3723 97.8274 77.2776 98.4571 76.9619C99.1498 76.5515 99.0554 76.0465 100.063 76.3621C100.693 76.5515 101.291 75.6361 101.606 75.2257C101.7 75.131 101.826 75.0363 102.015 75.0363C103.149 74.8153 104.156 74.3103 105.069 73.5842C105.573 73.3001 106.392 72.574 106.801 72.2584C106.801 71.4376 107.116 70.6169 108.123 70.7431C108.344 71.4376 108.344 72.2584 108.123 72.9844C107.84 73.7105 107.431 74.3103 107.021 74.9416C106.108 76.0465 104.66 76.6778 104.251 78.193C103.652 78.3193 103.023 78.5087 102.519 78.9191C102.424 78.9191 102.33 79.0138 102.235 79.0138C101.711 79.119 101.196 79.119 100.693 79.0138C100.378 79.5189 100.063 80.0555 99.874 80.5606C99.6851 80.6553 99.7795 80.6553 99.4647 80.75C96.4105 81.697 93.0415 81.476 89.8614 81.9811C89.6725 81.9811 89.4731 81.9811 89.2632 81.9811C89.1687 81.697 88.8538 81.3813 88.4445 81.2866C87.8463 81.0657 87.2166 80.8763 86.6183 80.8763C86.4084 80.4554 86.1041 80.1397 85.7052 79.9292C84.2569 79.4242 82.9345 78.8244 81.7065 78.0036C78.8413 75.9518 76.1964 73.8052 73.646 71.4376C72.6385 71.5323 71.7254 71.7533 70.8123 72.069C70.403 72.069 69.9936 72.069 69.6788 71.848C69.175 71.6586 69.2695 70.8378 69.2695 70.4275C69.2695 69.7961 69.4584 69.1963 69.8677 68.786C70.8123 67.7442 71.9143 66.8288 73.0478 66.008C73.3417 65.9239 73.646 65.9239 73.9609 66.008L74.7795 67.2392C75.5982 66.8288 76.4168 66.6394 77.3299 66.7341C77.8337 66.1343 78.3375 65.5977 79.0617 65.1873C79.7858 64.9032 80.4785 64.7769 81.2027 64.7769C81.612 64.1771 82.84 63.8615 83.4382 63.5774C84.068 63.2617 85.0755 62.3462 85.7052 61.9359C87.9408 60.4838 90.1763 59.7893 92.3173 58.0215C93.2304 57.2008 94.0491 56.0012 95.1826 55.0542C95.6863 54.6438 95.5919 53.6337 95.4974 53.1286C95.3715 52.6235 93.7657 51.9922 93.3564 51.8027L92.9471 51.0767C91.4042 50.982 89.9873 50.8557 88.4445 50.8557C83.0289 51.1714 77.8337 52.9076 72.8274 54.7701C72.0088 55.0542 71.3161 55.3699 70.5919 55.7802C69.9936 56.1906 69.3639 56.6957 68.8601 57.2008C69.0491 59.3789 68.7657 61.3992 68.6397 63.5774C68.7657 64.7769 69.0491 66.008 69.4584 67.1445C68.7657 70.9325 68.2304 74.8153 68.136 78.6034C68.136 81.697 68.9546 84.4434 68.7657 87.4107C68.5453 88.6418 68.2304 89.8729 67.9471 91.0094C67.9471 91.1988 67.7266 91.2935 67.6322 91.4197C67.1284 91.5144 66.6246 91.4197 66.2153 91.9248C66.3203 91.8196 66.3203 91.7144 66.2153 91.6091ZM54.0617 90.1886C53.6523 90.2833 53.243 90.1886 52.9282 89.8729C52.7392 89.652 52.6448 89.5573 52.5188 89.3679C52.225 88.4419 52.1305 87.5159 52.2355 86.5899C52.4244 86.2743 52.6448 86.1796 52.9282 86.0849C51.8261 84.6643 51.8261 82.6125 52.0151 80.8763C52.141 80.2449 52.3299 79.7398 52.7392 79.2348C52.7392 79.0138 52.7392 78.8244 52.7392 78.6981C52.4244 77.3723 52.2355 75.9518 52.141 74.6259C52.141 71.9427 52.3299 69.291 52.8337 66.6394C52.9282 66.008 53.3375 65.1873 53.3375 64.4928C53.4634 62.5356 52.7392 59.663 52.6448 57.5164C52.5188 56.4116 52.6448 55.2752 52.7392 54.2334C52.7392 54.1387 52.6448 53.7284 52.6448 53.6337C52.4244 53.6337 52.2355 53.7284 52.0151 53.7284C50.2833 54.8648 48.3627 55.4646 46.505 56.4116C46.0957 56.5063 45.8123 56.601 45.403 56.6957C44.5843 56.5063 43.7657 56.5063 42.947 56.822C41.9185 57.4323 40.9004 57.9373 39.8929 58.3372C39.578 58.3372 39.2632 58.3372 39.0742 58.2425C38.8538 58.0215 37.9407 57.4217 37.9407 57.327C37.8463 57.2008 37.8463 57.1061 37.7518 57.0114C37.437 56.0012 37.7518 54.9595 38.5705 54.2334C39.7669 53.2233 41.8135 53.7284 43.2619 53.4443C43.9546 53.318 44.4899 52.7182 45.1826 52.4972C46.8198 51.9922 48.2367 52.4025 49.874 51.4871C50.7871 51.0767 51.6057 50.4454 52.3299 49.7509C52.8337 49.1195 53.243 48.425 53.4634 47.6043C53.8727 47.1939 54.5654 46.9729 55.0692 47.2886C55.6045 47.699 56.1083 47.8884 56.7065 48.1094C57.2418 48.2041 57.84 48.2041 58.3438 48.1094C59.1624 48.0147 59.9811 47.699 60.7997 47.3833C61.3979 47.0676 61.8073 46.5626 62.1221 46.0575C62.8463 46.1522 63.6649 46.1522 64.3576 45.9628C65.9949 45.4577 67.6322 44.416 69.2695 43.9109C71.3161 43.4058 73.8664 42.7745 75.913 42.3641C76.5113 42.1747 77.0151 41.859 77.5188 41.6696C78.243 41.4487 78.8413 41.4487 79.5654 41.6696C80.0692 43.0902 78.9672 43.5952 77.8337 44.1003C77.4244 44.2266 76.9206 44.2266 76.4168 44.1003L76.2909 44.8264C75.7871 44.637 75.1889 44.7317 74.7795 45.142C72.8274 45.7418 70.9067 46.3732 68.9546 47.2886C68.4508 47.6043 68.0415 48.0147 67.7266 48.5197H65.68L65.3967 49.1195C63.7594 49.2458 61.1146 50.6663 59.5717 51.2661C58.8476 51.4871 58.2493 51.5818 57.5251 51.6765C57.2418 53.0339 57.1158 54.4544 57.2418 55.8749C57.1158 56.4116 56.9269 56.822 56.612 57.2008C56.5176 57.4217 56.4231 57.6111 56.5176 57.8321C57.2418 60.3891 56.9269 61.8096 56.5176 64.4928C56.1083 67.5548 56.4231 72.3531 56.2027 75.7308C56.1083 77.4986 55.7934 79.2348 55.3841 80.8763C55.6989 81.3813 55.7934 82.1074 55.6989 82.7072C55.4785 84.6643 55.1952 86.4952 55.0692 88.5471C54.8803 89.1469 54.6914 89.7782 54.2821 90.2833C54.3765 89.9676 54.2821 90.0624 54.0617 90.1886Z" fill="#C21A1F"/>
</g>
<defs>
<clipPath id="clip0_10_16150">
<rect width="500" height="143" fill="white"/>
</clipPath>
</defs>
</svg>
