<svg width="500" height="264" viewBox="0 0 500 264" fill="none" xmlns="http://www.w3.org/2000/svg">
<g clip-path="url(#clip0_10_16152)">
<path d="M118.919 63.1982H96.1788L95.5359 64.6897L72.3768 119.18L73.812 65.7094L73.8819 63.1982H50.5881L49.9502 64.6738L26.3276 119.157L28.2064 65.7331L28.3012 63.1982H5.93445L5.9057 65.6145L4.64981 163.021L4.62109 165.503H27.6158L28.2487 164.011L53.0226 105.631L52.0059 163.01L51.9611 165.503H74.9608L75.5987 164.019L117.462 66.6158L118.919 63.1982Z" fill="#231F20"/>
<path d="M142.143 90.4541H120.404L119.981 92.375L103.744 165.503H125.483L125.911 163.579L141.485 93.4316L142.143 90.4541Z" fill="#231F20"/>
<path d="M141.949 82.4652H143.917L144.341 80.547L147.81 64.9112L148.482 61.9258H126.734L126.315 63.8493L122.836 79.4878L122.178 82.4652H141.949Z" fill="#231F20"/>
<path d="M181.674 63.1982H159.93L159.506 65.1139L137.224 165.503H158.968L159.387 163.579L181.011 66.1758L181.674 63.1982Z" fill="#231F20"/>
<path d="M215.154 63.1982H193.415L192.987 65.1139L170.71 165.503H192.444L192.867 163.579L214.496 66.1758L215.154 63.1982Z" fill="#231F20"/>
<path d="M241.907 90.4541H220.168L219.744 92.375L203.507 165.503H225.246L225.675 163.579L241.249 93.4316L241.907 90.4541Z" fill="#231F20"/>
<path d="M241.712 82.4652H243.681L244.104 80.547L247.573 64.9112L248.246 61.9258H226.502L226.078 63.8493L222.6 79.4878L221.942 82.4652H241.712Z" fill="#231F20"/>
<path d="M277.724 142.998C272.945 146.278 266.705 149.425 262.883 149.425C261.767 149.425 260.267 149.214 259.454 148.202C258.587 147.124 258.732 145.42 259.006 144.181C260.64 136.824 270.089 134.363 280.067 132.453L277.724 142.998ZM304.462 120.482C306.989 109.126 306.336 101.503 302.394 96.4991C298.671 91.7509 292.008 89.4375 281.437 89.2082C270.488 88.9184 256.873 94.9576 250.449 102.955L249.018 104.744L250.708 106.296L259.664 114.496L261.443 116.124L263.112 114.38C266.8 110.501 271.53 106.533 278.621 106.533C281.193 106.533 283.201 107.194 284.128 108.348C284.796 109.186 284.976 110.375 284.637 111.893L283.695 116.124C255.123 119.702 240.691 128.724 237.028 145.251C235.687 151.285 236.714 156.802 239.908 160.781C242.101 163.503 246.382 166.749 254.321 166.749C262.599 166.829 269.277 164.357 275.173 161.245L275.093 162.926L274.984 165.487H296.638L296.299 162.729C296 160.365 296.263 157.414 297.146 153.446L304.462 120.482Z" fill="#231F20"/>
<path d="M412.642 94.6094C409.847 91.1234 405.396 89.2078 400.118 89.2078C388.791 89.2078 380.941 93.3288 374.791 97.9162C372.021 92.4724 366.15 89.2078 358.674 89.2078C350.8 89.1392 345.248 91.1075 339.412 94.836L339.716 93.4527L340.379 90.4778H320.13L319.697 92.396L304.138 162.525L303.465 165.503H325.209L325.632 163.579L336.621 114.095C341.849 110.198 347.187 107.613 350.107 107.589C351.473 107.658 353.217 107.94 353.94 108.867C354.568 109.692 354.632 111.341 354.129 113.631L343.274 162.525L342.617 165.503H364.35L364.774 163.579L375.763 114.095C380.986 110.198 386.333 107.613 389.254 107.589C390.624 107.658 392.364 107.94 393.076 108.867C393.719 109.692 393.779 111.341 393.271 113.631L382.416 162.525L381.753 165.503H403.497L403.921 163.579L415.099 113.215C416.893 105.128 416.076 98.8728 412.642 94.6094Z" fill="#231F20"/>
<path d="M453.185 106.533C456.584 106.533 459.594 108.551 462.669 112.88L464.104 114.909L466.117 113.444L480.485 102.962L479.274 101.031C474.59 93.5161 465.689 89.208 454.859 89.208C442.734 89.208 428.137 96.1747 424.743 111.473C421.115 127.791 434.012 132.887 443.422 136.597C450.209 139.275 453.354 140.824 452.776 143.425C451.989 146.958 448.126 149.424 443.392 149.424C438.259 149.424 434.461 146.652 431.461 140.703L430.24 138.281L427.952 139.741L414.92 148.067L413.131 149.211L414.008 151.14C418.643 161.353 427.519 166.749 439.679 166.749C457.057 166.749 469.327 158.175 472.521 143.812C476.339 126.606 462.704 121.399 453.673 117.958C447.07 115.436 444.02 113.976 444.583 111.46C445.305 108.193 448.206 106.533 453.185 106.533Z" fill="#231F20"/>
<path fill-rule="evenodd" clip-rule="evenodd" d="M184.534 181.653C98.4364 216.861 27.7827 225.475 26.7261 200.896C26.4419 194.353 31.1566 186.117 39.7883 176.892H27.2245C8.49582 194.804 -1.17747 210.153 1.15982 220.729C7.81807 250.847 109.385 231.143 229.946 176.892H195.847C192.105 178.504 188.342 180.098 184.534 181.653Z" fill="#1478C7"/>
<path fill-rule="evenodd" clip-rule="evenodd" d="M451.944 14.9869C445.59 -14.6061 350.317 1.84642 233.728 51.1147L238.891 53.8366C310.068 25.5373 371.597 8.29675 403.861 9.58261C442.365 11.1135 429.697 38.6488 378.903 78.6842H402.974C436.365 52.4454 455.054 29.4554 451.944 14.9869Z" fill="#1478C7"/>
<path fill-rule="evenodd" clip-rule="evenodd" d="M461.597 44.5011C460.426 40.2693 457.291 37.06 452.447 34.8203C449.407 40.7173 444.568 47.2361 438.084 54.2556C437.267 60.6375 431.875 68.9323 422.331 78.6843H445.699C458.119 64.8692 463.969 53.062 461.597 44.5011Z" fill="#1478C7"/>
<path fill-rule="evenodd" clip-rule="evenodd" d="M255.751 77.8881L260.835 80.5731C324.092 55.7098 380.777 40.0213 412.662 40.0134C414.89 36.8989 416.629 33.9846 417.855 31.2891C380.099 34.0083 321.581 50.432 255.751 77.8881Z" fill="#1478C7"/>
<path fill-rule="evenodd" clip-rule="evenodd" d="M267.249 176.892C248.181 187.034 227.299 196.975 205.341 206.174C128.224 238.491 62.848 251.303 43.9349 239.519C27.8974 240.921 18.0496 239.256 12.8517 237.746C11.9097 239.949 11.2569 242.054 10.9379 244.049C5.66019 277.136 90.931 267.571 201.379 222.695C235.787 208.719 268.579 192.962 297.574 176.892H267.249Z" fill="#1478C7"/>
<path fill-rule="evenodd" clip-rule="evenodd" d="M88.2398 176.892H77.7741C62.22 187.289 48.8637 197.449 38.2136 206.98C40.6008 208.398 45.6692 209.66 48.8637 209.878C57.4606 199.984 70.9962 188.688 88.2398 176.892Z" fill="#1478C7"/>
<path d="M486.241 155.361V151.588H488.768C490.049 151.588 491.429 151.867 491.429 153.377C491.429 155.253 490.019 155.361 488.454 155.361H486.241ZM486.241 156.929H488.369L491.594 162.222H493.672L490.189 156.844C491.983 156.623 493.353 155.672 493.353 153.487C493.353 151.079 491.928 150.017 489.037 150.017H484.392V162.222H486.241V156.929ZM488.479 166.691C494.255 166.691 499.184 162.222 499.184 156.093C499.184 150.017 494.255 145.543 488.479 145.543C482.653 145.543 477.724 150.017 477.724 156.093C477.724 162.222 482.653 166.691 488.479 166.691ZM479.852 156.093C479.852 151.079 483.635 147.303 488.479 147.303C493.273 147.303 497.056 151.079 497.056 156.093C497.056 161.184 493.273 164.934 488.479 164.934C483.635 164.934 479.852 161.184 479.852 156.093Z" fill="#231F20"/>
</g>
<defs>
<clipPath id="clip0_10_16152">
<rect width="500" height="264" fill="white"/>
</clipPath>
</defs>
</svg>
