<svg width="500" height="107" viewBox="0 0 500 107" fill="none" xmlns="http://www.w3.org/2000/svg">
<g clip-path="url(#clip0_8_16110)">
<path d="M104.021 105.782C98.1914 104.566 92.6362 100.617 90.465 96.1442C88.6949 92.4976 88.2117 89.7497 88.4558 84.7175C88.5761 82.2363 88.776 79.7832 88.8999 79.2663C89.0705 78.5542 88.9452 78.6499 88.3829 79.661C86.7551 82.5884 83.247 85.042 79.2626 86.0398L77.5227 86.4755L81.2363 95.7344C83.2788 100.827 84.95 105.045 84.95 105.108C84.95 105.171 81.4406 105.176 77.1513 105.121L69.3527 105.019L65.2149 93.2926C62.9391 86.8432 60.9908 81.4841 60.8853 81.3837C60.7799 81.2833 59.5974 86.6024 58.2577 93.204L55.8219 105.207H48.5808C42.5769 105.207 41.3397 105.116 41.3397 104.673C41.3397 104.38 42.3539 99.1773 43.5935 93.1126C44.8331 87.0479 45.9321 81.6629 46.0357 81.146C46.1422 80.6147 45.7995 81.0232 45.2472 82.0859C44.0735 84.3443 41.3372 87.2687 39.2719 88.472C35.9206 90.4247 34.514 90.6769 25.7377 90.8992L17.4668 91.1087L16.4312 96.184C15.8617 98.9755 15.2153 102.148 14.9948 103.233L14.5938 105.207H7.28941C3.272 105.207 -0.0082291 105.08 1.55077e-05 104.925C0.00824884 104.77 2.09409 94.4077 4.63518 81.8979L9.25533 59.1529H22.9478H36.6403L39.1303 60.3327C40.4999 60.9816 42.3169 62.1417 43.1682 62.9108C45.2329 64.7762 47.0332 68.4913 47.3203 71.4792L47.5448 73.815L49.0699 66.4839L50.595 59.1529H65.0468C79.3993 59.1529 79.5151 59.1591 81.882 60.0572C86.9656 61.986 90.299 66.6368 90.3469 71.8676L90.3707 74.4689L91.0088 72.9665C92.2601 70.0203 94.8203 66.4658 97.4346 64.0454C102.199 59.6346 108.13 57.4611 115.402 57.4611C124.711 57.4611 131.209 60.9803 134.432 67.7674C137.396 74.0075 137.572 80.6328 134.976 88.1993C133.481 92.5548 131.847 95.1365 128.372 98.63C125.088 101.932 122.031 103.776 117.47 105.206C114.09 106.266 107.661 106.541 104.021 105.782ZM114.983 93.4378C120.391 89.8588 123.635 77.5761 120.625 72.0751C118.403 68.0137 112.409 67.6858 108.673 71.4212C105.69 74.4042 103.671 80.2188 103.599 86.0334C103.547 90.2414 104.59 92.5516 107.131 93.8584C109.483 95.068 112.787 94.891 114.983 93.4378ZM72.4662 78.7578C75.1183 77.3532 76.065 73.569 74.2533 71.6142C73.3415 70.6303 73.274 70.6194 68.1029 70.6194H62.8743L62.0694 74.6608C61.6267 76.8837 61.2646 78.9334 61.2648 79.2158C61.2651 80.0284 70.8035 79.6384 72.4662 78.7578ZM30.2643 78.6699C32.0208 77.8364 32.8355 76.4313 32.8365 74.2337C32.8373 72.6957 32.6692 72.2521 31.8042 71.508C30.8401 70.6787 30.4646 70.6194 26.1809 70.6194H21.5907L20.7505 74.485C20.2885 76.6111 19.9104 78.5566 19.9104 78.8084C19.9104 79.5477 28.6612 79.4306 30.2643 78.6699ZM197.547 105.804C190.222 104.373 185.666 101.046 183.602 95.6201C182.265 92.1046 182.595 88.9197 185.846 74.0029C187.445 66.6625 188.848 60.276 188.962 59.8108C189.169 58.9698 189.212 58.9649 196.46 58.9649C200.47 58.9649 203.752 59.0918 203.753 59.2469C203.754 59.4019 202.367 66.263 200.67 74.4937C197.697 88.9165 197.605 89.5145 198.13 91.0015C198.996 93.4526 200.226 94.1163 203.901 94.1163C206.636 94.1163 207.182 93.9972 208.526 93.1073C209.448 92.4973 210.356 91.4564 210.823 90.4756C211.406 89.2493 217.661 60.6758 217.661 59.237C217.661 59.0873 221.044 58.9649 225.18 58.9649C230.944 58.9649 232.699 59.0745 232.699 59.4348C232.698 60.3655 225.959 91.1445 225.428 92.6393C223.092 99.2189 218.455 103.558 211.81 105.384C208.732 106.229 200.906 106.46 197.547 105.804ZM244.778 105.781C234.691 103.483 228.367 94.7611 229.081 84.1341C229.554 77.0796 232.617 69.7302 237.032 65.0511C241.435 60.3858 245.857 58.2557 252.729 57.4893C261.708 56.4881 270.259 59.6369 273.706 65.2137C274.137 65.9123 274.618 66.4839 274.773 66.4839C274.928 66.4839 275.366 64.7921 275.745 62.7244L276.435 58.9649H296.156H315.878L315.674 59.9988C315.562 60.5674 315.347 61.7093 315.195 62.5364L314.919 64.0402L316.634 62.466C320.308 59.0917 325.498 57.4111 332.326 57.385C337.401 57.3656 340.826 58.0656 344.042 59.7803C348.075 61.9293 350.565 65.728 351 70.3946L351.232 72.8751H344.477H337.722L337.185 71.0893C336.507 68.8291 335.037 67.9889 331.762 67.9889C329.001 67.9889 327.03 68.8791 326.517 70.3572C325.775 72.4957 327.14 73.342 334.48 75.2934C340.314 76.8445 343.196 78.2106 345.372 80.456C347.899 83.0631 348.681 85.1857 348.673 89.4169C348.667 92.5001 348.527 93.2869 347.65 95.171C346.279 98.1166 342.698 101.786 339.74 103.276C331.193 107.58 317.878 106.629 311.74 101.276C308.874 98.7766 307.151 94.7885 307.142 90.6308L307.137 88.6491L314.562 88.7511L321.987 88.853L322.095 90.1688C322.368 93.5194 323.876 94.7567 327.77 94.8247C330.592 94.8741 332.398 94.2606 333.247 92.9637C334.736 90.6922 333.481 89.129 329.164 87.8771C327.698 87.452 325.319 86.7622 323.876 86.3443C318.836 84.8838 315.127 82.3395 313.527 79.2458C312.595 77.4423 311.949 73.6682 312.25 71.7827L312.496 70.2434H307.207C304.298 70.2434 301.838 70.3737 301.739 70.533C301.641 70.6922 299.981 78.5581 298.051 88.0128L294.543 105.203L287.118 105.205C281.421 105.206 279.695 105.097 279.704 104.737C279.71 104.478 281.285 96.6924 283.204 87.4347C285.123 78.1769 286.613 70.5216 286.514 70.4229C286.415 70.3242 284.061 70.2434 281.283 70.2434H276.232L276.326 72.5931C276.378 73.8854 276.395 75.4081 276.365 75.9767L276.309 77.0105H269.166H262.023V74.9984C262.023 72.7773 261.155 71.1106 259.27 69.7141C258.42 69.0844 257.671 68.9298 255.51 68.9388C250.361 68.9601 247.612 71.4763 245.254 78.3264C244.38 80.8647 244.214 81.9793 244.192 85.4694C244.168 89.159 244.261 89.7724 245.055 91.1584C246.309 93.3454 248.332 94.3983 251.283 94.3983C255.459 94.3983 257.629 92.9245 259.423 88.8695L260.178 87.1612H267.68C271.806 87.1612 275.181 87.2283 275.181 87.3102C275.181 87.7904 272.865 93.0273 271.977 94.5566C270.429 97.2197 265.617 101.828 262.893 103.255C258.072 105.781 249.824 106.931 244.778 105.781ZM133.583 104.343C133.865 103.22 142.846 59.3965 142.846 59.1442C142.846 59.0456 148.402 58.9649 155.193 58.9649C166.31 58.9649 167.832 59.0397 170.48 59.7172C179.702 62.0758 184.363 69.5783 183.093 80.0218C181.828 90.4233 176.724 98.503 169.134 102.12C163.392 104.856 162.767 104.942 147.216 105.112L133.352 105.264L133.583 104.343ZM161.843 92.027C165.729 90.0279 168.209 84.526 168.218 77.8852C168.222 74.6039 168.113 73.9127 167.448 73.021C165.727 70.7135 164.982 70.4416 160.02 70.3098L155.441 70.1882L153.214 81.2124C151.989 87.2757 150.907 92.4661 150.809 92.7467C150.663 93.163 151.489 93.2321 155.302 93.1226C159.423 93.0043 160.194 92.8751 161.843 92.027ZM365.87 104.361C366.795 102.933 382.742 75.0912 382.957 74.5298C383.128 74.0864 381.635 74.0029 373.533 74.0029C368.238 74.0029 363.906 73.9339 363.906 73.8496C363.906 73.7653 367.795 66.9559 372.549 58.7176L381.192 43.7389L391.061 43.5509L400.93 43.3629L413.379 21.7457L425.828 0.128546L436.034 0.028512C441.647 -0.0265047 446.239 0.000544995 446.239 0.0885852C446.239 0.325664 421.425 43.2831 420.971 43.8329C420.678 44.1866 418.189 44.3028 410.907 44.3028H401.232L397.817 50.224L394.402 56.1453L404.108 56.3332L413.815 56.5212L405.256 71.3713L396.697 86.2213L447.064 86.3167C477.995 86.3753 497.382 86.5473 497.305 86.7625C497.237 86.9553 494.898 91.1841 492.109 96.1599L487.037 105.207H426.18H365.323L365.87 104.361ZM418.53 73.721C418.616 73.5659 420.925 69.5902 423.661 64.8861L428.636 56.3332L446.742 56.3334L464.849 56.3336L469.548 64.2865C472.133 68.6606 474.464 72.6362 474.729 73.1212L475.211 74.0029H446.793C431.163 74.0029 418.445 73.876 418.53 73.721ZM487.942 71.3177C487.055 69.7964 484.754 65.8716 482.826 62.5961C480.899 59.3205 479.323 56.5714 479.323 56.4869C479.323 56.4024 483.975 56.3332 489.661 56.3332C495.348 56.3332 500 56.4038 500 56.49C500 56.795 490.503 73.0708 490.032 73.5734C489.637 73.9948 489.273 73.6018 487.942 71.3177ZM233.827 53.4235C233.827 53.2705 240.043 42.7815 247.641 30.1145L261.455 7.08364H268.481C274.847 7.08364 275.525 7.14539 275.701 7.74156C275.808 8.10341 277.619 17.6197 279.724 28.8888C281.83 40.1579 283.664 49.5036 283.8 49.657C283.936 49.8104 285.955 40.5902 288.286 29.1677C290.617 17.7452 292.609 8.10341 292.713 7.74156C292.884 7.14402 293.572 7.08364 300.207 7.08364C304.225 7.08364 307.513 7.21052 307.512 7.3656C307.511 7.63216 298.714 51.0584 298.296 52.8557L298.1 53.7016H284.226H270.351L269.693 49.9421L269.035 46.1826L261.112 46.188L253.188 46.1934L251.12 49.9421L249.053 53.6907L241.44 53.6961C237.252 53.6992 233.827 53.5764 233.827 53.4235ZM267.525 34.998C267.422 34.6362 266.962 32.0139 266.503 29.1708C266.044 26.3276 265.567 24.0056 265.444 24.0106C265.253 24.0185 259.444 34.3381 259.078 35.3199C259.009 35.5052 260.917 35.6559 263.333 35.6559C267.325 35.6559 267.696 35.5977 267.525 34.998ZM303.002 53.2289C303.002 52.8383 311.586 10.6439 312.218 7.92953L312.415 7.08364L325.284 7.09018C338.822 7.09706 341.31 7.32789 344.883 8.90844C347.264 9.96127 349.808 12.4561 351.021 14.9249C351.935 16.7862 352.059 17.4613 352.035 20.4299C352.014 22.9958 351.803 24.3355 351.163 25.9739C349.542 30.1214 345.217 33.7051 341.022 34.3758C340.168 34.5124 339.469 34.7329 339.469 34.8659C339.469 34.9988 341.076 39.1211 343.04 44.0265C345.005 48.932 346.612 53.1191 346.612 53.3312C346.612 53.5856 343.975 53.6823 338.864 53.6152L331.116 53.5136L326.934 41.5892C324.634 35.0308 322.645 29.7863 322.514 29.9347C322.383 30.0832 321.2 35.4915 319.886 41.9531L317.497 53.7016H310.249C304.679 53.7016 303.002 53.5922 303.002 53.2289ZM334.213 27.0054C337.008 25.5792 337.787 21.8862 335.727 19.826L334.617 18.7161L329.618 18.8211L324.619 18.9261L323.786 22.8736C323.328 25.0447 322.948 27.0325 322.94 27.291C322.93 27.6436 324.151 27.761 327.829 27.761C331.998 27.761 332.953 27.6478 334.213 27.0054ZM435.712 44.0683C435.712 43.6267 446.396 25.1293 446.651 25.1293C446.879 25.1293 457.893 43.7586 457.893 44.1442C457.893 44.2314 452.903 44.3028 446.803 44.3028C440.703 44.3028 435.712 44.1973 435.712 44.0683Z" fill="#009539"/>
</g>
<defs>
<clipPath id="clip0_8_16110">
<rect width="500" height="106.228" fill="white"/>
</clipPath>
</defs>
</svg>
