<svg width="500" height="60" viewBox="0 0 500 60" fill="none" xmlns="http://www.w3.org/2000/svg">
<path d="M0 59.4027H30.4205C30.4205 59.4027 32.9139 59.9284 34.8304 56.9145C36.2892 54.6211 34.4535 51.4278 34.4535 51.4278L19.1817 21.6738C18.1138 23.7672 17.9369 25.8684 17.9369 27.6106C17.9369 29.3591 18.6907 31.8717 20.0727 34.4241C21.4546 36.9764 26.7695 46.8295 26.7695 46.8295C26.7695 46.8295 29.5244 52.1123 29.6565 53.1148C29.9103 55.021 28.6078 56.2607 27.5284 56.2607H7.68781C4.61884 56.2607 3.49073 54.0506 3.41894 52.3251L1.59987 56.2607L0 59.4027Z" fill="#106253"/>
<path d="M0 59.4027H30.4205C30.4205 59.4027 32.9139 59.9284 34.8304 56.9145C36.2892 54.6211 34.4535 51.4278 34.4535 51.4278L19.1817 21.6738C18.1138 23.7672 17.9369 25.8684 17.9369 27.6106C17.9369 29.3591 18.6907 31.8717 20.0727 34.4241C21.4546 36.9764 26.7695 46.8295 26.7695 46.8295C26.7695 46.8295 29.5244 52.1123 29.6565 53.1148C29.9103 55.021 28.6078 56.2607 27.5284 56.2607H7.68781C4.61884 56.2607 3.49073 54.0506 3.41894 52.3251L1.59987 56.2607L0 59.4027Z" fill="#106253"/>
<path d="M42.612 59.3896H36.2189C36.2189 59.3896 37.7624 58.1898 38.3546 56.2464C38.8892 54.4978 37.7893 51.9262 37.7893 51.9262L20.6382 18.57L23.6533 12.8525L43.0619 50.0263C43.0619 50.0263 45.4028 54.3798 44.7438 56.2424C44.0836 58.1051 42.6132 59.3858 42.6132 59.3858" fill="#106253"/>
<path d="M51.1496 59.3899H47.3486C47.3486 59.3899 49.1074 56.6427 48.3101 54.3237C46.9576 50.3932 44.8117 46.6551 44.8117 46.6551L25.2249 9.66199L30.3654 0L60.7321 59.3924H51.1432" fill="#106253"/>
<path d="M96.7868 22.2011C97.1804 21.4268 97.5073 21.4268 97.8355 22.2011L104.245 37.7126C104.573 38.551 104.639 39.0074 103.199 39.0074H90.2374C89.3875 39.0074 88.9285 38.7459 89.3875 37.846L96.7855 22.2024M109.155 49.5668C109.81 51.3038 111.184 54.265 111.184 55.6816C111.184 58.1288 107.256 57.4853 107.256 59.03C107.256 59.6736 108.305 59.6736 108.699 59.6736C110.465 59.6736 112.233 59.4172 113.999 59.4172C116.684 59.4172 119.368 59.6736 122.05 59.6736C122.512 59.6736 122.968 59.6736 122.968 59.0916C122.968 57.4853 119.172 58.8993 117.206 55.9406C115.701 53.6856 114.917 50.9833 113.934 48.6002L100.32 15.4401C100.124 14.9248 99.6648 13.0596 98.9456 13.0596C98.0957 13.0596 97.897 14.0928 94.0332 22.2037L78.3897 55.038C76.6885 58.7095 73.6106 57.6148 73.6106 58.9659C73.6106 59.3531 73.8093 59.6736 74.2003 59.6736C75.9014 59.6736 77.6692 59.4172 79.4383 59.4172C81.2715 59.4172 83.1034 59.6736 84.9378 59.6736C85.7878 59.6736 86.7043 59.8684 86.7043 58.7083C86.7043 57.0328 82.056 58.9647 82.056 54.4574C82.056 53.6228 82.3188 52.6563 82.515 52.2076L86.7043 43.1955C87.3594 41.843 88.5375 41.843 89.7797 41.843H104.181C106.017 41.843 106.407 42.8084 107.063 44.2928L109.155 49.5706M140.95 20.4705C140.95 14.8671 145.726 16.4785 145.726 14.9979C145.726 14.2262 145.335 14.0992 144.484 14.0992C143.503 14.0992 141.93 14.353 138.2 14.353C134.994 14.353 132.962 14.0992 131.588 14.0992C130.738 14.0992 130.279 14.2249 130.279 14.9312C130.279 16.226 135.778 15.7722 135.778 19.118V51.7627C135.778 54.7881 135.648 56.5918 133.947 57.3635C131.852 58.3929 131.194 58.266 131.066 59.0364C131.066 59.5518 131.457 59.68 132.047 59.68C134.663 59.68 137.415 59.4877 140.032 59.4236C145.007 59.2954 149.981 59.68 154.958 59.68C157.838 59.68 159.28 59.8082 161.367 57.4917C162.94 55.8162 164.639 53.5639 164.639 51.2461C164.639 51.1179 164.576 50.4743 164.114 50.4743C163.266 50.4743 161.039 57.1045 145.917 57.1045C140.42 57.1045 140.945 55.5624 140.945 51.7627V20.4705M184.203 37.5331C184.203 36.9511 183.874 36.05 188.916 36.05C203.97 36.05 204.234 44.2954 204.234 48.4142C204.234 52.2729 201.877 57.9417 193.171 57.9417C183.874 57.9417 184.203 56.5918 184.203 51.955V37.5331ZM184.203 21.0486C184.203 17.3156 183.874 16.2221 187.998 16.2221C194.611 16.2221 200.569 20.15 200.569 27.1007C200.569 30.1286 200.042 34.0566 189.309 34.0566C183.415 34.0566 184.204 33.736 184.204 31.6759L184.203 21.0486ZM179.025 52.2152C179.025 57.2366 176.739 57.5571 176.017 57.7494C174.838 58.1366 174.056 58.3288 174.056 58.9736C174.056 59.5531 175.361 59.6812 175.692 59.6812C178.702 59.6812 181.78 59.4249 184.788 59.4249C187.016 59.4249 190.944 59.6812 193.3 59.6812C206.065 59.6812 209.206 50.2808 209.206 46.0337C209.206 35.3423 198.924 35.15 198.924 34.1847C198.924 33.736 205.078 31.608 205.078 25.0406C205.078 20.2782 202.196 14.0992 190.678 14.0992C185.44 14.0992 182.821 14.353 180.202 14.353C177.585 14.353 176.275 14.0992 174.966 14.0992C174.179 14.0992 173.197 14.0326 173.197 14.9979C173.197 16.2798 179.02 15.644 179.02 20.5346V52.214M227.904 20.8551C227.904 16.54 227.773 16.799 234.057 16.799C236.674 16.799 243.482 16.4119 245.188 18.6002C246.237 20.0834 245.188 23.1728 246.759 23.1728C247.15 23.1728 248.066 22.6575 248.066 15.512C248.066 14.7377 247.936 14.0979 247.411 14.0979C245.385 14.0979 239.358 14.3518 238.047 14.3518C235.305 14.3518 231.898 14.0979 219.528 14.0979C217.629 14.0979 217.233 14.3518 217.233 14.8658C217.233 15.6427 218.678 15.7709 219.197 15.8978C222.734 16.4131 222.734 19.5026 222.734 22.3998V51.7627C222.734 54.7881 222.601 56.5918 220.901 57.3635C218.806 58.3929 218.151 58.266 218.02 59.0364C218.02 59.5518 218.414 59.68 219.001 59.68C221.62 59.68 224.37 59.4877 226.989 59.4236C231.964 59.2954 236.938 59.68 241.913 59.68C244.795 59.68 246.238 59.8082 248.336 57.4917C249.906 55.8162 251.61 53.5639 251.61 51.2461C251.61 51.1179 251.544 50.4743 251.083 50.4743C250.234 50.4743 248.01 57.1045 232.886 57.1045C227.386 57.1045 227.91 55.5624 227.91 51.7627V39.9137C227.91 38.9484 227.714 37.8536 229.09 37.8536H238.78C244.277 37.8536 242.049 43.5236 244.081 43.5236C244.54 43.5236 244.801 43.2647 244.801 42.6827C244.801 40.9456 244.668 39.2701 244.668 37.5946C244.668 35.5371 244.801 33.3502 244.801 31.0927C244.801 30.5799 244.601 29.871 244.081 29.871C242.508 29.871 244.277 35.0243 237.469 35.0243H230.397C227.781 35.0243 227.912 35.0244 227.912 32.8361V20.8615M307.282 21.8165C307.016 14.1531 312.255 16.9208 312.255 14.8582C312.255 14.4761 311.993 14.0903 311.599 14.0903C310.553 14.0903 309.961 14.3441 308.456 14.3441C308.13 14.3441 306.036 14.0903 305.383 14.0903C304.597 14.0236 304.072 15.5683 303.68 16.2747L288.104 47.0541C287.053 49.1783 286.398 50.5307 286.072 50.5307C285.616 50.5307 285.349 49.9488 284.632 48.5989L269.054 15.8901C268.724 15.1825 268.595 14.0915 267.678 14.0915C266.501 14.0915 265.324 14.3453 264.146 14.3453C262.901 14.3453 261.723 14.0915 260.543 14.0915C259.954 14.0915 259.43 14.2172 259.43 14.7953C259.43 16.9862 265.651 13.3814 265.651 28.5121C265.651 35.3346 264.864 42.1597 264.08 52.6562C263.619 59.3531 259.43 56.7123 259.43 58.8993C259.43 59.3531 259.628 59.6736 260.085 59.6736C261.267 59.6736 262.375 59.4172 265.782 59.4172C267.745 59.4172 270.691 59.6736 271.541 59.6736C272.457 59.6736 273.18 59.6069 273.18 58.9659C273.18 56.6469 266.958 59.4813 267.284 50.9192L268.071 28.3198C268.136 27.6737 268.333 27.3533 268.527 27.3533C268.79 27.3533 269.117 27.5456 269.315 28.0609L283.257 56.7777C283.453 57.229 283.909 58.6429 284.566 58.6429C285.221 58.6429 286.267 56.0072 286.593 55.4227L300.144 28.2583C300.799 26.9084 301.386 26.329 301.845 26.329C302.239 26.329 302.568 27.2302 302.568 28.839L303.221 53.8203C303.286 58.5852 299.162 57.1713 299.162 59.098C299.162 59.3595 299.293 59.68 299.882 59.68C301.521 59.68 303.613 59.4236 305.645 59.4236C308.261 59.4236 310.555 59.68 311.796 59.68C312.519 59.68 313.366 59.68 313.366 59.0364C313.366 56.7841 308.524 59.1672 308.2 53.7587L307.284 21.8242M341.497 22.2011C341.888 21.4268 342.217 21.4268 342.543 22.2011L348.953 37.7126C349.283 38.551 349.346 39.0074 347.909 39.0074H334.949C334.099 39.0074 333.637 38.7459 334.099 37.846L341.494 22.2024M353.86 49.5668C354.52 51.3038 355.897 54.265 355.897 55.6816C355.897 58.1288 351.967 57.4853 351.967 59.03C351.967 59.6736 353.015 59.6736 353.406 59.6736C355.175 59.6736 356.943 59.4172 358.71 59.4172C361.394 59.4172 364.078 59.6736 366.764 59.6736C367.218 59.6736 367.675 59.6736 367.675 59.0916C367.675 57.4853 363.882 58.8993 361.918 55.9406C360.411 53.6856 359.625 50.9833 358.644 48.6002L345.03 15.4401C344.831 14.9248 344.372 13.0596 343.656 13.0596C342.803 13.0596 342.607 14.0928 338.746 22.2037L323.097 55.038C321.396 58.7095 318.321 57.6148 318.321 58.9659C318.321 59.3531 318.517 59.6736 318.91 59.6736C320.611 59.6736 322.379 59.4172 324.148 59.4172C325.98 59.4172 327.811 59.6736 329.647 59.6736C330.493 59.6736 331.411 59.8684 331.411 58.7083C331.411 57.0328 326.765 58.9647 326.765 54.4574C326.765 53.6228 327.024 52.6563 327.224 52.2076L331.411 43.1955C332.071 41.843 333.244 41.843 334.489 41.843H348.892C350.724 41.843 351.118 42.8084 351.77 44.2928L353.86 49.5706M398.364 36.3666C402.944 34.5655 406.612 30.2478 406.612 25.229C406.612 12.8032 392.145 14.0929 391.1 14.0929C387.697 14.0929 383.966 14.3467 380.165 14.3467C376.829 14.3467 377.153 14.0929 375.976 14.0929C375.189 14.0929 374.667 14.4774 374.667 14.8607C374.667 17.0541 380.299 14.412 380.299 20.5922V53.3651C380.299 58.2609 375.52 57.3571 375.52 58.9659C375.52 59.3531 375.779 59.6736 376.172 59.6736C378.658 59.6736 381.151 59.4172 383.641 59.4172C389.07 59.4172 390.572 59.6736 391.167 59.6736C391.689 59.6736 392.279 59.8017 392.279 59.1608C392.279 56.9699 385.47 58.9659 385.47 53.4318V39.8432C385.47 39.1997 385.077 38.042 387.176 38.042C394.509 38.042 393.526 37.8472 395.883 41.4521L403.146 52.7203C405.634 56.3892 408.187 59.6736 412.966 59.6736C413.554 59.6736 417.219 59.6736 417.219 58.8993C417.219 57.3571 414.015 59.7402 409.299 52.6562L398.366 36.3666M385.47 18.5963C385.47 16.085 386.844 16.2157 389.201 16.2157C395.61 16.2157 401.703 18.8565 401.703 26.7123C401.703 34.6924 395.417 35.8538 392.604 35.8538C389.529 35.8538 385.47 36.1717 385.47 34.9526V18.5963ZM434.566 20.4705C434.566 14.8671 439.342 16.4785 439.342 14.9979C439.342 14.2262 438.949 14.0992 438.096 14.0992C437.118 14.0992 435.55 14.353 431.815 14.353C428.609 14.353 426.577 14.0992 425.2 14.0992C424.351 14.0992 423.895 14.2249 423.895 14.9312C423.895 16.226 429.392 15.7722 429.392 19.118V51.7627C429.392 54.7881 429.264 56.5918 427.563 57.3635C425.468 58.3929 424.813 58.266 424.681 59.0364C424.681 59.5518 425.069 59.68 425.664 59.68C428.278 59.68 431.025 59.4877 433.649 59.4236C438.625 59.2954 443.601 59.68 448.574 59.68C451.452 59.68 452.899 59.8082 454.996 57.4917C456.567 55.8162 458.268 53.5639 458.268 51.2461C458.268 51.1179 458.2 50.4743 457.743 50.4743C456.891 50.4743 454.668 57.1045 439.546 57.1045C434.049 57.1045 434.574 55.5624 434.574 51.7627V20.4705M476.306 20.8551C476.306 16.54 476.175 16.799 482.462 16.799C485.076 16.799 491.884 16.4119 493.59 18.6002C494.631 20.0834 493.59 23.1728 495.156 23.1728C495.549 23.1728 496.467 22.6575 496.467 15.512C496.467 14.7377 496.336 14.0979 495.81 14.0979C493.783 14.0979 487.761 14.3518 486.45 14.3518C483.7 14.3518 480.299 14.0979 467.926 14.0979C466.027 14.0979 465.633 14.3518 465.633 14.8658C465.633 15.6427 467.077 15.7709 467.597 15.8978C471.136 16.4131 471.136 19.5026 471.136 22.3998V51.7627C471.136 54.7881 471.003 56.5918 469.3 57.3635C467.208 58.3929 466.55 58.266 466.418 59.0364C466.418 59.5518 466.809 59.68 467.402 59.68C470.021 59.68 472.77 59.4877 475.389 59.4236C480.365 59.2954 485.344 59.68 490.314 59.68C493.194 59.68 494.631 59.8082 496.723 57.4917C498.294 55.8162 500 53.5639 500 51.2461C500 51.1179 499.932 50.4743 499.471 50.4743C498.625 50.4743 496.398 57.1045 481.277 57.1045C475.774 57.1045 476.301 55.5624 476.301 51.7627V39.9137C476.301 38.9484 476.102 37.8536 477.478 37.8536H487.168C492.667 37.8536 490.439 43.5236 492.469 43.5236C492.928 43.5236 493.189 43.2647 493.189 42.6827C493.189 40.9456 493.058 39.2701 493.058 37.5946C493.058 35.5371 493.189 33.3502 493.189 31.0927C493.189 30.5799 492.993 29.871 492.469 29.871C490.893 29.871 492.667 35.0243 485.856 35.0243H478.789C476.17 35.0243 476.301 35.0244 476.301 32.8361V20.8615" fill="#131312"/>
</svg>
