<svg width="500" height="500" viewBox="0 0 500 500" fill="none" xmlns="http://www.w3.org/2000/svg">
<g clip-path="url(#clip0_8_16107)">
<path d="M0.22168 0.0634766H499.588V499.398H0.22168V0.0634766Z" fill="url(#paint0_linear_8_16107)"/>
<path fill-rule="evenodd" clip-rule="evenodd" d="M0.22168 440.462C182.288 313.783 415.558 239.417 415.558 239.417C402.63 237.484 391.318 229.499 385.551 217.934C378.105 225.348 370.405 232.256 362.135 238.593C349.208 247.94 331.844 258.682 319.455 252.344C314.765 249.588 311.47 245.183 310.076 240.24C300.158 253.168 272.623 286.216 258.587 275.475C255.26 272.18 253.612 267.49 254.182 262.832C248.669 271.641 241.793 279.341 233.777 285.963C222.782 294.771 210.393 294.772 204.879 288.72C200.729 283.491 199.366 276.584 201.299 270.247C205.988 250.158 215.051 231.432 227.471 215.177C240.399 198.637 253.359 189.005 264.353 188.72C269.867 188.181 275.38 190.652 278.422 195.342C278.422 195.342 281.717 189.543 283.904 185.139L302.661 182.668C295.754 197.813 272.085 245.469 277.598 251.521C283.08 257.573 302.091 235.012 309.252 226.457C309.822 217.11 312.009 207.731 315.874 198.922C323.574 179.911 332.953 161.47 344.233 144.391C361.597 119.328 382.256 94.5497 396.008 91.7931C400.412 90.1454 405.64 92.3317 407.319 97.0212C407.573 97.5599 407.573 98.1302 407.858 98.6689C408.397 105.83 406.749 112.991 403.454 119.328C397.402 132.256 390.494 144.676 382.795 156.78C372.338 173.859 360.203 189.829 346.99 204.436C343.694 207.731 338.72 213.244 331.02 220.944C330.45 229.784 333.206 237.484 347.528 233.903C358.555 231.147 364.892 226.742 383.618 205.545C386.09 190.652 390.494 176.077 397.117 162.294C403.454 147.972 410.615 134.188 418.885 120.69C426.299 108.872 435.678 98.3837 446.419 89.2899C453.58 82.9844 469.835 74.7145 476.711 81.0516C480.577 84.3469 478.929 91.5079 476.711 99.7779C471.483 113.276 464.607 126.204 456.337 138.054C446.958 151.552 436.502 164.227 425.222 176.33C418.885 182.953 410.329 193.979 404.563 198.637V199.208C402.63 213.529 416.128 233.079 450 228.929L499.841 217.11V233.618C403.992 260.614 183.65 330.291 0.506851 499.398M23.3839 366.381C36.5968 341.856 116.476 193.979 177.059 128.137C127.757 126.489 80.9251 149.905 53.1051 190.652C48.1621 198.637 47.0531 208.555 50.0949 217.363C54.2141 225.095 62.484 229.499 71.0075 228.39C62.7692 236.945 50.3484 239.955 39.3535 236.09C36.8503 235.551 34.664 234.442 32.7312 233.079C28.612 230.038 25.2851 226.204 23.3839 221.514C20.6273 211.882 21.4511 201.679 25.2851 192.3C36.5968 164.227 73.2255 142.458 91.9517 133.935C121.134 119.328 154.182 113.529 186.692 117.395C193.853 109.949 202.123 103.612 210.931 98.1302C218.916 92.0466 229.119 89.8602 238.751 91.7931C243.694 92.6169 246.736 97.5599 245.912 102.249C245.912 102.535 245.627 103.073 245.627 103.358C243.98 106.939 241.793 109.949 239.037 112.706C237.642 106.654 231.305 102.788 225.253 104.182C223.891 104.467 222.497 105.006 221.388 105.83C214.797 109.949 208.713 114.638 203.232 120.152C211.217 122.085 218.916 125.665 225.539 130.608C240.399 142.744 242.617 164.48 230.482 179.087C230.482 179.087 230.481 179.087 230.196 179.372C224.43 186.533 210.108 207.446 168.251 215.177C187.231 224.81 197.148 246.007 192.205 266.666C188.34 292.553 171.546 314.607 147.845 325.348C133.523 331.939 117.3 332.224 102.978 326.172C95.8174 323.415 89.4802 318.441 84.7907 312.389C80.1013 323.701 75.4118 335.519 69.645 349.841L23.3839 366.381ZM193.599 130.069L192.205 131.464C187.262 137.515 177.63 149.081 165.494 166.445L159.442 174.968C152.566 185.171 145.659 196.197 138.783 207.477C148.701 209.949 159.157 209.41 168.789 206.083C200.19 195.088 218.663 163.688 214.512 145.215C213.688 141.635 209.854 133.935 193.599 130.069ZM167.712 233.079C167.712 233.079 155.038 216.571 127.757 226.204C118.948 241.349 110.678 257.066 102.693 273.574C97.465 283.777 93.3459 292.585 89.4802 301.109C96.356 310.488 107.383 315.716 118.948 314.892C127.503 314.353 135.741 311.311 142.902 306.083C164.132 290.367 181.464 252.091 167.712 233.079ZM403.739 182.129V183.777C421.641 166.698 436.787 146.894 448.352 124.841C451.933 119.074 454.689 112.737 456.622 106.115C458.27 97.845 449.746 102.249 449.746 102.249C440.367 106.939 425.507 129.531 418.885 141.096C411.724 154.055 406.781 167.807 403.739 182.129ZM331.305 204.436C348.637 190.399 362.959 168.377 378.137 142.49C381.432 135.583 389.417 120.152 384.727 117.142C380.038 114.1 367.395 126.235 351.394 153.232C342.047 169.201 335.171 186.533 331.305 204.436ZM271.261 209.125C271.261 206.083 271.261 204.721 269.867 203.612C266.857 201.425 262.991 203.073 259.125 205.83C255.83 208.301 252.809 211.058 250.063 214.1C245.374 219.328 241.223 224.841 237.104 230.608C228.834 242.997 219.487 261.185 225.824 265.589C230.767 268.884 240.684 263.656 247.021 256.21C250.063 252.915 252.82 249.334 255.291 245.754C262.991 234.727 268.219 222.338 271.261 209.125Z" fill="white"/>
</g>
<defs>
<linearGradient id="paint0_linear_8_16107" x1="160.963" y1="494.107" x2="338.751" y2="5.51341" gradientUnits="userSpaceOnUse">
<stop stop-color="#0077FF"/>
<stop offset="0.9" stop-color="#00ECFF"/>
</linearGradient>
<clipPath id="clip0_8_16107">
<rect width="500" height="499.683" fill="white"/>
</clipPath>
</defs>
</svg>
