<svg width="500" height="219" viewBox="0 0 500 219" fill="none" xmlns="http://www.w3.org/2000/svg">
<g clip-path="url(#clip0_8_16105)">
<path fill-rule="evenodd" clip-rule="evenodd" d="M309.711 186.751C323.698 186.751 335.466 182.153 347.717 173.632V208.809C334.373 216.462 320.386 219.067 308.167 219.067C261.897 219.067 229.582 185.208 229.582 139.774C229.582 94.983 264.277 60.4492 308.617 60.4492C321.929 60.4492 335.241 63.954 347.46 70.7065V106.108C335.916 97.3624 323.891 92.5714 309.678 92.5714C283.055 92.5714 263.408 113.311 263.408 139.774C263.441 165.755 282.412 186.751 309.711 186.751ZM409.486 93.0216V124.05H472.187V153.954H409.486V216.205H376.752V63.311H476.56V93.0216H409.486ZM481.351 63.311H488.875V64.5007H485.82V71.6711H484.373V64.5007H481.351V63.311ZM498.457 71.6389L498.424 65.7868L495.306 70.6421H494.63L491.479 65.8833V71.6389H490.096V63.311H491.254L494.984 69.0023L498.65 63.311H499.807L499.839 71.6389H498.457Z" fill="#015846"/>
<path d="M108.585 14.9191L203.215 55.2085C206.174 56.4626 209.518 55.7552 211.736 53.4722L250.129 13.1507C254.759 8.2632 251.286 0.224609 244.566 0.224609H111.543C103.248 0.224609 100.932 11.6716 108.585 14.9191Z" fill="#00C7B1"/>
<path d="M195.305 83.6332L114.694 144.791C112.444 146.495 111.318 149.26 111.736 152.025L121.061 212.54C122.09 219.196 131.801 221.061 135.177 215.273L206.784 93.6975C211.029 86.4949 201.993 78.5528 195.305 83.6332Z" fill="#3FA9F5"/>
<path d="M76.1093 15.9484L9.51762 0.44996C2.82952 -1.09345 -2.37948 6.23774 1.35042 12.0255L78.5851 132.283C82.926 139.035 93.6977 135.305 92.8617 127.299L82.2186 22.958C81.897 19.5175 79.4212 16.7522 76.1093 15.9484Z" fill="#54CE32"/>
<path d="M129.839 113.408L172.701 71.2538C176.881 67.1059 175.08 59.9998 169.389 58.4242L111.479 42.3471C105.788 40.7715 100.547 45.9484 102.026 51.6397L117.074 109.871C118.553 115.595 125.659 117.524 129.839 113.408Z" fill="#015846"/>
</g>
<defs>
<clipPath id="clip0_8_16105">
<rect width="500" height="218.971" fill="white"/>
</clipPath>
</defs>
</svg>
