<svg width="461" height="144" viewBox="0 0 461 144" fill="none" xmlns="http://www.w3.org/2000/svg">
<path d="M33.2055 124.08H35.5828V137.347C35.5828 139.417 34.8926 140.951 33.5122 142.101C32.1319 143.252 30.5214 143.788 28.5276 143.788C25.4601 143.788 23.1595 142.561 22.0092 140.414L24.0797 139.187C24.8466 140.721 26.3036 141.488 28.5276 141.488C31.365 141.488 33.1288 139.877 33.1288 137.27V135.276C31.9018 137.117 30.2147 138.037 27.9908 138.037C26.0736 138.037 24.3865 137.347 23.0061 135.966C21.6257 134.586 20.9355 132.899 20.9355 130.828C20.9355 128.834 21.6257 127.147 23.0061 125.767C24.3865 124.386 25.9969 123.696 27.9908 123.696C30.2147 123.696 31.9785 124.617 33.1288 126.457V124.08H33.2055ZM31.7484 127.454C30.8282 126.534 29.6779 126.074 28.2208 126.074C26.8405 126.074 25.6901 126.534 24.6932 127.454C23.773 128.374 23.3128 129.525 23.3128 130.982C23.3128 132.362 23.773 133.589 24.6932 134.509C25.6135 135.429 26.7638 135.89 28.2208 135.89C29.6012 135.89 30.7515 135.429 31.7484 134.509C32.6687 133.589 33.1288 132.439 33.1288 130.982C33.2055 129.525 32.7454 128.374 31.7484 127.454Z" fill="#050000"/>
<path d="M42.1012 126.457C42.868 124.77 44.3251 123.85 46.3956 123.85V126.38C45.2453 126.304 44.2484 126.61 43.4048 127.301C42.5613 127.991 42.1778 129.064 42.1778 130.598V137.96H39.8005V124.08H42.1778V126.457H42.1012Z" fill="#050000"/>
<path d="M48.8496 119.939C48.8496 119.018 49.5398 118.328 50.46 118.328C51.3036 118.328 52.0705 119.095 52.0705 119.939C52.0705 120.859 51.3803 121.549 50.46 121.549C49.5398 121.549 48.8496 120.859 48.8496 119.939ZM49.233 124.08H51.6103V137.96H49.233V124.08Z" fill="#050000"/>
<path d="M57.1318 136.273C55.7515 134.893 55.0613 133.129 55.0613 131.059C55.0613 128.988 55.7515 127.224 57.1318 125.844C58.5122 124.464 60.1993 123.773 62.2699 123.773C64.9539 123.773 67.2545 125.154 68.3282 127.378L66.3343 128.528C65.6441 127.071 64.1104 126.074 62.2699 126.074C60.8895 126.074 59.7392 126.534 58.8189 127.454C57.8987 128.375 57.4386 129.525 57.4386 130.982C57.4386 132.362 57.8987 133.513 58.8189 134.433C59.7392 135.353 60.8895 135.813 62.2699 135.813C64.1104 135.813 65.6441 134.893 66.411 133.436L68.4815 134.663C67.3312 136.887 64.9539 138.267 62.2699 138.267C60.1993 138.344 58.5122 137.654 57.1318 136.273Z" fill="#050000"/>
<path d="M80.9048 124.08H83.2821V137.96H80.9048V135.967C79.9079 137.577 78.4508 138.344 76.457 138.344C73.2361 138.344 71.0889 136.12 71.0889 132.669V124.08H73.4662V132.439C73.4662 134.663 74.7698 135.967 76.8404 135.967C79.2177 135.967 80.8281 134.51 80.8281 131.365V124.08H80.9048Z" fill="#050000"/>
<path d="M89.8006 117.715H87.4233V137.96H89.8006V117.715Z" fill="#050000"/>
<path d="M101.534 126.457H97.8528V133.973C97.8528 136.12 99.0798 135.966 101.534 135.813V137.96C97.3927 138.497 95.4756 137.347 95.4756 133.973V126.457H92.7915V124.157H95.4756V121.012L97.8528 120.322V124.233H101.534V126.457Z" fill="#050000"/>
<path d="M114.417 124.08H116.795V137.96H114.417V135.967C113.42 137.577 111.963 138.344 109.969 138.344C106.749 138.344 104.601 136.12 104.601 132.669V124.08H106.979V132.439C106.979 134.663 108.282 135.967 110.353 135.967C112.73 135.967 114.341 134.51 114.341 131.365V124.08H114.417Z" fill="#050000"/>
<path d="M123.39 126.457C124.156 124.77 125.613 123.85 127.684 123.85V126.38C126.534 126.304 125.537 126.61 124.693 127.301C123.85 127.991 123.39 129.064 123.39 130.598V137.96H121.012V124.08H123.39V126.457Z" fill="#050000"/>
<path d="M131.518 132.132C131.979 134.586 133.896 136.043 136.503 136.043C138.344 136.043 139.647 135.353 140.491 134.05L142.561 135.2C141.181 137.27 139.187 138.344 136.503 138.344C134.356 138.344 132.515 137.654 131.135 136.273C129.755 134.893 129.064 133.129 129.064 131.059C129.064 128.988 129.755 127.224 131.058 125.844C132.439 124.464 134.126 123.773 136.273 123.773C138.267 123.773 139.954 124.464 141.181 125.921C142.485 127.301 143.098 129.065 143.098 131.059C143.098 131.442 143.098 131.749 143.022 132.132H131.518ZM131.518 130.062H140.721C140.337 127.454 138.497 126.074 136.273 126.074C133.742 125.997 131.902 127.608 131.518 130.062Z" fill="#050000"/>
<path d="M161.58 118.559C164.187 118.559 166.334 119.479 168.098 121.396C169.862 123.237 170.706 125.537 170.706 128.298C170.706 130.982 169.862 133.283 168.098 135.2C166.334 137.04 164.187 137.96 161.58 137.96H154.064V118.559H161.58ZM161.58 135.506C163.497 135.506 165.184 134.816 166.411 133.436C167.638 132.056 168.252 130.368 168.252 128.221C168.252 126.151 167.638 124.387 166.411 123.006C165.184 121.626 163.574 120.936 161.58 120.936H156.595V135.43H161.58V135.506Z" fill="#050000"/>
<path d="M173.696 119.939C173.696 119.018 174.386 118.328 175.307 118.328C176.15 118.328 176.917 119.095 176.917 119.939C176.917 120.859 176.227 121.549 175.307 121.549C174.386 121.549 173.696 120.859 173.696 119.939ZM174.08 124.08H176.457V137.96H174.08V124.08Z" fill="#050000"/>
<path d="M190.261 124.08H192.868L187.347 137.96H184.586L179.064 124.08H181.672L185.966 135.353L190.261 124.08Z" fill="#050000"/>
<path d="M195.015 119.939C195.015 119.018 195.706 118.328 196.626 118.328C197.469 118.328 198.236 119.095 198.236 119.939C198.236 120.859 197.546 121.549 196.626 121.549C195.782 121.549 195.015 120.859 195.015 119.939ZM195.476 124.08H197.853V137.96H195.476V124.08Z" fill="#050000"/>
<path d="M206.825 129.907C208.972 130.368 211.81 131.211 211.81 134.125C211.81 135.352 211.35 136.426 210.353 137.116C209.356 137.883 208.206 138.266 206.672 138.266C203.988 138.266 201.994 136.963 201.227 135.046L203.298 133.819C203.758 135.122 205.061 135.966 206.672 135.966C208.206 135.966 209.356 135.352 209.356 134.049C209.356 132.975 208.129 132.361 206.672 131.978C204.525 131.365 201.687 130.674 201.687 127.76C201.687 126.533 202.147 125.536 203.068 124.769C203.988 124.003 205.138 123.619 206.595 123.619C208.819 123.619 210.66 124.693 211.58 126.533L209.586 127.684C209.126 126.457 208.129 125.92 206.672 125.92C205.291 125.92 204.218 126.61 204.218 127.76C204.064 128.911 205.291 129.524 206.825 129.907Z" fill="#050000"/>
<path d="M214.571 119.939C214.571 119.018 215.261 118.328 216.181 118.328C217.025 118.328 217.791 119.095 217.791 119.939C217.791 120.859 217.101 121.549 216.181 121.549C215.261 121.549 214.571 120.859 214.571 119.939ZM214.954 124.08H217.331V137.96H214.954V124.08Z" fill="#050000"/>
<path d="M227.991 138.344C225.997 138.344 224.233 137.654 222.853 136.273C221.472 134.893 220.782 133.129 220.782 131.059C220.782 128.988 221.472 127.301 222.853 125.844C224.233 124.464 225.997 123.773 227.991 123.773C229.985 123.773 231.748 124.464 233.129 125.844C234.509 127.224 235.276 128.988 235.276 131.059C235.276 133.129 234.586 134.816 233.129 136.273C231.748 137.654 230.061 138.344 227.991 138.344ZM231.518 134.51C232.439 133.589 232.899 132.439 232.899 130.982C232.899 129.602 232.439 128.375 231.518 127.454C230.598 126.534 229.448 126.074 228.068 126.074C226.687 126.074 225.537 126.534 224.617 127.454C223.696 128.375 223.236 129.525 223.236 130.982C223.236 132.362 223.696 133.589 224.617 134.51C225.537 135.43 226.687 135.89 228.068 135.89C229.371 135.967 230.521 135.507 231.518 134.51Z" fill="#050000"/>
<path d="M250.844 129.448V137.96H248.466V129.601C248.466 127.377 247.163 126.074 245.092 126.074C242.715 126.074 241.104 127.531 241.104 130.675V138.037H238.65V124.08H241.028V126.074C242.025 124.463 243.482 123.696 245.476 123.696C248.696 123.773 250.844 125.92 250.844 129.448Z" fill="#050000"/>
<path d="M268.558 138.344C266.564 138.344 264.801 137.654 263.42 136.273C262.04 134.893 261.35 133.129 261.35 131.059C261.35 128.988 262.04 127.301 263.42 125.844C264.801 124.464 266.564 123.773 268.558 123.773C270.552 123.773 272.316 124.464 273.696 125.844C275.077 127.224 275.843 128.988 275.843 131.059C275.843 133.129 275.153 134.816 273.696 136.273C272.316 137.654 270.552 138.344 268.558 138.344ZM272.009 134.51C272.929 133.589 273.389 132.439 273.389 130.982C273.389 129.602 272.929 128.375 272.009 127.454C271.089 126.534 269.939 126.074 268.558 126.074C267.178 126.074 266.028 126.534 265.107 127.454C264.187 128.375 263.727 129.525 263.727 130.982C263.727 132.362 264.187 133.589 265.107 134.51C266.028 135.43 267.178 135.89 268.558 135.89C269.939 135.967 271.089 135.507 272.009 134.51Z" fill="#050000"/>
<path d="M285.736 120.552C283.282 120.322 282.132 121.396 282.132 123.697V124.08H285.736V126.381H282.132V137.884H279.755V126.381H277.531V124.08H279.755V123.697C279.755 119.939 281.902 117.945 285.813 118.175V120.552H285.736Z" fill="#050000"/>
<path d="M303.221 118.559C305.828 118.559 307.976 119.479 309.739 121.396C311.503 123.237 312.347 125.537 312.347 128.298C312.347 130.982 311.503 133.283 309.739 135.2C307.976 137.04 305.828 137.96 303.221 137.96H295.706V118.559H303.221ZM303.221 135.506C305.138 135.506 306.825 134.816 308.052 133.436C309.279 132.056 309.893 130.368 309.893 128.221C309.893 126.151 309.279 124.387 308.052 123.006C306.825 121.626 305.215 120.936 303.221 120.936H298.236V135.43H303.221V135.506Z" fill="#050000"/>
<path d="M322.239 138.344C320.245 138.344 318.482 137.654 317.101 136.273C315.721 134.893 315.031 133.129 315.031 131.059C315.031 128.988 315.721 127.301 317.101 125.844C318.482 124.464 320.245 123.773 322.239 123.773C324.233 123.773 325.997 124.464 327.377 125.844C328.758 127.224 329.525 128.988 329.525 131.059C329.525 133.129 328.834 134.816 327.377 136.273C325.92 137.654 324.233 138.344 322.239 138.344ZM325.69 134.51C326.611 133.589 327.071 132.439 327.071 130.982C327.071 129.602 326.611 128.375 325.69 127.454C324.77 126.534 323.62 126.074 322.239 126.074C320.859 126.074 319.709 126.534 318.788 127.454C317.868 128.375 317.408 129.525 317.408 130.982C317.408 132.362 317.868 133.589 318.788 134.51C319.709 135.43 320.859 135.89 322.239 135.89C323.62 135.967 324.77 135.507 325.69 134.51Z" fill="#050000"/>
<path d="M348.466 124.08H350.997L346.702 137.96H344.249L341.028 127.684L337.807 137.96H335.353L331.135 124.08H333.666L336.656 134.663L339.877 124.08H342.178L345.475 134.663L348.466 124.08Z" fill="#050000"/>
<path d="M361.733 118.559C364.34 118.559 366.488 119.479 368.252 121.396C370.015 123.237 370.859 125.537 370.859 128.298C370.859 130.982 370.015 133.283 368.252 135.2C366.488 137.04 364.34 137.96 361.733 137.96H354.218V118.559H361.733ZM361.733 135.506C363.65 135.506 365.337 134.816 366.564 133.436C367.791 132.056 368.405 130.368 368.405 128.221C368.405 126.151 367.791 124.387 366.564 123.006C365.337 121.626 363.727 120.936 361.733 120.936H356.748V135.43H361.733V135.506Z" fill="#050000"/>
<path d="M383.819 124.08H386.196V137.96H383.819V135.967C382.822 137.577 381.365 138.344 379.371 138.344C376.15 138.344 374.003 136.12 374.003 132.669V124.08H376.38V132.439C376.38 134.663 377.684 135.967 379.755 135.967C382.132 135.967 383.742 134.51 383.742 131.365V124.08H383.819Z" fill="#050000"/>
<path d="M397.623 118.558C399.387 118.558 400.844 119.172 402.071 120.322C403.221 121.549 403.834 123.006 403.834 124.77C403.834 126.534 403.221 127.991 402.071 129.218C400.92 130.445 399.463 130.981 397.623 130.981H393.175V137.883H390.644V118.481H397.623V118.558ZM397.623 128.604C398.696 128.604 399.54 128.221 400.23 127.531C400.92 126.764 401.304 125.843 401.304 124.77C401.304 122.546 399.77 120.935 397.623 120.935H393.175V128.604H397.623Z" fill="#050000"/>
<path d="M412.577 138.344C410.583 138.344 408.819 137.654 407.439 136.273C406.058 134.893 405.368 133.129 405.368 131.059C405.368 128.988 406.058 127.301 407.439 125.844C408.819 124.464 410.583 123.773 412.577 123.773C414.571 123.773 416.334 124.464 417.715 125.844C419.095 127.224 419.862 128.988 419.862 131.059C419.862 133.129 419.172 134.816 417.715 136.273C416.334 137.654 414.571 138.344 412.577 138.344ZM416.028 134.51C416.948 133.589 417.408 132.439 417.408 130.982C417.408 129.602 416.948 128.375 416.028 127.454C415.107 126.534 413.957 126.074 412.577 126.074C411.196 126.074 410.046 126.534 409.126 127.454C408.206 128.375 407.745 129.525 407.745 130.982C407.745 132.362 408.206 133.589 409.126 134.51C410.046 135.43 411.196 135.89 412.577 135.89C413.957 135.967 415.107 135.507 416.028 134.51Z" fill="#050000"/>
<path d="M435.353 129.448V137.96H432.976V129.601C432.976 127.377 431.672 126.074 429.601 126.074C427.224 126.074 425.614 127.531 425.614 130.675V138.037H423.236V124.08H425.614V126.074C426.611 124.463 428.068 123.696 430.061 123.696C433.282 123.773 435.353 125.92 435.353 129.448Z" fill="#050000"/>
<path d="M446.703 126.457H443.022V133.973C443.022 136.12 444.249 135.966 446.703 135.813V137.96C442.561 138.497 440.644 137.347 440.644 133.973V126.457H437.96V124.157H440.644V121.012L443.022 120.322V124.233H446.703V126.457Z" fill="#050000"/>
<path d="M453.758 118.559V119.786H452.224V124.157H450.92V119.786H449.386V118.559H453.758ZM458.896 118.559H460.199V124.08H458.896V120.629L457.362 123.083H457.209L455.675 120.629V124.08H454.448V118.559H455.675L457.285 121.089L458.896 118.559Z" fill="#050000"/>
<path d="M0 42.4847L42.1779 0C19.4785 1.30368 1.30368 19.5552 0 42.4847Z" fill="#0080CB"/>
<path d="M89.3405 44.9384C89.3405 44.7083 89.3405 44.5549 89.3405 44.3249H53.3742L45.2454 36.1194H88.5736C87.8067 32.0549 86.4263 28.2206 84.6625 24.6163H46.0889L54.2178 16.4108H79.2178C75.4601 11.7329 70.7822 7.89851 65.4141 5.06108C65.3374 4.9844 65.184 4.9844 65.1073 4.90771C61.503 2.99054 57.592 1.61016 53.5276 0.766602L0.766846 53.9108C1.22697 56.058 1.76378 58.1286 2.53065 60.1224C3.22083 62.1163 4.06439 64.0335 5.06132 65.874C12.1165 79.2942 25.6902 88.7267 41.5644 89.8003L11.4264 59.4323L17.5613 53.2206L53.1441 89.0335C57.3619 88.1899 61.4263 86.8095 65.1073 84.8157L25.6135 45.0151L31.7484 38.8034L72.546 79.9077C75.5368 77.5304 78.2208 74.693 80.4448 71.6255L64.6472 55.6746H87.8834C88.8803 52.377 89.3405 48.7727 89.3405 44.9384Z" fill="#0080CB"/>
<path d="M112.807 30.0616C112.807 26.6873 113.42 23.6199 114.57 20.8591C115.721 18.0984 117.408 15.7978 119.402 13.8039C121.472 11.8867 123.85 10.353 126.687 9.27938C129.448 8.20576 132.439 7.66895 135.583 7.66895C138.804 7.66895 141.871 8.20576 144.785 9.27938C147.699 10.353 150.077 11.7334 151.994 13.5739L143.328 24.08C142.561 23.0831 141.564 22.2395 140.337 21.7027C139.187 21.1659 137.807 20.8591 136.35 20.8591C135.199 20.8591 134.049 21.0892 133.052 21.4726C132.055 21.8561 131.135 22.4696 130.368 23.3131C129.601 24.08 128.988 25.0769 128.528 26.2272C128.067 27.3775 127.837 28.6045 127.837 29.9849C127.837 31.3653 128.067 32.5923 128.528 33.7426C128.988 34.8162 129.601 35.8131 130.368 36.58C131.135 37.3469 132.055 37.9604 133.052 38.4205C134.049 38.8039 135.199 39.034 136.273 39.034C137.883 39.034 139.264 38.7272 140.414 38.037C141.564 37.3469 142.485 36.58 143.175 35.6598L151.84 46.0892C149.923 48.0064 147.623 49.5401 144.862 50.6137C142.101 51.7641 138.957 52.3008 135.429 52.3008C132.285 52.3008 129.294 51.764 126.534 50.6904C123.773 49.6168 121.319 48.0831 119.248 46.1659C117.178 44.172 115.567 41.8714 114.417 39.1107C113.42 36.4266 112.807 33.3591 112.807 30.0616Z" fill="#050000"/>
<path d="M159.663 29.831C159.663 26.4568 160.276 23.3893 161.426 20.7052C162.577 17.9445 164.264 15.6439 166.334 13.7267C168.405 11.8095 170.859 10.3525 173.696 9.27886C176.534 8.28193 179.601 7.74512 182.899 7.74512C186.196 7.74512 189.264 8.28193 192.101 9.27886C194.939 10.2758 197.393 11.8095 199.54 13.7267C201.61 15.6439 203.298 17.9445 204.448 20.7052C205.598 23.466 206.212 26.4568 206.212 29.831C206.212 33.2052 205.598 36.2727 204.448 39.1102C203.298 41.8709 201.61 44.2482 199.54 46.242C197.469 48.2359 195.015 49.7697 192.101 50.8433C189.264 51.9169 186.196 52.4537 182.899 52.4537C179.601 52.4537 176.534 51.9169 173.696 50.8433C170.859 49.7697 168.405 48.2359 166.334 46.242C164.264 44.2482 162.653 41.8709 161.426 39.1102C160.199 36.2727 159.663 33.2052 159.663 29.831ZM174.617 29.831C174.617 31.2114 174.847 32.5151 175.23 33.6654C175.614 34.8157 176.227 35.8126 176.917 36.6562C177.684 37.4997 178.528 38.1132 179.525 38.5733C180.521 39.0335 181.672 39.2635 182.822 39.2635C183.972 39.2635 185.123 39.0335 186.12 38.5733C187.117 38.1132 188.037 37.4997 188.727 36.6562C189.494 35.8126 190.031 34.8157 190.491 33.6654C190.874 32.5151 191.104 31.2114 191.104 29.831C191.104 28.4506 190.874 27.2237 190.491 26.0733C190.107 24.923 189.494 24.0028 188.727 23.2359C187.96 22.469 187.117 21.8555 186.12 21.3954C185.123 20.9353 184.049 20.7052 182.822 20.7052C181.672 20.7052 180.521 20.9353 179.525 21.3954C178.528 21.8555 177.607 22.469 176.917 23.2359C176.15 24.0028 175.614 24.9997 175.23 26.0733C174.847 27.2237 174.617 28.4506 174.617 29.831Z" fill="#050000"/>
<path d="M216.948 8.89551H234.969C237.04 8.89551 239.034 9.12557 241.104 9.50901C243.175 9.89244 244.939 10.6593 246.549 11.7329C248.159 12.8065 249.463 14.1869 250.46 15.9507C251.457 17.7145 251.917 19.9385 251.917 22.6225C251.917 25.2299 251.304 27.4538 250 29.4477C248.773 31.4415 246.932 32.9753 244.555 33.9722L255.215 51.0734H239.034L230.981 35.9661H230.598V51.0734H216.948V8.89551ZM230.521 26.7636H233.282C233.742 26.7636 234.279 26.6869 234.816 26.6102C235.353 26.5335 235.889 26.3802 236.426 26.0734C236.886 25.8434 237.347 25.4599 237.653 24.9998C237.96 24.5397 238.19 23.9262 238.19 23.1593C238.19 22.3924 238.037 21.7789 237.807 21.3955C237.5 20.9354 237.193 20.6286 236.733 20.3986C236.273 20.1685 235.813 20.0151 235.353 20.0151C234.816 19.9385 234.356 19.9384 233.972 19.9384H230.598V26.7636H230.521Z" fill="#050000"/>
<path d="M287.73 51.1501H273.696V20.9354H263.344V8.89551H298.083V20.9354H287.73V51.1501Z" fill="#050000"/>
<path d="M310.736 8.89551H339.571V20.7053H324.003V24.3863H338.574V35.4292H324.003V39.3403H340.568V51.1501H310.736V8.89551Z" fill="#050000"/>
<path d="M349.923 8.89551H365.798L372.776 35.0458H373.006L379.601 8.89551H395.552L380.368 51.1501H364.801L349.923 8.89551Z" fill="#050000"/>
<path d="M412.5 8.89551H427.454L443.788 51.1501H428.451L426.227 44.9384H412.883L410.813 51.1501H395.859L412.5 8.89551ZM419.785 23.6961L416.334 34.1256H423.159L419.785 23.6961Z" fill="#050000"/>
<path d="M442.178 10.1992V15.2605H440.721V10.1992H438.957V8.89551H444.018V10.1992H442.178Z" fill="#050000"/>
<path d="M451.074 15.2605L451.15 10.736H451.074L449.463 15.2605H448.389L446.779 10.736V15.2605H445.399V8.89551H447.546L449.003 12.9599L450.383 8.89551H452.531V15.2605H451.074Z" fill="#050000"/>
<path d="M130.061 66.1041V80.8281H126.917V78.6808C125.767 80.2146 124.08 81.2115 121.779 81.2115C117.791 81.2115 114.494 77.8373 114.494 73.4661C114.494 69.0949 117.791 65.7207 121.779 65.7207C124.08 65.7207 125.767 66.641 126.917 68.1747V66.1041H130.061ZM126.917 73.4661C126.917 70.7054 124.923 68.7115 122.316 68.7115C119.709 68.7115 117.715 70.7054 117.715 73.4661C117.715 76.2268 119.709 78.2207 122.316 78.2207C124.923 78.2207 126.917 76.2268 126.917 73.4661Z" fill="#050000"/>
<path d="M149.693 66.1041V80.1379C149.693 84.8925 146.012 87.1164 142.178 87.1164C138.957 87.1164 136.503 85.8894 135.276 83.5121L137.96 81.9017C138.574 83.2054 139.724 84.2023 142.255 84.2023C145.015 84.2023 146.626 82.6686 146.626 80.1379V78.3741C145.552 79.9845 143.788 80.9048 141.564 80.9048C137.423 80.9048 134.202 77.5305 134.202 73.3127C134.202 69.0949 137.423 65.7207 141.564 65.7207C143.788 65.7207 145.552 66.7176 146.626 68.2514V66.1041H149.693ZM146.626 73.3127C146.626 70.6287 144.632 68.7115 141.948 68.7115C139.264 68.7115 137.27 70.7054 137.27 73.3127C137.27 75.9968 139.264 77.9139 141.948 77.9139C144.632 77.9906 146.626 75.9968 146.626 73.3127Z" fill="#050000"/>
<path d="M162.27 65.7979V69.2488C160.199 69.0954 157.745 70.0923 157.745 73.3899V80.8285H154.601V66.1046H157.745V68.5586C158.589 66.5647 160.43 65.7979 162.27 65.7979Z" fill="#050000"/>
<path d="M165.337 61.8869C165.337 60.7366 166.258 59.8164 167.331 59.8164C168.482 59.8164 169.325 60.7366 169.325 61.8869C169.325 62.9606 168.405 63.9575 167.331 63.9575C166.258 63.8808 165.337 62.9606 165.337 61.8869ZM165.721 66.1047H168.865V80.8287H165.721V66.1047Z" fill="#050000"/>
<path d="M184.356 76.6875C184.356 79.6016 181.825 81.212 178.681 81.212C175.767 81.212 173.62 79.9083 172.699 77.7611L175.46 76.1507C175.92 77.4544 177.071 78.2979 178.681 78.2979C180.061 78.2979 181.135 77.8378 181.135 76.6108C181.135 74.0034 173.236 75.4605 173.236 70.1691C173.236 67.4084 175.614 65.6445 178.604 65.6445C180.982 65.6445 182.976 66.7948 184.049 68.712L181.365 70.2458C180.828 69.0955 179.831 68.5587 178.604 68.5587C177.454 68.5587 176.457 69.0955 176.457 70.0924C176.534 72.8531 184.356 71.2427 184.356 76.6875Z" fill="#050000"/>
<path d="M187.116 73.4661C187.116 69.0949 190.414 65.7207 194.862 65.7207C197.699 65.7207 200.23 67.2544 201.38 69.5551L198.696 71.1655C198.083 69.7851 196.626 68.8649 194.862 68.8649C192.254 68.8649 190.337 70.8587 190.337 73.4661C190.337 76.1502 192.331 78.0673 194.862 78.0673C196.626 78.0673 198.083 77.1471 198.773 75.7667L201.534 77.3005C200.307 79.6011 197.776 81.1348 194.939 81.1348C190.414 81.2115 187.116 77.8373 187.116 73.4661Z" fill="#050000"/>
<path d="M204.448 61.8869C204.448 60.7366 205.368 59.8164 206.442 59.8164C207.592 59.8164 208.435 60.7366 208.435 61.8869C208.435 62.9606 207.515 63.9575 206.442 63.9575C205.368 63.8808 204.448 62.9606 204.448 61.8869ZM204.908 66.1047H208.052V80.8287H204.908V66.1047Z" fill="#050000"/>
<path d="M220.092 78.2974C221.856 78.2974 223.159 77.5305 223.85 76.4569L226.457 77.9906C225.077 79.9845 222.929 81.2115 220.015 81.2115C215.184 81.2115 212.04 77.914 212.04 73.4661C212.04 69.0949 215.184 65.7207 219.785 65.7207C224.156 65.7207 227.147 69.2483 227.147 73.5428C227.147 74.0029 227.07 74.463 226.994 74.8465H215.337C215.874 77.1471 217.715 78.2974 220.092 78.2974ZM223.926 72.2391C223.466 69.7084 221.626 68.6348 219.709 68.6348C217.331 68.6348 215.721 70.0152 215.261 72.2391H223.926Z" fill="#050000"/>
<path d="M244.402 71.7795V80.8286H241.258V72.0863C241.258 69.8623 239.954 68.6353 237.96 68.6353C235.89 68.6353 234.203 69.8623 234.203 72.8531V80.7519H231.058V66.028H234.203V67.9451C235.199 66.4114 236.733 65.6445 238.727 65.6445C242.101 65.7212 244.402 67.9451 244.402 71.7795Z" fill="#050000"/>
<path d="M248.159 73.4661C248.159 69.0949 251.457 65.7207 255.905 65.7207C258.742 65.7207 261.273 67.2544 262.423 69.5551L259.662 71.1655C259.049 69.7851 257.592 68.8649 255.828 68.8649C253.221 68.8649 251.304 70.8587 251.304 73.4661C251.304 76.1502 253.297 78.0673 255.828 78.0673C257.592 78.0673 259.049 77.1471 259.739 75.7667L262.423 77.3005C261.196 79.6011 258.742 81.1348 255.828 81.1348C251.457 81.2115 248.159 77.8373 248.159 73.4661Z" fill="#050000"/>
<path d="M272.853 78.2974C274.616 78.2974 275.92 77.5305 276.61 76.4569L279.218 77.9906C277.837 79.9845 275.69 81.2115 272.776 81.2115C267.945 81.2115 264.801 77.914 264.801 73.4661C264.801 69.0949 267.945 65.7207 272.546 65.7207C276.917 65.7207 279.908 69.2483 279.908 73.5428C279.908 74.0029 279.831 74.463 279.755 74.8465H268.098C268.712 77.1471 270.552 78.2974 272.853 78.2974ZM276.764 72.2391C276.304 69.7084 274.463 68.6348 272.546 68.6348C270.169 68.6348 268.558 70.0152 268.098 72.2391H276.764Z" fill="#050000"/>
<path d="M7.43882 131.212H14.3407L10.8897 121.626L7.43882 131.212ZM16.7946 137.96L15.2609 133.589H6.59526L5.06152 137.96H2.30078L9.50937 118.559H12.4235L19.6321 137.96H16.7946Z" fill="#050000"/>
</svg>
