<svg width="500" height="146" viewBox="0 0 500 146" fill="none" xmlns="http://www.w3.org/2000/svg">
<path d="M398.056 36.1412C402.692 36.9719 407.266 37.8992 411.724 38.8699V124.01C415.819 123.054 423.435 121.064 428.511 119.562V42.893C433.379 44.1535 437.977 45.4188 442.174 46.6262V30.2057C428.922 25.579 414.689 21.8119 398.056 18.3346V36.1412ZM4.11548 72.531C4.11548 85.1217 16.3343 96.9155 37.6568 107.029V38.3087C16.3343 48.3446 4.11548 60.0563 4.11548 72.531ZM495.885 72.5286C495.885 85.1434 483.646 96.9179 462.319 107.046V38.287C483.646 48.347 495.885 60.0587 495.885 72.5286ZM101.707 100.623C101.707 105.892 98.5441 107.65 94.7577 107.65C91.8117 107.65 87.2622 106.578 83.5531 105.564V39.8528C87.2622 38.8723 91.8117 37.8002 94.7577 37.8002C98.5441 37.8002 101.707 39.5582 101.707 44.8272V100.623ZM97.2353 20.6214C91.2805 20.6214 82.6935 22.3794 67.1519 27.18V118.27C80.8196 122.409 91.2805 124.829 97.2353 124.829C110.961 124.829 118.693 116.435 118.693 102.966V42.4849C118.693 29.0152 110.961 20.6214 97.2353 20.6214ZM234.849 67.7483C234.849 73.4858 232.84 76.3981 225.224 76.4174L218.646 76.4355V23.7837C221.572 23.629 223.137 23.5906 224.895 23.5906C233.13 23.5906 234.849 26.7105 234.849 32.5688V67.7483ZM225.987 4.96397C222.727 4.96397 210.836 5.37447 199.902 6.01683V139.453C203.611 139.651 213.377 140.158 218.646 140.293V94.9822L225.987 94.9641C245.624 94.9062 253.786 86.1019 253.786 69.1549V29.8373C253.786 13.2429 244.609 4.96397 225.987 4.96397ZM372.775 78.5449L351.983 10.704C346.323 9.96511 339.489 9.20203 334.22 8.71426V136.76C337.924 136.408 347.376 135.336 352.259 134.713L350.771 59.2557L372.775 131.762C377.459 131.023 384.293 129.83 388.785 128.97V16.4657C384.095 15.5481 375.585 14.1041 371.485 13.4762L372.775 78.5449ZM166.521 111.303C166.521 116.572 164.705 119.914 158.127 119.113C151.665 118.33 149.927 115.597 149.927 109.352V10.2158C145.633 10.6842 136.066 12.0124 131.966 12.6016V112.863C131.966 128.873 139.736 135.104 158.127 137.209C174.954 139.141 185.26 130.631 185.26 112.863V6.9365C181.749 7.13463 170.23 8.11008 166.521 8.50128V111.303ZM301.811 114.349C301.811 119.618 300.053 122.352 293.417 122.55C286.583 122.743 284.729 119.816 284.729 114.349V31.1645C284.729 25.6974 286.583 22.6741 293.417 22.8673C300.053 23.0604 301.811 25.8954 301.811 31.1645V114.349ZM293.417 4.22516C276.04 3.38481 265.695 11.0542 265.695 28.6241V115.909C265.695 134.459 275.065 142.09 293.417 141.288C311.378 140.511 320.748 133.677 320.748 113.958V30.6381C320.748 11.8366 312.277 5.1428 293.417 4.22516Z" fill="#E51E25"/>
<path d="M485.911 113.908H487.94L490.929 118.603L493.919 113.908H495.88V123.814H494.049V116.772L490.992 121.5H490.799L487.747 116.772V123.814H485.912L485.911 113.908ZM478.836 115.642H475.779V113.908H483.786V115.642H480.734V123.814H478.836V115.642Z" fill="#E51E25"/>
</svg>
