<svg width="500" height="150" viewBox="0 0 500 150" fill="none" xmlns="http://www.w3.org/2000/svg">
<g clip-path="url(#clip0_8_16100)">
<mask id="mask0_8_16100" style="mask-type:luminance" maskUnits="userSpaceOnUse" x="0" y="0" width="174" height="150">
<path d="M0.265259 0.265625H173.333V149.326H0.265259V0.265625Z" fill="white"/>
</mask>
<g mask="url(#mask0_8_16100)">
<path d="M108.926 101.998V149.314H55.0562V101.998H24.9688C5.80523 101.998 0.280884 91.2301 0.280884 77.9654C0.280884 64.7007 5.80523 53.9641 24.9688 53.9641H55.7116V0.28125H169.07V41.1364H108.926V53.9641H135.799C154.931 53.9641 160.612 64.7007 160.612 77.9654C160.612 91.2301 154.931 101.998 135.799 101.998H108.926Z" fill="#EE2E30"/>
</g>
<path d="M499.875 149.314H445.537C415.949 149.314 384.551 128.839 384.488 73.4398C384.457 28.0902 413.015 0.281211 445.537 0.281211H499.875V48.5646H460.237C453.152 48.5646 436.423 51.3424 436.423 74.4073C436.423 97.4098 453.152 100.843 460.237 100.843H499.875V149.314ZM251.155 149.314L227.466 41.9479V149.314H179.963V0.25H230.243C260.487 0.25 263.327 15.4185 267.416 33.677L277.341 82.054L287.266 33.677C291.386 15.4185 294.226 0.25 324.438 0.25H374.719V149.314H327.247V41.9479L303.558 149.314H251.155Z" fill="#EE2E30"/>
</g>
<defs>
<clipPath id="clip0_8_16100">
<rect width="500" height="149.501" fill="white"/>
</clipPath>
</defs>
</svg>
