<svg width="500" height="59" viewBox="0 0 500 59" fill="none" xmlns="http://www.w3.org/2000/svg">
<g clip-path="url(#clip0_8_16099)">
<path d="M113.096 16.4414V23.5693H102.262V28.9866H112.716V35.6393H102.167V48.4695H90.6672V16.4414H113.096Z" fill="black"/>
<path d="M114.807 22.7139H131.534C134.955 23.094 136.761 25.1849 136.761 28.7964C136.761 30.6021 136.381 31.9326 135.716 32.788C134.955 33.7384 133.815 34.4037 132.104 34.7838C132.009 34.7838 132.009 34.8789 132.009 34.9739C132.009 35.0689 132.104 35.0689 132.199 35.164C133.435 35.164 134.48 35.6392 135.336 36.4945C136.191 37.3499 136.666 38.3953 136.761 39.5358V48.3744H127.542V39.5358C127.542 39.0606 127.352 38.6804 127.067 38.3003C126.782 37.9201 126.402 37.73 125.927 37.73H124.311V48.2793H114.997V22.7139H114.807ZM124.121 27.2757V32.5979H125.547C126.307 32.5979 126.877 32.3128 127.162 31.7426C127.352 31.4575 127.447 30.8872 127.447 30.0319C127.447 29.2716 127.257 28.5112 126.877 27.846C126.687 27.5609 126.307 27.3708 125.832 27.2757H124.121Z" fill="black"/>
<path d="M157.194 22.8096V28.6069H148.546V32.8837H156.719V38.1108H148.546V42.5777H157.194V48.4701H139.327V22.8096H157.194Z" fill="black"/>
<path d="M177.818 22.8096V28.6069H169.169V32.8837H177.343V38.1108H169.169V42.5777H177.818V48.4701H159.951V22.8096H177.818Z" fill="black"/>
<path d="M180.954 22.8096H196.16C200.532 22.8096 202.813 25.4707 202.813 30.6978C202.813 36.8753 200.152 39.9166 194.64 39.9166H190.268V48.4701H180.954V22.8096ZM190.268 34.4994H191.503C193.024 34.1192 193.689 32.9787 193.784 31.268C193.784 29.4623 193.214 28.3218 191.979 28.1318H190.268V34.4994Z" fill="black"/>
<path d="M213.933 22.5244H216.024C220.015 22.5244 222.771 23.5698 224.292 25.5657C225.432 27.0863 226.003 29.5573 226.003 32.8837V38.491C226.003 42.1024 225.242 44.6685 223.627 46.2842C222.011 47.8998 219.445 48.7552 216.024 48.7552H213.933C210.511 48.7552 207.945 47.8998 206.33 46.2842C204.714 44.5735 203.859 42.0074 203.859 38.491V32.8837C203.859 29.5573 204.429 27.0863 205.569 25.5657C207.185 23.4748 209.941 22.5244 213.933 22.5244ZM214.788 27.5615C213.838 27.5615 213.363 28.2268 213.363 29.6523V41.6272C213.363 42.9578 213.838 43.6231 214.883 43.6231H215.263C216.214 43.6231 216.689 42.9578 216.689 41.6272V29.6523C216.689 28.2268 216.214 27.5615 215.263 27.5615H214.788Z" fill="black"/>
<path d="M227.523 22.7139H244.25C247.671 23.094 249.477 25.1849 249.477 28.7964C249.477 30.6021 249.097 31.9326 248.432 32.788C247.671 33.7384 246.531 34.4037 244.82 34.7838C244.725 34.7838 244.725 34.8789 244.725 34.9739C244.725 35.0689 244.82 35.0689 244.915 35.164C246.151 35.164 247.196 35.6392 248.052 36.4945C248.907 37.3499 249.382 38.3953 249.477 39.5358V48.3744H240.258V39.5358C240.258 39.0606 240.068 38.6804 239.783 38.3003C239.498 37.9201 239.118 37.73 238.643 37.73H237.027V48.2793H227.713V22.7139H227.523ZM236.837 27.2757V32.5979H238.263C239.023 32.5979 239.593 32.3128 239.878 31.7426C240.068 31.4575 240.163 30.8872 240.163 30.0319C240.163 29.2716 239.973 28.5112 239.593 27.846C239.403 27.5609 239.023 27.3708 238.548 27.2757H236.837Z" fill="black"/>
<path d="M273.047 22.8096V28.5119H266.679V48.3751H257.461V28.5119H251.378V22.8096H273.047Z" fill="black"/>
<path d="M284.166 32.7881H273.997V38.2053H284.166V32.7881Z" fill="black"/>
<path d="M328.455 16.4414V48.4695H318.285L318.571 28.7965L313.819 48.4695H305.93L301.083 29.0816L301.464 48.4695H291.294V16.4414H306.691L309.922 32.7881L313.058 16.4414H328.455Z" fill="black"/>
<path d="M343.376 29.6518C343.186 28.7014 342.616 28.1312 341.665 28.2262C340.715 28.2262 340.145 28.7964 340.049 29.7468V42.1019C340.145 43.1473 340.81 43.6225 341.76 43.6225C342.616 43.6225 343.091 43.1473 343.281 42.387V39.916H352.405C352.31 41.3416 352.31 42.387 352.215 42.8622C352.024 43.8126 351.644 44.5729 351.169 45.3332C350.219 46.6638 348.698 47.6142 346.892 48.1844C345.467 48.5645 343.566 48.8497 341.095 48.8497C334.632 48.8497 331.306 46.2836 331.021 41.2465C330.926 39.916 330.926 38.2053 330.926 36.3045C330.926 34.5938 330.926 33.4534 330.926 32.693C330.926 31.7426 330.926 31.3625 330.926 31.5526C330.926 26.0403 334.347 23.2842 341.19 23.2842C343.756 23.2842 345.657 23.4743 346.987 23.8544C350.504 24.8998 352.31 27.3709 352.31 31.4575V32.2178H343.281V29.6518H343.376Z" fill="black"/>
<path d="M392.226 16.4414V48.4695H382.057L382.342 28.7965L377.59 48.4695H369.702L364.855 29.0816L365.235 48.4695H355.066V16.4414H370.462L373.693 32.7881L376.83 16.4414H392.226Z" fill="black"/>
<path d="M404.961 22.5244H406.957C410.949 22.5244 413.705 23.5698 415.225 25.5657C416.366 27.0863 416.936 29.5573 416.936 32.8837V38.491C416.936 42.1024 416.176 44.6685 414.56 46.2842C412.944 47.8998 410.378 48.7552 406.957 48.7552H404.961C401.54 48.7552 398.974 47.8998 397.358 46.2842C395.742 44.5735 394.887 42.0074 394.887 38.491V32.8837C394.887 29.5573 395.457 27.0863 396.598 25.5657C398.213 23.4748 400.969 22.5244 404.961 22.5244ZM405.721 27.5615C404.771 27.5615 404.201 28.2268 404.201 29.6523V41.6272C404.201 42.9578 404.676 43.6231 405.721 43.6231H406.102C407.052 43.6231 407.527 42.9578 407.527 41.6272V29.6523C407.527 28.2268 407.052 27.5615 406.102 27.5615H405.721Z" fill="black"/>
<path d="M419.597 16.4414H440.506C444.782 16.9166 446.968 19.4827 446.968 24.0445C446.968 26.2304 446.493 27.9411 445.638 29.0816C444.782 30.2221 443.262 31.0774 441.171 31.5526C441.076 31.5526 440.981 31.6476 440.981 31.7427C440.981 31.8377 441.076 31.9328 441.171 31.9328C442.501 32.0278 443.737 32.503 444.782 33.3583C446.208 34.5938 446.873 35.9244 446.873 37.445V48.4695H435.278V37.445C435.278 36.8748 435.088 36.3996 434.708 35.9244C434.328 35.4492 433.853 35.2591 433.283 35.2591H431.192V48.4695H419.502V16.4414H419.597ZM431.192 22.3338V28.9866H432.997C433.948 28.9866 434.613 28.6064 434.993 27.9411C435.183 27.561 435.373 26.8007 435.373 25.7552C435.469 24.8048 435.183 23.8544 434.613 22.9991C434.328 22.6189 433.948 22.4289 433.283 22.3338H431.192Z" fill="black"/>
<path d="M454.761 22.8096H467.782L474.244 48.4701H464.741L463.79 44.0983H458.373L457.518 48.4701H448.394L454.761 22.8096ZM459.323 38.6811H462.745L460.939 29.0821L459.323 38.6811Z" fill="black"/>
<path d="M500 48.4701H487.835L483.558 35.1646L483.843 48.4701H475.67V22.8096H486.599L492.017 36.115L491.827 22.8096H500V48.4701Z" fill="black"/>
<path d="M78.6922 0H0.0949707V58.544H78.6922V0Z" fill="black"/>
<path d="M43.6229 41.9121H29.272V49.1351H43.6229V41.9121Z" fill="#00AEEF"/>
<path d="M57.6886 27.5615L53.697 37.8257V37.7307V37.8257L49.8004 27.5615H29.272V34.6894H43.5278V34.7845V34.5944L49.1351 48.9453H58.3539L63.9612 34.5944V48.9453H78.5972V27.5615H57.6886Z" fill="#00AEEF"/>
<path d="M29.272 27.5609V20.3379H0V49.0397H14.9211V41.9117H29.272V34.6888H14.9211V27.5609H29.272Z" fill="#00AEEF"/>
</g>
<defs>
<clipPath id="clip0_8_16099">
<rect width="500" height="58.544" fill="white"/>
</clipPath>
</defs>
</svg>
