<svg width="500" height="105" viewBox="0 0 500 105" fill="none" xmlns="http://www.w3.org/2000/svg">
<g clip-path="url(#clip0_8_16097)">
<path d="M34.1435 18.9334C29.0741 24.7668 21.7245 28.1117 13.9931 28.1117H0V1.42188H49.3634L34.1435 18.9334ZM98.7384 1.42188H49.3634V28.1117H63.3565C71.088 28.1117 78.4375 24.7668 83.5069 18.9334L98.7384 1.42188ZM132.882 10.6001C127.812 4.76678 120.463 1.42188 112.731 1.42188H98.7384V28.1117H148.102L132.882 10.6001ZM49.3634 33.8409H0V60.5307H13.9931C21.7245 60.5307 29.0741 57.1858 34.1435 51.3524L49.3634 33.8409ZM98.7269 33.8409H49.3634V60.5307H63.3565C71.088 60.5307 78.4375 57.1858 83.5069 51.3524L98.7269 33.8409ZM148.09 33.8409H98.7269V60.5307H112.72C120.451 60.5307 127.801 57.1858 132.87 51.3524L148.09 33.8409ZM49.3634 66.2483H0V92.9381H13.9931C21.7245 92.9381 29.0741 89.5932 34.1435 83.7598L49.3634 66.2483ZM98.7269 66.2483H49.3634V92.9381H63.3565C71.088 92.9381 78.4375 89.5932 83.5069 83.7598L98.7269 66.2483Z" fill="#006963"/>
<path d="M389.166 1.53809H381.238V9.03809H389.166V1.53809Z" fill="#15191E"/>
<path d="M234.711 71.5958C234.711 65.7046 230.498 61.9199 221.864 61.9199C213.229 61.9199 208.565 66.8736 208.333 72.6722H215.695C215.695 69.4083 217.384 67.325 221.783 67.325C225.776 67.325 227.477 68.4824 227.35 71.1329C227.222 73.8875 223.345 74.2232 216.713 75.369C209.514 76.619 207.083 79.7903 207.083 84.5588C207.083 89.9176 211.111 93.2509 217.13 93.2509C223.148 93.2509 226.192 90.6121 227.512 86.7H227.859V87.7533C227.859 90.5079 230.359 92.6607 233.114 92.6607H237.871V86.7695H234.711V71.5843V71.5958ZM227.35 78.4593C227.35 84.0727 224.526 87.8806 219.259 87.8806C216.621 87.8806 214.734 86.538 214.734 83.957C214.734 81.3759 216.111 80.2764 219.433 79.4546L222.581 78.6908C224.364 78.2857 225.857 78.0426 227.35 76.8736V78.4477V78.4593Z" fill="#15191E"/>
<path d="M181.887 1.53809H173.6V42.3598H181.887V1.53809Z" fill="#15191E"/>
<path d="M255.092 42.9617C263.102 42.9617 268.565 38.9224 269.791 32.0358H262.06C261.169 35.0914 258.657 36.9548 255.092 36.9548C251.007 36.9548 248.414 33.9802 247.94 28.8761H269.896C269.93 28.3553 269.954 27.8228 269.954 27.2904C269.954 20.6353 267.268 14.9409 261.319 12.6724C261.099 12.5914 258.669 11.6191 255.116 11.6191C245.741 11.6191 240.22 17.383 240.22 27.2904C240.22 37.1978 245.741 42.9617 255.116 42.9617H255.092ZM255.092 17.5566C259.12 17.5566 261.331 20.3576 262.048 24.2349H248.136C248.854 20.3576 251.065 17.5566 255.092 17.5566Z" fill="#15191E"/>
<path d="M486.146 21.2833C486.146 15.3921 481.933 11.6074 473.299 11.6074C464.664 11.6074 460 16.5611 459.769 22.3597H467.13C467.13 19.0958 468.819 17.0125 473.218 17.0125C477.211 17.0125 478.912 18.1699 478.785 20.8204C478.657 23.575 474.78 23.9107 468.148 25.0565C460.949 26.3065 458.519 29.4778 458.519 34.2463C458.519 39.6051 462.546 42.9384 468.565 42.9384C474.583 42.9384 477.627 40.2996 478.947 36.3875H479.294V37.4408C479.294 40.1954 481.794 42.3482 484.549 42.3482H489.306V36.457H486.146V21.2718V21.2833ZM478.785 28.1468C478.785 33.7602 475.961 37.5681 470.694 37.5681C468.056 37.5681 466.169 36.2255 466.169 33.6445C466.169 31.0634 467.546 29.9639 470.868 29.1421L474.016 28.3783C475.799 27.9732 477.292 27.7301 478.785 26.5611V28.1352V28.1468Z" fill="#15191E"/>
<path d="M195.741 25.4732C195.741 23.1005 196.215 21.2371 197.581 19.8945C198.947 18.5519 200.614 17.8806 202.57 17.8806C206.528 17.8806 208.299 19.7903 208.299 23.6097V42.3713H216.227V22.3713C216.227 18.8991 215.243 16.2255 213.264 14.3389C211.354 12.5102 208.75 11.6074 205.475 11.6074C201.007 11.6074 196.655 14.3852 195.752 19.1884H195.405L195.197 12.1977H187.824V42.3482H195.752V25.4616L195.741 25.4732Z" fill="#15191E"/>
<path d="M190.104 51.8963H173.588V92.7181H181.875V79.7551H190.046C200.37 79.7551 206.435 74.5931 206.435 65.82C206.435 57.0468 200.37 51.8848 190.104 51.8848V51.8963ZM190.463 73.3315H181.875V58.32H190.463C195.15 58.32 197.847 61.144 197.847 65.82C197.847 70.4959 195.081 73.3315 190.463 73.3315Z" fill="#15191E"/>
<path d="M500 1.53809H492.072V42.3598H500V1.53809Z" fill="#15191E"/>
<path d="M230.278 0.264648H229.664L224.317 6.4452C223.067 7.89196 222.419 9.73224 222.419 11.642V12.2091H218.079V17.6721H222.442V32.8457C222.442 38.9684 226.192 42.9498 232.616 42.9498C234.896 42.9498 237.361 42.4059 239.155 41.5609V35.6813C238.079 36.2832 236.574 36.642 235.127 36.642C232.13 36.642 230.289 35.0216 230.289 32.1975V17.6721H239.155V12.2091H230.278V0.264648Z" fill="#15191E"/>
<path d="M318.449 64.4197L315.069 68.3086H314.722L314.537 62.5794H307.361V92.7299H315.278L315.081 69.084H326.643V61.9775H323.819C321.759 61.9775 319.803 62.8687 318.46 64.4197H318.449Z" fill="#15191E"/>
<path d="M354.34 21.2833C354.34 15.3921 350.127 11.6074 341.493 11.6074C332.859 11.6074 328.194 16.5611 327.963 22.3597H335.324C335.324 19.0958 337.014 17.0125 341.412 17.0125C345.405 17.0125 347.106 18.1699 346.979 20.8204C346.852 23.575 342.974 23.9107 336.343 25.0565C329.143 26.3065 326.713 29.4778 326.713 34.2463C326.713 39.6051 330.741 42.9384 336.759 42.9384C342.778 42.9384 345.822 40.2996 347.141 36.3875H347.488V37.4408C347.488 40.1954 349.988 42.3482 352.743 42.3482H357.5V36.457H354.34V21.2718V21.2833ZM346.979 28.1468C346.979 33.7602 344.155 37.5681 338.889 37.5681C336.25 37.5681 334.363 36.2255 334.363 33.6445C334.363 31.0634 335.741 29.9639 339.062 29.1421L342.211 28.3783C343.993 27.9732 345.486 27.7301 346.979 26.5611V28.1352V28.1468Z" fill="#15191E"/>
<path d="M408.136 11.6074C398.287 11.6074 392.396 17.4292 392.396 27.2787C392.396 37.1283 398.287 42.95 408.136 42.95C417.986 42.95 423.808 37.1283 423.808 27.2787C423.808 17.4292 417.986 11.6074 408.136 11.6074ZM408.136 36.6537C403.333 36.6537 400.509 33.1699 400.509 27.2903C400.509 21.4107 403.333 17.8574 408.136 17.8574C412.939 17.8574 415.764 21.3991 415.764 27.2903C415.764 33.1815 412.939 36.6537 408.136 36.6537Z" fill="#15191E"/>
<path d="M368.588 0.264648H367.974L362.627 6.4452C361.377 7.89196 360.729 9.73224 360.729 11.642V12.2091H356.389V17.6721H360.752V32.8457C360.752 38.9684 364.502 42.9498 370.926 42.9498C373.206 42.9498 375.671 42.4059 377.465 41.5609V35.6813C376.389 36.2832 374.884 36.642 373.437 36.642C370.44 36.642 368.599 35.0216 368.599 32.1975V17.6721H377.465V12.2091H368.588V0.264648Z" fill="#15191E"/>
<path d="M389.166 12.209H381.238V42.3594H389.166V12.209Z" fill="#15191E"/>
<path d="M444.745 11.6074C440.278 11.6074 435.926 14.3852 435.023 19.1884H434.676L434.467 12.1977H427.095V42.3482H435.023V25.4616C435.023 23.0889 435.498 21.2255 436.863 19.8829C438.229 18.5403 439.896 17.869 441.852 17.869C445.81 17.869 447.581 19.7787 447.581 23.5982V42.3597H455.509V22.3713C455.509 18.8991 454.525 16.2255 452.546 14.3389C450.636 12.5102 448.032 11.6074 444.757 11.6074H444.745Z" fill="#15191E"/>
<path d="M280.868 18.7139H292.431V11.6074H289.606C287.546 11.6074 285.59 12.4986 284.248 14.0496L280.868 17.9384H280.521L280.336 12.2093H273.16V42.3597H281.076L280.88 18.7139H280.868Z" fill="#15191E"/>
<path d="M257.974 61.827C253.646 61.827 250.312 64.1881 248.854 67.6719H248.507L248.333 62.533H240.926V104.13H248.842V87.2552H249.004C250.555 90.959 254.085 93.3779 257.974 93.3779C262.187 93.3779 265.544 91.9312 268.044 89.0492C270.509 86.1673 271.736 82.3478 271.736 77.6025C271.736 72.8571 270.509 68.9798 268.044 66.0863C265.544 63.239 262.187 61.8154 257.974 61.8154V61.827ZM261.69 84.6742C260.312 86.4219 258.437 87.3015 256.065 87.3015C253.692 87.3015 251.805 86.4682 250.498 84.79C249.12 83.158 248.437 80.7622 248.437 77.6025C248.437 74.4427 249.109 72.0932 250.44 70.415C251.782 68.7367 253.646 67.9034 256.065 67.9034C258.484 67.9034 260.393 68.7136 261.713 70.3339C263.032 71.9543 263.692 74.2923 263.692 77.371C263.692 80.4497 263.021 82.9613 261.69 84.6742Z" fill="#15191E"/>
<path d="M295.359 63.0308C295.139 62.9498 292.708 61.9775 289.155 61.9775C279.78 61.9775 274.259 67.7414 274.259 77.6488C274.259 87.5562 279.78 93.3201 289.155 93.3201C297.164 93.3201 302.627 89.2808 303.854 82.3942H296.123C295.231 85.4498 292.72 87.3132 289.155 87.3132C285.069 87.3132 282.477 84.3387 282.002 79.2345H303.958C303.993 78.7137 304.016 78.1812 304.016 77.6488C304.016 70.9937 301.331 65.2993 295.382 63.0308H295.359ZM282.257 74.5933C282.975 70.716 285.185 67.915 289.213 67.915C293.241 67.915 295.451 70.716 296.169 74.5933H282.257Z" fill="#15191E"/>
<path d="M315.833 23.5982V42.3597H323.762V22.3713C323.762 18.8991 322.778 16.2255 320.799 14.3389C318.889 12.5102 316.285 11.6074 313.009 11.6074C308.542 11.6074 304.19 14.3852 303.287 19.1884H302.94L302.732 12.1977H295.359V42.3482H303.287V25.4616C303.287 23.0889 303.762 21.2255 305.127 19.8829C306.493 18.5403 308.16 17.869 310.116 17.869C314.074 17.869 315.845 19.7787 315.845 23.5982H315.833Z" fill="#15191E"/>
<path d="M87.9629 87.7303H92.0948V88.4016H90.3819V92.9965H89.6527V88.4016H87.9629V87.7303ZM98.7499 87.7303V92.985H98.0208V88.2859L97.5925 89.5475L96.2036 92.985H95.486L94.0972 89.5475L93.6689 88.2512V92.9734H92.9513V87.7188H94.0856L95.486 91.2141L95.8333 92.2211L96.1805 91.2141L97.5809 87.7188H98.7152L98.7499 87.7303Z" fill="#006963"/>
</g>
<defs>
<clipPath id="clip0_8_16097">
<rect width="500" height="104.396" fill="white"/>
</clipPath>
</defs>
</svg>
