<svg width="500" height="171" viewBox="0 0 500 171" fill="none" xmlns="http://www.w3.org/2000/svg">
<path fill-rule="evenodd" clip-rule="evenodd" d="M200.262 66.7086C190.879 64.2193 182.166 62.4959 174.076 62.4959C165.555 62.4959 158.805 66.1342 158.805 71.783C158.805 77.0967 163.831 80.2563 172.783 80.2563C181.975 80.2563 191.31 74.5596 200.262 66.7086ZM172.688 85.1392C155.933 85.1392 145.401 80.1605 145.401 72.8841C145.401 62.496 162.012 57.0865 181.544 57.0865C189.634 57.0865 198.442 58.0917 207.73 59.6236C211.368 55.9375 214.958 52.0121 218.405 48.1824C225.298 40.5229 235.447 29.5125 243.92 23.002C260.005 10.699 280.542 1.79492 302.228 1.79492C329.179 1.79492 350.769 10.8905 350.769 24.486C350.769 32.2891 343.11 39.0389 329.419 39.5655L328.988 37.0762C331.86 35.7358 335.403 33.3422 335.403 25.97C335.403 16.3 324.536 6.67781 304.573 6.67781C285.377 6.67781 274.414 15.6777 262.064 28.5072C255.601 35.2092 248.66 43.5388 242.341 50.0494C237.601 54.8844 232.527 59.3364 227.261 63.3098C248.899 67.6661 271.782 72.7404 292.941 72.7404C314.722 72.7404 324.632 67.0916 329.706 62.4002L331.094 64.4108C325.637 75.6127 309.121 85.1392 288.01 85.1392C260.963 85.1392 236.835 77.5276 215.676 71.1607C200.884 80.0169 185.565 85.1392 172.688 85.1392ZM60.6205 149.909H45.541V167.717H37.4986V126.596H45.541V143.542H60.6205V126.596H68.6629V167.717H60.6205V149.909ZM21.0787 167.717H13.0842V133.537H2.69604V126.596H31.4189V133.537H21.0787V167.717ZM79.5297 126.596H104.04V133.011H87.4764V143.207H101.694V149.574H87.4764V161.255H104.375V167.717H79.5297V126.596ZM206.628 167.717V138.468C206.628 132.532 204.522 125.686 192.076 125.782C185.469 125.83 179.916 127.218 176.23 128.989V167.717H184.225V133.824C185.996 133.059 188.725 132.436 191.549 132.484C197.964 132.628 198.586 135.979 198.586 139.856V167.717H206.628ZM475.139 152.111V167.717H467.193V128.942L467.719 128.654C471.166 126.883 476.097 125.782 480.597 125.782C491.033 125.782 497.304 130.809 497.304 139.138C497.304 147.181 490.602 152.399 479.592 152.399C478.06 152.399 476.432 152.255 475.139 152.111ZM475.139 133.059V145.888C476.336 146.032 477.916 146.127 479.304 146.127C486.294 146.127 489.262 143.207 489.262 139.138C489.262 134.686 486.485 132.149 480.597 132.149C478.73 132.149 476.528 132.58 475.139 133.059ZM425.832 154.074V126.596H433.874V154.17C433.874 158.765 436.842 161.542 441.486 161.542C446.129 161.542 449.145 158.765 449.145 154.17V126.596H457.188V154.074C457.188 162.835 450.821 168.531 441.486 168.531C432.151 168.531 425.832 162.835 425.832 154.074ZM301.797 147.181C301.797 134.59 309.169 125.782 322.047 125.782C326.546 125.782 330.759 126.835 333.679 128.702L334.445 129.181L331.812 135.069L330.807 134.447C328.892 133.25 325.876 132.293 322.477 132.293C314.339 132.293 309.839 138.037 309.839 147.085C309.839 156.133 314.387 162.069 321.711 162.069C324.105 162.069 325.972 161.686 327.217 161.207V150.436H319.605V144.308H334.876V165.324L334.397 165.611C331.382 167.478 326.882 168.531 321.903 168.531C309.169 168.531 301.797 159.914 301.797 147.181ZM355.509 147.42C361.014 147.42 366.376 144.978 366.376 139.33C366.376 135.5 364.03 131.91 358.381 131.91C356.227 131.91 354.12 132.245 352.397 132.915V167.717H344.546V128.942L345.073 128.654C348.376 126.883 353.881 125.782 358.381 125.782C368.769 125.782 374.274 131 374.274 139.138C374.274 145.649 369.104 149.574 365.801 150.627L375.854 167.717H366.376L355.509 147.42ZM381.407 147.085C381.407 134.973 387.583 125.351 399.407 125.351C411.231 125.351 417.407 134.973 417.407 147.085C417.407 159.244 411.231 168.962 399.407 168.962C387.583 168.962 381.407 159.244 381.407 147.085ZM389.45 147.037C389.45 156.18 393.04 161.925 399.407 161.925C405.822 161.925 409.364 156.18 409.364 147.037C409.364 137.893 405.822 132.293 399.407 132.293C393.04 132.293 389.45 137.893 389.45 147.037ZM257.659 126.596H282.17V133.011H265.654V143.207H279.872V149.574H265.654V161.255H282.553V167.717H257.659V126.596ZM157.464 126.596H165.507V167.717H157.464V126.596ZM128.311 126.596H136.353V160.776H151.05V167.717H128.311V126.596ZM224.724 133.25V161.015C226.016 161.542 227.836 161.877 229.798 161.877C236.788 161.877 241.144 156.994 241.144 147.085C241.144 137.223 236.74 132.34 229.798 132.34C227.836 132.34 226.064 132.723 224.724 133.25ZM217.16 165.563L216.586 165.276V128.942L217.16 128.654C220.703 126.835 225.25 125.782 229.75 125.782C242.006 125.782 249.186 134.112 249.186 147.085C249.186 160.106 242.006 168.436 229.75 168.436C225.25 168.436 220.703 167.382 217.16 165.563Z" fill="#003867"/>
</svg>
