<svg width="500" height="182" viewBox="0 0 500 182" fill="none" xmlns="http://www.w3.org/2000/svg">
<path d="M486.475 79.2204H490.34V114.842H486.475V79.2204ZM474.678 79.2204H478.554V114.842H474.678V79.2204ZM338.983 100.461C338.609 95.4861 336.024 93.5058 332.064 93.5058C328.151 93.5058 325.518 96.1745 324.879 100.461H338.983ZM320.773 103.046V102.671C320.773 95.3895 325.434 90.3179 332.064 90.3179C337.643 90.3179 342.896 93.6868 342.896 102.309V103.553H324.734C324.927 109.035 327.548 112.078 332.486 112.078C336.218 112.078 338.379 110.689 338.886 107.876H342.714C341.881 112.718 337.872 115.254 332.438 115.254C325.616 115.254 320.773 110.46 320.773 103.046ZM464.824 100.461C464.45 95.486 461.865 93.5056 457.904 93.5056C453.992 93.5056 451.36 96.1743 450.72 100.461H464.824ZM446.614 103.045V102.671C446.614 95.3894 451.275 90.3177 457.904 90.3177C463.483 90.3177 468.736 93.6867 468.736 102.309V103.552H450.587C450.768 109.035 453.388 112.078 458.327 112.078C462.058 112.078 464.22 110.689 464.727 107.875H468.555C467.722 112.718 463.713 115.254 458.279 115.254C451.456 115.254 446.614 110.46 446.614 103.045ZM424.323 107.417H428.054C428.331 110.279 429.853 112.078 433.717 112.078C437.352 112.078 438.97 110.834 438.97 108.25C438.97 105.714 437.086 104.881 433.355 104.192C427.076 103.045 424.962 101.294 424.962 97.0919C424.962 92.624 429.346 90.3175 433.113 90.3175C437.448 90.3175 441.18 92.0685 441.832 97.2851H438.137C437.593 94.6526 436.108 93.5053 433.077 93.5053C430.312 93.5053 428.513 94.8819 428.513 96.959C428.513 99.1205 429.708 100.002 434.128 100.787C439.115 101.705 442.617 102.816 442.617 107.924C442.617 112.307 439.622 115.254 433.765 115.254C428.005 115.254 424.552 112.344 424.323 107.417ZM414.963 106.402V103.407H411.643C406.813 103.407 403.262 104.603 403.262 108.153C403.262 110.641 404.458 112.211 407.827 112.211C411.873 112.211 414.963 110.133 414.963 106.402ZM399.435 108.153C399.435 102.586 405.328 100.69 411.51 100.69H414.964V98.9394C414.964 95.1113 413.491 93.5054 409.807 93.5054C406.487 93.5054 404.639 94.882 404.277 97.8283H400.449C400.956 92.3461 405.327 90.3173 409.988 90.3173C414.589 90.3173 418.792 92.2131 418.792 98.9394V114.843H414.963V111.8C413.164 114.058 411.003 115.253 407.452 115.253C402.985 115.253 399.435 113.092 399.435 108.153ZM384.231 111.703C389.025 111.703 391.235 109.59 391.235 105.581V105.387C391.235 101.33 388.977 99.3979 383.675 99.3979H376.949V111.703H384.231ZM382.939 96.2704C387.781 96.2704 389.617 94.5194 389.617 90.462V90.2809C389.617 86.5376 387.455 85.016 382.842 85.016H376.95V96.2704L382.939 96.2704ZM373.037 81.8885H382.939C389.073 81.8885 393.541 83.9172 393.541 90.4138V90.5949C393.541 93.5897 392.346 96.2703 388.566 97.5625C393.348 98.7097 395.147 101.149 395.147 105.436V105.617C395.147 111.848 390.909 114.843 384.315 114.843H373.037V81.8885ZM360.635 79.2198H364.499V114.841H360.635V79.2198ZM348.838 79.2198H352.714V114.841H348.838V79.2198ZM311.38 102.948V102.586C311.38 96.4034 308.433 93.5052 303.736 93.5052C298.942 93.5052 296.08 96.8621 296.08 102.719V103.093C296.08 109.167 299.353 112.077 303.41 112.077C307.878 112.077 311.38 109.119 311.38 102.948ZM292.119 103.274V102.9C292.119 95.534 296.732 90.3174 303.361 90.3174C307.371 90.3174 309.858 92.2615 311.247 94.6041V79.2197H315.075V114.841H311.247V110.687C309.858 113.042 306.501 115.252 302.999 115.252C296.683 115.252 292.119 110.785 292.119 103.274ZM266.785 90.7384H270.6V94.5544C271.711 92.3083 274.38 90.3158 278.353 90.3158C283.328 90.3158 286.83 93.0449 286.83 100.049V114.841H283.002V99.771C283.002 95.5324 281.203 93.6365 277.339 93.6365C273.789 93.6365 270.6 95.8947 270.6 100.23V114.841H266.785V90.7384ZM257.45 102.995V102.669C257.45 97.09 254.359 93.5037 249.565 93.5037C244.735 93.5037 241.691 97.0903 241.691 102.621V102.995C241.691 108.477 244.686 112.076 249.565 112.076C254.407 112.076 257.45 108.429 257.45 102.995ZM237.731 102.995V102.621C237.731 95.3876 242.754 90.3156 249.565 90.3156C256.387 90.3156 261.411 95.339 261.411 102.585V102.947C261.411 110.228 256.387 115.252 249.528 115.252C242.657 115.252 237.731 110.047 237.731 102.995ZM223.53 112.342L214.086 90.7385H218.18L225.558 108.018L232.236 90.7385H236.148L222.841 123.222H218.965L223.53 112.342ZM195.876 81.887H199.886V111.569H214.956V114.841H195.876V81.887Z" fill="#1D5FB5"/>
<path d="M137.091 50.6379L83.8368 19.8935L30.5945 50.6379L26.1387 42.9336L83.8356 9.61816L141.545 42.9336L137.091 50.6379Z" fill="#1D5FB5"/>
<mask id="mask0_8_16095" style="mask-type:luminance" maskUnits="userSpaceOnUse" x="93" y="71" width="66" height="101">
<path d="M93.8123 71.4424H158.731V171.537H93.8123V71.4424Z" fill="white"/>
</mask>
<g mask="url(#mask0_8_16095)">
<path d="M100.397 171.537L95.9531 163.833L149.195 133.089V71.5986H158.107V138.233L100.397 171.537Z" fill="#26B247"/>
</g>
<mask id="mask1_8_16095" style="mask-type:luminance" maskUnits="userSpaceOnUse" x="9" y="71" width="64" height="101">
<path d="M9.57324 71.4424H72.1607V171.537H9.57324V71.4424Z" fill="white"/>
</mask>
<g mask="url(#mask1_8_16095)">
<path d="M67.2888 171.537L9.57959 138.234V71.5996H18.4913V133.09L71.7335 163.834L67.2888 171.537Z" fill="#ED0A65"/>
</g>
<path d="M117.647 107.67C121.04 107.67 123.093 105.883 123.093 103.045C123.093 100.328 121.088 98.432 117.647 98.432H112.14V107.67H117.647ZM116.922 91.2109C119.977 91.2109 121.982 89.5928 121.982 86.9242C121.982 84.3642 120.255 82.6977 116.813 82.6977H112.14V91.2109H116.922ZM118.311 75.416C126.099 75.416 130.604 79.9201 130.604 85.9822C130.604 90.0396 128.044 93.3724 124.82 94.4352C128.382 95.2684 131.823 98.5408 131.823 103.661C131.823 110.109 126.933 114.843 119.482 114.843H103.579V75.416H118.311ZM62.4255 75.416H72.7138L80.7804 90.0396L88.9434 75.416H98.7367L84.886 98.3838V114.843H76.1071V98.3838L62.4255 75.416ZM38.7937 114.843V75.416H47.5725V106.438H64.5869V114.842L38.7937 114.843Z" fill="#1D5FB5"/>
</svg>
