<svg width="500" height="146" viewBox="0 0 500 146" fill="none" xmlns="http://www.w3.org/2000/svg">
<path d="M151.565 0L244.249 145.527H211.118L151.565 51.7891L122.332 97.8914L92.9073 51.7252L33.0671 145.527H0L92.8754 0.0319489L122.3 46.0064L151.565 0Z" fill="#007DC6"/>
<path d="M211.118 145.527L180.99 98.1153L151.661 144.25L122.332 97.8917L92.0447 145.527H59.0735L105.847 72.0131L122.3 46.1664L138.722 72.045L151.534 92.2687L164.441 72.045L180.927 46.1025L244.249 145.527H211.118Z" fill="#54565B"/>
<path d="M414.121 42.2364L409.553 49.4248L405.016 42.2364L409.553 35.0479L414.121 42.2364Z" fill="#007DC6"/>
<path fill-rule="evenodd" clip-rule="evenodd" d="M307.029 42.6516V88.9456H297.604V63.3226L283.291 83.4184L268.914 63.3226V88.9456H259.553V42.6516H264.121L283.291 69.1692L302.428 42.6516H307.029ZM360.447 58.2746C362.875 54.92 366.613 52.7155 371.661 52.6516C372.332 52.6516 373.163 52.7794 373.898 53.035V62.9392C373.898 62.9392 371.406 62.428 369.489 62.428C362.939 62.428 360.447 67.0925 360.447 71.7251V88.9456H351.278V53.2906H360.447V58.2746ZM391.629 60.8306V73.4504C391.629 79.8082 392.652 81.6293 397.252 81.6293C398.818 81.6293 400.224 81.4376 401.47 81.3098V88.1469C401.054 88.2746 398.307 89.4568 393.195 89.4568C387.22 89.4568 382.428 85.7187 382.428 78.2427V60.8306H377.38V53.2906H382.428V39.4248H391.629V53.2906H401.597V60.8306H391.629ZM405.048 53.2906H414.185V88.9456H405.048V53.2906ZM451.47 69.0414V88.9136H442.364V69.0414C442.364 63.5143 439.649 60.8306 434.601 60.8306C431.406 60.8306 428.754 61.8849 426.741 63.6421V88.9136H417.604V53.2906H426.741V55.4951C429.361 53.674 432.652 52.6197 436.262 52.6197C446.677 52.6197 451.47 57.4759 451.47 69.0414ZM304.569 99.2331V145.495H302.141V104.856L282.204 137.668L262.204 104.856V145.495H259.776V99.2331H261.406L282.204 133.227L303.003 99.2331H304.569ZM343.674 110.128V145.495H341.374V141.214C337.891 143.993 333.099 145.751 327.38 145.751C317.157 145.751 309.042 137.54 309.042 127.572C309.042 117.668 317.157 109.457 327.38 109.457C332.843 109.457 338.019 111.31 341.374 114.185V110.128H343.674ZM341.374 116.869C338.083 113.674 333.227 111.757 327.604 111.757C318.594 111.757 311.31 118.85 311.31 127.572C311.31 136.358 318.594 143.45 327.604 143.45C333.355 143.45 338.147 141.629 341.374 138.466V116.869ZM350.543 118.594C352.588 113.131 356.773 109.521 362.556 109.457C364.473 109.457 366.55 109.904 368.658 110.958L368.083 113.259C366.038 112.268 364.058 111.949 362.364 111.949C355.335 111.949 350.543 118.498 350.543 126.901V145.495H348.211V110.096H350.543V118.594ZM374.409 102.62C373.323 102.62 372.46 101.789 372.46 100.735C372.46 99.6804 373.323 98.8178 374.409 98.8178C375.527 98.8178 376.39 99.6804 376.39 100.735C376.39 101.789 375.527 102.62 374.409 102.62ZM373.227 110.096H375.655V145.495H373.227V110.096ZM415.176 128.594H382.62C383.163 137.252 390.096 143.418 398.307 143.418C403.61 143.418 408.722 141.47 411.885 137.476L413.738 138.914C410.447 143.035 404.792 145.719 398.179 145.719C387.54 145.719 380.192 137.604 380.192 127.604C380.192 117.572 387.54 109.425 398.179 109.425C408.658 109.425 415.176 117.061 415.176 127.827V128.594ZM412.875 126.486C412.396 117.827 406.965 111.661 398.179 111.661C389.329 111.661 383.035 118.147 382.62 126.486H412.875ZM425.144 112.236V134.153C425.144 140.863 428.371 143.418 432.939 143.418C435.847 143.418 437.604 143.099 438.786 142.747V144.92C437.54 145.24 435.463 145.719 432.492 145.719C427.125 145.719 422.716 142.236 422.716 135.463V112.236H416.23V110.064H422.716V95.9743H425.144V110.064H438.914V112.236H425.144ZM450.671 112.236V134.153C450.671 140.863 453.866 143.418 458.466 143.418C461.342 143.418 463.131 143.099 464.313 142.747V144.92C463.067 145.24 460.958 145.719 458.019 145.719C452.62 145.719 448.243 142.236 448.243 135.463V112.236H441.757V110.064H448.243V95.9743H450.671V110.064H464.441V112.236H450.671ZM499.872 110.064V145.463H497.572V141.182C494.089 143.93 489.297 145.719 483.578 145.719C473.355 145.719 465.208 137.508 465.208 127.54C465.208 117.604 473.355 109.425 483.578 109.425C489.042 109.425 494.217 111.246 497.572 114.153V110.064H499.872ZM497.572 116.837C494.281 113.61 489.425 111.725 483.802 111.725C474.792 111.725 467.508 118.786 467.508 127.54C467.508 136.326 474.792 143.418 483.802 143.418C489.553 143.418 494.345 141.565 497.572 138.434V116.837ZM347.796 53.2267V88.8817H338.658V86.2299C335.719 88.2107 332.173 89.3929 328.243 89.3929C317.093 89.3929 310.511 80.4152 310.511 70.9584C310.511 61.4376 317.093 52.4919 328.243 52.4919C331.981 52.4919 335.655 53.674 338.658 55.4631V53.2267H347.796ZM338.658 63.8657C336.422 61.9488 333.291 60.7667 329.872 60.7667C323.387 60.7667 319.329 65.6229 319.329 70.9584C319.329 76.3258 323.45 81.182 329.872 81.182C333.355 81.182 336.422 80.0638 338.658 78.1788V63.8657Z" fill="#54565B"/>
</svg>
