<svg width="500" height="226" viewBox="0 0 500 226" fill="none" xmlns="http://www.w3.org/2000/svg">
<g clip-path="url(#clip0_8_16093)">
<path d="M330.249 135.023C319.326 147.286 303.597 169.523 303.597 169.523C224.755 145.88 170.569 134.598 170.569 134.598C170.569 134.598 204.284 115.37 206.18 115.632C284.63 126.521 330.249 135.023 330.249 135.023Z" fill="#B84B16"/>
<path d="M143.689 113.375C170.34 108.764 198.038 114.127 198.038 114.127C198.038 114.127 154.284 135.023 113.244 160.791C113.244 160.791 78.8423 150.491 53.6625 147.94C53.6625 147.94 117.626 117.888 143.689 113.375Z" fill="#005953"/>
<path d="M237.933 158.47C237.933 158.47 263.473 165.337 298.725 177.24C298.725 177.24 276.357 210.301 268.345 225.965C268.345 225.965 245.978 213.015 203.728 194.441C203.728 194.441 212.721 184.86 237.933 158.47Z" fill="#B2BB1E"/>
<path d="M122.956 164.094C122.956 164.094 139.863 152.093 163.44 138.882C163.44 138.882 190.582 144.343 230.281 156.115L194.801 190.419C194.801 190.419 173.97 181.688 156.344 175.311C138.718 168.934 122.956 164.094 122.956 164.094Z" fill="#C5A901"/>
<path fill-rule="evenodd" clip-rule="evenodd" d="M123.708 111.74L122.564 112.459L95.0294 113.015L94.31 112.165L99.346 86.4944L102.649 68.9993L109.81 34.14L84.8594 85.775L72.8254 111.74L71.6808 112.459L49.019 112.884L48.0379 112.001L47.155 93.0674L44.4408 34.14L40.5494 49.5095L34.6959 72.9889L25.3761 111.74L24.3623 112.459C13.6037 112.459 10.5952 112.623 0.719424 113.015L0 112.165L8.7312 80.5755L18.6396 44.0484L26.9457 12.1975L27.7959 11.3473C45.7162 11.3473 49.8692 11.3473 67.07 10.8895L67.9529 11.7397L68.6723 34.4343L69.2282 44.8986L70.6671 72.8581L88.7181 34.14C91.0072 29.3983 98.0379 14.1923 99.0517 12.1975L100.065 11.3473C116.841 11.3473 120.961 11.3473 139.045 10.8895L139.732 11.7397L134.303 43.8849L127.992 82.603L123.708 111.74ZM206.442 96.6645C202.714 102.453 198.954 105.428 194.212 108.044L193.362 108.404L192.381 108.502C180.641 106.769 175.376 106.769 170.046 106.671C164.846 106.54 156.606 106.475 147.842 108.077L146.991 108.012L146.37 107.717C138.98 102.453 135.056 94.4735 135.056 82.4722C135.056 70.9941 139.209 57.0961 146.959 47.7763C157.096 35.8731 170.602 34.14 180.052 34.14C189.797 34.14 197.122 36.429 200.425 38.293C214.585 45.7489 214.585 62.0994 214.585 65.533C214.585 70.6998 214.16 75.7358 213.015 80.5755C211.445 86.9195 208.862 92.9366 206.442 96.6645ZM185.939 61.2492C185.939 55.6246 183.649 52.0602 179.202 52.0602C173.61 52.0602 170.733 58.0772 170.013 59.3525C166.416 66.2524 163.833 80.5755 163.833 86.4617C163.833 88.9143 163.833 96.4029 170.602 96.4029C178.058 96.4029 182.047 86.3309 184.369 74.4277C185.775 67.5605 185.939 61.9686 185.939 61.2492ZM211.707 105.723L216.906 87.639L218.182 87.2139C220.471 89.7973 226.488 96.828 237.802 96.828C242.25 96.828 247.842 95.3564 247.842 90.9091C247.842 87.0831 244.408 85.3499 238.98 82.603L235.971 81.0334C229.366 77.4362 221.648 73.1197 221.648 61.2492C221.648 54.7744 224.199 48.6266 228.646 43.7541C233.813 38.1622 242.708 34.14 256.311 34.14C267.92 34.14 274.101 36.7233 281.818 39.9935L282.538 41.3015C280.118 49.0517 279.529 51.3407 277.534 59.3852L276.095 59.6468C274.951 58.2407 273.806 56.8018 272.335 55.4938C269.065 52.7796 263.767 50.9156 259.189 50.9156C252.158 50.9156 250.458 54.2184 250.458 56.0824C250.458 59.2217 254.153 61.1184 257.75 62.8188L260.595 64.2577C268.77 68.5742 277.502 73.4467 277.502 86.6579C277.502 95.0948 273.512 100.556 271.092 103.27C261.478 114.029 247.155 114.323 240.974 114.323C224.624 114.323 216.743 109.876 212.034 107.129L211.707 105.723ZM363.506 63.8653C361.053 73.9045 358.633 84.0746 356.769 94.1138C355.625 99.8365 354.611 105.755 353.761 111.642L352.878 112.492L326.39 113.048L325.67 112.165L326.815 105.592C321.06 111.315 313.342 114.192 305.298 114.192C298.594 114.192 294.147 111.642 291.825 109.908C282.374 102.714 282.08 90.3859 282.08 85.9712C282.08 68.4434 290.549 55.6573 296.828 49.5095C310.759 35.8731 328.679 35.7423 342.021 35.5788H369.228L370.111 36.7233L363.506 63.8653ZM337.704 54.3819C333.257 54.2511 327.371 54.1203 322.204 58.4369C318.215 61.8705 312.492 70.6344 312.492 83.3878C312.492 90.7129 315.762 94.9967 321.517 94.9967C324.657 94.9967 326.815 93.5579 328.973 91.9882L337.704 54.3819ZM399.182 84.6305C396.174 98.6919 395.716 101.7 394.179 111.772L393.296 112.492L362.786 113.048L362.198 112.034C367.07 93.8195 367.953 90.6802 371.812 73.4467L373.25 67.4297C376.259 53.6625 376.684 50.9483 378.09 39.4702L379.104 38.293C393.591 36.4617 397.024 35.8731 409.908 33.4205L410.791 34.467L400.916 76.3571L399.182 84.6305ZM412.328 23.6756L411.216 24.6893L382.963 28.8424L381.949 27.8286L386.821 4.87247L387.966 3.85873L416.776 0L417.659 1.01373L412.328 23.6756ZM467.233 89.6665C464.356 99.9673 464.094 101.831 462.198 110.17L461.053 111.151C455.755 112.884 450.752 114.323 443.427 114.323C419.359 114.323 407.587 99.9673 407.587 79.0386C407.587 57.6521 422.498 34.14 453.041 34.14C466.383 34.14 472.237 37.8679 475.834 39.9935L476.128 41.1707L470.536 60.5298L469.097 60.6933C465.664 56.3767 461.772 53.9241 456.344 53.9241C446.599 53.9241 437.41 62.9496 437.41 78.1884C437.41 86.2001 441.269 94.0811 452.027 94.0811C458.927 94.0811 462.917 91.2361 465.795 89.0778L467.233 89.6665ZM490.549 52.4526C485.383 52.4526 481.197 48.2995 481.197 43.1001C481.197 37.9333 485.383 33.7475 490.549 33.7475C495.716 33.7475 499.902 37.9333 499.902 43.1001C499.902 48.2995 495.716 52.4526 490.549 52.4526ZM498.954 43.1001C498.954 38.3911 495.193 34.5651 490.549 34.5651C485.873 34.5651 482.112 38.3911 482.112 43.1001C482.112 47.809 485.873 51.6351 490.549 51.6351C495.193 51.6351 498.954 47.809 498.954 43.1001ZM487.148 37.5736H491.301C493.819 37.5736 494.899 38.62 494.899 40.6475C494.899 42.446 493.623 43.2963 492.054 43.5579L495.356 48.6266H494.31L490.974 43.5579H488.097V48.6266H487.148V37.5736ZM488.097 42.7077H490.451C492.119 42.7077 493.95 42.5441 493.95 40.6148C493.95 38.9143 492.479 38.3911 491.138 38.3911H488.097V42.7077Z" fill="black"/>
</g>
<defs>
<clipPath id="clip0_8_16093">
<rect width="500" height="225.965" fill="white"/>
</clipPath>
</defs>
</svg>
