<svg width="500" height="75" viewBox="0 0 500 75" fill="none" xmlns="http://www.w3.org/2000/svg">
<g clip-path="url(#clip0_8_16092)">
<mask id="mask0_8_16092" style="mask-type:luminance" maskUnits="userSpaceOnUse" x="-243" y="-451" width="1858" height="1048">
<path d="M-242.122 -450.251H1614.83V596.208H-242.122V-450.251Z" fill="white"/>
</mask>
<g mask="url(#mask0_8_16092)">
<mask id="mask1_8_16092" style="mask-type:luminance" maskUnits="userSpaceOnUse" x="0" y="0" width="502" height="75">
<path d="M501.056 0.890625V74.917H0.211182V0.890625" fill="white"/>
</mask>
<g mask="url(#mask1_8_16092)">
<path d="M25.3201 36.0723L50.5247 72.5442H25.3201H0.211182L25.3201 36.0723Z" fill="#FCAF17"/>
<path fill-rule="evenodd" clip-rule="evenodd" d="M72.2541 0.191406V72.5445H56.4818L25.3201 27.4488L7.95044 52.6204V0.191406H27.6996L54.8844 40.9274V0.191406H72.2541ZM343.67 74.132C325.508 74.132 314.683 64.8119 314.683 45.5874C314.683 26.2574 325.508 16.6469 344.066 16.6469C362.221 16.6469 373.033 25.8614 373.033 45.1914C373.033 64.4125 362.221 74.132 343.67 74.132ZM352.492 45.4917C352.492 36.3729 350.818 29.7261 343.766 29.7261C336.921 29.7261 335.139 36.1683 335.139 45.2871C335.139 54.3069 336.921 60.9439 343.96 60.9439C350.818 60.9439 352.492 54.5016 352.492 45.4917Z" fill="#0C2B82"/>
<path fill-rule="evenodd" clip-rule="evenodd" d="M128.525 70.9535C128.525 70.9535 120.092 73.3363 109.076 73.3363C97.6634 73.3363 91.1156 70.7587 86.4423 66.5937C80.4951 61.1482 78.3103 53.8148 78.3103 45.4914C78.3103 27.9436 87.6337 16.6465 106 16.6465C115.815 16.6465 123.168 19.9205 127.528 26.4617C131.997 32.9997 131.997 39.5409 131.997 50.5376H98.0595C98.0595 56.3924 102.423 60.0525 110.96 60.0525C118.304 60.0525 127.733 57.2835 127.733 57.2835H128.525V70.9535ZM112.739 39.5409C112.739 33.8908 111.357 29.3297 105.795 29.3297C99.944 29.3297 97.8549 34.0855 97.8549 39.5409H112.739ZM153.139 18.1383L160.277 52.7191L168.809 18.9205H187.667L196.198 52.7191L203.353 18.1383H219.72L205.432 72.5442H184.591L176.158 39.5409L167.617 72.5442H146.786L133.079 18.1383H153.139ZM238.974 18.1383L242.446 27.6432C244.333 21.102 248.993 17.0426 258.617 17.0426C268.852 17.0426 273.706 21.4023 275.399 27.6432C277.67 21.6069 281.548 17.0426 291.957 17.0426C297.914 17.0426 303.571 18.5343 307.053 23.7851C310.033 28.0393 310.119 33.1944 310.119 39.937V72.5442H290.475V40.3363C290.475 38.2538 290.475 36.4683 289.287 34.9766C288.185 33.399 286.201 32.6036 283.531 32.6036C277.178 32.6036 276.782 36.8677 276.782 40.5277V72.5442H257.129V40.1317C257.129 38.2538 257.129 36.4683 255.941 34.9766C254.749 33.399 252.865 32.6036 250.185 32.6036C243.743 32.6036 243.347 36.8677 243.347 40.5277V72.5442H223.683V18.1383H238.974ZM393.188 18.1383L396.65 27.6432C398.634 20.8115 404.099 17.0426 413.733 17.0426C420.571 17.0426 425.832 18.9205 429.099 23.7851C432.185 28.2439 432.185 33.1944 432.185 40.7323V72.5442H412.436V40.7323C412.436 38.8446 412.436 36.7686 411.353 35.1812C410.152 33.5904 408.267 32.6036 404.997 32.6036C398.043 32.6036 397.647 37.2637 397.647 40.5277V72.5442H377.908V18.1383H393.188ZM476.442 72.1449C476.442 72.1449 471.683 73.3363 464.729 73.3363C455.601 73.3363 449.845 71.3528 446.578 66.5937C443.693 62.3297 443.693 57.0789 443.693 52.1284V33.1944H434.36V18.9205H443.693V7.03267L462.941 1.97656V18.9205H476.442V33.1944H462.941V51.333C462.941 53.2241 462.941 55.597 464.129 57.0789C465.234 58.6663 467.215 59.0657 469.7 59.0657C472.766 59.0657 475.65 58.4749 475.65 58.4749H476.442V72.1449ZM488.947 63.6201V64.8115H486.366V72.5442H484.779V64.8115H482.294V63.6201H488.947ZM492.323 63.6201L495.099 70.4584L497.97 63.6201H499.954V72.5442H498.366V65.6069L495.7 72.1449H494.307L491.617 65.6069V72.5442H490.234V63.6201H492.323Z" fill="#0C2B82"/>
</g>
</g>
</g>
<defs>
<clipPath id="clip0_8_16092">
<rect width="500" height="74.2574" fill="white"/>
</clipPath>
</defs>
</svg>
