<svg width="500" height="59" viewBox="0 0 500 59" fill="none" xmlns="http://www.w3.org/2000/svg">
<path fill-rule="evenodd" clip-rule="evenodd" d="M113.624 2.98048L113.623 3.35174C113.623 3.41236 113.623 3.48008 113.623 3.55467L113.621 4.40498C113.621 4.51865 113.621 4.63847 113.62 4.76421L113.619 5.58782C113.612 8.70592 113.601 14.2267 113.589 19.9596L113.586 21.6015C113.574 27.355 113.562 33.112 113.555 36.6821L113.554 37.6407C113.553 37.7899 113.553 37.9337 113.553 38.0718L113.551 38.8306C113.551 38.9451 113.551 39.0535 113.551 39.1555L113.55 39.6889C121.294 40.4717 129.292 40.8763 137.944 40.8763C149.935 40.8763 158.107 40.2447 162.266 39.8224V2.98048H178.62V52.5425L176.461 53.1389L176.381 53.1606C175.189 53.4782 162.952 56.5525 137.944 56.4599L136.765 56.4576C112.203 56.3615 99.9177 53.2846 99.3993 53.1504L97.1905 52.5832V2.98048H113.624ZM235.043 2.98054C260.218 2.98054 272.951 6.15927 273.479 6.29348L275.684 6.856L275.78 18.8044L275.811 22.703L272.18 21.7988C272.18 21.7988 272.159 21.7935 272.129 21.7862L271.999 21.7557C270.321 21.3647 257.087 18.4649 235.043 18.4649C224.164 18.4649 216.166 19.0321 210.838 19.6076V39.9339C215.058 40.3791 223.104 40.9648 235.038 40.9648C259.185 40.9648 271.951 37.6816 272.08 37.647L275.702 36.7076V52.7084L273.443 53.2534C272.903 53.3855 259.905 56.4619 235.11 56.4619C210.181 56.3602 197.189 53.2906 196.646 53.1598L194.381 52.6102L194.464 6.86415L196.682 6.29348C197.209 6.15927 209.873 2.98054 235.043 2.98054ZM334.913 2.98042C360.196 2.98042 372.874 6.15135 373.401 6.28466L375.628 6.85498V52.7165L373.362 53.2591C372.815 53.3911 359.805 56.4619 334.902 56.4619C312.074 56.3699 299.476 53.8387 296.919 53.2668L296.69 53.2148C296.561 53.185 296.48 53.1653 296.447 53.157L294.198 52.605V6.99366L296.377 6.39561C296.885 6.25625 309.089 2.98042 334.913 2.98042ZM62.8891 3.30989L80.9525 3.31725V55.6221H62.9165L62.9164 55.5089C62.9163 55.4718 62.9163 55.4259 62.9162 55.3717L62.914 53.1681C62.9139 53.0201 62.9137 52.8671 62.9136 52.7096L62.912 51.1803C62.9119 50.9995 62.9117 50.8155 62.9115 50.6287L62.9097 48.888C62.9095 48.6893 62.9093 48.4893 62.9091 48.2885L62.9073 46.4714C62.9071 46.2699 62.9069 46.0689 62.9067 45.869L62.9049 44.1108C62.9047 43.9215 62.9045 43.7345 62.9044 43.5506L62.9028 41.9865C62.9026 41.8243 62.9024 41.6665 62.9023 41.5135L62.9 39.3798L62.8998 39.1679C59.9029 36.7973 52.0857 31.2079 37.5531 26.093C29.3214 23.1963 20.2767 21.16 16.3294 20.4588V56.4618H0V3.52258L2.86608 3.51856C2.87404 3.51856 2.88481 3.51857 2.89839 3.51863L3.01358 3.51967C4.55228 3.53964 16.8994 3.90963 40.6128 10.5687C50.714 13.4066 57.2718 16.1555 62.8838 19.1852L62.886 11.7141C62.886 11.5458 62.8861 11.3796 62.8862 11.2158L62.8883 7.57335C62.8883 7.47526 62.8884 7.38213 62.8885 7.29426L62.8891 3.30989ZM429.131 2.98037C454.271 2.98037 467.164 6.37909 467.699 6.52224L469.343 6.96679V33.1291L467.662 33.5517C467.417 33.6136 462.982 34.6891 454.567 35.5954C464.144 39.3458 468.974 42.7913 469.236 42.9826L470.191 43.679L470.132 56.4619H453.387L453.388 56.1869C453.388 56.1284 453.389 56.0616 453.389 55.9872L453.39 55.4581C453.395 53.9458 453.405 51.1448 453.411 50.065C450.399 48.3714 441.609 44.5764 428.716 41.8954C417.802 39.6239 407.957 39.5165 403.841 39.5943V55.5804H388.761V6.96334L390.416 6.52224C390.695 6.44773 394.294 5.50838 401.163 4.61587L402.448 4.45432C408.832 3.67792 417.738 2.98037 429.131 2.98037ZM334.839 16.8801C321.398 16.8801 313.091 17.8496 310.32 18.2027L310.251 41.4339C313.226 41.7816 322.21 42.7497 334.839 42.7497C345.982 42.7497 353.951 42.0461 359.285 41.4339L359.419 18.2907C353.951 17.5857 345.851 16.8801 334.839 16.8801ZM433.788 17.8046L429.742 17.8035L427.711 17.808C416.559 17.8412 405.877 18.0158 404.543 18.2152V29.1325C404.543 29.1325 404.55 29.1326 404.565 29.1328L404.734 29.1347C406.283 29.1522 417.029 29.2705 428.146 29.3078L430.853 29.3152C431.754 29.3171 432.653 29.3183 433.546 29.3188L435.32 29.3188C444.422 29.3137 452.445 29.2241 454.198 28.9432V18.3184C452.293 17.9689 443.482 17.824 433.788 17.8046ZM492.475 0C496.578 0 499.912 3.24148 499.912 7.25155C499.912 11.2616 496.578 14.5031 492.475 14.5031C488.372 14.5031 485.038 11.2619 485.038 7.25155C485.038 3.24126 488.372 0 492.475 0ZM492.475 1.50419C489.193 1.50419 486.542 4.08164 486.542 7.25155C486.542 10.4215 489.193 12.9989 492.475 12.9989C495.757 12.9989 498.408 10.4212 498.408 7.25155C498.408 4.08181 495.757 1.50419 492.475 1.50419ZM492.907 4.13178C493.582 4.13178 494.072 4.18847 494.378 4.30191C494.684 4.41536 494.929 4.61701 495.112 4.90704C495.296 5.19701 495.388 5.52863 495.388 5.90189C495.388 6.37564 495.249 6.76683 494.97 7.07548C494.692 7.38412 494.275 7.57865 493.721 7.65905L493.73 7.66408C494.002 7.82358 494.226 7.99847 494.404 8.18881C494.583 8.38118 494.825 8.72287 495.13 9.21382L495.901 10.4456H494.376L493.454 9.07169C493.127 8.58068 492.903 8.27136 492.782 8.14354C492.662 8.01573 492.534 7.9282 492.399 7.88084C492.264 7.83348 492.05 7.80978 491.757 7.80978H491.499V10.4456H490.224V4.13178H492.907ZM492.494 5.1999H491.499V6.80203H492.442C493.054 6.80203 493.436 6.77617 493.588 6.72451C493.74 6.67285 493.859 6.5838 493.945 6.45751C494.031 6.33116 494.075 6.17325 494.075 5.98376C494.075 5.7713 494.018 5.59975 493.904 5.46911C493.791 5.33846 493.631 5.25591 493.424 5.22145C493.321 5.20708 493.011 5.1999 492.494 5.1999Z" fill="black"/>
</svg>
