<svg width="500" height="396" viewBox="0 0 500 396" fill="none" xmlns="http://www.w3.org/2000/svg">
<g clip-path="url(#clip0_8_16089)">
<path d="M405.338 395.135H94.6622C42.4571 395.135 0 352.678 0 300.473V94.6622C0 42.4571 42.4571 0 94.6622 0H405.338C457.543 0 500 42.4571 500 94.6622V300.473C500 352.678 457.543 395.135 405.338 395.135Z" fill="white"/>
<path d="M405.338 378.474H94.6623C51.7676 378.474 16.6609 343.385 16.6609 300.473V94.6625C16.6609 51.7679 51.7676 16.6611 94.6623 16.6611H405.338C448.232 16.6611 483.339 51.7679 483.339 94.6625V300.473C483.339 343.385 448.25 378.474 405.338 378.474Z" fill="#0078A9"/>
<path d="M408.663 134.529C427.319 129.017 446.29 134.722 461.323 147.218V107.123C412.671 99.4052 387.172 104.655 367.728 116.731C351.943 126.812 345.257 140.567 345.257 140.567C345.257 140.567 344.907 141.302 344.33 142.615C341.775 41.1622 279.699 50.0002 205.618 50.0177C184.844 50.0177 163.896 50.0177 163.896 50.0177V137.452C151.593 101.26 113.563 105.163 72.8736 105.163C58.1379 105.163 38.6594 105.163 38.6594 105.163V290.13H94.6972C85.3518 286.875 80.609 278.772 80.609 266.994V216.171L96.7798 232.342C103.903 234.092 110.15 233.899 110.15 233.899C125.621 233.042 153.43 227.057 163.896 195.695V345.345H230.557C221.246 342.107 216.503 334.144 216.503 322.419V221.911L241.775 247.095C249.93 250.018 255.933 250.508 262.828 250.193C282.272 248.968 315.576 240.76 333.007 205.6C334.442 238.66 345.275 271.806 378.806 284.844C393.56 290.882 410.343 292.562 427.791 291.215C439.184 290.882 450.262 289.867 461.341 287.872V197.27L410.273 197.288C419.618 200.543 424.361 208.226 424.361 220.004V261.271C412.723 264.911 396.99 261.323 388.204 249.965C377.109 235.632 375.114 195.275 379.821 167.746C382.499 153.973 394.277 138.782 408.663 134.529ZM99.755 208.996C86.2093 208.996 80.5915 203.098 80.5915 203.098V136.595C80.5915 130.924 84.6867 127.039 90.847 126.322C97.4624 125.551 127.494 120.756 127.494 165.296C127.494 206.983 109.153 208.996 99.755 208.996ZM250.14 215.803C229.681 215.803 216.503 206.23 216.503 206.23V95.9225C216.503 86.717 227.389 80.3992 236.699 79.2441C246.675 78.0016 292.632 71.0712 292.632 143.367C292.632 208.541 261.656 215.803 250.14 215.803Z" fill="white"/>
</g>
<defs>
<clipPath id="clip0_8_16089">
<rect width="500" height="395.135" fill="white"/>
</clipPath>
</defs>
</svg>
