<svg width="500" height="86" viewBox="0 0 500 86" fill="none" xmlns="http://www.w3.org/2000/svg">
<mask id="mask0_8_16088" style="mask-type:luminance" maskUnits="userSpaceOnUse" x="0" y="6" width="86" height="72">
<path d="M0 6.27637H85.7493V77.8049H0V6.27637Z" fill="white"/>
</mask>
<g mask="url(#mask0_8_16088)">
<mask id="mask1_8_16088" style="mask-type:luminance" maskUnits="userSpaceOnUse" x="0" y="6" width="86" height="72">
<path d="M0 6.27637H85.7493V77.8049H0V6.27637Z" fill="white"/>
</mask>
<g mask="url(#mask1_8_16088)">
<path d="M74.2375 50.199C71.4192 55.7361 66.9762 60.3117 61.4722 63.2295C56.0014 66.1472 49.7348 67.3409 43.5345 66.5783C37.3674 65.8157 31.5651 63.1963 26.9563 59.0186C34.1181 62.8647 42.6062 63.4947 50.2653 60.7096C57.9245 57.9576 64.0253 52.0557 67.0757 44.5292C70.1261 36.9695 69.7945 28.4815 66.2136 21.187C62.5995 13.8926 56.0677 8.45493 48.2428 6.2666C51.7574 6.39923 55.2388 7.12867 58.4881 8.45493C61.7706 9.78119 64.7879 11.638 67.4072 13.9921C70.0266 16.3462 72.2149 19.1313 73.8727 22.248C75.5637 25.3647 76.6579 28.7135 77.1552 32.2281C78.0505 38.3621 77.0226 44.6618 74.2375 50.199Z" fill="#C9282D"/>
<path d="M28.4814 15.3179C26.9894 15.9478 25.5305 16.7436 24.2042 17.7051C22.8448 18.6667 21.618 19.794 20.5239 21.0208C19.4297 22.2807 18.5013 23.607 17.7056 25.0659C20.557 17.0088 27.5199 11.0738 35.9416 9.54863C44.3634 8.02343 52.9841 11.0738 58.5212 17.6057C64.0252 24.1375 65.6499 33.1229 62.7321 41.1799C59.8143 49.2038 52.8183 55.0725 44.3965 56.5645C43.7997 56.6751 43.1919 56.7524 42.5729 56.7966C48.0769 55.3709 52.7851 51.8563 55.7361 47.0486C58.687 42.2078 59.6817 36.4386 58.4549 30.9014C57.2613 25.3643 53.9788 20.4903 49.2706 17.3404C44.5623 14.1905 38.8263 12.9638 33.2228 13.9253C31.5981 14.1905 30.0066 14.6547 28.4814 15.3179Z" fill="#028998"/>
<path d="M48.5412 29.2768V28.3152H48.1765V28.1826H49.0717V28.3152H48.707V29.2768H48.5412Z" fill="#028998"/>
<path d="M49.2043 29.2768V28.1826H49.4364L49.7017 28.9452C49.7017 29.0115 49.7349 29.0778 49.7349 29.111C49.7349 29.0889 49.7459 29.0778 49.768 29.0778C49.768 29.0557 49.768 29.0336 49.768 29.0115C49.768 29.0115 49.7791 29.0005 49.8012 28.9784C49.8012 28.9784 49.8012 28.9673 49.8012 28.9452L50.0664 28.1826H50.2654V29.2768H50.0996V28.3484L49.768 29.2768H49.6354L49.337 28.3484V29.2768H49.2043Z" fill="#028998"/>
<path fill-rule="evenodd" clip-rule="evenodd" d="M47.6127 45.0602C47.5906 45.237 47.5575 45.4138 47.5133 45.5907C47.447 45.7675 47.3696 45.9333 47.2812 46.088C47.1928 46.2648 47.0933 46.4196 46.9828 46.5522C46.8501 46.7069 46.7175 46.8396 46.5849 46.9501C46.5407 46.9943 46.4854 47.0385 46.4191 47.0827C46.3528 47.1269 46.2865 47.1711 46.2202 47.2153C46.1538 47.2595 46.0875 47.2927 46.0212 47.3148C45.977 47.359 45.9107 47.3922 45.8223 47.4143C45.7781 47.4364 45.7339 47.4585 45.6897 47.4806C45.6454 47.4806 45.6012 47.4916 45.557 47.5137C45.5128 47.5358 45.4686 47.5469 45.4244 47.5469C45.3802 47.569 45.336 47.5801 45.2918 47.5801C45.2476 47.5801 45.1923 47.5911 45.126 47.6132C45.0818 47.6132 45.0376 47.6132 44.9934 47.6132C44.9492 47.6353 44.8939 47.6464 44.8276 47.6464C44.7834 47.6464 44.7392 47.6464 44.695 47.6464H19.5955C19.485 47.6464 19.3855 47.6464 19.2971 47.6464C19.1866 47.6464 19.0871 47.6353 18.9987 47.6132C18.8882 47.6132 18.7887 47.6132 18.7003 47.6132C18.5897 47.5911 18.4903 47.5801 18.4019 47.5801C18.3134 47.5579 18.225 47.5358 18.1366 47.5137C18.0703 47.4916 17.9929 47.4585 17.9045 47.4143C17.8382 47.3701 17.7608 47.3259 17.6724 47.2816C17.6061 47.2374 17.5398 47.1822 17.4735 47.1159L17.374 47.0164C17.3519 46.9943 17.3298 46.9832 17.3077 46.9832C17.2856 46.9611 17.2635 46.939 17.2414 46.9169C17.2193 46.8948 17.2082 46.8727 17.2082 46.8506C17.1861 46.8285 17.164 46.8064 17.1419 46.7843C17.1198 46.7622 17.1088 46.7401 17.1088 46.718C17.0866 46.6959 17.0645 46.6738 17.0424 46.6517C17.0203 46.6296 17.0093 46.6075 17.0093 46.5854C16.9872 46.5633 16.9761 46.5411 16.9761 46.519C16.9319 46.4748 16.8988 46.4196 16.8767 46.3533C16.8767 46.3091 16.8656 46.2648 16.8435 46.2206C16.8214 46.1764 16.7993 46.1322 16.7772 46.088C16.7772 46.0217 16.7661 45.9664 16.744 45.9222C16.7219 45.8117 16.7109 45.7122 16.7109 45.6238C16.6888 45.5354 16.6777 45.4359 16.6777 45.3254C16.6556 45.237 16.6446 45.1375 16.6446 45.027C16.6446 44.9165 16.6446 44.817 16.6446 44.7286V44.2644C16.6114 44.3639 16.6114 44.4302 16.6114 44.4965C16.6114 44.5407 16.6004 44.5849 16.5782 44.6291C16.5782 44.6512 16.5672 44.6844 16.5451 44.7286C16.5451 44.7728 16.534 44.817 16.5119 44.8612C16.5119 44.9054 16.5009 44.9496 16.4788 44.9938C16.4788 45.0159 16.4677 45.0491 16.4456 45.0933C16.4456 45.1375 16.4346 45.1817 16.4125 45.2259C16.3904 45.248 16.3683 45.2812 16.3462 45.3254C16.3462 45.3696 16.3351 45.4028 16.313 45.4249C16.2909 45.5133 16.2577 45.5907 16.2135 45.657C16.1693 45.7233 16.1251 45.7896 16.0809 45.8559C16.0367 45.9222 15.9925 45.9885 15.9483 46.0548C15.9041 46.1212 15.8599 46.1875 15.8156 46.2538C15.7272 46.4085 15.6167 46.5411 15.4841 46.6517C15.3736 46.7843 15.252 46.8948 15.1194 46.9832C14.9646 47.0938 14.8099 47.1822 14.6552 47.2485C14.5004 47.3369 14.3457 47.4032 14.191 47.4474C14.0584 47.4695 13.9257 47.4916 13.7931 47.5137C13.6605 47.5579 13.5279 47.5801 13.3952 47.5801C13.2405 47.6022 13.0968 47.6243 12.9642 47.6464C12.8316 47.6464 12.6989 47.6464 12.5663 47.6464H3.18302C3.16092 47.6464 3.13882 47.6464 3.11671 47.6464C3.09461 47.6685 3.0725 47.6795 3.0504 47.6795C3.02829 47.6795 3.00619 47.6685 2.98408 47.6464C2.96198 47.6464 2.92882 47.6464 2.88462 47.6464C2.84041 47.6464 2.7962 47.6464 2.75199 47.6464C2.70778 47.6464 2.66357 47.6353 2.61936 47.6132C2.55305 47.6132 2.49779 47.6022 2.45358 47.5801C2.40937 47.5801 2.36516 47.569 2.32096 47.5469C2.23254 47.5248 2.14412 47.4916 2.0557 47.4474C1.79045 47.3369 1.5473 47.1932 1.32626 47.0164C1.10522 46.8175 0.906278 46.5964 0.729443 46.3533C0.574713 46.1101 0.453139 45.8559 0.364722 45.5907C0.298409 45.3033 0.265252 45.0159 0.265252 44.7286H11.1737C11.2401 44.7286 11.3064 44.7286 11.3727 44.7286C11.439 44.7286 11.5164 44.7175 11.6048 44.6954C11.6711 44.6954 11.7374 44.6844 11.8037 44.6623C11.87 44.6402 11.9363 44.6181 12.0027 44.596C12.0248 44.596 12.0358 44.596 12.0358 44.596C12.0579 44.5739 12.08 44.5628 12.1021 44.5628C12.1242 44.5407 12.1463 44.5297 12.1684 44.5297C12.1684 44.5297 12.1795 44.5186 12.2016 44.4965C12.2679 44.4523 12.3232 44.4191 12.3674 44.397C12.4116 44.3528 12.4558 44.2976 12.5 44.2312C12.5442 44.187 12.5884 44.1428 12.6326 44.0986C12.6768 44.0323 12.71 43.977 12.7321 43.9328C12.7763 43.8886 12.8095 43.8444 12.8316 43.8002C12.8316 43.7339 12.8426 43.6786 12.8647 43.6344C12.8868 43.5902 12.9089 43.546 12.931 43.5018C12.931 43.4355 12.931 43.3802 12.931 43.336C12.9642 43.3029 12.931 43.336 12.9642 43.2365C12.9973 43.1039 12.9973 42.9713 12.9973 42.9381C12.9973 42.905 12.9973 42.9381 12.9973 42.8387C12.9973 42.7503 12.9973 42.6729 12.9973 42.6066C12.9973 42.5624 12.9973 42.5182 12.9973 42.474C12.9973 42.4076 12.9973 42.3524 12.9973 42.3082C12.9973 42.264 12.9863 42.2197 12.9642 42.1755C12.9642 42.1313 12.9531 42.0871 12.931 42.0429C12.931 41.9766 12.92 41.9213 12.8979 41.8771C12.8979 41.8108 12.8868 41.7556 12.8647 41.7114C12.8426 41.6671 12.8095 41.6229 12.7653 41.5787C12.7431 41.5345 12.721 41.4903 12.6989 41.4461C12.6768 41.4019 12.6547 41.3687 12.6326 41.3466C12.6105 41.3245 12.5884 41.3024 12.5663 41.2803C12.5663 41.2582 12.5553 41.2361 12.5332 41.214C12.5111 41.1919 12.4889 41.1698 12.4668 41.1477C12.4447 41.1256 12.4337 41.1145 12.4337 41.1145C12.4116 41.0924 12.3895 41.0814 12.3674 41.0814C12.3674 41.0593 12.3563 41.0482 12.3342 41.0482C12.3342 41.0261 12.3232 41.0151 12.3011 41.0151L12.1353 40.8824C12.1132 40.8603 12.0911 40.8493 12.069 40.8493C12.0469 40.8272 12.0358 40.8161 12.0358 40.8161C12.0137 40.794 11.9916 40.783 11.9695 40.783C11.9474 40.7609 11.9253 40.7498 11.9032 40.7498C11.8369 40.7056 11.7706 40.6724 11.7042 40.6503C11.6379 40.6061 11.5716 40.573 11.5053 40.5509C11.439 40.5288 11.3727 40.5067 11.3064 40.4846C11.2401 40.4625 11.1737 40.4404 11.1074 40.4182L3.34881 37.9647C3.3267 37.9647 3.29355 37.9536 3.24934 37.9315C3.22723 37.9315 3.19408 37.9205 3.14987 37.8984C3.12776 37.8984 3.10566 37.8873 3.08355 37.8652C3.03935 37.8652 3.00619 37.8541 2.98408 37.832C2.91777 37.8099 2.86251 37.7878 2.8183 37.7657C2.75199 37.7436 2.69673 37.7215 2.65252 37.6994C2.60831 37.6773 2.55305 37.6552 2.48674 37.6331C2.44253 37.611 2.38727 37.5778 2.32096 37.5336C2.27675 37.5115 2.22149 37.4784 2.15517 37.4342C2.08886 37.4121 2.0336 37.3789 1.98939 37.3347C1.92308 37.3126 1.85676 37.2794 1.79045 37.2352C1.74624 37.191 1.69098 37.1468 1.62467 37.1026C1.58046 37.0805 1.5252 37.0363 1.45889 36.97C1.39257 36.9258 1.33731 36.8816 1.2931 36.8373C1.22679 36.7931 1.17153 36.7379 1.12732 36.6716C1.08311 36.6052 1.0389 36.55 0.994695 36.5058C0.928382 36.4395 0.873121 36.3732 0.828912 36.3068C0.762599 36.2405 0.707339 36.1742 0.66313 36.1079C0.618921 36.0416 0.574713 35.9753 0.530504 35.909C0.486295 35.8205 0.453139 35.7432 0.431034 35.6769C0.364721 35.5 0.309461 35.3343 0.265252 35.1795C0.243148 35.1353 0.221043 35.0911 0.198939 35.0469C0.198939 35.0027 0.187887 34.9585 0.165782 34.9143C0.165782 34.8922 0.15473 34.859 0.132626 34.8148C0.132626 34.7706 0.132626 34.7264 0.132626 34.6822C0.110522 34.6159 0.0884173 34.5495 0.066313 34.4832C0.066313 34.439 0.0552608 34.3838 0.0331565 34.3175C0.0331565 34.2511 0.0331565 34.1848 0.0331565 34.1185C0.0110522 34.0522 0 33.9859 0 33.9196C0 33.8533 0 33.7869 0 33.7206C0 33.6322 0 33.5549 0 33.4885C0 33.2454 0 33.0243 0 32.8254C0 32.737 0 32.6596 0 32.5933C0 32.527 0 32.4496 0 32.3612C0.0221043 32.2949 0.0331565 32.2286 0.0331565 32.1623C0.0331565 32.0739 0.0442087 31.9965 0.066313 31.9302C0.066313 31.7644 0.0994695 31.5986 0.132626 31.4328C0.15473 31.256 0.176835 31.0902 0.198939 30.9355C0.243148 30.7808 0.298409 30.626 0.364722 30.4713C0.431035 30.2945 0.5084 30.1397 0.596817 30.0071C0.685234 29.8524 0.784704 29.7087 0.895226 29.5761C1.00575 29.4434 1.12732 29.3219 1.25995 29.2114C1.34836 29.1229 1.43678 29.0456 1.5252 28.9793C1.61362 28.9129 1.71309 28.8466 1.82361 28.7803C1.91202 28.714 2.01149 28.6477 2.12202 28.5814C2.23254 28.5372 2.34306 28.493 2.45358 28.4488C2.49779 28.4266 2.53095 28.4156 2.55305 28.4156C2.59726 28.3935 2.64147 28.3714 2.68568 28.3493C2.70778 28.3493 2.74094 28.3493 2.78515 28.3493C2.80725 28.3272 2.84041 28.3161 2.88462 28.3161C3.01724 28.2719 3.14987 28.2498 3.28249 28.2498C3.41512 28.2277 3.54775 28.2056 3.68037 28.1835C3.813 28.1614 3.94562 28.1503 4.07825 28.1503C4.21088 28.1282 4.3435 28.1172 4.47613 28.1172H29.3435C29.3656 28.1172 29.3988 28.1172 29.443 28.1172C29.4651 28.1172 29.4982 28.1282 29.5424 28.1503C29.5645 28.1503 29.5977 28.1503 29.6419 28.1503C29.664 28.1503 29.6972 28.1503 29.7414 28.1503H29.8408C29.863 28.1724 29.8961 28.1835 29.9403 28.1835C29.9624 28.1835 29.9956 28.1835 30.0398 28.1835C30.0619 28.2056 30.084 28.2167 30.1061 28.2167C30.1503 28.2388 30.1835 28.2498 30.2056 28.2498C30.3382 28.294 30.4598 28.3382 30.5703 28.3824L30.6366 28.4156C30.6808 28.4377 30.714 28.4598 30.7361 28.4819C30.7582 28.4819 30.7803 28.493 30.8024 28.5151C30.8466 28.5372 30.8798 28.5593 30.9019 28.5814C30.924 28.5814 30.9461 28.5924 30.9682 28.6145C30.9903 28.6366 31.0234 28.6587 31.0676 28.6808C31.0897 28.703 31.1118 28.7251 31.134 28.7472C31.1561 28.7693 31.1782 28.7803 31.2003 28.7803C31.2224 28.8024 31.2445 28.8245 31.2666 28.8466L31.3329 28.9129C31.3771 28.9572 31.4213 29.0014 31.4655 29.0456C31.5097 29.0898 31.5539 29.145 31.5981 29.2114C31.6424 29.2556 31.6866 29.2998 31.7308 29.344C31.7529 29.4103 31.786 29.4656 31.8302 29.5098L31.8634 29.5761C31.8855 29.5982 31.9076 29.6203 31.9297 29.6424C31.9297 29.6866 31.9408 29.7197 31.9629 29.7419C31.985 29.764 31.996 29.7971 31.996 29.8413C32.0181 29.8634 32.0292 29.8966 32.0292 29.9408L32.0955 29.775C32.0955 29.7308 32.1065 29.6866 32.1286 29.6424C32.1508 29.5982 32.1729 29.565 32.195 29.5429C32.195 29.4987 32.206 29.4545 32.2281 29.4103C32.2502 29.3661 32.2723 29.3219 32.2944 29.2777C32.3165 29.2556 32.3386 29.2224 32.3607 29.1782C32.3828 29.134 32.405 29.1008 32.4271 29.0787C32.4492 29.0345 32.4713 29.0014 32.4934 28.9793C32.5155 28.935 32.5486 28.9019 32.5928 28.8798C32.6592 28.7914 32.7365 28.714 32.8249 28.6477C32.9134 28.5814 33.0018 28.5151 33.0902 28.4488C33.1786 28.4045 33.2781 28.3603 33.3886 28.3161C33.4991 28.2719 33.6096 28.2388 33.7202 28.2167C33.8086 28.2167 33.908 28.2056 34.0186 28.1835C34.1291 28.1614 34.2286 28.1503 34.317 28.1503C34.4275 28.1503 34.527 28.1393 34.6154 28.1172C34.7259 28.1172 34.8364 28.1172 34.9469 28.1172H44.5955C44.6176 28.1172 44.6397 28.1172 44.6618 28.1172C44.6839 28.1172 44.7171 28.1172 44.7613 28.1172C44.7834 28.1172 44.8055 28.1172 44.8276 28.1172C44.8497 28.1172 44.8828 28.1172 44.9271 28.1172C44.9492 28.1172 44.9602 28.1172 44.9602 28.1172C44.9602 28.1172 44.9713 28.1172 44.9934 28.1172L45.2255 28.1503L45.3249 28.1835L45.5239 28.2498L45.6233 28.283L45.8554 28.3493L45.9218 28.4156L46.1207 28.5151L46.2202 28.5814C46.2202 28.5814 46.2312 28.5924 46.2533 28.6145C46.2754 28.6145 46.2975 28.6256 46.3196 28.6477C46.3417 28.6477 46.3638 28.6587 46.3859 28.6808C46.3859 28.703 46.397 28.714 46.4191 28.714H46.4523C46.4744 28.7361 46.4965 28.7582 46.5186 28.7803C46.5407 28.7803 46.5628 28.7914 46.5849 28.8135C46.607 28.8356 46.6291 28.8577 46.6512 28.8798C46.6512 28.9019 46.6622 28.924 46.6844 28.9461C46.7065 28.9461 46.7286 28.9572 46.7507 28.9793C46.7728 29.0014 46.7949 29.0235 46.817 29.0456C46.817 29.0677 46.828 29.0898 46.8501 29.1119C46.8722 29.134 46.8943 29.1561 46.9164 29.1782V29.2114C46.9385 29.2335 46.9496 29.2556 46.9496 29.2777C46.9717 29.2998 46.9938 29.3219 47.0159 29.344C47.038 29.3661 47.0601 29.3992 47.0822 29.4434C47.0822 29.4656 47.0933 29.4877 47.1154 29.5098C47.1596 29.5982 47.2038 29.6755 47.248 29.7419C47.2922 29.8303 47.3254 29.9187 47.3475 30.0071C47.3917 30.0734 47.4248 30.1508 47.447 30.2392C47.4691 30.3276 47.4801 30.416 47.4801 30.5045C47.5022 30.615 47.5133 30.7144 47.5133 30.8029C47.5133 30.8692 47.5133 30.9355 47.5133 31.0018H36.6379C36.5716 31.035 36.4721 31.035 36.4058 31.035C36.3616 31.035 36.3285 31.046 36.3064 31.0681C36.2622 31.0681 36.229 31.0792 36.2069 31.1013C36.1627 31.1013 36.1295 31.1123 36.1074 31.1344C36.0632 31.1565 36.0301 31.1786 36.008 31.2007L35.9085 31.2671C35.9085 31.2892 35.8974 31.3002 35.8753 31.3002C35.8753 31.3002 35.8753 31.3113 35.8753 31.3334C35.8532 31.3334 35.8422 31.3444 35.8422 31.3665C35.8201 31.3665 35.809 31.3776 35.809 31.3997C35.7869 31.4218 35.7648 31.4439 35.7427 31.466C35.7427 31.4881 35.7317 31.5213 35.7095 31.5655C35.6874 31.5876 35.6764 31.6207 35.6764 31.6649C35.6543 31.687 35.6432 31.7091 35.6432 31.7312C35.6432 31.7755 35.6432 31.8197 35.6432 31.8639C35.6211 31.9081 35.6101 31.9523 35.6101 31.9965C35.6101 32.0407 35.6101 32.0849 35.6101 32.1291C35.6101 32.1733 35.6101 32.2065 35.6101 32.2286V36.2074H44.2308V39.1583H35.6101V43.7339C35.6101 43.8002 35.6101 43.8776 35.6101 43.966C35.6322 44.0323 35.6543 44.0986 35.6764 44.1649C35.6985 44.2312 35.7206 44.2865 35.7427 44.3307C35.7869 44.397 35.8311 44.4523 35.8753 44.4965C35.8974 44.4965 35.9085 44.4965 35.9085 44.4965C35.9085 44.4965 35.9085 44.5076 35.9085 44.5297C35.9085 44.5297 35.9195 44.5297 35.9416 44.5297C35.9637 44.5518 35.9969 44.5739 36.0411 44.596C36.0853 44.6181 36.1185 44.6402 36.1406 44.6623C36.1848 44.6623 36.229 44.6733 36.2732 44.6954C36.2953 44.6954 36.3285 44.6954 36.3727 44.6954C36.439 44.7175 36.5053 44.7286 36.5716 44.7286C36.6379 44.7286 36.7042 44.7286 36.7706 44.7286C36.8369 44.7507 36.9032 44.7617 36.9695 44.7617C37.0137 44.7617 37.069 44.7617 37.1353 44.7617H47.6127C47.6127 44.8502 47.6127 44.9496 47.6127 45.0602ZM31.8966 44.7617V31.0018H21.618C21.5738 31.0018 21.5407 31.0018 21.5186 31.0018C21.4744 31.0018 21.4302 31.0129 21.3859 31.035C21.3417 31.035 21.2975 31.035 21.2533 31.035C21.2091 31.035 21.1649 31.046 21.1207 31.0681C21.0765 31.0681 21.0323 31.0792 20.9881 31.1013C20.9439 31.1013 20.8996 31.1123 20.8554 31.1344C20.8112 31.1565 20.7781 31.1786 20.756 31.2007C20.7118 31.2228 20.6676 31.256 20.6233 31.3002C20.6233 31.3002 20.6233 31.3113 20.6233 31.3334C20.6012 31.3334 20.5902 31.3334 20.5902 31.3334C20.5681 31.3555 20.557 31.3665 20.557 31.3665C20.557 31.3886 20.546 31.3997 20.5239 31.3997C20.5018 31.4218 20.4907 31.4549 20.4907 31.4991C20.4686 31.5213 20.4465 31.5434 20.4244 31.5655C20.4244 31.6097 20.4134 31.6428 20.3912 31.6649C20.3912 31.7091 20.3802 31.7423 20.3581 31.7644C20.3249 31.8639 20.3249 31.9302 20.3249 31.9965C20.3249 32.096 20.3249 36.1411 20.3249 36.2074H28.9788V39.1583H20.3249V43.7339C20.3249 43.8002 20.336 43.8555 20.3581 43.8997C20.3581 43.9439 20.3581 43.9881 20.3581 44.0323C20.3802 44.0986 20.4023 44.1539 20.4244 44.1981C20.4465 44.2423 20.4686 44.2865 20.4907 44.3307C20.4907 44.3528 20.5018 44.3639 20.5239 44.3639C20.5239 44.386 20.5349 44.4081 20.557 44.4302C20.557 44.4523 20.5681 44.4633 20.5902 44.4633C20.6123 44.4854 20.6233 44.5076 20.6233 44.5297C20.6454 44.5297 20.6565 44.5297 20.6565 44.5297C20.6786 44.5518 20.6897 44.5628 20.6897 44.5628C20.7118 44.5628 20.7228 44.5739 20.7228 44.596C20.7449 44.596 20.756 44.596 20.756 44.596C20.7781 44.6181 20.8002 44.6291 20.8223 44.6291C20.8665 44.6512 20.8996 44.6623 20.9218 44.6623C20.9439 44.6844 20.966 44.6954 20.9881 44.6954C21.0102 44.6954 21.0323 44.6954 21.0544 44.6954C21.0765 44.6954 21.0875 44.6954 21.0875 44.6954C21.0875 44.6954 21.0986 44.6954 21.1207 44.6954C21.187 44.7175 21.2533 44.7286 21.3196 44.7286C21.3859 44.7286 21.4523 44.7286 21.5186 44.7286C21.5849 44.7507 21.6512 44.7617 21.7175 44.7617C21.7617 44.7617 21.817 44.7617 21.8833 44.7617H31.8966ZM12.6989 37.4673C13.0305 37.5778 13.34 37.6773 13.6273 37.7657L14.0252 37.9315L14.3899 38.0973C14.5004 38.1636 14.611 38.2299 14.7215 38.2962C14.7878 38.3404 14.8541 38.3846 14.9204 38.4289C14.9867 38.4731 15.0531 38.5173 15.1194 38.5615C15.1857 38.6057 15.252 38.6499 15.3183 38.6941C15.3846 38.7604 15.4509 38.8157 15.5172 38.8599C15.5393 38.882 15.5615 38.9041 15.5836 38.9262C15.5836 38.9483 15.5946 38.9594 15.6167 38.9594C15.6388 38.9815 15.6609 39.0036 15.683 39.0257C15.7051 39.0478 15.7162 39.0699 15.7162 39.092C15.7825 39.1362 15.8378 39.1915 15.882 39.2578C15.9262 39.302 15.9704 39.3572 16.0146 39.4236C16.0367 39.4899 16.0698 39.5562 16.1141 39.6225C16.1583 39.6888 16.1914 39.7551 16.2135 39.8214C16.2577 39.8877 16.3019 39.9651 16.3462 40.0535C16.3683 40.1198 16.3904 40.1862 16.4125 40.2525C16.4346 40.3188 16.4567 40.3851 16.4788 40.4514C16.5009 40.5177 16.523 40.584 16.5451 40.6503C16.5672 40.7167 16.5893 40.783 16.6114 40.8493C16.6114 40.9488 16.6777 41.0151 16.6777 41.1145V31.035H5.73607C5.69187 31.035 5.6366 31.035 5.57029 31.035C5.50398 31.035 5.43767 31.046 5.37135 31.0681C5.30504 31.0681 5.23873 31.0681 5.17241 31.0681C5.1061 31.0681 5.03979 31.0792 4.97347 31.1013C4.90716 31.1013 4.8298 31.1123 4.74138 31.1344C4.67507 31.1565 4.60875 31.1897 4.54244 31.2339C4.49823 31.256 4.44297 31.2892 4.37666 31.3334C4.31034 31.3776 4.25508 31.4218 4.21088 31.466C4.18877 31.4881 4.17772 31.4991 4.17772 31.4991C4.15561 31.5213 4.13351 31.5434 4.11141 31.5655C4.11141 31.5655 4.10035 31.5765 4.07825 31.5986C4.07825 31.6207 4.0672 31.6318 4.04509 31.6318C4.00088 31.676 3.96773 31.7312 3.94562 31.7976C3.92352 31.8418 3.90141 31.886 3.87931 31.9302C3.85721 31.9744 3.8351 32.0297 3.813 32.096C3.79089 32.1402 3.77984 32.1954 3.77984 32.2617C3.75774 32.3281 3.74668 32.3833 3.74668 32.4275C3.74668 32.4938 3.73563 32.5602 3.71353 32.6265C3.71353 32.6928 3.71353 32.748 3.71353 32.7923C3.71353 32.8586 3.71353 32.9249 3.71353 32.9912C3.71353 33.0354 3.71353 33.0796 3.71353 33.1238C3.71353 33.168 3.71353 33.2122 3.71353 33.2564C3.73563 33.3228 3.74668 33.378 3.74668 33.4222C3.74668 33.4664 3.75774 33.5106 3.77984 33.5549C3.77984 33.6212 3.79089 33.6764 3.813 33.7206C3.8351 33.7869 3.85721 33.8422 3.87931 33.8864C3.90141 33.9527 3.92352 34.008 3.94562 34.0522C3.96773 34.1185 3.98983 34.1738 4.01194 34.218C4.03404 34.2622 4.0672 34.2953 4.11141 34.3175C4.13351 34.3617 4.15561 34.4059 4.17772 34.4501C4.22193 34.4722 4.25508 34.5053 4.27719 34.5495C4.3214 34.5717 4.35455 34.5938 4.37666 34.6159C4.42087 34.638 4.45402 34.6601 4.47613 34.6822C4.49823 34.7043 4.53139 34.7264 4.5756 34.7485C4.5977 34.7706 4.63086 34.7927 4.67507 34.8148C4.69717 34.8369 4.73033 34.859 4.77454 34.8811C4.81874 34.9032 4.87401 34.9364 4.94032 34.9806C5.00663 35.0027 5.07294 35.0248 5.13926 35.0469C5.20557 35.069 5.27188 35.1022 5.3382 35.1464C5.40451 35.1685 5.47082 35.1906 5.53714 35.2127L12.6989 37.4673Z" fill="#028998"/>
<path d="M84.549 50.8293C81.9628 60.7099 75.2652 69.0653 66.1471 73.7736C57.0623 78.4818 46.3859 79.1118 36.7705 75.5309C27.1551 71.95 19.5291 64.4897 15.7493 54.9407C20.6564 62.4672 28.183 67.9049 36.9031 70.1927C45.5901 72.4805 54.8408 71.4526 62.8315 67.3412C70.7891 63.1967 76.9562 56.2669 80.106 47.8452C83.2559 39.4234 83.1896 30.1396 79.8739 21.7842C85.4774 30.3717 87.1684 40.9155 84.549 50.8293Z" fill="#99CFD6"/>
</g>
</g>
<mask id="mask2_8_16088" style="mask-type:luminance" maskUnits="userSpaceOnUse" x="116" y="12" width="384" height="61">
<path d="M116.071 12.2217H500V72.3841H116.071V12.2217Z" fill="white"/>
</mask>
<g mask="url(#mask2_8_16088)">
<mask id="mask3_8_16088" style="mask-type:luminance" maskUnits="userSpaceOnUse" x="116" y="12" width="384" height="61">
<path d="M116.071 12.2217H500V72.3841H116.071V12.2217Z" fill="white"/>
</mask>
<g mask="url(#mask3_8_16088)">
<path fill-rule="evenodd" clip-rule="evenodd" d="M493.8 12.3348C494.065 12.3348 494.33 12.3569 494.596 12.4011C494.861 12.4232 495.115 12.4674 495.358 12.5338C495.623 12.6001 495.878 12.6885 496.121 12.799C496.364 12.8874 496.607 12.998 496.85 13.1306C497.093 13.2632 497.325 13.4069 497.546 13.5616C497.768 13.7384 497.978 13.9263 498.176 14.1253C498.375 14.3021 498.552 14.501 498.707 14.7221C498.884 14.9431 499.039 15.1752 499.171 15.4184C499.436 15.9047 499.635 16.402 499.768 16.9104C499.923 17.4409 500 17.9825 500 18.5351C500 19.0656 499.923 19.5961 499.768 20.1266C499.635 20.6571 499.436 21.1544 499.171 21.6186C499.039 21.8618 498.884 22.0939 498.707 22.3149C498.552 22.536 498.375 22.746 498.176 22.9449C497.978 23.1217 497.768 23.2986 497.546 23.4754C497.348 23.6301 497.126 23.7738 496.883 23.9064C496.397 24.1717 495.9 24.3817 495.391 24.5364C494.861 24.669 494.319 24.7354 493.767 24.7354C493.236 24.7354 492.706 24.669 492.175 24.5364C491.667 24.3817 491.169 24.1717 490.683 23.9064C490.462 23.7738 490.241 23.6301 490.02 23.4754C489.799 23.3207 489.589 23.1438 489.39 22.9449C489.191 22.746 489.014 22.536 488.859 22.3149C488.683 22.0939 488.528 21.8618 488.395 21.6186C488.13 21.1544 487.931 20.6571 487.798 20.1266C487.644 19.6182 487.566 19.0877 487.566 18.5351C487.566 18.0046 487.644 17.4741 487.798 16.9436C487.931 16.4131 488.13 15.9157 488.395 15.4515C488.528 15.2084 488.683 14.9763 488.859 14.7552C489.014 14.5342 489.191 14.3242 489.39 14.1253C489.589 13.9263 489.799 13.7495 490.02 13.5948C490.241 13.4179 490.473 13.2743 490.716 13.1637C490.959 13.0311 491.203 12.9095 491.446 12.799C491.689 12.7106 491.943 12.6332 492.208 12.5669C492.474 12.5006 492.728 12.4453 492.971 12.4011C493.236 12.3569 493.501 12.3348 493.767 12.3348M493.767 13.3958C493.546 13.3958 493.325 13.4069 493.103 13.429C492.882 13.4511 492.672 13.4953 492.474 13.5616C492.253 13.6058 492.043 13.6721 491.844 13.7606C491.623 13.849 491.424 13.9484 491.247 14.059C491.026 14.1695 490.827 14.2911 490.65 14.4237C490.473 14.5563 490.296 14.7 490.119 14.8547C489.965 15.0315 489.821 15.2084 489.688 15.3852C489.534 15.5621 489.401 15.7499 489.29 15.9489C489.069 16.3468 488.904 16.7667 488.793 17.2088C488.661 17.6509 488.594 18.093 488.594 18.5351C488.594 18.9993 488.661 19.4414 488.793 19.8613C488.904 20.3034 489.069 20.7234 489.29 21.1213C489.401 21.3202 489.534 21.5081 489.688 21.685C489.821 21.8839 489.965 22.0607 490.119 22.2155C490.274 22.3702 490.451 22.5139 490.65 22.6465C490.827 22.8012 491.015 22.9338 491.214 23.0444C491.611 23.2654 492.031 23.4312 492.474 23.5417C492.894 23.6522 493.336 23.7075 493.8 23.7075C494.242 23.7075 494.684 23.6522 495.126 23.5417C495.568 23.4312 495.977 23.2654 496.353 23.0444C496.552 22.9338 496.751 22.8012 496.95 22.6465C497.127 22.5139 497.292 22.3702 497.447 22.2155C497.624 22.0607 497.779 21.8839 497.911 21.685C498.044 21.5081 498.165 21.3202 498.276 21.1213C498.497 20.7234 498.674 20.3034 498.806 19.8613C498.917 19.4414 498.972 18.9993 498.972 18.5351C498.972 18.093 498.917 17.6509 498.806 17.2088C498.674 16.7667 498.497 16.3468 498.276 15.9489C498.165 15.7499 498.044 15.5621 497.911 15.3852C497.779 15.2084 497.624 15.0315 497.447 14.8547C497.292 14.7 497.115 14.5563 496.916 14.4237C496.74 14.2911 496.552 14.1695 496.353 14.059C496.154 13.9484 495.955 13.849 495.756 13.7606C495.535 13.6721 495.325 13.6058 495.126 13.5616C494.905 13.4953 494.684 13.4511 494.463 13.429C494.242 13.4069 494.021 13.3958 493.8 13.3958H493.767ZM491.048 21.9834V15.2857H493.369C493.501 15.2857 493.645 15.2857 493.8 15.2857C493.932 15.2857 494.076 15.2968 494.231 15.3189C494.363 15.341 494.507 15.3631 494.662 15.3852C494.794 15.4073 494.927 15.4405 495.06 15.4847C495.148 15.5068 495.237 15.5399 495.325 15.5842C495.391 15.6284 495.469 15.6836 495.557 15.7499C495.623 15.7941 495.69 15.8494 495.756 15.9157C495.8 15.982 495.855 16.0483 495.922 16.1147C495.966 16.2031 496.01 16.2804 496.054 16.3468C496.077 16.4352 496.11 16.5236 496.154 16.612C496.176 16.6783 496.198 16.7557 496.22 16.8441C496.22 16.9325 496.22 17.0209 496.22 17.1094C496.22 17.242 496.209 17.3636 496.187 17.4741C496.165 17.5846 496.132 17.6951 496.088 17.8056C496.043 17.9162 495.988 18.0267 495.922 18.1372C495.855 18.2256 495.778 18.314 495.69 18.4025C495.601 18.4909 495.502 18.5682 495.391 18.6346C495.281 18.723 495.17 18.7893 495.06 18.8335C494.927 18.8777 494.806 18.9219 494.695 18.9661C494.562 18.9882 494.43 18.9993 494.297 18.9993C494.341 19.0214 494.397 19.0435 494.463 19.0656C494.507 19.0877 494.551 19.1209 494.596 19.1651C494.64 19.1872 494.684 19.2203 494.728 19.2645C494.772 19.2866 494.817 19.3198 494.861 19.364C494.949 19.4524 495.038 19.5519 495.126 19.6624C495.214 19.7729 495.303 19.8835 495.391 19.994C495.48 20.1045 495.557 20.215 495.623 20.3255C495.712 20.4361 495.789 20.5576 495.855 20.6903L496.684 21.9834H495.358L494.761 20.9224C494.695 20.7897 494.618 20.6571 494.529 20.5245C494.441 20.3697 494.352 20.2371 494.264 20.1266C494.176 19.994 494.076 19.8613 493.966 19.7287C493.855 19.6182 493.745 19.5077 493.634 19.3972C493.568 19.3529 493.501 19.3087 493.435 19.2645C493.369 19.2424 493.302 19.2203 493.236 19.1982C493.148 19.1761 493.07 19.1651 493.004 19.1651C492.916 19.143 492.838 19.143 492.772 19.1651H492.142V21.9834H491.048ZM492.109 18.2367H493.435C493.546 18.2367 493.656 18.2367 493.767 18.2367C493.877 18.2367 493.988 18.2256 494.098 18.2035C494.209 18.1814 494.319 18.1483 494.43 18.1041C494.54 18.0598 494.64 18.0046 494.728 17.9383C494.817 17.872 494.894 17.7835 494.96 17.673C495.004 17.5625 495.038 17.452 495.06 17.3415C495.082 17.2309 495.082 17.1204 495.06 17.0099C495.016 16.8773 494.96 16.7667 494.894 16.6783C494.872 16.6341 494.85 16.601 494.828 16.5789C494.783 16.5346 494.739 16.5015 494.695 16.4794C494.673 16.4352 494.64 16.402 494.596 16.3799C494.551 16.3578 494.507 16.3357 494.463 16.3136C494.375 16.2915 494.275 16.2694 494.165 16.2473C494.076 16.2473 493.988 16.2362 493.899 16.2141C493.811 16.2141 493.722 16.2141 493.634 16.2141C493.546 16.2141 493.446 16.2141 493.336 16.2141H492.109V18.2367ZM179.31 52.8189V53.3163C179.31 53.8468 179.321 54.3773 179.344 54.9078C179.366 55.4604 179.41 56.0019 179.476 56.5324C179.52 57.085 179.587 57.6266 179.675 58.1571C179.741 58.6876 179.83 59.2181 179.94 59.7486C181.399 64.8879 185.909 65.551 189.688 65.551H211.406C211.008 67.3083 209.45 72.2818 204.675 72.2818H186.671C181.963 72.2818 176.658 71.8507 173.077 66.7446C170.126 62.4674 169.894 56.3335 169.894 50.3653C169.894 41.7778 170.292 35.7765 175.133 31.5987C180.007 27.421 187.732 27.421 191.91 27.421C197.115 27.421 202.586 27.62 206.731 30.2725C211.074 33.0908 212.964 37.5338 212.964 44.6624C212.964 46.8507 212.865 49.3706 211.008 51.1942C209.914 52.2884 208.488 52.7857 206.432 52.7857L179.31 52.8189ZM200.829 46.055C203.581 46.055 203.581 43.6677 203.581 42.872C203.603 42.2309 203.548 41.612 203.415 41.0152C203.26 40.3963 203.05 39.7995 202.785 39.2247C202.52 38.6721 202.188 38.1527 201.791 37.6664C201.393 37.158 200.951 36.7159 200.464 36.3401C197.712 34.1518 193.966 34.1518 191.512 34.1518H191.048C188.594 34.1518 184.45 34.1518 181.532 37.3348C179.476 39.6558 179.41 42.1094 179.344 44.9277L179.31 46.055H200.829ZM154.476 41.8109C160.577 43.734 163.528 45.6903 164.954 48.807C166.413 51.7247 166.711 55.0404 166.711 57.295C166.711 60.3786 166.413 64.8547 163.826 68.2035C160.875 71.9834 157.195 72.3149 153.415 72.3149H125.133C121.983 72.3149 119.662 71.4529 118.269 69.795C116.645 67.872 116.678 65.2858 116.744 64.2911H149.801C153.946 64.2911 156.035 61.9038 156.035 57.1956C156.035 54.7088 155.338 51.6253 149.801 49.9011L125.895 42.3746C125.033 42.1757 121.121 40.8163 118.999 38.0311C116.346 34.9476 116.015 30.2393 116.015 26.99C116.015 23.3428 116.479 19.1651 119.761 16.1478C122.679 13.2964 126.227 12.9316 129.344 12.9316H155.305C157.825 12.9316 159.848 13.6611 161.273 15.12C163.163 17.0762 163.561 19.8282 163.627 20.9555H133.256C131.466 20.9555 129.609 21.055 128.117 22.4807C126.393 24.0722 126.393 26.6584 126.393 27.5205C126.393 30.1067 127.122 33.0245 132.394 34.8149L154.476 41.8109ZM253.581 31.0019C255.637 33.0576 256.797 36.738 256.797 41.3799V65.12C256.797 66.0815 256.797 68.9661 255.106 70.6239C253.647 72.0828 251.393 72.2818 249.171 72.2818H226.791C224.668 72.2818 221.784 72.2818 219.33 70.1598C215.981 67.2088 215.55 62.169 215.55 58.1239C215.55 54.5099 215.816 50.3653 219.231 47.3812C221.917 45.0603 224.801 44.8613 227.288 44.8613H247.679V41.1147C247.701 40.7168 247.69 40.3079 247.646 39.8879C247.602 39.49 247.513 39.0921 247.381 38.6942C247.27 38.2964 247.115 37.9095 246.917 37.5338C246.74 37.1801 246.519 36.8375 246.253 36.5059C244.728 34.5497 242.606 34.3176 240.948 34.3176H218.966C219.131 32.6266 220.027 27.5868 224.304 27.5868H244.397C248.077 27.5868 251.492 28.9462 253.581 31.0019ZM247.646 51.5921H230.305C228.481 51.5921 227.023 52.2221 226.161 53.3163C225.862 53.7141 224.934 54.8746 224.934 58.5881C224.934 60.246 225.1 62.6664 226.459 64.0258C226.702 64.269 226.967 64.4789 227.255 64.6558C227.542 64.8326 227.84 64.9873 228.15 65.12C228.459 65.2526 228.78 65.3631 229.111 65.4515C229.443 65.5178 229.786 65.551 230.139 65.551H244.231C245.855 65.551 247.679 64.3574 247.679 62.6332L247.646 51.5921ZM483.19 27.4873V34.2181H479.476C476.592 34.2181 472.978 34.616 470.424 37.6001C468.269 40.12 467.971 43.5682 467.971 46.917V66.0152C467.971 71.2871 464.058 72.3812 460.776 72.3812C460.621 72.3812 460.466 72.3812 460.312 72.3812C460.157 72.3591 460.002 72.3481 459.848 72.3481C459.693 72.326 459.538 72.3149 459.383 72.3149C459.229 72.2928 459.074 72.2707 458.919 72.2486V44.2314C458.919 40.0868 459.417 34.8481 463.495 31.3335C467.407 27.8852 473.011 27.4873 476.89 27.4873H483.19ZM286.605 52.8189V53.2831C286.605 53.8357 286.616 54.3773 286.638 54.9078C286.66 55.4604 286.693 56.0019 286.737 56.5324C286.804 57.0629 286.87 57.6045 286.936 58.1571C287.025 58.6876 287.124 59.2181 287.235 59.7486C288.694 64.8879 293.203 65.551 296.95 65.551H318.7C318.302 67.3083 316.711 72.2818 311.97 72.2818H293.932C289.257 72.2818 283.919 71.8507 280.371 66.7115C277.42 62.4674 277.188 56.3335 277.188 50.3653C277.188 41.7778 277.586 35.7765 282.427 31.5987C287.268 27.421 295.027 27.421 299.204 27.421C304.41 27.421 309.848 27.62 314.025 30.2725C318.336 33.0908 320.259 37.5338 320.259 44.6624C320.259 46.8507 320.126 49.3706 318.302 51.1942C317.208 52.2884 315.783 52.7857 313.727 52.7857L286.605 52.8189ZM308.123 46.055C310.875 46.055 310.875 43.6677 310.875 42.872C310.897 42.2309 310.831 41.612 310.676 41.0152C310.544 40.3963 310.345 39.7995 310.08 39.2247C309.814 38.6721 309.483 38.1416 309.085 37.6332C308.687 37.1469 308.245 36.7159 307.759 36.3401C305.007 34.1518 301.26 34.1518 298.806 34.1518H298.342C295.889 34.1518 291.744 34.1518 288.793 37.3348C286.737 39.6558 286.704 42.0762 286.605 44.9277L286.572 46.055H308.123ZM440.252 72.2818H429.377L423.906 58.9197L421.519 52.7526C411.771 57.6266 397.314 58.1571 392.838 58.1903L392.606 58.8202L387.202 72.2818H376.326L398.84 18.734C400.962 13.7606 403.183 12.2354 408.322 12.2354C413.263 12.2354 415.683 13.8932 417.739 18.734L440.252 72.2818ZM418.866 46.0218L410.478 24.6359C409.947 23.1438 409.317 21.7844 408.289 21.7844C407.228 21.7844 406.598 23.1107 406.068 24.6027L395.69 50.929C402.288 50.6306 412.633 49.4369 418.866 46.0218ZM262.467 19.8613C262.765 17.7062 263.893 12.9316 268.236 12.9316H271.519V72.2818H262.467V19.8613ZM356.664 19.8282C356.963 17.7062 358.09 12.9316 362.434 12.9316H365.716V64.7552C365.716 66.5789 365.318 68.9661 364.456 70.1598C362.997 72.0165 360.776 72.2818 358.554 72.2818H340.484C333.554 72.2818 328.946 69.4303 326.359 63.5285C324.901 59.9807 324.171 55.3056 324.171 49.238C324.171 44.5298 324.569 38.5948 327.653 34.185C331.665 28.2831 338.13 27.5868 342.573 27.5868H356.664V19.8282ZM356.698 34.3176H344.596C340.352 34.3176 337.467 35.7102 335.676 38.5948C334.284 40.8494 333.621 44.3308 333.621 49.5696C333.621 54.6757 334.052 58.1903 334.881 60.047C337.367 65.551 342.805 65.551 344.596 65.551H352.686C354.167 65.551 355.172 65.2747 355.703 64.7221C356.565 63.9926 356.664 62.4343 356.664 61.1412L356.698 34.3176ZM452.619 29.3441C452.619 29.3441 452.63 29.3441 452.653 29.3441C452.653 29.322 452.653 29.3109 452.653 29.3109C452.675 29.3109 452.686 29.3109 452.686 29.3109C452.686 29.2888 452.697 29.2778 452.719 29.2778V72.2486H443.634V34.5165L443.866 34.4502L443.932 34.417L444.33 34.2844H444.397L444.828 34.1186L445.292 33.9197L445.756 33.7539C446.154 33.5771 446.541 33.3892 446.917 33.1903C447.314 33.0134 447.701 32.8145 448.077 32.5934C448.453 32.3945 448.817 32.1735 449.171 31.9303C449.547 31.7093 449.912 31.4772 450.265 31.234L450.63 30.9688L450.962 30.7035L451.293 30.4714V30.4383L451.592 30.2062L451.658 30.173L451.923 29.9409L451.956 29.9078C452.045 29.8415 452.133 29.7641 452.222 29.6757L452.288 29.6425L452.52 29.4104L452.586 29.3441H452.619ZM452.586 19.2977V24.0722L452.52 24.1385L452.454 24.2048C452.387 24.2712 452.31 24.3375 452.222 24.4038L452.155 24.4701L451.923 24.669L451.857 24.7354L451.592 24.9674L451.558 25.0006L451.26 25.2327L451.227 25.2659L450.895 25.498L450.564 25.7632C450.453 25.8516 450.332 25.929 450.199 25.9953C449.845 26.2384 449.492 26.4816 449.138 26.7247C448.762 26.9458 448.386 27.1668 448.011 27.3879C447.635 27.5868 447.259 27.7857 446.883 27.9847C446.485 28.1615 446.088 28.3384 445.69 28.5152L445.259 28.7141L444.794 28.9131H444.761L444.33 29.0789H444.297L443.866 29.2115H443.8C443.733 29.2336 443.667 29.2557 443.601 29.2778V19.2977H452.586Z" fill="#008996"/>
</g>
</g>
<path d="M101.923 1.32617V84.549" stroke="#008996" stroke-width="4.5"/>
</svg>
