<svg width="500" height="247" viewBox="0 0 500 247" fill="none" xmlns="http://www.w3.org/2000/svg">
<g clip-path="url(#clip0_8_16084)">
<path d="M43.4359 246.279L42.3409 246.117L41.2662 245.752L40.455 245.306L39.5425 244.515L38.7517 243.46L38.2244 242.365L37.8797 241.128L37.7175 240.236V238.776L37.9811 236.12L38.7922 231.212L40.1509 224.561L41.1851 219.309L41.5095 216.876L41.4081 216.571L40.7187 216.247L37.9405 215.091L34.0066 213.225L29.667 210.63L27.0106 208.866L23.5227 206.209L21.4544 204.344L19.2035 202.113L17.4798 200.247L14.8639 197.185L14.2961 196.435L13.2011 195.036L10.5447 191.305L10.0783 190.534L9.10492 189.094L8.86158 188.912L8.78047 189.034L8.82102 189.946L9.08464 192.501L9.61187 195.989L11.0111 202.174L11.3761 204.567L11.4369 207L11.3558 208.257L11.0922 209.515L10.6663 210.751L10.2405 211.482L9.65243 212.333L8.80075 213.144L7.88823 213.753L7.01626 214.118L6.16458 214.28L5.11011 214.26L4.25843 213.996L3.50813 213.611L2.67672 212.982L2.08866 212.353L1.37892 211.137L0.851685 209.656L0.608346 207.913V205.601L0.811129 203.593L1.7642 198.848L2.87951 194.367L3.22424 192.501L3.38646 191.021L3.46757 190.656L3.73119 188.263L3.79203 183.964L3.65008 181.105L3.54869 180.294L3.46757 178.894L3.02145 176.319L2.85923 175.386L1.8656 171.513L0.953076 167.721L0.243339 162.408L0 158.555L0.0405564 155.615L0.0811129 155.189V153.486L0.162226 151.478L0.243339 150.951L0.365008 149.308L0.871963 145.456L1.54114 141.866L2.29144 138.723L3.38646 135.053L4.2787 132.437L5.90096 128.422L7.50294 125.035L9.40909 121.568L10.5852 119.641L12.6942 116.458L15.1478 113.234L17.0945 110.902L17.5407 110.435L18.1693 109.725L20.6229 107.251L21.1907 106.745L23.4213 104.737L26.605 102.263L28.0245 101.249L29.6468 100.114L29.7684 99.8905L29.7279 99.5863L29.1195 98.5116L28.8153 97.4774L28.572 95.8551L28.6126 94.6587L28.9776 93.0365L29.5454 91.7386L30.4782 90.2178L31.3501 89.1025L33.1346 87.4599L34.0268 86.811L34.1891 86.5677L34.108 86.3244L33.4185 85.7566L32.7088 84.7629L32.3438 83.9924L32.2221 83.4043L32.1815 82.2687L32.3843 81.2345L32.871 80.0178L33.4185 79.1864L34.2296 78.2536L34.9394 77.625L36.2372 76.7733L37.4944 76.2461L39.3397 75.6986L41.2459 75.3944L42.6248 75.3539L44.024 75.3133L44.1457 75.1713L44.0646 74.928L43.6387 74.3197L43.1723 73.3666L42.9695 72.4743L42.9493 71.6227L43.0709 70.9332L43.3954 70.1829L43.8821 69.4326L44.531 68.804L45.5043 68.1956L46.3154 67.9117L46.9441 67.7901H48.3635L49.3572 67.9929L50.9794 68.5606L52.3584 69.2907L53.2506 69.899L54.6903 71.1157L55.7043 72.1702L57.3671 74.3399L58.3201 75.8811L58.9691 77.0775L59.1718 77.3006L59.2529 77.0775L59.1718 75.9216L58.7054 73.326L58.2188 69.6354L57.7929 67.0398L57.1846 64.6875L56.8398 63.7344L56.414 63.1261L55.9679 62.7611L55.4001 62.2744L55.0351 61.6255L54.8526 60.7738L54.7512 59.9627L54.4267 59.4963L53.7981 58.7257L52.8045 57.6104L52.3584 57.3265L51.9325 57.3062L51.2633 57.4887L50.7969 57.4279L50.3305 57.1035L49.6208 56.3329L49.3369 56.2315L49.0124 56.3126L48.2419 56.9412L47.9377 57.0629L47.5524 57.0021L47.0657 56.6776L45.626 55.1973L43.4359 52.2975L41.4487 49.1544L40.5362 47.4307L39.502 45.0582L38.2853 41.7528L37.8189 41.0228L36.3791 39.3195L33.7632 36.6225L30.8229 33.5402L30.1537 33.094L29.6265 32.9115L28.714 32.7493L28.2881 32.506L27.8825 31.8976L27.5986 30.904L27.4364 29.5859L27.477 28.714L27.8623 26.7064L28.2881 25.4289L29.0587 23.6038L30.2551 21.2921L31.776 18.6357L33.236 16.4862L34.7974 14.4584L36.8861 11.9844L37.1497 11.7005L38.7314 10.1188L41.4081 7.74628L42.787 6.67153L44.3485 5.51567L45.8693 4.52204L48.688 2.77812L51.9122 1.29781L54.4673 0.486677L56.4951 0.0608346L58.0971 0L59.4963 0.202782L60.4696 0.506955L60.9766 0.871963L61.2199 1.25725L61.3416 2.00754L61.2199 2.85923L61.301 3.24451L61.7269 3.79203L64.2617 6.67153L65.4986 7.98962L68.2362 11.0111L69.4934 12.2886L70.1423 12.7144L72.0688 13.4445L73.9141 14.3164L75.3539 15.1681L77.6858 16.8106L79.8353 18.5343L82.654 21.2516L83.6274 22.4885L83.8301 22.8738L83.8099 23.2591L83.6071 23.6647L82.9987 24.3744L83.0393 24.6989L83.4043 25.1855L84.1343 26.1792L84.3371 26.7267L84.2763 27.1525L83.9315 27.8217L83.891 28.1056L84.2154 28.6126L85.3713 29.8495L86.0405 30.4173L86.7299 30.8026L87.6627 30.9648L88.1291 31.2487L88.6158 31.999L88.8389 32.5465L88.9605 33.2766L88.8794 34.1282L88.6158 35.0408L88.0886 36.44L86.9935 38.6097L85.5538 41.0837L84.0532 43.2332L82.1065 45.8085L80.2612 47.9377L78.4361 49.9655L75.8811 52.3989L75.293 52.8856L74.7252 53.3925L71.6835 55.8056L69.027 57.6915L68.7229 58.0971L68.6215 58.5838L68.4593 68.8445L68.439 71.0143L68.1956 76.9355L68.2362 77.0775H68.4187L68.804 76.4083L69.2704 75.5161L69.8179 74.6036L70.4668 73.6099L71.5415 72.2716L72.8191 70.8926L73.1638 70.6087L74.1372 69.8382L75.4958 68.9865L76.5503 68.4795L77.9495 68.0537L79.0242 67.8509L80.5045 67.9523L81.3156 68.1754L82.289 68.6215L83.0596 69.1487L83.8707 70.041L84.2965 70.8724L84.621 71.8457L84.6818 72.8596L84.479 73.691L84.1952 74.4008L83.7085 75.1916V75.3133L83.9113 75.3944H85.5943L87.0138 75.6783L88.4536 76.2461L89.2647 76.7328L90.1164 77.5642L90.6031 78.2942L91.0695 79.3284L91.252 80.2003L91.2925 81.0723L91.11 82.0254L90.745 82.7757L90.1975 83.526L89.3864 84.1952L88.5955 84.621L88.5144 84.7832L88.6564 84.9252L89.65 85.3307L90.3394 85.716L91.5764 86.4258L93.7867 88.0886L95.5307 89.8933L96.3418 91.11L96.9096 92.3267L97.234 93.4826L97.3354 94.3748L97.3152 95.5104L97.0921 96.646L96.6257 97.7613L96.0376 98.6738L95.9565 98.9577L96.0579 99.201L101.756 103.115L104.23 105.021L105.69 106.278L106.684 107.069L109.34 109.624L111.571 112.118L113.092 113.882L114.795 116.012L116.336 118.181L118.384 121.365L121.223 126.354L123.21 130.734L124.204 133.41L124.447 134.1L124.914 135.458L125.035 135.925L125.907 138.784L126.049 139.433L126.678 142.191L127.408 146.814L127.793 150.363L128.037 154.479L128.016 158.941L127.692 165.004L127.327 168.411L127.104 169.891L126.739 172.04L126.536 173.399L126.07 176.238L125.907 178.631V179.361L125.887 179.766L125.907 184.471L126.07 186.661L126.151 187.695L126.131 187.999L126.232 189.399L126.171 190.656L126.252 191.041L126.131 191.406L125.725 195.076L125.36 197.125L124.853 199.538L124.691 200.085L123.961 202.66L123.109 205.195L122.724 206.412L122.521 206.594H122.176L121.953 206.371L121.669 205.479L121.162 202.539L120.27 199.112L118.303 192.156L118.121 190.433L118.019 190.291H117.938L117.695 190.575L116.863 191.974L114.612 195.137L112.341 197.956L111.145 199.315L107.941 202.559L107.008 203.431L104.737 205.439L102.892 206.959L100.255 208.947L96.8893 211.177L93.9084 212.942L90.8261 214.503L87.2977 216.024L83.9721 217.18L80.6667 218.153L78.0103 218.822L74.056 219.593L69.8179 220.14L66.3503 220.444L60.8955 220.404L59.0907 220.262L58.0971 220.221L53.4534 219.654L48.7083 218.68L45.6665 217.889L45.5246 218.011L45.4638 218.173L45.5043 219.106L45.626 219.836L45.9707 222.128L48.181 233.017L48.4852 235.085L48.7691 236.951L48.8502 239.749L48.7691 241.067L48.4447 242.487L47.8363 243.805L47.1063 244.738L46.3154 245.448L45.5854 245.853L44.531 246.178L43.4359 246.279Z" fill="#005FAA"/>
<path d="M43.7604 243.44L42.9493 243.419L42.0368 243.135L41.3676 242.71L40.7795 241.98L40.3131 241.006L40.009 239.627L39.9279 238.512L40.1915 235.754L40.597 233.28L41.0026 231.232L41.0634 230.705L41.6921 227.582L42.3815 223.506L42.4829 222.837L42.7465 221.62L43.294 218.558L43.3752 218.437L43.4968 218.619L43.7807 220.586L44.2471 223.932L45.7274 231.536L45.9099 232.773L46.3155 235.267L46.5183 237.417L46.5588 239.161L46.3561 240.702L46.0113 241.756L45.5044 242.507L44.9569 242.993L44.1457 243.358L43.7604 243.44Z" fill="#E63329"/>
<path d="M121.466 239.222L120.209 239.06L119.276 238.776L118.486 238.289L117.654 237.539L117.026 236.566L116.64 235.694L116.397 234.68L116.296 233.22L116.336 232.794L116.296 232.47L116.498 230.442L117.208 227.035L118.019 223.993L118.465 222.513L119.074 220.323L120.371 215.882L121.406 211.238L121.913 208.237L122.055 207.994L122.257 207.872L122.46 207.933L122.602 208.156L122.744 208.886L122.845 210.387L123.028 212.678L123.292 214.706L123.393 215.72L123.92 218.822L124.103 219.998L124.853 223.486L125.907 228.678L126.151 231.172L126.212 233.078L126.09 234.599L125.786 235.653L125.299 236.728L124.772 237.478L124.163 238.168L123.535 238.614L122.744 238.999L121.933 239.202L121.466 239.222Z" fill="#005FAA"/>
<path d="M15.9793 237.356L14.6206 237.316L13.4851 237.052L12.4103 236.525L11.7006 235.957L11.072 235.288L10.4433 234.254L10.0783 233.301L9.79443 232.186L9.6322 230.482L9.65248 229.103L10.0175 226.386L10.8286 222.351L11.6803 218.66L12.3292 216.064L12.7753 213.996L13.0795 212.678L13.404 211.015L14.499 205.864L15.229 201.241L15.3101 200.288L15.4926 199.963L15.6751 199.923L15.8779 200.004L15.9793 200.369L16.3443 203.33L17.0946 207.852L18.6155 215.091L19.3252 218.011L19.386 218.376L19.6902 219.735L20.1972 222.371L20.5419 224.013L20.988 227.298L21.1097 229.468L21.0286 231.273L20.7649 232.713L20.2985 234.051L19.9133 234.801L19.2846 235.633L18.8588 236.059L18.656 236.261L17.4799 236.951L16.5471 237.255L15.9793 237.356Z" fill="#005FAA"/>
<path d="M121.426 236.546L120.595 236.485L120.067 236.262L119.439 235.694L119.074 235.167L118.729 234.173L118.567 233.301V231.578L118.77 230.057L118.972 229.164L119.155 227.948L120.108 223.953L120.939 220.931L121.73 217.18L121.872 217.038L122.055 217.728L122.379 220.384L122.947 224.663L123.251 226.528L123.859 231.152L123.9 232.368L123.859 232.652V233.139L123.697 234.072L123.393 234.964L122.886 235.735L122.237 236.242L121.426 236.546Z" fill="#E63329"/>
<path d="M15.3101 234.558L14.5193 234.517L13.8704 234.315L13.2215 233.909L12.6131 233.26L12.1873 232.51L11.8223 231.415L11.6803 230.685L11.66 229.427L12.0048 226.933L12.8564 223.04L14.2354 217.747L15.8373 210.447L15.9185 210.346L16.0401 210.65L16.3443 213.57L16.7904 216.226L16.9121 217.159L17.7638 221.681L18.0477 223.75L18.2302 224.966L18.4532 227.42V229.671L18.1085 231.597L17.8043 232.449L17.3177 233.301L16.689 233.95L15.9793 234.396L15.3101 234.558Z" fill="#E63329"/>
<path d="M67.2628 218.559L66.6139 218.457L65.2958 218.032L64.8903 217.748L64.6064 217.322L64.4036 216.693L64.0994 215.923L63.775 215.639L63.3288 215.375L63.0449 215.01L62.903 213.388L62.8422 211.826L62.6799 210.265L62.761 210.022L63.3086 209.839L63.9372 209.778H64.8294L64.9916 209.88L64.728 210.589L64.7686 211.745L64.8903 212.07L65.4783 212.84L65.9244 213.084L66.4111 213.145L66.7761 213.003L67.3845 212.374L67.6887 212.252L68.3578 212.07L68.4795 212.131L68.4998 212.536V212.881L68.7431 213.51L69.0067 214.057L68.9459 214.564L68.8851 214.949L69.0676 215.537L69.4731 216.125L69.4934 216.511L69.2501 217.16L68.8648 217.788L68.6012 218.113L68.2767 218.295L67.5873 218.478L67.2628 218.559Z" fill="white"/>
<path d="M56.191 218.518L55.684 218.498L55.1162 218.376L54.5484 218.315L54.4268 218.214L54.812 218.011L56.6776 217.322L57.3265 217.017L57.6916 216.592L58.0566 215.922L58.381 215.72L59.0907 215.618L59.6383 215.638L59.7194 215.74L59.6585 215.922L59.4355 216.064L58.6649 216.308L58.4824 216.551L58.2593 217.322L57.9754 217.687L56.191 218.518Z" fill="white"/>
<path d="M60.4696 215.05L60.1046 215.03L60.0032 214.625L59.9626 213.753L60.0843 212.435L60.0235 211.705L60.064 211.299L60.2263 210.508L60.3479 210.123L60.5507 210.021H61.4632L61.6863 210.163L61.808 210.589L62.0513 212.637L62.0919 214.341L61.9702 214.625L61.7471 214.746L60.4696 215.05Z" fill="white"/>
<path d="M76.5705 212.678L75.9419 212.617L75.293 212.333L74.6441 211.745L74.2994 211.157L73.7924 209.879L73.5693 208.298L73.5491 206.878L73.7519 204.262L74.2182 201.768L74.4616 200.998L74.5022 200.633L74.7049 199.801L75.1916 197.794L75.3538 197.023L76.1852 193.15L76.4489 191.487L76.5502 191.467L76.6922 191.933L76.9558 193.677L77.4222 196.029L77.9697 198.382L78.355 199.7L78.862 201.626L79.3284 204.262L79.4906 206.128L79.4297 208.521L79.1661 209.839L78.72 211.015L78.2536 211.745L77.6858 212.232L77.0369 212.556L76.5705 212.678Z" fill="#E63329"/>
<path d="M6.34711 211.198L5.71848 211.178L5.19125 210.955L4.46124 210.387L3.89344 209.596L3.52844 208.785L3.26482 207.548L3.16343 206.209L3.18371 204.465L3.56899 201.728L4.60318 196.881L5.17097 194.164L5.27236 193.536L5.55626 191.589L5.69821 190.433L5.81988 189.845L6.02266 187.371V183.153L5.73876 180.355L5.06958 176.238L4.19762 171.229L3.77178 168.857L2.73759 161.638L2.51453 158.454L2.67675 151.56L3.56899 144.685L4.27873 141.197L4.98847 138.419L6.08349 134.911L7.36102 131.423L9.34829 126.922L11.3558 123.17L14.0123 118.932L15.7359 116.519L18.0071 113.72L20.481 111.003L23.1375 108.347L25.9764 105.934L28.1867 104.271L30.539 102.689L31.4515 102.101L31.6746 101.817L31.9585 101.777L32.3235 101.655L32.7899 101.695L33.8038 101.919L34.9394 101.878L35.8722 101.675L36.8861 101.249L37.9 100.621L38.8531 99.8299L39.2789 99.4243L39.5628 99.4446L39.7656 99.7488L40.2117 100.377L40.6578 100.803L41.3879 101.209L42.2396 101.533L42.6248 101.594L43.9024 101.554L44.7946 101.29L45.5449 100.864L46.4169 100.195L48.0188 98.4915L50.4725 95.4903L51.2836 94.8212L52.0948 94.3345L52.9262 94.01L53.6562 93.787L53.8184 93.5639L53.7576 93.3003L53.2506 93.1178L52.7437 93.0975L51.7095 93.2597L50.7767 93.6247L49.8642 94.152L48.9922 94.8617L46.8427 97.072L46.2141 97.7818L45.261 98.5321L44.6324 98.7754L43.8415 98.8363L43.0304 98.6335L42.5843 98.3496L42.2193 97.9035L41.9759 97.1126L41.9557 96.4231L42.2193 95.2876L42.8682 93.9898L43.7199 92.9556L44.5918 92.1242L45.6868 91.3536L46.8833 90.7452L48.6272 90.1166L50.0061 89.8327L52.115 89.7111L54.1834 89.9341L55.6232 90.2991L57.9754 91.2522L59.0502 91.8403L60.5102 93.0164L60.8955 93.5436L61.3011 94.1317L61.5039 94.2331L61.7472 94.1723L61.8891 93.9289L62.0311 93.1989V87.6224L61.808 82.9787L61.6052 79.795L61.4633 78.6391L61.2808 75.8205L61.1186 74.3604L60.6116 69.1287L60.1655 66.168L59.8005 64.6066L59.2733 62.9438L58.7866 62.0718L58.016 61.1593L57.7321 60.551L57.6713 60.3279L57.6916 59.4965L58.158 57.6917L59.0705 55.522L60.2872 53.3928L62.0108 50.7769L63.7547 48.526L65.8637 46.1534L68.7026 43.2739L69.7774 42.3209L71.1157 41.0839L73.468 39.1777L76.307 37.0891L79.4095 35.1424L81.4171 34.0676L82.7757 33.4796L83.9924 33.1145L85.0063 33.0537L85.5538 33.2565L85.9391 33.7432L86.0202 34.3312L85.7972 35.5682L85.0063 37.3324L82.6743 40.9419L81.5387 42.4222L80.9507 43.132L79.6731 44.7542L77.1586 47.5121L74.6036 50.1077L70.5277 53.5753L68.0943 55.38L66.9384 56.4548L66.472 57.2051L66.2287 57.8134L66.1678 58.442L66.249 66.7561L66.3706 69.2503L66.3504 69.6356L66.3909 70.2642L66.3706 75.9219L66.2287 83.2017L66.1678 84.0331L65.9651 88.8594L65.7217 93.0164L65.8434 93.3611L65.9853 93.5031H66.2895L68.1348 92.2053L69.0068 91.7389L70.406 91.1711L71.5619 90.8872L72.1905 90.8061L73.7519 90.8264L74.705 91.0697L75.4755 91.3941L76.4083 91.9822L77.0572 92.6311L77.6859 93.645L77.9495 94.4359L77.99 95.2673L77.8278 96.2609L77.4628 97.072L76.8747 97.7818L75.7797 98.4915L74.928 98.816L74.705 99.0593L74.8266 99.3027L75.0903 99.4852L75.7189 99.546L76.7531 99.3838L77.7264 98.9782L78.497 98.451L79.2878 97.579L79.734 96.6665L80.0584 95.6526L80.1395 94.8212L80.0179 93.787L79.8151 93.1381L79.3892 92.3067L79.2473 92.0633L79.5312 92.1039L80.687 92.8745L81.2954 93.3206L82.6338 94.3953L83.3232 95.0239L85.2902 96.9098L86.2838 97.8629L87.8858 99.2013L89.2444 100.093L90.2381 100.58L90.9884 100.783L92.0834 100.844L93.1379 100.742L93.584 100.905L95.7335 102.142L98.106 103.662L101.574 106.157L104.696 108.773L105.305 109.32L107.312 111.247L107.677 111.632L109.016 113.011L111.023 115.363L111.409 115.87L111.997 116.58L113.659 118.77L113.984 119.277L116.62 123.211L117.614 124.853L119.074 127.672L120.067 129.862L120.209 130.267L121.081 132.376L122.318 135.864L123.413 139.595L123.839 141.258L124.407 144.178L124.995 148.153L125.279 150.748L125.299 151.235L125.38 152.695L125.421 153.75L125.319 154.094L125.482 154.865L125.522 159.671L125.502 161.354L125.461 163.544L125.259 165.207L125.177 166.626L125.117 166.91L125.015 168.147L124.812 169.911L124.062 174.494L123.677 178.469L123.535 179.564L123.555 184.654L123.717 189.845L123.616 192.157L123.454 193.637L122.825 197.003L122.541 197.753L122.399 197.733L122.237 197.388L121.406 194.874L120.534 192.501L120.047 190.413L119.783 187.614L119.865 182.281L119.723 179.909L119.175 175.914L118.587 173.075L118.364 172.264L118.141 170.276L118.202 167.539L118.364 165.734L118.567 164.578L118.587 162.834L118.425 161.638L117.938 160.036L117.512 159.123L116.985 158.312L116.235 157.562L115.626 157.156L114.917 156.913L114.207 156.893L113.477 157.136L112.787 157.663L112.139 158.393L111.713 159.164L111.104 160.867L110.82 162.287L110.455 164.984L109.928 166.789L109.523 168.026L108.995 170.723L108.874 172.304L108.894 173.561L109.036 174.454L109.137 175.407L109.482 176.867L109.746 177.962L109.928 178.631L110.739 182.301L110.902 184.289L110.841 185.181L110.537 186.235L110.09 187.047L109.624 187.553L109.077 187.918L108.752 188L108.205 187.979L107.779 187.817L107.292 187.452L106.826 186.905L106.44 186.195L106.197 185.181L106.136 183.944L106.238 182.707L106.481 180.963L107.576 176.096L108.103 174.048L108.367 172.223L108.428 170.682L108.225 169.546L107.84 168.309L107.252 167.032L106.217 165.41L104.879 163.747L103.459 162.469L101.614 161.131L99.1605 159.63L97.7207 158.393L96.9096 157.501L96.1796 156.426L95.0643 154.642L93.584 152.533L92.3065 151.255L91.1912 150.505L90.2989 150.16L89.2647 149.877L88.4739 149.775L87.2572 149.836L85.8783 150.16L85.0266 150.546L84.0735 151.255L83.3638 151.965L82.654 152.979L82.289 153.79L81.8632 154.622L81.3765 156.366L80.9709 159.123L80.8087 162.855L80.829 163.341L80.7276 166.282L80.4437 168.837L79.9976 170.824L79.2878 172.953L78.497 174.88L77.8075 176.482L77.0167 178.935L76.5908 180.781L76.4489 181.47L76.3475 181.45L75.6986 179.057L74.705 176.644L73.7113 174.535L72.4744 172.203L71.7444 170.925L70.6899 168.958L70.041 167.397L69.4124 165.43L68.7026 162.267L67.8712 157.501L67.2426 155.169L66.6342 153.709L66.107 152.776L65.5392 152.026L65.377 151.884L64.9917 151.539L64.4848 151.215L63.8764 151.053H63.0856L62.3961 151.316L61.808 151.783L61.2808 152.553L60.6319 153.973L59.8816 155.879L59.2733 156.933L58.4621 158.008L56.1099 160.279L55.4001 161.253L54.9337 162.165L54.589 163.362L54.447 164.254L54.3456 167.113L54.5484 170.418L55.684 176.928L55.7854 179.219L55.7246 180.111L55.5218 180.943L55.1162 181.592L54.6498 181.936L54.1631 182.139L53.6765 182.099L53.3115 181.896L52.9262 181.49L52.6423 180.963L52.4192 180.294L52.2975 179.483L52.3787 177.536L52.7437 175.67L53.5751 171.939L53.9604 169.749L54.0617 168.005L53.859 166.221L53.4331 164.457L52.7437 162.408L52.3178 160.847L52.0136 158.738L51.8109 157.075L51.5675 155.838L51.0606 154.561L50.3508 153.364L49.6208 152.452L48.7489 151.783L48.0594 151.438L47.228 151.215L46.8833 151.154L45.8085 151.215L44.896 151.458L43.9226 151.925L42.7871 152.776L41.0431 154.317L39.7048 155.21L38.6098 155.737L36.8658 156.305L34.0269 156.954L32.7696 157.44L31.7963 158.109L30.6607 159.286L29.8698 160.421L29.3426 161.395L28.9573 162.571L28.6531 164.01L28.572 166.099L28.6126 167.681L28.5923 170.499L28.3084 172.913L27.984 174.048L26.0575 178.469L25.4086 180.639L25.287 180.74L25.1653 180.152L24.9828 178.976L24.0905 176.299L23.543 175.021L22.8941 173.156L22.4683 171.209L22.2452 169.344L21.9816 165.308L21.7788 164.071L21.5355 163.503L21.0894 163.078L20.7244 162.936L20.258 162.997L19.8524 163.22L19.5077 163.585L19.1021 164.416L18.7574 165.734L18.1693 169.526L17.7232 171.148L17.054 172.71L16.7296 173.379L16.0604 175.163L15.7765 176.36L15.6548 176.745L15.4926 176.968L15.1479 177.009L14.9045 176.765L14.6815 176.177L14.2962 174.717L13.1606 171.838L12.897 170.763L12.5725 168.37L12.532 166.18L12.3697 165.694L12.1264 165.369L11.7411 165.227L11.3153 165.329L11.0111 165.754L10.7475 166.282L10.3622 167.62L10.1391 169.668L9.99719 170.986L9.85524 172.183L8.69938 176.867L7.70575 180.557L7.07712 183.802L6.7324 186.235L6.65128 188.425L6.77295 190.636L7.03657 193.008L7.0974 193.272L7.17852 194.042L8.07076 198.95L8.78049 202.884L9.06439 205.621L9.00356 207.081L8.78049 208.379L8.33437 209.616L7.86798 210.326L7.66519 210.488L7.07712 210.955L6.34711 211.198Z" fill="#E63329"/>
<path d="M66.8168 209.819L66.472 209.798V209.697L66.7762 209.677L66.8573 209.738L66.8168 209.819Z" fill="white"/>
<path d="M60.3276 209.312H59.334L59.1109 209.19L58.6243 208.399L58.4215 207.791L58.2187 206.209L58.2795 205.114L58.1376 204.851L57.9145 204.709L57.002 204.526L56.6978 204.283L56.1706 203.391L55.9678 202.742L56.0287 202.316L56.2112 202.052L56.5964 201.748L56.637 201.424L56.3328 200.572L56.4139 200.389L56.9615 200.227L58.4012 200.024L58.6648 199.882L58.7865 199.599L58.7054 199.355L58.4823 199.234L57.5698 199.274L56.5356 199.396L56.2112 199.315L56.0489 198.99L56.0692 198.463L56.1706 198.301L56.3531 198.26L56.9615 198.301L57.4278 198.118L57.9754 197.692L58.6648 196.76L58.7662 196.496L58.7054 195.989L58.3606 194.813L57.6104 193.272L57.1642 192.542L56.8195 191.913L56.272 191.122L56.1503 190.778L56.2112 190.068L56.2923 189.662L56.2517 189.257L55.9881 188.77L55.4811 188.141L54.3658 187.006L53.8386 186.479L53.0883 185.688L52.8247 185.607L52.0541 185.647L51.7297 185.444L51.3647 185.404L50.7969 185.485L50.2088 185.282L49.3571 184.877L48.1607 184.471L47.9985 184.329V184.126L48.2824 183.964L50.4116 183.376L50.7158 183.153V182.808L50.5535 182.605L50.1885 182.585L47.6335 183.275L47.2685 183.295L46.9846 183.173L46.6398 182.828L46.3154 182.707L45.7679 182.747L44.9365 182.991L44.0848 183.051L42.9492 182.991L42.1786 183.173L41.185 183.66L39.9683 183.964L39.1166 184.268L38.9341 184.512L38.7719 185.12L38.488 185.282L37.5755 185.485L37.4538 185.586L37.3321 186.154L36.9874 186.499L36.9671 186.904V187.188L36.7643 187.452L35.7707 187.898L35.426 188.243L34.8176 189.155L34.1485 189.723L32.587 190.859L32.0395 191.487L31.6137 192.217L31.1473 193.251L30.9242 193.86L30.4173 194.61L30.3362 194.833L30.397 195.259L30.7417 195.969L30.9039 196.476L31.3095 196.962L31.5123 197.429L31.4515 197.652L31.269 197.733L30.5187 197.571L29.302 197.226L28.795 197.206L28.5314 197.348L28.4097 197.55L28.4908 197.794L29.1195 198.037L31.2081 198.686L31.4109 198.848L31.4717 199.152L31.4312 199.619L31.5326 199.842L31.8773 200.288L31.8367 200.572L31.5731 200.835L30.4578 201.383L30.1131 201.728L29.8698 202.397L29.7481 202.944L29.5656 203.086L29.2209 203.026L28.1664 202.539L24.5569 200.511L20.846 198.118L18.7573 196.618L17.1148 195.259L16.9525 194.914L16.9931 194.428L17.2364 193.758L17.4189 193.637L17.7637 193.698L20.1565 194.772H20.5215L20.6837 194.549L20.6634 194.184L20.4607 193.941L17.7839 192.663L17.5 192.359L17.4595 192.217L17.5203 190.027L17.3987 188.405L17.4798 188.101L17.7434 187.999L18.4937 187.979H19.3251L21.3529 187.837L21.576 187.736L21.7585 187.472L21.7382 187.249L21.5354 187.067L21.0285 187.046L17.5 187.148L17.2567 187.067L17.0945 186.803L16.6281 185.16L16.0806 183.883L16.04 183.66L16.1414 183.437L16.9323 182.889L22.2046 179.908L22.671 179.503L22.7115 179.259L22.5696 179.077H22.2654L21.4137 179.503L17.1553 181.997L15.9995 182.646L15.6547 182.707L15.3911 182.524L14.8842 181.733L13.6472 180.213L12.2074 178.854L11.0719 178.002L10.9705 177.82L11.1124 176.765L11.4774 174.514L11.5991 173.521L11.741 173.217L11.8424 173.318L12.5522 176.319L13.1199 177.901L14.0527 179.604L14.9247 180.72L15.6344 181.47L15.8372 181.591L16.0197 181.571L16.2834 180.578L16.7903 179.604L17.3581 178.002L17.9462 176.056L18.514 174.819L18.9195 174.007L19.7306 171.959L20.0754 170.499L20.2782 169.019L20.3796 168.836L20.5215 168.938L20.7446 170.094L20.846 171.229L21.3326 173.602L22.2654 176.279L22.7521 177.475L23.1374 178.834L23.3604 180.496L23.4213 182.261L23.3402 183.396L22.9143 185.667L21.6976 190.047L21.2312 193.089L21.211 194.063L21.3529 195.117L21.6571 196.131L22.0829 197.003L22.6102 197.692L23.2388 198.22L23.9282 198.564L24.496 198.706L25.4897 198.666L26.2602 198.382L26.9902 197.936L27.6392 197.267L28.0853 196.557L28.5111 195.462L28.7545 194.265V192.826L28.5314 190.778L27.3958 184.532L27.335 183.822L27.3755 182.098L27.7811 180.253L28.5922 178.246L29.6467 176.096L30.5389 173.703L30.9445 171.939L31.2284 169.81L31.269 167.579L31.1878 166.91L31.2284 165.146L31.4312 164.01L31.6745 163.057L32.0395 162.368L32.6682 161.557L33.3373 160.948L34.4526 160.279L36.3182 159.569L38.4069 158.92L40.1711 158.069L41.5095 157.217L43.9226 155.392L45.1798 154.621L46.0518 154.256L46.7007 154.135L47.3496 154.196L48.1404 154.479L48.4446 154.703L48.9313 155.412L49.2557 156.284L49.9046 160.259L50.513 162.104L51.4458 164.091L51.7297 164.984L51.9527 166.667L51.973 168.046L51.7297 169.931L51.101 172.892L50.7563 174.028L50.2696 176.177L50.0669 177.718V179.726L50.2899 181.003L50.7563 182.2L51.243 183.031L51.8919 183.741L52.7233 184.329L53.4533 184.613L53.9806 184.714L54.9336 184.653L55.8867 184.37L56.4748 184.025L57.144 183.416L57.6915 182.686L58.1173 181.733L58.4215 180.578L58.5229 179.685L58.462 178.124L58.0768 175.609L56.6167 168.816L56.5356 168.188L56.5762 166.099L56.7789 164.882L57.0628 164.152L57.509 163.422L58.1173 162.794L59.9423 161.374L60.794 160.522L61.5038 159.468L61.9296 158.616L62.4366 157.075L62.8624 156.386L63.1666 156.102L63.5519 156.021L63.9574 156.163L64.4441 156.649L65.0119 157.562L65.5797 158.88L66.2083 161.252L66.7153 163.706L66.9992 165.288L67.567 167.153L68.2361 168.918L68.9864 170.438L69.2501 170.905L69.8381 172.061L71.5618 175.204L73.4274 179.3L74.1777 181.429L74.8266 184.228L75.0699 186.053L75.1105 187.776L74.928 188.628L74.7657 188.77H74.4007L73.7924 188.486L73.3868 188.06L73.2246 187.655L73.0421 186.904L72.7379 186.499L72.3729 186.316L71.9876 186.377L70.8926 187.046L70.264 187.655L69.5137 188.121L67.8914 188.669L66.9992 189.257L66.4111 189.378L65.7622 189.358L65.4175 189.216L65.1741 188.952L64.8497 188.121L64.8091 187.229L64.9916 186.316L64.9105 185.911L64.2413 185.343L63.8155 185.16L63.4099 185.12L62.4771 185.181L61.5646 184.998L60.9968 185.059L59.0907 185.708L58.3404 185.688L58.0768 185.87L57.9348 186.114H57.7726L57.4481 185.383L57.1237 184.593L56.9615 184.39L56.637 184.349L56.3937 184.512L56.3125 184.836L57.144 187.391L57.2453 187.898L57.144 188.324L56.5964 189.054L56.4748 189.399L56.5964 189.642L57.2251 190.108L57.7117 190.372L58.0362 190.737L58.5026 192.298L59.2326 195.279L59.9018 198.483L59.8612 199.517L60.0032 199.842L60.2262 200.166L60.6318 201.971L61.4227 207.061L61.6052 208.866L61.4632 209.109L60.8549 209.292L60.3276 209.312Z" fill="white"/>
<path d="M62.8422 209.069L62.5785 208.947L62.4772 208.683L62.3352 206.919L62.4366 206.858L62.8827 207.284L63.3086 207.406L64.4239 207.487L65.0322 207.365L65.1539 207.426L65.1336 207.71L64.8294 208.298L64.87 208.744L64.6064 208.866L63.3086 209.028L62.8422 209.069Z" fill="white"/>
<path d="M66.3503 208.683L65.9447 208.622L65.8839 208.399L66.0461 208.013L67.1412 206.33L67.4251 205.864L68.1348 205.073L68.7634 204.627L69.5745 204.201L69.8179 204.221L70.0815 204.404L70.1626 204.647L70.1018 205.114L69.8179 205.621L69.0879 206.635L68.4592 207.75L67.7901 208.419L66.5936 208.642L66.3503 208.683Z" fill="white"/>
<path d="M62.3758 206.452H62.2744L62.0311 205.195L61.3213 200.612L61.0983 199.679L63.0247 199.213L64.0792 198.99L66.4923 198.422L66.9384 198.462L67.3034 198.848L67.4048 199.233L67.2831 199.943L67.4251 200.369L67.7698 200.693L68.1551 200.997L68.2768 201.241L68.0943 201.727L65.5189 204.424L64.9309 205.438L64.5253 205.864L63.8967 206.067L62.8828 206.087L62.538 206.229L62.3758 206.452Z" fill="white"/>
<path d="M28.6126 203.979L27.7609 203.918L27.0715 203.736L26.5037 203.391L25.3478 202.539L24.8409 202.215L23.0361 200.714L22.6914 200.572L21.5963 200.755L21.1705 200.592L20.3188 199.883L18.0071 197.713L16.9932 196.598L16.7904 196.273L16.9526 196.253L19.1427 197.774L19.9741 198.382L23.8472 201.039L25.5912 202.012L27.842 203.269L28.6937 203.715L28.7748 203.837L28.6126 203.979Z" fill="white"/>
<path d="M62.7408 202.275L62.3555 202.174L61.9499 201.809L61.8282 201.464L61.8688 201.16L62.173 200.815L62.6597 200.592L63.7547 200.389L64.4036 200.369L64.7686 200.491L64.9105 200.795L64.8091 201.424L64.6266 201.89L64.363 202.032L63.633 201.91L62.7408 202.275Z" fill="#005FAA"/>
<path d="M61.4633 198.666L61.0172 198.646L60.8144 198.402L60.1452 195.381L59.5571 192.684L59.5774 192.359L59.9221 192.38L60.5508 192.501L61.0577 192.461L61.3011 192.339L61.6052 192.096H61.9702L62.8219 192.298L63.1464 192.501L63.41 192.826L63.9372 193.9L64.4442 194.489L64.4645 194.874L64.4239 195.401L64.6064 195.766L65.012 196.151L65.2756 196.983L65.6406 197.409V197.571L65.2553 197.753L63.3086 198.26L61.4633 198.666Z" fill="white"/>
<path d="M25.1044 195.908L24.5772 195.847L24.0702 195.563L23.7458 195.218L23.4619 194.549L23.3605 193.88L23.4416 192.44L23.8066 189.865L25.0841 183.437L25.1652 183.355L25.2463 183.518L26.2603 190.919L26.3414 192.501L26.3008 194.123L26.098 195.015L25.7939 195.543L25.4289 195.806L25.1044 195.908Z" fill="#E63329"/>
<path d="M15.7967 194.955L15.4926 194.853L14.9653 194.286L13.5256 192.379L12.2075 190.412L11.66 189.581L10.6461 187.999L9.44966 185.809L9.06437 184.755L9.00354 184.248L9.20632 183.315L9.89578 181.186L10.423 179.787L10.6461 179.178L10.8691 179.057L11.1733 179.138L12.3089 179.989L13.0186 180.76L14.215 182.281L14.8842 183.376L15.5534 184.775L16.0806 186.255L16.3645 187.432L16.6281 189.155L16.6687 191.082L16.5268 192.663L16.1212 194.488L15.9184 194.894L15.7967 194.955Z" fill="white"/>
<path d="M90.6031 189.662L90.0556 189.622L89.5689 189.5L89.0214 189.439L88.7172 189.155L88.5347 188.851L88.4941 188.608L88.6564 188.344L88.8997 188.243L89.4067 188.121L89.8528 187.614L90.3192 187.148L92.2051 185.728L92.4078 185.688L92.489 185.708L92.4484 185.972L91.9414 186.742L91.252 187.472L91.0897 187.858L91.1506 188.202L91.4142 188.405L91.8603 188.466L93.0567 188.121L93.5029 187.817L95.1454 185.911L95.2265 185.627L95.3279 185.201L95.6726 184.552L96.0579 184.268L96.4635 184.187L96.9502 184.126L97.1529 184.025L97.2746 183.701V182.869L97.5585 182.362L98.3696 181.835L98.7549 181.511L99.6269 181.227L100.418 180.699L100.681 180.537L101.067 180.436L102.06 180.375L102.75 180.152L102.993 180.03L103.318 180.071L103.52 180.395L103.561 180.841L103.297 181.186L102.506 181.612L101.797 181.916L101.087 182.443L99.708 184.451L99.0388 185.039L98.613 185.262L98.0249 185.282L97.7613 185.262L97.3152 185.445L96.6257 186.093L96.1796 186.702L95.3279 188.02L94.9223 188.77L94.6182 189.115L94.1518 189.297L93.4217 189.439L93.0567 189.338L92.5701 189.014H92.2051L91.7184 189.338L91.475 189.5L90.8464 189.642L90.6031 189.662Z" fill="white"/>
<path d="M116.539 188.79L116.316 188.709L116.235 188.385L116.275 187.817L116.336 187.127L116.235 186.702L115.789 186.235L115.505 185.951L115.403 185.708L115.424 185.323L115.748 184.633L116.052 184.126L116.174 183.538L116.093 182.991L115.748 182.301L115.322 181.896L115.343 181.247L115.91 179.685L116.052 179.016L115.91 178.712L115.606 178.428L114.856 177.86L114.552 177.475V177.171L114.836 176.664L115.525 175.447L116.032 174.352L115.991 173.866L115.789 173.724L115.566 173.805L115.079 174.636L114.612 175.569L113.862 176.583L113.578 176.806L113.315 176.765L112.646 176.38L111.976 176.299L111.672 176.116L111.51 175.691L111.104 173.906L110.983 172.892L110.942 171.006L111.165 169.323L111.713 167.356L112.524 165.004L112.727 164.112L112.828 162.246L112.99 161.577L113.477 160.746L114.004 160.32L114.41 160.178L114.876 160.239L115.322 160.482L115.667 160.928L116.052 161.638L116.458 162.915L116.579 163.828V166.018L116.397 168.37L116.235 169.526L116.194 170.743L116.519 173.866L116.782 175.123L117.228 176.684L117.715 179.28L117.938 181.652L117.979 184.268L117.857 186.519L117.715 186.965L116.762 188.588L116.539 188.79Z" fill="white"/>
<path d="M81.8226 188.709L81.4778 188.628L80.7073 188.08L80.18 187.675L79.8758 187.614L79.085 187.857L78.355 187.837L78.1522 187.695L78.0305 187.188L78.0103 185.91L78.1522 185.444L78.3753 185.322L79.2675 185.383L79.7339 185.343L80.3422 185.484L80.6667 185.728L81.3967 187.046L81.7414 187.695L82.0051 188.263V188.567L81.8226 188.709Z" fill="white"/>
<path d="M83.4044 188.222L83.0596 188.202L82.796 187.857L81.3765 185.363L81.2346 184.896L81.3157 184.41L81.5996 183.923L82.0052 183.599L82.4513 183.518L83.2218 183.558L83.6071 183.376L84.4588 182.058L84.9861 181.551L85.1483 181.49L86.0202 181.51L86.223 181.409L86.2839 181.104L86.0405 180.739L85.493 180.415L85.0469 180.293L84.4791 180.354L83.9113 180.476L83.1407 180.435L82.431 180.131L82.066 180.172L81.5996 180.496L80.9507 181.084L80.4437 181.429L79.4907 181.49L79.3284 181.409L79.2068 180.942L78.9634 180.739L78.9026 180.618L78.9634 180.232L80.7682 176.38L81.8632 173.703L82.5324 171.411L82.8568 169.87L83.2218 167.396L83.4855 162.631L83.6071 158.88L83.891 157.399L84.2155 156.284L84.8035 154.986L85.493 154.114L86.2027 153.526L87.0139 153.121L87.9467 152.897H88.8997L89.7514 153.06L90.7248 153.404L91.8401 154.155L92.6512 155.006L93.584 156.406L95.0846 159.224L95.8552 160.38L96.5649 161.191L97.9438 162.388L99.4241 163.483L102.121 165.024L104.129 166.322L105.082 167.254L105.852 168.349L106.461 169.668L106.623 170.56L106.745 172.405L106.542 174.352L106.359 175.244L106.238 175.386L106.035 175.406L105.508 175.366L105.143 175.406L104.615 175.366L103.196 175.71L102.973 175.67L102.932 175.406L103.358 174.818L105.224 172.425L106.075 171.188L106.197 170.803L106.157 170.337L105.933 170.215L105.69 170.357L104.595 171.756L102.608 174.352L102.06 174.859H101.756L101.229 174.433L97.5585 170.681L93.4218 166.099L92.9351 165.511L90.6234 162.651L90.3192 162.063L90.3801 161.8L90.8262 161.374L92.1645 160.198L93.7057 158.819L93.8679 158.454L93.7665 158.109L93.5232 158.068L93.3001 158.19L91.1101 160.096L89.9745 160.948L89.6095 161.029L89.3864 160.907L88.1697 159.427L87.2167 158.109L86.6083 157.298L85.8986 156.203L85.6958 155.899L85.5133 155.635L85.2902 155.594L85.0874 155.777L85.0063 156L85.0672 156.365L85.4322 157.014L88.3522 160.968L88.7375 161.435L88.8389 161.739L88.555 162.104L85.9391 164.274L84.1344 165.652L83.891 166.017V166.403L83.9924 166.504L84.2763 166.464L84.8441 166.099L87.0747 164.355L88.3117 163.361L89.1228 162.773L89.427 162.672L89.65 162.753L90.2178 163.422L92.489 166.22L93.1176 166.91L94.821 168.897L99.85 174.352L100.093 174.575L100.986 175.467L101.067 175.71L100.986 175.832L98.978 176.339L98.4913 176.359L97.9236 176.217L97.0921 176.197L96.6258 175.974L96.1593 175.65L95.8349 175.548L95.2671 175.609L94.0301 176.055L93.4421 176.38L93.1582 176.684L92.0429 178.164L91.617 178.468L91.0695 178.752L90.5423 179.34L90.3395 179.827L90.1976 180.334L90.2584 180.922L90.4814 181.328L90.8262 181.611L91.1303 181.713L92.7526 181.591L92.9351 181.693L93.0162 181.936L92.5701 183.416L92.5093 184.248L92.2862 184.552L90.8059 185.708L90.5626 185.809L90.1773 185.748L89.3053 185.403L88.4334 185.201L87.8047 185.241L87.3586 185.444L87.0139 185.931L86.1825 187.533L85.9188 187.817L85.5741 187.857L84.9049 187.614L84.5197 187.675L83.7288 188.08L83.4044 188.222Z" fill="white"/>
<path d="M29.3832 187.432L28.8357 187.411L28.5923 187.269L28.5112 187.026L28.6329 186.803L29.221 186.621L32.506 186.296L36.0953 185.688L36.2981 185.546L36.3386 185.221L35.9128 183.944L34.7164 180.862L33.4794 178.225L32.7088 176.705L31.8774 174.859L31.6544 174.636L31.4313 174.616L30.9852 174.738L30.7824 174.636L30.7621 174.393L30.9649 174.048L31.2082 173.764L31.2285 173.46L31.188 173.075L31.3299 172.831L31.553 172.811L32.0396 173.237L32.4249 173.196L34.7772 171.817L36.6631 170.824L42.1787 167.6L46.498 165.085L47.0658 164.659L47.1469 164.375L46.9644 163.808L46.1127 162.287L44.5919 159.934L44.1052 159.123L43.2535 157.805L43.1318 157.46L43.1724 157.197L43.3752 157.075L43.5982 157.136L44.0849 157.724L45.7274 160.056L47.3091 162.713L47.8161 163.645L48.1203 163.95L48.465 163.909L49.9048 163.118L50.29 163.078L50.4928 163.301L50.4725 163.625L50.2495 163.868L49.0125 164.639L48.7692 164.903L48.7083 165.288L48.9922 165.896L50.8173 169.303L51.2431 170.236L51.3039 170.682L51.162 170.986L50.9998 171.067L50.797 170.946L50.3306 170.236L48.3028 166.221L47.8364 165.551L47.5728 165.511L46.64 165.937L45.3827 166.707L44.4499 167.214L44.0038 167.518L43.5982 167.681L38.9748 170.357L32.7291 173.866L32.5263 174.089L32.5669 174.454L34.1486 177.617L35.1016 179.746L35.8722 181.592L37.1092 185.181V185.485L36.7645 185.891L36.6225 186.397L36.217 186.539L31.9991 187.148L29.3832 187.432Z" fill="#005FAA"/>
<path d="M38.1028 186.945L37.7987 186.884L37.6973 186.702L37.7581 186.458L37.9609 186.337L38.3462 186.235L38.7517 186.256L38.8531 186.398L38.8126 186.6L38.3462 186.844L38.1028 186.945Z" fill="white"/>
<path d="M59.2733 180.111L59.0502 180.03L58.9894 179.685L59.111 179.422L59.8613 179.118L61.2808 178.57L64.9917 176.948L68.7026 175.143L70.183 174.332H70.4668L70.6494 174.535L70.6696 174.778L70.5277 174.981L69.5949 175.569L65.0931 177.759L61.9094 179.179L59.5572 180.05L59.2733 180.111Z" fill="#005FAA"/>
<path d="M36.4603 146.246L36.1764 146.084L36.075 145.841L36.0344 135.438L36.1358 135.174L36.4805 135.053H43.3751L43.659 135.174L43.801 135.621L43.7807 137.101L43.659 137.405L43.436 137.527H39.2181L38.7923 137.648L38.6503 138.013L38.6706 138.906L38.7923 139.169L39.2384 139.291H42.4829L42.7465 139.433L42.8479 139.717L42.8682 141.44L42.7668 141.745L42.5437 141.886L39.1573 141.907L38.7923 142.049L38.6706 142.373L38.6909 143.448L38.8328 143.671L39.1167 143.752H43.3549L43.7401 143.894L43.8618 144.036V145.881L43.7401 146.104L43.5171 146.206L36.4603 146.246Z" fill="white"/>
<path d="M75.5566 146.084L73.5491 146.064L73.2855 145.942L73.1638 145.638L73.1435 137.77L73.0219 137.507L72.7583 137.385L70.4465 137.345L70.2032 137.182L70.1018 136.838V135.256L70.2032 135.073L70.5885 134.952L78.5984 134.911L79.0851 135.033L79.2067 135.195L79.1864 137L79.0242 137.304L78.6389 137.385L76.3272 137.426L76.0636 137.547L75.9622 137.811L75.9419 145.699L75.8203 145.963L75.5566 146.084Z" fill="white"/>
<path d="M83.3029 146.064L81.7821 146.044L81.4779 145.922L81.3562 145.598L81.3157 135.378L81.3765 135.073L81.559 134.931L83.4449 134.952L83.7693 135.073L83.891 135.398L83.9113 138.521L83.9924 138.987L84.2357 139.129L88.0886 139.149L88.4739 139.028L88.5956 138.703L88.6158 135.195L88.7375 135.033L89.0822 134.911H90.8059L91.1101 135.033L91.252 135.276L91.2926 145.517L91.1912 145.861L90.9681 146.003L88.9606 145.963L88.7781 145.841L88.6767 145.456V142.232L88.5753 141.867L88.3117 141.725L84.1749 141.745L84.033 141.887L83.9518 142.313L83.9721 145.638L83.8707 145.861L83.5868 146.024L83.3029 146.064Z" fill="white"/>
<path d="M46.4168 146.166L46.1938 146.064L46.1329 145.943L49.56 135.378L49.8033 135.033L50.0466 134.932H52.7639L53.1289 135.094L53.3317 135.398L57.5496 145.72L57.509 145.983L57.2454 146.105H55.2987L54.7309 146.004L54.5281 145.74L53.94 144.016L53.6562 143.834H49.8033L49.4586 144.016L48.9111 145.72L48.7285 145.983L48.2621 146.145H46.4168V146.166ZM52.5611 141.096L52.7436 140.975L52.6828 140.711L51.5067 137.568H51.385L50.3711 140.65L50.2697 140.954L50.4522 141.096H52.5611Z" fill="white"/>
<path d="M66.3503 146.084L66.0258 145.962L63.7749 142.758L63.4505 142.515H62.1527L62.0513 142.637L61.9904 142.9V145.597L61.9296 145.901L61.6052 146.064H59.7396L59.4759 145.942L59.3543 145.658L59.3137 135.377L59.4557 135.053L59.7598 134.951H65.0525L66.0664 135.113L66.7761 135.397L67.4453 135.864L68.0131 136.533L68.3984 137.385L68.5403 138.054L68.4592 139.108L68.297 139.717L67.9522 140.406L67.3439 141.156L66.6747 141.684L66.6342 141.886L69.0878 145.82L69.0473 146.003L68.7836 146.104L66.3705 146.145V146.084H66.3503ZM64.4238 139.899L64.87 139.737L65.2552 139.412L65.4377 139.047L65.5189 138.459L65.3364 137.932L64.8497 137.547L64.1602 137.385H62.3555L62.0918 137.486L61.9904 137.75V139.575L62.0918 139.798L62.4163 139.919H64.221L64.4238 139.879V139.899Z" fill="white"/>
<path d="M58.6649 131.971L58.3607 131.849L58.2796 131.545L58.239 121.366L58.3607 121.082L58.5837 120.98L60.3682 120.96L60.7332 121.082L60.8549 121.305L60.8752 124.59L60.9969 124.975L61.2402 125.097H64.9714L65.2553 125.016L65.3972 124.752V121.507L65.4378 121.183L65.6 121.021L65.8636 120.96H67.6684L68.0334 121.082L68.1551 121.507L68.1956 131.464L68.0537 131.849L67.6887 131.971L65.7622 131.951L65.5189 131.829L65.4175 131.565L65.3972 128.118L65.2553 127.895L64.8294 127.794H61.3213L61.0577 127.895L60.936 128.179V131.464L60.7941 131.849L60.3682 131.971H58.6649Z" fill="white"/>
<path d="M52.8247 132.011H50.878L50.5739 131.869L50.4927 131.646L50.4522 123.798L50.3508 123.494L49.9452 123.373H47.4713L47.2482 123.21L47.1671 122.764V121.446L47.2888 121.162L47.593 121.041L56.1706 121L56.4951 121.081L56.637 121.406L56.6168 123.21L56.3329 123.413L55.8665 123.474L53.5345 123.433L53.3114 123.535L53.21 123.717L53.1897 131.626L53.1086 131.849L52.8247 132.011Z" fill="white"/>
<path d="M78.8417 131.91L72.1904 131.93L71.8254 131.808L71.7038 131.443L71.6632 121.325L71.7849 121.061L72.1093 120.939L78.7809 120.919L79.1661 121.061L79.3081 121.304L79.2878 122.987L79.1661 123.251L78.8823 123.393L74.8874 123.413L74.5022 123.535L74.421 123.717L74.4008 124.488L74.5022 124.873L74.6847 125.015L75.0497 125.076L78.0914 125.035L78.4361 125.157L78.5375 125.441V127.286L78.3956 127.53L78.0711 127.651H74.8469L74.5427 127.773L74.4616 128.077L74.4819 129.01L74.6441 129.213L74.8469 129.274H79.085L79.4095 129.416L79.5109 129.679L79.5312 131.646L79.3081 131.849L78.8417 131.91Z" fill="white"/>
<path d="M40.3334 118.912L39.1167 118.851L37.9811 118.607L37.1903 118.283L36.075 117.573L35.3247 116.863L34.7163 115.951L34.2702 114.795L34.0269 113.7L33.9863 112.686L34.1486 111.571L34.5136 110.496L34.9597 109.624L35.5275 108.874L36.3792 108.124L37.2308 107.637L38.3867 107.252L39.2992 107.089L40.2117 107.049L41.7732 107.211L43.0912 107.596L43.5779 107.88L43.7401 108.124L43.801 108.407V110.374L43.659 110.598L43.4563 110.638L42.0976 109.969L40.9012 109.705L40.009 109.665L39.1167 109.807L38.3461 110.151L37.7986 110.537L37.312 111.125L36.9875 111.834L36.7847 112.686L36.805 113.497L37.0281 114.308L37.4742 115.079L38.0622 115.627L38.7517 116.012L39.6642 116.296L40.7187 116.357L41.7123 116.194L42.5032 115.829L43.294 115.343L43.5374 115.18L43.6996 115.221L43.801 115.424L43.8415 117.269L43.6996 117.695L43.3346 118.06L42.5235 118.465L41.2459 118.81L40.3334 118.912Z" fill="white"/>
<path d="M64.7484 118.06L61.8892 118.04L61.6661 117.959L61.4836 117.655L58.2188 107.82L58.158 107.333L58.2796 107.171L58.8474 107.029L60.3683 107.09L60.6927 107.171L60.8955 107.576L63.1058 114.836L63.2681 115.018H63.4911L63.5722 114.856L65.8028 107.739L66.0665 107.211L66.472 106.988L68.0334 107.009L68.5201 107.151L68.6012 107.333L68.4796 107.901L65.1539 117.857L64.9714 117.999L64.7484 118.06Z" fill="white"/>
<path d="M71.1968 117.979L70.9332 117.898L70.6898 117.574L70.7101 107.374L70.7912 107.151L70.994 107.009L71.2982 106.948L77.9494 106.907L78.3144 107.029L78.4158 107.252V108.894L78.2942 109.28L77.9494 109.422L73.7721 109.442L73.5896 109.564L73.5085 109.848V110.821L73.5896 111.085L73.9546 111.226L77.2397 111.247L77.6452 111.389L77.7872 111.673V113.477L77.6047 113.619L77.2802 113.66H73.8735L73.6099 113.761L73.4679 113.984L73.4882 115.039L73.6302 115.384L73.8938 115.485L78.2536 115.505L78.4969 115.647L78.5983 115.931V117.594L78.4564 117.857L78.213 117.959L71.1968 117.979Z" fill="white"/>
<path d="M51.4864 118.526L50.2495 118.485L49.337 118.323L48.3636 117.897L47.593 117.41L46.7413 116.64L46.0316 115.585L45.5652 114.49L45.3624 113.395V111.834L45.626 110.698L46.0113 109.766L46.7819 108.671L47.6336 107.9L48.3839 107.434L49.2761 107.089L50.7362 106.825L52.1151 106.866L53.2507 107.129L54.4673 107.657L55.5218 108.508L56.1504 109.299L56.4749 109.887L56.8602 110.942L57.063 112.077V113.213L56.8602 114.43L56.4749 115.423L55.8463 116.437L55.2379 117.066L54.4673 117.593L53.5143 118.059L52.4192 118.384L51.4864 118.505V118.526ZM51.8717 116.011L52.7437 115.748L53.2709 115.403L53.8184 114.774L54.1632 114.044L54.366 113.132V112.179L54.1226 111.266L53.6157 110.455L52.9465 109.826L52.2165 109.441L51.3242 109.279L50.6145 109.319L49.8034 109.563L49.1139 109.989L48.5664 110.597L48.1405 111.347L47.9378 112.26L47.9783 113.355L48.2217 114.125L48.6881 114.936L49.2964 115.464L49.9047 115.808L50.8173 116.052H51.8515V116.011H51.8717Z" fill="white"/>
<path d="M90.5626 117.878H88.3117L87.9467 117.716L86.365 115.039L86.0608 114.654L85.635 114.532H84.621L84.3169 114.654L84.1952 114.917V117.553L84.0533 117.776L83.8302 117.878H82.0863L81.7213 117.756L81.6199 117.513V107.13L81.8024 106.968L82.1877 106.907H86.9328L88.19 107.049L88.7984 107.232L89.4878 107.658L90.0151 108.205L90.3801 108.854L90.6437 109.807L90.7248 110.517L90.6842 111.348L90.4003 112.159L90.0556 112.747L89.5689 113.234L88.8592 113.761L88.8186 113.984L90.8059 117.31L90.9073 117.675L90.7856 117.837L90.5423 117.898H90.5626V117.878ZM86.4461 111.997L87.0342 111.835L87.4803 111.49L87.7236 111.085L87.825 110.415L87.6628 109.929L87.3789 109.625L86.9328 109.401H84.4791L84.2155 109.523L84.1141 109.746V111.531L84.2358 111.855L84.4994 111.977H86.4461V111.997Z" fill="white"/>
<path d="M34.7366 99.2209L33.8241 99.1601L32.9522 98.8762L32.2424 98.3287L31.918 97.8623L31.6341 97.254L31.411 96.1792L31.4313 95.1247L31.7152 93.7661L32.0599 92.9144L33.0535 91.2719L34.1283 90.116L34.7772 89.5077L36.7036 88.1288L38.9545 86.9323L41.2459 85.9995L44.4499 85.229L46.133 84.9856L48.465 84.9248L50.3711 85.1276L51.9326 85.452L53.5143 85.8982L55.2785 86.689L56.5154 87.3785L58.1377 88.6357L59.4152 89.893L60.0844 90.846L60.125 91.0083L59.7802 90.846L58.5838 90.0146L56.7385 89.0818L55.0149 88.4938L53.4332 88.149L51.4459 87.9057L49.5397 87.926L47.6336 88.2707L46.0113 88.7777L44.3688 89.5482L42.929 90.4405L42.0571 91.211L40.9215 92.4683L39.4615 94.6786L38.1028 97.0715L37.1903 98.1056L36.4197 98.6734L35.5072 99.0587L34.7366 99.2209Z" fill="#E63329"/>
<path d="M92.0022 98.309L91.1303 98.2887L90.3597 98.0657L89.3052 97.3965L86.6894 95.0645L84.844 93.4422L83.891 92.6919L83.0393 91.9822L81.0115 90.6033L79.7542 89.9341L77.7061 89.0824L75.9622 88.6971L74.2385 88.4943L73.1029 88.5349L71.7038 88.7985L69.9598 89.3663L69.5948 89.5082L69.4731 89.4677L69.7976 89.123L70.5682 88.5957L72.3729 87.6427L73.9952 86.9735L76.4894 86.284L77.99 86.0204L79.5514 85.8379L82.2687 85.919L84.256 86.1421L86.3243 86.6085L87.8249 87.1763L89.1633 87.8049L90.4205 88.6363L92.1239 90.0558L93.1581 91.1711L93.8881 92.408L94.2937 93.3611L94.537 94.2939L94.5573 95.3281L94.3951 96.2001L94.1112 96.8692L93.584 97.579L92.8742 98.0251L92.0022 98.309Z" fill="#E63329"/>
<path d="M72.8597 97.5176L72.5961 97.4567L72.3122 97.0917L71.8863 96.2806L71.3185 95.4897L70.6899 94.9625L69.7368 94.4758L68.9663 94.2731L68.2565 94.2325L67.4048 94.3542L67.2223 94.3136L67.1615 94.05L67.2832 93.7864L67.8104 93.3605L68.6215 92.9752L69.2502 92.813L70.0613 92.7725L70.9738 92.9752L71.643 93.4011L72.1297 93.8878L72.4744 94.4353L72.6975 95.2058L72.9205 97.3553L72.8597 97.5176Z" fill="#005FAA"/>
<path d="M60.1452 88.6766L59.7802 88.413L58.7054 87.3585L57.1237 86.0405L55.5015 84.9049L53.717 84.0329L52.0136 83.4246L49.8438 82.8973L48.2824 82.6946L47.4713 82.6134L45.4232 82.654L43.4359 82.9582L40.9214 83.6274L38.5489 84.5399L37.5958 84.7427L36.805 84.6818L36.1155 84.4385L35.6491 84.0532L35.3855 83.6476L35.2435 82.9784L35.3652 82.0254L35.7099 81.1534L36.2372 80.3828L36.9469 79.7745L37.9405 79.1053L39.0153 78.5781L40.455 78.1117L42.199 77.7264L43.1926 77.625L45.2812 77.6656L47.4105 78.0508L49.2761 78.6795L51.8514 79.957L53.8589 81.2751L55.6029 82.5729L57.5496 84.479L58.6446 85.7971L59.8005 87.6222L60.1655 88.413L60.206 88.5752L60.1452 88.6766Z" fill="#E63329"/>
<path d="M68.439 88.0277L68.3376 87.9871L68.6621 87.2165L69.8991 85.4726L72.2716 82.9176L73.9953 81.5386L76.1042 80.1597L78.3956 78.9633L80.6668 78.1522L82.3905 77.8074L83.2219 77.7061L85.0063 77.7263L86.0405 77.9291L86.7908 78.2536L87.5006 78.6997L87.9872 79.2066L88.332 79.8353L88.4739 80.3828L88.4536 81.052L88.1292 81.782L87.6222 82.4309L86.8111 82.877L85.493 83.2623L84.1547 83.4042L78.7404 83.7084L76.7328 84.0329L75.3742 84.3776L73.5694 84.9859L72.2311 85.5537L70.2844 86.6487L68.6013 87.9466L68.439 88.0277Z" fill="#E63329"/>
<path d="M67.5873 86.1219L67.5062 86.0813L67.5265 85.5744L68.074 83.4046L68.7837 81.1537L69.8991 78.5986L71.1766 76.2667L72.0283 75.0702L73.5491 73.3669L74.2183 72.7382L75.3133 71.8866L76.4489 71.1768L77.8481 70.609L78.6998 70.4062L79.9773 70.4468L80.7073 70.6901L81.336 71.1565L81.6807 71.6229L81.9038 72.2921L81.9646 73.0221L81.7618 73.6508L81.2954 74.3402L80.4843 75.1311L79.2068 75.9422L77.3412 76.8953L75.6581 77.7267L74.4211 78.5378L71.9674 80.3831L70.4466 81.8634L69.4529 83.1004L68.3579 84.8443L67.7293 85.9596L67.5873 86.1219Z" fill="#E63329"/>
<path d="M60.3885 86.0605L60.1655 85.8375L59.0299 84.0327L58.1376 82.8566L56.4748 81.1126L54.3253 79.3484L51.9325 77.8276L47.958 75.6983L47.0049 74.9886L46.3965 74.3194L45.9707 73.5286L45.8085 72.9202L45.8288 72.1294L46.1532 71.4196L46.5993 70.9735L47.1671 70.6491L47.7552 70.4868L48.6069 70.4463L49.7424 70.6896L51.2228 71.3791L52.622 72.2713L54.5484 73.9544L55.9881 75.5361L57.5698 77.6856L58.5432 79.3484L59.2732 81.0315L59.9221 83.0391L60.4088 85.1074L60.4696 85.878L60.3885 86.0605Z" fill="#E63329"/>
<path d="M55.765 56.5968L55.4609 56.536L55.0147 56.0899L54.6497 55.6032L54.5483 55.2584L54.5889 54.6298L54.7511 53.8187L55.8461 51.2636L57.2656 48.8302L59.6382 45.4032L62.396 42.1384L63.6127 40.8609L65.3161 39.1778L67.9928 36.8458L71.7443 34.0069L74.421 32.3441L77.2194 30.7826L79.45 29.8296L80.9303 29.5254L81.4778 29.6065L82.0659 30.1135L82.2889 30.4785L82.2484 30.7218L81.9848 30.9449L79.4094 32.1007L76.8544 33.5405L75.4755 34.453L74.786 34.8991L72.1093 36.8458L71.359 37.4542L69.1284 39.2792L66.1475 41.9357L63.6735 44.6529L63.0246 45.4235L61.8688 46.7822L59.7193 49.6819L58.1984 52.0342L56.4545 55.1571L55.9475 56.3737L55.765 56.5968Z" fill="white"/>
<path d="M52.0136 54.7307L51.5472 54.7104L51.1822 54.4265L49.0124 51.9728L49.3166 50.7156L49.276 50.1884L49.0732 49.8234L47.9579 48.5255L45.8693 46.1733L40.9417 40.8807L35.7099 35.2028L33.7226 32.9722L33.0534 32.303L32.6682 31.7149L32.587 31.208L32.729 30.1738L33.2968 28.2068L34.2296 25.9153L35.3652 23.6645L36.4602 21.7177L37.5958 20.0144L40.0291 16.8104L41.55 15.1476L43.4359 13.3428L44.754 12.2073L46.7412 10.6864L49.5802 8.86136L52.5814 7.32021L54.9742 6.32658L56.8601 5.67768L57.9551 5.45462L59.0096 5.41406L59.5976 5.57629L60.0235 5.90074L62.031 8.09079L62.6394 8.78025L64.6672 11.0514L65.823 12.3492L70.7304 17.6824L71.7443 18.7166L72.3121 19.406L76.8747 24.2931L77.2802 24.5364L77.6655 24.5973L78.5578 24.4148L79.085 24.4553L79.45 24.6986L80.2003 25.5098L80.6464 26.0573L81.1128 26.6251L81.1736 26.9292L80.9709 27.4565L80.6261 28.3284L80.322 28.4704L78.9025 28.9165L75.8405 30.2954L73.9749 31.3093L69.4934 34.2902L67.2628 36.0544L64.3427 38.6703L61.8282 41.1848L60.0235 43.3343L58.8676 44.7944L57.0628 47.2886L55.2581 50.1884L54.3253 51.8917L53.7575 53.1895L53.3925 54.2846L53.2708 54.4265L52.8653 54.5076L52.3786 54.5685L52.0136 54.7307Z" fill="white"/>
<path d="M47.3699 54.2039L47.1468 54.062L46.3763 53.2509L45.9707 52.7034L44.2471 50.2497L43.0304 48.3233L42.1584 46.7213L41.8948 46.0318L41.8745 45.9102L42.1787 46.0115L43.7401 47.5324L46.2952 50.4322L46.7818 51.2433L46.863 51.6692L46.6805 52.7236L46.8224 53.2103L47.3902 54.0417L47.3699 54.2039Z" fill="white"/>
<path d="M50.5941 45.9505L49.783 45.9302L48.8705 45.6666L47.8769 45.1394L46.9035 44.3688L45.626 43.0304L44.1457 41.0837L43.1115 39.3804L42.564 38.0217L42.2598 36.8659L42.1584 35.7911L42.2801 34.7975L42.5842 33.6619L43.2737 32.2222L43.2331 31.8774L42.6451 30.9244L41.2662 29.1601L40.5767 28.1665L39.2586 26.4226L38.995 25.8954L39.0761 25.4492L39.6439 24.4759L40.1306 23.7661L40.4348 23.7256L40.6578 23.8473L42.3206 25.8954L50.0466 35.9128L52.2367 38.8531L53.4331 40.374L54.3253 41.5299L54.4064 41.8138L54.3862 42.1382L53.3723 43.8619L52.5814 44.8352L51.9528 45.3624L51.2633 45.7477L50.5941 45.9505Z" fill="#E63329"/>
<path d="M50.2088 42.3818L49.5802 42.3412L48.8502 42.0371L48.1404 41.4693L47.2482 40.5162L45.9098 38.6303L45.3826 37.6367L45.0581 36.6633L44.9973 36.3186L45.0176 35.6494L45.2001 35.1222L45.342 34.96H45.6057L46.0112 35.3655L50.5333 41.1854L50.8172 41.7126L50.7766 41.9357L50.5535 42.1993L50.2088 42.3818Z" fill="white"/>
<path d="M55.1162 40.9623L54.8526 40.8203L52.2772 36.1969L49.418 31.249L45.9099 24.8817L43.294 19.9338L43.2332 19.5688L43.4562 19.1024L44.2065 18.2101L44.5512 17.9059L44.896 17.5815L45.2001 17.5004L45.5043 17.6423L46.4168 18.5346L46.9846 19.1429L53.8995 26.362L55.0756 27.5178L55.1973 27.5381L55.1365 27.2948L53.2506 24.3139L48.181 16.5473L47.6335 15.6145V15.2292L48.0391 14.7425L49.3166 13.7895L49.8439 13.5664L50.1075 13.607L51.2836 14.5803L51.9528 15.2292L62.2541 25.0844L66.472 29.0792L66.695 29.4443L66.6342 29.7484L65.9853 30.2757L64.7686 31.0665L64.4442 31.1476L64.0994 30.9854L63.4708 30.3568L61.3213 28.1667L60.3074 27.1528L59.476 26.2403L58.8271 25.5711L55.4204 22.0224L53.5548 19.9946L53.1695 19.7715L53.2709 20.096L53.7981 21.0085L55.8056 24.1516L58.2188 28.0451L59.3543 29.7484L60.348 31.3504L61.6458 33.3579L61.7472 33.7432L61.5849 34.0677L60.0235 35.5074L59.7599 35.6494L59.4963 35.5885L58.969 35.1019L56.0693 32.0399L54.3659 30.1743L49.053 24.6586L48.7691 24.4761L48.7488 24.5978L49.053 25.2872L52.5814 31.2085L56.6573 38.4478L56.8196 38.9547L56.6371 39.3197L55.4609 40.7595L55.1162 40.9623Z" fill="#E63329"/>
<path d="M31.3298 30.154L31.0662 30.0729L30.4984 29.4037L30.3362 28.9981L30.3767 28.2073L30.539 27.3556L31.2487 25.3075L32.1409 23.2999L33.4793 20.9071L35.6694 17.6829L36.1763 16.9326L37.2511 15.6753L38.0825 14.6411L38.4272 14.2964L40.3536 12.228L41.2661 11.3561L42.0367 10.7072L43.0303 9.83519L45.5854 7.94932L48.2013 6.36762L50.7563 4.9887L53.1897 3.91396L55.2176 3.28533L56.5356 3.04199L57.1237 3.06227L57.4684 3.20422L58.1376 3.8734L58.2593 4.13702L58.1579 4.25868L56.1098 4.66425L53.7372 5.47538L50.6347 6.91513L48.4446 8.13182L45.3826 10.1799L43.1317 11.9847L41.55 13.4042L39.8872 15.1684L37.5958 17.987L36.0749 20.1365L34.2702 23.0566L32.9115 25.713L32.1815 27.6192L31.492 29.9917L31.3298 30.154Z" fill="white"/>
<path d="M68.4592 27.9634L67.4048 27.8012L66.4517 27.4362L65.5189 26.8684L63.5722 25.1853L62.903 24.4147L62.8219 24.1917L62.9233 23.9483L63.4505 23.6036L64.7078 22.9344L65.0322 22.8938L65.3364 23.0764L65.965 23.6847L66.5734 24.2525L67.3439 24.7594L68.0942 24.9419L68.4998 24.8608L68.804 24.6175L68.9256 24.1917L68.7228 23.6644L68.1348 22.9547L67.4656 22.3869L66.0461 21.5149L64.2211 20.6227L61.0171 19.264L58.0768 17.8243L56.3531 16.6482L55.4203 15.7356L54.7309 14.7826L54.3253 13.8295L54.1631 12.9575L54.2239 12.1464L54.447 11.4164L54.8931 10.7066L55.5217 10.1388L56.272 9.79412L57.3468 9.55078H58.4823L59.3746 9.75356L60.5913 10.2605L62.2135 11.315L63.41 12.41L63.6736 12.8359L63.5519 13.0995L62.7611 13.5659L61.7471 13.9917L61.3821 14.012L60.9563 13.7484L60.0843 12.9778L59.2326 12.4911L58.4621 12.2883L57.9348 12.3695L57.6307 12.6533L57.4887 13.0184L57.509 13.4442L57.7726 13.9309L58.4012 14.5595L59.5976 15.3706L60.9968 16.1209L61.6457 16.3643L61.9702 16.4859L62.3149 16.6887L65.5594 18.0474L67.2628 18.899L68.9459 19.9129L70.0004 20.7646L70.7912 21.5758L71.4604 22.5288L71.8254 23.3197L72.0485 24.2728L72.089 25.0231L71.9471 25.6922L71.6024 26.3411L71.0751 26.9698L70.3654 27.4362L69.534 27.8012L68.8851 27.9228L68.4592 27.9634Z" fill="#E63329"/>
<path d="M80.9912 22.4071L80.6667 22.1638L79.9975 21.5757L79.5514 21.3729L79.0444 21.4338L78.6592 21.5554L78.2536 21.4946L77.5641 20.866L76.0635 19.2437L73.3868 16.4048L73.2449 16.1006L73.6302 16.1614L75.4146 17.2564L77.7872 19.0004L79.6933 20.7037L80.9506 22.0827L81.052 22.3463L80.9912 22.4071Z" fill="white"/>
<path d="M101.837 227.968C105.771 227.968 108.995 231.172 108.995 235.126C108.995 239.08 105.791 242.284 101.837 242.284C97.8829 242.284 94.679 239.08 94.679 235.126C94.679 231.172 97.8829 227.968 101.837 227.968ZM101.837 240.702C104.676 240.702 106.927 238.452 106.927 235.126C106.927 231.8 104.676 229.549 101.837 229.549C98.9982 229.549 96.7473 231.821 96.7473 235.126C96.7473 238.431 98.9577 240.702 101.837 240.702ZM98.9577 231.111H101.939C103.966 231.111 105.122 231.699 105.122 233.483C105.122 234.923 104.25 235.511 103.013 235.613L105.122 239.06H103.378L101.472 235.694H100.661V239.06H98.9577V231.111ZM102.06 234.396C102.871 234.396 103.419 234.254 103.419 233.342C103.419 232.53 102.547 232.429 101.878 232.429H100.661V234.396H102.06Z" fill="#005FAA"/>
<path d="M73.5288 222.29L73.1233 222.25V222.148L73.4883 222.128L73.5897 222.189L73.5288 222.29Z" fill="white"/>
<path d="M193.008 42.8076C181.916 42.8076 168.978 47.7961 168.978 61.8691C168.978 71.0349 175.386 74.5633 181.571 77.97C186.641 80.7482 191.426 83.3843 191.426 88.9608C191.426 96.3016 184.876 99.5866 178.367 99.5866C172.608 99.5866 167.214 97.4169 162.55 95.3282C162.266 96.261 159.732 104.474 159.468 105.325C165.937 107.597 172.04 108.793 177.617 108.793C185.607 108.793 204.202 106.745 204.202 87.6833C204.202 77.747 197.165 73.6711 190.94 70.0615C186.215 67.324 181.733 64.7284 181.733 59.9427C181.733 54.4676 187.533 52.0139 193.292 52.0139C197.652 52.0139 202.458 53.2103 206.635 55.1976C206.899 54.3054 209.21 46.3766 209.454 45.5452C204.79 43.7607 199.274 42.8279 193.008 42.8279V42.8076Z" fill="#005FAA"/>
<path d="M216.875 56.4141H227.217L222.857 76.8951H243.683L248.043 56.4141H258.385L247.597 107.089H237.255L241.98 84.8644H221.154L216.429 107.089H206.087L216.875 56.4141Z" fill="#005FAA" stroke="#005FAA" stroke-width="0.45" stroke-miterlimit="3.86"/>
<path d="M267.206 56.4141H297.563L296.021 64.4037H275.845L273.188 76.8951H291.215L289.593 84.8847H271.485L268.463 99.12H288.843L287.079 107.11H256.357L267.226 56.4343H267.206V56.4141Z" fill="#005FAA" stroke="#005FAA" stroke-width="0.45" stroke-miterlimit="3.86"/>
<path d="M306.444 56.4141H318.632C328.162 56.4141 339.174 56.2722 339.174 68.3986C339.174 77.0979 332.522 81.7619 324.107 81.9039V82.0458C326.905 82.1877 328.69 83.9317 329.359 86.6895L334.307 107.089H323.438L320.923 95.1861C319.747 89.8124 320.031 86.0406 314.414 86.0406H310.5L305.998 107.089H295.656L306.444 56.4141ZM312.345 78.051H316.117C321.653 78.051 328.386 76.3882 328.386 69.6964C328.386 64.3835 323.722 64.3835 319.524 64.3835H315.245L312.366 78.0307L312.345 78.051Z" fill="#005FAA" stroke="#005FAA" stroke-width="0.45" stroke-miterlimit="3.86"/>
<path d="M345.115 56.4141H355.457L357.018 95.2468H357.16L374.295 56.4141H388.166L388.389 95.2468H388.531L406.761 56.4141H417.488L392.89 107.089H379.973L379.466 66.5735H379.324L361.155 107.089H348.38L345.135 56.4141H345.115Z" fill="#005FAA" stroke="#005FAA" stroke-width="0.45" stroke-miterlimit="3.86"/>
<path d="M423.186 56.4141H433.974L423.105 107.089H412.317L423.166 56.4141H423.186Z" fill="#005FAA" stroke="#005FAA" stroke-width="0.45" stroke-miterlimit="3.86"/>
<path d="M443.505 56.4141H456.584L467.595 94.8818H467.737L476.153 56.4141H485.907L474.753 107.089H461.451L450.663 68.2565H450.521L442.329 107.089H432.433L443.505 56.4141Z" fill="#005FAA" stroke="#005FAA" stroke-width="0.45" stroke-miterlimit="3.86"/>
<path d="M492.842 172.142C496.776 172.142 500 175.346 500 179.3C500 183.254 496.796 186.458 492.842 186.458C488.888 186.458 485.684 183.254 485.684 179.3C485.684 175.346 488.888 172.142 492.842 172.142ZM492.842 184.856C495.681 184.856 497.932 182.585 497.932 179.28C497.932 175.974 495.66 173.703 492.842 173.703C490.023 173.703 487.752 175.974 487.752 179.28C487.752 182.585 489.983 184.856 492.842 184.856ZM489.983 175.285H492.963C494.991 175.285 496.147 175.873 496.147 177.657C496.147 179.097 495.275 179.685 494.038 179.786L496.147 183.234H494.403L492.497 179.868H491.686V183.234H489.983V175.285ZM493.065 178.57C493.876 178.57 494.444 178.428 494.444 177.515C494.444 176.704 493.572 176.603 492.903 176.603H491.686V178.57H493.065Z" fill="#005FAA"/>
<path d="M208.42 171.594L207.466 171.432C207.466 171.432 207.203 122.987 207.203 122.196H191.366C191.163 122.683 171.087 171.574 171.087 171.574L170.134 171.432C170.134 171.432 168.33 122.967 168.309 122.196H156.832C156.893 123.028 160.604 185.383 160.644 186.134H175.204C175.407 185.647 196.719 134.627 196.719 134.627L197.672 134.769C197.672 134.769 198.28 185.343 198.28 186.134H213.002C213.226 185.667 241.392 123.312 241.899 122.196H230.056C229.833 122.683 208.46 171.594 208.46 171.594H208.42Z" fill="#005FAA"/>
<path d="M241.798 135.094H251.835L241.716 185.769H231.679L241.798 135.094Z" fill="#005FAA" stroke="#005FAA" stroke-width="0.45" stroke-miterlimit="3.86"/>
<path d="M260.778 135.094H270.41L261.812 177.779H280.65L279.008 185.769H250.598L260.778 135.094Z" fill="#005FAA" stroke="#005FAA" stroke-width="0.45" stroke-miterlimit="3.86"/>
<path d="M295.17 135.094H304.802L296.204 177.779H315.042L313.4 185.769H284.99L295.17 135.094Z" fill="#005FAA" stroke="#005FAA" stroke-width="0.45" stroke-miterlimit="3.86"/>
<path d="M329.075 135.094H339.113L329.014 185.769H318.976L329.075 135.094Z" fill="#005FAA" stroke="#005FAA" stroke-width="0.45" stroke-miterlimit="3.86"/>
<path d="M363.122 135.094H373.788L382.528 185.769H372.896L371.233 174.15H350.813L344.689 185.769H334.023L363.122 135.094ZM355.072 166.18H369.935L366.914 144.118H366.63L355.072 166.18Z" fill="#005FAA" stroke="#005FAA" stroke-width="0.45" stroke-miterlimit="3.86"/>
<path d="M397.879 135.094H413.777L417.001 171.615H417.143L436.063 135.094H452.083L441.842 185.769H431.662L440.727 143.813H440.585L418.847 185.769H409.62L405.767 143.813H405.625L396.824 185.769H387.679L397.859 135.094H397.879Z" fill="#005FAA" stroke="#005FAA" stroke-width="0.45" stroke-miterlimit="3.86"/>
<path d="M484 144.827C481.182 143.307 477.532 142.212 474.024 142.212C470.515 142.212 465.973 143.672 465.973 148.011C465.973 156.143 482.338 155.636 482.338 169.729C482.338 182.139 473.131 186.641 462.607 186.641C458.004 186.641 453.259 185.485 448.919 183.822L451.393 175.184C455.104 176.989 459.018 178.672 463.154 178.672C467.778 178.672 472.3 176.198 472.3 170.763C472.3 161.618 455.935 163.078 455.935 149.552C455.935 138.886 464.594 134.242 473.821 134.242C478.018 134.242 482.358 134.83 486.272 136.493L484 144.848V144.827Z" fill="#005FAA" stroke="#005FAA" stroke-width="0.45" stroke-miterlimit="3.86"/>
</g>
<defs>
<clipPath id="clip0_8_16084">
<rect width="500" height="246.279" fill="white"/>
</clipPath>
</defs>
</svg>
