<svg width="500" height="103" viewBox="0 0 500 103" fill="none" xmlns="http://www.w3.org/2000/svg">
<g clip-path="url(#clip0_8_16087)">
<path fill-rule="evenodd" clip-rule="evenodd" d="M74.6648 102.208L125.673 51.7594L74.4805 -0.000236511H38.9526L90.1455 51.7594L39.1381 102.208H74.6648Z" fill="#D7283F"/>
<path fill-rule="evenodd" clip-rule="evenodd" d="M13.9583 67.6648L20.1003 61.5225L22.3296 63.7506C23.2543 64.6764 24.1066 65.1965 24.889 65.3165C25.6671 65.4409 26.4039 65.162 27.0828 64.4818C27.7129 63.8528 28.0031 63.1504 27.9698 62.3614C27.9232 61.5737 27.5806 60.8533 26.9172 60.191C26.3416 59.6132 25.586 59.2132 24.6725 58.9964C23.7456 58.7785 22.6432 58.7386 21.3641 58.8874C20.7916 58.9441 19.9515 59.0419 18.8556 59.191C15.2895 59.6465 12.7247 59.8587 11.1466 59.8243C9.70618 59.812 8.3238 59.5054 6.98695 58.8997C5.65436 58.2874 4.41537 57.4129 3.2617 56.2581C0.963495 53.9611 -0.116715 51.4649 0.00997208 48.7678C0.13555 46.0694 1.47135 43.4523 4.01516 40.9097C6.55109 38.3729 9.03846 37.0528 11.49 36.9333C13.9404 36.8138 16.3299 37.9233 18.6667 40.2591L20.9239 42.5154L15.0496 48.3912L13.158 46.4984C12.2778 45.6182 11.4789 45.1283 10.7466 45.025C10.0208 44.9283 9.3241 45.2128 8.65496 45.8827C8.11271 46.425 7.84926 47.0529 7.88937 47.7553C7.91811 48.4589 8.24386 49.1166 8.85496 49.728C9.88285 50.7559 12.8712 51.0248 17.8323 50.5337C17.9689 50.5215 18.0667 50.5158 18.1122 50.5158C18.3401 50.4936 18.6323 50.4649 18.9979 50.4304C23.3988 50.0302 26.266 50.0302 27.6031 50.4304C28.501 50.6982 29.3755 51.105 30.2378 51.6362C31.0947 52.1739 31.9181 52.8365 32.7118 53.6299C35.0789 55.9958 36.1867 58.5674 36.0433 61.3623C35.8957 64.1506 34.501 66.8702 31.8549 69.516C29.2321 72.1388 26.5695 73.4646 23.8779 73.4924C21.1806 73.528 18.5569 72.2645 16.0152 69.7217L13.9583 67.6648ZM24.5658 30.498L23.7777 31.2832L41.8456 49.3533L42.6337 48.5644C43.8349 47.3641 44.4352 46.4108 44.4295 45.7195C44.4241 45.0159 43.9148 44.1647 42.9148 43.1655L29.9835 30.2334C28.9778 29.2262 28.1263 28.7198 27.4242 28.7141C26.7206 28.6971 25.7658 29.2974 24.5658 30.498ZM12.8803 32.8109L20.566 25.1238C23.8802 21.8094 26.6461 20.1081 28.87 20.0227C31.0859 19.9317 33.612 21.303 36.4356 24.1252L49.0582 36.7484C50.5661 38.2562 51.5886 39.6332 52.132 40.873C52.6699 42.12 52.8699 43.4725 52.7254 44.9305C52.59 46.1416 52.1553 47.3308 51.4176 48.5144C50.6807 49.6967 49.1837 51.4216 46.9154 53.6908L46.0286 54.5767L40.3375 60.2678L12.8803 32.8109ZM57.5408 43.0645L30.0834 15.6073L36.2945 9.39671L63.752 36.8536L57.5408 43.0645Z" fill="#231F20"/>
<path fill-rule="evenodd" clip-rule="evenodd" d="M132.745 55.3217H140.835L140.22 58.2577C139.964 59.4768 139.993 60.3803 140.305 60.9749C140.61 61.5696 141.216 61.8697 142.112 61.8697C142.939 61.8697 143.65 61.5994 144.261 61.0572C144.866 60.5081 145.262 59.8079 145.444 58.9357C145.604 58.1743 145.529 57.4142 145.227 56.6696C144.918 55.9163 144.376 55.1638 143.591 54.4193C143.249 54.0804 142.735 53.5914 142.046 52.9669C139.826 50.9196 138.32 49.3694 137.528 48.3071C136.788 47.3512 136.313 46.2377 136.1 44.9574C135.894 43.6783 135.946 42.286 136.265 40.7659C136.9 37.7417 138.327 35.3832 140.541 33.6904C142.756 31.9977 145.536 31.1556 148.886 31.1556C152.227 31.1556 154.572 31.9237 155.944 33.4571C157.315 34.9934 157.675 37.295 157.029 40.3733L156.406 43.3472H148.669L149.191 40.8555C149.435 39.6962 149.41 38.8456 149.111 38.2965C148.811 37.7559 148.221 37.4856 147.34 37.4856C146.625 37.4856 145.988 37.7246 145.447 38.214C144.903 38.6976 144.549 39.3434 144.38 40.1486C144.096 41.5036 145.437 43.6496 148.41 46.5921C148.49 46.6744 148.546 46.7344 148.569 46.7646C148.707 46.9 148.88 47.0735 149.098 47.2912C151.707 49.925 153.2 51.8155 153.577 52.9589C153.83 53.7268 153.962 54.5692 153.987 55.4873C154.006 56.4053 153.907 57.3843 153.687 58.4301C153.033 61.5462 151.561 63.9699 149.26 65.717C146.962 67.455 144.068 68.3287 140.584 68.3287C137.129 68.3287 134.688 67.4473 133.264 65.6936C131.833 63.94 131.475 61.3818 132.177 58.0321L132.745 55.3217ZM165.377 62.3974L164.182 68.0874C163.666 68.1773 163.148 68.2453 162.626 68.2985C162.109 68.3508 161.594 68.373 161.082 68.373C158.575 68.373 156.971 67.8461 156.258 66.785C155.548 65.7235 155.563 63.4276 156.307 59.8836L159.452 44.8897H157.555L158.711 39.3804H160.608L161.879 33.3149H169.384L168.112 39.3804H170.204L169.048 44.8897H166.821L163.467 60.8759C163.363 61.3727 163.455 61.7585 163.748 62.0128C164.041 62.2697 164.519 62.3974 165.18 62.3974H165.377ZM178.402 46.2832L177.76 49.3461H181.208L181.85 46.2832C182.03 45.4254 182.022 44.8152 181.829 44.4462C181.629 44.0775 181.229 43.8962 180.627 43.8962C180.024 43.8962 179.547 44.0851 179.192 44.4607C178.841 44.8374 178.579 45.4399 178.402 46.2832ZM175.438 60.4105C175.255 61.2839 175.262 61.9007 175.448 62.2697C175.634 62.6376 176.041 62.8188 176.658 62.8188C177.274 62.8188 177.757 62.6376 178.098 62.2697C178.438 61.9007 178.704 61.2839 178.887 60.4105L179.594 57.0386H187.354L186.873 59.3337C186.237 62.3596 184.971 64.6245 183.084 66.1227C181.196 67.6205 178.668 68.373 175.493 68.373C172.316 68.373 170.11 67.6285 168.864 66.138C167.62 64.6401 167.313 62.3741 167.951 59.3337L170.462 47.3592C171.097 44.3341 172.353 42.0757 174.226 40.5781C176.097 39.0874 178.616 38.342 181.793 38.342C184.968 38.342 187.182 39.0874 188.443 40.5781C189.702 42.0757 190.018 44.3341 189.383 47.3592L187.858 54.6372H176.65L175.438 60.4105ZM200.204 46.2832L199.562 49.3461H203.009L203.653 46.2832C203.832 45.4254 203.824 44.8152 203.631 44.4462C203.431 44.0775 203.032 43.8962 202.429 43.8962C201.827 43.8962 201.35 44.0851 200.993 44.4607C200.643 44.8374 200.381 45.4399 200.204 46.2832ZM197.242 60.4105C197.058 61.2839 197.065 61.9007 197.25 62.2697C197.436 62.6376 197.843 62.8188 198.461 62.8188C199.076 62.8188 199.559 62.6376 199.9 62.2697C200.24 61.9007 200.506 61.2839 200.689 60.4105L201.396 57.0386H209.156L208.674 59.3337C208.039 62.3596 206.775 64.6245 204.887 66.1227C202.999 67.6205 200.471 68.373 197.295 68.373C194.119 68.373 191.912 67.6285 190.666 66.138C189.422 64.6401 189.115 62.3741 189.754 59.3337L192.264 47.3592C192.9 44.3341 194.155 42.0757 196.028 40.5781C197.898 39.0874 200.419 38.342 203.595 38.342C206.77 38.342 208.985 39.0874 210.246 40.5781C211.504 42.0757 211.821 44.3341 211.187 47.3592L209.659 54.6372H198.452L197.242 60.4105ZM210.218 67.824L217.804 31.6591H225.436L217.849 67.824H210.218Z" fill="#231F20"/>
<path fill-rule="evenodd" clip-rule="evenodd" d="M248.517 37.8325H247.478L242.485 61.6294H243.524C245.105 61.6294 246.179 61.3961 246.725 60.9369C247.284 60.4703 247.697 59.5744 247.972 58.2575L251.545 41.2243C251.823 39.9008 251.786 39.0047 251.424 38.5381C251.072 38.063 250.097 37.8325 248.517 37.8325ZM240.591 31.6589H250.714C255.08 31.6589 257.875 32.3588 259.101 33.7671C260.327 35.1668 260.549 37.7301 259.769 41.4499L256.283 58.0774C255.865 60.0646 255.3 61.645 254.596 62.8186C253.882 63.9921 252.908 65.0166 251.673 65.8823C250.636 66.589 249.463 67.0861 248.136 67.3794C246.811 67.6727 244.657 67.8237 241.669 67.8237H233.005L240.591 31.6589ZM256.748 73.0693L257.956 67.3114H259.19C259.792 67.3114 260.253 67.2292 260.569 67.0559C260.882 66.8903 261.081 66.6124 261.164 66.228C261.201 66.0548 261.232 65.7546 261.272 65.3244C261.314 64.9034 261.326 64.4522 261.326 63.9853L261.67 38.8681H269.704L268.171 51.1974C268.014 52.4463 267.838 53.8168 267.639 55.307C267.448 56.7972 267.189 58.6032 266.882 60.7181C267.349 59.2055 267.898 57.3764 268.535 55.2393C269.178 53.101 269.576 51.7473 269.741 51.1752L273.451 38.8681H281.144L270.424 65.5734C269.275 68.4627 268.009 70.4431 266.632 71.4889C265.243 72.5436 263.215 73.0693 260.543 73.0693H256.748ZM276.498 67.8237L282.572 38.8681H289.804L289.081 42.3091C290.012 41.03 291.067 40.0516 292.259 39.366C293.448 38.6803 294.663 38.3418 295.912 38.3418C297.764 38.3418 299.019 38.9307 299.685 40.0971C300.35 41.2622 300.436 43.0391 299.938 45.4172L295.238 67.8237H287.605L291.818 47.7356C291.978 46.9831 291.961 46.4187 291.778 46.034C291.594 45.6508 291.244 45.4619 290.709 45.4619C290.054 45.4619 289.517 45.7251 289.107 46.2454C288.697 46.7643 288.359 47.6534 288.1 48.9023L284.128 67.8237H276.498ZM312.439 53.3801C310.803 54.1858 309.688 54.9001 309.11 55.5104C308.538 56.1195 308.137 56.9551 307.91 58.0319L307.295 60.9671C307.067 62.0504 307.022 62.7662 307.153 63.1119C307.284 63.4576 307.608 63.632 308.129 63.632C308.82 63.632 309.412 63.323 309.918 62.6985C310.427 62.0738 310.803 61.1782 311.048 60.0191L312.439 53.3801ZM310.177 65.7466C309.076 66.6491 308.026 67.3037 307.028 67.7339C306.026 68.1629 305.011 68.3728 303.981 68.3728C302.157 68.3728 300.845 67.7404 300.04 66.4835C299.244 65.2266 299.064 63.533 299.511 61.4026L299.989 59.1156C300.387 57.2185 301.161 55.6228 302.294 54.3357C303.429 53.0566 305.011 51.9729 307.045 51.1072C307.415 50.9485 307.944 50.7305 308.621 50.4449C311.856 49.128 313.617 47.7644 313.91 46.3732L314.126 45.3339C314.234 44.8218 314.16 44.3859 313.898 44.0249C313.634 43.6636 313.252 43.4827 312.746 43.4827C312.188 43.4827 311.693 43.7316 311.25 44.236C310.806 44.7327 310.487 45.4173 310.308 46.283L309.929 48.0878H302.808L303.187 46.283C303.716 43.7683 304.919 41.8201 306.814 40.4272C308.712 39.0331 311.116 38.3418 314.026 38.3418C317.235 38.3418 319.417 39.0132 320.584 40.3503C321.756 41.6832 322.021 43.875 321.381 46.9222L316.996 67.8237H309.875L310.177 65.7466ZM320.607 67.8237L326.678 38.8681H333.913L333.19 42.3091C334.177 40.9842 335.256 39.9976 336.425 39.3375C337.603 38.6718 338.863 38.3418 340.203 38.3418C341.58 38.3418 342.652 38.6889 343.406 39.3887C344.163 40.0886 344.539 41.0587 344.527 42.3091C345.495 40.9987 346.573 40.0118 347.759 39.3432C348.954 38.6718 350.229 38.3418 351.583 38.3418C353.435 38.3418 354.687 38.9307 355.352 40.0971C356.021 41.2622 356.106 43.0391 355.608 45.4172L350.909 67.8237H343.275L347.489 47.7356C347.651 46.9678 347.625 46.403 347.426 46.0275C347.227 45.6508 346.837 45.4619 346.251 45.4619C345.543 45.4619 344.985 45.7108 344.573 46.2153C344.16 46.712 343.813 47.6079 343.54 48.9023L339.574 67.8237H331.941L336.155 47.7356C336.317 46.9678 336.291 46.403 336.083 46.0275C335.876 45.6508 335.489 45.4619 334.917 45.4619C334.209 45.4619 333.651 45.7108 333.238 46.2153C332.826 46.712 332.479 47.6079 332.206 48.9023L328.237 67.8237H320.607ZM361.011 37.2578L362.186 31.6589H369.816L368.644 37.2578H361.011ZM354.601 67.8237L360.675 38.8681H368.306L362.232 67.8237H354.601ZM381.299 46.2753C381.478 45.4252 381.469 44.815 381.276 44.446C381.074 44.0773 380.676 43.896 380.075 43.896C379.472 43.896 378.994 44.0849 378.639 44.4605C378.289 44.8372 378.027 45.4397 377.851 46.2753L374.886 60.4168C374.704 61.2837 374.71 61.9005 374.897 62.2695C375.082 62.6374 375.489 62.8186 376.107 62.8186C376.721 62.8186 377.205 62.6374 377.546 62.2695C377.885 61.9005 378.152 61.2837 378.334 60.4168L379.356 55.5403H387.114L386.32 59.3335C385.686 62.3594 384.42 64.6243 382.533 66.1225C380.644 67.6203 378.115 68.3728 374.94 68.3728C371.762 68.3728 369.557 67.6283 368.311 66.1378C367.068 64.6399 366.761 62.3739 367.398 59.3335L369.91 47.3589C370.545 44.3339 371.802 42.0678 373.674 40.5779C375.543 39.0872 378.064 38.3418 381.242 38.3418C384.414 38.3418 386.63 39.0872 387.89 40.5779C389.151 42.0678 389.467 44.3339 388.832 47.3589L388.309 49.8495H380.55L381.299 46.2753ZM388.75 58.4231H395.697L395.344 60.1025C395.157 61.0115 395.154 61.7048 395.344 62.1873C395.538 62.6607 395.919 62.9017 396.474 62.9017C396.986 62.9017 397.444 62.6985 397.845 62.284C398.249 61.8695 398.522 61.3204 398.667 60.6291C398.869 59.6578 398.269 58.4766 396.861 57.0763C396.747 56.9773 396.679 56.903 396.644 56.8572C396.374 56.594 395.993 56.225 395.504 55.7582C392.198 52.5377 390.849 49.4671 391.464 46.5387C391.987 44.0315 393.213 42.0223 395.137 40.5324C397.063 39.0416 399.379 38.2963 402.095 38.2963C404.713 38.2963 406.602 38.9819 407.751 40.3589C408.901 41.7367 409.219 43.6636 408.696 46.1476L408.423 47.4488H401.524L401.785 46.1919C401.973 45.2963 401.985 44.6417 401.814 44.2283C401.643 43.8138 401.273 43.6115 400.693 43.6115C400.226 43.6115 399.8 43.7916 399.407 44.1526C399.014 44.514 398.761 44.9652 398.647 45.5074C398.431 46.5387 399.33 47.9991 401.339 49.8961C401.97 50.4827 402.451 50.9485 402.787 51.2808C404.451 52.8987 405.518 54.3434 405.982 55.6159C406.451 56.8874 406.508 58.371 406.155 60.0558C405.623 62.6007 404.369 64.6243 402.4 66.1225C400.437 67.6203 398.03 68.3728 395.196 68.3728C392.536 68.3728 390.599 67.665 389.384 66.2437C388.166 64.8277 387.819 62.8641 388.343 60.3648L388.75 58.4231ZM407.151 67.8237L408.878 59.5966H416.198L414.787 66.3259C414.52 67.605 414.002 68.7862 413.228 69.8864C412.457 70.9766 411.384 72.038 410.024 73.0693H406.05C407.327 72.1146 408.36 71.2033 409.154 70.3376C409.945 69.4718 410.519 68.6294 410.861 67.8237H407.151Z" fill="#231F20"/>
<path fill-rule="evenodd" clip-rule="evenodd" d="M429.584 67.824L437.172 31.6591H445.351L437.766 67.824H429.584ZM441.556 67.824L447.633 38.8683H454.864L454.142 42.3093C455.072 41.0302 456.128 40.0518 457.32 39.3662C458.509 38.6805 459.724 38.342 460.973 38.342C462.825 38.342 464.079 38.9309 464.745 40.0973C465.411 41.2624 465.496 43.0393 464.998 45.4174L460.298 67.824H452.665L456.879 47.7358C457.038 46.9833 457.021 46.4189 456.836 46.0342C456.654 45.651 456.304 45.4621 455.769 45.4621C455.115 45.4621 454.577 45.7253 454.165 46.2456C453.758 46.7645 453.419 47.6536 453.157 48.9025L449.189 67.824H441.556ZM479.237 46.2755C479.414 45.4254 479.408 44.8152 479.215 44.4462C479.013 44.0775 478.614 43.8962 478.011 43.8962C477.411 43.8962 476.933 44.0851 476.577 44.4607C476.227 44.8374 475.966 45.4399 475.789 46.2755L472.822 60.417C472.643 61.2839 472.648 61.9007 472.833 62.2697C473.018 62.6376 473.428 62.8188 474.045 62.8188C474.66 62.8188 475.141 62.6376 475.482 62.2697C475.823 61.9007 476.091 61.2839 476.27 60.417L477.294 55.5405H485.053L484.259 59.3337C483.622 62.3596 482.358 64.6245 480.472 66.1227C478.583 67.6205 476.054 68.373 472.879 68.373C469.701 68.373 467.493 67.6285 466.25 66.138C465.007 64.6401 464.7 62.3741 465.337 59.3337L467.846 47.3592C468.481 44.3341 469.741 42.068 471.61 40.5781C473.482 39.0874 476.003 38.342 479.178 38.342C482.353 38.342 484.569 39.0874 485.829 40.5781C487.09 42.068 487.405 44.3341 486.771 47.3592L486.247 49.8497H478.486L479.237 46.2755ZM485.755 67.824L487.556 59.2435H494.879L493.078 67.824H485.755Z" fill="#231F20"/>
<path fill-rule="evenodd" clip-rule="evenodd" d="M493.232 40.8227V42.5932H493.878C494.279 42.5932 494.577 42.5209 494.771 42.3775C494.97 42.2364 495.067 42.0219 495.067 41.7374C495.067 41.4196 494.964 41.1872 494.762 41.0418C494.555 40.895 494.225 40.8227 493.772 40.8227H493.232ZM491.414 39.6842H494.074C495.013 39.6842 495.724 39.8463 496.213 40.1707C496.703 40.4922 496.944 40.9707 496.944 41.5986C496.944 42.0353 496.819 42.4108 496.572 42.7232C496.324 43.0342 495.98 43.2578 495.536 43.3844L497.007 46.3081H495.004L493.758 43.6689H493.232V46.3081H491.414V39.6842ZM493.963 38.1877C493.294 38.1877 492.668 38.3072 492.085 38.5434C491.499 38.7795 490.976 39.1237 490.509 39.5761C490.025 40.0626 489.656 40.6088 489.402 41.2151C489.149 41.823 489.021 42.4652 489.021 43.1366C489.021 43.7878 489.138 44.4057 489.377 44.9858C489.613 45.5682 489.966 46.0925 490.429 46.5617C490.902 47.0439 491.439 47.4174 492.043 47.6763C492.646 47.9341 493.283 48.0629 493.949 48.0629C494.6 48.0629 495.229 47.9409 495.835 47.6962C496.435 47.4496 496.973 47.1005 497.448 46.6416C497.923 46.1827 498.287 45.6558 498.535 45.0546C498.782 44.4558 498.908 43.8157 498.908 43.1366C498.908 42.4709 498.788 41.8407 498.552 41.2506C498.313 40.6629 497.966 40.1394 497.513 39.6813C497.033 39.192 496.492 38.8193 495.889 38.5661C495.286 38.3158 494.646 38.1877 493.963 38.1877ZM493.96 37.081C494.799 37.081 495.593 37.2347 496.338 37.5448C497.081 37.8577 497.741 38.3072 498.319 38.899C498.862 39.4594 499.28 40.1024 499.568 40.8227C499.858 41.5462 500 42.3175 500 43.1286C500 43.9633 499.849 44.748 499.542 45.4825C499.238 46.216 498.794 46.8595 498.213 47.4151C497.627 47.9807 496.964 48.4163 496.233 48.7164C495.499 49.0189 494.742 49.1699 493.96 49.1699C493.146 49.1699 492.37 49.012 491.641 48.7008C490.905 48.3887 490.25 47.9341 489.676 47.3341C489.109 46.7528 488.674 46.1005 488.378 45.3804C488.077 44.6635 487.929 43.9121 487.929 43.1286C487.929 42.3175 488.088 41.5317 488.404 40.7852C488.722 40.0341 489.178 39.3684 489.772 38.788C490.336 38.2247 490.976 37.8008 491.687 37.5135C492.398 37.2233 493.158 37.081 493.96 37.081Z" fill="#231F20"/>
</g>
<defs>
<clipPath id="clip0_8_16087">
<rect width="500" height="102.208" fill="white"/>
</clipPath>
</defs>
</svg>
