<svg width="500" height="214" viewBox="0 0 500 214" fill="none" xmlns="http://www.w3.org/2000/svg">
<g clip-path="url(#clip0_8_16086)">
<mask id="mask0_8_16086" style="mask-type:luminance" maskUnits="userSpaceOnUse" x="-86" y="-121" width="3884" height="2187">
<path d="M-85.9236 -120.373H3797.59V2065.27H-85.9236V-120.373Z" fill="white"/>
</mask>
<g mask="url(#mask0_8_16086)">
<path fill-rule="evenodd" clip-rule="evenodd" d="M52.6246 200.809H44.5235V166.396L36.8437 200.809H28.3537L20.8683 166.396V200.809H12.7672V159.526H25.3077L32.7931 192.092L40.2786 159.526H52.6246V200.809ZM82.7607 194.912C82.7607 198.573 83.5708 199.384 84.381 199.578V200.809H75.891C75.4697 199.383 75.4697 198.962 75.2753 197.342C73.4607 199.189 71.0303 201.587 65.5864 201.587C61.1146 201.587 56.4808 199.189 56.4808 192.903C56.4808 187.037 60.1101 183.991 65.1651 183.181L72.2617 182.177C73.4607 181.982 75.0809 181.561 75.0809 179.746C75.0809 176.506 71.8405 176.312 69.8314 176.312C65.9753 176.312 65.3596 178.742 64.9707 180.557H57.4853C58.2954 171.256 64.7763 170.025 70.8359 170.025C75.0809 170.025 82.7607 171.256 82.7607 178.742V194.912ZM75.0809 186.195C74.2708 186.811 73.0718 187.199 69.6045 187.815C66.7854 188.236 64.355 189.047 64.355 192.287C64.355 195.106 66.5909 195.916 67.9843 195.916C71.4516 195.916 75.0809 193.68 75.0809 190.051V186.195ZM97.1159 170.414H102.171V176.085H97.1159V192.676C97.1159 194.296 97.3427 195.106 100.551 195.106C100.961 195.106 101.501 195.031 102.171 194.879V200.971C100.832 201.101 99.557 201.166 98.3473 201.166H97.3427C90.4406 201.166 89.2416 198.541 89.2416 194.49V176.085H85.1911V170.414H89.2416V162.118H97.1159V170.414ZM131.497 192.06C129.488 199.157 123.428 201.555 118.146 201.555C109.656 201.555 103.208 197.536 103.208 185.19C103.208 181.529 104.407 169.993 117.757 169.993C123.623 169.993 131.918 172.844 131.918 186.584V188.01H111.082C111.277 190.245 111.892 195.301 118.146 195.301C120.382 195.301 122.813 194.069 123.428 192.06H131.497ZM123.59 182.76C123.201 177.899 119.961 176.474 117.336 176.474C113.675 176.474 111.665 178.904 111.277 182.76H123.59ZM134.899 170.187H142.579V175.469C144.426 172.423 146.241 169.377 151.069 169.377C151.48 169.377 151.955 169.453 152.495 169.604V177.705C151.879 177.478 151.069 177.478 150.292 177.478C144.005 177.478 143.001 181.529 143.001 184.964V200.744H134.899V170.187ZM155.347 170.608H163.221V200.777H155.347V170.608ZM155.347 159.656H163.221V166.947H155.347V159.656ZM194.167 194.879C194.167 198.314 194.977 199.124 195.982 199.513V200.744H187.297C186.876 199.319 186.682 198.703 186.487 197.083C184.673 198.93 182.242 201.555 176.766 201.555C172.132 201.555 167.466 198.93 167.466 192.643C167.466 186.778 171.322 183.732 176.377 183.149L183.441 181.918C184.867 181.918 186.293 181.302 186.293 179.682C186.293 176.247 183.052 176.052 181.011 176.052C176.96 176.052 176.377 178.483 176.183 180.297H168.47C169.281 170.997 175.761 169.766 182.048 169.766C186.293 169.766 194.167 170.997 194.167 178.483V194.879ZM186.293 185.968C185.483 186.584 184.251 187.199 180.816 187.588C177.997 188.204 175.567 189.014 175.567 192.255C175.567 194.879 177.576 195.884 179.196 195.884C182.631 195.884 186.293 193.453 186.293 189.824V185.968ZM199.417 159.656H207.518V200.744H199.417V159.656ZM230.363 179.682C229.974 177.867 229.358 175.825 224.919 175.825C220.674 175.825 220.058 177.446 220.058 178.677C220.058 183.538 239.08 180.07 239.08 191.218C239.08 199.934 230.363 201.522 225.729 201.522C218.859 201.522 211.374 199.124 211.147 191.023H219.443C219.443 193.648 220.868 195.463 225.923 195.463C230.168 195.463 230.978 193.453 230.978 192.417C230.978 187.361 212.184 191.218 212.184 179.876C212.184 175.437 215.003 169.766 224.498 169.766C230.363 169.766 237.459 171.192 238.075 179.682H230.363ZM283.733 173.006C283.15 170.576 281.724 166.137 274.66 166.137C270.609 166.137 264.517 168.761 264.517 180.297C264.517 187.588 267.563 194.264 274.66 194.264C279.488 194.264 282.728 191.606 283.733 186.551H292.255C290.635 195.463 284.77 201.522 274.66 201.522C263.707 201.522 255.833 194.264 255.833 180.07C255.833 165.91 264.128 158.619 274.66 158.619C286.973 158.619 291.834 167.141 292.255 173.006H283.733ZM310.434 201.522C302.139 201.522 294.848 196.467 294.848 185.352C294.848 174.432 302.139 169.345 310.434 169.345C318.503 169.345 325.988 174.432 325.988 185.352C325.988 196.467 318.503 201.522 310.434 201.522ZM310.434 176.052C304.148 176.052 302.949 181.496 302.949 185.352C302.949 189.403 304.148 194.652 310.434 194.652C316.494 194.652 317.693 189.403 317.693 185.352C317.693 181.496 316.494 176.052 310.434 176.052ZM372.91 200.712H365.036V182.501C365.036 177.867 362.994 176.441 360.596 176.441C356.546 176.441 355.12 179.066 355.12 182.728V200.712H347.019V182.501C347.019 180.07 347.019 176.441 342.158 176.441C338.529 176.441 337.33 179.066 337.33 182.306V200.712H329.229V170.576H336.908V175.015H337.103C338.14 173.006 340.343 169.766 345.625 169.766C350.065 169.766 352.074 171.386 354.115 174.627C355.314 173.201 357.55 169.766 362.411 169.766C368.276 169.766 372.91 173.201 372.91 179.876V200.712ZM385.872 175.015H386.066C387.492 172.585 389.695 169.766 395.172 169.766C401.847 169.766 407.712 174.821 407.712 185.352C407.712 193.648 404.083 201.522 394.977 201.522C389.306 201.522 387.265 198.509 386.455 196.888H386.26V212.442H378.192V170.576H385.872V175.015ZM392.936 195.041C398.185 195.041 399.611 189.565 399.611 185.936C399.611 181.269 397.796 176.83 392.741 176.83C387.265 176.83 385.872 181.691 385.872 186.325C385.872 190.991 387.881 195.041 392.936 195.041ZM436.034 194.847C436.034 198.476 436.844 199.286 437.848 199.481V200.712H429.164C428.743 199.286 428.548 198.897 428.354 197.277C426.507 199.092 424.076 201.522 418.632 201.522C413.966 201.522 409.332 199.092 409.332 192.805C409.332 186.94 413.156 183.894 418.211 183.084L425.308 182.08C426.734 181.885 428.127 181.496 428.127 179.649C428.127 176.409 424.886 176.214 422.877 176.214C418.827 176.214 418.211 178.645 418.017 180.459H410.337C411.147 171.159 417.628 169.96 423.882 169.96C428.127 169.96 436.034 171.159 436.034 178.645V194.847ZM428.127 185.936C427.317 186.551 426.118 187.167 422.683 187.556C419.831 188.172 417.401 188.982 417.401 192.222C417.401 194.847 419.443 195.851 421.063 195.851C424.498 195.851 428.127 193.421 428.127 189.792V185.936ZM468.794 200.712H460.888V182.306C460.888 180.07 460.693 176.409 455.638 176.409C452.009 176.409 449.384 178.839 449.384 183.311V200.518H441.283V170.544H448.963V175.015H449.157C450.194 173.201 452.398 169.733 458.263 169.733C464.128 169.733 468.794 173.201 468.794 179.876V200.712ZM489.436 200.291C485.774 211.632 484.77 213.058 477.9 213.058C476.896 213.058 475.47 213.058 474.238 212.831V206.577C474.649 206.577 475.189 206.577 475.859 206.577C478.71 206.577 480.33 206.156 481.141 202.105L469.993 170.155H478.71L485.191 192.805H485.385L491.445 170.155H499.741L489.436 200.291ZM141.931 111.244C141.931 120.122 144.783 123.784 150.421 123.784C156.286 123.784 159.138 120.122 159.138 111.438V35.3524H194.945V115.067C194.945 131.269 193.325 136.746 187.654 142.611C181.173 149.286 175.923 150.485 157.096 150.485H143.973C125.146 150.485 119.702 149.286 113.415 142.611C107.745 136.519 106.351 131.464 106.351 115.294V35.3524H141.931V111.244ZM204.05 0.323242H240.052V150.68H204.05V0.323242ZM306.772 62.2805H295.042C286.358 62.4749 284.737 64.9052 284.737 77.2513V113.868C284.737 121.354 287.362 123.59 295.658 123.59H306.772V150.485H274.238C252.981 150.485 248.931 146.467 248.736 124.594V53.5637C248.736 39.7918 255.023 35.3524 274.238 35.3524H306.772V62.2805Z" fill="#002169"/>
<path fill-rule="evenodd" clip-rule="evenodd" d="M366.559 34.6399V46.9859C365.327 45.3657 364.377 44.2208 363.707 43.5511C357.647 35.6444 354.601 34.251 342.482 34.251H334.802C320.026 34.251 314.776 40.7319 314.776 59.1376V121.062C314.776 145.755 319.216 151.004 339.631 151.004H346.727C357.647 151.004 360.693 149.189 366.559 138.075V150.615H402.139V34.6399H366.559ZM366.364 110.142C366.364 118.827 363.934 123.071 358.49 123.071C353.208 123.071 350.583 119.021 350.583 110.142V74.3029C350.583 65.1972 353.208 61.1467 358.49 61.1467C363.934 61.1467 366.364 65.1972 366.364 74.3029V110.142ZM411.666 34.6723V150.421H447.667V74.5297C447.667 65.2296 450.292 61.1791 455.768 61.1791C461.212 61.1791 464.258 65.424 464.258 74.1408V150.421H499.87V60.1745C499.643 38.9172 495.01 34.251 473.169 34.251C459.203 34.251 453.532 36.8758 447.667 46.7915V34.6723H411.666ZM41.51 0.258789H0.680422C0.680422 0.258789 -0.745372 46.2082 1.06927 76.3443C3.49961 112.572 27.3817 151.231 27.3817 151.231H71.4517L72.2618 151.425C72.2618 151.425 96.1438 112.994 98.3473 76.7656C100.389 46.4027 98.963 0.258789 98.963 0.258789H58.101C58.101 0.258789 57.7122 74.5297 57.2909 82.4364C55.8975 106.707 49.4167 117.854 49.4167 117.854C49.4167 117.854 42.9358 107.517 41.51 83.0196C41.1211 75.1454 41.51 0.258789 41.51 0.258789Z" fill="#002169"/>
</g>
</g>
<defs>
<clipPath id="clip0_8_16086">
<rect width="500" height="213.221" fill="white"/>
</clipPath>
</defs>
</svg>
