<svg width="500" height="109" viewBox="0 0 500 109" fill="none" xmlns="http://www.w3.org/2000/svg">
<g clip-path="url(#clip0_8_16085)">
<path d="M55.7898 46.5703L111.548 54.4369L55.7898 62.3035L0 54.4369L55.7898 46.5703Z" fill="#FF8200"/>
<path fill-rule="evenodd" clip-rule="evenodd" d="M55.7898 72.5925L111.548 61.1702L55.7898 85.651L0 61.1702L55.7898 72.5925ZM55.7898 36.3118L0 47.7026L55.7898 23.3477L111.58 47.7026L55.7898 36.3118Z" fill="#0085CA"/>
<path fill-rule="evenodd" clip-rule="evenodd" d="M55.7898 96.6331L111.548 67.9043L55.7898 108.874L0 67.8099L55.7898 96.6331ZM55.7898 12.3348L0 41.0636L55.7898 0L111.58 41.0636L55.7898 12.3348ZM282.001 71.8062C282.001 77.061 279.547 80.365 277.155 82.4103C274.89 84.4871 270.862 86.7527 262.681 86.7527C254.531 86.7527 246.885 82.3159 243.864 79.012L249.654 71.8062C252.958 75.2989 259.062 77.7848 263.216 77.7848C267.244 77.7848 270.422 76.7464 270.422 73.5368C270.422 70.3587 265.67 69.2259 263.216 68.5022C260.73 67.6841 258.339 67.0548 255.979 66.1108C253.587 65.1982 246.256 62.4921 246.256 53.8389C246.256 45.1857 253.587 39.7105 264.443 39.7105C275.205 39.7105 281.718 45.7835 281.718 45.7835L277.155 53.2096C273.442 50.2203 268.565 48.3638 264.663 48.3638C260.824 48.3638 257.615 49.3077 257.615 52.3914C257.615 55.5066 261.233 56.3247 264.663 57.4575C268.062 58.4959 271.901 59.7231 273.222 60.3524C274.67 60.7615 282.001 63.6564 282.001 71.8062ZM301.762 28.7602V40.5286H313.751V49.0875H301.857V69.635C301.857 72.3096 302.266 74.4808 302.989 75.6136C303.713 76.7464 305.286 77.6904 307.237 77.6904C307.678 77.6694 308.118 77.6484 308.559 77.6274C308.999 77.5855 309.44 77.533 309.88 77.4701C310.321 77.4282 310.762 77.3547 311.202 77.2498C311.643 77.1659 312.073 77.0715 312.492 76.9667L313.656 85.3052C311.485 85.9346 307.332 86.7527 303.807 86.7527C299.78 86.7527 296.287 85.9345 293.581 83.3543C290.812 80.6797 290.088 77.061 290.088 71.8062V49.0875H283.669V40.5286H290.277V28.7602H301.762ZM448.143 71.8062L453.304 79.5469C452.36 80.5538 447.2 86.7527 435.116 86.7527C423.002 86.7527 412.775 78.6973 412.775 63.2473C412.775 47.7659 423.946 39.7105 435.525 39.7105C447.105 39.7105 452.36 46.3184 452.989 47.1366L447.609 54.3424C447.609 54.3424 443.266 49.3077 436.753 49.3077C430.239 49.3077 424.355 53.4298 424.355 63.0271C424.355 72.6243 430.145 76.7464 436.879 76.7464C443.581 76.7464 448.018 71.8062 448.143 71.8062ZM481.309 58.37L499.717 85.8401H486.155L473.568 66.8345L468.597 71.6803V85.9346H456.828V23.82H468.597V58.7791L484.928 40.623H498.773L481.309 58.37ZM210.289 66.0164C210.604 73.7571 215.45 77.8792 222.687 77.8792C229.924 77.8792 235.211 74.1661 236.249 73.2536L240.277 80.365C240.277 80.365 234.267 86.7527 221.145 86.7527C208.024 86.7527 198.521 78.2882 198.521 63.2159C198.521 48.175 208.213 39.7105 221.145 39.7105C233.952 39.7105 241.504 49.0875 241.504 62.3977V66.0164H210.289ZM230.145 58.2756C230.145 52.4858 227.25 47.64 220.516 47.64C213.814 47.64 210.604 52.9264 210.101 58.2756H230.145ZM409.566 63.2159C409.566 77.6904 400.283 86.7527 386.627 86.7527C372.876 86.7527 363.688 77.7848 363.688 63.2159C363.688 48.6784 372.97 39.7105 386.627 39.7105C400.378 39.7105 409.566 48.6784 409.566 63.2159ZM397.577 63.2473C397.577 55.129 392.7 48.584 386.627 48.584C380.554 48.584 375.677 55.129 375.677 63.2473C375.677 71.3342 380.554 77.8792 386.627 77.8792C392.7 77.8792 397.577 71.3342 397.577 63.2473ZM146.602 86.7527H145.689L127.502 23.9144H139.49L150.441 59.314L164.6 29.893H165.544L179.578 59.314L190.529 23.9144H202.738L184.55 86.7527H183.606L164.915 52.0768L146.602 86.7527ZM365.041 85.9346H350.85L331.529 62.0831V85.9346H319.635V23.9144H337.948C337.948 23.9144 349.622 23.1907 355.727 28.0365C358.936 30.6167 362.429 35.9975 362.429 43.0145C362.429 49.9371 358.936 55.3807 355.727 57.961C353.021 60.0378 349.402 61.2649 345.28 61.7999C345.28 61.7999 365.009 85.9346 365.041 85.9346ZM339.899 52.9264C342.889 52.9264 345.06 52.4858 347.042 51.3531C347.357 51.2587 351.479 48.9931 351.479 43.3291C351.479 34.55 345.186 33.0082 339.994 33.0082H331.529V52.9264H339.899Z" fill="#004B87"/>
</g>
<defs>
<clipPath id="clip0_8_16085">
<rect width="500" height="108.874" fill="white"/>
</clipPath>
</defs>
</svg>
