<svg width="500" height="132" viewBox="0 0 500 132" fill="none" xmlns="http://www.w3.org/2000/svg">
<g clip-path="url(#clip0_8_16057)">
<path d="M291.36 36.7647L320.159 26.0417L291.36 15.0123V0L340.686 19.9142V32.1691L291.36 52.0833V36.7647Z" fill="#A100FF"/>
<path d="M18.9951 131.74C8.57843 131.74 0 126.532 0 114.89V114.277C0 100.184 12.2549 95.282 27.2672 95.282H34.3137V92.5247C34.3137 86.7036 31.8627 83.3335 25.7353 83.3335C20.2206 83.3335 17.4632 86.3972 17.1569 90.6865H1.83824C3.06373 77.8188 13.174 71.6914 26.6544 71.6914C40.4412 71.6914 50.5515 77.5124 50.5515 91.9119V130.515H34.9265V123.775C31.8627 128.064 26.6544 131.74 18.9951 131.74ZM34.3137 111.52V106.005H27.8799C19.9142 106.005 15.9314 108.15 15.9314 113.358V113.971C15.9314 117.954 18.3824 120.711 23.8971 120.711C29.4118 120.405 34.3137 117.341 34.3137 111.52ZM87.0098 131.74C71.0784 131.74 59.4363 121.936 59.4363 102.329V101.409C59.4363 81.8016 71.6912 71.385 87.0098 71.385C100.184 71.385 110.907 78.1252 112.132 93.1374H96.8137C95.8946 87.6227 92.8309 83.9463 87.3162 83.9463C80.576 83.9463 75.674 89.461 75.674 100.797V102.635C75.674 114.277 79.9632 119.485 87.3162 119.485C92.8309 119.485 96.8137 115.503 97.7328 109.069H112.439C111.52 122.549 102.635 131.74 87.0098 131.74ZM147.059 131.74C131.127 131.74 119.485 121.936 119.485 102.329V101.409C119.485 81.8016 131.74 71.385 147.059 71.385C160.233 71.385 170.956 78.1252 172.181 93.1374H156.863C155.944 87.6227 152.88 83.9463 147.365 83.9463C140.625 83.9463 135.723 89.461 135.723 100.797V102.635C135.723 114.277 140.012 119.485 147.365 119.485C152.88 119.485 156.863 115.503 157.782 109.069H172.488C171.569 122.549 162.684 131.74 147.059 131.74ZM207.414 131.74C190.87 131.74 179.534 121.936 179.534 102.635V101.409C179.534 82.108 191.483 71.385 207.108 71.385C221.507 71.385 233.456 79.3507 233.456 98.6521V105.699H195.772C196.385 116.115 200.98 120.098 207.721 120.098C213.848 120.098 217.218 116.728 218.444 112.745H233.456C231.618 123.468 222.426 131.74 207.414 131.74ZM196.078 94.9757H217.525C217.218 86.3972 213.235 82.7208 206.801 82.7208C201.9 83.0271 197.304 85.7845 196.078 94.9757ZM243.26 72.9168H259.498V81.4953C262.255 75.9806 268.076 71.6914 276.961 71.6914C287.377 71.6914 294.424 78.1252 294.424 91.9119V130.515H278.186V94.3629C278.186 87.6227 275.429 84.559 269.608 84.559C264.093 84.559 259.498 87.9291 259.498 95.282V130.515H243.26V72.9168ZM324.142 55.4536V72.9168H335.172V84.8654H324.142V112.133C324.142 116.422 325.98 118.566 329.963 118.566C332.414 118.566 333.946 118.26 335.478 117.647V130.209C333.64 130.821 330.27 131.434 326.287 131.434C313.725 131.434 307.904 125.613 307.904 113.971V84.8654H301.164V72.9168H307.904V62.1938L324.142 55.4536ZM395.833 130.515H379.902V121.936C377.145 127.451 371.63 131.74 363.051 131.74C352.635 131.74 344.975 125.307 344.975 111.826V72.9168H361.213V109.682C361.213 116.422 363.971 119.485 369.485 119.485C375 119.485 379.596 115.809 379.596 108.762V72.9168H395.833V130.515ZM407.782 72.9168H424.02V83.6399C427.39 75.9806 432.904 72.3041 441.483 72.3041V88.2355C430.453 88.2355 424.02 91.6056 424.02 101.103V130.821H407.782V72.9168ZM474.265 131.74C457.721 131.74 446.385 121.936 446.385 102.635V101.409C446.385 82.108 458.333 71.385 473.958 71.385C488.358 71.385 500.306 79.3507 500.306 98.6521V105.699H462.929C463.542 116.115 468.137 120.098 474.877 120.098C481.005 120.098 484.375 116.728 485.6 112.745H500.613C498.162 123.468 489.277 131.74 474.265 131.74ZM462.623 94.9757H484.375C484.069 86.3972 480.086 82.7208 473.652 82.7208C468.75 83.0271 464.154 85.7845 462.623 94.9757Z" fill="black"/>
</g>
<defs>
<clipPath id="clip0_8_16057">
<rect width="500" height="131.74" fill="white"/>
</clipPath>
</defs>
</svg>
