<svg width="500" height="132" viewBox="0 0 500 132" fill="none" xmlns="http://www.w3.org/2000/svg">
<g clip-path="url(#clip0_8_16078)">
<path d="M55.0864 0H0V131.741L55.0864 0Z" fill="#FA0C00"/>
<path d="M93.8438 0H148.858V131.741L93.8438 0Z" fill="#FA0C00"/>
<path d="M74.4649 48.5547L109.526 131.741H86.5229L76.0439 105.256H50.3848L74.4649 48.5547Z" fill="#FA0C00"/>
<path d="M238.728 83.7791L245.224 102.404C245.439 102.871 245.762 103.086 246.336 103.086H258.825C259.507 103.086 259.615 102.763 259.507 102.081L233.704 30.4153C233.597 29.8411 233.489 29.7334 232.915 29.7334H217.412C216.981 29.7334 216.73 30.0564 216.73 30.5229C216.514 34.291 216.191 35.4394 215.725 36.5519L192.721 101.974C192.614 102.763 192.865 103.086 193.511 103.086H204.672C205.354 103.086 205.677 102.871 205.928 102.189L212.064 83.7791H238.728ZM215.617 71.6134C218.991 61.4215 223.441 48.3587 225.235 40.8942H225.343C227.568 48.7176 232.807 64.2207 235.176 71.6134H215.617Z" fill="#FA0C00"/>
<path d="M292.678 104.199C299.389 104.199 306.531 102.978 313.78 99.8563C314.354 99.641 314.462 99.3898 314.462 98.8515C314.246 96.8418 313.995 93.935 313.995 91.71V24.2426C313.995 23.812 313.995 23.5967 313.457 23.5967H301.291C300.825 23.5967 300.609 23.812 300.609 24.3862V47.2461C298.707 47.0308 297.379 46.9232 295.8 46.9232C276.17 46.9232 264.112 59.8783 264.112 76.0633C264.112 94.8322 276.493 104.199 292.678 104.199ZM300.609 91.71C298.6 92.356 296.375 92.6072 294.114 92.6072C285.214 92.6072 277.929 87.583 277.929 75.3815C277.929 64.5795 285.429 58.1916 295.37 58.1916C297.379 58.1916 299.138 58.407 300.609 58.9812V91.71Z" fill="#FA0C00"/>
<path d="M353.272 46.9229C336.513 46.9229 326.142 59.7704 326.142 75.6324C326.142 89.8077 334.396 104.198 353.021 104.198C368.775 104.198 379.828 92.6069 379.828 75.2735C379.828 59.9857 370.462 46.9229 353.272 46.9229ZM352.59 58.1913C362.064 58.1913 366.084 66.3377 366.084 75.6324C366.084 87.1162 360.162 92.8222 353.272 92.8222C344.767 92.8222 339.743 85.6807 339.743 75.3812C339.743 64.7945 345.09 58.1913 352.59 58.1913Z" fill="#FA0C00"/>
<path d="M392.407 23.5967C391.94 23.5967 391.617 23.812 391.617 24.3862V100.754C391.617 101.077 391.94 101.651 392.407 101.758C397.754 103.409 403.352 104.199 409.13 104.199C425.674 104.199 441.751 93.935 441.751 73.2641C441.751 58.2993 431.488 46.9232 415.41 46.9232C411.714 46.9232 408.269 47.4974 405.254 48.5022L405.111 24.4938C405.111 23.7043 404.895 23.5967 404.106 23.5967H392.407ZM428.007 74.6278C428.007 87.0088 419.537 92.8225 410.386 92.8225C408.484 92.8225 406.797 92.7148 405.254 92.2483V59.663C407.013 58.9812 409.13 58.407 413.042 58.407C421.87 58.407 428.007 64.0053 428.007 74.6278Z" fill="#FA0C00"/>
<path d="M487.153 78.6469C492.608 78.6469 497.093 78.5392 498.637 78.1803C499.211 78.0727 499.426 77.8574 499.534 77.3908C499.857 76.1707 500 73.6227 500 70.5005C500 59.878 493.612 46.9229 477.104 46.9229C460.238 46.9229 450.871 60.6675 450.871 76.1707C450.871 89.9153 458.12 104.198 478.432 104.198C486.04 104.198 490.957 102.978 495.191 100.969C495.622 100.753 495.837 100.394 495.837 99.7484V90.4537C495.837 89.9153 495.514 89.8077 495.191 90.023C490.957 91.8174 486.363 92.7145 481.339 92.7145C469.963 92.7145 464.795 86.4343 464.472 78.6469H487.153ZM464.472 69.0292C465.369 63.5744 468.815 57.653 476.53 57.653C485.035 57.653 487.26 64.7945 487.26 68.0243C487.26 68.132 487.26 68.5985 487.26 68.9215C486.794 69.0292 485.358 69.0292 481.124 69.0292H464.472Z" fill="#FA0C00"/>
</g>
<defs>
<clipPath id="clip0_8_16078">
<rect width="500" height="131.741" fill="white"/>
</clipPath>
</defs>
</svg>
