<svg width="500" height="120" viewBox="0 0 500 120" fill="none" xmlns="http://www.w3.org/2000/svg">
<g clip-path="url(#clip0_8_16079)">
<path d="M117.43 111.326H89.7L81.2169 90.865H35.0019L27.2731 111.326H0L41.6669 7.985H71.5175L117.43 111.326ZM56.9719 32.6787L41.82 72.8313H73.6406L56.9719 32.6787ZM218.16 7.985H240.585V111.326H214.823V46.7763L186.943 79.1994H183.005L155.127 46.7763V111.325H129.365V7.985H151.79L184.973 46.32L218.16 7.985ZM305.859 7.985C343.587 7.985 362.979 31.4681 362.979 59.8031C362.979 89.5013 344.193 111.326 302.979 111.326H260.248V7.985H305.859ZM286.008 92.3856H302.824C328.735 92.3856 336.464 74.805 336.464 59.65C336.464 41.92 326.916 26.9231 302.521 26.9231H286.008V92.3856H286.008ZM414.231 32.4881L381.748 0H500V118.256L467.518 85.7719V32.4881H414.231ZM414.193 38.9981L380.75 72.4394V119.251H427.556L460.996 85.81H414.193V38.9981Z" fill="black"/>
</g>
<defs>
<clipPath id="clip0_8_16079">
<rect width="500" height="119.252" fill="white"/>
</clipPath>
</defs>
</svg>
