<svg width="500" height="220" viewBox="0 0 500 220" fill="none" xmlns="http://www.w3.org/2000/svg">
<path d="M155.372 155.608H135.537L152.656 121.015H152.892L155.372 155.608ZM156.316 171.192L157.497 184.888H179.221L172.019 104.958H139.669L98.7012 184.888H120.897L127.745 171.192H156.316Z" fill="#F38B00"/>
<path d="M209.681 149.941H212.869L228.453 128.925H248.524L227.037 155.844L240.26 184.888H218.89L210.272 162.219H207.084L202.243 184.888H183.943L200.826 104.958H219.244L209.681 149.941Z" fill="#F38B00"/>
<path d="M272.019 161.747C278.04 161.747 281.936 162.219 280.992 166.824C279.693 172.727 277.214 173.671 269.54 173.671C266.706 173.671 261.511 173.671 262.81 167.65C263.873 162.573 267.533 161.747 272.019 161.747ZM277.096 184.888H295.396L302.834 149.941C306.966 130.696 299.528 128.335 280.756 128.335C267.651 128.335 255.018 128.217 251.24 145.572H269.54C270.602 140.496 273.672 139.551 278.276 139.551C286.305 139.551 285.951 142.857 284.77 148.052L282.881 156.906H282.054C281.346 150.531 273.318 150.649 268.123 150.649C254.9 150.649 246.989 154.781 244.156 168.241C241.086 182.526 247.934 185.596 260.685 185.596C267.06 185.596 275.679 184.297 278.631 176.623H279.221L277.096 184.888Z" fill="#F38B00"/>
<path d="M332.468 128.925L330.815 136.836H331.523C335.183 130.224 342.385 128.335 348.642 128.335C356.553 128.335 364.345 129.752 363.282 139.315H364.109C366.824 131.287 374.971 128.335 382.054 128.335C394.923 128.335 400.472 133.648 397.639 146.635L389.492 184.888H371.192L378.04 152.538C378.985 146.635 379.929 142.385 372.845 142.385C365.762 142.385 363.282 147.107 362.102 153.128L355.372 184.888H337.072L344.274 151.003C345.1 145.926 345.573 142.385 339.197 142.385C331.641 142.385 329.398 146.399 327.981 153.128L321.252 184.888H302.952L314.876 128.925H332.468Z" fill="#F38B00"/>
<path d="M426.446 161.747C432.349 161.747 436.363 162.219 435.419 166.824C434.238 172.727 431.641 173.671 423.967 173.671C421.251 173.671 415.938 173.671 417.237 167.65C418.3 162.573 421.96 161.747 426.446 161.747ZM431.523 184.888H449.823L457.261 149.941C461.393 130.696 453.955 128.335 435.183 128.335C422.078 128.335 409.327 128.217 405.667 145.572H423.967C425.029 140.496 428.099 139.551 432.703 139.551C440.732 139.551 440.377 142.857 439.197 148.052L437.544 156.906H436.718C436.009 150.531 427.981 150.649 422.786 150.649C409.563 150.649 401.653 154.781 398.819 168.241C395.749 182.526 402.597 185.596 415.348 185.596C421.723 185.596 430.342 184.297 433.412 176.623H434.002L431.523 184.888Z" fill="#F38B00"/>
<path d="M476.269 184.888H457.969L469.776 128.925H488.075L476.269 184.888Z" fill="#F38B00"/>
<path d="M108.028 204.25C67.4142 191.853 37.7802 154.309 37.7802 109.917C37.7802 64.9347 68.0045 27.0363 109.327 15.1118C113.577 13.9312 112.396 11.0977 107.32 11.0977C52.4201 11.0977 7.79199 55.3716 7.79199 109.917C7.79199 164.462 52.302 208.618 107.32 208.618C112.396 208.618 112.633 205.667 108.028 204.25Z" fill="#009BDE"/>
<path d="M56.6704 132.939C56.4343 130.342 56.1982 127.627 56.1982 124.911C56.1982 81.5818 91.2631 46.5168 134.592 46.5168C175.561 46.5168 187.839 64.8167 189.374 63.6361C191.027 62.3374 174.498 26.0918 126.446 26.0918C83.1167 26.0918 48.0518 61.1567 48.0518 104.486C48.0518 114.522 49.9408 124.085 53.3646 132.821C54.7814 136.599 57.0246 136.599 56.6704 132.939Z" fill="#009BDE"/>
<path d="M89.4921 76.5049C109.799 67.6502 135.419 67.414 160.567 76.1507C177.45 82.0539 187.249 90.4365 188.075 90.0823C189.374 89.492 178.276 71.7824 158.087 64.2263C133.648 55.0173 107.438 59.8579 88.3115 74.852C86.1864 76.5049 87.0128 77.5675 89.4921 76.5049Z" fill="#009BDE"/>
<path d="M492.208 113.459C492.208 119.126 487.603 123.731 481.936 123.731C476.269 123.731 471.665 119.126 471.665 113.459C471.665 107.792 476.269 103.188 481.936 103.188C487.603 103.188 492.208 107.792 492.208 113.459Z" fill="#F38B00"/>
</svg>
