<svg width="500" height="96" viewBox="0 0 500 96" fill="none" xmlns="http://www.w3.org/2000/svg">
<g clip-path="url(#clip0_8_16052)">
<path d="M16.3732 74.0276H0L26.4085 0.0839844H44.1901L70.4225 74.0276H53.5211L48.7676 58.7107H21.4789L16.3732 74.0276ZM25.5282 46.0347H44.3662L35.3873 16.8093H35.2113L25.5282 46.0347Z" fill="#005CB9"/>
<path d="M158.451 74.0275H143.838V40.7528C143.838 32.6542 140.141 30.0134 135.916 30.0134C128.697 30.0134 126.057 34.7669 126.057 41.281V74.0275H111.444V40.9289C111.444 36.3514 111.444 29.8373 102.641 29.8373C95.7749 29.8373 93.6622 34.5909 93.6622 40.5768V74.0275H79.2256V19.0979H93.134V27.1965H93.3101C95.2467 23.6754 99.296 17.6895 108.979 17.6895C116.902 17.6895 120.599 20.5064 124.296 26.4923C126.233 23.8514 130.282 17.6895 139.085 17.6895C150 17.6895 158.451 24.0275 158.451 35.9993V74.0275Z" fill="#005CB9"/>
<path d="M186.268 27.0204H186.444C189.084 22.619 193.134 17.6895 202.641 17.6895C214.613 17.6895 225.176 27.0204 225.176 45.8585C225.176 60.8233 218.486 75.2599 202.289 75.2599C192.253 75.2599 188.732 69.8021 186.972 66.8092H186.796V95.1542H172.535V19.0979H186.268V27.0204ZM198.768 63.4641C207.922 63.4641 210.563 53.4289 210.563 46.9148C210.563 38.288 207.57 30.1895 198.415 30.1895C188.556 30.1895 186.268 38.9923 186.268 47.7951C186.268 55.8937 189.789 63.4641 198.768 63.4641Z" fill="#005CB9"/>
<path d="M285.211 74.0276H270.774V40.753C270.774 36.7037 270.598 30.0136 261.443 30.0136C255.105 30.0136 250.176 34.415 250.176 42.6896V74.0276H235.915V0.0839844H250.176V26.3164H250.352C252.112 21.7389 258.274 17.6896 266.197 17.6896C276.936 17.6896 285.211 24.0276 285.211 35.9995V74.0276Z" fill="#005CB9"/>
<path d="M346.126 56.95C342.253 69.8021 331.162 74.0275 321.655 74.0275C305.985 74.0275 294.014 66.8092 294.014 44.8021C294.014 38.288 296.302 17.6895 320.598 17.6895C331.514 17.6895 346.831 22.7951 346.831 47.0909V49.5557H308.626C308.978 53.6049 309.859 62.5838 321.655 62.5838C325.704 62.5838 329.929 60.6472 330.986 56.774H346.126V56.95ZM331.69 40.5768C330.809 31.95 325.176 29.3092 320.422 29.3092C313.556 29.3092 309.859 33.5345 308.978 40.5768H331.69Z" fill="#005CB9"/>
<path d="M408.451 74.0275H394.19V40.7528C394.19 36.7035 394.014 30.0134 384.86 30.0134C378.521 30.0134 373.592 34.4148 373.592 42.6895V74.0275H359.155V19.0979H372.888V27.1965H373.064C375 23.8514 379.05 17.6895 389.437 17.6895C400.176 17.6895 408.451 24.0275 408.451 35.9993V74.0275Z" fill="#005CB9"/>
<path d="M447.183 74.0275C432.394 74.0275 419.014 65.2247 419.014 45.8585C419.014 26.4923 432.394 17.6895 447.183 17.6895C461.971 17.6895 475.352 26.4923 475.352 45.8585C475.352 65.2247 461.971 74.0275 447.183 74.0275ZM447.183 29.4852C436.091 29.4852 433.978 38.9923 433.978 45.8585C433.978 52.7247 436.091 62.2317 447.183 62.2317C458.45 62.2317 460.387 52.7247 460.387 45.8585C460.387 38.9923 458.45 29.4852 447.183 29.4852Z" fill="#005CB9"/>
<path d="M500 74.0276H485.915V0.0839844H500V74.0276Z" fill="#005CB9"/>
</g>
<defs>
<clipPath id="clip0_8_16052">
<rect width="500" height="95.2381" fill="white"/>
</clipPath>
</defs>
</svg>
