<svg width="500" height="156" viewBox="0 0 500 156" fill="none" xmlns="http://www.w3.org/2000/svg">
<g clip-path="url(#clip0_8_16074)">
<path d="M84.2646 0.160156L33.9114 123.731H0L50.4175 0.160156H84.2646Z" fill="#FFB71B"/>
<path d="M92.5178 4.11035L143.674 123.731H107.354L75.1768 45.6646L92.5178 4.11035Z" fill="black"/>
<path d="M204.207 35.1953C214.483 35.1953 222.126 38.1818 227.136 44.187C232.177 50.1921 234.682 59.248 234.682 71.3546V122.992H208.253V72.607C208.253 66.7838 207.172 62.5342 205.01 59.8581C202.858 57.1927 199.486 55.844 194.958 55.844C189.467 55.844 185.1 57.6102 181.76 61.1105C178.442 64.6216 176.782 69.2887 176.782 75.1118V123.313H150.321V37.4753H176.044V49.6783C179.062 45.0219 183.012 41.4574 187.861 39.0168C192.678 36.5762 198.127 35.3559 204.207 35.3559V35.1953ZM297.977 72.5749C306.712 74.5659 313.102 77.5524 317.149 81.5665C321.173 85.5914 323.186 91.0399 323.186 97.9121C323.186 106.197 319.889 112.695 313.295 117.405C306.68 122.157 297.624 124.502 286.063 124.502C278.131 124.502 270.874 123.603 264.29 121.804C257.675 120.006 251.991 117.405 247.206 114.033L254.239 95.8568C258.906 99.0039 264.044 101.455 269.653 103.211C275.241 104.945 280.893 105.812 286.609 105.812C290.677 105.812 293.856 105.148 296.147 103.821C298.416 102.472 299.551 100.631 299.551 98.2974C299.551 96.2208 298.769 94.5937 297.206 93.4162C295.601 92.2602 292.678 91.2005 288.343 90.2692L274.342 87.1221C266.025 85.2595 259.923 82.4015 256.037 78.4837C252.152 74.598 250.193 69.2351 250.193 62.4914C250.193 57.1606 251.734 52.4079 254.817 48.3617C257.9 44.2833 262.267 41.072 267.919 38.7277C273.603 36.4156 280.026 35.2595 287.251 35.2595C293.46 35.2595 299.476 36.1908 305.299 38.0534C311.111 39.9159 316.378 42.5171 321.034 45.9211L314.034 63.3906C304.913 57.1285 295.954 53.9814 287.091 53.9814C283.012 53.9814 279.769 54.6879 277.457 56.0688C275.123 57.4818 273.956 59.4621 273.956 62.0097C273.978 63.8509 274.684 65.3066 276.076 66.3771C277.457 67.4368 279.93 68.4002 283.398 69.3315L297.913 72.6712L297.977 72.5749ZM493.77 81.9198C497.784 85.9339 499.775 91.3931 499.807 98.2653C499.807 106.55 496.5 113.048 489.885 117.758C483.301 122.511 474.246 124.855 462.685 124.855C454.753 124.855 447.495 123.956 440.88 122.157C434.297 120.359 428.613 117.758 423.828 114.386L430.829 96.2101C435.496 99.3572 440.634 101.808 446.243 103.564C451.863 105.298 457.483 106.165 463.199 106.165C467.288 106.165 470.467 105.501 472.736 104.174C475.027 102.825 476.172 100.984 476.172 98.6507C476.172 96.574 475.38 94.947 473.796 93.7695C472.222 92.6134 469.3 91.5537 464.965 90.6224L450.931 87.4753C442.678 85.6128 436.577 82.7547 432.659 78.8369C428.773 74.9513 426.815 69.5884 426.815 62.8446C426.815 57.5139 428.356 52.7611 431.471 48.7149C434.554 44.6365 438.921 41.4252 444.605 39.081C450.257 36.7689 456.712 35.6128 463.937 35.6128C470.124 35.6128 476.129 36.5441 481.953 38.4066C487.765 40.2692 493.032 42.8703 497.72 46.2743L490.719 63.7438C481.599 57.4818 472.608 54.3347 463.745 54.3347C459.666 54.3347 456.455 55.0412 454.111 56.422C451.798 57.835 450.642 59.826 450.642 62.3629C450.642 64.2255 451.338 65.6813 452.73 66.7303C454.143 67.7901 456.583 68.7534 460.084 69.6847L474.631 73.0245C483.366 74.9834 489.756 78.002 493.77 82.0161V81.9198ZM363.167 119.62L330.154 38.0213H355.748L376.365 88.3103L396.982 38.0213H422.576L374.727 155.073H349.133L363.167 119.62Z" fill="black"/>
</g>
<defs>
<clipPath id="clip0_8_16074">
<rect width="500" height="155.106" fill="white"/>
</clipPath>
</defs>
</svg>
