<svg width="500" height="199" viewBox="0 0 500 199" fill="none" xmlns="http://www.w3.org/2000/svg">
<path d="M184.75 188.75V172.5C184.75 170.084 183.833 168.417 181.25 168.417C178.917 168.417 176.666 170.001 174.5 172.251V188.75H170.083V172.5C170.083 170.084 169.166 168.417 166.583 168.417C164.25 168.417 162 170.001 159.833 172.251V188.75H155.417V165H159L159.583 168.417C161.833 166.334 164.5 164.5 167.833 164.5C171.333 164.5 173.25 166 174.083 168.417C176.25 166.334 179.167 164.5 182.5 164.5C187 164.5 189.25 167.167 189.25 171.5V188.834H184.75V188.75Z" fill="#4595C3"/>
<path d="M212.5 188.75L212 185.583C210.083 187.5 207.5 189.25 203.583 189.25C199.333 189.25 196.583 186.667 196.583 182.583C196.583 176.667 201.666 174.333 211.583 173.25V172.25C211.583 169.25 209.75 168.167 207.083 168.167C204.166 168.167 201.416 169.083 198.833 170.25L198.25 166.417C201.083 165.25 203.75 164.417 207.5 164.417C213.25 164.417 216.083 166.75 216.083 172.083V188.75H212.5ZM211.666 176.667C202.916 177.5 201 179.917 201 182.333C201 184.25 202.333 185.5 204.583 185.5C207.166 185.5 209.666 184.167 211.666 182.167V176.667Z" fill="#4595C3"/>
<path d="M240 189.083L229.417 176.333V188.75H225V153.417L229.417 152.75V174.917L238.667 165H244L234 175.5L244.833 188.417L240 189.083Z" fill="#4595C3"/>
<path d="M268.917 177.333H252.75C252.917 182.833 255.584 185.5 259.667 185.5C263.084 185.5 265.583 184.167 268.167 182.083L268.833 186.083C266.25 188.083 263.25 189.25 259.334 189.25C253.167 189.25 248.333 185.5 248.333 176.75C248.333 169.083 252.834 164.417 258.834 164.417C265.75 164.417 269 169.75 269 176.333V177.333H268.917ZM258.75 168C256 168 253.667 169.917 253 174H264.5C263.833 170.167 262.167 168 258.75 168Z" fill="#4595C3"/>
<path d="M299.917 189.084C297.583 189.084 295.417 188.667 293.917 188V197.417L289.5 198.084V165H293.083L293.667 168.417C295.5 166.334 297.917 164.5 301.417 164.5C306.583 164.5 310.833 168.334 310.833 176.25C310.75 184.917 305.75 189.084 299.917 189.084ZM300.667 168.417C298 168.417 295.833 170.084 294 172.584V184C295.833 184.917 297.25 185.334 299.75 185.334C303.5 185.334 306.25 182.334 306.25 176.417C306.25 171.251 303.833 168.417 300.667 168.417Z" fill="#4595C3"/>
<path d="M327.917 189.25C321.583 189.25 317 184.75 317 176.917C317 169.084 321.583 164.5 327.917 164.5C334.333 164.5 339 169.084 339 176.917C339 184.75 334.333 189.25 327.917 189.25ZM327.917 168.25C323.583 168.25 321.5 171.917 321.5 176.917C321.5 181.834 323.75 185.584 327.917 185.584C332.333 185.584 334.5 181.917 334.5 176.917C334.5 172 332.25 168.25 327.917 168.25Z" fill="#4595C3"/>
<path d="M353.833 189.25C350.666 189.25 347.167 188.167 345.167 187L345.833 182.833C348.083 184.417 351 185.583 354.25 185.583C357.333 185.583 359.083 184.417 359.083 182.417C359.083 180.25 357.75 179.417 353.416 178.333C347.833 176.917 345.583 175.25 345.583 171C345.583 167.167 348.75 164.417 354 164.417C356.916 164.417 359.583 165 361.833 166L361.166 170.167C359.083 169 356.417 168.083 353.917 168.083C351.25 168.083 349.833 169.167 349.833 170.833C349.833 172.417 351 173.333 354.75 174.25C360.667 175.75 363.25 177.417 363.25 182C363.25 186.5 360 189.25 353.833 189.25Z" fill="#4595C3"/>
<path d="M377.75 189.25C374.583 189.25 371.083 188.167 369.083 187L369.75 182.833C372 184.417 374.917 185.583 378.167 185.583C381.25 185.583 383 184.417 383 182.417C383 180.25 381.667 179.417 377.333 178.333C371.75 176.917 369.5 175.25 369.5 171C369.5 167.167 372.667 164.417 377.917 164.417C380.834 164.417 383.5 165 385.75 166L385.084 170.167C383 169 380.333 168.083 377.833 168.083C375.167 168.083 373.75 169.167 373.75 170.833C373.75 172.417 374.917 173.333 378.667 174.25C384.583 175.75 387.167 177.417 387.167 182C387.084 186.5 383.833 189.25 377.75 189.25Z" fill="#4595C3"/>
<path d="M397.167 160.167C395.583 160.167 394.333 158.917 394.333 157.333C394.333 155.75 395.667 154.5 397.167 154.5C398.75 154.5 399.917 155.833 399.917 157.333C399.917 158.917 398.667 160.167 397.167 160.167ZM394.917 165H399.333V188.833H394.917V165Z" fill="#4595C3"/>
<path d="M417.917 189.083C414.334 189.083 411.75 188.5 408.667 187.583V153.417L413.084 152.75V167.75C414.667 166.083 417 164.417 420.25 164.417C425.417 164.417 429.667 168.25 429.667 176.167C429.584 184.917 424.834 189.083 417.917 189.083ZM419.584 168.417C417.084 168.417 414.917 170.083 413.084 172.333V184.5C414.584 185.083 415.667 185.333 417.917 185.333C422.584 185.333 425.167 182.583 425.167 176.417C425.167 171.25 422.75 168.417 419.584 168.417Z" fill="#4595C3"/>
<path d="M437.583 188.75V153.417L442.084 152.75V188.75H437.583Z" fill="#4595C3"/>
<path d="M470.666 177.333H454.5C454.666 182.833 457.333 185.5 461.416 185.5C464.833 185.5 467.333 184.167 469.916 182.083L470.583 186.083C468 188.083 465 189.25 461.083 189.25C454.916 189.25 450.083 185.5 450.083 176.75C450.083 169.083 454.583 164.417 460.583 164.417C467.5 164.417 470.75 169.75 470.75 176.333V177.333H470.666ZM460.416 168C457.666 168 455.333 169.917 454.666 174H466.166C465.583 170.167 463.916 168 460.416 168Z" fill="#4595C3"/>
<path d="M81.75 17.5H25.8333L17.1667 26.25H81.6667C91.5 26.25 99.5 34.0833 99.5 43.6667V125.417H108.417V43.6667C108.5 29.25 96.5 17.5 81.75 17.5ZM126.417 125.417V43.6667C126.417 19.5833 106.417 0 81.75 0H43.1667L34.5 8.75H81.75C101.5 8.75 117.5 24.4167 117.5 43.6667V125.417H126.417ZM81.75 34.9167H8.66667L0 43.6667V81.75C0 104 16.9167 122.333 38.9167 125.083L47.1667 116.75H44.6667C24.9167 116.75 8.91667 101.083 8.91667 81.8333V43.75H17.8333V81.8333C17.8333 96.25 29.8333 108 44.6667 108H55.8333L64.4167 99.3333H44.5833C34.75 99.3333 26.75 91.5 26.75 81.9167V43.8333H35.5833V81.9167C35.5833 86.75 39.5833 90.5833 44.5 90.5833H73L81.5833 81.9167H44.5V43.8333H81.5833V125.583H90.5V43.8333C90.6667 38.8333 86.6667 34.9167 81.75 34.9167Z" fill="#4595C3"/>
<path d="M380.583 65.4998V48.4165H408.833H409.583V47.6665V42.2498V41.4998H408.833H380.583V24.9165H412.25H413V24.1665V18.6665V17.9165H412.25H373.833H373.083V18.6665V71.8332V72.5832H373.833H412.583H413.333V71.8332V66.3332V65.5832H412.583H380.583V65.4998ZM189.75 84.3332H189.333L189.083 84.6665L175.25 105.333L161.417 84.6665L161.167 84.3332H160.833H156.333H155.583V85.0832V124.75V125.5H156.333H160.667H161.417V124.75V95.1665L174.417 114.25L174.667 114.583H175.083H175.333H175.75L176 114.25L189 95.0832V124.667V125.417H189.75H194.25H195V124.667V84.9998V84.2498H194.25H189.75V84.3332ZM420.25 119.833V85.0832V84.3332H419.5H415H414.25V85.0832V124.75V125.5H415H435.083H435.833V124.75V120.666V119.917H435.083H420.25V119.833ZM160.333 72.4998L160.5 71.9998L166.583 58.4165H194.5L200.5 71.9998L200.667 72.4998H201.167H207.583H208.75L208.25 71.4165L184.083 17.9165L183.917 17.4165H183.417H177.833H177.333L177.167 17.9165L152.917 71.4165L152.5 72.4998H153.667H159.833H160.333ZM180.583 27.0832L191.5 51.4998H169.667L180.583 27.0832ZM222.667 72.4998H223.417V71.7498V53.7498H235.583C246.333 53.7498 257.25 48.1665 257.25 35.5832V35.4165C257.25 24.7498 249.167 17.8332 236.583 17.8332H216.667H215.917V18.5832V71.7498V72.4998H216.667H222.667ZM223.417 24.9165H236.083C244.667 24.9165 249.583 28.8332 249.583 35.6665V35.8332C249.583 42.4165 244.167 46.7498 235.75 46.7498H223.417V24.9165ZM361.25 72.4998V71.7498V18.5832V17.8332H360.5H354.5H353.75V18.5832V71.7498V72.4998H354.5H360.5H361.25ZM457.667 102.083C449.083 100.25 447.5 98.3332 447.5 95.1665V94.9998C447.5 91.6665 450.667 89.3332 455.167 89.3332C459.167 89.3332 462.667 90.6665 466.083 93.4165L466.667 93.9165L467.167 93.2498L469.75 89.8332L470.167 89.2498L469.583 88.7498C465.167 85.2498 460.917 83.6665 455.167 83.6665C447.167 83.6665 441.417 88.4998 441.417 95.2498V95.3332C441.417 102.917 447 105.75 455.333 107.5C463.5 109.25 465 111.167 465 114.25V114.333C465 117.917 461.75 120.333 456.917 120.333C451.917 120.333 448.083 118.75 443.833 114.917L443.25 114.416L442.75 115L440 118.333L439.5 118.917L440.083 119.416C445.083 123.833 450.417 125.917 456.75 125.917C465.167 125.917 471 121 471 113.917V113.833C471.167 107.667 467.083 104.083 457.667 102.083ZM441.833 72.4998C458.667 72.4998 470.833 60.9999 470.833 45.1665V44.9998C470.833 29.2498 458.667 17.8332 441.833 17.8332H423.417H422.667V18.5832V71.7498V72.4998H423.417H441.833ZM430.167 24.9165H441.833C454.333 24.9165 463.083 33.2499 463.083 45.1665V45.3332C463.083 57.1665 454.333 65.4165 441.833 65.4165H430.167V24.9165ZM224.583 84.4998L224.417 84.0832H223.917H219.75H219.167L219 84.4998L200.917 124.416L200.417 125.5H201.583H206.167H206.667L206.917 125L211.417 115H232L236.417 125L236.583 125.5H237.083H241.917H243.083L242.583 124.416L224.583 84.4998ZM213.833 109.5L221.667 91.9165L229.5 109.5H213.833ZM345.167 72.4998V71.7498V66.2498V65.4998H344.417H321.167V18.6665V17.9165H320.417H314.417H313.667V18.6665V71.8332V72.5832H314.417H344.417H345.167V72.4998ZM336.167 109C342.583 107.416 346.417 103 346.417 96.9998V96.9165C346.417 93.6665 345.25 90.6665 343.167 88.5832C340.5 85.9165 336.25 84.4165 331.333 84.4165H314.25H313.5V85.1665V124.833V125.583H314.25H318.75H319.5V124.833V110.167H329.667L340.917 125.25L341.167 125.583H341.583H347.083H348.583L347.667 124.333L336.167 109ZM319.417 104.583V89.9998H330.917C336.833 89.9998 340.333 92.5832 340.333 97.0832V97.1665C340.333 101.667 336.667 104.583 330.917 104.583H319.417ZM281.5 119.917V107.583H302.333H303.083V106.833V102.75V102H302.333H281.5V89.9998H304.917H305.667V89.1665V85.0832V84.3332H304.917H276.25H275.5V85.0832V124.75V125.5H276.25H305.167H305.917V124.75V120.666V119.917H305.167H281.5ZM355.333 84.3332H354.583V85.0832V124.75V125.5H355.333H359.833H360.583V124.75V85.0832V84.3332H359.833H355.333ZM306.167 35.5832V35.4165C306.167 24.7498 298.083 17.8332 285.5 17.8332H265.667H264.917V18.5832V71.7498V72.4998H265.667H271.667H272.417V71.7498V53.7498H284.583C295.333 53.7498 306.167 48.0832 306.167 35.5832ZM272.417 24.9165H285.083C293.667 24.9165 298.583 28.8332 298.583 35.6665V35.8332C298.583 42.4165 293.167 46.7498 284.75 46.7498H272.417V24.9165ZM237.417 84.3332H236.667V85.0832V89.2498V89.9998H237.417H249.917V124.75V125.5H250.667H255.25H256V124.75V89.9998H268.5H269.25V89.2498V85.0832V84.3332H268.5H237.417ZM390.25 84.4998L390.083 84.0832H389.583H385.417H384.917L384.75 84.4998L366.667 124.416L366.167 125.5H367.333H371.917H372.417L372.667 125L377.167 115H397.75L402.167 125L402.333 125.5H402.833H407.667H408.833L408.333 124.416L390.25 84.4998ZM379.583 109.5L387.5 91.9165L395.333 109.5H379.583Z" fill="#4595C3"/>
<path d="M480.75 116.5C480.75 111.25 485 106.833 490.417 106.833C495.75 106.833 500 111.166 500 116.416C500 121.666 495.75 126 490.333 126C484.917 126.083 480.75 121.75 480.75 116.5ZM499.083 116.416C499.083 111.583 495.333 107.666 490.417 107.666C485.417 107.666 481.667 111.666 481.667 116.416V116.5C481.667 121.25 485.417 125.166 490.417 125.166C495.417 125.166 499.083 121.25 499.083 116.416ZM486.583 111.25H491C492.25 111.25 493.25 111.666 493.917 112.25C494.417 112.666 494.75 113.333 494.75 114.166V114.25C494.75 115.833 493.667 116.75 492.25 117.166L495.25 121.166H493.417L490.583 117.5H490.5H488V121.166H486.583V111.25ZM490.833 116.083C492.25 116.083 493.167 115.5 493.167 114.333V114.25C493.167 113.166 492.333 112.583 490.917 112.583H488V116.083H490.833Z" fill="#4595C3"/>
</svg>
