<svg width="500" height="615" viewBox="0 0 500 615" fill="none" xmlns="http://www.w3.org/2000/svg">
<g clip-path="url(#clip0_8_16075)">
<path d="M484.091 209.398C480.528 212.162 417.629 247.604 417.629 326.413C417.629 417.568 497.666 449.816 500.061 450.614C499.693 452.58 487.346 494.779 457.862 537.776C431.572 575.614 404.115 613.391 362.346 613.391C320.577 613.391 309.828 589.128 261.609 589.128C214.619 589.128 197.912 614.189 159.705 614.189C121.499 614.189 94.8403 579.177 64.1892 536.179C28.6855 485.688 0 407.248 0 332.801C0 213.391 77.6413 150.061 154.054 150.061C194.656 150.061 228.501 176.72 253.993 176.72C278.256 176.72 316.093 148.464 362.285 148.464C379.791 148.464 442.69 150.061 484.091 209.398ZM340.356 97.9115C359.459 75.2457 372.973 43.7961 372.973 12.3464C372.973 7.98526 372.604 3.56265 371.806 0C340.725 1.16708 303.747 20.7002 281.45 46.5602C263.943 66.4619 247.604 97.9115 247.604 129.791C247.604 134.582 248.403 139.373 248.771 140.909C250.737 141.278 253.931 141.708 257.125 141.708C285.012 141.708 320.086 123.034 340.356 97.9115Z" fill="black"/>
</g>
<defs>
<clipPath id="clip0_8_16075">
<rect width="500" height="614.251" fill="white"/>
</clipPath>
</defs>
</svg>
