<svg width="500" height="79" viewBox="0 0 500 79" fill="none" xmlns="http://www.w3.org/2000/svg">
<g clip-path="url(#clip0_8_16050)">
<path d="M175.348 46.3795C191.938 46.3795 200.232 34.8603 200.232 23.3401C200.232 11.8208 191.937 0.760263 174.427 0.760263C161.524 0.298828 114.061 0.298828 114.061 0.298828V78.1768H128.804V12.7414C140.325 12.7414 169.356 12.7414 175.347 12.7414C183.641 12.7414 187.789 15.5051 187.789 23.3401C187.789 29.7908 183.642 33.4773 175.808 33.4773H137.101L183.183 77.7141H201.155L167.975 45.4576C171.202 46.3795 174.888 46.3795 175.348 46.3795Z" fill="#16325B"/>
<path d="M229.724 0.300293H215.438V78.177H229.724V0.300293Z" fill="#16325B"/>
<path d="M410.823 12.2815V0.300293H380.409H366.124H340.779L332.484 12.2815H366.124V78.177H380.409V12.2815H410.823Z" fill="#16325B"/>
<path d="M304.375 32.5563C297.003 32.5563 278.571 32.5563 267.971 32.5563C260.599 32.5563 256.451 29.3312 256.451 22.8792C256.451 15.507 261.52 12.2815 267.971 12.2815C278.109 12.2815 317.738 12.2815 317.738 12.2815L324.189 0.300293C324.189 0.300293 275.804 0.300293 267.51 0.300293C254.606 0.300293 244.009 9.97608 244.009 23.3415C244.009 35.3214 254.147 44.9981 267.97 44.9981C275.806 44.9981 299.305 44.9981 304.375 44.9981C312.671 44.9981 317.278 48.6859 317.278 55.5976C317.278 61.5873 312.209 65.7357 304.375 65.7357H254.147L246.775 78.177C246.775 78.177 291.012 78.177 306.218 78.177C321.425 78.177 329.719 67.1196 329.719 54.6774C329.72 43.1541 320.043 32.5563 304.375 32.5563Z" fill="#16325B"/>
<path d="M46.7823 5.36895C43.5572 10.4362 0.701172 78.177 0.701172 78.177H15.9075L30.1935 55.1362H60.607L68.4411 42.6941H38.0267L54.6155 15.9667L93.3245 77.7142H108.531C108.531 77.7142 66.1357 10.8976 62.4483 4.90751C58.3016 -1.08172 50.9299 -0.621634 46.7823 5.36895Z" fill="#16325B"/>
<path d="M484.091 78.1767H499.298C499.298 78.1767 456.904 11.3592 453.216 5.36864C449.07 -1.54392 441.696 -1.08203 437.548 4.90765C434.322 9.97536 391.467 77.7144 391.467 77.7144H406.673L420.958 54.6749H451.833L459.666 42.2328H429.253L445.843 15.505L484.091 78.1767Z" fill="#16325B"/>
</g>
<defs>
<clipPath id="clip0_8_16050">
<rect width="500" height="78.4753" fill="white"/>
</clipPath>
</defs>
</svg>
