<svg width="500" height="55" viewBox="0 0 500 55" fill="none" xmlns="http://www.w3.org/2000/svg">
<path d="M272.521 2.08008C254.892 2.08008 245.761 12.9239 245.761 27.5271C245.761 42.188 254.892 53.09 272.521 53.09C290.207 53.09 299.339 42.188 299.339 27.5271C299.366 12.9239 290.207 2.08008 272.521 2.08008ZM425.336 2.08008C410.424 2.08008 402.941 8.00814 402.941 18.5057C402.941 27.0358 407.911 31.0542 418.198 32.1522L429.642 33.3694C434.006 33.8605 436.001 35.5362 436.001 37.7337C436.001 40.2205 433.083 42.4487 426.061 42.4487C417.94 42.4487 414.673 40.3939 414.124 36.2586H402.248C402.797 47.4209 410.049 53.119 425.626 53.119C439.843 53.119 447.789 46.871 447.789 37.4729C447.789 29.2899 443.082 24.3746 434.181 23.3627L422.91 22.0905C416.321 21.3679 414.674 19.7186 414.674 17.4914C414.674 15.0047 418.055 12.7793 424.672 12.7793C431.03 12.7793 434.353 15.152 434.96 18.7086H447.071C446.462 8.44246 437.878 2.08008 425.336 2.08008ZM148.778 3.23637V34.6416C148.778 48.6363 161.261 53.003 171.721 53.003C182.125 53.003 194.551 48.6363 194.551 34.6416V3.23637H182.183V33.2244H182.241C182.241 39.5289 178.371 42.0719 171.753 42.0719C165.337 42.0719 161.146 39.4132 161.146 33.2244V3.23637H148.778ZM45.002 3.41024L1.74121 30.3004V51.9018H2.11509L45.4918 24.8957H68.0031C68.6975 24.8957 69.3333 25.444 69.3333 26.2259C69.3333 26.8609 69.0445 27.1224 68.6986 27.3242L47.3986 40.1042C46.0113 40.9425 45.5207 42.5905 45.5207 43.8339L45.4897 51.9018H72.5682V5.08815C72.5682 4.19197 71.8754 3.41024 70.8352 3.41024L45.002 3.41024ZM112.655 3.41024L94.0702 51.9047H106.844L110.081 42.8225H130.831L134.01 51.9047H147.216L128.402 3.41024L112.655 3.41024ZM200.217 3.41024V13.9067H215.851V51.9047H228.191V13.9067H243.767V3.41024L200.217 3.41024ZM306.07 3.41024V51.9047H328.73C346.098 51.9047 350.893 45.4252 350.893 27.2952C350.893 10.2632 346.3 3.41024 328.73 3.41024H306.07ZM357.802 3.41024V51.9047H396.814V41.4054H370.17V32.6159H391.612V22.0905H370.17V13.9067H396.814V3.41024L357.802 3.41024ZM454.09 3.41024L454.148 51.9047H466.461V33.4853L483.165 51.9047H498.799L476.256 27.9618L498.799 3.41024H484.089L466.461 23.1019V3.41024L454.09 3.41024ZM272.521 12.9822C281.739 12.9822 286.683 18.6201 286.683 27.5271C286.71 36.6358 281.739 42.1878 272.521 42.1878C263.388 42.1878 258.361 36.6062 258.361 27.5271C258.361 18.6201 263.388 12.9822 272.521 12.9822ZM120.543 13.5038L127.217 32.5H113.75L120.543 13.5038ZM318.413 13.9067H328.237C335.982 13.9067 338.293 16.0172 338.293 27.2952C338.293 37.5895 335.693 41.4054 328.237 41.4054H318.413V13.9067Z" fill="black"/>
</svg>
