<svg width="500" height="95" viewBox="0 0 500 95" fill="none" xmlns="http://www.w3.org/2000/svg">
<g clip-path="url(#clip0_8_16036)">
<path d="M68.4932 10.4862H106.743V-0.0390625H68.4932V10.4862Z" fill="#D21C2E"/>
<path d="M36.6035 92.3168C34.5659 93.4016 30.921 94.4922 26.0364 94.4922C10.3721 94.4922 -0.0400391 82.8918 -0.0400391 61.195C-0.0400391 41.4325 10.8945 26.5948 28.3782 26.5948C32.2756 26.5948 34.8069 27.5419 36.6035 28.512V39.9918C35.1743 39.4063 31.8451 38.5166 28.6652 38.5166C19.246 38.5166 14.3901 48.7681 14.3901 60.908C14.3901 74.4025 19.843 82.6221 28.6767 82.6221C31.34 82.6221 34.497 82.0997 36.6035 81.0551V92.3168Z" fill="#231F20"/>
<path d="M92.4817 82.9086L92.4874 59.639C86.8623 59.7136 76.651 61.2691 76.651 72.7547C76.651 80.2108 80.623 82.9028 83.803 82.9028L92.4817 82.9086ZM106.728 77.6508C106.728 82.7708 107.044 89.2971 107.744 93.6709H79.4406C69.9813 93.6709 62.8408 85.8187 62.8408 74.2471C62.8408 57.2856 77.1734 50.128 92.1029 49.9902V48.825C92.1029 41.9486 89.4108 37.1156 82.2417 37.1156C77.5235 37.1156 72.128 38.4932 68.5578 40.7777V30.905C71.8008 28.8444 77.3456 26.1868 85.3872 26.1868C102.377 26.1868 106.728 37.2304 106.728 51.276V77.6508Z" fill="#231F20"/>
<path d="M170.365 82.811H161.939C155.872 82.811 152.359 73.6559 152.359 60.477C152.359 48.6758 154.976 38.2636 162.295 38.2636C166.565 38.2636 169.533 42.9588 170.153 48.2625C170.365 49.5999 170.365 51.0693 170.365 52.3264V82.811ZM184.778 77.6394L184.749 6.69411H170.365V33.178H170.09C167.977 28.6206 163.982 26.0089 158.541 26.0089C147.882 26.0089 137.935 37.1214 137.935 60.2819C137.935 80.1649 145.098 93.625 157.864 93.625L185.794 93.6479C185.099 89.2684 184.778 82.7593 184.778 77.6394Z" fill="#231F20"/>
<path d="M247.942 54.1947C248.051 43.6045 244.579 37.3136 239.447 37.3136C233.162 37.3136 230.332 46.4573 230.045 54.1947H247.942ZM229.982 64.4921C230.137 79.2436 236.985 83.2501 244.688 83.2501C249.509 83.2501 254.618 82.1652 257.551 80.9082V91.3146C253.435 93.2547 248.097 94.4199 242.065 94.4199C225.052 94.4199 215.919 82.0791 215.919 61.6508C215.919 39.8219 226.383 26.534 240.475 26.534C254.354 26.534 261.345 39.0757 261.345 56.7661C261.345 60.5315 261.196 62.6553 260.966 64.4634L229.982 64.4921Z" fill="#231F20"/>
<path d="M307.037 38.8086V93.7051H292.572V46.3107C292.572 38.8545 292.199 33.0171 291.981 27.1738H320.497C331.489 27.1738 338.038 35.1753 338.038 50.4778V93.7051H323.573V51.8554C323.573 45.2603 322.173 38.8201 315.876 38.8201L307.037 38.8086Z" fill="#231F20"/>
<path d="M405.429 92.3168C403.392 93.4016 399.741 94.4922 394.862 94.4922C379.198 94.4922 368.774 82.8918 368.774 61.195C368.774 41.4325 379.715 26.5948 397.198 26.5948C401.102 26.5948 403.627 27.5419 405.429 28.512V39.9918C403.994 39.4063 400.665 38.5166 397.485 38.5166C388.066 38.5166 383.21 48.7681 383.21 60.908C383.21 74.4025 388.657 82.6221 397.503 82.6221C400.172 82.6221 403.317 82.0997 405.429 81.0551V92.3168Z" fill="#231F20"/>
<path d="M445.218 54.1947C445.51 46.4573 448.34 37.3136 454.614 37.3136C459.757 37.3136 463.229 43.6045 463.115 54.1947H445.218ZM476.512 56.7661C476.512 39.07 469.526 26.534 455.647 26.534C441.561 26.534 431.086 39.8219 431.086 61.6508C431.086 82.0791 440.218 94.4199 457.231 94.4199C463.275 94.4199 468.613 93.2547 472.723 91.3146V80.9082C469.779 82.1652 464.682 83.2501 459.86 83.2501C452.151 83.2501 445.315 79.2436 445.16 64.4921L476.138 64.4634C476.368 62.6553 476.512 60.5315 476.512 56.7661Z" fill="#231F20"/>
<path d="M491.278 2.74419C496.065 2.74419 499.963 7.19262 499.963 12.6627C499.963 18.1214 496.065 22.5698 491.278 22.5698C486.48 22.5698 482.6 18.1214 482.6 12.6627C482.6 7.19262 486.48 2.74419 491.278 2.74419ZM491.307 21.0889C495.302 21.0889 498.304 17.4096 498.304 12.6627C498.304 7.90436 495.302 4.23082 491.307 4.23082C487.266 4.23082 484.258 7.90436 484.258 12.6627C484.258 17.4096 487.266 21.0889 491.307 21.0889ZM487.955 6.83674H491.858C494.188 6.83674 495.348 7.90436 495.348 10.1027C495.348 11.974 494.309 13.3114 492.713 13.3114L495.606 18.4486H493.856L491.009 13.3114H489.614V18.4486H487.955V6.83674ZM489.614 11.8305H491.583C492.868 11.8305 493.683 11.532 493.683 10.0224C493.683 8.70221 492.65 8.31764 491.583 8.31764H489.614V11.8305Z" fill="#231F20"/>
</g>
<defs>
<clipPath id="clip0_8_16036">
<rect width="500" height="94.4924" fill="white"/>
</clipPath>
</defs>
</svg>
