<svg width="500" height="462" viewBox="0 0 500 462" fill="none" xmlns="http://www.w3.org/2000/svg">
<g clip-path="url(#clip0_8_16045)">
<path fill-rule="evenodd" clip-rule="evenodd" d="M479.227 11.2481C479.227 5.78649 483.68 0.8125 489.63 0.8125C495.546 0.8125 500 5.26634 500 11.2481C500 16.7098 495.546 21.6838 489.63 21.6838C483.68 21.6838 479.227 16.7098 479.227 11.2481ZM498.505 10.7605C498.505 5.78649 494.571 1.78779 489.63 1.78779C484.656 1.78779 480.722 5.78649 480.722 10.7605C480.722 15.7345 484.656 19.7007 489.63 19.7007C494.571 19.7007 498.505 15.7345 498.505 10.7605ZM487.647 11.7358V16.7098H485.664V4.29104H489.63C491.58 4.29104 494.051 4.77869 494.051 7.76959C494.051 9.26504 493.076 10.2403 491.58 10.7605C493.076 11.2481 493.563 11.7358 493.563 13.2312C494.051 14.239 494.051 15.7345 494.571 16.7098H492.068C492.068 16.2221 491.58 15.2143 491.58 14.7267C491.58 13.7189 491.58 12.7436 491.093 12.2559C490.605 11.7358 489.63 11.7358 489.11 11.7358H487.647ZM489.63 9.75268C491.613 9.26504 492.1 8.77739 492.1 7.76959C492.1 6.76178 491.613 6.27414 490.117 6.27414H487.647V9.75268H489.63Z" fill="#CC0000"/>
<path fill-rule="evenodd" clip-rule="evenodd" d="M459.948 0.29248V63.9466C405.104 44.5708 312.192 54.0311 218.759 93.3029C202.959 99.7723 187.127 107.737 172.302 115.67C169.831 115.182 167.361 115.182 164.89 115.182H111.021L101.138 162.419C92.2306 169.408 84.3307 176.853 76.9185 184.298H47.2696C41.3203 199.74 36.8989 203.218 30.9497 203.218C19.5713 203.218 21.5543 190.279 25.0329 172.887C28.9666 154.486 32.4451 142.523 44.3112 142.523C49.7403 142.523 53.674 145.026 51.2032 163.914H92.7182C100.163 124.642 78.4139 112.711 49.2527 112.711C29.4542 112.711 12.6792 119.181 0.292969 130.104V0.29248H459.948ZM89.2722 184.818H82.8677C87.8092 179.324 92.7507 174.87 98.6675 169.896L85.8261 230.559H142.653C177.764 230.559 204.942 209.168 212.354 174.382C218.758 144.538 212.354 121.651 179.714 116.677C189.597 111.703 199.48 107.217 209.883 102.763C322.562 55.0064 425.358 60.468 451.073 110.696C469.864 148.017 444.149 198.244 377.926 243.01C355.69 257.9 329.974 271.846 301.301 283.778C188.134 331.502 70.4815 332.51 45.2865 282.282C37.8742 267.36 40.8326 248.472 50.7156 229.064C68.5309 222.594 83.3554 208.68 89.2722 184.818ZM222.237 115.67L222.725 231.047H271.164L297.855 155.982H298.342L293.401 231.047H342.816L391.743 115.67H351.236L326.008 188.296H325.521L329.974 115.67H283.03L257.315 188.296L262.744 115.67H222.237ZM415.508 251.463C432.315 240.507 446.652 229.064 459.006 217.133V461.801H0.325479V230.559C6.76241 232.542 14.6623 234.038 23.57 234.038C29.4867 234.038 35.9237 233.062 42.3281 232.055C32.4451 254.421 31.4698 275.325 40.8651 293.238C70.0264 349.902 198.537 353.381 327.016 299.187C358.648 285.761 390.28 268.368 415.508 251.463ZM156.015 197.237C152.569 202.211 147.627 204.714 140.215 204.714H135.761L149.09 141.547H153.544C160.956 141.547 164.435 144.538 166.418 148.992C168.368 153.966 167.881 161.931 165.41 173.374C162.939 184.818 160.469 192.75 156.015 197.237Z" fill="#CC0000"/>
</g>
<defs>
<clipPath id="clip0_8_16045">
<rect width="500" height="461.964" fill="white"/>
</clipPath>
</defs>
</svg>
