<svg width="500" height="264" viewBox="0 0 500 264" fill="none" xmlns="http://www.w3.org/2000/svg">
<g clip-path="url(#clip0_8_16072)">
<path d="M163.34 175.312H141.417V262.193H163.34V175.312Z" fill="#C4122E"/>
<path d="M340.117 200.208C339.235 199.75 332.186 195.569 321.7 195.569C307.499 195.569 297.672 205.437 297.672 218.743C297.672 231.652 307.089 241.937 321.7 241.937C332.006 241.937 339.172 237.847 340.117 237.326V260.646C337.395 261.416 329.915 263.736 320.124 263.736C295.478 263.736 273.86 246.736 273.86 218.743C273.86 192.798 293.443 173.771 320.124 173.771C330.443 173.771 338.054 176.277 340.117 176.889V200.208Z" fill="#C4122E"/>
<path d="M111.275 200.208C110.393 199.75 103.344 195.569 92.8583 195.569C78.657 195.569 68.8306 205.437 68.8306 218.743C68.8306 231.652 78.2472 241.937 92.8583 241.937C103.164 241.937 110.331 237.847 111.275 237.326V260.646C108.553 261.416 101.074 263.736 91.282 263.736C66.6361 263.736 45.0181 246.736 45.0181 218.743C45.0181 192.798 64.6014 173.771 91.282 173.771C101.601 173.771 109.213 176.277 111.275 176.889V200.208Z" fill="#C4122E"/>
<path d="M409.086 195.895C396.079 195.895 386.419 206.131 386.419 218.742C386.419 231.381 396.079 241.61 409.086 241.61C422.079 241.61 431.767 231.381 431.767 218.742C431.767 206.131 422.079 195.895 409.086 195.895ZM454.996 218.742C454.996 243.596 435.808 263.735 409.086 263.735C382.364 263.735 363.204 243.596 363.204 218.742C363.204 193.929 382.364 173.77 409.086 173.77C435.808 173.77 454.996 193.929 454.996 218.742Z" fill="#C4122E"/>
<path d="M246.482 195.061C246.155 194.956 236.926 192.408 229.343 192.408C220.558 192.408 215.78 195.352 215.78 199.526C215.78 204.818 222.225 206.665 225.829 207.804L231.878 209.727C246.107 214.255 252.593 223.998 252.593 234.581C252.593 256.408 233.398 263.741 216.621 263.741C204.961 263.741 194.037 261.595 192.961 261.366V241.373C194.892 241.859 204.086 244.602 213.662 244.602C224.572 244.602 229.586 241.415 229.586 236.491C229.586 232.088 225.246 229.547 219.808 227.838C218.482 227.394 216.489 226.769 215.128 226.324C202.919 222.463 192.739 215.29 192.739 200.908C192.739 184.658 204.905 173.748 225.114 173.748C235.787 173.748 245.829 176.338 246.482 176.512V195.061Z" fill="#C4122E"/>
<path d="M21.7708 81.9409C21.7708 75.9548 16.8819 71.1006 10.8889 71.1006C4.89583 71.1006 0 75.9548 0 81.9409V104.746C0 110.767 4.89583 115.628 10.8889 115.628C16.8819 115.628 21.7708 110.767 21.7708 104.746V81.9409Z" fill="#15495D"/>
<path d="M81.5575 52.0075C81.5575 46.0214 76.6686 41.1533 70.6755 41.1533C64.6755 41.1533 59.7866 46.0214 59.7866 52.0075V104.751C59.7866 110.771 64.6755 115.626 70.6755 115.626C76.6686 115.626 81.5575 110.771 81.5575 104.751V52.0075Z" fill="#15495D"/>
<path d="M141.345 11.0523C141.345 5.06619 136.456 0.205078 130.463 0.205078C124.463 0.205078 119.574 5.06619 119.574 11.0523V126.42C119.574 132.441 124.463 137.302 130.463 137.302C136.456 137.302 141.345 132.441 141.345 126.42V11.0523Z" fill="#15495D"/>
<path d="M201.133 52.0075C201.133 46.0214 196.244 41.1533 190.251 41.1533C184.251 41.1533 179.362 46.0214 179.362 52.0075V104.751C179.362 110.771 184.251 115.626 190.251 115.626C196.244 115.626 201.133 110.771 201.133 104.751V52.0075Z" fill="#15495D"/>
<path d="M260.852 81.9409C260.852 75.9548 255.998 71.1006 250.033 71.1006C244.04 71.1006 239.151 75.9548 239.151 81.9409V104.746C239.151 110.767 244.04 115.628 250.033 115.628C255.998 115.628 260.852 110.767 260.852 104.746V81.9409Z" fill="#15495D"/>
<path d="M260.88 81.9409C260.88 75.9548 255.991 71.1006 249.998 71.1006C244.005 71.1006 239.109 75.9548 239.109 81.9409V104.746C239.109 110.767 244.005 115.628 249.998 115.628C255.991 115.628 260.88 110.767 260.88 104.746V81.9409Z" fill="#15495D"/>
<path d="M320.666 52.0075C320.666 46.0214 315.777 41.1533 309.784 41.1533C303.784 41.1533 298.896 46.0214 298.896 52.0075V104.751C298.896 110.771 303.784 115.626 309.784 115.626C315.777 115.626 320.666 110.771 320.666 104.751V52.0075Z" fill="#15495D"/>
<path d="M380.454 11.0523C380.454 5.06619 375.565 0.205078 369.572 0.205078C363.572 0.205078 358.683 5.06619 358.683 11.0523V126.42C358.683 132.441 363.572 137.302 369.572 137.302C375.565 137.302 380.454 132.441 380.454 126.42V11.0523Z" fill="#15495D"/>
<path d="M440.242 52.0075C440.242 46.0214 435.353 41.1533 429.36 41.1533C423.36 41.1533 418.471 46.0214 418.471 52.0075V104.751C418.471 110.771 423.36 115.626 429.36 115.626C435.353 115.626 440.242 110.771 440.242 104.751V52.0075Z" fill="#15495D"/>
<path d="M499.961 81.9409C499.961 75.9548 495.107 71.1006 489.142 71.1006C483.149 71.1006 478.26 75.9548 478.26 81.9409V104.746C478.26 110.767 483.149 115.628 489.142 115.628C495.107 115.628 499.961 110.767 499.961 104.746V81.9409Z" fill="#15495D"/>
<path d="M487.455 250.751V252.112H483.58V262.188H481.99V252.112H478.094V250.751H487.455Z" fill="#C4122E"/>
<path d="M488.269 250.751H490.762L494.185 260.133H494.241L497.553 250.751H499.998V262.188H498.366V252.813H498.31L494.838 262.188H493.331L489.942 252.813H489.866V262.188H488.269V250.751Z" fill="#C4122E"/>
</g>
<defs>
<clipPath id="clip0_8_16072">
<rect width="500" height="263.889" fill="white"/>
</clipPath>
</defs>
</svg>
