<svg width="500" height="74" viewBox="0 0 500 74" fill="none" xmlns="http://www.w3.org/2000/svg">
<g clip-path="url(#clip0_8_16069)">
<path d="M59.5958 47.9782H63.2543C63.2543 47.9782 61.7139 66.7522 61.6497 66.7843C55.1349 70.0899 48.2671 73.3954 35.7832 73.3954C13.7036 73.3954 0.288952 59.1463 0.000120471 37.484C-0.288711 15.0834 14.9873 0 37.2273 0C46.3416 0 57.0925 3.04878 61.0399 5.32734V22.914H57.5097C56.0014 13.6072 51.7652 4.87805 37.452 4.87805C20.5393 4.87805 10.9115 17.5546 11.0078 37.0667C11.1362 55.4557 21.3737 68.5173 36.778 68.5173C53.0489 68.5173 56.2581 59.018 58.4404 51.8293L59.5958 47.9782Z" fill="#005ED1"/>
<path fill-rule="evenodd" clip-rule="evenodd" d="M108.633 73.3954C86.3608 73.3954 73.0425 59.8203 73.0425 37.1309C73.0425 14.57 88.1901 0 111.585 0C133.473 0 147.048 13.6393 147.048 35.5905C147.048 58.8896 132.317 73.3954 108.633 73.3954ZM136.04 36.7779C136.04 16.7843 126.252 4.87805 109.82 4.87805C93.9347 4.87805 84.0823 17.009 84.0823 36.5854C84.0823 56.2901 93.9347 68.5173 109.82 68.5173C126.252 68.5173 136.04 56.6752 136.04 36.7779ZM267.94 1.54044H299.647V4.46085L290.372 7.09243L289.538 73.3312H288.19L237.58 10.6868L239.281 66.1746L253.049 68.8703V71.8549H225.417C206.675 71.8549 202.664 67.7471 197.144 60.5584L180.616 39.0565L176.701 37.8049V34.8524C178.274 34.8524 180.039 34.7561 181.547 34.5635C185.944 33.9859 196.695 32.0603 196.695 18.7099C196.695 10.1091 191.271 5.9371 180.071 5.9371C178.049 5.9371 175.064 6.25802 172.048 6.73941V66.2388L182.157 68.9024V71.8549H150.899V68.8703L162.324 66.2388V7.12452L150.899 4.49294V1.54044H182.413C202.6 1.54044 206.804 10.8151 206.804 18.6136C206.804 30.552 196.663 35.1733 190.372 36.9384C192.362 39.4095 208.216 59.0501 208.216 59.0501C214.313 66.656 218.903 67.8755 221.823 68.7099L232.06 66.2388L232.51 7.12452L221.021 4.49294V1.54044H242.426L284.852 53.4018L283.152 7.15661L267.94 4.52503V1.54044ZM338.768 71.8549H306.194V68.9024L317.619 66.2388V7.12452L306.194 4.49294V1.54044H338.8V4.49294L327.311 7.12452L327.343 66.2388L338.768 68.9024V71.8549ZM377.375 71.8549H345.347V68.8703L356.354 66.2388L356.772 7.12452L345.347 4.49294V1.54044H366.752L409.146 53.4018L407.446 7.15661L392.234 4.52503L392.266 1.54044H423.973V4.46085L414.698 7.09243L413.832 73.3312H412.484L361.906 10.7189L363.607 66.2067L377.375 68.8703V71.8549ZM490.79 65.9499C484.724 69.5443 477.022 73.6842 462.356 73.4275C440.918 73.1065 427.054 58.7933 426.958 37.5802C426.829 14.6983 441.078 0.0320924 463.318 0.0320924C474.679 0.0320924 484.499 2.92041 489.057 5.4878V22.8498H485.815C484.307 14.7946 480.039 4.91014 464.795 4.91014C447.497 4.91014 437.965 16.8164 437.965 37.1309C437.965 55.5199 448.299 68.1001 462.965 68.5815C471.149 68.8382 476.412 66.656 481.13 62.9012V44.6406L467.683 42.009V39.0565H499.872V41.9769L490.822 44.6085C490.822 44.6085 490.758 65.9178 490.79 65.9499Z" fill="#005ED1"/>
</g>
<defs>
<clipPath id="clip0_8_16069">
<rect width="500" height="73.4917" fill="white"/>
</clipPath>
</defs>
</svg>
