<svg width="500" height="274" viewBox="0 0 500 274" fill="none" xmlns="http://www.w3.org/2000/svg">
<g clip-path="url(#clip0_7_16027)">
<path fill-rule="evenodd" clip-rule="evenodd" d="M22.6679 238.083V272.377H13.212V238.083H0.0966797V229.372H35.7184V238.083H22.6679ZM48.4127 272.377V229.372H80.8933V237.824H57.8363V246.535H78.076V254.955H57.8363V263.99H81.1848V272.442H48.4127V272.377ZM115.544 273.154C102.849 273.154 93.4581 263.342 93.4581 250.972V250.875C93.4581 238.634 102.687 228.627 115.867 228.627C123.996 228.627 128.821 231.315 132.836 235.298L126.845 242.228C123.51 239.216 120.11 237.371 115.803 237.371C108.549 237.371 103.335 243.394 103.335 250.777V250.875C103.335 258.226 108.452 264.411 115.803 264.411C120.693 264.411 123.769 262.435 127.104 259.359L133.128 265.447C128.756 270.175 123.834 273.154 115.544 273.154ZM173.283 272.377V255.117H155.796V272.377H146.34V229.372H155.796V246.406H173.283V229.372H182.739V272.377H173.283ZM229.695 272.377L208.84 245.013V272.377H199.514V229.372H208.193L228.367 255.894V229.372H237.694V272.377H229.695ZM274.319 273.154C261.042 273.154 251.522 263.245 251.522 250.972V250.875C251.522 238.634 261.204 228.627 274.481 228.627C287.759 228.627 297.279 238.504 297.279 250.777V250.875C297.215 263.148 287.597 273.154 274.319 273.154ZM287.338 250.875C287.338 243.523 281.897 237.338 274.319 237.338C266.677 237.338 261.431 243.362 261.431 250.713V250.81C261.431 258.193 266.839 264.378 274.417 264.378C281.994 264.378 287.338 258.355 287.338 250.972V250.875ZM310.816 272.409V229.372H320.272V263.795H341.709V272.409H310.816ZM373.639 273.154C360.362 273.154 350.841 263.245 350.841 251.004V250.875C350.841 238.634 360.524 228.627 373.801 228.627C387.079 228.627 396.599 238.536 396.599 250.777V250.875C396.534 263.148 386.917 273.154 373.639 273.154ZM386.658 250.875C386.658 243.523 381.217 237.338 373.639 237.338C366.029 237.338 360.751 243.362 360.751 250.713V250.842C360.751 258.193 366.159 264.378 373.769 264.378C381.347 264.378 386.658 258.355 386.658 251.004V250.875ZM430.602 273.122C417.227 273.122 407.998 263.731 407.998 250.972V250.875C407.998 238.601 417.487 228.595 430.569 228.595C438.309 228.595 442.972 230.7 447.441 234.521L441.483 241.71C438.147 238.99 435.168 237.371 430.246 237.371C423.348 237.371 417.875 243.426 417.875 250.745V250.875C417.875 258.711 423.316 264.508 430.893 264.508C434.326 264.508 437.37 263.666 439.799 261.95V255.797H430.278V247.636H448.996V266.354C444.527 270.045 438.471 273.122 430.602 273.122ZM483.387 255.214V272.377H473.931V255.376L457.383 229.307H468.458L478.724 246.568L489.151 229.307H499.87L483.387 255.214Z" fill="#010101"/>
<path fill-rule="evenodd" clip-rule="evenodd" d="M165.349 111.723C164.216 119.301 162.079 126.716 158.678 134.035C153.756 145.207 146.858 155.991 137.629 165.026C120.207 182.643 94.2029 193.847 67.5838 193.847H0.291016V155.117H67.5514C83.4516 155.117 98.7042 149.093 109.035 138.342C116.483 130.764 121.696 121.503 124.384 111.723H165.349ZM124.417 82.1893C121.729 72.4095 116.515 63.1802 109.035 55.5701C98.7042 44.8188 83.4516 38.7955 67.5514 38.7955H0.323399V0.0973248H67.5514C94.2029 0.0973248 120.207 11.2696 137.629 28.9186C146.858 37.9535 153.756 48.7048 158.711 59.8771C162.079 67.1958 164.216 74.6116 165.349 82.1893H124.417ZM249.805 129.145L198.413 193.847H147.474L224.384 96.9885L147.506 0.0973248H198.478L249.838 64.7346L301.165 0.0973248H352.105L275.161 96.9885L352.072 193.847H301.101L249.805 129.145ZM375.194 111.691C377.882 121.503 383.095 130.732 390.576 138.31C400.874 149.061 416.159 155.084 432.059 155.084H499.287V193.815H432.059C405.408 193.815 379.404 182.643 362.046 164.994C352.785 155.959 345.919 145.207 340.965 134.035C337.597 126.716 335.427 119.301 334.294 111.691H375.194ZM375.194 82.1893H334.294C335.427 74.6116 337.597 67.1958 340.965 59.8771C345.919 48.6725 352.785 37.9212 362.046 28.8862C379.404 11.2696 405.408 0.0649414 432.059 0.0649414H499.287V38.7955H432.059C416.159 38.7955 400.906 44.8188 390.576 55.5701C383.095 63.1479 377.882 72.4095 375.194 82.1893Z" fill="#603494"/>
</g>
<defs>
<clipPath id="clip0_7_16027">
<rect width="500" height="273.316" fill="white"/>
</clipPath>
</defs>
</svg>
