<svg width="500" height="90" viewBox="0 0 500 90" fill="none" xmlns="http://www.w3.org/2000/svg">
<g clip-path="url(#clip0_8_16055)">
<path d="M43.6308 89.4906C26.6245 89.4906 11.1149 79.6817 3.75822 64.1721C2.45249 61.4014 3.56714 58.2486 6.33784 56.9747C8.91746 55.669 12.2296 56.9747 13.3442 59.5543C19.0767 71.7518 31.4334 79.1403 44.9047 78.5671C57.2933 78.0257 68.3761 70.8282 73.7264 59.3632C75.0003 56.5925 78.1531 55.4779 80.9238 56.7836C83.6945 58.0893 84.7773 61.2104 83.5034 63.9811C76.4971 78.9492 61.9111 88.5671 45.2869 89.2995C44.9047 89.4906 44.1722 89.4906 43.6308 89.4906Z" fill="#F07330"/>
<path d="M81.6563 49.7772H5.60531C2.64353 49.7772 0.223145 47.3568 0.223145 44.395C0.223145 41.4651 2.64353 39.0447 5.60531 39.0447H75.9238C73.3442 23.153 59.4907 11.1466 42.8983 11.1466C30.3187 11.1466 19.0766 17.9937 13.3442 29.0765C12.0384 31.6562 8.72633 32.7708 6.14671 31.3058C3.56709 30.0001 2.45244 26.688 3.91741 24.0765C11.497 9.29947 26.4652 0.254883 42.8983 0.254883C67.2614 0.254883 87.0066 20.0319 87.0066 44.395C87.0066 45.8812 86.4546 47.1763 85.3505 48.2804C84.427 49.2039 83.1212 49.7772 81.6563 49.7772Z" fill="#F07330"/>
<path d="M156.783 69.1723C156.783 71.7519 154.777 73.9494 152.006 73.9494H118.949C116.369 73.9494 114.14 71.943 114.14 69.1723V20.5736C114.14 17.9939 116.178 15.7646 118.949 15.7646H149.968C152.548 15.7646 154.777 17.9939 154.777 20.5736C154.777 23.1532 152.739 25.3825 149.968 25.3825H123.758V38.8538H143.854C146.465 38.8538 148.662 40.892 148.662 43.6627C148.662 46.2424 146.624 48.4717 143.854 48.4717H123.758V64.1723H152.006C154.777 64.1723 156.975 66.4016 156.783 69.1723Z" fill="#4C4D4F"/>
<path d="M499.809 69.1723C499.809 71.7519 497.771 73.9494 495 73.9494H461.975C459.395 73.9494 457.166 71.943 457.166 69.1723V20.5736C457.166 17.9939 459.204 15.7646 461.975 15.7646H492.994C495.574 15.7646 497.771 17.9939 497.771 20.5736C497.771 23.1532 495.765 25.3825 492.994 25.3825H466.784V38.8538H486.879C489.491 38.8538 491.688 40.892 491.688 43.6627C491.688 46.2424 489.65 48.4717 486.879 48.4717H466.784V64.1723H495C497.612 64.1723 499.809 66.4016 499.809 69.1723Z" fill="#4C4D4F"/>
<path fill-rule="evenodd" clip-rule="evenodd" d="M391.083 73.4077C390.51 73.5988 389.778 73.7899 389.236 73.7899C387.389 73.7899 385.542 72.6752 384.809 70.8281L380.383 60.4778H357.102L352.676 70.8281C351.943 72.6752 350.096 73.7899 348.249 73.7899C347.676 73.7899 346.943 73.5988 346.402 73.4077C343.981 72.293 342.707 69.3313 343.822 66.9427L349.523 53.6306L364.3 18.3758V18.1848C364.491 18.1848 364.491 17.9937 364.491 17.9937C364.682 17.9937 364.682 17.8026 364.682 17.8026C364.873 17.8026 364.873 17.6115 364.873 17.6115L365.956 16.5287C365.956 16.3376 366.147 16.3376 366.147 16.3376L366.338 16.1465C366.338 15.9555 366.529 15.9555 366.529 15.9555C366.529 15.7644 366.72 15.7644 366.72 15.7644C366.72 15.6051 366.879 15.6051 366.879 15.6051H367.644C367.994 15.4141 368.376 15.4141 368.727 15.4141C368.918 15.4141 369.109 15.4141 369.109 15.4141C369.459 15.4141 369.841 15.6051 370.223 15.6051H370.574C370.574 15.7644 370.765 15.7644 370.765 15.7644H370.956C370.956 15.9555 371.147 15.9555 371.147 15.9555C371.147 16.1465 371.306 16.1465 371.306 16.1465C371.306 16.3376 371.497 16.3376 371.497 16.3376L372.612 17.4523C372.803 17.4523 372.803 17.6115 372.803 17.6115L372.994 17.8026C373.153 17.8026 373.153 17.9937 373.153 17.9937C373.344 17.9937 373.344 18.1848 373.344 18.1848C373.535 18.1848 373.535 18.3758 373.535 18.3758V18.5351L388.313 53.8217L394.013 67.1338C395.128 69.5223 394.013 72.4841 391.083 73.4077ZM376.688 50.7007L369.109 32.7708L361.529 50.7007H376.688Z" fill="#4C4D4F"/>
<path d="M212.007 73.9489H210.701C209.236 73.9489 207.739 73.2164 206.815 72.1018L176.561 33.312V69.1719C176.561 71.9426 174.331 73.9489 171.752 73.9489C169.172 73.9489 166.943 71.7515 166.943 69.1719V20.3821C166.943 17.6114 169.172 15.605 171.752 15.605H172.866C174.331 15.605 175.796 16.3375 176.72 17.4521L207.198 56.5922V20.3821C207.198 17.6114 209.395 15.605 212.007 15.605C214.586 15.605 216.784 17.8024 216.784 20.3821V68.9808C216.975 71.7515 214.777 73.9489 212.007 73.9489Z" fill="#4C4D4F"/>
<path d="M333.663 20.3822V68.9809C333.663 71.5606 331.433 73.7899 328.854 73.7899C326.274 73.7899 324.045 71.7516 324.045 68.9809V48.4714H296.37V68.7899C296.37 71.3695 294.14 73.5988 291.561 73.5988C288.981 73.5988 286.752 71.5606 286.752 68.7899V43.4714V20.223C286.752 17.6115 288.981 15.4141 291.561 15.4141C294.14 15.4141 296.37 17.4523 296.37 20.223V38.6943H324.045V20.223C324.045 17.6115 326.083 15.4141 328.854 15.4141C331.433 15.4141 333.663 17.6115 333.663 20.3822Z" fill="#4C4D4F"/>
<path d="M423.185 74.8726C415.828 74.8726 408.249 71.9426 403.089 66.7516C401.242 64.9044 401.242 61.7834 403.089 59.9363C404.937 58.0891 408.058 58.0891 409.905 59.9363C415.064 65.0955 423.026 66.0191 427.994 64.363C430.223 63.6305 432.994 62.1337 433.535 58.8216C433.918 56.0509 432.421 53.4713 423.949 49.777C423.185 49.3949 422.453 49.2038 421.911 48.8535C421.529 48.6624 420.796 48.2802 419.873 47.9299C414.332 45.7006 403.089 41.0828 403.249 30.7325C403.44 24.2675 407.325 18.9172 413.599 16.3375C422.453 12.6433 433.726 15.2229 440.924 22.4204C442.771 24.2675 442.771 27.4204 440.924 29.2675C439.077 31.1146 435.924 31.1146 434.077 29.2675C429.109 24.2675 421.911 23.535 417.293 25.3821C414.523 26.4968 413.058 28.3439 413.058 30.9235C413.058 34.6178 419.873 37.3885 423.567 38.8535C424.671 39.2356 425.595 39.6072 426.338 39.9681C426.72 40.1592 427.261 40.3503 427.994 40.7006C433.153 42.9299 445.351 48.0891 443.503 60.0955C442.58 66.4012 438.153 71.1783 431.497 73.4076C428.726 74.5223 425.956 74.8726 423.185 74.8726Z" fill="#4C4D4F"/>
<path fill-rule="evenodd" clip-rule="evenodd" d="M237.102 73.9489C234.331 73.9489 232.293 71.7515 232.293 69.1719V20.3821C232.293 17.6114 234.522 15.605 237.102 15.605H257.038C267.93 15.605 275.86 23.1528 275.86 33.8852C275.86 44.3948 267.93 52.1655 257.038 52.1655H241.911V69.3311C242.102 71.7515 239.873 73.9489 237.102 73.9489ZM242.102 42.1973H257.229C262.771 42.1973 266.274 38.8534 266.274 33.6942C266.274 28.5349 262.771 25.191 257.229 25.191H242.102V42.1973Z" fill="#4C4D4F"/>
</g>
<defs>
<clipPath id="clip0_8_16055">
<rect width="500" height="89.4904" fill="white"/>
</clipPath>
</defs>
</svg>
