<svg width="500" height="500" viewBox="0 0 500 500" fill="none" xmlns="http://www.w3.org/2000/svg">
<g clip-path="url(#clip0_8_16051)">
<path fill-rule="evenodd" clip-rule="evenodd" d="M472.097 445.355C473.871 447.097 475.258 449.194 476.193 451.484C477.161 453.775 477.645 456.226 477.645 458.71C477.645 461.194 477.161 463.646 476.193 465.936C475.258 468.226 473.871 470.291 472.097 472.065C467.645 476.516 461.29 478.452 455.097 477.258C448.935 476.033 443.774 471.807 441.355 466C438.935 460.194 439.548 453.549 443.032 448.323C446.516 443.065 452.419 439.904 458.709 439.904C459.957 439.882 461.193 439.99 462.419 440.226C463.623 440.441 464.806 440.785 465.968 441.258C467.129 441.732 468.226 442.323 469.258 443.033C470.29 443.721 471.236 444.506 472.097 445.387V445.355ZM467.774 445.194C466.892 444.592 465.957 444.076 464.968 443.646C463.978 443.237 462.957 442.936 461.903 442.742C460.849 442.549 459.785 442.463 458.709 442.484C456.58 442.484 454.451 442.904 452.484 443.71C450.516 444.549 448.742 445.742 447.226 447.258C445.709 448.775 444.516 450.581 443.709 452.549C442.903 454.516 442.484 456.646 442.516 458.775C442.494 459.828 442.58 460.882 442.774 461.936C442.989 462.99 443.29 464.011 443.677 465C444.086 465.99 444.591 466.925 445.193 467.807C445.774 468.689 446.441 469.506 447.193 470.258C449.451 472.549 452.355 474.097 455.516 474.742C458.677 475.387 461.935 475.065 464.903 473.807C467.871 472.581 470.419 470.484 472.193 467.807C473.968 465.129 474.903 462 474.903 458.775C474.925 457.699 474.839 456.635 474.645 455.581C474.451 454.527 474.15 453.506 473.742 452.517C473.355 451.527 472.86 450.592 472.258 449.71C471.656 448.828 470.968 448.011 470.193 447.258C469.462 446.484 468.656 445.796 467.774 445.194ZM451.097 448.258H458.355C460.935 448.258 462.806 448.516 464 449.033C466.193 449.904 467.193 451.678 467.193 454.258C467.193 456.065 466.548 457.452 465.193 458.355C464.957 458.484 464.72 458.603 464.484 458.71C464.247 458.818 464 458.914 463.742 459C463.484 459.086 463.226 459.162 462.968 459.226C462.709 459.291 462.451 459.334 462.193 459.355C463.806 459.678 465 460.323 465.742 461.42C465.935 461.656 466.097 461.904 466.226 462.162C466.376 462.42 466.505 462.678 466.613 462.936C466.699 463.215 466.774 463.506 466.839 463.807C466.903 464.086 466.935 464.377 466.935 464.678V467.71C466.935 467.796 466.935 467.893 466.935 468C466.957 468.086 466.978 468.172 467 468.258C467 468.344 467.021 468.43 467.064 468.516C467.086 468.603 467.118 468.689 467.161 468.775L467.258 468.968H463.839C463.806 468.968 463.742 468.904 463.742 468.807C463.742 468.785 463.742 468.764 463.742 468.742C463.742 468.721 463.742 468.699 463.742 468.678C463.72 468.656 463.709 468.646 463.709 468.646C463.709 468.624 463.709 468.602 463.709 468.581L463.645 467.904V466.258C463.645 463.871 463 462.323 461.71 461.516C460.935 461.065 459.548 460.871 457.645 460.871H454.742V468.968H451.097V448.258ZM461.516 457.807C461.839 457.699 462.14 457.538 462.419 457.323C462.699 457.108 462.935 456.85 463.129 456.549C463.322 456.248 463.462 455.925 463.548 455.581C463.634 455.258 463.666 454.914 463.645 454.549C463.645 453.097 463.097 452.065 462.258 451.549C461.387 451.065 459.903 450.807 457.903 450.807H454.742V458.323H458C458.301 458.323 458.591 458.323 458.871 458.323C459.172 458.301 459.473 458.28 459.774 458.258C460.075 458.215 460.365 458.162 460.645 458.097C460.925 458.033 461.215 457.957 461.516 457.871V457.807Z" fill="#E4002B"/>
<path d="M431 401.258C424.87 405.775 418.451 409.871 411.741 413.517C405.064 417.162 398.129 420.355 391.032 423.065C383.903 425.775 376.612 428 369.193 429.71C361.774 431.42 354.225 432.646 346.645 433.355C308.741 436.162 258.064 427.162 247.29 420.549C245.612 416.742 243.946 412.925 242.29 409.097C240.634 405.269 238.978 401.452 237.322 397.646C235.666 393.818 234.021 389.99 232.387 386.162C230.752 382.312 229.129 378.474 227.516 374.646C225.838 371.194 224.806 367.646 229.516 363.549C231.344 361.785 233.172 360.033 235 358.291C236.827 356.527 238.655 354.764 240.483 353C242.311 351.237 244.139 349.474 245.967 347.71C247.795 345.947 249.623 344.172 251.451 342.388C254.741 339.194 258.387 336.194 261.161 340.807C263.569 344.527 266 348.248 268.451 351.968C270.881 355.667 273.322 359.377 275.774 363.097C278.204 366.796 280.655 370.495 283.129 374.194C285.58 377.893 288.043 381.592 290.516 385.291C301.354 401.291 317.903 415.936 354 413.517C384.451 410.742 407.516 387.807 410 362.484C412.741 315.71 365.354 282.484 242.258 271.839C247.634 255.56 253.021 239.28 258.419 223C263.817 206.721 269.225 190.452 274.645 174.194C280.064 157.914 285.494 141.646 290.935 125.387C296.376 109.129 301.827 92.8713 307.29 76.6133C314.172 76.9144 321.043 77.2799 327.903 77.7101C334.763 78.1617 341.623 78.6886 348.483 79.2907C355.322 79.8713 362.161 80.5273 369 81.2584C375.838 81.9896 382.666 82.7853 389.483 83.6455C408.612 86.1617 426.387 90.5488 444.193 92.6455C448.473 97.8714 452.505 103.269 456.29 108.839C453.258 121.549 451.645 134.646 448.645 148.065C411.193 143.194 367.161 139.646 317.645 137.904C313.709 150.452 309.935 162.742 305.645 176.162C388.387 181.258 428.645 203.065 452.516 228.742C475.709 254.742 480.645 283.484 479.29 310.162C476.354 353.517 457.258 380.904 431 401.258Z" fill="white"/>
<path d="M67.3873 391.29C68.355 386.548 67.5485 379.161 66.7098 371.71C61.7098 322.613 59.9356 269.645 61.8389 216.548C49.1614 217.097 37.7421 217.71 26.8389 218.355C26.9464 215.946 27.0647 213.538 27.1937 211.129C27.3227 208.742 27.4518 206.344 27.5808 203.935C27.7313 201.548 27.8926 199.15 28.0647 196.742C28.2367 194.355 28.4195 191.957 28.6131 189.548C39.355 188.516 50.8066 187.548 63.355 186.548C63.484 184.462 63.6131 182.387 63.7421 180.323C63.8926 178.237 64.0432 176.15 64.1937 174.064C64.3442 171.978 64.5055 169.903 64.6776 167.839C64.8496 165.753 65.0217 163.677 65.1937 161.613C70.8389 111 124.161 80.0645 168.549 68.0967C188.258 63.258 200.29 61.7419 209.742 61.258C213.194 61.1612 216.839 61.0645 220.516 61.0645C229.742 61.0645 239.097 61.9032 245 65.9032C247.452 67.7311 249.893 69.5698 252.323 71.4193C254.774 73.2472 257.204 75.0967 259.613 76.9677C262.043 78.8171 264.463 80.6774 266.871 82.5483C269.28 84.4193 271.688 86.301 274.097 88.1935C275.161 89.5483 276.194 91.6451 273.71 95.3548C269.097 100.742 264.645 105.903 259.936 111.516C257.258 114.742 252.742 113.839 248.936 112.839C241.065 108.839 233.387 105.097 225.71 101.355C211.645 95.1612 197.194 88.7096 181.065 89.3548C171 90.1612 161.258 100.452 160.258 114.548C158.839 136 157.903 157.935 157.097 181.806C185.097 181 213 180.516 242.387 180.387L242.355 200.064C232.742 204.355 223.71 208.71 214.097 213.064C194.258 213.29 175.355 213.452 156.355 213.806C156.118 227.57 156 241.344 156 255.129C155.979 268.892 156.075 282.667 156.29 296.452C156.506 310.215 156.817 323.978 157.226 337.742C157.656 351.527 158.194 365.301 158.839 379.064C159.29 386.903 159.71 394.903 162 400.258C164.71 406.935 180.29 412.161 214.258 414.064L214.742 431.29C202.097 430.989 189.463 430.452 176.839 429.677C164.194 428.925 151.581 427.935 139 426.71C126.398 425.484 113.828 424.043 101.29 422.387C88.7313 420.71 76.2152 418.817 63.7421 416.71C58.4088 410.774 53.3765 404.591 48.6453 398.161C59.2582 398.258 66.6131 395.839 67.3873 391.29Z" fill="white"/>
<path d="M456.355 108.807C463.419 119.129 469.709 129.936 475.161 141.226C480.613 152.484 485.193 164.129 488.903 176.097C492.58 188.032 495.387 200.258 497.258 212.613C499.097 225 500.032 237.484 500 250C499.967 300.581 484.613 350 455.903 391.678C427.193 433.323 386.548 465.323 339.29 483.387C292.032 501.452 240.387 504.774 191.226 492.871C142.032 480.968 97.6127 454.419 63.8385 416.742C76.3116 418.85 88.8277 420.742 101.387 422.419C113.924 424.075 126.494 425.506 139.097 426.71C151.677 427.914 164.29 428.903 176.935 429.678C189.559 430.43 202.193 430.957 214.838 431.258L214.355 414.065C180.355 412.097 164.742 406.936 162.064 400.194C159.806 394.903 159.387 386.903 158.903 379.065C158.258 365.301 157.72 351.527 157.29 337.742C156.86 323.979 156.537 310.215 156.322 296.452C156.129 282.667 156.032 268.893 156.032 255.129C156.054 241.344 156.172 227.57 156.387 213.807C175.387 213.452 194.29 213.29 214.161 213.065C223.806 208.71 232.838 204.355 242.451 200.065L242.484 180.355C213.064 180.516 185.161 181 157.161 181.807C157.935 157.936 158.903 136 160.29 114.549C161.29 100.452 171.064 90.1614 181.097 89.3872C197.258 88.7098 211.742 95.1614 225.742 101.387C233.484 105.097 241.097 108.839 249 112.903C252.806 113.903 257.29 114.742 260 111.484L273.709 95.355C276.193 91.7098 275.097 89.5485 274.097 88.1937C264 80.2582 254.613 73.0969 245 65.9034C239.064 61.9034 229.742 61.0647 220.548 61.0647C216.838 61.0647 213.193 61.1614 209.742 61.2905C206.279 61.527 202.817 61.8496 199.355 62.2582C195.892 62.6668 192.441 63.1507 189 63.7098C185.559 64.269 182.129 64.9141 178.709 65.6453C175.312 66.3765 171.924 67.1937 168.548 68.0969C124.161 80.0001 70.8385 111 65.1933 161.645C64.4514 169.903 63.8385 178.065 63.3546 186.549C50.8062 187.549 39.3869 188.484 28.6127 189.549C27.8062 199.194 27.2901 208.484 26.8062 218.355C29.7094 218.183 32.6234 218.011 35.5481 217.839C38.4729 217.688 41.3869 217.538 44.2901 217.387C47.2148 217.237 50.1288 217.086 53.032 216.936C55.9567 216.807 58.8815 216.678 61.8062 216.549C59.9352 269.645 61.7094 322.613 66.7094 371.71C67.5481 379.161 68.3546 386.484 67.3868 391.29C66.6127 395.839 59.2578 398.258 48.6449 398.161C40.8062 387.516 33.8062 376.258 27.7417 364.516C21.6772 352.774 16.5481 340.548 12.4191 328C8.29008 315.419 5.16105 302.549 3.09653 289.484C0.999757 276.419 -0.0325015 263.226 -0.000243425 250C0.0320146 198.355 16.032 147.968 45.8707 105.774C75.6772 63.5808 117.838 31.6776 166.516 14.4195C215.226 -2.80631 268.064 -4.54825 317.774 9.45175C367.516 23.4517 411.677 52.5163 444.193 92.6453C426.387 90.613 408.613 86.1614 389.516 83.7421C363.613 80.3872 336.548 78.0001 307.29 76.6453C288.903 131.516 265.838 200.516 242.193 271.807C365.355 282.452 412.709 315.645 410.064 362.452C407.613 387.742 384.451 410.742 354.097 413.452C317.903 415.903 301.355 401.258 290.516 385.258C280.935 370.903 271.387 356.452 261.193 340.742C258.451 336.161 254.806 339.161 251.484 342.355C249.677 344.118 247.86 345.882 246.032 347.645C244.204 349.409 242.376 351.172 240.548 352.936C238.72 354.699 236.892 356.462 235.064 358.226C233.215 359.989 231.376 361.753 229.548 363.516C224.838 367.613 225.903 371.161 227.548 374.613C229.183 378.441 230.817 382.269 232.451 386.097C234.086 389.925 235.731 393.753 237.387 397.581C239.021 401.409 240.677 405.237 242.355 409.065C244.01 412.871 245.677 416.678 247.355 420.484C258.161 427.097 308.806 436.097 346.645 433.29C372.355 431.097 404.516 421.194 431 401.194C457.258 380.903 476.29 353.516 479.29 310.161C480.645 283.516 475.742 254.742 452.548 228.742C428.709 203.065 388.451 181.258 305.709 176.161C309.935 162.742 313.709 150.387 317.709 137.903C367.193 139.645 411.193 143.194 448.709 148.065C451.645 134.645 453.258 121.516 456.355 108.839V108.807Z" fill="#E4002B"/>
</g>
<defs>
<clipPath id="clip0_8_16051">
<rect width="500" height="500" fill="white"/>
</clipPath>
</defs>
</svg>
