<svg width="500" height="179" viewBox="0 0 500 179" fill="none" xmlns="http://www.w3.org/2000/svg">
<path d="M122.312 40.4038V3.88818H0V174.314H36.7079V113.455H110.083V76.9397H36.7079V40.4038H122.312Z" fill="#0A6DE6"/>
<path d="M170.438 3.88818H133.75V174.314H170.438V3.88818Z" fill="#0A6DE6"/>
<path d="M307.98 125.828C300.553 132.834 291.228 137.524 281.156 139.321C271.084 141.117 260.704 139.942 251.294 135.94C241.885 131.938 233.857 125.283 228.201 116.796C222.544 108.308 219.505 98.3599 219.459 88.1752C219.413 77.9906 222.361 68.0148 227.941 59.4772C233.52 50.9396 241.487 44.2133 250.86 40.1266C260.233 36.0399 270.602 34.7715 280.69 36.4777C290.778 38.1839 300.145 42.7902 307.635 49.7292C311.984 38.3699 318.276 27.8459 326.232 18.6231C313.15 8.4598 297.457 2.16783 280.95 0.467414C264.442 -1.233 247.787 1.72679 232.891 9.00807C217.995 16.2894 205.459 27.5978 196.719 41.6393C187.978 55.6807 183.387 71.8876 183.469 88.4054C183.552 104.923 188.305 121.084 197.185 135.038C206.065 148.993 218.712 160.177 233.681 167.31C248.649 174.444 265.333 177.239 281.822 175.375C298.312 173.512 313.942 167.065 326.922 156.773C318.875 147.613 312.467 137.146 307.98 125.828Z" fill="#0A6DE6"/>
<path d="M406.462 0.093264C388.981 0.0932645 371.892 5.25307 357.357 14.9201C342.822 24.5871 331.494 38.327 324.805 54.4022C318.116 70.4774 316.367 88.166 319.779 105.231C323.191 122.296 331.611 137.97 343.973 150.272C356.336 162.574 372.086 170.95 389.232 174.342C406.378 177.734 424.149 175.989 440.299 169.328C456.448 162.667 470.25 151.389 479.96 136.92C489.669 122.451 494.849 105.441 494.845 88.0418C494.845 76.4903 492.559 65.0522 488.117 54.3804C483.675 43.7089 477.165 34.0126 468.957 25.8456C460.75 17.6786 451.006 11.2008 440.283 6.78218C429.56 2.36355 418.067 0.090613 406.462 0.093264ZM406.462 140.282C396.08 140.286 385.931 137.225 377.297 131.487C368.663 125.75 361.932 117.592 357.957 108.047C353.981 98.5017 352.939 87.9972 354.962 77.8626C356.984 67.7274 361.982 58.4175 369.321 51.1091C376.661 43.8014 386.013 38.8241 396.195 36.8067C406.376 34.7894 416.931 35.8227 426.522 39.7761C436.115 43.7294 444.313 50.425 450.081 59.0165C455.849 67.6076 458.928 77.7086 458.928 88.0418C458.928 101.893 453.401 115.177 443.562 124.974C433.723 134.77 420.379 140.276 406.462 140.282Z" fill="#0A6DE6"/>
<path d="M471.526 162.868C471.522 161.744 471.665 160.625 471.951 159.538C472.225 158.502 472.626 157.506 473.148 156.57C473.649 155.67 474.263 154.836 474.973 154.088C475.685 153.355 476.49 152.718 477.366 152.19C478.716 151.387 480.216 150.866 481.774 150.657C483.332 150.449 484.917 150.559 486.431 150.979C487.415 151.257 488.356 151.664 489.23 152.19C490.104 152.713 490.902 153.351 491.603 154.088C492.327 154.83 492.947 155.665 493.449 156.57C493.971 157.506 494.373 158.502 494.645 159.538C495.213 161.729 495.213 164.028 494.645 166.219C494.373 167.254 493.971 168.25 493.449 169.186C492.953 170.101 492.331 170.943 491.603 171.689C490.892 172.42 490.095 173.064 489.23 173.607C488.356 174.133 487.415 174.54 486.431 174.818C484.392 175.41 482.225 175.41 480.185 174.818C479.194 174.544 478.246 174.136 477.366 173.607C476.498 173.059 475.696 172.416 474.973 171.689C474.257 170.938 473.644 170.096 473.148 169.186C472.626 168.25 472.225 167.254 471.951 166.219C471.664 165.125 471.521 163.998 471.526 162.868ZM473.431 162.868C473.43 164.252 473.699 165.623 474.223 166.905C474.684 168.126 475.372 169.248 476.251 170.216C477.144 171.146 478.212 171.894 479.394 172.416C480.605 172.936 481.909 173.204 483.227 173.204C484.546 173.204 485.85 172.936 487.06 172.416C488.232 171.887 489.292 171.14 490.183 170.216C491.062 169.248 491.75 168.126 492.212 166.905C492.736 165.623 493.004 164.252 493.003 162.868C493.01 161.484 492.741 160.111 492.212 158.831C491.75 157.617 491.062 156.501 490.183 155.541C489.298 154.615 488.236 153.874 487.06 153.361C485.85 152.841 484.546 152.573 483.227 152.573C481.909 152.573 480.605 152.841 479.394 153.361C478.209 153.868 477.139 154.61 476.251 155.541C475.373 156.501 474.684 157.617 474.223 158.831C473.694 160.111 473.425 161.484 473.431 162.868ZM480.875 164.12V169.691H478.522V155.601H483.106C483.851 155.589 484.595 155.677 485.316 155.864C485.922 156.019 486.493 156.286 486.999 156.651C487.464 156.991 487.833 157.443 488.075 157.963C488.328 158.549 488.452 159.182 488.439 159.82C488.451 160.465 488.267 161.097 487.912 161.637C487.498 162.189 486.955 162.633 486.33 162.929C486.678 163.071 487 163.269 487.283 163.514C487.531 163.736 487.743 163.995 487.912 164.281C488.068 164.588 488.184 164.914 488.257 165.25C488.323 165.61 488.357 165.974 488.358 166.34V167.248C488.336 167.639 488.336 168.029 488.358 168.419C488.392 168.737 488.467 169.049 488.581 169.347V169.61H486.188C486.122 169.434 486.074 169.251 486.046 169.065C486.046 168.843 486.046 168.621 486.046 168.399C486.046 168.177 486.046 167.935 486.046 167.733V166.36C486.096 165.727 485.9 165.098 485.499 164.604C484.969 164.176 484.291 163.973 483.613 164.039L480.875 164.12ZM480.875 162H483.45C483.793 161.996 484.134 161.948 484.465 161.859C484.765 161.772 485.052 161.643 485.316 161.475C485.555 161.318 485.751 161.102 485.884 160.849C486.045 160.589 486.123 160.287 486.107 159.982C486.108 159.588 486.032 159.196 485.884 158.831C485.789 158.556 485.612 158.317 485.377 158.144C485.107 157.951 484.794 157.826 484.465 157.782C483.997 157.693 483.521 157.652 483.045 157.66H480.814L480.875 162Z" fill="#0A6DE6"/>
</svg>
