<svg width="500" height="500" viewBox="0 0 500 500" fill="none" xmlns="http://www.w3.org/2000/svg">
<path d="M254.187 140.964C254.187 202.219 204.566 251.928 143.223 251.928C81.9674 251.928 32.2583 202.307 32.2583 140.964C32.2583 79.7092 81.8793 30 143.223 30C204.478 30 254.187 79.7092 254.187 140.964Z" fill="#E11F21"/>
<path fill-rule="evenodd" clip-rule="evenodd" d="M0 252.721C0 252.721 79.3231 294.762 143.399 293.088C183.413 292.03 210.999 284.186 243.434 277.223C275.78 270.172 323.638 260.037 353.957 261.094C381.809 261.976 437.511 277.135 478.935 320.851C478.935 320.851 430.196 279.779 349.815 280.837C349.815 280.837 311.299 281.63 248.898 297.583C173.277 316.797 132.646 312.919 132.646 312.919C132.646 312.919 52.9702 312.742 0 252.721Z" fill="#E11F21"/>
<path fill-rule="evenodd" clip-rule="evenodd" d="M0 304.545C0 304.545 79.3231 346.587 143.399 344.912C183.413 343.854 210.999 336.01 243.434 329.047C275.78 321.996 323.638 311.861 353.957 312.918C381.809 313.8 437.511 328.959 478.935 372.675C478.935 372.675 430.196 331.603 349.815 332.661C349.815 332.661 311.299 333.454 248.898 349.319C173.277 368.533 132.646 364.655 132.646 364.655C132.646 364.655 52.9702 364.478 0 304.545Z" fill="#E11F21"/>
<path d="M9.43066 469.45H22.0342V438.602H54.6448V430.053H22.0342V410.31H56.1432V401.761H9.43066V469.45Z" fill="black"/>
<path d="M62.2244 469.45H74.0347V420.005H62.2244V469.45ZM74.8279 398.676H61.4312V408.988H74.8279V398.676Z" fill="black"/>
<path d="M84.3467 469.45H96.2451V446.976C96.2451 434.548 103.12 426.792 113.784 426.792C115.812 426.792 118.191 426.968 120.395 427.674V419.565C117.839 419.124 116.076 418.86 112.55 418.86C105.764 418.86 98.9774 422.562 95.8045 427.674H95.5401V420.006H84.4348V469.45H84.3467Z" fill="black"/>
<path d="M122.863 467.864C128.239 470.067 134.409 470.596 140.49 470.596C151.948 470.596 162.877 465.749 162.877 455.172C162.877 439.396 135.026 442.304 135.026 432.169C135.026 428.114 140.314 426.175 146.395 426.175C149.128 426.175 156.179 427.409 158.823 428.731L159.88 420.799C155.209 419.741 150.626 418.86 145.161 418.86C132.47 418.86 122.51 423.796 122.51 434.108C122.51 447.945 150.361 447.152 150.361 456.23C150.361 461.606 143.663 463.281 138.287 463.281C134.849 463.281 128.239 462.135 123.568 459.843L122.863 467.864Z" fill="black"/>
<path d="M206.417 420.006H189.406V405.64L177.508 408.548V420.006H163.053V427.409H177.508V456.318C177.508 466.19 185.087 470.685 197.338 470.685C201.128 470.685 204.742 469.891 207.386 469.363V461.607C205.623 462.488 202.979 463.369 199.366 463.369C193.901 463.369 189.406 460.284 189.406 454.556V427.498H206.417V420.006Z" fill="black"/>
<path d="M286.533 402.995C280.451 401.321 273.576 400.616 267.759 400.616C251.895 400.616 239.556 407.05 239.556 419.036C239.556 440.101 277.366 435.87 277.366 451.03C277.366 458.962 267.319 462.047 260.092 462.047C253.658 462.047 246.078 460.108 241.847 458.786L240.613 467.864C246.43 469.274 252.424 470.684 258.593 470.684C276.221 470.684 290.763 464.956 290.763 450.501C290.763 428.203 252.952 431.199 252.952 418.155C252.952 411.104 261.237 409.165 268.376 409.165C274.899 409.165 278.424 410.046 284.858 411.985L286.533 402.995Z" fill="black"/>
<path d="M296.051 444.683C296.051 458.873 309.448 470.595 328.838 470.595C348.14 470.595 361.537 458.873 361.537 444.683C361.537 429.612 348.405 418.771 328.838 418.771C309.184 418.859 296.051 429.7 296.051 444.683ZM308.655 444.683C308.655 435.253 316.058 426.174 328.838 426.174C341.442 426.174 348.845 435.253 348.845 444.683C348.845 453.497 342.676 463.192 328.838 463.192C314.824 463.192 308.655 453.497 308.655 444.683Z" fill="black"/>
<path d="M380.046 396.737H368.147V469.45H380.046V396.737Z" fill="black"/>
<path d="M394.5 431.287C399.26 428.202 406.487 426.263 413.185 426.263C425.084 426.263 429.05 430.67 429.05 439.131C424.379 438.955 421.118 438.955 416.446 438.955C404.195 438.955 386.568 442.833 386.568 455.26C386.568 466.013 396.263 470.684 410.1 470.684C420.941 470.684 427.287 466.101 430.019 463.105H430.284V469.539H441.389C441.125 468.128 440.86 465.484 440.86 459.843V439.308C440.86 425.823 433.457 418.86 415.036 418.86C406.839 418.86 399.788 420.799 393.883 423.531L394.5 431.287ZM429.05 450.237C429.05 457.64 422.88 463.193 411.158 463.193C405.782 463.193 399.171 460.372 399.171 455.172C399.171 446.447 415.036 445.653 421.47 445.653C424.026 445.653 426.494 445.83 429.05 445.83V450.237Z" fill="black"/>
<path d="M450.82 469.45H462.63V446.976C462.63 434.548 469.593 426.792 480.169 426.792C482.196 426.792 484.576 426.968 486.691 427.674V419.565C484.135 419.124 482.461 418.86 478.847 418.86C472.061 418.86 465.274 422.562 462.101 427.674H461.837V420.006H450.731V469.45H450.82Z" fill="black"/>
<path d="M490.217 450.677C495.681 450.677 500 455.084 500 460.636C500 466.277 495.681 470.684 490.128 470.684C484.664 470.684 480.257 466.277 480.257 460.636C480.169 455.084 484.664 450.677 490.217 450.677ZM490.128 452.175C485.722 452.175 482.108 455.965 482.108 460.636C482.108 465.396 485.722 469.097 490.128 469.097C494.535 469.185 498.149 465.396 498.149 460.636C498.149 455.877 494.623 452.175 490.128 452.175ZM488.278 466.453H486.515V455.26C487.396 455.172 488.366 454.995 489.688 454.995C491.362 454.995 492.508 455.348 493.125 455.877C493.83 456.317 494.183 457.111 494.183 458.168C494.183 459.667 493.213 460.548 491.979 460.901V460.989C492.949 461.165 493.654 462.046 493.83 463.721C494.095 465.484 494.359 466.101 494.535 466.453H492.684C492.42 466.101 492.156 465.043 491.979 463.633C491.715 462.223 491.01 461.694 489.6 461.694H488.366V466.453H488.278ZM488.278 460.284H489.6C491.01 460.284 492.332 459.755 492.332 458.345C492.332 457.375 491.627 456.406 489.6 456.406C488.983 456.406 488.63 456.494 488.278 456.494V460.284Z" fill="black"/>
</svg>
