<svg width="500" height="57" viewBox="0 0 500 57" fill="none" xmlns="http://www.w3.org/2000/svg">
<g clip-path="url(#clip0_8_16068)">
<path d="M287.018 11.9975V0H300.759V56.1936H287.018V11.9975ZM226.518 0H279.532V12.1001H254.614V56.2961H240.976V12.1001H226.518V0ZM500 0V12.1001H475.082V56.2961H461.444V12.1001H446.985V0H500ZM0 0H59.475V12.1001H13.7408V24.0976H52.7071V36.1977H13.7408V56.1936H0V0ZM384.024 0H439.397V12.1001H397.765V22.1493H431.911V34.2494H397.765V44.2986H440.115V56.3987H384.024V0ZM373.462 15.8942V56.1936H359.721V15.8942C359.721 13.7408 358.08 12.1001 355.927 12.1001H325.164V56.2961H311.423V0H357.568C366.284 0 373.462 7.17801 373.462 15.8942ZM205.394 0H158.532V56.1936H172.272V36.1977H203.035C204.676 36.3002 206.009 37.6333 206.009 39.274V56.2961H219.75V39.0689C219.75 36.0952 218.109 33.5316 215.648 32.096C218.622 29.3273 220.468 25.3281 220.468 21.0213V15.0738C220.57 6.76784 213.802 0 205.394 0ZM206.829 21.0213C206.829 22.662 205.496 24.0976 203.753 24.0976H172.272V12.1001H203.753C205.394 12.1001 206.829 13.4331 206.829 15.1764V21.0213Z" fill="black"/>
<path d="M147.867 20.9188V35.4799H125.103V20.9188H147.867ZM96.2882 56.1936H118.95V41.6325H96.2882V56.1936ZM147.867 12.2026C147.867 5.43478 142.433 0 135.665 0H125.205V14.5611H147.867V12.2026ZM96.2882 0V14.5611H118.95V0H96.2882ZM67.3711 20.9188V35.4799H90.0331V20.9188H67.3711ZM125.103 56.1936H135.562C142.33 56.1936 147.765 50.7588 147.765 43.991V41.6325H125.103V56.1936ZM67.3711 43.991C67.3711 50.7588 72.8059 56.1936 79.5737 56.1936H90.0331V41.6325H67.3711V43.991ZM67.3711 12.2026V14.5611H90.0331V0H79.5737C72.8059 0 67.3711 5.43478 67.3711 12.2026Z" fill="#DA291C"/>
</g>
<defs>
<clipPath id="clip0_8_16068">
<rect width="500" height="56.3987" fill="white"/>
</clipPath>
</defs>
</svg>
