<svg width="500" height="284" viewBox="0 0 500 284" fill="none" xmlns="http://www.w3.org/2000/svg">
<path d="M492.778 122.129L491.343 139.074H484.398C473.333 139.074 467.593 147.916 467.593 156.435V194.722H448.056V122.129H466.62L467.037 131.203C470.926 125 477.732 122.129 486.158 122.129H492.778Z" fill="#002856"/>
<path d="M356.99 194.722H337.407V156.343C337.407 148.287 336.666 138.195 325.416 138.195C314.537 138.195 310.185 146.065 310.185 155.185V194.676H290.602V122.13H308.796L309.213 131.389C313.102 125.185 320.37 120.324 331.065 120.324C350.833 120.324 357.037 134.445 357.037 149.074L356.99 194.722Z" fill="#002856"/>
<path d="M282.037 177.778L280.648 194.305C276.111 195.509 271.435 196.111 266.713 196.018C248.24 196.018 242.87 187.546 242.87 170.509V101.667H262.5V122.129H281.99L280.648 139.074H262.5V168.981C262.5 175.833 264.352 179.491 271.389 179.491C275 179.537 278.611 178.935 282.037 177.778Z" fill="#002856"/>
<path d="M236.482 122.129L234.954 139.074H229.63C218.611 139.074 213.102 147.916 213.102 156.435V194.722H193.519V122.129H212.037L212.407 131.203C216.343 125.046 223.148 122.129 231.574 122.129H236.482Z" fill="#002856"/>
<path d="M105.047 186.666C91.7597 193.796 78.4726 197.87 60.9263 197.361C28.4263 196.389 4.9541 176.157 4.9541 142.083C4.9541 108.148 28.6578 86.435 60.9726 85.9257C77.3615 85.6942 91.9911 89.8146 103.473 99.9535L89.63 113.889C82.5467 107.824 72.13 104.305 59.63 104.861C39.306 105.787 27.0374 120.602 26.7597 140.879C26.4819 162.87 40.0004 178.055 61.1115 178.611C71.0652 178.842 78.1486 177.546 84.306 174.768V152.315H62.3615L63.843 133.842H105L105.047 186.666Z" fill="#002856"/>
<path d="M439.305 165.371H385.555C387.083 174.63 394.398 180.232 403.472 180.509C412.314 180.741 417.222 178.102 423.703 171.528L436.481 181.204C427.407 192.408 416.481 196.482 404.027 196.482C382.176 196.482 365.833 181.204 365.833 158.426C365.833 135.648 382.129 120.371 403.24 120.371C426.527 120.371 439.259 134.491 439.259 159.491L439.305 165.371ZM419.676 150.139C419.074 140.972 412.222 135.185 402.731 135.556C393.287 135.926 386.852 142.13 385.555 150.139H419.676Z" fill="#002856"/>
<path d="M181.157 147.176V194.722H163.842L163.426 187.546C158.148 194.12 149.537 196.481 140.648 196.481C127.314 196.481 114.722 189.907 114.444 174.583C114.074 150.509 141.574 148.796 158.842 148.796H162.315V147.824C162.315 139.861 157.037 135.555 147.129 135.555C139.907 135.602 133.009 138.333 127.731 143.287L116.435 131.805C125.509 124.259 136.99 120.185 148.75 120.37C171.25 120.37 181.157 130.741 181.157 147.176ZM162.315 163.055H159.583C150.324 163.055 134.027 163.518 134.074 173.241C134.166 186.944 162.315 182.546 162.315 166.065V163.055Z" fill="#002856"/>
<path d="M477.5 186.25C477.639 181.852 481.296 178.426 485.648 178.565C490.046 178.704 493.472 182.361 493.333 186.713C493.194 191.019 489.676 194.398 485.417 194.398C481.018 194.398 477.5 190.833 477.5 186.482C477.5 186.435 477.5 186.343 477.5 186.25ZM485.417 196.065C490.787 195.972 495.139 191.574 495.046 186.157C494.954 180.787 490.555 176.435 485.139 176.528C479.815 176.62 475.509 180.926 475.509 186.25C475.463 191.62 479.815 196.019 485.185 196.065C485.278 196.065 485.37 196.065 485.417 196.065ZM483.333 187.037H485.324L488.287 191.898H490.185L487.037 186.944C488.704 186.759 489.907 185.833 489.907 183.843C489.907 181.62 488.611 180.648 485.926 180.648H481.667V191.898H483.38L483.333 187.037ZM483.333 185.602V182.13H485.648C486.852 182.13 488.102 182.361 488.102 183.796C488.102 185.509 486.805 185.648 485.37 185.648L483.333 185.602Z" fill="#002856"/>
</svg>
