<svg width="500" height="196" viewBox="0 0 500 196" fill="none" xmlns="http://www.w3.org/2000/svg">
<g clip-path="url(#clip0_7_16028)">
<mask id="mask0_7_16028" style="mask-type:luminance" maskUnits="userSpaceOnUse" x="0" y="0" width="500" height="196">
<path d="M0 0H499.746V195.725H0V0Z" fill="white"/>
</mask>
<g mask="url(#mask0_7_16028)">
<path d="M0 102.371C0 45.3908 41.5498 0 100.902 0C141.182 0 180.127 22.1777 186.573 60.0534H154.576C145.524 60.0534 141.917 56.7134 137.275 52.0708C131.864 46.9272 128.257 43.5872 121.042 40.7482C115.331 38.4102 109.152 37.1409 101.403 37.1409C65.2639 37.1409 44.8898 64.1951 44.8898 97.996C44.8898 135.905 68.3701 159.886 97.7956 159.886C122.077 159.886 139.613 145.691 143.22 126.62H120.24C108.918 126.62 102.204 121.71 102.204 109.352V94.8898H165.197C182.231 94.8898 191.249 102.104 191.249 118.871V190.314H159.519V161.957C144.021 185.671 120.274 195.725 91.3494 195.725C45.6914 195.725 0 159.352 0 102.371Z" fill="#0400F5"/>
<path fill-rule="evenodd" clip-rule="evenodd" d="M340.781 120.975C340.781 124.85 340.548 132.565 339.779 135.404H241.95C244.556 156.046 260.554 166.099 277.588 166.099C284.803 166.099 292.552 164.028 298.497 160.154C303.874 156.547 308.016 153.708 313.193 153.708C318.337 153.708 322.211 155.511 326.62 158.584C328.924 160.154 330.995 161.69 334.068 164.262C322.478 184.369 298.497 195.725 273.447 195.725C233.968 195.725 203.507 168.637 203.507 126.086C203.507 83.5339 235.504 53.6408 274.215 53.6408C312.926 53.6408 340.781 80.1939 340.781 120.942V120.975ZM302.071 109.586C302.071 92.8192 289.679 81.7637 273.413 81.7637C257.147 81.7637 245.29 92.5854 242.451 109.853H302.071V109.586ZM353.306 190.281V57.749H366.199C377.288 57.749 382.966 60.3542 386.84 66.8005C388.41 69.3723 389.445 71.6769 392.518 71.6769C394.589 71.6769 395.892 70.3743 400.768 66.2661C409.819 58.25 420.641 53.6074 436.139 53.6074C466.065 53.6074 485.17 70.6415 485.17 106.747V190.281H465.063C452.137 190.548 446.727 183.835 446.727 172.245V111.122C446.727 92.2848 436.406 84.8031 421.409 84.8031C402.839 84.8031 391.75 98.731 391.75 121.176V190.281H353.306ZM487.508 53.6408V55.6782H484.502V65.7317H482.198V55.6782H479.258V53.6408H487.508ZM489.178 65.7317V53.6408H492.351L494.422 61.5567L496.526 53.6408H499.733V65.7317H497.829V56.246H497.762L495.324 65.7317H493.587L491.149 56.246H491.115V65.7317H489.178Z" fill="#0400F5"/>
</g>
</g>
<defs>
<clipPath id="clip0_7_16028">
<rect width="500" height="195.725" fill="white"/>
</clipPath>
</defs>
</svg>
