<svg width="500" height="209" viewBox="0 0 500 209" fill="none" xmlns="http://www.w3.org/2000/svg">
<g clip-path="url(#clip0_7_16029)">
<path d="M160.638 38.5859H10.9514V10.845H160.638V38.5859ZM171.333 0.133789H0.250977V49.2701H171.333V0.133789Z" fill="#00B188"/>
<path d="M10.9512 130.513H0.256836V81.3633H10.9512V100.779H30.0586V81.3633H40.753V130.513H30.0586V110.152H10.9512V130.513Z" fill="#040404"/>
<path d="M57.051 108.819H69.7893C69.552 105.206 68.0606 102.687 63.8913 102.687C60.7457 102.687 57.9933 104.026 57.051 108.819ZM65.1489 131.147C54.2986 131.147 46.9092 124.307 46.9092 113.07C46.9092 102.138 54.1427 94.593 63.7354 94.593C74.1925 94.593 79.382 101.589 79.382 112.046V115.978H57.051C58.312 121.398 62.5558 122.812 66.803 122.812C70.4978 122.812 73.1688 122.029 76.4703 119.981H76.8669V128.079C74.0365 130.127 70.0232 131.147 65.1489 131.147Z" fill="#040404"/>
<path d="M107.218 109.904L101.713 130.5H92.3574L81.6631 95.9251V95.5319H91.8863L97.7029 116.209L103.208 95.5319H111.543L117.126 116.209L123.024 95.5319H132.854V95.9251L122.159 130.5H112.8L107.218 109.904Z" fill="#040404"/>
<path d="M150.062 131.056C141.571 131.056 138.11 127.676 138.11 119.738V81.1295H148.489V119.026C148.489 121.463 149.432 122.327 151.476 122.327C152.184 122.327 153.208 122.093 153.835 121.856H153.994V130.425C153.13 130.737 151.635 131.052 150.062 131.052" fill="#040404"/>
<path d="M167.147 108.819H179.885C179.648 105.206 178.156 102.687 173.987 102.687C170.845 102.687 168.089 104.026 167.147 108.819ZM175.245 131.147C164.394 131.147 157.005 124.307 157.005 113.07C157.005 102.138 164.238 94.593 173.831 94.593C184.288 94.593 189.478 101.589 189.478 112.046V115.978H167.147C168.404 121.398 172.652 122.812 176.895 122.812C180.593 122.812 183.264 122.029 186.569 119.981H186.963V128.079C184.132 130.127 180.122 131.147 175.245 131.147Z" fill="#040404"/>
<path d="M232.228 95.5322H239.932V103.864H232.228V118.094C232.228 121.161 233.407 122.578 236.553 122.578C237.417 122.578 238.519 122.497 239.698 122.104H239.932V130.28C238.597 130.754 236.553 131.3 233.566 131.3C225.15 131.3 221.848 127.449 221.848 118.565V103.864H208.561V118.094C208.561 121.161 209.741 122.578 212.883 122.578C213.751 122.578 214.852 122.497 216.032 122.104H216.266V130.28C214.93 130.754 212.883 131.3 209.9 131.3C201.483 131.3 198.182 127.449 198.182 118.565V103.864H192.833V95.5322H198.182V85.9429H208.561V95.5322H221.848V85.9429H232.228V95.5322Z" fill="#040404"/>
<path d="M274.801 105.294C280.232 105.294 282.821 102.23 282.821 97.8269C282.821 93.2644 280.232 90.2002 274.801 90.2002H268.039V105.294H274.801ZM293.675 97.8269C293.675 108.521 286.519 114.334 275.666 114.334H268.039V130.293H257.352V81.1431H275.666C286.519 81.1431 293.675 86.9597 293.675 97.81" fill="#040404"/>
<path d="M316.563 119.395V116.409C314.99 115.548 312.949 115.233 310.824 115.233C307.444 115.233 305.4 116.487 305.4 119.317C305.4 122.229 307.444 123.486 310.509 123.486C313.417 123.486 315.62 121.992 316.563 119.395ZM316.878 126.944C314.597 129.696 311.22 131.032 307.597 131.032C300.76 131.032 295.174 126.869 295.174 119.473C295.174 112.636 300.76 108.077 308.776 108.077C311.292 108.077 313.891 108.47 316.563 109.253V108.63C316.563 104.853 314.441 103.206 308.861 103.206C305.319 103.206 301.94 104.223 299.028 105.877H298.638V97.542C301.309 95.9726 306.031 94.6337 310.665 94.6337C321.203 94.6337 326.942 99.6639 326.942 108.47V130.401H316.878V126.944Z" fill="#040404"/>
<path d="M332.019 112.887C332.019 101.644 339.964 94.5696 350.343 94.5696C354.038 94.5696 357.495 95.3559 360.092 97.2406V106.125H359.695C357.414 104.396 354.743 103.372 351.679 103.372C346.489 103.372 342.557 106.915 342.557 112.887C342.557 118.86 346.489 122.321 351.679 122.321C354.743 122.321 357.414 121.297 359.695 119.565H360.092V128.449C357.495 130.337 354.038 131.124 350.343 131.124C339.964 131.124 332.019 124.131 332.019 112.887Z" fill="#040404"/>
<path d="M377.034 114.514V130.391H366.658V81.2412H377.034V109.226L387.494 95.3896H399.287V95.7828L386.708 111.663L399.287 129.981V130.374H387.413L377.034 114.497" fill="#040404"/>
<path d="M422.59 119.395V116.409C421.021 115.548 418.974 115.233 416.852 115.233C413.472 115.233 411.428 116.487 411.428 119.317C411.428 122.229 413.472 123.486 416.533 123.486C419.448 123.486 421.648 121.992 422.59 119.395ZM422.906 126.944C420.624 129.696 417.242 131.032 413.628 131.032C406.784 131.032 401.205 126.869 401.205 119.473C401.205 112.636 406.784 108.077 414.811 108.077C417.326 108.077 419.916 108.47 422.59 109.253V108.63C422.59 104.853 420.468 103.206 414.886 103.206C411.35 103.206 407.964 104.223 405.056 105.877H404.663V97.542C407.337 95.9726 412.055 94.6337 416.692 94.6337C427.234 94.6337 432.973 99.6639 432.973 108.47V130.401H422.906V126.944Z" fill="#040404"/>
<path d="M450.521 100.955C452.406 97.1014 455.161 94.9015 459.015 94.9015C460.429 94.9015 461.842 95.2168 462.388 95.532V105.437H461.998C460.819 104.962 459.405 104.65 457.439 104.65C454.216 104.65 451.7 106.538 450.833 110.152V130.279H440.457V95.2981H450.521V100.959" fill="#040404"/>
<path d="M489.841 118.582V107.338C488.113 104.823 485.835 103.725 483.235 103.725C478.679 103.725 475.612 107.03 475.612 113.002C475.612 118.975 478.679 122.199 483.235 122.199C485.835 122.199 488.113 121.097 489.841 118.582ZM490.153 126.839C487.953 129.669 484.493 131.239 479.778 131.239C470.812 131.239 465.073 123.066 465.073 113.002C465.073 102.939 470.812 94.6848 479.778 94.6848C484.337 94.6848 487.638 96.1017 489.841 98.6947V81.3228H500.221V130.439H490.153V126.825" fill="#040404"/>
<path d="M0.375977 146.513H30.7269V152.485H7.21629V167.498H28.5236V173.318H7.21629V189.67H30.7269V195.642H0.375977V146.526" fill="#040404"/>
<path d="M55.6952 160.342C63.4778 160.342 67.803 165.454 67.803 173.86V195.639H61.2779V174.019C61.2779 169.538 58.9967 166.315 54.0444 166.315C49.9565 166.315 46.4957 168.911 45.3161 172.603V195.639H38.791V161.064H45.3161V166.094C47.36 162.871 50.8209 160.356 55.6952 160.356" fill="#040404"/>
<path d="M85.253 160.885H94.1373V166.467H85.253V185.097C85.253 189.026 87.2969 190.365 90.9917 190.365C92.0119 190.365 93.1136 190.209 93.9 189.893H94.1373V195.473C93.1949 195.866 91.856 196.181 90.0493 196.181C81.9481 196.181 78.7279 192.483 78.7279 185.727V166.467H72.752V160.885H78.7279V151.692H85.253V160.885Z" fill="#040404"/>
<path d="M105.048 174.985H122.268C122.034 169.877 119.516 165.949 114.17 165.949C109.218 165.949 105.991 169.643 105.048 174.985ZM115.35 196.371C105.204 196.371 98.2861 189.608 98.2861 178.761C98.2861 167.911 104.733 160.366 114.092 160.366C123.607 160.366 128.559 167.206 128.559 177.345V180.334H104.811C105.52 187.33 110.004 190.71 116.214 190.71C120.068 190.71 122.817 189.846 125.885 187.564H126.122V193.306C123.292 195.506 119.593 196.371 115.35 196.371Z" fill="#040404"/>
<path d="M143.012 166.308C144.507 162.613 147.812 160.413 151.581 160.413C153.08 160.413 154.415 160.647 154.964 160.962V167.406H154.73C153.785 166.938 152.212 166.701 150.639 166.701C147.104 166.701 144.114 169.057 143.012 172.989V195.55H136.487V160.976H143.012V166.321" fill="#040404"/>
<path d="M175.824 190.442C182.271 190.442 186.047 185.334 186.047 178.335C186.047 171.42 182.271 166.234 175.824 166.234C172.285 166.234 168.984 168.355 167.255 171.732V185.022C168.984 188.398 172.285 190.442 175.824 190.442ZM176.926 160.336C187.223 160.336 192.728 168.749 192.728 178.335C192.728 187.931 187.223 196.34 176.926 196.34C172.678 196.34 169.062 194.141 167.255 191.778V208.919H160.727V161.058H167.255V164.986C169.062 162.549 172.678 160.349 176.926 160.349" fill="#040404"/>
<path d="M207.008 166.308C208.5 162.613 211.805 160.413 215.578 160.413C217.072 160.413 218.408 160.647 218.957 160.962V167.406H218.723C217.781 166.938 216.208 166.701 214.635 166.701C211.096 166.701 208.11 169.057 207.008 172.989V195.55H200.483V160.976H207.008V166.321" fill="#040404"/>
<path d="M228.431 147.055C230.712 147.055 232.597 148.861 232.597 151.143C232.597 153.424 230.712 155.23 228.431 155.23C226.231 155.23 224.262 153.424 224.262 151.143C224.262 148.861 226.231 147.055 228.431 147.055Z" fill="#040404"/>
<path d="M225.177 195.595H231.707V160.993H225.177V195.595Z" fill="#040404"/>
<path d="M255.006 175.257C259.959 176.826 265.46 178.87 265.46 185.473C265.46 192.551 259.643 196.167 252.176 196.167C247.614 196.167 243.054 195.066 240.458 193.022V186.812H240.773C243.685 189.483 248.007 190.663 252.095 190.663C255.789 190.663 259.094 189.246 259.094 186.26C259.094 183.195 256.345 182.487 250.915 180.68C246.041 179.107 240.617 177.297 240.617 170.776C240.617 164.091 246.119 160.163 253.118 160.163C257.206 160.163 260.823 161.027 263.731 162.993V169.284H263.497C260.67 167.003 257.362 165.664 253.274 165.664C249.186 165.664 246.905 167.474 246.905 169.911C246.905 172.664 249.42 173.447 255.006 175.257Z" fill="#040404"/>
<path d="M277.785 174.985H295.001C294.767 169.877 292.252 165.949 286.903 165.949C281.951 165.949 278.727 169.643 277.785 174.985ZM288.083 196.371C277.941 196.371 271.022 189.608 271.022 178.761C271.022 167.911 277.47 160.366 286.825 160.366C296.343 160.366 301.292 167.206 301.292 177.345V180.334H277.548C278.256 187.33 282.737 190.71 288.947 190.71C292.804 190.71 295.553 189.846 298.618 187.564H298.855V193.306C296.028 195.506 292.33 196.371 288.083 196.371Z" fill="#040404"/>
</g>
<defs>
<clipPath id="clip0_7_16029">
<rect width="500" height="208.818" fill="white"/>
</clipPath>
</defs>
</svg>
