<svg width="500" height="201" viewBox="0 0 500 201" fill="none" xmlns="http://www.w3.org/2000/svg">
<g clip-path="url(#clip0_8_16037)">
<path d="M0 186.608H97.2165V200.525H0V186.608Z" fill="#1F70C1"/>
<path d="M0 159.915H97.2165V173.881H0V159.915Z" fill="#1F70C1"/>
<path d="M27.7339 133.271H69.4334V147.237H27.7339V133.271Z" fill="#1F70C1"/>
<path d="M27.7339 106.626H69.4334V120.592H27.7339V106.626Z" fill="#1F70C1"/>
<path d="M27.7339 79.9819H69.4334V93.9479H27.7339V79.9819Z" fill="#1F70C1"/>
<path d="M27.7339 53.2886H69.4334V67.2546H27.7339V53.2886Z" fill="#1F70C1"/>
<path d="M97.2165 26.644H0V40.61H97.2165V26.644Z" fill="#1F70C1"/>
<path d="M97.2165 0H0V13.966H97.2165V0Z" fill="#1F70C1"/>
<path d="M111.083 173.881H260.598C263.123 169.572 265.005 164.867 266.145 159.915H111.083V173.881Z" fill="#1F70C1"/>
<path d="M248.96 106.626H138.867V120.592H260.599C257.429 115.243 253.516 110.539 248.96 106.626Z" fill="#1F70C1"/>
<path d="M138.867 79.9819V93.9479H248.96C253.616 90.0354 257.528 85.3304 260.599 79.9819H138.867Z" fill="#1F70C1"/>
<path d="M260.599 26.644H111.083V40.61H266.145C264.857 35.6575 262.976 30.953 260.599 26.644Z" fill="#1F70C1"/>
<path d="M214.639 0H111.083V13.966H250.346C241.036 5.3485 228.407 0 214.639 0Z" fill="#1F70C1"/>
<path d="M180.517 53.2886H138.867V67.2546H180.517V53.2886Z" fill="#1F70C1"/>
<path d="M222.216 67.2546H265.798C267.036 62.7976 267.68 58.0926 267.68 53.2886H222.216V67.2546Z" fill="#1F70C1"/>
<path d="M138.867 133.271H180.517V147.237H138.867V133.271Z" fill="#1F70C1"/>
<path d="M222.216 133.271V147.237H267.68C267.68 142.433 267.036 137.728 265.798 133.271H222.216Z" fill="#1F70C1"/>
<path d="M111.083 200.426L214.639 200.574C228.506 200.574 241.036 195.226 250.396 186.608H111.083V200.426Z" fill="#1F70C1"/>
<path d="M277.784 186.608H347.217V200.525H277.784V186.608Z" fill="#1F70C1"/>
<path d="M277.784 159.915H347.217V173.881H277.784V159.915Z" fill="#1F70C1"/>
<path d="M305.517 133.271H347.217V147.237H305.517V133.271Z" fill="#1F70C1"/>
<path d="M305.517 106.626H347.217V120.592H305.517V106.626Z" fill="#1F70C1"/>
<path d="M366.532 26.644H277.784V40.61H371.335L366.532 26.644Z" fill="#1F70C1"/>
<path d="M357.32 0H277.784V13.966H362.124L357.32 0Z" fill="#1F70C1"/>
<path d="M430.517 186.608H500V200.525H430.517V186.608Z" fill="#1F70C1"/>
<path d="M430.517 159.915H500V173.881H430.517V159.915Z" fill="#1F70C1"/>
<path d="M430.517 133.271H472.217V147.237H430.517V133.271Z" fill="#1F70C1"/>
<path d="M430.517 106.626H472.217V120.592H430.517V106.626Z" fill="#1F70C1"/>
<path d="M430.517 93.9479H472.217V79.9819H430.517H392.78L388.867 91.2739L384.955 79.9819H347.217H305.517V93.9479H347.217V81.1209L351.625 93.9479H426.11L430.517 81.1209V93.9479Z" fill="#1F70C1"/>
<path d="M472.216 53.2886H401.991L397.187 67.2546H472.216V53.2886Z" fill="#1F70C1"/>
<path d="M420.464 0L415.66 13.966H500V0H420.464Z" fill="#1F70C1"/>
<path d="M388.867 200.426L393.671 186.608H384.063L388.867 200.426Z" fill="#1F70C1"/>
<path d="M379.656 173.881H398.079L403.031 159.915H374.753L379.656 173.881Z" fill="#1F70C1"/>
<path d="M370.295 147.237H407.439L412.342 133.271H365.392L370.295 147.237Z" fill="#1F70C1"/>
<path d="M360.985 120.592H416.799L421.553 106.626H356.181L360.985 120.592Z" fill="#1F70C1"/>
<path d="M305.517 67.2546H380.547L375.743 53.2886H305.517V67.2546Z" fill="#1F70C1"/>
<path d="M406.448 40.61H500V26.644H411.203L406.448 40.61Z" fill="#1F70C1"/>
</g>
<defs>
<clipPath id="clip0_8_16037">
<rect width="500" height="200.574" fill="white"/>
</clipPath>
</defs>
</svg>
