<svg width="500" height="194" viewBox="0 0 500 194" fill="none" xmlns="http://www.w3.org/2000/svg">
<g clip-path="url(#clip0_7_16025)">
<path d="M0 2.63965C0.382104 2.63965 0.746839 2.67439 1.12894 2.67439C12.4705 2.67439 23.812 2.67439 35.1535 2.67439C35.9351 2.67439 36.1783 2.86544 36.1783 3.68175C36.1435 15.1101 36.1435 26.5211 36.1783 37.9495C36.1783 38.7658 35.9351 38.9395 35.1535 38.9395C23.4299 38.9221 11.7236 38.9395 0 38.9395V2.63965Z" fill="#3BBEEF"/>
<path d="M89.2561 79.5468C90.9582 77.4626 92.3998 75.4653 94.0845 73.6937C101.866 65.5132 111.279 60.3896 122.482 58.8438C134.014 57.2459 145.304 58.3575 156.003 63.1511C167.466 68.2748 175.247 77.0111 180.006 88.5089C182.368 94.2057 183.688 100.163 184.383 106.277C184.834 110.219 184.921 114.179 184.921 118.139C184.921 142.108 184.921 166.076 184.921 190.044C184.921 190.843 184.782 191.104 183.896 191.104C173.024 191.069 162.134 191.069 151.261 191.104C150.48 191.104 150.271 190.913 150.271 190.114C150.288 167.57 150.288 145.008 150.271 122.447C150.271 117.479 149.837 112.581 148.395 107.805C146.641 101.969 143.758 96.8631 138.721 93.181C135.195 90.6105 131.201 89.1515 126.928 88.4742C122.048 87.71 117.167 87.571 112.391 88.9605C102.039 91.9826 95.0745 98.5826 91.8093 108.934C90.1766 114.162 89.4993 119.546 89.4993 125C89.4819 146.693 89.4993 168.369 89.4993 190.062C89.4993 211.755 89.1172 191.208 88.3182 191.208C77.6367 191.208 66.9725 191.208 56.291 191.208C55.5615 191.208 55.3184 191.069 55.3184 190.27C55.3357 147.457 55.3357 104.627 55.3184 61.7964C55.3184 61.1017 55.4573 60.8759 56.2041 60.8759C66.903 60.9106 77.6193 60.9106 88.3182 60.8759C89.0477 60.8759 89.2214 61.0843 89.2214 61.779C89.1866 67.3369 89.2214 72.8774 89.2214 78.4353V79.5295L89.2561 79.5468Z" fill="#0D69B2"/>
<path d="M203.783 78.2791C203.783 55.8913 203.783 33.5209 203.766 11.1331C203.766 10.2994 203.922 10.0215 204.842 10.0215C215.611 10.0562 226.379 10.0562 237.13 10.0215C238.051 10.0215 238.19 10.2994 238.19 11.1331C238.172 27.3551 238.172 43.5771 238.19 59.7992C238.19 61.0323 238.033 60.8934 239.319 60.8934C246.926 60.8934 254.533 60.8934 262.141 60.8934C262.853 60.8934 263.044 61.0671 263.044 61.7965C263.026 70.9844 263.026 80.1896 263.044 89.3775C263.044 90.1069 262.835 90.2633 262.141 90.2633C254.446 90.2285 246.752 90.2633 239.058 90.2285C238.415 90.2285 238.172 90.3327 238.172 91.0622C238.207 107.111 238.172 123.159 238.242 139.207C238.242 142.907 238.45 146.589 239.371 150.219C240.778 155.777 244.512 158.712 250 159.65C254.03 160.345 258.111 160.518 262.193 160.501C262.87 160.501 263.061 160.675 263.061 161.352C263.044 171.443 263.044 181.534 263.061 191.625C263.061 192.354 262.801 192.441 262.175 192.459C256.096 192.476 250.018 192.407 243.973 191.729C236.505 190.913 229.262 189.367 222.645 185.598C215.003 181.239 210.261 174.587 207.5 166.371C205.885 161.526 205.086 156.506 204.53 151.452C203.87 145.373 203.783 139.277 203.8 133.18C203.8 114.874 203.8 96.568 203.8 78.2791H203.783Z" fill="#0D69B2"/>
<path d="M459.827 95.6299V190.01C459.827 190.791 459.445 191.191 458.681 191.191C447.912 191.191 437.161 191.191 426.393 191.208C425.577 191.208 425.403 190.965 425.403 190.183C425.403 127.119 425.403 64.0543 425.403 0.989786C425.403 0.20821 425.594 -0.0175781 426.393 -0.0175781C437.213 0.0171586 448.034 0.0171586 458.854 -0.0175781C459.653 -0.0175781 459.844 0.190842 459.844 0.989786C459.827 32.5307 459.844 64.089 459.844 95.6299H459.827Z" fill="#0D69B2"/>
<path d="M35.2751 125.99V190.097C35.2751 190.826 34.893 191.191 34.1461 191.191C23.4646 191.191 12.8004 191.191 2.1189 191.208C1.28522 191.208 1.00732 191.069 1.00732 190.149C1.04206 147.423 1.04206 104.679 1.00732 61.953C1.00732 61.0499 1.26785 60.8936 2.10153 60.8936C12.8352 60.9283 23.5688 60.9283 34.3024 60.8936C35.1188 60.8936 35.2751 61.1367 35.2751 61.9009C35.2577 83.264 35.2751 104.627 35.2751 126.007V125.99Z" fill="#0D69B2"/>
<path d="M407.322 118.887C406.454 109.473 403.901 100.598 399.368 92.2785C392.229 79.2175 382.017 69.5086 368.244 63.7076C355.165 58.1844 341.583 57.0381 327.689 59.5044C314.402 61.8665 302.852 67.876 293.212 77.2549C281.02 89.1175 274.142 103.637 272.891 120.676C272.006 132.677 273.812 144.245 278.866 155.221C284.598 167.657 293.23 177.505 305.145 184.366C314.819 189.923 325.24 193.067 336.408 193.71C346.759 194.3 356.902 193.241 366.785 190.045C379.481 185.946 390.093 178.703 398.951 168.803C399.437 168.265 399.177 168.074 398.76 167.761C390.944 161.839 383.146 155.916 375.347 149.959C374.826 149.559 374.548 149.525 374.097 150.063C372.36 152.095 370.328 153.815 368.14 155.343C356.711 163.367 344.136 165.712 330.537 162.846C323.069 161.266 316.851 157.549 311.988 151.626C308.931 147.909 306.933 143.637 305.579 139.051C305.266 137.975 305.231 137.992 306.326 137.992H406.141C406.437 137.992 406.715 137.975 407.01 137.992C407.427 138.027 407.635 137.923 407.618 137.436C407.514 131.253 407.861 125.07 407.288 118.887H407.322ZM373.645 113.676H339.968V113.815C328.8 113.815 317.632 113.815 306.464 113.833C305.7 113.833 305.474 113.659 305.544 112.877C305.891 108.935 307.402 105.444 309.608 102.231C314.159 95.5959 320.481 91.358 328.158 89.2043C337.276 86.6512 346.36 86.8596 355.235 90.2464C363.242 93.3206 369.373 98.5832 373.003 106.486C373.888 108.414 374.444 110.446 374.635 112.565C374.739 113.659 374.722 113.659 373.645 113.659V113.676Z" fill="#0D69B2"/>
<path d="M487.356 166.44C480.513 166.44 474.781 172.189 474.781 179.067C474.781 185.91 480.461 191.642 487.356 191.694C494.147 191.746 499.983 185.945 500 179.119C500 172.224 494.251 166.44 487.356 166.44ZM487.356 189.488C481.329 189.558 476.865 185.129 476.813 179.102C476.779 173.179 481.173 168.716 487.095 168.646C493.365 168.594 497.777 173.04 497.673 179.588C497.603 184.382 493.921 189.401 487.339 189.471L487.356 189.488Z" fill="#0D69B2"/>
<path d="M490.291 179.97C491.82 179.536 492.827 178.615 493.088 177C493.383 175.263 493.053 173.7 491.542 172.606C490.778 172.05 489.875 171.807 488.937 171.79C487.026 171.755 485.116 171.79 483.205 171.737C482.545 171.72 482.319 171.894 482.319 172.589C482.354 176.496 482.319 180.387 482.319 184.295C482.319 188.203 482.319 186.275 484.317 186.275C484.872 186.275 485.064 186.136 485.046 185.545C485.011 184.052 485.029 182.541 485.046 181.03C485.046 180.786 484.925 180.491 485.255 180.352C485.828 180.074 487.026 180.439 487.356 180.995C488.311 182.541 489.249 184.104 490.205 185.65C490.361 185.91 490.448 186.257 490.865 186.257C491.663 186.257 492.445 186.257 493.4 186.257C492.132 184.138 490.934 182.176 489.736 180.161C489.961 180.092 490.118 180.022 490.274 179.97H490.291ZM487.078 178.042C485.064 178.042 485.046 178.042 485.081 176.114C485.081 175.402 484.768 174.482 485.22 174.03C485.671 173.579 486.592 173.926 487.304 173.891C487.877 173.874 488.45 173.856 489.024 174.03C490.048 174.325 490.448 174.812 490.465 175.889C490.482 176.965 490.048 177.556 489.058 177.886C488.381 178.112 487.686 177.973 487.096 178.025L487.078 178.042Z" fill="#0D69B2"/>
</g>
<defs>
<clipPath id="clip0_7_16025">
<rect width="500" height="193.848" fill="white"/>
</clipPath>
</defs>
</svg>
