<svg width="500" height="149" viewBox="0 0 500 149" fill="none" xmlns="http://www.w3.org/2000/svg">
<path fill-rule="evenodd" clip-rule="evenodd" d="M489.748 143.084C488.137 143.078 486.594 142.435 485.456 141.296C484.317 140.157 483.674 138.615 483.668 137.004C483.738 135.439 484.409 133.961 485.542 132.878C486.674 131.795 488.181 131.19 489.748 131.19C491.315 131.19 492.821 131.795 493.954 132.878C495.086 133.961 495.758 135.439 495.828 137.004C495.828 140.335 493.109 143.084 489.748 143.084ZM489.748 129.816C485.763 129.816 482.529 133.013 482.529 137.004C482.529 141.001 485.763 144.126 489.748 144.126C493.745 144.126 496.972 140.995 496.972 137.004C496.972 133.013 493.739 129.816 489.748 129.816ZM488.386 136.465V134.158H489.718C490.48 134.158 491.334 134.387 491.334 135.266C491.334 136.248 490.384 136.465 489.56 136.465H488.386ZM492.788 135.291C492.788 133.558 491.305 132.917 489.785 132.917H486.938V141.02H488.385V137.635H489.433L491.335 141.026H493.109L490.916 137.477C492.068 137.23 492.788 136.458 492.788 135.291ZM447.327 32.5537C449.291 32.5934 451.242 32.241 453.068 31.5172C454.893 30.7934 456.556 29.7126 457.959 28.3383C459.361 26.964 460.476 25.3238 461.237 23.5135C461.997 21.7032 462.39 19.7593 462.39 17.7956C462.39 15.8319 461.999 13.8877 461.239 12.0771C460.479 10.2664 459.365 8.62569 457.963 7.25081C456.561 5.87594 454.898 4.79476 453.073 4.07022C451.248 3.34569 449.297 2.99232 447.333 3.03122C443.47 3.10855 439.79 4.69773 437.085 7.45757C434.38 10.2174 432.865 13.9279 432.865 17.7925C432.865 21.657 434.38 25.3675 437.085 28.1274C439.79 30.8872 443.464 32.4764 447.327 32.5537ZM407.722 45.3009V66.9566H435.107V143.091H459.542V66.9566H486.932V45.3009H407.722ZM194.538 32.5537C196.477 32.5542 198.397 32.1729 200.188 31.4313C201.98 30.6896 203.607 29.6022 204.978 28.2315C206.349 26.8607 207.437 25.2334 208.179 23.4422C208.921 21.6511 209.303 19.7313 209.303 17.7925C209.303 15.8537 208.921 13.9339 208.179 12.1427C207.437 10.3516 206.349 8.72424 204.978 7.35349C203.607 5.98274 201.98 4.8953 200.188 4.15369C198.397 3.41209 196.477 3.03073 194.538 3.03122C190.674 3.10855 186.995 4.69773 184.29 7.45757C181.585 10.2174 180.07 13.9279 180.07 17.7925C180.07 21.657 181.585 25.3675 184.29 28.1274C186.995 30.8872 190.674 32.4764 194.538 32.5537ZM154.927 66.9507H182.318V143.091H206.747V66.9566H234.144V45.3009H154.933L154.927 66.9507ZM366.161 143.091H390.602V45.3617H366.167L366.161 143.091ZM316.721 99.1132C316.721 112.145 309.381 125.577 293.915 125.577C278.236 125.577 275.59 111.128 275.59 99.519V45.3617H251.154V106.441C251.154 126.401 261.74 145.943 287.199 145.943C301.648 145.943 313.257 137.186 317.532 127.412H317.938V143.091H341.15V45.3617H316.72L316.721 99.1132ZM106.444 42.5094C91.9887 42.5094 80.3857 51.2662 76.1102 61.0404H75.6982V45.3617H52.4923V143.091H76.9216V89.3391C76.9216 76.307 84.2552 62.869 99.7279 62.869C115.4 62.869 118.053 77.3245 118.053 88.9337V143.091H142.482V81.9997C142.482 62.0517 131.903 42.5094 106.444 42.5094ZM3.02832 143.091H27.4576V45.3617H3.02832V143.091Z" fill="#0077C5"/>
</svg>
