<svg width="500" height="137" viewBox="0 0 500 137" fill="none" xmlns="http://www.w3.org/2000/svg">
<g clip-path="url(#clip0_8_16061)">
<path fill-rule="evenodd" clip-rule="evenodd" d="M245.326 109.546H248.387L264.154 131.304V109.546H266.886V135.945H264.318L248.025 113.496V135.945H245.326V109.546ZM273.634 109.546H291.079V112.212H276.399V120.968H290.717V123.601H276.399V133.41H291.211V135.978H273.634V109.546ZM295.326 112.245V109.612H318.005V112.245H308.064V136.011H305.201V112.245H295.326ZM321.395 109.546H324.325L331.27 131.37L338.38 109.546H340.816L347.893 131.37L354.904 109.546H357.636L349.144 136.175H346.642L339.467 114.121L332.39 136.175H329.954L321.395 109.546ZM360.138 122.746C360.138 113.364 364.944 109.118 373.403 109.118C381.896 109.118 386.767 113.364 386.767 122.746C386.767 132.193 381.896 136.373 373.403 136.373C364.944 136.439 360.138 132.193 360.138 122.746ZM383.904 122.811C383.904 115.636 380.579 111.817 373.403 111.817C366.261 111.817 362.969 115.636 362.969 122.811C362.969 129.954 366.261 133.871 373.403 133.871C380.579 133.805 383.904 129.954 383.904 122.811ZM403.094 125.181H395.194V135.945H392.396V109.546H403.785C409.908 109.546 412.706 111.982 412.706 117.249C412.706 121.824 410.533 124.49 405.958 125.116L412.343 135.945H409.348L403.094 125.181ZM403.95 122.614C407.702 122.614 410.006 121.495 410.006 117.314C410.006 113.233 407.768 112.179 403.818 112.179H395.194V122.68H403.95V122.614ZM426.827 121.988L421.527 127.749V136.044H418.828V109.612H421.527V124.227L434.891 109.612H438.15L428.703 119.915L439.467 135.978H436.274L426.827 121.988ZM441.771 133.312L443.252 131.139C446.445 133.147 449.506 133.773 452.699 133.773C458.196 133.773 460.566 132.258 460.566 128.638C460.566 124.885 457.439 124.326 452.699 123.503C447.004 122.515 443.186 121.561 443.186 116.195C443.186 111.126 446.445 109.118 452.699 109.118C456.879 109.118 459.809 110.007 461.883 111.488L460.368 113.759C458.459 112.509 455.629 111.686 452.633 111.686C447.893 111.686 445.885 113.002 445.885 116.129C445.885 119.454 448.683 120.079 453.324 121.001C459.118 122.054 463.265 122.877 463.265 128.572C463.265 133.773 459.941 136.373 452.699 136.373C448.749 136.307 445.194 135.517 441.771 133.312Z" fill="black"/>
<path fill-rule="evenodd" clip-rule="evenodd" d="M499.77 0.691244V9.05201C497.136 8.68993 494.207 8.55826 490.948 8.55826C460.27 8.55826 460.961 22.7452 460.961 40.4542V98.0908H452.206V40.4542C452.206 16.9519 453.818 0.36208 490.948 0.36208C494.141 0.36208 497.071 0.493746 499.77 0.691244ZM229.065 39.763V98.0908H220.079V39.6313C220.079 22.8111 220.277 8.62409 189.401 8.62409C158.756 8.62409 159.447 22.8111 159.447 40.5201V98.1567H150.691V40.4542C150.691 16.9519 152.271 0.36208 189.401 0.36208C226.761 0.36208 229.065 17.0178 229.065 39.763ZM245.326 2.43581H253.884V98.0908H245.326V2.43581ZM269.947 2.43581H314.714C336.965 2.43581 347.005 13.4628 347.005 33.081C347.005 52.8308 337.031 64.8453 314.582 64.8453H278.506V98.0579H269.947V2.43581ZM314.878 56.3199C330.382 56.3199 338.019 48.815 338.019 33.5089C338.019 18.3015 329.757 11.0599 314.45 11.0599H278.506V56.3199H314.878ZM357.011 49.9342C357.011 21.6919 365.076 0 401.152 0C438.512 0 439.763 25.0494 439.566 51.5142H365.635C365.833 74.786 371.626 92.1659 401.942 92.1659C418.071 92.1659 425.445 87.788 433.279 82.0276L438.216 88.4793C429.46 94.9638 419.092 100.033 401.942 100.033C364.023 100.033 357.011 78.1435 357.011 49.9342ZM365.833 43.4496H431.073C430.152 24.3252 428.967 8.06452 401.086 8.06452C374.26 8.06452 366.886 22.6136 365.833 43.4496Z" fill="black"/>
<path d="M57.5049 60.5986V2.30371H66.4581V60.8291C66.4581 77.6493 66.3265 91.8363 97.1362 91.8363C127.781 91.8363 127.09 77.6493 127.09 59.9074V2.30371H135.879V59.9074C135.879 83.4097 134.266 100.032 97.1362 100.032C59.7761 100.032 57.5049 83.4097 57.5049 60.5986ZM0.329102 118.861V110.599C1.38243 110.664 2.46867 110.664 3.65366 110.664C34.3317 110.664 33.6405 96.4775 33.6405 78.7685V2.30371H42.3963V78.7685C42.3963 102.238 40.8163 118.861 3.65366 118.861C2.46867 118.861 1.44826 118.861 0.329102 118.861Z" fill="black"/>
<path fill-rule="evenodd" clip-rule="evenodd" d="M480.151 98.552C476.827 98.552 474.127 95.8528 474.127 92.5283C474.127 89.1708 476.827 86.4717 480.151 86.4717C483.509 86.4717 486.208 89.1708 486.208 92.5283C486.208 95.8528 483.509 98.552 480.151 98.552ZM485.451 92.5283C485.451 89.5987 483.081 87.2288 480.151 87.2288C477.254 87.2288 474.884 89.5987 474.884 92.5283C474.884 95.4249 477.254 97.7949 480.151 97.7949C483.081 97.7949 485.451 95.4249 485.451 92.5283ZM480.579 93.2854H478.637V95.9187H477.715V88.9733H480.777C482.521 88.9733 483.212 89.6646 483.212 91.0471C483.212 92.1662 482.719 92.9233 481.567 93.1537L483.147 95.8529H482.192L480.579 93.2854ZM480.777 92.4625C481.764 92.4625 482.225 92.1662 482.225 91.1458C482.225 90.1583 481.665 89.895 480.711 89.895H478.538V92.3966H480.777V92.4625Z" fill="black"/>
</g>
<defs>
<clipPath id="clip0_8_16061">
<rect width="500" height="136.603" fill="white"/>
</clipPath>
</defs>
</svg>
