<svg width="500" height="112" viewBox="0 0 500 112" fill="none" xmlns="http://www.w3.org/2000/svg">
<g clip-path="url(#clip0_8_16049)">
<path d="M149.117 101.417H223.934V110.817H149.117C149.1 110.817 149.067 110.817 149.05 110.817C142.284 110.8 136.834 105.3 136.85 98.5334V0.166717H146.284V98.5334C146.284 98.55 146.284 98.5667 146.284 98.5834C146.3 100.15 147.567 101.417 149.117 101.417ZM105.184 0.166717H93.217L14.4503 100.683C13.8003 101.6 12.6003 101.95 11.567 101.517C10.517 101.183 9.81701 100.183 9.85034 99.0834V0.166717H0.417012V99.0834C0.350346 104.233 3.63368 108.817 8.51701 110.417C9.80035 110.85 11.1503 111.083 12.517 111.083C16.1837 111.083 19.6503 109.4 21.8837 106.483L59.4837 58.4667L100.25 110.8H112.45L65.4837 50.85L105.184 0.166717ZM350.5 110.817H360.934L312.5 7.20005C309.684 1.06672 302.417 -1.59995 296.3 1.21672C293.667 2.43338 291.534 4.55005 290.317 7.20005L241.9 110.833H252.367L298.917 11.25C299.367 10.2834 300.35 9.66672 301.417 9.70005C302.484 9.65005 303.484 10.2667 303.917 11.25L350.5 110.817Z" fill="#41007F"/>
<path d="M388.65 0.166504H499.584V110.817H388.65V0.166504Z" fill="#00A7E1"/>
<path d="M491.267 50.3001H449.333V8.4668H438.9V50.3001H396.967V60.7001H438.9V102.533H449.333V60.7001H491.267V50.3001Z" fill="white"/>
</g>
<defs>
<clipPath id="clip0_8_16049">
<rect width="500" height="111.183" fill="white"/>
</clipPath>
</defs>
</svg>
