<svg width="500" height="138" viewBox="0 0 500 138" fill="none" xmlns="http://www.w3.org/2000/svg">
<g clip-path="url(#clip0_7_16033)">
<mask id="mask0_7_16033" style="mask-type:luminance" maskUnits="userSpaceOnUse" x="-1" y="-1" width="502" height="139">
<path d="M-0.0429688 -0.111115V137.914H500.103V-0.111115" fill="white"/>
</mask>
<g mask="url(#mask0_7_16033)">
<mask id="mask1_7_16033" style="mask-type:luminance" maskUnits="userSpaceOnUse" x="0" y="0" width="500" height="138">
<path d="M0 -3.05176e-05H500V137.789H0V-3.05176e-05Z" fill="white"/>
</mask>
<g mask="url(#mask1_7_16033)">
<mask id="mask2_7_16033" style="mask-type:luminance" maskUnits="userSpaceOnUse" x="-206" y="-186" width="2623" height="3394">
<path d="M-205.656 -185.476H2416.45V3207.84H-205.656V-185.476Z" fill="white"/>
</mask>
<g mask="url(#mask2_7_16033)">
<path d="M238.801 108.963C216.011 108.963 195.562 96.0194 195.562 77.9218C195.562 59.8155 216.011 46.8592 238.963 46.8592C248.942 46.8592 258.261 49.3785 268.394 55.0297L261.251 64.2071C254.756 61.0666 247.108 59.1857 238.963 59.1857C229.315 59.1857 218.175 64.5884 218.175 77.9218C218.175 91.2465 229.152 96.645 238.963 96.645C247.108 96.645 254.923 95.0126 261.573 92.1163L268.728 101.799C260.249 106.332 249.936 108.963 238.801 108.963Z" fill="#104076"/>
<path d="M368.976 108.728C391.919 108.728 412.378 95.7798 412.378 77.6864C412.378 59.5802 391.919 46.6239 368.976 46.6239C346.024 46.6239 325.565 59.5802 325.565 77.6864C325.565 95.7798 346.024 108.728 368.976 108.728ZM389.764 77.6864C389.764 91.0112 378.625 96.4096 368.976 96.4096C359.323 96.4096 348.188 91.0112 348.188 77.6864C348.188 64.3488 359.323 58.9503 368.976 58.9503C378.625 58.9503 389.764 64.3488 389.764 77.6864Z" fill="#104076"/>
<path d="M421.615 107.228H443.051V70.261C443.051 65.2695 446.928 59.3955 453.865 59.3569C458.71 59.3955 463.359 62.7117 463.359 66.9191L463.316 107.228H484.807V65.7751C484.807 54.8582 473.102 45.7451 459.139 45.7451C459.002 45.7451 458.869 45.7622 458.732 45.7665C458.595 45.7622 458.462 45.7451 458.329 45.7451C452.558 45.7451 447.082 47.4289 442.609 50.2481C442.571 50.0896 441.367 46.1264 421.615 46.1264V107.228Z" fill="#104076"/>
<path d="M164.259 107.228H185.257V48.1401H164.259V107.228Z" fill="#104076"/>
<path d="M278.74 107.228H299.747V71.3963C299.747 65.7365 306.392 61.2078 313.547 61.2078C317.044 61.2078 320.334 61.9062 323.098 63.1316V47.5917C320.621 47.2147 317.948 47.009 315.587 47.009C309.957 47.009 304.31 48.6414 299.687 51.3835C299.344 50.6851 296.769 47.3818 278.74 47.3818V107.228Z" fill="#104076"/>
<path d="M124.199 83.6758L124.194 107.232H145.698V64.2242C139.469 70.651 132.283 77.1934 124.199 83.6758Z" fill="#104076"/>
<path d="M145.698 64.2241C169.378 39.794 179.186 17.0862 171.551 6.15642C163.582 -5.25746 138.821 -0.634506 106.726 16.3235C105.291 17.0262 104.019 17.7717 103.08 18.4186C101.529 19.494 102.433 20.2781 103.577 19.8625C104.751 19.4383 106.088 18.9242 107.596 18.183C131.654 6.77338 150.42 4.7254 157.755 12.6903C168.933 24.8197 146.041 64.5712 106.401 93.9756C101.109 97.9002 92.9432 103.646 87.6261 106.838C87.2662 107.06 86.9106 107.279 86.5636 107.502C85.1583 108.423 83.9072 109.28 82.9217 110.051C81.962 110.797 82.1463 111.983 83.8772 111.238C84.9312 110.788 86.2122 110.107 87.5747 109.271C87.8832 109.083 88.1874 108.911 88.5087 108.714C94.4856 105.085 103.359 98.9585 109.421 94.7254C114.636 91.0836 119.563 87.3861 124.199 83.6757C132.283 77.1933 139.468 70.6466 145.698 64.2241Z" fill="#104076"/>
<path d="M40.1414 137.913H61.6452V115.629C67.5236 112.155 73.4747 108.346 79.323 104.357C80.6384 103.453 81.8038 102.553 82.6478 101.782C84.0403 100.509 83.0334 99.854 81.958 100.42C80.8526 101.002 79.5458 101.791 78.1319 102.69C44.9143 123.937 22.4893 130.42 14.2073 119.177C7.01369 109.417 18.8046 90.548 40.1414 69.237V118.701C46.1954 116.645 53.3505 113.367 61.6409 108.757L61.6367 62.866L66.3667 72.9302C71.551 84.0442 80.9597 90.6894 92.922 90.6894C104.88 90.6894 114.289 84.0442 119.473 72.9302L124.203 62.866L124.199 74.5755C131.894 67.1119 138.462 59.6612 143.445 52.4547C144.066 51.5635 144.01 50.8137 143.672 49.9911C140.356 43.0716 133.299 38.303 125.099 38.303C116.988 38.303 109.944 43.0073 106.568 49.8111L97.5707 68.8985C96.6409 70.758 94.9272 71.7906 92.922 71.7906C90.9212 71.7906 89.1988 70.758 88.2691 68.8985L79.2716 49.8111C77.5578 46.3535 74.8929 43.4401 71.6238 41.4092C78.2048 36.1864 84.6015 31.5206 90.8997 27.6989C92.3308 26.8291 93.5047 25.9594 94.4944 25.201C95.467 24.4598 95.287 23.273 93.5518 24.0014C92.4978 24.4426 91.1311 25.1153 89.7643 25.9465C83.329 29.8454 76.7523 33.8343 70.4627 38.1316C69.7001 38.65 68.946 39.1727 68.1919 39.6954C65.8783 38.7957 63.3676 38.303 60.7412 38.303C49.3445 38.303 40.1414 47.5103 40.1414 58.9071V61.7434C9.76433 88.83 -6.18254 115.651 2.1508 127.592C8.26905 136.349 22.7763 134.327 40.1414 126.782V137.913Z" fill="#104076"/>
<path d="M493.02 53.2902H493.8C494.687 53.2902 495.437 52.9689 495.437 52.1377C495.437 51.5464 495.008 50.9552 493.8 50.9552C493.449 50.9552 493.209 50.9809 493.02 51.0066V53.2902ZM493.02 57.022H491.945V50.2825C492.51 50.2054 493.046 50.124 493.856 50.124C494.876 50.124 495.544 50.3382 495.947 50.6338C496.349 50.9295 496.564 51.3836 496.564 52.0263C496.564 52.9132 495.972 53.4488 495.248 53.6673V53.7187C495.84 53.8258 496.242 54.3656 496.375 55.3554C496.538 56.4008 496.696 56.8078 496.804 57.022H495.677C495.518 56.8078 495.355 56.1908 495.223 55.3039C495.064 54.4428 494.631 54.1214 493.77 54.1214H493.02V57.022ZM494.147 48.4059C491.491 48.4059 489.319 50.6853 489.319 53.5045C489.319 56.3751 491.491 58.6287 494.173 58.6287C496.859 58.6587 499.006 56.3751 499.006 53.5302C499.006 50.6853 496.859 48.4059 494.173 48.4059H494.147ZM494.173 47.4633C497.476 47.4633 500.107 50.1497 500.107 53.5045C500.107 56.9149 497.476 59.5713 494.147 59.5713C490.848 59.5713 488.166 56.9149 488.166 53.5045C488.166 50.1497 490.848 47.4633 494.147 47.4633H494.173Z" fill="#104076"/>
</g>
</g>
</g>
</g>
<defs>
<clipPath id="clip0_7_16033">
<rect width="500" height="137.789" fill="white"/>
</clipPath>
</defs>
</svg>
