<svg width="500" height="118" viewBox="0 0 500 118" fill="none" xmlns="http://www.w3.org/2000/svg">
<mask id="mask0_8_16041" style="mask-type:luminance" maskUnits="userSpaceOnUse" x="1" y="0" width="498" height="117">
<path d="M1.3877 116.57H498.525V0.903931H1.3877V116.57Z" fill="white"/>
</mask>
<g mask="url(#mask0_8_16041)">
<path d="M190.936 79.2227L188.025 42.7532H187.905L176.66 71.8721C175.618 74.5851 173.316 76.8085 170.09 76.8085C166.868 76.8085 164.314 74.127 163.522 71.8721L152.525 43.1188H152.407L149.246 79.2227L138.518 79.2148L143.997 27.8064C144.356 24.9677 146.684 21.7357 149.849 21.7357C154.701 21.7357 156.643 24.5745 157.61 27.4132L170.031 58.6279H170.151L182.57 27.4132C183.663 24.5745 185.544 21.7357 190.335 21.7357C193.5 21.7357 195.828 24.9677 196.185 28.4689L201.615 79.2148L190.936 79.2227Z" fill="#231F20"/>
<path d="M207.291 35.7418H217.289V79.2178H207.291V35.7418Z" fill="#231F20"/>
<path d="M443.791 35.7418H453.789V79.2178H443.791V35.7418Z" fill="#231F20"/>
<path d="M222.825 50.9936C222.825 38.2624 227.699 35.2605 235.887 35.2605H246.571C259.509 35.2605 261.19 34.4191 261.105 46.7295L237.674 46.6902C232.883 46.6902 232.161 49.7315 232.161 55.1377V59.8205C232.161 66.1252 233.062 68.5275 237.361 68.5275L261.473 68.5078C261.473 75.8328 261.377 79.6978 252.249 79.6978H235.887C227.699 79.6978 222.825 76.6939 222.825 63.9627V50.9936Z" fill="#231F20"/>
<path d="M304.887 51.414V48.6519C304.887 40.8453 303.006 35.7399 296.005 35.7399H266.951V79.2158H276.042V67.9256H291.952C294.777 67.9256 295.675 69.4296 295.675 73.9924V79.2158H304.767V71.8319C304.767 64.6858 302.514 62.944 299.811 62.2206V62.1026C303.989 60.6597 304.887 57.237 304.887 51.414ZM296.045 52.5562C296.045 55.6761 295.144 57.1191 292.687 57.1191H276.042V46.5484H291.869C294.735 46.5484 296.045 47.2719 296.045 51.1132V52.5562Z" fill="#231F20"/>
<path d="M310.371 50.9936C310.371 38.2624 315.242 35.2605 323.43 35.2605H338.005C346.193 35.2605 351.065 38.2624 351.065 50.9936V63.9627C351.065 76.6939 346.193 79.6978 338.005 79.6978H323.43C315.242 79.6978 310.371 76.6939 310.371 63.9627V50.9936ZM319.705 59.8205C319.705 66.1252 320.607 68.5275 324.905 68.5275H336.533C340.83 68.5275 341.731 66.1252 341.731 59.8205V55.1377C341.731 49.7315 340.83 46.4288 336.039 46.4288H325.396C320.607 46.4288 319.705 49.7315 319.705 55.1377V59.8205Z" fill="#231F20"/>
<path d="M400.019 35.7408H409.105V51.2341H428.269V35.7408H437.357V79.2168H428.269V62.7622H409.105V79.2168H400.019V35.7408Z" fill="#231F20"/>
<path d="M487.8 35.7408H459.705V79.2168H468.793V68.2883H490.173C496.603 68.2883 498.526 60.8395 498.526 54.3579V50.6326C498.526 42.1064 496.438 35.7408 487.8 35.7408ZM489.192 52.854C489.192 55.4372 488.374 57.4778 486.243 57.4778H468.793V46.5494H485.466C488.209 46.5494 489.192 48.2302 489.192 51.1732V52.854Z" fill="#231F20"/>
<path d="M356 51.06C356 38.3288 360.872 35.3269 369.059 35.3269H379.746C392.684 35.3269 394.308 34.4835 394.225 46.796L370.848 46.7547C366.056 46.7547 365.334 49.7979 365.334 55.2022V59.8849C365.334 66.1916 366.236 68.5919 370.534 68.5919L394.648 68.5723C394.648 75.8992 394.553 79.7642 385.424 79.7642H369.059C360.872 79.7642 356 76.7603 356 64.0271V51.06Z" fill="#231F20"/>
<path d="M79.6164 4.35114C74.0312 2.74696 68.1119 1.87803 61.9724 1.87803C28.5992 1.87803 1.54248 27.3837 1.54248 58.8499C1.54248 90.3142 28.5992 115.82 61.9724 115.82C92.6405 115.82 117.953 94.2775 121.86 66.3734L79.6164 4.35114Z" fill="white"/>
<path d="M87.1211 7.13825C79.3439 3.4679 72.1527 1.64748 62.8972 1.48431C29.5338 0.904373 2.03675 26.1289 1.48237 57.8251C1.388 63.3139 2.10556 68.6356 3.5328 73.69L20.7797 49.5113L32.4571 67.7883C32.4571 67.7883 35.9663 71.7673 33.3044 75.7915C33.1393 76.0432 17.4612 97.6996 17.4612 97.6996C28.2894 109.045 43.5232 115.971 60.8959 116.273C77.7496 116.57 92.7947 110.423 103.935 100.041L67.2517 42.1372C67.2517 42.1372 73.0373 34.018 77.5609 27.5836C82.5425 20.5025 87.0267 25.4467 88.5227 27.7881C99.2782 44.6516 119.46 76.6349 119.46 76.6349L119.47 76.4501C121.538 71.6946 122.598 70.2536 122.82 63.4044L87.1211 7.13825ZM78.418 76.4737C78.418 76.4737 68.6534 90.7147 67.6527 92.0731C61.6783 100.19 57.2845 90.8189 57.2845 90.8189L26.2115 41.9741C26.2115 41.9741 31.9952 33.8568 36.5226 27.4224C41.5023 20.3393 45.9865 25.2855 47.4825 27.6269C58.238 44.4884 78.418 76.4737 78.418 76.4737Z" fill="#EE2223"/>
<path d="M96.6611 10.1958C96.6611 7.52017 98.8295 5.55427 101.389 5.55427C103.927 5.55427 106.092 7.52017 106.092 10.1958C106.092 12.8891 103.927 14.8589 101.389 14.8589C98.8295 14.8589 96.6611 12.8891 96.6611 10.1958ZM101.389 14.0824C103.495 14.0824 105.156 12.431 105.156 10.1958C105.156 7.99199 103.495 6.32883 101.389 6.32883C99.2601 6.32883 97.5969 7.99199 97.5969 10.1958C97.5969 12.431 99.2601 14.0824 101.389 14.0824ZM100.406 12.8891H99.5923V7.52017H101.635C102.903 7.52017 103.534 7.99199 103.534 9.04964C103.534 10.011 102.928 10.4297 102.142 10.528L103.668 12.8891H102.755L101.34 10.5614H100.406V12.8891ZM101.379 9.87532C102.067 9.87532 102.681 9.82421 102.681 8.99853C102.681 8.33799 102.079 8.2102 101.511 8.2102H100.406V9.87532H101.379Z" fill="#231F20"/>
</g>
</svg>
