<svg width="500" height="146" viewBox="0 0 500 146" fill="none" xmlns="http://www.w3.org/2000/svg">
<g clip-path="url(#clip0_8_16048)">
<path fill-rule="evenodd" clip-rule="evenodd" d="M403.534 36.9221V51.0238C403.534 54.5905 406.275 57.4967 409.61 57.4967H470.707C478.732 57.4967 485.997 60.9643 491.248 66.5456C496.169 71.8296 499.339 78.996 499.703 86.9551C499.725 87.4615 499.736 87.9678 499.736 88.4742V114.927C499.736 132.067 486.724 145.971 470.674 145.971H275.76V111.955H450.099C453.402 111.955 456.143 109.049 456.143 105.515V94.9472C456.143 91.3804 453.402 88.4742 450.066 88.4742H389.762C373.844 88.4742 360.832 74.5707 360.832 57.5627V30.9115C360.832 13.9036 373.844 0 389.762 0H471.4C486.592 0 498.118 12.3514 498.118 27.576V30.4491H409.61C406.275 30.4491 403.534 33.3554 403.534 36.9221ZM201.189 27.8402V145.905H156.308V40.0594H122.82V145.905H77.9392V40.0594H43.2959V145.905H0V31.0766C0 15.786 12.1532 0 27.0145 0H174.174C189.036 0 201.189 12.5165 201.189 27.8402ZM350.363 31.1427V57.2985C350.363 74.4386 343.725 88.4412 326.651 88.4412H258.587V145.971H213.97V18.5931C213.97 8.32232 222.292 0 232.53 0H326.651C343.725 0 350.363 14.0357 350.363 31.1427ZM306.605 37.0872C306.605 33.5205 303.699 30.6143 300.165 30.6143H258.587V57.6618H300.165C303.699 57.6618 306.605 54.7556 306.605 51.1889V37.0872Z" fill="#1C4EFF"/>
</g>
<defs>
<clipPath id="clip0_8_16048">
<rect width="500" height="145.971" fill="white"/>
</clipPath>
</defs>
</svg>
