<svg width="500" height="58" viewBox="0 0 500 58" fill="none" xmlns="http://www.w3.org/2000/svg">
<path d="M28.6341 56.1157C13.468 56.1157 1.12891 43.7682 1.12891 28.5958C1.12891 13.4508 13.468 1.12646 28.6341 1.12646C43.7896 1.12646 56.1245 13.4508 56.1245 28.5958C56.1245 43.7682 43.7896 56.1157 28.6341 56.1157Z" fill="white"/>
<path d="M28.6168 0.789062C13.2462 0.789062 0.789062 13.2863 0.789062 28.6168C0.789062 44 13.2462 56.4445 28.6168 56.4445C43.9789 56.4445 56.4445 44 56.4445 28.6168C56.4445 13.3769 44.1834 0.789062 28.6168 0.789062ZM20.7639 8.64198L28.5641 34.4142L28.6167 34.4669L28.6693 34.4142L36.4695 8.64198L46.536 41.6873H44.6386C44.6386 41.6873 43.3759 35.9173 41.3183 32.4642C40.1926 30.6343 38.4744 29.1396 36.1533 29.1965C34.5005 29.2196 33.0459 30.0398 31.3045 32.5169C30.2209 34.0094 28.6166 37.7873 28.6166 37.7873C28.6166 37.7873 27.0102 34.0094 25.9287 32.5169C24.1558 30.0398 22.756 29.2197 21.1327 29.1965C18.7989 29.1395 17.0597 30.6343 15.915 32.4642C13.8637 35.9173 12.5946 41.6873 12.5946 41.6873H10.6973L20.7639 8.64198ZM125.592 18.6557C124.178 18.6692 122.508 18.8644 121.218 19.1301C115.661 20.2368 108.71 25.1805 109.939 31.6209C110.951 37.0094 118.224 39.9292 126.435 38.3143C134.149 36.8407 139.169 30.921 138.136 25.718C137.06 20.5973 131.054 18.6557 125.592 18.6557ZM179.403 18.6557C177.957 18.6692 176.276 18.8644 174.976 19.1301C169.45 20.2368 162.436 25.1805 163.644 31.6209C164.698 37.0094 172.024 39.9292 180.246 38.3143C187.939 36.8407 192.925 30.921 191.841 25.718C190.819 20.5973 184.836 18.6557 179.403 18.6557ZM237.852 18.6557C236.384 18.6692 234.78 18.8644 233.424 19.1301C227.941 20.2368 220.927 25.1805 222.146 31.6209C223.168 37.0094 230.465 39.9292 238.642 38.3143C246.356 36.8407 251.394 30.921 250.29 25.718C249.278 20.5973 243.261 18.6557 237.852 18.6557ZM321.651 18.7611C316.534 18.7595 312.879 20.8566 311.901 24.5059C311.762 25.0034 311.69 25.4672 311.69 25.8762C311.705 28.8023 314.886 29.3884 317.962 29.7763C321.071 30.1578 324.067 30.3918 324.023 32.2007C324.023 32.3777 324.026 32.5675 323.97 32.7804C323.447 34.7536 320.922 36.261 317.066 36.2589C313.95 36.2518 312.116 35.1605 312.112 33.2547C312.112 33.0038 312.147 32.7488 312.217 32.4642L312.27 32.3061H309.213L309.16 32.4115C309.069 32.8943 309.055 33.3518 309.055 33.7819C309.063 37.0411 311.686 38.5737 316.381 38.5779C321.929 38.5779 325.903 36.3496 326.921 32.5697C327.039 32.1143 327.132 31.661 327.132 31.2521C327.135 29.5487 326.004 28.2922 323.654 27.879L317.013 26.6668C315.24 26.3464 314.751 25.6781 314.747 24.9276C314.747 24.7547 314.754 24.5798 314.799 24.4006C315.331 22.3999 317.909 21.0781 320.544 21.0802C323.331 21.0818 325.547 21.681 325.551 23.7154C325.551 23.8904 325.53 24.097 325.498 24.2951V24.4006H328.503L328.555 24.3479C328.646 23.9115 328.661 23.511 328.661 23.1357C328.652 19.7268 325.144 18.7653 321.651 18.7611ZM345.262 18.7611C337.378 18.7611 333.233 24.2002 332.034 28.6695C331.781 29.6034 331.612 30.55 331.612 31.5155C331.612 33.3327 332.143 35.1057 333.457 36.417C334.77 37.7325 336.876 38.5778 339.992 38.5778C347.876 38.5778 352.021 33.1957 353.221 28.7222C353.469 27.784 353.59 26.7869 353.59 25.8235C353.59 24.0041 353.109 22.2354 351.798 20.922C350.484 19.6065 348.378 18.7611 345.262 18.7611ZM444.082 18.7611C436.196 18.7611 432.049 24.1981 430.854 28.6695C430.601 29.6055 430.485 30.5542 430.485 31.5155C430.485 33.3327 430.961 35.1057 432.277 36.417C433.588 37.7304 435.694 38.5799 438.812 38.5778C446.694 38.5794 450.841 33.1936 452.041 28.7222C452.289 27.7862 452.462 26.7869 452.462 25.8235C452.462 24.0041 451.929 22.2354 450.618 20.922C449.304 19.6065 447.198 18.7611 444.082 18.7611ZM492.148 18.7611C487.034 18.7595 483.378 20.8566 482.398 24.5059C482.261 25.0034 482.187 25.4672 482.187 25.8762C482.202 28.7981 485.385 29.3863 488.459 29.7763C491.571 30.1578 494.617 30.3918 494.573 32.2007C494.573 32.3777 494.526 32.5675 494.467 32.7804C493.947 34.7536 491.469 36.2589 487.616 36.2589C484.498 36.2504 482.613 35.1563 482.609 33.2547C482.609 33.0017 482.647 32.7488 482.714 32.4642L482.767 32.3061H479.71V32.4115C479.617 32.8943 479.552 33.3518 479.552 33.7819C479.56 37.0411 482.187 38.5737 486.878 38.5779C492.431 38.5779 496.405 36.3496 497.419 32.5697C497.539 32.1122 497.63 31.6589 497.63 31.2521C497.637 29.5465 496.504 28.2922 494.151 27.879L487.51 26.6668C485.737 26.3464 485.246 25.6781 485.244 24.9276C485.244 24.7547 485.303 24.5798 485.35 24.4006C485.883 22.4041 488.406 21.0781 491.042 21.0802C493.829 21.0818 496.042 21.681 496.048 23.7154C496.048 23.8904 496.027 24.0949 495.996 24.2951V24.4006H499.053V24.3479C499.143 23.9115 499.211 23.511 499.211 23.1357C499.202 19.7268 495.642 18.7653 492.148 18.7611ZM360.441 19.2355L360.388 19.3409L355.382 38.1035H372.299L372.879 35.7845H358.86L363.34 19.2355H360.441ZM459.208 19.2355L454.149 38.1035H457.047L461.264 22.345L468.379 38.1035H472.173L477.233 19.2355H474.334V19.3409L470.118 35.0467L463.003 19.2355H459.208ZM379.573 19.2881L376.568 30.4614C376.322 31.3847 376.2 32.2196 376.2 32.9912C376.207 36.6994 378.993 38.5693 383.209 38.5778C388.307 38.5778 392.681 35.8709 394.119 30.5141L397.176 19.2881H394.277L394.224 19.3408L391.22 30.6194C390.269 34.1379 387.6 36.2545 383.789 36.2587C380.701 36.2452 379.159 34.8905 379.151 32.5167C379.151 31.9497 379.233 31.3488 379.415 30.6721L382.471 19.288L379.573 19.2881ZM401.708 19.2881L401.023 21.7652H408.929L404.554 38.1034H407.453L411.827 21.7652H419.733L420.418 19.2881H401.708ZM425.109 19.2881V19.3408L420.049 38.1034H422.948L428.008 19.288L425.109 19.2881ZM99.1347 19.3408L92.2832 27.3518L89.9115 19.4462H80.5302L75.049 37.998H80.9518L83.9559 27.7734L86.6439 37.998H90.4385L99.1347 28.4058L96.3414 37.998H103.878L109.096 19.3408H99.1347ZM141.351 19.3408L139.822 25.4544H147.622L144.618 37.9981H151.891L155.159 25.4019H163.117L164.488 19.4463L141.351 19.3408ZM285.022 19.3408L272.425 37.998H278.697L280.858 34.783L280.911 34.6776H289.818V34.783L290.608 37.998H297.934L293.718 19.3408H285.022ZM197.533 19.4462L192.21 37.998H199.114L200.695 32.4114L206.229 32.5167C208.232 32.3144 208.337 33.7289 208.337 33.7289C208.337 33.7289 208.259 35.0044 208.127 36.3114C208.034 37.7576 209.444 37.998 209.444 37.998H216.928C216.329 37.5194 216.296 36.5497 216.296 35.9425C216.296 35.4724 217.08 34.3487 216.823 32.5694C216.648 31.0178 214.913 30.6194 214.662 30.4086C214.436 30.3158 214.714 30.0397 214.714 30.0397C214.714 30.0397 219.424 28.6925 219.879 24.2422C220.425 19.7961 215.294 19.4462 215.294 19.4462H197.533ZM255.771 19.4462L250.975 37.998H269.737L271.055 32.8857H259.46L262.886 19.4462H255.771ZM344.683 21.08C348.347 21.0901 350.469 23.1249 350.48 26.3504C350.48 27.0651 350.385 27.8472 350.164 28.6694C348.943 33.223 345.045 36.2587 340.572 36.2587C336.901 36.2486 334.728 34.2644 334.721 31.041C334.721 30.3264 334.869 29.5442 335.09 28.7221C336.315 24.1684 340.203 21.08 344.683 21.08ZM443.503 21.08C447.171 21.0884 449.342 23.1249 449.353 26.3504C449.353 27.0651 449.205 27.8472 448.984 28.6694C447.761 33.2209 443.869 36.2587 439.392 36.2587C435.723 36.2503 433.603 34.2665 433.594 31.041C433.594 30.3264 433.693 29.5442 433.91 28.7221C435.137 24.1705 439.029 21.08 443.503 21.08ZM236.903 23.4517C237.173 23.4328 237.479 23.4446 237.799 23.4517C240.052 23.633 242.232 24.5901 242.595 26.2977C243.636 31.4205 238.18 33.5793 238.8 33.2546C235.651 34.88 230.829 34.3424 230.262 31.0937C229.693 27.9842 232.105 24.8705 234.11 24.1368C235.379 23.6846 236.092 23.5084 236.903 23.4517ZM124.749 23.5043C125.025 23.4925 125.281 23.5212 125.539 23.5569C127.789 23.5569 130.047 24.59 130.335 26.2976C131.43 31.4204 125.955 33.5791 126.646 33.2545C123.454 34.8799 118.593 34.3423 118.055 31.0936C117.486 27.9841 119.953 24.8703 121.956 24.1367C123.016 23.7762 123.921 23.5408 124.749 23.5043ZM178.507 23.5043C178.79 23.4925 179.084 23.5212 179.35 23.5569C181.56 23.5569 183.773 24.59 184.094 26.2976C185.219 31.4204 179.744 33.5791 180.404 33.2545C177.223 34.8799 172.311 34.3423 171.813 31.0936C171.267 27.9841 173.7 24.8703 175.714 24.1367C176.751 23.7762 177.659 23.5408 178.507 23.5043ZM203.383 23.7151L211.078 23.7678C211.078 23.7678 212.564 23.6624 212.448 25.1908C212.347 26.9574 210.446 27.2989 210.446 27.2989H202.487L203.383 23.7151ZM287.499 24.8219L288.764 30.3031H288.658H283.915H283.809L287.499 24.8219Z" fill="black"/>
</svg>
