<svg width="500" height="134" viewBox="0 0 500 134" fill="none" xmlns="http://www.w3.org/2000/svg">
<g clip-path="url(#clip0_8_16060)">
<path d="M476.96 111.448C476.709 111.448 476.457 111.385 476.269 111.197L385.577 20.4414C385.2 20.0646 385.2 19.4993 385.577 19.1225C385.953 18.7456 386.519 18.7456 386.895 19.1225L477.651 109.878C478.028 110.255 478.028 110.82 477.651 111.197C477.462 111.322 477.211 111.448 476.96 111.448Z" fill="#0626A9"/>
<path d="M386.33 111.511C386.079 111.511 385.828 111.448 385.64 111.259C385.263 110.882 385.263 110.317 385.64 109.94L476.395 19.248C476.772 18.8711 477.337 18.8711 477.714 19.248C478.091 19.6248 478.091 20.1901 477.714 20.5669L387.021 111.259C386.833 111.448 386.582 111.511 386.33 111.511Z" fill="#0626A9"/>
<path d="M431.802 130.29C431.3 130.29 430.86 129.85 430.86 129.348V0.971393C430.86 0.468942 431.3 0.0292969 431.802 0.0292969C432.304 0.0292969 432.744 0.468942 432.744 0.971393V129.348C432.744 129.85 432.304 130.29 431.802 130.29Z" fill="#0626A9"/>
<path d="M495.99 66.102H367.551C367.049 66.102 366.609 65.6623 366.609 65.1599C366.609 64.6574 367.049 64.2178 367.551 64.2178H495.927C496.43 64.2178 496.869 64.6574 496.869 65.1599C496.869 65.6623 496.492 66.102 495.99 66.102Z" fill="#0626A9"/>
<path d="M487.26 34.0077H375.779C375.276 34.0077 374.836 33.5681 374.836 33.0656C374.836 32.5632 375.276 32.1235 375.779 32.1235H487.26C487.762 32.1235 488.202 32.5632 488.202 33.0656C488.202 33.5681 487.762 34.0077 487.26 34.0077Z" fill="#0626A9"/>
<path d="M487.134 98.1957H375.779C375.276 98.1957 374.836 97.7561 374.836 97.2536C374.836 96.7512 375.276 96.3115 375.779 96.3115H487.134C487.637 96.3115 488.076 96.7512 488.076 97.2536C488.076 97.7561 487.699 98.1957 487.134 98.1957Z" fill="#0626A9"/>
<path d="M431.802 130.29C431.3 130.29 430.86 129.85 430.86 129.348V0.971393C430.86 0.468942 431.3 0.0292969 431.802 0.0292969C432.304 0.0292969 432.744 0.468942 432.744 0.971393V129.348C432.744 129.85 432.304 130.29 431.802 130.29Z" fill="#0626A9"/>
<path d="M399.708 121.497C399.206 121.497 398.766 121.057 398.766 120.555V9.4504C398.766 8.94795 399.206 8.5083 399.708 8.5083C400.211 8.5083 400.65 8.94795 400.65 9.4504V120.555C400.65 121.12 400.211 121.497 399.708 121.497Z" fill="#0626A9"/>
<path d="M463.896 121.497C463.394 121.497 462.954 121.057 462.954 120.555V9.63887C462.954 9.13642 463.394 8.69678 463.896 8.69678C464.399 8.69678 464.838 9.13642 464.838 9.63887V120.555C464.838 121.12 464.399 121.497 463.896 121.497Z" fill="#0626A9"/>
<path d="M495.99 66.1018C495.739 66.1018 495.488 66.0389 495.299 65.8505L431.111 1.59961C430.734 1.22277 430.734 0.657514 431.111 0.280676C431.488 -0.0961627 432.053 -0.0961627 432.43 0.280676L496.618 64.4688C496.995 64.8456 496.995 65.4109 496.618 65.7877C496.43 65.9761 496.241 66.1018 495.99 66.1018Z" fill="#0626A9"/>
<path d="M431.802 130.29C431.551 130.29 431.3 130.227 431.111 130.039L366.923 65.8506C366.546 65.4738 366.546 64.9085 366.923 64.5317C367.3 64.1548 367.865 64.1548 368.242 64.5317L432.43 128.72C432.807 129.097 432.807 129.662 432.43 130.039C432.242 130.227 431.991 130.29 431.802 130.29Z" fill="#0626A9"/>
<path d="M431.802 130.29C431.551 130.29 431.3 130.227 431.111 130.039C430.734 129.662 430.734 129.097 431.111 128.72L495.299 64.5317C495.676 64.1548 496.241 64.1548 496.618 64.5317C496.995 64.9085 496.995 65.4738 496.618 65.8506L432.43 130.039C432.242 130.227 431.991 130.29 431.802 130.29Z" fill="#0626A9"/>
<path d="M367.551 66.1018C367.3 66.1018 367.049 66.0389 366.86 65.8505C366.483 65.4737 366.483 64.9084 366.86 64.5316L431.111 0.280676C431.488 -0.0961627 432.053 -0.0961627 432.43 0.280676C432.807 0.657514 432.807 1.22277 432.43 1.59961L368.242 65.8505C368.054 65.9761 367.802 66.1018 367.551 66.1018Z" fill="#0626A9"/>
<path d="M431.614 130.227C395.688 130.227 366.483 101.022 366.483 65.1597C366.483 29.2344 395.688 0.0922852 431.614 0.0922852C467.539 0.0922852 496.744 29.2972 496.744 65.1597C496.744 101.022 467.539 130.227 431.614 130.227ZM431.614 1.91367C396.756 1.91367 368.368 30.3022 368.368 65.0969C368.368 99.9544 396.756 128.28 431.614 128.28C466.471 128.28 494.86 99.9544 494.86 65.0969C494.86 30.2393 466.471 1.91367 431.614 1.91367Z" fill="#0626A9"/>
<path d="M437.141 65.097C437.141 68.1118 434.691 70.5613 431.677 70.5613C428.662 70.5613 426.212 68.1118 426.212 65.097C426.212 62.0823 428.662 59.6328 431.677 59.6328C434.754 59.6956 437.141 62.0823 437.141 65.097Z" fill="#0626A9"/>
<path d="M435.822 97.2535C435.822 99.5146 434 101.273 431.802 101.273C429.604 101.273 427.782 99.4518 427.782 97.2535C427.782 95.0553 429.604 93.2339 431.802 93.2339C434 93.2339 435.822 94.9925 435.822 97.2535Z" fill="#0626A9"/>
<path d="M403.728 33.0656C403.728 35.2638 401.906 37.0852 399.708 37.0852C397.51 37.0852 395.688 35.2638 395.688 33.0656C395.688 30.8045 397.51 29.0459 399.708 29.0459C401.906 29.0459 403.728 30.8045 403.728 33.0656Z" fill="#0626A9"/>
<path d="M405.11 97.2538C405.11 100.269 402.66 102.718 399.645 102.718C396.631 102.718 394.181 100.269 394.181 97.2538C394.181 94.239 396.631 91.7896 399.645 91.7896C402.723 91.7896 405.11 94.239 405.11 97.2538Z" fill="#0626A9"/>
<path d="M500.01 65.1598C500.01 67.358 498.189 69.1794 495.99 69.1794C493.792 69.1794 491.971 67.358 491.971 65.1598C491.971 62.8987 493.792 61.1401 495.99 61.1401C498.189 61.1401 500.01 62.8987 500.01 65.1598Z" fill="#0626A9"/>
<path d="M435.822 129.348C435.822 131.546 434 133.367 431.802 133.367C429.604 133.367 427.782 131.546 427.782 129.348C427.782 127.15 429.604 125.328 431.802 125.328C434 125.328 435.822 127.15 435.822 129.348Z" fill="#1226AA"/>
<path d="M469.298 120.555C469.298 123.57 466.848 126.019 463.833 126.019C460.819 126.019 458.369 123.57 458.369 120.555C458.369 117.54 460.819 115.091 463.833 115.091C466.911 115.154 469.298 117.54 469.298 120.555Z" fill="#0626A9"/>
<path d="M379.799 97.2535C379.799 99.5146 377.977 101.273 375.779 101.273C373.581 101.273 371.759 99.4518 371.759 97.2535C371.759 95.0553 373.581 93.2339 375.779 93.2339C377.977 93.2339 379.799 94.9925 379.799 97.2535Z" fill="#0626A9"/>
<path d="M469.298 9.63903C469.298 12.6538 466.848 15.1032 463.833 15.1032C460.819 15.1032 458.369 12.6538 458.369 9.63903C458.369 6.62428 460.819 4.1748 463.833 4.1748C466.911 4.1748 469.298 6.62428 469.298 9.63903Z" fill="#0626A9"/>
<path d="M381.18 33.1283C381.18 36.143 378.731 38.5925 375.716 38.5925C372.701 38.5925 370.252 36.143 370.252 33.1283C370.252 30.1135 372.701 27.6641 375.716 27.6641C378.794 27.7269 381.18 30.1763 381.18 33.1283Z" fill="#0626A9"/>
<path d="M491.28 33.0656C491.28 35.2638 489.459 37.0852 487.26 37.0852C485.062 37.0852 483.241 35.2638 483.241 33.0656C483.241 30.8045 485.062 29.0459 487.26 29.0459C489.459 29.0459 491.28 30.8045 491.28 33.0656Z" fill="#0626A9"/>
<path d="M467.916 65.2223C467.916 67.4834 466.094 69.2419 463.896 69.2419C461.698 69.2419 459.876 67.4205 459.876 65.2223C459.876 63.024 461.698 61.2026 463.896 61.2026C466.094 61.2026 467.916 62.9612 467.916 65.2223Z" fill="#0626A9"/>
<path d="M390.287 19.7506C390.287 21.9489 388.465 23.7703 386.267 23.7703C384.069 23.7703 382.248 21.9489 382.248 19.7506C382.248 17.5524 384.069 15.731 386.267 15.731C388.465 15.731 390.287 17.5524 390.287 19.7506Z" fill="#0626A9"/>
<path d="M85.8022 19.9409H70.3518C69.975 19.9409 69.661 20.1293 69.5354 20.4433L43.471 68.8021L17.1551 20.4433C16.9667 20.1293 16.6526 19.9409 16.3386 19.9409H0.951351C0.448882 19.9409 0.00927734 20.3805 0.00927734 20.8829V111.887C0.00927734 112.39 0.448917 112.829 0.951351 112.829H15.7109C16.2133 112.829 16.6529 112.39 16.6529 111.887V52.4705L39.8283 92.9177C40.0167 93.2317 40.3307 93.4202 40.6447 93.4202H46.0462C46.3602 93.4202 46.6742 93.2317 46.8627 92.9177L69.9122 52.3452V111.824C69.9122 112.326 70.3519 112.766 70.8543 112.766H85.7391C85.9903 112.766 86.2415 112.64 86.43 112.515C86.6184 112.326 86.6812 112.075 86.6812 111.824V20.882C86.744 20.3168 86.3044 19.9399 85.8019 19.9399L85.8022 19.9409Z" fill="#011B2B"/>
<path d="M317.307 19.6895H303.426C302.924 19.6895 302.484 20.1291 302.484 20.6315V112.138C302.484 112.64 302.924 113.08 303.426 113.08H317.307C317.809 113.08 318.249 112.64 318.249 112.138V20.6315C318.249 20.0663 317.872 19.6895 317.307 19.6895Z" fill="#011B2B"/>
<path d="M279.184 95.9358L269.135 85.7612C268.758 85.3843 268.193 85.3843 267.816 85.7612C260.405 92.67 253.685 96.9408 242.882 96.9408C226.678 96.9408 214.431 83.8144 214.431 66.3541V66.1029C214.431 57.8124 217.32 50.1501 222.533 44.4976C227.809 38.7821 235.031 35.642 242.882 35.642C251.612 35.642 259.086 38.9707 267.188 46.4444C267.377 46.6328 267.628 46.6956 267.879 46.6956C268.13 46.6956 268.381 46.57 268.57 46.3816L278.619 34.8253C278.933 34.4484 278.933 33.8832 278.556 33.5063C271.27 26.5348 261.284 19.375 243.07 19.375C216.378 19.375 196.218 39.5986 196.218 66.3521V66.6033C196.218 79.2903 200.928 91.035 209.407 99.7649C218.012 108.558 229.693 113.331 242.443 113.331C252.995 113.331 265.618 111.447 279.247 97.253C279.561 96.8762 279.561 96.3109 279.185 95.934L279.184 95.9358Z" fill="#011B2B"/>
<path d="M169.458 66.4182C165.124 62.9639 159.472 60.7027 151.307 59.07C151.244 59.07 151.056 59.0072 150.867 58.9444C150.742 58.9444 150.616 58.8816 150.49 58.8816C149.674 58.6932 147.853 58.3164 145.968 57.9395C143.958 57.5627 141.823 57.1231 141.195 56.9346C136.233 55.5529 133.281 54.234 131.523 52.5382C129.827 50.9681 129.011 48.8955 128.885 46.195V45.9437V45.1901C129.136 39.4119 133.658 35.3295 140.755 34.4503C142.514 34.2619 144.21 34.1991 145.905 34.3247C153.065 34.8272 159.157 37.2766 164.684 41.736C164.935 41.9872 165.438 42.05 165.752 41.9244H165.815C166.066 41.9244 166.317 41.7988 166.506 41.6104L174.921 31.6241C175.235 31.2473 175.235 30.6192 174.796 30.3052C166.003 22.7055 156.456 19.314 143.832 19.314C125.054 19.314 112.429 30.2421 112.429 46.5717V46.8857C112.429 54.4223 114.69 60.1378 119.212 64.4086C123.295 68.2397 129.261 70.9402 137.363 72.636C137.866 72.7616 139.122 73.0128 140.378 73.2641C141.257 73.4525 142.074 73.5781 142.451 73.7037C143.016 73.8293 144.272 74.0805 145.465 74.2689C146.596 74.4574 147.726 74.7086 148.103 74.7714C152.625 75.9019 155.577 76.7812 157.775 78.5398C160.288 80.4867 161.355 82.9362 161.418 86.5162V86.7674C161.418 93.2364 156.331 97.5072 147.852 98.198C146.91 98.2608 145.905 98.3236 144.9 98.3236C144.021 98.3236 143.142 98.3236 142.262 98.2608C133.469 97.6327 126.623 94.6809 120.154 88.7143C119.903 88.4631 119.526 88.4003 119.275 88.4631H119.212C118.961 88.4631 118.71 88.5887 118.522 88.7771L109.352 98.7634C108.975 99.1403 109.038 99.7055 109.415 100.082C118.961 109.126 130.517 113.46 144.774 113.46C164.998 113.46 177.999 102.595 177.999 85.8258V85.5746C178.062 77.3471 175.172 70.8781 169.457 66.4185L169.458 66.4182Z" fill="#011B2B"/>
<path d="M403.726 9.64071C403.726 11.8389 401.905 13.6603 399.707 13.6603C397.508 13.6603 395.687 11.8389 395.687 9.64071C395.687 7.37967 397.508 5.62109 399.707 5.62109C401.905 5.62109 403.726 7.44249 403.726 9.64071Z" fill="#0626A9"/>
</g>
<defs>
<clipPath id="clip0_8_16060">
<rect width="500" height="133.37" fill="white"/>
</clipPath>
</defs>
</svg>
