<svg width="500" height="91" viewBox="0 0 500 91" fill="none" xmlns="http://www.w3.org/2000/svg">
<path d="M88.0384 0V73.2936H53.8105V29.3241H34.228V73.2936H0V0H88.0384Z" fill="black"/>
<path fill-rule="evenodd" clip-rule="evenodd" d="M127.137 0H141.948L176.043 45.328V0H191.848V73.2604H178.23L142.975 27.0046V73.2604H127.137V0ZM199.569 45.7256V45.5268C199.569 29.6223 210.901 16.5341 227.137 16.5341C245.758 16.5341 254.274 30.9808 254.274 46.7859C254.274 48.0119 254.174 49.4698 254.075 50.9278H215.275C216.832 58.0848 221.802 61.829 228.893 61.829C234.194 61.829 238.038 60.1723 242.412 56.1299L251.457 64.1153C246.255 70.5765 238.767 74.5195 228.694 74.5195C211.928 74.5195 199.536 62.7899 199.536 45.7256H199.569ZM238.899 41.0537C237.972 33.9629 233.797 29.1915 227.17 29.1915C220.576 29.1915 216.302 33.8966 215.076 41.0537H238.899ZM264.148 31.0802H257.521V17.5613H264.148V3.34659H279.986V17.5613H293.074V31.0802H279.986V54.8708C279.986 58.5156 281.544 60.3048 285.056 60.3048C287.972 60.3048 290.589 59.5427 292.876 58.2836V70.9742C289.562 72.9622 285.685 74.1882 280.384 74.1882C270.709 74.1882 264.181 70.3446 264.181 57.4553L264.148 31.0802ZM376.11 17.5944H391.915V25.5799C395.758 20.3777 401.06 16.5673 409.277 16.5673C422.299 16.5673 434.658 26.7396 434.658 45.328V45.5268C434.658 64.1484 422.498 74.3207 409.277 74.3207C400.861 74.3207 395.659 70.4771 391.915 66.004V89.9271H376.11V17.5944ZM418.82 45.328C418.82 36.0835 412.591 29.9536 405.202 29.9536C397.846 29.9536 391.683 36.0835 391.683 45.328V45.5268C391.683 54.7714 397.813 60.9344 405.202 60.9344C412.591 60.9344 418.82 54.8708 418.82 45.5268V45.328ZM441.086 17.5944H456.892V25.5799C460.768 20.3777 466.07 16.5341 474.287 16.5341C487.276 16.5341 499.668 26.7396 499.668 45.328V45.5268C499.668 64.1484 487.475 74.3207 474.287 74.3207C465.838 74.3207 460.636 70.4771 456.892 66.004V89.9271H441.086V17.5944ZM483.863 45.328C483.863 36.0835 477.601 29.9536 470.212 29.9536C462.856 29.9536 456.693 36.0835 456.693 45.328V45.5268C456.693 54.7714 462.856 60.9013 470.212 60.9013C477.601 60.9013 483.863 54.8708 483.863 45.5268V45.328ZM327.302 0H341.716L372.133 73.2936H355.467L348.74 56.9582H319.88L313.22 73.2936H296.885L327.302 0ZM344.002 42.8098L334.327 19.1849L324.618 42.8098H344.002Z" fill="#010101"/>
</svg>
