<svg width="500" height="173" viewBox="0 0 500 173" fill="none" xmlns="http://www.w3.org/2000/svg">
<g clip-path="url(#clip0_8_16042)">
<path d="M139.785 0V103.763L52.1505 0H0V172.043H52.1505V68.2796L139.785 172.043L191.935 86.0215L139.785 0Z" fill="#FCA600"/>
<path d="M287.097 172.043L252.151 115.054L217.204 172.043H155.376L207.527 86.0215L155.376 0H216.667L251.613 56.9893L287.097 0H348.387L296.237 86.0215L348.387 172.043H287.097Z" fill="#0EAFE0"/>
<path d="M438.71 0H364.516L312.366 86.0215L364.516 172.043V133.871H452.151C488.71 133.871 500 104.301 500 79.0323V58.6021C500 25.2688 488.172 0 438.71 0ZM451.613 69.3548C451.613 79.5699 446.774 91.3979 434.946 91.3979H365.054V42.4731H430.108C445.699 42.4731 451.613 48.9247 451.613 60.7527V69.3548Z" fill="#69CA00"/>
</g>
<defs>
<clipPath id="clip0_8_16042">
<rect width="500" height="172.043" fill="white"/>
</clipPath>
</defs>
</svg>
