<svg width="500" height="88" viewBox="0 0 500 88" fill="none" xmlns="http://www.w3.org/2000/svg">
<g clip-path="url(#clip0_7_16034)">
<path d="M466.15 2.07941C466.15 7.97128 466.15 30.0369 466.15 31.6543C469.154 21.95 480.36 1.38625 480.938 0.230983H468.114C467.075 0.115456 466.15 1.03967 466.15 2.07941Z" fill="#DA7F3A"/>
<path d="M321.396 13.2854C313.309 4.7364 303.604 0.577438 292.283 0.577438C280.73 0.577438 271.026 4.85193 262.939 13.2854C254.852 21.8344 250.924 32.0007 250.924 44.0155C250.924 56.0303 254.968 66.0811 262.939 74.3991C270.91 82.9481 280.615 87.107 292.283 87.107C300.947 87.107 308.803 84.5654 315.735 79.4822C322.666 74.3991 327.634 67.814 330.638 59.7272L331.562 57.1856C331.909 56.2614 331.215 55.3371 330.291 55.3371H317.699C317.121 55.3371 316.659 55.6837 316.428 56.1458L315.966 57.1856C313.655 62.0377 310.305 65.8501 306.146 68.5072C301.987 71.2798 297.366 72.6662 292.283 72.6662C284.774 72.6662 278.535 69.8935 273.336 64.2327C269.062 59.6116 266.405 54.2974 265.596 48.1745C265.481 47.3658 266.174 46.6726 266.982 46.6726H332.14C332.833 46.6726 333.526 46.095 333.526 45.2863V43.4379C333.526 31.8852 329.482 21.7188 321.396 13.2854ZM315.042 32.5784H269.409C268.369 32.5784 267.791 31.5386 268.253 30.6144C270.102 26.9176 272.643 23.6828 275.762 20.9102C280.615 16.8667 286.044 14.9028 292.167 14.9028C298.29 14.9028 303.836 16.8667 308.688 20.9102C311.922 23.6828 314.348 26.9176 316.197 30.6144C316.659 31.5386 315.966 32.5784 315.042 32.5784ZM240.296 52.1024C238.794 49.2142 236.368 46.5571 233.018 44.131C232.209 43.5534 231.4 42.9758 230.476 42.5137C229.552 41.936 228.628 41.4739 227.472 41.0118C225.393 40.0876 223.66 39.3944 222.389 38.9323L215.689 36.7373C208.641 34.7734 203.443 32.4628 200.208 29.8057C196.627 26.9175 195.818 23.5673 197.897 19.6394C198.822 17.9065 200.555 16.5201 202.865 15.4804C205.522 14.4407 208.295 13.863 211.299 13.863C215.226 13.863 218.808 15.0183 221.811 17.2133C224.469 19.2928 225.739 21.8344 225.739 25.0691V27.2641C225.739 27.9573 226.317 28.4194 226.895 28.4194H239.487C240.18 28.4194 240.642 27.8418 240.642 27.2641V25.0691C240.642 17.9065 237.754 12.0146 231.978 7.16247C226.548 2.42587 219.732 0.115331 211.299 0.115331C205.176 0.115331 199.63 1.50165 194.663 4.2743C189.464 7.16247 185.883 10.9749 183.803 15.827C181.493 21.3723 181.493 26.802 183.803 31.8852C186.46 37.8926 191.659 42.6292 199.515 46.326L204.251 48.1745C205.984 48.7521 207.948 49.3298 210.028 50.0229C214.071 51.1782 216.844 52.1024 218.23 52.68C224.584 55.4527 227.819 58.8029 227.819 62.6153C227.819 65.5035 226.317 67.9296 223.198 70.009C219.732 72.3196 215.689 73.4749 211.183 73.4749C206.909 73.4749 202.981 72.3196 199.515 69.8935C196.28 67.583 194.778 64.9259 194.778 61.9222V59.9582C194.778 59.2651 194.201 58.8029 193.623 58.8029H181.377C180.684 58.8029 180.222 59.3806 180.222 59.9582V61.9222C180.222 65.7346 181.146 69.2004 182.879 72.3196C184.496 75.4388 186.922 78.0959 190.273 80.4065C196.511 84.7965 203.674 87.107 211.53 87.107C219.501 87.107 226.664 84.912 232.902 80.4065C236.252 77.9804 238.678 75.3233 240.296 72.3196C242.029 69.0848 242.953 65.619 242.953 61.9222C242.837 58.4564 242.029 55.1061 240.296 52.1024ZM171.788 37.546C171.904 30.7299 170.749 19.9859 160.351 10.0506C153.535 3.46561 144.409 0.115331 133.202 0.115331C121.996 0.115331 112.87 3.46561 106.054 9.93511C95.8873 19.7549 94.5009 30.7299 94.6165 37.4305C94.6165 37.8926 94.6165 78.327 94.5009 85.9518C94.5009 86.6449 95.0786 87.2225 95.7717 87.2225H109.404C110.097 87.2225 110.675 86.6449 110.675 85.9518C110.675 78.2115 110.559 49.2142 110.675 39.6255C110.675 32.2318 113.101 25.4157 117.144 21.3723C117.144 21.3723 123.614 14.3251 133.202 14.5562C140.365 14.7872 145.102 17.3288 149.376 21.4878C152.957 24.8381 155.73 32.6939 155.846 39.9721C155.846 47.2503 155.846 85.7207 155.846 85.7207C155.846 86.4138 156.423 86.9915 157.116 86.9915L170.749 87.107C171.442 87.107 172.019 86.5294 172.019 85.8362L171.788 37.546ZM81.3309 21.1412C77.5185 14.6717 72.4353 9.473 65.8503 5.77614C59.3808 2.07929 51.8715 0.230858 43.4381 0.230858C34.8891 0.230858 27.3799 2.07929 20.9104 5.77614C14.4409 9.473 9.35767 14.6717 5.54529 21.1412C1.84843 27.7262 0 35.2355 0 43.9C0 52.3334 1.84843 59.8427 5.54529 66.4277C9.24214 73.0127 14.4409 78.0959 20.9104 81.7928C27.3799 85.4896 34.8891 87.3381 43.4381 87.3381C51.9871 87.3381 59.4963 85.4896 65.9658 81.7928C72.4353 78.0959 77.634 73.0127 81.2153 66.4277C84.9122 59.8427 86.7606 52.449 86.7606 43.9C86.8762 35.2355 85.0277 27.7262 81.3309 21.1412ZM67.9298 59.034C65.6192 63.424 62.2689 66.8898 58.11 69.4314C53.951 71.973 49.0989 73.2438 43.5536 73.2438C38.1238 73.2438 33.2717 71.973 28.9972 69.4314C24.8383 66.8898 21.488 63.424 19.0619 59.034C16.6359 54.644 15.4806 49.5608 15.4806 43.7845C15.4806 38.0081 16.6359 32.9249 19.0619 28.5349C21.488 24.1449 24.8383 20.5636 28.9972 18.1375C33.1562 15.5959 38.0083 14.3251 43.5536 14.3251C48.9834 14.3251 53.8355 15.5959 58.11 18.1375C62.2689 20.6791 65.6192 24.1449 67.9298 28.5349C70.2403 32.9249 71.5111 38.1236 71.5111 43.7845C71.3956 49.5608 70.2403 54.644 67.9298 59.034ZM480.129 86.6449H467.884C466.959 86.6449 466.266 85.9517 466.382 85.0275C467.653 63.0774 471.58 30.7299 481.978 8.54879C482.093 8.43326 482.324 8.43326 482.324 8.66431V84.4499C482.209 85.7207 481.285 86.6449 480.129 86.6449ZM458.064 32.8094V84.7965C458.064 85.9518 457.14 86.9915 455.869 86.9915H444.778C443.623 86.9915 442.583 86.0673 442.583 84.7965V32.8094C442.583 27.9573 440.85 23.7983 437.384 20.3325C434.034 16.9822 429.875 15.2493 425.023 15.2493C420.171 15.2493 416.012 16.9822 412.662 20.448C409.196 23.7983 407.463 27.9573 407.463 32.8094V84.7965C407.463 85.9518 406.539 86.9915 405.268 86.9915H394.409C393.253 86.9915 392.214 86.0673 392.214 84.7965V32.8094C392.214 28.1883 390.481 23.9139 387.015 20.3325C383.433 16.9822 379.275 15.2493 374.422 15.2493C369.57 15.2493 365.411 16.9822 362.061 20.3325C358.595 24.0294 356.862 28.1883 356.862 32.8094V84.7965C356.862 85.9518 355.938 86.9915 354.667 86.9915H343.692C342.537 86.9915 341.497 86.0673 341.497 84.7965V32.8094C341.497 23.7983 344.732 16.058 351.202 9.58853C357.671 3.11903 365.296 -0.000195846 374.422 -0.000195846C380.199 -0.000195846 385.744 1.61718 390.827 4.85193C393.484 6.58483 396.026 8.66432 398.221 10.9749C399.03 11.8991 400.531 11.8991 401.34 10.9749C402.149 10.0506 403.073 9.24195 403.882 8.43326C405.268 7.16247 406.885 5.89167 408.618 4.7364C413.702 1.50165 419.247 -0.115723 425.023 -0.115723C434.265 -0.115723 442.006 3.11903 448.475 9.473C454.829 16.1736 458.064 23.9139 458.064 32.8094ZM488.678 86.9915V81.3307H486.714V80.0599H492.144V81.3307H490.18V86.9915H488.678ZM493.068 86.9915V79.9444H495.263L496.534 84.2188L497.805 79.9444H500V86.9915H498.614V81.4462L497.227 86.0673H495.841L494.339 81.3307V86.9915H493.068Z" fill="#3A4D54"/>
</g>
<defs>
<clipPath id="clip0_7_16034">
<rect width="500" height="87.3383" fill="white"/>
</clipPath>
</defs>
</svg>
