<svg width="500" height="65" viewBox="0 0 500 65" fill="none" xmlns="http://www.w3.org/2000/svg">
<g clip-path="url(#clip0_7_15984)">
<path d="M215.563 42.2512H248.55L231.125 14.1127L199.091 64.9352H184.524L223.485 3.96114C224.334 2.74442 225.463 1.74896 226.776 1.05815C228.089 0.367348 229.549 0.00131399 231.032 -0.00928457C232.516 -0.0198831 233.981 0.325263 235.304 0.997238C236.627 1.66921 237.77 2.64845 238.636 3.85291L277.705 64.9352H263.138L256.277 53.5715H222.9L215.628 42.2512M366.991 53.5715V0.606157H354.61V58.788C354.608 59.5965 354.77 60.3971 355.086 61.1412C355.402 61.8853 355.866 62.5575 356.45 63.117C357.036 63.7165 357.736 64.1922 358.51 64.5157C359.283 64.8392 360.114 65.0039 360.952 65.0001H417.229L424.567 53.6365H366.926M162.294 44.1126C168.064 44.1126 173.597 41.8208 177.676 37.7413C181.756 33.6617 184.047 28.1287 184.047 22.3594C184.047 16.5901 181.756 11.0571 177.676 6.97754C173.597 2.89801 168.064 0.606157 162.294 0.606157H108.182V64.9352H120.541V11.9914H161.537C164.298 11.9914 166.946 13.0883 168.899 15.0408C170.851 16.9933 171.948 19.6415 171.948 22.4027C171.948 25.1639 170.851 27.8121 168.899 29.7646C166.946 31.7171 164.298 32.8139 161.537 32.8139H126.667L163.593 64.9352H181.537L156.731 44.1126H162.294ZM32.1643 64.9352H69.5453C77.9286 64.7176 85.8954 61.2346 91.7478 55.2283C97.6003 49.222 100.875 41.1676 100.875 32.7815C100.875 24.3954 97.6003 16.3409 91.7478 10.3347C85.8954 4.32839 77.9286 0.845329 69.5453 0.627802H32.1643C27.8717 0.516416 23.6001 1.26572 19.6017 2.83151C15.6032 4.3973 11.9587 6.74789 8.88321 9.74466C5.80767 12.7414 3.36334 16.3237 1.69436 20.2802C0.025373 24.2367 -0.834473 28.4874 -0.834473 32.7815C-0.834473 37.0756 0.025373 41.3263 1.69436 45.2828C3.36334 49.2393 5.80767 52.8215 8.88321 55.8183C11.9587 58.8151 15.6032 61.1657 19.6017 62.7315C23.6001 64.2972 27.8717 65.0465 32.1643 64.9352ZM68.7011 53.6148H32.9869C27.5834 53.4405 22.4596 51.1715 18.6989 47.2876C14.9383 43.4037 12.8356 38.2094 12.8356 32.8031C12.8356 27.3969 14.9383 22.2026 18.6989 18.3187C22.4596 14.4347 27.5834 12.1657 32.9869 11.9914H68.7011C71.4906 11.9015 74.2698 12.3732 76.8733 13.3786C79.4769 14.384 81.8518 15.9025 83.8569 17.8439C85.8619 19.7854 87.4562 22.1101 88.545 24.6799C89.6338 27.2497 90.1949 30.0122 90.1949 32.8031C90.1949 35.5941 89.6338 38.3566 88.545 40.9264C87.4562 43.4962 85.8619 45.8209 83.8569 47.7623C81.8518 49.7037 79.4769 51.2223 76.8733 52.2277C74.2698 53.2331 71.4906 53.7048 68.7011 53.6148ZM303.528 64.9352H341.688L348.918 53.6148H304.372C301.583 53.7048 298.803 53.2331 296.2 52.2277C293.596 51.2223 291.221 49.7037 289.216 47.7623C287.211 45.8209 285.617 43.4962 284.528 40.9264C283.439 38.3566 282.878 35.5941 282.878 32.8031C282.878 30.0122 283.439 27.2497 284.528 24.6799C285.617 22.1101 287.211 19.7854 289.216 17.8439C291.221 15.9025 293.596 14.384 296.2 13.3786C298.803 12.3732 301.583 11.9015 304.372 11.9914H340.628L347.944 0.627802H303.528C299.235 0.516416 294.964 1.26572 290.965 2.83151C286.967 4.3973 283.322 6.74789 280.247 9.74466C277.171 12.7414 274.727 16.3237 273.058 20.2802C271.389 24.2367 270.529 28.4874 270.529 32.7815C270.529 37.0756 271.389 41.3263 273.058 45.2828C274.727 49.2393 277.171 52.8215 280.247 55.8183C283.322 58.8151 286.967 61.1657 290.965 62.7315C294.964 64.2972 299.235 65.0465 303.528 64.9352ZM454.762 53.6148C450.227 53.6165 445.815 52.1376 442.197 49.4028C438.58 46.6681 435.954 42.827 434.718 38.4633H487.576L494.848 27.1213H434.718C435.95 22.7558 438.576 18.9127 442.194 16.1774C445.812 13.4421 450.226 11.9645 454.762 11.9698H491.039L498.29 0.606157H453.918C445.534 0.823684 437.568 4.30675 431.715 10.313C425.863 16.3193 422.587 24.3738 422.587 32.7598C422.587 41.1459 425.863 49.2004 431.715 55.2067C437.568 61.2129 445.534 64.696 453.918 64.9135H492.078L499.329 53.5932H454.74" fill="#C74634"/>
</g>
<defs>
<clipPath id="clip0_7_15984">
<rect width="500" height="64.9351" fill="white"/>
</clipPath>
</defs>
</svg>
