<svg width="500" height="195" viewBox="0 0 500 195" fill="none" xmlns="http://www.w3.org/2000/svg">
<g clip-path="url(#clip0_8_16062)">
<path d="M168.684 48.9712V92.1091L126.856 116.626L51.3727 72.9263L84.4045 53.8059L122.365 75.64L131.784 70.1502L84.4045 42.9824L0.125 91.9843V48.9712L84.4045 0.28125L168.684 48.9712Z" fill="#656263"/>
<path d="M41.9528 78.4473L117.405 122.178L84.4045 141.267L46.4444 119.433L36.9934 124.923L84.4045 152.122L168.653 103.057V146.226L84.4045 194.792L0.125 146.226V102.964L41.9528 78.4473Z" fill="#6BC04B"/>
<mask id="mask0_8_16062" style="mask-type:luminance" maskUnits="userSpaceOnUse" x="0" y="0" width="500" height="195">
<path d="M0.134277 0.271484H499.938V194.785H0.134277V0.271484Z" fill="white"/>
</mask>
<g mask="url(#mask0_8_16062)">
<path fill-rule="evenodd" clip-rule="evenodd" d="M253.088 64.2859C260.657 53.1609 271.969 47.5984 287.024 47.5984C300.666 47.5984 311.728 52.3499 320.212 61.8529C328.676 71.1896 332.907 82.7513 332.907 96.5379C332.907 110.325 328.676 121.886 320.212 131.223C311.728 140.726 300.343 145.477 286.058 145.477C271.772 145.477 260.792 139.832 253.088 128.603V181.472H238.865V49.0956H253.088V64.2859ZM285.122 60.5117C274.891 60.5117 266.802 64.0467 260.855 71.1168C255.157 77.8126 252.308 86.2863 252.308 96.5379C252.308 106.769 255.157 115.232 260.855 121.928C266.802 129.019 274.891 132.564 285.122 132.564C295.228 132.564 303.431 129.039 309.763 121.928C315.71 115.232 318.684 106.769 318.684 96.5379C318.684 86.2863 315.71 77.8126 309.763 71.1168C303.431 64.0363 295.228 60.5117 285.122 60.5117ZM362.102 143.949V61.6658H342.764V49.1268H362.102V15.1904H376.326V49.1268H398.097V61.6658H376.326V143.949H362.102ZM458.048 132.533C464.119 132.533 469.495 130.828 474.174 127.418C478.852 124.007 482.263 119.578 484.404 114.13H499.751C496.86 123.508 491.558 131.036 483.843 136.713C475.733 142.514 466.126 145.446 455.022 145.446C441.111 145.446 429.798 140.705 421.086 131.223C412.622 121.99 408.38 110.418 408.359 96.5067C408.38 82.5953 412.622 71.0336 421.086 61.8217C429.798 52.3395 441.111 47.5984 455.022 47.5984C466.126 47.5984 475.733 50.4992 483.843 56.3008C491.558 61.9985 496.86 69.5261 499.751 78.8835H484.404C482.263 73.4354 478.852 69.0062 474.174 65.5959C469.495 62.1856 464.119 60.4805 458.048 60.4805C451.965 60.4805 446.819 61.4474 442.608 63.3189C438.366 65.2112 434.789 67.8001 431.878 71.0856C425.702 77.9166 422.614 86.4007 422.614 96.5067C422.614 106.613 425.702 115.097 431.878 121.928C438.199 128.998 446.923 132.533 458.048 132.533Z" fill="#656263"/>
</g>
</g>
<defs>
<clipPath id="clip0_8_16062">
<rect width="500" height="194.947" fill="white"/>
</clipPath>
</defs>
</svg>
