<svg width="500" height="92" viewBox="0 0 500 92" fill="none" xmlns="http://www.w3.org/2000/svg">
<g clip-path="url(#clip0_8_16065)">
<path d="M134.954 26.3527C136.294 26.3527 137.443 27.4375 137.443 28.8412V76.3783C137.443 77.7182 136.23 78.803 134.954 78.803H128.509C127.297 78.803 126.085 77.8458 126.085 76.5059V72.1031C122.831 76.8887 117.215 80.2067 109.048 80.2067C95.3931 80.2067 86.9704 71.146 86.9704 57.6825V28.7136C86.9704 27.3737 88.1827 26.2889 89.4589 26.2889H95.9035C97.2435 26.2889 98.3282 27.3737 98.3282 28.7136V55.8321C98.3282 64.5738 102.922 70.3803 111.983 70.3803C120.852 70.3803 126.085 64.3823 126.085 55.9597V28.7136C126.085 27.3737 127.297 26.2889 128.509 26.2889H134.954M39.88 0C17.8025 0 0 17.1644 0 40.0715C0 63.0424 17.8025 80.1429 39.88 80.1429C43.6447 80.1429 47.2818 79.6325 50.7274 78.6753L55.0664 89.8418C55.513 91.0541 56.4063 91.8198 58.0015 91.8198H64.8928C66.5518 91.8198 67.7642 90.7351 66.9985 88.6294L61.3834 74.0174C72.4221 67.0623 79.7601 54.7473 79.7601 40.0077C79.7601 17.1644 61.9576 0 39.88 0ZM57.2358 63.3614L52.195 50.2808C51.7483 49.196 50.855 48.1751 48.9408 48.1751H42.3686C40.7095 48.1751 39.4334 49.2598 40.1991 51.3655L46.8351 68.5299C44.6656 69.1041 42.3047 69.3594 39.88 69.3594C23.7366 69.3594 12.2511 56.6616 12.2511 40.0715C12.2511 23.4814 23.7366 10.7836 39.88 10.7836C56.0235 10.7836 67.5089 23.4814 67.5089 40.0715C67.5089 49.7703 63.6166 58.0653 57.2358 63.3614ZM499.809 76.123C500.383 77.463 499.681 78.7392 498.086 78.7392H490.875C489.535 78.7392 488.451 78.1011 488.004 76.7611L474.668 40.901L461.141 76.7611C460.567 78.1649 459.609 78.7392 458.27 78.7392H451.825C450.485 78.7392 449.528 78.1649 448.954 76.7611L435.299 40.7095L421.835 76.7611C421.261 78.1011 420.304 78.7392 418.964 78.7392H412.2C410.86 78.7392 409.903 78.1011 409.329 76.7611L395.993 40.7095L382.21 76.7611C381.636 78.1649 380.679 78.7392 379.339 78.7392H372.894C371.554 78.7392 370.597 78.1649 370.023 76.7611L356.559 40.7095L343.096 76.7611C342.649 78.1011 341.565 78.7392 340.225 78.7392H333.206C331.547 78.7392 330.909 77.3992 331.483 76.123L349.732 28.3946C350.306 26.9908 351.263 26.2889 352.603 26.2889H360.452C361.792 26.2889 362.749 26.927 363.323 28.3946L376.468 63.2338L389.484 28.3946C390.059 26.9908 391.016 26.2889 392.356 26.2889H400.077C401.417 26.2889 402.374 26.927 402.948 28.3946L415.837 63.2338L428.726 28.3946C429.301 26.9908 430.258 26.2889 431.598 26.2889H439.382C440.722 26.2889 441.679 26.927 442.254 28.3946L455.334 63.2338L468.096 28.3946C468.67 26.9908 469.627 26.2889 470.967 26.2889H478.816C480.156 26.2889 481.113 26.927 481.687 28.3946L499.809 76.123ZM197.422 26.3527H190.978C189.638 26.3527 188.489 27.4375 188.489 28.8412V33.1802C185.235 28.267 178.854 24.7575 171.325 24.7575C157.095 24.7575 144.908 35.9877 144.908 52.3864C144.908 68.9765 157.159 80.1429 171.261 80.1429C178.918 80.1429 185.107 76.6335 188.553 71.7203V76.3144C188.553 77.6544 189.765 78.7392 191.041 78.7392H197.486C198.826 78.7392 199.911 77.6544 199.911 76.3144V28.8412C199.847 27.4375 198.762 26.3527 197.422 26.3527ZM172.537 69.6784C163.157 69.6784 156.457 62.0214 156.457 52.514C156.457 42.879 163.093 35.4773 172.537 35.4773C181.853 35.4773 188.617 42.879 188.617 52.514C188.553 62.0853 181.789 69.6784 172.537 69.6784ZM274.311 71.3374C275.715 73.0602 274.502 74.4002 273.737 74.9745C269.27 78.3563 263.336 80.2067 256.891 80.2067C240.62 80.2067 229.773 68.2746 229.773 52.5778C229.773 36.8811 240.62 24.8213 256.891 24.8213C263.336 24.8213 269.206 26.6718 273.737 30.0536C274.502 30.6279 275.587 31.7764 274.311 33.6907L271.248 37.9658C270.036 39.6248 268.632 39.1782 267.42 38.4125C264.548 36.6896 261.166 35.2221 257.274 35.2221C247.767 35.2221 241.45 42.879 241.45 52.5778C241.45 62.2767 247.767 69.8698 257.274 69.8698C261.23 69.8698 264.357 68.3384 267.228 66.6794C268.441 66.0414 269.717 65.4671 271.057 67.2537L274.311 71.3374ZM304.684 24.8851C289.37 24.8851 277.182 36.8811 277.182 52.514C277.182 68.2746 289.433 80.1429 304.684 80.1429C319.997 80.1429 332.185 68.2108 332.185 52.514C332.249 36.9449 319.997 24.8851 304.684 24.8851ZM304.684 69.6146C295.304 69.6146 288.604 62.0852 288.604 52.5778C288.604 42.9428 295.24 35.5411 304.684 35.5411C314.063 35.5411 320.763 42.9428 320.763 52.5778C320.763 62.0852 314.127 69.6146 304.684 69.6146ZM220.01 1.40378C221.414 1.40378 222.435 2.61613 222.435 3.89229V76.2506C222.435 77.5906 221.478 78.7392 220.01 78.7392H213.566C212.226 78.7392 211.077 77.5268 211.077 76.2506V3.9561C211.077 2.61613 212.289 1.46759 213.566 1.46759H220.01" fill="#3253DC"/>
</g>
<defs>
<clipPath id="clip0_8_16065">
<rect width="500" height="91.8836" fill="white"/>
</clipPath>
</defs>
</svg>
