<svg width="500" height="336" viewBox="0 0 500 336" fill="none" xmlns="http://www.w3.org/2000/svg">
<path d="M497.859 36.4857C492.374 17.6045 473.241 1.8814 453.773 0.268772L49.3042 0C44.7551 0.335964 40.4067 1.20947 36.1252 2.28455C18.0626 7.52559 2.54215 25.9364 0.334493 44.4816L0 195.531L2.14075 207.222C7.55954 226.104 26.5587 241.759 45.8924 243.506H452.234L463.942 241.424C482.004 236.182 497.525 217.772 499.665 199.226L500 48.1772M470.966 201.108C469.962 206.954 465.48 212.799 459.861 215.084L454.71 216.697H232.941V146.816C245.451 154.61 264.785 153.871 276.492 144.532C284.185 138.215 289.671 130.085 291.276 120.745C293.35 133.31 303.786 145.674 315.895 149.907C327.669 154.476 342.588 152.326 352.422 144.666C358.777 139.895 363.326 133.512 365.935 126.793V151.52L366.671 151.99H388.012L388.547 151.251V97.0935L410.289 97.2951C411.761 98.1686 413.166 99.2437 413.634 100.991C413.835 102.872 413.634 104.686 412.363 105.963L391.624 117.923L391.959 119.469L410.891 151.788L435.51 151.99L436.045 151.52L419.387 122.56C426.01 120.073 433.57 113.22 434.707 105.627C436.58 97.4967 435.242 88.6272 429.756 82.5127C423.669 75.2559 414.972 73.576 405.472 74.3824H366.27C365.801 82.6471 366.069 91.3149 366.069 99.6468C362.256 88.56 351.151 78.0779 339.845 75.4574C323.455 71.0899 307.332 77.0701 297.364 91.1133C294.554 95.5481 292.213 100.117 291.41 105.425C289.47 93.9354 279.302 81.3704 267.527 76.8013C257.024 72.2322 242.44 73.576 233.075 79.6234C232.74 78.0779 233.744 76.0622 232.205 75.1887H210.998L210.463 76.0622V104.686C208.322 92.6588 197.819 80.8329 186.379 76.4653C173.869 71.8962 158.483 74.1808 148.448 82.5127C144.033 86.0067 140.755 90.4414 138.079 95.0105C137.41 87.7537 131.456 78.7499 123.629 76.0622L115.066 74.4495H69.0393L68.5041 75.1887V151.587L69.24 152.057H90.5138L91.049 151.318V97.3623L111.988 97.1607C113.728 97.6311 115.668 99.0421 116.203 100.856C116.738 102.469 116.337 104.418 115.132 105.761L93.8587 118.259C100.214 129.749 106.904 141.239 114.062 152.124H137.945L138.48 151.654C132.927 141.978 127.709 132.235 121.822 122.694C126.238 120.947 130.252 117.923 133.463 114.093C133.463 129.615 144.367 144.935 158.951 150.041C172.13 155.014 187.784 151.788 198.087 142.785C204.576 136.804 208.657 129.951 210.262 121.955V216.764L43.7517 216.428C36.7273 214.882 30.372 208.163 28.9671 201.108V42.6674C29.9706 36.8216 34.4528 30.9758 40.0722 28.6913L45.0227 27.0787L455.981 27.4146C463.005 28.8929 469.36 35.6793 470.765 42.7346V201.108H470.966ZM236.821 104.418C239.831 99.2437 245.384 95.2793 251.271 94.7418C258.295 94.4058 264.316 97.5639 268.33 103.074C271.341 108.315 272.745 116.512 269.2 121.82C266.39 126.725 261.44 130.488 256.222 131.496C248.528 132.571 241.638 129.413 237.222 122.896C233.61 117.856 234.279 109.726 236.821 104.418ZM313.554 104.216C316.363 98.6389 322.117 95.4137 327.803 94.7418C334.627 94.3386 340.045 97.5638 344.461 102.335H365.935V124.239H344.126C339.711 129.413 333.757 132.504 326.733 131.496C321.515 130.623 316.363 127.599 313.554 122.627L347.07 122.425L347.471 121.686V104.418L313.554 104.216ZM187.584 123.971C182.7 130.018 175.676 133.109 168.116 131.227C161.292 129.951 155.472 122.963 154.268 116.445C153.198 108.382 156.944 100.923 163.902 96.8919C173 91.9197 184.439 95.9512 189.055 105.157C191.664 111.137 191.129 118.73 187.584 123.971Z" fill="#00589B"/>
<path d="M7.70125 301.233H10.8487C16.1391 301.233 17.8803 297.143 17.8803 294.327C17.8803 289.968 14.7998 288.493 11.7193 288.493H7.70125M0 283.33H13.3265C20.6929 283.33 25.5815 286.817 25.5815 293.388C25.5815 299.088 22.7019 302.373 19.0857 304.519L28.1933 320.947L20.0902 322.422L12.322 306.329H7.70125V321.685H0V283.33ZM52.1676 307.67C52.1676 303.111 50.5604 297.679 45.4708 297.679C40.4483 297.679 38.8411 303.111 38.8411 307.67C38.8411 312.498 40.2474 318.332 45.4708 318.332C50.7613 318.332 52.1676 312.498 52.1676 307.67ZM31.1398 307.67C31.1398 298.752 38.1714 293.589 45.4708 293.589C52.8373 293.589 59.8688 298.752 59.8688 307.67C59.8688 316.186 54.0427 322.355 45.4708 322.355C36.899 322.355 31.1398 316.186 31.1398 307.67ZM73.1284 308.341C73.1284 314.108 75.941 317.997 79.8921 317.997C84.7807 317.997 86.3879 312.297 86.3879 307.469C86.3879 302.775 84.3119 298.015 80.16 298.015C75.5392 298.015 73.1284 302.038 73.1284 308.341ZM73.1284 298.082H73.2623C75.2044 295.265 78.7536 293.656 82.035 293.656C90.6738 293.656 94.1561 301.367 94.1561 307.469C94.1561 314.711 89.2005 322.422 81.3654 322.422C78.017 322.422 75.2044 320.813 73.1284 318.399V335.498H65.8289V294.327H73.1284V298.082ZM117.193 304.72C117.461 300.563 115.987 297.679 112.371 297.679C108.219 297.679 106.344 301.032 106.411 304.72M106.277 308.676C106.143 313.839 109.76 317.661 114.246 317.661C116.925 317.661 119.805 316.723 121.613 315.449L123.689 319.271C119.939 321.484 116.054 322.355 112.974 322.355C104.67 322.355 98.509 316.454 98.509 307.402C98.509 298.953 104.67 293.589 112.505 293.589C121.077 293.589 124.626 300.429 124.091 308.609H106.277V308.676ZM137.216 299.088H137.35L138.823 296.942C139.694 295.802 141.301 293.589 143.511 293.589C145.185 293.589 146.926 294.461 148.467 296.07L145.721 301.099C144.516 300.496 143.712 300.16 142.239 300.16C139.694 300.16 137.283 302.172 137.283 308.14V321.685H129.984V294.26H137.216M176.392 321.752V288.493H164.539V283.33H195.947V288.493H184.093V321.752M213.425 304.72C213.693 300.563 212.22 297.679 208.603 297.679C204.451 297.679 202.576 301.032 202.643 304.72M202.509 308.676C202.375 313.839 205.992 317.661 210.478 317.661C213.157 317.661 216.037 316.723 217.845 315.449L219.921 319.271C216.171 321.484 212.287 322.355 209.206 322.355C200.902 322.355 194.741 316.454 194.741 307.402C194.741 298.953 200.902 293.589 208.737 293.589C217.309 293.589 220.858 300.429 220.323 308.609H202.509V308.676ZM247.645 320.277C245.368 321.618 242.355 322.422 239.877 322.422C228.493 322.422 224.742 313.772 224.742 308.14C224.742 300.429 230.569 293.656 240.279 293.656C242.489 293.656 245.168 294.193 247.377 295.534L245.636 299.758C244.9 299.423 244.029 299.155 243.225 298.953C242.422 298.752 241.618 298.618 240.748 298.618C236.663 298.618 232.511 301.434 232.511 307.805C232.511 313.303 235.658 317.527 240.815 317.527C242.489 317.527 244.364 317.125 246.172 316.186M259.699 297.545C262.177 294.93 265.593 293.656 269.075 293.656C275.504 293.656 278.919 297.143 278.919 304.049V321.752H271.62V304.921C271.62 301.099 269.945 298.551 266.128 298.551C262.579 298.551 259.766 300.898 259.766 305.391V321.752H252.467V281.385H259.699M293.585 297.545C296.063 294.93 299.478 293.656 302.96 293.656C309.389 293.656 312.805 297.143 312.805 304.049V321.752H305.505V304.921C305.505 301.099 303.831 298.551 300.014 298.551C296.465 298.551 293.652 300.898 293.652 305.391V321.752H286.352V294.327H293.585M339.725 307.67C339.725 303.111 338.118 297.679 333.029 297.679C328.006 297.679 326.399 303.111 326.399 307.67C326.399 312.498 327.805 318.332 333.029 318.332C338.386 318.332 339.725 312.498 339.725 307.67ZM318.698 307.67C318.698 298.752 325.729 293.589 333.029 293.589C340.395 293.589 347.427 298.752 347.427 307.67C347.427 316.186 341.601 322.355 333.029 322.355C324.524 322.355 318.698 316.186 318.698 307.67ZM353.387 281.385H360.686V321.685H353.387V281.385ZM387.607 307.67C387.607 303.111 386 297.679 380.91 297.679C375.888 297.679 374.281 303.111 374.281 307.67C374.281 312.498 375.687 318.332 380.91 318.332C386.268 318.332 387.607 312.498 387.607 307.67ZM366.579 307.67C366.579 298.752 373.611 293.589 380.977 293.589C388.344 293.589 395.375 298.752 395.375 307.67C395.375 316.186 389.549 322.355 380.977 322.355C372.406 322.355 366.579 316.186 366.579 307.67ZM407.496 307.536C407.496 312.834 409.572 317.997 413.791 317.997C418.68 317.997 420.756 312.699 420.756 307.201C420.756 302.44 418.546 298.015 414.126 298.015C409.372 298.015 407.496 302.172 407.496 307.536ZM428.055 319.271C428.055 331.475 420.957 335.431 412.787 335.431C408.702 335.431 404.483 334.492 401.268 332.816L402.675 328.323C405.354 329.999 408.501 330.67 412.184 330.67C417.006 330.67 420.756 327.72 420.756 321.349V317.729H420.622C418.814 320.008 415.934 322.355 411.782 322.355C404.483 322.355 399.728 316.454 399.728 307.67C399.728 300.563 405.019 293.589 412.452 293.589C415.8 293.589 419.082 295.131 420.622 297.612H420.756V294.26H428.055V319.271ZM442.788 321.752H435.489V294.327H442.788V321.752ZM434.752 286.079C434.752 284 436.493 281.855 438.971 281.855C441.516 281.855 443.458 283.933 443.458 286.079C443.458 288.426 441.717 290.706 439.038 290.706C436.56 290.639 434.752 288.426 434.752 286.079ZM467.432 304.72C467.7 300.563 466.227 297.679 462.611 297.679C458.459 297.679 456.584 301.032 456.651 304.72M456.517 308.676C456.383 313.839 459.999 317.661 464.486 317.661C467.164 317.661 470.044 316.723 471.852 315.449L473.928 319.271C470.178 321.484 466.294 322.355 463.213 322.355C454.909 322.355 448.748 316.454 448.748 307.402C448.748 298.953 454.842 293.589 462.745 293.589C471.316 293.589 474.866 300.429 474.33 308.609H456.517V308.676ZM495.09 299.423C493.416 298.216 491.741 297.679 490.402 297.679C488.728 297.679 487.121 298.618 487.121 300.496C487.121 302.708 489.732 303.982 492.813 306.195C496.697 309.079 497.835 311.962 497.835 314.443C497.835 318.265 493.617 322.355 487.589 322.355C483.839 322.355 481.027 321.014 478.482 319.204L480.759 315.449C482.433 316.79 484.777 318.064 486.719 318.064C488.795 318.064 490.67 316.991 490.67 314.644C490.67 312.096 487.79 310.621 485.179 308.743C482.031 306.598 479.888 304.519 479.888 301.099C479.888 296.741 484.04 293.522 489.398 293.522C492.411 293.522 495.358 294.327 497.367 296.07" fill="#7D868C"/>
</svg>
