<svg width="500" height="350" viewBox="0 0 500 350" fill="none" xmlns="http://www.w3.org/2000/svg">
<mask id="mask0_7_16032" style="mask-type:luminance" maskUnits="userSpaceOnUse" x="0" y="0" width="499" height="349">
<path d="M0.110352 0.915527H498.279V348.901H0.110352V0.915527Z" fill="white"/>
</mask>
<g mask="url(#mask0_7_16032)">
<path fill-rule="evenodd" clip-rule="evenodd" d="M206.96 39.0107C223.04 22.2708 245.421 11.9045 270.147 11.9045C303.114 11.9045 331.685 30.2195 347.07 57.5089C360.726 51.4041 375.518 48.2523 390.476 48.2598C449.817 48.2598 497.985 96.7946 497.985 156.685C497.985 216.575 449.817 265.11 390.476 265.11C383.224 265.11 376.154 264.381 369.231 263.003C355.769 286.996 330.037 303.296 300.733 303.296C288.802 303.32 277.024 300.614 266.3 295.384C252.656 327.436 220.879 349.963 183.883 349.963C145.238 349.963 112.454 325.604 99.817 291.355C94.1924 292.542 88.4592 293.139 82.7107 293.135C36.74 293.135 -0.439453 255.406 -0.439453 209.069C-0.439453 177.934 16.3005 150.828 41.1356 136.176C35.8668 124.038 33.1548 110.946 33.1686 97.714C33.1686 44.2342 76.5752 1.01074 130.055 1.01074C161.374 1.01074 189.396 15.9375 206.978 39.106" fill="#00A1E0"/>
</g>
<path fill-rule="evenodd" clip-rule="evenodd" d="M72.1621 181.868C71.8489 182.685 72.2738 182.855 72.3746 183C73.3104 183.678 74.261 184.168 75.2134 184.72C80.305 187.412 85.1035 188.2 90.1218 188.2C100.342 188.2 106.697 182.76 106.697 174.005V173.833C106.697 165.738 99.5174 162.789 92.8141 160.683L91.9368 160.399C86.8636 158.755 82.4863 157.322 82.4863 153.989V153.819C82.4863 150.962 85.0504 148.855 89.0064 148.855C93.402 148.855 98.6401 150.319 101.992 152.17C101.992 152.17 102.984 152.811 103.345 151.853C103.541 151.335 105.25 146.762 105.433 146.249C105.627 145.712 105.287 145.308 104.937 145.099C101.091 142.755 95.7793 141.161 90.2848 141.161L89.2647 141.165C79.9057 141.165 73.3672 146.824 73.3672 154.919V155.093C73.3672 163.628 80.5833 166.412 87.3233 168.335L88.4075 168.672C93.3159 170.181 97.565 171.493 97.565 174.936V175.108C97.565 178.277 94.7995 180.639 90.3672 180.639C88.6438 180.639 83.1511 180.61 77.1987 176.848C76.479 176.429 76.0687 176.126 75.5137 175.788C75.2207 175.61 74.4881 175.289 74.1694 176.249L72.1548 181.853M221.788 181.853C221.475 182.67 221.9 182.841 222.005 182.985C222.937 183.663 223.891 184.154 224.843 184.705C229.935 187.397 234.734 188.185 239.752 188.185C249.972 188.185 256.327 182.745 256.327 173.991V173.819C256.327 165.723 249.166 162.775 242.444 160.668L241.567 160.385C236.494 158.74 232.116 157.308 232.116 153.974V153.804C232.116 150.947 234.68 148.841 238.636 148.841C243.032 148.841 248.252 150.304 251.622 152.156C251.622 152.156 252.614 152.797 252.977 151.839C253.171 151.32 254.882 146.747 255.047 146.234C255.243 145.698 254.9 145.293 254.552 145.084C250.706 142.74 245.395 141.146 239.9 141.146L238.878 141.15C229.519 141.15 222.981 146.809 222.981 154.905V155.079C222.981 163.614 230.197 166.397 236.937 168.32L238.019 168.657C242.946 170.167 247.177 171.478 247.177 174.921V175.093C247.177 178.262 244.411 180.625 239.979 180.625C238.252 180.625 232.745 180.595 226.81 176.833C226.091 176.414 225.669 176.125 225.124 175.773C224.939 175.656 224.076 175.319 223.781 176.234L221.766 181.839M323.964 164.696C323.964 169.641 323.041 173.542 321.235 176.308C319.433 179.037 316.712 180.374 312.92 180.374C309.129 180.374 306.419 179.048 304.642 176.326C302.853 173.579 301.95 169.659 301.95 164.714C301.95 159.769 302.858 155.886 304.642 153.157C306.415 150.447 309.111 149.146 312.92 149.146C316.73 149.146 319.44 150.46 321.235 153.157C323.052 155.886 323.964 159.769 323.964 164.714M332.499 155.538C331.658 152.7 330.356 150.209 328.616 148.121C326.875 146.033 324.679 144.348 322.06 143.139C319.459 141.921 316.382 141.308 312.902 141.308C309.422 141.308 306.364 141.925 303.745 143.139C301.144 144.355 298.928 146.033 297.188 148.121C295.451 150.209 294.147 152.7 293.305 155.538C292.472 158.359 292.049 161.436 292.049 164.714C292.049 167.993 292.472 171.07 293.305 173.89C294.142 176.729 295.448 179.22 297.188 181.308C298.93 183.396 301.144 185.062 303.745 186.253C306.364 187.44 309.44 188.044 312.902 188.044C316.364 188.044 319.44 187.44 322.041 186.253C324.642 185.066 326.858 183.396 328.598 181.308C330.336 179.22 331.638 176.729 332.481 173.89C333.312 171.07 333.735 167.993 333.735 164.714C333.735 161.454 333.312 158.359 332.481 155.538M402.627 178.982C402.347 178.152 401.538 178.465 401.538 178.465C400.298 178.94 398.973 179.379 397.563 179.599C396.142 179.822 394.56 179.934 392.893 179.934C388.772 179.934 385.475 178.705 383.131 176.271C380.768 173.835 379.45 169.916 379.468 164.604C379.481 159.769 380.649 156.143 382.746 153.359C384.816 150.612 388.003 149.183 392.215 149.183C395.732 149.183 398.424 149.592 401.245 150.474C401.245 150.474 401.913 150.766 402.234 149.885C402.983 147.815 403.536 146.331 404.34 144.06C404.567 143.41 404.01 143.135 403.807 143.057C402.701 142.625 400.089 141.916 398.111 141.617C396.261 141.335 394.118 141.189 391.701 141.189C388.111 141.189 384.924 141.802 382.195 143.018C379.466 144.233 377.158 145.912 375.327 148C373.495 150.088 372.104 152.579 371.169 155.418C370.245 158.238 369.777 161.333 369.777 164.612C369.777 171.681 371.682 177.414 375.455 181.608C379.228 185.82 384.906 187.945 392.305 187.945C396.682 187.945 401.169 187.06 404.393 185.784C404.393 185.784 405.008 185.487 404.741 184.769L402.635 178.982M417.561 159.934C417.97 157.187 418.723 154.897 419.906 153.121C421.677 150.41 424.375 148.927 428.166 148.927C431.957 148.927 434.466 150.418 436.261 153.121C437.451 154.907 437.972 157.278 438.166 159.934L417.47 159.93L417.561 159.934ZM446.316 153.89C445.589 151.161 443.788 148.396 442.616 147.132C440.748 145.135 438.935 143.725 437.122 142.956C434.504 141.843 431.688 141.272 428.843 141.277C425.235 141.277 421.957 141.886 419.301 143.126C416.646 144.375 414.411 146.075 412.653 148.2C410.897 150.324 409.576 152.833 408.734 155.709C407.891 158.548 407.466 161.661 407.466 164.921C407.466 168.255 407.908 171.35 408.776 174.152C409.653 176.972 411.065 179.445 412.97 181.496C414.875 183.566 417.31 185.178 420.241 186.313C423.153 187.44 426.688 188.024 430.735 188.011C439.087 187.983 443.483 186.125 445.277 185.117C445.598 184.938 445.9 184.628 445.523 183.736L443.636 178.443C443.347 177.654 442.549 177.94 442.549 177.94C440.479 178.712 437.549 180.101 430.68 180.082C426.193 180.075 422.878 178.751 420.79 176.676C418.666 174.551 417.604 171.456 417.439 167.06L446.376 167.082C446.376 167.082 447.138 167.075 447.217 166.331C447.248 166.024 448.208 160.397 446.354 153.896L446.316 153.89ZM186.243 159.934C186.651 157.187 187.406 154.897 188.587 153.121C190.36 150.41 193.056 148.927 196.847 148.927C200.638 148.927 203.147 150.418 204.942 153.121C206.131 154.907 206.651 157.278 206.847 159.934L186.151 159.93L186.243 159.934ZM214.997 153.89C214.272 151.161 212.47 148.396 211.298 147.132C209.429 145.135 207.616 143.725 205.803 142.956C203.185 141.843 200.369 141.272 197.525 141.277C193.917 141.277 190.638 141.886 187.983 143.126C185.327 144.375 183.093 146.075 181.334 148.2C179.582 150.324 178.257 152.833 177.415 155.709C176.574 158.548 176.151 161.661 176.151 164.921C176.151 168.255 176.589 171.35 177.462 174.152C178.338 176.972 179.752 179.445 181.638 181.496C183.543 183.566 185.979 185.178 188.909 186.313C191.821 187.44 195.338 188.024 199.404 188.011C207.755 187.983 212.151 186.125 213.946 185.117C214.265 184.938 214.569 184.628 214.19 183.736L212.303 178.443C212.012 177.654 211.213 177.94 211.213 177.94C209.144 178.712 206.213 180.101 199.345 180.082C194.876 180.075 191.543 178.751 189.455 176.676C187.331 174.551 186.268 171.456 186.103 167.06L215.041 167.082C215.041 167.082 215.803 167.075 215.882 166.331C215.913 166.024 216.873 160.397 215.017 153.896L214.997 153.89ZM123.788 178.799C122.655 177.894 122.497 177.672 122.122 177.084C121.549 176.2 121.256 174.941 121.256 173.33C121.256 170.802 122.098 168.971 123.838 167.744C123.82 167.747 126.329 165.582 132.226 165.656C134.851 165.703 137.47 165.926 140.065 166.324V179.456H140.069C140.069 179.456 136.406 180.245 132.267 180.494C126.387 180.848 123.787 178.802 123.805 178.808L123.788 178.799ZM135.29 158.469C134.118 158.383 132.598 158.341 130.785 158.341C128.312 158.341 125.913 158.648 123.679 159.253C121.426 159.861 119.393 160.802 117.653 162.055C115.908 163.3 114.473 164.929 113.459 166.817C112.435 168.722 111.913 170.956 111.913 173.483C111.913 176.048 112.358 178.264 113.237 180.077C114.099 181.875 115.395 183.43 117.01 184.601C118.616 185.769 120.6 186.634 122.889 187.146C125.16 187.665 127.724 187.927 130.545 187.927C133.512 187.927 136.461 187.678 139.318 187.196C141.751 186.776 144.175 186.305 146.589 185.782C147.552 185.56 148.622 185.269 148.622 185.269C149.336 185.088 149.281 184.324 149.281 184.324L149.265 157.951C149.265 152.163 147.719 147.859 144.668 145.203C141.627 142.548 137.177 141.211 131.408 141.211C129.246 141.211 125.748 141.504 123.66 141.923C123.66 141.923 117.36 143.146 114.759 145.183C114.759 145.183 114.188 145.535 114.499 146.331L116.55 151.826C116.805 152.538 117.499 152.295 117.499 152.295C117.499 152.295 117.717 152.209 117.973 152.057C123.523 149.035 130.556 149.126 130.556 149.126C133.669 149.126 136.087 149.758 137.699 150.994C139.276 152.205 140.08 154.035 140.08 157.881V159.103C137.607 158.744 135.318 158.537 135.318 158.537L135.29 158.469ZM367.891 143.579C367.933 143.482 367.954 143.378 367.955 143.273C367.956 143.168 367.935 143.064 367.895 142.967C367.854 142.869 367.795 142.782 367.719 142.708C367.644 142.634 367.555 142.577 367.457 142.538C366.964 142.352 364.508 141.833 362.622 141.716C358.995 141.489 356.981 142.101 355.168 142.914C353.376 143.722 351.395 145.02 350.296 146.522L350.292 143.005C350.292 142.522 349.95 142.132 349.462 142.132H342.063C341.583 142.132 341.235 142.522 341.235 143.005V186.046C341.236 186.278 341.328 186.501 341.493 186.666C341.657 186.83 341.88 186.923 342.113 186.923H349.695C349.927 186.923 350.15 186.83 350.314 186.665C350.478 186.501 350.571 186.278 350.571 186.046V164.434C350.571 161.54 350.889 158.665 351.525 156.852C352.151 155.059 353.003 153.628 354.052 152.603C355.053 151.612 356.278 150.877 357.624 150.46C358.886 150.097 360.193 149.914 361.506 149.914C363.017 149.914 364.675 150.302 364.675 150.302C365.232 150.364 365.541 150.024 365.73 149.522C366.226 148.201 367.635 144.247 367.909 143.46" fill="#FFFFFE"/>
<path fill-rule="evenodd" clip-rule="evenodd" d="M297.072 123.714C296.134 123.431 295.181 123.204 294.216 123.036C292.919 122.82 291.605 122.718 290.29 122.732C285.064 122.732 280.945 124.208 278.053 127.124C275.182 130.018 273.227 134.426 272.247 140.227L271.894 142.185H265.335C265.335 142.185 264.535 142.152 264.366 143.025L263.29 149.033C263.214 149.608 263.462 149.967 264.231 149.963H270.616L264.138 186.122C263.63 189.034 263.05 191.43 262.407 193.245C261.773 195.036 261.154 196.379 260.392 197.353C259.654 198.296 258.954 198.991 257.747 199.395C256.751 199.73 255.605 199.884 254.348 199.884C253.649 199.884 252.718 199.767 252.031 199.63C251.345 199.494 250.987 199.34 250.473 199.124C250.473 199.124 249.724 198.839 249.429 199.589C249.189 200.203 247.487 204.882 247.286 205.461C247.081 206.033 247.368 206.483 247.731 206.613C248.581 206.917 249.213 207.111 250.37 207.384C251.978 207.763 253.334 207.787 254.603 207.787C257.262 207.787 259.685 207.414 261.694 206.688C263.716 205.958 265.476 204.685 267.033 202.961C268.716 201.102 269.775 199.155 270.788 196.5C271.79 193.868 272.643 190.6 273.326 186.793L279.835 149.963H289.352C289.352 149.963 290.154 149.992 290.321 149.122L291.398 143.115C291.473 142.54 291.227 142.181 290.454 142.185H281.218C281.264 141.976 281.683 138.727 282.744 135.668C283.196 134.362 284.048 133.309 284.769 132.586C285.443 131.897 286.273 131.38 287.189 131.08C288.193 130.77 289.239 130.619 290.29 130.633C291.16 130.633 292.013 130.738 292.663 130.873C293.559 131.064 293.907 131.165 294.141 131.234C295.083 131.522 295.209 131.243 295.394 130.787L297.603 124.721C297.83 124.069 297.277 123.795 297.072 123.714ZM167.998 186.199C167.998 186.683 167.654 187.077 167.171 187.077H159.509C159.024 187.077 158.68 186.683 158.68 186.199V124.536C158.68 124.055 159.024 123.665 159.509 123.665H167.171C167.654 123.665 167.998 124.055 167.998 124.536V186.199Z" fill="#FFFFFE"/>
</svg>
