<svg width="500" height="127" viewBox="0 0 500 127" fill="none" xmlns="http://www.w3.org/2000/svg">
<g clip-path="url(#clip0_8_16056)">
<path fill-rule="evenodd" clip-rule="evenodd" d="M184.56 67.4843C185.44 68.7736 185.88 70.5346 185.88 72.7987C185.88 74.5912 185.566 76.2264 184.906 77.673C184.245 79.0881 183.333 80.3459 182.233 81.3208C181.132 82.2956 179.78 83.0818 178.27 83.5849C176.761 84.1195 175.126 84.3711 173.396 84.3711C171.069 84.3711 168.899 83.9308 166.824 83.0818C164.717 82.2013 163.082 80.912 161.887 79.1509L165.88 75.5346C166.761 76.9182 167.893 77.956 169.245 78.5849C170.629 79.2348 172.054 79.5598 173.522 79.5598C174.308 79.5598 175.157 79.434 176.006 79.1509C176.855 78.8679 177.61 78.4591 178.333 77.956C178.994 77.4214 179.56 76.7925 180 76.0063C180.472 75.2516 180.692 74.3396 180.692 73.3019C180.692 71.8344 180.241 70.7233 179.34 69.9686C178.459 69.2453 177.358 68.5849 176.069 68.0818C174.78 67.5786 173.333 67.044 171.792 66.6038C170.251 66.1321 168.805 65.4403 167.516 64.5912C166.195 63.7107 165.126 62.6101 164.245 61.1635C163.333 59.717 162.893 57.8302 162.893 55.3774C162.893 54.2767 163.176 53.1132 163.616 51.8553C164.088 50.6604 164.811 49.4969 165.786 48.4591C166.761 47.4214 168.019 46.5723 169.56 45.8805C171.069 45.1887 172.956 44.8428 175.126 44.8428C177.075 44.8428 178.994 45.1258 180.755 45.6918C182.579 46.2579 184.151 47.4214 185.535 49.1195L181.572 52.8616C180.975 51.8554 180.094 51.0692 178.994 50.4717C177.893 49.9057 176.604 49.5912 175.157 49.5912C173.836 49.5912 172.673 49.7799 171.792 50.1258C170.849 50.5031 170.157 50.9748 169.623 51.5723C169.088 52.1698 168.679 52.7673 168.459 53.4906C168.239 54.1195 168.145 54.7799 168.145 55.3459C168.145 56.9182 168.585 58.1447 169.497 58.9937C170.377 59.8742 171.478 60.5346 172.767 61.0692C174.057 61.6352 175.472 62.1069 177.044 62.5157C178.585 62.9245 180 63.522 181.289 64.2767C182.579 65 183.711 66.0377 184.56 67.4843ZM217.327 78.5535H236.572V83.3333H212.453V45.7862H235.692V50.566H217.327V61.7296H234.402V66.5094H217.327V78.5535ZM278.522 45.7862L293.962 83.3019H288.27L284.654 74.0566H267.516L263.962 83.3019H258.27L274.119 45.7862H278.522ZM282.83 69.5912L276.132 52.3585H276.038L269.245 69.5912H282.83ZM335.786 67.1069V62.4214H348.648V80.912C347.799 81.4465 346.761 81.9811 345.66 82.3899C344.56 82.7987 343.396 83.1132 342.201 83.4591C341.006 83.7421 339.78 83.9623 338.553 84.0881C337.358 84.2453 336.163 84.3396 335.094 84.3396C332.012 84.3396 329.308 83.8365 326.918 82.7673C324.497 81.6981 322.516 80.2516 320.849 78.4591C319.214 76.6352 317.924 74.4969 317.075 72.1384C316.258 69.7799 315.786 67.2327 315.786 64.5912C315.786 61.8239 316.258 59.2138 317.17 56.7925C318.113 54.4025 319.402 52.327 321.038 50.566C322.673 48.805 324.654 47.3899 326.95 46.3837C329.256 45.3564 331.792 44.8428 334.56 44.8428C337.893 44.8428 340.597 45.283 342.673 46.1635C344.78 47.044 346.541 48.1761 347.956 49.717L344.497 53.6164C342.987 52.1384 341.384 51.1006 339.748 50.5032C338.05 49.9057 336.321 49.6226 334.497 49.6226C332.421 49.6226 330.566 50.0315 328.899 50.8176C327.264 51.6143 325.849 52.6834 324.654 54.0252C323.428 55.3774 322.547 56.9497 321.887 58.7421C321.226 60.566 320.912 62.5157 320.912 64.5598C320.912 66.6667 321.258 68.6793 321.981 70.4717C322.694 72.2746 323.669 73.847 324.906 75.1887C326.195 76.5409 327.673 77.6101 329.34 78.3648C331.038 79.1509 332.893 79.5283 334.906 79.5283C336.604 79.5283 338.239 79.3396 339.78 78.9937C341.352 78.6793 342.673 78.2076 343.742 77.5786V67.1069H335.786ZM392.547 45.7862L407.956 83.3019H402.264L398.679 74.0566H381.509L377.956 83.3019H372.264L388.145 45.7862H392.547ZM396.855 69.5912L390.157 52.3585H390.063L383.27 69.5912H396.855ZM423.239 45.7862H451.289V50.566H439.685V83.3019H434.843V50.566H423.239V45.7862ZM480.692 78.522H499.969V83.3019H475.818V45.7862H499.057V50.5346H480.692V61.7296H497.767V66.478H480.692V78.522Z" fill="#979E96"/>
<path fill-rule="evenodd" clip-rule="evenodd" d="M63.7107 126.415C62.2013 120.472 60.7233 114.654 59.3082 108.931C60.8805 108.145 62.1698 107.547 63.8365 106.667C70.8805 103.585 77.673 99.9686 83.9937 95.4717C91.8868 89.8428 99.2768 83.5535 105.723 76.1321C110.786 70.3459 114.937 63.8994 117.359 56.3522C118.962 51.3522 119.748 46.195 119.025 40.9119C118.459 36.5094 116.918 32.5157 114.497 28.8679C111.604 24.4654 107.893 21.1006 103.302 18.6792C97.5786 15.6604 91.478 14.5597 85.1887 14.7484C79.5912 14.9686 74.151 16.2264 68.8994 18.2704C59.2139 21.9497 50.3459 27.2327 41.7925 33.239C39.3082 35 37.0126 36.9811 35.0629 39.3396C33.9937 40.6289 33.1447 42.0755 32.7988 43.805C32.2013 46.6667 33.7736 48.8994 36.6038 49.0252C38.5535 49.1195 40.3459 48.3333 42.0755 47.4843C47.4529 44.8428 52.2956 41.2893 57.2642 38.0503C61.4151 35.3459 65.5346 32.7673 70.0629 30.8491C74.5283 29.0252 79.1195 27.9874 83.9308 28.8365C89.1824 29.7484 93.3963 32.2956 95.9749 37.3585C97.7673 40.8805 97.9246 44.6226 96.9497 48.4277C95.8805 52.7673 93.4906 56.2893 90.5975 59.4969C86.6981 63.9623 82.1698 67.6415 77.1384 70.7233C71.8868 73.8994 66.6981 77.2013 61.3208 80.1572C55 83.5849 48.3334 86.0692 41.5095 88.1446C35.7547 89.8428 29.9371 90.6289 23.9937 90.0943C19.0252 89.6226 14.3082 88.0818 10.1573 85.1258C6.44657 82.3899 3.67927 78.8365 1.98116 74.3711C-0.597456 67.5157 -0.440223 60.5346 1.195 53.4906C3.05034 45.5031 6.91827 38.6478 11.6667 32.2641C15.3145 27.327 19.5598 23.0189 24.0252 19.0881C30.3774 13.4906 37.2013 8.42767 44.434 4.18239C46.8868 2.73585 49.4025 1.3522 51.7296 0C52.5157 1.76101 53.3334 3.42767 54.1195 5.15723C51.9497 6.3522 49.8113 7.51572 47.7044 8.71069C38.6478 13.9623 30.3774 20.283 23.0189 27.8931C19.0252 32.0126 15.5975 36.6667 13.0503 41.8868C10.3459 47.3585 8.93085 53.2075 9.55978 59.4025C10.2516 66.1635 13.2705 71.4151 19.2768 74.5283C22.8302 76.3522 26.6667 76.9182 30.5975 76.8239C36.0378 76.6981 41.1321 75.1258 46.195 73.2076C53.7107 70.3774 60.7233 66.5094 67.5786 62.2013C71.5723 59.6855 75.5661 57.0755 78.9623 53.7107C80.7233 51.8868 82.5158 50.0943 83.4591 47.5472C85.0944 43.0818 82.7673 39.2453 78.2076 38.7736C75.7233 38.5535 73.4591 39.4025 71.2579 40.4403C65.4403 43.2704 60.2201 47.1384 54.7799 50.5975C50.6604 53.3019 46.4151 55.8805 41.8868 57.7359C38.7422 59.0252 35.4403 59.8113 32.0441 59.4025C26.1636 58.7107 22.4843 53.8365 23.1132 47.7358C23.5849 42.9245 25.8491 38.9623 28.868 35.4403C32.2642 31.5409 36.1635 28.3648 40.3774 25.566C46.8868 21.2579 53.3963 17.1384 60.4717 13.8679C68.6164 10.0629 76.9497 7.04403 85.9434 6.19497C92.4214 5.59748 98.8365 5.97484 105.189 7.7044C110.786 9.21384 115.943 11.6667 120.535 15.2516C125.157 18.805 128.868 23.2075 131.667 28.3962C134.182 33.1447 135.598 38.1761 136.069 43.5535C136.509 49.2138 135.881 54.7799 134.277 60.1572C132.767 65.4403 130.692 70.4717 127.893 75.1572C123.962 81.6981 119.34 87.6415 113.962 92.956C108.522 98.3648 102.987 103.711 96.761 108.145C88.6793 113.994 80.2516 119.151 71.1321 123.082C68.6793 124.245 66.2893 125.314 63.7107 126.415Z" fill="#6ABF4B"/>
</g>
<defs>
<clipPath id="clip0_8_16056">
<rect width="500" height="126.415" fill="white"/>
</clipPath>
</defs>
</svg>
