<svg width="500" height="166" viewBox="0 0 500 166" fill="none" xmlns="http://www.w3.org/2000/svg">
<g clip-path="url(#clip0_8_16071)">
<path fill-rule="evenodd" clip-rule="evenodd" d="M188.004 127.865L178.715 164.641H168.766L162.374 141.656L155.353 164.641H145.561L136.524 127.865H145.088L151.165 155.888L160.202 127.865H166.278L174.213 155.888L180.731 127.865H188.004ZM218.734 165.554C203.59 165.554 197.261 155.51 197.261 146.253C197.261 134.981 205.699 126.921 218.734 126.921C230.668 126.921 240.208 133.911 240.208 146.253C240.208 156.959 232.588 165.554 218.734 165.554ZM218.734 133.218C211.398 133.218 206.14 138.602 206.14 146.253C206.14 154.377 211.87 159.289 218.734 159.289C225.945 159.289 231.36 154.093 231.36 146.253C231.36 139.925 227.362 133.218 218.734 133.218ZM279.282 164.641L266.782 145.309H271.064C276.323 145.309 279.314 142.884 279.314 139.547C279.314 136.524 276.795 133.785 271.064 133.785H263.004V164.641H254.692V127.865H272.04C283.092 127.865 287.846 133.659 287.846 139.547C287.846 147.324 280.731 149.402 279.156 149.906L288.98 164.641H279.282ZM6.23434 153.59C7.17892 154.881 10.2331 159.163 18.1046 159.163C23.9296 159.163 26.1651 157.022 26.1651 154.534C26.1651 152.078 23.4258 150.787 19.3011 149.969C18.451 149.811 15.9636 149.308 15.2394 149.15C10.0756 148.143 2.01519 146.285 2.01519 137.784C2.01519 130.857 8.15499 126.826 17.5064 126.826C29.2822 126.826 33.7847 133.47 34.1626 133.942L28.4321 138.319C27.6764 137.311 24.7482 133.124 17.4119 133.124C13.6021 133.124 10.5165 134.446 10.5165 136.933C10.5165 140.145 14.6097 140.869 17.5064 141.436C18.6084 141.656 20.718 142.066 22.2608 142.381C28.9044 143.64 34.8867 147.103 34.8867 153.904C34.8867 161.398 27.6764 165.491 18.1676 165.491C5.73056 165.491 1.1021 159.32 0.314941 158.344L6.20285 153.621L6.23434 153.59ZM353.904 153.59C354.849 154.849 357.903 159.163 365.775 159.163C371.6 159.163 373.867 156.99 373.867 154.503C373.867 152.015 371.096 150.756 366.971 149.937C366.121 149.78 363.634 149.276 362.909 149.119C357.777 148.111 349.685 146.253 349.685 137.752C349.685 130.825 355.825 126.795 365.176 126.795C376.952 126.795 381.455 133.438 381.833 133.911L376.102 138.287C375.315 137.28 372.418 133.092 365.082 133.092C361.272 133.092 358.186 134.415 358.186 136.902C358.186 140.114 362.28 140.838 365.176 141.404C366.278 141.625 368.388 142.034 369.931 142.349C376.574 143.609 382.557 147.072 382.557 153.873C382.557 161.367 375.346 165.46 365.838 165.46C353.401 165.46 348.804 159.289 347.985 158.313C347.985 158.313 353.873 153.59 353.904 153.59ZM324.496 144.962L340.365 164.61H330.542L314.893 145.277L329.503 127.834H338.948L324.496 144.962ZM303.275 127.802H311.587V164.578H303.275V127.802ZM69.8678 144.962L85.7369 164.578H75.9132L60.2961 145.246L74.8741 127.802H84.32L69.8678 144.962ZM48.6462 127.834H56.9585V164.61H48.6462V127.834ZM113.697 150.063V164.61H105.479V150.063L90.5228 127.834H100.22L110.013 143.262L120.025 127.834H128.432L113.728 150.063H113.697ZM390.491 138.35C387.5 138.35 385.076 135.926 385.076 132.935C385.076 129.944 387.5 127.519 390.491 127.519C393.482 127.519 395.907 129.944 395.907 132.935C395.907 135.926 393.482 138.35 390.491 138.35ZM395.088 132.903C395.088 130.384 393.042 128.338 390.491 128.338C387.941 128.338 385.894 130.384 385.894 132.903C385.894 135.454 387.941 137.5 390.491 137.5C393.042 137.5 395.088 135.454 395.088 132.903ZM388.413 130.101H390.869C391.373 130.101 391.751 130.164 392.003 130.258C392.255 130.363 392.464 130.542 392.632 130.794C392.779 131.046 392.853 131.318 392.853 131.612C392.853 132.022 392.727 132.336 392.475 132.62C392.192 132.903 391.814 133.061 391.278 133.155C391.467 133.25 391.625 133.344 391.751 133.407C391.94 133.596 392.16 133.879 392.349 134.163L393.294 135.674H392.38L391.625 134.509C391.436 134.163 391.247 133.911 391.09 133.753C390.964 133.585 390.848 133.459 390.743 133.376C390.617 133.313 390.523 133.25 390.397 133.25C390.313 133.229 390.176 133.218 389.987 133.218H389.137V135.674H388.413V130.101ZM389.137 132.557H390.712C391.058 132.557 391.31 132.525 391.499 132.462C391.688 132.368 391.845 132.274 391.94 132.116C392.034 131.959 392.097 131.801 392.097 131.612C392.097 131.36 392.003 131.171 391.814 130.983C391.625 130.815 391.32 130.731 390.901 130.731H389.137V132.557Z" fill="#002C55"/>
<path d="M498.363 6.95861C500.22 6.01402 500.346 6.23442 498.52 7.27347C498.52 7.27347 458.281 30.1324 422.827 49.4019L419.805 60.611C425.472 64.8301 429.188 67.6324 429.188 67.6324C430.195 68.3566 430.006 68.64 428.967 67.9788C428.967 67.9788 425.126 65.4599 419.301 61.5871H400.063C395.718 63.917 391.121 66.31 386.429 68.7029L385.138 73.6463C386.272 74.4439 387.395 75.2311 388.507 76.0077C393.199 79.2823 398.268 82.9347 403.274 86.5871H411.461C427.047 78.4007 445.151 69.7735 445.151 69.7735C447.009 68.8919 447.198 69.2067 445.403 70.2772C445.403 70.2772 429.093 79.849 413.98 88.0669L412.563 93.3251C425.189 102.582 435.453 110.296 435.453 110.296C436.807 111.272 436.618 111.587 435.233 110.642C435.233 110.642 424.118 103.369 410.863 94.4271H401.984C397.45 96.7571 392.821 99.0871 388.539 101.228L387.468 105.29H380.321C374.874 107.935 371.19 109.698 371.19 109.698C369.395 110.548 369.206 110.17 370.938 109.194C370.938 109.194 373.929 107.462 378.558 104.786L379.912 99.6223H387.531C391.499 97.3868 395.844 94.9624 400.126 92.6009L401.354 88.0039C396.442 84.6349 391.499 81.2659 386.965 78.0858C386.062 77.4351 385.128 76.7739 384.162 76.1022H372.04C340.743 92.1601 310.201 107.336 310.201 107.336C308.753 108.061 308.627 107.809 310.012 106.99C310.012 106.99 338.539 90.8062 368.734 74.213L370.812 66.4989C354.912 54.975 339.987 43.7659 339.987 43.7659C338.791 42.8843 339.011 42.6009 340.239 43.4196C340.239 43.4196 357.053 54.4397 373.992 65.9636H383.753C388.193 63.5707 392.412 61.2722 396.631 59.0052L399.496 48.2999C393.167 43.9863 386.587 39.4838 380.73 35.3591C360.548 21.2218 333.722 1.0707 333.722 1.0707C332.714 0.283543 332.903 0.0316536 333.973 0.724349C333.973 0.724349 362.059 19.1123 382.179 33.2495C388.224 37.4687 394.836 42.2546 401.196 46.8516H419.553C455.73 28.0858 498.331 6.89563 498.331 6.89563" fill="#5487B2"/>
</g>
<defs>
<clipPath id="clip0_8_16071">
<rect width="500" height="165.617" fill="white"/>
</clipPath>
</defs>
</svg>
