<svg width="500" height="102" viewBox="0 0 500 102" fill="none" xmlns="http://www.w3.org/2000/svg">
<g clip-path="url(#clip0_8_16077)">
<path fill-rule="evenodd" clip-rule="evenodd" d="M494.382 0.125977C502.021 0.125977 499.527 7.38608 499.527 7.38608L486.522 44.9492C485.543 28.0616 480.588 23.1058 460.954 23.1058C438.637 23.1058 435.48 31.7232 435.48 51.5149C435.48 72.9164 439.805 79.6399 460.954 79.6399C466.32 79.6399 470.992 79.5452 474.843 78.7245L469.54 94.0654C467.046 101.294 459.375 101.294 459.375 101.294H418.403C425.758 98.2952 428.41 91.7926 428.41 78.9139V23.7371H415.152L415.689 32.0389H415.247C411.869 24.7788 405.777 23.1058 397.98 23.1058C377.463 23.1058 376.831 36.0477 376.831 52.9985C376.831 69.2232 379.041 79.6399 397.98 79.6399C404.735 79.6399 411.774 78.3772 415.247 71.1171H415.562V81.6601C415.562 91.1298 413.163 93.4341 401.894 93.4341C394.413 93.4341 391.572 92.2977 391.572 84.6904H379.136C378.662 94.0969 381.724 98.8949 386.932 101.294H252.21C244.571 101.294 247.065 94.0654 247.065 94.0654L259.975 56.7863C260.733 73.9896 266.004 79.6399 285.322 79.6399C301.105 79.6399 311.112 78.8192 311.112 61.4265H297.854C297.854 69.6336 292.677 69.5389 285.322 69.5389C273.422 69.5389 273.107 65.751 273.107 53.8507H311.112C311.112 29.7346 308.081 23.1058 285.322 23.1058C279.167 23.1058 274.495 23.7687 270.897 25.1575L277.052 7.38608C279.546 0.125977 287.216 0.125977 287.216 0.125977H356.503V31.0919H355.966C353.125 24.3684 346.086 23.1058 339.331 23.1058C320.392 23.1058 318.182 33.5224 318.182 49.7472C318.182 66.698 318.814 79.6399 339.331 79.6399C347.128 79.6399 353.252 77.9669 356.598 70.7068H357.04L356.503 79.0086H369.761V0.125977H494.382ZM297.854 45.4227H273.138C273.138 35.6373 273.864 33.2068 285.322 33.2068C296.181 33.2068 297.854 34.0591 297.854 45.4227ZM343.245 69.5389C331.156 69.5389 331.471 62.2788 331.471 49.7472C331.471 35.8267 334.091 33.2068 343.245 33.2068C354.735 33.2068 356.314 37.9416 356.314 49.7472C356.314 62.9101 356.819 69.5389 343.245 69.5389ZM401.894 69.5389C390.12 69.5389 390.12 62.2788 390.12 49.7472C390.12 35.8267 392.74 33.2068 401.894 33.2068C413.384 33.2068 415.184 37.9416 415.184 49.7472C415.184 62.9101 415.184 69.5389 401.894 69.5389ZM460.985 33.2068C471.812 33.2068 473.485 34.0591 473.485 45.4227H448.769C448.769 35.6373 449.495 33.2068 460.985 33.2068ZM473.485 61.4265C473.485 69.6336 468.34 69.5389 460.985 69.5389C449.085 69.5389 448.769 65.751 448.769 53.8507H483.46L480.84 61.4265H473.485Z" fill="#EE2837"/>
<path fill-rule="evenodd" clip-rule="evenodd" d="M35.7955 38.7939C35.7955 32.1335 32.3233 32.1335 25.2526 32.1335C18.2134 32.1335 13.3523 32.1335 13.3523 39.4252C13.3523 44.8861 14.8359 45.107 26.4205 45.6436C39.4571 46.2749 51.0417 45.328 51.0417 63.2257C51.0417 78.1878 39.2677 79.6398 25.2526 79.6398C10.1957 79.6398 0.0947266 79.6398 0.0947266 61.6474H13.3523C13.5733 69.6335 15.4672 70.5805 25.2526 70.5805C33.144 70.5805 37.7841 70.8015 37.7841 63.2257C37.7841 58.3646 37.4685 55.9656 24.0846 55.7446C3.75634 55.429 0.0947266 52.6828 0.0947266 38.5729C0.0947266 23.4214 11.048 23.1057 25.2526 23.1057C36.1111 23.1057 49.0531 23.2951 49.0531 38.7939H35.7955ZM84.9748 23.1057C108.018 23.1057 110.985 29.9239 110.985 51.4201C110.985 72.7901 108.018 79.6398 84.9748 79.6398C61.9003 79.6398 58.9647 72.7901 58.9647 51.4201C58.9647 29.9239 61.9003 23.1057 84.9748 23.1057ZM72.2223 51.5464C72.2223 66.256 73.1692 69.5388 84.9748 69.5388C96.7488 69.5388 97.6957 66.256 97.6957 51.5464C97.6957 36.5843 96.7488 33.2068 84.9748 33.2068C73.1692 33.2068 72.2223 36.5843 72.2223 51.5464ZM122.254 0.03125H135.511V79.0085H122.254V0.03125ZM184.785 72.0641H184.47C181.818 79.4504 173.737 79.6398 167.298 79.6398C154.766 79.6398 146.654 77.0199 146.654 62.0578C146.654 48.8002 153.599 45.107 167.298 45.107C174.053 45.107 180.682 45.2017 183.838 51.4201H184.249V44.2547C184.249 35.3217 183.523 32.1651 172.475 32.1651C166.667 32.1651 162.027 32.6701 162.027 39.8355H148.769C148.769 23.7371 159.817 23.1057 172.475 23.1057C190.152 23.1057 197.506 25.852 197.506 44.381V79.0085H184.249L184.785 72.0641ZM159.943 62.0578C159.943 69.8545 163.1 70.6121 172.033 70.6121C179.104 70.6121 184.28 69.9807 184.28 62.0578C184.28 54.3873 178.567 54.1664 172.033 54.1664C165.309 54.1664 159.943 54.1664 159.943 62.0578ZM209.754 23.7371H222.696L222.38 30.9972H222.917C225.537 24.905 231.218 23.1057 237.658 23.1057C249.337 23.1057 252.178 30.0502 252.178 40.4669V44.9176H239.741V42.0451C239.741 36.4896 239.236 33.2068 233.018 33.2068C225.126 33.2068 222.79 37.7522 223.011 44.9176V79.0085H209.754V23.7371Z" fill="#040606"/>
</g>
<defs>
<clipPath id="clip0_8_16077">
<rect width="500" height="101.326" fill="white"/>
</clipPath>
</defs>
</svg>
