<svg width="500" height="109" viewBox="0 0 500 109" fill="none" xmlns="http://www.w3.org/2000/svg">
<g clip-path="url(#clip0_8_16053)">
<path d="M34.8147 12.6667C34.8147 9.33723 33.15 6.82203 25.7672 6.82203C18.3845 6.82203 16.7197 9.33723 16.7197 12.6667V21.7142C16.7006 23.1943 17.0162 24.6596 17.6429 26.0007C18.2695 27.3418 19.1911 28.5239 20.3387 29.4588L45.2374 50.9918C46.9227 52.2084 48.3165 53.7844 49.3179 55.6057C50.3194 57.4271 50.9034 59.4483 51.0278 61.5231V75.1305C51.0278 83.2371 41.4917 87.797 25.6948 87.797C8.34178 87.7065 0 83.7799 0 75.0762V63.3326H15.7426V74.66C15.7426 78.7314 18.8369 81.1019 25.7491 81.1019C32.1909 81.1019 35.2852 78.7314 35.2852 74.66V62.5545C35.2852 59.5688 34.0909 57.307 30.7433 54.3213L7.63607 34.1635C3.34757 30.5445 0.959033 27.6131 0.959033 23.198V12.8296C0.959033 4.36112 9.78937 0.163086 25.7491 0.163086C43.4279 0.181181 50.5573 4.36112 50.5573 12.2324V23.198H34.8147V12.6667Z" fill="#5A2A82"/>
<path d="M186.614 14.476C186.614 6.00753 193.038 0 214.281 0C235.524 0 241.93 6.07991 241.93 14.476V72.977C241.93 81.4454 235.488 87.453 214.263 87.453C193.038 87.453 186.596 81.3731 186.596 72.977L186.614 14.476ZM202.338 72.6513C202.338 77.4284 204.256 80.7759 214.263 80.7759C224.269 80.7759 226.187 77.5007 226.187 72.7237V14.8198C226.187 10.0427 224.378 6.71323 214.281 6.71323C204.184 6.71323 202.338 10.0427 202.338 14.8198V72.6513Z" fill="#5A2A82"/>
<path d="M250.633 0.706055H275.676C295.961 0.706055 301.914 4.05362 301.914 13.8249V34.9417C301.914 44.713 295.943 48.0606 275.676 48.0606H266.375V86.8562H250.633V0.706055ZM274.011 41.3654C281.159 41.3654 286.171 40.4245 286.171 35.9369V12.7573C286.171 8.34213 281.159 7.32881 274.011 7.32881H266.375V41.3654H274.011Z" fill="#5A2A82"/>
<path d="M341.217 12.5217C341.217 9.17415 339.552 6.67704 332.169 6.67704C324.786 6.67704 323.122 9.17415 323.122 12.5217V21.5692C323.105 23.0489 323.422 24.5134 324.048 25.854C324.675 27.1947 325.595 28.3772 326.741 29.3138L351.784 50.7745C353.447 51.999 354.821 53.5735 355.809 55.3869C356.797 57.2003 357.375 59.2084 357.502 61.2695V74.8589C357.502 82.9835 347.966 87.5253 332.169 87.5253C314.762 87.5253 306.42 83.5806 306.42 74.8589V63.079H322.09V74.4065C322.09 78.4598 325.184 80.8483 332.097 80.8483C338.538 80.8483 341.633 78.4598 341.633 74.4065V62.3552C341.633 59.3877 340.457 57.1077 337.109 54.1401L314.038 33.9823C309.731 30.3633 307.361 27.432 307.361 23.0168V12.6665C307.361 4.19803 316.173 0 332.169 0C349.812 0 356.959 4.16184 356.959 12.0512V23.0168H341.217V12.5217Z" fill="#5A2A82"/>
<path d="M457.368 12.5217C457.368 9.17415 455.704 6.67704 448.321 6.67704C440.938 6.67704 439.273 9.17415 439.273 12.5217V21.5692C439.257 23.0489 439.574 24.5134 440.2 25.854C440.827 27.1947 441.747 28.3772 442.892 29.3138L467.936 50.7745C469.601 51.9964 470.977 53.5702 471.966 55.3842C472.954 57.1981 473.53 59.2076 473.654 61.2695V74.8589C473.654 82.9835 464.118 87.5253 448.321 87.5253C430.914 87.5253 422.554 83.5806 422.554 74.8589V63.079H438.314V74.4065C438.314 78.4598 441.427 80.8483 448.339 80.8483C454.781 80.8483 457.875 78.4598 457.875 74.4065V62.3552C457.875 59.3877 456.681 57.1077 453.351 54.1401L430.172 33.9823C425.883 30.3633 423.495 27.432 423.495 23.0168V12.6665C423.495 4.21613 432.325 0 448.303 0C465.945 0 473.111 4.17994 473.111 12.0512V23.0168H457.368V12.5217Z" fill="#5A2A82"/>
<path d="M99.739 0.723633H115.5L81.0107 108.805H65.25L99.739 0.723633Z" fill="#5A2A82"/>
<path d="M74.8774 67.8557L53.5615 0.904297H69.3222L82.7487 43.1198L74.8774 67.8557Z" fill="#5A2A82"/>
<path d="M405.961 0.723633H421.721L387.232 108.805H371.472L405.961 0.723633Z" fill="#5A2A82"/>
<path d="M381.188 67.6569L359.854 0.723633H375.615L389.06 42.9211L381.188 67.6569Z" fill="#5A2A82"/>
<path d="M176.897 86.8557V13.8425C176.897 4.0712 170.925 0.723633 150.659 0.723633H120.404V86.8557H136.147V7.41877H149.103C156.341 7.41877 161.263 8.35971 161.263 12.8473V86.8557H176.897Z" fill="#5A2A82"/>
<path d="M479.698 11.3452C479.68 9.33526 480.259 7.36524 481.362 5.68482C482.465 4.0044 484.042 2.68922 485.893 1.90596C487.744 1.1227 489.786 0.906624 491.76 1.28511C493.734 1.6636 495.551 2.61962 496.982 4.032C498.412 5.44438 499.39 7.24955 499.794 9.21873C500.197 11.1879 500.006 13.2324 499.246 15.0932C498.486 16.954 497.191 18.5473 495.524 19.6711C493.858 20.795 491.895 21.3988 489.885 21.406C488.551 21.4301 487.226 21.1873 485.988 20.6919C484.749 20.1964 483.622 19.4583 482.673 18.5209C481.724 17.5835 480.971 16.4658 480.46 15.2335C479.95 14.0012 479.69 12.6792 479.698 11.3452ZM489.885 19.7232C490.974 19.7263 492.052 19.5097 493.054 19.0863C494.057 18.6629 494.964 18.0415 495.721 17.2592C496.478 16.4769 497.069 15.5499 497.459 14.5337C497.85 13.5175 498.031 12.433 497.992 11.3452C497.992 9.18562 497.134 7.11448 495.607 5.58742C494.08 4.06036 492.009 3.20247 489.849 3.20247C487.689 3.20247 485.618 4.06036 484.091 5.58742C482.564 7.11448 481.706 9.18562 481.706 11.3452C481.67 12.4385 481.855 13.5279 482.25 14.5479C482.646 15.5678 483.243 16.4971 484.007 17.2799C484.772 18.0626 485.686 18.6826 486.696 19.1025C487.707 19.5224 488.791 19.7336 489.885 19.7232ZM487.75 17.1537H485.94V5.591H490.374C493.106 5.591 494.463 6.60432 494.463 8.88429C494.485 9.29309 494.424 9.70212 494.283 10.0865C494.142 10.471 493.925 10.8228 493.644 11.1206C493.363 11.4184 493.025 11.6561 492.649 11.8191C492.274 11.9821 491.869 12.0671 491.459 12.069L494.753 17.1537H492.798L489.74 12.1414H487.714L487.75 17.1537ZM489.849 10.6576C491.333 10.6576 492.672 10.549 492.672 8.8481C492.672 7.4186 491.369 7.14717 490.157 7.14717H487.75V10.7662L489.849 10.6576Z" fill="#5A2A82"/>
</g>
<defs>
<clipPath id="clip0_8_16053">
<rect width="500" height="108.805" fill="white"/>
</clipPath>
</defs>
</svg>
