<svg width="500" height="117" viewBox="0 0 500 117" fill="none" xmlns="http://www.w3.org/2000/svg">
<path fill-rule="evenodd" clip-rule="evenodd" d="M199.683 12.6689H192.062V7.40576H214.528V12.6689H206.93V42.7769H199.683V12.6689ZM219.508 42.7769V7.40576H237.183V12.6689H226.753V22.0201H236.831V27.2806H226.753V37.5138H237.378V42.7769H219.508ZM243.3 42.7769V7.40576H250.545V37.5138H259.746V42.7769H243.3ZM264.928 42.7769V7.40576H282.603V12.6689H272.178V22.0201H282.253V27.2806H272.178V37.5138H282.801V42.7769H264.928ZM288.668 7.40576H298.193C302.743 7.40576 305.985 8.30327 307.92 10.1009C309.861 11.8985 310.828 14.9023 310.828 19.1123V29.0186C310.844 34.331 309.998 37.9496 308.286 39.8821C306.569 41.8068 303.342 42.7743 298.595 42.7743H288.668V7.40576ZM295.918 37.4619H297.822C300.092 37.4619 301.622 37.0002 302.403 36.0663C303.189 35.1429 303.583 33.3453 303.583 30.6943V19.0085C303.583 16.6221 303.148 14.9775 302.266 14.0722C301.394 13.1747 299.783 12.7208 297.449 12.7208H295.918V37.4619ZM320.055 29.5659L311.775 7.40576H319.513L323.681 21.5143L323.686 21.5065L328.267 7.40576H335.523L327.3 29.2909V42.7769H320.055V29.5659ZM344.905 42.7769H338.967V7.40576H349.621L355.737 37.257V7.40576H361.675V42.7769H351.076L344.905 12.6689V42.7769ZM368.219 42.7769V7.40576H385.897V12.6689H375.464V22.0201H385.547V27.2806H375.464V37.5138H386.094V42.7769H368.219ZM199.683 56.4704H192.062V51.2098H214.528V56.4704H206.93V86.5758H199.683V56.4704ZM219.508 86.5758V51.2098H237.183V56.4704H226.753V65.8242H236.831V71.0821H226.753V81.3153H237.378V86.5758H219.508ZM264.173 74.5476V75.6008C264.243 79.7511 263.473 82.703 261.873 84.4617C260.267 86.2256 257.551 87.1076 253.73 87.1076C249.663 87.1076 246.807 86.1504 245.139 84.2361C243.479 82.3269 242.651 79.0326 242.651 74.3712V63.4689C242.651 58.7712 243.479 55.4613 245.139 53.5548C246.807 51.6378 249.665 50.6807 253.73 50.6807C257.25 50.6807 259.87 51.5782 261.572 53.3654C263.172 55.0359 263.968 57.5157 263.953 60.8101V62.5376H256.755V61.4897C256.791 59.6454 256.552 58.2706 256.047 57.3627C255.536 56.447 254.765 55.9931 253.73 55.9931C252.379 55.9931 251.401 56.5145 250.794 57.5598C250.197 58.6026 249.896 60.3094 249.896 62.6699V73.5775C249.896 76.6487 250.179 78.7862 250.734 79.9923C251.292 81.1985 252.293 81.7951 253.733 81.7951C254.843 81.7951 255.673 81.2841 256.22 80.2595C256.757 79.2323 257.017 77.6759 256.98 75.6034V74.5502H264.173V74.5476ZM269.771 51.2098H277.016V65.8242H283.906V51.2098H291.151V86.5758H283.906V71.0821H277.016V86.5758H269.771V51.2098ZM304.105 86.5758H298.167V51.2098H308.818L314.932 81.0585V51.2098H320.875V86.5758H310.271L304.105 56.4704V86.5758ZM338.197 87.1076C334.169 87.1076 331.328 86.21 329.676 84.4072C328.024 82.5993 327.193 79.4917 327.193 75.095V60.5351C327.193 57.2408 328.112 54.7765 329.946 53.1346C331.774 51.5004 334.521 50.6807 338.2 50.6807C341.878 50.6807 344.633 51.5004 346.472 53.1346C348.311 54.7765 349.227 57.2408 349.227 60.5351V75.095C349.227 79.4917 348.396 82.5993 346.744 84.4072C345.092 86.21 342.244 87.1076 338.197 87.1076ZM338.197 81.7925C339.621 81.7925 340.604 81.3256 341.152 80.3944C341.704 79.4528 341.982 77.7901 341.982 75.4036V60.8334C341.982 59.2433 341.652 58.0371 341.014 57.2226C340.371 56.4003 339.429 55.9905 338.197 55.9905C336.965 55.9905 336.023 56.4003 335.39 57.2226C334.757 58.0345 334.444 59.2407 334.444 60.8334V75.4036C334.444 77.7901 334.716 79.4528 335.274 80.3944C335.821 81.3256 336.794 81.7925 338.197 81.7925ZM355.945 86.5758V51.2098H363.19V81.3153H372.385V86.5758H355.945ZM388.349 87.1076C384.32 87.1076 381.48 86.21 379.827 84.4072C378.175 82.5993 377.35 79.4917 377.35 75.095V60.5351C377.35 57.2408 378.263 54.7765 380.097 53.1346C381.926 51.5004 384.673 50.6807 388.351 50.6807C392.029 50.6807 394.784 51.5004 396.623 53.1346C398.468 54.7765 399.378 57.2408 399.378 60.5351V75.095C399.378 79.4917 398.548 82.5993 396.896 84.4072C395.243 86.21 392.395 87.1076 388.349 87.1076ZM388.349 81.7925C389.773 81.7925 390.756 81.3256 391.303 80.3944C391.861 79.4528 392.133 77.7901 392.133 75.4036V60.8334C392.133 59.2433 391.809 58.0371 391.166 57.2226C390.522 56.4003 389.581 55.9905 388.349 55.9905C387.116 55.9905 386.175 56.4003 385.542 57.2226C384.914 58.0345 384.595 59.2407 384.595 60.8334V75.4036C384.595 77.7901 384.867 79.4528 385.425 80.3944C385.972 81.3256 386.95 81.7925 388.349 81.7925ZM416.643 87.1076C412.571 87.1076 409.728 86.0492 408.122 83.9352C406.522 81.8237 405.71 78.0832 405.689 72.7189V64.343C405.71 59.5157 406.62 56.0242 408.444 53.8842C410.267 51.7468 413.238 50.6781 417.341 50.6781C420.939 50.6781 423.608 51.5497 425.341 53.2876C427.079 55.023 427.893 57.6325 427.774 61.1058V62.1589H420.581V61.1058C420.612 59.4041 420.322 58.1227 419.715 57.2641C419.108 56.4185 418.174 55.9905 416.929 55.9905C415.44 55.9905 414.4 56.5741 413.813 57.7362C413.23 58.8957 412.942 60.9631 412.942 63.9384V72.3142C412.942 76.174 413.219 78.7239 413.777 79.9534C414.335 81.1804 415.489 81.7925 417.227 81.7925C417.912 81.7925 419.006 81.6162 420.529 81.2452V73.0924H417.201V67.8293H427.774V85.7042C424.122 86.6018 420.378 87.0727 416.617 87.1076H416.643ZM434.036 51.2098H441.281V86.5758H434.036V51.2098ZM447.623 86.5758V51.2098H465.301V56.4704H454.868V65.8242H464.945V71.0821H454.868V81.3153H465.493V86.5758H447.623ZM485.08 62.1615V61.1084C485.106 59.2329 484.872 57.9178 484.377 57.1474C483.876 56.377 482.999 55.9931 481.741 55.9931C480.509 55.9931 479.578 56.3537 478.961 57.0618C478.348 57.7725 478.04 58.8335 478.04 60.2524C478.04 61.3574 478.411 62.3094 479.145 63.0953C479.863 63.8761 481.132 64.6958 482.95 65.5518C486.548 67.2534 489.059 68.911 490.488 70.5374C491.938 72.1534 492.651 74.1508 492.651 76.5009C492.651 80.052 491.731 82.7082 489.881 84.4643C488.042 86.2282 485.261 87.1102 481.557 87.1102C477.518 87.1102 474.652 86.3242 472.974 84.7393C471.298 83.1699 470.46 80.5838 470.46 77.0093V75.6319H477.604V76.6851C477.568 78.3867 477.887 79.6681 478.545 80.5241C479.204 81.3697 480.203 81.7951 481.554 81.7951C482.872 81.7951 483.855 81.4164 484.509 80.6408C485.157 79.8704 485.482 78.7109 485.482 77.1597C485.482 76.0054 485.093 75.012 484.296 74.1767C483.505 73.3363 482.128 72.4543 480.151 71.5179C476.712 69.9019 474.299 68.3014 472.932 66.7347C471.555 65.1731 470.87 63.2432 470.87 60.9398C470.87 57.5106 471.791 54.9451 473.64 53.2409C475.479 51.5367 478.26 50.6833 481.964 50.6833C485.775 50.6833 488.47 51.4796 490.034 53.0619C491.502 54.569 492.234 56.9892 492.213 60.338L492.223 61.1136V62.1667H485.08V62.1615ZM202.191 109.735V96.9853H204.764V109.735H202.191ZM220.53 109.735V96.9853H223.033L228.255 105.499V96.9853H230.647V109.735H228.058L222.922 101.418V109.735H220.53ZM254.809 105.047L257.302 105.838C256.923 107.231 256.283 108.261 255.393 108.938C254.506 109.613 253.377 109.953 252.008 109.953C250.317 109.953 248.924 109.374 247.834 108.22C246.745 107.06 246.2 105.478 246.2 103.473C246.2 101.351 246.747 99.7038 247.844 98.5287C248.939 97.3589 250.379 96.77 252.166 96.77C253.728 96.77 254.993 97.2318 255.966 98.1526C256.55 98.6947 256.98 99.4807 257.273 100.498L254.721 101.105C254.599 100.489 254.266 99.9345 253.779 99.5378C253.284 99.1483 252.667 98.9454 252.036 98.9645C251.092 98.9645 250.324 99.3043 249.738 99.9839C249.152 100.664 248.856 101.758 248.856 103.278C248.856 104.889 249.144 106.038 249.725 106.723C250.304 107.408 251.058 107.75 251.984 107.75C252.634 107.763 253.264 107.53 253.748 107.097C254.244 106.663 254.591 105.979 254.809 105.047ZM272.28 103.436C272.28 102.14 272.471 101.05 272.863 100.168C273.151 99.5196 273.548 98.936 274.049 98.4198C274.549 97.9036 275.102 97.5223 275.696 97.2759C276.492 96.936 277.408 96.77 278.448 96.77C280.329 96.77 281.828 97.3537 282.956 98.5184C284.082 99.683 284.647 101.299 284.647 103.377C284.647 105.439 284.085 107.045 282.967 108.209C281.846 109.369 280.352 109.953 278.482 109.953C276.588 109.953 275.078 109.374 273.958 108.22C272.837 107.058 272.28 105.468 272.28 103.436ZM274.928 103.351C274.928 104.796 275.263 105.89 275.932 106.635C276.596 107.379 277.447 107.755 278.471 107.755C279.496 107.755 280.342 107.384 281 106.64C281.654 105.906 281.983 104.796 281.983 103.317C281.983 101.859 281.664 100.77 281.026 100.049C280.388 99.3277 279.532 98.9697 278.474 98.9697C277.41 98.9697 276.56 99.3355 275.911 100.064C275.257 100.785 274.928 101.88 274.928 103.351ZM299.947 109.735V96.9879H305.368C306.73 96.9879 307.718 97.0995 308.338 97.3329C308.955 97.5612 309.453 97.9659 309.822 98.5495C310.193 99.1383 310.374 99.805 310.374 100.56C310.374 101.517 310.097 102.308 309.534 102.931C308.971 103.553 308.131 103.95 307.01 104.106C307.568 104.435 308.029 104.791 308.387 105.18C308.753 105.564 309.238 106.254 309.85 107.247L311.412 109.735H308.33L306.47 106.959C305.806 105.966 305.355 105.343 305.114 105.089C304.87 104.824 304.613 104.653 304.338 104.557C304.063 104.461 303.635 104.414 303.041 104.414H302.525V109.735H299.947ZM302.525 102.378H304.424C305.661 102.378 306.429 102.326 306.74 102.22C307.036 102.127 307.291 101.936 307.464 101.678C307.644 101.394 307.735 101.062 307.723 100.726C307.723 100.295 307.607 99.9502 307.378 99.6882C307.15 99.4262 306.826 99.2576 306.411 99.1876C305.785 99.1459 305.157 99.132 304.53 99.1461H302.525V102.378ZM326.088 109.735V96.9879H330.218C331.785 96.9879 332.802 97.0528 333.279 97.1799C334.008 97.3666 334.628 97.7817 335.118 98.425C335.608 99.0631 335.857 99.8931 335.857 100.907C335.857 101.688 335.709 102.347 335.427 102.879C335.173 103.379 334.803 103.811 334.348 104.139C333.907 104.438 333.46 104.64 333.014 104.741C332.397 104.863 331.505 104.923 330.34 104.923H328.664V109.732H326.088V109.735ZM328.662 99.1461V102.759H330.07C331.084 102.759 331.761 102.695 332.106 102.562C332.433 102.44 332.715 102.221 332.913 101.935C333.108 101.642 333.208 101.297 333.201 100.946C333.216 100.525 333.07 100.114 332.791 99.7972C332.521 99.4975 332.157 99.2989 331.759 99.2343C331.45 99.1746 330.833 99.1487 329.909 99.1487L328.662 99.1461ZM350.731 103.436C350.731 102.14 350.923 101.05 351.315 100.168C351.608 99.5196 351.999 98.936 352.5 98.4198C353.001 97.9036 353.553 97.5223 354.152 97.2759C355.024 96.9225 355.959 96.7504 356.899 96.77C358.78 96.77 360.285 97.3537 361.408 98.5184C362.539 99.683 363.099 101.299 363.099 103.377C363.099 105.439 362.536 107.045 361.418 108.209C360.303 109.369 358.803 109.953 356.933 109.953C355.04 109.953 353.53 109.374 352.409 108.22C351.289 107.058 350.731 105.468 350.731 103.436ZM353.379 103.351C353.379 104.796 353.719 105.89 354.383 106.635C355.053 107.379 355.898 107.755 356.923 107.755C357.95 107.755 358.793 107.384 359.452 106.64C360.106 105.906 360.44 104.796 360.44 103.317C360.44 101.859 360.116 100.77 359.478 100.049C358.84 99.3277 357.989 98.9697 356.925 98.9697C355.867 98.9697 355.011 99.3355 354.363 100.064C353.709 100.785 353.379 101.88 353.379 103.351ZM378.398 109.735V96.9879H383.819C385.181 96.9879 386.17 97.0995 386.79 97.3329C387.407 97.5612 387.905 97.9659 388.273 98.5495C388.644 99.1383 388.831 99.805 388.831 100.56C388.831 101.517 388.548 102.308 387.985 102.931C387.422 103.553 386.582 103.95 385.461 104.106C386.019 104.435 386.481 104.791 386.844 105.18C387.205 105.564 387.69 106.254 388.302 107.247L389.863 109.735H386.787L384.922 106.959C384.263 105.966 383.807 105.343 383.565 105.089C383.356 104.851 383.092 104.668 382.795 104.557C382.523 104.461 382.092 104.414 381.498 104.414H380.977V109.735H378.398ZM380.977 102.378H382.88C384.113 102.378 384.886 102.326 385.192 102.22C385.488 102.127 385.743 101.936 385.915 101.678C386.096 101.394 386.186 101.062 386.175 100.726C386.195 100.349 386.072 99.9782 385.83 99.6882C385.577 99.4115 385.234 99.234 384.862 99.1876C384.236 99.1459 383.609 99.132 382.982 99.1461H380.977V102.378ZM416.036 109.735H413.235L412.125 106.837H407.028L405.974 109.735H403.243L408.208 96.9879H410.934L416.036 109.735ZM411.3 104.692L409.541 99.9606L407.819 104.692H411.3ZM432.238 109.735V99.1461H428.454V96.9853H438.586V99.1461H434.811V109.735H432.238ZM453.537 109.735V96.9853H462.984V99.1461H456.11V101.966H462.51V104.116H456.11V107.584H463.228V109.735H453.537ZM478.691 96.9853H483.396C484.454 96.9853 485.261 97.0606 485.819 97.2292C486.569 97.4471 487.207 97.8362 487.738 98.4042C488.275 98.9619 488.68 99.6493 488.96 100.466C489.24 101.284 489.375 102.285 489.375 103.481C489.375 104.529 489.243 105.436 488.986 106.196C488.714 107.043 488.245 107.814 487.619 108.445C487.106 108.921 486.488 109.27 485.816 109.465C485.248 109.641 484.488 109.735 483.536 109.735H478.693V96.9853H478.691ZM481.264 99.1461V107.587H483.183C483.902 107.587 484.421 107.545 484.745 107.465C485.129 107.377 485.485 107.196 485.783 106.938C486.055 106.684 486.278 106.274 486.457 105.701C486.628 105.133 486.716 104.352 486.716 103.366C486.716 102.383 486.631 101.629 486.457 101.102C486.319 100.635 486.067 100.209 485.723 99.8646C485.391 99.557 484.978 99.3501 484.532 99.268C484.172 99.1824 483.469 99.1461 482.421 99.1461H481.264Z" fill="black"/>
<path fill-rule="evenodd" clip-rule="evenodd" d="M93.4081 7.68066H42.9038L7.35107 43.2308H57.8579L93.4081 7.68066ZM100.059 7.68066H150.563L186.116 43.2308H135.609L100.059 7.68066ZM94.8866 10.1501L59.1731 45.8637V96.1396L94.8866 60.4287V10.1501ZM98.5804 10.1501L134.294 45.8637V96.1396L98.5804 60.4287V10.1501Z" fill="#2C53A0"/>
</svg>
