<svg width="500" height="185" viewBox="0 0 500 185" fill="none" xmlns="http://www.w3.org/2000/svg">
<path fill-rule="evenodd" clip-rule="evenodd" d="M92.4602 31.6537C100.507 31.6537 110.09 32.4674 112.983 33.914C112.983 36.0838 112.983 43.4071 112.983 44.1303C112.983 54.4371 118.86 55.8837 118.86 55.8837C118.86 55.8837 118.86 60.3138 118.86 65.3768C118.86 71.9767 117.413 76.4068 117.413 76.4068C114.43 77.1301 107.107 79.2999 99.06 85.1766C93.1834 89.6067 88.0301 96.2067 88.0301 102.807C88.0301 107.146 88.7533 110.13 90.2903 113.023C90.2903 113.023 87.3067 114.47 82.1535 114.47C75.6439 113.746 68.3207 108.593 63.8905 100.546C58.0139 90.33 55.1208 77.8534 48.5207 77.8534C41.921 77.8534 41.921 84.4533 36.7675 84.4533C30.8908 84.4533 27.2743 74.9602 25.8277 70.5302C22.121 63.9302 13.3513 61.7604 12.6279 51.4536H40.4741C40.4741 36.0839 40.4741 27.3141 40.4741 11.9443C50.6907 11.9443 56.5674 11.9443 66.7837 11.9443V28.7606C67.5973 29.4839 69.7672 30.2072 72.6604 30.9305L69.7672 44.1303H61.7206L58.737 55.8837H66.7837L63.8905 70.5302C63.8905 72.7 63.1672 77.8534 63.8905 80.0232C65.3371 85.8999 69.0438 88.0697 74.1069 88.0697C81.4301 88.0697 88.0301 84.4533 88.0301 84.4533L91.0137 74.9603C89.5671 74.9603 87.3067 74.9603 85.8602 74.9603C84.4136 74.9603 82.9671 74.9602 83.6902 71.2534L87.3067 55.8837H95.3534L98.3369 44.1303H90.2903L92.4602 31.6537Z" fill="#BE372F"/>
<path fill-rule="evenodd" clip-rule="evenodd" d="M76.3667 36.084H86.5832L78.5366 74.2371H68.3203L76.3667 36.084Z" fill="#BE372F"/>
<path fill-rule="evenodd" clip-rule="evenodd" d="M83.6902 22.1606C86.5835 22.1606 89.567 24.3305 89.567 28.0373C89.567 30.9305 86.5835 33.1907 83.6902 33.1907C80.7068 33.1907 77.8135 30.9305 77.8135 28.0373C77.8135 24.3305 80.7068 22.1606 83.6902 22.1606Z" fill="#BE372F"/>
<path fill-rule="evenodd" clip-rule="evenodd" d="M338.647 69.0835C344.524 69.0835 348.14 69.8068 348.863 70.5301C350.31 70.5301 349.586 69.8068 350.31 69.0835H351.124L354.74 79.2999L353.294 80.0232C351.124 77.13 346.693 74.2369 339.37 74.2369C336.477 74.2369 330.601 74.9602 330.601 79.2999C330.601 88.0697 357.724 83.0067 357.724 100.546C357.724 108.593 351.124 114.469 338.647 114.469C334.217 114.469 330.6 113.746 326.894 112.3C326.17 112.3 325.447 113.023 325.447 113.746L324 114.469L319.57 101.27L321.017 100.546C324.724 104.976 329.877 108.593 338.647 108.593C345.97 108.593 348.14 105.7 348.14 102.807C348.14 92.4998 321.74 99.0997 321.74 81.4697C321.74 73.4232 329.877 69.0835 338.647 69.0835Z" fill="#0F0E0C"/>
<path fill-rule="evenodd" clip-rule="evenodd" d="M186.215 113.746V112.3C189.198 111.576 190.645 110.853 190.645 106.423V76.4067C190.645 71.9766 189.198 71.2533 186.215 70.5301V69.0835H220.661L224.368 78.5766L222.921 79.2999C219.938 75.6835 217.045 74.9602 211.891 74.9602C211.168 74.9602 203.845 74.9602 203.845 74.9602C200.861 74.9602 200.138 75.6835 200.138 77.8533V87.3464H211.891C216.322 87.3464 217.045 86.6231 217.768 84.4532H219.215V96.2066H217.768C217.045 93.9463 216.322 93.223 211.891 93.223H200.138V104.976C200.138 107.87 200.861 107.869 203.845 107.869C203.845 107.869 213.338 107.869 214.061 107.869C218.491 107.869 222.108 107.869 225.814 103.53L226.538 104.253L223.645 113.746H186.215Z" fill="#0F0E0C"/>
<path fill-rule="evenodd" clip-rule="evenodd" d="M175.275 106.423C175.275 110.853 176.722 111.576 178.892 112.299V113.746H159.905V112.299C162.075 111.576 164.245 110.853 164.245 106.423V63.93C164.245 61.7601 162.799 61.7601 159.905 61.7601C150.322 61.7601 146.706 61.7601 142.999 65.3765H142.275L145.982 55.1602H193.538L197.245 65.3765H195.798C192.815 61.7601 188.475 61.7601 178.892 61.7601C175.999 61.7601 175.275 61.7601 175.275 63.93V106.423Z" fill="#0F0E0C"/>
<path fill-rule="evenodd" clip-rule="evenodd" d="M245.615 91.7765L233.138 75.6834C230.968 71.9766 229.431 71.2533 226.538 70.5301V69.0835H247.061V70.5301C244.891 70.5301 243.354 72.6999 245.615 75.6834L251.401 84.4532L258.814 74.9602C260.261 72.6999 260.261 70.5301 257.277 70.5301V69.0835H274.184V70.5301C271.201 71.2533 269.031 71.9766 266.138 74.9602L255.831 89.6066L268.308 107.146C269.754 109.316 271.201 110.853 271.201 110.853C271.201 110.853 273.461 110.13 276.354 102.807L290.277 69.0835H299.047L315.23 107.146C315.954 109.316 318.123 111.576 320.293 112.3V113.746H301.307V112.3C302.754 112.3 305.647 111.576 303.477 107.146L301.307 101.27H282.954L280.784 107.146C278.524 111.576 282.231 112.3 282.954 112.3V113.746H254.384V112.3C255.831 112.3 259.538 110.853 256.554 107.146L249.231 97.6531L241.908 107.869C239.738 110.853 241.908 112.3 243.354 112.3V113.746H226.538V112.3C229.431 111.576 232.415 110.13 234.584 106.423L245.615 91.7765ZM292.447 77.8533L285.124 95.4833H299.047L292.447 77.8533Z" fill="#0F0E0C"/>
<path fill-rule="evenodd" clip-rule="evenodd" d="M16.244 120.346C16.244 115.916 14.074 115.193 11.9043 114.469V113.746H30.8904V114.469C29.4439 115.193 27.2739 115.916 27.2739 120.346V165.009C27.2739 169.439 29.4439 170.162 30.8904 170.885V172.332H11.9043V170.885C14.074 170.162 16.244 169.439 16.244 165.009V120.346Z" fill="#0F0E0C"/>
<path fill-rule="evenodd" clip-rule="evenodd" d="M77.0904 172.332H75.6438L45.5371 140.869V165.009C45.5371 169.439 47.7976 170.162 49.2441 170.886V172.332H36.0439V170.886C38.2139 170.162 39.6605 169.439 39.6605 165.009V134.993C39.6605 130.563 38.2139 129.839 36.0439 129.116V127.669H48.5207L71.2137 152.623V134.993C71.2137 130.563 69.7672 129.839 67.5972 129.116V127.669H81.43V129.116C79.2603 129.839 77.0904 130.563 77.0904 134.993V172.332Z" fill="#0F0E0C"/>
<path fill-rule="evenodd" clip-rule="evenodd" d="M250.678 156.962C250.678 170.162 239.015 173.055 231.692 173.055C223.645 173.055 211.892 170.162 211.892 157.686V134.993C211.892 130.563 209.722 129.116 207.462 129.116V127.669H225.815V129.116C223.645 129.116 221.385 130.563 221.385 134.993V156.962C221.385 164.286 225.815 167.269 233.138 167.269C239.738 167.269 244.892 164.286 244.892 156.962V134.993C244.892 130.563 242.631 129.839 240.461 129.116V127.669H254.385V129.116C252.215 129.839 250.678 130.563 250.678 134.993V156.962Z" fill="#0F0E0C"/>
<path fill-rule="evenodd" clip-rule="evenodd" d="M136.399 136.439C136.399 133.546 136.399 133.546 134.229 133.546C126.906 133.546 125.459 133.546 121.029 138.699L120.306 137.976L123.199 127.669H159.905L163.522 137.976L162.075 138.699C158.369 133.546 156.922 133.546 149.598 133.546C147.429 133.546 146.705 133.546 146.705 136.439V165.009C146.705 169.439 148.152 170.162 151.045 170.886V172.332H132.782V170.886C135.675 170.162 136.399 169.439 136.399 165.009V136.439Z" fill="#0F0E0C"/>
<path fill-rule="evenodd" clip-rule="evenodd" d="M102.767 126.946C107.829 126.946 111.536 128.393 112.26 128.393C113.706 129.116 113.706 127.67 113.706 127.67L115.153 126.946L118.136 137.976H116.599C114.43 135.716 110.813 132.823 103.49 132.823C99.7832 132.823 93.9065 133.546 93.9065 137.976C93.9065 146.023 121.753 141.593 121.753 159.132C121.753 167.269 115.153 172.332 102.767 172.332C97.6132 172.332 93.9065 171.609 90.29 170.886C89.5668 170.886 89.5668 171.609 88.7529 171.609C88.7529 172.332 87.3064 172.332 87.3064 172.332L82.9668 159.946L84.4133 159.132C88.0298 163.562 93.1831 167.269 101.953 167.269C109.276 167.269 111.536 164.286 111.536 161.393C111.536 151.086 85.1367 157.686 85.1367 140.146C85.1367 132.1 93.9064 126.946 102.767 126.946Z" fill="#0F0E0C"/>
<path fill-rule="evenodd" clip-rule="evenodd" d="M310.077 165.009C310.077 169.439 312.247 170.162 314.417 170.886V172.332H296.154V170.886C298.324 170.162 300.493 169.439 300.493 165.009V143.762L284.4 173.055H282.954L266.861 143.039V165.009C266.861 169.439 269.031 170.162 271.201 170.886V172.332H257.277V170.886C258.814 170.162 260.984 169.439 260.984 165.009V134.993C260.984 130.563 258.814 129.839 257.277 129.116V127.669H271.201L285.847 156.962L302.03 127.669H314.417V129.116C312.247 129.839 310.077 130.563 310.077 134.993V165.009Z" fill="#0F0E0C"/>
<path fill-rule="evenodd" clip-rule="evenodd" d="M402.386 172.332H400.939L370.832 140.869V165.009C370.832 169.439 373.093 170.162 374.539 170.886V172.332H360.616V170.886C362.786 170.162 365.046 169.439 365.046 165.009V134.993C365.046 130.563 363.509 129.839 360.616 129.116V127.669H373.816L396.509 152.623V134.993C396.509 130.563 394.339 129.839 392.079 129.116V127.669H406.092V129.116C404.556 129.839 402.386 130.563 402.386 134.993V172.332Z" fill="#0F0E0C"/>
<path fill-rule="evenodd" clip-rule="evenodd" d="M319.57 172.332V170.886C321.74 170.162 323.277 168.716 323.277 165.009V134.993C323.277 130.563 321.74 129.839 319.57 129.116V127.669H354.017L357 137.162L356.187 137.976C353.293 134.269 349.587 133.546 345.247 133.546C344.524 133.546 336.477 133.546 336.477 133.546C334.217 133.546 333.494 134.269 333.494 136.439V146.023H344.524C348.863 146.023 350.31 144.486 350.31 143.039H351.847V154.793H350.31C350.31 152.623 348.863 151.899 344.524 151.899H333.494V163.562C333.494 165.823 334.217 166.546 336.477 166.546C336.477 166.546 345.97 166.546 346.693 166.546C351.124 166.546 355.463 166.546 358.447 162.116L359.893 162.839L356.187 172.332H319.57Z" fill="#0F0E0C"/>
<path fill-rule="evenodd" clip-rule="evenodd" d="M422.909 136.439C422.909 133.546 422.186 133.546 420.649 133.546C412.602 133.546 411.879 133.546 407.539 138.699L406.726 137.976L409.709 127.669H446.325L450.032 137.976L448.586 138.699C444.879 133.546 443.432 133.546 436.109 133.546C433.849 133.546 433.125 133.546 433.125 136.439V165.009C433.125 169.439 434.572 170.162 437.555 170.886V172.332H419.202V170.886C421.463 170.162 422.909 169.439 422.909 165.009V136.439Z" fill="#0F0E0C"/>
<path fill-rule="evenodd" clip-rule="evenodd" d="M469.018 126.946C474.172 126.946 477.878 128.393 479.325 128.393C480.048 129.116 480.048 127.67 480.048 127.67C480.771 127.67 481.495 126.946 481.495 126.946L484.388 137.976H483.665C481.495 135.716 477.065 132.823 469.832 132.823C466.125 132.823 460.972 133.546 460.972 137.976C460.972 146.023 488.095 141.593 488.095 159.132C488.095 167.269 481.495 172.332 469.018 172.332C463.955 172.332 460.248 171.609 456.632 170.886C455.909 170.886 455.909 171.609 455.909 171.609C455.095 172.332 454.372 172.332 454.372 172.332L449.309 159.946L450.755 159.132C454.372 163.562 460.248 167.269 468.295 167.269C475.618 167.269 477.878 164.286 477.878 161.393C477.878 151.086 451.479 157.686 451.479 140.146C451.479 132.1 460.248 126.946 469.018 126.946Z" fill="#0F0E0C"/>
<path fill-rule="evenodd" clip-rule="evenodd" d="M187.662 127.669C197.245 127.669 204.569 131.376 204.569 139.423C204.569 148.193 196.522 149.639 192.092 150.362C203.845 154.792 204.569 170.162 211.892 170.162V170.886C210.445 171.609 208.999 172.332 205.292 172.332C189.199 172.332 192.815 152.623 182.599 152.623H177.446V165.009C177.446 169.439 178.892 170.162 181.152 170.886V172.332H163.522V170.886C165.692 170.162 167.229 169.439 167.229 165.009V134.993C167.229 130.563 165.692 129.839 163.522 129.116V127.669H187.662ZM177.446 147.469H183.322C188.476 147.469 194.262 145.299 194.262 140.146C194.262 137.162 192.092 132.823 185.492 132.823H180.429C178.169 132.823 177.446 133.546 177.446 136.439V147.469Z" fill="#0F0E0C"/>
</svg>
