<svg width="500" height="100" viewBox="0 0 500 100" fill="none" xmlns="http://www.w3.org/2000/svg">
<g clip-path="url(#clip0_8_16070)">
<path d="M130.262 87.13V25.13H104.569V11.21H174.923V25.21H149.062V87.21L130.262 87.13Z" fill="#0063A3"/>
<path d="M159.553 87.1303V32.7403H178.128V41.5803H178.24C181.614 36.9603 187.472 31.3203 199.008 31.3203H199.582V46.0003C198.896 45.8903 195.657 45.6903 194.51 45.6903C191.313 45.7186 188.166 46.4104 185.322 47.7107C182.478 49.011 180.015 50.8839 178.128 53.1803V87.1803L159.553 87.1303Z" fill="#0063A3"/>
<path d="M205.451 24.9997V11.7197H224.139V24.9997H205.451ZM205.575 87.1697V32.4397H224.026V87.1297L205.575 87.1697Z" fill="#0063A3"/>
<path d="M231.29 87.1303V32.4403H249.854V41.0603C253.553 36.7503 260.356 31.3203 270.093 31.3203C280.359 31.3203 285.205 35.1103 286.959 41.0603C290.647 36.8603 297.574 31.3203 307.199 31.3203C319.657 31.3203 325.189 38.3203 325.189 48.0403V87.1303H306.614V52.4503C306.614 47.5303 305.343 44.9603 299.924 44.9603C295.314 44.9603 291.614 47.2203 287.555 50.4003V87.1303H269.014V52.4503C269.014 47.5303 267.743 44.9603 262.267 44.9603C257.657 44.9603 253.969 47.2203 249.809 50.4003V87.1303H231.29Z" fill="#0063A3"/>
<path d="M350.814 80.66V87.13H332.205V11.21H350.814V40.86C354.851 35.86 360.619 31.32 369.726 31.32C383.692 31.32 393.339 40.86 393.339 59.73C393.339 78.6 383.545 88 369.468 88C361.158 88 355.39 85.28 350.814 80.66ZM374.809 59.84C374.809 50.71 371.233 44.96 362.924 44.96C358.19 44.96 353.929 47.53 350.814 50.3V70.51C354.851 73.89 358.19 75.51 363.182 75.51C370.851 75.53 374.775 69.79 374.775 59.84H374.809Z" fill="#0063A3"/>
<path d="M399.096 87.13V11.21H417.548V87.13H399.096Z" fill="#0063A3"/>
<path d="M423.304 59.8403C423.304 38.6003 441.531 31.3203 454.214 31.3203C466.897 31.3203 482.482 37.0003 482.482 61.7903V64.2503H441.756C442.689 73.2503 448.333 76.7603 456.069 76.7603C462.831 76.5821 469.298 74.2548 474.296 70.2003L481.447 80.0503C474.296 85.4903 465.413 88.2603 454.686 88.2603C438.641 88.2603 423.304 81.0003 423.304 59.8403ZM465.874 54.5003C464.952 46.8103 461.028 43.1103 454.102 43.1103C448.333 43.1103 443.375 46.5003 441.992 54.5003H465.874Z" fill="#0063A3"/>
<path d="M485.99 80.9997C485.979 80.175 486.154 79.3567 486.504 78.593C486.854 77.8293 487.372 77.1354 488.028 76.5523C488.684 75.9691 489.464 75.5083 490.322 75.1971C491.181 74.8858 492.101 74.7303 493.028 74.7397C494.421 74.7397 495.781 75.1068 496.939 75.7947C498.097 76.4825 498.999 77.4602 499.531 78.6041C500.064 79.7479 500.204 81.0066 499.932 82.2209C499.66 83.4352 498.99 84.5507 498.006 85.4262C497.021 86.3016 495.767 86.8978 494.402 87.1394C493.036 87.3809 491.621 87.257 490.335 86.7831C489.049 86.3093 487.949 85.507 487.176 84.4775C486.403 83.4481 485.99 82.2378 485.99 80.9997ZM498.785 80.9997C498.765 79.9862 498.409 79.0007 497.761 78.1669C497.113 77.3332 496.202 76.6884 495.143 76.3137C494.084 75.9391 492.924 75.8512 491.809 76.0612C490.695 76.2712 489.674 76.7697 488.877 77.494C488.08 78.2183 487.541 79.136 487.329 80.1319C487.116 81.1277 487.24 82.1571 487.683 83.0907C488.127 84.0244 488.871 84.8205 489.822 85.379C490.773 85.9375 491.889 86.2335 493.028 86.2297C493.795 86.2298 494.554 86.0938 495.261 85.8297C495.967 85.5655 496.607 85.1785 497.144 84.6914C497.68 84.2042 498.101 83.6267 498.383 82.9928C498.665 82.3589 498.802 81.6812 498.785 80.9997ZM490.296 77.4397H493.175C494.996 77.4397 496.053 78.1397 496.053 79.5397C496.097 79.9688 495.97 80.398 495.695 80.7525C495.42 81.107 495.013 81.3644 494.546 81.4797L496.211 84.2897H494.603L493.051 81.6697H491.837V84.2897H490.296V77.4397ZM493.085 80.6197C494.029 80.6197 494.546 80.3497 494.546 79.6197C494.546 78.8897 494.029 78.6197 493.051 78.6197H491.837V80.6197H493.085Z" fill="#0063A3"/>
<path d="M6.95996 76.4102V100L30.0327 88.1602C21.1626 86.4552 13.103 82.3508 6.95996 76.4102Z" fill="#0063A3"/>
<path d="M29.8641 11.74L6.95996 0V23.45C13.0747 17.5623 21.0661 13.4766 29.8641 11.74Z" fill="#0063A3"/>
<path d="M104.345 50.0002L81.2833 38.1602C84.0105 45.884 83.9869 54.1687 81.2158 61.8802L104.345 50.0002Z" fill="#0063A3"/>
<path d="M22.1509 17.9203C25.4566 17.2703 32.3267 17.9203 35.9586 18.8103C39.3716 16.6522 43.4321 15.4508 47.6186 15.3603C39.0277 14.0621 30.1993 14.9496 22.1509 17.9203Z" fill="#0063A3"/>
<path d="M66.1038 60.8396C65.5348 56.344 64.3219 51.9315 62.4944 47.7096C54.6236 50.8896 44.8188 48.8396 38.286 43.8096C33.4872 48.2673 29.1833 53.1265 25.4341 58.3196C36.5095 66.3496 54.7248 68.4596 66.1038 60.8396Z" fill="#0063A3"/>
<path d="M19.3737 59.09C9.61383 50.19 6.20689 37.22 9.33273 27.25C2.92398 33.963 -0.403874 42.5779 0.0129387 51.3763C0.429751 60.1748 4.56059 68.5102 11.5815 74.72C13.3735 69.221 15.9947 63.9632 19.3737 59.09Z" fill="#0063A3"/>
<path d="M60.7179 43.9402C58.6595 40.0443 56.0113 36.4173 52.8471 33.1602C48.8761 35.4843 45.1165 38.0823 41.603 40.9302C47.5174 45.3002 55.2533 46.1602 60.7179 43.9402Z" fill="#0063A3"/>
<path d="M53.3755 27.7198C56.0302 26.0091 58.9069 24.5889 61.9434 23.4898C55.6917 17.8698 45.6396 18.0198 41.2656 20.4898C45.7475 22.2499 49.8465 24.6971 53.3755 27.7198Z" fill="#0063A3"/>
<path d="M22.938 62C18.0806 69.47 16.304 75 15.6519 77.87C22.688 82.5755 31.2949 85.047 40.0966 84.8893C48.8983 84.7316 57.3863 81.9538 64.2036 77C65.7681 73.3877 66.5318 69.5403 66.4524 65.67C53.0046 72.79 34.4744 70.07 22.938 62Z" fill="#0063A3"/>
<path d="M64.5407 41.4499C68.8472 37.4499 67.9814 30.6099 64.7094 26.6699C61.8304 27.723 59.1318 29.13 56.6924 30.8499C59.7788 34.0893 62.414 37.6484 64.5407 41.4499Z" fill="#0063A3"/>
<path d="M71.9616 32.8496C72.3096 35.1854 71.9938 37.5616 71.0431 39.7609C70.0925 41.9602 68.5372 43.9126 66.5195 45.4396C68.2349 49.2298 69.4901 53.1722 70.2638 57.1996C76.1669 50.3796 75.987 40.6396 71.9616 32.8496Z" fill="#0063A3"/>
<path d="M38.4095 37.8995C41.8715 35.0586 45.5701 32.4545 49.4736 30.1095C45.932 27.2381 41.8013 25.0006 37.3076 23.5195C33.642 27.8895 34.7664 33.5295 38.4095 37.8995Z" fill="#0063A3"/>
<path d="M70.9723 62.6903C71.1114 65.6572 70.9496 68.6292 70.4888 71.5703C76.5677 64.6008 79.4992 55.8628 78.7082 47.0703C78.1109 52.8873 75.3946 58.3718 70.9723 62.6903Z" fill="#0063A3"/>
<path d="M32.72 22.2804C27.5822 21.1594 22.2119 21.1903 17.0908 22.3704C9.34366 32.1404 12.9418 46.4504 21.9595 55.3704C25.8095 50.1606 30.1948 45.2797 35.0588 40.7904C30.4712 35.7204 28.6497 27.8904 32.72 22.2804Z" fill="#0063A3"/>
</g>
<defs>
<clipPath id="clip0_8_16070">
<rect width="500" height="100" fill="white"/>
</clipPath>
</defs>
</svg>
