<svg width="500" height="173" viewBox="0 0 500 173" fill="none" xmlns="http://www.w3.org/2000/svg">
<g clip-path="url(#clip0_8_16073)">
<path fill-rule="evenodd" clip-rule="evenodd" d="M210.923 45.8711V21.6188H228.446V45.8711H242.815V59.9804H228.446V101.398C228.446 105.364 230.397 106.469 234.785 106.469C237.451 106.469 240.28 105.624 242.815 105.071V119.441C238.036 120.026 233.778 120.579 228.999 120.579C216.027 120.579 210.923 114.077 210.923 103.673V59.9804H200.78V45.8711M248.895 131.014C251.561 131.567 253.674 131.567 256.209 131.567C262.289 131.567 265.67 129.876 267.783 125.78C269.473 122.269 270.611 120.156 270.611 117.198C270.611 114.532 269.181 111.411 268.368 108.452L248.732 45.8711H266.385L278.511 90.9621H278.771L291.352 45.8711H308.843L285.696 119.311C277.958 140.312 271.717 145.936 257.347 145.936C253.121 145.936 251.008 145.676 248.895 145.383V131.014ZM316.255 17.3926H333.745V119.181H316.255V17.3926ZM361.281 85.338C361.574 100.553 368.336 106.469 376.528 106.469C384.688 106.469 388.492 102.796 392.88 97.7242L405.559 105.624C398.797 116.06 388.914 120.579 374.805 120.579C355.787 120.579 343.791 105.754 343.791 82.5096C343.791 59.2651 355.787 44.4407 375.65 44.4407C394.864 44.3107 405.559 60.5005 405.559 78.1533V85.338H361.281ZM389.499 73.4719C389.207 63.3289 383.875 57.4121 375.39 57.4121C366.938 57.4121 361.574 63.3289 361.281 73.4719H389.499ZM415.832 119.148V45.8386H431.892V58.4199H432.185C436.411 49.6748 442.328 44.7333 454.746 44.2131V62.6787C451.918 62.7762 450.943 62.7762 449.675 62.7762C440.93 62.7762 433.323 72.7892 433.323 74.6097V119.148H415.832Z" fill="#4364A0"/>
<path fill-rule="evenodd" clip-rule="evenodd" d="M291.06 143.01V135.923H294.051V143.01H298.992V145.546H294.051V160.826C294.051 161.834 294.733 162.321 296.489 162.321C297.464 162.321 298.342 162.256 299.122 162.126V164.564C298.602 164.727 297.399 164.89 295.644 164.89C292.425 164.89 291.06 164.077 291.06 161.346V145.546H287.549V143.01M319.506 159.883C318.108 162.321 316.125 164.89 311.248 164.89C306.437 164.89 301.886 161.574 301.886 153.739C301.886 146.814 305.364 142.588 310.663 142.588C315.117 142.588 318.856 145.481 318.856 152.341V154.324H304.877C304.877 159.038 307.672 162.321 311.248 162.321C313.882 162.321 315.962 160.923 317.198 158.68L319.506 159.883ZM315.865 151.756C315.865 147.789 313.947 145.156 310.728 145.156C307.12 145.156 305.202 147.789 304.942 151.756H315.865ZM336.444 149.415C335.631 146.814 333.908 145.156 331.372 145.156C327.698 145.156 325.553 148.31 325.553 153.739C325.553 159.2 327.698 162.321 331.372 162.321C334.07 162.321 335.631 161.411 337.289 158.388L339.662 159.428C337.516 163.069 335.631 164.89 331.372 164.89C325.975 164.89 322.562 160.663 322.562 153.739C322.562 146.814 325.975 142.588 331.372 142.588C335.793 142.588 337.841 145.059 339.207 148.407L336.444 149.415ZM346.424 134.688V145.936H346.489C348.18 144.018 350.423 142.62 352.861 142.62C356.047 142.62 359.07 144.246 359.07 148.895V164.499H356.079V148.992C356.079 146.131 354.714 145.189 352.568 145.189C350.358 145.189 347.789 147.009 346.424 148.44V164.499H343.433V134.688H346.424ZM367.328 143.043V145.936H367.425C369.116 144.018 371.359 142.62 373.797 142.62C376.983 142.62 380.007 144.278 380.007 148.895V164.499H377.016V148.992C377.016 146.131 375.65 145.189 373.505 145.189C371.261 145.189 368.726 147.009 367.328 148.44V164.499H364.369V143.043H367.328ZM392.75 164.922C387.906 164.922 383.973 159.916 383.973 153.771C383.973 147.594 387.906 142.62 392.75 142.62C397.627 142.62 401.561 147.594 401.561 153.771C401.561 159.916 397.627 164.922 392.75 164.922ZM398.57 153.771C398.57 149.025 395.969 145.189 392.75 145.189C389.532 145.189 386.931 149.025 386.931 153.771C386.931 158.518 389.532 162.354 392.75 162.354C395.969 162.354 398.57 158.518 398.57 153.771ZM405.689 134.688H408.68V164.499H405.689V134.688ZM421.619 164.922C416.743 164.922 412.809 159.948 412.809 153.771C412.809 147.594 416.743 142.62 421.619 142.62C426.463 142.62 430.397 147.594 430.397 153.771C430.397 159.948 426.463 164.922 421.619 164.922ZM427.438 153.771C427.438 149.025 424.838 145.189 421.619 145.189C418.368 145.189 415.767 149.025 415.767 153.771C415.767 158.518 418.368 162.354 421.619 162.354C424.838 162.354 427.438 158.518 427.438 153.771ZM452.016 145.189C450.78 145.189 449.48 145.384 448.732 145.774C449.35 146.489 450.195 148.147 450.195 150.13C450.195 154.389 446.684 157.672 442.36 157.672C440.637 157.672 439.727 157.412 438.557 157.087C437.386 157.412 436.866 158.128 436.866 159.038C436.866 160.046 437.549 160.631 438.622 160.631C448.797 160.631 452.081 162.451 452.081 166.645C452.081 169.798 448.992 172.432 442.263 172.432C436.248 172.432 432.997 170.774 432.997 167.23C432.997 165.085 434.33 164.044 436.671 162.874C435.013 162.354 433.973 161.086 433.973 159.818C433.973 157.932 435.208 157.152 436.866 156.112C434.851 154.584 433.94 152.503 433.94 150.13C433.94 145.579 437.484 142.62 442.068 142.62C444.376 142.62 446.001 143.108 447.399 144.116C448.667 143.206 450.423 142.36 452.016 142.198V145.189ZM441.808 163.622C437.159 163.622 435.826 165.67 435.826 167.198C435.826 168.823 436.834 169.896 442.783 169.896C446.326 169.896 449.22 168.888 449.252 166.775C449.22 164.694 447.074 163.622 441.808 163.622ZM447.399 150.163C447.399 147.399 445.026 145.189 442.068 145.189C439.109 145.189 436.736 147.399 436.736 150.163C436.736 152.893 439.109 155.104 442.068 155.104C445.026 155.104 447.399 152.893 447.399 150.163ZM456.274 134.298H459.265V137.841H456.274V134.298ZM456.274 143.043H459.265V164.499H456.274V143.043ZM480.982 159.948C479.551 162.386 477.568 164.955 472.692 164.955C467.913 164.955 463.362 161.639 463.362 153.804C463.362 146.847 466.84 142.62 472.107 142.62C476.593 142.62 480.299 145.546 480.299 152.373V154.356H466.32C466.32 159.07 469.148 162.386 472.692 162.386C475.358 162.386 477.406 160.988 478.641 158.745L480.982 159.948ZM477.341 151.821C477.341 147.854 475.455 145.221 472.237 145.221C468.628 145.221 466.71 147.854 466.45 151.821H477.341ZM486.151 159.07C487.549 161.118 489.597 162.386 492.295 162.386C495.514 162.386 496.912 160.663 496.912 158.843C496.912 153.381 484.2 156.274 484.428 148.44C484.558 144.701 487.419 142.588 491.548 142.653C494.376 142.685 497.464 144.213 498.895 146.391L496.847 148.212C495.189 146.196 493.596 145.221 491.287 145.221C488.784 145.221 487.419 146.489 487.419 148.375C487.419 153.056 499.903 150.65 499.903 158.68C499.903 162.841 496.261 164.955 492.36 164.955C489.012 164.955 485.761 163.492 483.778 160.858L486.151 159.07Z" fill="#939B50"/>
<path d="M13.4915 72.9518C6.04681 72.9518 0 66.9375 0 59.4603C0 52.0156 6.04681 45.9688 13.4915 45.9688C20.9688 45.9688 27.0156 52.0156 27.0156 59.4603C27.0156 66.9375 20.9688 72.9518 13.4915 72.9518ZM36.5085 95.9362C29.0312 95.9362 22.9844 89.9219 22.9844 82.4447C22.9844 74.9675 29.0312 68.9531 36.5085 68.9531C43.9532 68.9531 50 74.9675 50 82.4447C50 89.9219 43.9532 95.9362 36.5085 95.9362ZM59.4928 118.921C52.0156 118.921 46.0013 112.874 46.0013 105.429C46.0013 97.9518 52.0156 91.9375 59.4928 91.9375C66.9701 91.9375 73.0169 97.9518 73.0169 105.429C73.0169 112.874 66.9701 118.921 59.4928 118.921ZM59.4928 164.857C52.0156 164.857 46.0013 158.843 46.0013 151.365C46.0013 143.921 52.0156 137.874 59.4928 137.874C66.9701 137.874 73.0169 143.921 73.0169 151.365C73.0169 158.843 66.9701 164.857 59.4928 164.857ZM82.4772 141.905C75.0325 141.905 68.9857 135.858 68.9857 128.381C68.9857 120.936 75.0325 114.889 82.4772 114.889C89.9545 114.889 96.0013 120.936 96.0013 128.381C96.0013 135.858 89.9545 141.905 82.4772 141.905ZM105.494 118.921C98.0169 118.921 91.9701 112.874 91.9701 105.429C91.9701 97.9518 98.0169 91.9375 105.494 91.9375C112.939 91.9375 118.986 97.9518 118.986 105.429C118.986 112.874 112.939 118.921 105.494 118.921Z" fill="#4364A0"/>
<path d="M59.4925 72.9519C52.0153 72.9519 46.001 66.9376 46.001 59.4603C46.001 52.0156 52.0153 45.9688 59.4925 45.9688C66.9698 45.9688 73.0166 52.0156 73.0166 59.4603C73.0166 66.9376 66.9698 72.9519 59.4925 72.9519ZM82.4769 50C75.0322 50 68.9854 43.9532 68.9854 36.4759C68.9854 29.0312 75.0322 22.9844 82.4769 22.9844C89.9542 22.9844 96.001 29.0312 96.001 36.4759C96.001 43.9532 89.9542 50 82.4769 50ZM105.494 72.9519C98.0166 72.9519 91.9698 66.9376 91.9698 59.4603C91.9698 52.0156 98.0166 45.9688 105.494 45.9688C112.939 45.9688 118.985 52.0156 118.985 59.4603C118.985 66.9376 112.939 72.9519 105.494 72.9519ZM128.478 95.9363C121.001 95.9363 114.954 89.922 114.954 82.4447C114.954 74.9675 121.001 68.9532 128.478 68.9532C135.955 68.9532 142.002 74.9675 142.002 82.4447C142.002 89.922 135.955 95.9363 128.478 95.9363ZM151.463 118.921C143.985 118.921 137.971 112.874 137.971 105.429C137.971 97.9519 143.985 91.9376 151.463 91.9376C158.94 91.9376 164.987 97.9519 164.987 105.429C164.987 112.874 158.94 118.921 151.463 118.921ZM105.494 27.0156C98.0166 27.0156 91.9698 20.9688 91.9698 13.4915C91.9698 6.04681 98.0166 0 105.494 0C112.939 0 118.985 6.04681 118.985 13.4915C118.985 20.9688 112.939 27.0156 105.494 27.0156Z" fill="#939B50"/>
<path fill-rule="evenodd" clip-rule="evenodd" d="M128.966 126.171C126.008 126.171 123.635 123.798 123.635 120.872C123.635 117.913 126.008 115.54 128.966 115.54C131.925 115.54 134.298 117.913 134.298 120.872C134.298 123.798 131.925 126.171 128.966 126.171ZM133.42 120.872C133.42 118.303 131.437 116.255 128.966 116.255C126.496 116.255 124.513 118.303 124.513 120.872C124.513 123.407 126.496 125.488 128.966 125.488C131.437 125.488 133.42 123.407 133.42 120.872ZM127.861 124.025H126.983V117.686H129.422C130.819 117.686 131.47 118.303 131.47 119.441C131.47 120.579 130.754 121.067 130.007 121.197L131.762 124.025H130.787L129.064 121.197H127.861V124.025ZM128.836 120.514C129.682 120.514 130.592 120.547 130.592 119.441C130.592 118.531 129.877 118.433 129.226 118.433H127.861V120.514H128.836Z" fill="#939B50"/>
</g>
<defs>
<clipPath id="clip0_8_16073">
<rect width="500" height="172.627" fill="white"/>
</clipPath>
</defs>
</svg>
