<svg width="500" height="180" viewBox="0 0 500 180" fill="none" xmlns="http://www.w3.org/2000/svg">
<path d="M214.624 72.3643H226.026L211.143 115.247H200.208L185.507 72.3643H196.935L205.793 102.858L214.624 72.3643Z" fill="#6D6E71"/>
<path d="M229.611 72.3643H261.325V80.7019H240.312V88.4941H259.923V96.624H240.312V106.832H263.221V115.273H229.611V72.3643Z" fill="#6D6E71"/>
<path d="M270.702 72.3643H290C294.494 72.3643 300.078 72.4941 304.052 76.7279C306.292 79.4037 307.491 82.7976 307.429 86.2863C307.588 88.9807 306.792 91.6447 305.182 93.8108C303.571 95.9768 301.25 97.5062 298.624 98.1305L308.572 115.247H296.728L288.182 100.001H281.455V115.299H270.702V72.3643ZM281.455 80.3902V92.0006H290.39C291.215 92.1071 292.053 92.0324 292.845 91.7816C293.638 91.5308 294.367 91.1099 294.98 90.5485C295.593 89.9871 296.077 89.2986 296.397 88.531C296.716 87.7635 296.865 86.9354 296.832 86.1045C296.832 80.624 292.883 80.4422 290.624 80.3902H281.455Z" fill="#6D6E71"/>
<path d="M326.286 72.3643V115.247H315.584V72.3643H326.286Z" fill="#6D6E71"/>
<path d="M341.351 102.39C342.494 103.76 343.898 104.89 345.481 105.715C348.021 107.077 350.858 107.791 353.74 107.793C357.974 107.793 361.532 105.767 361.532 102.806C361.532 99.4031 357.221 98.8577 354.052 98.4161C351.688 98.1304 349.325 97.8187 347.013 97.3252C344.701 96.8317 335.481 94.9096 335.481 85.6629C335.481 74.6239 345.299 71.3252 352.727 71.3252C356.273 71.3203 359.782 72.0413 363.039 73.444C366.295 74.8466 369.23 76.9012 371.662 79.4811L363.87 85.1174C362.627 83.7735 361.202 82.6106 359.636 81.6629C357.491 80.4847 355.096 79.8347 352.649 79.7668C348.39 79.7668 346.26 82.2083 346.26 84.2863C346.26 87.559 349.922 88.0265 351.74 88.2863C356.175 88.7991 360.562 89.6677 364.857 90.8837C367.069 91.5902 368.99 93.0004 370.326 94.8995C371.663 96.7986 372.342 99.0824 372.26 101.403C372.235 104.74 371.029 107.961 368.857 110.494C364.987 115.014 358.779 116.286 352.753 116.286C340.675 116.286 335.87 110.676 333.195 107.585L341.351 102.39Z" fill="#6D6E71"/>
<path d="M390.961 72.3643V115.247H380.286V72.3643H390.961Z" fill="#6D6E71"/>
<path d="M430.442 111.247C428.783 112.902 426.802 114.198 424.622 115.056C422.441 115.914 420.108 116.315 417.767 116.234C405.793 116.234 398.442 106.494 398.442 93.8706C398.442 80.0784 407.377 70.9096 419.585 70.9096C423.313 70.8878 426.989 71.7781 430.294 73.503C433.599 75.2279 436.432 77.735 438.546 80.8057L430.39 85.7407C429.451 83.8941 428.015 82.3465 426.243 81.2726C424.472 80.1987 422.435 79.6411 420.364 79.6628C412.208 79.6628 409.117 86.3901 409.117 93.5589C408.878 97.5056 410.109 101.401 412.572 104.494C413.6 105.503 414.818 106.299 416.155 106.834C417.493 107.369 418.923 107.633 420.364 107.611C422.44 107.637 424.48 107.059 426.234 105.949C427.287 105.25 428.154 104.305 428.76 103.196C429.366 102.088 429.694 100.848 429.715 99.5849H420.104V91.4291H438.754V115.247H430.39L430.442 111.247Z" fill="#6D6E71"/>
<path d="M447.585 72.3643H457.974L467.273 88.1565C470.676 94.1824 471.715 96.1305 473.715 99.8967L473.221 72.3643H483.611V115.247H473.091L465.091 101.715C462.35 97.3718 459.836 92.8896 457.559 88.2863L457.871 115.247H447.481L447.585 72.3643Z" fill="#6D6E71"/>
<path d="M165.766 89.6107C165.766 104.638 161.31 119.328 152.961 131.822C144.611 144.317 132.744 154.055 118.86 159.804C104.976 165.554 89.6993 167.057 74.9611 164.123C60.2228 161.189 46.6856 153.951 36.0615 143.323C25.4374 132.696 18.2036 119.156 15.275 104.417C12.3465 89.6774 13.8548 74.4007 19.609 60.5187C25.3633 46.6368 35.1051 34.773 47.6024 26.428C60.0997 18.083 74.791 13.6316 89.8184 13.6367C109.961 13.6505 129.275 21.6601 143.516 35.9058C157.757 50.1514 165.76 69.4678 165.766 89.6107Z" fill="url(#paint0_linear_8_16076)"/>
<g style="mix-blend-mode:multiply" opacity="0.1">
<path d="M13.8702 89.6109C13.8625 104.985 18.5223 119.999 27.2331 132.666C35.944 145.334 48.2953 155.059 62.6534 160.555C77.0114 166.05 92.6996 167.057 107.642 163.443C122.585 159.828 136.079 151.762 146.338 140.312C131.865 153.226 112.999 160.112 93.6101 159.56C74.2212 159.007 55.7786 151.056 42.0646 137.339C28.3507 123.622 20.4049 105.177 19.8568 85.7885C19.3087 66.3994 26.1999 47.5355 39.117 33.0654C31.16 40.1779 24.7971 48.8928 20.446 58.638C16.0949 68.3832 13.854 78.9384 13.8702 89.6109Z" fill="#404041"/>
</g>
<path d="M151.533 89.6108C151.533 101.817 147.913 113.749 141.132 123.897C134.351 134.046 124.712 141.956 113.435 146.627C102.159 151.298 89.7499 152.521 77.7785 150.139C65.8071 147.758 54.8106 141.88 46.1797 133.249C37.5488 124.618 31.6711 113.622 29.2899 101.651C26.9086 89.6792 28.1307 77.2705 32.8018 65.9937C37.4728 54.7169 45.3828 45.0785 55.5317 38.2972C65.6806 31.516 77.6124 27.8965 89.8183 27.8965C97.9227 27.8965 105.948 29.4928 113.435 32.5942C120.923 35.6956 127.726 40.2415 133.457 45.9722C139.188 51.7029 143.733 58.5062 146.835 65.9937C149.936 73.4813 151.533 81.5063 151.533 89.6108Z" fill="#0064A4"/>
<g style="mix-blend-mode:multiply" opacity="0.1">
<path d="M151.532 89.6106C151.531 77.1189 147.74 64.9215 140.658 54.6309C133.577 44.3402 123.539 36.4407 111.873 31.9767C100.206 27.5126 87.4588 26.694 75.3169 29.6293C63.1749 32.5645 52.2095 39.1153 43.8701 48.4158C55.6263 37.8969 70.9643 32.2792 86.7334 32.7168C102.502 33.1544 117.505 39.6141 128.66 50.7688C139.815 61.9235 146.274 76.9263 146.712 92.6954C147.15 108.464 141.532 123.802 131.013 135.559C137.478 129.778 142.648 122.697 146.185 114.778C149.721 106.86 151.543 98.2829 151.532 89.6106Z" fill="#929497"/>
</g>
<path d="M104.26 62.7012H132.624L118.91 86.4674H90.5459L104.26 62.7012Z" fill="white"/>
<path d="M89.8182 134.909L103.896 110.519L76.2857 62.7012H48.1299L89.8182 134.909Z" fill="white"/>
<path d="M495.377 81.8183C494.486 81.8181 493.616 81.5549 492.874 81.0617C492.133 80.5684 491.553 79.8671 491.209 79.0458C490.865 78.2245 490.771 77.3198 490.939 76.4453C491.107 75.5708 491.53 74.7655 492.154 74.1305C492.779 73.4954 493.577 73.0589 494.448 72.8758C495.32 72.6928 496.226 72.7712 497.053 73.1014C497.88 73.4315 498.591 73.9986 499.097 74.7316C499.603 75.4645 499.881 76.3305 499.896 77.2209C499.914 77.8228 499.809 78.422 499.59 78.9826C499.37 79.5432 499.039 80.0535 498.616 80.483C498.194 80.9124 497.69 81.252 497.133 81.4815C496.576 81.711 495.979 81.8255 495.377 81.8183ZM495.377 73.2728C494.578 73.2678 493.795 73.4993 493.127 73.938C492.459 74.3768 491.936 75.0033 491.623 75.7386C491.31 76.474 491.222 77.2855 491.369 78.071C491.516 78.8564 491.892 79.5809 492.45 80.1531C493.008 80.7253 493.723 81.1198 494.504 81.287C495.285 81.4541 496.099 81.3865 496.842 81.0925C497.585 80.7985 498.225 80.2914 498.68 79.6348C499.136 78.9783 499.387 78.2017 499.403 77.4027C499.427 76.8601 499.341 76.3182 499.15 75.8099C498.958 75.3017 498.665 74.8378 498.288 74.4465C497.912 74.0552 497.459 73.7448 496.959 73.5341C496.458 73.3233 495.92 73.2168 495.377 73.2209V73.2728ZM496.208 80.104L495.403 77.9481H494.675V80.104H493.507V74.3897H495.377C495.851 74.3485 496.327 74.4384 496.753 74.6494C496.995 74.8237 497.19 75.0545 497.321 75.3217C497.452 75.5889 497.516 75.8843 497.507 76.1819C497.528 76.5027 497.446 76.822 497.274 77.093C497.101 77.3641 496.846 77.5727 496.546 77.6884L497.533 80.052L496.208 80.104ZM495.429 75.5066H494.649V76.9611H495.403C496.026 76.9611 496.286 76.7274 496.286 76.2338C496.286 75.7403 496.026 75.4546 495.429 75.4546V75.5066Z" fill="#6D6E71"/>
<defs>
<linearGradient id="paint0_linear_8_16076" x1="143.533" y1="35.8965" x2="36.1041" y2="143.325" gradientUnits="userSpaceOnUse">
<stop stop-color="white"/>
<stop offset="0.15" stop-color="#F9F9F9"/>
<stop offset="0.35" stop-color="#E9E9EA"/>
<stop offset="0.58" stop-color="#CECFCF"/>
<stop offset="0.83" stop-color="#A8AAAB"/>
<stop offset="1" stop-color="#898B8D"/>
</linearGradient>
</defs>
</svg>
