<svg width="500" height="117" viewBox="0 0 500 117" fill="none" xmlns="http://www.w3.org/2000/svg">
<g clip-path="url(#clip0_28_1314)">
<path d="M467.128 66.992C467.128 66.992 463.577 78.0534 460.016 89.101L457.2 95.1725L452.396 110.104C452.396 110.104 448.268 109.963 438.755 109.699C435.771 109.623 432.697 110.087 429.648 110.781L423.082 113.624C418.796 114.86 414.716 116.073 411.138 116.392C405.035 116.935 399.555 116.907 393.274 116.471L388.225 114.819C374.798 113.521 366.968 111.049 366.968 111.049L371.676 96.4191L372.84 90.0797L379.966 67.9433L383.308 60.2851L385.966 52.0295L387.075 45.8377L394.204 23.715L396.33 19.8345L401.794 2.85266C401.794 2.85266 409.63 5.45229 423.051 6.81908L428.724 6.27993C435.046 6.74697 440.541 6.77444 446.681 6.19064C450.246 5.85066 454.329 4.52164 458.601 3.1995L462.111 3.05527C465.929 1.99412 469.824 1.19741 473.588 1.36225C483.045 1.76748 487.231 1.90483 487.231 1.90483L482.382 16.9532L481.376 22.7535L474.257 44.8556L471.472 50.8378L468.33 60.5942L467.128 66.992Z" fill="white"/>
<path d="M414.599 50.1546C420.904 50.5976 426.347 50.6217 432.47 50.0757C436.083 49.7494 440.173 48.4307 444.5 47.1292L451.605 25.0065C447.316 26.2977 443.157 27.6336 439.586 27.953C433.456 28.5024 428.03 28.4578 421.715 28.0216L414.599 50.1546Z" fill="#211E1F"/>
<path d="M400.351 94.3971C406.68 94.8436 412.127 94.8608 418.26 94.3147C421.849 93.9919 425.949 92.6595 430.259 91.3648L437.371 69.2627C433.061 70.5574 428.964 71.8761 425.376 72.1955C419.263 72.7449 413.792 72.7037 407.501 72.2676L400.351 94.3971Z" fill="#211E1F"/>
<path d="M458.601 3.20104L451.605 25.0078C456.787 23.4487 462.23 22.1643 467.437 22.3257C477.155 22.6211 481.376 22.755 481.376 22.755L488.478 0.752514C488.478 0.752514 484.391 0.659779 474.535 0.203039C469.322 -0.0442181 463.786 1.54235 458.601 3.20104Z" fill="#211E1F"/>
<path d="M372.841 90.0813C372.841 90.0813 380.849 92.5779 394.551 93.9035C396.588 94.1027 398.497 94.2675 400.352 94.398L393.274 116.473C391.402 116.346 389.472 116.174 387.429 115.978C373.727 114.653 365.735 112.132 365.735 112.132L372.841 90.0813Z" fill="#211E1F"/>
<path d="M421.715 28.0215L428.724 6.27998C426.886 6.14605 424.977 5.97433 422.975 5.76829C409.269 4.37746 401.281 1.7263 401.281 1.7263L394.204 23.7151C394.204 23.7151 402.181 26.2151 415.873 27.5441C417.923 27.7399 419.853 27.8841 421.715 28.0215Z" fill="#211E1F"/>
<path d="M379.966 67.944L387.075 45.8385C387.075 45.8385 395.063 48.342 408.768 49.6607C410.812 49.8633 412.728 50.0281 414.6 50.1552L407.501 72.2676C405.63 72.1371 403.713 71.986 401.663 71.7868C387.964 70.4612 379.966 67.944 379.966 67.944Z" fill="#211E1F"/>
<path d="M460.016 89.1018C460.016 89.1018 455.812 88.9885 446.114 88.6829C440.891 88.5215 435.444 89.799 430.259 91.3649L423.081 113.625C428.267 112.066 433.775 110.658 438.992 110.754C448.824 110.943 452.907 111.159 452.907 111.159L460.016 89.1018Z" fill="#211E1F"/>
<path d="M437.372 69.2617L444.501 47.1287C449.687 45.573 455.119 44.3059 460.336 44.4398C470.041 44.7008 474.258 44.8553 474.258 44.8553L467.128 66.9917C467.128 66.9917 463.087 66.82 453.224 66.5625C448.004 66.4285 442.564 67.6992 437.372 69.2617Z" fill="#211E1F"/>
<path d="M86.4407 38.5813L86.1077 19.0651L72.7901 38.5813H86.4407ZM81.9387 1.8051H101.146L105.857 59.8008H86.7739L86.6434 50.3603H64.7885L58.3323 59.8008H38.8677L81.9387 1.8051Z" fill="#EB1B2A"/>
<path d="M137.478 29.6129C135.71 29.0154 134.144 28.6788 132.681 28.6788C128.491 28.6788 124.703 32.0752 123.275 37.1749C121.98 42.0994 124.106 45.2416 128.673 45.2416C130.006 45.2416 130.569 44.991 132.677 44.4827L137.478 29.6129ZM143.313 59.7715H119.741C108.518 59.7715 104.013 50.5955 108.051 37.0032C112.093 23.3284 122.248 14.1524 133.261 14.1524C136.29 14.1524 138.921 14.6641 141.857 16.0172L146.483 1.83419H162.005L143.313 59.7715Z" fill="#EB1B2A"/>
<path d="M158.417 14.9148H175.062L173.365 38.7889L189.389 14.9148H203.493L171.999 59.7715H159.234L158.417 14.9148Z" fill="#EB1B2A"/>
<path d="M214.365 41.4909C210.426 43.9086 205.502 43.493 203.943 48.4588C203.197 50.8043 204.097 52.5317 206.13 52.5317C208.108 52.5317 209.568 51.5633 211.831 50.0454C211.865 49.2177 212.085 48.3214 212.655 46.6662L214.365 41.4909ZM224.132 60.3649C216.199 60.959 212.652 60.025 211.525 56.2028C206.865 59.0909 203.579 60.5332 198.73 60.5332C189.921 60.5332 187.874 55.3511 189.729 49.5749C190.574 46.8585 192.541 44.1386 195.158 41.9271C200.855 37.1742 211.735 36.4943 217.092 32.8369C218.287 28.764 216.979 26.4322 212.665 27.3183C207.13 28.455 204.506 30.0003 196.329 34.9626L200.543 21.7962C207.751 17.3249 213.775 14.7012 220.952 14.1518C230.032 13.4546 237.292 18.3998 233.665 29.6947L229.544 42.4388C228.109 46.9409 227.985 48.3008 232.384 48.3832L224.132 60.3649Z" fill="#EB1B2A"/>
<path d="M244.548 14.9148H260.074L258.144 20.7769C263.916 16.0172 268.013 14.1524 272.938 14.1524C281.595 14.1524 284.511 20.1828 281.31 30.1211L271.787 59.7715H256.265L264.177 35.2208C265.613 30.7187 264.868 28.6788 261.811 28.6788C259.346 28.6788 256.828 30.207 254.019 33.521L245.592 59.7715H230.069L244.548 14.9148Z" fill="#EB1B2A"/>
<path d="M309.271 57.7275C303.444 59.8533 300.061 60.5332 295.809 60.5332C282.595 60.5332 276.455 51.1031 280.826 37.5966C284.449 26.3842 294.972 14.1518 310.271 14.1518C314.45 14.1518 318.75 14.9142 322.276 16.4458L317.479 31.3122C314.632 29.5264 311.751 28.6782 308.468 28.6782C302.946 28.6782 298.042 32.2462 296.355 37.4249C294.752 42.5246 297.612 46.0068 303.358 46.0068C306.263 46.0068 309.058 45.241 313.907 43.2046L309.271 57.7275Z" fill="#EB1B2A"/>
<path d="M345.374 33.1838C347.164 27.5483 346.195 24.6602 342.387 24.6602C338.963 24.6602 336.085 27.1912 334.467 33.1838H345.374ZM353.118 53.1189C346.734 58.9466 340.621 60.5332 333.084 60.5332C319.502 60.5332 313.983 50.2583 318.193 37.1742C322.482 24.0077 334.337 14.1518 345.975 14.1518C357.991 14.1518 363.421 24.2378 357.298 39.7739H332.304C330.941 44.3584 333.537 48.6923 339.505 48.6923C343.688 48.6923 350.361 47.1401 356.219 43.4347L353.118 53.1189Z" fill="#EB1B2A"/>
<path d="M199.814 85.1973C204.584 85.1973 207.253 82.893 208.458 79.1841C209.667 75.4031 208.458 73.3598 203.565 73.3598H199.876L196.061 85.1973H199.814ZM186.177 63.7923H210.845C224.657 63.7923 227.305 71.2409 224.863 79.0364C222.425 86.5538 215.031 94.9193 199.962 94.9193H192.943L187.376 112.162H170.538L186.177 63.7923Z" fill="#EB1B2A"/>
<path d="M39.6782 94.4548L39.4034 78.1804L28.294 94.4548H39.6782ZM35.9281 63.7879H51.9449L55.877 112.154H39.9598L39.8499 104.283H21.6214L16.2333 112.154H0.0001297L35.9281 63.7879Z" fill="#EB1B2A"/>
<path d="M236.447 96.8827C233.167 98.902 229.053 98.5517 227.755 102.697C227.137 104.658 227.882 106.093 229.582 106.093C231.231 106.093 232.45 105.29 234.335 104.022C234.362 103.332 234.548 102.58 235.022 101.203L236.447 96.8827ZM244.596 112.628C237.982 113.119 235.018 112.343 234.077 109.156C230.193 111.564 227.456 112.766 223.408 112.766C216.062 112.766 214.355 108.445 215.901 103.631C216.605 101.361 218.246 99.0909 220.43 97.2502C225.183 93.2838 234.256 92.7171 238.724 89.6676C239.72 86.2678 238.631 84.3207 235.032 85.0624C230.417 86.0103 228.226 87.2946 221.406 91.4396L224.922 80.4573C230.932 76.7312 235.956 74.5403 241.945 74.0801C249.517 73.5032 255.575 77.6275 252.55 87.0474L249.112 97.6726C247.917 101.43 247.811 102.563 251.482 102.638L244.596 112.628Z" fill="#EB1B2A"/>
<path d="M92.4498 98.3835C91.3268 101.855 92.6456 103.267 96.1141 102.065L89.5205 112.127C87.3844 112.628 85.7601 112.766 83.7065 112.766C78.7236 112.766 76.9825 110.994 77.4667 106.32C73.0092 110.636 68.6375 112.766 64.1525 112.766C58.6716 112.766 53.9978 109.507 57.5109 98.5929L65.2343 74.7188H78.1844L71.6527 94.9802C70.3236 98.9432 71.0105 100.65 73.6892 100.65C75.6191 100.65 77.4633 99.5167 79.9942 96.8209L87.1509 74.7188H100.104L92.4498 98.3835Z" fill="#EB1B2A"/>
<path d="M120.874 108.59C116.602 111.419 112.567 112.766 108.205 112.766C104.283 112.766 100.781 111.492 99.2559 108.799C98.0918 106.67 98.2531 103.985 99.9324 98.8814L104.709 84.07H98.9812L100.458 79.4648L121.341 63.5236H124.267L120.681 74.7188H131.08L128.061 84.07H117.659L114.016 95.2653C112.889 98.7337 113.645 100.221 116.324 100.221C118.504 100.221 121.214 99.3004 124.528 97.3189L120.874 108.59Z" fill="#EB1B2A"/>
<path d="M143.873 100.65C147.675 100.65 151.205 97.6726 152.609 93.4246C153.945 89.1662 152.311 86.1957 148.513 86.1957C144.714 86.1957 141.119 89.1662 139.78 93.4246C138.382 97.6726 140.075 100.65 143.873 100.65ZM152.379 74.0801C166.391 74.0801 168.444 84.355 165.56 93.4246C162.331 103.342 153.145 112.766 140.068 112.766C126.057 112.766 123.879 102.563 126.829 93.4246C129.92 83.785 138.808 74.0801 152.379 74.0801Z" fill="#EB1B2A"/>
<path d="M342.136 86.9718C339.179 84.355 336.792 83.2183 334.364 83.2183C332.558 83.2183 330.961 84.2829 330.473 85.7699C329.278 89.5234 335.968 88.6717 338.715 93.7062C339.824 95.6911 340.161 98.4521 339.179 101.43C337.699 106.107 332.352 112.766 322.884 112.766C317.595 112.766 312.784 111.492 309.999 109.156L313.382 98.5243C316.486 102.209 318.983 103.627 322.097 103.627C324.154 103.627 325.872 102.635 326.435 100.719C327.98 96.0414 314.154 96.1135 317.733 85.059C319.278 80.313 324.179 74.0801 334.512 74.0801C339.182 74.0801 342.081 74.9283 345.36 77.1262L342.136 86.9718Z" fill="#EB1B2A"/>
<path d="M273.896 74.7428L270.665 84.7362H270.788C275.342 77.7236 280.147 74.1075 284.686 74.1075C287.183 74.1075 289.391 75.0279 291.747 77.0128L281.239 91.8895C279.885 89.6916 278.488 88.7747 276.681 88.7747C273.508 88.7747 270.136 92.3187 268.051 96.6389L263.058 112.154H250.108L262.189 74.7428H273.896Z" fill="#EB1B2A"/>
<path d="M303.33 63.5064L288.82 84.0975L291.781 84.07L287.004 98.8814C285.321 103.985 285.163 106.67 286.331 108.799C287.848 111.492 291.355 112.766 295.28 112.766C299.634 112.766 303.673 111.419 307.942 108.59L311.596 97.3189C308.285 99.3004 305.576 100.221 303.395 100.221C300.713 100.221 299.957 98.7337 301.087 95.2653L304.731 84.07H315.133L318.151 74.7188H307.753L311.341 63.5236L303.33 63.5064Z" fill="#EB1B2A"/>
<path d="M357.651 112.145L393.369 1.80575H378.022L342.328 112.145H357.651Z" fill="#EB1B2A"/>
<path d="M494.78 3.97307V2.44488H495.793C496.308 2.44488 496.868 2.55477 496.868 3.16261C496.868 3.92155 496.305 3.97307 495.669 3.97307H494.78ZM494.78 4.60839H495.635L496.94 6.74442H497.768L496.37 4.56718C497.095 4.4779 497.648 4.09326 497.648 3.21069C497.648 2.24226 497.074 1.80614 495.91 1.80614H494.031V6.74442H494.78V4.60839ZM495.676 8.55078C498.005 8.55078 500 6.74442 500 4.26154C500 1.80614 498.005 -0.000221252 495.676 -0.000221252C493.321 -0.000221252 491.332 1.80614 491.332 4.26154C491.332 6.74442 493.321 8.55078 495.676 8.55078ZM492.201 4.26154C492.201 2.24227 493.726 0.710647 495.676 0.710647C497.613 0.710647 499.138 2.24227 499.138 4.26154C499.138 6.32546 497.613 7.83991 495.676 7.83991C493.726 7.83991 492.201 6.32546 492.201 4.26154Z" fill="#211E1F"/>
</g>
<defs>
<clipPath id="clip0_28_1314">
<rect width="500" height="116.8" fill="white"/>
</clipPath>
</defs>
</svg>
