<svg width="500" height="151" viewBox="0 0 500 151" fill="none" xmlns="http://www.w3.org/2000/svg">
<g clip-path="url(#clip0_28_1315)">
<path d="M310.121 117.897C281.1 139.288 239.036 150.701 202.819 150.701C152.038 150.701 106.321 131.919 71.7349 100.68C69.0175 98.2237 71.4523 94.8759 74.7131 96.7889C112.038 118.506 158.19 131.571 205.863 131.571C238.014 131.571 273.383 124.919 305.904 111.115C310.817 109.028 314.925 114.332 310.121 117.897Z" fill="#FF9900"/>
<path d="M322.187 104.092C318.491 99.3532 297.665 101.853 288.318 102.962C285.47 103.31 285.035 100.831 287.6 99.0489C304.187 87.3752 331.404 90.7447 334.578 94.6577C337.751 98.5924 333.752 125.874 318.165 138.896C315.774 140.896 313.491 139.831 314.556 137.179C318.056 128.44 325.904 108.853 322.187 104.092Z" fill="#FF9900"/>
<path d="M288.969 16.639V5.29138C288.969 3.57402 290.274 2.42188 291.839 2.42188H342.642C344.273 2.42188 345.577 3.59576 345.577 5.29138V15.0086C345.555 16.639 344.186 18.7694 341.751 22.1388L315.425 59.725C325.208 59.4859 335.534 60.9424 344.403 65.9423C346.403 67.0727 346.946 68.7248 347.099 70.3552V82.4637C347.099 84.1158 345.273 86.0506 343.36 85.0506C327.729 76.8551 306.969 75.9638 289.687 85.1376C287.926 86.094 286.078 84.181 286.078 82.5289V71.0291C286.078 69.1814 286.1 66.0292 287.948 63.225L318.447 19.4867H291.904C290.274 19.4867 288.969 18.3346 288.969 16.639Z" fill="#221F1F"/>
<path d="M103.648 87.4413H88.1915C86.7133 87.3326 85.5394 86.2239 85.4307 84.8109V5.4865C85.4307 3.89958 86.7567 2.63872 88.4089 2.63872H102.822C104.322 2.7039 105.517 3.85609 105.626 5.29084V15.6602H105.909C109.669 5.63866 116.734 0.964844 126.256 0.964844C135.93 0.964844 141.973 5.63866 146.321 15.6602C150.06 5.63866 158.56 0.964844 167.668 0.964844C174.146 0.964844 181.233 3.6387 185.559 9.63857C190.45 16.3123 189.45 26.0078 189.45 34.5076L189.429 84.5718C189.429 86.1587 188.102 87.4413 186.45 87.4413H171.016C169.472 87.3326 168.233 86.0935 168.233 84.5718V42.5292C168.233 39.1814 168.538 30.8338 167.799 27.6599C166.646 22.334 163.19 20.834 158.712 20.834C154.973 20.834 151.06 23.3339 149.473 27.3339C147.886 31.3338 148.038 38.0293 148.038 42.5292V84.5718C148.038 86.1587 146.712 87.4413 145.06 87.4413H129.625C128.06 87.3326 126.843 86.0935 126.843 84.5718L126.821 42.5292C126.821 33.6816 128.278 20.6601 117.3 20.6601C106.191 20.6601 106.626 33.3555 106.626 42.5292V84.5718C106.626 86.1587 105.3 87.4413 103.648 87.4413Z" fill="#221F1F"/>
<path d="M389.315 0.964844C412.249 0.964844 424.662 20.6601 424.662 45.703C424.662 69.8982 410.945 89.0934 389.315 89.0934C366.794 89.0934 354.533 69.3982 354.533 44.8552C354.533 20.1601 366.946 0.964844 389.315 0.964844ZM389.446 17.1602C378.054 17.1602 377.337 32.6816 377.337 42.3553C377.337 52.0507 377.185 72.7459 389.315 72.7459C401.293 72.7459 401.858 56.0507 401.858 45.8769C401.858 39.1814 401.576 31.1816 399.554 24.8339C397.815 19.3123 394.358 17.1602 389.446 17.1602Z" fill="#221F1F"/>
<path d="M454.401 87.4413H439.01C437.467 87.3326 436.228 86.0935 436.228 84.5718L436.206 5.22562C436.336 3.76913 437.619 2.63872 439.184 2.63872H453.51C454.858 2.7039 455.966 3.61697 456.271 4.85607V16.9862H456.553C460.879 6.13865 466.945 0.964844 477.618 0.964844C484.553 0.964844 491.314 3.46479 495.661 10.3125C499.705 16.6602 499.705 27.3339 499.705 35.0076V84.9414C499.531 86.3326 498.248 87.4413 496.727 87.4413H481.227C479.814 87.3326 478.64 86.2892 478.488 84.9414V41.8553C478.488 33.1816 479.488 20.4862 468.814 20.4862C465.053 20.4862 461.597 23.0079 459.879 26.8339C457.706 31.6816 457.423 36.5076 457.423 41.8553V84.5718C457.401 86.1587 456.053 87.4413 454.401 87.4413Z" fill="#221F1F"/>
<path d="M248.47 49.5499V46.2022C237.297 46.2022 225.492 48.5934 225.492 61.7671C225.492 68.4408 228.949 72.9625 234.884 72.9625C239.231 72.9625 243.123 70.2886 245.579 65.9409C248.622 60.5932 248.47 55.5715 248.47 49.5499ZM264.057 87.223C263.035 88.1361 261.557 88.2013 260.405 87.5926C255.274 83.3318 254.361 81.3536 251.535 77.2885C243.057 85.9405 237.057 88.5274 226.058 88.5274C213.058 88.5274 202.928 80.5058 202.928 64.4409C202.928 51.8977 209.732 43.3544 219.406 39.1806C227.797 35.485 239.514 34.8328 248.47 33.8111V31.8112C248.47 28.1373 248.753 23.7896 246.601 20.6158C244.709 17.768 241.101 16.5941 237.927 16.5941C232.036 16.5941 226.775 19.6158 225.492 25.8765C225.232 27.2678 224.21 28.6373 222.819 28.7025L207.819 27.0939C206.558 26.8113 205.167 25.7895 205.515 23.8548C208.971 5.68128 225.384 0.203125 240.079 0.203125C247.601 0.203125 257.427 2.20308 263.361 7.89861C270.883 14.9202 270.165 24.2896 270.165 34.485V58.5715C270.165 65.8105 273.165 68.9843 275.991 72.8973C276.991 74.2885 277.209 75.9624 275.948 77.0059C272.796 79.6363 267.187 84.5275 264.1 87.2665L264.057 87.223Z" fill="#221F1F"/>
<path d="M45.8443 49.5499V46.2022C34.6706 46.2022 22.8665 48.5934 22.8665 61.7671C22.8665 68.4408 26.3229 72.9625 32.2576 72.9625C36.6053 72.9625 40.4966 70.2886 42.953 65.9409C45.9964 60.5932 45.8443 55.5715 45.8443 49.5499ZM61.4309 87.223C60.4092 88.1361 58.931 88.2013 57.7788 87.5926C52.6485 83.3318 51.7355 81.3536 48.9094 77.2885C40.4313 85.9405 34.4315 88.5274 23.4317 88.5274C10.432 88.5274 0.301758 80.5058 0.301758 64.4409C0.301758 51.8977 7.10596 43.3544 16.7797 39.1806C25.1708 35.485 36.8879 34.8328 45.8443 33.8111V31.8112C45.8443 28.1373 46.1269 23.7896 43.9748 20.6158C42.0835 17.768 38.4749 16.5941 35.301 16.5941C29.4098 16.5941 24.1491 19.6158 22.8665 25.8765C22.6056 27.2678 21.5839 28.6373 20.1926 28.7025L5.19296 27.0939C3.93211 26.8113 2.54084 25.7895 2.88866 23.8548C6.34511 5.68128 22.7578 0.203125 37.4532 0.203125C44.9747 0.203125 54.8006 2.20308 60.7353 7.89861C68.2569 14.9202 67.5395 24.2896 67.5395 34.485V58.5715C67.5395 65.8105 70.5394 68.9843 73.3654 72.8973C74.3654 74.2885 74.5828 75.9624 73.322 77.0059C70.1699 79.6363 64.5613 84.5275 61.4744 87.2665L61.4309 87.223Z" fill="#221F1F"/>
</g>
<defs>
<clipPath id="clip0_28_1315">
<rect width="500" height="150.912" fill="white"/>
</clipPath>
</defs>
</svg>
