<svg width="500" height="61" viewBox="0 0 500 61" fill="none" xmlns="http://www.w3.org/2000/svg">
<path fill-rule="evenodd" clip-rule="evenodd" d="M484.138 11.2585C476.279 10.8358 468.906 14.483 463.157 21.1736C463.021 20.7113 460.458 10.8906 448.502 13.2547H430.979L423.64 26.1925C424.138 20.8396 421.738 11.2585 409.479 11.2585C405.808 11.2585 403.234 11.7566 399.838 13.2075L407.2 0.19434H359.411L349.081 18.4453H365.134L341.909 35.6113C342.13 35.0491 342.347 34.4811 342.553 33.9038C347.266 20.8057 341.828 11.4358 330.585 11.1302C325.66 10.9981 321.326 12.2094 316.985 14.8283L317.883 13.234H310.383L313.655 7.45472H291.911L288.689 13.1491H255.711C256.042 5.18868 248.391 0 237.04 0C232.862 0 223.715 0.835849 217.291 7.44717L221.387 0.207547H0V57.5906H232.032L235.787 50.9755C236.172 51.9226 239.206 58.9 252.155 58.9C256.408 58.9 266.687 57.9094 272.311 49.0774C272.736 50.4792 275.349 57.6057 282.955 57.6057H293.577L299.404 47.3132C300.136 55.3189 306.14 58.4962 312.547 58.8528C318.726 59.1981 324.238 57.4038 328.955 53.9094L326.845 57.6075H374.721L379.23 49.6566C380.419 53.7472 382.74 58.3962 391.808 59.066C397.247 59.466 403.083 57.7962 407.366 54.8736L405.815 57.6075L445.908 57.617L452.947 45.1453C452.208 51.666 456.04 58.5264 465.694 59.0774C479.43 59.8604 488.217 49.434 492.045 41.2491C504.14 15.3943 490.132 11.583 484.138 11.2585Z" fill="white"/>
<mask id="mask0_28_1317" style="mask-type:luminance" maskUnits="userSpaceOnUse" x="490" y="3" width="10" height="10">
<path d="M490.763 3.36523H499.546V12.0577H490.763V3.36523Z" fill="white"/>
</mask>
<g mask="url(#mask0_28_1317)">
<path fill-rule="evenodd" clip-rule="evenodd" d="M494.234 7.40108V5.85391H495.272C495.808 5.85391 496.366 5.95769 496.366 6.58599C496.366 7.35391 495.785 7.40108 495.14 7.40108H494.234ZM494.234 8.03127H495.11L496.436 10.2181H497.282L495.853 7.99354C496.589 7.92561 497.155 7.52184 497.155 6.63505C497.155 5.63127 496.576 5.20297 495.391 5.20297H493.502V10.2181H494.236V8.02939L494.234 8.03127ZM491.646 7.69165C491.646 5.63127 493.166 4.0841 495.174 4.0841C497.106 4.0841 498.665 5.63127 498.665 7.69354C498.665 9.78788 497.106 11.3256 495.174 11.3256C493.166 11.3256 491.646 9.78788 491.646 7.69354V7.69165ZM495.174 12.0577C497.525 12.0577 499.548 10.2181 499.548 7.69354C499.548 5.20297 497.525 3.36523 495.174 3.36523C492.772 3.36523 490.763 5.20297 490.763 7.69354C490.763 10.2181 492.772 12.0577 495.174 12.0577Z" fill="#D52B1E"/>
</g>
<path fill-rule="evenodd" clip-rule="evenodd" d="M177.228 3.1972L148.115 54.3312H157.866L187.007 3.1972H177.228ZM197.979 3.1972H191.939L162.83 54.3312H168.862L179.352 35.95L197.979 3.19531V3.1972ZM214.852 3.1972L185.747 54.3312H187.468L216.562 3.1972H214.852ZM204.33 3.1972L175.236 54.3312H178.788L207.892 3.1972H204.33ZM3.18457 3.1972V54.3312H76.9431L106.037 3.1972H3.18457ZM158.339 3.1972L129.232 54.3312H144.556L173.675 3.1972H158.339ZM108.047 3.1972L78.9166 54.3312H103.552L132.658 3.1972H108.047ZM135.09 3.1972L105.985 54.3312H126.264L155.385 3.1972H135.09Z" fill="#F37F00"/>
<path fill-rule="evenodd" clip-rule="evenodd" d="M274.431 15.9807L260.295 40.6656C259.14 42.7071 257.944 43.2863 256.112 42.9335C253.821 42.492 254.778 40.7712 255.44 39.5939L269.37 15.9788H255.517C255.517 15.9788 239.768 42.8958 239.776 42.909C236.968 47.9656 240.655 53.0278 249.776 54.1467C254.961 54.7825 265.836 54.1731 270.961 45.5618L270.987 45.5373L288.217 15.9788H274.431V15.9807ZM299.827 27.609H307.434L313.695 16.8467H306.11L309.415 11.1863H294.468L276.559 41.8844C274.925 44.8259 275.08 48.1184 277.459 51.092C279.157 53.2505 280.942 54.3297 284.155 54.3297H292.632L298.508 44.2618H292.11C291.619 44.2618 291.061 44.341 290.855 43.8844C290.746 43.6014 290.685 43.3071 290.814 43.0448L299.827 27.609ZM233.812 20.4712L227.893 30.9656H220.685L227.172 19.4656C228.027 17.941 229.681 16.5939 232.281 16.8467C234.457 17.0561 235.163 18.1901 233.814 20.4731M239.593 3.40896C233.625 2.65047 220.944 3.40896 215.381 14.1637L192.676 54.3297H207.476L213.81 43.1165H221.006L214.666 54.3297H229.353L250.272 17.4354C253.753 10.9316 250.404 4.78255 239.593 3.40896ZM325.585 33.641C322.276 40.2203 320.015 43.4976 317.227 42.9354C315.197 42.5259 315.955 39.558 317.955 35.5844C320.747 30.0373 323.742 25.9958 326.238 26.4429C328.574 26.858 327.585 29.6693 325.587 33.641M330.606 14.4108C319.47 13.7976 309.01 22.8825 304.21 36.8769C300.772 46.8958 302.225 55.3127 312.763 55.8939C323.41 56.4788 333.6 49.6373 339.293 33.0429C342.729 23.0241 340.274 14.941 330.608 14.4108M454.523 16.3542C447.91 14.7222 443.561 18.9373 443.561 18.9373L445.01 16.3467H432.448L410.831 54.3203H424.632L437.625 31.4524C438.531 29.8354 439.772 27.975 441.625 28.3731C443.278 28.7316 443.768 30.2637 443.225 31.2939L430.149 54.3316H443.849L459.534 26.6448C461.698 22.6259 458.138 17.2486 454.525 16.3561M394.853 17.2901L402.866 3.19576H361.946L355.059 15.2995H375.193L340.593 40.741L332.802 54.3297H373.793L380.647 42.3033H361.406L394.853 17.2901ZM478.066 32.8863H471.625C473.938 28.7882 476.308 26.0712 478.338 26.441C480.483 26.8335 479.772 29.3146 478.066 32.8863ZM483.74 14.4108C472.289 13.7976 462.231 22.8825 457.293 36.8807C453.759 46.8995 454.557 55.3146 465.391 55.8939C474.51 56.3807 482.606 51.7052 488.672 40.541H474.698C472.793 43.4712 470.989 45.2769 469.253 44.9354C467.64 44.6184 468.181 41.5712 469.461 38.3693H489.778C490.566 36.7165 491.3 34.9467 491.974 33.041C495.506 23.0222 493.674 14.941 483.74 14.4108Z" fill="#D52B1E"/>
<path fill-rule="evenodd" clip-rule="evenodd" d="M405.204 33.6422C401.893 40.2215 399.632 43.4988 396.846 42.9366C394.814 42.5271 395.574 39.5592 397.572 35.5856C400.365 30.0385 403.361 25.997 405.855 26.4422C408.191 26.8611 407.204 29.6705 405.204 33.6422ZM410.227 14.412C399.089 13.7988 388.629 22.8837 383.829 36.8819C380.391 46.8988 381.842 55.3158 392.378 55.8951C403.025 56.48 413.215 49.6366 418.91 33.0422C422.348 23.0234 419.891 14.9422 410.227 14.412Z" fill="#D52B1E"/>
</svg>
