<svg width="500" height="42" viewBox="0 0 500 42" fill="none" xmlns="http://www.w3.org/2000/svg">
<g clip-path="url(#clip0_28_1309)">
<mask id="mask0_28_1309" style="mask-type:luminance" maskUnits="userSpaceOnUse" x="-2876" y="-1848" width="3520" height="1976">
<path d="M-2875.46 -1847.8H643.266V127.386H-2875.46V-1847.8Z" fill="white"/>
</mask>
<g mask="url(#mask0_28_1309)">
<path fill-rule="evenodd" clip-rule="evenodd" d="M339.408 23.5054C356.456 40.5219 356.456 40.5219 356.456 40.5219C348.568 40.5219 348.568 40.5219 348.568 40.5219C331.901 23.5054 331.901 23.5054 331.901 23.5054C331.901 18.5754 331.901 18.5754 331.901 18.5754C341.984 18.5754 341.984 18.5754 341.984 18.5754C346.564 18.5754 349.109 16.5397 349.109 12.3413C349.109 8.14279 346.564 6.13897 341.984 6.13897C322.55 6.13897 322.55 6.13897 322.55 6.13897C322.55 40.5219 322.55 40.5219 322.55 40.5219C316.507 40.5219 316.507 40.5219 316.507 40.5219C316.507 0.827265 316.507 0.827265 316.507 0.827265C341.984 0.827265 341.984 0.827265 341.984 0.827265C350.031 0.827265 354.802 5.40742 354.802 12.3413C354.802 19.3069 350.031 23.5054 341.984 23.5054H339.408ZM415.266 0.827265C415.266 0.827265 415.266 0.827265 448.981 0.827265C448.981 0.827265 448.981 0.827265 448.981 6.13897C448.981 6.13897 448.981 6.13897 420.96 6.13897C420.96 6.13897 420.96 6.13897 420.96 18.3845C420.96 18.3845 420.96 18.3845 448.091 18.3845C448.091 18.3845 448.091 18.3845 448.091 23.3145C448.091 23.3145 448.091 23.3145 420.96 23.3145C420.96 23.3145 420.96 23.3145 420.96 35.5601C420.96 35.5601 420.96 35.5601 448.981 35.5601C448.981 35.5601 448.981 35.5601 448.981 40.5219C448.981 40.5219 448.981 40.5219 415.266 40.5219V0.827265ZM397.296 0.827265C397.296 0.827265 397.296 0.827265 402.989 0.827265C402.989 0.827265 402.989 0.827267 402.989 40.3311C402.989 40.3311 402.989 40.3311 397.296 40.3311C397.296 40.3311 397.296 40.3311 371.278 9.41505C371.278 9.41505 371.278 9.41505 371.278 40.3311C371.278 40.3311 371.278 40.3311 365.425 40.3311C365.425 40.3311 365.425 40.3311 365.425 0.827265C365.425 0.827265 365.425 0.827265 371.278 0.827265C371.278 0.827265 371.278 0.827265 397.296 31.7115V0.827265ZM280.374 1.20894C280.374 1.20894 280.374 1.20895 245.006 40.5219C245.006 40.5219 245.006 40.5219 238.962 40.5219C238.962 40.5219 238.962 40.5219 238.962 9.25602C238.962 9.25602 238.962 9.25602 211.1 40.5219C211.1 40.5219 211.1 40.5219 205.056 40.5219C205.056 40.5219 205.056 40.5219 205.056 1.20894C205.056 1.20894 205.056 1.20894 211.1 1.20894C211.1 1.20894 211.1 1.20894 211.1 32.4748C211.1 32.4748 211.1 32.4748 239.153 1.20894C239.153 1.20894 239.153 1.20894 245.006 1.20894C245.006 1.20894 245.006 1.20894 245.006 32.4748C245.006 32.4748 245.006 32.4748 273.059 1.20894H280.374ZM298.154 1.20894C303.816 1.20894 303.816 1.20894 303.816 1.20894C303.816 40.5219 303.816 40.5219 303.816 40.5219C298.154 40.5219 298.154 40.5219 298.154 40.5219C298.154 31.3934 298.154 31.3934 298.154 31.3934C278.371 31.3934 278.371 31.3934 278.371 31.3934C269.91 40.5219 269.91 40.5219 269.91 40.5219C262.785 40.5219 262.785 40.5219 262.785 40.5219L298.154 1.20894ZM282.76 26.2726C298.154 26.2726 298.154 26.2726 298.154 26.2726C298.154 9.25602 298.154 9.25602 298.154 9.25602L282.76 26.2726ZM124.045 23.8871C124.045 23.8871 124.045 23.8871 141.093 40.7128C141.093 40.7128 141.093 40.7128 133.205 40.7128C133.205 40.7128 133.205 40.7128 116.539 23.728C116.539 23.728 116.539 23.728 116.539 18.7662C116.539 18.7662 116.539 18.7662 126.78 18.7662C131.201 18.7662 133.746 16.5715 133.746 12.5639C133.746 8.36543 131.201 6.17078 126.78 6.17078C126.78 6.17078 126.78 6.17078 107.187 6.17078C107.187 6.17078 107.187 6.17078 107.187 40.7128C107.187 40.7128 107.187 40.7128 101.144 40.7128C101.144 40.7128 101.144 40.7128 101.144 1.20894C101.144 1.20894 101.144 1.20894 126.78 1.20894C134.859 1.20894 139.439 5.43922 139.439 12.5639C139.439 19.4977 134.859 23.8871 126.78 23.8871H124.045ZM173.186 18.957C173.186 18.957 173.186 18.957 191.857 18.957C191.857 18.957 191.857 18.957 191.857 37.4367C189.121 38.8998 186.195 39.8222 183.078 40.3629C179.961 41.0944 176.653 41.4443 172.614 41.4443C165.839 41.4443 159.986 39.8222 155.756 36.7051C153.212 34.8603 151.367 32.8565 150.095 30.471C148.791 27.5448 147.868 24.4596 147.868 20.8018C147.868 17.4939 148.791 14.027 150.254 11.4507C151.558 8.90615 153.371 6.71149 155.947 4.86671C160.527 2.13134 166.221 0.477392 172.614 0.477392C175.381 0.477392 177.925 0.477392 180.502 1.04991C182.506 1.04991 184.891 1.78146 187.467 2.67205C188.39 2.86289 188.74 3.05373 189.662 3.4036C189.662 3.4036 189.662 3.4036 189.853 3.4036C189.853 3.4036 189.853 3.4036 190.044 3.59444C190.394 3.59444 190.584 3.97612 191.125 3.97612C191.125 3.97612 191.125 3.97612 191.125 4.13515C191.125 4.13515 191.125 4.13515 191.125 9.6377C188.39 8.36543 185.464 7.2522 182.346 6.71149C179.388 5.97994 176.303 5.7891 173.186 5.7891C167.493 5.7891 162.722 7.06136 159.605 9.44686C155.936 12.0126 154.102 15.9142 154.102 21.1517C154.102 25.7318 155.947 29.9303 159.605 32.5067C163.103 34.8603 167.684 36.1644 173.186 36.1644C177.925 36.1644 181.965 35.4329 186.004 34.1288C186.004 34.1288 186.004 34.1288 186.004 23.8871C186.004 23.8871 186.004 23.8871 173.186 23.8871V18.957ZM92.7155 20.8018C92.7155 36.1644 80.8198 41.6352 69.274 41.6352C63.0399 41.6352 57.3465 39.8222 53.148 36.7051C48.5361 33.0474 45.9915 27.5766 45.9915 20.8018C45.9915 14.027 48.5361 8.55627 53.148 5.24838C57.3465 2.13134 63.0399 0.318359 69.274 0.318359C75.8579 0.318359 81.5513 2.13134 85.7498 5.24838C90.33 8.55627 92.7155 14.027 92.7155 20.8018ZM51.844 20.8018C51.844 25.7318 53.6887 29.9303 57.1557 32.5067C59.9228 35.242 64.3121 36.5143 69.274 36.5143C74.5115 36.5143 78.7205 35.1784 81.9012 32.5067C85.2091 29.9303 86.863 25.7318 86.863 20.8018C86.863 11.4825 80.2473 5.43922 69.274 5.43922C58.6188 5.43922 51.844 11.4825 51.844 20.8018ZM39.5666 29.7713C39.5666 36.5143 34.9864 40.7446 27.4801 40.7446C0.158203 40.7446 0.158203 40.7446 0.158203 40.7446C0.158203 1.24075 0.158203 1.24075 0.158203 1.24075C26.3669 1.24075 26.3669 1.24075 26.3669 1.24075C33.7142 1.24075 38.2943 5.24838 38.2943 11.6415C38.2943 15.2993 36.4496 18.0665 33.7142 19.8794C37.5628 21.7242 39.5666 25.0003 39.5666 29.7713ZM32.4101 12.0232C32.4101 8.17459 30.2155 6.36162 26.2078 6.36162C5.85159 6.36162 5.85159 6.36162 5.85159 6.36162C5.85159 17.6848 5.85159 17.6848 5.85159 17.6848C25.8261 17.6848 25.8261 17.6848 25.8261 17.6848C30.0564 17.6848 32.4101 15.681 32.4101 12.0232ZM5.85159 35.7827C27.0984 35.7827 27.0984 35.7827 27.0984 35.7827C31.5195 35.7827 33.905 33.5881 33.905 29.3896C33.905 27.3858 33.1417 22.6148 26.9394 22.6148C5.85159 22.6148 5.85159 22.6148 5.85159 22.6148V35.7827ZM499.936 40.7446C499.936 40.7446 499.936 40.7446 492.048 40.7446C492.048 40.7446 492.047 40.7446 475.381 23.9189C475.381 23.9189 475.381 23.9189 475.381 18.957C475.381 18.957 475.381 18.957 485.654 18.957C490.044 18.957 492.62 16.7624 492.62 12.7547C492.62 8.55627 490.044 6.36162 485.654 6.36162C485.654 6.36162 485.654 6.36162 466.03 6.36162C466.03 6.36162 466.03 6.36162 466.03 40.7446C466.03 40.7446 466.03 40.7446 460.177 40.7446C460.177 40.7446 460.177 40.7446 460.177 1.24075C460.177 1.24075 460.177 1.24075 485.654 1.24075C493.701 1.24075 498.282 5.63006 498.282 12.7547C498.282 19.6886 493.701 23.9189 485.654 23.9189C485.654 23.9189 485.654 23.9189 483.078 23.9189L499.936 40.7446Z" fill="#051729"/>
</g>
</g>
<defs>
<clipPath id="clip0_28_1309">
<rect width="500" height="41.6667" fill="white"/>
</clipPath>
</defs>
</svg>
