<svg width="500" height="98" viewBox="0 0 500 98" fill="none" xmlns="http://www.w3.org/2000/svg">
<g clip-path="url(#clip0_28_1306)">
<path fill-rule="evenodd" clip-rule="evenodd" d="M443.1 1.7322C443.885 2.05921 444.637 2.54973 445.225 3.13835C445.847 3.75967 446.337 4.4791 446.664 5.29662C446.991 6.08145 447.155 6.93168 447.155 7.78191C447.188 10.4634 445.585 12.8833 443.1 13.897C440.647 14.9107 437.802 14.3548 435.906 12.4582C434.009 10.5942 433.453 7.74921 434.467 5.26392C435.513 2.81134 437.933 1.20898 440.582 1.20898C441.465 1.20898 442.315 1.40519 443.1 1.7322ZM442.806 13.243C443.525 12.9487 444.146 12.5236 444.702 11.9676C445.225 11.4444 445.651 10.7904 445.945 10.071C446.239 9.38426 446.37 8.63214 446.37 7.84731C446.37 5.49283 444.931 3.36726 442.74 2.48433C440.582 1.5687 438.064 2.09191 436.396 3.75967C434.728 5.46013 434.238 7.97811 435.154 10.1364C436.069 12.3274 438.227 13.7335 440.582 13.7008C441.367 13.7008 442.119 13.5373 442.806 13.243ZM441.792 7.6838C441.814 7.6838 441.825 7.6838 441.825 7.6838C441.803 7.6838 441.792 7.6838 441.792 7.6838ZM441.792 7.6838C442.511 7.88001 442.74 8.17432 442.806 9.02455C442.827 9.22076 442.849 9.40606 442.871 9.58047C442.893 9.77668 442.925 9.96198 442.969 10.1364C442.991 10.3326 443.034 10.5179 443.1 10.6923C443.143 10.8885 443.187 11.0738 443.231 11.2482H442.217C442.173 11.0956 442.141 10.943 442.119 10.7904C442.075 10.6378 442.032 10.4852 441.988 10.3326C441.966 10.18 441.944 10.0274 441.923 9.87478C441.901 9.72217 441.89 9.56957 441.89 9.41696C441.792 8.37053 441.53 8.04352 440.353 8.04352H439.143V11.2482H438.162V4.18479H440.68C441.203 4.18479 443.067 4.18479 443.067 5.98335C443.067 6.15775 443.045 6.34306 443.002 6.53927C442.936 6.73547 442.849 6.90988 442.74 7.06248C442.609 7.21509 442.468 7.34589 442.315 7.4549C442.141 7.5639 441.966 7.6402 441.792 7.6838ZM442.086 6.14685C442.086 5.00231 441.203 5.00231 440.68 5.00231H439.143V7.22599H440.68C441.171 7.19329 442.086 7.25869 442.086 6.14685Z" fill="#053361"/>
<path fill-rule="evenodd" clip-rule="evenodd" d="M197.482 83.0605H246.73V97.449H197.482V83.0605ZM260.759 83.0605H309.974V97.449H260.759V83.0605ZM324.003 83.0605H373.251V97.449H324.003V83.0605ZM387.247 83.0605H436.462V97.449H387.247V83.0605ZM450.491 83.0605H499.739V97.449H450.491V83.0605Z" fill="#053361"/>
<path fill-rule="evenodd" clip-rule="evenodd" d="M197.711 64.6174V1.86396H222.498L223.087 11.38H223.316C227.632 2.38718 233.976 0 239.895 0C247.973 0 253.859 3.62982 257.096 11.38C261.413 2.38718 267.789 0 273.676 0C284.336 0 291.956 6.24591 291.956 22.8254V64.6174H266.514V25.2453C266.514 20.8633 264.552 18.5088 262.132 18.5088C259.745 18.5088 257.554 20.4709 257.554 25.5069V64.6174H232.113V25.2453C232.113 20.8633 230.15 18.5088 227.698 18.5088C225.278 18.5088 223.152 20.4709 223.152 25.5069V64.6174H197.711ZM408.339 64.6174L396.926 41.7593L386.135 64.6174H360.301L360.334 64.552H334.925L334.14 58.6658C329.922 64.3885 323.479 66.4814 316.841 66.4814C304.513 66.4814 295.814 59.8103 295.814 47.4493C295.814 32.0471 307.914 25.7031 330.641 25.7031L334.14 25.7358V19.2937C334.14 16.2525 332.603 14.3231 328.45 14.3231C324.853 14.3231 322.891 15.5657 322.564 20.7979H298.398C299.379 4.05494 314.389 0.392413 329.725 0.392413C353.074 0.392413 360.562 8.01177 360.562 22.5311V64.0615L377.305 31.0988L361.805 2.19097H388.424L396.926 21.9751L404.022 2.19097H430.608L416.351 31.0988L433.846 64.6174H408.339ZM334.14 42.9693V37.7698H330.15C322.4 37.7698 320.733 41.4977 320.733 44.964C320.733 48.9536 323.022 51.4388 327.469 51.4388C332.57 51.4388 334.14 48.1033 334.14 42.9693Z" fill="#053361"/>
<path fill-rule="evenodd" clip-rule="evenodd" d="M38.6853 41.3665H62.0339C62.0339 58.698 48.1686 66.252 32.6029 66.252C10.5296 66.2193 0.326892 52.8445 0.326892 32.8969C-0.261728 13.3089 11.4126 0.0976562 32.6683 0.0976562C48.4956 0.0976562 61.9358 6.53977 62.0339 25.0159H39.1758C38.8488 17.8871 36.2327 16.4809 33.1915 16.4809C26.7494 16.4809 26.1281 23.0865 26.1281 33.2239C26.1281 42.8053 26.6513 49.9669 32.9299 49.9669C36.1346 49.9669 38.3256 48.0702 38.6853 41.4319V41.3665ZM133.388 64.5842V1.86352H170.569C184.042 1.86352 191.89 5.91845 191.89 17.7563C191.89 24.9832 188.849 30.477 179.431 32.8969C185.513 33.3874 188.816 36.1016 190.091 40.8759C191.465 46.2716 192.086 53.1716 193.263 64.617H168.868C166.579 50.5555 167.528 51.9943 166.677 46.6313C166.122 43.492 164.585 42.2821 160.562 42.2821H157.685V64.617L133.388 64.5842ZM157.75 28.0571H159.843C164.65 28.0571 168.116 26.3893 168.116 21.6804C168.116 17.0041 164.912 16.1212 160.039 16.1212H157.75C157.75 16.1212 157.75 28.0244 157.75 28.0571ZM59.287 64.6497L79.529 1.76541H111.772L131.982 64.6497H106.18L103.728 54.545H85.7422L83.1915 64.6497H59.287ZM89.4701 39.2082H100.131L94.9312 15.5326L89.4701 39.2082Z" fill="#053361"/>
</g>
<defs>
<clipPath id="clip0_28_1306">
<rect width="500" height="97.4493" fill="white"/>
</clipPath>
</defs>
</svg>
