<svg width="500" height="240" viewBox="0 0 500 240" fill="none" xmlns="http://www.w3.org/2000/svg">
<path fill-rule="evenodd" clip-rule="evenodd" d="M72.3857 164.701C72.3857 164.032 72.109 163.496 71.3444 163.496C70.7885 163.496 70.3031 163.896 69.7473 164.897C66.0022 171.713 62.3251 174.382 56.6358 174.382C46.9223 174.382 39.3617 164.965 39.3617 152.88C39.3617 142.925 45.7452 132.175 57.1212 132.175C67.1818 132.175 68.7789 140.721 71.0677 140.721C71.9002 140.721 72.0386 140.123 72.0386 139.454C71.4827 135.243 72.0386 132.439 68.6381 131.639C65.5847 130.905 60.7304 130.304 57.5387 130.304C51.0873 130.304 45.2597 131.84 40.6117 134.645C33.7454 138.787 29.374 145.933 29.374 153.078C29.374 159.824 33.3958 167.038 39.573 171.313C44.1506 174.515 49.9077 176.198 56.3616 176.198C60.3154 176.198 71.3469 175.051 71.7619 170.707L72.3857 164.701Z" fill="#231F20"/>
<path fill-rule="evenodd" clip-rule="evenodd" d="M102.258 160.896C102.675 159.56 102.049 159.09 105.035 159.09H113.984H115.025C115.925 159.09 116.343 159.49 117.037 161.228L120.229 169.777C120.578 170.647 120.714 171.382 120.714 171.844C120.714 174.649 115.442 172.446 115.442 174.787C115.442 175.454 115.857 175.73 117.105 175.73C120.02 175.73 123.003 175.386 125.918 175.386C128.763 175.386 131.607 175.73 134.452 175.73C135.561 175.73 136.117 175.32 136.117 174.722C136.117 173.65 134.869 173.65 134.037 173.517C130.289 172.986 129.178 168.909 127.93 166.037L116.345 138.924C115.581 137.186 114.889 135.382 114.195 133.513C113.086 130.377 112.806 129.975 112.047 129.975C111.629 129.975 111.282 130.239 110.938 130.712C110.035 132.714 109.341 134.851 108.579 136.921L104.348 147.807C101.642 154.754 97.8237 165.305 94.2195 171.583C92.3457 174.387 88.0322 172.717 88.0322 174.654C88.0322 175.325 88.4472 175.67 89.3627 175.67C91.4428 175.67 93.5228 175.391 95.6054 175.391C98.3091 175.391 100.945 175.67 103.651 175.67C104.899 175.67 105.457 175.323 105.457 174.654C105.457 172.586 99.0737 174.654 99.0737 171.653C99.0737 171.05 99.3504 169.845 99.7654 168.512L102.258 160.896ZM108.918 142.329L114.122 154.616C114.469 155.418 114.539 155.687 114.539 155.954C114.539 156.351 114.122 156.484 112.874 156.484H105.799C104.343 156.484 103.996 156.351 103.996 155.752C103.996 155.418 104.134 154.953 104.343 154.346L108.918 142.329Z" fill="#231F20"/>
<path fill-rule="evenodd" clip-rule="evenodd" d="M181.529 152.744C187.288 151.539 191.727 148.201 191.727 142.127C191.727 134.044 184.791 130.771 177.436 130.771C173.342 130.771 169.25 131.038 165.155 131.038C162.381 131.038 159.674 130.771 156.9 130.771C155.791 130.771 155.376 131.038 155.376 131.77C155.376 133.775 159.4 131.971 161.201 134.31C161.687 134.979 161.757 135.311 161.757 138.048V168.436C161.757 171.24 161.689 173.313 158.012 173.511C155.932 173.647 155.376 173.914 155.376 174.716C155.376 175.448 155.791 175.725 156.832 175.725C159.745 175.725 162.73 175.38 165.643 175.38C168.487 175.38 171.332 175.725 174.177 175.725H174.386C175.495 175.725 175.983 175.448 175.983 174.716C175.983 173.914 175.427 173.645 173.344 173.511C169.737 173.378 169.599 171.311 169.599 168.436V155.546C169.599 154.21 169.808 153.944 171.055 153.944C174.318 153.944 174.733 154.208 176.398 157.284L185.279 173.509C186.317 175.315 186.664 175.592 187.774 175.592C189.092 175.592 190.412 175.446 191.727 175.446C194.087 175.446 196.378 175.659 198.735 175.659C199.499 175.659 199.914 175.38 199.914 174.779C199.914 174.306 199.499 173.841 198.943 173.778C194.849 173.242 194.502 172.777 192.283 168.969L185.138 156.748C183.817 154.482 182.985 153.546 181.529 152.744ZM169.597 149.474V137.452C169.597 133.576 170.223 132.776 173.065 132.776C179.381 132.776 183.334 136.916 183.334 142.998C183.334 149.54 179.655 152.075 173.135 152.075C169.667 152.077 169.597 152.009 169.597 149.474Z" fill="#231F20"/>
<path fill-rule="evenodd" clip-rule="evenodd" d="M255.245 164.035L230.204 132.845C229.439 131.776 228.886 130.908 227.427 130.777L222.5 130.976C220.279 130.911 218.131 130.777 215.91 130.777C214.522 130.777 213.969 131.109 213.969 131.776C213.969 132.578 214.595 132.845 216.745 132.845C218.27 132.91 219.381 133.182 219.799 133.713C220.355 134.316 220.631 136.12 220.631 139.057V162.901C220.631 165.039 220.561 167.307 220.422 169.843C220.422 175.255 213.624 172.718 213.624 174.923C213.624 175.522 214.107 175.866 214.939 175.866C217.646 175.866 220.282 175.391 222.988 175.391C225.136 175.391 227.221 175.602 229.369 175.602C230.619 175.602 231.175 175.326 231.175 174.591C231.175 173.52 229.857 173.59 227.845 173.454C225.418 173.256 224.376 172.386 224.027 170.318C223.753 169.045 223.544 165.175 223.473 162.101V137.251L254.626 175.386C255.73 176.669 256.356 177.132 257.048 177.132C257.883 177.132 258.301 176.666 258.301 175.386V175.054V137.654C258.301 134.115 258.857 133.514 262.116 133.245C264.402 133.046 265.099 132.777 265.099 131.977C265.099 131.243 264.616 130.908 263.711 130.908C261.352 130.908 258.924 131.175 256.565 131.175C254.344 131.175 252.058 130.974 249.837 130.974C248.519 130.974 247.963 131.24 247.963 131.975C247.963 134.243 254.068 131.306 254.83 135.848C255.039 136.917 255.177 139.855 255.245 141.927V164.035Z" fill="#231F20"/>
<path fill-rule="evenodd" clip-rule="evenodd" d="M294.695 138.119C294.695 135.448 294.763 135.116 295.253 134.381C295.804 133.644 296.984 133.111 298.442 133.046C300.522 132.91 301.078 132.646 301.078 131.843C301.078 131.106 300.663 130.774 299.622 130.774C296.639 130.774 293.727 131.106 290.744 131.106C287.896 131.106 285.052 130.842 282.207 130.842C282.069 130.777 282.001 130.777 281.933 130.777C280.824 130.777 280.406 131.109 280.406 131.775C280.406 132.646 280.962 132.91 283.045 133.046C286.651 133.181 286.79 135.186 286.79 138.121V168.444C286.79 171.248 286.722 173.321 283.045 173.519C280.962 173.655 280.406 173.922 280.406 174.724C280.406 175.391 280.824 175.733 281.863 175.733C284.778 175.733 287.763 175.388 290.673 175.388C293.659 175.388 296.571 175.733 299.554 175.733C300.663 175.733 301.078 175.456 301.078 174.724C301.078 173.922 300.522 173.653 298.442 173.519C294.836 173.386 294.697 171.319 294.697 168.444L294.695 138.119Z" fill="#231F20"/>
<path fill-rule="evenodd" clip-rule="evenodd" d="M348.363 163.899L336.499 137.251C335.81 135.717 335.528 135.045 335.528 134.645C335.528 131.773 341.286 133.644 341.286 131.773C341.286 131.104 340.803 130.774 339.9 130.774C336.778 130.774 333.584 131.174 330.463 131.174C327.48 131.041 324.429 130.774 321.443 130.774C320.739 130.774 320.324 131.106 320.324 131.708C320.324 132.51 320.739 132.709 322.691 132.842C325.189 133.043 325.953 133.778 327.55 137.585L343.853 175.051C344.339 176.198 344.683 176.598 345.239 176.598C345.657 176.598 346.142 176.062 346.487 175.252L361.407 139.457C363.489 134.58 364.39 133.312 366.264 133.043L368.344 132.776C369.035 132.643 369.453 132.241 369.453 131.708C369.453 131.106 369.035 130.774 368.137 130.774C365.916 130.774 363.766 131.041 361.545 131.041C359.463 131.041 357.315 130.84 355.229 130.84C353.705 130.84 353.217 131.104 353.217 131.841C353.217 134.18 359.46 131.574 359.46 135.113C359.46 136.046 359.115 137.518 358.419 139.122L348.363 163.899Z" fill="#231F20"/>
<path fill-rule="evenodd" clip-rule="evenodd" d="M388.508 160.896C388.923 159.56 388.299 159.09 391.284 159.09H400.233H401.274C402.175 159.09 402.59 159.49 403.287 161.228L406.478 169.777C406.828 170.647 406.964 171.382 406.964 171.844C406.964 174.649 401.692 172.446 401.692 174.787C401.692 175.454 402.107 175.73 403.354 175.73C406.27 175.73 409.253 175.386 412.165 175.386C415.01 175.386 417.857 175.73 420.699 175.73C421.808 175.73 422.364 175.32 422.364 174.722C422.364 173.65 421.116 173.65 420.284 173.517C416.539 172.986 415.427 168.909 414.177 166.037L402.592 138.924C401.83 137.186 401.136 135.382 400.442 133.513C399.338 130.377 399.056 129.975 398.294 129.975C397.879 129.975 397.529 130.239 397.185 130.712C396.284 132.714 395.59 134.851 394.826 136.921L390.595 147.807C387.889 154.754 384.073 165.305 380.467 171.583C378.595 174.387 374.279 172.717 374.279 174.654C374.279 175.325 374.697 175.67 375.607 175.67C377.69 175.67 379.772 175.391 381.852 175.391C384.556 175.391 387.195 175.67 389.898 175.67C391.148 175.67 391.704 175.323 391.704 174.654C391.704 172.586 385.323 174.654 385.323 171.653C385.323 171.05 385.597 169.845 386.015 168.512L388.508 160.896ZM395.165 142.329L400.369 154.616C400.716 155.418 400.784 155.687 400.784 155.954C400.784 156.351 400.369 156.484 399.119 156.484H392.044C390.588 156.484 390.24 156.351 390.24 155.752C390.24 155.418 390.381 154.953 390.588 154.346L395.165 142.329Z" fill="#231F20"/>
<path fill-rule="evenodd" clip-rule="evenodd" d="M465.487 175.519C466.458 175.519 467.358 175.597 468.332 175.597C469.579 175.597 469.997 175.253 470.135 173.917C470.278 171.513 471.176 167.37 471.176 165.901C471.176 165.167 470.827 164.765 470.203 164.765C469.788 164.765 469.511 164.966 469.162 165.635C466.111 171.042 462.086 173.515 456.327 173.515C452.094 173.515 450.572 171.649 450.572 166.57V138.054C450.572 135.38 450.572 135.048 451.058 134.316C451.611 133.579 452.788 133.046 454.247 132.981C456.327 132.845 456.885 132.581 456.885 131.776C456.885 131.044 456.468 130.777 455.426 130.777C452.443 130.777 449.531 131.109 446.548 131.109C443.565 131.109 440.582 130.777 437.594 130.777C436.49 130.777 436.072 131.044 436.072 131.776C436.072 133.78 440.096 131.977 441.897 134.316C442.383 134.985 442.453 135.317 442.453 138.054V168.442C442.453 171.246 442.385 173.319 438.711 173.517C436.628 173.653 436.072 173.92 436.072 174.722C436.072 175.389 436.49 175.731 437.529 175.731C439.123 175.731 440.791 175.519 442.385 175.519H465.487Z" fill="#231F20"/>
<path d="M49.3695 191.018C49.3695 191.322 49.3695 191.534 48.9394 191.534C48.6879 191.534 48.4741 191.476 48.0818 190.988C46.794 189.348 45.4736 187.917 42.1863 187.917C36.3259 187.917 33.6096 192.781 33.6096 196.669C33.6096 200.92 36.5397 205.782 41.9373 205.782C45.2246 205.782 46.7965 204.082 48.2956 201.743C48.366 201.622 48.6552 201.167 49.0099 201.167C49.5481 201.167 49.5481 201.438 49.5481 201.652L49.2614 204.235C49.2262 204.658 49.1557 204.932 48.4037 205.296C47.8303 205.601 45.4383 206.541 41.8291 206.541C32.7896 206.541 28.8232 200.648 28.8232 196.788C28.8232 192.567 33.1116 187.127 42.4378 187.127C44.0802 187.127 44.6888 187.217 47.116 187.552C48.7257 187.796 48.9042 188.068 49.0476 188.888L49.3695 191.018Z" fill="#231F20"/>
<path d="M72.202 206.544C65.9493 206.544 59.9834 202.598 59.9834 196.791C59.9834 191.323 65.3784 187.13 72.3077 187.13C78.9904 187.13 84.3879 191.292 84.3879 196.516C84.3879 202.414 78.2761 206.544 72.202 206.544ZM71.8801 187.92C66.8774 187.92 64.2692 191.841 64.2692 196.154C64.2692 201.074 67.6647 205.755 72.4887 205.755C77.4914 205.755 80.0996 201.044 80.0996 196.64C80.0996 193.023 77.5618 187.92 71.8801 187.92Z" fill="#231F20"/>
<path d="M97.4289 190.379C97.4289 189.137 97.4289 188.317 95.6784 188.224C94.8911 188.194 94.3906 188.166 94.3906 187.739C94.3906 187.313 94.534 187.313 95.7111 187.313C96.0708 187.313 97.8213 187.437 98.2489 187.437C99.2147 187.437 103.966 187.313 105.037 187.313C111.363 187.313 111.899 191.021 111.899 192.082C111.899 195.636 108.219 196.366 107.004 196.579C107.469 196.823 107.897 197.004 108.722 198.282L112.188 203.506C112.902 204.57 113.403 205.33 114.404 205.45C115.583 205.573 115.868 205.604 115.868 205.996C115.868 206.331 115.51 206.363 115.261 206.363C114.796 206.363 112.475 206.243 111.939 206.243C111.655 206.243 110.329 206.363 110.007 206.363C109.366 206.363 109.22 206.092 108.828 205.453L104.504 198.526C103.717 197.218 103.538 197.097 101.934 197.097C101.325 197.097 101.252 197.279 101.252 197.797V203.267C101.252 204.542 101.252 205.362 103.04 205.453C103.827 205.483 104.325 205.511 104.325 205.968C104.325 206.396 103.86 206.363 103.576 206.363C102.894 206.363 99.431 206.243 99.2876 206.243C98.6815 206.243 95.784 206.363 95.1452 206.363C94.8584 206.363 94.3931 206.396 94.3931 205.938C94.3931 205.511 94.9289 205.48 95.6809 205.453C97.4314 205.33 97.4314 204.542 97.4314 203.267L97.4289 190.379ZM101.252 195.183C101.252 196.247 101.252 196.305 103.04 196.305C104.325 196.305 107.864 196.305 107.864 192.507C107.864 191.413 107.364 188.164 102.932 188.164C101.29 188.164 101.252 188.89 101.252 190.078V195.183Z" fill="#231F20"/>
<path d="M127.123 190.412C127.123 189.167 127.123 188.347 125.3 188.254C124.548 188.196 124.05 188.196 124.05 187.739C124.05 187.313 124.193 187.313 125.37 187.313C125.906 187.313 128.514 187.437 129.088 187.437C129.945 187.437 134.055 187.313 134.983 187.313C140.881 187.313 142.453 190.533 142.453 192.691C142.453 196.401 138.557 198.071 135.627 198.071C134.737 198.071 133.985 197.948 132.483 197.495C132.269 197.432 131.412 197.188 131.268 197.188C130.946 197.188 130.946 197.341 130.946 197.736V203.237C130.946 204.512 130.946 205.332 132.913 205.425C133.7 205.455 134.198 205.483 134.198 205.941C134.198 206.366 133.733 206.366 133.449 206.366C132.234 206.366 130.305 206.245 129.09 206.245C128.484 206.245 125.481 206.366 124.802 206.366C124.518 206.366 124.052 206.366 124.052 205.911C124.052 205.483 124.55 205.453 125.302 205.425C127.126 205.302 127.126 204.512 127.126 203.27L127.123 190.412ZM130.946 195.666C130.946 196.184 130.946 196.305 131.376 196.456C131.985 196.73 133.019 196.791 133.771 196.791C135.7 196.791 138.416 195.546 138.416 192.57C138.416 189.894 136.057 188.071 133.2 188.071C131.127 188.071 130.946 188.953 130.946 190.44V195.666Z" fill="#231F20"/>
<path d="M164.463 206.544C158.213 206.544 152.244 202.598 152.244 196.791C152.244 191.323 157.642 187.13 164.571 187.13C171.254 187.13 176.649 191.292 176.649 196.516C176.646 202.414 170.539 206.544 164.463 206.544ZM164.141 187.92C159.141 187.92 156.532 191.841 156.532 196.154C156.532 201.074 159.928 205.755 164.752 205.755C169.755 205.755 172.363 201.044 172.363 196.64C172.36 193.023 169.825 187.92 164.141 187.92Z" fill="#231F20"/>
<path d="M189.69 190.379C189.69 189.137 189.69 188.317 187.94 188.224C187.152 188.194 186.654 188.166 186.654 187.739C186.654 187.313 186.798 187.313 187.975 187.313C188.332 187.313 190.082 187.437 190.513 187.437C191.478 187.437 196.229 187.313 197.301 187.313C203.627 187.313 204.162 191.021 204.162 192.082C204.162 195.636 200.483 196.366 199.268 196.579C199.733 196.823 200.161 197.004 200.983 198.282L204.449 203.506C205.163 204.57 205.664 205.33 206.667 205.45C207.847 205.573 208.131 205.604 208.131 205.996C208.131 206.331 207.772 206.363 207.525 206.363C207.055 206.363 204.733 206.243 204.2 206.243C203.913 206.243 202.59 206.363 202.268 206.363C201.624 206.363 201.481 206.092 201.089 205.453L196.765 198.526C195.978 197.218 195.799 197.097 194.192 197.097C193.586 197.097 193.513 197.279 193.513 197.797V203.267C193.513 204.542 193.513 205.362 195.299 205.453C196.086 205.483 196.587 205.511 196.587 205.968C196.587 206.396 196.121 206.363 195.835 206.363C195.156 206.363 191.692 206.243 191.549 206.243C190.94 206.243 188.045 206.363 187.404 206.363C187.12 206.363 186.654 206.396 186.654 205.938C186.654 205.511 187.19 205.48 187.94 205.453C189.69 205.33 189.69 204.542 189.69 203.267V190.379ZM193.513 195.183C193.513 196.247 193.513 196.305 195.299 196.305C196.587 196.305 200.123 196.305 200.123 192.507C200.123 191.413 199.625 188.164 195.191 188.164C193.548 188.164 193.513 188.89 193.513 190.078V195.183Z" fill="#231F20"/>
<path d="M223.098 199.282C222.027 199.282 222.027 199.282 221.74 200.069L220.528 203.324C220.528 203.417 220.206 204.237 220.206 204.602C220.206 205.361 221.099 205.422 221.921 205.452C222.849 205.482 223.28 205.575 223.28 205.937C223.28 206.362 222.849 206.362 222.029 206.362C221.67 206.362 219.565 206.242 218.526 206.242C218.134 206.242 216.026 206.362 215.561 206.362C215.344 206.362 214.879 206.362 214.879 205.907C214.879 205.51 215.379 205.449 215.953 205.389C217.132 205.298 217.454 205.268 218.131 204.204C219.275 202.321 222.419 195.213 224.779 189.956C226.099 187.008 226.099 186.976 226.459 186.976C226.851 186.976 226.957 187.189 227.495 188.434C227.852 189.287 228.244 190.137 228.531 190.711L234.105 202.258C235.249 204.599 235.606 205.266 237.073 205.449C237.679 205.507 238.071 205.573 238.071 205.965C238.071 206.36 237.465 206.36 237.249 206.36C236.643 206.36 233.677 206.239 233.069 206.239C230.89 206.239 229.032 206.36 228.926 206.36C228.566 206.36 228.104 206.36 228.104 205.935C228.104 205.54 228.677 205.449 229.391 205.387C230.319 205.326 230.641 205.173 230.641 204.717C230.641 204.416 230.463 203.958 230.39 203.835L228.856 200.19C228.463 199.28 228.355 199.28 227.389 199.28L223.098 199.282ZM226.851 198.191C227.673 198.191 227.674 198.067 227.674 197.977C227.674 197.823 227.565 197.582 227.457 197.401L224.957 192.174L222.741 197.308C222.704 197.371 222.598 197.675 222.598 197.886C222.598 198.191 222.812 198.191 223.456 198.191H226.851Z" fill="#231F20"/>
<path d="M256.258 203.233C256.258 204.478 256.258 205.298 258.046 205.389C258.796 205.422 259.296 205.449 259.296 205.907C259.296 206.362 258.831 206.362 258.547 206.362C257.367 206.362 255.509 206.241 254.329 206.241C253.723 206.241 250.825 206.362 250.149 206.362C249.865 206.362 249.397 206.362 249.397 205.907C249.397 205.479 249.897 205.449 250.647 205.389C252.435 205.298 252.435 204.478 252.435 203.294V189.166C252.435 188.376 252.151 188.376 251.437 188.376C249.291 188.376 246.934 188.376 245.111 191.261C244.789 191.749 244.61 191.867 244.289 191.867C244.004 191.867 243.823 191.656 243.823 191.475C243.823 191.322 243.894 191.14 243.931 190.99L245.395 186.706C245.503 186.339 245.609 186.158 245.931 186.158C246.218 186.158 246.323 186.311 246.361 186.583C246.54 187.403 247.183 187.436 247.968 187.436H259.44C263.122 187.436 263.298 187.041 263.55 186.492C263.658 186.248 263.766 186.067 264.05 186.067C264.551 186.067 264.551 186.553 264.551 187.28L264.299 190.99C264.261 191.598 264.191 191.963 263.726 191.963C263.547 191.963 263.296 191.933 263.152 191.294C262.546 188.376 260.793 188.376 258.471 188.376C256.434 188.376 256.256 188.376 256.256 189.377L256.258 203.233Z" fill="#231F20"/>
<path d="M280.519 203.233C280.519 204.509 280.519 205.329 282.307 205.422C283.095 205.452 283.595 205.479 283.595 205.937C283.595 206.362 283.127 206.362 282.843 206.362C282.091 206.362 280.911 206.242 278.555 206.242C276.517 206.242 274.732 206.362 274.375 206.362C274.09 206.362 273.625 206.362 273.625 205.907C273.625 205.479 274.161 205.449 274.91 205.422C276.699 205.298 276.699 204.509 276.699 203.266V190.441C276.699 189.166 276.699 188.376 274.91 188.253C274.123 188.223 273.625 188.195 273.625 187.738C273.625 187.312 274.09 187.313 274.375 187.313C275.127 187.313 276.414 187.436 278.592 187.436C281.163 187.436 282.31 187.313 282.843 187.313C283.127 187.313 283.595 187.312 283.595 187.768C283.595 188.195 283.057 188.226 282.307 188.253C280.519 188.376 280.519 189.166 280.519 190.351V203.233Z" fill="#231F20"/>
<path d="M305.819 206.543C299.567 206.543 293.601 202.597 293.601 196.79C293.601 191.322 298.998 187.129 305.927 187.129C312.608 187.129 318.005 191.291 318.005 196.515C318.005 202.414 311.896 206.543 305.819 206.543ZM305.497 187.919C300.495 187.919 297.886 191.84 297.886 196.153C297.886 201.073 301.282 205.754 306.106 205.754C311.109 205.754 313.717 201.043 313.717 196.639C313.714 193.022 311.179 187.919 305.497 187.919Z" fill="#231F20"/>
<path d="M348.162 201.319L348.018 191.961C347.948 188.283 347.553 188.283 346.124 188.223C345.053 188.193 344.517 188.165 344.517 187.738C344.517 187.312 345.159 187.313 345.408 187.313C345.8 187.313 347.802 187.436 348.267 187.436C348.806 187.436 351.482 187.313 352.093 187.313C352.269 187.313 352.737 187.312 352.737 187.768C352.737 188.135 352.377 188.226 351.341 188.286C350.02 188.407 349.485 188.469 349.517 190.14L349.59 206.028C349.59 206.33 349.59 206.911 349.052 206.911C348.765 206.911 348.516 206.88 347.91 206.211L332.686 190.112L332.616 190.17L332.759 200.62C332.797 205.027 333.224 205.329 334.831 205.452C336.26 205.542 336.441 205.542 336.441 205.937C336.441 206.362 335.868 206.362 335.581 206.362C335.153 206.362 333.798 206.242 332.689 206.242C330.865 206.242 329.26 206.362 328.616 206.362C328.508 206.362 328.008 206.362 328.008 205.967C328.008 205.603 328.151 205.575 329.653 205.422C331.225 205.241 331.368 205.117 331.368 200.985V190.866C331.368 188.527 331.117 188.223 329.509 188.223C328.76 188.193 328.189 188.193 328.189 187.738C328.189 187.345 328.654 187.313 329.296 187.313C329.688 187.313 331.298 187.436 332.44 187.436C333.441 187.436 334.298 187.313 334.764 187.313C335.407 187.313 335.727 187.951 335.976 188.223L348.089 201.377L348.162 201.319Z" fill="#231F20"/>
<path d="M378.749 199.679C378.892 199.832 378.965 199.832 379 199.832C379.144 199.832 379.214 199.77 379.285 199.679L380.5 198.371C381 197.855 381.606 196.852 381.606 196.427C381.606 195.821 380.748 195.73 380.248 195.697C379.249 195.637 378.928 195.544 378.928 195.215C378.928 194.757 379.534 194.757 380.178 194.757C381.214 194.757 382.821 194.878 383.86 194.878C384.25 194.878 386.219 194.757 386.682 194.757C386.966 194.757 387.217 194.847 387.217 195.149C387.217 195.607 386.005 195.665 385.681 195.665C384.182 195.851 382.429 197.732 382.036 198.157L380.359 199.983C380.288 200.041 379.858 200.406 379.858 200.652C379.858 200.773 379.966 200.894 380.215 201.108L381.968 202.78C382.788 203.567 384.826 205.21 385.9 205.361C387.255 205.542 387.399 205.574 387.399 205.909C387.399 206.364 386.828 206.364 386.327 206.364C385.434 206.364 381.971 206.244 380.932 206.244C378.432 206.244 378.432 206.364 377.932 206.364C377.715 206.364 377.144 206.364 377.144 205.939C377.144 205.635 377.428 205.481 378.18 205.391C378.432 205.361 378.86 205.27 378.86 204.966C378.86 204.755 378.716 204.571 378.432 204.269L377.572 203.386C377.464 203.266 377.288 203.142 377.179 203.142C377.036 203.142 376.928 203.233 376.895 203.266C374.788 204.875 372.572 206.545 368.854 206.545C364.247 206.545 362.531 203.721 362.531 201.684C362.531 199.89 363.351 197.946 368.568 195.821C368.711 195.788 369.033 195.665 369.033 195.484C369.033 195.303 368.749 195.031 368.603 194.878C367.639 193.877 366.779 192.601 366.779 191.324C366.779 189.015 369.496 187.131 373.284 187.131C377.358 187.131 379.036 189.168 379.036 190.866C379.036 192.174 378.5 193.298 374.855 194.329C374.536 194.422 373.751 194.634 373.751 194.847C373.751 194.908 373.857 195.031 373.895 195.091L378.749 199.679ZM369.674 196.608C369.317 196.304 369.244 196.216 368.993 196.216C368.6 196.216 365.565 197.762 365.565 200.466C365.565 202.26 367.172 204.629 370.567 204.629C373.533 204.629 375.535 202.564 375.535 202.378C375.535 202.29 375.391 202.136 375.321 202.043L369.674 196.608ZM375.889 191.017C375.889 189.347 374.639 187.888 372.783 187.888C371.173 187.888 370.137 189.012 370.137 190.139C370.137 191.839 372.818 194.178 373.067 194.178C374.068 194.178 375.889 192.84 375.889 191.017Z" fill="#231F20"/>
<path d="M399.046 190.411C399.046 189.166 399.046 188.346 397.222 188.253C396.47 188.195 395.97 188.195 395.97 187.738C395.97 187.312 396.113 187.312 397.29 187.312C397.826 187.312 400.434 187.436 401.01 187.436C401.868 187.436 405.978 187.312 406.906 187.312C412.801 187.312 414.373 190.532 414.373 192.69C414.373 196.4 410.48 198.07 407.549 198.07C406.657 198.07 405.905 197.947 404.406 197.494C404.189 197.431 403.332 197.187 403.191 197.187C402.869 197.187 402.869 197.34 402.869 197.735V203.236C402.869 204.511 402.869 205.331 404.833 205.424C405.62 205.454 406.121 205.482 406.121 205.94C406.121 206.365 405.653 206.365 405.369 206.365C404.157 206.365 402.225 206.244 401.013 206.244C400.404 206.244 397.401 206.365 396.724 206.365C396.44 206.365 395.972 206.365 395.972 205.91C395.972 205.482 396.473 205.452 397.225 205.424C399.048 205.301 399.048 204.511 399.048 203.269V190.411H399.046ZM402.869 195.665C402.869 196.183 402.869 196.304 403.296 196.455C403.905 196.729 404.941 196.79 405.691 196.79C407.622 196.79 410.336 195.545 410.336 192.569C410.336 189.893 407.977 188.07 405.12 188.07C403.047 188.07 402.869 188.952 402.869 190.439V195.665Z" fill="#231F20"/>
<path d="M426.846 190.411C426.846 189.166 426.846 188.346 425.022 188.253C424.27 188.223 423.772 188.195 423.772 187.738C423.772 187.312 424.238 187.312 424.522 187.312C425.131 187.312 427.022 187.436 428.881 187.436C431.134 187.436 432.384 187.312 433.063 187.312C433.348 187.312 433.81 187.312 433.81 187.738C433.81 188.195 433.277 188.223 432.563 188.253C430.739 188.346 430.669 189.166 430.669 190.321V202.444C430.669 204.355 431.31 205.389 433.526 205.389C435.244 205.389 437.779 205.087 439.708 202.046C439.854 201.805 439.995 201.682 440.209 201.682C440.566 201.682 440.674 201.926 440.674 202.167C440.674 202.408 440.209 205.115 440.174 205.63C440.106 206.206 439.922 206.36 439.281 206.36C438.961 206.36 438.997 206.239 430.885 206.239C424.849 206.239 424.849 206.36 424.489 206.36C424.238 206.36 423.775 206.36 423.775 205.935C423.775 205.507 424.311 205.477 425.025 205.419C426.848 205.326 426.848 204.506 426.848 203.231L426.846 190.411Z" fill="#231F20"/>
<path d="M470.477 191.017C470.477 191.321 470.477 191.533 470.047 191.533C469.798 191.533 469.584 191.475 469.192 190.987C467.904 189.347 466.584 187.916 463.294 187.916C457.433 187.916 454.717 192.78 454.717 196.668C454.717 200.919 457.647 205.781 463.045 205.781C466.335 205.781 467.906 204.081 469.403 201.742C469.476 201.621 469.763 201.166 470.12 201.166C470.656 201.166 470.656 201.437 470.656 201.651L470.369 204.234C470.334 204.657 470.263 204.931 469.511 205.295C468.94 205.6 466.546 206.54 462.939 206.54C453.897 206.54 449.931 200.647 449.931 196.787C449.931 192.566 454.219 187.126 463.543 187.126C465.188 187.126 465.796 187.217 468.223 187.551C469.836 187.795 470.012 188.067 470.155 188.887L470.477 191.017Z" fill="#231F20"/>
<path fill-rule="evenodd" clip-rule="evenodd" d="M203.961 49.7163L212.251 46.8766L204.137 32.4824L203.961 49.7163Z" fill="#231F20"/>
<path fill-rule="evenodd" clip-rule="evenodd" d="M209.225 46.8223C211.773 46.8223 213.848 48.9979 213.848 51.669C213.848 54.3375 211.773 56.5132 209.225 56.5132C206.679 56.5132 204.604 54.3375 204.604 51.669C204.604 48.9979 206.679 46.8223 209.225 46.8223Z" fill="#231F20"/>
<path d="M210.533 55.791L230.028 114.963" stroke="#231F20" stroke-width="3.2231" stroke-miterlimit="2.6131"/>
<path fill-rule="evenodd" clip-rule="evenodd" d="M209.225 46.8223C211.773 46.8223 213.848 48.9979 213.848 51.669C213.848 54.3375 211.773 56.5132 209.225 56.5132C206.679 56.5132 204.604 54.3375 204.604 51.669C204.604 48.9979 206.679 46.8223 209.225 46.8223Z" fill="#231F20"/>
<path fill-rule="evenodd" clip-rule="evenodd" d="M211.091 47.9434C211.031 47.9434 213.051 49.4474 212.867 51.5627C212.683 53.8162 210.661 54.7041 210.661 54.7041C210.661 54.7041 211.828 50.8785 210.968 49.9932C211.828 49.377 211.149 47.9434 211.091 47.9434Z" fill="white" stroke="#231F20" stroke-width="0.1612" stroke-miterlimit="2.6131"/>
<path fill-rule="evenodd" clip-rule="evenodd" d="M214.92 54.5977C217.267 53.0508 218.371 52.09 221.816 50.3722C225.297 48.6569 228.381 48.0356 231.588 47.2811C233.142 46.8434 237.871 46.4762 238.223 47.6986C238.927 49.3234 237.184 49.6101 237.8 51.3934C238.389 53.2118 257.625 48.7499 264.086 49.585C271.941 49.7635 284.718 52.3617 284.718 52.3617C283.664 53.9236 283.312 65.5738 286.006 75.3955C288.244 87.1387 295.226 98.1677 295.226 98.1677C295.239 98.5148 286.184 95.8412 278.591 96.0927C270.995 96.3794 266.403 101.276 256.49 101.297C246.608 101.286 245.034 97.73 241.067 96.9604C237.101 96.1882 230.026 98.1023 230.026 98.1023C229.842 98.1727 227.697 85.5693 226.049 79.0978C223.124 67.0351 214.92 54.5977 214.92 54.5977Z" fill="#E03A3E" stroke="#E03A3E" stroke-width="0.3664"/>
<path fill-rule="evenodd" clip-rule="evenodd" d="M252.604 56.3344C262.363 55.8214 270.874 63.6334 271.551 73.7292C272.228 83.8251 264.823 92.4747 255.064 92.9878C245.305 93.5009 236.794 85.6863 236.117 75.593C235.438 65.4997 242.845 56.8501 252.604 56.3344Z" fill="white"/>
<path fill-rule="evenodd" clip-rule="evenodd" d="M253.054 58.603C259.898 58.2459 265.969 65.1852 266.57 74.0486C267.171 82.912 262.083 90.4323 255.235 90.7869C248.393 91.1441 242.319 84.2048 241.718 75.3389C241.117 66.478 246.213 58.9577 253.054 58.603Z" fill="#485E87"/>
<path d="M210.533 55.791L230.028 114.963" stroke="#231F20" stroke-width="3.2231" stroke-miterlimit="2.6131"/>
<path fill-rule="evenodd" clip-rule="evenodd" d="M211.091 47.9434C211.031 47.9434 213.051 49.4474 212.867 51.5627C212.683 53.8162 210.661 54.7041 210.661 54.7041C210.661 54.7041 211.828 50.8785 210.968 49.9932C211.828 49.377 211.149 47.9434 211.091 47.9434Z" fill="white" stroke="#231F20" stroke-width="0.1612" stroke-miterlimit="2.6131"/>
<path fill-rule="evenodd" clip-rule="evenodd" d="M252.604 56.3344C262.363 55.8214 270.874 63.6334 271.551 73.7292C272.228 83.8251 264.823 92.4747 255.064 92.9878C245.305 93.5009 236.794 85.6863 236.117 75.593C235.438 65.4997 242.845 56.8501 252.604 56.3344Z" fill="white"/>
<path fill-rule="evenodd" clip-rule="evenodd" d="M253.054 58.603C259.898 58.2459 265.969 65.1852 266.57 74.0486C267.171 82.912 262.083 90.4323 255.235 90.7869C248.393 91.1441 242.319 84.2048 241.718 75.3389C241.117 66.478 246.213 58.9577 253.054 58.603Z" fill="#005A9C"/>
<path fill-rule="evenodd" clip-rule="evenodd" d="M207.919 47.1631L205.286 35.8398L210.666 46.1746L207.919 47.1631Z" fill="white"/>
</svg>
