<svg width="500" height="167" viewBox="0 0 500 167" fill="none" xmlns="http://www.w3.org/2000/svg">
<g clip-path="url(#clip0_28_1304)">
<path d="M0.416819 0H485.833V5H0.416819V0ZM34.1668 24.5833C36.2502 25 35.8335 26.6667 35.8335 26.6667V83.3333C35.0002 90 24.1668 89.5833 24.1668 89.5833V24.5833H34.1668ZM25.8335 21.25H2.91682C2.91682 21.25 0.833486 21.6667 0.833486 22.9167C1.25015 24.1667 2.08349 24.5833 4.16682 24.5833V88.3333L3.33349 89.1667C3.33349 89.1667 0.833486 89.1667 0.416819 90.4167C0.00015232 91.6667 1.66682 92.0833 2.91682 92.0833H35.8335C35.8335 92.0833 55.8335 91.25 55.8335 78.3333V33.75C55.8335 33.75 53.3335 21.25 40.0002 20.8333C26.6668 21.25 25.8335 21.25 25.8335 21.25ZM68.3335 60.4167C71.2501 60.4167 73.7502 58.3333 73.7502 55.4167C73.7502 52.5 71.2501 50.4167 68.3335 50.4167C65.4168 50.4167 62.9168 52.5 62.9168 55.4167C63.3335 58.3333 65.4168 60.4167 68.3335 60.4167ZM143.75 60.4167C146.667 60.4167 149.167 58.3333 149.167 55.4167C149.167 52.5 146.667 50.4167 143.75 50.4167C140.833 50.4167 138.333 52.5 138.333 55.4167C138.333 58.3333 140.833 60.4167 143.75 60.4167ZM119.167 21.6667C122.917 21.6667 129.583 27.9167 130 32.9167C130.417 36.25 130.417 40 130.417 42.9167C130.417 53.75 120.417 56.25 120.417 56.25C122.083 56.6667 125.833 57.0833 129.167 59.1667C132.5 61.25 133.333 65.8333 133.333 65.8333V88.75L134.167 89.5833H137.5C137.917 89.5833 138.333 89.5833 138.333 90.8333C138.333 92.9167 136.667 92.5 136.667 92.5H115.833C113.75 92.5 112.083 88.3333 112.083 88.3333V61.25C112.083 59.1667 107.917 58.75 107.917 58.75H101.25V87.9167L101.667 88.75H104.167C104.583 88.75 105.417 88.3333 105.417 90C105.417 92.0833 104.583 91.6667 104.583 91.6667H77.9168C77.0835 91.6667 76.6668 91.6667 76.6668 90.4167C76.6668 89.5833 77.9168 88.75 77.9168 88.75H79.5835L80.8335 87.5V25L80.0002 24.1667H77.9168C76.2502 24.1667 77.0835 23.75 77.0835 22.0833C77.0835 20.8333 78.3335 21.25 78.3335 21.25H100.417C101.25 21.6667 115.417 21.6667 119.167 21.6667ZM106.667 24.5833H102.083V55.4167H110.833C110.833 55.4167 112.917 55.4167 112.917 52.5V26.6667C112.917 26.6667 112.5 24.5833 110 24.5833H106.667ZM317.083 21.6667C320.833 21.6667 327.5 27.9167 327.917 32.9167C328.333 36.25 328.333 40 328.333 42.9167C328.333 53.75 318.333 56.25 318.333 56.25C320 56.6667 323.75 57.0833 327.083 59.1667C330.417 61.25 331.25 65.8333 331.25 65.8333V88.75L332.083 89.5833H335.417C335.833 89.5833 336.25 89.5833 336.25 90.8333C336.25 92.9167 334.583 92.5 334.583 92.5H313.75C311.667 92.5 310 88.3333 310 88.3333V61.25C310 59.1667 305.833 58.75 305.833 58.75H299.167V87.9167L299.583 88.75H302.083C302.5 88.75 303.333 88.3333 303.333 90C303.333 92.0833 302.5 91.6667 302.5 91.6667H275.833C275 91.6667 274.583 91.6667 274.583 90.4167C274.583 89.5833 275.833 88.75 275.833 88.75H277.5L278.75 87.5V25L277.917 24.1667H275.833C274.167 24.1667 275 23.75 275 22.0833C275 20.8333 276.25 21.25 276.25 21.25H298.333C299.167 21.6667 313.333 21.6667 317.083 21.6667ZM304.583 24.5833H300V55.4167H308.333C308.333 55.4167 310.417 55.4167 310.417 52.5V26.6667C310.417 26.6667 310 24.5833 307.5 24.5833H304.583ZM184.167 59.5833H188.75L189.583 60.4167V91.6667C189.583 92.9167 190.417 92.9167 190.417 92.9167H212.5C213.75 92.9167 214.167 92.0833 214.167 91.6667C214.167 91.25 214.167 89.5833 211.667 89.5833C209.583 89.5833 209.583 87.9167 209.583 87.9167V25.8333C209.583 25 209.583 24.5833 211.25 24.5833C212.917 24.5833 213.333 24.1667 213.333 23.3333C213.333 22.5 212.083 21.6667 212.083 21.6667H190C189.167 21.6667 189.167 22.9167 189.167 22.9167V52.9167L188.333 53.75H177.917L177.083 52.9167V22.5C177.083 22.5 177.083 21.25 176.25 21.25H154.167C154.167 21.25 152.917 22.0833 152.917 22.9167C152.917 23.75 153.333 24.1667 155 24.1667C156.667 24.1667 156.667 24.1667 156.667 25.4167V87.5C156.667 87.5 156.667 89.1667 154.583 89.1667C152.5 89.1667 152.083 90.8333 152.083 91.25C152.083 91.6667 152.5 92.5 153.75 92.5H175.833C175.833 92.5 176.667 92.5 176.667 91.25V60L177.5 59.1667H184.167M245 92.9167C232.5 92.9167 228.75 91.25 224.583 87.0833C220.417 82.9167 219.583 75 219.583 71.6667C219.167 68.3333 219.167 66.25 219.167 54.5833C219.167 45.4167 220 40.8333 221.25 34.5833C223.333 26.25 226.667 24.5833 231.25 22.5C235.417 20.4167 245.417 20.4167 245.417 20.4167H246.667C246.667 20.4167 255.833 20.8333 260 22.5C264.167 24.5833 267.917 26.25 270 34.5833C271.667 40.8333 272.083 45.4167 272.083 54.5833C272.083 66.25 272.083 68.3333 271.667 71.6667C271.25 75 270.833 82.9167 266.667 87.0833C262.5 91.25 259.167 92.9167 246.667 92.9167H245ZM245.833 90.8333C253.333 90.8333 252.083 86.6667 252.083 86.6667V27.9167C252.083 22.5 247.5 22.0833 245.833 22.0833H245C243.333 22.0833 238.333 22.5 238.333 27.9167V86.6667C238.333 86.6667 237.083 90.8333 244.583 90.8333H245.833ZM402.5 92.9167C390 92.9167 386.25 91.25 382.083 87.0833C377.917 82.9167 377.083 75 377.083 71.6667C376.667 68.3333 376.667 66.25 376.667 54.5833C376.667 45.4167 377.5 40.8333 378.75 34.5833C380.833 26.25 384.167 24.5833 388.75 22.5C392.917 20.4167 402.917 20.4167 402.917 20.4167H404.167C404.167 20.4167 413.333 20.8333 417.5 22.5C421.667 24.5833 425.417 26.25 427.5 34.5833C429.167 40.8333 429.583 45.4167 429.583 54.5833C429.583 66.25 429.583 68.3333 429.167 71.6667C428.75 75 428.333 82.9167 424.167 87.0833C420 91.25 416.667 92.9167 404.167 92.9167H402.5ZM403.333 90.8333C410.833 90.8333 409.583 86.6667 409.583 86.6667V27.9167C409.583 22.5 405 22.0833 403.333 22.0833H402.5C400.833 22.0833 395.833 22.5 395.833 27.9167V86.6667C395.833 86.6667 394.583 90.8333 402.083 90.8333H403.333Z" fill="#00205B"/>
<path d="M355 21.666H379.167C379.167 21.666 380 22.4993 380 23.3327V30.8327C380 30.8327 380 32.4994 378.333 32.4994C377.083 32.4994 376.667 32.0827 376.667 30.416V27.916H365C365 27.916 363.75 27.916 363.75 29.166V87.916C363.75 87.916 363.75 89.5827 366.25 89.5827C367.5 89.5827 367.5 89.9994 367.5 91.2494C367.5 92.0827 367.083 92.916 365.833 92.916H340.417C339.167 92.916 338.75 92.4994 338.75 91.2494C338.75 90.416 338.75 89.5827 340 89.5827C342.5 89.5827 342.5 87.916 342.5 87.916V29.166C342.5 27.916 341.25 27.916 341.25 27.916H329.583V30.416C329.583 32.0827 329.167 32.4994 327.917 32.4994C326.667 32.4994 326.25 30.8327 326.25 30.8327V23.3327C326.25 22.4993 327.083 21.666 327.083 21.666H355ZM464.167 92.916H480V25.8327C480 25.8327 479.583 24.9993 481.667 24.9993C483.75 24.9993 483.75 23.7493 483.75 23.3327C483.75 22.916 482.917 22.0827 481.667 22.0827H472.5C472.5 22.0827 471.25 22.0827 471.25 23.7493C471.25 24.9993 471.667 25.416 472.5 25.416C473.333 25.416 474.583 25.416 474.583 26.2494V67.0827L457.5 25.8327C457.5 25.8327 457.917 24.9993 459.167 24.9993C460.417 24.9993 461.25 24.166 461.25 23.3327C461.25 22.0827 460.417 22.0827 460 22.0827H434.167C434.167 22.0827 433.333 22.0827 433.333 22.916C433.333 23.7493 433.333 24.5827 434.583 24.5827C435.833 24.5827 437.083 24.9993 437.083 25.416V88.7493C437.083 88.7493 437.5 89.5827 435.417 89.5827C433.333 89.5827 433.333 90.8327 433.333 91.2494C433.333 91.666 434.167 92.4993 435.417 92.4993H444.583C444.583 92.4993 445.833 92.4993 445.833 90.8327C445.833 89.5827 445.417 89.166 444.583 89.166C443.75 89.166 442.5 89.166 442.5 88.3327V36.666L464.167 92.916ZM494.167 32.916C491.25 32.916 488.75 30.8327 488.75 27.4993C488.75 24.166 491.25 22.0827 494.167 22.0827C497.083 22.0827 499.583 24.166 499.583 27.4993C499.583 31.2493 497.083 32.916 494.167 32.916ZM494.167 23.7493C492.083 23.7493 490.417 25.416 490.417 27.916C490.417 30.416 492.083 32.0827 494.167 32.0827C496.25 32.0827 497.917 30.416 497.917 27.916C498.333 25.416 496.25 23.7493 494.167 23.7493ZM493.333 30.416H492.083V24.5827H494.167C495.833 24.5827 496.667 24.9994 496.667 26.2494C496.667 27.4994 495.833 27.4993 495.417 27.916L497.083 30.416H495.417L494.167 27.916H493.75V30.416H493.333ZM494.583 27.0827C495 27.0827 495.417 27.0827 495.417 26.2494C495.417 25.8327 494.583 25.416 494.167 25.416H493.333V26.666H494.583V27.0827Z" fill="#00205B"/>
<path d="M66.6664 148.751C66.2497 148.751 66.2497 149.167 65.8331 149.584C65.4164 150.834 64.5831 151.667 63.7497 152.917C62.9164 154.167 61.6664 155.001 60.8331 156.251C59.5831 157.084 58.7497 157.917 57.4997 158.334C57.0831 156.667 57.0831 155.001 57.0831 152.917C57.0831 148.751 57.4997 143.751 58.3331 138.334V136.251L62.4997 135.834L66.6664 135.417H67.4997C68.7497 135.417 68.7497 135.001 68.7497 134.584C68.7497 134.167 67.9164 133.751 67.4997 133.751H59.5831V133.334L60.4164 128.334C60.8331 125.834 61.6664 122.501 62.4997 118.751C62.9164 117.501 62.9164 116.667 62.4997 115.834C62.0831 115.001 61.2497 114.167 60.4164 113.334C59.1664 112.501 58.3331 112.084 57.4997 112.084C57.0831 112.084 56.6664 112.501 55.8331 112.917L54.9997 113.334C54.1664 114.167 52.9164 115.001 51.2497 116.251C49.5831 117.501 47.9164 118.751 46.2497 120.417L38.7497 127.084L30.4164 134.584C30.4164 134.584 29.9997 134.584 29.9997 135.001H29.5831C27.4997 135.001 25.4164 135.417 23.3331 135.417H18.7497C17.9164 135.417 17.0831 135.417 16.2497 135.001C16.6664 136.667 17.0831 137.501 17.4997 138.334C17.9164 139.167 18.3331 139.167 18.7497 139.584C19.1664 140.001 19.5831 140.417 20.4164 140.417C20.8331 140.834 21.6664 140.834 22.0831 140.834H25.4164C24.5831 142.084 23.3331 142.917 22.0831 144.167L20.4164 145.834L17.4997 148.751L14.9997 151.251L13.3331 152.917C5.83307 160.001 3.33307 158.334 1.24974 161.251C0.833069 162.084 1.6664 164.167 3.33307 165.417C4.99974 166.251 7.08307 166.667 8.33307 166.667C9.1664 166.667 9.99973 166.251 10.8331 165.834C11.6664 165.417 12.4997 164.167 14.1664 162.917C15.8331 161.251 24.9997 150.001 21.6664 154.167C20.8331 155.417 22.9164 153.334 27.4997 147.084L30.4164 143.334L33.3331 139.584L38.7497 139.167L44.1664 138.751L47.9164 138.334L51.6664 137.917L50.8331 142.501L49.9997 147.084C49.1664 151.667 49.1664 155.001 49.5831 157.084C49.5831 157.917 49.9997 158.751 49.9997 159.167C50.4164 160.001 51.2497 161.251 52.0831 162.084C52.9164 163.334 54.1664 164.167 54.9997 164.584C56.2497 165.417 57.0831 165.417 57.4997 165.417C58.3331 165.417 58.7497 165.001 59.5831 164.167C62.9164 160.417 65.4164 155.834 67.0831 150.417C67.0831 149.584 67.4997 149.167 67.0831 149.167C67.4997 149.167 67.0831 148.751 66.6664 148.751ZM55.4164 121.667C54.9997 123.334 54.5831 125.417 54.1664 127.501L53.3331 131.251L52.4997 135.001H36.6664V134.584C39.5831 130.834 43.7497 126.667 49.1664 122.084C50.4164 120.834 51.6664 119.584 52.9164 118.751C54.1664 117.917 55.4164 117.084 57.0831 116.251C56.2497 118.334 55.8331 120.001 55.4164 121.667ZM162.5 142.084C162.916 141.251 163.333 140.001 164.583 138.751L166.25 136.667C166.666 135.834 167.083 135.417 166.666 135.001C166.25 134.167 165.833 133.751 165.416 133.334C164.583 132.917 164.166 132.501 163.333 132.501C162.5 132.501 161.666 132.917 160.833 133.334C160 133.751 158.333 135.001 156.25 137.084L151.666 140.834C150.833 141.251 150.416 142.084 149.583 142.917L146.25 146.251C147.083 144.167 147.916 142.501 149.166 141.251L152.083 137.501C152.5 136.667 152.5 136.251 152.5 135.417C152.083 134.584 151.666 134.167 151.25 133.751C150.416 133.334 150 132.917 149.166 132.917H148.333C148.333 132.917 147.916 133.334 147.5 134.167L147.083 135.417C145.833 137.084 143.75 140.001 139.166 143.334C137.916 144.167 132.083 148.751 129.166 150.001C125.416 151.667 123.333 151.667 121.25 151.251C120.416 151.251 119.166 150.417 118.75 150.001C118.333 149.167 117.916 148.751 118.333 147.501C118.75 146.251 119.583 145.001 120 145.001C121.666 145.417 123.333 146.667 126.25 146.667C129.166 146.667 130 146.251 131.666 145.417C133.333 144.584 134.583 143.334 135.833 141.667C137.083 140.001 137.916 138.334 137.5 136.667C137.5 135.834 137.083 135.417 136.666 134.584C135.833 134.167 135.416 133.334 134.583 132.917C133.75 132.501 132.5 132.501 132.083 132.501C130.833 132.501 129.583 132.501 127.5 133.751C125.416 134.584 123.333 135.834 121.25 137.501C119.166 139.167 117.5 140.834 116.25 142.917C115.833 142.917 115.416 142.917 114.583 143.334C111.25 143.751 108.333 145.001 105.833 146.667C107.083 143.334 108.75 140.001 111.25 136.667C111.666 136.251 111.666 135.417 111.666 135.001C111.25 134.167 110.833 133.751 110.416 133.334C109.583 132.917 109.166 132.501 108.333 132.501C107.916 132.501 107.5 132.917 106.666 133.334C104.166 133.751 102.5 135.417 99.9997 137.501L95.4164 141.667C93.7497 143.334 92.0831 144.584 90.8331 146.251L92.0831 143.751C92.4997 142.917 92.4997 142.501 92.9164 142.084C93.3331 141.667 93.3331 141.251 93.7497 140.417C94.1664 140.001 94.9997 138.751 95.8331 136.667C96.2497 135.834 96.6664 135.001 96.2497 134.584C95.8331 134.167 95.4164 133.334 94.9997 132.917C94.1664 132.501 93.7497 132.084 92.9164 132.084C92.4997 132.084 91.6664 132.501 90.8331 132.917C89.1664 134.167 86.6664 136.251 83.3331 139.167C80.8331 141.251 78.3331 143.751 75.8331 146.251C77.0831 143.751 77.9164 142.084 79.1664 140.417L79.9997 139.167C80.8331 137.501 80.4164 137.501 80.8331 135.834C80.8331 135.417 81.2497 134.167 80.8331 132.917C80.8331 132.501 80.4164 131.667 79.9997 131.251C79.5831 130.834 79.1664 130.834 78.7497 130.834C78.3331 130.834 77.4997 130.417 77.0831 131.251C77.0831 131.667 79.9997 131.667 77.9164 135.001L74.5831 139.167C72.9164 141.667 71.2497 144.167 69.9997 147.501C68.7497 150.001 68.7497 151.667 69.1664 152.917C69.5831 153.334 69.9997 154.167 70.8331 154.584C71.6664 155.001 72.4997 155.417 72.9164 155.417H73.7497C73.7497 155.417 74.1664 155.001 74.5831 154.167C76.2497 150.834 77.9164 148.334 79.9997 145.834C82.0831 143.334 84.1664 141.667 86.6664 140.417C87.0831 140.001 87.4997 140.001 87.4997 140.001H87.9164V140.417L87.4997 140.834L87.0831 141.251C84.9997 145.417 83.7497 148.334 83.7497 150.834V152.084C84.1664 152.501 84.5831 153.334 85.4164 154.167C86.2497 154.584 87.0831 155.001 87.4997 155.001C87.9164 155.001 88.3331 154.584 88.7497 154.167C89.5831 151.251 91.2497 148.751 93.7497 145.834C96.2497 142.917 98.3331 141.251 100.416 140.417C101.25 140.001 101.666 140.001 101.666 140.001C102.083 140.001 102.083 140.001 102.083 140.417V140.834L101.666 141.251L99.5831 145.417C98.7497 147.084 98.3331 148.751 98.3331 149.584C97.9164 150.834 97.9164 151.667 98.3331 152.501C98.7497 152.917 99.1664 153.751 99.9997 154.167C100.833 154.584 101.666 155.001 102.5 155.001H103.333C103.333 155.001 103.75 154.584 103.75 154.167C103.75 154.167 103.75 153.751 104.166 153.751C104.166 153.334 104.583 153.334 104.583 152.917C105.833 150.417 107.083 148.751 107.916 147.501C109.166 146.667 110.416 145.834 112.083 145.001C112.916 144.584 113.75 144.584 114.583 144.167C113.75 146.251 113.333 148.334 114.166 150.001C114.583 151.251 115.416 152.917 117.916 154.167C119.583 155.001 122.916 155.001 125.416 154.167C129.166 153.334 131.666 151.251 133.333 150.001C135 148.751 138.75 145.417 140 144.167C141.25 143.334 142.916 141.667 144.166 140.417C142.083 143.751 140.416 147.084 139.166 150.417C138.75 151.251 138.75 152.084 139.166 152.501C139.583 152.917 140 153.751 140.833 154.167C141.666 155.001 142.5 155.001 142.916 155.001C143.333 155.001 144.166 154.584 144.583 153.334C146.666 149.167 148.75 146.251 151.666 143.751C153.333 142.084 155.833 140.834 158.333 139.584C157.5 140.834 157.5 141.667 157.5 142.084C157.916 142.917 158.333 143.334 159.583 143.751C160.833 144.167 161.666 144.584 163.333 145.001C162.916 144.584 162.916 144.167 162.916 144.167C162.5 143.751 162.5 142.917 162.5 142.084ZM127.5 138.334C129.583 137.084 131.25 136.667 132.5 136.667C132.916 136.667 133.333 136.667 133.333 137.084C133.333 137.501 133.333 138.334 132.5 139.584C131.666 140.834 130.833 142.917 127.916 143.751C125.416 144.584 122.083 144.167 120.833 143.334C122.083 142.084 125.416 139.167 127.5 138.334ZM484.166 134.167C483.75 133.334 483.333 132.917 482.916 132.501C482.083 132.084 481.666 131.667 480.833 131.667C480 131.667 479.166 132.084 478.333 132.501C477.5 132.917 475.833 134.167 473.75 136.251L469.166 140.001C468.333 140.417 467.916 141.251 467.083 142.084L463.75 145.417C464.583 143.334 465.416 141.667 466.666 140.417L469.583 136.667C470 135.834 470 135.417 470 134.584C469.583 133.751 469.166 133.334 468.75 132.917C467.916 132.501 467.5 132.084 466.666 132.084H465.833C465.833 132.084 465.416 132.501 465 133.334L464.583 134.584C463.333 136.251 461.25 139.167 456.666 142.501C455.416 143.334 449.583 147.917 446.666 149.167C442.916 150.834 440.833 150.834 438.75 150.417C437.916 150.417 436.666 149.584 436.25 149.167C435.833 148.334 435.416 147.917 435.833 146.667C436.25 145.417 437.083 144.167 437.5 144.167C439.166 144.584 440.833 145.834 443.75 145.834C446.666 145.834 447.5 145.417 449.166 144.584C450.833 143.751 452.083 142.501 453.333 140.834C454.583 139.167 455.416 137.501 455 135.834C455 135.001 454.583 134.584 454.166 133.751C453.333 133.334 452.916 132.501 452.083 132.084C451.25 131.667 450 131.667 449.583 131.667C448.333 131.667 447.083 132.084 445 132.917C442.916 133.751 440.833 135.001 438.75 136.667C436.666 138.334 435 140.001 433.75 142.084C433.333 142.084 432.916 142.084 432.083 142.501C430.833 142.917 430 142.917 429.166 142.917C427.083 143.334 424.583 144.584 422.083 145.834C422.5 144.584 422.916 143.334 423.333 142.501C423.75 141.667 424.583 140.417 425.416 138.751C427.916 135.001 433.75 130.001 436.25 127.501L441.666 121.251C442.5 120.417 443.333 119.584 442.916 118.751C442.5 117.917 441.666 117.501 440.833 117.501C440.416 117.501 439.166 118.334 438.333 119.167C435.833 121.251 432.5 124.584 432.5 124.584C430.416 126.667 423.75 132.917 422.083 134.584C421.666 133.751 420.833 132.917 420 132.501C419.166 132.084 418.333 131.667 417.083 131.667C416.25 131.667 415.416 131.667 414.583 132.084C412.5 132.917 410.416 133.751 407.916 135.417C406.25 136.667 404.583 137.501 402.916 138.751C400.416 140.001 397.5 141.251 397.083 141.667C395 142.501 391.666 144.584 389.166 145.834C390 143.751 391.25 141.251 392.916 138.751L395.416 135.001C396.25 133.751 397.083 132.501 398.333 131.667C399.166 130.417 400 129.584 400.833 129.167L404.583 125.417C405.416 124.584 406.25 123.751 405.833 122.917C405.833 122.501 405.416 122.501 405.416 122.084C405 121.667 404.583 121.667 403.75 121.667C403.333 121.667 402.5 122.084 402.083 122.501C401.25 123.334 397.5 125.834 389.166 135.417C388.75 136.251 387.916 136.667 387.5 137.501C385.833 138.751 382.916 140.834 380.416 142.917C376.666 145.417 373.333 147.917 373.333 147.501C374.166 145.417 375.833 141.251 377.083 139.584L377.5 139.167C378.75 137.501 379.166 136.667 379.166 136.667C379.583 136.251 380 135.834 380 135.417V134.167C379.583 133.334 379.166 132.917 378.75 132.501C378.333 132.084 377.5 131.667 377.083 131.667C376.666 131.667 376.25 132.084 375.833 132.501L372.916 137.084C371.25 138.334 368.333 140.417 365 142.917C361.25 145.834 360 146.251 357.916 147.501C357.916 147.501 357.083 148.334 357.916 146.251C357.916 145.834 360 142.501 361.25 140.417C361.25 140.001 361.666 140.001 361.666 139.584C361.666 139.167 362.083 138.751 362.5 138.751V137.501C363.333 136.251 363.75 135.417 363.75 135.417V134.167C363.75 133.751 362.916 132.917 362.083 132.501C361.25 132.084 360.416 131.667 360 131.667C359.583 131.667 359.166 132.084 358.75 132.501C357.5 134.167 356.666 135.834 355.833 136.667C355 137.501 354.166 138.751 353.333 140.001C352.5 141.251 351.666 142.084 351.25 142.501C350.833 142.917 350 143.751 348.333 145.001C347.5 145.417 346.666 146.251 345.833 147.084C344.583 147.917 343.75 148.334 343.333 148.751C342.916 148.751 342.916 149.167 342.5 149.167C342.083 149.167 342.083 149.167 341.666 148.751C341.666 148.334 341.666 147.084 342.5 145.417C343.333 143.751 344.583 142.084 345.833 140.001C346.666 139.167 347.083 137.917 347.916 137.084C348.333 136.251 348.75 135.834 348.75 135.417V133.751C348.333 132.917 347.916 132.501 347.5 132.084C346.666 131.667 346.25 131.251 345.833 131.251C345.416 131.251 344.583 131.667 344.166 132.084L340.833 137.917C339.583 139.584 338.75 140.834 338.333 142.501C337.083 142.084 335.833 141.251 333.75 140.834C333.75 140.417 335 137.501 332.083 134.584C327.5 129.584 318.75 130.417 318.75 130.417C334.166 123.334 324.166 115.001 315 114.584C297.5 114.167 287.083 127.501 287.083 127.501C315.416 107.917 319.166 121.667 319.166 121.667C320 123.751 317.916 127.501 313.333 129.584C311.25 130.417 310.416 130.417 308.333 131.251C307.083 131.667 304.583 132.084 304.166 132.084C301.666 132.501 300 132.917 299.166 132.917H298.75C299.166 132.501 299.166 132.084 299.583 131.667C300 131.251 300.416 130.834 300.416 130.417C302.083 128.334 302.916 127.084 303.333 126.667C303.75 125.834 304.166 125.417 303.75 125.001C303.333 124.584 302.5 123.751 301.25 122.917C300.416 122.501 300 122.501 299.583 122.501C299.166 122.501 298.333 122.917 297.916 123.751C295.833 126.251 294.166 128.334 292.916 130.834C291.666 132.917 290 135.417 288.75 137.501C287.5 139.584 286.25 141.667 285.416 143.751V144.167C282.083 145.001 279.166 146.251 277.083 147.501C274.583 148.751 274.166 150.417 275 152.501C275.416 153.751 276.666 155.417 277.916 157.084C279.166 158.751 280.833 160.001 282.5 160.834C284.583 162.084 286.666 162.501 288.75 162.501C294.583 162.501 301.666 161.251 310 158.751C314.166 157.501 317.5 156.251 320.416 155.001C323.333 153.751 325.416 152.084 327.916 150.417C329.583 149.167 330.833 147.917 332.083 146.667C333.333 145.417 334.166 144.167 334.166 143.334H334.583C336.25 143.751 337.5 143.751 338.333 144.167C337.916 144.584 337.916 145.001 337.5 145.834C336.666 147.501 336.25 148.751 336.25 149.167V150.834C336.666 151.667 337.5 152.501 338.333 153.334C339.583 154.167 340.416 154.584 341.25 154.584C341.666 154.584 342.5 154.167 343.333 153.751C345.416 152.084 347.5 150.001 350 147.084L353.333 143.751L354.166 142.917C353.333 145.001 352.5 147.084 351.666 148.751C351.25 150.417 350.833 151.667 351.25 152.084L353.333 154.167C354.166 155.001 355 155.001 355.416 155.001C355.833 155.001 355.833 155.001 356.25 154.584C356.25 154.584 357.083 154.167 357.5 153.334C358.75 151.667 360 150.001 360.416 149.584C361.666 148.334 362.083 147.501 362.916 146.667C365.833 143.751 368.333 142.084 370.416 140.417C369.166 142.501 368.75 143.751 367.916 145.001C367.083 146.251 366.666 147.917 366.25 150.001V152.084C366.666 152.501 367.083 153.334 368.333 153.751C369.166 154.167 370 154.584 370.416 154.584C370.833 154.584 370.833 154.584 371.25 154.167C371.25 154.167 372.083 153.751 372.5 152.917C373.75 151.251 375 149.584 375.416 149.167C376.666 147.917 377.083 147.084 377.916 146.251C380.833 143.334 382.916 141.667 385 140.417C384.583 141.251 384.166 141.667 384.166 142.501C382.916 145.001 382.083 147.501 381.666 149.584C381.25 150.417 381.666 151.251 381.666 151.667C382.083 152.084 382.5 152.917 383.75 153.334C384.583 153.751 385.416 154.167 385.833 154.167C386.25 154.167 386.25 154.167 386.666 153.751L387.916 152.501C389.166 150.834 390.416 149.167 390.833 148.751C392.083 147.501 393.333 145.834 394.583 145.001C395 144.584 396.666 143.751 398.333 142.501C396.666 145.001 395.833 147.084 396.666 148.751C397.083 150.001 397.916 151.251 399.166 152.084C400.416 152.917 401.25 153.751 402.5 153.751C402.916 153.751 403.333 153.751 404.166 153.334C404.583 152.917 405.416 152.501 406.666 151.667C410 149.167 413.75 145.417 417.5 141.251L417.916 140.834V141.251C416.666 143.751 415.416 146.251 415 148.751V150.834C415.416 151.251 415.833 152.084 417.083 152.501C417.916 152.917 418.75 153.334 419.166 153.334C419.583 153.334 419.583 153.334 420 152.917C420 152.917 420.416 152.501 420.833 151.667C422.083 149.584 422.916 147.917 423.75 147.084C424.583 146.251 425.416 145.417 426.666 144.584C428.333 143.334 430.416 142.501 432.916 142.084C432.083 144.167 431.666 146.667 432.5 147.917C432.916 149.167 433.75 150.834 436.25 152.084C437.916 152.917 441.25 152.917 443.75 152.084C447.5 151.251 450 149.167 451.666 147.917C453.333 146.667 457.083 143.334 458.333 142.084C459.583 141.251 461.25 139.584 462.5 138.334C460.416 141.667 458.75 145.001 457.5 148.334C457.083 149.167 457.083 150.001 457.5 150.417C457.916 150.834 458.333 151.667 459.166 152.084C460 152.917 460.833 152.917 461.25 152.917C461.666 152.917 462.5 152.501 462.916 151.251C465 147.084 467.083 144.167 470 141.667C471.666 140.001 474.166 138.334 476.666 137.501C475.833 138.751 475.833 139.584 475.833 140.001C476.25 140.834 476.666 141.251 477.916 141.667C479.166 142.084 480 142.501 481.666 142.917C481.25 142.501 481.25 142.084 481.25 142.084C480.833 141.251 480.833 140.834 481.25 140.001C481.666 139.167 482.083 137.917 483.333 136.667L485 134.584C484.166 135.417 484.583 134.584 484.166 134.167ZM445 137.501C447.083 136.251 448.75 135.834 450 135.834C450.416 135.834 450.833 135.834 450.833 136.251C450.833 136.667 450.833 137.501 450 138.751C449.166 140.001 448.333 142.084 445.416 143.334C442.916 144.167 439.583 143.751 438.333 142.917C439.583 141.667 442.916 138.751 445 137.501ZM309.166 152.501C305.416 153.751 300.833 155.001 296.25 156.251C291.666 157.084 287.916 157.917 285 157.917C280.833 157.917 278.75 157.084 277.916 155.417C277.5 154.584 277.916 153.751 278.75 152.501C279.583 151.251 280.833 150.417 282.5 150.001V150.417C282.083 152.084 282.083 153.334 282.916 154.584C283.333 155.417 283.75 156.251 285 157.084L285.416 156.251L289.166 148.751V147.917C292.083 146.667 295.416 145.834 299.166 145.001C302.916 144.167 306.666 143.751 310.833 143.334C315 142.917 319.166 142.501 323.333 142.501H325.416C322.5 146.251 317.083 149.584 309.166 152.501ZM327.083 140.417C324.166 140.417 321.666 140.001 318.75 140.001C315.416 140.001 312.5 140.001 309.583 140.417C306.666 140.417 303.75 140.834 300.833 141.251C297.916 141.667 295.416 142.084 292.916 142.501H292.083V142.084L292.916 140.417C293.333 140.001 293.75 139.167 294.166 138.334L295.416 136.251H295.833L296.666 135.834C297.916 135.417 300 135.001 302.5 134.584C305 134.167 307.5 133.751 309.583 133.334C312.083 132.917 314.166 132.917 315.833 132.917C318.75 132.917 321.25 133.334 322.916 133.751C325 134.584 325.833 135.417 326.666 136.251C327.5 138.334 327.5 139.584 327.083 140.417ZM417.5 137.501C417.083 138.334 416.25 139.584 414.583 141.251C412.083 143.751 408.75 145.834 405.416 147.501C403.75 148.334 402.5 148.751 401.666 148.751C401.25 148.751 400.833 148.751 400.833 148.334V147.501C401.666 145.834 402.916 144.167 404.583 142.917C406.25 141.251 408.333 140.001 410.833 138.751C411.666 138.334 412.5 137.917 413.75 137.501C415 137.084 415.833 136.667 416.25 137.084C416.666 137.084 416.666 137.084 417.083 137.501C417.5 137.084 417.5 137.084 417.5 137.501ZM235.833 142.501C235.416 142.501 234.166 142.501 232.916 142.917C229.583 143.334 227.083 144.167 225 145.417C225.416 143.751 226.25 142.917 226.25 142.501L227.916 140.001C228.333 139.584 228.333 139.167 228.333 138.751C228.333 138.334 227.916 137.917 227.083 137.917C227.916 137.084 227.916 136.251 227.5 135.417C227.083 134.584 226.666 133.751 225.833 133.334C225 132.917 224.166 132.501 222.916 132.501C221.25 132.501 219.166 132.917 216.25 134.167C213.333 135.417 210.833 136.667 208.75 138.334C206.666 140.001 205 141.251 203.333 142.917C200.416 145.834 197.5 147.917 193.75 149.167C192.083 149.584 187.5 151.251 186.25 148.751C185.833 147.917 186.25 146.667 187.083 145.001C190 138.751 196.666 136.667 197.5 136.667H198.333C198.75 137.084 196.666 139.167 197.083 140.001C198.333 138.334 199.583 137.501 200.833 136.667C201.666 136.251 202.083 135.417 201.666 135.001L200.416 133.751C199.583 133.334 198.75 133.334 198.333 133.334C197.916 133.334 197.083 133.334 195.833 133.751C194.583 134.167 193.333 134.584 192.083 135.417C190.833 135.834 189.583 136.667 188.75 137.501C187.916 137.917 187.5 138.334 186.666 139.167C185 140.001 181.666 142.084 178.333 144.584C174.583 147.501 173.333 147.917 171.25 149.167C172.083 146.667 173.75 142.917 175 141.251L175.416 140.834C176.666 139.167 177.083 138.334 177.083 138.334C177.5 137.917 177.916 137.501 177.916 137.084V135.834C177.5 135.001 177.083 134.584 176.666 134.167C176.25 133.751 175.416 133.334 175 133.334C174.583 133.334 174.166 133.751 173.75 134.167L170 140.001C168.333 142.917 167.083 145.001 166.666 146.667C165.833 147.917 165.416 149.584 165 151.667V153.751C165.416 154.167 165.833 155.001 167.083 155.417C167.916 155.834 168.75 156.251 169.166 156.251C169.583 156.251 169.583 156.251 170 155.834C170 155.834 170.833 155.417 171.25 154.584C172.5 152.917 173.75 151.251 174.166 150.834C175.416 149.584 175.833 148.751 176.666 147.917C179.166 145.001 181.25 143.751 183.333 142.084C182.916 142.917 182.083 143.751 182.083 144.584C181.25 146.251 181.25 147.917 181.666 149.584C182.083 150.834 183.333 153.334 185.416 154.167C188.75 155.834 191.666 155.001 192.083 155.001C194.583 154.584 197.5 153.334 200.416 150.001C200.416 150.417 200.416 150.834 200.833 150.834C201.25 152.084 202.083 152.917 203.333 154.167C204.583 155.001 205.833 155.834 206.666 155.834C207.5 155.834 208.333 155.417 210 154.167C212.916 151.667 216.25 148.751 220 144.584L220.833 143.751L220.416 144.584C219.166 147.084 218.75 148.751 218.333 150.001C217.916 151.251 217.916 152.084 217.916 152.917C218.333 153.751 219.166 154.167 220.416 155.001C221.25 155.417 221.666 155.834 222.5 155.834C222.916 155.834 223.333 155.834 223.333 155.417C223.333 155.417 223.75 155.001 223.75 154.584C224.166 152.917 225 151.251 225.833 150.417C226.666 149.167 227.5 148.334 228.333 147.501C229.166 146.667 230.416 145.834 232.083 145.417C233.333 145.001 235 144.584 237.083 144.167C237.916 144.167 238.333 143.751 238.333 143.334C237.083 142.917 236.666 142.501 235.833 142.501ZM222.083 138.334C221.666 139.167 220.833 140.417 219.166 142.084C216.666 144.584 213.333 146.667 210 148.334C208.333 149.167 207.083 149.584 206.25 149.584C205.833 149.584 205.416 149.584 205.416 149.167C205.416 148.751 205.833 147.917 206.666 146.667C207.083 145.834 207.916 145.001 209.166 143.751C210 142.917 211.25 142.084 212.5 141.251C213.75 140.417 214.583 140.001 215.833 139.167C216.666 138.751 217.916 138.334 219.166 137.917C220.416 137.501 221.25 137.501 221.666 137.501C222.083 137.501 222.083 137.501 222.5 137.917C222.083 137.917 222.083 137.917 222.083 138.334ZM246.25 127.501C246.666 126.667 247.083 126.251 247.083 125.417C247.083 125.001 247.083 124.167 246.666 124.167C246.25 123.751 245.833 123.334 245 123.334C244.166 123.334 242.916 123.751 241.666 124.584C240 125.834 239.166 128.334 237.083 130.834C235.416 132.917 233.333 133.751 233.333 134.584C233.333 135.001 233.75 135.417 234.166 135.417C235 135.417 236.25 135.001 238.75 133.751C240.833 132.501 242.916 131.251 244.583 130.001C244.583 128.751 245.416 127.917 246.25 127.501ZM259.166 135.001C258.75 134.584 258.333 134.584 257.916 134.584C256.666 134.584 254.583 135.001 252.083 135.834C250 136.251 248.333 137.084 246.25 137.917C244.583 138.751 242.916 139.584 242.083 140.417C241.25 141.251 241.25 141.667 241.25 142.501C241.666 143.334 242.5 143.751 243.333 144.167C244.166 144.584 245.833 144.584 248.75 144.584C250.833 144.584 252.083 144.584 253.333 145.001C251.666 145.834 250 146.251 249.166 146.667C246.25 147.917 243.75 149.167 241.25 150.417C240 151.251 238.75 151.667 238.333 152.084C237.916 152.501 237.916 152.917 237.916 153.334C237.916 153.751 238.75 154.167 239.166 154.584C239.583 155.001 240.416 155.001 240.833 155.001C241.25 155.001 241.25 155.001 241.666 154.584C242.916 153.751 245.416 152.084 249.166 150.417C252.083 148.751 253.75 147.917 256.666 147.084C256.666 147.084 258.75 146.251 257.5 145.001C257.083 144.584 256.666 144.167 255.833 144.167C255 144.167 253.75 143.751 252.083 143.751C251.25 143.751 250.416 143.751 249.583 143.334C248.75 143.334 247.916 142.917 247.5 142.917C247.083 142.917 247.083 142.501 246.666 142.501C246.666 142.084 246.666 142.084 247.083 141.667C248.75 140.417 250.833 139.584 253.333 139.167L257.5 138.334C259.166 137.917 259.583 137.501 259.583 137.501C259.583 137.084 260 137.084 259.583 136.667C260 135.834 259.583 135.417 259.166 135.001Z" fill="#00205B"/>
<path d="M382.083 128.335C382.499 128.751 382.916 128.751 383.749 128.751C384.166 128.751 384.583 128.751 384.999 128.335C385.416 127.918 385.833 127.501 386.666 127.085C387.499 126.668 387.916 126.251 388.333 125.835C389.166 125.418 389.166 124.585 389.166 124.168C388.749 123.751 388.333 122.918 387.916 122.501C387.083 122.085 386.666 121.668 385.833 121.668C384.999 121.668 384.166 122.501 382.916 123.751C381.666 125.001 381.249 126.251 381.666 127.085C380.833 127.501 381.249 127.918 382.083 128.335ZM179.999 128.751C180.416 129.168 180.833 129.168 181.666 129.168C182.083 129.168 182.499 129.168 182.916 128.751C183.333 128.335 183.749 127.918 184.583 127.501C185.416 127.085 185.833 126.668 186.249 126.251C187.083 125.835 187.083 125.001 187.083 124.585C186.666 124.168 186.249 123.335 185.833 122.918C184.999 122.501 184.583 122.085 183.749 122.085C182.916 122.085 182.083 122.918 180.833 124.168C179.583 125.418 179.166 126.668 179.583 127.501C179.166 128.335 179.583 128.335 179.999 128.751Z" fill="#00205B"/>
</g>
<defs>
<clipPath id="clip0_28_1304">
<rect width="500" height="166.667" fill="white"/>
</clipPath>
</defs>
</svg>
