<svg width="500" height="73" viewBox="0 0 500 73" fill="none" xmlns="http://www.w3.org/2000/svg">
<g clip-path="url(#clip0_28_1302)">
<path d="M31.3856 34.7068C31.3218 33.3658 30.9706 32.0567 30.3959 30.8434C29.7892 29.6621 28.991 28.5765 28.0012 27.6825C27.0114 26.7885 25.862 26.0861 24.6168 25.6071C23.3397 25.1601 21.9987 24.9366 20.6896 25.0005C19.2528 25.0005 17.816 25.3198 16.507 25.8945C15.1979 26.4692 14.0166 27.2993 13.0268 28.3211C12.0051 29.3747 11.2388 30.588 10.7279 31.929C10.1851 33.238 9.92971 34.6748 9.96164 36.1116C9.96164 42.8166 14.6232 47.6378 22.5734 47.6378H37.7075C36.8135 49.0426 35.7279 50.3517 34.4827 51.4692C33.2694 52.6186 31.8965 53.5765 30.3959 54.3747C28.9272 55.1729 27.3627 55.7795 25.7343 56.1946C24.106 56.5778 22.4457 56.8013 20.7535 56.7693C12.4521 56.7693 4.98079 51.7885 1.78795 44.1257C-1.37297 36.4628 0.383093 27.6506 6.25793 21.7757C12.1328 15.9009 20.945 14.1448 28.6079 17.3377C36.2707 20.4986 41.2835 27.9698 41.2835 36.2712C41.2835 36.8034 41.2622 37.3462 41.2196 37.8996C41.1558 38.4317 41.0919 38.9639 41.028 39.496C40.9429 40.0282 40.8365 40.5603 40.7088 41.0924C40.581 41.6246 40.4427 42.1461 40.2937 42.6569H17.4329V40.4219L25.4789 40.1665C29.5657 40.0069 31.3856 37.9315 31.3856 34.7068Z" fill="#000099"/>
<path fill-rule="evenodd" clip-rule="evenodd" d="M58.3018 28.4802L66.1243 17.0179H76.9161L63.6339 35.5364L78.0017 55.5236H66.5394L57.9825 43.0715L49.3299 55.5236H38.5381L52.6505 36.0153L38.9532 17.0179H50.4155L58.3018 28.4802ZM89.464 71.3921H79.5023V17.0179H89.464V24.4891C89.464 24.6807 89.5279 24.7765 89.6556 24.7765C89.7194 24.7765 89.8152 24.7126 89.8791 24.5849C90.4219 23.3078 91.1562 22.1264 92.0183 21.0409C92.9123 19.9872 93.934 19.0613 95.0834 18.295C96.2648 17.5287 97.51 16.954 98.851 16.539C100.16 16.1558 101.533 15.9323 102.938 15.9323C104.087 15.9536 105.237 16.0813 106.386 16.3155C107.536 16.5496 108.642 16.9115 109.707 17.401C110.771 17.8693 111.771 18.444 112.708 19.1252C113.666 19.8063 114.528 20.5832 115.294 21.4559C115.72 21.9029 116.124 22.3819 116.507 22.8927C116.891 23.4036 117.252 23.9251 117.593 24.4572C117.912 24.9894 118.21 25.5428 118.487 26.1175C118.764 26.6709 119.019 27.2456 119.253 27.8416C119.487 28.5228 119.7 29.2039 119.892 29.8851C120.083 30.5875 120.232 31.2899 120.339 31.9923C120.467 32.6948 120.562 33.4078 120.626 34.1315C120.69 34.8553 120.711 35.5683 120.69 36.2708C120.711 36.9945 120.69 37.7182 120.626 38.4419C120.562 39.1443 120.467 39.8467 120.339 40.5492C120.211 41.2729 120.062 41.9753 119.892 42.6565C119.7 43.3589 119.477 44.04 119.221 44.6999C119.008 45.2959 118.764 45.8812 118.487 46.4559C118.21 47.0094 117.912 47.5628 117.593 48.1162C117.252 48.6484 116.891 49.1699 116.507 49.6807C116.124 50.1703 115.72 50.6492 115.294 51.1175C114.528 51.9689 113.666 52.7458 112.708 53.4483C111.771 54.1294 110.771 54.7041 109.707 55.1724C108.642 55.6407 107.536 56.0026 106.386 56.258C105.237 56.4921 104.087 56.6092 102.938 56.6092C101.533 56.6092 100.16 56.4176 98.851 56.0026C97.51 55.6194 96.2648 55.0128 95.0834 54.2784C93.934 53.5121 92.9123 52.5862 92.0183 51.5006C91.1562 50.447 90.4219 49.2656 89.8791 47.9885C89.8152 47.8608 89.7194 47.765 89.6556 47.765C89.5279 47.765 89.464 47.8927 89.464 48.0524V71.3921ZM100.192 24.1699C99.4683 24.1699 98.7552 24.2444 98.0528 24.3934C97.3503 24.5636 96.6798 24.7871 96.0413 25.0639C95.3814 25.3619 94.7641 25.7237 94.1894 26.1494C93.6147 26.5751 93.0826 27.0434 92.593 27.5543C92.0609 28.1503 91.5819 28.7888 91.1562 29.47C90.7518 30.1511 90.4112 30.8642 90.1345 31.6092C89.8365 32.3542 89.6236 33.1205 89.4959 33.908C89.3469 34.6956 89.2831 35.4832 89.3044 36.2708C89.2831 37.0583 89.3469 37.8459 89.4959 38.6335C89.6236 39.421 89.8365 40.1873 90.1345 40.9323C90.4112 41.6773 90.7518 42.3904 91.1562 43.0715C91.5819 43.7527 92.0609 44.3912 92.593 44.9872C93.0826 45.5194 93.6147 45.9877 94.1894 46.3921C94.7641 46.8178 95.3814 47.1796 96.0413 47.4776C96.6798 47.7756 97.3503 47.9991 98.0528 48.1481C98.7552 48.2971 99.4683 48.3823 100.192 48.4036C100.916 48.4036 101.629 48.3184 102.331 48.1481C103.034 47.9991 103.704 47.7756 104.343 47.4776C105.003 47.2009 105.63 46.8497 106.226 46.424C106.801 45.9983 107.323 45.5194 107.791 44.9872C108.323 44.3912 108.802 43.7527 109.228 43.0715C109.632 42.3904 109.973 41.6773 110.249 40.9323C110.526 40.1873 110.739 39.421 110.888 38.6335C111.016 37.8459 111.08 37.0583 111.08 36.2708C111.08 35.4832 111.016 34.6956 110.888 33.908C110.739 33.1205 110.526 32.3542 110.249 31.6092C109.973 30.8642 109.632 30.1511 109.228 29.47C108.802 28.7888 108.323 28.1503 107.791 27.5543C107.323 27.0221 106.791 26.5539 106.195 26.1494C105.62 25.7237 105.003 25.3619 104.343 25.0639C103.704 24.7659 103.034 24.5424 102.331 24.3934C101.607 24.2444 100.894 24.1699 100.192 24.1699ZM155.013 34.7063C154.917 33.3653 154.598 32.0562 154.023 30.8748C153.417 29.6616 152.619 28.576 151.629 27.682C150.639 26.788 149.49 26.0856 148.212 25.6066C146.967 25.1596 145.626 24.9361 144.317 25C142.88 25.0319 141.444 25.3193 140.135 25.894C138.825 26.4687 137.644 27.2988 136.622 28.3206C135.633 29.3742 134.866 30.5875 134.324 31.9285C133.813 33.2695 133.557 34.6743 133.589 36.1111C133.589 42.848 138.251 47.6373 146.201 47.6373H161.335C160.409 49.0421 159.355 50.3512 158.11 51.4687C156.865 52.6181 155.492 53.6079 154.023 54.3742C152.555 55.1724 150.99 55.7791 149.362 56.1941C147.733 56.6092 146.073 56.8008 144.381 56.7688C136.08 56.7688 128.608 51.788 125.415 44.1252C122.255 36.4623 124.011 27.6501 129.885 21.7752C135.728 15.9323 144.573 14.1762 152.235 17.3372C159.898 20.4981 164.911 28.0013 164.911 36.2708C164.911 36.8242 164.879 37.367 164.815 37.8991C164.773 38.4312 164.709 38.9634 164.624 39.4955C164.538 40.049 164.443 40.5811 164.336 41.092C164.209 41.6241 164.07 42.1456 163.921 42.6565H141.06V40.4215L149.106 40.166C153.193 40.0064 155.013 37.931 155.013 34.7063ZM185.92 56.6092C184.749 56.6092 183.6 56.4921 182.472 56.258C181.322 56.0026 180.215 55.6407 179.151 55.1724C178.087 54.7041 177.086 54.1294 176.15 53.4483C175.192 52.7458 174.319 51.9689 173.532 51.1175C173.106 50.6492 172.702 50.1703 172.318 49.6807C171.957 49.1699 171.605 48.6484 171.265 48.1162C170.924 47.5628 170.626 47.0094 170.371 46.4559C170.094 45.8812 169.839 45.2959 169.604 44.6999C169.37 44.04 169.158 43.3589 168.966 42.6565C168.774 41.9753 168.615 41.2729 168.487 40.5492C168.359 39.8467 168.274 39.1443 168.232 38.4419C168.168 37.7182 168.136 36.9945 168.136 36.2708C168.136 35.5683 168.168 34.8553 168.232 34.1315C168.274 33.4078 168.359 32.6948 168.487 31.9923C168.615 31.2899 168.774 30.5875 168.966 29.8851C169.158 29.2039 169.37 28.5228 169.604 27.8416C169.839 27.2456 170.094 26.6709 170.371 26.1175C170.626 25.5428 170.924 24.9894 171.265 24.4572C171.605 23.9251 171.957 23.4036 172.318 22.8927C172.702 22.3819 173.106 21.9029 173.532 21.4559C174.319 20.5832 175.192 19.8063 176.15 19.1252C177.086 18.444 178.087 17.8693 179.151 17.401C180.215 16.9115 181.322 16.5496 182.472 16.3155C183.6 16.0813 184.749 15.9536 185.92 15.9323C187.325 15.9323 188.698 16.1558 190.007 16.539C191.348 16.954 192.593 17.5287 193.742 18.295C194.892 19.0613 195.945 19.9872 196.839 21.0409C197.702 22.1264 198.436 23.3078 198.979 24.5849C199.043 24.7126 199.138 24.7765 199.202 24.7765C199.33 24.7765 199.394 24.6807 199.394 24.4891V0.351213H209.355V55.5236H199.394V48.0524C199.394 47.8927 199.33 47.765 199.202 47.765C199.138 47.765 199.043 47.8608 198.979 47.9885C198.436 49.2656 197.702 50.447 196.839 51.5006C195.945 52.5862 194.892 53.5121 193.742 54.2784C192.593 55.0128 191.348 55.6194 190.007 56.0026C188.698 56.4176 187.325 56.6092 185.92 56.6092ZM188.666 24.1699C187.942 24.1699 187.229 24.2444 186.527 24.3934C185.824 24.5424 185.143 24.7659 184.483 25.0639C183.823 25.3619 183.206 25.7237 182.631 26.1494C182.057 26.5751 181.524 27.0541 181.035 27.5862C180.503 28.1822 180.034 28.8208 179.63 29.5019C179.204 30.1618 178.853 30.8642 178.576 31.6092C178.3 32.3542 178.097 33.1205 177.97 33.908C177.821 34.6956 177.757 35.4832 177.778 36.2708C177.757 37.0796 177.821 37.8778 177.97 38.6654C178.097 39.4317 178.3 40.1873 178.576 40.9323C178.853 41.6773 179.204 42.3904 179.63 43.0715C180.034 43.7527 180.503 44.3912 181.035 44.9872C181.524 45.5194 182.057 45.9983 182.631 46.424C183.206 46.8497 183.823 47.2116 184.483 47.5096C185.143 47.8076 185.824 48.0311 186.527 48.1801C187.229 48.3291 187.942 48.4036 188.666 48.4036C189.39 48.4036 190.092 48.3184 190.773 48.1481C191.475 47.9991 192.157 47.7756 192.816 47.4776C193.476 47.1796 194.094 46.8284 194.668 46.424C195.243 45.9983 195.775 45.5194 196.265 44.9872C196.797 44.3912 197.265 43.7527 197.67 43.0715C198.095 42.4117 198.447 41.7092 198.723 40.9642C199 40.2192 199.213 39.453 199.362 38.6654C199.49 37.8778 199.553 37.0796 199.553 36.2708C199.553 35.4832 199.49 34.6956 199.362 33.908C199.213 33.1205 199 32.3542 198.723 31.6092C198.447 30.8642 198.095 30.1511 197.67 29.47C197.265 28.8101 196.797 28.1822 196.265 27.5862C195.775 27.0541 195.243 26.5751 194.668 26.1494C194.094 25.7237 193.476 25.3725 192.816 25.0958C192.157 24.7978 191.486 24.5743 190.805 24.4253C190.103 24.255 189.39 24.1699 188.666 24.1699ZM216.507 17.0179H226.469V55.5236H216.507V17.0179ZM221.488 11.622C220.722 11.622 219.988 11.4623 219.285 11.175C218.583 10.8876 217.944 10.4406 217.401 9.89783C216.859 9.35504 216.412 8.71648 216.124 8.04598C215.837 7.34355 215.677 6.57727 215.677 5.81098C215.677 5.0447 215.837 4.31034 216.124 3.60792C216.444 2.90549 216.859 2.26692 217.401 1.72414C217.944 1.18135 218.583 0.766284 219.285 0.478927C219.988 0.159642 220.722 0.0319285 221.488 0C222.255 0.0319285 222.989 0.159642 223.691 0.478927C224.394 0.766284 225.032 1.18135 225.575 1.72414C226.118 2.26692 226.533 2.90549 226.852 3.60792C227.14 4.31034 227.299 5.0447 227.299 5.81098C227.299 6.57727 227.14 7.34355 226.852 8.04598C226.533 8.71648 226.118 9.35504 225.575 9.89783C225.032 10.4406 224.394 10.8876 223.691 11.175C222.989 11.4623 222.255 11.622 221.488 11.622ZM249.234 56.6092C248.063 56.6092 246.914 56.4921 245.786 56.258C244.636 56.0026 243.53 55.6407 242.465 55.1724C241.401 54.7041 240.401 54.1294 239.464 53.4483C238.506 52.7458 237.633 51.9689 236.846 51.1175C236.42 50.6492 236.016 50.1703 235.633 49.6807C235.249 49.1699 234.898 48.6484 234.579 48.1162C234.238 47.5628 233.93 47.0094 233.653 46.4559C233.376 45.8812 233.132 45.2959 232.919 44.6999C232.663 44.04 232.45 43.3589 232.28 42.6565C232.089 41.9753 231.929 41.2729 231.801 40.5492C231.673 39.8467 231.588 39.1443 231.546 38.4419C231.482 37.7182 231.45 36.9945 231.45 36.2708C231.45 35.5683 231.482 34.8553 231.546 34.1315C231.588 33.4078 231.673 32.6948 231.801 31.9923C231.929 31.2899 232.089 30.5875 232.28 29.8851C232.45 29.2039 232.663 28.5228 232.919 27.8416C233.132 27.2456 233.376 26.6709 233.653 26.1175C233.93 25.5428 234.238 24.9894 234.579 24.4572C234.898 23.9251 235.249 23.4036 235.633 22.8927C236.016 22.3819 236.42 21.9029 236.846 21.4559C237.633 20.5832 238.506 19.8063 239.464 19.1252C240.401 18.444 241.401 17.8693 242.465 17.401C243.53 16.9115 244.636 16.5496 245.786 16.3155C246.914 16.0813 248.063 15.9536 249.234 15.9323C250.607 15.9323 252.012 16.1558 253.321 16.539C254.662 16.954 255.907 17.5287 257.057 18.295C258.206 19.0613 259.26 19.9872 260.122 21.0409C261.016 22.1264 261.75 23.3078 262.293 24.5849C262.357 24.7126 262.421 24.7765 262.516 24.7765C262.612 24.7765 262.708 24.6807 262.708 24.4891V17.0179H272.67V55.5236H262.708V48.0524C262.708 47.8927 262.612 47.765 262.516 47.765C262.421 47.765 262.357 47.8608 262.293 47.9885C261.75 49.2656 261.016 50.447 260.122 51.5006C259.26 52.5862 258.206 53.5121 257.057 54.2784C255.907 55.0128 254.662 55.6194 253.321 56.0026C252.012 56.4176 250.607 56.6092 249.234 56.6092ZM251.98 24.1699C251.256 24.1699 250.543 24.2444 249.841 24.3934C249.138 24.5424 248.457 24.7659 247.797 25.0639C247.137 25.3619 246.52 25.7237 245.945 26.1494C245.371 26.5539 244.839 27.0221 244.349 27.5543C243.817 28.1503 243.349 28.7888 242.944 29.47C242.519 30.1511 242.167 30.8642 241.891 31.6092C241.614 32.3542 241.412 33.1205 241.284 33.908C241.135 34.6956 241.071 35.4832 241.092 36.2708C241.071 37.0796 241.135 37.8672 241.284 38.6335C241.412 39.421 241.614 40.1873 241.891 40.9323C242.167 41.6773 242.519 42.3904 242.944 43.0715C243.349 43.7527 243.817 44.3912 244.349 44.9872C244.839 45.5194 245.371 45.9983 245.945 46.424C246.52 46.8497 247.137 47.2116 247.797 47.5096C248.457 47.7863 249.138 48.0098 249.841 48.1801C250.543 48.3291 251.256 48.4036 251.98 48.4036C252.704 48.3823 253.406 48.2971 254.087 48.1481C254.79 47.9991 255.471 47.7756 256.131 47.4776C256.791 47.1796 257.408 46.8178 257.983 46.3921C258.557 45.9877 259.089 45.5194 259.579 44.9872C260.111 44.3912 260.579 43.7527 260.984 43.0715C261.41 42.3904 261.761 41.6773 262.037 40.9323C262.314 40.1873 262.527 39.421 262.676 38.6335C262.804 37.8672 262.868 37.0796 262.868 36.2708C262.868 35.4832 262.804 34.6956 262.676 33.908C262.527 33.1205 262.314 32.3542 262.037 31.6092C261.761 30.8642 261.41 30.1511 260.984 29.47C260.579 28.7888 260.111 28.1609 259.579 27.5862C259.089 27.0541 258.557 26.5751 257.983 26.1494C257.408 25.7237 256.791 25.3725 256.131 25.0958C255.471 24.7978 254.79 24.5743 254.087 24.4253C253.406 24.255 252.704 24.1699 251.98 24.1699ZM312.037 72.2861C311.207 72.3074 310.367 72.2754 309.515 72.1903C308.664 72.1264 307.823 72.02 306.993 71.871C306.163 71.722 305.343 71.5304 304.534 71.2963C303.704 71.0834 302.895 70.828 302.108 70.53C301.363 70.2533 300.639 69.934 299.937 69.5722C299.234 69.2316 298.542 68.8591 297.861 68.4547C297.18 68.0289 296.531 67.5819 295.914 67.1137C295.275 66.6241 294.668 66.1132 294.094 65.5811L300.064 59.0996C303.928 62.1648 307.089 63.9208 311.878 63.9208C312.623 63.9634 313.368 63.9208 314.113 63.7931C314.836 63.6654 315.55 63.4632 316.252 63.1865C316.933 62.8885 317.582 62.516 318.2 62.069C318.796 61.622 319.338 61.1111 319.828 60.5364C320.254 59.9617 320.626 59.3444 320.945 58.6845C321.265 58.046 321.531 57.3755 321.744 56.673C321.957 55.9706 322.106 55.2682 322.191 54.5658C322.276 53.8421 322.297 53.1184 322.255 52.3946V47.7331C322.255 47.5734 322.191 47.4457 322.095 47.4457C321.999 47.4457 321.935 47.5096 321.839 47.6692C321.329 48.9144 320.626 50.0958 319.732 51.1494C318.87 52.235 317.848 53.1609 316.731 53.8953C315.582 54.6616 314.336 55.2682 313.027 55.6833C311.718 56.0664 310.345 56.2899 308.972 56.2899C307.823 56.2899 306.684 56.1622 305.556 55.9068C304.428 55.6726 303.332 55.3214 302.267 54.8531C301.203 54.3848 300.203 53.8101 299.266 53.129C298.329 52.4478 297.478 51.6816 296.712 50.8301C296.286 50.3831 295.882 49.9042 295.498 49.3934C295.115 48.9038 294.764 48.3929 294.445 47.8608C294.126 47.3286 293.828 46.7752 293.551 46.2005C293.274 45.6471 293.029 45.0724 292.816 44.4764C292.561 43.8165 292.348 43.146 292.178 42.4649C291.986 41.7625 291.827 41.06 291.699 40.3576C291.593 39.6552 291.507 38.9527 291.444 38.2503C291.38 37.5479 291.348 36.8348 291.348 36.1111C291.348 35.4087 291.38 34.6956 291.444 33.9719C291.507 33.2695 291.593 32.5671 291.699 31.8646C291.827 31.1622 291.986 30.4704 292.178 29.7893C292.348 29.0868 292.561 28.4057 292.816 27.7458C293.029 27.1499 293.274 26.5751 293.551 26.0217C293.828 25.4683 294.126 24.9149 294.445 24.3614C294.764 23.8293 295.115 23.3184 295.498 22.8289C295.882 22.3393 296.286 21.8604 296.712 21.3921C297.478 20.5407 298.329 19.7744 299.266 19.0932C300.203 18.4121 301.203 17.8374 302.267 17.3691C303.332 16.9008 304.428 16.5496 305.556 16.3155C306.684 16.0813 307.823 15.9536 308.972 15.9323C310.345 15.9642 311.718 16.1558 313.027 16.5709C314.336 16.954 315.582 17.5607 316.699 18.3269C317.848 19.0932 318.87 20.0192 319.732 21.0728C320.626 22.1264 321.329 23.3078 321.839 24.5849C321.903 24.7126 321.999 24.7765 322.095 24.7765C322.191 24.7765 322.255 24.6807 322.255 24.4891V17.0179H332.248V53.2886C332.269 54.5445 332.174 55.7791 331.961 56.9923C331.748 58.2269 331.407 59.4295 330.939 60.6003C330.492 61.7497 329.928 62.8459 329.247 63.8889C328.587 64.9532 327.821 65.9323 326.948 66.8263C323.308 70.4023 318.168 72.2861 312.037 72.2861ZM311.718 24.1699C311.016 24.1699 310.313 24.2444 309.611 24.3934C308.93 24.5424 308.259 24.7659 307.599 25.0639C306.961 25.3406 306.354 25.6918 305.779 26.1175C305.205 26.5219 304.683 26.9902 304.215 27.5223C303.683 28.0971 303.215 28.725 302.81 29.4061C302.406 30.0873 302.065 30.7897 301.788 31.5134C301.512 32.2584 301.309 33.014 301.182 33.7803C301.054 34.5466 300.99 35.3235 300.99 36.1111C300.99 36.8987 301.054 37.6756 301.182 38.4419C301.309 39.2295 301.512 39.9851 301.788 40.7088C302.065 41.4538 302.406 42.1562 302.81 42.8161C303.215 43.4972 303.683 44.1252 304.215 44.6999C304.683 45.232 305.205 45.7003 305.779 46.1047C306.354 46.5304 306.961 46.8923 307.599 47.1903C308.259 47.467 308.93 47.6799 309.611 47.8289C310.313 47.9779 311.016 48.0524 311.718 48.0524C312.421 48.0524 313.112 47.9779 313.793 47.8289C314.496 47.6799 315.166 47.4564 315.805 47.1584C316.444 46.8604 317.05 46.5092 317.625 46.1047C318.2 45.7003 318.721 45.232 319.189 44.6999C319.722 44.1252 320.19 43.4972 320.594 42.8161C320.999 42.1562 321.339 41.4538 321.616 40.7088C321.914 39.9851 322.127 39.2295 322.255 38.4419C322.382 37.6756 322.446 36.8987 322.446 36.1111C322.446 35.3235 322.382 34.5466 322.255 33.7803C322.106 32.9928 321.893 32.2371 321.616 31.5134C321.339 30.7684 320.999 30.066 320.594 29.4061C320.19 28.725 319.722 28.0971 319.189 27.5223C318.721 27.0115 318.2 26.5432 317.625 26.1175C317.05 25.7131 316.444 25.3619 315.805 25.0639C315.166 24.7871 314.496 24.5636 313.793 24.3934C313.112 24.2444 312.421 24.1699 311.718 24.1699ZM349.362 17.0179V25.4151C349.362 25.5747 349.521 25.6705 349.617 25.4151C350.926 18.5185 353.928 15.9323 359.068 15.9323H359.994V26.4049H355.492C351.437 26.4049 349.362 29.5658 349.362 34.0358V55.5236H339.368V17.0179H349.362ZM381.195 56.7688C375.735 56.8327 370.467 54.6935 366.571 50.8301C362.676 46.9987 360.505 41.7305 360.505 36.2708C360.505 30.811 362.676 25.5747 366.571 21.7114C370.467 17.8799 375.735 15.7407 381.195 15.7727C382.536 15.7727 383.866 15.911 385.186 16.1877C386.505 16.4432 387.782 16.8263 389.017 17.3372C390.252 17.848 391.422 18.4866 392.529 19.2529C393.657 19.9979 394.69 20.8493 395.626 21.8072C397.542 23.6909 399.043 25.9579 400.064 28.4483C401.118 30.9387 401.629 33.5888 401.629 36.2708C401.629 38.9847 401.118 41.6347 400.064 44.1252C399.043 46.6156 397.542 48.8506 395.626 50.7663C394.69 51.7241 393.657 52.5756 392.529 53.3206C391.422 54.0656 390.252 54.6935 389.017 55.2043C387.782 55.7365 386.505 56.1303 385.186 56.3857C383.866 56.6411 382.536 56.7688 381.195 56.7688ZM381.131 24.8404C380.407 24.8404 379.694 24.9042 378.991 25.0319C378.289 25.1809 377.608 25.3938 376.948 25.6705C376.267 25.9685 375.639 26.3197 375.064 26.7241C374.468 27.1286 373.925 27.5968 373.436 28.129C372.925 28.6611 372.467 29.2465 372.063 29.8851C371.659 30.5236 371.318 31.1941 371.041 31.8966C370.765 32.599 370.562 33.312 370.435 34.0358C370.286 34.7808 370.222 35.5258 370.243 36.2708C370.222 37.037 370.286 37.782 370.435 38.5057C370.562 39.2507 370.765 39.9745 371.041 40.6769C371.318 41.3793 371.659 42.0392 372.063 42.6565C372.467 43.295 372.925 43.891 373.436 44.4444C374.426 45.4662 375.607 46.2963 376.948 46.871C378.257 47.4457 379.662 47.7331 381.131 47.7331C382.567 47.7331 383.972 47.4457 385.313 46.871C386.622 46.2963 387.804 45.4662 388.794 44.4444C389.304 43.891 389.762 43.295 390.166 42.6565C390.571 42.0392 390.911 41.3793 391.188 40.6769C391.465 39.9745 391.667 39.2507 391.795 38.5057C391.944 37.782 392.008 37.037 391.986 36.2708C392.008 35.5258 391.944 34.7808 391.795 34.0358C391.667 33.312 391.465 32.599 391.188 31.8966C390.911 31.1941 390.571 30.5236 390.166 29.8851C389.762 29.2465 389.304 28.6611 388.794 28.129C388.304 27.5968 387.761 27.1286 387.165 26.7241C386.59 26.3197 385.973 25.9685 385.313 25.6705C384.653 25.3938 383.962 25.1809 383.238 25.0319C382.536 24.9042 381.833 24.8404 381.131 24.8404ZM422.318 56.7688C412.612 56.7688 406.386 50.894 406.386 42.2414V17.0179H416.348V41.507C416.284 42.3372 416.412 43.1673 416.699 43.9655C416.986 44.7637 417.433 45.4662 418.04 46.0728C418.615 46.6475 419.317 47.1264 420.115 47.4138C420.882 47.7331 421.744 47.8608 422.574 47.7969C423.372 47.8289 424.202 47.6692 424.937 47.3499C425.671 47.0307 426.341 46.5837 426.916 45.977C427.491 45.4023 427.906 44.7318 428.193 43.9655C428.481 43.1992 428.608 42.401 428.544 41.5709V17.0179H438.538V42.2414C438.538 50.894 431.801 56.7688 422.318 56.7688ZM455.396 71.3921H445.435V17.0179H455.396V24.4891C455.396 24.6807 455.46 24.7765 455.556 24.7765C455.652 24.7765 455.748 24.7126 455.811 24.5849C456.354 23.3078 457.057 22.1264 457.951 21.0409C458.845 19.9872 459.866 19.0613 461.016 18.295C462.197 17.5287 463.442 16.954 464.783 16.539C466.092 16.1558 467.465 15.9323 468.838 15.9323C470.009 15.9536 471.169 16.0813 472.318 16.3155C473.447 16.5496 474.553 16.9115 475.639 17.401C476.703 17.8693 477.704 18.444 478.64 19.1252C479.577 19.8063 480.439 20.5832 481.226 21.4559C481.652 21.9029 482.057 22.3819 482.44 22.8927C482.823 23.4036 483.185 23.9251 483.525 24.4572C483.845 24.9894 484.143 25.5428 484.419 26.1175C484.696 26.6709 484.941 27.2456 485.154 27.8416C485.409 28.5228 485.633 29.2039 485.824 29.8851C486.016 30.5875 486.165 31.2899 486.271 31.9923C486.399 32.6948 486.495 33.4078 486.559 34.1315C486.622 34.8553 486.644 35.5683 486.622 36.2708C486.622 36.9945 486.601 37.7182 486.559 38.4419C486.495 39.1443 486.399 39.8467 486.271 40.5492C486.143 41.2729 485.994 41.9753 485.824 42.6565C485.633 43.3589 485.409 44.04 485.154 44.6999C484.941 45.2959 484.696 45.8812 484.419 46.4559C484.143 47.0094 483.845 47.5628 483.525 48.1162C483.185 48.6484 482.823 49.1699 482.44 49.6807C482.057 50.1703 481.652 50.6492 481.226 51.1175C480.439 51.9689 479.577 52.7458 478.64 53.4483C477.704 54.1294 476.703 54.7041 475.639 55.1724C474.553 55.6407 473.447 56.0026 472.318 56.258C471.169 56.4921 470.009 56.6092 468.838 56.6092C467.465 56.6092 466.092 56.4176 464.783 56.0026C463.442 55.6194 462.197 55.0128 461.016 54.2784C459.866 53.5121 458.845 52.5862 457.951 51.5006C457.057 50.447 456.354 49.2656 455.811 47.9885C455.748 47.8608 455.652 47.765 455.556 47.765C455.46 47.765 455.396 47.8927 455.396 48.0524V71.3921ZM466.124 24.1699C465.401 24.1699 464.688 24.2444 463.985 24.3934C463.283 24.5636 462.612 24.7871 461.974 25.0639C461.314 25.3619 460.696 25.7237 460.122 26.1494C459.547 26.5751 459.015 27.0434 458.525 27.5543C457.993 28.1503 457.514 28.7888 457.089 29.47C456.684 30.1511 456.333 30.8642 456.035 31.6092C455.758 32.3542 455.556 33.1205 455.428 33.908C455.279 34.6956 455.215 35.4832 455.237 36.2708C455.215 37.0583 455.279 37.8459 455.428 38.6335C455.556 39.421 455.758 40.1873 456.035 40.9323C456.333 41.6773 456.684 42.3904 457.089 43.0715C457.514 43.7527 457.993 44.3912 458.525 44.9872C458.994 45.5194 459.526 45.9877 460.122 46.3921C460.696 46.8178 461.314 47.1796 461.974 47.4776C462.612 47.7756 463.283 47.9991 463.985 48.1481C464.688 48.2971 465.401 48.3823 466.124 48.4036C466.827 48.4036 467.529 48.3184 468.232 48.1481C468.934 47.9991 469.615 47.7756 470.275 47.4776C470.935 47.2009 471.552 46.8497 472.127 46.424C472.723 45.9983 473.255 45.5194 473.723 44.9872C474.255 44.3912 474.734 43.7527 475.16 43.0715C475.564 42.3904 475.905 41.6773 476.182 40.9323C476.458 40.1873 476.671 39.421 476.82 38.6335C476.948 37.8459 477.001 37.0583 476.98 36.2708C477.001 35.4832 476.948 34.6956 476.82 33.908C476.671 33.1205 476.458 32.3542 476.182 31.6092C475.905 30.8642 475.564 30.1511 475.16 29.47C474.734 28.7888 474.255 28.1503 473.723 27.5543C473.255 27.0221 472.723 26.5539 472.127 26.1494C471.552 25.7237 470.935 25.3619 470.275 25.0639C469.615 24.7659 468.934 24.5424 468.232 24.3934C467.529 24.2444 466.827 24.1699 466.124 24.1699ZM493.679 17.1456V18.1673H491.954V22.9247H490.741V18.1673H489.017V17.1456H493.679ZM498.212 17.1456H499.937V22.9247H498.819C498.819 22.7969 498.819 18.742 498.819 18.5504C498.819 18.3589 498.819 18.1992 498.819 18.0715L497.733 22.9247H496.552L495.467 18.0715C495.467 18.1992 495.467 18.3589 495.467 18.5504C495.467 18.7633 495.467 18.9229 495.467 19.0294V22.9247H494.349V17.1456H496.105L497.159 21.6794L498.212 17.1456Z" fill="#000099"/>
</g>
<defs>
<clipPath id="clip0_28_1302">
<rect width="500" height="72.4777" fill="white"/>
</clipPath>
</defs>
</svg>
