<svg width="500" height="180" viewBox="0 0 500 180" fill="none" xmlns="http://www.w3.org/2000/svg">
<g clip-path="url(#clip0_28_1311)">
<path d="M250 0C111.874 0 0 40.2185 0 89.9803C0 139.727 111.881 179.957 250 179.957C388.136 179.957 500 139.725 500 89.9803C500 40.2166 388.138 0 250 0Z" fill="#00095B"/>
<path d="M251.266 172.066C118.255 172.066 10.4316 134.911 10.4316 89.0738C10.4316 43.2313 118.257 6.07812 251.266 6.07812C384.264 6.07812 492.082 43.2295 492.082 89.0738C492.082 134.909 384.26 172.066 251.266 172.066ZM251.266 13.2688C122.929 13.2688 18.8979 47.2018 18.8979 89.0738C18.8979 130.948 122.925 164.885 251.266 164.885C379.602 164.885 483.616 130.946 483.616 89.0738C483.616 47.2018 379.594 13.2688 251.266 13.2688Z" fill="white"/>
<path d="M188.444 26.7468C185.027 26.7576 181.591 26.8906 178.133 27.1736C155.163 29.0879 133.299 41.8936 133.259 61.3357C133.234 71.1947 140.313 79.1833 151.281 78.8318C164.17 78.399 174.75 68.1751 180.289 55.2849C182.391 50.3941 178.499 48.3627 176.647 51.1784C173.421 56.0974 168.928 60.0549 163.641 62.6335C157.576 65.574 151.094 64.7806 149.129 59.905C146.366 53.0262 152.109 42.7329 165.215 37.8894C184.145 30.9501 203.951 35.5404 223.01 39.0857C223.282 39.0857 224.297 39.6432 223.399 40.1062C219.986 41.9487 216.626 43.4471 211.392 47.9069C207.639 51.0894 202.725 55.3263 198.925 59.9411C195.153 64.4898 192.479 68.547 188.941 73.0446C188.448 73.6947 187.841 73.6648 187.849 73.6648C179.226 75.1067 170.784 76.0726 163.055 81.3943C161.456 82.4866 160.762 84.4254 161.731 85.9089C162.603 87.2242 164.595 87.3638 165.979 86.3679C170.781 82.8113 175.724 81.1371 181.394 80.9821C181.641 80.9973 181.76 81.037 181.83 81.1882C181.874 81.2732 181.847 81.4524 181.745 81.5847C173.252 93.2503 171.126 95.8867 164.736 103.119C161.469 106.836 158.255 109.973 154.664 113.239C140.158 126.583 124.556 126.352 118.958 117.986C115.613 112.965 116.054 107.694 118.246 103.321C120.945 97.9654 126.398 94.0401 130.934 91.7478C132.617 90.8974 133.102 88.7657 131.416 86.823C130.345 85.5568 127.746 85.3318 125.811 85.6833C119.869 86.7699 112.848 91.2172 108.7 96.5691C104.025 102.575 101.689 109.866 102.474 118.049C103.882 132.813 116.16 141.342 130.099 141.244C141.19 141.158 151.638 137.831 164.209 125.195C175.928 113.41 186.604 95.8071 196.601 79.4831C196.914 78.9615 197.137 78.6819 198.656 78.4948C204.927 77.7181 214.185 76.834 220.119 76.4939C221.438 76.4221 221.706 76.4366 222.235 77.0886C223.781 79.02 226.103 80.6591 227.963 81.657C228.87 82.1445 229.301 82.3878 230.014 82.3991C230.892 82.418 231.576 81.9499 232.019 81.4548C232.648 80.7707 232.822 79.8759 232.482 79.2995C232.126 78.6948 227.988 76.424 227.865 75.5056C227.775 74.933 228.407 74.7946 228.407 74.7946C231.45 73.8498 234.615 71.9051 236.533 68.2673C238.417 64.6862 238.721 59.9068 235.274 57.2497C232.249 54.9158 227.678 55.2841 224.03 58.5251C220.462 61.6716 219.282 66.2494 219.764 70.2614C219.851 70.9569 219.815 71.1909 218.856 71.2702C213.372 71.7049 208.088 71.8558 202.211 72.1638C201.818 72.1921 201.693 71.935 201.922 71.6648C208.689 60.0237 218.794 51.7339 229.97 43.57C230.711 43.0201 230.484 41.9744 230.454 41.1013C250.633 45.4421 270.134 53.5213 291.069 53.3493C299.727 53.2794 308.015 51.9756 315.937 47.6726C322.904 43.91 325.732 40.4293 325.939 36.8122C326.102 34.312 324.346 32.7316 321.846 33.2702C300.693 38.0816 280.514 38.0285 259.47 35.5075C235.434 32.6188 212.369 26.6718 188.444 26.7468ZM230.667 60.4841C231.161 60.5103 231.624 60.6744 231.998 60.9919C233.113 61.9349 232.585 64.2877 231.459 65.9167C230.229 67.7139 228.142 69.2653 226.239 69.6433C225.858 69.7132 225.527 69.5508 225.37 68.7136C225.06 66.4969 225.788 63.5282 228.181 61.4363C228.93 60.7807 229.843 60.4405 230.667 60.4841ZM400.471 60.9089C396.625 60.9089 391.582 60.9157 387.573 60.9157C386.619 60.9157 386.126 61.0311 385.674 61.9099C384.196 64.7162 366.171 91.4629 362.814 96.6579C362.251 97.4478 361.56 97.3376 361.48 96.4362C361.14 93.3521 358.451 89.8071 354.212 88.11C350.98 86.8118 347.821 86.5776 344.538 87.0085C338.61 87.7965 333.329 90.896 328.684 94.3864C321.686 99.657 315.649 106.48 307.854 111.526C303.598 114.272 297.772 116.667 293.873 113.095C290.345 109.856 290.742 102.66 296.141 97.0964C296.71 96.5124 297.392 96.9997 297.284 97.5231C296.774 100.04 297.402 102.543 299.331 104.299C301.686 106.387 305.057 106.625 307.94 105.23C311.346 103.561 313.346 100.335 313.932 96.6725C314.833 90.9937 310.417 85.9843 304.895 85.5837C300.406 85.2719 296.104 86.8177 291.912 90.2458C289.809 91.9712 288.612 93.2485 286.796 95.8073C286.352 96.4385 285.672 96.5026 285.694 95.571C285.904 88.301 282.865 84.21 276.793 84.0759C272.084 83.9663 267.048 86.4942 263.125 89.5934C258.824 93.014 255.063 97.5458 251.032 101.805C250.531 102.331 250.093 102.306 249.953 101.288C249.83 96.4707 248.607 91.8047 246.355 88.4919C245.559 87.3391 243.882 86.768 242.473 87.5466C241.823 87.9 239.557 88.9304 237.911 90.2438C237.093 90.9109 236.777 91.8761 237.136 93.114C239.309 100.308 238.831 108.491 235.883 115.404C233.175 121.731 227.912 127.442 221.729 129.374C217.654 130.653 213.417 130.027 210.796 126.45C207.196 121.514 208.651 112.931 214.015 105.8C218.752 99.5264 225.599 95.5386 232.435 92.9704C233.24 92.6643 233.404 92.1548 233.177 91.4782C232.805 90.3632 232.214 88.8505 231.97 88.1569C231.344 86.5071 229.588 86.237 227.447 86.4694C222.483 87.042 218.006 88.7258 213.582 91.071C201.998 97.2128 196.192 109.1 193.645 115.461C192.42 118.513 191.372 120.422 190.017 122.111C188.191 124.384 185.899 126.452 181.707 130.097C181.329 130.432 181.046 131.129 181.363 131.775C181.792 132.654 183.971 135.7 184.587 135.972C185.269 136.305 186.06 135.841 186.378 135.614C189.311 133.647 192.82 130.526 194.538 128.41C195.139 127.686 195.76 127.991 196.079 129.091C197.682 134.752 201.878 139.374 207.682 141.307C218.302 144.854 229.32 139.721 237.635 130.784C242.919 125.105 244.826 121.452 246.852 118.968C250.283 114.756 257.056 105.334 265.12 99.2848C268.078 97.0549 271.58 95.3539 273.341 96.4821C274.753 97.3892 275.208 99.4959 272.94 103.578C264.72 118.445 252.617 135.912 250.398 140.151C249.994 140.886 250.347 141.463 251.124 141.463C255.427 141.444 259.694 141.453 263.601 141.453C264.249 141.423 264.542 141.13 264.867 140.674C271.177 130.895 277.117 121.582 283.481 111.958C283.841 111.391 284.167 111.83 284.181 112.078C284.313 114.31 284.866 117.366 286.204 119.373C288.612 123.08 292.021 124.673 295.805 124.698C298.813 124.732 300.334 124.279 303.579 123.079C305.849 122.235 307.997 121.093 309.967 119.684C310.917 119.032 311.083 120.125 311.059 120.294C309.6 128.059 311.403 137.257 319.196 141.073C328.524 145.627 338.771 139.227 344.667 133.45C345.243 132.892 345.865 132.951 345.924 134.149C346.049 136.356 347.054 138.974 348.898 140.807C353.838 145.717 363.809 143.772 373.815 136.101C380.241 131.193 386.962 124.256 393.034 116.911C393.259 116.627 393.427 116.168 392.992 115.707C392.066 114.749 390.729 113.652 389.813 112.807C389.395 112.456 388.78 112.556 388.427 112.823C382.204 118.683 376.603 125.368 368.503 130.895C365.772 132.781 361.422 134.304 359.466 131.685C358.704 130.669 358.792 129.26 359.542 127.414C361.906 121.582 399.284 65.2322 401.223 61.9138L401.227 61.9098C401.559 61.3315 401.208 60.9089 400.471 60.9089ZM348.097 96.1374C349.075 96.1289 349.992 96.3154 350.826 96.7126C355.43 98.8878 353.959 104.166 351.901 108.31C351.832 108.44 351.788 108.582 351.774 108.729C351.76 108.876 351.775 109.024 351.818 109.165C351.894 109.596 352.46 110.013 353.018 110.212C353.212 110.283 353.323 110.423 353.102 110.877C351.511 114.25 350.052 116.195 348.058 119.124C346.229 121.832 344.164 123.943 341.662 125.976C337.892 129.066 332.658 132.428 328.33 130.168C326.406 129.177 325.577 126.514 325.614 124.358C325.715 118.292 328.43 112.067 333.461 105.948C338.445 99.8737 343.856 96.1747 348.097 96.1374Z" fill="white"/>
</g>
<defs>
<clipPath id="clip0_28_1311">
<rect width="500" height="179.957" fill="white"/>
</clipPath>
</defs>
</svg>
