<svg width="500" height="135" viewBox="0 0 500 135" fill="none" xmlns="http://www.w3.org/2000/svg">
<g clip-path="url(#clip0_28_1301)">
<path d="M130.063 68.0757C129.235 66.409 127.03 65.0479 125.164 65.0479H121.373C119.511 65.0479 117.331 66.4246 116.526 68.1038L86.4633 130.91C85.6278 132.571 86.5358 133.761 88.4018 133.761H95.3491C98.0919 133.761 99.3486 132.514 100.091 130.986C100.835 129.458 102.492 126.135 102.809 125.458C103.238 124.541 104.559 123.979 106.422 123.981L138.768 123.998C140.632 124.001 141.83 124.356 142.382 125.458C142.742 126.175 144.394 129.163 145.207 130.794C146.027 132.424 147.403 133.761 150.075 133.761H160.155C162.019 133.761 162.836 132.346 162.165 131.032C161.49 129.715 130.062 68.0757 130.062 68.0757H130.063ZM111.07 114.281C109.208 114.281 108.331 112.893 109.114 111.208L120.96 85.8292C121.749 84.1387 123.024 84.1506 123.793 85.8404L135.326 111.219C136.095 112.912 135.201 114.298 133.341 114.298L111.07 114.281ZM362.361 68.5613V130.869C362.361 132.585 363.885 133.761 365.751 133.761H373.966C375.828 133.761 377.353 132.571 377.353 130.707V68.4356C377.353 66.5696 376.15 65.0498 374.287 65.0498H365.751C363.885 65.0479 362.361 66.1947 362.361 68.5613ZM224.694 107.589C223.624 106.064 224.212 104.379 225.994 103.847C225.994 103.847 233.092 101.722 236.49 98.6757C239.89 95.6199 241.598 91.2091 241.598 85.4598C241.598 81.7003 240.941 78.54 239.632 75.9685C238.324 73.4038 236.447 71.3047 234.006 69.6986C231.565 68.0838 228.642 66.899 225.238 66.1572C221.831 65.4185 217.233 65.2029 217.233 65.2029C214.978 65.109 212.721 65.0576 210.463 65.0486H176.347C174.486 65.0486 172.962 66.5684 172.962 68.4344V130.708C172.962 132.573 174.485 133.762 176.347 133.762H184.421C186.284 133.762 187.808 132.572 187.808 130.708C187.808 130.708 187.814 105.939 187.829 105.939C187.842 105.939 187.851 105.925 187.851 105.908C187.851 105.887 203.155 105.87 203.155 105.87C205.016 105.87 207.42 107.115 208.497 108.64L224.385 131.01C225.861 132.991 227.265 133.761 229.128 133.761H239.681C241.545 133.761 241.837 132.004 241.192 131.091C240.553 130.184 224.694 107.589 224.694 107.589ZM218.27 94.9412C216.179 95.4224 213.826 95.5186 213.826 95.5186C211.571 95.6087 209.314 95.6579 207.056 95.6661H191.242C189.378 95.6661 187.854 94.1407 187.854 92.2784V79.6612C187.854 77.7976 189.378 76.2741 191.241 76.2741H207.056C208.92 76.2741 211.964 76.3409 213.825 76.4191C213.825 76.4191 216.179 76.5115 218.269 76.9946C220.36 77.4771 222.019 78.1501 223.232 79.0187C224.45 79.8936 225.32 80.9191 225.846 82.099C226.365 83.2789 226.63 84.5624 226.63 85.9654C226.63 87.3609 226.365 88.6532 225.846 89.8306C225.32 91.0104 224.451 92.0353 223.232 92.9102C222.019 93.7851 220.36 94.4669 218.27 94.9412ZM463.225 65.0479C461.363 65.0479 459.856 66.2753 459.856 68.0707L459.877 107.903C459.877 109.771 458.822 110.194 457.529 108.853L417.645 67.4826C416.35 66.1409 414.455 65.0479 411.902 65.0479H404.401C402.043 65.0479 401.01 66.3065 401.01 67.5814V131.278C401.01 132.549 402.221 133.762 404.087 133.762H411.6C413.458 133.762 414.762 132.749 414.762 131.032C414.762 130.172 414.801 89.07 414.801 89.07C414.801 87.2078 415.854 86.7828 417.143 88.1276L458.731 131.362C460.053 132.684 461.657 133.762 464.512 133.762H470.155C472.021 133.762 473.545 132.239 473.545 130.374V68.4369C473.545 66.5709 472.021 65.0511 470.156 65.0511H463.225V65.0479ZM300.611 103.888C299.707 105.516 298.218 105.511 297.326 103.879L277.83 68.0757C277.002 66.414 275.302 65.0479 272.933 65.0479H262.359C260.495 65.0479 258.968 66.5677 258.968 68.4338V130.628C258.968 132.488 260.192 133.761 262.359 133.761H268.932C270.797 133.761 272.142 132.585 272.142 130.788C272.142 129.927 272.169 85.5536 272.24 85.5536C272.312 85.5536 296.574 130.776 296.574 130.776C297.452 132.417 299.608 132.424 300.504 130.789C300.504 130.789 324.965 85.6823 325.037 85.6823C325.113 85.6823 325.086 129.492 325.086 130.787C325.086 132.586 326.522 133.76 328.388 133.76H335.958C337.824 133.76 339.344 132.832 339.344 130.373V68.435C339.343 67.5375 338.985 66.6772 338.351 66.0425C337.716 65.4079 336.856 65.0507 335.958 65.0492H325.822C323.235 65.0492 321.679 66.3684 320.754 67.9882L300.611 103.888H300.611ZM0.03125 99.3438C0.03125 132.898 34.3521 134.6 41.2332 134.6C64.0085 134.6 73.633 128.445 74.0323 128.18C75.4565 127.374 77.1913 125.748 77.1913 122.703V99.5425C77.1898 98.516 76.7813 97.532 76.0553 96.8062C75.3293 96.0805 74.3452 95.6723 73.3186 95.6711H44.7059C42.5667 95.6711 41.1625 97.409 41.1625 99.5425V101.941C41.1625 104.078 42.5667 105.821 44.7059 105.821H61.2551C62.0229 105.821 62.7593 106.126 63.3024 106.669C63.8455 107.212 64.151 107.948 64.1516 108.716C64.1516 108.716 64.136 118.868 64.136 119.511C60.8664 120.846 45.9745 125.196 34.0096 122.343C16.6524 118.191 15.2994 103.871 15.2994 99.5819C15.2994 95.9817 16.3793 77.947 37.6961 76.1228C54.9502 74.6461 66.3139 81.6122 66.4264 81.6809C68.4542 82.732 70.5534 81.9828 71.6845 79.8355C71.6895 79.8186 73.8373 75.4735 73.8373 75.4735C74.731 73.6856 74.4298 71.8315 72.2482 70.3517C72.1025 70.2685 60.0065 63.71 41.2375 63.71C1.18549 63.7118 0.03125 95.6967 0.03125 99.3438ZM484.307 125.207H481.358V124.143H488.535V125.207H485.573V133.833H484.307L484.307 125.207ZM498.499 129.578C498.427 128.226 498.34 126.587 498.34 125.394H498.311C497.936 126.631 497.529 127.859 497.09 129.075L495.378 133.775H494.429L492.847 129.162C492.387 127.782 492.016 126.544 491.741 125.394H491.711C491.67 126.823 491.608 128.252 491.524 129.679L491.266 133.832H490.073L490.749 124.142H492.346L494 128.829C494.365 129.905 494.69 130.994 494.976 132.093H495.006C495.263 131.116 495.61 130.052 496.041 128.829L497.767 124.142H499.363L499.97 133.832H498.731L498.499 129.578Z" fill="black"/>
<path d="M459.434 47.8767L414.489 47.8749C412.842 47.8749 411.427 47.0549 410.604 45.6289C409.781 44.2022 409.781 42.5699 410.606 41.1432L433.08 2.24098C433.902 0.816151 435.315 0 436.964 0C438.61 0 440.024 0.816151 440.847 2.24098L463.317 41.145C464.144 42.5717 464.144 44.2053 463.319 45.632C462.496 47.0568 461.081 47.8767 459.434 47.8767Z" fill="#007CC2"/>
</g>
<defs>
<clipPath id="clip0_28_1301">
<rect width="500" height="134.6" fill="white"/>
</clipPath>
</defs>
</svg>
