<svg width="500" height="408" viewBox="0 0 500 408" fill="none" xmlns="http://www.w3.org/2000/svg">
<g clip-path="url(#clip0_28_1299)">
<path d="M57.6208 90.9258L45.7266 113.481H68.1054L68.2816 294.891H45.7266L58.7662 317.534H440.793L453.568 294.891H431.013L431.189 113.481H453.568L440.969 90.9258H57.6208Z" fill="white"/>
<path d="M431.013 294.89H453.568L490.308 231.189C500.793 212.775 502.907 197.357 491.454 178.061L453.48 113.568H431.101C431.013 113.48 431.013 294.89 431.013 294.89ZM440.793 317.533L401.586 385.55C393.392 398.414 378.326 406.608 363.083 406.96H136.299C122.026 406.96 106.784 399.559 98.5901 387.224L58.7663 317.445H440.793V317.533ZM440.969 90.9249L399.824 20.2641C391.63 7.40067 377.621 0.0878906 362.819 0.0878906H135.594C119.295 0.0878906 105.462 8.01741 96.2994 23.8764L57.5328 90.8368H440.969V90.9249ZM68.2817 294.89H45.7267L8.98658 231.189C-1.5861 212.775 -3.70064 197.268 7.7531 177.973L45.7267 113.48H68.1055C68.2817 113.48 68.2817 294.89 68.2817 294.89Z" fill="black"/>
<path fill-rule="evenodd" clip-rule="evenodd" d="M297.621 149.34C297.621 122.732 280.088 113.745 245.551 113.745H210.749V296.124H243.965V226.168H257.797C283.524 226.168 297.621 213.833 297.621 188.723V149.34ZM243.965 135.507H249.956C261.233 135.507 264.405 140.353 264.405 152.952V196.212C264.405 204.406 253.744 204.406 244.053 204.406V135.507H243.965ZM397.357 180.353V140.882C397.357 117.093 374.449 110.133 353.744 110.133C333.392 110.133 310.485 117.093 310.485 140.882V268.987C310.485 292.776 333.392 299.736 353.744 299.736C374.449 299.736 397.357 292.776 397.357 268.987V227.225H364.141V266.697C364.141 275.948 360.705 277.974 354.097 277.974C347.225 277.974 343.788 275.948 343.788 266.697V143.172C343.788 133.921 347.225 131.895 354.097 131.895C360.705 131.895 364.141 133.921 364.141 143.172V180.353H397.357ZM194.009 205.199H147.665V226.961H160.793L160.881 266.697C160.881 275.948 157.445 277.974 150.837 277.974C143.965 277.974 140.529 275.948 140.529 266.697V143.172C140.529 133.921 143.965 131.895 150.837 131.895C157.445 131.895 160.881 133.921 160.881 143.172V180.353H194.097V140.882C194.097 117.093 171.189 110.133 150.485 110.133C130.132 110.133 107.225 117.093 107.225 140.882V268.987C107.225 292.776 130.132 299.736 150.485 299.736C171.189 299.736 194.097 292.776 194.097 268.987L194.009 205.199Z" fill="black"/>
<path fill-rule="evenodd" clip-rule="evenodd" d="M466.96 390.924C466.96 381.585 474.537 374.713 483.524 374.713C492.423 374.713 500 381.585 500 390.924C500 400.352 492.423 407.224 483.524 407.224C474.537 407.136 466.96 400.264 466.96 390.924ZM483.524 404.493C490.925 404.493 496.74 398.766 496.74 390.924C496.74 383.259 490.925 377.444 483.524 377.444C476.035 377.444 470.22 383.259 470.22 390.924C470.22 398.678 476.035 404.493 483.524 404.493ZM480.088 400.264H477.268V381.585H484.405C488.81 381.585 491.013 383.259 491.013 386.871C491.013 390.22 488.898 391.717 486.167 391.982L491.541 400.264H488.37L483.436 392.158H480.176V400.264H480.088ZM483.436 389.779C485.815 389.779 488.017 389.603 488.017 386.695C488.017 384.405 485.903 383.964 483.964 383.964H480.088V389.779H483.436Z" fill="#1C3A8E"/>
</g>
<defs>
<clipPath id="clip0_28_1299">
<rect width="500" height="407.137" fill="white"/>
</clipPath>
</defs>
</svg>
