<svg width="500" height="216" viewBox="0 0 500 216" fill="none" xmlns="http://www.w3.org/2000/svg">
<g clip-path="url(#clip0_28_1297)">
<path d="M46.2639 7.64864H437.068V144.143H46.2639V7.64864ZM39.4248 151.039H444.021V0.809479H39.4248V151.039Z" fill="#231F20"/>
<path d="M147.701 40.0615V111.613L153.333 112.36V116.556H125.574V112.36L131.551 111.613V79.027H96.0343V111.613L101.494 112.36V116.556H74.1953V112.36L79.6551 111.613V40.0615L74.1953 39.3144V35.234H101.494V39.3144L96.0343 40.0615V70.6362H131.551V40.0615L125.574 39.3144V35.234H153.333V39.3144L147.701 40.0615Z" fill="#231F20"/>
<path d="M185.573 112.13L190.803 112.877V116.556H165.286V112.877L170.516 112.13V63.1075L165.286 62.3604V58.6823H185.573V112.13Z" fill="#231F20"/>
<path d="M201.896 112.993L207.01 112.303V39.602L201.896 38.855V35.2916H222.183V112.303L227.413 112.993V116.613H201.896V112.993Z" fill="#231F20"/>
<path d="M258.447 58.6831H272.125V64.0853H258.447V98.5105C258.447 107.418 260.286 110.235 268.389 110.235C271.378 110.235 274.022 110.235 276.493 109.602V113.568C269.137 116.154 262.93 117.246 257.7 117.246C245.976 117.246 243.275 111.959 243.275 101.844V64.0853H232.585V58.6831H243.677V46.6141L258.504 42.1888V58.6831" fill="#231F20"/>
<path d="M340.803 88.1653C340.803 106.211 328.619 118.28 309.424 118.28C290.861 118.28 279.021 110.407 279.021 88.1653C279.021 69.5447 291.205 57.0735 310.401 57.0735C329.366 57.0735 340.803 68.3378 340.803 88.1653ZM324.136 87.8206C324.136 69.5448 318.677 61.5563 309.826 61.5563C301.205 61.5563 295.746 69.1999 295.746 87.8206C295.746 106.211 301.205 113.855 309.826 113.855C319.021 113.855 324.136 106.556 324.136 87.8206Z" fill="#231F20"/>
<path d="M410.114 112.877V116.556H384.597V112.877L389.711 112.13V79.1994C389.711 70.0615 386.321 65.9811 379.367 65.9811C376.148 65.9811 371.033 68.2224 367.298 70.8086V112.13L372.528 112.877V116.556H346.896V112.877L352.125 112.13V63.5098L346.896 62.7626V58.6823H367.298V66.7282C373.62 61.6708 379.769 57.5902 388.332 57.5902C399.769 57.5902 404.884 64.257 404.884 77.3604V112.188L410.114 112.877Z" fill="#231F20"/>
<path d="M186.321 43.3958C186.321 47.8785 182.642 51.5566 178.102 51.5566C173.562 51.5566 169.884 47.936 169.884 43.3958C169.884 38.913 173.562 35.2349 178.102 35.2349C182.642 35.2349 186.321 38.913 186.321 43.3958Z" fill="#231F20"/>
<path d="M454.251 5.23417H455.458C456.263 5.23417 456.55 5.0042 456.55 4.42949C456.55 3.85478 456.263 3.62495 455.458 3.62495H454.251V5.23417ZM457.585 4.3721C457.585 5.1767 457.24 5.63638 456.55 5.86627L457.814 7.70532H456.665L455.516 6.03871H454.251V7.70532H453.274V2.76288H455.458C456.952 2.76288 457.585 3.28015 457.585 4.3721ZM451.263 5.29156C451.263 7.53293 453.102 9.42945 455.401 9.42945C457.642 9.42945 459.539 7.5904 459.539 5.29156C459.539 3.05018 457.699 1.15366 455.401 1.15366C453.102 1.15366 451.263 2.99271 451.263 5.29156ZM460.573 5.29156C460.573 8.16511 458.217 10.5215 455.343 10.5215C452.47 10.5215 450.113 8.16511 450.113 5.29156C450.113 2.418 452.47 0.0617685 455.343 0.0617685C458.274 0.0617685 460.573 2.36053 460.573 5.29156Z" fill="#231F20"/>
<path d="M54.1946 214.832H48.0452C47.3556 214.832 47.0107 214.487 47.0107 213.798V180.349C47.0107 179.66 47.3556 179.315 48.0452 179.315H70.2291C70.9187 179.315 71.2636 179.66 71.2636 180.349V185.752C71.2636 186.441 70.9187 186.786 70.2291 186.786H55.2291V195.349H66.5509C67.2406 195.349 67.5854 195.694 67.5854 196.384V201.384C67.5854 202.073 67.2406 202.418 66.5509 202.418H55.2291V213.97C55.2291 214.545 54.8843 214.832 54.1946 214.832Z" fill="#231F20"/>
<path d="M100.632 206.269C102.184 205.349 103.39 204.085 104.31 202.476C105.23 200.866 105.689 199.085 105.689 197.131C105.689 195.177 105.23 193.395 104.31 191.786C103.39 190.177 102.126 188.912 100.574 187.993C99.0226 187.073 97.356 186.613 95.5744 186.613C93.7927 186.613 92.0686 187.073 90.5744 187.993C89.0226 188.912 87.8157 190.177 86.8962 191.786C85.9767 193.395 85.5169 195.177 85.5169 197.131C85.5169 199.085 85.9767 200.866 86.8962 202.476C87.8157 204.085 89.0801 205.349 90.6318 206.269C92.1836 207.188 93.8502 207.648 95.6318 207.648C97.4134 207.648 99.0801 207.188 100.632 206.269ZM86.264 213.05C83.4479 211.384 81.2066 209.2 79.5974 206.384C77.9882 203.567 77.1836 200.464 77.1836 197.073C77.1836 193.682 77.9882 190.637 79.5974 187.82C81.2066 185.004 83.4479 182.82 86.264 181.154C89.0801 179.545 92.1836 178.74 95.6318 178.74C99.0226 178.74 102.126 179.545 104.942 181.154C107.758 182.763 110 185.004 111.609 187.82C113.218 190.637 114.023 193.74 114.023 197.073C114.023 200.464 113.218 203.51 111.609 206.384C110 209.2 107.758 211.441 104.942 213.05C102.126 214.717 99.0226 215.521 95.6318 215.521C92.1836 215.464 89.0801 214.659 86.264 213.05Z" fill="#231F20"/>
<path d="M139.137 195.579C139.884 195.119 140.459 194.544 140.861 193.797C141.263 193.05 141.493 192.245 141.493 191.326C141.493 190.349 141.263 189.487 140.861 188.74C140.459 188.05 139.884 187.475 139.137 187.131C138.447 186.786 137.643 186.613 136.723 186.613H130.516V196.211H136.608C137.528 196.211 138.39 196.039 139.137 195.579ZM122.355 213.855V180.406C122.355 179.717 122.7 179.372 123.39 179.372H137.413C139.827 179.372 142.011 179.889 143.85 180.866C145.746 181.901 147.183 183.28 148.217 185.062C149.252 186.843 149.769 188.912 149.769 191.268C149.769 193.567 149.309 195.521 148.332 197.13C147.355 198.74 146.034 200.062 144.252 201.096L150.459 213.625C150.574 213.855 150.631 214.027 150.631 214.142C150.631 214.372 150.574 214.487 150.401 214.602C150.229 214.717 149.999 214.774 149.769 214.774H142.7C142.126 214.774 141.723 214.544 141.493 214.027L136.436 203.165H130.516V213.74C130.516 214.429 130.172 214.774 129.482 214.774H123.332C122.643 214.832 122.355 214.544 122.355 213.855Z" fill="#231F20"/>
<path d="M191.838 214.832H185.689C184.999 214.832 184.655 214.487 184.655 213.798V186.959H175.804C175.114 186.959 174.77 186.614 174.77 185.924V180.292C174.77 179.602 175.114 179.257 175.804 179.257H201.723C202.413 179.257 202.758 179.602 202.758 180.292V185.924C202.758 186.614 202.413 186.959 201.723 186.959H192.815V213.798C192.873 214.545 192.528 214.832 191.838 214.832Z" fill="#231F20"/>
<path d="M219.424 214.832H213.275C212.585 214.832 212.24 214.487 212.24 213.798V180.349C212.24 179.66 212.585 179.315 213.275 179.315H219.424C220.114 179.315 220.459 179.66 220.459 180.349V192.418H234.884V180.349C234.884 179.66 235.229 179.315 235.918 179.315H242.125C242.815 179.315 243.16 179.66 243.16 180.349V213.798C243.16 214.487 242.815 214.832 242.125 214.832H235.918C235.229 214.832 234.884 214.487 234.884 213.798V200.234H220.459V213.798C220.401 214.545 220.114 214.832 219.424 214.832Z" fill="#231F20"/>
<path d="M280.344 214.832H256.378C255.689 214.832 255.344 214.487 255.344 213.798V180.349C255.344 179.66 255.689 179.315 256.378 179.315H279.999C280.689 179.315 281.033 179.66 281.033 180.349V185.809C281.033 186.499 280.689 186.844 279.999 186.844H263.562V193.223H276.206C276.895 193.223 277.24 193.568 277.24 194.257V199.257C277.24 199.947 276.895 200.292 276.206 200.292H263.562V207.476H280.344C281.033 207.476 281.378 207.821 281.378 208.51V213.97C281.321 214.545 280.976 214.832 280.344 214.832Z" fill="#231F20"/>
<path d="M313.332 213.912C310.976 212.878 308.907 211.383 307.125 209.429C306.895 209.2 306.838 208.97 306.838 208.74C306.838 208.51 306.953 208.223 307.24 207.993L311.148 204.257C311.378 204.027 311.608 203.912 311.838 203.912C312.125 203.912 312.355 204.027 312.585 204.314C313.734 205.464 314.999 206.383 316.436 206.958C317.872 207.533 319.367 207.878 320.861 207.878C322.47 207.878 323.734 207.59 324.596 206.958C325.459 206.383 325.918 205.521 325.918 204.487C325.918 203.797 325.746 203.165 325.344 202.705C324.941 202.188 324.252 201.728 323.275 201.326C322.298 200.866 320.918 200.406 319.137 199.889C316.206 199.027 313.677 197.763 311.493 196.039C309.367 194.314 308.275 191.958 308.275 188.855C308.275 187.016 308.734 185.349 309.711 183.797C310.631 182.246 312.068 181.039 313.964 180.119C315.861 179.2 318.16 178.74 320.861 178.74C323.16 178.74 325.344 179.142 327.47 179.947C329.539 180.751 331.436 181.843 333.102 183.28C333.332 183.51 333.504 183.74 333.504 183.97C333.504 184.2 333.39 184.429 333.217 184.659L329.654 188.682C329.424 188.97 329.194 189.085 328.907 189.085C328.677 189.085 328.447 188.97 328.217 188.797C327.24 188.05 326.148 187.418 324.884 186.901C323.619 186.383 322.413 186.154 321.206 186.154C319.826 186.154 318.734 186.383 317.987 186.843C317.183 187.303 316.838 187.993 316.838 188.855C316.838 189.544 317.068 190.119 317.528 190.636C317.987 191.096 318.562 191.498 319.309 191.843C320.056 192.188 321.206 192.59 322.7 193.05C322.757 193.05 322.987 193.108 323.332 193.28C325.746 194.085 327.757 194.947 329.367 195.866C330.976 196.786 332.183 197.935 333.102 199.314C334.022 200.694 334.424 202.36 334.424 204.314C334.424 206.556 333.849 208.51 332.757 210.176C331.665 211.843 330.114 213.165 328.16 214.085C326.148 215.004 323.907 215.464 321.263 215.464C318.275 215.464 315.688 214.947 313.332 213.912Z" fill="#231F20"/>
<path d="M357.642 214.832H351.493C350.803 214.832 350.458 214.487 350.458 213.798V186.959H341.608C340.918 186.959 340.573 186.614 340.573 185.924V180.292C340.573 179.602 340.918 179.257 341.608 179.257H367.527C368.217 179.257 368.562 179.602 368.562 180.292V185.924C368.562 186.614 368.217 186.959 367.527 186.959H358.619V213.798C358.677 214.545 358.332 214.832 357.642 214.832Z" fill="#231F20"/>
<path d="M392.24 201.901L388.217 190.522L387.814 189.085L387.47 190.522L383.447 201.901H392.24ZM404.768 214.142C404.768 214.372 404.711 214.545 404.538 214.66C404.366 214.775 404.194 214.832 403.906 214.832H397.584C397.01 214.832 396.607 214.545 396.435 213.97L394.538 208.74H381.033L379.194 213.97C379.021 214.545 378.619 214.832 378.044 214.832H371.722C371.435 214.832 371.263 214.775 371.09 214.66C370.918 214.545 370.86 214.372 370.86 214.142C370.86 214.027 370.86 213.855 370.918 213.74L383.964 180.177C384.194 179.66 384.538 179.372 385.113 179.372H390.573C391.148 179.372 391.55 179.66 391.78 180.177L404.711 213.74C404.768 213.855 404.768 213.97 404.768 214.142Z" fill="#231F20"/>
<path d="M424.827 214.832H418.62C417.93 214.832 417.585 214.487 417.585 213.798V200.981L405.919 180.522C405.804 180.292 405.746 180.119 405.746 179.947C405.746 179.717 405.804 179.602 405.976 179.487C406.148 179.372 406.321 179.315 406.608 179.315H413.907C414.482 179.315 414.884 179.545 415.114 180.062L421.781 193.338L428.275 180.062C428.505 179.545 428.907 179.315 429.482 179.315H436.781C437.068 179.315 437.24 179.372 437.413 179.487C437.585 179.602 437.643 179.775 437.643 179.947C437.643 180.119 437.585 180.292 437.47 180.522L425.861 200.924V213.798C425.861 214.545 425.516 214.832 424.827 214.832Z" fill="#231F20"/>
<path d="M441.42 177.953V177.795H442.526V177.953H442.063V179.27H441.884V177.953H441.42Z" fill="black"/>
<path d="M446.934 177.795H447.148L447.649 179.019H447.666L448.167 177.795H448.381V179.27H448.213V178.149H448.199L447.738 179.27H447.577L447.116 178.149H447.102V179.27H446.934V177.795Z" fill="black"/>
</g>
<defs>
<clipPath id="clip0_28_1297">
<rect width="500" height="215.517" fill="white"/>
</clipPath>
</defs>
</svg>
