<svg width="500" height="122" viewBox="0 0 500 122" fill="none" xmlns="http://www.w3.org/2000/svg">
<g clip-path="url(#clip0_28_1295)">
<path d="M55.5772 7.96357C56.1574 4.90103 57.7371 1.96744 60.2193 0.0332031C59.6391 2.96679 59.9614 5.9971 60.6062 8.89845C61.67 12.7992 63.6042 16.4097 65.8609 19.6979C66.828 21.1164 67.8918 22.4703 68.7944 23.8888C71.2767 27.5961 72.6629 32.0126 72.5662 36.4613C72.7274 41.3291 70.7287 46.2292 67.2793 49.6786C67.7951 45.5522 67.8273 41.2647 66.699 37.235C65.6674 33.3343 63.4431 29.9171 61.0897 26.6934C59.0588 23.9855 57.3825 21.0197 56.3831 17.7959C55.4482 14.6367 54.9324 11.2518 55.5772 7.96357Z" fill="#B79859"/>
<path d="M73.5653 11.542C75.016 7.5446 78.143 3.9985 82.2371 2.64453C81.2055 4.22416 80.5608 6.06168 80.0772 7.86697C79.6259 9.51107 79.3035 11.1874 79.2713 12.896C79.1746 15.7651 79.497 18.6665 80.1095 21.5033C80.722 24.4692 81.7858 27.306 82.1082 30.3363C82.5917 34.0759 81.947 37.9121 80.5286 41.3937C78.82 45.8425 75.2739 49.5175 70.9863 51.6129C72.985 47.7767 74.5969 43.6826 74.9515 39.3628C75.3384 35.1075 74.2745 30.9166 73.1462 26.8547C71.7923 21.8579 71.8245 16.4421 73.5653 11.542Z" fill="#B79859"/>
<path d="M38.0404 16.9572C36.4286 13.0565 36.3641 8.38208 38.5885 4.70703C38.8786 6.64127 39.6845 8.44655 40.5227 10.1551C41.103 11.2512 41.7155 12.315 42.4247 13.3144C45.4228 17.2473 49.2912 20.3421 53.3854 23.0178C55.7387 24.5974 57.9308 26.3705 59.7039 28.5626C61.6381 30.9159 62.9921 33.6883 63.927 36.5897C65.023 40.168 64.8941 44.101 63.7013 47.6471C63.5401 48.1306 63.3789 48.6142 63.121 49.0655C61.896 44.0687 59.8328 39.1687 56.2867 35.3969C54.4492 33.366 52.2248 31.7219 50.0005 30.1422C47.5504 28.5304 45.1326 26.8218 43.1017 24.6619C41.0063 22.4053 39.201 19.7941 38.0404 16.9572Z" fill="#B79859"/>
<path d="M94.036 14.7653C96.3894 13.1857 99.1618 12.2185 101.999 12.2508C99.7743 13.8949 98.1302 16.216 96.6795 18.5693C95.0031 21.5029 94.036 24.8233 93.3913 28.1115C92.6821 31.5609 92.7465 35.107 91.8117 38.4919C91.0702 41.2643 89.7807 43.9078 88.0077 46.1966C86.3636 48.3243 84.4616 50.2908 82.1405 51.677C79.5937 53.2243 76.7246 54.2559 73.7588 54.6105C76.3055 52.2895 78.6911 49.775 80.5286 46.8414C82.0438 44.4558 83.1398 41.7801 83.7201 39.0077C84.2359 36.7189 84.4938 34.3655 84.7195 32.0122C85.1063 28.2405 86.2668 24.5332 88.1688 21.2772C89.6518 18.7305 91.586 16.3772 94.036 14.7653Z" fill="#B79859"/>
<path d="M19.9548 16.3447C19.987 16.3125 20.0192 16.3125 20.0515 16.3125C21.0186 17.9244 22.3081 19.2783 23.662 20.5678C24.5969 21.406 25.5318 22.2119 26.5634 22.9211C30.5608 25.5001 35.074 27.1765 39.6517 28.337C42.8755 29.1107 46.0347 30.2068 48.8393 31.9798C51.0315 33.366 52.9657 35.1068 54.6098 37.1055C57.6079 40.5872 59.252 45.2616 58.9941 49.8393C56.3506 46.0675 53.1914 42.5536 49.194 40.1036C46.1959 38.2338 42.7787 37.17 39.3938 36.2029C36.0734 35.4292 32.7529 34.3331 29.8194 32.5601C26.37 30.4969 23.114 27.789 21.2442 24.1462C20.0515 21.7606 19.4712 18.9882 19.9548 16.3447Z" fill="#B79859"/>
<path fill-rule="evenodd" clip-rule="evenodd" d="M349.71 22.4388C358.35 21.8585 366.989 21.6328 375.629 21.5684C388.492 21.6651 401.451 22.1486 414.088 24.7598C419.117 25.8237 424.082 27.2421 428.724 29.4665C432.431 31.2718 435.977 33.6251 438.621 36.8811C441.393 40.2337 442.908 44.4891 443.198 48.8088C443.617 53.3221 442.811 57.803 441.941 62.1873C440.426 69.215 437.782 76.0816 433.721 82.0455C431.174 85.7528 428.015 89.0732 424.275 91.5555C419.182 95.0049 412.96 96.6812 406.835 96.5845C404.191 96.3911 401.935 94.8114 400 93.1028C396.487 89.7824 393.779 85.6883 391.748 81.3362C390.748 78.9829 389.781 76.5007 390.039 73.9217C390.297 70.6012 391.941 67.5709 394.069 65.0564C397.002 61.6393 400.774 59.0281 404.771 56.9971C409.446 54.6438 414.507 53.0642 419.73 52.5161C421.922 52.2905 424.178 52.2582 426.37 52.5161C426.435 50.1306 425.822 47.7128 424.533 45.6496C423.082 43.264 420.922 41.4265 418.569 39.9436C414.894 37.6548 410.768 36.1718 406.641 34.9791C401.129 33.4639 395.487 32.529 389.846 31.8198C378.208 30.4014 366.506 29.9823 354.804 29.95C352.708 29.8533 350.613 30.0145 348.517 29.95C339.459 30.079 330.432 30.4336 321.406 31.0461C313.54 31.5619 305.674 32.2711 297.873 33.3027C294.262 33.8185 290.619 34.3021 287.105 35.3337C285.107 35.9139 283.076 36.4942 281.109 37.2034C279.111 37.9127 276.951 38.2995 274.855 38.0416C274.372 37.9449 273.791 37.7837 273.63 37.2679C273.534 36.7843 273.695 36.1718 274.178 35.9462C274.823 35.656 275.532 35.4626 276.209 35.237C283.817 32.7547 291.619 30.756 299.452 29.1119C316.022 25.6303 332.85 23.5348 349.71 22.4388ZM407.834 61.2202C407.157 61.4136 406.641 62.0261 406.545 62.7031C406.287 63.9281 406.158 65.2176 406.029 66.4749C405.739 70.2144 405.61 74.0184 406.287 77.7257C406.512 78.7895 406.77 79.9823 407.641 80.7237C408.704 81.304 409.865 81.6586 410.993 82.1099C414.443 83.2705 417.957 84.2054 421.567 84.6889C422.502 84.7534 423.501 84.9791 424.372 84.5277C425.049 84.1409 425.242 83.3027 425.274 82.5613C425.5 79.5954 425.629 76.5974 425.629 73.5671C425.629 71.1493 425.597 68.6992 425.242 66.2814C424.759 65.1531 423.566 64.5729 422.47 64.186C418.698 62.7998 414.701 61.9617 410.703 61.3491C409.768 61.2847 408.801 60.9945 407.834 61.2202Z" fill="#B79859"/>
<path d="M211.735 24.3715C220.439 23.9846 229.175 24.5004 237.718 26.0156C241.49 26.6925 245.197 27.5629 248.808 28.7235C251.741 29.6584 254.61 30.7867 257.254 32.3341C258.285 32.9788 259.285 33.6558 260.123 34.5584C260.51 35.0098 260.864 35.6545 260.542 36.2348C260.123 37.0729 259.317 37.621 258.576 38.2012C253.256 42.2309 247.357 45.3579 241.296 48.1303C240.49 48.4527 239.491 48.4849 238.782 47.9369C238.427 47.7112 238.298 47.1632 238.556 46.8086C239.33 45.8415 240.168 44.8421 240.394 43.5849C240.555 42.6822 239.846 42.0375 239.362 41.3927C237.46 39.2973 234.913 37.8789 232.334 36.7506C228.917 35.2677 225.242 34.3328 221.599 33.6558C217.118 32.8499 212.605 32.4308 208.092 32.2373C203.16 32.0117 198.227 32.0762 193.295 32.592C189.072 33.0433 184.849 33.7525 180.819 35.0742C178.595 35.8157 176.371 36.7183 174.436 38.0723C173.211 38.9749 172.019 40.1355 171.664 41.6829C171.406 42.7789 171.793 43.9072 172.534 44.7132C173.792 46.1638 175.532 47.0343 177.241 47.808C181.238 49.4843 185.461 50.4514 189.685 51.3218C197.357 52.837 205.158 53.7396 212.96 54.5133C221.567 55.3192 230.175 55.835 238.75 56.8344C243.037 57.3824 247.325 57.9949 251.451 59.2522C254.191 60.1226 257.028 61.2831 259.027 63.443C260.961 65.5062 261.606 68.7622 260.413 71.3734C259.22 74.0813 257.125 76.2735 254.933 78.2399C250.613 82.0439 245.681 85.042 240.619 87.6532C234.365 90.8447 227.821 93.4559 221.116 95.4224C212.637 97.9369 203.869 99.5165 195.004 99.6132C190.974 99.581 186.944 99.3231 182.915 98.8718C175.113 98.0014 167.441 96.2606 159.962 93.9395C156.803 93.0046 153.676 91.9408 150.484 91.0704C148.26 90.5223 145.906 89.9743 143.585 90.4579C141.522 90.9736 140.007 92.5855 138.621 94.1007C138.105 94.6487 137.718 95.3579 137.009 95.6803C136.396 95.9059 135.687 96.0349 135.107 95.7125C134.784 95.5191 134.849 95.1322 135.01 94.8744C136.783 90.9736 139.201 87.3631 141.941 84.0104C145.036 80.2386 148.55 76.8215 152.386 73.7912C153.901 72.6629 155.384 71.5023 157.093 70.6964C157.866 70.3096 158.672 70.9221 159.188 71.4379C160.478 72.7596 161.541 74.307 162.766 75.6932C165.732 79.1748 169.472 81.9795 173.566 83.9782C180.465 87.3308 188.105 88.6848 195.681 89.2328C204.288 89.7809 212.992 89.4585 221.438 87.6532C225.017 86.8795 228.53 85.8479 231.851 84.3328C234.172 83.2689 236.396 81.9795 238.266 80.2064C239.04 79.4005 239.813 78.4978 240.136 77.4018C240.523 76.0478 240.233 74.5326 239.362 73.4688C238.395 72.276 237.041 71.5023 235.655 70.8898C232.56 69.5036 229.175 68.7944 225.855 68.1497C217.86 66.699 209.736 66.0542 201.645 65.5384C192.683 65.0226 183.688 64.3779 174.823 62.9917C169.826 62.1858 164.797 61.1864 160.026 59.4456C157.415 58.4462 154.772 57.189 152.773 55.1903C151.322 53.7074 150.452 51.5797 150.645 49.5165C150.839 47.4211 151.967 45.5836 153.289 44.0362C155.481 41.5217 158.221 39.5874 161.058 37.9111C165.507 35.2677 170.245 33.2367 175.113 31.4637C182.979 28.6912 191.135 26.5958 199.42 25.4998C203.514 24.9517 207.641 24.5649 211.735 24.3715Z" fill="#B79859"/>
<path d="M104.417 29.2072C108.189 27.0795 112.895 26.2414 117.054 27.692C114.12 28.6591 111.509 30.4644 109.156 32.4309C106.802 34.623 104.836 37.2343 103.16 39.9744C101.902 42.0698 100.903 44.262 99.7425 46.3896C98.0984 49.3877 95.8418 52.0956 93.0694 54.1266C90.6838 55.8352 88.0726 57.2858 85.2357 58.0595C82.012 58.8977 78.5948 59.0911 75.3389 58.3174C77.8534 57.2214 80.3356 56.0608 82.6245 54.5457C85.3647 52.7404 87.8469 50.4515 89.7167 47.7436C91.2641 45.5192 92.5213 43.1014 93.7141 40.6836C96.0997 35.9448 99.807 31.8506 104.417 29.2072Z" fill="#B79859"/>
<path d="M6.57617 32.9473C7.80119 33.9789 9.21963 34.7526 10.6381 35.4295C12.1532 36.1388 13.7328 36.7513 15.3447 37.2026C20.1803 38.3631 25.2093 38.3954 30.1416 37.944C32.7528 37.7184 35.364 37.7184 37.943 38.1697C41.2312 38.6855 44.326 39.9428 47.1629 41.6513C50.9991 43.9724 54.0294 47.6797 55.4156 51.9673C53.3524 50.5488 51.2248 49.1949 48.9359 48.131C46.2603 46.8738 43.4234 45.9711 40.522 45.5843C38.2009 45.2619 35.8798 45.3264 33.5588 45.3909C31.7857 45.4553 30.0449 45.681 28.2719 45.7132C25.4994 45.7777 22.6948 45.4553 19.9869 44.7461C17.021 43.9724 14.1197 42.8119 11.6697 40.8776C9.15515 38.9112 7.12421 36.1388 6.57617 32.9473Z" fill="#B79859"/>
<path d="M114.185 44.2624C118.182 43.7466 122.502 44.5203 125.661 47.067C122.534 47.067 119.472 47.873 116.57 48.969C113.314 50.3875 110.316 52.354 107.608 54.6106C105.287 56.5126 103.256 58.7692 100.806 60.51C98.4207 62.283 95.7128 63.5725 92.8437 64.3462C89.9746 65.1199 87.0087 65.539 84.0751 65.2166C81.0126 64.8943 78.0145 63.9271 75.4033 62.3153C78.9494 62.0896 82.4955 61.6383 85.8804 60.4777C88.3949 59.6718 90.8127 58.4468 92.9726 56.8994C94.7134 55.6422 96.3575 54.2237 97.9694 52.7408C99.9359 50.8066 102.128 49.0335 104.546 47.6473C107.544 45.971 110.8 44.7137 114.185 44.2624Z" fill="#B79859"/>
<path d="M24.2102 50.0333C27.1115 48.7438 30.2063 47.8089 33.3656 47.551C35.8156 47.3576 38.2979 47.4866 40.6834 47.9701C45.3901 48.8083 49.8066 51.3228 52.7724 55.0623C49.0651 54.0307 45.2289 53.2893 41.3282 53.386C36.2347 53.386 31.3991 55.288 26.7892 57.3189C21.9213 59.4466 16.4732 60.3492 11.1863 59.6722C7.57576 59.1887 3.99742 57.6735 1.48291 54.9656C0.934881 54.4176 0.580271 53.7083 0 53.1603V53.0958C3.22373 54.1274 6.64088 54.4176 10.0258 54.1919C14.9581 53.6761 19.697 52.0642 24.2102 50.0333Z" fill="#B79859"/>
<path fill-rule="evenodd" clip-rule="evenodd" d="M292.038 51.6769C295.713 51.3223 299.388 51.9993 302.998 52.773C304.707 53.0953 306.415 53.6434 308.188 53.45C309.671 53.321 311.154 52.9342 312.605 52.7085C313.185 52.6763 313.927 52.5473 314.249 53.1276C314.571 53.7401 314.378 54.4493 314.378 55.0941C314.023 61.7349 313.637 68.4403 313.83 75.1134C313.927 77.1121 314.023 79.1753 314.571 81.1418C314.829 81.9477 315.152 82.8503 315.925 83.2694C316.764 83.7207 317.731 83.4306 318.537 83.076C319.891 82.4635 320.825 81.2707 322.018 80.497C322.695 79.949 323.952 80.626 323.662 81.5286C323.437 82.0766 323.082 82.5602 322.76 83.0438C320.761 86.0418 318.375 88.7175 315.764 91.1676C313.862 92.8761 311.799 94.488 309.413 95.4874C308.027 96.0354 306.48 96.39 305.061 95.8742C303.385 95.2939 302.192 93.9077 301.386 92.3926C300.065 89.9425 299.517 87.1701 299.259 84.43C298.904 81.0451 299.033 77.6279 299.323 74.2752C299.355 73.9206 299.42 73.5982 299.323 73.2759C299.065 73.2114 298.936 73.4693 298.775 73.6627C294.874 78.8207 290.555 83.7207 285.687 88.0083C283.398 90.0393 280.948 91.9413 278.304 93.5209C276.048 94.8104 273.598 96.0032 270.922 96.1321C268.118 96.1643 265.506 94.4235 264.152 92.038C262.412 89.0721 262.412 85.526 262.54 82.2056C262.831 75.8226 265.184 69.5686 269.278 64.6363C271.47 61.9606 274.114 59.6717 277.047 57.8342C279.304 56.3513 281.593 54.9006 284.043 53.8046C286.557 52.644 289.265 51.9026 292.038 51.6769ZM284.397 58.6079C281.915 59.027 280.11 61.0902 279.046 63.2179C277.241 66.8284 276.822 70.9548 276.854 74.92C276.918 76.9509 276.983 79.0141 277.692 80.9161C278.014 81.8188 278.659 82.7214 279.594 83.0115C280.432 83.2694 281.27 83.076 282.076 82.8826C283.849 82.3345 285.429 81.3352 286.912 80.2714C289.201 78.5628 291.264 76.5641 293.198 74.5009C295.326 72.1476 297.324 69.6653 299.098 67.0218C299.807 65.8613 300.613 64.7008 301 63.379C301.225 62.7988 300.742 62.283 300.323 61.9606C299.291 61.1869 298.066 60.7678 296.873 60.3487C294.294 59.5106 291.618 59.027 288.911 58.7369C287.395 58.5757 285.88 58.4145 284.397 58.6079Z" fill="#B79859"/>
<path d="M477.047 51.6771C481.174 51.3548 485.429 51.7738 489.33 53.16C491.135 53.837 493.005 54.7397 494.23 56.2871C494.745 56.8996 494.165 57.6733 493.649 58.0601C490.716 60.4457 487.621 62.67 484.365 64.572C483.753 64.9911 482.818 64.8299 482.431 64.1852C482.463 63.5404 483.398 63.0891 483.108 62.3799C482.173 61.0904 480.69 60.349 479.272 59.7042C476.016 58.318 472.502 57.5765 468.988 57.4476C466.635 57.4476 464.346 58.2858 462.379 59.5108C461.638 60.0266 460.896 60.5746 460.445 61.3483C460.09 61.9286 460.477 62.6056 460.832 63.0891C461.992 64.5398 463.733 65.4102 465.377 66.1517C472.018 69.0208 479.368 69.2464 486.267 71.1807C488.04 71.6642 489.781 72.4057 491.264 73.5018C492.36 74.3077 493.295 75.3715 493.617 76.7255C493.939 77.9183 493.649 79.2078 492.94 80.2393C491.328 82.6571 489.007 84.4947 486.686 86.2032C481.399 89.9428 475.5 92.8764 469.31 94.8751C465.184 96.1646 460.8 97.035 456.448 96.6159C452.805 96.358 449.259 95.3909 445.777 94.2626C443.585 93.6178 441.296 92.8119 438.975 93.2632C438.137 93.4244 437.428 93.8757 436.751 94.3593C436.138 94.8428 435.01 94.3915 435.01 93.5533C435.01 92.6829 435.622 92.0059 436.074 91.329C437.943 88.75 440.007 86.3322 442.231 84.0756C443.134 83.2374 444.068 82.3992 445.1 81.7223C445.713 81.3676 446.39 80.9486 447.131 81.1742C447.969 81.4321 448.582 82.0769 449.259 82.6249C451.193 84.3657 453.288 85.9776 455.706 87.0092C459.284 88.5888 463.25 89.1046 467.118 89.0723C470.245 88.9756 473.469 88.5243 476.177 86.848C477.241 86.171 478.337 85.1072 478.24 83.7532C478.111 82.367 477.015 81.3677 475.919 80.6907C474.468 79.8525 472.889 79.3367 471.309 78.9176C465.474 77.5637 459.575 76.3386 453.74 75.0169C451.515 74.5333 449.194 73.9531 447.389 72.4702C446.293 71.5998 445.519 70.2458 445.616 68.8274C445.616 67.0221 446.776 65.5069 447.969 64.2174C450.032 62.0575 452.579 60.3812 455.158 58.866C460.671 55.7713 466.667 53.4824 472.856 52.2574C474.253 51.9995 475.65 51.8061 477.047 51.6771Z" fill="#B79859"/>
<path d="M335.042 53.3536C336.106 52.8378 337.169 52.2898 338.33 52.0964C339.523 51.9352 340.587 52.6767 341.264 53.5471C342.521 55.1589 343.101 57.1899 343.552 59.1241C344.358 63.0571 344.455 67.0545 344.358 71.0197C344.391 71.5032 344.358 72.0513 344.745 72.3736C346.776 70.3749 348.71 68.3117 350.87 66.4097C355.48 62.3156 360.413 58.5116 366.022 55.8037C368.504 54.6754 371.148 53.6438 373.952 53.7405C375.628 53.7727 377.337 54.5787 378.336 55.9649C379.497 57.609 379.755 59.7366 379.626 61.7031C379.175 67.119 378.594 72.5348 378.756 77.9829C378.82 79.2402 378.884 80.5297 379.368 81.6902C379.626 82.3027 380.174 82.8185 380.883 82.883C381.786 83.0119 382.656 82.4961 383.365 82.0126C384.268 81.4001 385.01 80.5297 385.977 80.0461C386.75 79.627 388.04 80.4329 387.589 81.3356C386.138 83.8501 384.204 86.0422 382.173 88.1054C380.077 90.1686 377.853 92.1028 375.371 93.6502C374.178 94.3594 372.921 95.0042 371.567 95.3588C370.051 95.7456 368.343 95.4877 367.118 94.4562C366.119 93.618 365.538 92.4252 365.151 91.2002C364.152 88.0732 364.023 84.785 363.926 81.529C363.83 77.6283 364.023 73.7276 364.249 69.8269C364.217 68.344 364.152 66.7643 363.411 65.4749C362.992 64.7656 362.186 64.3143 361.38 64.4755C360.155 64.7334 359.123 65.5071 358.124 66.2163C356.028 67.7637 354.094 69.5367 352.256 71.3743C345.229 78.3698 338.975 86.0422 332.785 93.7469C332.14 94.4562 331.431 95.2943 330.4 95.391C329.916 95.4555 329.4 95.1009 329.368 94.5851C329.142 92.9088 329.304 91.2002 329.368 89.5239C329.561 85.1718 329.787 80.8198 329.916 76.4355C329.981 73.6309 330.013 70.794 329.69 67.9894C329.465 66.313 329.239 64.54 328.401 63.0248C328.079 62.5413 327.563 61.8965 326.918 62.1222C325.854 62.4446 325.08 63.2505 324.113 63.734C323.275 64.2176 322.115 63.186 322.373 62.3156C322.953 61.5097 323.823 60.9294 324.565 60.2847C327.885 57.7379 331.367 55.3524 335.042 53.3536Z" fill="#B79859"/>
<path d="M28.7553 58.9315C31.5921 57.3841 34.7514 56.4814 37.9429 56.0623C42.1982 55.4498 46.5825 56.288 50.3865 58.2545C50.7411 58.4157 51.0635 58.6091 51.3536 58.867C48.6134 59.0604 45.8733 59.3505 43.1976 60.0275C40.264 60.769 37.4271 61.9295 34.9126 63.5736C32.8172 64.9276 30.9152 66.5717 29.0776 68.248C26.8855 70.4079 24.4677 72.3744 21.7598 73.8251C18.0525 75.7915 13.8939 77.21 9.63857 77.0488C6.60826 76.9521 3.54572 76.0172 1.12793 74.083C3.64244 74.1475 6.09247 73.5672 8.44579 72.858C10.7346 72.181 12.8301 71.0204 14.8288 69.7632C17.6334 68.0224 20.1479 65.8625 22.5657 63.6059C24.4355 61.8006 26.4664 60.1887 28.7553 58.9315Z" fill="#B79859"/>
<path fill-rule="evenodd" clip-rule="evenodd" d="M495.486 60.6071C496.873 60.2525 498.452 60.7683 499.29 61.9611C500.258 63.315 500 65.4427 498.678 66.5065C497.421 67.5704 495.422 67.5704 494.165 66.5065C492.908 65.4749 492.585 63.5085 493.456 62.1223C493.907 61.3808 494.648 60.8328 495.486 60.6071ZM495.648 61.1229C494.197 61.5098 493.327 63.1539 493.713 64.6045C494.004 66.0552 495.583 67.0868 497.034 66.7C498.614 66.3776 499.548 64.5723 499.097 63.0572C498.742 61.6065 497.098 60.6716 495.648 61.1229Z" fill="#B79859"/>
<path d="M103.965 62.4442C108.059 61.2836 112.443 60.929 116.634 61.6705C120.664 62.4119 124.661 64.5396 126.789 68.1179C124.661 67.312 122.372 67.0863 120.116 66.9251C118.601 66.8929 117.053 66.8929 115.538 67.1508C111.799 67.6666 108.124 68.8271 104.642 70.3101C102.224 71.3416 99.8386 72.4055 97.2919 73.018C93.0366 74.0818 88.4911 73.8884 84.268 72.7923C80.3029 71.6963 76.6278 69.3429 74.0488 66.087C77.8528 67.1508 81.7858 67.9245 85.7187 67.7633C89.0392 67.7311 92.2951 66.9251 95.3899 65.7646C98.2913 64.733 100.999 63.2501 103.965 62.4442Z" fill="#B79859"/>
<path fill-rule="evenodd" clip-rule="evenodd" d="M495.1 61.9287C495.842 61.961 496.615 61.832 497.389 61.9932C498.066 62.1866 498.227 63.1215 497.905 63.6695C497.711 63.9597 497.357 64.0564 497.067 64.1853C497.421 64.7656 497.808 65.3459 498.163 65.8939C497.905 65.8939 497.668 65.8939 497.453 65.8939C497.067 65.3459 496.712 64.7979 496.39 64.2176C496.153 64.2176 495.927 64.2176 495.713 64.2176C495.713 64.7764 495.713 65.3351 495.713 65.8939C495.498 65.8939 495.294 65.8939 495.1 65.8939C495.079 64.5829 495.079 63.2612 495.1 61.9287ZM495.713 62.4123C495.713 62.8421 495.713 63.2612 495.713 63.6695C496.196 63.6373 496.68 63.7018 497.131 63.5728C497.421 63.4116 497.421 63.0248 497.324 62.7347C496.905 62.3156 496.261 62.4768 495.713 62.4123Z" fill="#B79859"/>
<path d="M37.3304 64.8302C41.618 62.5091 46.776 61.8321 51.5148 62.8315C47.6786 64.4756 43.9068 66.442 40.8121 69.2789C37.7818 71.9224 35.6863 75.4362 33.8811 78.9823C32.4949 81.9159 30.7863 84.7206 28.5619 87.0739C26.531 89.2338 24.1454 91.168 21.4697 92.4898C17.8591 94.2306 13.6038 94.8108 9.76758 93.5214C12.6367 92.522 15.2157 90.8134 17.5045 88.8792C21.1151 85.591 23.7908 81.4001 25.9507 77.0159C27.2724 74.2112 28.9165 71.5033 31.1731 69.3112C32.9462 67.5059 35.0738 66.023 37.3304 64.8302Z" fill="#B79859"/>
<path d="M40.3929 73.1155C43.6166 69.4726 48.2588 67.1516 53.0621 66.5713C50.2252 69.1503 47.5818 72.0194 45.6798 75.3721C43.4232 79.2405 42.6495 83.7537 42.2304 88.138C41.9725 91.394 41.231 94.5855 39.8771 97.5513C38.6843 100.098 37.2014 102.548 35.1382 104.515C32.4303 107.19 28.723 108.931 24.8545 108.931C26.1117 107.996 27.1756 106.836 28.1105 105.611C29.1743 104.224 30.1414 102.806 30.9151 101.226C32.9138 96.9066 33.8165 92.1354 34.2033 87.3966C34.429 84.9143 34.9448 82.4643 35.8796 80.1432C36.9112 77.532 38.4909 75.1786 40.3929 73.1155Z" fill="#B79859"/>
<path d="M71.4375 69.2148C74.3066 71.2136 77.3692 73.0188 80.6574 74.2116C83.4298 75.211 86.3634 75.759 89.2969 75.8235C93.2299 76.0169 97.1951 75.2755 101.16 75.5333C104.481 75.7268 107.769 76.4682 110.831 77.7577C113.475 78.886 115.925 80.5301 117.698 82.819C118.955 84.3986 119.922 86.2684 120.245 88.2671C119.278 87.3644 118.085 86.7197 116.924 86.1072C115.119 85.2045 113.281 84.4308 111.315 83.9473C108.091 83.2058 104.803 82.8834 101.483 82.9802C99.3227 82.9802 97.1951 83.2058 95.0352 83.3348C91.1345 83.5282 87.1693 83.0124 83.5909 81.4972C81.0442 80.4012 78.5942 79.0794 76.5632 77.1774C74.2421 75.0176 72.3724 72.2774 71.4375 69.2148Z" fill="#B79859"/>
<path d="M46.0027 80.5945C47.6145 75.7911 51.2896 71.7615 55.835 69.5693C53.9975 73.1799 52.4179 77.0161 51.9666 81.0458C51.5475 84.2373 51.9666 87.4288 52.708 90.5236C53.0626 92.2966 53.6751 94.0052 54.0298 95.7782C54.9324 99.8079 54.8679 104.095 53.7719 108.093C52.9982 110.93 51.5152 113.638 49.3554 115.669C47.9691 116.926 46.3895 117.957 44.5842 118.538C45.5514 117.087 46.1639 115.443 46.6474 113.799C47.0665 112.316 47.3889 110.833 47.5178 109.318C47.7112 105.933 47.3889 102.516 46.6152 99.1954C46.0671 96.5842 45.1323 94.0697 44.8099 91.394C44.2619 87.7834 44.7132 84.0116 46.0027 80.5945Z" fill="#B79859"/>
<path d="M67.8272 71.3096C69.5035 73.5984 71.2443 75.8873 73.372 77.7893C75.4674 79.7557 77.853 81.3998 80.4642 82.5604C82.8175 83.6242 85.2998 84.3657 87.782 85.0426C90.9091 85.8163 93.9716 86.8479 96.744 88.4598C99.3552 89.9749 101.837 91.8447 103.739 94.198C106.157 97.1961 107.576 101.161 106.899 104.998C105.287 102.386 102.998 100.259 100.548 98.4533C97.6144 96.4869 94.3584 95.0362 91.0058 93.9401C88.1044 92.9408 85.0419 92.4572 82.205 91.2967C79.2392 90.1684 76.5312 88.4276 74.2424 86.2354C72.3726 84.3979 70.6318 82.3347 69.5358 79.9169C68.2785 77.2412 67.6982 74.2432 67.8272 71.3096Z" fill="#B79859"/>
<path d="M54.5777 80.9162C55.2547 77.3701 57.0277 74.0497 59.5422 71.4707C59.2843 73.7918 59.1231 76.1451 59.2521 78.4984C59.4455 81.7222 60.187 84.9459 61.6054 87.8472C62.8949 90.5229 64.6035 92.973 66.3765 95.3585C68.214 97.9375 69.7292 100.807 70.5996 103.869C71.5022 107.061 71.9213 110.478 71.1476 113.734C70.6641 116.023 69.5358 118.15 67.9884 119.891C67.5693 120.342 67.0857 120.729 66.6989 121.213H66.6344C67.118 118.795 66.9246 116.313 66.5699 113.895C66.1509 111.251 65.087 108.769 63.9265 106.384C62.5725 103.708 60.8639 101.258 59.1231 98.8724C56.9955 95.971 55.3191 92.6828 54.6744 89.1367C54.1908 86.4288 54.0941 83.6242 54.5777 80.9162Z" fill="#B79859"/>
<path d="M63.6689 72.1484C64.2491 73.857 64.6682 75.6301 65.3775 77.3064C66.5058 80.2078 68.0531 82.9479 70.1163 85.3012C72.1473 87.6546 74.6618 89.4921 77.1763 91.2651C80.0454 93.1027 82.7856 95.2303 84.9455 97.906C86.8797 100.259 88.4916 102.935 89.362 105.869C90.3936 109.35 90.2002 113.348 88.2337 116.475C88.0725 115.056 87.5567 113.735 87.0087 112.445C86.235 110.769 85.3323 109.125 84.2362 107.642C82.3665 105.288 80.2066 103.161 77.8533 101.291C76.1447 99.937 74.3072 98.7442 72.5019 97.5192C69.5038 95.3915 66.8281 92.7481 65.0551 89.5243C63.7978 87.2677 62.8307 84.8499 62.4116 82.3354C61.8636 78.9183 62.2827 75.3399 63.6689 72.1484Z" fill="#B79859"/>
</g>
<defs>
<clipPath id="clip0_28_1295">
<rect width="500" height="121.212" fill="white"/>
</clipPath>
</defs>
</svg>
