<svg width="500" height="236" viewBox="0 0 500 236" fill="none" xmlns="http://www.w3.org/2000/svg">
<path d="M250.028 5.48047L123.726 59.5823H44.9437V81.6532H5.48047V229.998H494.52V81.6532H455.078V59.5823H376.323L250.028 5.48047Z" fill="#004990"/>
<path d="M366.65 99.0352L366.645 123.017L382.16 123.045L385.393 99.042L366.65 99.0352Z" fill="white"/>
<path d="M450.541 119.816C451.541 119.816 452.445 119.741 452.445 118.521C452.445 117.562 451.554 117.384 450.732 117.384H449.116V119.816H450.541ZM449.116 124.214H447.931V116.377H450.917C452.76 116.377 453.678 117.062 453.678 118.61C453.678 120.014 452.808 120.624 451.657 120.768L453.883 124.214H452.555L450.486 120.816H449.116V124.214ZM450.554 125.967C453.63 125.967 456.055 123.563 456.055 120.282C456.055 117.062 453.63 114.637 450.554 114.637C447.437 114.637 445.013 117.062 445.013 120.282C445.013 123.563 447.437 125.967 450.554 125.967ZM443.643 120.282C443.643 116.377 446.807 113.5 450.554 113.5C454.26 113.5 457.432 116.377 457.432 120.282C457.432 124.214 454.26 127.104 450.554 127.104C446.807 127.104 443.643 124.214 443.643 120.282Z" fill="white"/>
<path d="M83.4904 180.761V99.0332H61.1387V200.222H118.076V180.761H83.4904Z" fill="white"/>
<path d="M308.505 200.225H361.709V180.737H330.966V168.037H361.709V149.275H330.966V136.506H361.709V116.936H308.505V117.031V200.225Z" fill="white"/>
<path d="M169.164 136.508H149.504V180.657H169.164V136.508ZM191.557 189.589C191.557 195.46 186.796 200.228 180.919 200.228H137.743C131.872 200.228 127.111 195.46 127.111 189.589V127.576C127.111 121.698 131.872 116.938 137.743 116.938H180.919C186.796 116.938 191.557 121.698 191.557 127.576V189.589Z" fill="white"/>
<path d="M273.329 116.939V180.761H259.834V116.939H240.175V180.761H226.68V116.939H204.287V189.584C204.287 195.462 209.048 200.229 214.925 200.229H241.394C245.853 200.229 250.004 197.147 250.004 192.688C250.004 197.147 254.156 200.229 258.615 200.229H285.09C290.961 200.229 295.722 195.462 295.722 189.584V116.939H273.329Z" fill="white"/>
<path d="M440.198 168.752L440.204 168.758L440.067 168.47C439.978 168.292 439.889 168.12 439.8 167.943L439.663 167.669C436.122 160.565 428.189 154.633 415.421 149.523L414.969 149.352C412.441 148.359 404.748 145.351 403.892 140.461C403.659 139.091 404.214 136.94 405.742 135.631C407.351 133.994 409.817 133.151 413.071 133.151C418.277 133.151 424.196 135.282 427.264 136.549C433.724 139.227 439.389 141.618 439.444 141.652L440.006 141.885V123.705L439.821 123.588C439.698 123.506 427.484 115.807 415.147 114.039C413.729 113.916 412.325 113.861 410.975 113.861C399.618 113.861 391.014 117.985 385.411 126.123C380.705 132.809 380.184 143.392 384.185 151.29C389.329 160.216 397.576 163.942 405.557 167.552C408.845 169.032 412.249 170.58 415.435 172.471L415.467 172.492C419.071 174.657 420.907 177.966 420.146 180.904C419.358 183.953 415.872 186.001 411.467 186.001C410.864 186.001 410.255 185.968 409.659 185.885L409.446 185.857C400.972 184.679 383.793 178.281 383.621 178.212L383.073 178.007V197.941L383.354 198.037C383.512 198.091 400.144 203.599 414.906 203.599C422.962 203.599 429.05 201.975 432.982 198.783C433.078 198.715 442.099 191.461 442.496 179.124C442.606 175.712 441.836 172.218 440.198 168.752Z" fill="white"/>
</svg>
