<svg width="500" height="97" viewBox="0 0 500 97" fill="none" xmlns="http://www.w3.org/2000/svg">
<g clip-path="url(#clip0_28_1289)">
<path fill-rule="evenodd" clip-rule="evenodd" d="M145.82 65.5879H139.274V42.1271L129.747 59.5606H125.924L116.137 42.1271V65.5879H109.592V29.8458H116.137L127.835 50.5846L139.274 29.8458H145.82V65.5879ZM185.062 64.7777C180.979 65.8471 177.155 66.398 173.331 66.398C167.336 66.398 162.443 64.4861 158.62 60.954C155.088 57.4219 153.176 53.0473 153.176 47.8626C153.176 42.4187 155.088 38.0441 158.911 34.512C162.703 30.9475 167.336 29.3273 173.331 29.3273C176.863 29.3273 180.136 29.5866 183.409 30.3967L182.599 36.1323C179.067 35.5814 176.345 35.3221 174.141 35.3221C169.799 35.3221 166.267 36.4239 163.804 38.595C161.342 40.7661 160.272 43.7797 160.272 47.8626C160.272 51.3947 161.342 54.4083 163.804 56.8711C165.975 59.0422 169.248 60.4031 173.072 60.4031C174.984 60.4031 176.863 60.1439 178.775 59.8523V47.8626H185.062V64.7777ZM230.007 65.5879H223.461V42.1271L213.642 59.593H209.851L200.292 42.1271V65.5879H193.778V29.8782H200.292L212.022 50.5846L223.461 29.8782H230.007V65.5879ZM286.682 65.5879H278.224L268.406 51.9456H259.689V65.5879H252.884V29.8458H271.419C274.692 29.8458 277.673 30.9475 279.845 33.1186C282.048 35.2897 283.117 37.7525 283.117 41.0253C283.117 43.2288 282.599 45.3999 281.206 47.0201C279.845 48.932 278.224 50.293 276.053 51.1355L286.682 65.5879ZM276.053 41.0253C276.053 39.3835 275.502 38.0225 274.401 36.9424C273.32 35.8406 271.959 35.2897 270.318 35.2897H259.689V46.4693H270.318C271.959 46.4693 273.32 45.9292 274.401 44.849C275.502 44.0389 276.053 42.6779 276.053 41.0253ZM318.017 65.5879H292.385V29.8458H318.017V35.8406H299.19V44.2982H316.915V50.293H299.19V59.8523H318.017V65.5879ZM353.435 56.0286C353.435 59.3014 352.074 61.7641 349.32 63.676C346.598 65.5879 343.066 66.398 338.723 66.398C333.247 66.398 328.354 65.2962 324.012 63.3844L325.632 57.9404C330.266 59.593 334.9 60.4031 338.723 60.4031C344.167 60.4031 346.598 59.0422 346.598 56.0286C346.598 54.9592 346.079 53.8575 344.718 53.0473C343.616 52.4965 341.445 51.3947 337.362 50.0337C332.729 48.4135 329.715 46.7609 328.095 45.3999C326.183 43.7473 325.373 41.5762 325.373 38.595C325.373 32.3085 330.007 29.2949 339.533 29.2949C344.167 29.2949 348.51 29.8458 352.333 30.9475L351.231 36.3915C347.149 35.5814 343.325 35.0305 339.533 35.0305C336.812 35.0305 334.9 35.3221 333.539 35.8406C332.437 36.3915 331.886 37.2016 331.886 38.595C331.886 39.956 332.729 40.7661 334.09 41.8678C335.159 42.3863 337.622 43.4881 341.964 45.1407C346.598 46.7609 349.32 48.4135 350.681 49.4829C352.592 50.8438 353.435 53.0473 353.435 56.0286ZM393.746 47.8626C393.746 53.0473 392.093 57.3895 388.561 60.954C385.029 64.4861 380.946 66.398 375.762 66.398C370.577 66.398 366.494 64.4861 362.962 60.954C359.43 57.3895 357.777 53.0473 357.777 47.8626C357.777 42.6779 359.43 38.3033 362.962 34.7713C366.494 31.2068 370.577 29.2949 375.762 29.2949C380.946 29.2949 385.029 31.2068 388.561 34.7713C392.093 38.3033 393.746 42.6779 393.746 47.8626ZM386.941 47.8626C386.941 44.2982 385.839 41.317 383.928 38.8542C382.016 36.3915 379.294 35.3221 375.762 35.3221C372.489 35.3221 369.767 36.3915 367.855 38.8542C365.943 41.317 364.874 44.0389 364.874 47.8626C364.874 51.3947 365.943 54.4083 367.855 56.5794C369.767 59.0422 372.489 60.1439 376.021 60.1439C379.294 60.1439 382.016 59.0422 384.219 56.5794C386.099 54.4083 386.941 51.3947 386.941 47.8626ZM434.867 65.5879H426.442L416.624 51.9456H407.907V65.5879H401.102V29.8458H419.637C422.878 29.8458 425.891 30.9475 428.062 33.1186C430.233 35.3221 431.335 37.7525 431.335 41.0253C431.335 43.2288 430.784 45.3999 429.423 47.0525C428.062 48.932 426.442 50.3254 424.239 51.1355L434.867 65.5879ZM424.271 41.0253C424.271 39.4051 423.72 38.0441 422.618 36.9424C421.538 35.8622 420.177 35.3221 418.535 35.3221H407.907V46.5017H418.535C420.177 46.5017 421.538 45.9508 422.618 44.849C423.72 44.0389 424.271 42.6779 424.271 41.0253ZM466.753 35.8406H455.055V65.5879H448.218V35.8406H436.261V29.8458H466.753V35.8406ZM500 56.0286C500 59.3014 498.639 61.7641 495.917 63.676C493.195 65.5879 489.631 66.398 485.288 66.398C479.845 66.398 474.919 65.2962 470.577 63.3844L472.197 57.9404C476.831 59.5606 481.465 60.4031 485.288 60.4031C490.732 60.4031 493.195 59.0422 493.195 56.0286C493.195 54.9268 492.644 53.8575 491.283 53.0149C490.182 52.4965 488.01 51.3947 483.927 50.0337C479.294 48.3811 476.28 46.7609 474.66 45.3999C472.748 43.7473 471.938 41.5762 471.938 38.5626C471.938 32.3085 476.572 29.2949 486.099 29.2949C490.732 29.2949 495.107 29.8458 498.898 30.9475L497.829 36.3915C493.714 35.5814 489.922 35.0305 486.099 35.0305C483.377 35.0305 481.465 35.2897 480.104 35.8406C479.002 36.3915 478.484 37.2016 478.484 38.5626C478.484 39.9236 479.294 40.7661 480.655 41.8354C481.756 42.3863 484.187 43.488 488.561 45.1083C493.195 46.7609 495.917 48.3811 497.278 49.4829C499.19 50.8438 500 53.0149 500 56.0286Z" fill="#927239"/>
<path fill-rule="evenodd" clip-rule="evenodd" d="M22.1319 41.5753C16.3963 44.8481 10.6931 49.7412 10.6931 56.8378V62.5734C6.3185 56.0277 4.95752 48.121 4.95752 39.6634C9.59135 42.3854 16.137 43.7464 22.1319 41.5753ZM18.0489 28.2247C21.0301 29.8449 24.3029 31.2059 28.1267 31.4975L29.4877 34.2195C26.7657 30.655 21.581 31.2059 17.498 31.7568C14.7761 31.7568 12.0541 35.5805 10.1422 34.2195C7.67949 34.4787 5.50839 33.9279 3.88817 32.8585C9.04047 34.2195 12.0541 25.4703 18.0489 28.2247ZM11.5032 32.016C10.6931 30.655 7.67949 32.5669 7.97113 33.6686H9.88299L11.5032 32.016ZM0.323688 4.47225C3.85577 5.28236 7.12861 7.19422 9.59135 10.7263C11.2116 15.1009 10.1422 18.3737 6.05927 20.0264C4.14741 20.0264 2.23555 19.4755 0.323688 18.9246V4.47225ZM12.8642 96.1119C22.3911 84.6408 13.1234 66.1054 19.6691 52.7548C21.8402 49.482 23.2012 47.2785 26.474 44.0056L26.7657 44.2973C23.2012 48.6395 20.22 52.7548 19.6691 58.1988C19.1182 71.841 40.3755 80.0069 29.4877 94.2001C28.9368 95.0102 28.1267 95.8203 27.5758 96.3712L12.8642 96.1119ZM47.9906 0.389296H95.9491V96.4036H47.9906C62.4429 85.224 71.7106 68.0173 71.7106 48.3802C71.7106 28.7432 62.4429 11.3096 47.9906 0.389296ZM0.0644531 56.5785C8.23036 68.5682 21.581 79.1968 10.4015 94.4917L8.4896 96.4036H0.323688L0.0644531 56.5785ZM25.1131 4.21302C26.5064 6.93499 25.9556 12.1197 24.5946 15.3925L14.5168 16.4619C15.0353 11.0179 11.5032 6.64335 6.86938 3.92138C4.95752 3.11127 2.52719 2.30116 0.323688 2.00952V0.389296H22.942C23.7521 1.19941 24.5946 2.56039 25.1131 4.21302ZM33.8622 0.0976562C38.2044 1.75028 40.6672 3.92138 44.1993 6.64335C39.0145 5.28236 34.1215 7.19422 30.0385 10.2078C29.7469 7.19422 29.7469 3.3705 27.5758 0.389296L33.8622 0.0976562ZM34.6724 96.3712H31.1403C34.964 90.3763 37.3943 82.4697 33.8622 75.6323C39.8571 76.1832 45.0418 74.0121 48.5738 69.0866C49.1247 68.0173 48.023 67.4664 47.2129 66.6563C42.8707 68.2765 38.2368 70.4476 33.0521 69.6375C29.7793 66.9155 24.5946 65.0037 23.5252 60.3699C24.3354 56.2869 23.2336 50.8106 27.3166 48.0886C27.3166 48.3802 27.3166 48.6395 27.3166 49.1903C30.3302 49.7412 33.3114 51.6531 36.325 50.8106C39.047 47.8293 42.8707 46.7276 45.8519 44.0056C46.9536 45.3666 48.8655 44.5565 50.2265 44.8157C56.7398 51.1022 57.5823 60.6291 56.4805 69.6375C55.6704 83.8306 45.5926 91.4457 34.6724 96.3712ZM46.662 61.18C45.301 60.9207 45.8519 62.8326 44.4909 63.3835C41.7689 62.8326 38.2368 68.0173 36.8759 63.6427L36.0333 64.4528C36.0333 65.8138 35.5149 67.7257 36.8759 68.8274C40.6672 66.6563 48.8655 68.0173 46.662 61.18ZM47.2129 46.4684C45.301 44.8157 40.1487 48.8987 38.2368 50.8106C38.2368 52.4632 37.3943 55.1852 39.047 55.4444C39.8571 54.9259 39.3062 53.5649 39.5978 52.7224C40.9588 50.0004 43.3891 49.1903 45.8519 48.6395L46.9536 51.3614L47.7637 49.1903C48.023 48.0886 47.7637 46.7276 47.2129 46.4684ZM55.3788 80.0069C60.0126 69.0866 61.9245 52.1715 52.6568 42.6446C50.7449 40.1819 53.2077 35.5481 48.8655 34.4463C47.7637 35.8073 46.9536 39.631 44.4909 38.0108C42.0282 36.3582 39.047 36.099 36.325 34.9972C39.5978 34.1871 45.5926 36.9091 47.7637 32.8261C47.5045 31.7244 46.9536 30.1041 45.5926 29.8125C42.8707 30.9142 43.3891 28.7432 42.0282 27.3822C38.7553 26.5397 34.4131 26.2804 32.7929 22.7159C34.964 21.6466 36.325 24.9194 37.9452 26.2804C39.3062 25.7295 38.4961 24.3686 38.7553 23.2668C35.7741 20.5448 32.242 17.8229 28.9692 15.911C30.5894 13.189 35.2232 9.62455 39.8571 9.36532C52.1059 8.55521 61.3736 22.4567 64.3872 32.8261C67.1092 43.1955 68.1785 68.8274 55.3788 80.0069Z" fill="#927239"/>
</g>
<defs>
<clipPath id="clip0_28_1289">
<rect width="500" height="96.5651" fill="white"/>
</clipPath>
</defs>
</svg>
