<svg width="500" height="179" viewBox="0 0 500 179" fill="none" xmlns="http://www.w3.org/2000/svg">
<g clip-path="url(#clip0_28_1286)">
<path d="M55.1537 178.123C40.2558 177.531 28.0671 173.454 18.5365 165.883C16.7176 164.437 12.3834 160.1 10.9293 158.271C7.06453 153.411 4.43698 148.682 2.68443 143.434C-2.70842 127.281 0.067091 106.085 10.6232 82.8219C19.6615 62.9061 33.6079 43.1536 57.9395 15.7965C61.5236 11.7709 72.1971 -0.00195312 72.266 -0.00195312C72.2915 -0.00195312 71.7098 1.00569 70.9777 2.23274C64.6512 12.8296 59.2379 25.3117 56.289 36.1179C51.5517 53.4571 52.1231 68.3372 57.9624 79.8754C61.9905 87.8244 68.8961 94.7096 76.6614 98.5157C90.2557 105.176 110.159 105.727 134.465 100.128C136.138 99.7402 219.062 77.7275 318.74 51.2097C418.419 24.6893 499.987 3.00824 500 3.02609C500.028 3.04909 268.419 102.156 148.187 153.572C129.146 161.712 124.054 163.768 115.103 166.911C92.22 174.947 71.7226 178.781 55.1537 178.123Z" fill="black"/>
</g>
<defs>
<clipPath id="clip0_28_1286">
<rect width="500" height="178.195" fill="white"/>
</clipPath>
</defs>
</svg>
