<svg width="500" height="75" viewBox="0 0 500 75" fill="none" xmlns="http://www.w3.org/2000/svg">
<g clip-path="url(#clip0_28_1285)">
<path fill-rule="evenodd" clip-rule="evenodd" d="M85.2266 61.4837L85.1955 61.732C85.1024 61.9182 85.2266 62.1044 84.5748 62.9114C81.9057 65.984 70.6083 76.5985 53.2899 73.6811C39.1372 71.2602 32.9609 63.9666 18.0323 64.9598C7.60397 65.6426 0 72.6569 0 72.6569V0.869141H85.2266V61.4837Z" fill="#217AAA"/>
<path fill-rule="evenodd" clip-rule="evenodd" d="M6.54862 60.4287C6.021 60.646 6.45551 59.5597 6.6107 59.2804C7.16936 58.4424 7.91424 57.9768 7.91424 57.9768C14.3078 53.4144 28.4605 51.8316 40.0061 55.4318C52.3897 59.3114 66.5735 63.7496 77.3742 56.2077C77.3742 56.2077 77.9949 55.8043 78.3363 55.587C78.7398 55.3077 78.9571 55.3077 78.9881 55.5249C79.1743 56.1767 78.895 56.8285 77.7466 57.7596C76.4741 58.8458 77.1259 58.4424 74.674 59.9942C70.0806 62.9427 63.9974 65.3325 53.1967 63.6565C39.4474 61.546 34.016 56.1457 19.4909 56.9836C13.4698 57.325 10.9248 58.101 8.06942 59.5907C7.60387 59.808 7.13832 60.1494 6.54862 60.4287ZM12.6628 24.7676V40.8446H7.13832V15.5497H12.2904L24.1464 31.1301V15.5497H29.6399V40.8446H24.8913L12.6628 24.7676ZM46.2134 41.2791C38.7646 41.2791 33.2401 35.5373 33.2401 28.2748V28.2127C33.2401 21.0122 38.6405 15.1152 46.4307 15.1152C51.1793 15.1152 54.0347 16.7291 56.3934 19.0258L52.8553 23.1227C50.9 21.3226 48.9136 20.2673 46.3686 20.2673C42.1166 20.2673 39.044 23.8055 39.044 28.1196V28.2127C39.044 32.5268 42.0545 36.1581 46.3686 36.1581C49.2861 36.1581 51.0551 34.9787 53.0415 33.1786L56.5797 36.7478C53.9726 39.5411 51.0862 41.2791 46.2134 41.2791ZM60.273 15.5497H65.8286V35.7856H78.4605V40.8446H60.273V15.5497Z" fill="#FFFFFE"/>
<path fill-rule="evenodd" clip-rule="evenodd" d="M126.816 38.9516L108.318 14.681V38.9516H100.031V0.776556H107.759L125.668 24.2713V0.776556H133.954V38.9516H126.816ZM167.163 39.6034C155.37 39.6034 146.928 30.82 146.928 19.9882V19.8641C146.928 9.00126 155.494 0.124787 167.288 0.124787C179.051 0.124787 187.524 8.90815 187.524 19.771V19.8641C187.524 30.7269 178.957 39.6034 167.163 39.6034ZM178.74 19.8641C178.74 13.3154 173.929 7.85291 167.163 7.85291C160.398 7.85291 155.711 13.2222 155.711 19.771V19.8641C155.711 26.4128 160.491 31.8442 167.288 31.8442C174.054 31.8442 178.74 26.5059 178.74 19.9882V19.8641ZM222.595 38.9206L214.401 26.7232H207.821V38.9206H199.411V0.776556H216.884C225.885 0.776556 231.285 5.49412 231.285 13.3774V13.4705C231.285 19.6468 227.964 23.4954 223.091 25.2955L232.434 38.9206H222.595ZM222.75 13.7809C222.75 10.2117 220.236 8.34949 216.139 8.34949H207.79V19.3054H216.326C220.391 19.3054 222.75 17.1329 222.75 13.905V13.7809ZM278.15 39.1999L269.553 14.2154L260.925 39.1999H253.6L240.565 0.745519H249.566L257.48 26.599L266.046 0.652409H273.247L281.813 26.599L289.727 0.745519H298.51L285.475 39.1999H278.15ZM308.566 0.745519H337.399V8.22535H316.915V15.9535H334.916V23.4333H316.915V31.4407H337.648V38.9206H308.566V0.745519ZM367.381 39.5723C355.463 39.5723 347.3 31.2235 347.3 19.9262V19.833C347.3 8.97023 355.742 0.09375 367.319 0.09375C374.209 0.09375 378.337 1.95595 382.34 5.33894L377.033 11.7014C374.085 9.24955 371.478 7.82187 367.039 7.82187C360.925 7.82187 356.083 13.2222 356.083 19.7089V19.833C356.083 26.8163 360.894 31.9373 367.66 31.9373C370.702 31.9373 373.433 31.1614 375.543 29.6406V24.1782H367.101V16.9466H383.706V33.5202C379.764 36.8411 374.364 39.5723 367.381 39.5723ZM396.803 0.745519H405.214V38.9206H396.803V0.745519ZM447.238 38.8895L442.955 30.3545H427.592L424.116 38.8895H415.55L431.906 0.46619H439.665L456.021 38.8895H447.238ZM435.692 10.5531L430.602 22.9367H440.751L435.692 10.5531ZM474.333 14.6189V38.8895H466.046V0.745519H473.774L491.682 24.2402V0.745519H499.969V38.8895H492.831L474.333 14.6189ZM109.56 71.9435C103.911 71.9435 99.752 67.5984 99.752 62.136V62.0739C99.752 56.6425 103.849 52.2042 109.715 52.2042C113.315 52.2042 115.456 53.3836 117.257 55.1527L114.556 58.2253C113.098 56.8908 111.608 56.0528 109.684 56.0528C106.456 56.0528 104.159 58.753 104.159 62.0118V62.0739C104.159 65.3327 106.425 68.064 109.684 68.064C111.856 68.064 113.191 67.1949 114.712 65.8293L117.381 68.5295C115.425 70.64 113.222 71.9435 109.56 71.9435ZM135.072 71.6021L130.975 65.519H127.654V71.6021H123.464V52.5146H132.185C136.717 52.5146 139.417 54.9044 139.417 58.815V58.8771C139.417 61.9497 137.741 63.905 135.32 64.8051L139.975 71.6021H135.072ZM135.165 59.0323C135.165 57.2322 133.892 56.3011 131.844 56.3011H127.685V61.7946H131.937C133.985 61.7946 135.165 60.7083 135.165 59.0944V59.0323ZM153.911 71.9125C148.759 71.9125 145.624 69.0261 145.624 63.4085V52.5146H149.845V63.3154C149.845 66.419 151.397 68.0329 153.973 68.0329C156.518 68.0329 158.101 66.4811 158.101 63.4395V52.5146H162.291V63.2843C162.291 69.0571 159.032 71.9125 153.911 71.9125ZM169.491 52.5146H173.712V71.6021H169.491V52.5146ZM187.989 71.8815C185.103 71.8815 182.185 70.8573 179.889 68.8088L182.371 65.8604C184.078 67.257 185.879 68.1571 188.082 68.1571C189.789 68.1571 190.844 67.4743 190.844 66.3569V66.3259C190.844 65.2396 190.193 64.712 186.996 63.874C183.147 62.9119 180.664 61.8256 180.664 58.0391V57.9771C180.664 54.532 183.427 52.2353 187.337 52.2353C190.131 52.2353 192.489 53.1043 194.445 54.6561L192.241 57.8219C190.565 56.6425 188.889 55.9597 187.275 55.9597C185.661 55.9597 184.823 56.6735 184.823 57.6046V57.6667C184.823 58.9082 185.661 59.3427 188.951 60.1807C192.831 61.1738 195.003 62.5705 195.003 65.8914V65.9535C195.003 69.7399 192.117 71.8815 187.989 71.8815ZM201.397 52.5146H215.798V56.239H205.556V60.1186H214.587V63.843H205.556V67.8777H215.953V71.6021H201.397V52.5146ZM233.334 52.5146H237.524V67.7846H247.052V71.6021H233.334V52.5146ZM253.135 52.5146H257.325V71.6021H253.135V52.5146ZM268.995 59.4668V71.6021H264.836V52.5146H268.715L277.685 64.2775V52.5146H281.813V71.6021H278.244L268.995 59.4668ZM289.137 52.5146H303.538V56.239H293.327V60.1186H302.328V63.843H293.327V67.8777H303.694V71.6021H289.137V52.5146ZM317.039 62.198C315.943 63.3153 314.608 63.874 313.036 63.874C311.463 63.874 310.118 63.3153 309.001 62.198C307.904 61.1014 307.356 59.7668 307.356 58.1943C307.356 56.6218 307.915 55.2872 309.032 54.1906C310.129 53.0733 311.463 52.5146 313.036 52.5146C314.608 52.5146 315.943 53.0733 317.039 54.1906C318.157 55.2872 318.715 56.6218 318.715 58.1943C318.715 59.7461 318.157 61.0807 317.039 62.198ZM309.591 54.7492C308.639 55.701 308.163 56.8494 308.163 58.1943C308.163 59.5392 308.628 60.6979 309.56 61.6704C310.511 62.6222 311.67 63.0981 313.036 63.0981C314.37 63.0981 315.581 62.4774 316.481 61.6704C317.474 60.7393 317.908 59.5599 317.908 58.1943C317.908 56.8494 317.433 55.701 316.481 54.7492C315.529 53.7768 314.381 53.2905 313.036 53.2905C311.691 53.2905 310.542 53.7768 309.591 54.7492ZM312.911 55.0596C313.677 55.0596 314.246 55.132 314.619 55.2769C315.26 55.5459 315.581 56.0735 315.581 56.8597C315.581 57.4184 315.384 57.8219 314.991 58.0702C314.743 58.2253 314.463 58.3185 314.06 58.3805C314.556 58.4736 314.929 58.6599 315.146 59.0013C315.374 59.3323 315.488 59.653 315.488 59.9634V60.4289C315.488 60.5531 315.488 60.6979 315.488 60.8635C315.508 61.029 315.529 61.1428 315.55 61.2049L315.581 61.2669H314.556C314.556 61.2462 314.556 61.2256 314.556 61.2049C314.536 61.1842 314.525 61.1635 314.525 61.1428L314.494 60.9566V60.46C314.494 59.7358 314.298 59.2599 313.905 59.0323C313.677 58.9081 313.274 58.8357 312.694 58.815H311.825V61.2669H310.739V55.0596H312.911ZM314.091 56.0528C313.801 55.8873 313.356 55.8045 312.756 55.8045H311.825V58.0702H312.818C313.274 58.0702 313.625 58.0184 313.874 57.915C314.287 57.7495 314.494 57.4287 314.494 56.9528C314.494 56.4873 314.37 56.1769 314.091 56.0528Z" fill="black"/>
</g>
<defs>
<clipPath id="clip0_28_1285">
<rect width="500" height="74.1775" fill="white"/>
</clipPath>
</defs>
</svg>
