<svg width="500" height="190" viewBox="0 0 500 190" fill="none" xmlns="http://www.w3.org/2000/svg">
<g clip-path="url(#clip0_28_1284)">
<mask id="mask0_28_1284" style="mask-type:luminance" maskUnits="userSpaceOnUse" x="0" y="-164" width="517" height="518">
<path d="M0 -163.76H516.796V353.036H0V-163.76Z" fill="white"/>
</mask>
<g mask="url(#mask0_28_1284)">
<path fill-rule="evenodd" clip-rule="evenodd" d="M258.914 189.018C187.661 189.018 116.408 189.018 45.1546 189.018C23.3199 188.986 8.55896 174.418 8.49436 152.39C8.36516 113.932 8.36516 75.4628 8.49436 36.9831C8.55896 15.1484 23.4491 0.322864 45.3484 0.322864C187.381 0.258264 329.403 0.258264 471.414 0.322864C493.83 0.322864 508.333 15.1161 508.365 37.4999C508.408 75.5059 508.408 113.512 508.365 151.518C508.333 174.968 494.153 189.018 470.51 189.018C399.989 189.018 329.457 189.018 258.914 189.018ZM258.85 12.3061C193.766 12.3061 128.714 12.2738 63.63 12.3061C46.7696 12.3384 40.8264 18.2815 40.8264 34.8836C40.8264 74.5477 40.8264 114.212 40.8264 153.876C40.8264 171.544 46.5758 177.261 64.276 177.261C193.712 177.282 323.148 177.282 452.583 177.261C454.489 177.261 456.395 177.358 458.301 177.229C468.604 176.712 476.033 169.832 476.065 159.625C476.292 116.408 476.195 73.1911 476.13 29.974C476.098 22.6743 472.642 16.828 465.859 14.2441C461.595 12.6291 456.621 12.3707 451.938 12.3707C387.596 12.2738 323.223 12.3061 258.85 12.3061Z" fill="#680632"/>
<path fill-rule="evenodd" clip-rule="evenodd" d="M338.307 29.651C341.892 29.4895 344.153 29.2957 346.447 29.2957C365.439 29.2634 384.463 28.8435 403.423 29.4895C411.304 29.7479 419.832 30.7815 426.841 34.0438C449.87 44.735 452.099 73.7078 431.621 88.6626C428.423 90.9882 424.87 92.8939 420.413 95.6394C434.237 116.408 447.997 137.015 462.338 158.527C449.903 158.688 436.498 160.045 423.481 158.398C418.152 157.719 412.435 151.292 408.979 146.124C401.647 135.077 395.704 123.126 389.179 111.563C388.049 109.561 386.821 107.623 384.819 105.878C386.886 123.417 378.585 142.054 391.279 158.753H338.178C346.608 150.807 345.962 140.956 345.897 131.008C345.704 104.877 345.93 78.7466 346.059 52.6161C346.091 44.4766 345.445 36.5954 338.307 29.651ZM384.657 92.474C399.547 89.9869 409.431 77.0347 407.009 64.0825C404.844 52.6161 396.382 46.7699 384.657 48.9662V92.474ZM87.8225 78.036C87.8225 100.581 87.4349 121.899 88.1132 143.152C88.307 148.353 92.1183 153.424 94.347 158.785H57.1377C69.6054 144.735 64.9543 127.907 65.5033 111.983C66.0201 97.0283 65.471 82.0412 65.6648 67.0864C65.8586 53.6497 66.0524 40.3099 52.3896 29.3603C68.1519 29.3603 81.3302 29.1665 94.5085 29.5541C96.4788 29.6187 98.7398 32.235 100.29 34.173C118.281 56.2337 136.175 78.4236 154.102 100.549C156.007 102.907 157.945 105.232 160.594 108.462C161.078 106.072 161.563 104.812 161.563 103.553C161.627 87.1445 162.176 70.7363 161.337 54.3926C160.917 46.2208 157.881 38.2104 155.943 29.9094H191.311C183.074 38.3396 182.945 48.2556 182.945 58.3009C183.01 90.3422 182.978 122.416 182.978 154.489V163.598C164.018 159.334 147.674 153.004 135.788 138.049C121.608 120.219 107.428 102.39 93.2165 84.5606C91.6338 82.558 89.9542 80.62 87.8225 78.036ZM282.881 163.856C273.546 159.98 265.148 156.847 257.041 153.036C247.738 148.611 242.506 140.504 238.953 131.104C228.326 102.681 217.635 74.2569 206.782 45.9301C204.683 40.4714 201.679 35.4003 198.901 29.8125H241.44C252.648 61.4339 263.791 92.797 275.678 126.26C278.229 118.831 280.167 113.372 282.041 107.849C288.501 89.0179 294.864 70.1549 301.388 51.3241C304.134 43.5076 304.198 36.4016 295.477 30.0386H330.458C314.76 74.2246 299.095 118.281 282.881 163.856Z" fill="#680632"/>
</g>
</g>
<defs>
<clipPath id="clip0_28_1284">
<rect width="500" height="189.276" fill="white"/>
</clipPath>
</defs>
</svg>
