<svg width="500" height="62" viewBox="0 0 500 62" fill="none" xmlns="http://www.w3.org/2000/svg">
<g clip-path="url(#clip0_28_1282)">
<path fill-rule="evenodd" clip-rule="evenodd" d="M320.555 20.8138L321.169 17.5171C322.527 10.5682 320.103 10.1157 311.053 10.1157C300.646 10.1157 298.48 12.0549 296.218 23.8196L293.762 37.0711C291.499 49.062 292.404 51.3568 303.264 51.3568C311.635 51.3568 315.384 51.0659 317.032 42.4686L317.646 39.1719H327.989L327.246 43.0504C324.014 61.1823 314.802 60.5035 301.325 61.1823C282.126 61.9903 280.122 55.0414 283.257 37.5236L285.875 23.755C289.56 4.55655 297.058 0.225586 312.992 0.225586C326.47 0.225586 334.195 0.290227 331.577 17.5171L330.963 20.8138H320.555ZM382.385 22.1713L379.314 38.3316C375.63 57.5947 368.228 61.2469 351.874 61.2469C335.164 61.2469 329.637 58.0472 333.451 38.3316L336.522 22.1713C340.045 3.52229 346.412 0.225586 363.574 0.225586C379.088 0.290227 386.037 2.9082 382.385 22.1713ZM346.864 22.1713L343.794 38.3316C341.531 50.2579 343.406 51.3568 353.749 51.3568C363.186 51.3568 366.709 49.9347 368.875 38.3316L371.945 22.1713C374.369 10.8591 370.846 10.1157 361.538 10.1157C350.452 10.1157 348.901 12.669 346.864 22.1713ZM396.38 40.8849L392.566 60.7298H382.158L393.6 0.742716H421.169C432.934 1.06592 436.683 5.17064 434.065 18.713C432.32 27.6335 430.672 34.0653 421.234 35.5843L421.169 35.8752C428.377 36.6186 429.347 40.9496 427.698 49.5145L425.533 60.7298H415.19L417.356 49.5145C418.325 44.4725 417.129 40.9496 412.184 40.8849H396.38ZM411.893 31.0918C419.521 31.0918 421.687 29.4434 423.432 20.5876C425.08 12.1196 423.949 10.5682 416.515 10.5682H402.068L398.254 31.0918H411.893ZM445.313 0.742716H469.198C483.645 0.742716 487.685 4.55655 484.486 21.4279C481.253 38.3316 475.565 41.3374 461.409 41.3374H447.834L444.117 60.7944H433.774L445.313 0.742716ZM463.348 31.4473C470.782 31.318 472.559 29.799 474.143 21.331C475.791 12.8953 475.113 10.5035 467.323 10.5682H453.781L449.805 31.4473H463.348Z" fill="#221E1F"/>
<path fill-rule="evenodd" clip-rule="evenodd" d="M240.045 22.1713L236.877 38.3316C233.225 57.5947 225.791 61.2469 209.469 61.2469C192.76 61.2469 187.233 58.0472 191.047 38.3316L194.117 22.1713C197.705 3.52229 204.007 0.225586 221.17 0.225586C236.748 0.290227 243.697 2.9082 240.045 22.1713ZM204.524 22.1713L201.454 38.3316C199.224 50.2579 201.098 51.3568 211.409 51.3568C220.846 51.3568 224.369 49.9347 226.567 38.3316L229.638 22.1713C232.029 10.8591 228.506 10.1157 219.295 10.1157C208.112 10.1157 206.561 12.669 204.524 22.1713ZM252.456 50.9366H277.731L275.856 60.7298H240.271L251.713 0.742716H262.055L252.456 50.9366ZM98.5128 0.775037H122.43C136.877 0.775037 140.917 4.58887 137.685 21.4279C134.486 38.3639 128.797 41.3697 114.641 41.3697H101.066L97.3169 60.8268H87.0713L98.5128 0.775037ZM116.548 31.4796C123.981 31.318 125.759 29.8313 127.343 21.3633C128.991 12.8953 128.312 10.5035 120.523 10.6005H106.981L103.005 31.4796H116.548ZM188.461 22.2036L185.391 38.3639C181.706 57.627 174.305 61.2792 157.95 61.2792C141.273 61.2792 135.714 58.0472 139.528 38.3639L142.598 22.2036C146.218 3.55461 152.488 0.257907 169.65 0.257907C185.164 0.322548 192.113 2.94052 188.461 22.2036ZM152.941 22.2036L149.87 38.3639C147.64 50.2902 149.482 51.3891 159.825 51.3891C169.263 51.3891 172.786 49.967 175.048 38.3639L178.118 22.2036C180.446 10.956 176.923 10.148 167.711 10.148C156.528 10.148 154.977 12.669 152.941 22.2036Z" fill="#2F5C9C"/>
<path d="M83.0958 18.7139C70.3615 18.7139 60.7623 26.7295 48.3512 28.0869C34.4856 29.4444 27.2781 18.3584 14.3176 17.3888C12.0874 17.2272 9.9866 17.2918 7.88576 17.615L11.2471 0.905273H87.0713M75.4682 61.0216H0.161133L3.78104 41.3384C9.92196 38.0417 16.1922 35.8762 23.6905 36.3933C36.5865 37.2983 43.8586 48.2873 57.6272 46.9622C65.4811 46.1218 72.2361 42.5989 79.282 40.1425" fill="#221E1F"/>
<path d="M80.0902 33.2578C72.9797 36.102 66.16 40.0774 58.2415 41.047C44.4406 42.5338 38.4613 34.8091 24.3695 31.3832C17.3236 29.6702 10.7302 30.866 4.45996 34.6799L6.52848 23.8848C9.92215 22.8505 13.5097 22.3334 17.3882 22.6243C30.2841 23.5939 37.2654 36.102 51.034 34.5829C62.1199 33.2578 71.0404 25.921 81.8355 24.4019L80.0902 33.2578Z" fill="#2F5C9C"/>
<path fill-rule="evenodd" clip-rule="evenodd" d="M494.666 10.4071C491.79 10.4071 489.495 8.11229 489.495 5.23575C489.495 2.39154 491.79 0.0644531 494.666 0.0644531C497.511 0.0644531 499.838 2.39154 499.838 5.23575C499.838 8.11229 497.511 10.4071 494.666 10.4071ZM498.61 5.23575C498.61 3.03795 496.864 1.26032 494.666 1.26032C492.469 1.26032 490.691 3.03795 490.691 5.23575C490.691 7.43356 492.469 9.21119 494.666 9.21119C496.864 9.21119 498.61 7.43356 498.61 5.23575ZM497.187 8.07997H495.862L494.569 5.84984H493.535V8.07997H492.339V2.55314H495.119C496.379 2.55314 497.284 2.77939 497.284 4.26613C497.284 5.33271 496.767 5.68824 495.765 5.75288L497.187 8.07997ZM495.248 4.88023C495.862 4.88023 496.218 4.71862 496.218 4.03989C496.218 3.39348 495.539 3.39348 494.957 3.39348H493.6V4.88023H495.248Z" fill="#221E1F"/>
</g>
<defs>
<clipPath id="clip0_28_1282">
<rect width="500" height="61.4092" fill="white"/>
</clipPath>
</defs>
</svg>
