<svg width="500" height="193" viewBox="0 0 500 193" fill="none" xmlns="http://www.w3.org/2000/svg">
<g clip-path="url(#clip0_28_1279)">
<path d="M128.743 26.9461C141.052 10.978 160.679 0 182.635 0C219.894 0 249.834 30.2728 249.834 67.1989C249.834 104.458 219.894 134.398 182.635 134.398C145.377 134.398 115.437 104.125 115.437 67.1989C115.437 60.5456 116.102 57.2189 117.433 50.2329C118.763 43.9122 124.751 40.2528 130.739 40.2528C138.058 40.2528 145.709 46.9062 143.713 57.2189C143.048 60.5456 142.383 63.8723 142.383 67.1989C142.383 89.8204 160.347 107.452 182.635 107.452C204.924 107.784 222.888 89.8204 222.888 67.1989C222.888 44.5775 204.924 26.9461 182.635 26.9461H128.743Z" fill="#0081C6"/>
<path d="M26.9464 121.092C26.9464 128.41 20.9584 134.398 13.6397 134.398C6.32103 134.398 0.333008 128.41 0.333008 121.092V53.8927C0.333008 46.574 6.32103 40.5859 13.6397 40.5859C20.9584 40.5859 26.9464 46.574 26.9464 53.8927V121.092Z" fill="#0081C6"/>
<path d="M78.8427 38.2572C80.1733 36.9265 80.8387 35.2631 80.8387 33.5998C80.8387 29.9405 77.8447 26.9464 74.1853 26.9464H13.6397C6.32103 26.9464 0.333008 20.9584 0.333008 13.6397C0.333008 6.32103 6.32103 0.333008 13.6397 0.333008H74.1853C92.8147 0.333008 107.785 15.3031 107.785 33.9325C107.785 43.9125 103.46 52.8945 96.4741 59.2152L64.2053 91.484C62.2093 93.1474 61.2112 95.4761 61.2112 98.4701C61.2112 103.793 65.5359 108.117 70.8586 108.117H94.1454C101.464 108.117 107.452 114.105 107.452 121.424C107.452 128.743 101.464 134.731 94.1454 134.731H70.8586C50.5659 134.731 34.2651 118.097 34.2651 97.8047C34.2651 87.1594 39.2552 77.8447 45.2432 71.8566L78.8427 38.2572Z" fill="#0081C6"/>
<path d="M393.88 65.2029C381.238 60.2129 372.589 48.2369 372.589 33.9321C372.589 14.9701 387.559 0 406.188 0H466.734C474.053 0 480.041 5.98802 480.041 13.3067C480.041 20.9581 474.053 26.6134 466.734 26.6134H406.188C402.529 26.6134 399.535 29.6075 399.535 33.2668C399.535 35.9281 401.198 38.2568 403.527 39.2548L456.754 63.5396C470.393 68.8623 480.373 82.169 480.373 97.8044C480.373 118.097 464.073 134.398 443.78 134.398H386.228C378.91 134.398 372.922 128.41 372.922 121.091C372.922 113.772 378.91 107.784 386.228 107.784H443.78C449.102 107.784 453.427 103.46 453.427 98.1371C453.427 93.8124 450.766 90.4857 446.774 88.8224L393.88 65.2029Z" fill="#0081C6"/>
<path d="M278.776 65.2029C266.135 60.2129 257.485 48.2369 257.485 33.9321C257.485 14.9701 272.455 0 291.085 0H351.63C358.949 0 364.937 5.98802 364.937 13.3067C364.937 20.9581 358.949 26.6134 351.63 26.6134H291.085C287.425 26.6134 284.431 29.6075 284.431 33.2668C284.431 35.9281 286.095 38.2568 288.423 39.2548L341.65 63.5396C355.29 68.8623 365.27 82.169 365.27 97.8044C365.27 118.097 348.969 134.398 328.676 134.398H271.125C263.806 134.398 257.818 128.41 257.818 121.091C257.818 113.772 263.806 107.784 271.125 107.784H328.676C333.999 107.784 338.324 103.46 338.324 98.1371C338.324 93.8124 335.662 90.4857 331.67 88.8224L278.776 65.2029Z" fill="#0081C6"/>
<path d="M8.31704 184.63H13.3071C19.9604 184.63 25.2831 179.308 25.2831 172.654C25.2831 166.001 19.9604 160.678 13.3071 160.678H4.32502C1.99635 160.678 0.333008 159.015 0.333008 156.686C0.333008 154.358 1.99635 152.694 4.32502 152.694H13.3071C24.2851 152.694 33.2671 161.676 33.2671 172.654C33.2671 183.632 24.2851 192.614 13.3071 192.614H4.32502C1.99635 192.614 0.333008 190.951 0.333008 188.622V168.662C0.333008 166.334 1.99635 164.67 4.32502 164.67C6.6537 164.67 8.31704 166.334 8.31704 168.662V184.63Z" fill="#0081C6"/>
<path d="M82.1696 184.63H99.801C102.13 184.63 103.793 186.293 103.793 188.622C103.793 190.951 102.13 192.614 99.801 192.614H78.1776C75.8489 192.614 74.1855 190.951 74.1855 188.622V168.662C74.1855 166.333 75.8489 164.67 78.1776 164.67H99.801C102.13 164.67 103.793 166.333 103.793 168.662C103.793 170.991 102.13 172.654 99.801 172.654H82.1696V184.63Z" fill="#0081C6"/>
<path d="M99.801 160.678C102.13 160.678 103.793 159.015 103.793 156.686C103.793 154.358 102.13 152.694 99.801 152.694H78.1776C75.8489 152.694 74.1855 154.358 74.1855 156.686C74.1855 159.015 75.8489 160.678 78.1776 160.678H99.801Z" fill="#0081C6"/>
<path d="M385.895 184.63H403.527C405.855 184.63 407.519 186.293 407.519 188.622C407.519 190.951 405.855 192.614 403.527 192.614H381.903C379.574 192.614 377.911 190.951 377.911 188.622V168.662C377.911 166.333 379.574 164.67 381.903 164.67H403.527C405.855 164.67 407.519 166.333 407.519 168.662C407.519 170.991 405.855 172.654 403.527 172.654H385.895V184.63Z" fill="#0081C6"/>
<path d="M403.527 160.678C405.855 160.678 407.519 159.015 407.519 156.686C407.519 154.358 405.855 152.694 403.527 152.694H381.903C379.574 152.694 377.911 154.358 377.911 156.686C377.911 159.015 379.574 160.678 381.903 160.678H403.527Z" fill="#0081C6"/>
<path d="M230.539 160.678C232.868 160.678 234.531 159.015 234.531 156.686C234.531 154.358 232.868 152.694 230.539 152.694H208.916C206.587 152.694 204.924 154.358 204.924 156.686C204.924 159.015 206.587 160.678 208.916 160.678H230.539Z" fill="#0081C6"/>
<path d="M351.63 184.63H369.262C371.591 184.63 373.254 186.294 373.254 188.622C373.254 190.951 371.591 192.614 369.262 192.614H347.638C345.31 192.614 343.646 190.951 343.646 188.622V156.686C343.646 154.358 345.31 152.694 347.638 152.694C349.967 152.694 351.63 154.358 351.63 156.686V184.63Z" fill="#0081C6"/>
<path d="M212.908 172.654H230.539C232.868 172.654 234.531 170.991 234.531 168.662C234.531 166.333 232.868 164.67 230.539 164.67H208.916C204.591 164.67 204.924 169.327 204.924 168.662V188.622C204.924 190.951 206.587 192.614 208.916 192.614C211.245 192.614 212.908 190.951 212.908 188.622V172.654Z" fill="#0081C6"/>
<path d="M45.5758 188.622C45.5758 190.951 43.9125 192.614 41.5838 192.614C39.2551 192.614 37.5918 190.951 37.5918 188.622V168.662C37.5918 166.333 39.2551 164.67 41.5838 164.67C43.9125 164.67 45.5758 166.333 45.5758 168.662V188.622Z" fill="#0081C6"/>
<path d="M61.2116 164.005C61.5442 163.672 61.8769 163.007 61.8769 162.674C61.8769 161.676 60.8789 160.678 59.8809 160.678H41.9168C39.5881 160.678 37.9248 159.015 37.9248 156.686C37.9248 154.358 39.5881 152.694 41.9168 152.694H59.8809C65.5362 152.694 69.8609 157.019 69.8609 162.674C69.8609 165.668 68.5303 168.33 66.5343 169.993L56.8869 179.64C56.2215 180.306 55.8889 180.971 55.8889 181.636C55.8889 183.3 57.2196 184.63 58.8829 184.63H65.8689C68.1976 184.63 69.8609 186.294 69.8609 188.622C69.8609 190.951 68.1976 192.614 65.8689 192.614H58.8829C52.8949 192.614 47.9048 187.624 47.9048 181.636C47.9048 178.642 49.5682 175.648 51.2315 173.985L61.2116 164.005Z" fill="#0081C6"/>
<path d="M290.42 188.622C290.42 190.951 288.756 192.614 286.428 192.614C284.099 192.614 282.436 190.951 282.436 188.622V168.662C282.436 166.333 284.099 164.67 286.428 164.67C288.756 164.67 290.42 166.333 290.42 168.662V188.622Z" fill="#0081C6"/>
<path d="M306.055 164.005C306.388 163.672 306.721 163.007 306.721 162.674C306.721 161.676 305.723 160.678 304.725 160.678H286.761C284.432 160.678 282.769 159.015 282.769 156.686C282.769 154.358 284.432 152.694 286.761 152.694H304.725C310.38 152.694 314.705 157.352 314.705 162.674C314.705 165.668 313.374 168.33 311.378 169.993L301.731 179.64C301.065 180.306 300.733 180.971 300.733 181.636C300.733 183.3 302.063 184.63 303.727 184.63H310.713C313.041 184.63 314.705 186.294 314.705 188.622C314.705 190.951 313.041 192.614 310.713 192.614H303.727C297.739 192.614 292.749 187.624 292.749 181.636C292.749 178.642 294.412 175.648 296.075 173.985L306.055 164.005Z" fill="#0081C6"/>
<path d="M114.771 171.989C111.112 170.658 108.45 166.999 108.45 162.674C108.45 157.019 113.108 152.694 118.43 152.694H136.394C138.723 152.694 140.386 154.358 140.386 156.686C140.386 159.015 138.723 160.678 136.394 160.678H118.43C117.432 160.678 116.434 161.676 116.434 162.674C116.434 163.34 116.767 164.338 117.765 164.67L133.733 171.989C137.725 173.652 140.719 177.644 140.719 182.302C140.719 188.29 135.729 193.28 129.741 193.28H112.775C110.446 193.28 108.783 191.616 108.783 189.288C108.783 186.959 110.446 185.296 112.775 185.296H129.741C131.404 185.296 132.735 183.965 132.735 182.302C132.735 180.971 132.07 179.973 130.739 179.64L114.771 171.989Z" fill="#0081C6"/>
<path d="M151.365 171.989C147.705 170.658 145.044 166.999 145.044 162.674C145.044 157.019 149.369 152.694 155.024 152.694H172.988C175.317 152.694 176.98 154.358 176.98 156.686C176.98 159.015 175.317 160.678 172.988 160.678H155.024C154.026 160.678 153.028 161.676 153.028 162.674C153.028 163.34 153.361 164.338 154.359 164.67L170.327 171.989C174.319 173.652 177.313 177.644 177.313 182.302C177.313 188.29 172.323 193.28 166.335 193.28H149.369C147.04 193.28 145.377 191.616 145.377 189.288C145.377 186.959 147.04 185.296 149.369 185.296H166.335C167.998 185.296 169.329 183.965 169.329 182.302C169.329 180.971 168.663 179.973 167.333 179.64L151.365 171.989Z" fill="#0081C6"/>
<path d="M418.164 171.989C414.505 170.658 411.844 166.999 411.844 162.674C411.844 157.019 416.501 152.694 421.824 152.694H439.788C442.117 152.694 443.78 154.358 443.78 156.686C443.78 159.015 442.117 160.678 439.788 160.678H421.824C420.826 160.678 419.828 161.676 419.828 162.674C419.828 163.34 420.16 164.338 421.158 164.67L437.126 171.989C441.119 173.652 444.113 177.644 444.113 182.302C444.113 188.29 439.123 193.28 433.134 193.28H416.168C413.84 193.28 412.176 191.616 412.176 189.288C412.176 186.959 413.84 185.296 416.168 185.296H433.134C434.798 185.296 436.129 183.965 436.129 182.302C436.129 180.971 435.463 179.973 434.132 179.64L418.164 171.989Z" fill="#0081C6"/>
<path d="M454.757 171.989C451.098 170.658 448.437 166.999 448.437 162.674C448.437 157.019 452.761 152.694 458.417 152.694H476.381C478.709 152.694 480.373 154.358 480.373 156.686C480.373 159.015 478.709 160.678 476.381 160.678H458.417C457.419 160.678 456.421 161.676 456.421 162.674C456.421 163.34 456.753 164.338 457.751 164.338L473.719 171.656C477.711 173.32 480.705 177.312 480.705 181.969C480.705 187.957 475.715 192.947 469.727 192.947H452.761C450.433 192.947 448.769 191.284 448.769 188.955C448.769 186.626 450.433 184.963 452.761 184.963H469.727C471.391 184.963 472.721 183.632 472.721 181.969C472.721 180.638 472.056 179.64 470.725 179.308L454.757 171.989Z" fill="#0081C6"/>
<path d="M242.182 160.678C245.842 156.021 251.83 152.694 258.151 152.694C269.129 152.694 278.111 161.676 278.111 172.654C278.111 183.632 269.129 192.614 258.151 192.614C247.172 192.614 238.19 183.632 238.19 172.654C238.19 170.658 238.523 169.66 238.856 167.664C239.188 165.668 241.184 164.67 242.848 164.67C245.176 164.67 247.172 166.666 246.84 169.66C246.174 170.658 246.174 171.656 246.174 172.654C246.174 179.308 251.497 184.63 258.151 184.63C264.804 184.63 270.127 179.308 270.127 172.654C270.127 166.001 264.804 160.678 258.151 160.678H242.182Z" fill="#0081C6"/>
<path d="M497.671 166.334C496.008 167.997 494.012 168.663 492.016 168.663C489.687 168.663 487.691 167.997 486.028 166.334C484.365 164.671 483.699 162.675 483.699 160.346C483.699 158.017 484.697 156.021 486.361 154.358C488.024 152.695 490.02 152.029 492.016 152.029C494.345 152.029 496.341 152.695 498.004 154.358C499.667 156.021 500.333 158.017 500.333 160.346C500 162.675 499.335 164.671 497.671 166.334ZM487.026 155.356C485.695 156.687 485.03 158.35 485.03 160.013C485.03 162.009 485.695 163.673 487.026 165.003C488.357 166.334 490.02 166.999 492.016 166.999C494.012 166.999 495.343 166.334 496.673 165.003C498.004 163.673 498.669 162.009 498.669 160.013C498.669 158.017 498.004 156.687 496.673 155.356C495.343 154.025 493.679 153.36 492.016 153.36C490.02 153.36 488.357 154.025 487.026 155.356ZM488.024 165.003V155.689C488.689 155.689 489.355 155.689 490.685 155.689C491.683 155.689 492.349 155.689 492.681 155.689C493.347 155.689 494.012 156.021 494.345 156.021C495.01 156.354 495.675 157.352 495.675 158.35C495.675 159.015 495.343 159.681 495.01 160.013C494.677 160.346 494.012 160.679 493.347 160.679C494.012 160.679 494.345 161.011 494.677 161.344C495.343 161.677 495.343 162.342 495.343 163.34V164.005V164.338V164.671V165.003H493.014C493.014 164.671 493.014 164.338 493.014 163.673C493.014 163.007 493.014 162.675 493.014 162.675C493.014 162.342 492.681 162.009 492.349 162.009C492.016 162.009 492.016 162.009 491.683 162.009H491.018H490.353V165.336H488.024V165.003ZM492.681 157.685C492.349 157.685 492.016 157.352 491.351 157.352H490.685V160.013H491.683C492.349 160.013 492.681 160.013 493.014 159.681C493.347 159.348 493.347 159.015 493.347 158.683C493.347 158.017 493.014 157.685 492.681 157.685Z" fill="#0081C6"/>
</g>
<defs>
<clipPath id="clip0_28_1279">
<rect width="500" height="192.615" fill="white"/>
</clipPath>
</defs>
</svg>
