<svg width="500" height="126" viewBox="0 0 500 126" fill="none" xmlns="http://www.w3.org/2000/svg">
<g clip-path="url(#clip0_28_1278)">
<path d="M0.292969 1.88965H499.739V125.18H0.292969V1.88965Z" fill="#0072BA"/>
<path d="M0.292969 1.88965H122.019V125.18H0.292969V1.88965Z" fill="#041556"/>
<path d="M122.02 87.2969H499.739V125.18H122.02V87.2969Z" fill="#FDBB11"/>
<path fill-rule="evenodd" clip-rule="evenodd" d="M245.342 96.2871H249.544C252.736 96.2871 255.961 96.906 255.961 100.782C255.961 102.704 254.332 104.3 252.41 104.626C253.062 104.952 253.387 105.277 254.039 106.222L257.231 112.965H254.658L252.084 107.199C251.466 105.57 250.488 105.57 249.218 105.57H247.589V112.965H245.342V96.2871ZM247.589 103.681H249.544C251.791 103.681 253.062 102.704 253.062 101.108C253.062 99.5119 251.791 98.5347 249.837 98.5347H247.589V103.681Z" fill="#041556"/>
<path d="M272.964 96.2871H276.189L283.583 110.066V96.2871H286.156V113.29H282.931L275.537 99.4793H275.211V113.29H272.964V96.2871Z" fill="#041556"/>
<path fill-rule="evenodd" clip-rule="evenodd" d="M308.631 96.2871H311.205L318.273 113.29H315.7L314.104 109.121H306.058L304.462 113.29H301.889L308.631 96.2871ZM309.576 98.8604L306.384 107.199H313.126L309.576 98.8604Z" fill="#041556"/>
<path d="M334.984 98.5347H329.837V96.2871H342.671V98.5347H337.524V113.29H334.984V98.5347Z" fill="#041556"/>
<path d="M357.785 96.2871H360.358V113.29H357.785V96.2871Z" fill="#041556"/>
<path fill-rule="evenodd" clip-rule="evenodd" d="M384.756 113.616C380.326 113.616 376.71 109.74 376.71 104.952C376.71 100.163 380.326 96.2871 384.756 96.2871C389.186 96.2871 392.769 100.163 392.769 104.952C392.769 109.74 389.186 113.616 384.756 113.616ZM390.228 104.626C390.228 100.88 387.785 97.8832 384.756 97.8832C381.726 97.8832 379.283 100.88 379.283 104.626C379.283 108.339 381.726 111.369 384.756 111.369C387.785 111.369 390.228 108.339 390.228 104.626Z" fill="#041556"/>
<path d="M409.153 96.2871H412.378L419.772 110.066V96.2871H422.02V113.29H419.121L411.401 99.4793V113.29H409.153V96.2871Z" fill="#041556"/>
<path fill-rule="evenodd" clip-rule="evenodd" d="M444.495 96.2871H447.068L454.136 113.29H451.563L449.967 109.121H441.921L440.325 113.29H437.752L444.495 96.2871ZM445.765 98.8604L442.573 107.199H449.315L445.765 98.8604Z" fill="#041556"/>
<path d="M469.544 96.2871H471.792V111.043H478.86V113.29H469.544V96.2871Z" fill="#041556"/>
<path d="M61.3023 17.6221C65.7974 21.7915 70.6182 26.2866 74.7876 30.7817L69.9668 37.1986V37.5243L83.1589 43.2898L92.1492 37.1986L86.6769 31.1074V30.7817C92.1492 26.9055 96.97 23.0618 102.084 19.5439L99.5433 46.5146H23.0938L20.5205 19.5439C25.9602 23.0618 30.4879 26.9055 35.9277 30.7817V31.1074L30.4879 37.1986L39.4782 43.2898L52.6378 37.5243V37.1986L47.8169 30.7817C51.6606 26.2866 56.8072 21.7915 61.3023 17.6221Z" fill="#FEFEFE"/>
<path d="M98.892 51.3359L98.2406 60.3262H69.967V91.1405H83.778C87.0028 91.1405 90.2275 87.9157 89.5761 85.6682C88.9246 82.476 86.0256 80.5542 83.4849 78.9255C84.1038 78.9255 93.4197 71.8571 97.9148 68.9907C97.5891 70.9125 94.7227 96.2871 94.3969 96.5802L61.3025 109.121H60.651L28.208 96.5802C28.208 96.2871 25.0158 70.9125 24.6901 68.9907C29.1852 71.8571 38.5012 78.9255 39.1526 78.9255C36.5793 80.5542 33.6803 82.476 33.0289 85.6682C32.41 87.9157 35.6021 91.1405 38.8269 91.1405H52.638V60.3262H24.3644L23.7129 51.3359H98.892Z" fill="#FEFEFE"/>
<path fill-rule="evenodd" clip-rule="evenodd" d="M142.899 35.2771C142.899 26.6126 142.573 24.9839 136.156 24.6582V23.7136L149.967 23.3878C164.397 23.0621 165.375 30.1305 165.375 32.7038C165.375 37.5247 162.476 40.3911 158.306 42.0198L158.632 42.3455C163.127 50.0328 168.599 60.0002 177.915 61.9221L177.59 62.8667C171.466 62.5735 166.971 62.8667 163.778 59.3488C159.902 55.5051 157.036 50.3585 155.733 47.7852C153.485 42.9644 151.564 44.2673 147.394 43.6159V52.9318C147.394 59.3488 147.394 60.326 155.407 61.5963V62.5735H135.505V61.5963C142.248 60.6191 142.248 59.023 142.573 52.9318L142.899 35.2771ZM148.046 42.6712C153.485 42.6712 159.935 40.0979 159.935 33.681C159.935 26.9383 154.137 24.365 148.046 24.365V42.6712Z" fill="#FEFEFE"/>
<path fill-rule="evenodd" clip-rule="evenodd" d="M186.091 62.8666C178.371 62.8666 172.117 56.9383 172.117 49.5442C172.117 42.1826 178.371 36.2217 186.091 36.2217C193.844 36.2217 200.065 42.1826 200.065 49.5442C200.065 56.9383 193.844 62.8666 186.091 62.8666ZM186.254 37.8503C180.163 37.8503 177.589 44.2673 177.589 49.707C177.589 55.1793 180.456 61.922 186.58 61.922C192.345 61.922 194.918 55.1793 194.918 50.3585C195.244 44.8862 192.671 37.8503 186.254 37.8503Z" fill="#FEFEFE"/>
<path d="M202.313 42.3457C201.336 39.7724 201.043 39.1209 198.144 38.7952V37.8506H210.033V38.7952C205.831 39.1209 206.808 41.6942 208.111 44.5933L213.551 59.349L217.101 49.0884C219.675 41.6942 219.968 39.4467 215.798 39.1209V38.1437H225.766V39.1209C223.192 39.4467 222.541 40.3913 221.271 42.6389L219.023 47.7854L210.359 69.9353C208.111 75.4076 206.808 77.0037 204.56 77.0037C202.964 77.0037 201.661 75.7333 201.661 74.1047C201.661 72.8343 202.313 71.8571 203.583 71.5639C204.235 71.8571 205.831 73.16 206.482 73.16C207.785 73.16 208.73 69.9353 209.056 69.3164L210.977 64.8213L202.313 42.3457Z" fill="#FEFEFE"/>
<path fill-rule="evenodd" clip-rule="evenodd" d="M237.003 48.1114C237.329 41.6944 235.733 39.1211 231.205 39.1211C227.362 39.1211 227.687 41.043 227.687 44.2677L225.114 44.5935C224.788 44.5935 223.844 44.5935 223.844 43.942C223.844 42.3459 230.261 36.5479 234.756 36.5479C239.902 36.5479 241.498 40.7172 241.498 45.2123V53.258C241.498 58.372 241.173 61.5967 246.319 60.6195V61.9224C244.061 62.5522 242.128 62.8671 240.521 62.8671C238.274 62.8671 237.329 61.5967 237.003 59.3492C235.082 61.271 232.834 63.1928 229.609 63.1928C226.091 63.1928 223.844 60.0006 223.844 56.7759C223.844 55.8312 223.844 55.1798 224.169 54.2026L237.003 48.1114ZM229.283 53.258C228.958 53.9094 228.958 54.854 228.958 55.5055C228.958 58.0788 230.228 60.0006 232.801 60.0006C234.43 60.0006 236.026 59.0234 237.003 57.7531V49.0886L229.283 53.258Z" fill="#FEFEFE"/>
<path d="M243.746 62.5739V61.271C247.59 60.9452 248.241 60.0006 248.241 56.1244V31.727C248.241 29.1537 248.241 28.5348 245.342 26.613V25.6358L251.792 23.0625L252.411 23.3882V55.8312C252.411 60.6195 252.736 60.9452 256.906 61.5967V62.5739H243.746Z" fill="#FEFEFE"/>
<path fill-rule="evenodd" clip-rule="evenodd" d="M310.879 48.1114C311.205 41.6944 309.609 39.1211 305.081 39.1211C301.238 39.1211 301.563 41.043 301.563 44.2677L298.99 44.5935C298.664 44.5935 297.72 44.5935 297.72 43.942C297.72 42.3459 303.811 36.5479 308.632 36.5479C313.778 36.5479 315.374 40.7172 315.374 45.2123V53.258C315.374 58.372 314.723 61.9224 320.195 60.6195V61.9224C317.937 62.5522 316.004 62.8671 314.397 62.8671C312.15 62.8671 311.205 61.5967 310.879 59.3492C308.958 61.271 306.71 63.1928 303.485 63.1928C299.967 63.1928 297.72 60.0006 297.72 56.7759C297.72 55.8312 297.72 55.1798 298.045 54.2026L310.879 48.1114ZM303.159 53.258C302.834 53.9094 302.834 54.854 302.834 55.5055C302.834 58.0788 304.104 60.0006 306.677 60.0006C308.306 60.0006 309.902 59.0234 310.879 57.7531V49.0886L303.159 53.258Z" fill="#FEFEFE"/>
<path d="M294.169 35.277H293.224C292.247 28.8601 288.403 24.0393 281.661 24.0393C271.368 24.0393 265.276 32.7038 265.276 42.6386C265.276 53.8764 273.941 61.922 281.954 61.922C289.348 61.922 292.247 56.4497 294.82 50.0327L295.472 50.3585C294.82 53.8764 293.843 57.4269 292.247 60.6191C288.729 62.5735 284.527 63.1924 280.684 63.1924C268.794 63.1924 258.208 56.1239 258.208 43.2901C258.208 33.0295 266.221 22.7363 281.009 22.7363C285.179 22.7363 289.674 23.7135 293.517 25.9611V35.277H294.169Z" fill="#FEFEFE"/>
<path fill-rule="evenodd" clip-rule="evenodd" d="M446.417 48.1114C446.743 41.6944 445.147 39.1211 440.652 39.1211C436.775 39.1211 437.101 41.043 437.101 44.2677L434.202 44.5935C433.909 44.5935 432.932 44.5935 432.932 43.942C432.932 42.3459 439.349 36.5479 443.844 36.5479C448.99 36.5479 450.586 40.7172 450.586 45.2123V53.258C450.586 58.372 449.642 61.5967 455.081 61.271V62.2482C452.834 62.8671 451.564 62.8671 449.967 62.8671C447.72 62.8671 446.743 61.5967 446.417 59.3492C444.495 61.271 442.248 63.1928 439.023 63.1928C435.505 63.1928 433.257 60.0006 433.257 56.7759C433.257 55.8312 433.257 55.1798 433.583 54.2026L446.417 48.1114ZM438.697 53.258C438.371 53.9094 438.371 54.854 438.371 55.5055C438.371 58.0788 439.674 60.0006 442.248 60.0006C443.844 60.0006 445.44 59.0234 446.417 57.7531V49.0886L438.697 53.258Z" fill="#FEFEFE"/>
<path d="M326.612 55.8312C326.612 60.6195 326.938 60.9452 332.41 61.5967V62.5739H318.273V61.271C322.117 60.9452 322.443 60.0006 322.443 55.5055V44.8866C322.443 42.3459 322.443 41.6944 319.544 39.7726V39.1211L326.286 36.5479L326.938 36.8736L326.612 43.6163C327.915 40.7172 331.107 36.5479 334.658 36.5479C336.254 36.5479 337.524 37.5251 337.524 39.1211C337.524 40.7172 335.928 42.0202 334.658 42.6391C333.681 42.0202 332.41 40.7172 331.107 40.7172C326.286 41.043 326.612 49.0886 326.612 49.7075V55.8312Z" fill="#FEFEFE"/>
<path d="M348.469 26.9055C348.469 28.5342 347.166 29.8045 345.57 29.8045C343.974 29.8045 342.671 28.5342 342.671 26.9055C342.671 25.3094 343.974 24.0391 345.57 24.0391C347.166 24.0391 348.469 25.3094 348.469 26.9055ZM339.153 62.5733V61.5961C343.323 60.9446 343.648 60.3257 343.648 55.8306V44.886C343.648 42.3453 343.648 41.6938 340.098 39.772V39.1205L347.492 36.5472L348.144 36.8729V55.8306C348.144 60.6189 348.469 60.9446 352.639 61.5961V62.5733H339.153Z" fill="#FEFEFE"/>
<path fill-rule="evenodd" clip-rule="evenodd" d="M354.56 31.4013C354.56 28.8605 354.56 28.2091 351.661 26.2873V25.6358L358.078 23.0625L358.73 23.3882V39.7726C361.629 38.1439 365.146 36.5478 368.371 36.5478C374.788 36.5478 378.958 42.3459 378.958 48.4371C378.958 58.6977 369.642 63.1928 363.55 63.1928C360.032 63.1928 357.459 62.2482 354.56 60.9452V31.4013ZM359.055 50.6847C359.055 56.1244 359.707 61.271 366.124 61.271C369.348 61.271 374.462 58.6977 374.462 50.6847C374.462 43.6162 369.967 39.4469 364.528 39.4469C362.606 39.4469 360.977 40.0983 359.381 40.7172L359.055 50.6847Z" fill="#FEFEFE"/>
<path fill-rule="evenodd" clip-rule="evenodd" d="M381.856 31.4013C381.856 28.8605 381.856 28.2091 378.957 26.2873V25.6358L385.407 23.0625L386.025 23.3882V39.7726C388.924 38.1439 392.475 36.5478 395.667 36.5478C402.084 36.5478 406.286 42.3459 406.286 48.4371C406.286 58.6977 396.97 63.1928 390.846 63.1928C387.328 63.1928 384.755 62.2482 381.856 60.9452V31.4013ZM386.351 50.6847C386.351 56.1244 387.003 61.271 393.42 61.271C396.644 61.271 401.791 58.6977 401.791 50.6847C401.791 43.6162 397.296 39.4469 391.823 39.4469C389.902 39.4469 388.273 40.0983 386.677 40.7172L386.351 50.6847Z" fill="#FEFEFE"/>
<path fill-rule="evenodd" clip-rule="evenodd" d="M413.974 47.7856C413.648 53.8768 417.525 59.3492 423.942 59.3492C426.841 59.3492 429.088 58.0788 430.684 55.8312L431.661 56.4501C429.414 60.3264 425.538 63.1928 421.043 63.1928C413.974 63.1928 409.153 57.4273 409.153 50.3589C409.153 42.9648 414.3 36.5479 422.02 36.5479C427.166 36.5479 430.684 39.7726 430.684 44.8866H414.3L413.974 47.7856ZM425.212 43.2905C424.593 40.7498 422.964 37.5251 420.065 37.5251C416.873 37.5251 414.951 40.7498 414.3 43.6163L425.212 43.2905Z" fill="#FEFEFE"/>
<path d="M457.654 44.8866C457.654 42.3459 457.654 41.6944 454.788 39.7726V39.1211L461.531 36.5479L462.149 36.8736L461.856 41.043C465.048 38.4697 468.273 36.5479 471.791 36.5479C478.534 36.5479 478.86 42.3459 478.86 45.5381V55.8312C478.86 60.6195 479.185 60.9452 483.355 61.5967V62.5739H470.195V61.5967C474.364 60.9452 474.69 60.3264 474.69 55.8312V49.0886C474.69 44.8866 475.016 39.4469 467.947 39.4469C465.7 39.4469 464.104 40.0983 462.149 42.0202V55.8312C462.149 60.6195 462.475 60.9452 466.645 61.5967V62.5739H453.159V61.5967C457.329 61.271 457.654 60.3264 457.654 55.8312V44.8866Z" fill="#FEFEFE"/>
<path d="M143.225 96.2871H145.472V113.29H143.225V96.2871Z" fill="#041556"/>
<path d="M162.801 96.2871H166.026L173.42 110.066V96.2871H175.96V113.29H172.768L165.048 99.4793V113.29H162.801V96.2871Z" fill="#041556"/>
<path d="M196.221 98.5347H191.074V96.2871H203.908V98.5347H198.794V113.29H196.221V98.5347Z" fill="#041556"/>
<path d="M219.349 96.2871H228.665V98.5347H221.596V103.323H228.013V105.57H221.596V111.043H228.665V113.29H219.349V96.2871Z" fill="#041556"/>
</g>
<defs>
<clipPath id="clip0_28_1278">
<rect width="500" height="125.407" fill="white"/>
</clipPath>
</defs>
</svg>
