<svg width="500" height="294" viewBox="0 0 500 294" fill="none" xmlns="http://www.w3.org/2000/svg">
<g clip-path="url(#clip0_28_1274)">
<path d="M197.993 61.063H128.977L128.488 293.564H68.649V61.5525L0 61.063V0.857422H197.993V61.063Z" fill="#9C1C26"/>
<path d="M370.044 51.3947L405.041 1.3457H469.407L405.041 106.216L471.732 210.474H406.265L369.799 157.733L279.001 293.074H214.146L335.78 106.461L268.722 1.3457H335.169L370.044 51.3947Z" fill="#9C1C26"/>
<path d="M262.849 180.739C258.199 222.589 230.543 261.013 192.854 279.491C175.6 287.69 156.632 293.074 135.585 292.829V234.581C167.156 233.603 192.731 213.289 202.276 185.879C203.867 183.309 204.112 179.148 204.846 176.089L205.335 0H263.094L262.849 180.739Z" fill="#9C1C26"/>
<path d="M500 19.2126C500 10.2796 492.658 2.9375 483.725 2.9375C474.67 2.9375 467.327 10.2796 467.45 19.2126C467.45 28.2679 474.792 35.4877 483.725 35.4877C492.658 35.4877 500 28.2679 500 19.2126ZM498.164 19.2126C498.164 27.1666 491.679 33.6521 483.725 33.6521C475.771 33.6521 469.285 27.1666 469.285 19.2126C469.285 11.2586 475.771 4.77304 483.602 4.77304C491.679 4.77304 498.164 11.2586 498.164 19.2126ZM477.606 27.7784H479.931V20.0692H485.805C489.599 20.0692 488.497 23.3731 488.864 25.4534L489.231 27.7784H491.924C490.945 26.1876 491.312 25.8205 491.067 23.4955C490.822 20.4363 490.7 20.0692 488.864 18.9678C490.578 17.6218 491.312 16.7652 491.189 14.4402C490.945 10.402 488.253 9.79017 485.438 9.79017H477.606V27.7784ZM485.683 11.8704C487.151 11.8704 489.354 12.2375 488.987 15.2968C488.742 17.6218 487.274 17.9889 485.683 17.9889H479.931V11.7481L485.683 11.8704Z" fill="#9C1C26"/>
</g>
<defs>
<clipPath id="clip0_28_1274">
<rect width="500" height="293.563" fill="white"/>
</clipPath>
</defs>
</svg>
