<svg width="500" height="221" viewBox="0 0 500 221" fill="none" xmlns="http://www.w3.org/2000/svg">
<g clip-path="url(#clip0_28_1269)">
<path d="M159.479 16.7908C157.713 23.2654 152.385 29.4612 148.482 35.0683C145.776 39.3021 143.06 43.5256 140.334 47.7387C129.182 63.2282 133.333 61.6173 121.189 77.1687C110.873 90.3657 103.841 96.2517 96.437 103.222C78.4383 120.198 63.8782 122.398 60.4705 121.964C54.7704 120.198 47.7381 121.531 48.6365 112.702C48.7295 111.834 49.2871 107.807 49.5039 106.878C49.7208 105.948 48.9463 104.244 49.7208 104.182C44.5783 103.005 27.4779 115.025 22.0566 118.247C14.8385 122.491 10.4705 121.809 7.49651 120.013C-12.4849 107.094 13.1966 81.3818 21.1272 68.3397C22.893 65.8304 23.6675 64.994 24.6588 63.476C27.0132 59.6346 43.7728 42.2245 44.0517 55.7623C44.1136 59.108 41.8212 62.051 40.2103 64.8081C36.4618 71.1278 31.3813 78.253 25.9909 83.4574C20.8794 88.3831 13.2276 94.7648 11.4928 101.828C10.9971 103.78 11.245 106.63 13.4445 107.28C17.9054 108.612 24.5039 103.935 26.4556 102.448C28.4383 100.93 34.0455 96.7474 37.7629 94.362C44.2995 90.2108 50.867 85.3162 56.815 80.1427C61.4618 76.0535 64.5597 69.5479 70.3528 67.2555C70.6626 67.1935 70.9414 67.0696 71.2202 67.0076C71.499 66.9457 71.7778 66.9147 72.0566 66.8837C73.6675 66.7288 75.3714 66.8527 76.5486 67.844C76.9513 68.7115 77.354 69.5789 77.7567 70.4153C77.6535 71.6132 77.5605 72.8007 77.4779 73.9779C74.5659 82.1563 54.1508 102.54 58.6737 111.586C60.1297 114.56 68.2772 111.679 69.8881 110.657C91.4494 96.8094 113.816 76.3013 132.651 41.0473C137.019 32.9308 142.905 25.7127 146.437 17.4723C147.986 13.8788 147.583 7.52807 146.747 3.34591C146.437 1.02249 150.65 -0.34058 150.774 0.155083C157.032 0.557809 161.09 10.8738 159.479 16.7908Z" fill="black"/>
<path fill-rule="evenodd" clip-rule="evenodd" d="M355.018 74.6285V59.5108H358.798C360.326 59.5108 361.544 59.8825 362.453 60.626C363.341 61.3902 363.785 62.4125 363.785 63.693C363.785 64.581 363.568 65.3452 363.135 65.9854C362.68 66.6256 362.04 67.1006 361.214 67.4104C361.71 67.7409 362.195 68.1746 362.67 68.7115C363.124 69.2692 363.775 70.2295 364.622 71.5926C365.138 72.46 365.551 73.1105 365.861 73.5443L366.666 74.6285H364.095L363.444 73.6062C363.424 73.5856 363.382 73.5339 363.32 73.4513L362.887 72.8317L362.236 71.7475L361.493 70.5393C361.059 69.9197 360.656 69.4344 360.285 69.0833C359.913 68.7115 359.572 68.4431 359.262 68.2778C358.973 68.1126 358.467 68.03 357.744 68.03H357.187V74.6285H355.018ZM357.837 61.3386H357.187V66.1093H358.023C359.118 66.0887 359.861 65.9957 360.254 65.8305C360.667 65.624 360.987 65.3348 361.214 64.9631C361.441 64.5913 361.555 64.168 361.555 63.693C361.555 63.2179 361.42 62.7842 361.152 62.3918C360.904 61.9994 360.553 61.731 360.099 61.5864C359.644 61.4212 358.89 61.3386 357.837 61.3386ZM372.769 59.5108H381.319V61.4315H374.938V66.0474H381.102V67.999H374.938V72.6768H381.536V74.6285H372.769V59.5108ZM392.007 68.2778L390.365 67.2865C389.332 66.6463 388.599 66.0164 388.166 65.3968C387.732 64.7979 387.515 64.106 387.515 63.3212C387.515 62.1234 387.928 61.1527 388.754 60.4092C389.58 59.6657 390.654 59.2939 391.976 59.2939C393.236 59.2939 394.392 59.645 395.446 60.3472V62.7946C394.351 61.7619 393.174 61.2456 391.914 61.2456C391.212 61.2456 390.634 61.4108 390.179 61.7413C389.725 62.0717 389.498 62.4848 389.498 62.9804C389.498 63.4348 389.663 63.8582 389.993 64.2506C390.344 64.643 390.881 65.056 391.604 65.4897L393.277 66.4811C395.115 67.5963 396.034 69.0007 396.034 70.6942C396.034 71.9127 395.632 72.8937 394.826 73.6372C394.021 74.4013 392.967 74.7834 391.666 74.7834C390.159 74.7834 388.795 74.3187 387.577 73.3894V70.6322C388.754 72.1192 390.107 72.8627 391.635 72.8627C392.317 72.8627 392.885 72.6768 393.339 72.3051C393.773 71.9333 393.99 71.4583 393.99 70.8801C393.99 69.9714 393.329 69.1039 392.007 68.2778ZM410.254 59.2939C412.587 59.2939 414.529 60.0271 416.078 61.4935C417.647 62.9804 418.432 64.8392 418.432 67.0697C418.432 69.3001 417.647 71.1382 416.078 72.5839C414.508 74.0502 412.525 74.7834 410.13 74.7834C407.858 74.7834 405.968 74.0502 404.46 72.5839C402.932 71.1382 402.178 69.3105 402.199 67.1006C402.199 64.8495 402.953 62.9804 404.46 61.4935C405.989 60.0271 407.92 59.2939 410.254 59.2939ZM410.346 61.3386C408.632 61.3386 407.218 61.8755 406.102 62.9495C404.987 64.044 404.43 65.4278 404.43 67.1006C404.43 68.7322 404.987 70.0953 406.102 71.1899C407.218 72.2638 408.612 72.8008 410.285 72.8008C411.978 72.8008 413.393 72.2535 414.529 71.1589C415.644 70.0436 416.202 68.6702 416.202 67.0387C416.202 65.4278 415.644 64.075 414.529 62.9804C413.393 61.8859 411.999 61.3386 410.346 61.3386ZM425.588 74.6285V59.5108H429.368C430.896 59.5108 432.114 59.8825 433.023 60.626C433.911 61.3902 434.355 62.4125 434.355 63.693C434.355 64.581 434.138 65.3452 433.705 65.9854C433.25 66.6256 432.61 67.1006 431.784 67.4104C432.28 67.7409 432.765 68.1746 433.24 68.7115C433.694 69.2692 434.345 70.2295 435.192 71.5926C435.708 72.46 436.121 73.1105 436.431 73.5443L437.236 74.6285H434.665L434.014 73.6062C433.994 73.5856 433.952 73.5236 433.89 73.4203L433.457 72.8317L432.775 71.7475L432.063 70.5393C431.629 69.9197 431.226 69.4241 430.855 69.0523C430.483 68.7012 430.142 68.4431 429.832 68.2778C429.543 68.1126 429.037 68.03 428.314 68.03H427.757V74.6285H425.588ZM428.407 61.3386H427.788V66.0783H428.593C429.688 66.0783 430.431 65.9957 430.824 65.8305C431.237 65.624 431.557 65.3348 431.784 64.9631C432.011 64.5913 432.125 64.168 432.125 63.693C432.125 63.2179 432.001 62.7842 431.753 62.3918C431.505 61.9994 431.144 61.731 430.669 61.5864C430.235 61.4212 429.481 61.3386 428.407 61.3386ZM440.055 59.5108H452.695V61.4315H447.428V74.6285H445.229V61.4315H440.055V59.5108ZM462.887 68.2778L461.245 67.2865C460.212 66.6463 459.479 66.0267 459.045 65.4278C458.612 64.8082 458.395 64.106 458.395 63.3212C458.395 62.1234 458.808 61.1527 459.634 60.4092C460.46 59.6657 461.534 59.2939 462.856 59.2939C464.116 59.2939 465.272 59.645 466.325 60.3472V62.8255C465.231 61.7929 464.054 61.2766 462.794 61.2766C462.092 61.2559 461.513 61.4108 461.059 61.7413C460.605 62.0717 460.377 62.4951 460.377 63.0114C460.377 63.4658 460.553 63.8892 460.904 64.2816C461.235 64.674 461.772 65.087 462.515 65.5207L464.157 66.512C465.995 67.6066 466.914 69.011 466.914 70.7252C466.914 71.923 466.511 72.904 465.706 73.6682C464.9 74.4323 463.847 74.8144 462.546 74.8144C461.059 74.8144 459.696 74.3497 458.457 73.4203V70.6632C459.634 72.1502 460.987 72.8937 462.515 72.8937C463.197 72.8937 463.764 72.7078 464.219 72.3361C464.673 71.9643 464.9 71.4893 464.9 70.911C464.9 70.0023 464.229 69.1246 462.887 68.2778ZM321.809 123.885C312.67 124.783 308.829 122.832 306.846 119.114C305.978 117.472 306.257 112.949 307.589 108.148C308.674 104.12 307.342 99.8454 304.522 101.58C301.672 103.346 286.586 116.915 284.82 118.433C283.085 119.951 276.332 126.487 273.451 124.102C269.733 121.066 269.95 117.782 270.631 114.715C271.282 111.648 272.676 105.422 273.234 104.213C274.783 100.93 274.999 97.2122 271.716 98.0796C268.432 98.947 263.413 102.912 261.648 103.78C259.882 104.647 239.343 118.216 236.059 120.168C232.775 122.15 229.925 123.451 227.075 121.716C224.256 119.951 223.605 116.45 223.822 113.166C224.039 109.883 225.34 104.647 225.774 102.664C226.208 100.713 225.774 96.3447 222.924 98.2964C220.074 100.279 204.12 114.065 202.385 115.583C200.619 117.101 195.167 121.933 191.449 120.601C188.692 119.641 184.882 117.999 185.315 114.282C185.749 110.564 188.382 106.165 189.25 103.098C190.117 100.062 192.967 90.4278 186.617 91.512C181.381 92.4104 164.745 102.943 160.47 106.785C158.581 108.488 157.156 111.431 157.372 113.941C160.811 158.458 134.572 204.028 92.8434 217.41C86.5546 219.424 78.9648 220.322 72.0565 220.199C71.4059 220.168 70.6005 220.075 70.0429 219.92C61.2758 220.57 51.9202 216.481 44.826 212.702C40.2102 210.223 36.3997 206.165 34.1383 201.642C23.3576 180.267 55.8235 158.272 68.9896 146.376C76.6311 140.077 84.2622 133.778 91.883 127.479C96.6228 123.358 108.705 115.366 108.705 115.366C108.705 115.366 109.107 107.59 116.945 98.3584C122.366 91.9767 127.199 85.0065 130.576 77.6025C132.063 74.3187 132.589 69.9197 132.311 66.2022C132.311 64.6843 133.859 62.9185 135.935 63.0114C141.573 63.693 144.175 72.3051 142.441 77.6025C140.52 83.3646 135.408 88.7549 131.598 93.6496C126.579 99.0399 130.607 94.7338 120.012 107.373C118.339 109.387 117.874 114.839 120.26 113.6C127.973 109.821 134.882 103.997 141.604 98.6062C146.406 94.7338 149.969 88.7859 156.536 87.8875C159.665 87.4228 160.842 89.4984 160.935 92.2865C160.935 92.8132 161.369 92.9371 161.369 93.061C162.174 92.999 162.98 92.9371 163.785 92.8751C164.715 92.6583 190.024 83.5195 192.317 82.5591C196.468 80.7933 201.703 79.7091 202.168 82.1254C202.602 84.5108 204.553 86.0597 202.168 91.2952C199.752 96.5616 199.318 99.1638 199.101 100.496C198.884 101.797 198.884 105.515 201.703 103.346C204.553 101.146 225.774 86.2766 228.407 84.9445C231.009 83.6434 237.794 82.1254 236.926 89.0957C236.276 94.486 234.975 99.4117 234.51 102.448C234.076 105.515 234.076 112.082 239.56 109.449C245.043 106.816 257.28 100.062 261.864 96.7785C266.449 93.4947 273.451 88.662 274.783 87.3609C276.084 86.0597 280.669 83.2097 282.868 84.2939C285.037 85.3782 287.67 87.7946 286.369 91.512C285.037 95.2295 282.651 101.58 281.567 103.346C280.452 105.081 281.753 109.666 285.935 106.165C290.086 102.664 304.522 92.8441 306.474 91.0783C308.457 89.3435 313.475 86.0288 316.109 86.2766C318.525 86.4935 321.127 90.2109 319.826 95.4464C319.175 98.0176 316.759 109.015 316.976 110.781C317.224 112.516 317.626 117.999 323.327 116.45C329.027 114.932 334.479 113.848 334.479 113.848C335.811 113.6 378.655 105.36 385.563 105.855C411.276 107.683 418.618 114.282 445.941 112.144C448.853 111.679 459.913 111.06 465.613 112.918C466.852 113.321 467.967 114.405 467.007 115.738C462.639 121.902 455.545 121.438 448.853 121.438C448.42 121.438 428.066 121.004 422.459 120.322C415.675 119.951 394.578 113.383 387.422 113.383C371.716 111.741 337.546 121.066 335.13 121.5C335.13 121.5 323.327 123.761 321.809 123.885ZM147.211 116.295C146.902 114.715 146.592 113.166 146.282 111.586C145.91 110.254 142.874 111.308 142.688 111.834C138.475 115.056 127.509 119.61 122.118 120.384C119.392 120.787 117.069 119.889 114.714 120.075C107.775 125.248 100.836 130.422 93.8967 135.595C82.4344 144.393 71.6228 153.966 61.1519 164.374C53.717 171.778 45.1358 178.718 43.5559 189.282C43.0292 192.782 45.5385 198.389 48.0168 200.062C59.7269 208.055 71.375 207.714 87.1432 206.475C88.1655 206.444 95.3527 204.43 97.3973 203.656C127.973 192.627 138.228 172.677 142.905 141.729C144.144 133.334 147.18 125.279 147.211 116.295ZM477.602 112.485C477.974 111.091 480.607 109.852 482.682 110.254C487.236 111.091 489.281 113.135 489.807 115.985C490.241 118.278 489.281 119.207 488.785 121.004C488.413 122.367 485.78 123.606 483.705 123.234C479.151 122.367 477.54 120.23 476.579 117.472C475.805 115.273 477.106 114.251 477.602 112.485ZM495.012 121.5C497.614 121.5 499.721 123.606 499.721 126.177C499.721 128.78 497.614 130.886 495.012 130.886C492.441 130.886 490.334 128.78 490.334 126.177C490.334 123.606 492.441 121.5 495.012 121.5ZM495.012 130.05C497.149 130.05 498.884 128.315 498.884 126.177C498.884 124.04 497.149 122.336 495.012 122.336C492.905 122.336 491.171 124.04 491.171 126.177C491.171 128.315 492.905 130.05 495.012 130.05ZM493.215 123.482H495.291C496.561 123.482 497.18 124.04 497.18 125.093C497.18 126.023 496.623 126.487 495.91 126.549L497.304 128.842H496.251L494.919 126.642H494.206V128.842H493.215V123.482ZM494.206 125.806H494.919C495.539 125.806 496.189 125.775 496.189 125.062C496.189 124.319 495.539 124.288 494.919 124.319H494.206V125.806Z" fill="black"/>
</g>
<defs>
<clipPath id="clip0_28_1269">
<rect width="500" height="220.26" fill="white"/>
</clipPath>
</defs>
</svg>
