<svg width="500" height="417" viewBox="0 0 500 417" fill="none" xmlns="http://www.w3.org/2000/svg">
<g clip-path="url(#clip0_28_1307)">
<path fill-rule="evenodd" clip-rule="evenodd" d="M16.5278 416.659L214.677 311.813C226.451 312.946 237.775 313.628 249.549 313.628C387.683 313.628 500 242.972 500 156.481C500 69.9655 387.683 0.00585938 249.549 0.00585938C111.635 0.00585938 0 69.9655 0 156.481C0 215.352 51.4115 266.751 127.492 293.249L16.5278 416.659Z" fill="#ED1C24"/>
<path fill-rule="evenodd" clip-rule="evenodd" d="M162.364 85.1426H113.683L115.487 98.953H120.24C126.127 98.953 128.175 99.6333 128.845 99.6333C129.979 100.317 129.979 101 129.979 101.671C129.979 102.351 129.979 105.069 127.492 110.273C125.457 112.994 122.739 117.528 119.57 123.413C119.57 123.413 112.318 134.736 106.881 142.659C101.677 131.335 90.354 106.888 90.354 106.888C89.6713 106.205 89.6713 105.521 89.2204 103.718C88.5377 101.671 87.8674 101 87.8674 101C87.8674 100.317 87.8674 100.317 87.8674 100.317C87.8674 100.317 87.8674 100.317 88.5377 100.317C88.5377 99.6332 90.354 99.6332 96.4725 98.953H102.36L100.312 85.1426H40.3076L42.7942 98.2822L46.8773 98.953C52.7644 99.6332 54.7997 101 55.4824 101C55.4824 101 56.8354 102.351 60.0043 109.606C60.0043 109.606 84.4667 161.003 85.8196 163.72C85.1494 166.438 80.6153 206.065 80.6153 206.065C79.9326 210.599 78.5796 213.987 76.5443 214.67C75.8616 215.352 73.3753 216.486 66.5741 216.486L60.6867 217.169L62.7224 230.527H133.379L130.661 217.169L126.81 216.486C118.205 216.486 114.804 216.035 113.683 215.352C113 215.352 112.318 213.987 111.635 211.952C111.635 211.282 111.635 209.916 111.635 208.1C111.635 206.747 111.635 204.029 112.318 201.311C112.318 201.311 115.487 170.292 116.169 164.404C117.522 162.369 151.272 108.922 151.272 108.922C154.441 103.718 156.477 101.671 157.159 101C157.83 100.317 159.877 99.6332 163.717 98.953L169.153 98.2822L166.435 85.1426H162.364Z" fill="white"/>
<path fill-rule="evenodd" clip-rule="evenodd" d="M178.892 128.851L163.717 132.018L144.703 136.09L146.519 147.875H151.273C155.795 147.875 157.83 147.875 158.513 148.546C158.513 148.546 159.196 149.229 159.196 149.913V150.581C159.196 150.581 159.196 151.947 159.196 152.631L155.112 208.563V212.634C155.112 213.987 155.112 215.352 155.112 217.168C157.16 225.091 161.682 229.162 165.083 231.197C167.801 232.331 170.97 233.013 173.688 233.013C184.328 233.013 193.384 226.444 201.319 213.987C202.672 211.951 204.708 208.563 206.743 205.382C206.073 207.429 206.073 209.233 206.073 211.281V211.951C206.073 213.987 206.743 216.486 206.743 218.521C207.426 223.275 209.924 227.126 212.63 229.162C216.031 231.88 219.882 233.013 223.953 233.013C231.205 233.013 238.445 228.479 244.332 219.203C247.733 215.352 250.232 210.598 252.267 205.382L254.303 201.311L242.98 194.071L235.74 205.382C233.692 208.1 233.021 209.233 233.021 209.233L232.558 209.916C232.558 208.563 232.558 208.1 232.558 208.1L239.128 136.773L239.811 130.667H214.678L213.313 135.419C211.277 146.512 209.924 154.434 208.791 159.87C206.743 167.792 204.708 175.044 201.319 181.614C198.138 188.854 194.067 196.106 190.215 202.676C185.011 210.598 181.61 211.281 180.928 211.281V210.598V209.233V206.064L186.827 136.773V135.419C186.827 133.385 186.144 132.018 185.011 130.667C182.293 128.168 180.257 128.851 178.892 128.851Z" fill="white"/>
<path fill-rule="evenodd" clip-rule="evenodd" d="M288.04 128.851C273.998 132.018 263.589 134.736 256.789 135.42L251.584 136.774L253.62 149.23H258.154C264.26 149.23 266.076 149.23 266.759 149.913C266.759 149.913 267.43 149.913 267.43 150.581V151.264C267.43 151.948 267.43 153.08 267.43 153.08L259.508 230.527H285.322L286.005 225.774C288.04 214.67 289.172 206.065 289.856 200.178C291.893 190.89 293.928 182.967 296.427 177.531C299.145 171.643 303.214 165.075 307.738 158.516C313.635 150.581 316.353 149.913 317.707 149.913C317.707 150.581 317.707 150.581 317.707 151.264V151.948V153.08C317.707 153.764 311.136 230.527 311.136 230.527H336.735L337.402 225.774C338.769 209.234 340.123 199.495 340.804 194.741C341.487 190.22 343.521 184.332 346.008 177.531C348.726 170.975 352.579 164.404 357.332 158.516C360.502 153.08 364.583 150.581 367.301 149.913C367.301 150.581 367.301 150.581 367.301 150.581V153.08L362.549 209.916V213.987C362.549 215.352 362.549 216.486 362.549 217.839C363.903 223.957 366.621 227.809 369.788 230.527C372.506 231.88 375.676 233.014 378.393 233.014C384.965 233.014 390.4 230.527 395.605 225.091C400.139 220.557 404.891 214.67 408.744 207.43L409.415 206.065L411.462 201.994L399.674 194.071L391.751 206.065L391.071 207.43C390.4 208.1 389.717 209.234 389.034 209.916C389.034 209.916 389.034 209.916 389.034 210.599C389.717 204.029 393.567 159.187 393.567 159.187V158.516C393.567 155.118 393.567 153.08 393.567 151.264C393.567 148.546 393.567 147.192 393.567 146.512C392.204 140.624 389.717 136.09 385.645 132.702C381.795 129.984 377.71 128.851 373.189 128.851C363.903 128.851 355.297 134.736 346.008 147.192C345.337 148.547 344.657 149.23 343.521 150.581C343.521 149.23 343.521 147.876 343.521 146.512C342.158 139.941 338.769 134.736 334.235 132.018C330.847 129.984 327.664 128.851 323.595 128.851C314.99 128.851 306.384 134.056 297.778 145.829C296.427 147.876 295.291 149.913 293.928 151.948C294.611 144.025 295.962 132.018 295.962 132.018L290.539 128.168L288.04 128.851Z" fill="white"/>
<path fill-rule="evenodd" clip-rule="evenodd" d="M429.341 91.0265C427.307 95.111 426.624 102.35 426.624 111.639V129.983C426.624 131.334 426.624 137.222 425.953 157.151L425.273 192.254L429.341 193.388L437.947 194.741L445.199 161.685C447.685 147.875 449.052 142.658 449.723 140.623C454.475 122.732 456.975 112.322 457.658 108.921C458.326 104.388 458.326 100.315 457.658 96.4651C456.975 93.064 455.159 89.6754 452.441 86.5052C449.723 83.7874 445.87 82.4238 441.798 82.4238C436.596 82.4238 431.841 85.1417 429.341 91.0265ZM416.667 206.064C414.168 209.233 412.813 213.316 413.497 217.168C414.851 222.591 416.667 226.443 420.736 229.161C423.906 231.879 427.99 233.013 431.841 233.013C436.596 233.013 440.446 231.197 443.164 227.808C445.87 224.408 447.236 220.556 445.869 216.034C445.199 211.281 443.164 208.099 439.314 204.711C435.913 201.993 431.841 200.628 427.99 200.628C422.102 200.628 418.018 203.346 416.667 206.064Z" fill="white"/>
</g>
<defs>
<clipPath id="clip0_28_1307">
<rect width="500" height="416.667" fill="white"/>
</clipPath>
</defs>
</svg>
