<svg width="500" height="113" viewBox="0 0 500 113" fill="none" xmlns="http://www.w3.org/2000/svg">
<g clip-path="url(#clip0_17_18277)">
<path d="M269.174 74.8855C266.802 74.8855 264.879 76.813 264.879 79.1835C264.879 81.554 266.802 83.4795 269.174 83.4795C271.547 83.4795 273.476 81.554 273.476 79.1835C273.476 76.813 271.547 74.8855 269.174 74.8855ZM269.174 82.548C267.32 82.548 265.81 81.04 265.81 79.1835C265.81 77.327 267.32 75.8155 269.174 75.8155C271.034 75.8155 272.545 77.3265 272.545 79.1835C272.545 81.0405 271.033 82.548 269.174 82.548ZM89.528 80.626H99.915V41.0445H89.528V80.626ZM249.751 56.1345L230.953 39.952V80.5695L241.388 80.6075V63.885L260.105 82.2145V41.1805H249.751V56.1345ZM57.6945 71.026C52.075 71.026 47.5205 66.4715 47.5205 60.8575C47.5205 55.239 52.075 50.6885 57.6945 50.6885C60.186 50.6885 62.4685 51.583 64.2375 53.066L70.96 45.435C67.3995 42.371 62.762 40.5185 57.692 40.5185C46.455 40.5185 37.344 49.6225 37.344 60.8575C37.344 72.0925 46.455 81.1935 57.692 81.1935C62.8035 81.1935 67.475 79.3185 71.0485 76.203L64.326 68.569C62.545 70.0965 60.229 71.026 57.6945 71.026ZM183.06 27.264H131.653L119.685 58.5175L107.715 27.264H54.624L49.1015 37.6555H72.887L72.875 80.6545H83.5945L83.626 37.6555H100.045L119.685 89.81L139.326 37.6555H188.732L183.06 27.264ZM163.749 50.3865C164.286 49.623 166.202 49.623 166.202 49.623H172.874V41.03H162.062C158.53 41.03 153.311 43.176 153.311 50.3865C153.311 59.896 165.051 66.112 163.898 69.945C163.353 71.7795 161.137 71.8605 159.986 71.8605H152.854V80.6075H164.512C169.499 80.6075 174.489 77.5405 174.489 71.709C174.49 60.583 160.854 54.527 163.749 50.3865ZM139.479 80.604H149.867V41.024H139.479V80.604ZM176.167 80.612H186.556V41.03H176.167V80.612ZM270.384 79.137V79.125C270.886 78.923 271.105 78.519 271.105 77.9895C271.105 77.3025 270.589 76.737 269.779 76.737H267.337V81.2675H268.329V79.497H269.33C269.828 79.497 270.01 79.7075 270.083 80.184C270.136 80.5465 270.12 80.9845 270.241 81.2675H271.235C271.057 81.0165 271.065 80.4795 271.045 80.196C271.013 79.739 270.878 79.26 270.384 79.137ZM269.421 78.7895H268.329V77.512H269.421C269.866 77.512 270.105 77.7065 270.105 78.139C270.105 78.5935 269.865 78.7895 269.421 78.7895ZM0 80.7575H11.047L13.809 73.394H26.698L29.461 80.7575H40.508L20.253 22.772L0 80.7575ZM16.9545 62.808L20.026 52.6885L23.0925 62.808H16.9545ZM208.838 40.4755C197.578 40.4755 188.456 49.601 188.456 60.85C188.456 72.103 197.579 81.2305 208.838 81.2305C220.094 81.2305 229.221 72.103 229.221 60.85C229.22 49.601 220.094 40.4755 208.838 40.4755ZM208.838 70.9695C203.246 70.9695 198.715 66.443 198.715 60.85C198.715 55.262 203.247 50.7345 208.838 50.7345C214.432 50.7345 218.964 55.262 218.964 60.85C218.964 66.443 214.432 70.9695 208.838 70.9695ZM287.906 0C287.328 0 286.872 0.2965 286.872 0.66V111.407C286.872 111.773 287.328 112.065 287.906 112.065C288.476 112.065 288.937 111.773 288.937 111.407V0.66C288.937 0.2965 288.475 0 287.906 0ZM395.139 66.603L395.155 66.1465H392.868L392.823 66.294L392.124 67.805C391.962 68.4655 391.69 69.038 390.654 69.5835L390.124 68.8115L389.728 69.127C388.99 69.8055 388.547 71.329 388.43 72.069C386.163 72.3515 384.579 74.783 383.523 76.478C383.146 77.084 382.675 77.848 382.467 77.941C381.103 78.5795 380.299 78.5895 379.822 78.594L379.22 78.6745L377.074 79.8005L375.806 80.3075L375.308 80.342L375.239 80.358L374.958 79.9735C375.518 79.0785 376.343 76.878 377.44 73.8425C378.003 72.287 378.636 70.5245 378.818 70.28L378.901 70.161L378.986 70.0075V68.157C379.05 67.0815 382.52 57.647 384.72 56.7125L385.056 56.568L384.979 56.205C384.906 55.8825 384.793 55.1705 384.793 54.4775C384.793 54.051 384.834 53.6285 384.957 53.3145C385.404 52.1395 387.404 51.0875 388.137 50.7835L388.41 50.67V47.3175C388.875 46.7465 389.283 45.704 389.78 44.336C390.491 42.382 391.372 39.947 392.556 39.0965L392.813 38.9165L392.726 38.6165C392.725 38.6005 392.492 37.7655 392.492 36.82C392.492 36.0235 392.658 35.149 393.268 34.6315L393.429 34.5V21.8845L392.997 20.792L392.742 20.2165V16.258L371.715 16.175L371.788 16.684C371.854 17.1245 371.457 17.849 371.19 18.204L371.101 18.319V24.98L371.913 25.6335C372.952 26.694 372.194 29.5335 371.816 30.54L371.772 30.653L371.962 31.044L372.047 31.5055L372.108 31.967L372.508 34.4625L372.661 34.5755C373.211 34.9685 373.187 35.12 373.147 35.418C373.068 35.9255 373.061 36.4335 373.811 37.1315L374.204 37.5L374.508 37.008C375.566 35.2885 375.926 34.7085 375.926 34.2165V28.6585C375.926 27.914 377.664 27.065 378.224 27.065H378.668V26.6225C378.668 23.815 380.287 23.0115 381.586 22.362C381.586 22.362 382.282 21.904 382.607 21.693C382.784 21.698 389.202 21.762 389.974 21.7675V26.1565C388.832 27.2405 388.022 28.3795 387.327 29.383C386.658 30.3525 386.078 31.1915 385.361 31.7105C384.966 32.511 384.845 33.4005 384.845 34.2C384.845 35.278 385.04 36.054 385.133 36.3805C383.033 38.365 382.534 39.4625 382.437 39.932C382.204 40.1095 380.747 41.2335 380.747 41.2335C379.496 43.141 378.165 49.8185 378.108 50.104C375.801 52.5075 375.501 54.314 375.336 55.283L375.239 55.7415C375.235 55.7195 373.584 57.6045 372.843 59.0635L372.159 61.6075C372.036 62.388 371.925 63.123 371.607 63.351L371.449 63.4605L371.421 63.729L371.113 66.156C370.899 67.3485 370.661 68.6595 370.661 69.872C370.661 70.262 370.685 70.642 370.74 71.002C370.824 71.168 371.207 71.681 371.207 72.346C371.207 72.6835 371.109 73.0575 370.823 73.4475L370.558 73.7985L370.923 74.0715C371.219 74.2915 372.043 76.018 372.112 76.353L372.132 76.8625L371.611 77.2425L371.433 77.3765L371.421 77.6065V81.854C370.928 82.3145 370.398 82.856 370.398 83.1515L370.754 83.9955L371.28 84.6625L371.526 84.701H376.682C377.428 85.4465 378.807 85.77 378.97 85.802C379.807 85.8125 380.134 85.3455 380.368 85.006C380.633 84.628 380.841 84.327 381.629 84.327L382.293 84.287L382.392 84.256L382.874 84.974L383.173 85.075H390.953L391.082 84.8645C391.462 84.252 393.115 83.5935 393.454 83.5915L393.913 83.581L393.891 83.1265C393.64 78.6045 393.551 73.5745 393.846 72.987L394.442 71.892C394.593 71.423 394.672 71.185 395.188 71.0475L395.672 70.916L395.48 70.449C395.121 69.593 395.111 67.3825 395.139 66.603ZM424.383 80.5675C424.383 79.856 424.003 79.3995 423.673 78.9935L423.148 78.3025L422.908 78.268H419.677C419.484 78.064 418.704 77.2195 418.704 77.2195L418.42 77.7385C417.311 79.535 416.47 79.8705 415.306 80.337L412.717 81.683L411.62 82.079C410.69 82.3615 409.535 82.705 408.88 83.4145C408.335 84.0005 408.24 84.6995 408.169 85.213C408.092 85.781 408.052 85.849 407.918 85.8735L406.471 86.027C405.668 86.1705 405.03 86.278 404.254 85.9065L403.911 85.7425L403.626 86.175L403.333 86.605L403.052 86.3865C403.169 86.0775 403.648 84.827 403.648 84.827C403.844 84.4485 404.293 83.3255 404.293 82.596L404.27 82.4565C404.805 81.723 406.416 78.85 406.729 76.7365L406.733 73.123L408.766 67.3725L408.79 59.637C409.025 58.673 409.445 58.251 409.888 57.804L410.821 56.447L410.843 53.991C411.784 52.9505 412.189 51.45 412.508 50.088C412.742 49.0925 412.987 48.064 413.399 47.77L413.581 47.644L413.789 40.8415C413.746 40.6205 413.73 40.413 413.73 40.2165C413.73 39.492 413.979 38.921 414.274 38.2365L414.912 36.3805L415.638 32.1015C415.676 31.4065 415.886 31.274 416.201 31.073L416.997 30.129C417.099 29.7835 417.129 29.3655 417.129 28.9705C417.129 28.42 417.075 28.0005 417.038 27.756L417.44 27.373C418.402 26.4625 418.723 26.1565 419.055 24.928C419.148 24.5825 419.173 24.1705 419.173 23.7815C419.173 23.1915 419.119 22.735 419.086 22.5195C420.323 21.2325 420.899 19.817 421.297 18.763L421.922 17.4145L421.98 17.2225V16.21L421.119 16.233L421.085 16.245L420.586 15.4965L420.34 15.4815L402.857 15.4675L397.186 15.4815H396.746L396.77 15.923V28.352C396.111 28.9745 395.734 29.537 395.734 30.001L395.926 31.004C396.011 31.28 396.092 31.5505 396.092 31.911C396.092 32.271 396.011 32.7195 395.764 33.361L395.653 33.649L397.003 34.812L397.413 34.489C397.748 33.9455 397.963 33.9555 398.319 33.9695C399.576 34.0305 400.214 33.3675 400.902 29.146C401.592 24.944 402.727 23.446 403.04 23.4045L403.774 23.252C404.513 23.051 405.755 22.7095 406.316 23.274L406.829 23.9985L407.145 24.145H410.545L410.746 24.366L410.806 24.4185L410.81 24.445C410.81 24.534 410.758 24.704 410.333 24.996L410.137 25.1305L410.129 25.371V27.616C408.199 29.559 405.329 36 405.329 36.6685V38.651C405.194 39.8875 404.438 41.208 403.893 42.173L403.284 43.4615L403.272 44.1305L403.28 44.6305C403.28 45.629 402.383 46.533 402.374 46.541L402.26 46.6575L402.217 47.187L402.268 47.9295L402.767 48.5435L402.929 48.7055L398.849 59.481C398.791 59.723 398.156 62.891 398.156 66.2495C398.156 67.9995 398.33 69.796 398.845 71.261L399.22 71.976L399.506 72.7885C399.512 72.8615 399.753 74.239 399.753 75.668C399.753 76.3735 399.696 77.0845 399.522 77.6585L399.09 78.713L398.819 79.454C398.953 79.8785 399.053 80.386 399.053 80.798C399.053 81.0565 399.011 81.2705 398.912 81.402L398.277 81.9375L398.146 82.345C398.212 82.596 398.318 83.1375 398.318 83.647C398.318 83.944 398.282 84.233 398.181 84.441L397.262 85.3605L396.679 85.7685L396.794 86.0795C396.895 86.379 397.025 86.926 397.025 87.3975C397.025 87.672 396.98 87.923 396.865 88.066L396.277 88.563L396.082 88.9025V91.4955L396.043 91.8795C396.014 92.094 395.975 92.361 395.975 92.6515C395.975 93.2195 396.115 93.9025 396.71 94.545L396.841 94.688H397.034C397.976 94.688 399.09 94.211 399.983 93.8255L401.064 93.409L403.038 93.3665L406.557 93.29C407.604 92.9525 408.631 92.2555 409.28 91.5645C409.611 91.5965 412.753 91.936 412.753 91.936L412.708 91.9885L412.931 92.4555L413.068 92.6515L413.312 92.676H423.674L423.705 91.807L424.192 91.48L424.368 91.346L424.38 91.12V84.828L424.094 84.0015L423.693 82.601C423.693 81.6795 423.935 81.3805 424.107 81.162L424.383 80.5675ZM353.747 18.7905C354.043 19.211 354.348 19.2725 355.138 19.288C355.395 19.792 355.914 20.076 356.443 20.2285C357.203 20.451 357.714 20.6365 357.859 21.1935V21.1955L358.726 35.928L358.738 36.1715L359.376 36.513C359.189 36.6395 358.698 36.989 358.698 36.989L358.726 37.198L358.948 66.3745C358.358 67.1105 358.037 68.436 358.037 69.236L358.508 70.877L358.726 71.463L358.753 72.15L358.061 72.7155L358.037 72.946C358.037 72.958 358.041 73.1525 358.041 73.474C358.041 75.189 357.991 80.5825 357.461 82.217L357.219 82.387L355.54 83.856L354.12 85.782L354.448 86.0955L354.95 86.5495L355.558 86.91C355.869 87.3055 356.367 86.901 357.559 85.715C358.642 85.2825 364.591 85.0785 365.281 85.541L365.458 85.656L365.721 85.565L366.724 85.2475C366.95 85.3185 367.221 85.3145 367.221 85.3145L368.966 85.6155L368.97 85.038L368.669 82.8815L365.402 80.786C364.29 80.156 364.267 80.144 363.939 78.7675L363.807 78.273C363.583 77.4605 363.482 77.0125 363.854 76.555L364.452 76.0605L364.634 75.7555L365.001 70.657L364.86 70.483C364.637 70.194 363.967 68.259 363.951 67.939L363.518 64.9385C363.387 64.468 363.29 64.112 363.29 63.7925C363.29 63.4165 363.43 63.094 363.826 62.6975L364.608 62.0675L364.634 61.8895V58.9675L364.473 58.721L364.383 57.5855L364.336 56.736L364.167 54.4255L364.171 54.272C364.171 54.011 364.141 53.618 364.141 53.618C364.102 53.3095 364.061 52.939 364.061 52.56C364.061 51.989 364.16 51.41 364.518 51.013L365.328 50.367L365.32 50.0855L364.984 48.188L364.831 47.9415L364.657 47.1335C364.584 46.664 364.471 46.295 364.293 46.014C364.517 44.5115 364.6 42.2665 364.6 39.787C364.6 36.744 364.487 33.3915 364.398 30.766L364.289 26.6375C364.289 26.4305 364.358 26.3685 364.589 26.189C364.883 25.9615 365.323 25.62 365.323 24.7855C365.323 23.987 365.184 23.6395 364.768 23.4195L364.633 22.564C364.633 21.2805 366.383 19.905 367.951 19.47L368.273 19.381V17.776L367.888 17.31L367.159 16.331L366.823 16.4055C365.647 16.844 355.665 16.834 354.099 16.3935L353.806 16.3145L353.591 16.6055L352.711 17.7855L353.034 18.1035L353.747 18.7905ZM439.929 52.843L439.949 52.5765L440.137 48.707V48.4795L439.953 48.349C439.527 48.041 439.432 47.8895 439.432 47.7295L439.453 47.552L439.509 47.124C439.509 46.758 439.311 46.3235 438.773 45.773V42.752L438.091 42.211L435.897 33.7365C435.19 31.9195 433.404 27.0195 433.404 25.5525V23.5165L433.01 22.595C432.679 22.196 432.069 21.4595 430.97 19.07L430.84 18.3495C430.67 17.092 430.355 14.7405 428.51 14.7405L427.362 15.165C426.908 15.621 426.849 16.3215 426.849 17.0465L426.858 17.7335C426.858 18.761 426.753 19.128 426.285 19.1875C426.095 19.256 425.09 20.2785 425.09 20.2785L424.531 20.881L424.467 21.11V23.938C424.243 24.2395 423.432 25.3315 423.432 25.3315L423.148 25.894C422.41 27.2245 421.791 29.314 421.672 29.7305L421.545 29.8195L421.016 30.283C420.785 30.583 420.711 30.881 420.711 31.158C420.711 31.425 420.778 31.673 420.838 31.897L420.931 32.8225C420.283 33.4885 419.836 34.424 419.383 35.4415L419.081 36.1145C418.527 37.329 418.42 38.699 418.327 39.905C418.221 41.349 418.125 42.5945 417.322 43.0665L417.102 43.199V43.4495C417.102 45.578 416.351 47.205 416.342 47.222L415.823 48.0555L415.023 49.5995L414.957 51.375L414.934 53.247C414.768 54.352 415.063 54.727 415.556 54.946L415.604 54.96L415.608 55.0015C415.608 55.3745 415.546 55.451 415.116 55.7555L414.926 55.8835V58.8585L414.853 58.9145L414.345 59.347C413.998 59.7515 413.883 60.3205 413.883 60.8845C413.883 61.731 414.124 62.4915 414.218 62.7735C414.072 63.1595 413.87 64.079 413.557 66.811L413.531 67.0535L413.824 67.2735L414.242 67.611C414.238 67.72 413.818 67.9485 413.56 68.092L412.157 69.2275C411.62 70.1535 411.525 71.6525 411.512 72.0605C411.262 72.3395 408.922 74.999 408.922 74.999L409.102 75.294L409.535 76.2115L410.221 77.941L410.601 77.7265L417.568 75.2455C418.292 75.0415 421.347 75.1425 423.223 75.2655L423.501 75.2835L423.687 74.9055L424.345 73.7015C424.568 73.4105 424.758 73.1685 424.758 72.9055L424.717 72.711L424.673 72.582L424.259 72.339L423.409 71.725C423.097 71.422 422.727 71.161 422.321 71.007V67.4165C422.309 67.3235 422.014 66.4325 421.808 65.818H422.782C423.233 66.2525 424.182 66.802 425.853 67.7195C427.476 68.605 430.848 70.4475 430.857 71.1025C430.66 77.0595 426.568 81.513 426.524 81.557L426.407 81.683V81.8605C426.407 83.7375 427.6 84.9375 428.564 85.8975C429.245 86.58 429.835 87.1705 429.835 87.7925V89.825L431.908 96.619L431.888 101.056L432.882 100.626L433.189 100.823L434.013 100.422L434.619 99.8745L434.659 99.6465V96.6995L435.31 96.17L435.342 95.94V93.62C435.821 93.022 436.11 92.1045 436.357 91.1665C436.589 90.308 436.847 89.338 437.213 89.0695L437.395 88.94V84.919C438.306 83.8925 438.937 82.0035 439.48 80.267C439.84 79.1015 440.297 77.6525 440.64 77.41L440.77 77.309L440.812 77.1515C441.028 76.279 441.117 72.4835 441.117 68.693C441.117 65.0455 441.036 61.4025 440.913 60.328C440.649 59.6455 439.929 54.231 439.929 52.843ZM432.158 62.414C431.887 62.434 431.629 62.434 431.301 62.414C429.822 61.949 428.746 60.5915 426.847 60.1915C425.281 59.858 423.695 60.0255 422.737 60.1915C422.737 60.1915 422.727 59.82 423.42 59.638C423.733 58.5025 423.161 54.6205 423.42 53.156C424.022 52.5295 424.103 48.555 424.103 48.555C425.687 48.4465 425.012 46.7765 426.164 45.961L426.319 41.356C426.319 41.356 427 43.9545 427.969 45.003C428.775 45.877 429.838 45.4685 430.788 46.3295C431.94 47.368 431.436 50.9975 432.158 51.515C432.397 52.9855 432.158 62.414 432.158 62.414ZM391.716 88.626L391.288 88.6135C384.405 88.3855 368.291 87.9995 367.257 89.39C364.91 91.0265 362.219 90.267 360.25 89.7115C359.279 89.4405 358.578 89.241 358.062 89.368L357.487 89.7055C357.487 89.7055 356.405 90.746 356.104 91.0345C354.52 91.2735 353.471 91.2045 352.374 91.1195C352.374 91.1195 351.338 91.0635 350.842 91.043C350.766 89.8995 350.49 89.4025 350.171 89.1395L350.163 89.135L350.193 89.002L350.711 88.1225L350.781 88.011L350.897 87.7605V83.339L351.557 82.806L351.587 82.5755V79.622L351.792 79.4375C352.24 79.0475 352.275 78.9005 352.275 78.1305L351.986 77.013L351.63 76.559C351.695 76.3525 351.77 76.1025 351.77 76.1025C351.969 75.3685 352.062 75.1285 352.584 75.0435L352.945 74.987L352.956 74.625C352.964 74.415 353.013 73.144 353.013 72.069C353.013 71.4505 352.996 70.895 352.945 70.6365L352.915 70.475L352.248 69.9415C352.248 69.9415 352.268 65.573 352.275 65.187L352.907 64.6655L352.956 64.4495C353.008 63.586 353.32 58.4195 353.32 54.3355C353.32 51.9995 353.219 50.0215 352.908 49.404L352.059 48.4675L351.589 48.0945V33.6995L352.237 33.17L352.276 32.9355V29.745L352.09 29.6105C350.94 28.7805 350.896 28.3605 350.896 28.3545C350.898 27.9455 350.948 27.8745 351.398 27.5555L351.589 27.425V20.299L351.402 20.1665C350.657 19.631 348.986 17.6375 348.406 16.914L347.453 16.7625C347.077 16.8515 346.612 16.9655 345.703 15.479L345.569 15.266H340.065C339.935 15.076 339.575 14.5585 339.575 14.5585L339.32 14.5255H338.161L338.03 14.888L337.728 15.655L337.108 16.353L337.518 16.622C340.072 18.462 340.383 19.3225 340.529 19.732L341.122 20.547L341.332 20.4105C342.708 20.359 342.844 20.6675 342.844 20.6795C342.882 20.754 343.862 22.595 344.02 24.4505V24.501C344.02 25.151 343.22 27.2675 342.909 27.6605L342.646 28.004L343.648 28.8175C343.68 29.0155 343.697 29.359 343.697 29.7795C343.697 30.9425 343.586 32.6365 343.516 33.479L343.099 33.8975L342.177 34.741L342.133 34.9705V40.5535L342.82 41.106V51.5095L343.014 51.64C343.196 51.7645 343.642 52.323 343.693 52.8595L343.697 52.9605C343.697 53.583 343.171 54.3135 343.009 54.4235L342.824 54.558L342.82 54.789V62.189C342.816 61.997 342.327 62.387 342.327 62.387L342.194 62.494L342.137 62.6795C342.128 62.7445 341.96 63.7625 341.96 65.242C341.96 65.9495 342.012 66.7835 342.125 67.6545L342.06 67.7675L341.527 68.1925L341.431 68.465L341.447 77.805L341.636 77.9325C342.257 78.373 342.82 78.8315 342.82 79.6135L342.841 80.1665L342.319 80.545L342.145 80.6805L342.134 80.9065V83.3095C342.134 83.113 341.648 83.4975 341.648 83.4975L341.474 83.6265L341.446 83.869V89.466L341.656 89.6175C342.009 89.8705 342.133 89.978 342.133 90.1695C342.133 90.3895 341.927 90.5455 341.708 90.6825L341.502 90.812L341.446 91.097V94.037C341.208 94.239 339.862 95.3585 339.862 95.3585L339.08 96.03L337.227 96.996L337.081 97.0805L337.003 97.307L336.698 98.083L336.142 98.7095L336.494 99.049L337.296 99.922L337.668 99.807C338.545 99.2635 341.843 99.5585 343.71 99.8655L344.07 99.9265L344.189 99.5825C344.478 98.8065 346.963 97.036 348.465 96.0985L350.796 96.17C351.049 96.2 352.374 96.6165 352.65 97.069L352.779 97.279H353.026C358.421 97.271 368.657 97.2815 370.205 97.4085L370.233 97.455C370.504 97.898 370.829 98.3035 371.837 98.3885H378.385C378.996 99.0795 379.456 99.1645 379.888 99.1075C380.095 99.081 380.208 99.0695 380.573 99.6595L380.704 99.874H383.174L383.101 99.9465L383.303 100.39L383.432 100.59L383.691 100.614H393.379L391.698 97.4535L391.716 88.626ZM495.7 11.998C493.328 11.998 491.404 13.926 491.404 16.2995C491.404 18.6685 493.328 20.593 495.7 20.593C498.077 20.593 500 18.6685 500 16.2995C500 13.926 498.077 11.998 495.7 11.998ZM495.7 19.6615C493.845 19.6615 492.333 18.153 492.333 16.299C492.333 14.441 493.845 12.9305 495.7 12.9305C497.559 12.9305 499.07 14.441 499.07 16.299C499.071 18.153 497.559 19.6615 495.7 19.6615ZM495.551 38.8055L495.434 38.594L495.098 37.5575L494.517 36.1255L494.673 36.477L494.875 29.219L494.681 29.0805C494.326 28.83 494.265 28.6835 493.978 27.845L492.087 23.3235L490.948 22.176C490.188 21.5345 489.242 20.7395 488.636 19.7655L488.509 19.5565H485.324C485.189 19.3635 484.829 18.846 484.829 18.846L484.574 18.814H481.891C481.759 18.623 481.402 18.1055 481.402 18.1055L481.147 18.074H479.126L478.981 17.894L478.308 17.003L478.061 16.9635H475.97C475.147 16.1065 473.933 15.5975 472.923 15.2125C472.255 14.962 471.352 14.6165 471.302 14.356L471.231 13.998H468.878C468.74 13.8105 468.376 13.287 468.376 13.287L468.128 13.2575H463.951L464.524 13.98C464.73 14.2335 469.074 18.3675 470.598 19.8165V23.7025C470.578 23.5145 470.107 23.891 470.107 23.891L469.937 24.0255L469.911 24.259V29.628L469.422 29.819L469.256 29.949L469.224 30.1825V43.938L469.341 44.1785L469.56 45.284L469.974 46.7275L469.835 46.38L469.552 51.3115L470.219 51.857C470.13 52.2955 470.082 52.939 470.082 53.7665C470.082 55.3275 470.197 57.206 470.247 57.9955L470.684 59.063L470.93 59.6365V61.6735C470.93 62.1275 472.472 67.1005 474.009 68.81C473.981 69.091 472.753 81.2695 472.753 81.2695C472.789 81.494 474.155 84.644 474.155 84.644L474.947 86.62C475.104 87.0045 475.458 87.0205 475.613 87.028L475.629 87.1695C475.589 87.432 474.773 87.897 473.197 88.5395L472.439 88.8545L472.595 89.255C472.599 89.275 473.389 91.3965 473.389 92.9365L473.375 93.272C473.232 94.949 472.425 96.6645 471.231 97.859L470.811 98.2795L471.335 98.564C471.939 98.8895 475.247 98.485 476.394 97.9435C476.497 97.8955 476.722 97.742 476.884 97.5295L477.651 97.879L479.126 98.3195C479.991 97.859 481.496 97.453 482.949 97.0625C485.52 96.3595 486.882 95.9475 487.152 95.264L487.552 94.9L488.47 93.6315L489.609 91.4445L489.901 90.6165L490.628 86.725C491.221 85.2765 491.214 83.728 491.206 82.231C491.198 80.8185 491.194 79.483 491.711 78.2705C492.392 75.7265 491.634 64.9905 491.608 64.5335L491.46 64.8935L491.697 64.1555L492.103 62.1955L492.572 58.694C492.745 58.6575 493.525 57.91 494.147 56.479C494.509 55.806 494.607 54.999 494.607 54.153C494.607 53.664 494.576 53.163 494.542 52.669L494.509 50.8545C494.677 50.554 495.004 49.9855 495.004 49.9855L495.387 49.2235L495.526 49.0395C495.74 48.4455 495.81 47.0675 495.81 45.5075C495.81 42.745 495.594 39.414 495.554 38.8575L495.551 38.8055ZM488.476 49.4705C487.504 49.988 486.817 54.45 486.817 54.45C486.817 54.45 485.367 55.1505 485.528 57.5925C485.041 58.815 485.053 72.711 485.053 72.711C484.771 74.356 483.922 75.219 483.169 77.7995C483.388 82.0105 479.636 86.1565 479.363 86.456L479.464 53.1705C478.829 52.841 478.092 49.6715 478.092 48.7285C478.092 48.7285 477.734 47.8585 477.542 47.544C477.534 47.828 477.514 47.9645 477.482 47.8935C477.365 47.362 477.421 47.35 477.542 47.544C477.609 45.607 477.263 36.6455 477.263 36.6455L477.069 35.762L477.364 32.9355C479.262 32.805 479.857 32.983 481.624 32.983C482.62 32.983 482.687 34.465 484.364 34.465C484.364 36.298 485.992 36.6525 486.936 37.984C487.241 38.4295 487.62 41.968 488.476 42.4265V49.4705ZM496.913 16.2515V16.2375C497.414 16.0345 497.632 15.6335 497.632 15.104C497.632 14.415 497.116 13.851 496.306 13.851H493.861V18.3815H494.859V16.6095H495.853C496.352 16.6095 496.532 16.8235 496.611 17.298C496.658 17.657 496.646 18.0975 496.767 18.3815H497.761C497.583 18.131 497.591 17.59 497.57 17.3095C497.538 16.8495 497.397 16.374 496.913 16.2515ZM495.947 15.902H494.859V14.625H495.947C496.392 14.625 496.629 14.818 496.629 15.2525C496.629 15.71 496.391 15.902 495.947 15.902ZM337.505 80.578C337.57 80.218 337.6 79.846 337.6 79.4725C337.6 78.565 337.443 77.644 337.307 76.854C337.227 76.3645 337.12 75.7365 337.12 75.3685L337.164 75.0915C338.112 73.879 338.37 72.4605 338.37 70.941C338.37 70.0315 338.273 69.08 338.184 68.112L337.974 64.5635V61.557C338.079 61.3285 338.193 61.0755 338.193 61.0755L337.376 59.9745L336.725 59.318C336.327 58.412 336.192 57.2525 336.192 56.106C336.192 53.774 336.742 51.4855 336.751 51.452L336.819 51.1745L335.979 50.5145V50.451C335.979 50.2325 335.806 49.8815 334.749 48.847L334.466 48.568L334.122 48.886C333.995 48.756 333.852 48.4455 333.852 48.2465L333.868 48.1435C334.083 47.8575 334.698 46.8815 334.698 46.027L334.602 45.4975C334.492 45.2385 334.244 44.9035 333.668 44.789C331.845 44.607 330.76 43.7325 330.679 43.4895C331.111 43.1215 333.648 40.113 334.652 38.2075L337.2 33.444C337.74 32.9405 337.901 32.196 337.901 31.3C337.901 30.609 337.804 29.833 337.699 29.0035L337.448 25.9705C337.448 23.891 336.072 20.069 333.829 18.5665C332.888 17.935 331.918 18.01 331.586 18.0515L331.247 17.7825C330.76 17.453 330.09 17.0045 329.9 16.2325L329.827 15.947L329.535 15.9015C326.961 15.496 325.736 15.6035 324.035 15.753L319.444 15.972L315.84 15.854C315.775 15.854 311.175 16.065 309.991 16.74H306.31L305.704 17.532L305.401 18.8475L305.391 19.5305C305.391 19.8125 305.425 19.994 305.68 20.154L306.147 20.743L308.448 22.9555L308.513 23.0325C308.267 23.0445 308.008 23.0565 308.008 23.0565C308.008 23.0565 308.355 23.295 308.651 23.493C308.691 23.789 308.807 23.891 309.309 23.891C309.503 23.998 309.697 24.089 309.887 23.886L309.902 23.8555L310.319 23.832L310.605 24.1445L310.598 24.17L310.577 24.859L310.628 25.7635L310.153 26.111L309.979 26.2415L309.89 26.5275V43.749C309.951 43.981 310.698 45.212 310.698 45.212C310.738 46.0685 310.763 47.356 310.634 47.6065L309.957 49.149L309.89 54.118C309.929 54.314 310.44 55.394 310.445 55.404L310.441 55.479C310.441 55.974 310.577 58.752 310.577 58.7725C310.573 58.6815 310.404 59.0995 309.91 59.144L309.51 59.1805L309.435 65.1735L309.288 72.2925L309.788 77.916L309.895 79.1825C310.221 81.646 310.145 83.2195 310.038 85.402L309.89 90.7995C309.403 93.345 308.573 96.5215 308.338 96.8815C308.015 97.1905 306.956 97.665 306.362 97.892L305.663 98.1525L306.783 99.1105L307.198 99.4845L307.621 99.395L308.807 99.4455C309.763 99.539 310.442 99.5775 310.888 99.403C313.26 99.8055 317.072 100.229 317.704 98.959C318.155 98.534 318.438 98.4415 318.587 98.4455L319.185 98.882C319.42 99.1445 319.685 99.4455 320.095 99.434C320.376 99.4235 320.63 99.266 320.876 98.955C321.159 98.769 323.407 98.3345 325.302 98.064L325.564 98.026L325.655 97.781C325.946 96.9995 326.964 96.27 328.046 95.4995L328.757 94.9825C330.315 93.8285 333.118 92.5375 333.146 92.523L333.382 92.412L333.407 92.1615C333.407 92.1295 333.673 89.197 334.346 87.5135C334.89 86.1155 336.288 84.115 336.3 84.099L337.505 80.578ZM328.453 75.087C328.548 75.625 327.418 79.7895 327.147 79.973C326.699 82.1855 327.241 84.9565 326.096 85.9785C325.171 86.6455 323.773 89.1555 322.368 89.25L320.835 90.6345C319.909 91.0045 318.349 91.1645 318.349 91.1645C318.349 91.1645 320.155 87.9265 319.781 88.376C319.707 89.277 319.604 85.722 319.604 85.722C319.604 75.8835 319.421 81.861 319.79 79.454C319.861 79.004 320.172 78.8665 320.477 78.5305V65.877C320.007 65.687 319.747 65.271 319.79 64.7635C319.829 64.3165 320.055 64.0055 320.477 63.838L321.16 60.5015C321.16 60.5015 320.192 56.7035 321.16 55.4995C321.318 53.7385 321.158 48.1925 321.158 48.1925L323.328 50.425C323.328 50.425 324.832 51.876 326.096 52.556C326.096 52.556 327.881 54.108 327.131 54.828C326.614 55.1945 328.317 56.4155 327.147 56.475C327.147 56.475 328.327 57.761 327.664 59.0845C328.572 59.5675 327.324 61.8545 327.324 62.7115C327.324 65.6015 328.452 63.573 328.452 67.0375C326.134 68.7005 329.649 71.8895 328.19 72.924C329.172 73.558 328.093 74.4935 328.453 75.087ZM327.846 28.0005C327.622 28.114 328.525 30.5575 328.525 30.5575C327.62 31.0395 327.842 35.573 327.842 36.4235C323.769 36.741 324.71 40.1215 322.874 40.684C322.754 40.7215 322.445 40.1295 321.159 40.684V27.04C322.269 26.438 321.573 26.424 322.063 25.1325C322.301 25.0455 322.696 24.8185 322.696 24.8185C322.803 25.056 322.803 25.3165 322.696 25.557L325.274 25.1875H325.781C326.812 27.4115 327.62 26.1845 329.212 27.0405L327.846 28.0005ZM469.013 76.708L468.724 76.615L468.233 76.4535C468.259 76.28 468.473 74.4265 468.651 74.126L468.73 73.9905L468.72 73.798L468.522 72.434C467.867 67.744 467.58 66.047 467.389 65.7095L467.198 65.3475L466.582 65.6365C466.424 65.5435 466.291 64.7755 466.24 64.4865C466.171 64.0825 466.121 63.7875 465.955 63.6095C465.818 63.236 465.751 61.4555 465.704 60.2595C465.616 57.9315 465.555 56.8705 465.328 56.493L465.009 55.237L464.797 54.2165L464.597 53.393L464.602 53.289C464.602 52.728 464.234 52.59 463.147 52.1805L463.148 52.1705L463.082 51.659C463.037 51.051 462.967 50.1355 462.072 49.8215C460.225 47.4995 459.295 47.4745 458.107 47.713C458.107 47.713 457.818 47.717 457.541 47.717C457.67 47.539 457.811 47.3985 457.811 47.045C457.811 46.931 457.803 46.236 457.796 45.9085C461.582 45.664 464.302 42.5875 465.836 36.593L465.85 33.527C465.978 33.237 466.145 32.865 466.145 32.865L466.41 32.1325L466.541 31.888C466.561 31.517 466.647 30.2345 466.647 29.1155C466.647 28.389 466.61 27.7305 466.505 27.4415L463.013 20.0855L462.707 19.931L461.805 19.2225C460.809 18.3535 459.445 17.1665 457.925 16.9655L456.677 16.922L456.41 16.926C454.113 16.2075 451.374 15.3385 451.083 15.186L450.989 15.1355L450.84 15.109H447.466L447.321 14.918C447.024 14.49 446.84 14.3675 446.217 14.3675L444.411 14.8525L434.551 15.109L434.474 15.984L436.975 16.5285C437.169 16.681 437.439 16.892 437.439 16.892C438.66 17.761 441.894 20.0605 442.008 21.879L442.027 22.26L442.229 22.237L443.565 22.347C443.771 22.2785 444.374 21.8065 444.374 21.8065L444.408 21.753C444.666 21.8105 445.62 22.0465 446.226 22.243C444.816 24.099 443.022 25.457 441.657 26.429L439.934 27.7595L439.949 27.907C439.849 28.7325 439.797 29.9235 439.797 31.114C439.797 32.3085 439.848 33.4955 439.949 34.317L439.974 34.483L440.627 35.0495L440.623 35.065L440.612 35.2295C440.612 35.563 440.802 35.9235 441.322 36.457C441.323 36.741 441.356 39.8255 441.356 39.8255L441.449 40.057L441.577 41.334C441.635 42.424 441.675 42.797 441.901 43.006C442.136 43.5235 442.172 44.378 442.172 44.8225L442.164 45.104L442.16 45.1575L442.283 45.416L442.451 46.275L442.835 47.551L442.685 47.1995V49.7385L442.859 49.983L443.094 50.5025C443.094 50.5025 443.254 50.8005 443.376 51.038L443.704 53.908L443.821 54.1475L443.897 54.674L444.198 55.6975L444.06 55.375C444.064 59.1875 444.068 65.0635 444.068 69.2835C444.068 72.1605 444.068 74.2685 444.06 74.43L444.047 74.654L444.766 75.232C444.868 75.9635 444.925 76.594 444.925 77.038C444.925 77.507 444.878 77.806 444.806 77.9315C443.886 78.7395 441.753 86.0255 441.334 87.4845V87.513C441.334 88.18 441.921 88.572 442.969 89.275C445.018 90.6555 448.823 93.2155 450.917 98.9355L451.426 100.328L451.766 98.8895C452.287 96.6745 452.422 95.28 452.422 94.361C452.422 93.767 452.367 93.3765 452.322 93.0795L452.392 93.0385L452.896 92.5555C452.954 92.281 452.983 91.9295 452.983 91.5275C452.983 90.4 452.788 88.856 452.6 87.3545L452.299 84.578C452.766 83.5555 452.909 82.08 452.909 80.567C452.909 79.5785 452.85 78.5725 452.774 77.6515L452.352 76.722L452.177 76.4405L452.176 76.394C452.176 76.081 452.438 75.7795 452.495 75.7335L452.63 75.61L452.661 75.412V75.3435C452.661 74.737 452.367 72.0175 451.893 67.7255C451.469 63.9185 450.895 58.77 450.895 57.828L450.901 57.721L451.303 56.544L451.554 56.0805C452.194 54.7315 452.38 54.1025 452.38 53.4115L452.338 52.9255C453.397 53.7135 454.888 56.4165 455.684 57.8895L456.184 58.8105L456.193 58.956C456.193 59.427 455.991 60.682 455.836 61.6275L455.471 64.083L455.87 64.1635C457.387 64.5275 459.253 74.398 459.253 75.7685V75.7965C459.309 76.112 459.333 76.9585 459.333 78.0155C459.333 80.394 459.212 83.841 459.055 84.6795L457.765 88.7315C456.998 90.9 456.634 91.995 456.634 92.573L456.682 92.8845L456.796 93.1665L457.737 93.1585C459.542 93.132 460.368 93.118 464.193 96.858C464.728 97.3935 466.947 98.101 467.386 98.2365L467.857 98.3815L469.354 90.4225L469.711 88.8565C470.326 87.383 469.849 86.619 469.618 86.245L469.558 86.2435C469.891 84.625 469.995 83.481 469.995 82.649C469.995 81.794 469.888 81.263 469.809 80.865C469.766 80.648 469.732 80.497 469.732 80.3655C469.732 80.1695 469.794 80.016 469.972 79.7595L470.043 79.648L470.049 79.4905C470.049 78.7795 469.328 77.2175 469.098 76.8395L469.013 76.708ZM457.461 35.96C457.461 35.96 457.22 37.1835 457.349 37.9655C456.899 39.0165 456.008 42.2465 455.294 43.1505C454.941 43.606 453.747 44.4085 452.556 44.6295C451.827 44.767 450.671 44.6295 450.671 44.6295V23.8865C450.947 23.868 451.201 23.868 451.53 23.8865C453.169 23.8865 457.35 29.817 457.35 29.817C458.478 31.8305 458.035 33.5185 458.035 33.5185V35.0015C457.812 35.1125 457.683 36.0745 457.461 35.96Z" fill="black"/>
</g>
<defs>
<clipPath id="clip0_17_18277">
<rect width="500" height="112.065" fill="white"/>
</clipPath>
</defs>
</svg>
