<svg width="500" height="122" viewBox="0 0 500 122" fill="none" xmlns="http://www.w3.org/2000/svg">
<path d="M468.468 73.4347V40.2058H457.349V29.3455H468.468V9.9482H480.364V29.3455H495.879V40.2058H480.364V72.529C480.364 79.6418 483.339 82.8741 488.897 82.8741C491.094 82.8741 492.647 82.6149 494.328 81.8388L498.465 92.0543C495.749 93.2176 492.904 93.7361 488.897 93.7361C475.579 93.7361 468.468 86.3657 468.468 73.4347ZM391.795 61.0219C391.795 43.0489 404.209 27.2761 422.828 27.2761C441.706 27.2761 453.86 40.5926 453.86 61.0219C453.86 61.9277 453.731 63.2206 453.731 63.2206H403.692C404.339 76.6684 414.036 83.9075 423.862 83.9075C430.844 83.9075 437.825 81.064 441.189 73.0472L451.791 77.4428C448.042 86.4933 438.731 94.7694 424.121 94.7694C404.727 94.7694 391.795 80.1583 391.795 61.0219ZM422.569 38.1364C413.778 38.1364 406.795 44.0842 404.467 53.394H441.189C440.802 47.8334 436.145 38.1364 422.569 38.1364ZM333.487 83.9075H332.97V92.6987H321.593V0.121262H333.487V29.3435L332.97 38.1364H333.487C337.108 32.3182 344.997 27.2745 355.081 27.2745C371.113 27.2745 385.207 41.6263 385.207 61.0219C385.207 80.4175 371.113 94.7694 355.081 94.7694C344.997 94.7694 337.108 89.7256 333.487 83.9075ZM373.312 61.0219C373.312 46.798 363.744 38.1364 353.142 38.1364C342.539 38.1364 332.97 46.5404 332.97 61.0219C332.97 75.5034 342.539 83.9075 353.142 83.9075C363.744 83.9075 373.312 75.2458 373.312 61.0219ZM253.069 73.5622C253.069 59.212 265.999 51.4527 280.869 51.4527C289.403 51.4527 295.608 53.909 298.066 55.3332V53.5234C298.066 43.9544 290.436 38.1362 281.514 38.1362C274.921 38.1362 268.584 41.3686 266.387 47.3164L255.527 42.6615C257.724 36.8433 265.352 27.2743 281.256 27.2743C296.773 27.2743 309.443 36.5857 309.443 54.4292V92.7002H298.066V83.909H297.547C294.057 89.2086 287.593 94.7692 276.731 94.7692C263.8 94.7692 253.069 86.7524 253.069 73.5622ZM298.066 65.4174C298.066 65.4174 293.024 61.2793 282.936 61.2793C270.394 61.2793 265.482 68.0049 265.482 73.8214C265.482 80.547 272.463 83.909 278.67 83.909C288.11 83.909 298.066 75.7608 298.066 65.4174ZM199.155 29.3433L198.638 38.1346H199.155C202.517 32.3164 210.534 27.2743 219.197 27.2743C235.359 27.2743 243.376 38.2642 243.376 53.9107V92.7002H231.48V55.7204C231.48 42.5319 224.886 38.1346 215.835 38.1346C205.49 38.1346 199.155 47.9628 199.155 57.6598V92.7002H187.259V0.122777H199.155V29.3433ZM126.623 83.9073H126.106L126.623 92.6985V120.63H114.727V29.3433H126.106V38.1362H126.623C130.244 32.3181 138.131 27.2743 148.217 27.2743C164.249 27.2743 178.344 41.6261 178.344 61.0218C178.344 80.4174 164.249 94.7692 148.217 94.7692C138.131 94.7692 130.244 89.7255 126.623 83.9073ZM166.448 61.0218C166.448 46.7979 156.879 38.1362 146.278 38.1362C135.674 38.1362 126.106 46.5403 126.106 61.0218C126.106 75.5032 135.674 83.9073 146.278 83.9073C156.879 83.9073 166.448 75.2457 166.448 61.0218ZM90.1635 92.7002H102.059V0.122777H90.1635V92.7002ZM34.9564 0.121094L0.0439453 92.7002H13.2342L22.283 67.616H61.2039L70.1264 92.7002H83.3133L48.4025 0.121094H34.9564ZM41.4194 14.7322H41.9379L57.0658 56.4948H26.2931L41.4194 14.7322Z" fill="#ED1C24"/>
</svg>
