<svg width="500" height="206" viewBox="0 0 500 206" fill="none" xmlns="http://www.w3.org/2000/svg">
<g clip-path="url(#clip0_17_18279)">
<path d="M462.604 143.923C461.266 143.923 460.345 142.996 460.345 141.663V75.4156H437.84C436.502 75.4156 435.58 74.4923 435.58 73.1572V64.0191C435.58 62.681 436.503 61.7552 437.84 61.7552H497.744C499.08 61.7552 500 62.682 500 64.0191V73.1567C500 74.4908 499.08 75.4156 497.744 75.4156H475.241V141.662C475.241 142.996 474.315 143.923 472.982 143.923H462.604ZM290.216 110.849L278.402 76.9582L266.483 110.849H290.216ZM316.417 141.247C316.933 142.585 316.109 143.923 314.671 143.923H303.987C302.445 143.923 301.519 143.207 301.004 141.762L294.944 124.308H261.76L255.69 141.762C255.18 143.207 254.252 143.923 252.714 143.923H242.648C241.311 143.923 240.384 142.585 240.899 141.247L268.742 63.8137C269.258 62.371 270.182 61.7587 271.72 61.7587H285.488C287.031 61.7587 288.059 62.3715 288.572 63.8137L316.417 141.247ZM396.227 132.829C402.8 132.829 407.221 129.65 410.818 124.204L394.176 106.331C387.802 109.928 383.69 113.518 383.69 120.71C383.691 127.798 389.442 132.829 396.227 132.829ZM400.85 72.6418C395.509 72.6418 392.427 76.0344 392.427 80.5527C392.427 84.0443 394.273 87.126 398.487 91.6463C405.781 87.4324 408.865 84.8661 408.865 80.3483C408.865 76.1339 406.195 72.6418 400.85 72.6418ZM446.371 141.047C447.705 142.486 446.885 143.923 445.236 143.923H432.187C430.441 143.923 429.517 143.511 428.387 142.174L420.579 133.55C415.339 140.535 408.038 145.771 395.917 145.771C380.917 145.771 369.098 136.734 369.098 121.228C369.098 109.31 375.471 102.941 385.131 97.6012C380.401 92.1581 378.247 86.4062 378.247 81.376C378.247 68.6369 387.185 59.9082 400.643 59.9082C414.411 59.9082 422.838 68.025 422.838 80.0394C422.838 90.3101 415.442 96.0566 407.63 100.373L419.14 112.805L425.612 101.503C426.433 100.17 427.358 99.6547 429 99.6547H438.964C440.611 99.6547 441.535 100.787 440.511 102.532L429.001 122.249L446.371 141.047ZM343.832 143.923C345.168 143.923 346.097 142.996 346.097 141.663V75.4156H368.595C369.931 75.4156 370.855 74.4923 370.855 73.1572V64.0191C370.855 62.681 369.931 61.7552 368.595 61.7552H308.692C307.355 61.7552 306.432 62.682 306.432 64.0191V73.1567C306.432 74.4908 307.355 75.4156 308.692 75.4156H331.19V141.662C331.19 142.996 332.118 143.923 333.452 143.923H343.832Z" fill="black"/>
<path d="M39.7535 183.883C57.1783 197.372 79.0495 205.476 102.779 205.476C128.746 205.476 152.42 195.835 170.487 180.009C170.706 179.816 170.598 179.688 170.382 179.816C162.274 185.23 139.168 197.05 102.78 197.05C71.1571 197.05 51.1729 189.994 39.8874 183.695C39.6715 183.588 39.5915 183.75 39.7535 183.883ZM109.755 189.135C135.048 189.135 162.841 182.24 179.463 168.592C184.012 164.874 188.345 159.925 192.226 153.273C194.459 149.446 196.644 144.9 198.424 140.43C198.503 140.212 198.368 140.106 198.204 140.351C182.747 163.099 137.984 177.288 91.7642 177.288C59.0943 177.288 23.9421 166.841 10.1798 146.893C10.0443 146.708 9.90886 146.787 9.99134 146.999C22.8119 174.249 61.7066 189.135 109.755 189.135ZM82.1212 143.929C29.5182 143.929 4.71474 119.429 0.215431 102.71C0.159946 102.468 0.000488281 102.521 0.000488281 102.739C0.000488281 108.367 0.563839 115.631 1.53308 120.452C1.99546 122.799 3.90545 126.482 6.70571 129.418C19.4433 142.695 51.1999 161.299 106.197 161.299C181.129 161.299 198.262 136.338 201.761 128.13C204.262 122.26 205.559 111.651 205.559 102.739C205.559 100.583 205.505 98.8603 205.423 97.1692C205.423 96.8948 205.264 96.8723 205.209 97.1397C201.465 117.225 137.444 143.929 82.1212 143.929ZM9.90886 58.6644C6.89466 64.6463 3.55355 74.7381 2.56031 79.9613C2.12493 82.1992 2.31038 83.2739 3.09517 84.9439C9.4 98.3209 41.291 119.724 115.68 119.724C161.063 119.724 196.318 108.575 202.029 88.2286C203.081 84.4831 203.138 80.5286 201.786 75.2C200.277 69.2456 197.45 62.3019 195.057 57.4262C194.978 57.2673 194.838 57.2908 194.867 57.4787C195.756 84.1647 121.337 101.364 83.7883 101.364C43.1166 101.364 9.18505 85.1589 9.18505 64.6973C9.18505 62.7313 9.59195 60.7649 10.0998 58.7184C10.1508 58.5314 9.99084 58.5005 9.90886 58.6644ZM170.653 25.8996C171.085 26.5764 171.301 27.2987 171.301 28.271C171.301 39.6859 136.364 59.8796 80.7506 59.8796C39.8874 59.8796 32.2369 44.7206 32.2369 35.0802C32.2369 31.6341 33.5586 28.108 36.4693 24.527C36.6283 24.314 36.4933 24.232 36.3099 24.3905C31.0013 28.8893 26.1236 33.9515 21.8447 39.416C19.8002 42.0003 18.5311 44.2897 18.5311 45.6614C18.5311 65.6396 68.6258 80.1247 115.466 80.1247C165.375 80.1247 187.649 63.832 187.649 49.5138C187.649 44.3967 185.657 41.4095 180.561 35.618C177.254 31.8505 174.125 28.7828 170.813 25.7631C170.653 25.6312 170.542 25.7386 170.653 25.8996ZM155.353 14.4871C139.95 5.25456 122.063 0.00195312 102.78 0.00195312C83.3619 0.00195312 64.9363 5.43801 49.4779 14.915C44.8411 17.7687 42.2313 20.0556 42.2313 22.9954C42.2313 31.6611 62.4834 40.9786 98.4134 40.9786C133.97 40.9786 161.549 30.7728 161.549 20.9489C161.549 18.604 159.5 16.9635 155.353 14.4871Z" fill="#00A8E0"/>
</g>
<defs>
<clipPath id="clip0_17_18279">
<rect width="500" height="205.486" fill="white"/>
</clipPath>
</defs>
</svg>
