<svg width="500" height="162" viewBox="0 0 500 162" fill="none" xmlns="http://www.w3.org/2000/svg">
<mask id="mask0_17_18280" style="mask-type:luminance" maskUnits="userSpaceOnUse" x="95" y="1" width="74" height="120">
<path d="M95.1257 1.00586H168.985V120.132H95.1257V1.00586Z" fill="white"/>
</mask>
<g mask="url(#mask0_17_18280)">
<path fill-rule="evenodd" clip-rule="evenodd" d="M134.293 32.0747C124.452 32.0747 116.201 35.4041 109.739 41.6556V1.00586H95.1287V120.132H109.739V70.8083C109.739 56.5867 119.581 46.1975 133.198 46.1975C146.419 46.1975 154.371 54.8711 154.371 69.4969V120.132H168.982V68.1855C168.982 46.5987 155.069 32.0747 134.293 32.0747Z" fill="#00629B"/>
</g>
<path fill-rule="evenodd" clip-rule="evenodd" d="M190.359 92.8984C190.359 83.617 198.608 78.072 212.425 78.072C221.868 78.072 229.323 79.4852 235.288 80.8954V87.0481C235.288 98.8505 224.156 107.728 209.443 107.728C200 107.728 190.458 102.785 190.458 93.2008V92.9014L190.359 92.8984ZM213.518 32.6828C201.192 32.6828 191.85 36.3116 184.395 39.8445L181.311 41.3565L186.88 54.8714L190.359 53.0571C198.21 49.0211 205.467 47.105 213.123 47.105C222.961 47.105 234.59 50.5361 235.189 66.3714C229.323 65.0601 222.464 63.9493 213.021 63.9493C190.159 63.9493 175.347 75.4493 175.347 93.3026V93.605C175.347 112.063 192.644 122.048 209.045 122.048C221.171 122.048 229.623 117.512 235.288 112.569V120.135H249.802V67.1768C249.602 45.6948 236.084 32.6828 213.518 32.6828ZM272.665 47.4074V33.9942H258.054V120.336H272.665V84.3265C272.665 59.5122 287.773 48.4163 302.883 48.4163H307.255V32.6828H303.779C291.949 32.6828 280.617 37.7247 272.665 47.4074ZM348.509 107.222C340.258 107.222 336.479 103.59 336.479 95.5211V48.3145H363.814V32.6798H336.479V8.67383H321.868V32.6798H312.027V48.3145H321.868V96.3295C321.868 111.964 331.611 121.647 347.317 121.647C352.485 121.647 356.859 120.638 361.53 118.518L363.62 117.512V102.482L358.548 104.803C354.476 106.617 351.791 107.222 348.509 107.222Z" fill="#00629B"/>
<path fill-rule="evenodd" clip-rule="evenodd" d="M403.084 46.2983C418.093 46.2983 425.15 57.7953 427.036 69.6995H378.629C381.114 55.9809 390.955 46.2983 403.081 46.2983M403.38 32.0768C380.617 32.0768 362.823 51.7444 362.823 76.96V77.2624C362.823 102.885 380.817 122.149 404.572 122.149C422.464 122.149 432.605 113.577 439.464 106.113L441.949 103.388L431.41 93.9061L429.027 96.5289C421.967 104.194 414.314 107.726 404.871 107.726C393.638 107.726 381.213 100.262 378.329 83.8193H442.246L442.446 80.5917L442.644 77.3642V77.0618C442.743 50.6336 426.542 32.0768 403.38 32.0768ZM496.222 32.6786C484.293 32.1756 473.063 37.7235 465.108 47.4091V33.9899H450.497V120.334H465.108V84.3253C465.108 59.5109 480.219 48.4151 495.329 48.4151H499.701V32.8821L496.222 32.6786ZM77.1377 97.7384C69.3832 104.295 61.7305 107.22 52.2874 107.22C31.3114 107.22 14.9102 87.5498 14.9102 62.3342C14.9102 36.9151 31.015 17.7534 52.2874 17.7534C61.3323 17.7534 68.6886 20.475 76.1437 26.5259L78.6287 28.5438L89.4641 17.5498L86.482 15.0289C80.3174 9.78334 70.1796 2.82227 52.485 2.82227C22.5659 2.82227 0 28.5438 0 62.6366C0 96.5289 22.3653 122.149 52.0868 122.149C70.1796 122.149 80.7156 114.382 87.0779 108.532L89.8623 106.011L79.7216 95.7235L77.1377 97.7384Z" fill="#00629B"/>
<path fill-rule="evenodd" clip-rule="evenodd" d="M8.74854 149.282C8.74854 142.829 13.4192 137.584 20.1797 137.584C24.2545 137.584 26.7396 138.997 28.8264 141.114L26.3414 144.039C24.5539 142.324 22.6647 141.216 20.1797 141.216C16.003 141.216 12.8234 144.746 12.8234 149.183V149.285C12.8234 153.722 15.9072 157.252 20.1797 157.252C22.8623 157.252 24.6527 156.144 26.5419 154.326L29.027 156.847C26.7396 159.27 24.1557 160.782 20.0809 160.782C13.518 160.883 8.74854 155.737 8.74854 149.282ZM61.9282 149.282C61.9282 144.847 58.7485 141.216 54.3743 141.216C50 141.216 46.9192 144.746 46.9192 149.183V149.285C46.9192 153.623 50.0988 157.252 54.4731 157.252C58.8443 157.252 61.9282 153.719 61.9282 149.282ZM42.8443 149.285C42.8443 142.928 47.6138 137.584 54.4731 137.584C61.2336 137.584 66.003 142.829 66.003 149.183V149.285C66.003 155.638 61.2336 160.883 54.3743 160.883C47.6138 160.883 42.8443 155.638 42.8443 149.285ZM82.1078 137.988H86.2815L93.0419 148.578L99.8024 137.988H103.976V160.479H100.099V144.341L93.1407 154.931H93.0419L86.0839 144.44V160.479H82.2066V137.985L82.1078 137.988ZM120.973 137.988H125.15L131.907 148.578L138.668 137.988H142.841V160.479H138.967V144.341L132.009 154.931H131.907L124.949 144.44V160.479H121.078V137.985L120.973 137.988ZM159.443 150.997V138.087H163.32V150.898C163.32 155.033 165.407 157.252 168.889 157.252C172.365 157.252 174.452 155.135 174.452 150.997V138.087H178.329V150.797C178.329 157.554 174.554 160.886 168.787 160.886C163.123 160.886 159.443 157.455 159.443 150.997ZM195.129 137.988H198.707L210.536 153.521V137.988H214.413V160.479H211.132L198.907 144.44V160.479H195.03V137.985L195.129 137.988Z" fill="#787878"/>
<mask id="mask1_17_18280" style="mask-type:luminance" maskUnits="userSpaceOnUse" x="0" y="1" width="500" height="160">
<path d="M0 160.884H499.701V1.00977H0V160.884Z" fill="white"/>
</mask>
<g mask="url(#mask1_17_18280)">
<path fill-rule="evenodd" clip-rule="evenodd" d="M231.71 160.479H235.587V137.988H231.707L231.71 160.479ZM251.988 149.282C251.988 142.829 256.659 137.584 263.419 137.584C267.497 137.584 269.982 138.997 272.066 141.114L269.581 144.039C267.793 142.324 265.904 141.216 263.419 141.216C259.245 141.216 256.063 144.746 256.063 149.183V149.285C256.063 153.722 259.147 157.252 263.419 157.252C266.102 157.252 267.892 156.144 269.781 154.326L272.266 156.847C269.982 159.27 267.395 160.782 263.32 160.782C256.76 160.883 251.988 155.737 251.988 149.282ZM301.093 151.605L297.216 142.626L293.44 151.605H301.093ZM295.527 137.886H299.105L308.847 160.482H304.772L302.485 155.033H292.048L289.76 160.482H285.784L295.527 137.886ZM326.641 141.719H319.581V138.087H337.575V141.719H330.515V160.581H326.641V141.719ZM353.38 160.479H357.257V137.988H353.38V160.479ZM392.644 149.282C392.644 144.847 389.464 141.216 385.09 141.216C380.716 141.216 377.635 144.746 377.635 149.183V149.285C377.635 153.623 380.814 157.252 385.189 157.252C389.56 157.252 392.644 153.719 392.644 149.282ZM373.56 149.285C373.56 142.928 378.329 137.584 385.189 137.584C391.949 137.584 396.722 142.829 396.722 149.183V149.285C396.722 155.638 391.949 160.883 385.09 160.883C378.329 160.883 373.56 155.638 373.56 149.285ZM412.823 137.988H416.401L428.231 153.521V137.988H432.108V160.479H428.826L416.602 144.44V160.479H412.725V137.985L412.823 137.988ZM447.713 157.252L450.099 154.428C452.186 156.243 454.374 157.353 457.057 157.353C459.443 157.353 460.934 156.246 460.934 154.53V154.428C460.934 152.815 460.039 151.907 455.964 151C451.293 149.889 448.608 148.476 448.608 144.24V144.141C448.608 140.309 451.79 137.584 456.162 137.584C459.344 137.584 461.928 138.593 464.216 140.407L462.126 143.431C460.138 141.919 458.15 141.114 456.162 141.114C453.877 141.114 452.584 142.324 452.584 143.737V143.838C452.584 145.551 453.578 146.359 457.853 147.368C462.524 148.476 464.91 150.192 464.91 153.925V154.024C464.91 158.261 461.629 160.782 456.958 160.782C453.578 160.782 450.398 159.572 447.713 157.252Z" fill="#787878"/>
</g>
</svg>
