<svg width="500" height="177" viewBox="0 0 500 177" fill="none" xmlns="http://www.w3.org/2000/svg">
<g clip-path="url(#clip0_17_18281)">
<path d="M249.958 8.87712C251.801 5.8669 254.86 2.71721 258.153 1.38505C263.823 -1.19428 271.421 -0.0850677 276.046 3.99638C280.522 8.05133 282.793 13.6089 281.721 19.8223C282.819 19.6198 283.927 18.917 285.09 18.5171C292.037 16.5561 299.385 18.6826 303.84 24.6396C307.186 28.892 308.061 35.4988 306.052 40.6359C305.055 43.2198 303.355 45.5432 301.145 47.5256L301.368 47.7496C307.832 48.0635 314.184 53.0832 316.145 59.2376C318.27 65.4455 316.4 72.0793 311.861 76.6196C308.152 80.2857 303.382 81.5544 298.081 81.4474H201.83C193.928 81.6178 187.821 78.1168 184.533 71.0891C181.954 65.0566 183.228 57.3411 188.045 52.7428C191.082 49.5666 194.887 48.266 198.99 47.6111C194.343 43.3002 192.105 37.4018 193.411 31.0764C194.343 25.9507 198.713 20.7606 203.732 18.97C208.154 17.2115 214.144 17.5204 218.194 19.9073L218.338 19.7313C217.118 12.7561 220.209 6.46324 225.995 2.60524C231.153 -0.884361 239.402 -0.794385 244.453 2.91516C246.723 4.3053 248.593 6.69268 249.958 8.87712Z" fill="white"/>
<path d="M277.207 11.484C279.275 15.6564 278.061 21.1235 275.902 24.8695L259.203 62.4414L259.058 62.6173L253.022 24.5021C252.537 20.8421 256.448 19.2805 258.75 17.5219C258.633 16.9841 258.041 17.0106 257.668 16.7601L252.026 16.7012L251.854 16.5307C251.886 11.7989 254.434 7.42955 258.75 5.13314C263.259 2.52781 269.609 3.23613 273.52 6.57727C275.109 7.9939 276.446 9.63998 277.207 11.484Z" fill="#645FAA"/>
<path d="M246.441 10.1779C247.805 12.7037 248.594 15.571 248.114 18.7462L241.304 62.3874C241.341 62.4404 241.278 62.4994 241.224 62.5254L239.46 59.0143L222.393 20.8991C220.805 15.9914 222.276 10.8602 225.851 7.34263C229.453 3.68757 235.378 2.69633 240.089 4.67881C242.583 5.75554 244.965 7.73803 246.441 10.1779Z" fill="#C9234A"/>
<path d="M301.911 28.5503C304.208 32.4663 303.691 38.3923 301.138 42.0263C299.556 44.5787 296.944 45.8523 294.733 47.5254L259.368 71.8017H259.287L259.682 70.6405L278.428 28.3269C281.236 23.3392 286.597 20.8133 292.267 21.5751C296.151 22.2844 300.036 24.8098 301.911 28.5503Z" fill="#0089CF"/>
<path d="M221.572 28.326L241.08 71.7963H240.766L201.437 44.6898C197.434 41.3172 195.794 36.2655 197.152 31.1608C198.17 27.3348 201.346 23.7597 205.124 22.3416C211.309 20.0771 218.279 22.4855 221.572 28.326Z" fill="#F36F21"/>
<path d="M312.174 59.2363C314.134 63.3767 313.362 69.0462 310.559 72.5678C307.779 75.9415 304.059 77.785 299.694 77.6675L257.759 77.6945L292.889 53.2528C296.322 51.0414 301.538 50.641 305.284 52.4315C308.177 53.5667 310.9 56.4015 312.174 59.2363Z" fill="#0DB14B"/>
<path d="M187.992 59.2363C186.037 63.3767 186.803 69.0462 189.612 72.5678C192.393 75.9415 196.101 77.785 200.471 77.6675L242.407 77.6945L207.276 53.2528C203.844 51.0414 198.628 50.641 194.887 52.4315C191.993 53.5667 189.271 56.4015 187.992 59.2363Z" fill="#FDB913"/>
<path d="M112.688 102.799C92.3122 102.799 75.7515 119.371 75.7515 139.747C75.7515 160.119 92.3122 176.7 112.688 176.7C133.065 176.7 149.637 160.119 149.637 139.747C149.637 119.371 133.065 102.799 112.688 102.799ZM112.688 169.422C96.3247 169.422 83.0086 156.107 83.0086 139.748C83.0086 123.394 96.3247 110.078 112.688 110.078C129.053 110.078 142.369 123.394 142.369 139.748C142.369 156.107 129.053 169.422 112.688 169.422Z" fill="black"/>
<path d="M431.251 140.215C429.269 139.175 417.21 132.968 415.478 132.068C409.154 128.833 406.91 125.977 406.91 121.139C406.91 114.414 412.431 110.071 420.993 110.071C426.019 110.071 430.877 112.283 433.729 113.886C434.246 114.169 434.859 114.329 435.498 114.329C437.491 114.329 439.127 112.693 439.127 110.7C439.127 109.358 438.39 108.179 437.31 107.551C433.719 105.547 427.595 102.803 420.993 102.803C408.413 102.803 399.637 110.337 399.637 121.139C399.637 130.832 406.009 135.403 412.244 138.59C413.991 139.48 426.189 145.767 428.016 146.731C432.833 149.252 435.498 153.035 435.498 157.389C435.498 163.224 430.554 169.426 421.404 169.426C412.505 169.426 405.594 163.458 403.687 161.62L403.116 161.076L397.74 165.978L398.368 166.607C400.755 168.974 409.484 176.699 421.404 176.699C434.768 176.699 442.756 166.879 442.756 157.389C442.756 150.302 438.567 144.04 431.251 140.215Z" fill="black"/>
<path d="M36.938 110.077C44.8719 110.077 52.3265 113.169 57.9216 118.758C59.2537 120.084 61.7581 120.084 63.0687 118.758C63.7615 118.081 64.129 117.17 64.129 116.195C64.129 115.23 63.7615 114.308 63.0687 113.632L62.6213 113.173C55.7046 106.48 46.577 102.799 36.938 102.799C16.5717 102.799 0 119.376 0 139.742C0 160.119 16.5717 176.701 36.938 176.701C47.6902 176.701 57.3777 172.087 64.129 164.733L58.9868 159.586C53.5517 165.618 45.6867 169.422 36.9375 169.422C20.5787 169.422 7.26263 156.102 7.26263 139.742C7.26313 123.399 20.5792 110.077 36.938 110.077Z" fill="black"/>
<path d="M287.396 110.077C295.32 110.077 302.785 113.169 308.379 118.758C309.706 120.084 312.211 120.084 313.522 118.758C314.215 118.081 314.598 117.17 314.598 116.195C314.598 115.23 314.214 114.308 313.522 113.632L313.08 113.173C306.147 106.48 297.03 102.799 287.396 102.799C267.025 102.799 250.448 119.376 250.448 139.741C250.448 160.119 267.025 176.7 287.396 176.7C298.143 176.7 307.831 172.087 314.593 164.732L309.445 159.585C304.01 165.617 296.134 169.422 287.396 169.422C271.032 169.422 257.71 156.101 257.71 139.742C257.71 123.399 271.032 110.077 287.396 110.077Z" fill="black"/>
<path d="M224.812 102.799C223.448 102.799 222.372 103.678 221.785 104.813C221.188 105.948 200.045 158.248 200.04 158.248C200.04 158.248 178.896 105.947 178.304 104.813C177.713 103.678 176.637 102.799 175.273 102.799C173.68 102.799 172.481 103.971 172.06 105.448C171.639 106.934 159.709 172.757 159.709 172.757C159.666 172.971 159.645 173.195 159.645 173.423C159.645 175.234 161.121 176.7 162.922 176.7C164.521 176.7 165.853 175.561 166.14 174.052L176.472 117.735C176.472 117.735 196.406 166.981 196.987 168.153C197.573 169.32 198.66 170.231 200.046 170.231C201.431 170.231 202.513 169.32 203.094 168.153C203.68 166.981 223.614 117.735 223.614 117.735L234.35 176.295H241.023C241.023 176.295 228.453 106.933 228.032 105.448C227.604 103.971 226.405 102.799 224.812 102.799Z" fill="black"/>
<path d="M356.172 102.803C354.792 102.798 353.721 103.698 353.119 104.87C352.522 106.037 325.757 172.144 325.757 172.144C325.597 172.532 325.506 172.965 325.506 173.423C325.506 175.234 326.972 176.705 328.783 176.705C330.163 176.705 331.347 175.841 331.832 174.621L342.222 149.061H370.127L381.211 176.294H388.292C388.292 176.294 359.806 106.037 359.22 104.87C358.639 103.698 357.557 102.798 356.172 102.803ZM345.184 141.786L356.171 114.77L367.169 141.786H345.184Z" fill="black"/>
<path d="M496.355 103.191H455.219C453.215 103.191 451.59 104.822 451.59 106.831C451.59 108.829 453.215 110.46 455.219 110.46H472.462V176.289H479.123V110.46H496.355C498.359 110.46 500 108.829 500 106.831C500 104.822 498.359 103.191 496.355 103.191Z" fill="black"/>
</g>
<defs>
<clipPath id="clip0_17_18281">
<rect width="500" height="176.705" fill="white"/>
</clipPath>
</defs>
</svg>
