<svg width="500" height="74" viewBox="0 0 500 74" fill="none" xmlns="http://www.w3.org/2000/svg">
<g clip-path="url(#clip0_17_18282)">
<path fill-rule="evenodd" clip-rule="evenodd" d="M488.07 40.6935C493.504 42.0989 500 43.879 500 50.4999C500 56.621 494.253 60.4936 486.914 60.4936C478.826 60.4936 472.829 55.6529 472.142 48.8446H479.544C479.981 52.1551 482.979 54.3724 486.914 54.3724C489.85 54.3724 491.974 53.1232 491.974 51.2494C491.974 48.9696 488.663 48.1576 484.759 47.127C479.325 45.7216 472.829 43.9415 472.829 37.1332C472.829 31.012 478.201 27.3893 485.134 27.3893C492.973 27.3893 498.782 32.1676 499.5 38.9758H492.099C491.568 35.6654 488.788 33.5105 485.009 33.5105C482.792 33.5105 480.731 34.5099 480.731 36.4461C480.731 38.7884 484.135 39.6629 488.07 40.6935ZM440.443 28.1076H432.355V59.869H440.443V43.0358C440.443 38.726 444.285 34.1975 450.781 35.2282V27.5142C445.877 26.9521 442.348 29.6691 440.443 33.8228V28.1076ZM384.51 59.869H393.566L397.97 50.3749H416.583L421.112 59.869H430.418L407.464 13.398L384.51 59.869ZM401.155 43.5667L407.152 30.606L413.335 43.5667H401.155ZM363.148 40.5998H371.362C369.831 32.8859 363.21 27.483 355.309 27.483C346.127 27.483 338.663 34.4162 338.663 44.0352C338.663 53.5604 346.127 60.5248 355.309 60.5248C363.21 60.5248 369.831 55.3406 371.362 47.6579H363.148C361.867 51.0932 358.869 53.2481 355.309 53.2481C350.531 53.2481 346.689 49.5005 346.689 44.1601C346.689 38.6635 350.531 34.9783 355.309 34.9783C358.869 34.9783 361.867 37.1332 363.148 40.5998ZM326.983 59.869H335.072V28.1076H326.983V59.869ZM336.227 18.9571C336.227 16.0526 333.885 13.7104 331.012 13.7104C328.139 13.7104 325.827 16.0526 325.827 18.9571C325.827 21.8303 328.139 24.1726 331.012 24.1726C333.885 24.1726 336.227 21.8303 336.227 18.9571ZM301.093 32.0426V28.1076H293.004V59.869H301.093V40.6623C301.093 36.9458 303.966 34.0414 307.745 34.0414C311.618 34.0414 314.366 36.8209 314.366 40.9746V59.869H322.455V40.3187C322.455 32.8859 318.176 27.4205 310.587 27.4205C306.527 27.4205 302.998 29.2007 301.093 32.0426ZM289.381 44.0352C289.381 34.4162 281.855 27.483 272.548 27.483C263.242 27.483 255.715 34.4162 255.715 44.0352C255.715 53.5604 263.242 60.4936 272.548 60.4936C281.855 60.4936 289.381 53.5604 289.381 44.0352ZM281.355 44.0976C281.355 49.438 277.451 53.1857 272.548 53.1857C267.645 53.1857 263.741 49.438 263.741 44.0976C263.741 38.601 267.645 34.9158 272.548 34.9158C277.451 34.9158 281.355 38.601 281.355 44.0976ZM245.097 28.1076H237.008V59.869H245.097V43.067C245.097 38.726 248.907 34.2288 255.434 35.2282V27.5455C250.5 26.9521 247.002 29.7004 245.097 33.8228V28.1076ZM461.524 18.8322L453.56 21.3618V51.6866C453.56 56.5898 456.995 59.9002 462.867 59.9002H470.768V52.686H465.147C462.679 52.686 461.524 51.5617 461.524 49.438V35.0095H470.768V28.1076H461.524V18.8322ZM224.672 18.8322L216.677 21.3931V51.6866C216.677 56.5898 220.143 59.9002 225.984 59.9002H233.916V52.7172H228.295C225.796 52.7172 224.672 51.5617 224.672 49.4693V35.0095H233.916V28.1388H224.672V18.8322ZM205.871 40.5998H214.085C212.554 32.8859 205.934 27.483 198.032 27.483C188.851 27.483 181.386 34.4162 181.386 44.0352C181.386 53.5917 188.851 60.5248 198.032 60.5248C205.934 60.5248 212.554 55.3718 214.085 47.6579H205.871C204.591 51.0932 201.593 53.2794 198.032 53.2794C193.223 53.2794 189.413 49.5005 189.413 44.1601C189.413 38.6947 193.223 35.0095 198.032 35.0095C201.593 35.0095 204.591 37.1644 205.871 40.5998ZM178.638 45.4405C178.638 33.2294 169.987 27.4205 162.055 27.4205C152.936 27.4205 145.565 34.3537 145.565 43.9727C145.565 53.5292 153.341 60.5248 162.898 60.5248C169.987 60.5248 175.703 56.5273 178.139 50.4062H169.144C167.801 52.3737 165.521 53.3418 163.023 53.3418C158.682 53.3418 155.122 50.656 154.029 46.6585H178.576C178.576 46.1901 178.638 45.8153 178.638 45.4405ZM154.091 40.8496C155.184 36.9771 158.307 34.4786 162.055 34.4786C165.834 34.4786 169.144 37.102 169.862 40.8496H154.091ZM133.854 59.9002H141.942V12.7734L133.854 15.3343V59.9002ZM97.7825 59.9002H130.168V52.1863H106.683V41.3181H125.703V33.6042H106.683V23.1732H130.168V15.3343H97.7825V59.9002Z" fill="#FF4747"/>
<path fill-rule="evenodd" clip-rule="evenodd" d="M37.0081 73.3292C16.7083 73.3292 0.312256 56.9332 0.312256 36.6646C0.312256 16.396 16.7083 0 37.0081 0C57.3079 0 73.7039 16.396 73.7039 36.6646C73.7039 56.9332 57.3079 73.3292 37.0081 73.3292ZM43.2229 22.4859H22.4859L19.3316 27.5453H40.0687L43.2229 22.4859ZM47.4391 22.5172L34.7595 42.6921H20.7058L23.9537 37.6327H32.386L35.6027 32.5734H16.1149L12.8981 37.6327H17.5203L11.0868 47.7514H37.8201L47.7201 32.1674L51.3116 37.6327H48.0637L44.9718 42.6921H54.5908L57.9325 47.7514H64.0537L47.4391 22.5172Z" fill="#FF4747"/>
</g>
<defs>
<clipPath id="clip0_17_18282">
<rect width="500" height="73.3916" fill="white"/>
</clipPath>
</defs>
</svg>
