<svg width="500" height="113" viewBox="0 0 500 113" fill="none" xmlns="http://www.w3.org/2000/svg">
<g clip-path="url(#clip0_17_18292)">
<path d="M35.2256 29.334H51.0818V63.2073H73.3738V76.7628H35.2256V29.334Z" fill="#DE0A2C"/>
<path d="M94.9043 29.334H112.657L121.875 55.9631L131.094 29.334H148.567L129.322 77.1048H114.149L94.9043 29.334Z" fill="#DE0A2C"/>
<path d="M149.173 29.334H189.622V42.3454H164.765V47.1489H187.943V58.6058H164.765V63.7513H189.964V76.7628H149.173V29.334Z" fill="#DE0A2C"/>
<path d="M208.727 29.334H223.557L240.424 50.2735V29.334H256.14V76.7628H242.041L224.428 54.875V76.7628H208.711V29.334H208.727Z" fill="#1D1D1B"/>
<path d="M275.401 28.9922H291.117L311.109 76.763H293.9L291.397 70.3894H274.795L272.354 76.763H255.41L275.401 28.9922ZM287.449 59.1346L283.111 47.6155L278.774 59.1346H287.449Z" fill="#1D1D1B"/>
<path d="M313.674 42.734H299.714V29.3184H343.474V42.734H329.514V76.7472H313.658V42.734H313.674Z" fill="#1D1D1B"/>
<path d="M345.853 29.334H361.709V76.7628H345.853V29.334Z" fill="#1D1D1B"/>
<path d="M364.833 53.1811V53.0412C364.833 39.2836 376.15 28.3086 390.778 28.3086C405.406 28.3086 416.599 39.1437 416.599 52.9013V53.0412C416.599 66.7988 405.282 77.7738 390.654 77.7738C376.026 77.7738 364.849 66.9387 364.849 53.1811H364.833ZM400.603 53.1811V53.0412C400.603 47.4138 396.748 42.3305 390.638 42.3305C384.529 42.3305 380.814 47.3516 380.814 52.9013V53.0412C380.814 58.6686 384.669 63.7519 390.778 63.7519C396.887 63.7519 400.603 58.7308 400.603 53.1811Z" fill="#1D1D1B"/>
<path d="M418.216 29.334H433.046L449.913 50.2735V29.334H465.629V76.7628H451.529L433.917 54.875V76.7628H418.2V29.334H418.216Z" fill="#1D1D1B"/>
<path d="M100.61 19.6963C100.61 19.6963 99.5991 17.9086 99.397 17.551C99.1949 17.1935 98.8685 17.4733 98.8685 17.4733C98.8685 17.4733 97.8269 18.2506 97.2673 18.6237C96.7077 18.9968 96.7543 19.432 96.7543 19.6652C96.7543 19.8984 96.5833 21.2975 96.5833 21.2975C96.5522 21.6239 96.3812 21.8726 96.2569 22.0281L87.1473 29.0857L86.0125 29.3499L83.1988 30.7179L83.3698 28.8059C83.5719 28.9147 83.8828 29.21 84.1004 29.2411C84.3647 29.2878 84.7844 29.1634 84.7844 29.1634C84.7844 29.1634 84.6289 28.7903 84.6289 28.5727C84.6289 28.355 84.6756 28.0286 84.6756 28.0286C84.6756 28.0286 85.1109 28.2929 85.4218 28.2929C85.686 28.3084 85.9348 28.1996 86.1058 28.0908C86.2612 27.9664 86.4167 27.7954 86.4167 27.7954C86.4167 27.7954 85.8881 27.469 85.7171 27.298C85.5928 27.1581 85.4062 26.956 85.5306 26.956C85.7949 26.956 86.1835 26.5829 86.1835 26.5829C86.1835 26.5829 85.9037 26.4119 85.686 26.2409C85.4529 26.0388 85.344 25.8833 85.2508 25.6035C85.1575 25.3548 85.1109 25.1372 85.1109 25.1372C85.1109 25.1372 85.2663 25.3548 85.6394 25.3393C85.9503 25.3393 86.2301 25.1372 86.2301 25.1372C86.2301 25.1372 85.9814 24.9973 85.8259 24.8263C85.6394 24.6397 85.515 24.4376 85.4373 24.1734C85.3285 23.8003 85.2663 23.6293 85.173 23.3339C85.1264 23.2095 85.1109 22.9919 85.002 22.6188C84.8777 21.7949 84.5201 21.4529 84.5201 21.4529C83.4475 20.0228 80.9913 19.6341 80.9913 19.6341C79.7322 19.3698 78.4885 21.0021 77.9911 22.6344C77.1516 25.3393 77.4004 27.9975 77.4004 27.9975C77.4004 27.9975 77.447 28.495 77.8823 28.7903C78.1465 28.9613 79.2036 29.1945 79.2036 29.1945L79.0948 31.4019L76.4987 31.6351C76.4987 31.6351 74.54 30.4692 72.9233 29.4899L65.6947 24.1267C65.6947 24.1267 65.3838 23.9402 65.3527 23.365C65.3527 23.365 65.1817 21.9659 65.1817 21.7327C65.1817 21.4996 65.2284 21.0798 64.6532 20.6912C64.0936 20.3181 63.052 19.5408 63.052 19.5408C63.052 19.5408 62.71 19.261 62.5079 19.6186C62.3059 19.9761 61.2954 21.7794 61.2954 21.7794L61.824 23.8314C61.824 23.8314 62.0571 24.2355 62.368 24.6086L62.8344 25.075L65.5237 27.469H65.5704L69.9542 31.4019L71.2133 32.63C71.2133 32.63 71.3066 32.7855 71.3066 33.0342C71.3066 33.2829 71.2755 34.0291 71.2755 34.0291C71.2755 34.0291 71.26 34.2623 71.3999 34.3866C71.5553 34.5265 73.9027 36.4542 73.9027 36.4542C73.9027 36.4542 74.0737 36.5941 74.0737 36.9361L74.4934 51.0823C74.4934 51.0823 74.4934 51.3 74.7266 51.3L75.4883 51.5798L77.2138 67.0318L80.525 77.2451L75.2707 79.7945C75.2707 79.7945 75.0841 79.8878 74.9908 80.121C74.9908 80.121 74.6799 80.7117 74.6799 80.8361C74.6799 81.0382 74.8354 81.0848 74.8354 81.0848H82.6858L81.9396 83.1368L81.7375 83.6809C81.7375 83.6809 81.4577 84.7224 81.9085 84.8779C82.3593 85.0178 83.7584 85.08 84.3647 85.0489C85.1419 85.0022 86.5255 84.909 86.7587 84.6758C86.9608 84.4737 87.0696 83.5254 85.9348 77.2451L85.2663 53.1032L87.2717 37.9776C87.4582 36.2987 87.6914 36.1122 87.6914 36.1122C87.6914 36.1122 89.8211 34.5265 90.0232 34.34C90.2253 34.1535 90.1942 33.8426 90.1942 33.8426V32.1481C90.1942 31.8217 90.3185 31.604 90.3185 31.604L92.0441 29.9251L92.5571 29.3966L98.1068 24.0645L99.0706 22.9608L99.5369 22.4945C99.8634 22.1214 100.065 21.7172 100.065 21.7172C100.065 21.7172 100.454 20.7223 100.61 20.3803C100.749 20.0383 100.61 19.6652 100.61 19.6652" fill="#1D1D1B"/>
<path d="M0 0V106.47H110.589V95.9458H10.5086V10.5086H489.491V95.9458H389.395V106.47H500V0H0Z" fill="#DE0A2C"/>
<path d="M132.959 95.9609H145.271V99.1633H136.534V102.474H144.229V105.661H136.534V109.097H145.395V112.284H132.959V95.9609Z" fill="#12100B"/>
<path d="M151.147 95.9609H154.458L162.106 106.003V95.9609H165.651V112.284H162.604L154.707 101.915V112.284H151.163V95.9609H151.147Z" fill="#12100B"/>
<path d="M175.942 99.2721H170.967V95.9609H184.492V99.2721H179.517V112.284H175.926V99.2721H175.942Z" fill="#12100B"/>
<path d="M189.808 95.9609H202.12V99.1633H193.384V102.474H201.078V105.661H193.384V109.097H202.244V112.284H189.808V95.9609Z" fill="#12100B"/>
<path d="M207.996 95.9609H215.458C217.525 95.9609 219.142 96.5517 220.215 97.6243C221.116 98.5259 221.614 99.8162 221.614 101.355V101.402C221.614 104.045 220.184 105.692 218.116 106.454L222.111 112.284H217.914L214.416 107.06H211.603V112.284H208.012V95.9609H207.996ZM215.225 103.889C216.966 103.889 217.976 102.956 217.976 101.573V101.526C217.976 99.9872 216.904 99.1944 215.162 99.1944H211.603V103.889H215.24H215.225Z" fill="#12100B"/>
<path d="M231.221 99.2721H226.247V95.9609H239.771V99.2721H234.797V112.284H231.206V99.2721H231.221Z" fill="#12100B"/>
<path d="M248.601 95.8516H251.912L258.907 112.283H255.145L253.653 108.63H246.751L245.259 112.283H241.605L248.601 95.8516ZM252.378 105.443L250.202 100.142L248.041 105.443H252.378Z" fill="#12100B"/>
<path d="M264.146 95.9609H267.737V112.284H264.146V95.9609Z" fill="#12100B"/>
<path d="M274.391 95.9609H277.702L285.35 106.003V95.9609H288.894V112.284H285.848L277.951 101.915V112.284H274.406V95.9609H274.391Z" fill="#12100B"/>
<path d="M295.376 95.9609H299.247L303.538 102.863L307.828 95.9609H311.699V112.284H308.139V101.635L303.538 108.599H303.444L298.89 101.697V112.284H295.376V95.9609Z" fill="#12100B"/>
<path d="M318.182 95.9609H330.494V99.1633H321.757V102.474H329.452V105.661H321.757V109.097H330.618V112.284H318.182V95.9609Z" fill="#12100B"/>
<path d="M336.37 95.9609H339.681L347.329 106.003V95.9609H350.873V112.284H347.827L339.929 101.915V112.284H336.385V95.9609H336.37Z" fill="#12100B"/>
<path d="M361.149 99.2721H356.174V95.9609H369.699V99.2721H364.724V112.284H361.133V99.2721H361.149Z" fill="#12100B"/>
<path d="M374.673 99.2572V99.2261C374.673 96.8943 376.57 94.9512 378.964 94.9512C381.358 94.9512 383.223 96.8788 383.223 99.2106V99.2417C383.223 101.573 381.327 103.517 378.933 103.517C376.539 103.517 374.673 101.589 374.673 99.2572ZM382.726 99.2417V99.2106C382.726 97.112 381.109 95.4331 378.964 95.4331C376.819 95.4331 375.171 97.1431 375.171 99.2417V99.2728C375.171 101.371 376.787 103.05 378.933 103.05C381.078 103.05 382.726 101.34 382.726 99.2417ZM377.192 96.8322H379.213C379.834 96.8322 380.301 97.0032 380.612 97.3296C380.86 97.5783 380.985 97.9203 380.985 98.3245V98.3556C380.985 99.0862 380.581 99.5526 380.005 99.7547L381.109 101.387H379.943L378.979 99.9257H378.187V101.387H377.176V96.8322H377.192ZM379.197 99.0551C379.71 99.0551 379.974 98.7909 379.974 98.4022V98.3711C379.974 97.9359 379.663 97.7027 379.166 97.7027H378.187V99.0396H379.197V99.0551Z" fill="#1D1D1B"/>
</g>
<defs>
<clipPath id="clip0_17_18292">
<rect width="500" height="112.284" fill="white"/>
</clipPath>
</defs>
</svg>
