<svg width="500" height="157" viewBox="0 0 500 157" fill="none" xmlns="http://www.w3.org/2000/svg">
<g clip-path="url(#clip0_17_18294)">
<path d="M336.228 61.4933C336.531 61.2584 336.564 60.9731 336.648 60.7382C337.992 57.1812 339.336 53.6074 340.68 50.0504C343.637 42.1982 346.593 34.3459 349.567 26.4936C349.936 25.5205 349.768 25.6547 350.743 25.6547C352.254 25.6547 353.75 25.6547 355.261 25.6547C355.446 25.6547 355.631 25.6547 355.833 25.6547C356.017 25.6547 356.118 25.7722 356.152 25.9399C356.185 26.1581 356.236 26.3594 356.286 26.5775C357.059 30.7386 357.832 34.8996 358.604 39.0606C359.377 43.2552 360.167 47.433 360.956 51.6276C361.679 55.5034 362.401 59.3792 363.123 63.255C363.577 65.7046 364.047 68.1543 364.501 70.6039C364.551 70.8724 364.602 71.124 364.635 71.3925C364.669 71.5938 364.585 71.6777 364.366 71.6945C364.266 71.6945 364.148 71.6945 364.047 71.6945C362.334 71.6945 360.603 71.6945 358.89 71.6945C358.789 71.6945 358.672 71.6945 358.571 71.6945C358.386 71.6945 358.268 71.6106 358.218 71.426C358.184 71.275 358.151 71.1073 358.117 70.9562C356.605 63.1208 355.093 55.2685 353.582 47.433C353.061 44.7485 352.54 42.0639 352.019 39.3794C352.003 39.2787 351.986 39.1613 351.935 39.0774C351.935 39.0438 351.851 39.0271 351.818 39.0103C351.818 39.0103 351.767 39.0271 351.751 39.0438C351.65 39.262 351.549 39.4801 351.465 39.6982C349.331 45.3357 347.198 50.99 345.081 56.6275C343.301 61.3758 341.52 66.1073 339.723 70.8556C339.37 71.7952 339.538 71.7113 338.463 71.7113C337.018 71.7113 335.556 71.7113 334.112 71.7113C333.927 71.7113 333.742 71.7113 333.541 71.7113C333.339 71.7113 333.188 71.6274 333.104 71.426C333.02 71.1911 332.919 70.973 332.835 70.7549C328.938 60.4698 325.057 50.2014 321.16 39.9163C321.042 39.5975 320.958 39.262 320.757 38.9935C320.555 39.0606 320.555 39.2116 320.538 39.3458C319.782 43.2888 319.026 47.2484 318.27 51.1914C317.481 55.3021 316.691 59.4127 315.919 63.5067C315.465 65.906 315.028 68.3053 314.541 70.6878C314.306 71.8455 314.541 71.7113 313.281 71.7281C311.769 71.7281 310.274 71.7281 308.762 71.7281C308.494 71.7281 308.225 71.7616 307.922 71.6442C307.838 71.3925 307.922 71.1408 307.973 70.8891C308.796 66.4597 309.636 62.0302 310.459 57.6175C311.181 53.7249 311.904 49.8155 312.626 45.923C313.466 41.4431 314.306 36.9633 315.146 32.4835C315.532 30.4365 315.919 28.3728 316.288 26.3258C316.305 26.2252 316.322 26.1077 316.339 26.0071C316.372 25.7889 316.507 25.6715 316.725 25.6715C316.859 25.6715 316.994 25.6715 317.128 25.6715C318.741 25.6715 320.354 25.6715 321.966 25.6715C322.588 25.6715 322.588 25.6044 322.84 26.2587C323.613 28.3225 324.402 30.3694 325.175 32.4332C328.736 41.8626 332.314 51.292 335.876 60.7215C335.976 60.9731 336.077 61.208 336.195 61.5268L336.228 61.4933Z" fill="#1C1C1C"/>
<path d="M348.609 90.7382C348.29 91.208 345.098 94.4798 344.325 95.1174C344.057 94.9999 343.889 94.765 343.67 94.5637C341.806 92.8523 339.672 91.5939 337.219 90.906C335.708 90.4865 334.162 90.302 332.6 90.2852C329.341 90.2349 326.233 90.8221 323.327 92.3154C318.102 94.9999 314.877 99.2448 313.735 105.017C313.096 108.204 313.281 111.376 314.289 114.48C315.65 118.641 318.22 121.879 321.949 124.194C327.14 127.399 334.095 127.785 339.471 125.604C341.201 124.899 342.78 123.943 344.107 122.6C344.258 122.449 344.393 122.282 344.544 122.131C344.779 121.912 344.846 121.644 344.846 121.325C344.846 118.825 344.846 116.342 344.846 113.842C344.846 113.741 344.846 113.624 344.846 113.523C344.829 113.372 344.745 113.272 344.594 113.255C344.359 113.255 344.107 113.238 343.872 113.238C340.008 113.238 336.128 113.238 332.264 113.238C332.029 113.238 331.777 113.238 331.541 113.238C331.357 113.238 331.256 113.121 331.239 112.936C331.239 112.835 331.239 112.718 331.239 112.617C331.239 110.956 331.239 109.295 331.239 107.634C331.239 107.533 331.239 107.416 331.239 107.315C331.256 107.03 331.34 106.963 331.642 106.946C331.827 106.946 332.012 106.946 332.213 106.946C338.211 106.946 344.191 106.946 350.188 106.946C350.407 106.946 350.625 106.946 350.826 106.946C351.129 106.946 351.179 107.013 351.196 107.349C351.196 107.567 351.196 107.785 351.196 107.986C351.196 113.137 351.196 118.288 351.196 123.439C351.196 128.59 351.196 123.657 351.196 123.758C351.23 124.127 351.095 124.429 350.86 124.698C349.382 126.459 347.719 128.003 345.82 129.295C343.116 131.124 340.142 132.298 336.917 132.885C334.767 133.271 332.6 133.456 330.416 133.305C323.797 132.869 318.17 130.268 313.634 125.419C310.241 121.795 308.124 117.5 307.334 112.617C305.235 99.5804 313.6 87.6342 325.931 84.6309C328.635 83.9765 331.39 83.792 334.179 84.0437C336.38 84.2282 338.547 84.6309 340.63 85.3859C343.485 86.4094 345.972 87.9866 348.105 90.151C348.29 90.3355 348.508 90.5033 348.609 90.7718V90.7382Z" fill="#1C1C1C"/>
<path d="M468.485 48.6563C468.485 41.3912 468.485 34.1262 468.485 26.8444C468.485 26.5424 468.485 26.2572 468.502 25.9552C468.502 25.7706 468.62 25.6699 468.821 25.6699C468.956 25.6699 469.09 25.6699 469.224 25.6699C470.871 25.6699 472.5 25.6699 474.147 25.6699C474.315 25.6699 474.466 25.6699 474.634 25.6867C474.751 25.6867 474.835 25.7706 474.835 25.888C474.852 26.1229 474.869 26.3746 474.869 26.6095C474.869 30.3846 474.869 34.1765 474.869 37.9517C474.869 38.1698 474.869 38.3879 474.869 38.5892C474.869 38.6899 474.835 38.8241 474.953 38.8745C475.104 38.9584 475.205 38.8241 475.289 38.7403C477.221 37.1128 479.489 36.1732 481.941 35.653C483.1 35.4014 484.276 35.3007 485.469 35.351C487.334 35.4181 489.165 35.6195 490.945 36.2067C494.036 37.2302 496.304 39.1765 497.799 42.0624C498.69 43.7905 499.21 45.6529 499.546 47.5657C499.882 49.5287 500.017 51.5086 500.017 53.4884C500.017 59.2266 500.017 64.9648 500.017 70.703C500.017 71.7768 500.118 71.6929 499.009 71.6929C497.564 71.6929 496.103 71.6929 494.658 71.6929C494.524 71.6929 494.389 71.6929 494.255 71.6929C493.65 71.6929 493.633 71.6594 493.616 71.0386C493.616 70.4178 493.616 69.797 493.616 69.1929C493.616 63.8574 493.616 58.5219 493.616 53.1864C493.616 51.7099 493.532 50.2334 493.264 48.7905C493.112 47.9683 492.894 47.163 492.575 46.3912C491.617 44.0254 489.921 42.5489 487.401 41.9953C485.721 41.6261 484.041 41.559 482.361 41.9449C479.371 42.6496 477.238 44.4281 475.961 47.2133C475.255 48.7401 474.97 50.3844 474.886 52.0455C474.869 52.3978 474.886 52.7502 474.886 53.0857C474.886 58.9246 474.886 64.7802 474.886 70.6191C474.886 70.8876 474.886 71.156 474.869 71.4245C474.869 71.5419 474.785 71.6258 474.667 71.6258C474.516 71.6426 474.348 71.6594 474.18 71.6594C472.534 71.6594 470.904 71.6594 469.258 71.6594C469.157 71.6594 469.04 71.6594 468.939 71.6594C468.62 71.6426 468.553 71.5755 468.536 71.2902C468.536 70.9882 468.536 70.703 468.536 70.401C468.536 63.136 468.536 55.8709 468.536 48.5891L468.485 48.6563Z" fill="#1D1D1D"/>
<path d="M454.391 114.328C454.391 119.714 454.391 125.1 454.391 130.503C454.391 130.738 454.391 130.989 454.391 131.224C454.391 131.526 454.307 131.577 453.988 131.593C453.803 131.593 453.619 131.593 453.417 131.593C451.939 131.593 450.46 131.593 448.982 131.593C448.797 131.593 448.613 131.593 448.411 131.593C448.109 131.577 448.058 131.509 448.041 131.191C448.041 130.754 448.041 130.335 448.041 129.899C448.041 129.815 448.041 129.731 448.008 129.664C448.008 129.63 447.907 129.597 447.873 129.614C447.756 129.664 447.638 129.748 447.537 129.815C444.883 131.828 441.893 133.02 438.55 133.204C435.929 133.355 433.342 133.02 430.873 132.097C427.698 130.889 425.447 128.708 424.069 125.62C423.28 123.859 422.86 122.013 422.608 120.117C422.423 118.708 422.39 117.281 422.39 115.855C422.39 109.899 422.39 103.943 422.39 98.0031C422.39 96.7951 422.289 96.9293 423.481 96.9293C424.926 96.9293 426.388 96.9293 427.832 96.9293C428.051 96.9293 428.269 96.9293 428.471 96.9293C428.622 96.9293 428.723 97.03 428.723 97.181C428.723 97.4495 428.74 97.7179 428.74 97.9864C428.74 104.094 428.74 110.218 428.74 116.325C428.74 117.802 428.857 119.278 429.21 120.704C429.361 121.325 429.563 121.946 429.848 122.533C430.705 124.395 432.082 125.704 434.031 126.291C437.341 127.298 440.566 127.08 443.606 125.335C445.891 124.026 447.336 122.063 447.857 119.463C448.008 118.708 448.058 117.919 448.058 117.147C448.058 110.788 448.058 104.429 448.058 98.087C448.058 96.7448 447.907 96.9293 449.2 96.9125C450.595 96.9125 451.989 96.9125 453.383 96.9125C453.568 96.9125 453.753 96.9125 453.955 96.9125C454.324 96.9125 454.391 96.9797 454.391 97.3152C454.391 97.5501 454.391 97.8018 454.391 98.0367C454.391 103.456 454.391 108.876 454.391 114.278V114.328Z" fill="#1D1D1D"/>
<path d="M462.572 43.2378C462.471 43.4224 462.303 43.4895 462.135 43.5901C460.724 44.4794 459.313 45.3519 457.902 46.2411C457.785 46.3082 457.667 46.3753 457.549 46.4425C457.415 46.5264 457.297 46.4928 457.197 46.3753C456.894 46.0062 456.592 45.6203 456.273 45.268C454.778 43.6069 452.946 42.4996 450.763 41.9794C449.301 41.6439 447.823 41.6103 446.361 41.7781C443.657 42.0801 441.204 43.07 439.138 44.8653C436.82 46.8787 435.459 49.429 435.005 52.4659C434.031 58.9256 438.18 64.798 444.278 66.5429C446.109 67.0631 447.974 67.1973 449.855 66.9288C452.711 66.5261 454.979 65.1 456.777 62.8852C456.945 62.6839 457.113 62.4826 457.297 62.2644C457.297 62.2477 457.348 62.2309 457.398 62.2141C457.549 62.298 457.717 62.3819 457.869 62.4826C459.28 63.355 460.691 64.2443 462.102 65.1335C462.236 65.2174 462.371 65.3013 462.488 65.4188C462.539 65.4523 462.539 65.5698 462.539 65.6369C462.539 65.704 462.471 65.7711 462.421 65.8382C460.523 68.5563 458.188 70.7543 455.097 72.063C453.484 72.7509 451.787 73.1368 450.04 73.3214C448.562 73.4724 447.1 73.4892 445.622 73.3214C442.111 72.9523 438.953 71.7107 436.148 69.5966C432.166 66.5765 429.663 62.6168 428.79 57.7007C427.211 48.7747 431.998 40.6036 439.558 37.0801C442.834 35.5533 446.261 35.05 449.839 35.4023C451.317 35.5533 452.762 35.8218 454.156 36.3251C456.39 37.1137 458.339 38.3721 460.036 40.0331C460.892 40.8888 461.665 41.8116 462.354 42.8016C462.438 42.9358 462.555 43.0532 462.555 43.221L462.572 43.2378Z" fill="#1D1D1D"/>
<path d="M423.633 65.805C423.817 66.1574 423.851 66.56 423.952 66.9627C424.288 68.4224 424.607 69.8989 424.926 71.3586C424.96 71.5097 424.993 71.6774 425.01 71.8284C425.01 71.9794 424.96 72.0801 424.825 72.1472C424.808 72.1472 424.775 72.164 424.758 72.1808C422.759 73.0197 420.693 73.5902 418.492 73.4392C415.754 73.2378 413.654 71.9794 412.277 69.5801C411.621 68.4224 411.235 67.1808 411 65.8721C410.798 64.7648 410.765 63.6406 410.765 62.4997C410.765 56.493 410.765 50.4864 410.765 44.4797C410.765 44.2113 410.765 43.9428 410.748 43.6744C410.748 43.4898 410.63 43.3891 410.429 43.3891C409.925 43.3891 409.404 43.3891 408.9 43.3891C408.127 43.3891 407.338 43.3891 406.565 43.3891C406.313 43.3891 406.229 43.2885 406.212 43.0536C406.212 42.8858 406.212 42.7348 406.212 42.567C406.212 41.0066 406.212 39.463 406.212 37.9026C406.212 37.7348 406.212 37.5838 406.212 37.4161C406.229 37.1812 406.313 37.0805 406.548 37.0469C406.733 37.0469 406.918 37.0469 407.119 37.0469C407.976 37.0469 408.833 37.0469 409.706 37.0469C409.891 37.0469 410.076 37.0469 410.277 37.0469C410.714 37.0302 410.765 36.9798 410.781 36.51C410.781 36.2919 410.781 36.0738 410.781 35.8724C410.781 32.8188 410.781 29.7651 410.781 26.6947C410.781 25.5873 410.748 25.7048 411.789 25.7048C413.268 25.7048 414.746 25.7048 416.224 25.7048C416.443 25.7048 416.661 25.7048 416.863 25.7048C417.014 25.7048 417.115 25.8054 417.131 25.9564C417.131 26.1913 417.148 26.443 417.148 26.6779C417.148 29.7651 417.148 32.8523 417.148 35.9228C417.148 36.1577 417.148 36.4094 417.148 36.6442C417.148 36.9295 417.232 37.0134 417.551 37.0302C417.77 37.0302 417.988 37.0302 418.19 37.0302C419.903 37.0302 421.633 37.0302 423.347 37.0302C424.069 37.0302 424.069 37.0302 424.069 37.7348C424.069 39.3959 424.069 41.057 424.069 42.718C424.069 42.8522 424.069 42.9865 424.069 43.1207C424.069 43.2717 423.952 43.3556 423.817 43.3724C423.599 43.3724 423.381 43.3724 423.179 43.3724C421.516 43.3724 419.853 43.3724 418.19 43.3724C418.005 43.3724 417.82 43.3724 417.619 43.3724C417.215 43.3724 417.182 43.4395 417.165 43.8589C417.165 44.0267 417.165 44.1777 417.165 44.3455C417.165 50.4025 417.165 56.4595 417.165 62.5332C417.165 63.1205 417.165 63.7077 417.316 64.295C417.383 64.5466 417.451 64.8151 417.551 65.0668C417.871 65.805 418.442 66.258 419.248 66.409C420.004 66.5433 420.743 66.4594 421.482 66.3251C421.986 66.2412 422.473 66.0735 422.961 65.956C423.196 65.9057 423.414 65.7715 423.683 65.8218L423.633 65.805Z" fill="#1D1D1D"/>
<path d="M376.361 103.775C376.008 103.624 375.773 103.322 375.487 103.087C373.891 101.761 372.043 101.526 370.095 101.862C368.751 102.097 367.709 102.919 366.853 103.976C365.845 105.251 365.307 106.711 365.022 108.305C364.87 109.127 364.854 109.949 364.854 110.788C364.854 117.348 364.854 123.925 364.854 130.486C364.854 130.754 364.854 131.023 364.854 131.291C364.854 131.476 364.736 131.576 364.551 131.593C364.45 131.593 364.333 131.593 364.232 131.593C362.535 131.593 360.855 131.593 359.159 131.593C359.024 131.593 358.89 131.593 358.756 131.576C358.604 131.56 358.52 131.459 358.504 131.308C358.504 131.123 358.487 130.939 358.487 130.754C358.487 119.764 358.487 108.775 358.487 97.7848C358.487 96.8955 358.487 96.9459 359.327 96.9459C360.906 96.9459 362.502 96.9459 364.081 96.9459C364.249 96.9459 364.4 96.9459 364.568 96.9459C364.753 96.9459 364.87 97.0633 364.87 97.2479C364.87 97.6002 364.87 97.9526 364.87 98.2881C364.87 98.4223 364.87 98.5566 364.904 98.6908C364.921 98.7747 365.005 98.825 365.089 98.7579C365.257 98.6237 365.408 98.4727 365.576 98.3385C366.937 97.1136 368.482 96.2244 370.229 95.7043C371.859 95.2177 373.505 95.2345 375.185 95.4526C376.68 95.6539 378.024 96.2076 379.267 97.0633C379.401 97.1472 379.536 97.2479 379.653 97.3485C379.771 97.4492 379.805 97.5667 379.737 97.7009C379.687 97.8183 379.62 97.9358 379.553 98.0532C378.612 99.7982 377.671 101.543 376.73 103.288C376.646 103.456 376.579 103.624 376.394 103.758L376.361 103.775Z" fill="#1D1D1D"/>
<path d="M494.96 107.8C493.852 104.31 491.97 101.324 489.097 99.025C484.696 95.5183 479.69 94.5116 474.231 95.7532C471.845 96.2901 469.678 97.3304 467.847 99.0082C467.797 99.0585 467.729 99.1089 467.645 99.1424C467.561 99.176 467.477 99.1592 467.477 99.0585C467.477 98.874 467.461 98.6894 467.461 98.5048C467.461 98.1022 467.461 97.6995 467.461 97.2968C467.461 97.0451 467.377 96.978 467.108 96.9612C466.889 96.9612 466.671 96.9612 466.469 96.9612C465.075 96.9612 463.681 96.9612 462.287 96.9612C460.976 96.9612 461.144 96.7935 461.127 98.1189C461.127 105.971 461.127 113.84 461.127 121.693V124.662C461.127 131.525 461.127 138.387 461.127 145.249C461.127 145.518 461.127 145.786 461.127 146.055C461.127 146.239 461.245 146.34 461.447 146.34C461.631 146.34 461.816 146.34 462.018 146.34C463.53 146.34 465.025 146.34 466.537 146.34C467.545 146.34 467.477 146.441 467.477 145.367C467.477 140.434 467.477 135.501 467.477 130.568C467.477 130.333 467.477 130.082 467.477 129.847C467.477 129.612 467.595 129.545 467.78 129.662C467.847 129.713 467.914 129.763 467.981 129.796C472.147 132.649 476.734 133.857 481.74 132.934C487.569 131.86 491.735 128.572 494.204 123.186C495.195 121.038 495.699 118.773 495.901 116.441C496.153 113.488 495.884 110.602 494.994 107.783L494.96 107.8ZM489.585 114.595C489.585 116.374 489.299 118.219 488.577 119.964C487.132 123.471 484.579 125.77 480.849 126.609C478.044 127.246 475.339 126.827 472.819 125.451C470.938 124.427 469.611 122.867 468.737 120.937C468.149 119.629 467.813 118.253 467.629 116.844C467.377 114.83 467.41 112.834 467.763 110.837C468.032 109.327 468.502 107.867 469.275 106.542C470.854 103.84 473.223 102.297 476.297 101.793C477.792 101.542 479.287 101.525 480.782 101.861C482.932 102.33 484.713 103.404 486.174 105.032C487.703 106.743 488.661 108.773 489.215 110.988C489.517 112.23 489.618 113.203 489.601 114.612L489.585 114.595Z" fill="#1C1C1C"/>
<path d="M401.643 70.8217C401.643 66.2412 401.643 61.6439 401.643 57.0634C401.643 54.4124 401.525 51.7614 401.156 49.1272C400.887 47.2313 400.467 45.3857 399.694 43.624C398.367 40.5703 396.251 38.2884 393.193 36.8958C392.084 36.3925 390.942 36.0234 389.749 35.7885C386.272 35.0838 382.812 35.1341 379.368 35.9562C376.982 36.5267 374.698 37.3992 372.615 38.7079C372.178 38.9764 371.775 39.2784 371.371 39.5804C371.153 39.7314 371.153 39.8153 371.287 40.0502C372.195 41.5434 373.102 43.0199 374.009 44.5132C374.227 44.8656 374.278 44.8656 374.647 44.5971C375.672 43.8588 376.781 43.2716 377.957 42.785C380.359 41.8287 382.862 41.426 385.449 41.4428C386.289 41.4428 387.112 41.5267 387.935 41.7112C390.573 42.2985 392.504 43.7582 393.664 46.2078C394.167 47.2816 394.47 48.4226 394.671 49.5803C394.705 49.7984 394.621 49.8991 394.419 49.8823C394.285 49.8823 394.151 49.8823 394.016 49.8487C391.547 49.4628 389.061 49.2615 386.558 49.144C384.273 49.0434 381.988 49.0769 379.737 49.5803C377.57 50.0668 375.521 50.8554 373.723 52.1977C371.791 53.6406 370.431 55.4862 369.759 57.8184C369.356 59.1943 369.272 60.6204 369.356 62.0466C369.44 63.4224 369.759 64.7479 370.313 66.0063C371.523 68.7244 373.555 70.6539 376.226 71.8955C379.284 73.3048 382.509 73.7243 385.818 73.1706C389.313 72.5834 392.32 71.023 394.789 68.4559C394.89 68.3552 394.957 68.1875 395.159 68.1875C395.31 68.3385 395.259 68.5398 395.259 68.7244C395.259 69.3955 395.259 70.0666 395.259 70.7378C395.259 70.9559 395.259 71.174 395.276 71.3753C395.276 71.5263 395.377 71.627 395.528 71.6438C395.713 71.6438 395.898 71.6606 396.083 71.6606C397.645 71.6606 399.207 71.6606 400.753 71.6606C401.677 71.6606 401.609 71.6773 401.609 70.7713L401.643 70.8217ZM394.957 58.5063C394.117 62.315 391.832 64.8989 388.187 66.2579C385.869 67.1136 383.483 67.2646 381.048 66.862C380.056 66.6942 379.133 66.3418 378.293 65.7882C377.049 64.966 376.243 63.8251 375.907 62.3821C375.722 61.5936 375.638 60.805 375.79 59.9996C376.008 58.9258 376.529 58.0533 377.352 57.3486C378.041 56.7614 378.83 56.3755 379.687 56.107C380.628 55.805 381.602 55.6037 382.61 55.5869C383.819 55.5701 385.029 55.5869 386.171 55.5869C388.49 55.7044 390.741 55.805 392.992 56.0399C393.613 56.107 394.218 56.1574 394.839 56.2245C395.192 56.2748 395.226 56.3252 395.226 56.6943C395.226 57.3151 395.125 57.9191 394.991 58.5231L394.957 58.5063Z" fill="#1C1C1C"/>
<path d="M398.501 95.2336C387.885 95.2839 379.452 103.791 379.418 114.21C379.384 124.847 388.002 133.287 398.451 133.304C408.833 133.337 417.551 124.982 417.568 114.294C417.585 103.774 409.085 95.2671 398.501 95.2168V95.2336ZM398.485 126.961C391.295 126.961 385.768 121.039 385.802 114.243C385.835 107.398 391.446 101.609 398.518 101.626C405.591 101.626 411.235 107.448 411.201 114.361C411.185 121.123 405.658 126.978 398.485 126.978V126.961Z" fill="#1C1C1C"/>
<path d="M263.574 68.2725C262.818 66.1416 261.44 64.4302 259.643 63.088C256.82 60.9739 253.645 60.3363 250.185 60.9907C248.488 61.3095 246.892 61.9471 245.38 62.786C244.154 63.4571 242.961 64.1953 241.836 65.0175C239.249 66.8967 236.679 68.7758 234.092 70.655C229.321 74.1449 224.415 77.4335 219.225 80.269C210.909 84.7992 202.157 88.1045 192.817 89.7991C190.062 90.3025 187.307 90.6548 184.518 90.8729C183.342 90.9736 182.15 90.9904 180.974 91.0575C179.176 91.1749 177.379 91.1582 175.581 91.0575C173.918 90.9736 172.255 90.8897 170.592 90.8058C170.088 90.5038 170.071 90.5038 170.172 90.0005C170.222 89.6817 170.306 89.3629 170.374 89.0609C171.18 85.5206 172.238 82.0643 173.481 78.6583C174.523 75.806 175.682 73.004 176.992 70.2691C177.95 68.2557 178.958 66.2759 180.033 64.3128C181.427 61.7625 182.922 59.2961 184.485 56.8464C186.198 54.1787 188.046 51.6116 189.995 49.1116C191.826 46.7626 193.724 44.464 195.757 42.2828C197.05 40.8902 198.361 39.5144 199.755 38.1889C201.653 36.3769 203.619 34.6151 205.685 32.9876C209.229 30.1856 212.992 27.6857 217.108 25.7897C219.981 24.4642 222.954 23.5079 226.112 23.1387C228.061 22.9038 229.976 23.0381 231.857 23.5582C234.058 24.1622 235.956 25.2696 237.569 26.8803C238.795 28.1219 239.702 29.5648 240.391 31.1588C240.694 31.8803 240.962 32.6017 241.248 33.3232C241.92 35.001 242.945 36.4104 244.372 37.5513C246.691 39.397 249.345 40.1016 252.234 39.7157C255.107 39.3298 257.459 37.954 259.155 35.5715C261.104 32.8534 261.658 29.8333 260.684 26.6286C259.693 23.3569 258.232 20.2696 256.316 17.4341C254.586 14.867 252.587 12.5348 250.202 10.5214C248.303 8.91069 246.288 7.51809 244.087 6.37716C241.819 5.20268 239.45 4.27987 236.964 3.62552C234.192 2.88727 231.387 2.53492 228.531 2.46781C227.456 2.43425 226.381 2.50137 225.306 2.58526C223.744 2.71948 222.198 2.88727 220.669 3.1725C216.436 3.9443 212.404 5.32013 208.507 7.11541C204.71 8.86036 201.116 10.9409 197.689 13.3234C193.422 16.2764 189.407 19.5482 185.694 23.1723C184.065 24.7662 182.435 26.377 180.873 28.038C178.891 30.1521 177.009 32.35 175.195 34.6151C172.977 37.3835 170.827 40.1855 168.862 43.1385C167.837 44.6821 166.812 46.2257 165.821 47.7861C164.125 50.4707 162.545 53.2055 161.067 56.0075C159.891 58.239 158.766 60.5041 157.724 62.786C156.078 66.3765 154.616 70.0342 153.323 73.759C152.164 77.0979 151.173 80.5039 150.366 83.9602C150.299 84.279 150.265 84.5978 150.064 84.8663C149.526 84.5643 149.006 84.279 148.468 83.977C148.031 83.7253 147.594 83.4904 147.158 83.2388C147.091 83.1884 147.04 83.1213 146.973 83.0878C144.453 81.4603 142.051 79.665 139.85 77.6348C139.766 77.5677 139.682 77.5174 139.598 77.4502C138.876 76.6784 138.12 75.9066 137.33 75.2019C137.28 75.1516 137.213 75.1013 137.162 75.0342C137.112 74.9838 137.045 74.9335 136.994 74.8832C136.927 74.8328 136.877 74.7825 136.826 74.7154C136.759 74.665 136.709 74.6147 136.658 74.5476C136.591 74.4973 136.541 74.4469 136.49 74.3798C136.423 74.3295 136.373 74.2791 136.322 74.212C136.255 74.1617 136.205 74.1114 136.171 74.061C136.087 74.0107 136.037 73.9268 136.003 73.8429C136.003 73.7926 135.986 73.759 135.953 73.7254C135.919 73.6751 135.886 73.6416 135.835 73.608H135.819C135.785 73.5241 135.735 73.4738 135.684 73.4234C135.634 73.3731 135.583 73.306 135.533 73.2557C135.483 73.2053 135.432 73.155 135.382 73.1047C135.382 73.1047 135.382 73.0879 135.382 73.0711C135.214 72.8362 135.046 72.5845 134.861 72.3664C133.752 71.0912 132.795 69.6986 131.837 68.306C131.468 67.7859 131.165 67.1987 130.863 66.645C130.409 65.8564 129.989 65.051 129.553 64.2457C129.418 63.9604 129.284 63.6584 129.133 63.3732C128.477 62.1148 127.805 60.8565 127.167 59.5981C126.428 58.1384 125.571 56.7458 124.597 55.4203C123.774 54.3129 122.816 53.3565 121.573 52.7022C119.54 51.6116 117.373 51.0411 115.072 51.2425C112.216 51.4941 109.764 52.7022 107.68 54.6485C106.051 56.1585 104.774 57.9538 103.598 59.8162C102.17 62.0813 100.877 64.4302 99.6171 66.796C97.9876 69.8664 96.3581 72.9536 94.7454 76.0409C93.4351 78.5408 92.0912 81.0072 90.7137 83.4569C90.4953 83.8596 90.2265 84.2287 90.0921 84.6649C90.0081 84.7488 90.0249 84.8998 89.9241 84.9837C89.8737 85.0341 89.8401 85.0844 89.7897 85.1347C89.7729 85.1851 89.7561 85.2186 89.7561 85.269C89.7225 85.3361 89.6722 85.4032 89.605 85.4703C89.5042 85.5542 89.5378 85.7052 89.437 85.7891C89.3866 85.8394 89.353 85.8898 89.3194 85.9401C89.3026 85.9904 89.2858 86.0407 89.2858 86.0911C89.2522 86.1582 89.2018 86.2253 89.1514 86.2757C89.1514 86.3092 89.1346 86.3596 89.1346 86.3931C89.101 86.477 89.0506 86.5441 88.9834 86.5944C88.849 86.7958 88.6978 86.9803 88.5802 87.1985C87.5555 88.9266 86.514 90.638 85.4053 92.3159C85.2877 92.5004 85.2037 92.685 85.1029 92.8863C85.0525 92.9367 85.0189 92.987 84.9685 93.0373C84.9517 93.0709 84.9349 93.1212 84.9349 93.1548C84.9013 93.2387 84.8509 93.3226 84.7669 93.3729C84.7165 93.4232 84.6661 93.4736 84.6325 93.5239C84.6157 93.5575 84.5989 93.591 84.5989 93.6413C84.5653 93.7252 84.5149 93.8091 84.4309 93.8595C84.3805 93.9098 84.3301 93.9601 84.2965 94.0273C84.1957 94.1111 84.2293 94.2621 84.1285 94.346C84.0781 94.4131 84.0277 94.4635 83.9774 94.5138C83.927 94.5642 83.8934 94.5977 83.8598 94.648C83.843 94.6984 83.8262 94.7487 83.8094 94.799C83.7758 94.8829 83.7086 94.9333 83.6582 95.0004C83.6078 95.0507 83.5742 95.0843 83.5406 95.1346C83.5238 95.185 83.507 95.2185 83.507 95.2688C83.4734 95.3527 83.423 95.4198 83.339 95.487C83.2886 95.5373 83.2382 95.5876 83.2046 95.638C83.1878 95.6715 83.171 95.7051 83.171 95.7554C83.1374 95.8561 83.087 95.9232 83.003 95.9735C82.9526 96.0239 82.9022 96.0742 82.8518 96.1413C82.8014 96.1917 82.7678 96.2252 82.7342 96.2755C82.7174 96.3091 82.7006 96.3594 82.6838 96.4098C82.6503 96.4937 82.5999 96.5608 82.5159 96.6279C82.4655 96.6782 82.4151 96.7286 82.3815 96.7957C82.3311 96.846 82.2975 96.8796 82.2639 96.9299C82.2471 96.9802 82.2303 97.0138 82.2135 97.0641C82.1799 97.148 82.1127 97.2151 82.0455 97.2655C81.9951 97.3158 81.9447 97.3661 81.9111 97.4333C81.8607 97.4836 81.8271 97.5171 81.7935 97.5675C81.7767 97.6178 81.7599 97.6514 81.7431 97.7017C81.7095 97.7856 81.6423 97.8527 81.5751 97.903C81.5247 97.9534 81.4743 98.0037 81.4239 98.0708C81.3735 98.1212 81.3399 98.1547 81.3063 98.2051C81.2727 98.2386 81.256 98.2889 81.256 98.3393C81.2056 98.4064 81.1552 98.4735 81.1048 98.5406C80.4664 99.2956 79.8448 100.051 79.1897 100.789C78.4841 101.578 77.7618 102.366 77.0226 103.121C76.7707 103.39 76.5355 103.692 76.1155 103.708C75.9811 103.541 75.8299 103.423 75.6451 103.339C74.99 102.601 74.3012 101.88 73.7133 101.074C72.1006 98.9098 70.7903 96.5776 69.6816 94.1279C66.9937 88.1716 65.2803 81.9301 64.1883 75.504C63.7516 72.8865 63.4996 70.2355 63.2476 67.6013C63.1804 66.8799 63.0964 66.1584 63.0796 65.4369C63.0292 63.6081 63.046 61.796 62.9452 59.9672C62.8948 59.0276 62.962 58.088 63.0292 57.1484C63.13 55.7558 63.1804 54.3632 63.2476 52.9706C63.298 52.0646 63.3148 51.1418 63.4324 50.2358C63.6004 48.7593 63.6004 47.2996 63.55 45.8231C63.5332 45.0345 63.4324 44.2627 63.1804 43.5244C62.2397 40.7224 60.7782 38.3231 58.124 36.8131C56.5785 35.9406 54.9322 35.4037 53.1683 35.2863C50.9341 35.1353 48.851 35.6386 46.8688 36.6621C44.8361 37.7191 43.1394 39.1956 41.5603 40.8063C39.9813 42.4171 38.5198 44.1452 37.1423 45.9237C33.5977 50.521 30.3723 55.3364 27.2981 60.2524C23.3 66.645 19.5707 73.2053 16.0765 79.8831C13.4391 84.9334 10.9529 90.0508 8.66825 95.2521C6.51801 100.168 4.50215 105.135 2.82227 110.235C1.88153 113.087 1.02479 115.973 0.319242 118.893C-0.0503318 120.453 -0.033533 122.03 0.35284 123.591C1.98233 130.084 9.00423 133.205 14.783 130.453C17.6388 129.094 19.5035 126.862 20.3266 123.809C21.1834 120.571 22.1409 117.349 23.2664 114.195C25.4335 108.188 27.9869 102.333 30.7587 96.5776C32.9929 91.93 35.3784 87.3662 37.8814 82.8696C39.3765 80.1683 40.922 77.5006 42.5179 74.8496C42.6355 74.665 42.7531 74.4805 42.8706 74.3127C42.921 74.2456 42.9882 74.1952 43.0722 74.2288C43.1394 74.2624 43.173 74.3462 43.1898 74.4134C43.2234 74.514 43.2234 74.6315 43.2402 74.7321C43.425 75.957 43.5762 77.1818 43.7778 78.3898C44.5337 83.0207 45.5753 87.6011 46.9528 92.0977C48.5654 97.3661 50.5813 102.484 53.2691 107.299C55.0834 110.537 57.1496 113.608 59.6695 116.359C60.627 117.416 61.6013 118.44 62.7772 119.279C62.9116 119.413 63.0292 119.564 63.1636 119.681C64.2387 120.571 65.3979 121.342 66.6074 122.014C67.9681 122.769 69.3624 123.406 70.8575 123.876C73.1589 124.597 75.5107 124.883 77.913 124.748C78.1146 124.748 78.2994 124.748 78.4841 124.665C78.5177 124.665 78.5513 124.648 78.5849 124.614C78.7361 124.614 78.8873 124.597 79.0385 124.581C79.2233 124.581 79.4249 124.581 79.5929 124.497C79.6265 124.497 79.6601 124.48 79.6937 124.446C79.7944 124.446 79.8952 124.43 79.996 124.413C80.1976 124.413 80.3824 124.413 80.5504 124.329C80.584 124.329 80.6176 124.295 80.6512 124.279C80.7016 124.279 80.752 124.279 80.8024 124.262C80.836 124.228 80.8528 124.228 80.8864 124.211C80.8528 124.211 80.836 124.245 80.8024 124.262C80.9368 124.262 81.0712 124.228 81.1888 124.178C81.2223 124.178 81.2559 124.144 81.2895 124.111C81.3399 124.111 81.4071 124.094 81.4575 124.077C81.5583 124.01 81.6927 124.027 81.7935 123.943C81.8439 123.943 81.8943 123.943 81.9279 123.926C82.1127 123.876 82.2975 123.842 82.4655 123.792C83.3726 123.524 84.1957 123.054 85.0357 122.651C86.514 121.93 87.8243 120.956 89.101 119.933C90.7977 118.557 92.2928 116.98 93.7543 115.386C94.695 114.363 95.6189 113.322 96.4421 112.181C96.5933 112.03 96.7445 111.879 96.8789 111.712C98.6763 109.463 100.339 107.114 101.952 104.715C102.07 104.547 102.154 104.346 102.254 104.161C102.54 103.876 102.758 103.557 102.893 103.188C102.926 103.121 102.994 103.054 103.044 103.004C103.145 102.92 103.111 102.769 103.212 102.685C103.262 102.635 103.296 102.584 103.346 102.534C103.363 102.5 103.38 102.45 103.38 102.416C103.414 102.333 103.464 102.265 103.531 102.198C103.582 102.148 103.615 102.098 103.666 102.047C103.682 101.997 103.699 101.963 103.699 101.913C103.733 101.829 103.783 101.779 103.85 101.712C103.901 101.661 103.934 101.628 103.968 101.578C103.985 101.527 104.002 101.477 104.018 101.426C104.052 101.359 104.119 101.292 104.153 101.242C104.27 101.158 104.22 101.007 104.321 100.923C104.371 100.873 104.405 100.822 104.455 100.772C104.472 100.722 104.489 100.688 104.489 100.638C104.522 100.554 104.573 100.504 104.64 100.437C104.741 100.353 104.707 100.202 104.808 100.118C104.858 100.067 104.892 100.017 104.942 99.9668C104.959 99.9332 104.976 99.8829 104.976 99.8493C105.009 99.7654 105.06 99.6983 105.127 99.648C105.177 99.5977 105.211 99.5641 105.245 99.497C105.261 99.4467 105.278 99.3963 105.278 99.346C105.312 99.2789 105.362 99.2118 105.413 99.1614C105.413 99.1279 105.429 99.0775 105.446 99.044C105.48 98.9601 105.53 98.893 105.597 98.8426C105.648 98.7923 105.681 98.7587 105.715 98.7084C105.715 98.6581 105.749 98.6077 105.765 98.5574C105.816 98.4903 105.849 98.44 105.9 98.3896C105.917 98.3393 105.933 98.3057 105.933 98.2554C105.967 98.1715 106.017 98.1212 106.085 98.0541C106.185 97.9702 106.152 97.8192 106.253 97.7353C106.303 97.6849 106.337 97.6346 106.387 97.5843C106.404 97.5339 106.421 97.5004 106.421 97.45C106.454 97.3829 106.505 97.3158 106.572 97.2487C106.673 97.1648 106.639 97.0138 106.74 96.9299C106.79 96.8796 106.824 96.8292 106.874 96.7789C106.891 96.7286 106.908 96.6782 106.908 96.6279C106.941 96.5608 107.009 96.4937 107.059 96.4266C107.16 96.3427 107.126 96.1917 107.227 96.1078C107.277 96.0574 107.311 96.0071 107.345 95.9568C107.361 95.9064 107.378 95.8561 107.378 95.8058C107.412 95.7386 107.462 95.6883 107.513 95.638C107.513 95.5876 107.546 95.5541 107.546 95.5037C107.58 95.4199 107.63 95.3695 107.697 95.3024C107.798 95.2185 107.764 95.0675 107.865 94.9836C107.966 94.8326 108.084 94.6816 108.184 94.5306C108.873 93.3226 109.562 92.1145 110.234 90.8897C111.779 88.0206 113.291 85.1347 114.837 82.2488C115.005 81.9133 115.206 81.5945 115.391 81.2757C115.492 81.1079 115.66 81.0911 115.794 81.2421C115.946 81.4267 116.097 81.6281 116.231 81.8126C116.433 82.0978 116.601 82.3999 116.886 82.618C116.886 82.6683 116.92 82.7186 116.953 82.7522C116.987 82.8025 117.037 82.8529 117.088 82.9032C117.138 82.9703 117.189 83.0207 117.239 83.0878C117.357 83.1549 117.306 83.3059 117.424 83.373C117.894 84.0777 118.415 84.7488 119.02 85.3361C119.137 85.5039 119.255 85.6884 119.389 85.8562C121.338 88.2555 123.488 90.4535 125.739 92.5508C125.89 92.7018 126.042 92.8528 126.26 92.9031C126.327 92.9199 126.378 92.987 126.428 93.0373C126.495 93.0877 126.562 93.1548 126.596 93.2387C126.949 93.6749 127.369 94.044 127.805 94.3964C130.124 96.3259 132.526 98.1379 135.046 99.8158C135.281 99.9836 135.55 100.101 135.802 100.252C136.406 100.638 137.028 101.024 137.633 101.393C139.85 102.769 142.168 103.926 144.537 105C145.629 105.504 146.755 105.94 147.863 106.41C147.964 106.561 148.031 106.745 148.048 106.93C148.098 107.517 148.149 108.104 148.182 108.692C148.283 110.722 148.535 112.752 148.854 114.765C149.342 117.869 150.081 120.923 151.021 123.909C151.811 126.46 152.937 128.859 154.012 131.292C154.247 131.812 154.465 132.332 154.717 132.819C155.137 133.607 155.574 134.362 156.011 135.134C156.851 136.611 157.707 138.054 158.732 139.413C159.841 140.889 160.966 142.366 162.226 143.725C163.637 145.268 165.166 146.694 166.846 147.97C167.787 148.691 168.711 149.413 169.702 150.05C171.919 151.443 174.221 152.651 176.656 153.574C178.941 154.446 181.293 155.084 183.729 155.47C185.644 155.772 187.559 155.973 189.491 156.04C191.456 156.107 193.405 156.023 195.354 155.788C197.386 155.537 199.385 155.184 201.384 154.715C204.71 153.943 207.936 152.802 211.094 151.527C211.917 151.191 212.69 150.755 213.496 150.402C215.764 149.413 217.898 148.154 220.014 146.896C222.467 145.436 224.802 143.825 227.086 142.114C228.397 141.124 229.707 140.151 230.9 139.027H230.933C230.984 138.976 231.051 138.926 231.085 138.876C231.135 138.825 231.185 138.775 231.253 138.725C231.303 138.674 231.353 138.607 231.421 138.574C231.471 138.507 231.538 138.456 231.622 138.423C231.673 138.423 231.723 138.389 231.757 138.372C231.807 138.339 231.841 138.305 231.857 138.255L231.891 138.221C231.941 138.188 231.992 138.138 232.042 138.087C232.093 138.037 232.16 137.987 232.21 137.919C232.261 137.869 232.311 137.802 232.378 137.768C232.429 137.718 232.479 137.651 232.546 137.601C232.596 137.533 232.647 137.483 232.714 137.433C232.764 137.366 232.832 137.315 232.916 137.282C232.966 137.282 233 137.248 233.05 137.231C233.1 137.198 233.134 137.164 233.168 137.114L233.201 137.08C233.252 137.047 233.302 136.997 233.336 136.946C234.495 135.872 235.687 134.832 236.796 133.725C238.762 131.728 240.71 129.698 242.508 127.534C242.961 126.98 243.516 126.493 243.868 125.856C243.986 125.738 244.104 125.621 244.204 125.503C247.447 121.493 250.353 117.232 252.973 112.802C253.125 112.551 253.242 112.282 253.36 112.014C253.494 111.812 253.629 111.611 253.746 111.41C255.225 108.759 256.552 106.057 257.795 103.289C258.467 101.796 259.004 100.252 259.575 98.7252C259.626 98.6077 259.643 98.4735 259.676 98.3393C259.743 98.1883 259.827 98.0541 259.878 97.903C260.483 96.4098 260.97 94.8829 261.44 93.3393C262.784 88.826 263.742 84.2455 264.296 79.5811C264.397 78.7086 264.565 77.8361 264.497 76.9469C264.884 73.9771 264.665 71.0577 263.658 68.2222L263.574 68.2725ZM216.436 123.826C211.665 127.718 206.525 130.99 200.712 133.104C196.781 134.53 192.766 135.47 188.5 135.05C183.93 134.581 180.184 132.601 177.244 129.144C173.246 124.463 171.029 118.926 169.836 112.936C169.735 112.416 169.735 111.963 170.34 111.745C170.474 111.695 170.592 111.611 170.626 111.494C170.777 111.796 171.096 111.779 171.382 111.829C173.431 112.131 175.514 111.913 177.564 112.131C179.059 112.282 180.571 111.947 182.066 111.997C183.46 112.047 184.854 111.896 186.249 111.779C190.935 111.393 195.589 110.738 200.175 109.732C207.953 108.02 215.428 105.47 222.618 102.081C228.43 99.346 234.024 96.2084 239.35 92.6011C239.383 92.5675 239.434 92.5508 239.467 92.5172C239.35 92.7521 239.366 92.9702 239.518 93.2554C238.862 93.44 238.913 94.1615 238.61 94.6313C238.56 94.7319 238.526 94.8326 238.476 94.9333C238.442 95.0004 238.426 95.0507 238.392 95.1178C238.342 95.2017 238.308 95.2856 238.274 95.3695C238.241 95.4199 238.224 95.4702 238.191 95.5205C238.157 95.5876 238.123 95.6715 238.09 95.7386C238.056 95.789 238.039 95.8393 238.023 95.8896C238.006 95.94 237.972 95.9903 237.955 96.0407C237.939 96.091 237.905 96.1413 237.888 96.1917C237.855 96.2588 237.821 96.3427 237.787 96.4098C237.771 96.4601 237.737 96.5104 237.72 96.5608C237.687 96.6447 237.653 96.7118 237.636 96.7957C237.619 96.846 237.603 96.8963 237.586 96.9467C237.569 96.997 237.535 97.0474 237.519 97.0977C237.502 97.148 237.468 97.1983 237.451 97.2487C237.418 97.3158 237.384 97.3997 237.334 97.4836C237.317 97.5339 237.283 97.5843 237.25 97.6346C237.216 97.7017 237.183 97.7856 237.132 97.8527C237.099 97.903 237.082 97.9534 237.065 98.0037C237.048 98.054 237.015 98.1044 236.998 98.1547C236.981 98.2051 236.947 98.2554 236.931 98.3057C236.914 98.3561 236.88 98.4064 236.863 98.4567C236.83 98.5071 236.813 98.5574 236.779 98.6077C236.746 98.6581 236.729 98.7084 236.712 98.7587C236.679 98.8091 236.662 98.8594 236.628 98.9097C236.595 98.9601 236.578 99.0104 236.544 99.0608C236.511 99.1111 236.494 99.1614 236.46 99.2118C236.427 99.2621 236.41 99.3124 236.376 99.3628C236.343 99.4131 236.326 99.4634 236.292 99.5138C236.259 99.5641 236.242 99.6144 236.208 99.6648C236.175 99.7151 236.141 99.7654 236.124 99.8158C236.091 99.8661 236.057 99.9164 236.023 99.9668C235.99 100.017 235.956 100.067 235.923 100.118C235.889 100.168 235.872 100.218 235.839 100.269C235.805 100.319 235.788 100.369 235.755 100.437C235.721 100.487 235.704 100.554 235.671 100.604C235.637 100.655 235.62 100.722 235.587 100.772C235.57 100.839 235.536 100.89 235.519 100.957C235.503 101.024 235.486 101.091 235.486 101.158C235.486 101.225 235.519 101.292 235.553 101.359C235.553 101.376 235.587 101.393 235.587 101.41C235.217 101.41 235.1 101.762 234.932 102.031C233.604 104.111 232.395 106.259 230.917 108.255C230.849 108.339 230.782 108.406 230.732 108.49C230.732 108.524 230.698 108.541 230.681 108.574C230.648 108.624 230.614 108.675 230.581 108.725C230.547 108.775 230.513 108.809 230.48 108.859C230.446 108.91 230.413 108.943 230.396 108.994C230.362 109.044 230.345 109.077 230.312 109.128C230.278 109.178 230.245 109.212 230.228 109.245C230.228 109.245 230.177 109.296 230.177 109.312C230.144 109.346 230.11 109.396 230.077 109.43C230.043 109.463 230.009 109.514 229.976 109.547C229.942 109.581 229.909 109.631 229.892 109.681L229.858 109.749C229.825 109.782 229.808 109.832 229.774 109.866L229.724 109.916C229.69 109.95 229.657 109.983 229.623 110.034C229.59 110.067 229.556 110.101 229.522 110.151C229.489 110.185 229.455 110.235 229.438 110.269C229.405 110.319 229.388 110.353 229.354 110.403C229.321 110.436 229.304 110.487 229.27 110.52L229.22 110.571C229.186 110.604 229.153 110.638 229.119 110.688C229.086 110.722 229.052 110.755 229.018 110.806C228.985 110.839 228.951 110.889 228.934 110.923C228.901 110.973 228.884 111.007 228.85 111.057C228.817 111.091 228.783 111.141 228.766 111.175L228.716 111.225C228.682 111.259 228.649 111.309 228.615 111.342L228.565 111.393C228.531 111.426 228.498 111.477 228.464 111.51C228.43 111.544 228.397 111.594 228.363 111.628C228.33 111.678 228.296 111.712 228.262 111.762C228.262 111.779 228.229 111.812 228.212 111.829C228.178 111.879 228.145 111.93 228.111 111.98C228.094 111.997 228.078 112.03 228.061 112.047C228.027 112.098 227.977 112.148 227.943 112.198C227.91 112.249 227.876 112.299 227.842 112.366C227.826 112.433 227.809 112.5 227.809 112.567C227.809 112.601 227.809 112.634 227.809 112.668C227.826 112.718 227.842 112.769 227.859 112.802C227.473 112.735 227.271 113.02 227.053 113.272C225.793 114.698 224.6 116.208 223.189 117.5C223.139 117.55 223.088 117.601 223.038 117.651C222.988 117.701 222.954 117.752 222.904 117.802C222.87 117.853 222.82 117.886 222.786 117.936C222.752 117.987 222.719 118.037 222.702 118.071C222.668 118.121 222.635 118.155 222.618 118.205C222.618 118.205 222.568 118.255 222.568 118.272C222.534 118.306 222.5 118.339 222.467 118.389L222.416 118.44C222.383 118.473 222.349 118.507 222.316 118.54L222.265 118.591C222.232 118.624 222.198 118.658 222.164 118.691L222.114 118.742C222.08 118.775 222.047 118.809 222.013 118.842L221.963 118.893C221.929 118.926 221.896 118.96 221.862 118.993L221.812 119.044C221.778 119.077 221.744 119.111 221.711 119.144L221.66 119.195C221.627 119.228 221.593 119.262 221.56 119.295L221.509 119.346C221.476 119.379 221.442 119.413 221.408 119.446L221.358 119.497C221.324 119.53 221.291 119.564 221.257 119.597L221.207 119.648C221.173 119.681 221.14 119.715 221.106 119.748C221.072 119.782 221.039 119.816 221.005 119.849C220.972 119.883 220.921 119.899 220.888 119.933C220.837 119.967 220.804 119.983 220.753 120.017C220.703 120.05 220.669 120.067 220.619 120.101C220.602 120.118 220.585 120.134 220.552 120.151C220.518 120.185 220.468 120.218 220.434 120.269C220.417 120.285 220.401 120.302 220.384 120.319C220.35 120.352 220.3 120.386 220.266 120.436L220.216 120.487C220.182 120.52 220.132 120.554 220.098 120.604L220.048 120.654C220.014 120.688 219.981 120.722 219.947 120.755L219.897 120.805C219.863 120.839 219.829 120.873 219.796 120.906L219.745 120.956C219.712 120.99 219.678 121.024 219.645 121.057L219.594 121.107C219.561 121.141 219.527 121.175 219.493 121.208L219.443 121.259C219.409 121.292 219.376 121.326 219.342 121.359L219.292 121.41C219.258 121.443 219.225 121.477 219.191 121.51L219.141 121.561C219.107 121.594 219.073 121.628 219.04 121.661L218.989 121.712C218.956 121.745 218.922 121.779 218.889 121.812C218.855 121.846 218.821 121.879 218.788 121.913C218.754 121.946 218.704 121.963 218.67 121.997C218.62 122.03 218.586 122.047 218.536 122.081C218.485 122.114 218.452 122.148 218.401 122.181C218.385 122.198 218.351 122.215 218.334 122.232C218.284 122.265 218.25 122.316 218.2 122.349C218.183 122.366 218.166 122.399 218.133 122.416C218.099 122.467 218.049 122.5 218.015 122.55C217.998 122.584 217.982 122.601 217.965 122.634C217.931 122.685 217.898 122.752 217.898 122.802C217.898 122.836 217.898 122.869 217.898 122.903C217.898 122.97 217.914 123.02 217.948 123.071C217.209 122.852 216.89 123.507 216.47 123.842L216.436 123.826Z" fill="#1C1C1C"/>
<path d="M114.333 42.9877C116.399 43.575 118.482 43.5414 120.532 42.9039C123.757 41.8972 125.941 39.716 127.402 36.7462C128.494 34.5147 128.931 32.1322 128.965 29.7832C128.948 27.5013 128.595 25.404 127.889 23.3571C127.318 21.696 126.529 20.1356 125.336 18.8269C123.135 16.3605 120.431 15.3538 117.155 16.1592C115.492 16.5619 114.114 17.4679 112.871 18.6256C111.141 20.2363 109.881 22.1994 108.94 24.3638C108.084 26.3101 107.529 28.3403 107.294 30.4711C107.025 32.8872 107.261 35.2361 108.218 37.4844C109.394 40.2697 111.393 42.1656 114.333 43.0045V42.9877Z" fill="#1C1C1C"/>
<path d="M47.3224 22.6515C48.6495 24.9837 50.5981 26.5105 53.2019 27.1817C53.9411 27.3662 54.6802 27.4501 55.4362 27.4669C58.124 27.5676 60.5262 26.8293 62.6261 25.1515C63.8692 24.1616 64.8267 22.9703 65.5995 21.5945C66.9434 19.1784 67.5145 16.561 67.5313 13.2053C67.5481 12.0644 67.313 10.3698 66.8594 8.70871C66.2714 6.52752 65.3475 4.5309 63.8356 2.81951C61.0974 -0.284487 57.2337 -0.670389 54.1091 0.873219C52.8156 1.5108 51.7069 2.40005 50.7325 3.45708C49.1366 5.20203 47.9607 7.21543 47.1376 9.4134C46.0625 12.2657 45.5081 15.1851 45.9113 18.2388C46.1128 19.7992 46.5496 21.2757 47.3224 22.6515Z" fill="#1C1C1C"/>
</g>
<defs>
<clipPath id="clip0_17_18294">
<rect width="500" height="156.173" fill="white"/>
</clipPath>
</defs>
</svg>
