<svg width="500" height="101" viewBox="0 0 500 101" fill="none" xmlns="http://www.w3.org/2000/svg">
<g clip-path="url(#clip0_17_18285)">
<path d="M16.3819 66.4346C16.3819 72.2257 17.653 76.6719 19.3143 79.3618C21.4926 82.885 24.7416 84.3776 28.0538 84.3776C32.326 84.3776 36.2342 83.3175 43.7658 72.9008C49.7996 64.5517 56.9093 52.8323 61.693 45.4852L69.7943 33.038C75.4219 24.3935 81.9357 14.7838 89.404 8.27004C95.5011 2.95359 102.078 0 108.697 0C119.81 0 130.396 6.43987 138.497 18.5179C147.363 31.7458 151.667 48.4072 151.667 65.6013C151.667 75.8228 149.652 83.3333 146.224 89.2669C142.911 95.0053 136.456 100.738 125.596 100.738V84.3776C134.895 84.3776 137.215 75.8333 137.215 66.0549C137.215 52.1203 133.966 36.6561 126.809 25.6065C121.73 17.769 115.148 12.98 107.906 12.98C100.074 12.98 93.7711 18.8871 86.6878 29.4198C82.9219 35.0158 79.0559 41.8354 74.7152 49.5306L69.9367 57.9958C60.3376 75.0158 57.9061 78.8924 53.1065 85.2901C44.6941 96.4926 37.5106 100.738 28.0538 100.738C16.8354 100.738 9.74156 95.8808 5.3481 88.5601C1.7616 82.5949 0 74.7679 0 65.8492L16.3819 66.4346Z" fill="#0081FB"/>
<path d="M12.9166 19.673C20.4272 8.09599 31.2658 0 43.6972 0C50.8966 0 58.0538 2.1308 65.5274 8.23312C73.7025 14.9051 82.4156 25.8913 93.2858 43.9979L97.1835 50.4958C106.593 66.1709 111.946 74.2352 115.079 78.038C119.109 82.922 121.93 84.3776 125.596 84.3776C134.894 84.3776 137.215 75.8333 137.215 66.0549L151.667 65.6013C151.667 75.8228 149.652 83.3333 146.224 89.2669C142.911 95.0053 136.456 100.738 125.596 100.738C118.845 100.738 112.864 99.2722 106.25 93.0327C101.166 88.2437 95.2215 79.7363 90.6487 72.0886L77.0464 49.3671C70.2215 37.9641 63.9609 29.462 60.3375 25.6118C56.4398 21.4715 51.4293 16.4715 43.4335 16.4715C36.962 16.4715 31.4662 21.0127 26.867 27.9589L12.9166 19.673Z" fill="url(#paint0_linear_17_18285)"/>
<path d="M43.4335 16.4715C36.962 16.4715 31.4662 21.0127 26.8671 27.9589C20.3639 37.7743 16.3819 52.3945 16.3819 66.4346C16.3819 72.2257 17.653 76.6719 19.3143 79.3618L5.3481 88.5601C1.7616 82.5949 0 74.7679 0 65.8492C0 49.6308 4.45148 32.7268 12.9167 19.673C20.4272 8.09599 31.2658 0 43.6973 0L43.4335 16.4715Z" fill="url(#paint1_linear_17_18285)"/>
<path d="M183.513 3.18555H202.463L234.684 61.4767L266.909 3.18555H285.448V98.9661H269.989V25.559L241.73 76.3923H227.226L198.972 25.559V98.9661H183.513V3.18555ZM333.887 38.8976C322.801 38.8976 316.123 47.2415 314.525 57.5737H352.152C351.377 46.9303 345.237 38.8976 333.887 38.8976ZM299.198 63.4598C299.198 41.7193 313.249 25.8965 334.156 25.8965C354.72 25.8965 366.999 41.5189 366.999 64.6201V68.8659H314.525C316.387 80.1054 323.845 87.6792 335.87 87.6792C345.464 87.6792 351.461 84.752 357.147 79.3986L365.359 89.4566C357.621 96.5716 347.78 100.675 335.322 100.675C312.69 100.675 299.198 84.1718 299.198 63.4598ZM385.744 40.2689H371.514V27.6106H385.744V6.67711H400.659V27.6106H422.279V40.2689H400.659V72.3522C400.659 83.3068 404.161 87.1993 412.769 87.1993C416.698 87.1993 418.95 86.8617 422.279 86.3079V98.829C418.133 99.9999 414.177 100.538 409.895 100.538C393.792 100.538 385.744 91.7404 385.744 74.1296V40.2689ZM485.084 52.579C482.089 45.0157 475.406 39.4461 465.585 39.4461C452.822 39.4461 444.652 48.502 444.652 63.2541C444.652 77.637 452.173 87.1307 464.974 87.1307C475.037 87.1307 482.22 81.2763 485.084 73.9925V52.579ZM500 98.9661H485.359V88.9767C481.266 94.8575 473.819 100.675 461.756 100.675C442.358 100.675 429.393 84.4355 429.393 63.2541C429.393 41.8723 442.669 25.8965 462.579 25.8965C472.421 25.8965 480.142 29.8311 485.359 36.7773V27.6106H500V98.9661Z" fill="#192830"/>
</g>
<defs>
<linearGradient id="paint0_linear_17_18285" x1="32.173" y1="61.7089" x2="136.603" y2="66.9831" gradientUnits="userSpaceOnUse">
<stop stop-color="#0064E1"/>
<stop offset="0.4" stop-color="#0064E1"/>
<stop offset="0.83" stop-color="#0073EE"/>
<stop offset="1" stop-color="#0082FB"/>
</linearGradient>
<linearGradient id="paint1_linear_17_18285" x1="23.7342" y1="73.3122" x2="23.7342" y2="34.8101" gradientUnits="userSpaceOnUse">
<stop stop-color="#0082FB"/>
<stop offset="1" stop-color="#0064E0"/>
</linearGradient>
<clipPath id="clip0_17_18285">
<rect width="500" height="100.738" fill="white"/>
</clipPath>
</defs>
</svg>
