<svg width="500" height="125" viewBox="0 0 500 125" fill="none" xmlns="http://www.w3.org/2000/svg">
<g clip-path="url(#clip0_17_18287)">
<mask id="mask0_17_18287" style="mask-type:luminance" maskUnits="userSpaceOnUse" x="0" y="0" width="500" height="125">
<path d="M0.25 0.25H499.75V124.047H0.25V0.25Z" fill="white"/>
</mask>
<g mask="url(#mask0_17_18287)">
<mask id="mask1_17_18287" style="mask-type:luminance" maskUnits="userSpaceOnUse" x="0" y="-1" width="500" height="126">
<path d="M0.199951 124.047H499.77V-0.132812H0.199951V124.047Z" fill="white"/>
</mask>
<g mask="url(#mask1_17_18287)">
<path fill-rule="evenodd" clip-rule="evenodd" d="M497.733 53.4014C500.727 55.9347 500.383 59.318 496.737 61.6414C489.017 66.5647 478.58 71.6947 470.903 74.5014C464.23 76.9414 447.43 81.9314 441.36 80.2947C440.597 80.0847 437.853 79.3314 437.713 76.6547C437.473 72.108 442.183 72.3514 446.397 68.138C450.263 64.2747 450.48 63.1814 451.203 61.7914C439.57 61.7914 432.68 70.618 425.017 87.658C420.987 96.5414 415.303 112.955 414.29 118.841C413.513 123.338 408.367 125.131 404.937 123.395C400.523 121.161 404.717 112.758 407.723 106.505C415.027 91.3214 422.267 74.198 426.427 66.628C419.103 70.938 393.963 84.9214 386.627 79.1147C381.397 74.9714 384.937 68.9314 387.687 63.8947C379.907 63.8947 374.073 59.6514 373.03 58.768C363.34 73.3247 347.367 70.2947 343.72 68.1814C341.233 72.298 335.443 80.3614 326.087 80.9114C318.777 81.328 318.207 73.9447 318.407 72.4714C311.13 75.8414 289.01 87.4914 278.483 78.6614C269.837 71.4114 273.227 56.108 285.22 36.6747C298.72 14.7947 310.923 9.46804 318.17 13.4114C328.293 18.9247 324.44 34.1614 318.26 43.748C317.02 45.6747 315.68 47.5747 313.513 48.318C312.867 48.538 310.743 49.0347 309.267 47.5814C307.903 46.488 306.057 44.1147 307.5 39.7614C307.5 39.7614 309.22 40.128 313.637 32.8814C313.82 32.5547 314 32.2214 314.187 31.8647C316.757 26.9147 315.52 24.1147 314.257 22.8514C312.213 20.808 306.42 20.5714 293.637 40.7647C285.013 54.1414 281.217 67.498 285.733 71.168C291.873 76.158 318.133 64.6614 322.013 60.2314C323.803 58.188 327.557 51.488 338.48 53.158C342.01 53.698 343.767 57.3714 344.433 59.3614C349.113 62.588 361.487 62.5214 365.587 53.018C366.163 51.0447 366.327 49.0947 365.72 47.168C368.167 45.5347 372.927 44.9347 374.887 47.9214C378.877 54.0047 383.617 56.3947 390.297 55.2547C395.127 54.198 397.743 54.348 399.143 56.898C400.04 58.5314 400.007 60.6947 398.743 62.4747C397.23 64.608 392.67 69.9547 394.027 71.3114C395.697 72.978 416.077 65.6914 431.65 51.9814C432.25 51.2247 432.8 49.3947 432.917 45.958C436.447 44.7014 442.81 45.6647 443.58 48.9914C444.35 52.318 442.44 55.0847 441.633 56.3847C448.58 52.8914 455.94 51.5547 460.093 54.6047C467.213 59.8314 456.967 69.5247 452.637 72.0714C466.013 69.448 478.847 63.2247 488.47 55.3814C488.543 55.318 488.62 55.2547 488.697 55.1947C488.793 55.0847 488.913 54.968 489.077 54.8347C491.723 52.6714 491.187 51.698 491.187 51.698C491.187 51.698 494.03 50.9547 496.63 52.628C496.713 52.6814 496.773 52.7314 496.84 52.7847C497.137 52.9547 497.433 53.1514 497.733 53.4014ZM334.747 63.4547C334.467 63.5947 332.427 64.7314 327.247 68.4214C325.627 70.288 326.19 71.928 327.613 71.928C331.69 71.928 338.087 63.4547 334.747 63.4547ZM235.463 36.2847C246.127 35.4947 247.443 40.4514 246.707 42.6214C245.563 45.9947 243.063 47.818 238.03 46.318C235.673 45.618 228.527 44.998 227.05 48.0714C223.82 54.7714 232.717 62.7847 239.067 70.1214C240.35 71.6014 241.393 74.2814 240.38 76.7114C239.63 78.5347 237.063 81.3047 233.243 80.878C228.297 80.3247 214.913 78.5547 209.943 78.318C206.73 78.2114 205.043 77.5647 204.193 76.3847C203.193 75.0014 204.37 72.1214 205.517 70.6314C206.66 69.1447 208.273 67.7947 210.213 67.528L209.793 67.8147C209.793 67.8147 209.793 67.8214 209.793 67.8347L210.213 67.528C210.213 67.528 211 68.6814 213.87 69.588C214.997 69.8814 216.153 70.138 217.313 70.3514C217.333 70.3547 217.357 70.358 217.377 70.3614C222.453 71.2914 227.513 71.468 229.837 70.978C228.997 70.0647 226.043 66.708 222.813 62.768C217.78 56.4147 215.887 50.7614 218.287 45.3947C221.187 38.908 229.003 36.7614 235.463 36.2847ZM212.497 60.9647C210.317 62.1847 205.943 63.158 205.727 63.2014C196.047 65.1314 192.667 62.8747 190.963 63.1614C189.22 63.1614 186.033 66.898 184.393 68.8447C182.42 71.1814 174.51 80.9914 168.21 80.9914C160.657 80.9914 158.697 69.698 158.697 69.698C158.697 69.698 150.987 80.918 143.47 80.918C137.21 80.918 135.133 70.0814 134.48 67.058C132.933 68.0047 115.703 80.1147 100.98 80.6847C82.4466 81.4047 78.9733 71.8647 78.4199 66.6347C74.4766 67.098 71.6833 66.478 69.9199 65.4947C67.4799 64.138 65.8933 61.5914 67.0933 58.6347C67.8433 56.7847 68.7633 55.7414 70.8999 55.1914C70.8999 55.1914 70.8633 56.1647 73.1399 56.758C74.85 57.2014 78.0566 57.1814 79.4066 56.7447C85.6899 39.4947 98.7499 36.1014 106.62 36.1014C110.277 36.1014 114.887 37.938 115.24 43.018C115.5 46.7714 112.55 50.6047 108.087 54.068C103.877 57.328 97.3733 61.4147 87.6166 64.9947C88.0133 67.5947 89.9933 73.5414 101.313 72.9414C111.007 72.428 121.75 65.4914 127.133 61.5447C127.133 61.5447 132.163 57.718 132.897 55.038C132.943 54.5414 132.873 54.0414 132.633 53.558C132.633 53.558 135.25 52.1614 137.767 52.6447C143.553 53.7614 142.807 60.1547 142.807 60.1547C142.807 64.2014 143.73 69.448 146.133 69.448C148.08 69.448 151.913 64.018 156.683 58.4614C158.277 56.6047 158.783 52.6447 161.83 52.4447C165.49 52.198 166.907 54.808 166.907 58.0247C166.907 65.1014 167.627 70.5414 169.517 70.5414C171.747 70.5414 176.623 64.3314 178.793 61.6314C183.05 56.328 184.437 53.9147 187.873 53.9147C190.95 53.9147 192.907 56.0047 197.773 55.7514C202.943 55.4847 204.683 53.9247 206.18 53.018C207.973 51.9347 211.99 51.7347 214.02 54.168C216.053 56.6047 215.037 59.5447 212.497 60.9647ZM89.16 54.7847C92.5066 53.548 97.1966 51.7947 101.853 48.7714C103.553 47.668 105.48 45.6347 104.577 44.7314C103.307 42.9614 92.7933 47.348 89.16 54.7847ZM84.5599 17.1214C71.6833 33.708 56.5233 64.278 51.2466 77.588C49.8766 80.9614 47.75 81.9714 44.0966 80.9647C40.1933 79.8847 39.6633 78.9614 39.8433 73.6047C38.9366 65.678 36.5 61.4847 35.3133 51.5447C34.5366 46.448 34.06 39.4347 34.1 33.7647C28.9166 43.5047 23.1033 54.6114 18.74 63.228C18.57 63.6847 18.3466 64.1814 18.03 64.748C17.81 65.1414 17.5966 65.5247 17.3933 65.8947C16.3466 67.9914 15.4066 69.8914 14.62 71.5247C11.9733 77.698 13.21 78.7147 13.21 78.7147C13.21 78.7147 12.7233 79.6914 12.3666 80.2147C10.53 82.938 6.80329 83.788 2.54996 82.1914C-1.70338 80.5947 0.776623 76.078 2.56662 72.7647C3.07662 71.818 11.8433 57.1047 18.4866 45.2747C19.7866 42.9647 27.4266 28.1014 28.6133 24.7347C29.8 21.3647 29.92 19.988 30.1066 17.138C32.4066 16.288 35.69 16.5747 37.9433 17.3114C40.8633 18.268 41.57 20.8814 41.6933 22.5547C42.0766 26.7247 42.4833 35.248 42.9966 44.1714C43.5366 53.638 47.46 65.5547 47.46 65.5547C47.46 65.5547 58.76 39.968 73.5799 16.0247C75.1933 13.418 79.0066 6.4447 81.9433 3.22804C84.4433 0.488037 87.79 -1.0553 91.48 1.70804C92.59 2.54137 93.1766 4.72137 92.5 6.51137C91.0233 10.408 85.9066 15.388 84.5599 17.1214Z" fill="#100F0D"/>
</g>
</g>
</g>
<defs>
<clipPath id="clip0_17_18287">
<rect width="500" height="124.333" fill="white"/>
</clipPath>
</defs>
</svg>
