<svg width="500" height="60" viewBox="0 0 500 60" fill="none" xmlns="http://www.w3.org/2000/svg">
<g clip-path="url(#clip0_17_18288)">
<path fill-rule="evenodd" clip-rule="evenodd" d="M0 24.1783C0 9.26043 11.5044 0 24.1467 0C38.2427 0 48.2933 10.9671 48.2933 23.6726C48.2933 36.378 38.2427 47.3451 24.0518 47.3451C9.60809 47.4399 0 36.0303 0 24.1783ZM24.3047 37.2314C32.5537 37.2314 36.5992 29.6776 36.5992 23.8622C36.5992 17.9204 32.5537 10.3034 24.1467 10.3034C16.0556 10.3034 11.6941 17.1618 11.6941 23.6726C11.6941 30.6258 16.4033 37.2314 24.3047 37.2314ZM54.2035 12.3578H63.7484V16.0556C63.7484 16.0556 64.3489 14.7598 65.8028 13.6536C67.2566 12.3578 69.6587 11.2516 73.2933 11.2516C75.6005 11.2516 78.603 11.8521 81.0999 14.507C81.8584 15.2655 82.5537 16.1188 83.1542 17.3198C83.8496 16.3085 84.6081 15.2655 85.6511 14.3173C87.7054 12.5158 90.4551 11.1568 94.0582 11.1568C96.4918 11.1568 100.348 11.7573 103.097 14.5702C106.258 18.0152 106.795 20.2592 106.795 27.8761V46.5866H96.4918V28.3186C96.4918 26.8647 96.4918 25.0632 95.7965 23.5145C95.196 21.871 93.9001 20.7649 91.2453 20.7649C88.4008 20.7649 86.9469 22.0607 86.3464 23.5777C85.5563 25.1264 85.5563 26.8647 85.5563 27.8761V46.5866H75.3477V27.9709C75.3477 27.0228 75.3477 25.2212 74.7472 23.6726C74.0518 22.0607 72.8508 20.7649 70.196 20.7649C67.2566 20.7649 65.8028 22.1239 65.1075 23.7674C64.3489 25.3793 64.3489 27.2756 64.3489 28.3186V46.4918H54.0455L54.2035 12.3578ZM123.704 12.3578V16.0556C124.905 14.4121 127.054 11.2516 133.154 11.2516C144.753 11.2516 145.86 20.6068 145.86 25.2212V46.6814H135.556V27.8761C135.556 24.115 134.766 20.7649 130.152 20.7649C125.063 20.7649 124.305 24.4627 124.305 27.9709V46.5866H114.001V12.3578H123.704ZM153.255 0.85335H163.559V8.65992H153.255V0.85335ZM153.255 12.3578H163.559V46.6814H153.255V12.3578ZM205.563 33.5335C203.761 41.3401 196.903 47.6928 187.611 47.6928C177.212 47.6928 169.216 39.5386 169.216 29.33C169.216 19.311 177.054 11.1568 187.358 11.1568C196.46 11.1568 203.856 17.1618 205.563 25.5689H195.164C194.058 23.2617 192.004 20.7649 187.705 20.7649C185.303 20.67 183.217 21.5234 181.764 23.1669C180.31 24.7788 179.52 27.0228 179.52 29.4248C179.52 34.3869 182.807 38.0847 187.705 38.0847C192.004 38.0847 193.963 35.5879 195.164 33.5335H205.563ZM209.608 29.33C209.608 21.0177 215.613 11.1568 228.066 11.1568C240.518 11.1568 246.555 21.0177 246.555 29.33C246.555 37.737 240.518 47.5348 228.066 47.5348C215.613 47.5348 209.608 37.8319 209.608 29.33ZM236.41 29.4248C236.41 24.6207 232.712 20.7649 228.161 20.7649C223.609 20.7649 219.911 24.6207 219.911 29.4248C219.911 34.2288 223.609 38.0847 228.161 38.0847C232.712 38.0847 236.41 34.2288 236.41 29.4248ZM252.465 12.3578H262.105V16.0556C262.105 16.0556 262.705 14.7598 264.159 13.6536C265.613 12.3578 268.015 11.2516 271.618 11.2516C273.957 11.2516 276.96 11.8521 279.456 14.507C280.215 15.2655 280.91 16.1188 281.511 17.3198C282.206 16.3085 282.965 15.2655 284.008 14.3173C286.062 12.5158 288.812 11.1568 292.415 11.1568C294.817 11.1568 298.704 11.7573 301.454 14.5702C304.614 18.0152 305.152 20.2592 305.152 27.8761V46.5866H294.817V28.3186C294.817 26.8647 294.817 25.0632 294.153 23.5145C293.552 21.871 292.257 20.7649 289.602 20.7649C286.757 20.7649 285.303 22.0607 284.703 23.5777C283.913 25.1264 283.913 26.8647 283.913 27.8761V46.5866H273.609V27.9709C273.609 27.0228 273.609 25.2212 273.009 23.6726C272.314 22.0607 271.113 20.7649 268.458 20.7649C265.518 20.7649 264.064 22.1239 263.401 23.7674C262.611 25.3793 262.611 27.2756 262.611 28.3186V46.4918H252.307V12.1681H252.465V12.3578ZM350.759 12.7054C349.305 10.7459 347.566 9.03919 345.607 7.83818C342.604 5.75221 339.064 4.64602 334.956 4.64602C324.905 4.64602 316.214 12.2946 316.214 23.7674C316.214 35.3666 325 43.0784 335.051 43.0784C339.855 43.0784 344.153 41.4665 347.314 38.9697C350.506 36.4728 352.718 32.9646 353.508 29.3616H330.752V25.158H359.45C359.355 27.8129 358.755 31.1631 357.364 33.976C353.413 42.5727 344.216 47.6296 335.051 47.6296C321.618 47.6296 311.062 37.3262 311.062 23.8622C311.062 10.1454 321.808 0.28445 335.051 0.28445C344.311 0.28445 352.908 5.43616 356.511 12.9583L350.759 12.7054ZM365.866 13.4008H370.259V18.8053C372.661 13.9064 377.054 12.5474 380.91 12.4526V17.0038H380.499C374.052 17.0038 370.449 21.0493 370.449 28.603V46.6814H365.866V13.4008ZM382.649 29.9621C382.649 20.7016 389.602 12.4526 400.253 12.4526C410.999 12.4526 417.952 20.7016 417.952 29.9621C417.952 39.3173 410.999 47.4716 400.253 47.4716C389.507 47.4716 382.649 39.3173 382.649 29.9621ZM413.464 29.9621C413.464 22.598 407.585 16.6561 400.316 16.6561C393.078 16.6561 387.2 22.598 387.2 29.9621C387.2 37.3262 393.078 43.268 400.316 43.268C407.585 43.268 413.464 37.3262 413.464 29.9621ZM455.499 46.6182H451.106V40.6764C449.305 45.0695 444.753 47.6296 438.812 47.5664C428.413 47.3767 424.81 40.3603 424.81 32.2061V13.3375H429.362V31.3527C429.362 38.5588 432.554 43.3628 440.107 43.268C447.061 43.1732 451.011 39.0645 451.011 32.2061V13.4008H455.563L455.499 46.6182ZM464.349 13.4324H468.742V20.3856C471.492 15.5815 476.296 12.579 482.649 12.579C493.837 12.579 499.747 21.6498 499.747 30.2465C499.747 39.507 492.952 47.6612 482.649 47.6612C475.253 47.6612 470.544 43.3628 468.995 39.9494V59.3236H464.444L464.349 13.4324ZM495.101 29.9937C495.101 23.7358 490.708 16.6877 481.7 16.6877C478.003 16.6877 474.747 18.1416 472.345 20.5436C470.006 22.9456 468.647 26.2958 468.647 30.0885C468.647 33.7547 470.101 37.1049 472.503 39.507C474.842 41.8142 478.192 43.2996 481.89 43.2996C489.349 43.2996 495.101 37.6106 495.101 29.9937Z" fill="#AD342A"/>
</g>
<defs>
<clipPath id="clip0_17_18288">
<rect width="500" height="59.4185" fill="white"/>
</clipPath>
</defs>
</svg>
