<svg width="500" height="344" viewBox="0 0 500 344" fill="none" xmlns="http://www.w3.org/2000/svg">
<g clip-path="url(#clip0_17_18290)">
<path d="M248.462 171.236L244.274 181.085C244.274 181.085 236.846 179.449 224.247 199.803C223.789 200.588 220.223 198.33 222.153 194.96L230.236 181.38C230.563 180.595 230.072 179.613 229.09 179.613L237.827 165.084C238.94 163.154 244.764 153.14 248.135 149.606L255.399 142.342C255.89 142.015 256.545 142.669 256.217 143.16L247.971 160.405C244.437 167.178 246.531 169.6 247.808 170.091C248.298 170.254 248.626 170.909 248.462 171.236Z" fill="#000A3B"/>
<path fill-rule="evenodd" clip-rule="evenodd" d="M407.232 130.726C407.232 159.784 397.709 186.715 381.741 208.344C377.062 206.25 373.822 203.338 371.237 199.804C352.683 176.702 339.463 161.878 336.387 158.639C329.777 151.538 326.865 151.047 321.859 148.626C320.91 148.135 320.419 147.677 319.928 146.695L294.601 102.323C292.834 98.5929 290.085 95.5497 286.715 93.1283L280.399 88.7762C279.123 87.7945 277.356 87.7945 276.047 88.7762L270.877 92.4738C270.419 92.8011 270.092 93.1283 269.764 93.5864L257.821 110.209L252.029 114.758L212.009 165.576L208.279 167.179C207.472 167.507 206.828 167.997 206.348 168.652L182.003 199.804C179.908 202.389 176.832 205.923 171.335 208.344C155.366 186.715 145.844 159.784 145.844 130.726C145.844 58.5733 204.254 0 276.538 0C348.822 0 407.363 58.5733 407.232 130.726ZM175.851 131.054L181.021 123.789L172.48 126.538L167.31 119.274V128.141L158.77 130.89L167.31 133.639V142.507L172.48 135.242L181.021 137.991L175.851 131.054ZM188.285 167.179L181.021 162.042L183.77 153.469L176.505 158.639L169.241 153.469L171.99 162.042L164.725 167.179H173.593L176.342 175.753L179.09 167.179H188.285ZM187.631 94.4045H178.763L176.014 85.8639L173.266 94.4045H164.398L171.662 99.5746L168.914 108.115L176.178 102.978L183.442 108.115L180.694 99.5746L187.631 94.4045ZM195.059 71.1715L203.599 68.4228L195.059 65.6741V56.8063L189.889 64.0707L181.348 61.322L186.518 68.5864L181.348 75.8508L189.889 73.1021L195.059 80.3665V71.1715ZM226.505 49.2147L219.241 44.0445L221.99 35.5039L214.725 40.6741L207.461 35.5039L210.209 44.0445L202.945 49.2147H211.846L214.562 57.788L217.31 49.2147H226.505ZM253.927 37.9254L248.789 30.661L253.927 23.3966L245.386 26.1453L240.216 18.8809V27.7487L231.675 30.4974L240.216 33.2461V42.1139L245.386 34.8495L253.927 37.9254ZM287.958 21.6296H279.09L276.342 13.089L273.626 21.6296H264.725L271.99 26.7997L269.241 35.3403L276.505 30.2029L283.77 35.3403L281.021 26.7997L287.958 21.6296ZM321.531 30.1702L312.991 27.4542V18.5537L307.821 25.8181L299.28 23.0694L304.418 30.3338L299.28 37.5982L307.821 34.8495L312.991 42.1139V33.2461L321.531 30.1702ZM377.192 130.563L372.022 137.827L380.563 135.079L385.733 142.343V133.442L394.274 130.726L385.733 127.978V119.11L380.563 126.342L372.022 123.626L377.192 130.563ZM341.525 49.2147H350.393L343.128 44.0445L345.877 35.5039L338.613 40.6741L331.381 35.5039L334.097 44.0445L326.865 49.2147H335.733L338.482 57.7552L341.525 49.2147ZM363.122 73.4293L371.662 76.178L366.525 68.9136L371.662 61.6492L363.122 64.3979L357.952 57.1335V66.0013L349.411 68.75L357.952 71.4987V80.3665L363.122 73.4293ZM364.921 94.4045L372.186 99.5746L369.437 108.148L376.702 102.978L383.933 108.148L381.217 99.5746L388.449 94.4045H379.581L376.832 85.8639L374.117 94.4045H364.921ZM388.776 167.212L381.545 162.042L384.26 153.469L376.996 158.639L369.764 153.469L372.48 162.042L365.249 167.212H374.117L376.865 175.753L379.581 167.212H388.776Z" fill="#000A3B"/>
<path d="M296.368 202.061L297.513 208.508H274.607C274.117 206.577 273.789 204.646 273.789 202.683C273.789 191.884 283.802 171.4 283.802 171.4L280.563 170.091C276.211 168.324 271.368 167.343 266.525 167.343H253.959L267.507 135.896C268.456 133.769 266.852 131.381 264.594 131.381L279.287 97.3164L282.33 99.4106C284.588 101.014 286.551 103.272 287.827 105.857L287.991 106.021L318.979 160.405C319.274 160.896 319.928 160.569 319.928 160.078V156.053C320.419 156.217 320.91 156.544 321.401 156.708C324.607 158.148 326.702 158.966 330.89 163.645C331.054 163.645 344.47 178.174 365.445 204.319C366.394 205.759 367.539 207.068 368.815 208.344C356.381 208.344 343.652 208.017 338.973 207.689L333.639 198.822C330.89 193.488 319.928 180.922 319.928 180.922C318.816 179.614 317.016 180.922 317.834 182.853L323.658 198.331C325.589 203.01 324.607 205.432 323.953 206.413C310.406 205.104 296.695 201.898 296.368 202.061Z" fill="#000A3B"/>
<path d="M113.58 278.861C108.9 280.333 104.058 281.446 99.2146 281.937C89.7251 315.51 67.2775 343.259 30.661 343.259C28.7303 343.259 27.1269 343.259 25.3272 343.095C9.84945 341.655 -0.32725 333.736 -2.52062e-05 320.026C-2.52062e-05 315.346 1.76699 311.943 5.98819 311.943H6.15181C8.70416 311.943 10.962 314.201 10.8311 316.786C10.8311 318.095 10.1767 320.68 10.1767 322.447C10.1767 331.479 15.3468 338.089 25.1636 339.692C26.7997 339.856 28.4031 340.019 30.0065 340.019C76.9633 340.019 78.1086 262.565 113.253 235.143C114.889 233.998 116.329 232.886 117.932 231.904L119.077 233.18C118.096 234.162 117.474 235.307 116.983 235.929C109.391 246.924 104.712 261.583 101.014 275L100.196 277.421C118.586 276.112 133.9 260.471 133.9 242.244C133.9 220.451 116.492 212.205 95.1898 212.205C85.8311 212.041 76.6361 213.678 67.7683 217.048C49.051 223.985 30.9882 239.986 30.9882 263.874C30.9882 275.49 36.322 286.452 49.2146 286.452C60.6675 286.452 67.1138 277.748 66.623 266.917C66.4921 265.641 67.4411 263.056 71.1714 263.056C75.6871 263.056 75.5235 266.917 75.5235 266.917C75.5235 280.791 64.0706 288.71 49.5419 288.71C37.7617 288.71 29.6793 284.522 25.1636 277.912C22.284 273.396 20.6479 267.899 20.8115 262.238C20.8115 255.791 22.284 249.345 25.1636 243.684C35.6675 222.218 64.3652 208.344 95.6806 208.344C125.033 208.344 149.575 219.469 149.575 242.702C149.575 262.729 130.366 274.181 113.58 278.861Z" fill="#000A3B"/>
<path fill-rule="evenodd" clip-rule="evenodd" d="M491.427 269.339H499.836L498.037 273.233H489.496C489.005 274.509 486.126 280.792 483.377 287.271C480.137 294.83 476.603 302.749 476.44 302.912C474.018 309.195 472.382 313.874 472.382 317.277C472.382 320.68 474.018 322.12 476.767 322.12C479.188 321.957 481.446 321.139 483.377 319.535C486.911 316.95 490.478 312.762 493.521 308.409L495.779 310.504C492.408 315.347 488.514 320.517 483.541 323.887C479.974 326.309 475.949 327.781 471.76 327.781C465.445 327.781 460.929 324.051 460.929 316.459C460.929 313.58 461.42 310.995 462.402 308.246C458.377 313.711 450.785 320.975 443.194 320.975C438.187 320.975 435.929 317.768 435.929 313.711C436.093 310.667 436.911 307.591 438.187 304.843C439.66 301.472 441.59 297.251 444.339 291.623C447.219 285.471 450.458 279.352 450.458 277.094V276.767C450.458 275.785 449.64 275.163 448.691 275.163C443.194 275.163 437.402 283.05 431.414 296.466L420.942 320.026H407.853L411.911 310.995C407.232 316.623 402.389 321.139 396.073 321.139C390.609 321.139 389.463 317.441 389.463 313.58C389.463 312.118 389.627 310.656 389.954 309.195H389.79C384.62 316.132 377.52 321.139 372.219 321.139C366.885 321.139 364.3 317.932 364.3 313.252C364.463 310.177 365.281 307.264 366.558 304.516C368.488 300 371.073 294.535 373.495 289.529L375.589 285.177C373.822 286.125 371.891 286.616 369.961 286.616C368.488 286.78 367.048 286.453 365.739 285.798C365.281 290.805 363.645 295.648 361.551 300.327C355.759 313.252 346.237 321.466 334.457 321.466C324.444 321.466 320.582 315.51 320.092 308.737V306.937C313.645 315.51 307.984 321.139 300.425 321.139C294.601 321.139 292.507 317.768 292.507 314.038C292.67 311.453 293.325 308.9 294.437 306.479L306.054 281.773C306.708 280.497 307.035 278.861 307.199 277.421C307.199 275.949 306.708 275.327 305.399 275.327C301.047 275.327 295.419 280.955 290.249 292.735L278.141 320.026H264.921L281.872 280.792C282.493 279.679 282.821 278.37 282.984 277.094V276.767C282.821 275.785 282.035 275.163 281.217 275.327C277.65 275.327 270.713 281.61 265.576 293.226L253.796 320.026H240.87L244.928 310.995C239.594 317.441 235.242 320.811 229.908 320.811C225.065 320.811 222.644 317.277 222.644 313.089C222.644 311.944 222.644 310.995 222.808 310.013C219.273 314.365 212.958 320.811 206.184 320.811C199.738 320.811 196.499 316.95 196.662 310.667C196.662 303.239 201.047 294.208 207.33 285.635C204.581 287.434 201.669 288.711 198.92 288.711C195.55 288.711 194.241 286.944 194.241 284.522C194.241 282.101 196.204 279.516 196.204 278.534C196.204 278.207 196.04 278.076 195.55 278.076C194.241 278.076 189.561 282.755 185.537 291.95L173.135 320.026H160.537L164.561 310.831C159.719 316.95 153.599 320.811 148.92 320.811C143.75 320.811 141.983 317.768 141.983 313.416C142.147 312.598 142.31 311.616 142.474 310.831C139.234 315.183 133.442 320.811 126.178 320.811C119.732 320.811 116.492 316.95 116.656 310.667C116.656 302.912 121.335 293.39 128.109 284.522C134.228 276.276 145.844 268.226 157.788 268.226C165.87 268.226 172.153 269.666 171.171 271.924L157.951 301.93C156.675 304.516 154.581 309.358 154.581 311.453C154.581 312.762 155.203 313.252 156.184 313.252C160.537 313.252 168.455 302.094 173.135 291.459L183.115 268.848H194.732L191.361 277.094C195.386 272.415 201.047 267.899 205.694 267.899C208.115 267.899 209.097 269.175 209.097 270.975C209.097 275 204.745 280.17 204.745 281.937C204.745 282.428 205.072 282.886 205.857 282.886C207.493 282.886 210.7 281.119 215.052 277.421C221.204 272.088 229.745 268.063 237.991 268.063C246.04 268.063 252.323 269.502 251.374 271.76L238.154 301.8C237.336 303.894 235.078 308.9 235.078 310.995C235.078 312.271 235.733 312.762 236.682 312.762C240.87 312.762 248.626 302.258 253.305 291.623L263.318 269.012H275.098L271.695 277.421C276.865 271.433 282.657 268.063 288.318 268.063C292.834 268.063 294.928 270.32 294.928 274.673C294.928 275.654 294.928 276.44 294.764 277.421C300.098 271.597 306.708 268.063 312.827 268.063C317.179 268.063 319.928 270.811 319.928 274.673C319.928 278.37 318.325 281.937 315.903 287.598L307.363 305.661C306.872 306.773 305.563 309.686 305.563 310.995C305.563 312.271 306.217 312.762 307.199 312.762C311.06 312.762 315.903 306.773 320.582 299.214C322.349 293.226 324.935 287.434 328.338 282.101C333.311 274.345 340.903 268.063 351.734 268.063C359.457 268.063 364.627 272.578 365.445 280.792C365.903 281.773 367.212 282.755 369.633 282.755C374.804 282.755 378.01 278.207 379.941 274.509L382.526 268.848H395.615L384.293 293.39L378.828 305.497C378.01 307.101 377.061 309.522 377.061 310.831V311.289C377.061 312.271 378.01 312.925 378.828 312.762C383.999 312.762 392.212 300.163 395.452 292.735L405.923 268.848H418.979L408.181 293.39C408.181 293.39 402.389 307.264 401.898 308.246C401.407 309.195 401.243 310.013 401.08 310.995C401.08 312.107 401.407 312.762 402.552 312.762C407.526 312.762 415.609 299.509 419.633 291.623L429.483 269.012H441.59L438.351 276.767C443.357 271.597 448.691 268.063 454.647 268.063C459.817 268.063 462.565 271.433 462.565 275.654C462.565 279.843 458.377 288.383 455.628 293.881C453.828 297.578 451.276 302.748 449.804 306.315C448.691 309.195 448.364 310.177 448.364 311.289C448.364 312.271 449.018 312.762 450.131 312.762C454.974 312.762 463.351 301.309 468.685 289.529L476.276 272.906H469.961L471.76 269.012H477.716L482.722 257.559L485.635 250.785H498.527L491.427 269.339ZM149.738 290.478L157.951 272.251C151.505 272.251 145.517 276.767 140.838 283.05C134.228 292.081 129.058 303.403 128.927 309.686C128.927 312.107 130.203 312.762 131.97 312.762C136.976 312.762 143.586 304.188 149.738 290.478ZM229.908 290.478L238.122 272.251C231.675 272.251 225.72 276.767 221.041 283.05C214.431 292.081 209.26 303.403 209.097 309.686C209.26 312.107 210.537 312.762 212.336 312.762C217.474 312.762 223.789 304.516 229.908 290.478ZM351.865 272.415C349.28 272.415 347.022 274.345 343.652 279.025C336.387 289.201 331.054 304.025 330.432 310.34C329.941 314.038 330.726 316.459 333.802 316.459C336.06 316.459 338.482 315.183 341.394 311.125C348.658 301.145 354.777 284.195 355.105 277.258C355.105 274.509 354.45 272.415 351.865 272.415Z" fill="#000A3B"/>
</g>
<defs>
<clipPath id="clip0_17_18290">
<rect width="500" height="343.586" fill="white"/>
</clipPath>
</defs>
</svg>
