<svg width="500" height="118" viewBox="0 0 500 118" fill="none" xmlns="http://www.w3.org/2000/svg">
<path d="M366.556 27.3917C366.557 28.207 366.401 29.0145 366.097 29.7679C365.793 30.5213 365.347 31.2059 364.786 31.7826C364.224 32.3593 363.557 32.8168 362.823 33.1289C362.088 33.441 361.301 33.6017 360.507 33.6017C359.712 33.6017 358.925 33.441 358.191 33.1289C357.457 32.8168 356.79 32.3593 356.228 31.7826C355.666 31.2059 355.221 30.5213 354.917 29.7679C354.613 29.0145 354.457 28.207 354.457 27.3917C354.457 26.5763 354.613 25.7688 354.917 25.0154C355.221 24.262 355.666 23.5774 356.228 23.0007C356.79 22.424 357.457 21.9665 358.191 21.6544C358.925 21.3423 359.712 21.1816 360.507 21.1816C361.301 21.1816 362.088 21.3423 362.823 21.6544C363.557 21.9665 364.224 22.424 364.786 23.0007C365.347 23.5774 365.793 24.262 366.097 25.0154C366.401 25.7688 366.557 26.5763 366.556 27.3917Z" fill="#999B9E"/>
<path d="M474.137 54.6543H458.738V70.3685H474.137V54.6543Z" fill="#999B9E"/>
<path d="M168.736 54.6543H153.338V70.3685H168.736V54.6543Z" fill="#999B9E"/>
<path d="M122.549 54.6543H107.15V70.3685H122.549V54.6543Z" fill="#999B9E"/>
<path d="M77.0621 54.6543H61.6635V70.3685H77.0621V54.6543Z" fill="#999B9E"/>
<path d="M29.9551 54.6543H14.5564V70.3685H29.9551V54.6543Z" fill="#999B9E"/>
<path d="M51.5382 23.2882H53.3652C65.1653 23.2882 70.6653 29.6008 72.9636 46.4354L76.6175 46.2738L76.13 19.5645H16.0841L15.4923 46.2738L19.0086 46.4354C19.6175 40.1228 20.3479 36.7232 21.933 33.3235C24.7351 27.01 30.5831 23.2882 37.7705 23.2882H40.3288V81.3991C40.3288 87.5501 39.9636 89.4928 38.5028 90.9497C37.2839 92.0826 34.847 92.5683 32.0439 92.5683H29.2418V96.4526H62.6252V92.5683H59.8059C57.021 92.5683 54.5669 92.0817 53.3661 90.9497C51.9044 89.4928 51.5392 87.5492 51.5392 81.3991V23.2882" fill="#ED008C"/>
<path d="M210.376 96.455L229.831 28.5716V81.8422C229.831 87.6558 229.5 89.6988 228.181 91.1128C227.19 92.2122 224.895 92.6844 222.35 92.6844H221.36V96.455H248.86V92.6844H247.429C244.9 92.6844 242.59 92.2131 241.6 91.1128C240.279 89.6988 239.949 87.6558 239.949 81.8422V36.4292C239.949 30.6147 240.279 28.4149 241.6 27.0009C242.7 26.0583 244.9 25.4292 247.429 25.4292H248.86V21.8145H227.521L211.461 76.6558L195.747 21.8145H174.517V25.4292H176.496C182.327 25.4292 183.426 26.6864 183.426 34.2294V77.4416C183.426 84.3556 183.097 87.1844 182.106 89.2275C181.007 91.2705 178.681 92.6844 176.276 92.6844H174.516V96.455H197.175V92.6844H195.746C192.886 92.6844 190.576 91.5841 189.24 89.3842C187.936 87.1844 187.606 85.1414 187.606 77.4416V28.5726L206.949 96.456H210.376" fill="#999B9E"/>
<path d="M272.509 43.3418C258.869 43.3418 249.96 54.0273 249.96 70.8418C249.96 87.0273 258.869 98.0273 272.165 98.0273C285.582 98.0273 294.492 87.0273 294.492 70.685C294.492 54.4986 285.582 43.3418 272.509 43.3418ZM272.069 46.9556C276.014 46.9556 279.423 49.4699 281.293 53.7128C283.053 57.6411 283.822 62.9842 283.822 70.6841C283.822 86.554 279.972 94.4106 272.164 94.4106C264.369 94.4106 260.613 86.5531 260.613 70.5263C260.613 62.9833 261.398 57.6411 263.158 53.7128C264.904 49.6277 268.439 46.9556 272.069 46.9556Z" fill="#999B9E"/>
<path d="M312.768 21.0273L297.147 21.8132V25.2702H297.902C302.522 25.2702 303.528 26.8419 303.528 34.2272V85.297C303.528 91.8964 303.308 93.6258 302.428 96.4537H306.058C308.792 91.8964 309.467 91.1115 310.568 91.1115C311.102 91.1115 311.636 91.2683 312.423 92.0541C317.827 96.4537 320.137 97.3964 325.087 97.3964C336.95 97.3964 345.531 85.925 345.531 69.5828C345.531 54.1832 337.595 43.8122 325.731 43.8122C319.572 43.8122 315.077 46.7979 312.768 52.1402V21.0273ZM324.176 47.7406C331.232 47.7406 334.861 55.2836 334.861 70.0541C334.861 85.6105 331.121 93.6249 323.971 93.6249C316.052 93.6249 311.886 85.4528 311.886 70.5254C311.886 62.9824 312.878 57.7979 315.187 53.8686C317.261 50.0981 320.797 47.7406 324.176 47.7406Z" fill="#999B9E"/>
<path d="M365.88 44.127L349.836 45.0696V48.5266H351.047C355.65 48.5266 356.641 50.0982 356.641 57.3267V83.8832C356.641 91.1126 355.651 92.8411 351.047 92.8411H349.302V96.4539H373.251V92.8411H371.522C366.886 92.8411 365.881 91.2684 365.881 83.8832V44.127" fill="#999B9E"/>
<path d="M393.708 21.0273L377.664 21.8132V25.2702H378.86C383.48 25.2702 384.469 26.8419 384.469 34.2272V83.882C384.469 91.2683 383.48 92.84 378.86 92.84H377.116V96.4528H401.078V92.84H399.318C394.683 92.84 393.708 91.2673 393.708 83.882V21.0273Z" fill="#999B9E"/>
<path d="M444.843 70.3695C444.308 53.7127 436.388 43.3418 424.415 43.3418C412.849 43.3418 404.505 54.6554 404.505 70.3695C404.505 87.1831 412.739 98.0263 425.499 98.0263C433.749 98.0263 439.469 93.6257 444.199 83.8829L440.9 82.1544C437.05 90.3256 433.2 93.6258 427.259 93.6258C418.57 93.6258 414.846 86.7127 414.734 70.3695H444.843ZM414.845 66.4403C414.94 54.6554 418.773 47.2701 424.948 47.2701C431.108 47.2701 434.737 54.4986 434.628 66.4403H414.845Z" fill="#999B9E"/>
<path d="M479.912 42.0605C480.841 42.0605 481.749 42.2986 482.634 42.7757C483.519 43.2527 484.208 43.9353 484.702 44.8225C485.197 45.7097 485.444 46.6351 485.444 47.5988C485.444 48.5529 485.2 49.4697 484.712 50.3493C484.226 51.2298 483.543 51.9133 482.666 52.3999C481.788 52.8866 480.87 53.1303 479.911 53.1303C478.952 53.1303 478.034 52.8875 477.156 52.3999C476.278 51.9133 475.594 51.2307 475.106 50.3493C474.617 49.4697 474.372 48.5529 474.372 47.5988C474.372 46.6351 474.619 45.7097 475.117 44.8225C475.613 43.9353 476.304 43.2518 477.187 42.7757C478.076 42.2986 478.984 42.0605 479.912 42.0605ZM479.912 42.9822C479.136 42.9822 478.379 43.181 477.644 43.5797C476.909 43.9783 476.334 44.5462 475.918 45.2862C475.503 46.0261 475.296 46.7976 475.296 47.5978C475.296 48.3942 475.5 49.1571 475.908 49.8875C476.315 50.6179 476.886 51.1867 477.618 51.595C478.352 52.0032 479.117 52.2068 479.912 52.2068C480.709 52.2068 481.472 52.0032 482.206 51.595C482.938 51.1877 483.507 50.6189 483.912 49.8875C484.317 49.1571 484.521 48.3942 484.521 47.5978C484.521 46.7976 484.314 46.0261 483.901 45.2862C483.488 44.5472 482.914 43.9783 482.176 43.5797C481.439 43.181 480.684 42.9822 479.912 42.9822ZM477.484 50.6523V44.6963H479.534C480.233 44.6963 480.742 44.7517 481.054 44.8617C481.369 44.9716 481.618 45.1638 481.804 45.4382C481.99 45.7116 482.084 46.0032 482.084 46.311C482.084 46.746 481.927 47.1256 481.616 47.4477C481.306 47.7699 480.892 47.9516 480.377 47.9908C480.588 48.0787 480.756 48.1839 480.883 48.3063C481.124 48.5405 481.418 48.9344 481.765 49.4869L482.492 50.6533H481.313L480.783 49.7135C480.367 48.9783 480.033 48.5175 479.782 48.3302C479.606 48.1915 479.349 48.1227 479.011 48.1227H478.445V50.6533H477.484V50.6523ZM478.446 47.3043H479.619C480.177 47.3043 480.558 47.2212 480.763 47.0538C480.967 46.8865 481.068 46.6657 481.068 46.3904C481.068 46.2135 481.019 46.0548 480.921 45.9152C480.822 45.7757 480.687 45.6705 480.511 45.6017C480.337 45.5328 480.014 45.4994 479.543 45.4994H478.446V47.3043Z" fill="#999B9E"/>
</svg>
