<svg width="500" height="420" viewBox="0 0 500 420" fill="none" xmlns="http://www.w3.org/2000/svg">
<g clip-path="url(#clip0_17_18291)">
<path fill-rule="evenodd" clip-rule="evenodd" d="M80.0967 406.29H74.8386V402.032H90.258V406.29H84.9677V419.612H80.0967M101.258 401.903H105.968L113.452 419.645H108.226L106.968 416.451H100.161L98.9031 419.645H93.8064L101.258 401.903ZM105.516 412.645L103.548 407.677L101.581 412.645H105.516ZM120.193 401.999H125.064V409.161L131.161 401.999H136.903L130.258 409.548L137.129 419.612H131.29L126.839 413.096L125.064 415.032V419.612H120.193V401.999ZM143.581 401.999H157.742V406.128H148.419V408.838H156.871V412.677H148.419V415.451H157.871V419.612H143.581V401.999ZM164.871 409.645H173.129V413.838H164.871V409.645ZM182.968 406.257H177.71V401.999H193.129V406.257H187.839V419.58H182.968V406.257ZM199.129 401.999H204.29L207.355 412.193L210.742 401.935H214.935L218.322 412.193L221.387 401.999H226.452L220.581 419.741H216.322L212.806 409.58L209.258 419.741H205L199.129 401.999ZM231.871 410.838V410.806C231.871 405.741 235.968 401.645 241.387 401.645C246.839 401.645 250.839 405.677 250.839 410.741V410.806C250.839 415.838 246.774 419.935 241.322 419.935C235.903 419.935 231.871 415.903 231.871 410.838ZM245.839 410.838V410.806C245.839 408.225 244.032 406.032 241.322 406.032C238.645 406.032 236.871 408.193 236.871 410.741V410.806C236.871 413.322 238.71 415.548 241.387 415.548C244.064 415.548 245.839 413.386 245.839 410.838ZM270.548 401.999H275.419V419.58H270.548V401.999ZM283.677 401.999H288.226L295.484 411.322V401.999H300.29V419.612H296.064L288.516 409.967V419.612H283.677V401.999ZM312.774 406.29H307.516V401.999H322.935V406.29H317.645V419.612H312.774V406.29ZM330.129 402.032H344.29V406.161H334.935V408.838H343.387V412.677H334.935V415.483H344.387V419.612H330.129V402.032ZM351.968 402.032H360.29C362.968 402.032 364.839 402.741 366.032 403.935C367.064 404.967 367.581 406.29 367.581 408.032V408.096C367.581 410.806 366.161 412.58 363.968 413.516L368.161 419.645H362.548L359 414.322H356.839V419.645H351.968V402.032ZM360.097 410.483C361.71 410.483 362.71 409.677 362.71 408.419V408.354C362.71 406.935 361.677 406.257 360.064 406.257H356.839V410.483H360.097ZM380.871 401.903H385.581L393.064 419.645H387.839L386.581 416.483H379.774L378.516 419.645H373.387L380.871 401.903ZM385.161 412.677L383.193 407.709L381.193 412.677H385.161ZM398.129 410.903V410.838C398.129 405.709 402.064 401.677 407.387 401.677C411 401.677 413.322 403.193 414.871 405.322L411.193 408.161C410.193 406.935 409.032 406.096 407.355 406.096C404.871 406.096 403.161 408.225 403.161 410.774V410.838C403.161 413.483 404.871 415.548 407.355 415.548C409.193 415.548 410.258 414.677 411.322 413.419L415 416.032C413.322 418.322 411.097 419.999 407.226 419.999C402.193 419.999 398.129 416.128 398.129 410.903ZM426.452 406.322H421.193V402.032H436.613V406.322H431.322V419.645H426.452V406.322ZM443.935 402.032H448.806V419.645H443.935V402.032ZM455.677 402.032H461.129L465.097 413.193L469.129 402.032H474.484L467.322 419.774H462.806L455.677 402.032ZM481.226 402.032H495.387V406.161H486.032V408.838H494.484V412.709H486.032V415.483H495.516V419.645H481.226V402.032Z" fill="black"/>
<path d="M500 291.29L495.742 382.774L211.484 383.129L211.387 297.645L338.161 202.194C361 182.548 388.194 159.645 388.161 126.968C388.129 105.194 374.516 87.7742 351.645 87.8065C316.774 87.871 307.032 123.806 305.419 152.677L211.194 134.258C213.129 119.065 216.806 104.968 222 92.0645L191.935 92.0968L192.29 382.613L80.7419 382.742L80.4193 92.2258L0.0967742 92.3226L0 0.322581L270.452 0L270.484 30.2258C294.71 13.2903 325.064 4 359.71 3.93548C434.323 3.87097 497.516 44.0645 497.613 124.677C497.677 164.968 479.194 194.936 449.806 221.097L363.29 286.032L354.613 291.484" fill="black"/>
</g>
<defs>
<clipPath id="clip0_17_18291">
<rect width="500" height="420" fill="white"/>
</clipPath>
</defs>
</svg>
