<svg width="500" height="248" viewBox="0 0 500 248" fill="none" xmlns="http://www.w3.org/2000/svg">
<g clip-path="url(#clip0_17_18273)">
<path fill-rule="evenodd" clip-rule="evenodd" d="M268.706 62.46C261.883 74.4075 257.111 87.444 254.58 100.961C252.05 114.51 251.794 128.379 253.876 141.992C255.926 155.637 260.218 168.802 266.656 181.006C263.303 182.586 259.887 183.974 256.406 185.17C252.904 186.366 249.359 187.359 245.772 188.149C242.163 188.96 238.522 189.558 234.85 189.942C231.198 190.348 227.525 190.54 223.831 190.519L174.696 190.583V242.377H174.632V242.409H107.976V1.76172H222.422C222.699 1.76172 222.977 1.76172 223.254 1.76172C223.532 1.76172 223.82 1.76172 224.119 1.76172C224.397 1.78307 224.674 1.79375 224.952 1.79375C225.23 1.8151 225.507 1.83646 225.785 1.85781C243.402 2.49843 259.385 7.11085 272.998 14.8623C274.984 15.8873 276.938 16.9977 278.86 18.1935C280.76 19.368 282.618 20.6172 284.433 21.9411C286.27 23.265 288.042 24.6637 289.75 26.1371C291.459 27.5892 293.113 29.1053 294.715 30.6855C284.337 39.7502 275.561 50.4805 268.706 62.46ZM254.452 95.9321C254.452 69.0904 235.458 57.7515 217.04 57.7515V57.6874H174.696V134.561H218.45C219.443 134.561 220.372 134.529 221.301 134.497C239.366 133.056 254.452 122.165 254.452 95.9321Z" fill="#83BAD8"/>
<path d="M499.488 116.079C499.423 115.267 499.37 114.456 499.327 113.644C499.263 112.833 499.189 112.032 499.103 111.242C499.018 110.431 498.932 109.619 498.847 108.808C498.74 107.996 498.633 107.196 498.527 106.405C498.302 104.516 498.142 103.33 498.142 103.33V103.298H414.606H388.245H380.589V159.384H422.87C408.328 178.411 383.696 186.771 360.57 180.461C337.444 174.183 320.436 154.516 317.553 130.717C314.67 106.918 326.489 83.7597 347.438 72.1005C368.354 60.4733 394.266 62.6835 412.94 77.7059L413.197 77.834L462.492 35.3292C416.4 -9.93024 343.209 -11.9482 294.715 30.6847C308.232 44.2338 318.354 63.8686 319.154 92.2799C319.218 93.3689 319.218 94.49 319.25 95.6111L319.283 95.9314V95.9954C319.283 96.6361 319.315 97.2446 319.315 97.9173C319.315 134.817 298.11 166.015 266.656 181.005C287.348 220.371 328.635 247.277 376.105 247.277C423.511 247.277 464.734 220.435 485.458 181.197C485.458 181.197 485.458 181.208 485.458 181.229C485.458 181.229 485.458 181.24 485.458 181.261C485.458 181.261 485.469 181.272 485.49 181.293C485.49 181.315 485.49 181.325 485.49 181.325C487.156 178.272 488.629 175.133 489.91 171.908C491.384 168.428 492.697 164.894 493.85 161.306C495.003 157.697 495.985 154.046 496.797 150.352C497.608 146.657 498.249 142.942 498.719 139.205C499.189 135.447 499.488 131.678 499.616 127.898C499.637 127.535 499.658 127.172 499.68 126.809C499.701 126.446 499.712 126.083 499.712 125.72C499.733 125.357 499.754 124.983 499.776 124.599C499.776 124.236 499.776 123.873 499.776 123.51C499.776 121.14 499.648 118.577 499.488 116.079Z" fill="#095AA5"/>
<path d="M319.315 97.9181C319.315 97.2455 319.283 96.6048 319.283 95.9963V95.9322L319.251 95.6119C319.251 94.4908 319.219 93.3697 319.155 92.2807C318.354 63.8694 308.232 44.2025 294.715 30.6855C284.337 39.7502 275.561 50.4806 268.706 62.4601C261.884 74.4075 257.111 87.444 254.58 100.961C252.05 114.51 251.794 128.379 253.876 141.992C255.926 155.638 260.218 168.802 266.656 181.006C298.11 166.015 319.315 134.818 319.315 97.9181Z" fill="#052147"/>
<path d="M0 2.33789L0.288277 242.408H66.4958L66.2396 2.33789H0Z" fill="#83BAD8"/>
</g>
<defs>
<clipPath id="clip0_17_18273">
<rect width="500" height="247.277" fill="white"/>
</clipPath>
</defs>
</svg>
