<svg width="500" height="261" viewBox="0 0 500 261" fill="none" xmlns="http://www.w3.org/2000/svg">
<path d="M183.244 81.4049C184.154 81.5187 184.951 81.6325 185.861 81.8601C186.771 82.0876 187.682 82.2014 188.364 82.7703C189.73 83.6805 189.502 85.0458 188.023 85.5009C187.226 85.7285 186.202 85.956 185.292 85.8423C183.699 85.8423 182.106 85.501 180.627 85.1596C178.579 84.5907 177.897 83.3392 178.466 81.2912C179.376 78.2192 181.082 75.7161 184.041 74.237C185.52 73.4406 186.999 72.9854 188.592 72.5303C201.676 69.0032 214.761 69.3446 227.845 72.3028C243.66 75.8299 258.565 81.8601 272.218 90.6209C282.23 96.9924 291.219 104.502 298.273 114.173C301.118 117.927 303.393 122.023 305.1 126.347C308.058 133.97 307.83 141.479 304.189 148.875C300.207 157.067 293.722 162.756 285.416 166.283C271.535 172.085 257.199 173.109 242.636 170.037C241.726 169.81 240.816 169.696 240.019 169.469C240.019 169.469 239.792 169.469 239.564 169.469C239.564 170.265 239.336 171.061 239.223 171.858C238.768 174.589 237.744 175.499 235.013 175.84C231.6 176.295 229.324 174.702 228.414 171.289C228.072 169.81 227.845 168.331 227.731 166.852C227.731 165.259 226.935 164.349 225.456 163.552C218.743 160.48 212.713 156.384 207.137 151.492C204.179 148.875 201.449 146.03 199.401 142.617C196.784 138.18 197.239 134.539 201.221 131.126C203.838 128.85 206.91 127.257 210.209 126.119C215.329 124.185 220.563 122.592 225.911 121.796C226.48 121.796 227.048 121.568 227.845 121.341C227.845 119.748 227.845 118.269 228.072 116.79C228.528 112.011 229.096 107.232 229.779 102.568C229.893 101.43 230.348 100.292 230.689 99.268C231.258 97.9027 232.168 97.6751 233.42 98.4715C234.785 99.4955 235.582 100.861 236.264 102.34C237.516 105.184 238.085 108.256 238.426 111.328C238.654 113.604 238.768 115.879 238.881 118.269C238.881 118.838 238.881 119.407 238.995 120.203C240.019 120.203 240.816 120.203 241.726 120.203C249.804 119.975 257.541 121.227 265.164 123.616C268.236 124.527 271.194 125.892 273.583 128.167C275.518 129.988 277.11 132.036 277.338 134.766C277.452 135.79 277.338 136.928 277.11 137.952C275.518 143.527 269.374 146.486 264.026 144.324C263.457 144.096 262.775 143.869 262.888 143.186C262.888 142.731 263.457 142.39 263.912 142.048C264.936 141.366 266.074 140.91 266.984 140.114C268.919 138.521 268.805 136.928 266.415 135.791C265.278 135.222 264.14 134.88 263.002 134.539C255.493 132.377 247.756 131.239 239.905 130.898C239.678 130.898 239.45 130.898 238.995 130.898C238.995 140.683 239.45 150.354 239.45 160.253C241.043 160.594 242.522 160.821 244.001 161.049C253.559 162.187 263.116 161.959 272.559 159.57C277.793 158.205 282.572 156.043 286.895 152.63C293.722 147.282 296.453 138.407 293.722 130.102C291.674 123.844 288.147 118.383 283.823 113.49C276.997 105.867 268.805 99.9506 259.93 94.9444C247.415 87.8902 233.989 83.2254 219.881 80.6085C209.868 78.7881 199.742 77.9916 189.616 79.357C187.795 79.5845 186.089 80.1534 184.268 80.4947C183.813 80.4947 183.472 80.9499 183.13 81.0636C183.13 81.0636 183.13 81.2912 183.13 81.4049H183.244ZM227.276 156.498V131.126C225.114 131.353 223.066 131.467 221.018 131.695C215.671 132.263 210.323 133.174 205.203 134.88C204.179 135.222 203.041 135.791 202.131 136.359C200.88 137.156 200.652 138.18 201.335 139.431C201.904 140.342 202.586 141.252 203.383 141.934C209.754 148.306 217.377 152.857 225.797 156.043C226.252 156.157 226.707 156.27 227.276 156.384V156.498Z" fill="black"/>
<path d="M42.1602 152.631C44.5495 158.092 49.897 160.823 55.5859 159.571C62.7538 158.092 68.2152 153.883 72.4249 148.08C75.952 143.074 78.2276 137.612 79.8204 131.81C82.4373 122.708 83.5751 113.378 82.7787 103.934C81.8684 92.5566 78.3413 82.089 71.6285 72.7593C70.2632 70.8251 68.4427 69.1184 66.7361 67.298C66.1672 66.6153 65.4845 66.0465 64.9156 65.25C64.6881 64.9087 64.4605 64.1122 64.6881 63.7709C65.0294 63.4296 65.7121 63.0882 66.1672 63.202C67.1912 63.4296 68.1014 63.7709 69.0116 64.226C72.6525 66.274 75.952 68.7771 78.7965 71.7353C79.5929 72.5317 80.2756 73.3282 80.9582 74.2384C88.5813 84.5921 93.7013 95.8561 94.839 108.94C95.6355 118.839 94.839 128.396 91.7671 137.84C89.3777 145.235 85.7369 151.948 80.5031 157.637C75.8382 162.757 70.2632 166.967 63.7779 169.698C55.017 173.225 46.7112 172.428 39.0882 166.626C36.8126 164.919 34.8784 162.757 33.5131 160.254C33.1718 159.685 32.8304 159.23 32.4891 158.661C32.1478 158.775 31.8064 158.889 31.4651 159.116C23.5007 163.781 10.8714 163.326 4.04477 151.607C1.65544 147.511 0.517669 142.96 0.176337 138.295C-0.506327 130.217 0.859007 122.366 3.13455 114.629C6.43409 104.048 11.5541 94.377 18.8358 85.9575C22.4767 81.7477 26.5727 78.1069 31.5789 75.49C32.4891 75.0349 33.3993 74.5797 34.4233 74.2384C34.8784 74.1246 35.3335 74.0109 35.9024 74.1246C37.2677 74.3522 37.9504 75.49 37.154 76.6277C36.4713 77.6517 35.5611 78.6757 34.7646 79.5859C29.6447 85.161 25.2073 91.1912 21.4527 97.7903C16.3327 106.665 13.4883 116.336 12.123 126.462C11.3265 132.151 11.4403 137.726 12.5781 143.301C13.1469 146.032 14.1709 148.649 15.7638 150.924C18.4945 154.907 22.1354 156.158 26.6864 154.565C27.8242 154.224 28.8482 153.769 30.0998 153.2C29.7584 152.29 29.4171 151.379 29.1895 150.583C25.89 141.139 25.2073 131.468 27.5967 121.797C29.3033 115.084 33.058 109.623 38.2917 105.3C41.1362 102.91 44.3219 101.545 47.9628 100.976C52.4001 100.293 57.6339 101.773 59.7956 107.803C61.6161 112.923 61.9574 118.27 61.2747 123.618C60.0232 134.199 55.017 142.732 46.5975 149.218C45.1184 150.355 43.6393 151.493 42.1602 152.631ZM39.8846 143.643C39.9984 143.643 40.1122 143.643 40.2259 143.756C41.0224 142.846 41.8188 142.05 42.5015 141.026C48.6455 132.151 51.3761 122.48 50.3521 111.671C50.2383 110.192 49.897 108.713 48.873 107.461C47.6215 105.755 46.1424 105.641 44.8908 107.461C44.0944 108.713 43.4117 110.078 42.8428 111.557C39.4295 120.546 38.8606 129.989 39.0882 139.433C39.0882 140.798 39.4295 142.277 39.6571 143.643H39.8846Z" fill="black"/>
<path d="M468.939 168.9C468.256 170.948 467.574 172.996 467.005 175.044C464.274 184.26 462.454 193.704 460.406 203.033C460.292 203.602 460.178 204.171 459.95 204.854C459.609 206.219 458.585 206.788 457.334 206.333C454.034 204.967 451.531 202.919 450.848 199.051C450.279 195.865 450.621 192.68 451.076 189.494C452.214 180.392 454.603 171.631 458.13 163.211C458.813 161.618 458.813 160.253 458.13 158.546C456.196 153.654 456.31 148.534 457.789 143.528C459.495 137.498 462.567 132.15 466.322 127.144C467.574 125.551 468.825 124.072 470.19 122.593C470.532 122.138 470.987 121.796 471.442 121.455C472.125 121 472.807 120.431 473.604 120.886C474.4 121.341 474.514 122.251 474.4 122.934C474.173 124.299 473.945 125.665 473.376 126.916C472.238 129.419 470.873 131.922 469.508 134.312C467.574 137.725 465.753 141.138 464.729 144.893C464.274 146.827 463.705 148.762 464.274 151.151C464.843 150.468 465.184 150.013 465.526 149.444C469.963 143.073 474.855 137.042 480.544 131.695C482.706 129.647 484.754 127.713 487.371 126.347C491.353 124.299 494.311 124.982 496.928 128.737C499.204 131.922 500 135.563 500 139.432C500 148.875 496.132 156.271 488.736 161.96C484.754 165.032 480.317 167.307 475.31 168.217C473.262 168.559 471.214 168.673 468.825 168.9H468.939ZM474.855 157.067C475.538 157.067 475.879 157.067 476.221 157.067C484.299 156.385 491.694 149.899 493.401 142.049C493.856 140.001 493.97 137.839 493.401 135.791C492.832 133.97 491.922 133.629 490.557 135.108C488.736 137.042 486.916 138.863 485.437 141.025C482.137 145.689 478.951 150.582 475.766 155.361C475.424 155.816 475.197 156.385 474.742 157.295L474.855 157.067Z" fill="black"/>
<path d="M336.616 133.401C337.299 134.312 338.209 134.425 339.119 134.539C343.101 135.108 347.197 135.449 351.18 136.018C355.048 136.587 358.803 137.156 362.671 137.839C362.899 137.839 363.126 137.952 363.354 138.066C368.246 139.204 371.432 142.162 372.456 147.168C373.48 152.288 372.683 156.84 368.587 160.48C365.857 162.983 362.557 164.349 359.03 165.031C351.521 166.511 344.467 165.373 337.868 161.504C336.161 160.594 334.796 159.229 333.316 157.864C332.52 157.181 331.837 156.157 331.382 155.247C329.676 152.175 330.586 148.648 333.316 146.486C335.251 145.007 337.412 144.438 339.688 144.096C343.101 143.528 346.515 144.096 349.814 144.552C352.886 145.12 355.844 145.803 358.689 147.168C359.599 147.624 360.623 147.851 360.623 149.103C360.623 150.24 359.713 150.809 358.803 151.151C355.048 152.971 351.066 153.654 347.084 151.947C345.832 151.378 344.58 150.809 343.215 150.354C342.077 149.899 340.94 149.558 339.688 149.33C338.323 148.989 337.071 149.216 335.82 149.899C334.113 150.923 333.885 152.744 335.592 153.881C336.957 154.678 338.55 155.474 340.143 155.588C348.221 156.498 356.072 155.588 363.24 151.151C363.809 150.809 364.378 150.354 364.719 149.899C365.515 148.875 365.402 147.965 364.491 146.941C363.467 145.803 362.33 145.234 360.964 144.893C358.006 144.21 355.048 143.414 352.09 143.072C347.197 142.39 342.191 142.048 337.299 141.593C335.82 141.48 334.34 141.252 332.861 140.797C329.676 140 328.197 137.839 328.31 134.425C328.424 131.809 329.448 129.533 331.382 127.599C333.544 125.323 336.388 123.958 339.347 122.934C345.718 120.772 352.317 120.089 359.03 120.317C362.899 120.431 366.653 120.886 370.294 122.251C371.204 122.593 372.228 123.048 373.139 123.503C373.935 123.958 374.276 124.754 373.935 125.665C373.366 127.599 371.887 128.737 370.067 129.078C368.246 129.533 366.426 129.761 364.719 129.874C359.599 130.216 354.479 130.216 349.473 130.671C346.06 130.898 342.646 131.581 339.233 132.15C338.323 132.264 337.412 132.491 336.73 133.401H336.616Z" fill="black"/>
<path d="M220.449 216.118C221.246 215.436 221.815 214.867 222.497 214.298C226.252 211.226 230.576 209.861 235.354 210.543C240.019 211.226 242.75 214.184 243.319 218.963C243.319 219.759 243.432 220.556 243.432 221.352C243.432 229.317 243.432 237.395 243.432 245.359C243.432 253.324 243.432 246.269 243.432 246.952H235.24C235.24 246.269 235.24 245.587 235.24 244.904C235.24 238.077 235.24 231.365 235.24 224.538C235.24 223.514 235.24 222.49 235.127 221.466C234.785 219.077 233.534 217.939 231.258 217.711C228.641 217.484 226.366 218.28 224.204 219.759C222.042 221.238 221.018 223.173 221.018 225.79V247.18H212.712V245.245C212.712 238.191 212.712 231.137 212.712 224.083C212.712 222.945 212.712 221.807 212.371 220.67C212.03 218.963 210.778 218.166 209.185 217.939C207.479 217.711 205.772 217.825 204.179 218.508C203.497 218.849 202.814 219.077 202.245 219.532C199.742 221.125 198.49 223.286 198.49 226.245V246.952C197.125 247.407 192.346 247.521 190.298 247.066V211.454H198.49V216.118C199.287 215.436 199.742 215.094 200.197 214.639C204.065 211.34 208.503 210.202 213.395 210.771C216.467 211.226 218.856 212.705 220.222 215.55C220.222 215.777 220.449 216.005 220.677 216.346L220.449 216.118Z" fill="black"/>
<path d="M116.684 151.038C112.475 151.152 108.493 151.379 104.283 151.493C103.486 153.769 102.576 156.044 101.893 158.32C101.211 160.254 100.756 162.302 100.187 164.236C99.7317 165.715 99.049 166.967 97.2286 167.308C95.1806 167.536 93.5877 167.081 92.4499 165.488C91.0846 163.44 90.5157 161.051 90.857 158.775C91.1983 156.499 91.881 154.338 92.5637 152.062C94.1566 147.397 94.4979 147.966 91.7672 144.098C91.6535 143.87 91.5397 143.643 91.4259 143.415C90.9708 142.391 91.4259 141.595 92.5637 141.481C93.7014 141.367 94.8392 141.367 96.0908 141.253C96.3183 140.684 96.6597 140.116 96.8872 139.66C98.9352 135.678 100.869 131.582 102.917 127.6C104.852 123.732 107.696 120.432 110.085 116.905C110.768 115.995 111.451 115.085 111.564 113.833C111.792 112.581 112.588 111.899 113.84 111.557C115.205 111.33 116.229 111.785 117.026 112.809C117.481 113.492 117.822 114.288 118.164 115.085C120.439 120.546 121.691 126.348 122.828 132.265C124.535 141.253 125.673 150.355 125.9 159.458C125.9 160.823 125.9 162.302 125.559 163.554C125.218 165.374 123.852 165.943 122.373 164.919C119.756 163.212 117.822 160.937 117.367 157.751C117.026 155.589 116.798 153.427 116.571 151.038H116.684ZM113.271 128.738C111.109 132.72 109.517 136.588 108.151 140.798C110.768 141.026 113.157 140.798 115.66 140.343C115.092 136.475 114.864 132.606 113.157 128.738H113.271Z" fill="black"/>
<path d="M428.775 153.314C430.141 153.2 431.165 153.2 432.189 152.972C436.398 152.289 440.722 151.607 444.932 151.038C448.004 150.583 450.393 152.858 450.279 156.044C450.279 156.613 449.938 157.182 449.71 157.751C449.483 158.092 449.141 158.433 448.8 158.661C443.566 162.757 437.764 165.829 431.165 166.739C423.655 167.877 418.877 162.757 418.535 156.044C418.421 153.655 418.877 151.379 419.787 149.104C420.014 148.649 420.242 148.08 420.469 147.625C421.266 146.032 421.607 144.439 421.038 142.732C420.811 142.05 420.697 141.481 420.697 140.798C420.583 139.091 421.152 137.84 422.973 137.612C424.907 137.271 425.589 136.247 426.158 134.654C426.727 133.061 427.296 131.468 427.865 129.762C427.182 129.534 426.613 129.42 426.045 129.193C424.907 128.851 423.769 128.51 422.859 128.055C422.062 127.6 421.38 127.031 420.811 126.348C419.332 124.414 419.901 123.049 422.176 122.48C425.476 121.797 428.661 121.228 431.961 120.773C436.171 120.204 440.38 119.863 444.59 119.408C449.255 118.953 452.896 120.318 455.513 124.414C455.854 124.869 456.082 125.324 456.309 125.893C456.992 127.6 456.537 128.851 454.83 129.306C452.555 129.875 450.165 130.33 447.89 130.558C444.818 130.786 441.746 130.786 438.674 130.786C437.991 130.786 437.195 130.786 436.285 130.786C435.716 132.72 435.147 134.654 434.464 136.816H436.398C439.243 136.816 442.087 136.816 444.932 136.816C448.345 136.816 450.165 139.888 448.8 143.074C448.231 144.211 447.207 144.553 446.069 144.553C442.428 144.553 438.788 144.78 435.147 144.894C434.464 144.894 433.781 144.894 433.099 144.894C431.961 144.894 431.278 145.349 431.051 146.487C430.368 148.762 429.572 151.038 428.775 153.655V153.314Z" fill="black"/>
<path d="M386.564 138.408C386.451 139.887 386.223 141.366 386.223 142.845C385.995 148.307 385.768 153.882 385.427 159.343C385.427 160.708 385.085 162.074 384.63 163.439C384.061 165.373 382.468 165.942 380.534 165.373C379.055 164.918 378.031 163.894 377.462 162.529C376.438 160.367 376.097 158.092 376.097 155.816C375.869 150.582 376.552 145.349 377.69 140.342C378.6 136.36 379.738 132.492 380.875 128.623C381.217 127.485 381.786 126.348 382.468 125.324C383.606 123.503 385.313 123.276 386.906 124.641C387.816 125.324 388.499 126.234 389.181 127.258C392.708 132.492 396.349 137.839 399.876 143.073C401.014 144.78 402.152 146.486 403.29 148.193C403.631 148.762 404.086 149.103 404.541 149.672C405.338 148.989 405.11 148.307 405.11 147.738C404.996 142.959 404.314 138.181 403.176 133.516C401.924 128.51 400.559 123.39 399.307 118.383C399.08 117.587 398.966 116.677 398.966 115.88C398.966 114.174 400.104 113.377 401.583 114.174C402.493 114.629 403.403 115.311 404.2 116.108C406.817 118.838 408.865 121.91 410.344 125.324C412.847 130.899 414.44 136.701 414.781 142.845C415.009 146.6 414.781 150.355 413.871 153.996C413.302 156.157 412.278 158.205 410.913 159.912C409.889 161.164 408.751 161.96 407.272 162.415C404.882 163.212 402.721 162.984 401.014 160.822C399.535 158.888 397.942 156.954 396.691 154.792C393.846 149.9 391.229 144.893 388.499 140.001C388.157 139.318 387.702 138.749 387.247 138.181C387.019 138.181 386.906 138.294 386.678 138.408H386.564Z" fill="black"/>
<path d="M173.232 134.313C173.004 134.995 172.777 135.792 172.663 136.588C170.956 145.577 170.274 154.793 170.729 163.895C170.842 166.398 171.07 169.015 171.298 171.518C171.411 172.997 171.525 174.362 170.16 175.272C168.794 176.183 167.202 175.955 165.836 175.272C163.106 173.907 161.399 171.518 160.261 168.787C159.237 166.398 158.896 163.895 158.782 161.392C158.327 152.176 159.692 143.187 162.537 134.313C162.764 133.516 162.992 132.833 163.333 131.923C162.423 131.582 161.627 131.354 160.944 130.899C158.782 129.762 156.62 128.738 154.572 127.372C153.207 126.462 152.069 125.097 151.045 123.731C148.883 120.659 149.111 116.905 151.273 113.833C151.5 113.605 151.614 113.378 151.842 113.15C152.411 112.695 152.866 112.809 153.207 113.491C153.435 113.946 153.548 114.402 153.548 114.857C153.662 116.336 154.459 117.474 155.71 118.27C158.099 119.863 160.716 120.887 163.447 121.797C164.471 122.138 165.495 122.366 166.633 122.594C168.112 122.935 168.226 122.935 168.908 121.683C170.842 118.498 173.687 116.563 176.986 115.198C181.196 113.491 187.113 114.97 188.592 121.456C189.729 126.121 187.909 130.33 183.699 132.72C181.196 134.085 178.579 134.54 175.849 134.426C175.052 134.426 174.256 134.426 173.346 134.426L173.232 134.313ZM176.19 123.731C178.579 123.731 180.514 123.39 182.448 122.48C183.472 121.911 184.041 121.114 183.813 120.318C183.586 119.635 182.675 119.066 181.651 119.066C181.424 119.066 181.196 119.066 180.969 119.066C178.579 119.522 177.214 121.114 176.304 123.618L176.19 123.731Z" fill="black"/>
<path d="M143.308 211.566C140.692 212.249 138.188 213.045 135.685 213.728C135.458 213.273 135.23 212.932 135.116 212.59C134.889 212.135 134.775 211.68 134.661 211.225C133.182 207.129 130.565 204.398 126.014 203.943C121.236 203.488 117.026 204.626 113.954 208.836C112.361 210.997 111.451 213.614 111.109 216.231C110.427 220.555 110.427 224.764 111.451 229.088C111.792 230.34 112.133 231.705 112.702 232.843C115.547 239.1 122.26 241.945 128.745 239.669C131.476 238.645 133.296 236.825 134.548 234.208C135.23 232.843 135.685 231.25 136.368 229.657C138.871 230.226 141.488 230.795 143.991 231.364C143.991 231.705 143.991 231.932 143.991 232.046C141.716 241.035 135.913 247.292 126.128 247.975C122.032 248.203 118.164 247.861 114.409 246.041C109.63 243.879 106.331 240.238 104.51 235.459C101.211 226.926 100.983 218.165 104.283 209.518C107.582 200.757 115.319 195.751 124.649 196.093C128.517 196.206 132.272 196.889 135.572 199.051C139.554 201.668 142.853 207.015 143.308 211.68V211.566Z" fill="black"/>
<path d="M259.703 243.31V260.49C258.224 260.49 256.858 260.49 255.607 260.49C254.241 260.49 252.99 260.49 251.625 260.49C251.169 259.011 251.169 213.159 251.625 210.997H259.703V215.093C259.816 215.093 259.93 215.207 260.044 215.321C260.499 214.865 260.954 214.524 261.409 214.069C265.392 210.542 270.056 209.518 275.176 210.883C279.045 211.907 281.662 214.524 283.368 218.165C285.416 222.602 285.758 227.381 285.303 232.273C285.075 234.777 284.506 237.28 283.368 239.669C281.093 244.334 277.338 246.951 272.104 247.52C267.781 247.975 263.799 246.951 260.499 243.992C260.385 243.879 260.158 243.765 259.703 243.424V243.31ZM277.111 229.543C277.111 227.153 276.769 224.764 275.973 222.602C274.608 219.189 271.877 217.369 268.122 217.596C264.936 217.71 262.32 219.189 260.158 221.578C259.817 221.92 259.589 222.602 259.589 223.171C259.589 227.267 259.589 231.363 259.589 235.573C259.589 236.369 259.93 236.938 260.385 237.507C262.092 239.214 264.026 240.465 266.416 240.92C271.536 241.944 275.404 239.328 276.428 234.208C276.769 232.729 276.769 231.249 276.997 229.657L277.111 229.543Z" fill="black"/>
<path d="M312.836 112.012C312.268 112.922 311.926 113.604 311.471 114.287C310.22 115.994 308.968 115.994 307.603 114.515C306.351 113.149 305.896 111.443 305.896 109.622C305.896 108.257 305.555 107.119 304.872 106.095C302.141 102.227 302.028 98.1307 303.962 93.921C305.441 90.6214 307.83 88.1183 310.675 85.8428C315.453 82.0881 320.687 79.585 326.831 79.1299C330.927 78.7886 334.682 79.6988 337.526 82.8846C337.868 83.3397 338.55 83.4535 339.119 83.681C340.484 84.3637 342.077 84.8188 343.329 85.729C346.401 88.1183 347.083 91.4179 346.059 95.0587C345.491 97.2205 344.353 99.0409 342.874 100.748C339.005 104.957 334.568 108.484 329.22 110.874C323.987 113.263 318.525 114.06 312.836 112.125V112.012ZM316.819 104.73C319.322 105.299 321.484 105.071 323.645 104.844C328.538 104.275 332.861 102.34 336.616 99.2685C338.095 98.017 339.46 96.5378 340.029 94.6036C341.053 91.3041 338.664 88.6872 335.251 89.3699C333.203 89.7112 331.496 90.6214 329.789 91.7592C325.921 94.3761 322.508 97.4481 319.549 100.975C318.639 102.113 317.843 103.251 316.705 104.73H316.819ZM320.801 88.5735C320.232 88.5735 320.004 88.5735 319.777 88.5735C315.34 89.4837 312.04 92.1005 309.537 95.8552C309.196 96.4241 308.854 96.993 308.741 97.6756C308.399 98.8134 308.399 100.065 309.309 101.43C312.381 96.4241 316.364 92.5556 320.801 88.6872V88.5735Z" fill="black"/>
<path d="M248.325 50.1162H240.019V0.167969H248.211C248.325 6.31194 248.211 12.4559 248.211 18.9412C248.894 18.3723 249.349 18.031 249.804 17.6897C253.331 14.8452 257.313 13.4799 261.751 13.5937C267.667 13.7075 271.308 17.3483 271.649 23.2647C271.649 23.8336 271.649 24.4025 271.649 24.8577C271.649 32.7083 271.649 40.5589 271.649 48.2958C271.649 48.8646 271.649 49.3198 271.649 50.0024H263.457C263.457 49.4335 263.457 48.7509 263.457 48.182C263.457 41.2416 263.457 34.3012 263.457 27.4745C263.457 26.5643 263.457 25.6541 263.23 24.7439C262.774 22.127 261.295 20.8754 258.679 20.6479C256.972 20.6479 255.379 20.8755 253.9 21.4443C253.217 21.7857 252.421 22.127 251.852 22.5821C249.463 24.0612 248.325 26.1092 248.325 28.9536V47.8407V50.0024V50.1162Z" fill="black"/>
<path d="M312.268 223.399C312.723 219.417 311.13 217.369 307.375 217.255C303.507 217.027 299.98 218.279 296.794 220.441C295.998 220.896 295.315 221.465 294.405 222.034C293.039 220.327 291.788 218.62 290.422 216.914C292.243 215.093 294.291 213.842 296.566 212.818C301.345 210.656 306.351 209.859 311.699 210.656C316.705 211.452 319.549 214.297 320.46 219.303C320.687 220.782 320.801 222.147 320.801 223.626C320.801 228.519 320.801 233.411 320.801 238.418C320.801 241.034 321.256 243.651 321.484 246.154C321.484 246.382 321.484 246.609 321.484 246.951H313.405C313.064 245.699 312.723 244.334 312.381 242.741C311.926 243.082 311.471 243.424 311.13 243.765C306.92 247.178 302.028 248.089 296.908 247.292C290.878 246.382 287.919 241.148 289.626 235.004C290.309 232.729 291.674 230.908 293.494 229.429C295.542 227.836 297.818 226.585 300.207 226.016C303.393 225.106 306.693 224.537 309.992 223.74C310.789 223.626 311.585 223.513 312.381 223.399H312.268ZM312.495 229.315C312.04 229.315 311.813 229.202 311.585 229.315C308.172 229.77 304.872 230.339 301.8 231.818C300.776 232.273 299.752 232.956 298.842 233.639C297.363 234.89 296.908 236.597 297.477 238.418C298.046 240.238 299.411 241.034 301.231 241.148C305.327 241.489 308.854 240.352 311.926 237.621C312.268 237.394 312.495 236.938 312.495 236.597C312.495 234.208 312.495 231.932 312.495 229.543V229.315Z" fill="black"/>
<path d="M310.447 34.9856H286.326C285.53 37.8301 287.919 42.6087 291.787 43.7465C296.111 44.998 300.093 44.4292 303.734 41.9261C304.417 41.471 304.986 40.902 305.782 40.3332C307.147 41.6985 308.627 43.0638 309.992 44.5429C308.513 46.4771 306.579 47.9562 304.417 48.9802C299.411 51.3696 294.291 51.8247 289.057 50.2318C284.278 48.7527 280.865 45.5669 279.044 40.902C277.11 35.4407 276.996 29.9794 279.044 24.5181C282.116 16.0986 290.308 13.1404 296.452 13.8231C303.165 14.5057 307.603 18.1466 309.537 24.7457C310.561 28.0452 310.788 31.4585 310.561 35.2132L310.447 34.9856ZM302.71 28.6141C302.369 22.9252 299.069 19.8533 293.722 20.3084C289.398 20.6497 285.871 24.6319 286.326 28.6141H302.71Z" fill="black"/>
<path d="M148.77 228.747C149.225 226.472 149.338 224.196 150.021 222.034C151.728 216.345 155.482 212.704 161.171 211.112C165.381 209.974 169.591 210.088 173.687 211.794C178.01 213.501 181.082 216.573 182.675 221.01C184.268 225.22 184.496 229.657 183.585 234.095C181.651 243.083 174.711 248.431 165.495 247.862C158.441 247.407 153.321 244.221 150.476 237.622C149.338 234.891 148.997 231.933 148.77 228.861V228.747ZM157.075 229.202C157.417 231.478 157.644 233.753 158.554 235.801C160.147 239.215 162.878 240.807 166.519 240.807C170.16 240.807 173.004 239.215 174.369 235.801C176.076 231.478 176.076 227.04 174.369 222.717C173.004 219.19 170.046 217.483 165.95 217.597C162.195 217.711 159.351 219.531 158.213 223.172C157.53 225.106 157.417 227.268 156.961 229.316L157.075 229.202Z" fill="black"/>
<path d="M363.126 211.111H371.659C374.731 219.645 377.69 228.178 380.762 236.825C380.875 236.825 380.989 236.825 381.217 236.825C384.175 228.292 387.247 219.758 390.319 211.111H398.511C398.283 211.794 398.169 212.363 397.942 212.932C393.163 225.333 388.385 237.849 383.606 250.251C382.81 252.299 381.786 254.347 380.648 256.281C379.169 258.784 376.779 260.263 373.821 260.718C369.953 261.287 366.198 260.946 362.216 259.922C362.785 257.646 363.467 255.598 364.036 253.323C364.605 253.323 364.946 253.323 365.402 253.436C366.312 253.55 367.336 253.778 368.246 253.778C374.276 254.347 375.186 251.957 376.666 247.52C376.893 246.951 376.552 246.155 376.21 245.472C372.911 236.825 369.611 228.178 366.312 219.531C365.515 217.369 364.605 215.094 363.809 212.932C363.581 212.363 363.467 211.794 363.24 211.111H363.126Z" fill="black"/>
<path d="M328.31 211.111H336.502V216.117C336.616 216.117 336.73 216.117 336.843 216.231C337.412 215.662 337.981 215.207 338.55 214.638C342.532 211.111 347.083 209.518 352.317 210.542C356.754 211.339 359.371 214.183 359.94 218.62C359.94 219.531 360.054 220.441 360.054 221.351C360.054 229.202 360.054 237.166 360.054 245.017C360.054 245.586 360.054 246.154 360.054 246.837H351.976C351.976 246.154 351.976 245.472 351.976 244.675C351.976 237.963 351.976 231.25 351.976 224.423C351.976 223.399 351.976 222.375 351.862 221.351C351.521 218.848 350.042 217.483 347.538 217.141C345.718 216.914 344.011 217.141 342.418 217.938C341.622 218.279 340.939 218.62 340.143 219.075C337.867 220.441 336.843 222.489 336.843 225.106V246.723H328.651V210.77L328.31 211.111Z" fill="black"/>
<path d="M219.425 50.1171H211.006C210.892 46.59 211.006 43.0629 211.006 39.6496C211.006 36.1225 211.006 32.5954 211.006 29.0683V8.01947H195.532C195.418 5.28882 195.532 2.78574 195.532 0.396412C196.897 0.0550806 231.486 -0.172488 234.785 0.168844V7.90569H219.425C219.425 12.7981 219.425 17.3492 219.425 22.0141V50.1171Z" fill="black"/>
<path d="M128.745 147.283C129.086 138.408 130.793 129.989 133.978 121.797C134.775 119.749 136.026 117.815 137.164 115.881C137.619 115.084 138.416 114.401 139.098 113.833C140.236 112.922 141.488 113.264 142.17 114.515C142.625 115.539 143.081 116.677 142.967 117.815C142.853 120.09 142.512 122.252 142.057 124.414C140.919 130.103 139.667 135.678 138.529 141.367C138.188 143.301 138.074 145.235 137.961 147.169C137.961 147.738 137.961 148.307 138.074 148.762C138.302 149.9 138.871 150.128 139.895 149.786C141.033 149.331 142.17 148.876 143.194 148.421C145.242 147.624 147.177 146.714 149.225 145.918C150.021 145.576 150.931 145.349 151.841 145.235C153.776 144.894 154.686 145.69 154.913 147.511C155.141 149.104 154.913 150.583 154.117 151.948C152.41 155.248 150.021 157.864 146.949 159.685C144.56 161.05 142.057 162.188 139.326 162.416C135.571 162.871 132.727 161.392 130.793 158.092C129.541 155.93 128.972 153.655 128.745 151.152C128.631 149.786 128.631 148.535 128.517 147.283H128.745Z" fill="black"/>
<path d="M323.873 147.397C323.987 150.811 324.214 154.338 324.214 157.751C324.214 159.23 324.214 160.709 323.873 162.075C323.531 164.236 322.507 165.147 320.346 165.374C316.477 165.829 314.088 164.009 313.633 160.141C313.178 155.817 312.95 151.607 312.95 147.284C312.95 140.229 313.292 133.062 314.657 126.121C314.998 124.756 315.453 123.277 316.022 122.025C316.705 120.66 317.501 120.546 318.867 121.229C320.232 121.911 321.028 123.163 321.37 124.642C321.825 126.69 322.28 128.738 322.507 130.9C322.963 136.361 323.304 141.936 323.759 147.397C323.759 147.397 323.759 147.397 323.645 147.397H323.873Z" fill="black"/>
</svg>
