<svg width="500" height="111" viewBox="0 0 500 111" fill="none" xmlns="http://www.w3.org/2000/svg">
<g clip-path="url(#clip0_17_18275)">
<path d="M488.985 0L461.714 58.3409L451.459 36.2352H440.368L457.232 72.3944H466.196L500 0H488.985Z" fill="#D52B1E"/>
<path d="M371.999 108.325H393.953V68.1399C393.953 58.9481 399.271 52.4911 407.171 52.4911C414.768 52.4911 418.718 57.8087 418.718 65.4811V108.325H440.672V61.303C440.672 45.3504 431.1 34.1077 415.603 34.1077C405.728 34.1077 398.815 38.3617 393.649 46.1101H393.194V36.2347H371.923L371.999 108.325ZM328.851 34.2596C305.91 34.2596 290.565 50.7439 290.565 72.4699C290.565 94.0439 305.91 110.68 328.851 110.68C351.793 110.68 367.138 94.0439 367.138 72.4699C367.214 50.7439 351.793 34.2596 328.851 34.2596ZM328.699 94.4237C318.292 94.4237 312.747 85.6877 312.747 72.4699C312.747 59.1001 318.216 50.5161 328.699 50.5161C339.107 50.5161 344.88 59.1001 344.88 72.4699C344.956 85.6877 339.183 94.4237 328.699 94.4237ZM227.97 108.325H289.654V91.0053H254.71V90.5495L288.134 53.0989V36.1587H227.97V53.5546H261.775V54.0104L227.97 91.7649V108.325ZM199.787 108.325H221.893V36.2347H199.787V108.325ZM148.511 108.325H170.541V75.2046C170.541 60.1636 179.581 53.4787 193.33 55.3778H193.786V36.3866C192.647 35.9308 191.355 35.8549 189.304 35.8549C180.72 35.8549 174.947 39.805 170.009 48.2371H169.553V36.2347H148.511V108.325ZM108.098 94.4996C98.3744 94.4996 92.4491 88.1946 91.3096 78.4711H143.27C143.421 62.9743 139.319 50.592 130.735 42.8436C124.658 37.2222 116.682 34.1077 106.503 34.1077C84.7767 34.1077 69.7356 50.592 69.7356 72.166C69.7356 93.8919 84.093 110.452 107.946 110.452C116.986 110.452 124.126 108.021 130.052 103.995C136.357 99.6652 140.915 93.2842 142.13 86.9791H121.012C118.961 91.6889 114.555 94.4996 108.098 94.4996ZM106.958 49.8324C114.707 49.8324 120.024 55.6057 120.936 64.0378H91.4616C93.2087 55.5297 97.8426 49.8324 106.958 49.8324ZM25.828 108.325H48.9213L73.9897 36.2347H51.8839L37.8304 82.5732H37.5266L23.4731 36.2347H0.759644L25.828 108.325ZM199.787 10.5586H221.893V30.1575H199.787V10.5586Z" fill="black"/>
</g>
<defs>
<clipPath id="clip0_17_18275">
<rect width="500" height="110.909" fill="white"/>
</clipPath>
</defs>
</svg>
