<svg width="500" height="121" viewBox="0 0 500 121" fill="none" xmlns="http://www.w3.org/2000/svg">
<g clip-path="url(#clip0_17_18276)">
<path d="M159.537 61.1008L144.966 25.8913H151.751L160.037 47.0295L169.106 24.8906L178.143 47.0295L186.429 25.8913H192.964L178.643 61.1008L169.106 38.4616L159.537 61.1008Z" fill="#0D2096"/>
<path fill-rule="evenodd" clip-rule="evenodd" d="M223.608 59.8501H217.073L213.571 52.5643H199.249L195.716 59.8501H189.181L206.535 24.6406L223.608 59.8501ZM201.501 47.7801H211.538L206.535 37.211L201.501 47.7801Z" fill="#0D2096"/>
<path fill-rule="evenodd" clip-rule="evenodd" d="M234.178 59.8493H227.892V25.8906H237.43C244.966 25.8906 250.25 29.6742 250.25 36.4597C250.25 40.9938 247.749 44.2458 243.715 45.7781L254.284 59.8493H246.998L237.43 46.7787H234.428L234.178 59.8493ZM234.178 41.7443H237.43C241.213 41.7443 243.965 39.9619 243.965 36.4597C243.965 32.9263 241.463 31.1752 237.43 31.1752H234.178V41.7443Z" fill="#0D2096"/>
<path fill-rule="evenodd" clip-rule="evenodd" d="M332.427 59.8493H326.141V25.8906H335.679C343.215 25.8906 348.499 29.6742 348.499 36.4597C348.499 40.9938 345.966 44.2458 341.964 45.7781L352.502 59.8493H345.466L335.929 46.7787H332.927L332.427 59.8493ZM332.427 41.7443H335.679C339.462 41.7443 342.214 39.9619 342.214 36.4597C342.214 32.9263 339.712 31.1752 335.679 31.1752H332.427V41.7443Z" fill="#0D2096"/>
<path d="M283.427 25.8914H289.712V61.1009L265.822 38.2116V59.8501H259.537V24.6406L283.427 47.5299V25.8914Z" fill="#0D2096"/>
<path d="M297.749 25.8906H318.605V31.1752H304.034V39.9932H317.573V45.2777H304.034V54.815H318.855V60.0995H297.999L297.749 25.8906Z" fill="#0D2096"/>
<path fill-rule="evenodd" clip-rule="evenodd" d="M368.855 25.8906H378.643C386.179 25.8906 390.213 29.4241 390.213 34.9588C390.213 38.461 387.93 40.9938 385.428 41.9944C389.181 42.9951 392.214 45.7781 392.214 50.2809C392.214 56.3159 387.43 59.8493 380.144 59.8493H368.855V25.8906ZM378.143 40.2121C381.645 40.2121 383.927 38.7111 383.927 35.7093C383.927 32.6761 381.645 31.1752 378.143 31.1752H374.859V40.2121H378.143ZM379.925 54.5648C383.427 54.5648 385.96 52.7824 385.96 49.7806C385.96 46.7474 383.427 44.9963 379.925 44.9963H375.141V54.5648C374.89 54.5648 379.925 54.5648 379.925 54.5648Z" fill="#0D2096"/>
<path fill-rule="evenodd" clip-rule="evenodd" d="M405.034 59.8493H398.749V25.8906H408.286C415.822 25.8906 421.107 29.6742 421.107 36.4597C421.107 40.9938 418.605 44.2458 414.572 45.7781L425.141 59.8493H417.824L408.286 46.7787H405.285L405.034 59.8493ZM405.034 41.7443H408.286C412.07 41.7443 414.822 39.9619 414.822 36.4597C414.822 32.9263 412.32 31.1752 408.286 31.1752H405.034V41.7443Z" fill="#0D2096"/>
<path fill-rule="evenodd" clip-rule="evenodd" d="M444.215 60.0998C434.647 60.0998 426.892 52.345 426.892 42.7452C426.892 33.1455 434.647 25.3906 444.215 25.3906C453.815 25.3906 461.57 33.1455 461.57 42.7452C461.57 52.345 453.815 60.0998 444.215 60.0998ZM455.285 42.7452C455.285 36.3662 450.344 31.1755 444.215 31.1755C438.118 31.1755 433.177 36.3662 433.177 42.7452C433.177 49.1555 438.118 54.315 444.215 54.315C450.344 54.315 455.285 49.1555 455.285 42.7452Z" fill="#0D2096"/>
<path d="M476.391 55.0656C479.894 55.0656 482.426 53.5646 482.426 50.7816C482.426 48.5302 480.894 47.5296 478.893 46.529L473.358 43.746C469.856 41.9949 466.573 39.9937 466.573 34.9593C466.573 28.9242 471.357 25.1406 477.642 25.1406C481.395 25.1406 484.928 26.6416 486.679 28.4239V34.9593C484.178 32.4264 480.644 30.4252 477.392 30.4252C474.609 30.4252 472.358 31.676 472.358 34.2088C472.358 35.9599 473.608 36.9605 475.641 37.9611L480.894 40.494C485.929 42.7454 488.43 44.9968 488.43 49.781C488.43 56.0662 483.177 60.1 476.391 60.1C472.108 60.1 468.355 58.599 466.073 56.8167V50.2813C468.855 53.0643 472.358 55.0656 476.391 55.0656Z" fill="#0D2096"/>
<path d="M500 56.0668C500 58.3495 498.249 59.8504 496.216 59.8504H495.966C493.715 59.8504 492.214 58.0993 492.214 56.0668C492.214 53.8154 493.965 52.3145 495.966 52.3145H496.216C498.249 52.3145 500 54.0655 500 56.0668Z" fill="#0D2096"/>
<path fill-rule="evenodd" clip-rule="evenodd" d="M358.787 105.097H352.501V71.1699H362.07C369.606 71.1699 374.859 74.9223 374.859 81.739C374.859 86.2418 372.358 89.5251 368.355 91.0261L378.893 105.097H371.607L362.07 92.0267H359.037L358.787 105.097ZM358.787 86.9923H362.07C365.822 86.9923 368.605 85.2412 368.605 81.7078C368.605 78.2056 366.072 76.4545 362.07 76.4545H358.787V86.9923Z" fill="#0D2096"/>
<path d="M323.859 71.1699H344.715V76.4545H329.894V85.2412H343.465V90.5258H329.894V100.094H344.715V105.348H323.859V71.1699Z" fill="#0D2096"/>
<path fill-rule="evenodd" clip-rule="evenodd" d="M267.073 105.629C257.505 105.598 249.75 97.843 249.75 88.2745C249.75 78.6748 257.505 70.9199 267.073 70.9199C276.673 70.9199 284.428 78.6748 284.428 88.2745C284.428 97.843 276.673 105.598 267.073 105.598V105.629ZM278.393 88.2745C278.393 81.8955 273.452 76.7048 267.323 76.7048C261.226 76.7048 256.285 81.8955 256.285 88.2745C256.285 94.6848 261.226 99.8755 267.323 99.8755C273.452 99.8755 278.393 94.6848 278.393 88.2745Z" fill="#0D2096"/>
<path fill-rule="evenodd" clip-rule="evenodd" d="M155.535 71.1699C165.072 71.1699 172.858 78.4557 172.858 88.0242C172.858 97.5614 165.072 104.847 155.535 104.847H144.966V71.1699H155.535ZM151.282 76.4545V100.094H155.034C161.82 100.094 166.604 94.8097 166.604 88.5245C166.604 81.9892 161.82 76.9548 155.034 76.9548L151.282 76.4545Z" fill="#0D2096"/>
<path d="M179.393 71.1699H185.678V105.097H179.393V71.1699Z" fill="#0D2096"/>
<path d="M202.502 100.345C206.035 100.345 208.537 98.8127 208.537 96.061C208.537 93.8095 207.036 92.7776 205.034 91.777L199.5 89.0253C195.966 87.2429 192.714 85.2417 192.714 80.2073C192.714 74.1723 197.498 70.4199 203.784 70.4199C207.536 70.4199 211.069 71.9209 212.82 73.672V80.2073C210.288 77.7057 206.785 75.7045 203.502 75.7045C200.75 75.7045 198.499 76.9553 198.499 79.4568C198.499 81.2079 199.75 82.2398 201.751 83.2404L207.036 85.742C212.07 88.0247 214.572 90.2761 214.572 95.0603C214.572 101.345 209.287 105.348 202.502 105.348C198.249 105.348 194.465 103.847 192.214 102.096V95.5606C194.966 98.3124 198.499 100.345 202.502 100.345Z" fill="#0D2096"/>
<path d="M244.966 96.0605V103.346C242.464 104.847 239.462 105.879 236.179 105.879C226.642 105.879 218.855 98.0617 218.855 88.5245C218.855 78.956 226.642 71.1699 236.179 71.1699C239.462 71.1699 242.464 71.9204 244.966 73.6715V80.457C242.964 78.2056 239.962 76.9548 236.429 76.9548C229.894 76.9548 225.141 81.9892 225.141 88.5245C225.141 95.0599 230.144 100.094 236.429 100.094C239.962 99.8441 242.964 98.3119 244.966 96.0605Z" fill="#0D2096"/>
<path d="M284.928 71.1699H291.964L302.501 93.8091L313.071 71.1699H319.606L302.251 106.379L284.928 71.1699Z" fill="#0D2096"/>
<path d="M390.213 105.097V89.7753L377.642 71.1699H384.678L393.465 83.9904L402.251 71.1699H409.287L396.748 89.7753V104.847L390.213 105.097Z" fill="#0D2096"/>
<path d="M116.573 39.2114C115.822 44.7461 113.071 63.3514 99.4997 81.4565C85.6786 100.093 67.5735 109.38 62.3202 111.913C56.7855 109.13 38.6804 100.093 24.8593 81.4565C11.3196 63.3514 8.5366 44.7461 7.78613 39.2114L16.0726 34.7085V28.4234L24.359 23.8893V18.1044C35.6786 12.8199 47.9988 9.31768 62.3202 7.28516C76.6417 9.06752 88.9306 12.5697 100.25 18.1044V24.1394L108.537 28.6735V34.9587L116.573 39.2114Z" fill="url(#paint0_linear_17_18276)"/>
<path fill-rule="evenodd" clip-rule="evenodd" d="M124.609 34.9593L123.859 39.9937C121.607 57.0669 115.322 72.4203 105.535 85.7411C95.7161 99.3121 82.1764 110.381 65.5722 118.699L62.3202 120.2L59.0369 118.699C42.464 110.381 29.1432 99.3121 19.1057 85.9912C9.28705 72.6704 3.00188 57.0669 0.750469 40.2439L0 35.2095L8.78674 30.4253V24.3902L17.0732 19.8562V13.571L21.1069 11.5697C33.177 6.03502 46.2164 2.25141 61.3196 0.250156L62.3202 0L63.0707 0.250156C78.3927 2.25141 91.4634 6.03502 103.252 11.5697L107.286 13.8211V20.1063L115.572 24.3902V30.4253L124.609 34.9593ZM108.537 34.9593V28.6742L100.25 24.1401V18.1051C88.9306 12.5704 76.6104 9.06817 62.2889 7.2858C47.9675 9.31832 35.6786 12.8205 24.359 18.1051V23.8899L16.0725 28.424V34.7092L7.78612 39.2433C8.53659 44.778 11.2883 63.3834 24.8593 81.4884C38.6804 100.094 56.7855 109.131 62.2889 111.914C67.5735 109.381 85.6786 100.094 99.4997 81.4884C113.071 63.3834 115.822 44.778 116.573 39.2433L108.537 34.9593Z" fill="url(#paint1_linear_17_18276)"/>
<path d="M58.2865 20.6074V99.3129C52.7518 93.528 47.7487 86.2422 44.2152 78.9564L36.9294 83.2403C27.6423 72.9214 21.107 60.1009 17.0732 43.2466C19.1058 40.745 21.107 38.4623 23.3584 36.7112C26.3916 50.7825 30.8944 62.8526 37.93 72.4211L40.713 70.9201C36.1789 58.5999 33.4272 45.2791 32.4266 30.1759C35.4285 28.1747 38.1802 26.8926 40.713 25.6418C41.4635 42.2459 44.7155 58.8501 50.0001 72.1709L50.5004 71.9207L50.0001 22.1396C53.0019 21.3892 55.5348 20.8576 58.2865 20.6074Z" fill="url(#paint2_linear_17_18276)"/>
<path fill-rule="evenodd" clip-rule="evenodd" d="M102.001 55.5668C102.001 67.3867 82.4264 90.7763 65.8223 99.3129V20.6074C69.856 20.8576 73.8585 21.3892 77.6422 22.3898C84.1775 24.1409 88.6803 26.6424 91.7134 28.4248C96.7478 31.6768 99.9999 35.2103 99.9999 39.2128C99.9999 42.2459 99.4996 44.4974 96.4977 47.7807C100.5 49.5318 102.501 52.0646 102.001 55.5668ZM74.3589 52.3147L84.6778 46.78C89.9624 43.997 91.4633 41.2453 91.4633 39.4942C91.4633 34.4598 78.3926 30.1759 74.3589 30.1759V52.3147ZM93.7147 57.3491C93.7147 57.099 93.9649 53.5655 89.462 52.5649C88.9305 52.8151 74.1087 61.3516 74.1087 61.3516V83.7406C78.1425 80.4886 82.1762 76.4548 84.4276 73.7031C89.7122 67.6681 93.9649 61.3829 93.7147 57.3491Z" fill="url(#paint3_linear_17_18276)"/>
</g>
<defs>
<linearGradient id="paint0_linear_17_18276" x1="7.91121" y1="59.7242" x2="116.542" y2="59.7242" gradientUnits="userSpaceOnUse">
<stop stop-color="#4047FF"/>
<stop offset="1" stop-color="#04006C"/>
</linearGradient>
<linearGradient id="paint1_linear_17_18276" x1="0" y1="60.1939" x2="124.453" y2="60.1939" gradientUnits="userSpaceOnUse">
<stop stop-color="#FFC800"/>
<stop offset="1" stop-color="#E9A600"/>
</linearGradient>
<linearGradient id="paint2_linear_17_18276" x1="17.3547" y1="60.0696" x2="58.4428" y2="60.0696" gradientUnits="userSpaceOnUse">
<stop stop-color="#FFD100"/>
<stop offset="1" stop-color="#FABB00"/>
</linearGradient>
<linearGradient id="paint3_linear_17_18276" x1="66.0724" y1="60.0696" x2="102.314" y2="60.0696" gradientUnits="userSpaceOnUse">
<stop stop-color="#F7B700"/>
<stop offset="1" stop-color="#E9A600"/>
</linearGradient>
<clipPath id="clip0_17_18276">
<rect width="500" height="120.388" fill="white"/>
</clipPath>
</defs>
</svg>
