<svg width="500" height="500" viewBox="0 0 500 500" fill="none" xmlns="http://www.w3.org/2000/svg">
<g clip-path="url(#clip0_6_15199)">
<mask id="mask0_6_15199" style="mask-type:luminance" maskUnits="userSpaceOnUse" x="-5796" y="-4267" width="6417" height="4960">
<path d="M-5795.48 -4266.04H620.452V692.391H-5795.48V-4266.04Z" fill="white"/>
</mask>
<g mask="url(#mask0_6_15199)">
<path fill-rule="evenodd" clip-rule="evenodd" d="M0.332031 0.0668945H499.734V499.967H0.332031V0.0668945ZM14.9071 484.164H485.159V13.4467H14.9071V484.164ZM76.8925 439.576C75.2656 445.253 70.3852 451.329 62.2842 451.329C52.5897 451.329 47.7092 443.626 47.7092 435.525C47.7092 427.026 52.5897 420.153 62.2842 420.153C73.2404 420.153 75.2656 427.026 76.0624 429.051L72.012 429.881C72.012 429.051 71.2152 427.856 70.3852 425.831C69.1899 425.001 66.3347 422.975 62.2842 422.975C59.4622 422.975 56.6401 424.204 54.6149 427.026C52.5897 429.051 52.5897 431.906 52.5897 435.525C52.5897 442.431 55.8101 447.278 62.2842 447.278C67.1647 447.278 71.2152 445.253 72.012 439.576H76.8925ZM96.348 451.329C86.6202 451.329 80.9429 444.456 80.9429 435.525C80.9429 424.204 89.8739 420.153 96.348 420.153C104.449 420.153 110.923 425.831 110.923 435.525C110.923 444.456 106.076 451.329 96.348 451.329ZM107.271 435.758C107.271 428.686 102.49 422.975 96.5472 422.975C90.6043 422.975 85.8234 428.686 85.8234 435.758C85.8234 442.796 90.6043 448.507 96.5472 448.507C102.49 448.507 107.271 442.796 107.271 435.758ZM146.149 420.95V450.133H142.098V425.001L133.599 450.133H130.379L121.846 425.831V450.133H117.796V420.95H122.676L132.404 445.253L141.301 420.95H146.149ZM182.205 420.95V450.133H178.154L178.951 425.001L169.223 450.133H166.401L157.902 425.831V450.133H154.648V420.95H159.529L168.426 445.253L177.324 420.95H182.205ZM213.015 420.95V439.576C213.015 440.406 213.015 442.431 212.185 443.626C212.185 447.278 208.134 451.329 201.66 451.329C198.406 451.329 194.788 450.133 192.762 447.278C190.737 444.456 190.737 442.431 190.737 439.576V420.95H194.788V438.779C194.788 441.601 194.788 443.626 195.584 445.253C197.61 447.278 200.432 447.278 201.66 447.278C205.312 447.278 207.337 446.481 208.134 442.431C209.363 441.601 209.363 440.406 209.363 438.779V420.95H213.015ZM244.19 420.95V450.133H240.139L224.768 425.831V450.133H220.717V420.95H224.768L240.139 444.456V420.95H244.19ZM251.892 420.95H255.943V450.133H251.892V420.95ZM274.17 424.171V450.1H270.518V424.171H261.62V420.95H283.068V424.171H274.17ZM287.948 420.95H291.6V450.1H287.948V420.95ZM304.15 436.754V447.278H320.75V450.133H300.498V420.95H320.75V424.204H304.15V432.703H318.725V436.754H304.15ZM337.384 436.754C333.333 435.525 326.859 434.728 326.859 427.856C326.859 425.001 328.453 422.975 329.681 422.178C332.503 420.153 335.359 420.153 337.384 420.153C339.409 420.153 342.231 420.153 345.086 422.178C347.908 424.204 349.137 427.026 349.137 429.051H345.086C345.086 427.856 345.086 425.831 342.231 424.204C341.434 422.975 339.409 422.975 337.384 422.975C334.529 422.975 330.478 424.204 330.478 427.856C330.478 430.678 334.529 431.906 336.554 431.906L340.206 432.703C342.231 433.931 343.061 433.931 344.256 434.728C349.137 436.754 349.137 439.576 349.137 441.634C349.137 444.456 347.908 447.278 346.282 449.303C343.061 451.329 339.409 451.329 337.384 451.329C335.359 451.329 325.631 450.133 325.631 440.406H329.681C329.681 441.634 329.681 444.456 331.707 446.481C333.333 447.278 335.359 448.507 338.181 448.507C342.231 448.507 345.086 446.481 345.086 442.431C345.086 438.779 342.231 437.55 339.409 437.55L337.384 436.754ZM75.7304 299.834L91.5007 401.926H77.7557L75.7304 383.301H60.3254L58.3002 401.926H44.5219L59.097 299.834H75.7304ZM67.2311 319.29C66.0359 332.67 66.0359 333.865 66.0359 335.89L61.1554 370.751H74.1368L69.2563 335.89C68.0611 331.84 68.0611 327.789 68.0611 319.29H67.2311ZM126.76 324.967L115.007 401.926H100.432L89.5087 324.967H101.228L106.109 363.845C107.304 372.776 107.304 379.649 107.304 387.351H108.134C108.931 382.471 108.931 373.573 108.931 367.896L115.007 324.967H126.76ZM131.64 339.542C131.64 335.492 131.64 322.942 148.24 322.942C165.637 322.942 165.637 334.695 165.637 339.542V388.978C165.637 393.825 165.637 397.876 167.663 401.528H154.715C153.918 398.706 153.918 398.706 153.088 395.85C151.062 398.706 148.24 402.756 141.335 402.756C130.412 402.756 130.412 393.825 130.412 390.173V375.598C130.412 370.751 130.412 365.87 137.284 361.82L149.037 354.117C151.892 352.922 153.918 351.295 153.918 350.067V338.314C153.918 335.492 153.088 332.67 149.037 332.67C143.36 332.67 143.36 336.72 143.36 338.314V349.27H131.64V339.542ZM153.918 362.617C153.088 363.845 149.037 366.667 147.012 368.692C143.36 370.718 142.165 372.344 142.165 376.395V384.097C142.165 388.148 142.165 393.825 147.012 393.825C153.918 393.825 153.918 383.301 153.918 382.072V362.617ZM174.17 299.436H185.89V401.495H174.17V299.436ZM193.592 345.22C193.592 337.517 193.592 323.772 212.218 323.772C228.851 323.772 228.851 335.492 228.851 341.568V385.326C228.851 390.206 228.851 402.756 211.421 402.756C193.592 402.756 193.592 390.206 193.592 381.275V345.22ZM217.895 340.372C217.895 336.322 217.098 332.67 212.218 332.67C206.574 332.67 206.574 337.517 206.574 341.169V386.953C206.574 389.775 206.574 393.825 211.421 393.825C217.098 393.825 217.895 388.978 217.895 386.156V340.372ZM248.274 329.416C250.299 326.594 253.154 322.942 260.027 322.942C271.381 322.942 271.381 333.467 271.381 339.144V401.528H258.798V341.169C258.798 338.347 258.798 333.467 253.951 333.467C248.274 333.467 248.274 339.144 248.274 343.194V401.528H236.521V324.569H248.274V329.416ZM280.279 299.436H304.582C319.987 299.436 319.987 305.113 319.987 325.764C319.987 340.339 319.987 347.245 309.429 347.245V348.042C313.479 348.042 319.157 348.839 319.987 355.744C319.987 356.939 319.987 357.769 319.987 376.395C319.987 396.647 319.157 401.528 300.531 401.528H280.279V299.436ZM294.057 342.364C303.785 342.364 304.582 342.364 305.379 339.111C306.607 337.517 306.607 329.383 306.607 325.764C306.607 323.739 306.607 320.884 306.607 318.062C306.607 314.011 305.379 313.181 304.582 311.986C303.785 311.986 303.785 311.986 294.057 311.986V342.364ZM294.057 354.117V388.945H300.531C304.582 388.945 305.379 388.945 306.607 387.318C307.404 385.293 307.404 373.54 307.404 371.514C307.404 356.143 306.607 354.117 300.531 354.117H294.057ZM328.088 339.509C328.088 335.459 328.088 322.909 344.688 322.909C361.288 322.909 361.288 334.662 361.288 339.509V388.945C361.288 393.792 361.288 397.842 364.143 401.893H351.56C350.764 398.672 350.764 398.672 349.535 395.817C347.51 398.672 344.688 402.723 337.815 402.723C327.258 402.723 327.258 393.792 327.258 390.173V375.565C327.258 370.718 327.258 365.87 334.96 361.82L345.916 354.117C347.51 353.287 350.764 351.262 350.764 350.067V338.712C350.764 335.459 349.535 332.637 344.688 332.637C339.841 332.637 339.841 336.687 339.841 338.712V349.237H328.088V339.509ZM350.764 363.015C348.738 363.812 345.916 366.667 342.663 368.692C339.841 370.718 339.011 372.743 339.011 376.395V384.064C339.011 388.115 339.011 393.792 343.891 393.792C350.764 393.792 350.764 383.267 350.764 382.471V363.015ZM379.914 324.934L384.794 370.684C384.794 372.71 385.591 383.267 385.591 386.09H386.421C387.616 371.514 387.616 368.659 389.641 356.939L393.294 324.934H405.047L390.471 410.392C388.446 420.12 383.566 422.145 375.863 422.145C375.066 422.145 375.066 422.145 370.219 422.145V410.392C373.838 411.621 379.914 411.621 379.914 403.52C379.914 402.69 378.718 401.893 378.718 399.868L366.966 324.934H379.914Z" fill="#25346E"/>
</g>
</g>
<defs>
<clipPath id="clip0_6_15199">
<rect width="500" height="500" fill="white"/>
</clipPath>
</defs>
</svg>
