<svg width="500" height="154" viewBox="0 0 500 154" fill="none" xmlns="http://www.w3.org/2000/svg">
<g clip-path="url(#clip0_6_15215)">
<mask id="mask0_6_15215" style="mask-type:luminance" maskUnits="userSpaceOnUse" x="-908" y="-52" width="1470" height="1900">
<path d="M-907.085 -51.5532H561.867V1847.52H-907.085V-51.5532Z" fill="white"/>
</mask>
<g mask="url(#mask0_6_15215)">
<path fill-rule="evenodd" clip-rule="evenodd" d="M464.673 114.607C462.029 112.591 460.211 109.352 460.112 105.75C459.121 108.262 457.105 110.542 454.924 111.864C452.545 109.452 451.586 106.345 451.95 102.743C450.727 105.255 448.579 106.808 445.935 107.898C444.382 105.519 443.655 102.379 444.151 99.2731C442.465 101.322 440.284 102.611 437.773 103.107C436.814 100.826 436.451 98.3147 437.046 95.9023C433.344 99.0417 428.652 97.9512 428.189 97.9512C432.749 94.1178 435.724 88.7311 436.319 82.4852C436.319 82.4852 442.697 91.1105 458.063 96.1667C458.427 95.4396 463.681 88.4667 465.367 78.5196C473.893 95.8032 465.862 112.327 464.673 114.607ZM492.63 14.6399H495.869C495.968 21.8111 490.582 25.4132 488.665 26.1402H489.987C489.855 32.8488 484.567 35.5917 482.65 35.5917C483.873 40.747 477.627 44.1178 477.132 44.3491C474.983 55.8825 464.177 60.0794 461.401 60.6743C465.003 73.9591 460.443 85.7238 456.51 91.7053C443.655 87.5084 433.443 76.5037 429.478 62.6901C428.42 59.5837 425.413 57.0722 421.348 56.1138C418.705 55.519 416.424 54.2962 414.838 52.6439C413.516 51.322 411.5 50.2314 409.22 49.7688C408.493 49.6807 407.645 49.6366 406.675 49.6366C406.444 49.6366 383.41 51.0576 383.41 51.0576C383.168 51.0576 383.047 50.9475 383.047 50.7271C383.047 50.595 383.179 50.3636 383.41 50.3636L408.262 47.2242C412.921 46.2658 416.16 43.7542 417.614 40.6478C419.167 37.0457 423.629 34.402 428.883 34.402C429.61 34.402 430.337 34.402 430.932 34.402C436.946 34.8977 442.564 36.9135 447.389 40.2843C452.908 37.2771 458.658 33.6749 464.673 29.6102C480.37 19.0682 493.093 8.16271 499.57 0.231445C501.851 7.20435 493.82 13.7807 492.63 14.6399ZM445.572 34.8977C442.201 32.8488 438.599 31.5269 434.765 30.7999C436.946 21.7119 438.136 13.7807 438.367 7.89833C441.011 9.12107 442.829 13.5494 442.465 18.8369C442.333 20.6214 441.97 22.1746 441.507 23.6287C441.573 23.6287 441.65 23.6287 441.738 23.6287C444.382 23.86 446.431 27.5613 446.067 31.8904C445.979 32.9259 445.814 33.9283 445.572 34.8977Z" fill="#77C547"/>
<path fill-rule="evenodd" clip-rule="evenodd" d="M70.5221 71.8109H70.6543V83.6748L70.0594 83.0799C63.0865 76.2392 53.7343 72.3066 44.4811 72.3066C25.6444 72.3066 9.68271 88.5988 9.68271 107.898C9.68271 127.198 25.7766 143.523 44.6133 143.523C53.6021 143.523 62.8552 139.557 70.0594 132.584L70.6543 132.122V143.853L70.5221 143.985C62.9874 149.273 53.9656 152.247 44.9768 152.247C33.2121 152.247 22.0423 147.72 13.5162 139.425C4.89091 131.031 0.198242 119.894 0.198242 108.262C0.198242 83.5756 20.2577 63.417 44.9768 63.417C54.5604 63.417 62.9874 66.1929 70.5221 71.8109ZM105.354 78.7838L136.054 150.33H126.933C126.933 150.33 119.266 131.626 119.035 131.295H90.8129C90.7138 131.626 82.6503 150.33 82.6503 150.33H73.7607L104.99 79.4778L105.354 78.7838ZM94.1837 123.628H115.896C115.532 122.802 105.717 99.4051 105.221 97.9841C104.627 99.4051 94.5472 122.802 94.1837 123.628ZM204.098 77.9576L218.044 150.363H209.65C209.65 150.363 201.487 106.973 201.124 105.42C200.529 106.841 179.511 153.602 179.511 153.602C179.511 153.602 158.493 106.841 157.898 105.42C157.667 106.973 149.372 150.363 149.372 150.363H140.978L154.792 79.0482L154.924 77.9576C154.924 77.9576 178.916 133.113 179.511 134.534C180.106 133.113 204.098 77.9576 204.098 77.9576ZM277.33 116.556C277.33 126.636 273.496 135.393 266.292 141.87C258.229 148.942 250.066 150.363 239.524 150.363H226.669V82.5181H239.623C249.835 82.5181 258.13 83.9391 266.16 90.7799C273.496 97.0257 277.33 106.014 277.33 116.556ZM269.167 116.424C269.167 108.658 266.028 101.322 260.641 96.53C254.527 91.2756 247.918 90.185 239.987 90.185H234.831V142.697H239.987C248.149 142.697 254.891 141.606 260.872 135.856C266.292 130.932 269.167 123.992 269.167 116.424ZM321.613 82.5181V90.185H294.25V109.484H320.753V117.052H294.25V142.697H321.613V150.363H286.087V82.5181H321.613ZM394.679 82.5181V153.833C394.679 153.833 343.457 100.363 342.234 99.1738V150.363H334.104V79.1473C334.104 79.1473 385.327 132.849 386.55 134.071V82.5181H394.679ZM403.172 148.083V148.315C403.172 149.306 403.899 149.636 404.494 149.636C405.221 149.636 405.816 149.306 405.816 148.447C405.816 146.761 402.478 146.894 402.478 144.613C402.478 143.291 403.437 142.564 404.759 142.564C406.081 142.564 406.907 143.291 406.775 144.845H405.816C405.816 144.018 405.585 143.424 404.627 143.424C404.032 143.424 403.437 143.787 403.437 144.481C403.437 146.166 406.907 145.935 406.907 148.447C406.907 150 405.717 150.496 404.494 150.496C402.214 150.496 402.214 148.81 402.214 148.083H403.172ZM408.592 150.363H407.733V142.697H409.319L411.236 149.174L413.153 142.697H414.838V150.363H413.88V143.523H413.747L411.699 150.363H410.74L408.691 143.523H408.592V150.363Z" fill="#1B204F"/>
</g>
</g>
<defs>
<clipPath id="clip0_6_15215">
<rect width="500" height="153.999" fill="white"/>
</clipPath>
</defs>
</svg>
