<svg width="500" height="119" viewBox="0 0 500 119" fill="none" xmlns="http://www.w3.org/2000/svg">
<g clip-path="url(#clip0_6_15217)">
<path fill-rule="evenodd" clip-rule="evenodd" d="M247.305 84.5261C247.305 101.371 234.48 118.471 199.756 118.471H135.607V0.290527H200C234.433 0.290527 246.027 13.8477 246.027 29.7166C246.027 40.0326 243.274 52.6023 227.405 57.6093C227.405 57.6093 247.247 64.1497 247.305 84.5261ZM166.554 45.574L209.584 45.5856C214.591 45.0396 218.367 40.567 218.367 35.7575C218.367 30.9481 214.591 26.9169 209.828 26.1734H166.067L166.554 45.574ZM217.53 81.041C217.53 75.9875 213.557 71.7125 208.248 71.2129H166.008V91.0666H207.272C213.058 91.0666 217.577 86.5475 217.53 81.041ZM391.357 0.534486H500V26.1734H421.561V45.2836H492.24V71.1665H421.561V91.7984H500V118.959H391.357V0.534486ZM372.735 31.7729C372.735 52.6023 354.368 57.8997 354.368 57.8997C354.368 57.8997 372.247 63.2087 372.247 80.7854V119.006H342.577V88.0577C342.577 78.7757 335.316 71.4569 325.732 71.2129H292.53V119.006H262.372V0.534486H327.997C349.605 0.534486 372.491 5.78542 372.735 31.7729ZM344.598 34.7236C343.808 29.949 339.777 26.4174 334.77 26.4174H292.286V45.2836H334.77C340.079 45.2836 344.099 41.0085 344.598 37.2213V34.7236ZM116.938 90.2766V118.715H78.7292L68.6572 118.471C50.0466 117.484 41.0085 114.44 34.9676 111.942C17.3793 103.927 5.05354 89.1033 1.27798 71.2245C0.534486 67.4374 0.290527 63.4062 0.290527 59.3867C0.290527 46.5614 4.56562 34.4797 12.3723 24.1637C18.6572 16.113 27.2538 9.58421 36.5359 5.30911C46.5614 1.52194 56.3779 0.790063 62.4188 0.546104H116.74V27.4048H115.765C115.277 27.4048 68.2157 26.9169 59.6771 27.9044C41.6009 30.1581 30.0071 42.2399 30.0071 58.5968C30.0071 71.666 38.0577 87.7673 60.6994 89.7887C74.7561 91.0085 115.521 90.2766 116.008 90.2766H116.938Z" fill="#006A4D"/>
</g>
<defs>
<clipPath id="clip0_6_15217">
<rect width="500" height="118.959" fill="white"/>
</clipPath>
</defs>
</svg>
