<svg width="500" height="136" viewBox="0 0 500 136" fill="none" xmlns="http://www.w3.org/2000/svg">
<path d="M219.379 103.592C220.149 102.863 221.056 102.293 222.047 101.914C223.038 101.536 224.094 101.357 225.154 101.388C226.215 101.419 227.258 101.659 228.226 102.094C229.193 102.529 230.065 103.151 230.792 103.924C232.261 105.488 233.05 107.571 232.988 109.715C232.926 111.86 232.017 113.893 230.46 115.37C218.142 127.083 201.787 133.603 184.789 133.578C167.953 133.596 151.742 127.2 139.455 115.69C137.888 114.223 136.965 112.196 136.888 110.051C136.812 107.906 137.588 105.818 139.048 104.244C139.768 103.466 140.635 102.837 141.599 102.395C142.563 101.953 143.605 101.706 144.665 101.668C145.725 101.63 146.782 101.802 147.776 102.174C148.769 102.546 149.679 103.111 150.453 103.837C159.76 112.552 172.038 117.396 184.789 117.382C197.663 117.397 210.048 112.461 219.379 103.592ZM183.981 16.1991C156.884 16.1991 134.761 37.4597 133.623 64.5948L133.593 65.0569L132.692 74.1446C130.908 90.3899 123.224 105.416 111.097 116.372C98.8934 127.426 83.0132 133.543 66.5475 133.533C57.5665 133.533 48.8461 131.773 40.6399 128.289C32.7329 124.932 25.5521 120.073 19.4954 113.981C13.414 107.895 8.57101 100.687 5.23471 92.7559C1.76414 84.5321 -0.0160556 75.6939 0.000109104 66.7678C0.000109104 57.7559 1.76077 49.0142 5.23471 40.7773C8.57101 32.8466 13.414 25.6385 19.4954 19.5521C25.6619 13.3507 32.9944 8.43055 41.0705 5.07493C49.1466 1.7193 57.8067 -0.00544328 66.5522 1.29049e-05C84.0783 1.29049e-05 100.63 6.78201 113.14 19.0995C114.67 20.6044 115.541 22.6542 115.564 24.8002C115.586 26.9462 114.757 29.0135 113.258 30.5498C112.517 31.3101 111.633 31.9164 110.657 32.3336C109.681 32.7509 108.632 32.9709 107.57 32.9811C106.509 32.9912 105.455 32.7912 104.471 32.3927C103.487 31.9941 102.592 31.4048 101.837 30.6588C92.4454 21.3693 79.7616 16.1706 66.5522 16.1967C38.7584 16.1967 16.1494 38.8815 16.1494 66.7654C16.1494 94.6517 38.7584 117.337 66.5522 117.337C92.2821 117.337 113.813 98.0285 116.64 72.4076L117.507 63.6801C118.254 46.6029 125.546 30.4684 137.87 18.6232C150.332 6.61613 166.706 1.29049e-05 183.984 1.29049e-05C201.519 1.29049e-05 218.062 6.78201 230.581 19.0995C233.758 22.2299 234.021 27.4692 230.898 30.6635C228.358 33.2654 224.363 33.7062 221.249 32.0924C220.522 31.7181 219.856 31.2346 219.275 30.6588C209.881 21.3689 197.195 16.1703 183.984 16.1967L183.981 16.1991Z" fill="#5A6771"/>
<path d="M286.178 48.0713C286.173 48.0665 286.168 48.0628 286.161 48.0602C286.155 48.0577 286.149 48.0563 286.142 48.0563C286.136 48.0563 286.129 48.0577 286.123 48.0602C286.117 48.0628 286.111 48.0665 286.107 48.0713C282.436 51.5191 279.09 53.6518 273.727 53.6518C265.626 53.6518 259.519 47.0452 259.519 38.2798V38.1566C259.519 29.5736 265.761 22.8485 273.727 22.8485C278.088 22.8485 281.806 24.512 285.796 28.2443C285.808 28.2561 285.82 28.2632 285.834 28.2632L285.872 28.2443L290.749 22.5807C290.754 22.5761 290.757 22.5706 290.76 22.5645C290.762 22.5584 290.764 22.5518 290.764 22.5452C290.764 22.5386 290.762 22.532 290.76 22.5259C290.757 22.5198 290.754 22.5143 290.749 22.5097C287.256 19.1518 282.512 15.7158 273.791 15.7158C267.538 15.7158 261.825 18.0736 257.701 22.3509C253.666 26.5286 251.448 32.185 251.448 38.2798V38.4078C251.448 44.5026 253.68 50.1589 257.735 54.3248C261.82 58.531 267.41 60.8485 273.486 60.8485C277.348 60.8485 280.666 60.1684 283.616 58.7632C286.192 57.5357 288.557 55.7443 291.057 53.1187C291.062 53.114 291.065 53.1085 291.068 53.1024C291.07 53.0963 291.072 53.0897 291.072 53.0831C291.072 53.0765 291.07 53.0699 291.068 53.0638C291.065 53.0577 291.062 53.0522 291.057 53.0476L286.178 48.0713ZM363.607 15.7158C357.277 15.7158 351.469 18.0855 347.263 22.3935C343.156 26.5926 340.893 32.2371 340.893 38.2845V38.4078C340.893 44.4552 343.13 50.0736 347.197 54.2348C351.367 58.4978 357.156 60.8462 363.481 60.8462C369.818 60.8462 375.618 58.4765 379.832 54.1708C383.936 49.9717 386.199 44.3272 386.199 38.2845V38.1566C386.199 32.1139 383.955 26.4907 379.889 22.3272C375.718 18.0642 369.934 15.7158 363.607 15.7158ZM348.964 38.1566C348.964 29.4315 355.206 22.8485 363.481 22.8485C371.697 22.8485 378.13 29.6305 378.13 38.2845V38.4078C378.13 47.0997 371.882 53.6566 363.607 53.6566C355.256 53.6566 348.964 47.0428 348.964 38.2845V38.1566ZM497.592 16.4623C497.626 16.4623 497.645 16.486 497.645 16.5144V60.0523C497.645 60.0661 497.639 60.0794 497.629 60.0892C497.619 60.099 497.606 60.1044 497.592 60.1044H491.232C491.218 60.1044 491.199 60.0973 491.192 60.0855L467.453 29.2324V60.0523C467.453 60.0784 467.429 60.1044 467.396 60.1044H459.931C459.898 60.1044 459.874 60.0807 459.874 60.0523V16.5168C459.874 16.4907 459.898 16.4646 459.931 16.4646H466.969C466.981 16.4646 467 16.4717 467.007 16.4836L490.071 46.4623V16.5168C490.071 16.4907 490.09 16.4646 490.121 16.4646L497.592 16.4623ZM324.526 43.5997C331.116 41.6613 334.744 36.9646 334.744 30.3841V30.2561C334.744 26.5262 333.502 23.2656 331.142 20.8319C328.242 17.9741 323.919 16.4646 318.635 16.4646H299.37C299.339 16.4646 299.32 16.4836 299.32 16.5168V60.0476C299.32 60.0807 299.339 60.1021 299.37 60.1021H306.962C306.995 60.1021 307.021 60.0807 307.021 60.0499V44.9291H316.448L327.05 60.0807C327.062 60.095 327.073 60.1021 327.095 60.1021H336.116C336.14 60.1021 336.166 60.0807 336.166 60.0499C336.166 60.0357 336.159 60.0168 336.147 60.012L324.526 43.5997ZM307.021 23.5334H318.017C323.678 23.5334 326.917 26.14 326.917 30.6921V30.8225C326.917 35.2063 323.448 38.0452 318.081 38.0452H307.021V23.5334ZM452.917 16.4623C452.936 16.4623 452.95 16.4694 452.962 16.4812C452.969 16.5002 452.974 16.5144 452.969 16.5334L437.962 60.3817C437.955 60.4007 437.938 60.4125 437.91 60.4125H431.306C431.282 60.4125 431.263 60.4007 431.256 60.3817L420.687 29.2395L410.118 60.3817C410.111 60.4007 410.085 60.4125 410.066 60.4125H403.519C403.5 60.4125 403.481 60.4007 403.467 60.3817L388.405 16.5334C388.398 16.5144 388.398 16.5002 388.41 16.4812C388.416 16.4749 388.423 16.4699 388.43 16.4667C388.438 16.4634 388.447 16.4619 388.455 16.4623H396.666C396.685 16.4623 396.711 16.4741 396.718 16.5002L406.979 48.6234L417.55 16.3722C417.557 16.3533 417.573 16.339 417.602 16.339H424.021C424.04 16.339 424.064 16.3533 424.071 16.3722L434.64 48.6234L444.905 16.5002C444.91 16.4765 444.929 16.4623 444.948 16.4623H452.917ZM320.927 75.3627C320.919 75.3438 320.903 75.3296 320.874 75.3296H313.765C313.756 75.3301 313.746 75.3335 313.739 75.3395C313.731 75.3454 313.726 75.3535 313.723 75.3627L294.509 119.652C294.503 119.669 294.503 119.687 294.509 119.704C294.521 119.725 294.533 119.73 294.554 119.73H302.415C302.434 119.73 302.457 119.718 302.464 119.699L306.941 109.112H327.519L331.936 119.699C331.939 119.708 331.946 119.716 331.954 119.722C331.962 119.727 331.971 119.73 331.981 119.73H340.095C340.121 119.73 340.147 119.706 340.147 119.68C340.147 119.666 340.14 119.654 340.133 119.64L320.927 75.3627ZM324.668 102.157H309.789L317.197 84.7561L324.668 102.157ZM374.213 98.685C376.6 100.751 377.758 103.486 377.758 107.05V107.173C377.758 115.185 371.614 120.36 362.109 120.36C355.301 120.36 348.988 117.92 343.863 113.311C343.839 113.292 343.839 113.258 343.858 113.235L348.472 107.706C348.479 107.692 348.493 107.687 348.512 107.687C348.524 107.687 348.536 107.692 348.55 107.699C353.069 111.647 357.315 113.408 362.294 113.408C366.891 113.408 369.981 111.204 369.981 107.929V107.801C369.981 104.83 368.509 103.069 360.163 101.131C354.815 99.8343 351.597 98.5168 349.391 96.7466C346.796 94.6637 345.592 91.8651 345.592 87.948V87.8272C345.592 84.1732 347.09 80.8912 349.81 78.5807C352.514 76.2822 356.327 75.0168 360.552 75.0168C366.621 75.0168 371.818 76.8272 376.427 80.5571C376.445 80.5784 376.45 80.6092 376.438 80.6281L372.32 86.4717C372.317 86.4774 372.312 86.4821 372.307 86.4854C372.302 86.4888 372.295 86.4906 372.289 86.4907C372.27 86.4978 372.258 86.4907 372.244 86.4836C368.204 83.448 364.339 81.9717 360.427 81.9717C358.296 81.9717 356.493 82.4978 355.218 83.486C354.026 84.4101 353.37 85.7087 353.37 87.1329V87.2561C353.37 90.6969 355.6 92.1732 363.739 94.1187C368.687 95.3319 372.014 96.7845 374.213 98.685ZM418.123 75.6447C418.156 75.6447 418.175 75.6708 418.175 75.6969V82.8627C418.175 82.8864 418.156 82.9149 418.123 82.9149H404.329V119.68C404.329 119.704 404.306 119.732 404.277 119.732H396.545C396.514 119.732 396.488 119.706 396.488 119.68V82.9149H382.692C382.668 82.9149 382.642 82.8888 382.642 82.8627V75.6969C382.642 75.6732 382.666 75.6447 382.692 75.6447H418.123ZM497.531 112.713C497.562 112.713 497.578 112.737 497.578 112.763V119.68C497.578 119.704 497.562 119.73 497.531 119.73H464.846C464.839 119.73 464.833 119.729 464.826 119.727C464.82 119.725 464.814 119.721 464.809 119.716C464.804 119.712 464.8 119.706 464.798 119.7C464.795 119.694 464.794 119.687 464.794 119.68V75.6969C464.794 75.6708 464.813 75.6447 464.846 75.6447H497.216C497.249 75.6447 497.268 75.6684 497.268 75.6969V82.6116C497.268 82.6353 497.249 82.6637 497.218 82.6637H472.566V93.9907H494.412C494.436 93.9907 494.462 94.0144 494.462 94.0405V100.955C494.462 100.981 494.438 101.007 494.412 101.007H472.564V112.713H497.531ZM456.86 112.588C456.893 112.588 456.912 112.612 456.912 112.64V119.678C456.912 119.709 456.893 119.728 456.86 119.728H426.23C426.223 119.728 426.216 119.727 426.209 119.724C426.203 119.722 426.197 119.718 426.192 119.713C426.187 119.708 426.184 119.702 426.181 119.696C426.178 119.689 426.177 119.682 426.178 119.676V75.6992C426.178 75.6684 426.204 75.6424 426.23 75.6424H433.905C433.936 75.6424 433.957 75.6661 433.957 75.6992V112.588H456.86ZM286.524 107.576C286.519 107.571 286.514 107.568 286.507 107.565C286.501 107.562 286.495 107.561 286.488 107.561C286.482 107.561 286.475 107.562 286.469 107.565C286.463 107.568 286.457 107.571 286.453 107.576C282.744 111.057 279.367 113.216 273.948 113.216C265.768 113.216 259.59 106.543 259.59 97.6874V97.5594C259.59 88.8912 265.903 82.0973 273.948 82.0973C278.353 82.0973 282.107 83.7798 286.142 87.5476C286.149 87.5571 286.161 87.5618 286.18 87.5618C286.192 87.5618 286.204 87.5571 286.218 87.5428L291.147 81.8296C291.159 81.8035 291.159 81.7703 291.14 81.7514C287.614 78.3627 282.822 74.8935 274.009 74.8935C267.699 74.8935 261.924 77.2703 257.754 81.5902C253.687 85.8153 251.443 91.531 251.443 97.6874V97.8106C251.443 103.974 253.694 109.683 257.787 113.894C261.917 118.145 267.566 120.481 273.699 120.481C277.607 120.481 280.953 119.794 283.936 118.377C286.538 117.138 288.929 115.327 291.453 112.676C291.457 112.671 291.461 112.665 291.464 112.659C291.466 112.653 291.468 112.647 291.468 112.64C291.468 112.633 291.466 112.627 291.464 112.621C291.461 112.615 291.457 112.609 291.453 112.604L286.524 107.576Z" fill="#481776"/>
</svg>
