<svg width="488" height="173" viewBox="0 0 488 173" fill="none" xmlns="http://www.w3.org/2000/svg">
<path d="M479.028 137.195V138.038H476.617V143.679H475.701V138.038H473.291V137.195H479.028ZM481.221 137.195L483.801 142.546L486.404 137.195H487.682V143.679H486.814V138.231L484.162 143.679H483.415L480.812 138.231V143.679H479.968V137.195H481.221Z" fill="black"/>
<path d="M446.101 91.747L457.748 113.04L469.99 91.747H482.379L463.313 124.391V143.68H452.184V124.391L433.117 91.747H446.101ZM431.754 91.747V101.317H416.768V143.68H405.639V101.317H390.653V91.747H431.754ZM377.523 91.747H366.394V143.68H399.638V134.11H377.523V91.747ZM330.707 91.747H344.062L362.906 143.68H350.962L346.955 132.329H327.221L323.214 143.68H311.715L330.707 91.747ZM343.913 123.352L337.014 103.618L330.188 123.352H343.913ZM307.911 91.747V101.317H284.17V112.966H303.46V122.091H284.17V134.11H308.727V143.68H273.042V91.747H307.911ZM257.351 93.8615C260.244 95.2713 262.482 97.2865 264.065 99.908C265.648 102.529 266.439 105.571 266.439 109.034C266.439 112.347 265.648 115.278 264.065 117.825C262.482 120.372 260.306 122.314 257.536 123.649L267.774 143.68H255.459L246.778 126.246H237.356V143.68H226.228V91.747H247.372C251.131 91.747 254.457 92.4521 257.351 93.8615ZM246.482 116.972C249.103 116.972 251.193 116.255 252.751 114.82C254.309 113.386 255.088 111.457 255.088 109.034C255.088 106.56 254.309 104.607 252.751 103.172C251.193 101.738 249.103 101.021 246.482 101.021H237.356V116.972H246.482ZM465.566 71.0474V28.6849H454.438V80.618H487.682V71.0475L465.566 71.0474ZM418.751 28.6849H432.105L450.95 80.618H439.005L434.999 69.2669H415.264L411.258 80.618H399.758L418.751 28.6849ZM431.957 60.2898L425.057 40.5553L418.232 60.2898H431.957ZM406.287 28.6849V38.2554H391.301V80.618H380.173V38.2554H365.186V28.6849H406.287ZM360.66 28.6849V80.618H349.532V28.6849H360.66ZM305.277 31.5041C309.16 29.3279 313.723 28.2397 318.965 28.2397C323.071 28.2397 326.755 29.031 330.019 30.6138C333.284 32.1964 335.918 34.4222 337.921 37.2909C339.924 40.1595 341.148 43.4487 341.593 47.1583H330.613C329.92 44.24 328.536 41.9278 326.458 40.2214C324.381 38.515 321.785 37.6619 318.668 37.6619C315.8 37.6619 313.302 38.3791 311.175 39.8134C309.049 41.2477 307.416 43.2509 306.279 45.8228C305.141 48.3947 304.572 51.3377 304.572 54.6514C304.572 59.7459 305.821 63.851 308.319 66.9669C310.817 70.083 314.267 71.641 318.668 71.641C321.883 71.641 324.727 70.7631 327.2 69.0073C329.674 67.2513 331.157 64.667 331.652 61.2543V60.5867H318.743V51.758H341.964V80.618H334.249L333.061 74.1634C331.528 76.1914 329.476 77.8483 326.904 79.1343C324.332 80.4202 321.339 81.0632 317.927 81.0632C313.03 81.0632 308.715 79.9751 304.98 77.7988C301.246 75.6226 298.353 72.5313 296.3 68.5252C294.248 64.5188 293.221 59.8943 293.221 54.6515C293.221 49.3593 294.26 44.7224 296.337 40.7408C298.415 36.7593 301.395 33.6802 305.277 31.5041ZM287.434 28.6849V80.618H276.306V28.6849H287.434ZM244.256 28.6849C249.449 28.6849 254.037 29.7853 258.018 31.9864C262 34.1874 265.066 37.2539 267.218 41.186C269.37 45.118 270.445 49.6066 270.445 54.6514C270.445 59.6964 269.37 64.1848 267.218 68.117C265.066 72.0491 262 75.1156 258.018 77.3166C254.037 79.5175 249.449 80.618 244.256 80.618H226.228V28.6849H244.256ZM255.199 66.7815C257.796 63.7396 259.094 59.6964 259.094 54.6514C259.094 49.6066 257.796 45.5631 255.199 42.5213C252.602 39.4795 248.955 37.9586 244.256 37.9586H237.356V71.3441H244.256C248.955 71.3441 252.602 69.8233 255.199 66.7815Z" fill="black"/>
<path d="M114.909 172.364V150.818C134.71 150.818 150.818 134.71 150.818 114.909H172.364C172.364 146.59 146.59 172.364 114.909 172.364ZM114.909 0V21.5455C134.71 21.5455 150.818 37.6541 150.818 57.4546H172.364C172.364 25.7742 146.59 0 114.909 0ZM57.4546 150.818H21.5455V114.909H0V172.364H57.4546V150.818ZM21.5455 21.5455H57.4546V0H0V57.4546H21.5455V21.5455Z" fill="black"/>
</svg>
