<svg width="500" height="65" viewBox="0 0 500 65" fill="none" xmlns="http://www.w3.org/2000/svg">
<path d="M46.1587 21.991H69.8783V37.9321H46.1587V21.991ZM46.1587 0C46.1587 0 66.7733 0 68.1177 0C69.9743 0 69.8783 1.02433 69.8783 2.68886C69.8783 4.35339 69.8783 15.9731 69.8783 15.9731H46.1587V0ZM58.0345 59.9232C51.1523 59.9232 45.5825 56.242 45.5825 51.6645C45.5825 47.0871 51.1523 43.4059 58.0345 43.4059C64.9167 43.4059 70.4865 47.0871 70.4865 51.6645C70.4865 56.242 64.9167 59.9232 58.0345 59.9232Z" fill="#9C9C9C"/>
<path d="M0.0320102 21.9913H41.9014V37.9003H0.0320102V21.9913ZM0.0320102 1.34465C0.0320102 0.640421 0.512164 0.0322266 1.44046 0.0322266C1.79257 0.0322266 41.9014 0.0322266 41.9014 0.0322266V15.9733H0.0320102C0.0320102 15.9733 0.0320102 1.76078 0.0320102 1.34465ZM41.8694 59.6993C41.8694 59.6993 3.26504 59.6993 1.92061 59.6993C0.0640204 59.6993 0 59.2192 0 57.5546C0 55.8581 0 43.7582 0 43.7582H41.8694V59.6993Z" fill="#9C9C9C"/>
<path fill-rule="evenodd" clip-rule="evenodd" d="M95.3584 50.7044V8.25884H121.703V12.3241H99.9039V27.2729H118.502V31.3382H99.9039V46.6711H121.703V50.7044H95.3584ZM144.718 63.8286V47.2473C142.317 50.2883 139.629 51.0565 136.396 51.0565C133.419 51.0565 130.794 50.0642 129.257 48.4957C126.28 45.5188 125.672 40.6532 125.672 36.0437C125.672 31.4663 126.28 26.5687 129.257 23.5918C130.794 22.0232 133.419 21.0309 136.396 21.0309C139.629 21.0309 142.381 21.7352 144.75 24.8402V21.383H149.008V63.8286H144.718ZM144.718 36.0437C144.718 29.8337 141.421 24.8402 137.356 24.8402C133.259 24.8402 129.961 29.8337 129.961 36.0437C129.961 42.2537 133.259 47.2473 137.356 47.2473C141.421 47.2473 144.718 42.2537 144.718 36.0437ZM174.392 50.7044V47.4394C172.279 49.8081 169.366 51.0565 166.069 51.0565C162.932 51.0565 160.307 50.1282 158.515 48.3357C156.434 46.287 155.538 43.5021 155.538 40.109V21.383H159.827V39.4368C159.827 44.6225 162.58 47.2473 166.965 47.2473C171.383 47.2473 174.328 44.5585 174.328 39.4368V21.383H178.617V50.7044H174.392ZM190.301 50.7044H185.979V21.383H190.301V50.7044ZM190.589 13.0284H185.755V8.19482H190.589V13.0284ZM206.338 50.7044C201.344 50.7044 198.848 47.1833 198.848 42.8299V24.8402H195.134V21.5431H198.848V12.3882H203.137V21.5431H208.162L209.411 24.8402H203.137V42.7339C203.137 45.3907 204.385 47.0232 207.138 47.0232H209.411V50.7044H206.338ZM223.303 57.9708C222.727 59.5713 222.055 60.6596 221.223 61.4279C219.686 62.9323 217.574 63.4445 215.493 63.4445H213.636V59.6353H214.981C217.958 59.6353 218.854 58.675 219.814 55.9861L221.895 50.2883L211.332 21.5431H215.973L224.04 45.1026L232.01 21.5431H236.684L223.303 57.9708ZM270.935 50.7044L261.268 31.8824H251.056V50.7044H246.511V8.25884H262.804C270.198 8.25884 275.384 12.7403 275.384 20.0706C275.384 26.2806 271.639 30.3139 266.133 31.4663L276.216 50.7044H270.935ZM262.42 12.3241H251.088V27.8811H262.42C267.349 27.8811 270.871 25.3203 270.871 20.1346C270.871 14.949 267.349 12.3241 262.42 12.3241ZM282.426 37.1641C282.426 43.6302 285.499 47.3113 291.101 47.3113C294.494 47.3113 296.447 46.287 298.783 43.9823L301.696 46.5431C298.719 49.52 295.999 51.0565 290.973 51.0565C283.227 51.0565 278.137 46.4151 278.137 36.0437C278.137 26.5687 282.746 21.0309 290.205 21.0309C297.759 21.0309 302.241 26.5047 302.241 35.2115V37.1641H282.426ZM297.055 29.0655C295.903 26.3766 293.31 24.6481 290.205 24.6481C287.1 24.6481 284.475 26.3766 283.323 29.0655C282.682 30.666 282.554 31.5623 282.426 33.9631H297.951C297.823 31.5623 297.695 30.666 297.055 29.0655ZM317.253 51.0565C312.292 51.0565 308.419 49.9362 305.186 46.8312L308.066 43.9823C310.371 46.4151 313.54 47.3754 317.189 47.3754C322.023 47.3754 325 45.6468 325 42.1897C325 39.6289 323.495 38.1884 320.102 37.9003L315.269 37.4842C309.539 37.004 306.498 34.4432 306.498 29.6097C306.498 24.232 311.043 21.0309 317.317 21.0309C321.479 21.0309 325.224 22.0232 327.849 24.1679L325.064 26.9848C322.983 25.3843 320.294 24.6481 317.253 24.6481C312.964 24.6481 310.691 26.5047 310.691 29.4816C310.691 31.9784 312.132 33.4829 315.813 33.771L320.518 34.1871C325.64 34.6673 329.161 36.6519 329.161 42.1257C329.161 47.7915 324.36 51.0565 317.253 51.0565ZM338.7 50.7044H334.379V21.383H338.7V50.7044ZM338.988 13.0284H334.155V8.19482H338.988V13.0284ZM363.412 50.7044V47.1833C361.011 50.2883 358.29 51.0565 355.057 51.0565C352.081 51.0565 349.456 50.0642 347.887 48.4957C344.91 45.5188 344.334 40.6212 344.334 36.0437C344.334 31.4343 344.91 26.5687 347.887 23.5918C349.456 22.0232 352.081 21.0309 355.057 21.0309C358.29 21.0309 360.979 21.7352 363.348 24.7761V8.25884H367.638V50.7044H363.412ZM363.348 36.0437C363.348 29.8337 360.051 24.8402 355.986 24.8402C351.92 24.8402 348.623 29.8337 348.623 36.0437C348.623 42.2537 351.92 47.2473 355.986 47.2473C360.051 47.2473 363.348 42.2537 363.348 36.0437ZM377.849 37.1641C377.849 43.5982 380.89 47.3113 386.492 47.3113C389.885 47.3113 391.837 46.287 394.174 43.9823L397.119 46.5431C394.11 49.52 391.389 51.0565 386.363 51.0565C378.617 51.0565 373.559 46.4151 373.559 36.0437C373.559 26.5687 378.137 21.0309 385.595 21.0309C393.182 21.0309 397.631 26.5047 397.631 35.2115V37.1641H377.849ZM392.477 29.0655C391.325 26.3766 388.732 24.6481 385.595 24.6481C382.522 24.6481 379.897 26.3766 378.745 29.0655C378.105 30.666 377.977 31.5623 377.849 33.9631H393.374C393.246 31.5623 393.118 30.666 392.477 29.0655ZM422.151 50.7044V32.6507C422.151 27.465 419.366 24.8402 414.949 24.8402C410.531 24.8402 407.65 27.529 407.65 32.6507V50.7044H403.361V21.383H407.65V24.5841C409.763 22.2153 412.612 21.0309 415.909 21.0309C419.046 21.0309 421.607 21.9592 423.399 23.7518C425.512 25.8005 426.44 28.5213 426.44 31.9144V50.7044H422.151ZM441.709 50.7044C436.684 50.7044 434.187 47.1833 434.187 42.8299V24.8402H430.474V21.5431H434.187V12.3882H438.476V21.5431H444.75V24.8402H438.476V42.7339C438.476 45.3907 439.725 47.0232 442.477 47.0232H444.75V50.7044H441.709ZM454.161 50.7044H449.84V21.383H454.161V50.7044ZM454.449 13.0284H449.616V8.19482H454.449V13.0284ZM477.977 50.7044V47.8875C475.576 50.2883 473.431 51.0565 469.494 51.0565C465.429 51.0565 463.06 50.2883 461.203 48.3677C459.763 46.9592 458.995 44.7505 458.995 42.4138C458.995 37.2921 462.58 33.9631 469.142 33.9631H477.977V31.1462C477.977 26.8568 475.832 24.7121 470.454 24.7121C466.709 24.7121 464.789 25.6084 463.06 28.0412L460.147 25.3523C462.772 21.9592 465.749 21.0309 470.518 21.0309C478.393 21.0309 482.266 24.424 482.266 30.7941V50.7044H477.977ZM477.977 37.1641H469.75C465.333 37.1641 463.188 38.9567 463.188 42.3498C463.188 45.7428 465.269 47.3754 469.91 47.3754C472.439 47.3754 474.648 47.1833 476.472 45.3907C477.497 44.4304 477.977 42.7659 477.977 40.3331V37.1641ZM496.639 50.7044C491.485 50.7044 489.18 47.3433 489.18 42.8939V8.25884H493.47V42.7019C493.47 45.5508 494.43 46.9912 497.407 46.9912H499.712V50.7044H496.639Z" fill="#9C9C9C"/>
</svg>
