<svg width="500" height="242" viewBox="0 0 500 242" fill="none" xmlns="http://www.w3.org/2000/svg">
<g clip-path="url(#clip0_6_15197)">
<path d="M343.921 32.7643V93.4314L330.055 98.1992V27.992L288.456 13.4086V112.794L274.727 117.562V8.63633L253.928 1.26953L233.128 8.63633V117.562L219.262 112.794V13.4086L177.801 27.992V98.1992L163.934 93.4314V32.7643L150.068 37.5321V103.254L191.53 117.701V37.8167L205.396 32.9066V122.615L246.995 137.062V18.4371L253.932 15.9804L260.865 18.4371V137.062L302.327 122.615V32.9066L316.193 37.8167V117.701L357.791 103.254V37.5321L343.921 32.7643Z" fill="#EC1E27"/>
<path d="M7.51146 214.709H32.0675V208.063H7.51146V193.617H44.2032V186.827H-0.00219727V237.818H45.501V231.317H7.51146V214.709Z" fill="black"/>
<path d="M201.958 217.555C201.958 226.655 195.893 232.718 186.931 232.718C178.262 232.718 172.769 226.506 172.769 217.555V186.931H165.402V217.839C165.402 231.705 175.513 239.367 186.93 239.367C203.687 239.367 209.175 227.812 209.175 217.839V186.931H201.954L201.958 217.555Z" fill="black"/>
<path d="M250.342 237.819H257.565V186.828H250.342V237.819Z" fill="black"/>
<path d="M344.945 226.776L308.834 186.76H301.609V237.751H308.834V197.587L345.093 237.751H352.314V186.76H344.948L344.945 226.776Z" fill="black"/>
<path d="M396.744 237.819H404.112V186.828H396.744V237.819Z" fill="black"/>
<path d="M475.182 210.155L496.414 186.749H487.458L470.552 205.1L454.227 186.749H444.549L465.064 210.155L439.495 237.75H448.886L469.833 215.073L489.915 237.75H500.026L475.182 210.155Z" fill="black"/>
<path d="M120.788 212.318C120.788 219.541 118.331 224.169 114.143 228.21C110.242 223.587 110.242 223.587 110.242 223.587H101.72C108.653 231.532 108.653 231.532 108.653 231.532C106.923 232.399 103.884 232.977 101.432 233.121C90.5988 233.121 81.9308 224.31 81.9308 212.322V212.178C81.9308 199.894 90.0193 191.379 101 191.231C111.98 191.231 120.786 199.9 120.786 212.03L120.788 212.318ZM101.138 184.722C85.9631 184.868 74.26 196.277 74.26 212.454V212.599C74.26 228.491 86.2591 239.762 101.275 239.614C105.175 239.614 109.797 238.602 113.263 236.869L117.31 241.636H125.832L118.611 233.257C124.536 228.778 128.289 221.269 128.289 212.025V211.88C128.289 195.988 116.301 184.58 101.137 184.717" fill="black"/>
<path d="M382.4 88.9344V85.3267H385.003C386.447 85.3267 387.314 86.0483 387.314 87.204C387.314 88.2132 386.447 88.9344 385.003 88.9344H382.4ZM379.226 95.5795H382.4V91.538H384.282C387.167 95.5795 387.167 95.5795 387.167 95.5795H390.927C387.601 90.9574 387.601 90.9574 387.601 90.9574C389.337 90.3821 390.493 89.0802 390.493 86.916C390.493 84.0244 388.323 82.582 385.29 82.582H379.225L379.226 95.5795ZM384.282 100.635C378.07 100.635 373.301 95.5795 373.301 89.5139V89.3676C373.301 83.3021 378.069 78.2463 384.282 78.2463C390.634 78.2463 395.403 83.1563 395.403 89.3676C395.403 95.4378 390.634 100.635 384.282 100.635ZM384.282 101.936C391.356 101.936 396.85 96.1584 396.85 89.3676C396.85 82.4346 391.36 76.7993 384.282 76.7993C377.344 76.7993 371.85 82.5769 371.85 89.3676V89.5139C371.85 96.3058 377.339 101.934 384.282 101.934" fill="#EC1E27"/>
</g>
<defs>
<clipPath id="clip0_6_15197">
<rect width="500" height="241.689" fill="white"/>
</clipPath>
</defs>
</svg>
