<svg width="500" height="132" viewBox="0 0 500 132" fill="none" xmlns="http://www.w3.org/2000/svg">
<g clip-path="url(#clip0_6_15213)">
<path d="M171.936 96.7831C171.658 108.153 165.835 118.691 156.129 124.792C147.532 129.784 138.103 132.28 128.12 131.725C119.523 132.002 111.204 130.338 103.161 127.288C100.666 126.179 100.388 125.347 100.388 120.91C100.388 112.59 101.22 105.657 101.22 103.161C101.498 101.22 101.775 100.388 102.607 100.388C103.439 100.388 103.993 100.943 103.993 102.329C103.993 104.548 103.993 106.489 104.548 108.43C107.321 120.91 119.523 125.624 132.002 125.624C149.75 125.624 158.347 113.977 158.347 103.161C158.347 91.5141 153.078 84.8586 136.994 72.934L128.674 66.8331C108.985 52.1353 104.548 41.8747 104.548 30.2274C105.103 12.2019 119.8 0 143.372 0C149.196 0 155.019 0.554631 160.566 1.66389C162.784 2.21852 165.003 2.49584 166.944 2.49584C168.331 2.49584 168.885 2.77316 168.885 3.6051C168.885 4.43705 168.053 9.98336 168.053 21.3533C168.053 24.1265 167.776 25.2357 166.667 25.2357C165.835 25.2357 165.28 24.4038 165.28 23.0172C165.003 20.244 164.171 17.1936 162.784 14.6977C161.675 12.7565 156.683 5.82363 139.767 5.82363C127.011 5.82363 117.027 13.0338 117.027 25.2357C117.027 34.9418 122.296 40.4881 139.767 53.5219L145.036 57.127C166.667 72.934 171.936 83.472 171.936 96.7831ZM233.777 57.4043L228.508 53.7992C211.037 40.7654 206.045 35.2191 206.045 25.513C206.045 13.3111 216.029 6.10094 228.785 6.10094C245.979 6.10094 250.971 13.0338 252.08 14.975C253.189 17.4709 254.021 20.5214 254.576 23.2945C254.853 24.6811 255.13 25.513 255.962 25.513C256.794 25.513 257.349 24.4038 257.349 21.6306C257.349 10.2607 258.181 4.71437 258.181 3.88242C258.181 3.05047 257.904 2.77316 256.24 2.77316C254.021 2.77316 251.803 2.49584 249.861 1.94121C244.315 0.831947 238.491 0.277316 232.668 0.277316C209.096 0.277316 194.398 12.4792 194.398 30.5047C194.398 42.152 198.835 52.4126 218.525 67.1104L226.844 73.2113C242.928 85.1359 248.197 91.7915 248.197 103.439C248.197 114.254 239.601 125.901 221.852 125.901C209.373 125.901 197.171 121.187 194.398 108.708C193.844 106.767 193.844 104.548 193.844 102.607C193.844 101.22 193.566 100.666 192.457 100.666C191.625 100.666 191.07 101.498 191.07 103.439C190.793 106.212 190.238 112.867 190.238 121.187C190.238 125.624 190.516 126.456 193.012 127.565C200.776 130.893 209.373 132.28 217.97 132.002C227.676 132.28 237.382 129.784 245.979 125.069C255.685 118.968 261.509 108.43 261.786 97.0605C260.677 83.472 255.685 72.934 233.777 57.4043ZM80.9762 107.044C80.1442 107.044 79.5896 107.598 79.3123 109.54C77.9257 116.473 75.7072 119.8 70.9928 121.742C66.2784 123.683 57.959 123.683 53.2446 123.683C35.2191 123.683 32.1686 121.464 31.614 109.817C31.3367 106.212 31.614 86.7998 31.614 80.9762V66.2784C31.614 65.7238 31.8913 65.1692 33.0006 65.1692C36.051 65.1692 54.6312 65.4465 59.3455 66.0011C66.5557 66.5557 68.2196 69.6062 69.0516 71.8247C69.6062 73.4886 69.8835 75.4298 69.8835 77.371C69.8835 78.203 69.8835 78.7576 71.2701 78.7576C72.6567 78.7576 72.6567 76.8164 72.6567 75.7072C72.6567 74.5979 72.934 68.2196 73.4886 64.8918C74.0433 59.3455 74.8752 56.5724 74.8752 55.4631C74.8752 54.3539 74.5979 54.0765 74.0433 54.0765C73.4886 54.0765 72.934 54.6312 71.2701 56.2951C69.3289 57.6816 66.5557 58.2363 62.1187 58.5136C57.959 58.7909 34.9418 58.7909 32.7232 58.7909C31.8913 58.7909 31.614 58.2363 31.614 57.127V10.538C31.614 9.42873 31.8913 8.8741 32.7232 8.8741C34.6644 8.8741 54.9085 9.15141 58.2363 9.42873C68.2196 10.538 70.1608 12.4792 71.5474 15.2524C72.3794 17.1936 72.6567 19.1348 72.6567 21.3533C72.6567 22.7399 73.4886 23.5718 74.0433 23.5718C74.5979 23.5718 75.1525 22.4626 75.4298 21.6306C75.7072 19.6894 76.2618 12.2019 76.2618 10.538C76.8164 5.82363 77.6484 3.32779 77.6484 2.49584C77.6484 1.66389 77.9257 1.10926 76.8164 1.10926C75.9845 1.10926 75.1525 1.66389 74.3206 1.94121C71.8247 2.49584 69.0516 2.77316 66.2784 2.77316H23.8491C23.0172 2.77316 11.3699 2.49584 3.05047 2.49584C0.831947 2.49584 0 3.05047 0 3.6051C0 4.15973 0.831947 4.71437 1.38658 4.71437C3.6051 4.71437 5.54631 4.99168 7.76484 5.269C13.8658 6.37826 15.2524 9.42873 15.807 14.6977C16.0843 20.244 16.0843 24.9584 16.0843 51.3034V80.9762C16.0843 97.0605 16.0843 110.372 15.2524 117.582C14.4204 122.573 13.5885 126.179 9.98336 126.733C8.04215 127.011 6.37826 127.288 4.43705 127.288C3.32779 127.288 3.05047 127.842 3.05047 128.397C3.05047 129.506 3.88242 129.784 6.10094 129.784C11.6473 129.784 23.2945 129.229 24.4038 129.229C29.6728 129.229 42.152 130.338 70.1608 130.338C77.371 130.338 78.7576 130.338 80.1442 125.901C81.2535 120.632 82.0854 115.086 82.64 109.54C82.0854 108.43 81.8081 107.044 80.9762 107.044ZM356.905 107.044C356.073 107.044 355.519 107.598 355.241 109.54C353.855 116.473 351.636 119.8 346.922 121.742C342.207 123.683 333.888 123.683 329.174 123.683C311.148 123.683 308.375 121.464 307.543 109.817C307.266 106.212 307.543 86.7998 307.543 80.9762V66.2784C307.543 65.7238 307.82 65.1692 308.93 65.1692C311.98 65.1692 330.56 65.4465 335.552 66.0011C342.762 66.5557 344.426 69.6062 345.258 71.8247C345.813 73.4886 346.09 75.4298 346.09 77.371C346.09 78.203 346.09 78.7576 347.476 78.7576C348.863 78.7576 348.863 76.8164 348.863 75.7072C348.863 74.5979 349.14 68.2196 349.695 64.8918C350.25 59.3455 351.082 56.5724 351.082 55.4631C351.082 54.3539 350.804 54.0765 350.25 54.0765C349.418 54.0765 348.863 54.9085 347.476 56.2951C345.813 57.959 343.039 58.2363 338.88 58.7909C334.72 59.0682 311.703 59.0682 309.484 59.0682C308.652 59.0682 308.375 58.5136 308.375 57.4043V10.538C308.375 9.42873 308.652 8.8741 309.484 8.8741C311.425 8.8741 331.669 9.15141 334.997 9.42873C344.981 10.538 346.922 12.4792 348.031 15.2524C348.863 17.1936 349.14 19.1348 349.14 21.3533C349.14 22.7399 349.972 23.5718 350.527 23.5718C351.359 23.5718 351.636 22.4626 351.913 21.6306C352.191 19.6894 352.745 12.2019 352.745 10.538C353.3 5.82363 354.132 3.32779 354.132 2.49584C354.132 1.66389 354.409 1.10926 353.3 1.10926C352.468 1.10926 351.636 1.66389 350.804 1.94121C348.308 2.49584 345.535 2.77316 342.762 2.77316H299.778C298.669 2.77316 287.299 2.21852 278.979 2.21852C277.038 2.21852 275.929 2.77316 275.929 3.6051C275.929 4.43705 276.761 4.71437 277.316 4.71437C279.534 4.71437 281.475 4.99168 283.694 5.269C289.795 6.65557 291.459 9.42873 291.736 14.975C292.013 20.244 292.013 24.9584 292.013 51.3034V80.9762C292.013 97.0605 292.013 110.372 291.181 117.582C290.349 122.573 289.517 126.179 285.912 126.733C283.971 127.011 282.307 127.288 280.366 127.288C279.257 127.288 278.979 127.842 278.979 128.397C278.979 129.506 279.811 129.784 282.03 129.784C287.576 129.784 299.224 129.229 300.055 129.229C305.324 129.229 317.804 130.338 345.813 130.338C353.023 130.338 354.409 130.338 355.796 125.901C356.905 120.632 357.737 115.086 358.292 109.54C358.014 108.43 357.737 107.044 356.905 107.044ZM498.336 127.288C496.118 127.288 493.899 126.733 491.958 126.179C487.521 125.069 483.638 122.296 481.143 118.691C477.26 114.254 445.646 65.1692 442.041 59.9002L471.991 19.1348C477.26 11.9246 480.865 6.93289 486.134 5.54631C488.075 4.99168 490.294 4.71437 492.235 4.71437C493.622 4.71437 494.176 4.15973 494.176 3.6051C494.176 3.05047 493.344 2.49584 491.126 2.49584C484.748 2.49584 477.26 3.05047 475.596 3.05047C473.932 3.05047 466.168 2.49584 459.235 2.49584C457.016 2.49584 456.184 2.77316 456.184 3.6051C456.184 4.43705 456.739 4.71437 457.848 4.71437C459.789 4.71437 461.453 4.71437 463.394 5.269C465.336 5.82363 466.445 7.21021 466.445 8.31947C466.445 10.538 465.613 12.4792 464.504 14.4204C462.562 18.0255 442.873 46.8663 437.327 54.0765C427.621 39.6561 420.133 27.1769 412.368 13.8658C411.259 12.2019 410.704 10.2607 410.427 8.31947C410.427 6.93289 411.259 5.82363 412.646 5.54631C414.31 5.269 415.973 4.99168 417.637 4.99168C418.747 4.99168 419.301 4.71437 419.301 3.88242C419.301 3.05047 418.747 2.77316 416.251 2.77316C409.872 2.77316 400.166 3.32779 398.78 3.32779C397.393 3.32779 382.418 2.77316 377.149 2.77316C374.653 2.77316 374.099 3.32779 374.099 3.88242C374.099 4.43705 374.653 4.99168 375.763 4.99168C378.258 4.99168 381.032 5.54631 383.527 6.10094C389.906 8.04215 393.788 13.0338 397.948 19.4121L427.898 64.6145L394.343 112.867C388.242 121.464 384.637 125.069 379.09 126.456C376.872 127.011 374.376 127.288 372.158 127.288C371.326 127.288 370.771 127.842 370.771 128.397C370.771 128.952 371.048 129.506 372.712 129.506C378.813 129.506 387.965 128.952 389.628 128.952C391.292 128.952 402.94 129.506 407.377 129.506C408.763 129.506 409.595 128.952 409.595 128.397C409.595 127.842 409.04 127.288 408.209 127.288C407.099 127.288 405.99 127.011 404.603 127.011C402.94 126.733 401.83 125.347 401.553 123.96C401.83 121.187 402.662 118.691 404.049 116.473L432.89 71.8247C443.982 88.741 454.798 105.38 464.781 122.019L468.386 129.229C477.815 129.506 486.689 129.506 498.059 129.506C499.723 129.506 500.555 128.952 500.555 128.12C500.555 127.288 499.445 127.288 498.336 127.288Z" fill="black"/>
</g>
<defs>
<clipPath id="clip0_6_15213">
<rect width="500" height="132.002" fill="white"/>
</clipPath>
</defs>
</svg>
