<svg width="500" height="146" viewBox="0 0 500 146" fill="none" xmlns="http://www.w3.org/2000/svg">
<g clip-path="url(#clip0_6_15636)">
<path d="M342.122 138.437H338.945C338.945 137.992 339.009 136.754 339.009 134.752C339.009 132.751 339.072 129.892 339.072 126.334C339.072 125.699 339.072 124.799 339.072 123.634C339.072 122.459 339.072 121.506 339.072 120.839H339.009C338.437 121.188 337.548 121.696 336.372 122.459L332.624 124.778L331.448 122.999L336.626 119.377C338.437 118.075 339.549 117.344 339.739 117.154L342.058 118.774C342.058 120.775 341.995 122.776 341.995 124.873C341.995 126.927 341.995 128.156 341.995 128.558C341.995 130.167 341.995 132.105 341.995 134.371C341.995 136.626 341.995 137.992 342.122 138.437Z" fill="#2E2B28"/>
<path fill-rule="evenodd" clip-rule="evenodd" d="M384.689 126.207C384.689 127.764 384.435 129.257 383.863 130.686C383.132 132.243 382.243 133.704 381.131 135.006C379.765 136.754 377.923 138.818 375.635 141.296C373.38 143.679 371.887 145.235 371.315 145.807L368.933 143.869C370.426 142.376 371.823 141.01 373.062 139.74L376.62 136.182V136.118C375.318 135.928 374.111 135.642 372.872 135.197C371.633 134.816 370.426 134.244 369.377 133.45C368.297 132.688 367.313 131.703 366.614 130.559C365.82 129.257 365.502 127.827 365.502 126.334C365.502 125.127 365.756 123.888 366.201 122.776C366.741 121.76 367.376 120.775 368.139 119.949C369.06 119.028 370.076 118.329 371.252 117.884C372.48 117.355 373.772 117.09 375.127 117.09C376.43 117.09 377.764 117.281 379.003 117.757C380.178 118.139 381.258 118.837 382.116 119.695C382.878 120.458 383.45 121.379 383.926 122.332C384.498 123.634 384.689 124.937 384.689 126.207ZM381.322 126.334C381.322 125.445 381.131 124.46 380.813 123.634C380.496 122.84 380.051 122.078 379.384 121.506C378.812 120.966 378.177 120.521 377.446 120.267C376.684 119.949 375.826 119.822 375 119.822C374.174 119.822 373.253 119.949 372.491 120.33C371.76 120.648 371.061 121.029 370.489 121.633C369.886 122.205 369.441 122.904 369.187 123.698C368.869 124.524 368.742 125.381 368.679 126.207C368.679 127.446 368.996 128.685 369.695 129.638C370.489 130.75 371.506 131.639 372.745 132.243C373.571 132.688 374.428 133.005 375.318 133.196C376.302 133.45 377.192 133.577 378.177 133.704C379.066 132.688 379.86 131.576 380.432 130.305C381.131 129.13 381.385 127.764 381.322 126.334Z" fill="#2E2B28"/>
<path fill-rule="evenodd" clip-rule="evenodd" d="M425.826 129.701C425.762 132.179 424.809 134.562 423.062 136.309C422.173 137.135 421.125 137.865 420.013 138.31C418.869 138.755 417.567 139.009 416.264 139.009C414.994 139.009 413.691 138.818 412.452 138.374C411.245 137.929 410.133 137.198 409.18 136.309C408.386 135.515 407.751 134.625 407.306 133.577C406.798 132.433 406.576 131.131 406.576 129.828C406.576 128.335 406.925 126.874 407.433 125.445C408.323 123.507 409.498 121.696 410.991 120.076C412.738 118.011 414.327 116.137 415.947 114.454C417.567 112.77 418.933 111.277 420.14 109.975L422.554 111.849C421.569 112.897 420.299 114.2 418.679 115.883C417.059 117.567 415.756 118.837 414.74 119.886V119.949C415.756 120.076 416.741 120.33 417.757 120.585C418.869 120.902 419.949 121.315 420.998 121.887C422.48 122.671 423.708 123.772 424.682 125.191C425.445 126.588 425.89 128.145 425.826 129.701ZM422.554 129.892C422.554 128.685 422.173 127.446 421.379 126.398C420.553 125.318 419.441 124.396 418.139 123.825C417.249 123.443 416.349 123.115 415.438 122.84C414.676 122.649 413.818 122.522 413.056 122.459C412.071 123.443 411.372 124.587 410.801 125.889C410.261 127.128 409.943 128.494 409.943 129.828C409.943 130.813 410.133 131.766 410.451 132.687C410.801 133.45 411.245 134.18 411.881 134.752C412.452 135.324 413.12 135.705 413.882 136.055C414.676 136.309 415.502 136.499 416.264 136.436C417.186 136.436 418.012 136.309 418.806 135.928C419.505 135.642 420.14 135.197 420.743 134.689C421.315 134.117 421.823 133.323 422.078 132.497C422.427 131.703 422.618 130.877 422.554 129.892Z" fill="#2E2B28"/>
<path d="M464.549 138.374H460.737H455.432H449.619H446.061L445.299 135.864C446.442 135.26 447.618 134.752 449.174 133.895C463.246 126.334 458.863 118.901 446.442 120.33L446.696 117.63C462.135 115.089 468.202 128.208 450.762 135.864V135.991C451.366 135.928 452.001 135.864 452.922 135.864C453.812 135.864 454.638 135.8 455.496 135.8C457.243 135.705 459.117 135.705 461.118 135.705H464.485" fill="#2E2B28"/>
<path d="M11.2452 23.4751H0V135.197H307.052V123.952H11.2452" fill="#2E2B28"/>
<path d="M23.507 0.317439V11.5944H488.755V129.574H500V0.253906" fill="#2E2B28"/>
<path d="M0 0.253906H12.0712V12.3568H0V0.253906Z" fill="#FA3A1D"/>
<path d="M36.3723 91.6775V41.9634H65.3749V50.3814H45.7433V61.4361H61.6264V69.8859H45.7433V91.6775" fill="#2E2B28"/>
<path d="M95.2986 91.6139V41.9634H124.809V50.3814H104.574V61.1184H120.87V69.5682H104.574V83.1641H126.874V91.6139" fill="#2E2B28"/>
<path fill-rule="evenodd" clip-rule="evenodd" d="M157.687 91.6771V41.8994H172.808C187.738 41.8994 199.809 50.5081 199.809 66.8041C199.809 82.6237 188.501 91.6135 171.252 91.6135M172.808 83.1637C181.989 83.1637 189.803 78.6847 189.803 66.6135C189.803 57.1472 183.323 50.381 173.952 50.381H166.995V83.1637H172.808Z" fill="#2E2B28"/>
<path d="M230.051 91.6139V41.9634H259.625V50.3814H239.39V61.1184H255.686V69.5682H239.39V83.1641H261.626V91.6139" fill="#2E2B28"/>
<path fill-rule="evenodd" clip-rule="evenodd" d="M321.442 91.6771L302.764 73.1256H301.811V91.6771H292.503V41.8994H302.764C312.325 41.8994 325.191 43.8372 325.191 57.2425C325.191 66.6135 319.759 70.6161 313.246 72.2997L334.371 91.6771M304.987 64.6758C312.008 64.6758 315.311 62.198 315.311 57.306C315.311 53.1446 312.325 50.381 305.241 50.381H301.811V64.6758H304.987Z" fill="#2E2B28"/>
<path fill-rule="evenodd" clip-rule="evenodd" d="M397.872 91.6775L393.551 82.5606H370.997L366.677 91.6775H356.258L382.306 39.7715L408.323 91.6775M382.243 58.8947L374.809 74.6825H389.803L382.243 58.8947Z" fill="#2E2B28"/>
<path d="M434.879 91.6135V41.8994H444.187V83.1637H464.93V91.6135" fill="#2E2B28"/>
</g>
<defs>
<clipPath id="clip0_6_15636">
<rect width="500" height="145.807" fill="white"/>
</clipPath>
</defs>
</svg>
