<svg width="500" height="359" viewBox="0 0 500 359" fill="none" xmlns="http://www.w3.org/2000/svg">
<g clip-path="url(#clip0_6_15188)">
<mask id="mask0_6_15188" style="mask-type:luminance" maskUnits="userSpaceOnUse" x="-3008" y="-195" width="3868" height="2901">
<path d="M-3007.92 -194.915H859.405V2705.05H-3007.92V-194.915Z" fill="white"/>
</mask>
<g mask="url(#mask0_6_15188)">
<path fill-rule="evenodd" clip-rule="evenodd" d="M175.095 83.0064L227.468 90.2533V121.392L175.095 146.108V83.0064ZM175.095 23.671L226.392 0.0317383H227.468V61.7722L175.095 82.4684V23.671ZM251.108 56.6773V23.9241L302.943 0.316548H304.019V63.133L251.108 56.6773ZM251.108 87.0254L304.019 63.3862V121.677L251.108 146.108V87.0254ZM7.24684 340.506V349.905C7.24684 351.772 7.24684 356.076 9.93671 356.867H0.253165C2.68987 356.076 2.1519 351.772 2.1519 349.905V330.285C2.1519 327.88 2.68987 324.367 0.253165 323.323H9.93671C7.24684 324.367 7.24684 327.88 7.24684 330.285V336.456H26.3291V330.285C26.3291 327.88 26.3291 324.367 23.6392 323.323H33.8291C30.8861 324.367 31.4241 327.88 31.4241 330.285V349.905C31.4241 351.772 30.8861 356.076 33.8291 356.867H23.6392C26.3291 356.076 26.3291 351.772 26.3291 349.905V340.506H7.24684ZM57.3101 357.943C46.9937 357.943 38.6392 349.968 38.6392 340.063C38.6392 330.19 46.9937 322.215 57.3101 322.215C67.6266 322.215 75.981 330.19 75.981 340.063C75.981 349.968 67.6266 357.943 57.3101 357.943ZM70.3481 339.81C70.3481 332.025 64.5253 325.728 57.3101 325.728C50.1266 325.728 44.3038 332.025 44.3038 339.81C44.3038 347.627 50.1266 353.924 57.3101 353.924C64.5253 353.924 70.3481 347.627 70.3481 339.81ZM93.7025 350.443C93.7025 353.386 93.7025 355 96.3924 356.867H86.2025C88.6076 356.076 88.6076 351.772 88.6076 349.905V326.804H84.0506C81.6139 326.804 79.462 327.342 77.8797 328.956H77.5949L79.462 322.785C80.538 322.785 81.0759 322.785 81.6139 323.323H102.025C102.848 323.323 103.924 323.323 104.462 322.785L102.848 328.956C102.025 326.804 99.8734 326.804 98.2911 326.804H93.7025V350.443ZM117.342 352.595L123.797 353.671C127.025 353.671 130.506 352.595 132.911 350.443H133.449L131.044 357.152H109.557C112.247 356.076 112.247 352.057 112.247 349.905V330.57C112.247 327.88 112.247 324.399 109.557 323.323H125.949C127.025 323.323 127.816 323.323 128.354 322.785V328.956C127.025 327.089 124.873 327.089 122.437 327.089C120.823 327.089 118.703 327.089 117.342 327.342V336.741H125.949V341.836H125.411C124.873 340.222 122.722 340.76 120.823 340.76H117.342V352.595ZM153.323 353.671C156.551 353.671 159.494 352.595 162.184 349.937H162.468L159.494 357.184H138.576C141.234 356.108 141.234 352.057 141.234 349.937V330.601C141.234 328.165 141.234 324.399 138.576 323.323H148.228C145.823 324.399 146.361 328.165 146.361 330.601V353.133L153.323 353.671ZM187.405 329.525C185.285 327.627 181.772 326.013 179.367 326.013C176.139 326.013 172.658 327.089 172.658 330.601C172.658 337.848 189.842 337.848 189.842 347.5C189.842 352.595 184.462 357.722 176.139 357.722C173.196 357.722 169.968 357.722 166.994 356.108L165.949 350.19C168.608 352.595 173.196 354.209 177.215 354.209C179.62 354.209 184.462 352.595 184.462 349.114C184.462 340.791 166.456 342.405 166.456 331.677C166.456 324.937 173.196 322.532 179.62 322.532C182.31 322.532 184.747 323.07 187.405 323.608V329.525ZM242.468 356.899C240.854 356.899 238.987 356.899 237.911 356.108C235.759 355.032 233.354 352.88 231.74 351.266C229.304 356.108 225.57 357.437 220.981 357.437C214.81 357.437 209.43 353.956 209.43 347.785C209.43 342.69 212.943 339.715 216.424 336.519C214.557 334.62 212.405 332.468 212.405 329.525C212.405 325.222 216.424 322.279 220.443 322.279C224.494 322.279 227.69 325.222 227.69 329.525C227.69 333.006 225.57 335.158 223.133 337.057C230.665 344.304 238.449 352.342 248.101 356.899H242.468ZM219.399 339.715C216.962 341.614 214.81 344.304 214.81 347.247C214.81 351.804 218.038 354.494 222.057 354.494C225.032 354.494 227.722 352.342 229.589 349.937L219.399 339.715ZM223.703 328.956C223.703 326.836 222.089 325.76 219.937 325.76C218.608 325.76 216.994 326.836 216.994 328.449C216.994 330.317 218.861 332.468 220.475 334.082C222.089 333.006 223.703 330.855 223.703 328.956ZM272.563 323.323C279.557 323.323 283.323 326.836 283.323 331.392C283.323 335.949 279.019 339.715 275 340.791L282.785 349.905C284.652 352.342 287.88 355.032 290.823 356.899H286.266C283.323 356.899 281.709 356.614 280.095 354.494L273.924 346.677L268.829 339.177C273.101 338.639 278.228 337.025 278.228 331.93C278.228 328.449 275 326.298 271.487 326.298C270.443 326.298 268.829 326.298 268.006 326.836V349.905C268.006 351.804 267.468 356.076 270.443 356.899H260.221C262.911 356.076 262.911 351.804 262.911 349.905V330.317C262.911 327.911 262.911 324.399 260.221 323.323H272.563ZM301.582 352.342L308.291 353.418C311.772 353.418 315.538 352.342 317.943 350.443L315.538 356.899H294.051C296.994 356.076 296.456 351.804 296.456 349.905V330.317C296.456 327.911 296.994 324.399 294.051 323.323H310.981C311.234 323.323 312.31 323.323 312.848 322.785H313.386V328.956H312.848C311.234 326.836 309.367 326.836 307.215 326.836C305.316 326.836 303.165 326.836 301.582 327.374V336.487H310.443V341.582C309.367 340.253 307.215 340.791 305.854 340.791H301.582V352.342ZM344.525 329.241C342.405 327.089 339.43 325.76 336.203 325.76C333.797 325.76 329.778 326.551 329.778 330.317C329.778 337.31 347.5 337.31 347.5 346.962C347.5 352.342 341.867 357.437 333.797 357.437C330.854 357.437 327.627 357.437 324.652 355.823L323.07 349.652C326.013 352.342 330.316 353.671 334.335 353.671C337.278 353.671 341.329 352.342 341.329 348.576C341.329 340.506 324.114 341.867 324.114 331.108C324.114 324.684 330.854 321.994 336.741 321.994C339.43 321.994 341.867 322.532 344.525 323.07V329.241ZM373.006 357.975C362.627 357.975 354.209 349.937 354.209 339.968C354.209 330.032 362.627 321.994 373.006 321.994C383.418 321.994 391.804 330.032 391.804 339.968C391.804 349.937 383.418 357.975 373.006 357.975ZM385.886 339.715C385.886 331.994 380.19 325.76 373.133 325.76C366.076 325.76 360.38 331.994 360.38 339.715C360.38 347.437 366.076 353.671 373.133 353.671C380.19 353.671 385.886 347.437 385.886 339.715ZM410.348 323.07C416.772 323.07 420.538 326.836 420.538 331.392C420.538 335.949 416.772 339.43 412.215 340.506L420 349.652C421.899 352.342 425.633 354.747 428.07 356.899H423.513C420.823 356.899 418.924 356.361 417.31 354.209L411.139 346.677L406.582 338.893C410.886 338.355 415.443 337.025 415.443 331.93C415.443 328.165 412.215 326.298 408.734 326.298C407.658 326.298 406.582 326.298 405.222 326.836V349.652C405.222 351.804 405.221 355.823 407.658 356.899H397.975C400.665 355.823 400.127 351.804 400.127 349.652V330.317C400.127 327.627 400.665 324.146 397.975 323.07H410.348ZM442.595 350.19C442.595 353.133 442.595 354.747 445.538 356.899H435.348C438.006 355.823 437.468 351.804 437.468 349.652V326.836H432.911C430.759 326.836 428.07 327.089 426.741 328.703L428.07 322.532H428.608C429.146 322.532 429.684 322.532 430.759 323.07H451.171C451.709 323.07 452.785 323.07 453.07 322.532H453.608L451.709 328.703C451.171 326.836 449.019 326.836 447.152 326.836H442.595V350.19ZM478.576 329.241C476.677 327.089 473.481 325.475 471.044 325.475C468.101 325.475 464.335 326.551 464.335 330.032C464.335 337.279 481.804 337.279 481.804 346.962C481.804 352.057 476.171 357.152 468.101 357.152C464.873 357.152 461.93 357.152 458.703 355.538L457.342 349.652C460.316 352.057 464.335 353.671 468.354 353.671C471.582 353.671 476.171 352.057 476.171 348.576C476.171 340.253 458.165 341.867 458.165 331.108C458.165 324.399 464.873 321.994 471.044 321.994C473.481 321.994 476.677 322.532 478.576 323.07V329.241ZM26.5823 242.753V276.614C26.5823 284.652 25.5063 298.07 34.6203 301.582V302.12H0V301.582C9.11392 298.07 7.78481 284.652 7.78481 276.614V206.519C7.78481 198.449 9.11392 184.494 0 181.013V180.475H34.6203V181.013C25.5063 184.494 26.5823 198.449 26.5823 206.519V229.62H93.4494V206.519C93.4494 198.449 94.2721 184.494 85.1266 181.013V180.475H120.316V181.013C111.171 184.494 112.247 198.449 112.247 206.519V276.614C112.247 284.652 111.171 298.07 120.316 301.582V302.12H85.1266V301.582C94.2721 298.07 93.4494 284.652 93.4494 276.614V242.753H26.5823ZM270.443 240.633C270.443 278.196 239.272 305.317 202.5 305.317C166.519 305.317 135.348 279.272 135.348 241.424C135.348 206.234 165.981 176.709 204.652 177.532C243.323 177.532 270.443 207.31 270.443 240.633ZM156.297 239.557C156.297 265.601 174.557 292.184 203.576 292.184C231.487 292.184 249.494 271.772 249.494 244.114C249.494 216.994 232.025 190.949 203.038 190.949C174.557 190.949 156.297 211.899 156.297 239.557ZM363.639 202.753C356.392 195.506 345.38 191.487 335.158 191.487C324.43 191.487 311.266 195.506 311.266 208.386C311.266 233.355 374.367 232.817 374.367 266.93C374.367 287.057 353.956 305.317 324.968 305.317C313.671 305.317 302.405 303.734 292.184 299.684L286.551 276.867C297.848 286.519 312.595 292.184 326.835 292.184C337.595 292.184 353.418 285.981 353.418 273.101C353.418 244.114 290.316 249.209 290.316 209.747C290.316 186.899 313.671 178.038 336.519 178.038C345.918 178.038 355.032 179.114 363.639 181.804V202.753ZM443.133 278.228C443.133 288.956 443.133 296.203 452.785 301.836V302.374H416.551V301.836C425.949 298.355 424.873 284.937 424.873 276.867V193.893H408.481C400.411 193.893 392.089 196.044 386.456 201.677H386.203L392.089 179.684H392.627C395.316 180.76 397.215 180.76 399.873 180.76H473.196C476.424 180.76 479.399 180.76 481.804 179.684H482.342L476.424 201.677H475.886C473.196 194.968 466.234 193.893 460.032 193.893H443.133V278.228ZM492.405 338.101C488.323 338.101 485.032 334.81 485.032 330.728C485.032 326.646 488.323 323.355 492.405 323.355C496.487 323.355 499.779 326.646 499.779 330.728C499.779 334.81 496.487 338.101 492.405 338.101ZM498.734 330.728C498.734 327.247 495.949 324.43 492.532 324.43C489.114 324.43 486.361 327.247 486.361 330.728C486.361 334.209 489.114 337.057 492.532 337.057C495.949 337.057 498.734 334.209 498.734 330.728ZM491.203 335.158H489.589V326.836C490.665 326.298 491.203 326.298 491.994 326.298C493.608 326.298 494.146 326.836 494.684 326.836C495.221 327.374 495.759 327.911 495.759 328.987C495.759 330.063 494.684 330.317 493.608 330.855C494.684 330.855 495.222 331.393 495.222 333.006C495.759 334.082 495.759 334.62 495.759 335.158H494.146C494.146 334.62 494.146 334.082 493.608 333.006C493.608 331.93 493.07 331.392 491.994 331.392H491.203V335.158ZM491.203 330.601H491.994C493.07 330.601 494.146 330.063 494.146 328.987C494.146 328.449 493.608 327.658 491.994 327.658H491.203V330.601Z" fill="black"/>
</g>
</g>
<defs>
<clipPath id="clip0_6_15188">
<rect width="500" height="358.228" fill="white"/>
</clipPath>
</defs>
</svg>
