<svg width="500" height="130" viewBox="0 0 500 130" fill="none" xmlns="http://www.w3.org/2000/svg">
<g clip-path="url(#clip0_6_15210)">
<path opacity="0.75" d="M58.5414 34.2617L87.5719 81.4611L116.843 128.66H58.5414H0L29.2706 81.4611L58.5414 34.2617Z" fill="#13487D"/>
<path opacity="0.75" d="M102.926 0L132.197 64.4497L161.467 128.66H102.926H44.385L73.6555 64.4497L102.926 0Z" fill="#1C75BC"/>
<path opacity="0.75" d="M80.6137 18.4492L109.884 73.5551L139.155 128.661H80.6137H22.3123L51.5829 73.5551L80.6137 18.4492Z" fill="#6DCFF6"/>
<path d="M178.742 18.4482H175.384V59.4181H178.742V18.4482Z" fill="black"/>
<path d="M211.132 40.2509C217.37 39.2926 220.969 35.4592 220.969 29.4694C220.969 22.7609 216.171 18.4482 208.253 18.4482H190.019V59.4181H193.378V40.4907H207.054L220.249 59.1784V59.4181H224.328L211.132 40.2509ZM193.378 21.5629H208.013C214.011 21.5629 217.37 24.438 217.37 29.4694C217.37 34.5009 214.011 37.3758 208.013 37.3758H193.378V21.5629Z" fill="black"/>
<path d="M249.281 17.7295C237.525 17.7295 228.887 26.8339 228.887 38.8134C228.887 50.7929 237.765 59.8972 249.281 59.8972C260.797 59.8972 269.675 50.7929 269.675 38.8134C269.675 26.8339 261.037 17.7295 249.281 17.7295ZM249.281 56.7826C239.684 56.7826 232.246 49.1157 232.246 38.8134C232.246 28.7507 239.444 21.0838 249.281 21.0838C258.878 21.0838 266.076 28.7507 266.076 38.8134C266.316 49.1157 259.118 56.7826 249.281 56.7826Z" fill="black"/>
<path d="M308.782 53.1887L281.911 18.4482H279.032V59.4181H282.391V24.438L309.262 59.1784V59.4181H312.141V18.4482H308.782V53.1887Z" fill="black"/>
<path d="M193.619 107.815L178.264 87.6895H174.905V128.42H178.264V93.2L192.419 111.648H192.659H194.579L208.734 93.2V128.42H212.333V87.6895H208.974L193.619 107.815Z" fill="black"/>
<path d="M241.844 86.9707C230.087 86.9707 221.45 96.0753 221.45 108.055C221.45 120.034 230.327 129.139 241.844 129.139C253.36 129.139 262.237 120.034 262.237 108.055C262.237 96.0753 253.6 86.9707 241.844 86.9707ZM241.844 126.024C232.247 126.024 224.809 118.357 224.809 108.055C224.809 97.9919 232.007 90.325 241.844 90.325C251.44 90.325 258.638 97.9919 258.638 108.055C258.638 118.357 251.44 126.024 241.844 126.024Z" fill="black"/>
<path d="M300.386 110.93C300.386 120.274 295.588 125.785 287.431 125.785C279.273 125.785 274.475 120.274 274.475 110.93V87.4502H271.116V110.93C271.116 122.191 277.354 129.139 287.671 129.139C297.747 129.139 304.225 122.191 304.225 110.93V87.4502H300.866V110.93H300.386Z" fill="black"/>
<path d="M343.811 122.43L316.941 87.6895H314.062V128.42H317.421V93.6792L344.291 128.42H347.172V87.6895H343.811V122.43Z" fill="black"/>
<path d="M386.517 87.6895H354.126V90.804H368.762V128.42H372.123V90.804H386.517V87.6895Z" fill="black"/>
<path d="M404.99 87.4502H401.874L383.397 128.181L383.159 128.66H386.758L392.036 116.92H414.348L419.626 128.66H423.225L404.99 87.4502ZM413.149 113.565H393.477L403.311 92.0025L413.149 113.565Z" fill="black"/>
<path d="M433.785 87.6895H430.424V128.659H433.785V87.6895Z" fill="black"/>
<path d="M474.808 122.43L448.176 87.6895H445.056V128.42H448.656V93.6792L475.288 128.42H475.527H478.407V87.6895H474.808V122.43Z" fill="black"/>
<path d="M492.325 85.0542C488.245 85.0542 484.646 88.4085 484.646 92.7211C484.646 97.0337 488.007 100.388 492.325 100.388C496.642 100.388 500.003 97.0337 500.003 92.7211C500.003 88.6479 496.642 85.0542 492.325 85.0542ZM492.325 99.19C488.725 99.19 485.848 96.3148 485.848 92.7211C485.848 89.127 488.725 86.2522 492.325 86.2522C495.924 86.2522 498.801 89.127 498.801 92.7211C498.801 96.3148 495.924 99.19 492.325 99.19Z" fill="black"/>
<path d="M495.682 91.0445C495.682 89.607 494.725 88.6484 493.043 88.6484H489.444V96.7945H490.884V93.4405H492.805L495.202 96.7945H496.884L494.245 93.2008C495.202 92.7216 495.682 92.0027 495.682 91.0445ZM490.884 89.8464H493.043C493.523 89.8464 494.245 90.0862 494.245 90.8047C494.245 91.5236 493.765 91.7633 493.043 91.7633H490.884V89.8464Z" fill="black"/>
</g>
<defs>
<clipPath id="clip0_6_15210">
<rect width="500" height="129.139" fill="white"/>
</clipPath>
</defs>
</svg>
