<svg width="500" height="130" viewBox="0 0 500 130" fill="none" xmlns="http://www.w3.org/2000/svg">
<g clip-path="url(#clip0_6_15208)">
<path d="M79.622 50.3649C73.1735 55.8423 75.8854 64.4931 78.5329 69.3938C81.851 75.5124 77.6128 84.536 71.8188 89.6406C85.9068 81.6336 95.5233 66.6819 96.057 49.4341C91.682 46.5719 84.3376 46.3493 79.6193 50.3649H79.622Z" fill="#23B2A9"/>
<path d="M46.022 64.1501C36.7811 56.3121 28.6909 60.105 23.1732 66.5857C17.5804 73.1549 25.2843 75.1185 35.81 77.5112C43.75 79.3164 42.7682 90.1131 43.5032 92.5353C52.9908 77.2107 50.2602 67.7392 46.022 64.1501Z" fill="#71BE45"/>
<path d="M60.88 16.3838C76.631 28.621 62.7791 34.8683 62.7791 34.8683C71.7222 42.4729 80.7727 27.9047 90.4857 36.2256C93.0581 38.4251 94.7024 41.0941 95.9175 43.9562C94.2839 24.0716 80.5178 7.61505 62.0307 2.04102C54.7748 5.23308 51.8832 9.39885 60.88 16.3838Z" fill="#2CB5E5"/>
<path d="M22.819 58.5864C19.2434 48.8144 23.79 44.3079 39.3104 33.2564C58.9161 19.2865 28.2536 24.2436 40.7294 11.6631C45.1473 7.2103 51.3598 3.75 55.9494 0.630365C53.4199 0.225322 50.826 0 48.1785 0C21.7112 0 0.257324 21.4673 0.257324 47.9399C0.257324 49.0075 0.300243 50.0536 0.37535 51.0998C7.60174 57.8058 16.5556 62.154 22.819 58.5864Z" fill="#1B4D4A"/>
<path fill-rule="evenodd" clip-rule="evenodd" d="M120.955 21.3604H140.99C149.174 21.3604 156.433 21.3604 160.808 27.6399C162.707 30.4591 163.627 34.4853 163.627 37.8705C163.627 40.6254 163.061 43.3051 161.929 45.6334C157.626 54.5283 148.46 54.7321 141.682 54.8823H133.431V71.1887H120.944V21.3604H120.955ZM133.444 30.5342V45.6334H140.915C145.566 45.6334 151.213 45.4939 151.213 37.7954C151.213 30.5234 144.938 30.5234 141.341 30.5234H133.442L133.444 30.5342Z" fill="#1B4D4A"/>
<path fill-rule="evenodd" clip-rule="evenodd" d="M192.9 21.2852C198.13 21.3603 204.619 21.4246 209.219 26.3683C211.545 28.9837 213.179 32.9348 213.179 37.4627C213.179 47.503 206.328 49.9681 202.935 51.2503L214.45 71.1779H200.681L190.799 53.364H182.953V71.1779H170.456V21.2852H192.9ZM182.953 44.1178H193.265C195.024 44.0427 200.746 43.9032 200.746 37.2616C200.746 30.8962 196.156 30.6923 193.541 30.6172H182.953V44.1178Z" fill="#1B4D4A"/>
<path fill-rule="evenodd" clip-rule="evenodd" d="M243.683 72.5968C227.886 72.5968 218.922 60.4563 218.922 46.0598C218.922 32.5834 227.46 19.8125 243.469 19.8125C246.425 19.8125 249.531 20.239 252.562 21.2959C267.793 26.5936 268.785 43.1762 268.785 46.5614C268.785 55.1693 264.837 62.9348 259.338 67.3769C254.472 71.3924 248.825 72.5968 243.683 72.5968ZM243.544 30.18C235.998 30.18 231.194 36.8136 231.194 45.8479C231.194 57.7014 237.822 62.0791 243.683 62.0791C249.606 62.0791 255.955 57.849 256.307 47.4064C256.51 42.173 255.102 36.886 252.283 33.8549C250.172 31.6017 246.926 30.18 243.544 30.18Z" fill="#1B4D4A"/>
<path fill-rule="evenodd" clip-rule="evenodd" d="M336.269 72.4494C321.103 72.4494 311.368 61.7922 311.368 46.2637C311.368 27.7793 324.134 20.0781 336.481 20.0781C350.44 20.0781 361.518 29.539 361.518 45.7621C361.518 60.7326 352.768 72.4494 336.269 72.4494ZM336.481 25.451C323.93 25.451 318.562 35.1157 318.562 46.3389C318.562 56.7814 323.707 67.2267 336.545 67.2267C349.949 67.2267 354.391 56.0787 354.316 45.848C354.252 33.7798 347.975 25.451 336.481 25.451Z" fill="#1B4D4A"/>
<path d="M431.521 21.2852V71.1779H424.831V21.2852H428.181H431.521Z" fill="#1B4D4A"/>
<path d="M459.474 48.2703C452.28 46.7869 441.703 44.3942 441.703 34.0884C441.703 29.1555 444.383 26.0493 446.282 24.4237C450.722 20.612 456.154 20.1855 459.614 20.1855C463.136 20.1855 468.503 20.5369 473.018 23.8578C477.948 27.4575 478.941 32.5407 479.431 35.5745L472.728 36.001C472.656 34.4533 472.452 30.5021 468.705 27.7472C466.167 25.9098 462.996 25.3438 459.815 25.3438C453.817 25.3438 448.536 27.8116 448.536 33.1818C448.536 38.6807 454.043 39.9522 458.332 40.9447L463.839 42.3556C467.65 43.273 469.689 43.7022 471.663 44.5445C479.144 47.6534 480.266 53.6432 480.266 56.964C480.266 61.6206 478.364 65.9983 473.914 69.0321C469.123 72.2778 463.412 72.5568 460.37 72.5568C455.856 72.5568 440.413 71.8513 439.281 55.4055L446.4 54.4854C446.475 56.398 446.677 60.7649 450.424 64.0884C453.24 66.5536 456.988 67.4093 460.649 67.4093C467.701 67.4093 473.061 63.949 473.061 57.4549C473.061 51.6662 468.471 50.1185 463.616 49.126L459.474 48.2703Z" fill="#1B4D4A"/>
<path d="M368.669 46.2423C368.669 30.4913 380.249 20.1104 394.638 20.1104C403.645 20.1104 409.855 24.0508 414.243 29.4961L409.249 32.6801C406.068 28.5894 400.7 25.7058 394.638 25.7058C383.592 25.7058 375.18 34.1098 375.18 46.2316C375.18 58.2032 383.581 66.7573 394.638 66.7573C400.689 66.7573 405.695 63.8738 408.267 61.2987V50.4403H393.975V44.8314H414.477V63.6592C409.783 68.9569 402.897 72.4494 394.649 72.4494C380.26 72.4494 368.669 61.929 368.669 46.2423Z" fill="#1B4D4A"/>
<path d="M282.999 65.2497H309.043V71.1779H276.374V21.2852H282.999V65.2497Z" fill="#1B4D4A"/>
<path fill-rule="evenodd" clip-rule="evenodd" d="M493.584 32.615C490.201 32.6043 487.457 29.8387 487.468 26.4536C487.479 23.0684 490.244 20.3243 493.627 20.335C497.009 20.3457 499.753 23.1113 499.742 26.4965C499.732 29.8817 496.966 32.6258 493.584 32.615ZM493.616 21.2846C490.756 21.2738 488.428 23.5914 488.417 26.4536C488.407 29.3157 490.724 31.644 493.584 31.6547C496.443 31.6655 498.771 29.3479 498.782 26.4857C498.793 23.6343 496.475 21.2953 493.616 21.2846Z" fill="#1B4D4A"/>
<path fill-rule="evenodd" clip-rule="evenodd" d="M493.433 22.9609C494.343 22.9717 494.96 22.9717 495.558 23.4518C495.984 23.8032 496.317 24.3504 496.317 25.139C496.317 26.4534 495.357 26.9014 494.97 27.0194L496.497 29.8064H495.035L493.68 27.2635H492.537V29.8064H491.269V22.9609H493.433ZM492.527 26.2174H492.975C493.412 26.2174 493.573 26.2066 493.82 26.1959C494.096 26.1852 495.024 26.1423 495.024 25.139C495.024 24.9888 495.013 24.4872 494.479 24.2217C494.203 24.0822 493.881 24.0715 493.125 24.0715H492.527V26.2174Z" fill="#1B4D4A"/>
<path fill-rule="evenodd" clip-rule="evenodd" d="M127.787 120.375L124.552 129.241H120.453L131.478 100.29H135.491L146.027 129.241H141.971L138.811 120.375H127.787ZM133.433 105.083L129.002 117.14H137.658L133.433 105.083Z" fill="#1B4D4A"/>
<path d="M149.303 100.236H152.621V111.843C154.67 109.664 156.634 109.302 158.482 109.302C162.739 109.302 164.426 111.684 165.003 113.562C165.376 114.791 165.376 116.062 165.376 117.996V129.23H162.058V119.021C162.058 116.478 162.058 115.005 161.277 113.809C160.456 112.623 159.142 112.164 157.873 112.164C155.781 112.164 153.53 113.318 152.868 116.306C152.621 117.376 152.621 118.401 152.621 119.831V129.219H149.303V100.236Z" fill="#1B4D4A"/>
<path fill-rule="evenodd" clip-rule="evenodd" d="M187.79 123.291C187.339 124.606 185.612 129.818 179.058 129.818C173.315 129.818 169.592 125.92 169.592 119.394C169.592 112.09 174.842 109.303 178.94 109.303C182.505 109.303 186.285 111.266 187.425 116.148C187.8 117.793 187.8 119.265 187.8 120.089H173.125C173.039 123.324 174.767 127.35 179.356 127.35C182.272 127.35 183.903 125.416 184.48 122.844L187.79 123.291ZM184.214 117.75C183.924 112.666 180.276 111.8 178.675 111.8C175.888 111.8 173.552 113.852 173.179 117.75H184.214Z" fill="#1B4D4A"/>
<path fill-rule="evenodd" clip-rule="evenodd" d="M203.562 117.675V117.184C203.562 115.175 203.562 111.811 199.219 111.811C195.078 111.811 195.078 114.845 195.078 115.869L191.631 115.668C191.717 114.973 191.792 113.906 192.409 112.752C193.562 110.614 195.815 109.303 199.09 109.303C200.896 109.303 203.232 109.751 204.748 110.947C206.883 112.666 206.883 114.887 206.84 117.471V123.75C206.883 125.598 206.883 126.537 208.237 126.537C208.643 126.537 209.015 126.454 209.305 126.336V129.166C208.771 129.295 208.195 129.496 207.256 129.496C205.74 129.496 204.225 129.005 203.895 126.623C202.913 127.648 200.936 129.786 197.256 129.786C193.487 129.786 190.692 127.532 190.692 124.241C190.692 123.216 190.979 122.192 191.556 121.328C192.666 119.681 194.715 118.369 200.488 117.921L203.562 117.675ZM194.3 124.147C194.3 125.706 195.526 127.02 197.948 127.02C200.201 127.02 202.132 126.111 203.071 124.104C203.562 123.037 203.605 122.586 203.605 119.756C202.336 119.971 200.606 120.217 198.524 120.665C194.917 121.443 194.3 122.801 194.3 124.147Z" fill="#1B4D4A"/>
<path fill-rule="evenodd" clip-rule="evenodd" d="M230.287 129.23H227.012V126.73C226.231 127.669 224.428 129.807 220.373 129.807C214.801 129.807 211.513 125.619 211.513 119.469C211.513 111.918 216.435 109.302 220.33 109.302C221.599 109.302 224.801 109.589 227.012 112.462V100.236H230.287V129.23ZM214.994 119.597C214.994 123.581 216.84 126.902 221.024 126.902C224.758 126.902 227.087 124.115 227.087 119.479C227.087 114.021 223.766 112.304 221.14 112.261C218.643 112.218 214.994 113.734 214.994 119.597Z" fill="#1B4D4A"/>
<path fill-rule="evenodd" clip-rule="evenodd" d="M245.815 119.724C245.815 115.421 247.951 109.303 255.453 109.303C261.848 109.303 264.804 114.268 264.761 119.555C264.708 125.427 261.229 129.818 255.325 129.818C248.645 129.818 245.815 124.807 245.815 119.724ZM260.982 116.851C260.247 113.039 257.749 111.929 255.528 111.929C251.143 111.929 249.38 115.335 249.38 119.767C249.38 123.825 251.068 127.189 255.284 127.189C260.738 127.189 261.143 121.529 261.186 119.566C261.229 118.326 261.1 117.428 260.982 116.851Z" fill="#1B4D4A"/>
<path d="M273.31 109.922H276.958V112.623H273.31V129.23H270.15V112.623H266.915V109.922H270.15L270.193 105.982C270.236 104.337 270.322 100.48 275.198 100.48C276.137 100.48 276.961 100.641 277.578 100.727V103.267C276.958 103.184 276.223 103.109 275.775 103.109C273.353 103.109 273.321 105.04 273.321 106.558V109.922H273.31Z" fill="#1B4D4A"/>
<path d="M305.199 109.922L309.788 124.273L314.826 109.922H318.273L311.186 129.241H308.316L303.683 114.845L298.967 129.241H295.979L289.254 109.922H292.776L297.61 124.273L302.371 109.922H305.199Z" fill="#1B4D4A"/>
<path d="M321.465 100.236H324.783V111.843C326.832 109.664 328.796 109.302 330.644 109.302C334.901 109.302 336.588 111.684 337.165 113.562C337.538 114.791 337.538 116.062 337.538 117.996V129.23H334.22V119.021C334.22 116.478 334.22 115.005 333.439 113.809C332.618 112.623 331.304 112.164 330.035 112.164C327.943 112.164 325.692 113.318 325.03 116.306C324.783 117.376 324.783 118.401 324.783 119.831V129.219H321.465V100.236Z" fill="#1B4D4A"/>
<path fill-rule="evenodd" clip-rule="evenodd" d="M354.338 117.675V117.184C354.338 115.175 354.338 111.811 349.992 111.811C345.853 111.811 345.853 114.845 345.853 115.869L342.404 115.668C342.49 114.973 342.565 113.906 343.184 112.752C344.338 110.614 346.588 109.303 349.866 109.303C351.669 109.303 354.005 109.751 355.521 110.947C357.656 112.666 357.656 114.887 357.613 117.471V123.75C357.656 125.598 357.656 126.537 359.01 126.537C359.418 126.537 359.791 126.454 360.078 126.336V129.166C359.544 129.295 358.968 129.496 358.029 129.496C356.513 129.496 354.998 129.005 354.668 126.623C353.686 127.648 351.722 129.786 348.029 129.786C344.263 129.786 341.465 127.532 341.465 124.241C341.465 123.216 341.755 122.192 342.331 121.328C343.439 119.681 345.488 118.369 351.264 117.921L354.338 117.675ZM345.073 124.147C345.073 125.706 346.301 127.02 348.723 127.02C350.974 127.02 352.908 126.111 353.847 124.104C354.338 123.037 354.381 122.586 354.381 119.756C353.109 119.971 351.392 120.217 349.3 120.665C345.692 121.443 345.073 122.801 345.073 124.147Z" fill="#1B4D4A"/>
<path d="M367.827 109.922H371.349V112.623H367.827V123.696C367.827 125.992 367.827 126.977 369.225 126.977C369.844 126.977 370.697 126.73 371.36 126.526V129.23C370.783 129.313 369.439 129.56 368.2 129.56C364.434 129.56 364.434 127.712 364.466 125.172V112.623H361.392V109.922H364.466V103.812H367.827V109.922Z" fill="#1B4D4A"/>
<path d="M379.662 100.279V102.414C379.619 106.43 379.086 108.235 377.988 111.194H376.057C376.344 110.499 377.208 108.16 377.412 104.796H375.606V100.279H379.662Z" fill="#1B4D4A"/>
<path d="M388.651 120.708C385.534 119.971 381.722 119.107 381.722 115.091C381.722 111.567 384.71 109.346 389.185 109.346C392.876 109.346 396.803 111.108 397.465 115.657L393.943 116.105C393.9 114.92 393.815 113.97 392.546 112.986C391.274 112.004 389.802 111.832 388.809 111.832C386.269 111.832 385 113.351 385 114.662C385 116.51 387.092 117.087 389.633 117.696L391.478 118.144C393.774 118.678 397.913 119.662 397.913 123.718C397.913 126.881 395.129 129.829 389.802 129.829C387.626 129.829 385.373 129.378 383.814 128.267C383.198 127.819 381.317 126.261 380.944 123.015L384.638 122.439C384.595 123.302 384.595 124.936 386.068 126.207C387.218 127.189 388.651 127.318 389.963 127.318C392.833 127.318 394.509 126.207 394.509 124.115C394.509 121.905 392.833 121.486 390.496 121.038L388.651 120.708Z" fill="#1B4D4A"/>
<path d="M416.057 109.922V112.752C417.862 109.59 420.934 109.303 422.087 109.303C424.541 109.303 427.497 110.531 428.439 113.734C428.769 114.887 428.769 116.073 428.769 117.717V129.241H425.534V118.251C425.534 116.288 425.534 115.711 425.333 115.048C424.756 113.2 422.951 112.377 421.191 112.377C419.761 112.377 418.522 112.827 417.497 113.852C416.068 115.282 416.068 116.768 416.068 118.198V129.23H412.792V109.912H416.057V109.922Z" fill="#1B4D4A"/>
<path fill-rule="evenodd" clip-rule="evenodd" d="M451.352 123.291C450.904 124.606 449.174 129.818 442.62 129.818C436.88 129.818 433.154 125.92 433.154 119.394C433.154 112.09 438.406 109.303 442.502 109.303C446.067 109.303 449.836 111.266 450.99 116.148C451.352 117.793 451.352 119.265 451.352 120.089H436.676C436.59 123.324 438.321 127.35 442.91 127.35C445.823 127.35 447.457 125.416 448.034 122.844L451.352 123.291ZM447.787 117.75C447.5 112.666 443.849 111.8 442.258 111.8C439.474 111.8 437.135 113.852 436.762 117.75H447.787Z" fill="#1B4D4A"/>
<path d="M464.745 109.922H468.439L462.623 119.437L468.439 129.241H464.745L460.646 122.353L456.633 129.241H452.91L458.94 119.437L453.24 109.922H457.009L460.861 116.564L464.745 109.922Z" fill="#1B4D4A"/>
<path d="M476.837 109.922H480.359V112.623H476.837V123.696C476.837 125.992 476.837 126.977 478.238 126.977C478.855 126.977 479.71 126.73 480.37 126.526V129.23C479.793 129.313 478.45 129.56 477.213 129.56C473.444 129.56 473.444 127.712 473.476 125.172V112.623H470.402V109.922H473.476V103.812H476.837V109.922Z" fill="#1B4D4A"/>
</g>
<defs>
<clipPath id="clip0_6_15208">
<rect width="500" height="129.828" fill="white"/>
</clipPath>
</defs>
</svg>
