<svg width="500" height="261" viewBox="0 0 500 261" fill="none" xmlns="http://www.w3.org/2000/svg">
<g clip-path="url(#clip0_6_15750)">
<path fill-rule="evenodd" clip-rule="evenodd" d="M18.1435 0H481.857C491.814 0 500 8.18565 500 18.1435V242.447C500 252.405 491.814 260.591 481.857 260.591H18.1435C8.10127 260.591 0 252.405 0 242.447V18.1435C0 8.18565 8.18565 0 18.1435 0Z" fill="#ED7100"/>
<path d="M114.515 77.637H123.038C127.004 77.637 136.118 77.637 136.118 67.848C136.118 58.059 126.835 58.2278 122.279 58.2278H114.515V77.637ZM94.4304 39.9155H121.181C136.371 39.9155 142.025 42.194 146.414 45.9071C152.827 51.2235 156.034 59.2404 156.034 67.5105C156.034 75.7805 152.574 84.4725 147.426 88.9451C141.772 93.6708 136.287 96.0337 123.544 96.0337H114.43V121.603H94.4304" fill="#FEFEFE"/>
<path d="M218.734 121.603H201.35V115.105H201.097C197.3 122.953 189.789 123.629 185.148 123.629C180.506 123.629 172.574 122.785 167.089 115.865C162.194 109.789 161.519 105.401 161.519 97.0463V60.4218H179.916V94.2615C179.916 98.4809 179.916 106.498 189.789 106.498C199.663 106.498 200.338 103.713 200.338 94.0083V60.3374H218.734" fill="#FEFEFE"/>
<path d="M258.059 106.582C267.426 106.582 273.418 98.9873 273.418 90.886C273.418 82.7847 267.426 75.3586 258.397 75.3586C249.367 75.3586 243.122 83.2067 243.122 90.8016C243.122 98.3965 248.861 106.582 258.059 106.582ZM225.401 39.9155H243.797V65.1476C250.295 58.2278 259.072 58.2278 261.603 58.2278C274.43 58.2278 291.814 67.3417 291.814 90.5484C291.814 113.755 276.456 123.629 260.844 123.629C245.232 123.629 245.57 119.409 243.291 115.021H243.038V121.519H225.401" fill="#FEFEFE"/>
<path d="M316.118 39.9155H297.721V121.519H316.118V39.9155Z" fill="#FEFEFE"/>
<path d="M341.097 121.603H322.7V60.3375H341.097V121.603ZM341.097 53.8396H322.7V39.9155H341.097V53.8396Z" fill="#FEFEFE"/>
<path d="M411.983 98.3124C408.692 112.236 396.371 123.544 379.747 123.544C363.122 123.544 346.92 108.945 346.92 90.8019C346.92 72.6584 360.928 58.228 379.325 58.228C397.722 58.228 408.776 68.9453 411.899 83.9664H393.333C391.308 79.747 387.679 75.3588 380.084 75.3588C371.308 74.9369 365.485 82.1099 365.485 90.8863C365.485 99.6626 371.308 106.414 380.084 106.414C388.861 106.414 391.392 102.026 393.333 98.228" fill="#FEFEFE"/>
<path d="M76.7932 155.527C76.3712 152.743 75.6961 147.595 69.2826 147.595C62.8691 147.595 62.1096 150.127 62.1096 154.008C62.1096 157.89 64.3037 159.831 79.0717 166.498C94.3459 173.333 98.2278 180.422 98.2278 189.873C98.2278 199.325 91.3923 214.937 69.7046 214.937C48.0168 214.937 40.1687 199.494 40.1687 189.03V186.414H60.9282C60.9282 195.865 66.751 197.553 69.4514 197.553C74.4303 197.553 77.3839 193.502 77.3839 189.705C77.3839 184.304 73.924 182.954 61.3501 177.722C55.6117 175.443 41.3501 169.705 41.3501 154.346C41.3501 138.987 56.2868 130.295 70.0421 130.295C83.7974 130.295 86.8354 133.249 92.1518 139.578C97.0463 145.57 97.3839 151.055 97.5527 155.696" fill="#FEFEFE"/>
<path d="M131.561 152.067H140.422V165.991H131.561V213.333H113.164V165.991H104.051V152.067H113.164V131.646H131.561" fill="#FEFEFE"/>
<path d="M175.274 198.059C183.207 198.059 189.958 191.561 189.958 182.616C189.958 173.671 183.207 167.173 175.274 167.173C167.342 167.173 160.591 173.671 160.591 182.616C160.591 191.561 167.342 198.059 175.274 198.059ZM175.274 150.126C197.637 150.126 208.354 167.679 208.354 182.7C208.354 197.721 197.637 215.274 175.274 215.274C152.911 215.274 142.194 197.721 142.194 182.7C142.194 167.679 152.911 150.126 175.274 150.126Z" fill="#FEFEFE"/>
<path d="M214.262 152.068H231.561V158.566H231.814C233.333 155.612 236.54 149.958 247.173 149.958V168.355C238.65 168.608 232.658 170.38 232.658 179.578V213.249H214.262" fill="#FEFEFE"/>
<path d="M283.629 198.312C295.105 198.312 298.987 188.607 298.987 182.616C298.987 176.624 293.924 167.088 283.46 167.088C272.996 167.088 268.27 175.949 268.27 182.869C268.27 189.789 272.489 198.312 283.544 198.312H283.629ZM317.384 213.333H298.987V206.751H298.734C295.612 212.742 288.017 215.443 280.844 215.443C261.35 215.443 249.958 200.253 249.958 182.7C249.958 165.147 264.473 150.042 280.844 150.042C297.215 150.042 296.54 154.937 298.734 158.65H298.987V152.152H317.384" fill="#FEFEFE"/>
<path d="M356.625 198.228C365.485 198.228 371.646 191.814 371.646 183.038C371.646 174.261 364.895 167.257 356.709 167.257C348.523 167.257 341.857 173.586 341.857 182.447C341.857 191.308 348.945 198.228 356.54 198.228H356.625ZM390.042 205.907C390.042 215.021 389.367 220.928 386.414 226.076C381.688 233.839 370.464 240.506 355.274 240.506C340.085 240.506 325.823 227.679 324.641 218.987H345.907C348.523 225.063 355.443 225.063 356.625 225.063C358.987 225.063 371.561 224.81 371.561 208.439V206.582H371.308C369.452 210.126 364.135 215.274 354.515 215.274C337.806 215.274 323.544 202.7 323.544 183.038C323.544 163.375 338.566 150.042 354.515 150.042C370.464 150.042 368.101 152.489 371.477 157.806H371.73V152.067H390.127" fill="#FEFEFE"/>
<path d="M441.603 175.95C440.844 172.321 437.215 165.485 427.679 165.485C418.143 165.485 414.515 172.321 413.755 175.95H441.603ZM457.89 194.093C454.937 200.928 450.549 206.245 445.401 209.789C440.338 213.418 434.177 215.274 427.932 215.274C410.38 215.274 395.359 201.013 395.359 182.869C395.359 164.726 408.861 149.958 427.595 149.958C446.329 149.958 460 164.726 460 183.376C460 202.026 459.747 186.751 459.578 188.27H413.502C414.599 195.528 420.675 199.831 427.848 199.831C435.021 199.831 436.456 197.3 438.987 194.093" fill="#FEFEFE"/>
<path d="M458.565 207.595V209.367H459.325C459.662 209.367 460.422 209.367 460.422 208.439C460.422 207.511 459.747 207.68 459.409 207.68H458.565V207.595ZM459.662 206.498C460.844 206.498 461.941 207.004 461.941 208.27C461.941 209.536 461.772 209.367 460.928 209.789C461.35 209.958 461.772 210.296 461.856 211.224C461.856 212.321 461.856 212.405 462.025 212.743H460.506C460.422 212.49 460.338 211.477 460.338 211.224C460.338 210.886 460.253 210.296 459.24 210.296H458.65V212.658H457.131V206.498H459.747H459.662ZM455.021 209.705C455.021 212.152 456.962 214.177 459.409 214.177C461.857 214.177 463.797 212.237 463.797 209.705C463.797 207.173 461.941 205.232 459.494 205.232C457.046 205.232 455.105 207.258 455.105 209.705H455.021ZM464.979 209.705C464.979 212.827 462.447 215.275 459.409 215.275C456.371 215.275 453.84 212.743 453.84 209.705C453.84 206.667 456.287 204.135 459.409 204.135C462.532 204.135 464.979 206.667 464.979 209.705Z" fill="#FEFEFE"/>
</g>
<defs>
<clipPath id="clip0_6_15750">
<rect width="500" height="260.506" fill="white"/>
</clipPath>
</defs>
</svg>
