<svg width="500" height="84" viewBox="0 0 500 84" fill="none" xmlns="http://www.w3.org/2000/svg">
<path d="M209.546 31.5176H225.394L209.546 44.489L226.837 35.1234L209.91 54.5704L228.993 39.0815L213.145 65.0176L232.921 41.804L219.991 69.7004L236.198 44.1255L229.374 74.6806L240.163 46.1542L240.227 80.7379L209.396 63.6211" fill="#F9AB43"/>
<path d="M245.291 3.96484L274.002 26.0662L274.018 62.4054L241.397 81.5838L241.597 33.8635L226.965 20.2093L209.388 29.52L209.366 24.5552" fill="#EC333E"/>
<path d="M6.70912 39.5109C6.70912 32.6541 6.70912 31.3898 6.61881 29.9471C6.5285 28.414 6.16946 27.6959 4.68268 27.3788C4.31924 27.2885 3.55272 27.24 2.92277 27.24C2.42057 27.24 2.15625 27.1497 2.15625 26.8325C2.15625 26.522 2.46903 26.4316 3.14524 26.4316C5.53951 26.4316 8.37872 26.5638 9.32586 26.5638C10.8589 26.5638 14.2884 26.4316 15.6849 26.4316C18.5285 26.4316 21.5461 26.7003 23.9844 28.3655C25.2466 29.229 27.0549 31.5286 27.0549 34.5506C27.0549 37.8876 25.654 40.9537 21.0968 44.6541C25.11 49.7026 28.2245 53.7202 30.8875 56.5153C33.4096 59.1321 35.2598 59.4448 35.936 59.5814C36.4338 59.6717 36.8413 59.7135 37.2003 59.7135C37.5593 59.7135 37.7399 59.8523 37.7399 60.0748C37.7399 60.4382 37.4272 60.5286 36.8831 60.5286H32.6012C30.0747 60.5286 28.9426 60.3017 27.7752 59.6717C25.8347 58.6299 24.121 56.5153 21.5946 53.044C19.7862 50.5594 17.7135 47.4933 17.132 46.8149C16.9051 46.5462 16.6364 46.4977 16.3192 46.4977L12.3919 46.414C12.1695 46.414 12.0307 46.4977 12.0307 46.7686V47.4074C12.0307 51.5991 12.0307 55.1585 12.2532 57.055C12.3919 58.3612 12.6607 59.3545 14.0131 59.5351C14.6959 59.6299 15.6849 59.7135 16.2289 59.7135C16.588 59.7135 16.7686 59.8523 16.7686 60.0748C16.7686 60.3964 16.4514 60.5286 15.8633 60.5286C13.2466 60.5286 9.91176 60.3964 9.23555 60.3964C8.37872 60.3964 5.53951 60.5286 3.73114 60.5286C3.14524 60.5286 2.83246 60.3964 2.83246 60.0748C2.83246 59.8523 3.01308 59.7135 3.55272 59.7135C4.22893 59.7135 4.76858 59.6299 5.17607 59.5351C6.07915 59.3545 6.30603 58.3612 6.48004 57.055C6.70912 55.1585 6.70912 51.599 6.70912 47.4492V39.5109ZM12.0307 43.0726C12.0307 43.5704 12.121 43.7488 12.4382 43.8876C13.3853 44.1981 14.7377 44.3369 15.8633 44.3369C17.6717 44.3369 18.2598 44.1563 19.0681 43.5704C20.4206 42.577 21.7267 40.5044 21.7267 36.8039C21.7267 30.3964 17.4866 28.5506 14.8281 28.5506C13.7025 28.5506 12.8875 28.5947 12.4382 28.7312C12.121 28.8215 12.0307 28.9999 12.0307 29.3611" fill="#373535"/>
<path d="M44.8546 39.511C44.8546 32.6542 44.8546 31.3899 44.7643 29.9472C44.674 28.4142 44.315 27.6961 42.8238 27.3789C42.4648 27.2886 41.6983 27.2402 41.0639 27.2402C40.5683 27.2402 40.2974 27.1498 40.2974 26.8327C40.2974 26.5221 40.6145 26.4318 41.2908 26.4318C43.6806 26.4318 46.5242 26.5639 47.7886 26.5639C49.2269 26.5639 58.2027 26.5639 59.0595 26.522C59.9163 26.4317 60.6388 26.3415 61.0044 26.2512C61.2269 26.2049 61.4956 26.0728 61.7225 26.0728C61.9449 26.0728 61.9934 26.2512 61.9934 26.4737C61.9934 26.7908 61.7665 27.3305 61.6344 29.4076C61.5859 29.8569 61.4956 31.8393 61.4053 32.3833C61.3634 32.6124 61.2687 32.8811 60.956 32.8811C60.6388 32.8811 60.5507 32.6543 60.5507 32.2468C60.5507 31.9296 60.5066 31.1675 60.2797 30.6234C59.9626 29.8151 59.5132 29.2709 57.2555 29C56.489 28.9119 51.7533 28.8216 50.8546 28.8216C50.6278 28.8216 50.5375 28.9538 50.5375 29.271V40.6829C50.5375 41.0001 50.5793 41.1807 50.8546 41.1807C51.848 41.1807 57.0352 41.1807 58.0705 41.0904C59.1542 41.0001 59.826 40.8635 60.2379 40.4141C60.5507 40.0485 60.7291 39.8282 60.956 39.8282C61.1366 39.8282 61.2687 39.9163 61.2687 40.1873C61.2687 40.456 61.0463 41.1806 60.9097 43.4802C60.8194 44.3789 60.7291 46.1872 60.7291 46.4978C60.7291 46.8591 60.7291 47.3613 60.3216 47.3613C60.011 47.3613 59.9163 47.1806 59.9163 46.9538C59.8723 46.4978 59.8723 45.9119 59.7357 45.3304C59.5132 44.4273 58.8789 43.749 57.2137 43.5706C56.3568 43.4802 51.8899 43.4317 50.8062 43.4317C50.5793 43.4317 50.5375 43.6124 50.5375 43.8877V47.4494C50.5375 48.9824 50.4956 53.1322 50.5375 54.4384C50.6278 57.5529 51.3524 58.2291 55.9516 58.2291C57.1234 58.2291 59.0176 58.2291 60.1894 57.6851C61.3634 57.1454 61.9031 56.1983 62.2203 54.3481C62.304 53.8525 62.4009 53.6719 62.7181 53.6719C63.0771 53.6719 63.0771 54.0309 63.0771 54.4868C63.0771 55.5221 62.7181 58.5882 62.489 59.4935C62.1718 60.6653 61.7665 60.6652 60.0529 60.6652C53.2445 60.6652 50.2203 60.3966 47.5617 60.3966C46.5242 60.3966 43.6806 60.5287 41.8789 60.5287C41.2908 60.5287 40.9802 60.3965 40.9802 60.0749C40.9802 59.8524 41.1586 59.7137 41.6982 59.7137C42.3701 59.7137 42.9141 59.63 43.3216 59.5353C44.2247 59.3547 44.4472 58.3613 44.6278 57.0552C44.8546 55.1587 44.8546 51.5992 44.8546 47.4494" fill="#373535"/>
<path d="M78.4226 48.7557C78.1957 48.7557 78.1054 48.8459 78.0151 49.1147L75.579 55.564C75.1296 56.6962 74.9072 57.7798 74.9072 58.3195C74.9072 59.1323 75.308 59.7137 76.7089 59.7137H77.3873C77.9248 59.7137 78.0569 59.8107 78.0569 60.075C78.0569 60.4384 77.7882 60.5288 77.2904 60.5288C75.8543 60.5288 73.9138 60.3922 72.5173 60.3922C72.0217 60.3922 69.5415 60.5288 67.1891 60.5288C66.6076 60.5288 66.3389 60.4384 66.3389 60.075C66.3389 59.8107 66.5173 59.7137 66.8763 59.7137C67.2794 59.7137 67.9138 59.6719 68.2728 59.6257C70.3499 59.3548 71.2067 57.8217 72.1098 55.564L83.4292 27.2402C83.9688 25.9297 84.2375 25.4385 84.6913 25.4385C85.0988 25.4385 85.3697 25.846 85.819 26.8812C86.9027 29.3614 94.1186 47.7666 97.0041 54.6191C98.7221 58.6785 100.028 59.3129 100.973 59.5354C101.652 59.6719 102.328 59.7137 102.868 59.7137C103.227 59.7137 103.453 59.7622 103.453 60.075C103.453 60.4384 103.046 60.5288 101.381 60.5288C99.753 60.5288 96.4644 60.5288 92.8543 60.4384C92.0459 60.3922 91.5019 60.3922 91.5019 60.075C91.5019 59.8107 91.6803 59.7138 92.1362 59.6719C92.4534 59.5816 92.7706 59.1764 92.5415 58.6301L88.9314 49.0728C88.8411 48.8459 88.7089 48.7557 88.482 48.7557H78.4226ZM87.6208 46.5045C87.8477 46.5045 87.8962 46.3657 87.8477 46.2336L83.7882 35.086C83.7464 34.912 83.6979 34.683 83.5658 34.683C83.4292 34.683 83.3389 34.912 83.2904 35.086L79.1472 46.1873C79.0988 46.3658 79.1472 46.5045 79.3257 46.5045" fill="#373535"/>
<path d="M117.088 47.4492C117.088 53.2224 117.088 56.3369 118.039 57.1453C118.806 57.8215 119.978 58.1387 123.493 58.1387C125.883 58.1387 127.643 58.0924 128.771 56.8766C129.315 56.2884 129.854 55.0263 129.943 54.1695C129.991 53.762 130.081 53.4933 130.44 53.4933C130.758 53.4933 130.799 53.7202 130.799 54.2598C130.799 54.7554 130.489 58.1387 130.123 59.4449C129.854 60.4383 129.625 60.6651 127.284 60.6651C120.788 60.6651 117.81 60.3964 114.158 60.3964C113.123 60.3964 110.277 60.5286 108.476 60.5286C107.89 60.5286 107.573 60.3964 107.573 60.0748C107.573 59.8523 107.758 59.7135 108.295 59.7135C108.967 59.7135 109.511 59.6299 109.918 59.5351C110.817 59.3545 111.044 58.3612 111.225 57.055C111.451 55.1585 111.451 51.599 111.451 47.4492V39.5109C111.451 32.6541 111.451 31.3898 111.361 29.9471C111.273 28.414 110.912 27.6959 109.423 27.3788C109.062 27.2885 108.524 27.24 107.932 27.24C107.44 27.24 107.165 27.1497 107.165 26.8325C107.165 26.522 107.482 26.4316 108.158 26.4316C110.277 26.4316 113.123 26.5638 114.339 26.5638C115.423 26.5638 118.709 26.4316 120.476 26.4316C121.106 26.4316 121.416 26.522 121.416 26.8325C121.416 27.1497 121.147 27.24 120.608 27.24C120.11 27.24 119.392 27.2885 118.848 27.3788C117.632 27.599 117.273 28.3656 117.176 29.9471C117.088 31.3898 117.088 32.6541 117.088 39.5109" fill="#373535"/>
<path d="M145.284 28.9582L138.566 29.1388C135.949 29.2291 134.866 29.4493 134.189 30.4449C133.74 31.1211 133.511 31.6608 133.423 32.0198C133.333 32.3832 133.2 32.5639 132.925 32.5639C132.608 32.5639 132.518 32.3414 132.518 31.8392C132.518 31.1211 133.379 27.0176 133.469 26.6586C133.608 26.0661 133.74 25.7974 134.009 25.7974C134.374 25.7974 134.824 26.2511 135.949 26.3414C137.26 26.4736 138.967 26.5639 140.458 26.5639H158.322C161.207 26.5639 162.291 26.1145 162.65 26.1145C162.967 26.1145 163.015 26.3833 163.015 27.0617C163.015 28.0066 162.877 31.1211 162.877 32.2951C162.83 32.7445 162.74 33.0132 162.471 33.0132C162.11 33.0132 162.022 32.7907 161.974 32.1145L161.932 31.6167C161.841 30.4449 160.621 29.1806 156.608 29.0969L150.925 28.9582V47.4493C150.925 51.5991 150.925 55.163 151.152 57.1035C151.284 58.3656 151.555 59.3612 152.907 59.5352C153.542 59.6299 154.535 59.7203 155.207 59.7203C155.705 59.7203 155.932 59.8524 155.932 60.0749C155.932 60.392 155.573 60.5287 155.07 60.5287C152.099 60.5287 149.255 60.3921 147.991 60.3921C146.956 60.3921 144.117 60.5287 142.308 60.5287C141.722 60.5287 141.41 60.392 141.41 60.0749C141.41 59.8524 141.59 59.7203 142.128 59.7203C142.806 59.7203 143.344 59.6299 143.751 59.5352C144.656 59.3612 144.925 58.3657 145.057 57.0551C145.284 55.163 145.284 51.5991 145.284 47.4493" fill="#373535"/>
<path d="M179.286 48.8457C179.286 46.414 178.841 45.4207 178.251 44.1145C177.938 43.3898 171.89 33.4625 170.315 31.1211C169.185 29.4493 168.057 28.3237 167.202 27.8281C166.614 27.5153 165.848 27.24 165.304 27.24C164.945 27.24 164.632 27.1497 164.632 26.8391C164.632 26.5682 164.945 26.4316 165.489 26.4316C166.297 26.4316 169.687 26.5682 171.171 26.5682C172.119 26.5682 173.962 26.4316 175.997 26.4316C176.442 26.4316 176.669 26.5682 176.669 26.8391C176.669 27.1078 176.357 27.1497 175.68 27.3303C175.273 27.425 175.046 27.7797 175.046 28.1453C175.046 28.5044 175.273 29.0484 175.586 29.6783C176.224 31.0308 182.537 41.8986 183.255 43.1629C183.711 42.0792 189.394 32.1563 190.022 30.762C190.471 29.7731 190.652 28.9999 190.652 28.414C190.652 27.9647 190.471 27.4669 189.711 27.2885C189.304 27.1982 188.896 27.1078 188.896 26.8391C188.896 26.5219 189.119 26.4316 189.663 26.4316C191.154 26.4316 192.597 26.5682 193.903 26.5682C194.896 26.5682 197.872 26.4316 198.729 26.4316C199.227 26.4316 199.544 26.5219 199.544 26.7907C199.544 27.1078 199.178 27.24 198.687 27.24C198.233 27.24 197.376 27.425 196.7 27.7797C195.753 28.2334 195.255 28.7731 194.262 29.9955C192.777 31.7973 186.46 42.3964 185.645 44.3369C184.969 45.9603 184.969 47.3611 184.969 48.8457V52.5462C184.969 53.2708 184.969 55.1585 185.105 57.055C185.196 58.3612 185.603 59.3545 186.956 59.5351C187.59 59.6255 188.586 59.7135 189.213 59.7135C189.711 59.7135 189.934 59.8523 189.934 60.0748C189.934 60.392 189.572 60.5286 188.986 60.5286C186.147 60.5286 183.304 60.392 182.088 60.392C180.956 60.392 178.119 60.5286 176.442 60.5286C175.812 60.5286 175.453 60.4382 175.453 60.0748C175.453 59.8523 175.68 59.7135 176.178 59.7135C176.806 59.7135 177.352 59.6255 177.753 59.5351C178.656 59.3545 179.064 58.3612 179.154 57.055C179.286 55.1585 179.286 53.2708 179.286 52.5462" fill="#373535"/>
<path d="M289.733 39.5109C289.733 32.6541 289.733 31.3898 289.639 29.9471C289.548 28.414 289.099 27.6475 288.106 27.4206C287.614 27.2885 287.022 27.24 286.482 27.24C286.033 27.24 285.764 27.1497 285.764 26.7907C285.764 26.5219 286.123 26.4316 286.848 26.4316C288.559 26.4316 291.399 26.5638 292.709 26.5638C293.837 26.5638 296.5 26.4316 298.214 26.4316C298.795 26.4316 299.158 26.5219 299.158 26.7907C299.158 27.1497 298.89 27.24 298.436 27.24C297.987 27.24 297.625 27.2885 297.081 27.3788C295.865 27.599 295.506 28.3656 295.416 29.9471C295.321 31.3898 295.321 32.6541 295.321 39.5109V47.4492C295.321 51.8215 295.321 55.3854 295.506 57.3304C295.639 58.5462 295.956 59.3545 297.308 59.5351C297.938 59.6299 298.932 59.7135 299.608 59.7135C300.106 59.7135 300.332 59.8523 300.332 60.0748C300.332 60.3964 299.969 60.5286 299.471 60.5286C296.5 60.5286 293.656 60.3964 292.44 60.3964C291.399 60.3964 288.559 60.5286 286.758 60.5286C286.165 60.5286 285.854 60.3964 285.854 60.0748C285.854 59.8523 286.033 59.7135 286.573 59.7135C287.249 59.7135 287.788 59.6299 288.196 59.5351C289.099 59.3545 289.37 58.5881 289.506 57.2819C289.733 55.3854 289.733 51.8215 289.733 47.4492" fill="#373535"/>
<path d="M315.352 54.3924C315.44 57.9122 316.022 59.0862 316.927 59.4034C317.694 59.6721 318.551 59.7206 319.273 59.7206C319.771 59.7206 320.04 59.8109 320.04 60.0752C320.04 60.4386 319.639 60.529 319.004 60.529C316.07 60.529 314.269 60.3924 313.412 60.3924C313.004 60.3924 310.885 60.529 308.537 60.529C307.951 60.529 307.544 60.4805 307.544 60.0752C307.544 59.8109 307.819 59.7206 308.273 59.7206C308.855 59.7206 309.669 59.6721 310.297 59.4937C311.471 59.1325 311.652 57.8219 311.694 53.899L312.106 27.1985C312.106 26.2954 312.238 25.6655 312.687 25.6655C313.185 25.6655 313.59 26.2514 314.357 27.062C314.896 27.6479 321.753 34.9959 328.339 41.54C331.405 44.6061 337.495 51.1039 338.262 51.8219H338.489L338.035 31.5752C337.993 28.8219 337.586 27.9651 336.502 27.5157C335.826 27.247 334.747 27.247 334.119 27.247C333.568 27.247 333.388 27.1083 333.388 26.8329C333.388 26.4739 333.89 26.432 334.562 26.432C336.91 26.432 339.07 26.5642 340.022 26.5642C340.52 26.5642 342.233 26.432 344.443 26.432C345.029 26.432 345.478 26.4739 345.478 26.8329C345.478 27.1083 345.209 27.247 344.669 27.247C344.216 27.247 343.855 27.247 343.31 27.3791C342.053 27.7382 341.687 28.6832 341.645 31.2118L341.15 59.6721C341.15 60.6655 340.969 61.073 340.568 61.073C340.066 61.073 339.526 60.5708 339.029 60.0752C336.189 57.3725 330.418 51.4629 325.722 46.8153C320.806 41.9474 315.802 36.3065 314.991 35.4496H314.855" fill="#373535"/>
<path d="M355.099 56.2423C350.68 52.3656 349.506 47.3128 349.506 42.9405C349.506 39.8744 350.458 34.5506 354.782 30.5771C358.033 27.5991 362.315 25.7974 369.039 25.7974C371.83 25.7974 373.502 25.978 375.579 26.2511C377.297 26.4736 378.735 26.881 380.088 27.0176C380.586 27.0616 380.764 27.2885 380.764 27.5572C380.764 27.9163 380.632 28.4559 380.542 30.0374C380.447 31.5286 380.495 34.0066 380.405 34.9119C380.357 35.5881 380.268 35.9471 379.865 35.9471C379.506 35.9471 379.412 35.5881 379.412 34.9537C379.363 33.5572 378.782 31.9779 377.656 30.8039C376.165 29.229 372.645 28.0066 368.495 28.0066C364.572 28.0066 362.004 29 360.022 30.8039C356.727 33.8282 355.865 38.1101 355.865 42.4868C355.865 53.2225 364.033 58.5462 370.075 58.5462C374.088 58.5462 376.524 58.0925 378.328 56.0132C379.094 55.1586 379.687 53.8524 379.865 53.044C379.998 52.3238 380.088 52.1387 380.447 52.1387C380.764 52.1387 380.854 52.4559 380.854 52.815C380.854 53.3546 380.315 57.2819 379.865 58.815C379.639 59.5815 379.458 59.8106 378.691 60.1212C376.885 60.8414 373.458 61.163 370.572 61.163C364.392 61.163 359.207 59.8106 355.099 56.2423Z" fill="#373535"/>
<path d="M384.698 43.4801C384.698 35.7665 389.793 25.7974 403.326 25.7974C414.555 25.7974 421.548 32.3414 421.548 42.6652C421.548 52.9956 414.328 61.163 402.872 61.163C389.932 61.163 384.698 51.4625 384.698 43.4801ZM415.231 44.337C415.231 34.2291 409.412 27.9648 402.015 27.9648C396.83 27.9648 390.925 30.8502 390.925 42.0793C390.925 51.4626 396.11 58.9053 404.764 58.9053C407.925 58.9053 415.231 57.3722 415.231 44.337Z" fill="#373535"/>
<path d="M430.874 26.6125C431.011 25.8459 431.282 25.4385 431.641 25.4385C432 25.4385 432.269 25.6653 432.857 26.8327L445.167 52.2777L457.438 26.5221C457.755 25.7974 458.024 25.4385 458.432 25.4385C458.839 25.4385 459.108 25.8878 459.24 26.8327L463.343 54.7138C463.755 57.553 464.205 58.8592 465.557 59.2645C466.863 59.6719 467.766 59.7137 468.354 59.7137C468.762 59.7137 469.072 59.7622 469.072 60.031C469.072 60.3966 468.533 60.5288 467.898 60.5288C466.773 60.5288 460.55 60.3966 458.749 60.2535C457.707 60.1698 457.438 60.0309 457.438 59.7622C457.438 59.5353 457.617 59.4032 457.934 59.2645C458.205 59.1763 458.341 58.5883 458.156 57.3306L455.456 37.4803H455.275L445.443 57.9605C444.401 60.075 444.18 60.4803 443.773 60.4803C443.365 60.4803 442.916 59.5816 442.198 58.2292C441.108 56.1521 437.55 49.2534 437.006 47.9891C436.599 47.0442 433.892 41.3614 432.313 37.9781H432.136L429.791 55.9253C429.696 56.738 429.658 57.3305 429.658 58.0486C429.658 58.9054 430.24 59.3129 431.011 59.4935C431.819 59.672 432.449 59.7137 432.903 59.7137C433.264 59.7137 433.575 59.8107 433.575 60.031C433.575 60.4384 433.167 60.5288 432.498 60.5288C430.599 60.5288 428.575 60.3966 427.76 60.3966C426.903 60.3966 424.735 60.5288 423.293 60.5288C422.843 60.5288 422.484 60.4384 422.484 60.031C422.484 59.8107 422.753 59.7137 423.202 59.7137C423.564 59.7137 423.881 59.7138 424.557 59.5816C425.819 59.3129 426.185 57.553 426.401 56.02" fill="#373535"/>
<path d="M477.293 39.511C477.293 32.6542 477.293 31.3899 477.198 29.9472C477.108 28.4142 476.749 27.6961 475.264 27.3789C474.898 27.2886 474.132 27.2402 473.502 27.2402C473.006 27.2402 472.735 27.1498 472.735 26.8327C472.735 26.5221 473.048 26.4318 473.724 26.4318C476.119 26.4318 478.958 26.5639 480.222 26.5639C481.665 26.5639 490.641 26.5639 491.498 26.522C492.359 26.4317 493.079 26.3415 493.438 26.2512C493.66 26.2049 493.934 26.0728 494.163 26.0728C494.383 26.0728 494.431 26.2512 494.431 26.4737C494.431 26.7908 494.205 27.3305 494.072 29.4076C494.024 29.8569 493.934 31.8393 493.845 32.3833C493.797 32.6124 493.707 32.8811 493.39 32.8811C493.079 32.8811 492.989 32.6543 492.989 32.2468C492.989 31.9296 492.94 31.1675 492.718 30.6234C492.401 29.8151 491.947 29.2709 489.696 29C488.929 28.9119 484.191 28.8216 483.288 28.8216C483.061 28.8216 482.975 28.9538 482.975 29.271V40.6829C482.975 41.0001 483.017 41.1807 483.288 41.1807C484.282 41.1807 489.467 41.1807 490.509 41.0904C491.592 41.0001 492.264 40.8635 492.671 40.4141C492.989 40.0485 493.167 39.8282 493.39 39.8282C493.575 39.8282 493.707 39.9163 493.707 40.1873C493.707 40.456 493.48 41.1806 493.348 43.4802C493.257 44.3789 493.167 46.1872 493.167 46.4978C493.167 46.8591 493.167 47.3613 492.762 47.3613C492.445 47.3613 492.359 47.1806 492.359 46.9538C492.312 46.4978 492.312 45.9119 492.174 45.3304C491.947 44.4273 491.317 43.749 489.647 43.5706C488.79 43.4802 484.33 43.4317 483.246 43.4317C483.017 43.4317 482.975 43.6124 482.975 43.8877V47.4494C482.975 48.9824 482.929 53.1322 482.975 54.4384C483.061 57.5529 483.784 58.2291 488.39 58.2291C489.557 58.2291 491.449 58.2291 492.63 57.6851C493.797 57.1454 494.341 56.1983 494.654 54.3481C494.749 53.8525 494.839 53.6719 495.149 53.6719C495.511 53.6719 495.511 54.0309 495.511 54.4868C495.511 55.5221 495.149 58.5882 494.929 59.4935C494.612 60.6653 494.205 60.6652 492.491 60.6652C485.683 60.6652 482.658 60.3966 480 60.3966C478.958 60.3966 476.119 60.5287 474.317 60.5287C473.724 60.5287 473.414 60.3965 473.414 60.0749C473.414 59.8524 473.592 59.7137 474.132 59.7137C474.808 59.7137 475.348 59.63 475.755 59.5353C476.658 59.3547 476.885 58.3613 477.066 57.0552C477.293 55.1587 477.293 51.5992 477.293 47.4494" fill="#373535"/>
</svg>
