<svg width="500" height="206" viewBox="0 0 500 206" fill="none" xmlns="http://www.w3.org/2000/svg">
<g clip-path="url(#clip0_6_15211)">
<path fill-rule="evenodd" clip-rule="evenodd" d="M31.25 81.4389V90.6549H3.14233V81.4389H11.0926V9.20025H3.14233V0H42.0498C66.927 0 73.8539 12.3929 73.8539 24.9591C73.8539 35.3747 68.4383 45.3023 55.5195 47.7676C63.0731 49.1373 64.7922 52.437 67.6732 59.5875L74.2695 81.4389H82.3268V90.6549H64.704L55.5542 61.653C51.4925 52.9723 45.381 51.6184 35.2078 51.6184H23.1959V81.4389H31.25ZM23.2651 42.4213H37.2733C52.8999 42.4213 61.2846 36.6404 61.2846 26.2091C61.2846 14.5277 52.9503 9.21599 37.2733 9.21599H23.1959L23.2651 42.4213Z" fill="#E6602C"/>
<path fill-rule="evenodd" clip-rule="evenodd" d="M144.235 71.1305C141.354 85.0159 131.042 92.2892 113.992 92.2892C94.2002 92.2892 82.3772 79.5121 82.3772 59.3106C82.3772 39.6601 95.0346 26.332 114.27 26.332C134.48 26.332 146.023 39.106 146.023 62.0688H94.2002C94.619 75.9385 102.327 83.9737 114.411 83.9737C125.139 83.9737 132.154 79.0272 133.804 71.0424H144.219M134.185 53.684C132.446 41.0487 125.504 34.4555 114.254 34.4555C103.004 34.4555 95.4156 41.3982 94.4616 53.684H134.185Z" fill="#E6602C"/>
<path fill-rule="evenodd" clip-rule="evenodd" d="M288.196 71.1305C285.312 85.0159 275 92.2892 257.95 92.2892C238.161 92.2892 226.338 79.5121 226.338 59.3106C226.338 39.6601 238.977 26.332 258.23 26.332C278.438 26.332 289.981 39.106 289.981 62.0688H238.196C238.611 75.9542 246.304 84.0619 258.404 84.0619C269.096 83.9737 276.127 79.0965 277.777 71.1305H288.196ZM278.161 53.7722C276.511 41.1368 269.48 34.5405 258.23 34.5405C246.98 34.5405 239.392 41.4832 238.438 53.7722H278.161Z" fill="#E6602C"/>
<path d="M294.15 82.7586H300.346V36.5904H294.185V28.3442H311.077V39.1912C314.965 29.9406 323.577 26.6943 332.796 26.6943C348.004 26.6943 357.639 33.9676 357.639 49.2605V82.7586H363.231V91.0048H340.989V82.7586H346.458V49.2605C346.458 39.7831 339.081 34.9752 330 34.9752C319.15 34.9752 311.442 42.387 311.442 54.7611V82.7586H317.412V91.0048H294.15V82.7586Z" fill="#E6602C"/>
<path fill-rule="evenodd" clip-rule="evenodd" d="M183.004 91.6116C164.931 91.6116 153.038 78.7653 153.038 59.0298C153.038 39.1053 164.723 26.3125 183.558 26.3125C193.454 26.3125 201.354 30.6702 205.45 39.9208V27.9781H223.785V36.2243H216.181V86.2464C216.181 105.894 206.146 115.113 184.704 115.113C166.285 115.113 157.481 109.609 156.65 96.2779H167.796C169.304 103.97 174.254 106.867 184.15 106.867C199.411 106.867 204.981 100.947 204.981 86.2464V78.7653C200.589 87.1154 195.504 91.6809 182.935 91.6809M184.877 35.2703C172.727 35.201 164.931 44.0518 164.931 59.0298C164.931 73.7338 172.881 82.9844 185.261 82.9844C197.412 82.9844 204.531 73.4882 204.531 59.2029C204.531 44.9208 196.911 35.201 184.947 35.201L184.877 35.2703Z" fill="#E6602C"/>
<path d="M415.781 69.6185C414.411 78.1418 407.95 83.3497 398.419 83.3497C386.735 83.3497 379.027 74.5493 379.027 59.1683C379.027 43.7905 386.7 35.3742 398.523 35.2703C407.777 35.4246 414.15 40.5978 415.434 48.9825H425.85C423.803 33.7936 414.515 26.4164 398.073 26.3125H397.865C379.288 26.4164 367.273 39.1557 367.273 59.1525C367.273 79.6343 379.427 92.2697 398.196 92.2697C414.827 92.2697 424.235 84.8578 426.231 69.6028H415.815" fill="#E6602C"/>
<path d="M426.077 27.9785H451.804V36.2247H445.035L463.02 76.4231L480.904 36.2247H473.958V27.9785H498.611V36.2247H492.169L463.681 100.013C460.381 107.84 456.058 113.898 444.131 113.898C443.593 113.879 443.054 113.854 442.516 113.816C441.98 113.778 441.442 113.731 440.907 113.674C440.371 113.615 439.836 113.548 439.304 113.47C438.769 113.391 438.237 113.303 437.708 113.202V104.282C438.149 104.386 438.589 104.477 439.033 104.559C439.477 104.641 439.924 104.71 440.372 104.767C440.822 104.827 441.269 104.871 441.719 104.905C442.169 104.94 442.623 104.965 443.073 104.975C444.131 105.019 445.192 104.902 446.215 104.628C447.239 104.351 448.212 103.923 449.106 103.353C450 102.783 450.8 102.081 451.483 101.269C452.163 100.46 452.717 99.5497 453.127 98.5704L456.927 89.8929L432.623 36.0862H425.973V27.9785" fill="#E6602C"/>
<path fill-rule="evenodd" clip-rule="evenodd" d="M153.769 184.314C150.885 198.183 140.627 205.472 123.523 205.472C103.731 205.472 91.9113 192.698 91.9113 172.494C91.9113 152.846 104.55 139.515 123.804 139.515C144.011 139.515 155.554 152.292 155.554 175.236H103.731C104.15 189.122 111.839 197.229 123.942 197.229C134.669 197.229 141.685 192.283 143.334 184.314H153.75M143.715 166.958C141.981 154.323 135.035 147.708 123.785 147.708C112.535 147.708 104.947 154.651 103.992 166.958H143.715Z" fill="#DC9B19"/>
<path d="M162.431 195.579H168.593V149.392H162.431V141.149H179.323V151.996C183.23 142.746 191.839 139.5 201.042 139.5C216.303 139.5 225.885 146.773 225.885 162.062V195.579H231.477V203.738H209.254V195.579H214.739V162.081C214.739 152.585 207.342 147.796 198.281 147.796C187.431 147.796 179.723 155.208 179.723 167.582V195.579H185.765V203.738H162.431V195.579Z" fill="#DC9B19"/>
<path fill-rule="evenodd" clip-rule="evenodd" d="M353.419 184.314C350.52 198.199 340.227 205.472 323.177 205.472C303.385 205.472 291.562 192.698 291.562 172.494C291.562 152.846 304.2 139.515 323.454 139.515C343.662 139.515 355.208 152.292 355.208 175.236H303.369C303.785 189.122 311.477 197.229 323.577 197.229C334.304 197.229 341.304 192.283 342.95 184.314H353.369M343.334 166.958C341.596 154.323 334.654 147.708 323.404 147.708C312.154 147.708 304.566 154.651 303.612 166.958H343.334Z" fill="#DC9B19"/>
<path d="M385.869 195.649V203.895H360.45V195.649H367.692V149.48H360.45V141.253H378.473V151.666C383.419 142.988 389.739 139.515 399.635 139.515C406.581 139.515 408.212 141.999 408.577 142.103V152.047C407.343 152.151 404.669 148.438 398.696 148.438C388.593 148.438 378.907 157.377 378.907 173.171V195.737H385.954" fill="#DC9B19"/>
<path d="M500 193.029C500 188.325 497.166 184.084 492.818 182.283C488.473 180.485 483.47 181.48 480.142 184.805C476.817 188.13 475.822 193.133 477.623 197.478C479.421 201.823 483.662 204.657 488.369 204.657C489.896 204.657 491.407 204.357 492.818 203.772C494.232 203.186 495.513 202.33 496.593 201.25C497.673 200.17 498.53 198.888 499.115 197.478C499.698 196.067 500 194.556 500 193.029Z" fill="#DC9B19"/>
<path d="M442.535 204.761C457.031 204.761 468.334 197.818 468.334 186.067C468.334 178.967 464.861 169.562 447.692 166.974C446.127 166.732 435.208 165.239 434.027 164.997C428.369 164.077 424.688 161.247 424.688 156.681C424.688 152.116 428.161 148.315 437.135 148.315C451.492 148.315 454.269 154.773 455.765 157.601H464.6V141.253H455.765V144.723C452.796 143.215 449.027 140.176 436.388 140.176C422.015 140.176 413.558 148.23 413.558 158.574C413.558 165.708 417.865 173.848 431.492 175.828L444.896 177.824C453.196 179.04 457.188 181.782 457.188 187.021C457.188 192.264 451.423 196.152 440.781 196.152C426.042 196.152 421.684 189.817 421.684 184.817V183.848H412.761V203.737H421.7V199.087C424.446 200.941 428.646 204.83 442.535 204.83" fill="#DC9B19"/>
<path d="M83.8193 173.951C81.8231 194.244 67.0151 205.195 44.7229 205.195C18.1423 205.195 0 188.117 0 160.066C0 132.018 18.1266 114.679 43.9232 114.679C63.7311 114.679 71.5271 123.876 73.4383 125.768V119.329H82.9345V147.1H72.9156C72.0151 140.434 66.8042 124.433 44.6348 124.433C25.5384 124.433 13.3848 137.087 13.3848 158.989C13.3848 182.613 26.1115 194.175 45.4849 194.175C58.5768 194.175 68.2998 188.69 71.5271 173.936H83.8035" fill="#DC9B19"/>
<path d="M278.142 184.314C277.638 190.756 275.365 197.229 266.162 197.229C257.742 197.229 254.669 191.829 254.669 184.194V149.723H279.981V141.477H254.842V122.576L243.696 126.845V141.496H234.046V149.739H243.819V184.194C243.819 197.453 251.65 205.491 266.285 205.491C284.842 205.491 288.454 192.906 288.577 184.333H278.161" fill="#DC9B19"/>
</g>
<defs>
<clipPath id="clip0_6_15211">
<rect width="500" height="205.605" fill="white"/>
</clipPath>
</defs>
</svg>
