<svg width="500" height="161" viewBox="0 0 500 161" fill="none" xmlns="http://www.w3.org/2000/svg">
<path d="M481.881 132.216C481.881 145.685 471.926 156.592 459.672 156.592H25.5652C13.3108 156.592 3.35413 145.685 3.35413 132.216V29.2683C3.35413 15.7727 13.3108 4.86523 25.5652 4.86523H459.672C471.926 4.86523 481.881 15.7727 481.881 29.242V132.216Z" fill="white"/>
<path fill-rule="evenodd" clip-rule="evenodd" d="M25.5651 159.973H459.672C473.774 159.973 485.237 147.507 485.237 132.216V29.2686C485.237 13.9505 473.774 1.51123 459.672 1.51123H25.5651C11.4621 1.51123 0 13.9505 0 29.2686V132.216C0 147.534 11.4621 159.973 25.5651 159.973ZM6.73463 29.2686C6.73463 17.6743 15.1859 8.24586 25.5651 8.24586H459.672C470.077 8.24586 478.528 17.6743 478.528 29.2686V132.216C478.528 143.81 470.077 153.239 459.672 153.239H25.5651C15.1859 153.239 6.73463 143.81 6.73463 132.216V29.2686Z" fill="#004B8E"/>
<path d="M466.379 120.912C466.379 132.453 456.714 141.803 444.777 141.803H353.502C341.565 141.803 331.898 132.453 331.898 120.912V40.7567C331.898 29.2153 341.565 19.8662 353.502 19.8662H444.777C456.714 19.8662 466.379 29.2419 466.379 40.7567V120.912Z" fill="#1FB25A"/>
<path d="M106.935 50.5023L98.4839 67.1672L97.0314 66.3221C97.0579 65.9788 97.0842 65.6884 97.0842 65.5035C97.0842 64.3149 96.0807 63.0737 94.0735 61.7268C87.92 57.4484 80.71 55.3091 72.417 55.3091C68.746 55.3091 65.5239 55.7582 62.7244 56.6561C60.6909 57.3426 59.027 58.3726 57.7858 59.7723C56.5181 61.1458 55.8842 62.6512 55.8842 64.2886C55.8842 66.9561 57.4953 68.7519 60.6909 69.7291C62.3546 70.2309 65.9202 70.7328 71.3607 71.2872L79.4951 72.1323C84.3281 72.6607 88.2367 73.3472 91.2212 74.2454C94.2056 75.1433 96.873 76.4109 99.1707 78.0219C101.521 79.7121 103.37 81.957 104.743 84.7037C106.117 87.4505 106.777 90.4084 106.777 93.5512C106.777 98.5163 105.166 102.927 101.944 106.809C99.0386 110.322 94.5226 112.936 88.4216 114.627C83.8528 115.894 78.9667 116.528 73.7639 116.528C64.3884 116.528 55.1712 114.283 46.0332 109.793C44.1051 108.896 42.9433 108.447 42.5735 108.447C42.1244 108.447 41.4114 108.843 40.4342 109.582L38.9288 108.816L46.5877 91.4649L48.0932 92.2042V92.8644C48.0932 94.4228 48.8326 95.8488 50.3116 97.1693C52.5565 99.1765 56.0426 100.893 60.7172 102.346C65.4184 103.798 69.8816 104.511 74.0809 104.511C78.6763 104.511 82.6114 103.746 85.86 102.187C87.6558 101.316 89.0819 100.18 90.1649 98.754C91.2477 97.3279 91.7758 95.8488 91.7758 94.2907C91.7758 91.9402 90.5081 90.2763 87.9991 89.2728C86.2298 88.5861 82.6907 87.9521 77.3293 87.3449L69.3535 86.5261C63.9921 85.9714 60.2156 85.4433 57.997 84.9414C55.7786 84.4395 53.56 83.6472 51.3681 82.5382C48.2251 80.98 45.7691 78.6558 43.9467 75.5393C42.3358 72.7398 41.517 69.5179 41.517 65.8995C41.517 59.9044 43.577 54.9658 47.697 51.057C53.0846 45.907 61.1663 43.3188 71.9416 43.3188C76.4579 43.3188 80.6835 43.7677 84.5923 44.6921C88.5009 45.6165 93.3605 47.3068 99.1972 49.7628C101.204 50.5551 102.419 50.9514 102.868 50.9514C103.608 50.9514 104.453 50.5551 105.403 49.7628L106.856 50.5551L106.935 50.5023Z" fill="#004B8E"/>
<path fill-rule="evenodd" clip-rule="evenodd" d="M191.184 78.1806C199.134 81.1913 203.095 86.7376 203.095 94.8717C203.095 101.316 200.771 106.387 196.15 110.058C193.799 111.88 191.079 113.201 187.989 114.019C184.899 114.838 181.069 115.234 176.527 115.234H128.169V113.57C129.41 113.227 130.282 112.778 130.757 112.223C131.233 111.669 131.47 110.85 131.47 109.794V49.9478C131.47 48.865 131.233 48.0727 130.757 47.5183C130.282 46.9636 129.41 46.5145 128.169 46.1713V44.5073H176.051C180.647 44.5073 184.344 44.8508 187.144 45.5373C189.943 46.2241 192.399 47.4124 194.512 49.0499C198.685 52.3248 200.798 57.0787 200.798 63.2587C200.798 70.1517 197.602 75.1434 191.211 78.1806H191.184ZM146.947 72.6343H174.044C178.164 72.6343 181.016 72.0269 182.654 70.812C184.476 69.4387 185.4 67.2994 185.4 64.3943C185.4 61.4892 184.529 59.2971 182.812 58.0559C181.069 56.7883 178.164 56.1543 174.044 56.1543H146.947V72.6343ZM173.173 103.561H146.947V84.2813H173.173C178.085 84.2813 181.571 84.968 183.684 86.315C186.113 87.8994 187.355 90.4085 187.355 93.9211C187.355 97.4336 186.14 99.969 183.684 101.527C181.544 102.874 178.058 103.561 173.173 103.561Z" fill="#004B8E"/>
<path fill-rule="evenodd" clip-rule="evenodd" d="M241.733 97.1959H273.874V97.2224L278.735 107.179C279.421 108.579 279.765 109.635 279.765 110.375C279.765 112.118 278.628 113.201 276.33 113.57V115.234H302.372V113.57C300.919 113.28 299.784 112.725 298.912 111.88C298.039 111.035 297.037 109.45 295.9 107.153L268.963 52.6417C268.328 51.3741 267.986 50.2385 267.986 49.2348C267.986 47.7822 269.016 46.7522 271.049 46.1713V44.5073H245.958V46.1713C247.967 46.8578 248.97 47.9936 248.97 49.5783C248.97 50.6083 248.574 52.0078 247.728 53.7245L221.715 108.077C220.79 110.084 219.945 111.431 219.232 112.118C218.493 112.805 217.436 113.306 216.063 113.57V115.234H239.463V113.57C237.165 112.989 236.002 111.959 236.002 110.428C236.002 109.609 236.319 108.526 236.979 107.153L241.733 97.1959ZM257.977 62.308L269.437 87.5034H246.328L257.977 62.308Z" fill="#004B8E"/>
<path d="M371.884 98.6486C370.695 98.6486 369.533 98.1467 368.714 97.1695C367.235 95.4265 367.472 92.7856 369.216 91.333C371.988 89.0088 373.6 85.6546 373.6 82.1158C373.6 78.5767 372.016 75.249 369.216 72.8986C367.472 71.4195 367.235 68.8314 368.714 67.0618C370.193 65.3188 372.781 65.1074 374.551 66.56C379.2 70.4688 381.867 76.1469 381.867 82.0893C381.867 88.0316 379.2 93.7363 374.526 97.6449C373.758 98.3053 372.807 98.6221 371.884 98.6221V98.6486Z" fill="white"/>
<path d="M389.314 115.683C388.233 115.683 387.123 115.234 386.305 114.389C384.719 112.725 384.798 110.111 386.463 108.553C393.858 101.554 397.923 92.1781 397.923 82.1421C397.923 72.1063 393.858 62.757 386.463 55.7584C384.798 54.1737 384.719 51.5591 386.305 49.9216C387.888 48.2577 390.502 48.1786 392.14 49.763C401.2 58.32 406.191 69.8349 406.191 82.1686C406.191 94.5021 401.2 106.017 392.14 114.6C391.349 115.34 390.319 115.736 389.288 115.736L389.314 115.683Z" fill="white"/>
<path d="M406.772 132.718C405.688 132.718 404.607 132.321 403.814 131.476C402.202 129.839 402.256 127.224 403.893 125.613C415.751 114.072 422.274 98.6218 422.274 82.1155C422.274 65.609 415.726 50.1853 403.893 38.6176C402.256 37.033 402.202 34.3921 403.814 32.7546C405.398 31.1172 408.014 31.0907 409.651 32.6753C423.119 45.8014 430.567 63.3641 430.567 82.089C430.567 100.814 423.146 118.403 409.651 131.529C408.858 132.295 407.802 132.691 406.772 132.691V132.718Z" fill="white"/>
<path fill-rule="evenodd" clip-rule="evenodd" d="M497.86 147.005C496.407 145.553 494.691 144.84 492.684 144.84C490.651 144.84 488.907 145.579 487.481 147.005C486.028 148.458 485.316 150.175 485.316 152.208C485.316 154.242 486.056 155.985 487.481 157.411C488.907 158.864 490.651 159.577 492.684 159.577C494.719 159.577 496.435 158.837 497.86 157.411C499.286 155.959 500 154.242 500 152.208C500 150.175 499.286 148.432 497.86 147.005ZM488.116 147.534C489.384 146.24 490.914 145.606 492.684 145.606C494.453 145.606 495.986 146.24 497.228 147.534C498.467 148.801 499.102 150.36 499.102 152.182C499.102 154.004 498.495 155.562 497.228 156.857C495.986 158.151 494.479 158.784 492.684 158.784C490.888 158.784 489.384 158.151 488.116 156.857C486.847 155.562 486.214 154.004 486.214 152.182C486.214 150.36 486.847 148.828 488.116 147.534ZM489.384 156.223V148.009H493.423C495.088 148.009 495.933 148.801 495.933 150.412C495.933 151.574 495.563 152.288 494.798 152.552C495.484 152.789 495.8 153.318 495.8 154.136V156.249H494.719V154.348C494.719 153.476 494.321 153.027 493.502 153.027H490.414V156.223H489.384ZM493.133 152.05H490.465V152.024V148.96H493.451C494.058 148.96 494.428 149.065 494.612 149.277C494.798 149.488 494.877 149.937 494.877 150.624C494.877 151.575 494.295 152.05 493.133 152.05Z" fill="#004B8E"/>
</svg>
