<svg width="500" height="196" viewBox="0 0 500 196" fill="none" xmlns="http://www.w3.org/2000/svg">
<path d="M278.151 0L189.622 64.5833L155.328 39.75L189.622 14.3333L213.986 32.5833L223.915 25.4167L189.622 0L135.386 39.75L189.622 79L278.151 14.3333L312.444 39.75L278.151 64.5833L253.786 46.9167L243.857 54.0833L278.151 79L332.386 39.75L278.151 0Z" fill="black"/>
<path d="M73.8506 135.067C62.7772 129.572 51.2042 126.241 39.6312 126.241C31.8881 126.241 25.8102 127.324 21.9803 128.989C17.5676 130.654 15.9024 133.402 15.9024 136.732C15.9024 140.062 18.1504 142.81 22.5632 143.892C25.8935 144.975 30.8058 145.557 38.0493 146.14C48.5399 146.723 55.7002 147.223 59.0305 147.805C68.4388 148.888 75.5991 151.635 80.0118 154.966C84.4245 158.296 86.6725 163.208 86.6725 169.286C86.6725 177.529 83.3421 183.607 76.1819 188.019C69.0216 192.432 58.531 194.68 45.2928 194.68C25.9768 194.68 10.4906 190.267 0 182.025L7.16026 172.617C19.3161 179.777 31.9714 183.69 45.7924 183.69C54.6178 183.69 61.7781 182.608 66.7736 179.86C71.1863 177.612 73.9339 174.365 73.9339 169.952C73.9339 164.957 70.6035 161.71 64.5256 160.044C61.1953 158.962 52.3698 158.379 38.5489 157.297C25.8935 156.215 16.9848 154.549 12.0725 152.301C5.99464 149.554 3.2471 144.558 3.2471 137.398C3.2471 130.238 6.57745 124.743 13.1549 120.247C18.65 117.499 28.0582 115.834 40.214 115.834C56.7826 115.834 70.6035 119.664 81.5937 126.907L73.8506 135.067Z" fill="black"/>
<path d="M116.895 117.416H104.24V193.597H116.895V117.416Z" fill="black"/>
<path d="M245.53 193.597H232.792V131.237H232.292L193.077 180.859L153.862 131.237H153.363V193.597H140.624V117.416H156.61L193.077 163.208L229.545 117.416H245.53V193.597Z" fill="black"/>
<path d="M349.271 155.465C349.271 146.64 345.441 139.48 337.698 133.901C331.62 128.906 323.377 126.741 313.969 126.741C303.478 126.741 294.653 129.488 287.992 134.984C281.331 140.479 278.084 147.139 278.084 155.382C278.084 164.207 281.415 170.868 287.992 176.363C294.653 181.858 303.478 184.106 313.969 184.106C325.042 184.106 333.285 181.359 339.946 176.363C345.94 170.951 349.271 163.791 349.271 155.465ZM362.509 155.465C362.509 168.121 357.513 178.112 347.023 185.855C338.197 192.515 327.124 195.763 313.386 195.763C300.148 195.763 288.575 192.432 279.75 185.855C269.259 178.112 264.263 168.204 264.263 155.465C264.263 143.309 269.259 133.402 279.75 125.659C289.158 118.998 300.148 115.168 313.386 115.168C326.624 115.168 337.698 118.498 346.523 125.659C357.597 132.819 362.509 143.309 362.509 155.465Z" fill="black"/>
<path d="M455.842 117.416V179.776L397.311 117.416H381.825V193.597H394.564V131.237L452.512 193.597H468.498V117.416H455.842Z" fill="black"/>
<path d="M489.386 114.092C484.932 114.092 481.067 117.958 481.067 122.412C481.067 126.866 484.932 130.731 489.386 130.731C493.84 130.731 497.706 126.866 497.706 122.412C497.79 117.958 494.428 114.092 489.386 114.092ZM489.386 133C483.84 133 479.386 128.546 479.386 123C479.386 117.454 483.84 113 489.386 113C494.932 113 499.386 117.454 499.386 123C499.386 128.546 494.932 133 489.386 133ZM491.655 128.546H493.336L490.563 124.092C492.243 123.504 493.336 122.412 493.336 120.731C493.336 119.05 492.243 117.37 489.974 117.37H486.109V128.546H487.79V124.092H489.47L491.655 128.546ZM487.706 122.496V118.63H489.974C491.067 118.63 492.243 119.219 492.243 120.311C492.243 121.403 491.655 121.992 489.974 121.992H487.706V122.496Z" fill="black"/>
</svg>
