<svg width="500" height="126" viewBox="0 0 500 126" fill="none" xmlns="http://www.w3.org/2000/svg">
<path d="M14.2771 114.815L66.0394 100.687L10.3345 124.851L14.2771 114.815Z" fill="black"/>
<path d="M99.5221 124.851H89.994L50.2688 24.313L10.3345 124.851H0L50.2688 0L99.5221 124.851Z" fill="url(#paint0_linear_6_15204)"/>
<path d="M167.533 83.2737L183.124 44.355H190.353L167.533 99.8807L144.713 44.5043H151.942L167.533 83.2737Z" fill="black"/>
<path d="M210.902 44.355H239.158V50.4183H217.473V67.3538H238.501V73.4171H217.473V91.159H239.158V97.2522H210.902V44.355Z" fill="black"/>
<path d="M264.098 41.9058L303.524 83.2737V44.355H310.095V99.0444L270.669 57.6764V96.9237H264.098V41.9058Z" fill="black"/>
<path d="M350.986 97.073H344.414V50.4183H330.974V44.355H364.456V50.4183H350.986V97.073Z" fill="black"/>
<path fill-rule="evenodd" clip-rule="evenodd" d="M424.104 97.0727H417.025L410.962 83.9604H410.783L410.633 83.4526H387.306L387.127 83.9604H386.977L380.884 97.0727H373.835L398.955 42.2041L424.104 97.0727ZM399.134 56.5111L389.934 77.3893H408.184L399.134 56.5111Z" fill="black"/>
<path d="M465.323 54.3906C463.351 51.1051 460.872 49.4623 456.929 49.4623C452.837 49.4623 448.058 52.2401 448.058 56.8399C448.058 60.9319 452.18 63.0824 455.466 64.3966L459.229 65.8602C466.637 68.8172 472.222 72.939 472.222 81.6308C472.222 91.1589 464.815 98.0884 455.466 98.0884C446.923 98.0884 440.352 91.8458 439.188 83.2736L445.759 81.9892C445.759 87.724 450.358 91.9952 455.944 91.9952C461.529 91.9952 465.651 87.2461 465.651 81.81C465.651 76.2246 461.051 73.7455 456.601 71.804L452.987 70.3106C446.923 67.6822 441.487 64.2174 441.487 57.0191C441.487 48.4468 449.044 43.3691 456.929 43.3691C462.843 43.3691 467.622 46.1768 470.4 51.2544L465.323 54.3906Z" fill="black"/>
<path fill-rule="evenodd" clip-rule="evenodd" d="M492.324 59.1399C488.112 59.1399 484.707 55.7349 484.707 51.4935C484.707 47.2821 488.112 43.8472 492.324 43.8472C496.565 43.8472 499.97 47.2821 499.97 51.4935C499.97 55.7349 496.565 59.1399 492.324 59.1399ZM498.984 51.4338C498.984 47.7002 495.968 44.6835 492.264 44.6835C488.53 44.6835 485.514 47.7002 485.514 51.4338C485.514 55.1375 488.53 58.1542 492.264 58.1542C495.968 58.1542 498.984 55.1375 498.984 51.4338ZM496.027 55.8543H494.892L492.413 52.0909H490.442V55.8543H489.456V47.4911H493.07C495.221 47.4911 496.027 48.2976 496.027 49.6118C496.027 51.2546 494.892 51.9117 493.399 51.9117L496.027 55.8543ZM492.085 51.0754C493.25 51.0754 495.221 51.2546 495.221 49.7611C495.221 48.6261 494.056 48.4469 492.921 48.4469H490.442V51.0754H492.085Z" fill="black"/>
<defs>
<linearGradient id="paint0_linear_6_15204" x1="0.0597372" y1="62.3955" x2="99.4624" y2="62.3955" gradientUnits="userSpaceOnUse">
<stop offset="0.1" stop-color="#17629E"/>
<stop offset="0.3" stop-color="#0C79B4"/>
<stop offset="0.6" stop-color="#0098D2"/>
<stop offset="0.7" stop-color="#00A7E1"/>
</linearGradient>
</defs>
</svg>
