<svg width="500" height="157" viewBox="0 0 500 157" fill="none" xmlns="http://www.w3.org/2000/svg">
<g clip-path="url(#clip0_6_15202)">
<path fill-rule="evenodd" clip-rule="evenodd" d="M0 2.37946H36.6938L76.3932 108.704L115.905 2.37946H151.816L90.67 154.195H61.1459L0 2.37946ZM268.785 78.8979V78.3657C268.629 68.0025 270.57 57.7019 274.483 48.0902C278.428 38.4784 284.252 29.7746 291.641 22.4796C298.998 15.1847 307.796 9.45523 317.439 5.66687C327.082 1.84721 337.414 0.0313063 347.777 0.313085C376.425 0.313085 393.488 9.76831 407.858 23.4189L386.694 47.871C374.734 37.2887 362.743 30.9956 347.652 30.9956C322.041 30.9956 303.694 52.0351 303.694 77.9274V78.3031C303.694 104.164 321.666 125.704 347.652 125.704C364.966 125.704 375.36 118.817 387.477 108.046L408.704 129.368C404.884 133.782 400.595 137.758 395.867 141.234C391.171 144.709 386.099 147.621 380.745 149.937C375.391 152.254 369.787 153.976 364.026 155.041C358.297 156.105 352.442 156.512 346.619 156.262C336.381 156.481 326.205 154.634 316.688 150.814C307.201 147.026 298.529 141.327 291.265 134.095C284.001 126.894 278.272 118.284 274.421 108.798C270.539 99.3112 268.629 89.1359 268.785 78.8979ZM240.983 4.60238C240.983 4.60238 226.456 6.04257 226.456 26.0488V130.526C226.456 150.689 241.077 151.972 241.077 151.972V154.195H176.362V151.972C176.362 151.972 190.764 150.689 190.764 130.526V26.0488C190.764 6.04257 176.362 4.60238 176.362 4.60238V2.37946H241.077V4.91546L240.983 4.60238ZM499.656 4.60238C499.656 4.60238 485.254 6.04257 485.254 26.0488V130.526C485.254 150.689 499.875 151.972 499.875 151.972V154.195H435.16V151.972C435.16 151.972 449.436 150.689 449.436 130.526V26.0488C449.436 6.04257 435.16 4.60238 435.16 4.60238V2.41077H499.875V4.94677L499.656 4.60238Z" fill="black"/>
</g>
<defs>
<clipPath id="clip0_6_15202">
<rect width="500" height="156.544" fill="white"/>
</clipPath>
</defs>
</svg>
