<svg width="500" height="96" viewBox="0 0 500 96" fill="none" xmlns="http://www.w3.org/2000/svg">
<g clip-path="url(#clip0_6_15218)">
<path d="M92.0152 79.436C92.0152 79.436 64.9557 79.436 59.9493 79.436C53.1052 79.436 52.123 72.9088 52.123 72.9088L49.1128 55.3232H50.5387C50.507 55.3232 50.8239 55.9886 51.3308 57.5412C52.7884 61.8188 56.654 62.4842 59.6959 62.5475C60.8999 62.5475 64.4487 62.5475 64.4487 62.5475L46.0076 30.7668L27.5349 62.5475C28.7073 62.5158 31.4005 62.5475 31.4005 62.5475C38.4664 62.6743 39.9557 59.2522 40.2725 58.5868C40.7161 57.6046 41.5083 55.3232 41.5083 55.3232H42.9341C42.9341 55.3232 40.9062 68.2826 39.7022 73.7326C38.308 79.8162 31.5907 79.4043 31.5907 79.4043H0.0950928L46.071 0L92.0152 79.436Z" fill="#008147"/>
<path d="M169.93 35.0127C169.708 34.981 169.74 34.9493 169.708 34.8543C169.677 33.872 169.677 33.6185 169.677 32.6363C169.677 32.4145 169.708 32.4145 169.994 32.4462C172.497 32.5729 175.158 32.7313 176.838 32.6996C178.517 32.6679 183.555 32.4462 183.745 32.4462C183.872 32.4145 183.872 32.4778 183.904 32.6046C183.904 33.3017 183.872 33.872 183.84 34.7592C183.84 34.9176 183.809 34.9176 183.618 34.9176C180.323 35.3612 179.373 36.6287 178.264 38.9417C175.158 45.5323 168.473 60.1078 160.615 79.7846C160.456 80.1331 160.551 80.1331 160.044 80.1331C159.474 80.1331 159.601 80.2282 159.379 79.7846C157.129 74.7149 152.693 64.6071 150.665 60.3929C150.285 59.6008 150.349 59.474 149.905 60.3929C147.909 64.3536 145.184 70.0571 141.033 79.6895C140.811 80.2282 140.97 80.1648 140.368 80.1965C139.829 80.1965 139.956 80.2598 139.734 79.6895C136.375 71.4512 132.319 61.3118 124.588 42.4905C123.669 40.2091 122.37 37.0723 120.944 36.0266C120.279 35.5197 119.36 35.1077 117.776 35.0127C117.586 35.0127 117.586 34.8543 117.586 34.7909C117.522 33.9037 117.554 33.27 117.586 32.7313C117.586 32.5729 117.649 32.5095 117.902 32.5412C119.613 32.6679 122.94 32.7947 124.62 32.7947C127.598 32.763 130.862 32.6363 132.731 32.5412C132.921 32.5095 132.89 32.6046 132.89 32.6679C132.921 33.365 132.921 34.1255 132.89 34.9176C132.89 35.0444 132.858 35.1077 132.7 35.1077C131.622 35.0761 130.387 35.3612 129.816 36.1851C129.468 36.692 129.404 37.5475 129.753 38.4981C133.714 49.0178 140.779 66.5716 142.11 69.455C144.265 65.0824 146.483 59.6008 148.416 55.1648C145.342 48.9861 143.409 43.3777 140.082 37.2941C139.322 35.9316 137.357 35.1711 136.058 35.1394C135.868 35.1394 135.868 35.0444 135.868 34.9493C135.868 34.0938 135.805 33.5235 135.9 32.6679C135.9 32.5095 136.058 32.5095 136.217 32.5095C138.181 32.6363 141.477 32.763 143.124 32.763C144.804 32.763 149.778 32.6363 149.968 32.6046C150.158 32.6046 150.19 32.6996 150.19 32.8264C150.222 33.4284 150.253 33.9671 150.222 34.981C150.222 35.0866 150.148 35.15 150 35.1711C149.208 35.2028 148.004 35.3295 147.465 36.1851C147.117 36.692 147.053 37.1673 147.338 37.9278C148.891 42.3955 151.553 47.8137 151.648 47.8137C151.743 47.8137 154.785 41.1597 155.989 37.5475C156.305 36.6287 155.513 35.2662 153.232 35.0444C153.01 35.0444 153.042 35.0761 153.042 34.981C152.978 34.0621 152.978 33.2066 153.042 32.6363C153.042 32.4778 153.105 32.4462 153.264 32.4462C153.422 32.4778 158.428 32.6996 160.139 32.6679C161.977 32.6679 163.276 32.6046 165.304 32.5095C165.494 32.5095 165.463 32.6363 165.463 32.6996C165.463 33.5868 165.463 34.1889 165.431 34.8859C165.431 35.0761 165.431 35.1077 165.241 35.1077C162.706 34.9493 161.375 35.8365 160.773 36.8505C158.428 40.8429 155.07 48.289 153.517 52.4081C155.957 57.8581 158.555 63.9734 161.058 69.3917C162.896 65.526 165.019 60.488 166.857 56.3372C169.55 50.2218 172.972 41.5716 173.733 39.4487C174.461 37.3257 173.669 36.09 172.972 35.7098C172.212 35.2979 171.198 35.1077 169.93 35.0127Z" fill="black"/>
<path d="M228.2 51.9962C228.232 51.4575 228.01 50.7287 227.313 50.1901C226.394 49.4613 225.38 49.5564 224.62 49.4613C224.335 49.4296 224.208 49.5247 224.145 49.1761C224.081 48.7642 224.176 47.782 224.176 47.4334C224.208 47.1799 224.335 47.1166 224.937 47.1799C227.503 47.5285 233.619 47.37 237.167 47.0532C237.611 47.0215 237.548 47.1166 237.579 47.4017C237.611 47.782 237.611 48.6058 237.579 49.0494C237.548 49.3662 237.516 49.3979 237.104 49.4296C235.52 49.5564 234.601 49.8415 233.397 50.8238C232.224 51.806 231.622 53.327 231.527 53.5804C229.785 57.256 225.412 69.2648 222.307 76.806C220.532 81.0836 218.631 86.2167 215.684 90.9062C213.688 94.1381 211.565 94.9936 210.139 95.0887C208.714 95.1837 207.763 94.7084 207.193 94.2015C206.559 93.6628 206.084 92.4271 206.401 91.2547C206.717 89.9239 207.668 89.2585 208.555 88.9733C209.981 88.5614 211.407 88.6882 212.294 88.2446C213.815 87.5475 215.114 85.8998 215.97 84.2522C216.318 83.6185 217.807 80.0697 218.029 79.5944C218.283 78.9923 218.251 78.7072 218.093 78.2953C217.079 75.4752 209.442 55.9885 207.731 52.2496C207.161 51.0456 206.781 50.5703 205.862 49.9366C205.355 49.6197 203.517 49.3979 203.232 49.3662C202.915 49.3662 202.947 49.3979 202.915 49.0811C202.883 48.7642 202.883 47.8136 202.883 47.4334C202.915 47.0532 202.978 47.0532 203.264 47.0532C207.129 47.4017 212.991 47.4651 217.11 47.1799C217.491 47.1482 217.522 47.1166 217.554 47.5602C217.617 48.0038 217.586 48.7642 217.586 49.1761C217.586 49.4296 217.522 49.3979 217.142 49.3979C215.558 49.5247 214.702 49.9049 214.322 50.2534C213.498 50.9822 213.562 51.7427 214.037 53.0418C216.635 60.0126 217.586 62.6742 220.944 70.7858C221.261 71.5145 221.293 71.4828 221.578 70.7224C223.511 65.8745 224.873 62.294 226.331 58.1749C227.376 55.1964 228.169 52.82 228.2 51.9962Z" fill="black"/>
<path d="M276.141 53.454C276.965 52.2182 280.165 46.8951 285.266 47.1169C286.28 47.1485 288.023 47.5288 288.15 48.9229C288.276 50.2854 287.389 53.8342 285.646 53.3272C282.51 52.44 279.499 51.9964 277.44 54.6897C276.838 55.4819 276.172 56.9077 276.109 59.7911C276.046 61.2804 276.077 68.3463 276.172 74.5883C276.204 76.5528 277.567 76.9964 277.979 77.1549C278.739 77.4717 280.228 77.3767 280.957 77.44C281.115 77.44 281.179 77.5034 281.21 77.6618C281.274 78.2956 281.274 78.9926 281.21 79.5313C281.179 79.6264 281.147 79.6897 280.83 79.658C280.07 79.6264 278.042 79.4046 273.859 79.3729C269.899 79.3729 266.793 79.6897 265.875 79.7531C265.684 79.7531 265.589 79.7214 265.558 79.5947C265.463 79.0877 265.463 78.454 265.558 77.6618C265.558 77.5668 265.621 77.5351 265.811 77.5034C266.477 77.4401 268.505 77.4401 269.614 76.6162C270.216 76.1726 270.564 75.6023 270.564 74.62C270.532 69.2018 270.532 64.6707 270.532 58.6188C270.564 57.4147 270.247 54.6264 269.835 53.8025C269.202 52.5985 267.649 52.6302 266.54 52.5351C266.287 52.5351 266.191 52.5034 266.191 52.3133C266.16 51.838 266.16 51.331 266.191 50.9508C266.191 50.6656 266.096 50.6656 266.477 50.5072C269.55 49.2715 272.212 48.0357 274.588 46.6099C274.842 46.4515 274.905 46.3881 275.063 46.4831C275.222 46.5465 275.507 46.7049 275.697 46.8C275.856 46.8951 275.856 46.9267 275.887 47.2119C275.887 47.4654 275.919 52.6618 276.014 53.4223C276.014 53.6124 276.077 53.5807 276.141 53.454Z" fill="black"/>
<path d="M292.712 35.7098C292.047 34.6325 290.653 34.6325 289.702 34.6008C289.29 34.6008 289.227 34.6008 289.259 34.284C289.259 33.8404 289.259 33.27 289.227 32.9215C289.227 32.6997 289.195 32.6363 289.671 32.4779C293.283 31.1471 295.754 29.7529 297.655 28.6439C298.067 28.3904 298.036 28.3588 298.321 28.4855C298.606 28.6439 298.859 28.7707 299.24 28.9291C299.556 29.0875 299.525 29.0875 299.43 29.6896C299.176 31.8125 299.176 32.8898 299.113 34.9177C299.018 38.5299 298.923 44.4551 299.113 50.7922C299.176 52.1547 299.366 51.8695 300.127 51.4259C301.806 50.4754 305.038 48.3524 307.478 47.4335C308.175 47.18 308.904 46.9266 309.696 46.9582C314.195 47.0216 317.015 48.4475 318.916 50.8873C321.229 53.8657 320.532 59.6642 320.564 63.0229C320.627 66.3816 320.311 71.9266 320.342 73.5742C320.342 75.1585 320.818 75.9506 321.388 76.5527C321.958 77.1547 323.384 77.2498 324.525 77.3448C325.032 77.4082 325 77.3448 325.032 77.8518C325.063 78.4538 325.063 78.8974 325.063 79.3093C325.032 79.6896 324.968 79.6579 324.335 79.5945C322.18 79.341 319.645 79.1826 317.459 79.2143C315.684 79.246 313.118 79.246 310.456 79.4361C309.949 79.4678 309.823 79.5628 309.823 79.0558C309.823 78.5489 309.823 78.1053 309.854 77.63C309.886 77.2181 309.823 77.123 310.33 77.123C311.153 77.123 313.245 76.9963 313.942 76.4259C314.797 75.7288 314.829 73.4475 314.829 73.4475C314.829 73.4475 315.114 68.0609 314.956 59.5058C314.924 57.4145 315.177 54.4044 312.453 52.2181C308.809 49.3347 303.834 51.8378 303.422 52.0596C302.028 52.7884 300.317 53.9291 299.525 54.6896C299.145 55.0698 299.113 55.2599 299.049 56.0204C298.891 58.0482 298.859 64.0368 298.986 74.4931C298.986 75.7605 299.842 76.3309 300.095 76.521C300.919 77.1547 302.598 77.1864 303.485 77.2181C303.897 77.2498 303.961 77.2498 303.961 77.725C303.992 78.1686 303.992 78.7073 303.961 79.246C303.929 79.5628 303.866 79.5311 303.327 79.4994C300.507 79.2776 298.954 79.246 296.166 79.2143C293.314 79.2143 291.16 79.4044 288.847 79.5945C288.466 79.6579 288.371 79.6262 288.371 79.341C288.34 78.834 288.34 78.2954 288.34 77.6617C288.34 77.3765 288.403 77.2498 288.878 77.2498C290.114 77.2498 291.984 77.123 292.617 76.2992C293.061 75.7605 293.283 74.9684 293.346 74.4931C293.409 73.5742 293.378 58.7136 293.441 39.2903C293.441 37.104 293.188 36.4069 292.712 35.7098Z" fill="black"/>
<path d="M410.456 74.6831C410.266 74.5564 408.555 76.4258 405.26 78.2953C398.828 81.8758 394.233 79.4994 392.079 77.1229C390.082 74.8732 390.019 71.071 390.019 71.071C390.019 71.071 389.512 58.3016 389.512 53.5171C389.512 50.7288 388.403 49.9683 386.85 49.9683C386.09 49.9683 385.52 49.9683 385.393 49.8416C385.266 49.6831 385.266 47.782 385.393 47.5602C385.551 47.3384 388.213 47.4651 390.272 47.3067C392.807 47.1166 395.025 46.7047 395.215 46.8314C395.374 46.9582 395.247 58.0798 395.279 66.2231C395.342 74.3029 398.447 75.4119 402.345 75.4753C405.925 75.5703 410.456 71.7047 410.456 71.7047C410.456 71.7047 410.551 58.872 410.551 53.8339C410.551 51.109 409.506 50.2535 407.795 50.095C407.066 50 405.07 50.0317 404.943 49.9049C404.816 49.7465 404.785 47.9087 404.943 47.7186C405.006 47.6236 408.619 47.5285 411.09 47.275C413.72 47.0215 416.128 46.7364 416.191 46.768C416.318 46.8314 416.001 48.986 415.938 52.8517C415.779 58.6502 415.938 67.1736 416.001 72.2116C416.033 74.8416 417.237 75.8238 418.758 75.9822C420.406 76.1407 420.627 76.0456 420.722 76.1724C420.817 76.2674 420.786 78.1052 420.691 78.2002C420.596 78.327 417.902 78.3904 415.272 78.9607C412.896 79.4994 411.185 80.1964 411.027 80.1648C410.868 80.1014 409.981 79.1825 410.013 79.0874C410.234 78.2002 410.583 74.7465 410.456 74.6831Z" fill="black"/>
<path d="M441.888 48.0354C442.015 48.2255 442.649 54.1824 442.522 54.3408C442.427 54.4992 441.033 54.7527 440.906 54.6577C440.653 54.5626 440.558 52.3446 438.34 50.3801C436.058 48.3839 433.333 48.574 431.464 50.0949C429.373 51.8693 429.119 54.721 431.401 57.0975C432.858 58.6501 434.728 59.7591 436.375 60.8364C439.259 62.7375 443.346 64.8921 443.79 69.4549C444.233 73.6691 442.142 77.3763 438.023 79.0556C432.034 81.4954 425.158 78.4219 425.032 78.2001C424.873 77.9783 423.859 70.5005 423.954 70.3421C424.049 70.1837 425.792 70.0252 425.919 70.1203C426.172 70.247 426.458 73.7958 428.676 75.8237C431.876 78.7388 437.896 77.3446 438.625 73.1938C439.544 68.2508 432.953 66.318 429.214 63.1811C427.44 61.7236 425.792 60.0759 425.222 57.6995C424.366 54.2141 425.222 50.4435 427.915 48.574C431.242 46.2293 434.537 46.3243 437.041 46.6412C439.544 46.9897 441.857 47.972 441.888 48.0354Z" fill="black"/>
<path d="M487.991 53.454C488.783 52.2182 492.015 46.8634 497.117 47.0852C498.099 47.1485 499.842 47.5288 500 48.9229C500.127 50.2854 499.208 53.8025 497.465 53.3272C494.328 52.44 491.318 51.9964 489.259 54.6897C488.688 55.4819 488.023 56.9077 487.928 59.7594C487.864 61.2804 487.928 68.3463 487.991 74.5883C488.023 76.5528 489.417 76.9964 489.797 77.1549C490.589 77.4717 492.079 77.3767 492.807 77.44C492.934 77.44 493.029 77.4717 493.029 77.6618C493.124 78.2956 493.124 78.9926 493.029 79.5313C492.998 79.6264 492.998 79.6897 492.681 79.658C491.92 79.6264 489.861 79.4046 485.71 79.3729C481.717 79.3729 478.644 79.6897 477.725 79.7531C477.535 79.7531 477.408 79.7214 477.408 79.5947C477.313 79.0877 477.281 78.454 477.376 77.6618C477.408 77.5668 477.44 77.5351 477.63 77.5034C478.327 77.4401 480.355 77.4401 481.464 76.6162C482.034 76.1726 482.415 75.6023 482.383 74.62C482.383 69.2018 482.351 64.6707 482.383 58.6188C482.383 57.4147 482.098 54.6264 481.654 53.8025C481.052 52.5985 479.499 52.6302 478.39 52.5351C478.137 52.5351 478.042 52.5034 478.042 52.3133C478.01 51.838 478.01 51.331 478.042 50.9508C478.042 50.6656 477.915 50.6656 478.327 50.5072C481.369 49.2715 484.03 48.0357 486.407 46.6099C486.692 46.4515 486.724 46.3881 486.882 46.4831C487.072 46.5465 487.326 46.7049 487.516 46.8C487.706 46.8951 487.706 46.9267 487.706 47.1802C487.738 47.4654 487.738 52.6618 487.833 53.4223C487.864 53.6124 487.896 53.5807 487.991 53.454Z" fill="black"/>
<path fill-rule="evenodd" clip-rule="evenodd" d="M460.551 59.5692H459.854C456.844 59.6009 454.468 59.6326 454.373 59.791C453.834 60.4881 453.897 66.6351 455.894 69.6452C458.619 73.7961 462.611 75.6338 467.11 75.4754C470.469 75.3486 473.511 73.0039 473.511 73.0039L474.747 74.7149C472.845 77.1231 463.498 84.0305 454.816 77.3132C447.655 71.7365 448.923 62.2308 449.335 59.8227C450.032 55.7352 453.739 46.8315 463.91 46.8315C473.701 46.8315 474.842 54.9431 474.303 57.7314C473.891 59.8544 472.148 59.6009 472.148 59.6009C472.148 59.6009 465.684 59.5375 460.551 59.5692ZM459.854 56.7808H467.427C467.427 56.7808 469.107 56.9393 469.011 54.4995C468.853 51.7428 466.857 49.6833 463.498 49.5882C459.411 49.5248 456.464 52.6617 455.45 55.1649C454.785 56.7808 454.658 56.7492 455.862 56.7808H459.854Z" fill="black"/>
<path fill-rule="evenodd" clip-rule="evenodd" d="M350.412 68.4094C350.349 70.5957 350.317 72.4018 350.317 73.4474C350.317 76.5209 351.996 76.8061 351.996 76.8061C353.58 77.0596 355.133 75.6971 355.133 75.6971L356.052 77.123C350.792 81.1787 348.067 80.545 346.641 79.436C345.12 78.327 345.215 75.8555 344.899 75.7288C344.613 75.6337 340.463 80.2598 335.52 80.2915C329.753 80.3232 328.01 75.9189 327.947 72.8137C327.947 71.3245 328.359 69.3283 330.513 67.6806C333.302 65.526 344.613 62.5792 344.994 61.9772C345.247 61.5336 345.247 58.6185 344.994 55.5767C344.613 51.3308 341.762 49.9366 339.322 50.3486C337.516 50.6654 334.823 52.5032 334.316 53.2636C333.967 53.7706 333.777 54.9113 333.745 55.3549C333.714 55.9569 333.397 56.4005 332.953 56.5589C332.319 56.8124 330.64 57.4145 330.387 57.4461C329.341 57.6679 329.024 57.3194 329.278 56.0837C329.563 54.9113 329.816 54.3093 330.228 53.6755C330.292 53.5488 330.608 53.1052 331.147 52.7567C333.619 51.0456 339.987 47.1166 340.938 46.8314C342.649 46.3878 345.311 46.578 348.004 48.6058C349.715 49.905 350.729 52.82 350.729 55.7351C350.665 59.6325 350.539 64.1635 350.444 67.8074L350.412 68.4094ZM345.025 67.9024C345.025 66.128 344.994 64.5754 344.93 64.5121C344.804 64.3853 343.885 64.6705 341.223 65.6211C339.861 66.0963 336.66 67.3955 335.71 68.2193C334.252 69.5501 333.238 71.2294 334.411 74.1445C335.298 76.3625 337.928 76.711 340.019 76.109C342.015 75.5387 344.487 73.4157 344.867 72.8137C344.93 72.687 344.994 70.5323 344.994 68.4411L345.025 67.9024Z" fill="black"/>
<path fill-rule="evenodd" clip-rule="evenodd" d="M369.138 59.5692H368.409C365.399 59.6009 363.023 59.6326 362.928 59.791C362.389 60.4881 362.484 66.6351 364.449 69.6452C367.205 73.7961 371.166 75.6338 375.665 75.4754C379.024 75.3486 382.066 73.0039 382.066 73.0039L383.302 74.7149C381.401 77.1231 372.053 84.0305 363.371 77.3132C356.21 71.7365 357.51 62.2308 357.89 59.8227C358.587 55.7352 362.294 46.8315 372.465 46.8315C382.256 46.8315 383.428 54.9431 382.858 57.7314C382.446 59.8544 380.703 59.6009 380.703 59.6009C380.703 59.6009 374.24 59.5375 369.138 59.5692ZM368.409 56.7808H375.982C375.982 56.7808 377.693 56.9393 377.567 54.4995C377.44 51.7428 375.412 49.6833 372.053 49.5882C367.998 49.5248 365.051 52.6617 364.005 55.1649C363.34 56.7808 363.213 56.7492 364.417 56.7808H368.409Z" fill="black"/>
<path fill-rule="evenodd" clip-rule="evenodd" d="M248.701 59.5692H248.004C244.994 59.6009 242.617 59.6326 242.522 59.791C241.984 60.4881 242.047 66.6351 244.043 69.6452C246.768 73.7961 250.76 75.6338 255.26 75.4754C258.619 75.3486 261.66 73.0039 261.66 73.0039L262.896 74.7149C260.995 77.1231 251.648 84.0305 242.966 77.3132C235.805 71.7365 237.072 62.2308 237.484 59.8227C238.181 55.7352 241.889 46.8315 252.06 46.8315C261.85 46.8315 262.991 54.9431 262.453 57.7314C262.041 59.8544 260.298 59.6009 260.298 59.6009C260.298 59.6009 253.834 59.5375 248.701 59.5692ZM248.004 56.7808H255.577C255.577 56.7808 257.256 56.9393 257.129 54.4995C257.003 51.7428 255.006 49.6833 251.648 49.5882C247.56 49.5248 244.613 52.6617 243.6 55.1649C242.934 56.7808 242.807 56.7492 244.011 56.7808H248.004Z" fill="black"/>
<path fill-rule="evenodd" clip-rule="evenodd" d="M188.023 59.5692H187.326C184.316 59.6009 181.939 59.6326 181.844 59.791C181.305 60.4881 181.369 66.6351 183.365 69.6452C186.09 73.7961 190.082 75.6338 194.582 75.4754C197.94 75.3486 200.982 73.0039 200.982 73.0039L202.218 74.7149C200.317 77.1231 190.97 84.0305 182.288 77.3132C175.127 71.7365 176.394 62.2308 176.806 59.8227C177.503 55.7352 181.21 46.8315 191.382 46.8315C201.172 46.8315 202.313 54.9431 201.774 57.7314C201.362 59.8544 199.62 59.6009 199.62 59.6009C199.62 59.6009 193.156 59.5375 188.023 59.5692ZM187.326 56.7808H194.899C194.899 56.7808 196.61 56.9393 196.483 54.4995C196.356 51.7428 194.328 49.6833 190.97 49.5882C186.914 49.5248 183.935 52.6617 182.921 55.1649C182.256 56.7808 182.129 56.7492 183.333 56.7808H187.326Z" fill="black"/>
</g>
<defs>
<clipPath id="clip0_6_15218">
<rect width="500" height="95.3739" fill="white"/>
</clipPath>
</defs>
</svg>
